<?xml version="1.0"?>
<svg version="1.1" id="topsvg"
xmlns="http://www.w3.org/2000/svg" xmlns:xlink="http://www.w3.org/1999/xlink"
xmlns:cml="http://www.xml-cml.org/schema" x="0" y="0" width="1024px" height="1024px" viewBox="0 0 100 100">
<title>10027 - Open Babel Depiction</title>
<rect x="0" y="0" width="100" height="100" fill="white"/>
<defs>
<radialGradient id='radialffffff666666' cx='50%' cy='50%' r='50%' fx='30%' fy='30%'>
  <stop offset=' 0%' stop-color="rgb(255,255,255)"  stop-opacity='1.0'/>
  <stop offset='100%' stop-color="rgb(102,102,102)"  stop-opacity ='1.0'/>
</radialGradient>
<radialGradient id='radialffffff7fb2ff' cx='50%' cy='50%' r='50%' fx='30%' fy='30%'>
  <stop offset=' 0%' stop-color="rgb(255,255,255)"  stop-opacity='1.0'/>
  <stop offset='100%' stop-color="rgb(127,178,255)"  stop-opacity ='1.0'/>
</radialGradient>
<radialGradient id='radialffffffbfbfbf' cx='50%' cy='50%' r='50%' fx='30%' fy='30%'>
  <stop offset=' 0%' stop-color="rgb(255,255,255)"  stop-opacity='1.0'/>
  <stop offset='100%' stop-color="rgb(191,191,191)"  stop-opacity ='1.0'/>
</radialGradient>
</defs>
<g transform="translate(0,0)">
<svg width="100" height="100" x="0" y="0" viewBox="0 0 424.342 187.963"
font-family="sans-serif" stroke="rgb(0,0,0)" stroke-width="2"  stroke-linecap="round">
<line x1="362.6" y1="129.4" x2="356.9" y2="92.1" opacity="1.0" stroke="rgb(0,0,0)"  stroke-width="1.6"/>
<line x1="232.2" y1="79.4" x2="193.4" y2="108.7" opacity="0.5" stroke="rgb(0,0,0)"  stroke-width="1.6"/>
<line x1="232.2" y1="79.4" x2="275.3" y2="100.8" opacity="0.5" stroke="rgb(0,0,0)"  stroke-width="1.5"/>
<line x1="232.2" y1="79.4" x2="232.3" y2="72.3" opacity="0.5" stroke="rgb(0,0,0)"  stroke-width="2.4"/>
<line x1="232.2" y1="79.4" x2="228.7" y2="48.2" opacity="0.8" stroke="rgb(0,0,0)"  stroke-width="1.5"/>
<line x1="193.4" y1="108.7" x2="149.3" y2="88.5" opacity="0.5" stroke="rgb(0,0,0)"  stroke-width="1.6"/>
<line x1="193.4" y1="108.7" x2="196.8" y2="139.9" opacity="0.5" stroke="rgb(0,0,0)"  stroke-width="1.7"/>
<line x1="193.4" y1="108.7" x2="193.8" y2="116.1" opacity="0.6" stroke="rgb(0,0,0)"  stroke-width="0.8"/>
<line x1="275.3" y1="100.8" x2="314.1" y2="71.1" opacity="0.3" stroke="rgb(0,0,0)"  stroke-width="1.5"/>
<line x1="275.3" y1="100.8" x2="279.0" y2="131.8" opacity="0.5" stroke="rgb(0,0,0)"  stroke-width="1.6"/>
<line x1="275.3" y1="100.8" x2="274.7" y2="108.5" opacity="0.5" stroke="rgb(0,0,0)"  stroke-width="0.7"/>
<line x1="149.3" y1="88.5" x2="110.4" y2="116.7" opacity="0.2" stroke="rgb(0,0,0)"  stroke-width="1.6"/>
<line x1="149.3" y1="88.5" x2="148.2" y2="82.3" opacity="0.5" stroke="rgb(0,0,0)"  stroke-width="2.4"/>
<line x1="149.3" y1="88.5" x2="146.5" y2="56.6" opacity="0.8" stroke="rgb(0,0,0)"  stroke-width="1.5"/>
<line x1="314.1" y1="71.1" x2="356.9" y2="92.1" opacity="0.5" stroke="rgb(0,0,0)"  stroke-width="1.4"/>
<line x1="314.1" y1="71.1" x2="314.9" y2="64.2" opacity="0.5" stroke="rgb(0,0,0)"  stroke-width="2.3"/>
<line x1="314.1" y1="71.1" x2="310.3" y2="40.0" opacity="0.8" stroke="rgb(0,0,0)"  stroke-width="1.4"/>
<line x1="110.4" y1="116.7" x2="67.4" y2="94.2" opacity="0.5" stroke="rgb(0,0,0)"  stroke-width="1.5"/>
<line x1="110.4" y1="116.7" x2="111.8" y2="123.9" opacity="0.5" stroke="rgb(0,0,0)"  stroke-width="0.7"/>
<line x1="110.4" y1="116.7" x2="111.8" y2="148.0" opacity="0.2" stroke="rgb(0,0,0)"  stroke-width="1.6"/>
<line x1="356.9" y1="92.1" x2="384.3" y2="70.5" opacity="0.5" stroke="rgb(0,0,0)"  stroke-width="1.3"/>
<line x1="356.9" y1="92.1" x2="357.3" y2="100.2" opacity="0.4" stroke="rgb(0,0,0)"  stroke-width="0.6"/>
<line x1="67.4" y1="94.2" x2="40.0" y2="114.9" opacity="0.2" stroke="rgb(0,0,0)"  stroke-width="1.5"/>
<line x1="67.4" y1="94.2" x2="64.6" y2="63.3" opacity="0.5" stroke="rgb(0,0,0)"  stroke-width="1.4"/>
<line x1="67.4" y1="94.2" x2="64.5" y2="87.3" opacity="0.5" stroke="rgb(0,0,0)"  stroke-width="2.3"/>
<circle cx="357.349079" cy="100.244437" r="5.636364" opacity="0.200000" style="stroke:black;stroke-width:0.5;fill:url(#radialffffffbfbfbf)"/>
<circle cx="274.700386" cy="108.529514" r="5.636364" opacity="0.200000" style="stroke:black;stroke-width:0.5;fill:url(#radialffffffbfbfbf)"/>
<circle cx="111.818123" cy="123.870921" r="5.636364" opacity="0.213972" style="stroke:black;stroke-width:0.5;fill:url(#radialffffffbfbfbf)"/>
<circle cx="193.785627" cy="116.120366" r="5.636364" opacity="0.248003" style="stroke:black;stroke-width:0.5;fill:url(#radialffffffbfbfbf)"/>
<circle cx="310.262335" cy="40.000000" r="5.636364" opacity="0.594715" style="stroke:black;stroke-width:0.5;fill:url(#radialffffffbfbfbf)"/>
<circle cx="64.607526" cy="63.339668" r="5.636364" opacity="0.599780" style="stroke:black;stroke-width:0.5;fill:url(#radialffffffbfbfbf)"/>
<circle cx="228.656610" cy="48.154706" r="5.636364" opacity="0.626249" style="stroke:black;stroke-width:0.5;fill:url(#radialffffffbfbfbf)"/>
<circle cx="356.886262" cy="92.053880" r="13.818182" opacity="0.630498" style="stroke:black;stroke-width:0.5;fill:url(#radialffffff666666)"/>
<circle cx="146.539178" cy="56.635339" r="5.636364" opacity="0.642060" style="stroke:black;stroke-width:0.5;fill:url(#radialffffffbfbfbf)"/>
<circle cx="275.267500" cy="100.840885" r="13.818182" opacity="0.661653" style="stroke:black;stroke-width:0.5;fill:url(#radialffffff666666)"/>
<circle cx="110.361227" cy="116.726591" r="13.818182" opacity="0.668224" style="stroke:black;stroke-width:0.5;fill:url(#radialffffff666666)"/>
<circle cx="40.000000" cy="114.933989" r="5.636364" opacity="0.673872" style="stroke:black;stroke-width:0.5;fill:url(#radialffffffbfbfbf)"/>
<circle cx="193.352144" cy="108.708774" r="13.818182" opacity="0.679941" style="stroke:black;stroke-width:0.5;fill:url(#radialffffff666666)"/>
<circle cx="384.342394" cy="70.454665" r="5.636364" opacity="0.692053" style="stroke:black;stroke-width:0.5;fill:url(#radialffffffbfbfbf)"/>
<circle cx="314.056131" cy="71.100001" r="15.205263" opacity="0.741748" style="stroke:black;stroke-width:0.5;fill:url(#radialffffff666666)"/>
<circle cx="67.400724" cy="94.165890" r="15.562354" opacity="0.750408" style="stroke:black;stroke-width:0.5;fill:url(#radialffffff666666)"/>
<circle cx="232.176627" cy="79.372041" r="16.238350" opacity="0.766532" style="stroke:black;stroke-width:0.5;fill:url(#radialffffff666666)"/>
<circle cx="149.263932" cy="88.458899" r="16.488108" opacity="0.772405" style="stroke:black;stroke-width:0.5;fill:url(#radialffffff666666)"/>
<circle cx="279.009148" cy="131.768144" r="7.199424" opacity="0.799161" style="stroke:black;stroke-width:0.5;fill:url(#radialffffffbfbfbf)"/>
<circle cx="111.769234" cy="147.963481" r="7.263833" opacity="0.802728" style="stroke:black;stroke-width:0.5;fill:url(#radialffffffbfbfbf)"/>
<circle cx="196.810234" cy="139.877220" r="7.430537" opacity="0.811887" style="stroke:black;stroke-width:0.5;fill:url(#radialffffffbfbfbf)"/>
<circle cx="362.635623" cy="129.421466" r="13.722201" opacity="0.813656" style="stroke:black;stroke-width:0.5;fill:url(#radialffffff7fb2ff)"/>
<circle cx="314.890505" cy="64.174042" r="10.727992" opacity="0.975539" style="stroke:black;stroke-width:0.5;fill:url(#radialffffffbfbfbf)"/>
<circle cx="64.516266" cy="87.318153" r="10.855125" opacity="0.981303" style="stroke:black;stroke-width:0.5;fill:url(#radialffffffbfbfbf)"/>
<circle cx="232.346109" cy="72.309192" r="11.148541" opacity="0.994476" style="stroke:black;stroke-width:0.5;fill:url(#radialffffffbfbfbf)"/>
<circle cx="148.159038" cy="82.311907" r="11.272727" opacity="1.000000" style="stroke:black;stroke-width:0.5;fill:url(#radialffffffbfbfbf)"/>
</svg>
</g>
</svg>
