<?xml version="1.0"?>
<svg version="1.1" id="topsvg"
xmlns="http://www.w3.org/2000/svg" xmlns:xlink="http://www.w3.org/1999/xlink"
xmlns:cml="http://www.xml-cml.org/schema" x="0" y="0" width="1024px" height="1024px" viewBox="0 0 100 100">
<title>1017 - Open Babel Depiction</title>
<rect x="0" y="0" width="100" height="100" fill="white"/>
<defs>
<radialGradient id='radialffffff666666' cx='50%' cy='50%' r='50%' fx='30%' fy='30%'>
  <stop offset=' 0%' stop-color="rgb(255,255,255)"  stop-opacity='1.0'/>
  <stop offset='100%' stop-color="rgb(102,102,102)"  stop-opacity ='1.0'/>
</radialGradient>
<radialGradient id='radialffffffbfbfbf' cx='50%' cy='50%' r='50%' fx='30%' fy='30%'>
  <stop offset=' 0%' stop-color="rgb(255,255,255)"  stop-opacity='1.0'/>
  <stop offset='100%' stop-color="rgb(191,191,191)"  stop-opacity ='1.0'/>
</radialGradient>
<radialGradient id='radialffffffffcc' cx='50%' cy='50%' r='50%' fx='30%' fy='30%'>
  <stop offset=' 0%' stop-color="rgb(255,255,255)"  stop-opacity='1.0'/>
  <stop offset='100%' stop-color="rgb(255,12,12)"  stop-opacity ='1.0'/>
</radialGradient>
</defs>
<g transform="translate(0,0)">
<svg width="100" height="100" x="0" y="0" viewBox="0 0 279.714 271.938"
font-family="sans-serif" stroke="rgb(0,0,0)" stroke-width="2"  stroke-linecap="round">
<line x1="211.1" y1="78.9" x2="196.6" y2="83.8" opacity="1.0" stroke="rgb(0,0,0)"  stroke-width="2.1"/>
<line x1="211.1" y1="78.9" x2="239.7" y2="67.0" opacity="0.7" stroke="rgb(0,0,0)"  stroke-width="3.0"/>
<line x1="172.9" y1="212.2" x2="182.8" y2="174.7" opacity="1.0" stroke="rgb(0,0,0)"  stroke-width="1.5"/>
<line x1="172.9" y1="212.2" x2="196.9" y2="231.9" opacity="0.5" stroke="rgb(0,0,0)"  stroke-width="1.9"/>
<line x1="219.1" y1="76.8" x2="197.8" y2="86.6" opacity="0.6" stroke="rgb(0,0,0)"  stroke-width="0.7"/>
<line x1="216.6" y1="71.3" x2="195.3" y2="81.1" opacity="0.6" stroke="rgb(0,0,0)"  stroke-width="0.7"/>
<line x1="218.6" y1="170.4" x2="183.4" y2="177.6" opacity="0.2" stroke="rgb(0,0,0)"  stroke-width="0.8"/>
<line x1="217.4" y1="164.6" x2="182.2" y2="171.7" opacity="0.2" stroke="rgb(0,0,0)"  stroke-width="0.8"/>
<line x1="154.1" y1="101.5" x2="196.6" y2="83.8" opacity="0.3" stroke="rgb(0,0,0)"  stroke-width="1.3"/>
<line x1="147.5" y1="145.1" x2="182.8" y2="174.7" opacity="0.4" stroke="rgb(0,0,0)"  stroke-width="1.2"/>
<line x1="119.7" y1="74.0" x2="124.4" y2="40.0" opacity="0.4" stroke="rgb(0,0,0)"  stroke-width="1.3"/>
<line x1="106.4" y1="161.1" x2="100.2" y2="194.9" opacity="0.4" stroke="rgb(0,0,0)"  stroke-width="1.1"/>
<line x1="78.6" y1="90.0" x2="51.8" y2="68.6" opacity="0.4" stroke="rgb(0,0,0)"  stroke-width="1.2"/>
<line x1="72.0" y1="133.6" x2="40.0" y2="146.0" opacity="0.4" stroke="rgb(0,0,0)"  stroke-width="1.1"/>
<line x1="156.0" y1="99.2" x2="121.5" y2="71.7" opacity="0.4" stroke="rgb(0,0,0)"  stroke-width="1.3"/>
<line x1="152.2" y1="103.9" x2="117.8" y2="76.3" opacity="0.4" stroke="rgb(0,0,0)"  stroke-width="1.3" stroke-dasharray="5.0,5.0"/>
<line x1="118.6" y1="71.2" x2="77.5" y2="87.2" opacity="0.4" stroke="rgb(0,0,0)"  stroke-width="1.2"/>
<line x1="120.8" y1="76.8" x2="79.7" y2="92.8" opacity="0.4" stroke="rgb(0,0,0)"  stroke-width="1.2" stroke-dasharray="5.0,5.0"/>
<line x1="75.6" y1="89.6" x2="69.0" y2="133.1" opacity="0.4" stroke="rgb(0,0,0)"  stroke-width="1.2"/>
<line x1="81.6" y1="90.5" x2="74.9" y2="134.0" opacity="0.4" stroke="rgb(0,0,0)"  stroke-width="1.2" stroke-dasharray="5.0,5.0"/>
<line x1="70.1" y1="135.9" x2="104.5" y2="163.5" opacity="0.4" stroke="rgb(0,0,0)"  stroke-width="1.1"/>
<line x1="73.8" y1="131.2" x2="108.3" y2="158.8" opacity="0.4" stroke="rgb(0,0,0)"  stroke-width="1.1" stroke-dasharray="5.0,5.0"/>
<line x1="107.5" y1="163.9" x2="148.6" y2="147.9" opacity="0.4" stroke="rgb(0,0,0)"  stroke-width="1.2"/>
<line x1="105.3" y1="158.3" x2="146.4" y2="142.3" opacity="0.4" stroke="rgb(0,0,0)"  stroke-width="1.2" stroke-dasharray="5.0,5.0"/>
<line x1="150.4" y1="145.5" x2="157.1" y2="102.0" opacity="0.4" stroke="rgb(0,0,0)"  stroke-width="1.2"/>
<line x1="144.5" y1="144.6" x2="151.1" y2="101.1" opacity="0.4" stroke="rgb(0,0,0)"  stroke-width="1.2" stroke-dasharray="5.0,5.0"/>
<circle cx="217.857409" cy="74.053699" r="12.000000" opacity="0.200000" style="stroke:black;stroke-width:0.5;fill:url(#radialffffffffcc)"/>
<circle cx="217.961713" cy="167.491185" r="12.000000" opacity="0.419138" style="stroke:black;stroke-width:0.5;fill:url(#radialffffffffcc)"/>
<circle cx="100.161325" cy="194.856780" r="5.636364" opacity="0.595710" style="stroke:black;stroke-width:0.5;fill:url(#radialffffffbfbfbf)"/>
<circle cx="40.000000" cy="146.036153" r="5.636364" opacity="0.609206" style="stroke:black;stroke-width:0.5;fill:url(#radialffffffbfbfbf)"/>
<circle cx="106.403766" cy="161.115993" r="13.818182" opacity="0.615094" style="stroke:black;stroke-width:0.5;fill:url(#radialffffff666666)"/>
<circle cx="71.973939" cy="133.579718" r="13.818182" opacity="0.620359" style="stroke:black;stroke-width:0.5;fill:url(#radialffffff666666)"/>
<circle cx="182.763829" cy="174.672362" r="13.818182" opacity="0.621845" style="stroke:black;stroke-width:0.5;fill:url(#radialffffff666666)"/>
<circle cx="147.461642" cy="145.097416" r="13.818182" opacity="0.627789" style="stroke:black;stroke-width:0.5;fill:url(#radialffffff666666)"/>
<circle cx="78.605150" cy="90.024866" r="13.818182" opacity="0.638101" style="stroke:black;stroke-width:0.5;fill:url(#radialffffff666666)"/>
<circle cx="51.799003" cy="68.585637" r="5.636364" opacity="0.641776" style="stroke:black;stroke-width:0.5;fill:url(#radialffffffbfbfbf)"/>
<circle cx="154.092852" cy="101.545725" r="13.818182" opacity="0.645293" style="stroke:black;stroke-width:0.5;fill:url(#radialffffff666666)"/>
<circle cx="119.666187" cy="74.003128" r="13.818182" opacity="0.650347" style="stroke:black;stroke-width:0.5;fill:url(#radialffffff666666)"/>
<circle cx="196.592021" cy="83.842479" r="13.818182" opacity="0.658541" style="stroke:black;stroke-width:0.5;fill:url(#radialffffff666666)"/>
<circle cx="124.419924" cy="40.000000" r="5.636364" opacity="0.663495" style="stroke:black;stroke-width:0.5;fill:url(#radialffffffbfbfbf)"/>
<circle cx="196.860683" cy="231.938459" r="7.181706" opacity="0.798177" style="stroke:black;stroke-width:0.5;fill:url(#radialffffffbfbfbf)"/>
<circle cx="172.933961" cy="212.221828" r="15.450422" opacity="0.802351" style="stroke:black;stroke-width:0.5;fill:url(#radialffffffffcc)"/>
<circle cx="211.099769" cy="78.918062" r="23.815401" opacity="0.996147" style="stroke:black;stroke-width:0.5;fill:url(#radialffffffffcc)"/>
<circle cx="239.713853" cy="66.986308" r="11.272727" opacity="1.000000" style="stroke:black;stroke-width:0.5;fill:url(#radialffffffbfbfbf)"/>
</svg>
</g>
</svg>
