<?xml version="1.0"?>
<svg version="1.1" id="topsvg"
xmlns="http://www.w3.org/2000/svg" xmlns:xlink="http://www.w3.org/1999/xlink"
xmlns:cml="http://www.xml-cml.org/schema" x="0" y="0" width="1024px" height="1024px" viewBox="0 0 100 100">
<title>10263 - Open Babel Depiction</title>
<rect x="0" y="0" width="100" height="100" fill="white"/>
<defs>
<radialGradient id='radialffffff666666' cx='50%' cy='50%' r='50%' fx='30%' fy='30%'>
  <stop offset=' 0%' stop-color="rgb(255,255,255)"  stop-opacity='1.0'/>
  <stop offset='100%' stop-color="rgb(102,102,102)"  stop-opacity ='1.0'/>
</radialGradient>
<radialGradient id='radialffffffbfbfbf' cx='50%' cy='50%' r='50%' fx='30%' fy='30%'>
  <stop offset=' 0%' stop-color="rgb(255,255,255)"  stop-opacity='1.0'/>
  <stop offset='100%' stop-color="rgb(191,191,191)"  stop-opacity ='1.0'/>
</radialGradient>
</defs>
<g transform="translate(0,0)">
<svg width="100" height="100" x="0" y="0" viewBox="0 0 293.102 254.859"
font-family="sans-serif" stroke="rgb(0,0,0)" stroke-width="2"  stroke-linecap="round">
<line x1="169.1" y1="105.9" x2="193.4" y2="64.0" opacity="1.0" stroke="rgb(0,0,0)"  stroke-width="1.5"/>
<line x1="124.0" y1="105.9" x2="99.7" y2="64.0" opacity="0.5" stroke="rgb(0,0,0)"  stroke-width="1.5"/>
<line x1="191.7" y1="145.0" x2="240.0" y2="145.9" opacity="0.5" stroke="rgb(0,0,0)"  stroke-width="1.5"/>
<line x1="101.4" y1="145.0" x2="53.1" y2="145.9" opacity="0.5" stroke="rgb(0,0,0)"  stroke-width="1.5"/>
<line x1="169.1" y1="184.1" x2="186.2" y2="214.9" opacity="0.5" stroke="rgb(0,0,0)"  stroke-width="1.5"/>
<line x1="124.0" y1="184.1" x2="106.9" y2="214.9" opacity="0.5" stroke="rgb(0,0,0)"  stroke-width="1.5"/>
<line x1="193.4" y1="64.0" x2="195.3" y2="51.1" opacity="0.5" stroke="rgb(0,0,0)"  stroke-width="0.8"/>
<line x1="193.4" y1="64.0" x2="177.9" y2="40.0" opacity="0.3" stroke="rgb(0,0,0)"  stroke-width="2.0"/>
<line x1="193.4" y1="64.0" x2="226.4" y2="66.9" opacity="0.7" stroke="rgb(0,0,0)"  stroke-width="1.8"/>
<line x1="99.7" y1="64.0" x2="115.2" y2="40.0" opacity="0.6" stroke="rgb(0,0,0)"  stroke-width="1.0"/>
<line x1="99.7" y1="64.0" x2="66.8" y2="66.9" opacity="0.3" stroke="rgb(0,0,0)"  stroke-width="1.2"/>
<line x1="99.7" y1="64.0" x2="97.8" y2="51.1" opacity="0.4" stroke="rgb(0,0,0)"  stroke-width="2.2"/>
<line x1="240.0" y1="145.9" x2="253.1" y2="126.7" opacity="0.7" stroke="rgb(0,0,0)"  stroke-width="0.9"/>
<line x1="240.0" y1="145.9" x2="252.8" y2="133.9" opacity="0.3" stroke="rgb(0,0,0)"  stroke-width="2.2"/>
<line x1="240.0" y1="145.9" x2="252.4" y2="178.9" opacity="0.7" stroke="rgb(0,0,0)"  stroke-width="1.4"/>
<line x1="53.1" y1="145.9" x2="40.0" y2="126.7" opacity="0.5" stroke="rgb(0,0,0)"  stroke-width="2.1"/>
<line x1="53.1" y1="145.9" x2="40.4" y2="133.9" opacity="0.7" stroke="rgb(0,0,0)"  stroke-width="0.8"/>
<line x1="53.1" y1="145.9" x2="40.7" y2="178.9" opacity="0.3" stroke="rgb(0,0,0)"  stroke-width="1.6"/>
<line x1="166.5" y1="107.4" x2="189.1" y2="146.5" opacity="0.5" stroke="rgb(0,0,0)"  stroke-width="1.5"/>
<line x1="171.7" y1="104.4" x2="194.3" y2="143.5" opacity="0.5" stroke="rgb(0,0,0)"  stroke-width="1.5" stroke-dasharray="5.0,5.0"/>
<line x1="189.1" y1="143.5" x2="166.5" y2="182.6" opacity="0.5" stroke="rgb(0,0,0)"  stroke-width="1.5"/>
<line x1="194.3" y1="146.5" x2="171.7" y2="185.6" opacity="0.5" stroke="rgb(0,0,0)"  stroke-width="1.5" stroke-dasharray="5.0,5.0"/>
<line x1="169.1" y1="181.1" x2="124.0" y2="181.1" opacity="0.5" stroke="rgb(0,0,0)"  stroke-width="1.5"/>
<line x1="169.1" y1="187.1" x2="124.0" y2="187.1" opacity="0.5" stroke="rgb(0,0,0)"  stroke-width="1.5" stroke-dasharray="5.0,5.0"/>
<line x1="126.6" y1="182.6" x2="104.0" y2="143.5" opacity="0.5" stroke="rgb(0,0,0)"  stroke-width="1.5"/>
<line x1="121.4" y1="185.6" x2="98.8" y2="146.5" opacity="0.5" stroke="rgb(0,0,0)"  stroke-width="1.5" stroke-dasharray="5.0,5.0"/>
<line x1="104.0" y1="146.5" x2="126.6" y2="107.4" opacity="0.5" stroke="rgb(0,0,0)"  stroke-width="1.5"/>
<line x1="98.8" y1="143.5" x2="121.4" y2="104.4" opacity="0.5" stroke="rgb(0,0,0)"  stroke-width="1.5" stroke-dasharray="5.0,5.0"/>
<line x1="124.0" y1="108.9" x2="169.1" y2="108.9" opacity="0.5" stroke="rgb(0,0,0)"  stroke-width="1.5"/>
<line x1="124.0" y1="102.9" x2="169.1" y2="102.9" opacity="0.5" stroke="rgb(0,0,0)"  stroke-width="1.5" stroke-dasharray="5.0,5.0"/>
<circle cx="195.313815" cy="51.072113" r="5.636364" opacity="0.200000" style="stroke:black;stroke-width:0.5;fill:url(#radialffffffbfbfbf)"/>
<circle cx="40.356016" cy="133.913915" r="5.636364" opacity="0.200000" style="stroke:black;stroke-width:0.5;fill:url(#radialffffffbfbfbf)"/>
<circle cx="253.101765" cy="126.686780" r="5.636364" opacity="0.305975" style="stroke:black;stroke-width:0.5;fill:url(#radialffffffbfbfbf)"/>
<circle cx="115.232759" cy="40.000000" r="5.636364" opacity="0.426365" style="stroke:black;stroke-width:0.5;fill:url(#radialffffffbfbfbf)"/>
<circle cx="66.762731" cy="66.876009" r="5.636364" opacity="0.554881" style="stroke:black;stroke-width:0.5;fill:url(#radialffffffbfbfbf)"/>
<circle cx="252.399442" cy="178.894981" r="5.636364" opacity="0.659270" style="stroke:black;stroke-width:0.5;fill:url(#radialffffffbfbfbf)"/>
<circle cx="106.901973" cy="214.859121" r="5.636364" opacity="0.706794" style="stroke:black;stroke-width:0.5;fill:url(#radialffffffbfbfbf)"/>
<circle cx="169.127183" cy="105.908363" r="13.818182" opacity="0.706898" style="stroke:black;stroke-width:0.5;fill:url(#radialffffff666666)"/>
<circle cx="123.981055" cy="105.908363" r="13.818182" opacity="0.706898" style="stroke:black;stroke-width:0.5;fill:url(#radialffffff666666)"/>
<circle cx="240.032723" cy="145.927854" r="13.818182" opacity="0.706898" style="stroke:black;stroke-width:0.5;fill:url(#radialffffff666666)"/>
<circle cx="191.695393" cy="145.011920" r="13.818182" opacity="0.706933" style="stroke:black;stroke-width:0.5;fill:url(#radialffffff666666)"/>
<circle cx="101.409609" cy="145.008684" r="13.818182" opacity="0.706933" style="stroke:black;stroke-width:0.5;fill:url(#radialffffff666666)"/>
<circle cx="99.694257" cy="64.021404" r="13.818182" opacity="0.706933" style="stroke:black;stroke-width:0.5;fill:url(#radialffffff666666)"/>
<circle cx="53.072278" cy="145.921381" r="13.818182" opacity="0.706968" style="stroke:black;stroke-width:0.5;fill:url(#radialffffff666666)"/>
<circle cx="169.120710" cy="184.105768" r="13.818182" opacity="0.707037" style="stroke:black;stroke-width:0.5;fill:url(#radialffffff666666)"/>
<circle cx="123.977819" cy="184.105768" r="13.818182" opacity="0.707037" style="stroke:black;stroke-width:0.5;fill:url(#radialffffff666666)"/>
<circle cx="193.413981" cy="64.024640" r="13.819540" opacity="0.707142" style="stroke:black;stroke-width:0.5;fill:url(#radialffffff666666)"/>
<circle cx="186.193320" cy="214.859121" r="5.640796" opacity="0.707385" style="stroke:black;stroke-width:0.5;fill:url(#radialffffffbfbfbf)"/>
<circle cx="40.702323" cy="178.888508" r="6.367639" opacity="0.751579" style="stroke:black;stroke-width:0.5;fill:url(#radialffffffbfbfbf)"/>
<circle cx="226.358453" cy="66.892192" r="7.793627" opacity="0.831487" style="stroke:black;stroke-width:0.5;fill:url(#radialffffffbfbfbf)"/>
<circle cx="177.898135" cy="40.029129" r="9.228479" opacity="0.904796" style="stroke:black;stroke-width:0.5;fill:url(#radialffffffbfbfbf)"/>
<circle cx="40.000000" cy="126.680307" r="10.211823" opacity="0.951781" style="stroke:black;stroke-width:0.5;fill:url(#radialffffffbfbfbf)"/>
<circle cx="252.752222" cy="133.920388" r="10.907643" opacity="0.983673" style="stroke:black;stroke-width:0.5;fill:url(#radialffffffbfbfbf)"/>
<circle cx="97.765295" cy="51.107715" r="11.272727" opacity="1.000000" style="stroke:black;stroke-width:0.5;fill:url(#radialffffffbfbfbf)"/>
</svg>
</g>
</svg>
