<?xml version="1.0"?>
<svg version="1.1" id="topsvg"
xmlns="http://www.w3.org/2000/svg" xmlns:xlink="http://www.w3.org/1999/xlink"
xmlns:cml="http://www.xml-cml.org/schema" x="0" y="0" width="200px" height="200px" viewBox="0 0 100 100">
<title>10464 - Open Babel Depiction</title>
<rect x="0" y="0" width="100" height="100" fill="white"/>
<defs>
<radialGradient id='radialffffff666666' cx='50%' cy='50%' r='50%' fx='30%' fy='30%'>
  <stop offset=' 0%' stop-color="rgb(255,255,255)"  stop-opacity='1.0'/>
  <stop offset='100%' stop-color="rgb(102,102,102)"  stop-opacity ='1.0'/>
</radialGradient>
<radialGradient id='radialffffff7fb2ff' cx='50%' cy='50%' r='50%' fx='30%' fy='30%'>
  <stop offset=' 0%' stop-color="rgb(255,255,255)"  stop-opacity='1.0'/>
  <stop offset='100%' stop-color="rgb(127,178,255)"  stop-opacity ='1.0'/>
</radialGradient>
<radialGradient id='radialffffffbfbfbf' cx='50%' cy='50%' r='50%' fx='30%' fy='30%'>
  <stop offset=' 0%' stop-color="rgb(255,255,255)"  stop-opacity='1.0'/>
  <stop offset='100%' stop-color="rgb(191,191,191)"  stop-opacity ='1.0'/>
</radialGradient>
</defs>
<g transform="translate(0,0)">
<svg width="100" height="100" x="0" y="0" viewBox="0 0 557.305 156.695"
font-family="sans-serif" stroke="rgb(0,0,0)" stroke-width="4"  stroke-linecap="round">
<line x1="517.3" y1="88.5" x2="481.6" y2="62.7" opacity="1.0" stroke="rgb(0,0,0)"  stroke-width="1.5"/>
<line x1="276.3" y1="93.9" x2="316.6" y2="64.8" opacity="0.5" stroke="rgb(0,0,0)"  stroke-width="1.4"/>
<line x1="276.3" y1="93.9" x2="234.5" y2="66.9" opacity="0.5" stroke="rgb(0,0,0)"  stroke-width="1.5"/>
<line x1="276.3" y1="93.9" x2="276.4" y2="114.0" opacity="0.5" stroke="rgb(0,0,0)"  stroke-width="0.7"/>
<line x1="276.3" y1="93.9" x2="277.1" y2="116.1" opacity="0.2" stroke="rgb(0,0,0)"  stroke-width="2.1"/>
<line x1="316.6" y1="64.8" x2="358.3" y2="91.8" opacity="0.7" stroke="rgb(0,0,0)"  stroke-width="1.4"/>
<line x1="316.6" y1="64.8" x2="316.1" y2="44.1" opacity="0.5" stroke="rgb(0,0,0)"  stroke-width="2.1"/>
<line x1="316.6" y1="64.8" x2="316.2" y2="43.2" opacity="0.7" stroke="rgb(0,0,0)"  stroke-width="0.8"/>
<line x1="234.5" y1="66.9" x2="193.0" y2="94.3" opacity="0.3" stroke="rgb(0,0,0)"  stroke-width="1.5"/>
<line x1="234.5" y1="66.9" x2="234.3" y2="44.2" opacity="0.5" stroke="rgb(0,0,0)"  stroke-width="0.8"/>
<line x1="234.5" y1="66.9" x2="234.4" y2="47.2" opacity="0.3" stroke="rgb(0,0,0)"  stroke-width="2.2"/>
<line x1="358.3" y1="91.8" x2="399.7" y2="64.3" opacity="0.7" stroke="rgb(0,0,0)"  stroke-width="1.4"/>
<line x1="358.3" y1="91.8" x2="358.6" y2="113.2" opacity="0.5" stroke="rgb(0,0,0)"  stroke-width="2.1"/>
<line x1="358.3" y1="91.8" x2="358.5" y2="113.0" opacity="0.7" stroke="rgb(0,0,0)"  stroke-width="0.7"/>
<line x1="193.0" y1="94.3" x2="151.4" y2="67.2" opacity="0.2" stroke="rgb(0,0,0)"  stroke-width="1.4"/>
<line x1="193.0" y1="94.3" x2="193.2" y2="114.5" opacity="0.5" stroke="rgb(0,0,0)"  stroke-width="0.7"/>
<line x1="193.0" y1="94.3" x2="193.0" y2="116.7" opacity="0.2" stroke="rgb(0,0,0)"  stroke-width="2.1"/>
<line x1="399.7" y1="64.3" x2="441.3" y2="91.2" opacity="0.7" stroke="rgb(0,0,0)"  stroke-width="1.5"/>
<line x1="399.7" y1="64.3" x2="400.2" y2="44.1" opacity="0.5" stroke="rgb(0,0,0)"  stroke-width="0.7"/>
<line x1="399.7" y1="64.3" x2="398.9" y2="42.0" opacity="0.2" stroke="rgb(0,0,0)"  stroke-width="2.1"/>
<line x1="151.4" y1="67.2" x2="110.0" y2="94.7" opacity="0.7" stroke="rgb(0,0,0)"  stroke-width="1.5"/>
<line x1="151.4" y1="67.2" x2="150.7" y2="45.8" opacity="0.5" stroke="rgb(0,0,0)"  stroke-width="0.8"/>
<line x1="151.4" y1="67.2" x2="151.9" y2="46.0" opacity="0.3" stroke="rgb(0,0,0)"  stroke-width="2.2"/>
<line x1="441.3" y1="91.2" x2="481.6" y2="62.7" opacity="0.7" stroke="rgb(0,0,0)"  stroke-width="1.5"/>
<line x1="441.3" y1="91.2" x2="441.8" y2="110.9" opacity="0.5" stroke="rgb(0,0,0)"  stroke-width="2.2"/>
<line x1="441.3" y1="91.2" x2="442.6" y2="114.2" opacity="0.7" stroke="rgb(0,0,0)"  stroke-width="0.9"/>
<line x1="110.0" y1="94.7" x2="68.4" y2="68.0" opacity="0.3" stroke="rgb(0,0,0)"  stroke-width="1.6"/>
<line x1="110.0" y1="94.7" x2="110.8" y2="116.4" opacity="0.5" stroke="rgb(0,0,0)"  stroke-width="2.2"/>
<line x1="110.0" y1="94.7" x2="109.0" y2="115.5" opacity="0.7" stroke="rgb(0,0,0)"  stroke-width="0.8"/>
<line x1="481.6" y1="62.7" x2="483.7" y2="44.3" opacity="0.3" stroke="rgb(0,0,0)"  stroke-width="0.7"/>
<line x1="481.6" y1="62.7" x2="482.3" y2="40.0" opacity="0.2" stroke="rgb(0,0,0)"  stroke-width="2.1"/>
<line x1="68.4" y1="68.0" x2="65.8" y2="46.7" opacity="0.7" stroke="rgb(0,0,0)"  stroke-width="0.9"/>
<line x1="68.4" y1="68.0" x2="40.0" y2="89.3" opacity="0.3" stroke="rgb(0,0,0)"  stroke-width="1.6"/>
<line x1="68.4" y1="68.0" x2="67.7" y2="47.7" opacity="0.5" stroke="rgb(0,0,0)"  stroke-width="2.3"/>
<circle cx="276.350808" cy="114.023902" r="5.636364" opacity="0.200000" style="stroke:black;stroke-width:0.5;fill:url(#radialffffffbfbfbf)"/>
<circle cx="193.223369" cy="114.475505" r="5.636364" opacity="0.200000" style="stroke:black;stroke-width:0.5;fill:url(#radialffffffbfbfbf)"/>
<circle cx="483.688561" cy="44.278857" r="5.636364" opacity="0.200000" style="stroke:black;stroke-width:0.5;fill:url(#radialffffffbfbfbf)"/>
<circle cx="400.206988" cy="44.080672" r="5.636364" opacity="0.200000" style="stroke:black;stroke-width:0.5;fill:url(#radialffffffbfbfbf)"/>
<circle cx="358.484070" cy="113.006983" r="5.636364" opacity="0.200000" style="stroke:black;stroke-width:0.5;fill:url(#radialffffffbfbfbf)"/>
<circle cx="316.153601" cy="43.242444" r="5.636364" opacity="0.200000" style="stroke:black;stroke-width:0.5;fill:url(#radialffffffbfbfbf)"/>
<circle cx="150.694714" cy="45.838349" r="5.636364" opacity="0.200000" style="stroke:black;stroke-width:0.5;fill:url(#radialffffffbfbfbf)"/>
<circle cx="109.010784" cy="115.508669" r="5.636364" opacity="0.200000" style="stroke:black;stroke-width:0.5;fill:url(#radialffffffbfbfbf)"/>
<circle cx="234.277005" cy="44.181389" r="5.636364" opacity="0.237920" style="stroke:black;stroke-width:0.5;fill:url(#radialffffffbfbfbf)"/>
<circle cx="442.579694" cy="114.222088" r="5.636364" opacity="0.269720" style="stroke:black;stroke-width:0.5;fill:url(#radialffffffbfbfbf)"/>
<circle cx="65.803100" cy="46.731809" r="5.636364" opacity="0.276772" style="stroke:black;stroke-width:0.5;fill:url(#radialffffffbfbfbf)"/>
<circle cx="276.256589" cy="93.925945" r="13.818182" opacity="0.686688" style="stroke:black;stroke-width:0.5;fill:url(#radialffffff666666)"/>
<circle cx="358.311876" cy="91.846622" r="13.818182" opacity="0.688468" style="stroke:black;stroke-width:0.5;fill:url(#radialffffff666666)"/>
<circle cx="193.028433" cy="94.348307" r="13.818182" opacity="0.688733" style="stroke:black;stroke-width:0.5;fill:url(#radialffffff666666)"/>
<circle cx="399.735891" cy="64.298840" r="13.818182" opacity="0.688960" style="stroke:black;stroke-width:0.5;fill:url(#radialffffff666666)"/>
<circle cx="316.595457" cy="64.799177" r="13.818182" opacity="0.692089" style="stroke:black;stroke-width:0.5;fill:url(#radialffffff666666)"/>
<circle cx="151.380241" cy="67.164407" r="13.818182" opacity="0.698418" style="stroke:black;stroke-width:0.5;fill:url(#radialffffff666666)"/>
<circle cx="481.557255" cy="62.658124" r="13.818182" opacity="0.700168" style="stroke:black;stroke-width:0.5;fill:url(#radialffffff666666)"/>
<circle cx="234.543418" cy="66.907740" r="13.818182" opacity="0.704802" style="stroke:black;stroke-width:0.5;fill:url(#radialffffff666666)"/>
<circle cx="109.959475" cy="94.699193" r="13.896617" opacity="0.709111" style="stroke:black;stroke-width:0.5;fill:url(#radialffffff666666)"/>
<circle cx="441.348344" cy="91.248816" r="14.056364" opacity="0.713175" style="stroke:black;stroke-width:0.5;fill:url(#radialffffff666666)"/>
<circle cx="68.434743" cy="67.970145" r="14.698234" opacity="0.729276" style="stroke:black;stroke-width:0.5;fill:url(#radialffffff666666)"/>
<circle cx="517.305367" cy="88.487215" r="11.101390" opacity="0.731842" style="stroke:black;stroke-width:0.5;fill:url(#radialffffff7fb2ff)"/>
<circle cx="40.000000" cy="89.312447" r="6.099236" opacity="0.735569" style="stroke:black;stroke-width:0.5;fill:url(#radialffffffbfbfbf)"/>
<circle cx="277.059077" cy="116.073985" r="10.355787" opacity="0.958467" style="stroke:black;stroke-width:0.5;fill:url(#radialffffffbfbfbf)"/>
<circle cx="193.008939" cy="116.694533" r="10.364006" opacity="0.958847" style="stroke:black;stroke-width:0.5;fill:url(#radialffffffbfbfbf)"/>
<circle cx="398.865174" cy="42.007846" r="10.374572" opacity="0.959336" style="stroke:black;stroke-width:0.5;fill:url(#radialffffffbfbfbf)"/>
<circle cx="482.281769" cy="40.000000" r="10.472019" opacity="0.963831" style="stroke:black;stroke-width:0.5;fill:url(#radialffffffbfbfbf)"/>
<circle cx="358.558796" cy="113.214916" r="10.498435" opacity="0.965045" style="stroke:black;stroke-width:0.5;fill:url(#radialffffffbfbfbf)"/>
<circle cx="316.121111" cy="44.087169" r="10.636387" opacity="0.971365" style="stroke:black;stroke-width:0.5;fill:url(#radialffffffbfbfbf)"/>
<circle cx="151.861085" cy="45.974805" r="10.676892" opacity="0.973213" style="stroke:black;stroke-width:0.5;fill:url(#radialffffffbfbfbf)"/>
<circle cx="110.846437" cy="116.356643" r="10.776687" opacity="0.977751" style="stroke:black;stroke-width:0.5;fill:url(#radialffffffbfbfbf)"/>
<circle cx="234.439452" cy="47.160669" r="10.961602" opacity="0.986104" style="stroke:black;stroke-width:0.5;fill:url(#radialffffffbfbfbf)"/>
<circle cx="441.786952" cy="110.927660" r="11.097205" opacity="0.992184" style="stroke:black;stroke-width:0.5;fill:url(#radialffffffbfbfbf)"/>
<circle cx="67.680989" cy="47.696744" r="11.272727" opacity="1.000000" style="stroke:black;stroke-width:0.5;fill:url(#radialffffffbfbfbf)"/>
</svg>
</g>
</svg>
