<?xml version="1.0"?>
<svg version="1.1" id="topsvg"
xmlns="http://www.w3.org/2000/svg" xmlns:xlink="http://www.w3.org/1999/xlink"
xmlns:cml="http://www.xml-cml.org/schema" x="0" y="0" width="1024px" height="1024px" viewBox="0 0 100 100">
<title>10553 - Open Babel Depiction</title>
<rect x="0" y="0" width="100" height="100" fill="white"/>
<defs>
<radialGradient id='radialffffff666666' cx='50%' cy='50%' r='50%' fx='30%' fy='30%'>
  <stop offset=' 0%' stop-color="rgb(255,255,255)"  stop-opacity='1.0'/>
  <stop offset='100%' stop-color="rgb(102,102,102)"  stop-opacity ='1.0'/>
</radialGradient>
<radialGradient id='radialffffffbfbfbf' cx='50%' cy='50%' r='50%' fx='30%' fy='30%'>
  <stop offset=' 0%' stop-color="rgb(255,255,255)"  stop-opacity='1.0'/>
  <stop offset='100%' stop-color="rgb(191,191,191)"  stop-opacity ='1.0'/>
</radialGradient>
</defs>
<g transform="translate(0,0)">
<svg width="100" height="100" x="0" y="0" viewBox="0 0 251.154 206.501"
font-family="sans-serif" stroke="rgb(0,0,0)" stroke-width="2"  stroke-linecap="round">
<line x1="145.9" y1="102.2" x2="105.9" y2="81.8" opacity="1.0" stroke="rgb(0,0,0)"  stroke-width="1.5"/>
<line x1="148.6" y1="96.8" x2="108.6" y2="76.5" opacity="1.0" stroke="rgb(0,0,0)"  stroke-width="1.5"/>
<line x1="147.3" y1="99.5" x2="191.7" y2="76.3" opacity="0.5" stroke="rgb(0,0,0)"  stroke-width="1.5"/>
<line x1="147.3" y1="99.5" x2="150.2" y2="149.7" opacity="0.5" stroke="rgb(0,0,0)"  stroke-width="1.5"/>
<line x1="107.2" y1="79.2" x2="62.0" y2="100.0" opacity="0.5" stroke="rgb(0,0,0)"  stroke-width="1.5"/>
<line x1="107.2" y1="79.2" x2="107.0" y2="42.8" opacity="0.5" stroke="rgb(0,0,0)"  stroke-width="1.5"/>
<line x1="191.7" y1="76.3" x2="187.9" y2="40.0" opacity="0.5" stroke="rgb(0,0,0)"  stroke-width="1.5"/>
<line x1="191.7" y1="76.3" x2="211.2" y2="86.1" opacity="0.5" stroke="rgb(0,0,0)"  stroke-width="2.2"/>
<line x1="191.7" y1="76.3" x2="210.7" y2="84.9" opacity="0.7" stroke="rgb(0,0,0)"  stroke-width="0.8"/>
<line x1="150.2" y1="149.7" x2="175.7" y2="160.6" opacity="0.3" stroke="rgb(0,0,0)"  stroke-width="1.0"/>
<line x1="150.2" y1="149.7" x2="159.9" y2="161.6" opacity="0.3" stroke="rgb(0,0,0)"  stroke-width="2.3"/>
<line x1="150.2" y1="149.7" x2="119.5" y2="166.5" opacity="0.8" stroke="rgb(0,0,0)"  stroke-width="1.3"/>
<line x1="62.0" y1="100.0" x2="61.6" y2="134.4" opacity="0.4" stroke="rgb(0,0,0)"  stroke-width="1.8"/>
<line x1="62.0" y1="100.0" x2="40.0" y2="81.0" opacity="0.6" stroke="rgb(0,0,0)"  stroke-width="2.0"/>
<line x1="62.0" y1="100.0" x2="47.7" y2="99.0" opacity="0.7" stroke="rgb(0,0,0)"  stroke-width="0.8"/>
<circle cx="47.682401" cy="99.004042" r="5.636364" opacity="0.200000" style="stroke:black;stroke-width:0.5;fill:url(#radialffffffbfbfbf)"/>
<circle cx="210.660718" cy="84.943547" r="5.636364" opacity="0.231102" style="stroke:black;stroke-width:0.5;fill:url(#radialffffffbfbfbf)"/>
<circle cx="175.734648" cy="160.640048" r="5.636364" opacity="0.382455" style="stroke:black;stroke-width:0.5;fill:url(#radialffffffbfbfbf)"/>
<circle cx="119.475989" cy="166.501089" r="5.636364" opacity="0.596031" style="stroke:black;stroke-width:0.5;fill:url(#radialffffffbfbfbf)"/>
<circle cx="106.996674" cy="42.848793" r="5.636364" opacity="0.703970" style="stroke:black;stroke-width:0.5;fill:url(#radialffffffbfbfbf)"/>
<circle cx="147.286747" cy="99.514423" r="13.905940" opacity="0.709349" style="stroke:black;stroke-width:0.5;fill:url(#radialffffff666666)"/>
<circle cx="191.719913" cy="76.317108" r="13.907322" opacity="0.709384" style="stroke:black;stroke-width:0.5;fill:url(#radialffffff666666)"/>
<circle cx="150.242287" cy="149.675197" r="13.907322" opacity="0.709384" style="stroke:black;stroke-width:0.5;fill:url(#radialffffff666666)"/>
<circle cx="61.963060" cy="100.018132" r="13.907322" opacity="0.709384" style="stroke:black;stroke-width:0.5;fill:url(#radialffffff666666)"/>
<circle cx="107.246861" cy="79.172572" r="13.908704" opacity="0.709419" style="stroke:black;stroke-width:0.5;fill:url(#radialffffff666666)"/>
<circle cx="187.873709" cy="40.000000" r="5.793360" opacity="0.716887" style="stroke:black;stroke-width:0.5;fill:url(#radialffffffbfbfbf)"/>
<circle cx="61.586112" cy="134.373776" r="7.716212" opacity="0.827347" style="stroke:black;stroke-width:0.5;fill:url(#radialffffffbfbfbf)"/>
<circle cx="40.000000" cy="80.967245" r="9.413012" opacity="0.913797" style="stroke:black;stroke-width:0.5;fill:url(#radialffffffbfbfbf)"/>
<circle cx="211.154419" cy="86.057712" r="10.631213" opacity="0.971129" style="stroke:black;stroke-width:0.5;fill:url(#radialffffffbfbfbf)"/>
<circle cx="159.869473" cy="161.637459" r="11.272727" opacity="1.000000" style="stroke:black;stroke-width:0.5;fill:url(#radialffffffbfbfbf)"/>
</svg>
</g>
</svg>
