<?xml version="1.0"?>
<svg version="1.1" id="topsvg"
xmlns="http://www.w3.org/2000/svg" xmlns:xlink="http://www.w3.org/1999/xlink"
xmlns:cml="http://www.xml-cml.org/schema" x="0" y="0" width="200px" height="200px" viewBox="0 0 100 100">
<title>10703 - Open Babel Depiction</title>
<rect x="0" y="0" width="100" height="100" fill="white"/>
<defs>
<radialGradient id='radialffffff666666' cx='50%' cy='50%' r='50%' fx='30%' fy='30%'>
  <stop offset=' 0%' stop-color="rgb(255,255,255)"  stop-opacity='1.0'/>
  <stop offset='100%' stop-color="rgb(102,102,102)"  stop-opacity ='1.0'/>
</radialGradient>
<radialGradient id='radialffffffbfbfbf' cx='50%' cy='50%' r='50%' fx='30%' fy='30%'>
  <stop offset=' 0%' stop-color="rgb(255,255,255)"  stop-opacity='1.0'/>
  <stop offset='100%' stop-color="rgb(191,191,191)"  stop-opacity ='1.0'/>
</radialGradient>
</defs>
<g transform="translate(0,0)">
<svg width="100" height="100" x="0" y="0" viewBox="0 0 307.349 265.939"
font-family="sans-serif" stroke="rgb(0,0,0)" stroke-width="2"  stroke-linecap="round">
<line x1="211.0" y1="129.9" x2="163.4" y2="122.7" opacity="1.0" stroke="rgb(0,0,0)"  stroke-width="1.5"/>
<line x1="211.0" y1="129.9" x2="233.0" y2="111.7" opacity="0.5" stroke="rgb(0,0,0)"  stroke-width="1.9"/>
<line x1="211.0" y1="129.9" x2="233.0" y2="111.7" opacity="0.6" stroke="rgb(0,0,0)"  stroke-width="1.1"/>
<line x1="211.0" y1="129.9" x2="218.7" y2="164.4" opacity="0.4" stroke="rgb(0,0,0)"  stroke-width="1.5"/>
<line x1="134.6" y1="157.3" x2="150.6" y2="202.8" opacity="0.5" stroke="rgb(0,0,0)"  stroke-width="1.5"/>
<line x1="233.0" y1="111.7" x2="230.5" y2="76.5" opacity="0.5" stroke="rgb(0,0,0)"  stroke-width="2.4"/>
<line x1="233.0" y1="111.7" x2="267.3" y2="120.1" opacity="0.8" stroke="rgb(0,0,0)"  stroke-width="2.4"/>
<line x1="233.0" y1="111.7" x2="218.3" y2="125.0" opacity="0.8" stroke="rgb(0,0,0)"  stroke-width="2.7"/>
<line x1="233.0" y1="111.7" x2="218.3" y2="125.1" opacity="0.9" stroke="rgb(0,0,0)"  stroke-width="0.4"/>
<line x1="233.0" y1="111.7" x2="267.3" y2="120.1" opacity="0.1" stroke="rgb(0,0,0)"  stroke-width="0.6"/>
<line x1="233.0" y1="111.7" x2="230.5" y2="76.5" opacity="0.2" stroke="rgb(0,0,0)"  stroke-width="0.6"/>
<line x1="147.7" y1="80.4" x2="169.4" y2="52.9" opacity="0.2" stroke="rgb(0,0,0)"  stroke-width="1.5"/>
<line x1="90.2" y1="149.8" x2="67.4" y2="176.4" opacity="0.5" stroke="rgb(0,0,0)"  stroke-width="1.5"/>
<line x1="150.6" y1="202.8" x2="169.7" y2="209.5" opacity="0.5" stroke="rgb(0,0,0)"  stroke-width="1.2"/>
<line x1="150.6" y1="202.8" x2="169.7" y2="209.5" opacity="0.4" stroke="rgb(0,0,0)"  stroke-width="1.8"/>
<line x1="150.6" y1="202.8" x2="123.8" y2="225.9" opacity="0.6" stroke="rgb(0,0,0)"  stroke-width="1.5"/>
<line x1="103.3" y1="72.9" x2="91.1" y2="40.0" opacity="0.5" stroke="rgb(0,0,0)"  stroke-width="1.5"/>
<line x1="74.6" y1="107.5" x2="40.0" y2="101.7" opacity="0.5" stroke="rgb(0,0,0)"  stroke-width="1.5"/>
<line x1="166.2" y1="121.6" x2="150.5" y2="79.4" opacity="0.5" stroke="rgb(0,0,0)"  stroke-width="1.5"/>
<line x1="160.5" y1="123.7" x2="144.9" y2="81.5" opacity="0.5" stroke="rgb(0,0,0)"  stroke-width="1.5" stroke-dasharray="5.0,5.0"/>
<line x1="148.2" y1="77.5" x2="103.8" y2="69.9" opacity="0.5" stroke="rgb(0,0,0)"  stroke-width="1.5"/>
<line x1="147.2" y1="83.4" x2="102.8" y2="75.8" opacity="0.5" stroke="rgb(0,0,0)"  stroke-width="1.5" stroke-dasharray="5.0,5.0"/>
<line x1="101.0" y1="71.0" x2="72.3" y2="105.6" opacity="0.5" stroke="rgb(0,0,0)"  stroke-width="1.5"/>
<line x1="105.6" y1="74.8" x2="76.9" y2="109.5" opacity="0.5" stroke="rgb(0,0,0)"  stroke-width="1.5" stroke-dasharray="5.0,5.0"/>
<line x1="71.8" y1="108.6" x2="87.4" y2="150.8" opacity="0.5" stroke="rgb(0,0,0)"  stroke-width="1.5"/>
<line x1="77.4" y1="106.5" x2="93.0" y2="148.7" opacity="0.5" stroke="rgb(0,0,0)"  stroke-width="1.5" stroke-dasharray="5.0,5.0"/>
<line x1="89.7" y1="152.7" x2="134.1" y2="160.3" opacity="0.5" stroke="rgb(0,0,0)"  stroke-width="1.5"/>
<line x1="90.7" y1="146.8" x2="135.1" y2="154.4" opacity="0.5" stroke="rgb(0,0,0)"  stroke-width="1.5" stroke-dasharray="5.0,5.0"/>
<line x1="136.9" y1="159.2" x2="165.7" y2="124.6" opacity="0.5" stroke="rgb(0,0,0)"  stroke-width="1.5"/>
<line x1="132.3" y1="155.4" x2="161.1" y2="120.7" opacity="0.5" stroke="rgb(0,0,0)"  stroke-width="1.5" stroke-dasharray="5.0,5.0"/>
<circle cx="218.274327" cy="125.112697" r="5.636364" opacity="0.200000" style="stroke:black;stroke-width:0.5;fill:url(#radialffffffbfbfbf)"/>
<circle cx="230.546285" cy="76.493013" r="5.636364" opacity="0.443238" style="stroke:black;stroke-width:0.5;fill:url(#radialffffffbfbfbf)"/>
<circle cx="267.349245" cy="120.095433" r="5.636364" opacity="0.454497" style="stroke:black;stroke-width:0.5;fill:url(#radialffffffbfbfbf)"/>
<circle cx="232.987116" cy="111.726868" r="13.818182" opacity="0.457280" style="stroke:black;stroke-width:0.5;fill:url(#radialffffff666666)"/>
<circle cx="169.732130" cy="209.450527" r="5.636364" opacity="0.541066" style="stroke:black;stroke-width:0.5;fill:url(#radialffffffbfbfbf)"/>
<circle cx="91.108945" cy="40.000000" r="5.636364" opacity="0.706968" style="stroke:black;stroke-width:0.5;fill:url(#radialffffffbfbfbf)"/>
<circle cx="169.422183" cy="52.888623" r="5.636364" opacity="0.706984" style="stroke:black;stroke-width:0.5;fill:url(#radialffffffbfbfbf)"/>
<circle cx="103.306645" cy="72.873738" r="13.818182" opacity="0.707017" style="stroke:black;stroke-width:0.5;fill:url(#radialffffff666666)"/>
<circle cx="147.700074" cy="80.431921" r="13.818182" opacity="0.707033" style="stroke:black;stroke-width:0.5;fill:url(#radialffffff666666)"/>
<circle cx="123.814795" cy="225.939054" r="5.636364" opacity="0.707050" style="stroke:black;stroke-width:0.5;fill:url(#radialffffffbfbfbf)"/>
<circle cx="40.000000" cy="101.653595" r="5.636364" opacity="0.707050" style="stroke:black;stroke-width:0.5;fill:url(#radialffffffbfbfbf)"/>
<circle cx="150.612283" cy="202.825413" r="13.818182" opacity="0.707066" style="stroke:black;stroke-width:0.5;fill:url(#radialffffff666666)"/>
<circle cx="74.568760" cy="107.545814" r="13.818182" opacity="0.707066" style="stroke:black;stroke-width:0.5;fill:url(#radialffffff666666)"/>
<circle cx="163.362076" cy="122.658951" r="13.818182" opacity="0.707099" style="stroke:black;stroke-width:0.5;fill:url(#radialffffff666666)"/>
<circle cx="211.022862" cy="129.949160" r="13.818501" opacity="0.707115" style="stroke:black;stroke-width:0.5;fill:url(#radialffffff666666)"/>
<circle cx="90.221076" cy="149.772844" r="13.819138" opacity="0.707131" style="stroke:black;stroke-width:0.5;fill:url(#radialffffff666666)"/>
<circle cx="134.617734" cy="157.334255" r="13.819776" opacity="0.707148" style="stroke:black;stroke-width:0.5;fill:url(#radialffffff666666)"/>
<circle cx="67.365724" cy="176.395987" r="5.637014" opacity="0.707148" style="stroke:black;stroke-width:0.5;fill:url(#radialffffffbfbfbf)"/>
<circle cx="218.726333" cy="164.414604" r="5.638315" opacity="0.707229" style="stroke:black;stroke-width:0.5;fill:url(#radialffffffbfbfbf)"/>
<circle cx="169.738587" cy="209.466670" r="7.970791" opacity="0.840884" style="stroke:black;stroke-width:0.5;fill:url(#radialffffffbfbfbf)"/>
<circle cx="232.983888" cy="111.684896" r="21.854900" opacity="0.889271" style="stroke:black;stroke-width:0.5;fill:url(#radialffffff666666)"/>
<circle cx="267.346016" cy="120.053461" r="8.943892" opacity="0.890736" style="stroke:black;stroke-width:0.5;fill:url(#radialffffffbfbfbf)"/>
<circle cx="230.543056" cy="76.451041" r="9.053922" opacity="0.896198" style="stroke:black;stroke-width:0.5;fill:url(#radialffffffbfbfbf)"/>
<circle cx="218.267870" cy="125.035210" r="11.272727" opacity="1.000000" style="stroke:black;stroke-width:0.5;fill:url(#radialffffffbfbfbf)"/>
</svg>
</g>
</svg>
