<?xml version="1.0"?>
<svg version="1.1" id="topsvg"
xmlns="http://www.w3.org/2000/svg" xmlns:xlink="http://www.w3.org/1999/xlink"
xmlns:cml="http://www.xml-cml.org/schema" x="0" y="0" width="1024px" height="1024px" viewBox="0 0 100 100">
<title>10864 - Open Babel Depiction</title>
<rect x="0" y="0" width="100" height="100" fill="white"/>
<defs>
<radialGradient id='radialffffff666666' cx='50%' cy='50%' r='50%' fx='30%' fy='30%'>
  <stop offset=' 0%' stop-color="rgb(255,255,255)"  stop-opacity='1.0'/>
  <stop offset='100%' stop-color="rgb(102,102,102)"  stop-opacity ='1.0'/>
</radialGradient>
<radialGradient id='radialffffffbfbfbf' cx='50%' cy='50%' r='50%' fx='30%' fy='30%'>
  <stop offset=' 0%' stop-color="rgb(255,255,255)"  stop-opacity='1.0'/>
  <stop offset='100%' stop-color="rgb(191,191,191)"  stop-opacity ='1.0'/>
</radialGradient>
</defs>
<g transform="translate(0,0)">
<svg width="100" height="100" x="0" y="0" viewBox="0 0 425.156 220.946"
font-family="sans-serif" stroke="rgb(0,0,0)" stroke-width="2"  stroke-linecap="round">
<line x1="188.3" y1="108.1" x2="142.2" y2="109.2" opacity="1.0" stroke="rgb(0,0,0)"  stroke-width="1.5"/>
<line x1="188.3" y1="108.1" x2="222.7" y2="108.0" opacity="0.5" stroke="rgb(0,0,0)"  stroke-width="1.2"/>
<line x1="188.3" y1="108.1" x2="192.4" y2="79.5" opacity="0.4" stroke="rgb(0,0,0)"  stroke-width="2.1"/>
<line x1="188.3" y1="108.1" x2="193.3" y2="136.2" opacity="0.7" stroke="rgb(0,0,0)"  stroke-width="2.1"/>
<line x1="142.2" y1="109.2" x2="109.0" y2="110.2" opacity="0.7" stroke="rgb(0,0,0)"  stroke-width="1.8"/>
<line x1="142.2" y1="109.2" x2="136.7" y2="80.9" opacity="0.6" stroke="rgb(0,0,0)"  stroke-width="0.9"/>
<line x1="142.2" y1="109.2" x2="138.2" y2="137.8" opacity="0.3" stroke="rgb(0,0,0)"  stroke-width="0.9"/>
<line x1="222.7" y1="108.0" x2="268.4" y2="109.3" opacity="0.3" stroke="rgb(0,0,0)"  stroke-width="0.9"/>
<line x1="222.7" y1="108.0" x2="218.6" y2="79.3" opacity="0.3" stroke="rgb(0,0,0)"  stroke-width="0.4"/>
<line x1="222.7" y1="108.0" x2="217.6" y2="135.6" opacity="0.1" stroke="rgb(0,0,0)"  stroke-width="0.4"/>
<line x1="109.0" y1="110.2" x2="63.2" y2="112.6" opacity="0.1" stroke="rgb(0,0,0)"  stroke-width="2.1"/>
<line x1="109.0" y1="110.2" x2="112.4" y2="81.2" opacity="0.7" stroke="rgb(0,0,0)"  stroke-width="2.7"/>
<line x1="109.0" y1="110.2" x2="114.9" y2="138.1" opacity="0.9" stroke="rgb(0,0,0)"  stroke-width="2.7"/>
<line x1="63.2" y1="112.6" x2="58.5" y2="141.8" opacity="0.9" stroke="rgb(0,0,0)"  stroke-width="1.5"/>
<line x1="63.2" y1="112.6" x2="40.0" y2="113.1" opacity="0.5" stroke="rgb(0,0,0)"  stroke-width="2.2"/>
<line x1="63.2" y1="112.6" x2="55.9" y2="84.6" opacity="0.7" stroke="rgb(0,0,0)"  stroke-width="1.5"/>
<line x1="289.8" y1="71.0" x2="274.2" y2="40.0" opacity="0.5" stroke="rgb(0,0,0)"  stroke-width="1.4"/>
<line x1="288.2" y1="148.9" x2="271.4" y2="178.9" opacity="0.5" stroke="rgb(0,0,0)"  stroke-width="1.3"/>
<line x1="332.0" y1="72.2" x2="349.0" y2="42.3" opacity="0.4" stroke="rgb(0,0,0)"  stroke-width="2.0"/>
<line x1="330.4" y1="150.1" x2="346.2" y2="180.9" opacity="0.7" stroke="rgb(0,0,0)"  stroke-width="2.0"/>
<line x1="352.3" y1="111.8" x2="385.2" y2="112.7" opacity="0.7" stroke="rgb(0,0,0)"  stroke-width="2.3"/>
<line x1="265.7" y1="110.7" x2="285.5" y2="150.2" opacity="0.4" stroke="rgb(0,0,0)"  stroke-width="1.3"/>
<line x1="271.1" y1="108.0" x2="290.9" y2="147.6" opacity="0.4" stroke="rgb(0,0,0)"  stroke-width="1.3" stroke-dasharray="5.0,5.0"/>
<line x1="288.1" y1="151.9" x2="330.3" y2="153.1" opacity="0.5" stroke="rgb(0,0,0)"  stroke-width="1.6"/>
<line x1="288.3" y1="145.9" x2="330.5" y2="147.1" opacity="0.5" stroke="rgb(0,0,0)"  stroke-width="1.6" stroke-dasharray="5.0,5.0"/>
<line x1="333.0" y1="151.6" x2="354.9" y2="113.3" opacity="0.7" stroke="rgb(0,0,0)"  stroke-width="2.0"/>
<line x1="327.8" y1="148.6" x2="349.7" y2="110.3" opacity="0.7" stroke="rgb(0,0,0)"  stroke-width="2.0" stroke-dasharray="5.0,5.0"/>
<line x1="355.0" y1="110.4" x2="334.6" y2="70.8" opacity="0.7" stroke="rgb(0,0,0)"  stroke-width="2.0"/>
<line x1="349.6" y1="113.1" x2="329.3" y2="73.6" opacity="0.7" stroke="rgb(0,0,0)"  stroke-width="2.0" stroke-dasharray="5.0,5.0"/>
<line x1="332.1" y1="69.2" x2="289.9" y2="68.0" opacity="0.6" stroke="rgb(0,0,0)"  stroke-width="1.7"/>
<line x1="331.9" y1="75.2" x2="289.7" y2="74.0" opacity="0.6" stroke="rgb(0,0,0)"  stroke-width="1.7" stroke-dasharray="5.0,5.0"/>
<line x1="287.2" y1="69.5" x2="265.8" y2="107.9" opacity="0.4" stroke="rgb(0,0,0)"  stroke-width="1.3"/>
<line x1="292.4" y1="72.4" x2="271.0" y2="110.8" opacity="0.4" stroke="rgb(0,0,0)"  stroke-width="1.3" stroke-dasharray="5.0,5.0"/>
<circle cx="217.589648" cy="135.628174" r="5.636364" opacity="0.200000" style="stroke:black;stroke-width:0.5;fill:url(#radialffffffbfbfbf)"/>
<circle cx="218.596498" cy="79.325243" r="5.636364" opacity="0.200000" style="stroke:black;stroke-width:0.5;fill:url(#radialffffffbfbfbf)"/>
<circle cx="138.151754" cy="137.838727" r="5.636364" opacity="0.441803" style="stroke:black;stroke-width:0.5;fill:url(#radialffffffbfbfbf)"/>
<circle cx="136.686658" cy="80.890379" r="5.636364" opacity="0.442105" style="stroke:black;stroke-width:0.5;fill:url(#radialffffffbfbfbf)"/>
<circle cx="222.733620" cy="108.007564" r="13.818182" opacity="0.472449" style="stroke:black;stroke-width:0.5;fill:url(#radialffffff666666)"/>
<circle cx="55.903069" cy="84.559573" r="5.636364" opacity="0.628132" style="stroke:black;stroke-width:0.5;fill:url(#radialffffffbfbfbf)"/>
<circle cx="268.371039" cy="109.340350" r="13.818182" opacity="0.630332" style="stroke:black;stroke-width:0.5;fill:url(#radialffffff666666)"/>
<circle cx="271.378681" cy="178.945320" r="5.636364" opacity="0.630808" style="stroke:black;stroke-width:0.5;fill:url(#radialffffffbfbfbf)"/>
<circle cx="58.471828" cy="141.766087" r="5.636364" opacity="0.636152" style="stroke:black;stroke-width:0.5;fill:url(#radialffffffbfbfbf)"/>
<circle cx="142.188835" cy="109.249991" r="13.818182" opacity="0.637776" style="stroke:black;stroke-width:0.5;fill:url(#radialffffff666666)"/>
<circle cx="274.202379" cy="40.000000" r="5.636364" opacity="0.657272" style="stroke:black;stroke-width:0.5;fill:url(#radialffffffbfbfbf)"/>
<circle cx="288.185333" cy="148.904397" r="13.818182" opacity="0.682931" style="stroke:black;stroke-width:0.5;fill:url(#radialffffff666666)"/>
<circle cx="289.773059" cy="70.976777" r="13.818182" opacity="0.696832" style="stroke:black;stroke-width:0.5;fill:url(#radialffffff666666)"/>
<circle cx="188.303863" cy="108.139874" r="16.315788" opacity="0.768358" style="stroke:black;stroke-width:0.5;fill:url(#radialffffff666666)"/>
<circle cx="63.193051" cy="112.554525" r="16.695568" opacity="0.777249" style="stroke:black;stroke-width:0.5;fill:url(#radialffffff666666)"/>
<circle cx="330.395589" cy="150.130689" r="17.342669" opacity="0.792168" style="stroke:black;stroke-width:0.5;fill:url(#radialffffff666666)"/>
<circle cx="331.980088" cy="72.206296" r="17.870858" opacity="0.804141" style="stroke:black;stroke-width:0.5;fill:url(#radialffffff666666)"/>
<circle cx="346.208300" cy="180.946112" r="7.700016" opacity="0.826478" style="stroke:black;stroke-width:0.5;fill:url(#radialffffffbfbfbf)"/>
<circle cx="349.025544" cy="42.349317" r="8.082780" opacity="0.846771" style="stroke:black;stroke-width:0.5;fill:url(#radialffffffbfbfbf)"/>
<circle cx="352.291353" cy="111.780025" r="19.833361" opacity="0.847145" style="stroke:black;stroke-width:0.5;fill:url(#radialffffff666666)"/>
<circle cx="109.001506" cy="110.189073" r="21.669579" opacity="0.885492" style="stroke:black;stroke-width:0.5;fill:url(#radialffffff666666)"/>
<circle cx="192.369988" cy="79.489824" r="9.034049" opacity="0.895214" style="stroke:black;stroke-width:0.5;fill:url(#radialffffffbfbfbf)"/>
<circle cx="193.302616" cy="136.205822" r="9.104736" opacity="0.898709" style="stroke:black;stroke-width:0.5;fill:url(#radialffffffbfbfbf)"/>
<circle cx="385.155974" cy="112.738469" r="9.505547" opacity="0.918278" style="stroke:black;stroke-width:0.5;fill:url(#radialffffffbfbfbf)"/>
<circle cx="40.000000" cy="113.141854" r="9.913127" opacity="0.937758" style="stroke:black;stroke-width:0.5;fill:url(#radialffffffbfbfbf)"/>
<circle cx="112.373808" cy="81.235677" r="11.173840" opacity="0.995604" style="stroke:black;stroke-width:0.5;fill:url(#radialffffffbfbfbf)"/>
<circle cx="114.871571" cy="138.129164" r="11.272727" opacity="1.000000" style="stroke:black;stroke-width:0.5;fill:url(#radialffffffbfbfbf)"/>
</svg>
</g>
</svg>
