<?xml version="1.0"?>
<svg version="1.1" id="topsvg"
xmlns="http://www.w3.org/2000/svg" xmlns:xlink="http://www.w3.org/1999/xlink"
xmlns:cml="http://www.xml-cml.org/schema" x="0" y="0" width="200px" height="200px" viewBox="0 0 100 100">
<title>11002 - Open Babel Depiction</title>
<rect x="0" y="0" width="100" height="100" fill="white"/>
<defs>
<radialGradient id='radialffffff666666' cx='50%' cy='50%' r='50%' fx='30%' fy='30%'>
  <stop offset=' 0%' stop-color="rgb(255,255,255)"  stop-opacity='1.0'/>
  <stop offset='100%' stop-color="rgb(102,102,102)"  stop-opacity ='1.0'/>
</radialGradient>
<radialGradient id='radialffffffb2b20' cx='50%' cy='50%' r='50%' fx='30%' fy='30%'>
  <stop offset=' 0%' stop-color="rgb(255,255,255)"  stop-opacity='1.0'/>
  <stop offset='100%' stop-color="rgb(178,178,0)"  stop-opacity ='1.0'/>
</radialGradient>
<radialGradient id='radialffffffbfbfbf' cx='50%' cy='50%' r='50%' fx='30%' fy='30%'>
  <stop offset=' 0%' stop-color="rgb(255,255,255)"  stop-opacity='1.0'/>
  <stop offset='100%' stop-color="rgb(191,191,191)"  stop-opacity ='1.0'/>
</radialGradient>
</defs>
<g transform="translate(0,0)">
<svg width="100" height="100" x="0" y="0" viewBox="0 0 468.393 154.32"
font-family="sans-serif" stroke="rgb(0,0,0)" stroke-width="4"  stroke-linecap="round">
<line x1="234.0" y1="45.1" x2="278.0" y2="83.1" opacity="1.0" stroke="rgb(0,0,0)"  stroke-width="1.5"/>
<line x1="234.0" y1="45.1" x2="190.3" y2="82.9" opacity="0.5" stroke="rgb(0,0,0)"  stroke-width="1.5"/>
<line x1="321.9" y1="61.5" x2="278.0" y2="83.1" opacity="0.5" stroke="rgb(0,0,0)"  stroke-width="1.4"/>
<line x1="321.9" y1="61.5" x2="359.4" y2="93.0" opacity="0.5" stroke="rgb(0,0,0)"  stroke-width="1.4"/>
<line x1="321.9" y1="61.5" x2="324.6" y2="41.4" opacity="0.5" stroke="rgb(0,0,0)"  stroke-width="0.7"/>
<line x1="321.9" y1="61.5" x2="324.6" y2="40.0" opacity="0.2" stroke="rgb(0,0,0)"  stroke-width="2.1"/>
<line x1="146.4" y1="61.4" x2="190.3" y2="82.9" opacity="0.7" stroke="rgb(0,0,0)"  stroke-width="1.6"/>
<line x1="146.4" y1="61.4" x2="109.0" y2="93.0" opacity="0.5" stroke="rgb(0,0,0)"  stroke-width="1.6"/>
<line x1="146.4" y1="61.4" x2="143.7" y2="41.3" opacity="0.5" stroke="rgb(0,0,0)"  stroke-width="2.3"/>
<line x1="146.4" y1="61.4" x2="143.6" y2="40.0" opacity="0.8" stroke="rgb(0,0,0)"  stroke-width="0.9"/>
<line x1="278.0" y1="83.1" x2="274.6" y2="103.5" opacity="0.3" stroke="rgb(0,0,0)"  stroke-width="0.8"/>
<line x1="278.0" y1="83.1" x2="275.6" y2="103.4" opacity="0.3" stroke="rgb(0,0,0)"  stroke-width="2.2"/>
<line x1="190.3" y1="82.9" x2="193.7" y2="103.4" opacity="0.7" stroke="rgb(0,0,0)"  stroke-width="2.2"/>
<line x1="190.3" y1="82.9" x2="192.8" y2="103.3" opacity="0.7" stroke="rgb(0,0,0)"  stroke-width="0.8"/>
<line x1="359.4" y1="93.0" x2="402.0" y2="69.7" opacity="0.3" stroke="rgb(0,0,0)"  stroke-width="1.5"/>
<line x1="359.4" y1="93.0" x2="356.3" y2="114.3" opacity="0.5" stroke="rgb(0,0,0)"  stroke-width="2.1"/>
<line x1="359.4" y1="93.0" x2="358.6" y2="113.1" opacity="0.7" stroke="rgb(0,0,0)"  stroke-width="0.8"/>
<line x1="109.0" y1="93.0" x2="66.3" y2="69.8" opacity="0.3" stroke="rgb(0,0,0)"  stroke-width="1.5"/>
<line x1="109.0" y1="93.0" x2="112.1" y2="114.3" opacity="0.5" stroke="rgb(0,0,0)"  stroke-width="0.9"/>
<line x1="109.0" y1="93.0" x2="109.8" y2="113.1" opacity="0.3" stroke="rgb(0,0,0)"  stroke-width="2.2"/>
<line x1="402.0" y1="69.7" x2="428.4" y2="92.7" opacity="0.7" stroke="rgb(0,0,0)"  stroke-width="1.6"/>
<line x1="402.0" y1="69.7" x2="404.1" y2="50.3" opacity="0.5" stroke="rgb(0,0,0)"  stroke-width="2.3"/>
<line x1="402.0" y1="69.7" x2="406.4" y2="48.7" opacity="0.8" stroke="rgb(0,0,0)"  stroke-width="0.9"/>
<line x1="66.3" y1="69.8" x2="40.0" y2="92.9" opacity="0.3" stroke="rgb(0,0,0)"  stroke-width="1.4"/>
<line x1="66.3" y1="69.8" x2="64.2" y2="50.4" opacity="0.5" stroke="rgb(0,0,0)"  stroke-width="0.7"/>
<line x1="66.3" y1="69.8" x2="61.9" y2="48.7" opacity="0.2" stroke="rgb(0,0,0)"  stroke-width="2.1"/>
<circle cx="64.200598" cy="50.380825" r="5.636364" opacity="0.200000" style="stroke:black;stroke-width:0.5;fill:url(#radialffffffbfbfbf)"/>
<circle cx="324.572157" cy="41.401171" r="5.636364" opacity="0.200000" style="stroke:black;stroke-width:0.5;fill:url(#radialffffffbfbfbf)"/>
<circle cx="358.587352" cy="113.072049" r="5.636364" opacity="0.200000" style="stroke:black;stroke-width:0.5;fill:url(#radialffffffbfbfbf)"/>
<circle cx="274.638630" cy="103.513373" r="5.636364" opacity="0.200000" style="stroke:black;stroke-width:0.5;fill:url(#radialffffffbfbfbf)"/>
<circle cx="192.750078" cy="103.279844" r="5.636364" opacity="0.224322" style="stroke:black;stroke-width:0.5;fill:url(#radialffffffbfbfbf)"/>
<circle cx="112.080352" cy="114.319668" r="5.636364" opacity="0.249707" style="stroke:black;stroke-width:0.5;fill:url(#radialffffffbfbfbf)"/>
<circle cx="143.632302" cy="40.000000" r="5.636364" opacity="0.274073" style="stroke:black;stroke-width:0.5;fill:url(#radialffffffbfbfbf)"/>
<circle cx="406.415923" cy="48.662950" r="5.636364" opacity="0.276721" style="stroke:black;stroke-width:0.5;fill:url(#radialffffffbfbfbf)"/>
<circle cx="40.000000" cy="92.873427" r="5.636364" opacity="0.683145" style="stroke:black;stroke-width:0.5;fill:url(#radialffffffbfbfbf)"/>
<circle cx="66.321549" cy="69.792487" r="13.818182" opacity="0.688046" style="stroke:black;stroke-width:0.5;fill:url(#radialffffff666666)"/>
<circle cx="321.894576" cy="61.468633" r="13.818182" opacity="0.688424" style="stroke:black;stroke-width:0.5;fill:url(#radialffffff666666)"/>
<circle cx="278.032792" cy="83.058829" r="13.818182" opacity="0.697893" style="stroke:black;stroke-width:0.5;fill:url(#radialffffff666666)"/>
<circle cx="359.367914" cy="92.998189" r="13.818182" opacity="0.698043" style="stroke:black;stroke-width:0.5;fill:url(#radialffffff666666)"/>
<circle cx="234.036649" cy="45.080046" r="19.091904" opacity="0.707125" style="stroke:black;stroke-width:0.5;fill:url(#radialffffffb2b20)"/>
<circle cx="109.022088" cy="93.007786" r="14.177367" opacity="0.716238" style="stroke:black;stroke-width:0.5;fill:url(#radialffffff666666)"/>
<circle cx="190.341214" cy="82.930869" r="14.181686" opacity="0.716347" style="stroke:black;stroke-width:0.5;fill:url(#radialffffff666666)"/>
<circle cx="146.437843" cy="61.414250" r="14.540151" opacity="0.725344" style="stroke:black;stroke-width:0.5;fill:url(#radialffffff666666)"/>
<circle cx="402.026865" cy="69.706114" r="14.557426" opacity="0.725775" style="stroke:black;stroke-width:0.5;fill:url(#radialffffff666666)"/>
<circle cx="428.393201" cy="92.739068" r="6.015410" opacity="0.730496" style="stroke:black;stroke-width:0.5;fill:url(#radialffffffbfbfbf)"/>
<circle cx="61.894103" cy="48.746125" r="10.409524" opacity="0.960950" style="stroke:black;stroke-width:0.5;fill:url(#radialffffffbfbfbf)"/>
<circle cx="324.648933" cy="40.038388" r="10.424205" opacity="0.961628" style="stroke:black;stroke-width:0.5;fill:url(#radialffffffbfbfbf)"/>
<circle cx="356.344838" cy="114.306871" r="10.574531" opacity="0.968537" style="stroke:black;stroke-width:0.5;fill:url(#radialffffffbfbfbf)"/>
<circle cx="275.585540" cy="103.363019" r="10.712526" opacity="0.974836" style="stroke:black;stroke-width:0.5;fill:url(#radialffffffbfbfbf)"/>
<circle cx="193.696988" cy="103.404606" r="10.967964" opacity="0.986390" style="stroke:black;stroke-width:0.5;fill:url(#radialffffffbfbfbf)"/>
<circle cx="109.837838" cy="113.072049" r="11.058982" opacity="0.990474" style="stroke:black;stroke-width:0.5;fill:url(#radialffffffbfbfbf)"/>
<circle cx="143.715476" cy="41.340390" r="11.196390" opacity="0.996608" style="stroke:black;stroke-width:0.5;fill:url(#radialffffffbfbfbf)"/>
<circle cx="404.112627" cy="50.284854" r="11.272727" opacity="1.000000" style="stroke:black;stroke-width:0.5;fill:url(#radialffffffbfbfbf)"/>
</svg>
</g>
</svg>
