<?xml version="1.0"?>
<svg version="1.1" id="topsvg"
xmlns="http://www.w3.org/2000/svg" xmlns:xlink="http://www.w3.org/1999/xlink"
xmlns:cml="http://www.xml-cml.org/schema" x="0" y="0" width="1024px" height="1024px" viewBox="0 0 100 100">
<title>11000 - Open Babel Depiction</title>
<rect x="0" y="0" width="100" height="100" fill="white"/>
<defs>
<radialGradient id='radialffffff666666' cx='50%' cy='50%' r='50%' fx='30%' fy='30%'>
  <stop offset=' 0%' stop-color="rgb(255,255,255)"  stop-opacity='1.0'/>
  <stop offset='100%' stop-color="rgb(102,102,102)"  stop-opacity ='1.0'/>
</radialGradient>
<radialGradient id='radialffffffbfbfbf' cx='50%' cy='50%' r='50%' fx='30%' fy='30%'>
  <stop offset=' 0%' stop-color="rgb(255,255,255)"  stop-opacity='1.0'/>
  <stop offset='100%' stop-color="rgb(191,191,191)"  stop-opacity ='1.0'/>
</radialGradient>
</defs>
<g transform="translate(0,0)">
<svg width="100" height="100" x="0" y="0" viewBox="0 0 239.428 247.521"
font-family="sans-serif" stroke="rgb(0,0,0)" stroke-width="2"  stroke-linecap="round">
<line x1="172.1" y1="123.8" x2="186.0" y2="123.9" opacity="1.0" stroke="rgb(0,0,0)"  stroke-width="0.9"/>
<line x1="172.1" y1="123.8" x2="199.4" y2="123.9" opacity="0.3" stroke="rgb(0,0,0)"  stroke-width="2.4"/>
<line x1="148.8" y1="82.2" x2="170.3" y2="54.6" opacity="0.8" stroke="rgb(0,0,0)"  stroke-width="2.3"/>
<line x1="148.7" y1="165.5" x2="170.1" y2="193.0" opacity="0.8" stroke="rgb(0,0,0)"  stroke-width="2.3"/>
<line x1="106.6" y1="73.4" x2="97.3" y2="40.0" opacity="0.8" stroke="rgb(0,0,0)"  stroke-width="2.4"/>
<line x1="106.5" y1="174.1" x2="97.1" y2="207.5" opacity="0.8" stroke="rgb(0,0,0)"  stroke-width="2.4"/>
<line x1="70.8" y1="102.2" x2="40.1" y2="86.0" opacity="0.8" stroke="rgb(0,0,0)"  stroke-width="1.8"/>
<line x1="70.8" y1="145.3" x2="40.0" y2="161.4" opacity="0.6" stroke="rgb(0,0,0)"  stroke-width="1.8"/>
<line x1="148.8" y1="82.2" x2="172.1" y2="123.8" opacity="0.6" stroke="rgb(0,0,0)"  stroke-width="2.0"/>
<line x1="172.1" y1="123.8" x2="148.7" y2="165.5" opacity="0.7" stroke="rgb(0,0,0)"  stroke-width="2.0"/>
<line x1="148.7" y1="165.5" x2="106.5" y2="174.1" opacity="0.7" stroke="rgb(0,0,0)"  stroke-width="2.0"/>
<line x1="141.4" y1="159.6" x2="110.9" y2="165.9" opacity="0.7" stroke="rgb(0,0,0)"  stroke-width="2.0"/>
<line x1="106.5" y1="174.1" x2="70.8" y2="145.3" opacity="0.7" stroke="rgb(0,0,0)"  stroke-width="2.1"/>
<line x1="70.8" y1="145.3" x2="70.8" y2="102.2" opacity="0.7" stroke="rgb(0,0,0)"  stroke-width="2.1"/>
<line x1="78.0" y1="139.3" x2="78.0" y2="108.2" opacity="0.7" stroke="rgb(0,0,0)"  stroke-width="2.1"/>
<line x1="70.8" y1="102.2" x2="106.6" y2="73.4" opacity="0.7" stroke="rgb(0,0,0)"  stroke-width="2.1"/>
<line x1="106.6" y1="73.4" x2="148.8" y2="82.2" opacity="0.7" stroke="rgb(0,0,0)"  stroke-width="2.1"/>
<line x1="111.0" y1="81.7" x2="141.4" y2="88.0" opacity="0.7" stroke="rgb(0,0,0)"  stroke-width="2.1"/>
<circle cx="185.995173" cy="123.861819" r="5.636364" opacity="0.200000" style="stroke:black;stroke-width:0.5;fill:url(#radialffffffbfbfbf)"/>
<circle cx="40.077348" cy="86.019097" r="6.150203" opacity="0.738636" style="stroke:black;stroke-width:0.5;fill:url(#radialffffffbfbfbf)"/>
<circle cx="40.000000" cy="161.385479" r="6.150203" opacity="0.738636" style="stroke:black;stroke-width:0.5;fill:url(#radialffffffbfbfbf)"/>
<circle cx="172.069232" cy="123.845705" r="16.336032" opacity="0.768834" style="stroke:black;stroke-width:0.5;fill:url(#radialffffff666666)"/>
<circle cx="70.820129" cy="102.188143" r="17.595768" opacity="0.797928" style="stroke:black;stroke-width:0.5;fill:url(#radialffffff666666)"/>
<circle cx="70.775009" cy="145.284113" r="17.597389" opacity="0.797965" style="stroke:black;stroke-width:0.5;fill:url(#radialffffff666666)"/>
<circle cx="148.784130" cy="82.154898" r="19.859077" opacity="0.847694" style="stroke:black;stroke-width:0.5;fill:url(#radialffffff666666)"/>
<circle cx="148.693890" cy="165.478501" r="19.860698" opacity="0.847729" style="stroke:black;stroke-width:0.5;fill:url(#radialffffff666666)"/>
<circle cx="106.590558" cy="73.398410" r="20.796177" opacity="0.867464" style="stroke:black;stroke-width:0.5;fill:url(#radialffffff666666)"/>
<circle cx="106.480981" cy="174.144748" r="20.796177" opacity="0.867464" style="stroke:black;stroke-width:0.5;fill:url(#radialffffff666666)"/>
<circle cx="170.264435" cy="54.634969" r="8.944908" opacity="0.890786" style="stroke:black;stroke-width:0.5;fill:url(#radialffffffbfbfbf)"/>
<circle cx="170.112961" cy="193.043550" r="8.945570" opacity="0.890819" style="stroke:black;stroke-width:0.5;fill:url(#radialffffffbfbfbf)"/>
<circle cx="97.108929" cy="207.520599" r="9.601591" opacity="0.922905" style="stroke:black;stroke-width:0.5;fill:url(#radialffffffbfbfbf)"/>
<circle cx="97.286186" cy="40.000000" r="9.602253" opacity="0.922937" style="stroke:black;stroke-width:0.5;fill:url(#radialffffffbfbfbf)"/>
<circle cx="199.428018" cy="123.871488" r="11.272727" opacity="1.000000" style="stroke:black;stroke-width:0.5;fill:url(#radialffffffbfbfbf)"/>
</svg>
</g>
</svg>
