<?xml version="1.0"?>
<svg version="1.1" id="topsvg"
xmlns="http://www.w3.org/2000/svg" xmlns:xlink="http://www.w3.org/1999/xlink"
xmlns:cml="http://www.xml-cml.org/schema" x="0" y="0" width="1024px" height="1024px" viewBox="0 0 100 100">
<title>110848 - Open Babel Depiction</title>
<rect x="0" y="0" width="100" height="100" fill="white"/>
<defs>
<radialGradient id='radialffffff666666' cx='50%' cy='50%' r='50%' fx='30%' fy='30%'>
  <stop offset=' 0%' stop-color="rgb(255,255,255)"  stop-opacity='1.0'/>
  <stop offset='100%' stop-color="rgb(102,102,102)"  stop-opacity ='1.0'/>
</radialGradient>
<radialGradient id='radialffffffbfbfbf' cx='50%' cy='50%' r='50%' fx='30%' fy='30%'>
  <stop offset=' 0%' stop-color="rgb(255,255,255)"  stop-opacity='1.0'/>
  <stop offset='100%' stop-color="rgb(191,191,191)"  stop-opacity ='1.0'/>
</radialGradient>
</defs>
<g transform="translate(0,0)">
<svg width="100" height="100" x="0" y="0" viewBox="0 0 594.381 246.236"
font-family="sans-serif" stroke="rgb(0,0,0)" stroke-width="2"  stroke-linecap="round">
<line x1="442.2" y1="159.9" x2="485.3" y2="147.3" opacity="1.0" stroke="rgb(0,0,0)"  stroke-width="1.4"/>
<line x1="442.2" y1="159.9" x2="401.9" y2="140.0" opacity="0.5" stroke="rgb(0,0,0)"  stroke-width="1.4"/>
<line x1="442.2" y1="159.9" x2="443.1" y2="150.2" opacity="0.5" stroke="rgb(0,0,0)"  stroke-width="2.3"/>
<line x1="442.2" y1="159.9" x2="439.0" y2="195.5" opacity="0.8" stroke="rgb(0,0,0)"  stroke-width="1.7"/>
<line x1="485.3" y1="147.3" x2="493.7" y2="97.9" opacity="0.6" stroke="rgb(0,0,0)"  stroke-width="1.0"/>
<line x1="485.3" y1="147.3" x2="523.3" y2="170.9" opacity="0.3" stroke="rgb(0,0,0)"  stroke-width="1.4"/>
<line x1="485.8" y1="149.8" x2="484.2" y2="149.6" opacity="0.5" stroke="rgb(0,0,0)"  stroke-width="1.0"/>
<line x1="486.1" y1="151.9" x2="483.3" y2="151.5" opacity="0.5" stroke="rgb(0,0,0)"  stroke-width="1.0"/>
<line x1="486.5" y1="153.9" x2="482.4" y2="153.3" opacity="0.5" stroke="rgb(0,0,0)"  stroke-width="1.0"/>
<line x1="486.9" y1="155.9" x2="481.5" y2="155.2" opacity="0.5" stroke="rgb(0,0,0)"  stroke-width="1.0"/>
<line x1="487.2" y1="157.9" x2="480.6" y2="157.0" opacity="0.5" stroke="rgb(0,0,0)"  stroke-width="1.0"/>
<line x1="487.6" y1="159.9" x2="479.7" y2="158.8" opacity="0.5" stroke="rgb(0,0,0)"  stroke-width="1.0"/>
<line x1="401.9" y1="140.0" x2="359.0" y2="154.6" opacity="0.5" stroke="rgb(0,0,0)"  stroke-width="1.4"/>
<line x1="401.9" y1="140.0" x2="401.5" y2="148.7" opacity="0.5" stroke="rgb(0,0,0)"  stroke-width="0.5"/>
<line x1="401.9" y1="140.0" x2="403.4" y2="104.4" opacity="0.2" stroke="rgb(0,0,0)"  stroke-width="1.1"/>
<line x1="359.0" y1="154.6" x2="317.5" y2="135.2" opacity="0.4" stroke="rgb(0,0,0)"  stroke-width="1.4"/>
<line x1="359.0" y1="154.6" x2="356.9" y2="190.2" opacity="0.5" stroke="rgb(0,0,0)"  stroke-width="1.7"/>
<line x1="359.0" y1="154.6" x2="359.9" y2="146.3" opacity="0.6" stroke="rgb(0,0,0)"  stroke-width="2.3"/>
<line x1="317.5" y1="135.2" x2="275.8" y2="149.5" opacity="0.8" stroke="rgb(0,0,0)"  stroke-width="1.5"/>
<line x1="317.5" y1="135.2" x2="319.8" y2="99.6" opacity="0.5" stroke="rgb(0,0,0)"  stroke-width="1.1"/>
<line x1="317.5" y1="135.2" x2="315.7" y2="144.6" opacity="0.4" stroke="rgb(0,0,0)"  stroke-width="0.6"/>
<line x1="275.8" y1="149.5" x2="235.4" y2="129.5" opacity="0.2" stroke="rgb(0,0,0)"  stroke-width="1.5"/>
<line x1="275.8" y1="149.5" x2="277.3" y2="139.8" opacity="0.5" stroke="rgb(0,0,0)"  stroke-width="2.4"/>
<line x1="275.8" y1="149.5" x2="273.4" y2="185.1" opacity="0.8" stroke="rgb(0,0,0)"  stroke-width="1.8"/>
<line x1="235.4" y1="129.5" x2="193.7" y2="144.6" opacity="0.6" stroke="rgb(0,0,0)"  stroke-width="1.5"/>
<line x1="235.4" y1="129.5" x2="237.5" y2="93.8" opacity="0.5" stroke="rgb(0,0,0)"  stroke-width="1.2"/>
<line x1="235.4" y1="129.5" x2="234.2" y2="138.7" opacity="0.4" stroke="rgb(0,0,0)"  stroke-width="0.6"/>
<line x1="493.7" y1="97.9" x2="499.9" y2="74.9" opacity="0.2" stroke="rgb(0,0,0)"  stroke-width="1.6"/>
<line x1="493.7" y1="97.9" x2="467.3" y2="81.9" opacity="0.5" stroke="rgb(0,0,0)"  stroke-width="0.7"/>
<line x1="493.7" y1="97.9" x2="523.2" y2="92.5" opacity="0.2" stroke="rgb(0,0,0)"  stroke-width="0.7"/>
<line x1="193.7" y1="144.6" x2="152.1" y2="126.4" opacity="0.2" stroke="rgb(0,0,0)"  stroke-width="1.5"/>
<line x1="193.7" y1="144.6" x2="192.1" y2="180.3" opacity="0.5" stroke="rgb(0,0,0)"  stroke-width="1.9"/>
<line x1="193.7" y1="144.6" x2="194.8" y2="134.8" opacity="0.6" stroke="rgb(0,0,0)"  stroke-width="2.4"/>
<line x1="523.3" y1="170.9" x2="554.4" y2="162.1" opacity="0.8" stroke="rgb(0,0,0)"  stroke-width="1.5"/>
<line x1="523.3" y1="170.9" x2="519.5" y2="206.2" opacity="0.5" stroke="rgb(0,0,0)"  stroke-width="1.7"/>
<line x1="523.3" y1="170.9" x2="525.3" y2="163.2" opacity="0.6" stroke="rgb(0,0,0)"  stroke-width="2.3"/>
<line x1="152.1" y1="126.4" x2="109.5" y2="138.3" opacity="0.8" stroke="rgb(0,0,0)"  stroke-width="1.6"/>
<line x1="152.1" y1="126.4" x2="154.7" y2="90.8" opacity="0.5" stroke="rgb(0,0,0)"  stroke-width="1.2"/>
<line x1="152.1" y1="126.4" x2="150.4" y2="137.5" opacity="0.4" stroke="rgb(0,0,0)"  stroke-width="0.7"/>
<line x1="499.9" y1="74.9" x2="528.3" y2="87.3" opacity="0.2" stroke="rgb(0,0,0)"  stroke-width="2.6"/>
<line x1="499.9" y1="74.9" x2="505.1" y2="40.0" opacity="0.9" stroke="rgb(0,0,0)"  stroke-width="2.2"/>
<line x1="499.9" y1="74.9" x2="471.2" y2="78.4" opacity="0.7" stroke="rgb(0,0,0)"  stroke-width="2.6"/>
<line x1="109.5" y1="138.3" x2="69.4" y2="117.7" opacity="0.9" stroke="rgb(0,0,0)"  stroke-width="1.6"/>
<line x1="109.5" y1="138.3" x2="111.3" y2="128.0" opacity="0.5" stroke="rgb(0,0,0)"  stroke-width="2.5"/>
<line x1="109.5" y1="138.3" x2="105.6" y2="173.8" opacity="0.8" stroke="rgb(0,0,0)"  stroke-width="1.9"/>
<line x1="69.4" y1="117.7" x2="65.9" y2="128.0" opacity="0.6" stroke="rgb(0,0,0)"  stroke-width="0.8"/>
<line x1="69.4" y1="117.7" x2="40.0" y2="127.3" opacity="0.3" stroke="rgb(0,0,0)"  stroke-width="1.6"/>
<line x1="69.4" y1="117.7" x2="71.6" y2="82.1" opacity="0.5" stroke="rgb(0,0,0)"  stroke-width="1.3"/>
<circle cx="401.531343" cy="148.654219" r="5.636364" opacity="0.200000" style="stroke:black;stroke-width:0.5;fill:url(#radialffffffbfbfbf)"/>
<circle cx="483.637732" cy="159.391936" r="5.636364" opacity="0.200000" style="stroke:black;stroke-width:0.5;fill:url(#radialffffffbfbfbf)"/>
<circle cx="315.691512" cy="144.637349" r="5.636364" opacity="0.200000" style="stroke:black;stroke-width:0.5;fill:url(#radialffffffbfbfbf)"/>
<circle cx="234.220395" cy="138.730954" r="5.636364" opacity="0.200000" style="stroke:black;stroke-width:0.5;fill:url(#radialffffffbfbfbf)"/>
<circle cx="150.358050" cy="137.476700" r="5.636364" opacity="0.241102" style="stroke:black;stroke-width:0.5;fill:url(#radialffffffbfbfbf)"/>
<circle cx="65.883239" cy="128.032331" r="5.636364" opacity="0.286842" style="stroke:black;stroke-width:0.5;fill:url(#radialffffffbfbfbf)"/>
<circle cx="523.158131" cy="92.545092" r="5.636364" opacity="0.343577" style="stroke:black;stroke-width:0.5;fill:url(#radialffffffbfbfbf)"/>
<circle cx="467.345463" cy="81.908368" r="5.636364" opacity="0.365566" style="stroke:black;stroke-width:0.5;fill:url(#radialffffffbfbfbf)"/>
<circle cx="493.675021" cy="97.868341" r="13.818182" opacity="0.565702" style="stroke:black;stroke-width:0.5;fill:url(#radialffffff666666)"/>
<circle cx="485.292696" cy="147.312005" r="13.818182" opacity="0.590947" style="stroke:black;stroke-width:0.5;fill:url(#radialffffff666666)"/>
<circle cx="401.899475" cy="139.968919" r="13.818182" opacity="0.598564" style="stroke:black;stroke-width:0.5;fill:url(#radialffffff666666)"/>
<circle cx="317.476788" cy="135.238590" r="13.818182" opacity="0.607361" style="stroke:black;stroke-width:0.5;fill:url(#radialffffff666666)"/>
<circle cx="319.783312" cy="99.585202" r="5.636364" opacity="0.614445" style="stroke:black;stroke-width:0.5;fill:url(#radialffffffbfbfbf)"/>
<circle cx="403.381775" cy="104.367656" r="5.636364" opacity="0.614527" style="stroke:black;stroke-width:0.5;fill:url(#radialffffffbfbfbf)"/>
<circle cx="235.409492" cy="129.478796" r="13.818182" opacity="0.623775" style="stroke:black;stroke-width:0.5;fill:url(#radialffffff666666)"/>
<circle cx="154.743052" cy="90.759816" r="5.636364" opacity="0.629900" style="stroke:black;stroke-width:0.5;fill:url(#radialffffffbfbfbf)"/>
<circle cx="237.494486" cy="93.838439" r="5.636364" opacity="0.634534" style="stroke:black;stroke-width:0.5;fill:url(#radialffffffbfbfbf)"/>
<circle cx="152.097716" cy="126.403430" r="13.818182" opacity="0.639609" style="stroke:black;stroke-width:0.5;fill:url(#radialffffff666666)"/>
<circle cx="554.380907" cy="162.069849" r="5.636364" opacity="0.648811" style="stroke:black;stroke-width:0.5;fill:url(#radialffffffbfbfbf)"/>
<circle cx="69.414696" cy="117.669263" r="13.818182" opacity="0.658139" style="stroke:black;stroke-width:0.5;fill:url(#radialffffff666666)"/>
<circle cx="71.633259" cy="82.084289" r="5.636364" opacity="0.663338" style="stroke:black;stroke-width:0.5;fill:url(#radialffffffbfbfbf)"/>
<circle cx="519.519166" cy="206.235874" r="6.169400" opacity="0.739787" style="stroke:black;stroke-width:0.5;fill:url(#radialffffffbfbfbf)"/>
<circle cx="356.902710" cy="190.240065" r="6.270008" opacity="0.745795" style="stroke:black;stroke-width:0.5;fill:url(#radialffffffbfbfbf)"/>
<circle cx="358.961641" cy="154.589935" r="15.871456" opacity="0.757823" style="stroke:black;stroke-width:0.5;fill:url(#radialffffff666666)"/>
<circle cx="523.337310" cy="170.875688" r="15.977564" opacity="0.760352" style="stroke:black;stroke-width:0.5;fill:url(#radialffffff666666)"/>
<circle cx="438.956975" cy="195.465579" r="6.525137" opacity="0.760817" style="stroke:black;stroke-width:0.5;fill:url(#radialffffffbfbfbf)"/>
<circle cx="442.198488" cy="159.851286" r="16.104148" opacity="0.763358" style="stroke:black;stroke-width:0.5;fill:url(#radialffffff666666)"/>
<circle cx="273.388951" cy="185.148120" r="6.784821" opacity="0.775809" style="stroke:black;stroke-width:0.5;fill:url(#radialffffffbfbfbf)"/>
<circle cx="275.793209" cy="149.511021" r="16.851555" opacity="0.780871" style="stroke:black;stroke-width:0.5;fill:url(#radialffffff666666)"/>
<circle cx="40.000000" cy="127.305842" r="6.944276" opacity="0.784872" style="stroke:black;stroke-width:0.5;fill:url(#radialffffffbfbfbf)"/>
<circle cx="192.097012" cy="180.326573" r="6.968574" opacity="0.786244" style="stroke:black;stroke-width:0.5;fill:url(#radialffffffbfbfbf)"/>
<circle cx="193.677046" cy="144.627576" r="17.223862" opacity="0.789450" style="stroke:black;stroke-width:0.5;fill:url(#radialffffff666666)"/>
<circle cx="109.456343" cy="138.261830" r="17.870746" opacity="0.804139" style="stroke:black;stroke-width:0.5;fill:url(#radialffffff666666)"/>
<circle cx="105.608879" cy="173.768617" r="7.290902" opacity="0.804222" style="stroke:black;stroke-width:0.5;fill:url(#radialffffffbfbfbf)"/>
<circle cx="505.090360" cy="40.000000" r="8.049074" opacity="0.845003" style="stroke:black;stroke-width:0.5;fill:url(#radialffffffbfbfbf)"/>
<circle cx="499.916970" cy="74.884546" r="21.273634" opacity="0.877365" style="stroke:black;stroke-width:0.5;fill:url(#radialffffff666666)"/>
<circle cx="359.880342" cy="146.269508" r="10.525186" opacity="0.966274" style="stroke:black;stroke-width:0.5;fill:url(#radialffffffbfbfbf)"/>
<circle cx="525.288733" cy="163.203564" r="10.569226" opacity="0.968294" style="stroke:black;stroke-width:0.5;fill:url(#radialffffffbfbfbf)"/>
<circle cx="443.078095" cy="150.221222" r="10.576819" opacity="0.968641" style="stroke:black;stroke-width:0.5;fill:url(#radialffffffbfbfbf)"/>
<circle cx="528.344552" cy="87.300030" r="10.719569" opacity="0.975156" style="stroke:black;stroke-width:0.5;fill:url(#radialffffffbfbfbf)"/>
<circle cx="277.337407" cy="139.766935" r="10.875228" opacity="0.982211" style="stroke:black;stroke-width:0.5;fill:url(#radialffffffbfbfbf)"/>
<circle cx="194.784699" cy="134.844396" r="11.029368" opacity="0.989147" style="stroke:black;stroke-width:0.5;fill:url(#radialffffffbfbfbf)"/>
<circle cx="471.245052" cy="78.438808" r="11.107957" opacity="0.992665" style="stroke:black;stroke-width:0.5;fill:url(#radialffffffbfbfbf)"/>
<circle cx="111.290486" cy="128.048620" r="11.272727" opacity="1.000000" style="stroke:black;stroke-width:0.5;fill:url(#radialffffffbfbfbf)"/>
</svg>
</g>
</svg>
