<?xml version="1.0"?>
<svg version="1.1" id="topsvg"
xmlns="http://www.w3.org/2000/svg" xmlns:xlink="http://www.w3.org/1999/xlink"
xmlns:cml="http://www.xml-cml.org/schema" x="0" y="0" width="1024px" height="1024px" viewBox="0 0 100 100">
<title>11210 - Open Babel Depiction</title>
<rect x="0" y="0" width="100" height="100" fill="white"/>
<defs>
<radialGradient id='radialffffff666666' cx='50%' cy='50%' r='50%' fx='30%' fy='30%'>
  <stop offset=' 0%' stop-color="rgb(255,255,255)"  stop-opacity='1.0'/>
  <stop offset='100%' stop-color="rgb(102,102,102)"  stop-opacity ='1.0'/>
</radialGradient>
<radialGradient id='radialffffffbfbfbf' cx='50%' cy='50%' r='50%' fx='30%' fy='30%'>
  <stop offset=' 0%' stop-color="rgb(255,255,255)"  stop-opacity='1.0'/>
  <stop offset='100%' stop-color="rgb(191,191,191)"  stop-opacity ='1.0'/>
</radialGradient>
</defs>
<g transform="translate(0,0)">
<svg width="100" height="100" x="0" y="0" viewBox="0 0 254.172 200.33"
font-family="sans-serif" stroke="rgb(0,0,0)" stroke-width="2"  stroke-linecap="round">
<line x1="98.7" y1="104.6" x2="74.6" y2="120.8" opacity="1.0" stroke="rgb(0,0,0)"  stroke-width="1.9"/>
<line x1="98.7" y1="104.6" x2="74.0" y2="121.4" opacity="0.6" stroke="rgb(0,0,0)"  stroke-width="1.1"/>
<line x1="98.7" y1="104.6" x2="97.9" y2="53.8" opacity="0.4" stroke="rgb(0,0,0)"  stroke-width="1.5"/>
<line x1="98.7" y1="104.6" x2="144.8" y2="124.4" opacity="0.5" stroke="rgb(0,0,0)"  stroke-width="1.5"/>
<line x1="74.6" y1="120.8" x2="73.0" y2="156.9" opacity="0.5" stroke="rgb(0,0,0)"  stroke-width="2.4"/>
<line x1="74.6" y1="120.8" x2="91.3" y2="109.5" opacity="0.8" stroke="rgb(0,0,0)"  stroke-width="2.7"/>
<line x1="74.6" y1="120.8" x2="40.6" y2="108.4" opacity="0.9" stroke="rgb(0,0,0)"  stroke-width="2.4"/>
<line x1="74.0" y1="121.4" x2="90.3" y2="110.7" opacity="0.8" stroke="rgb(0,0,0)"  stroke-width="0.4"/>
<line x1="74.0" y1="121.4" x2="40.0" y2="109.1" opacity="0.1" stroke="rgb(0,0,0)"  stroke-width="0.6"/>
<line x1="74.0" y1="121.4" x2="72.4" y2="157.6" opacity="0.2" stroke="rgb(0,0,0)"  stroke-width="0.6"/>
<line x1="97.9" y1="53.8" x2="114.2" y2="40.5" opacity="0.2" stroke="rgb(0,0,0)"  stroke-width="1.2"/>
<line x1="97.9" y1="53.8" x2="63.9" y2="41.3" opacity="0.4" stroke="rgb(0,0,0)"  stroke-width="1.5"/>
<line x1="97.9" y1="53.8" x2="114.4" y2="40.0" opacity="0.5" stroke="rgb(0,0,0)"  stroke-width="1.8"/>
<line x1="143.4" y1="121.8" x2="182.0" y2="100.3" opacity="0.6" stroke="rgb(0,0,0)"  stroke-width="1.5"/>
<line x1="146.3" y1="127.0" x2="184.9" y2="105.5" opacity="0.6" stroke="rgb(0,0,0)"  stroke-width="1.5"/>
<line x1="144.8" y1="124.4" x2="146.4" y2="160.3" opacity="0.5" stroke="rgb(0,0,0)"  stroke-width="1.5"/>
<line x1="183.4" y1="102.9" x2="214.2" y2="121.3" opacity="0.5" stroke="rgb(0,0,0)"  stroke-width="1.5"/>
<line x1="183.4" y1="102.9" x2="185.7" y2="67.2" opacity="0.5" stroke="rgb(0,0,0)"  stroke-width="1.5"/>
<circle cx="90.291143" cy="110.688811" r="5.636364" opacity="0.200000" style="stroke:black;stroke-width:0.5;fill:url(#radialffffffbfbfbf)"/>
<circle cx="40.000000" cy="109.058318" r="5.636364" opacity="0.455140" style="stroke:black;stroke-width:0.5;fill:url(#radialffffffbfbfbf)"/>
<circle cx="72.355718" cy="157.600147" r="5.636364" opacity="0.456353" style="stroke:black;stroke-width:0.5;fill:url(#radialffffffbfbfbf)"/>
<circle cx="73.982911" cy="121.448746" r="13.818182" opacity="0.461200" style="stroke:black;stroke-width:0.5;fill:url(#radialffffff666666)"/>
<circle cx="114.200643" cy="40.504991" r="5.636364" opacity="0.539192" style="stroke:black;stroke-width:0.5;fill:url(#radialffffffbfbfbf)"/>
<circle cx="97.912214" cy="53.783279" r="13.818182" opacity="0.704511" style="stroke:black;stroke-width:0.5;fill:url(#radialffffff666666)"/>
<circle cx="63.932604" cy="41.330139" r="5.636364" opacity="0.704609" style="stroke:black;stroke-width:0.5;fill:url(#radialffffffbfbfbf)"/>
<circle cx="146.391331" cy="160.329738" r="5.636364" opacity="0.704985" style="stroke:black;stroke-width:0.5;fill:url(#radialffffffbfbfbf)"/>
<circle cx="144.823550" cy="124.392876" r="13.818182" opacity="0.705802" style="stroke:black;stroke-width:0.5;fill:url(#radialffffff666666)"/>
<circle cx="214.172320" cy="121.306821" r="5.636364" opacity="0.705998" style="stroke:black;stroke-width:0.5;fill:url(#radialffffffbfbfbf)"/>
<circle cx="183.440494" cy="102.915914" r="13.818182" opacity="0.706487" style="stroke:black;stroke-width:0.5;fill:url(#radialffffff666666)"/>
<circle cx="98.701056" cy="104.595916" r="13.818182" opacity="0.706602" style="stroke:black;stroke-width:0.5;fill:url(#radialffffff666666)"/>
<circle cx="185.661793" cy="67.236498" r="5.643896" opacity="0.707579" style="stroke:black;stroke-width:0.5;fill:url(#radialffffffbfbfbf)"/>
<circle cx="114.405280" cy="40.000000" r="7.885298" opacity="0.836363" style="stroke:black;stroke-width:0.5;fill:url(#radialffffffbfbfbf)"/>
<circle cx="74.580318" cy="120.755622" r="21.839465" opacity="0.888957" style="stroke:black;stroke-width:0.5;fill:url(#radialffffff666666)"/>
<circle cx="40.604009" cy="108.365194" r="8.992103" opacity="0.893133" style="stroke:black;stroke-width:0.5;fill:url(#radialffffffbfbfbf)"/>
<circle cx="72.986132" cy="156.890519" r="9.008207" opacity="0.893932" style="stroke:black;stroke-width:0.5;fill:url(#radialffffffbfbfbf)"/>
<circle cx="91.304426" cy="109.477494" r="11.272727" opacity="1.000000" style="stroke:black;stroke-width:0.5;fill:url(#radialffffffbfbfbf)"/>
</svg>
</g>
</svg>
