<?xml version="1.0"?>
<svg version="1.1" id="topsvg"
xmlns="http://www.w3.org/2000/svg" xmlns:xlink="http://www.w3.org/1999/xlink"
xmlns:cml="http://www.xml-cml.org/schema" x="0" y="0" width="200px" height="200px" viewBox="0 0 100 100">
<title>11215 - Open Babel Depiction</title>
<rect x="0" y="0" width="100" height="100" fill="white"/>
<defs>
<radialGradient id='radialffffff666666' cx='50%' cy='50%' r='50%' fx='30%' fy='30%'>
  <stop offset=' 0%' stop-color="rgb(255,255,255)"  stop-opacity='1.0'/>
  <stop offset='100%' stop-color="rgb(102,102,102)"  stop-opacity ='1.0'/>
</radialGradient>
<radialGradient id='radialffffffbfbfbf' cx='50%' cy='50%' r='50%' fx='30%' fy='30%'>
  <stop offset=' 0%' stop-color="rgb(255,255,255)"  stop-opacity='1.0'/>
  <stop offset='100%' stop-color="rgb(191,191,191)"  stop-opacity ='1.0'/>
</radialGradient>
</defs>
<g transform="translate(0,0)">
<svg width="100" height="100" x="0" y="0" viewBox="0 0 277.562 229.368"
font-family="sans-serif" stroke="rgb(0,0,0)" stroke-width="2"  stroke-linecap="round">
<line x1="135.6" y1="99.6" x2="172.2" y2="130.9" opacity="1.0" stroke="rgb(0,0,0)"  stroke-width="1.7"/>
<line x1="135.6" y1="99.6" x2="92.6" y2="124.8" opacity="0.6" stroke="rgb(0,0,0)"  stroke-width="1.4"/>
<line x1="135.6" y1="99.6" x2="124.7" y2="63.8" opacity="0.5" stroke="rgb(0,0,0)"  stroke-width="1.9"/>
<line x1="135.6" y1="99.6" x2="150.6" y2="76.1" opacity="0.6" stroke="rgb(0,0,0)"  stroke-width="1.1"/>
<line x1="172.2" y1="130.9" x2="185.3" y2="167.7" opacity="0.4" stroke="rgb(0,0,0)"  stroke-width="1.6"/>
<line x1="172.2" y1="130.9" x2="214.0" y2="107.1" opacity="0.5" stroke="rgb(0,0,0)"  stroke-width="2.1"/>
<line x1="172.2" y1="130.9" x2="159.2" y2="146.8" opacity="0.7" stroke="rgb(0,0,0)"  stroke-width="2.3"/>
<line x1="92.6" y1="124.8" x2="69.9" y2="147.7" opacity="0.8" stroke="rgb(0,0,0)"  stroke-width="1.7"/>
<line x1="92.6" y1="124.8" x2="98.8" y2="148.8" opacity="0.6" stroke="rgb(0,0,0)"  stroke-width="1.0"/>
<line x1="92.6" y1="124.8" x2="68.9" y2="101.6" opacity="0.3" stroke="rgb(0,0,0)"  stroke-width="1.1"/>
<line x1="124.7" y1="63.8" x2="151.3" y2="40.0" opacity="0.4" stroke="rgb(0,0,0)"  stroke-width="2.3"/>
<line x1="124.7" y1="63.8" x2="118.8" y2="77.9" opacity="0.8" stroke="rgb(0,0,0)"  stroke-width="2.6"/>
<line x1="124.7" y1="63.8" x2="95.4" y2="45.3" opacity="0.9" stroke="rgb(0,0,0)"  stroke-width="2.2"/>
<line x1="150.6" y1="76.1" x2="125.3" y2="53.4" opacity="0.7" stroke="rgb(0,0,0)"  stroke-width="0.5"/>
<line x1="150.6" y1="76.1" x2="180.3" y2="56.7" opacity="0.2" stroke="rgb(0,0,0)"  stroke-width="0.6"/>
<line x1="150.6" y1="76.1" x2="157.0" y2="99.3" opacity="0.2" stroke="rgb(0,0,0)"  stroke-width="0.4"/>
<line x1="185.3" y1="167.7" x2="209.4" y2="189.4" opacity="0.1" stroke="rgb(0,0,0)"  stroke-width="1.4"/>
<line x1="185.3" y1="167.7" x2="200.0" y2="154.9" opacity="0.5" stroke="rgb(0,0,0)"  stroke-width="0.9"/>
<line x1="185.3" y1="167.7" x2="157.3" y2="188.2" opacity="0.3" stroke="rgb(0,0,0)"  stroke-width="1.1"/>
<line x1="214.0" y1="107.1" x2="237.6" y2="130.4" opacity="0.4" stroke="rgb(0,0,0)"  stroke-width="2.4"/>
<line x1="214.0" y1="107.1" x2="207.4" y2="82.9" opacity="0.8" stroke="rgb(0,0,0)"  stroke-width="2.5"/>
<line x1="214.0" y1="107.1" x2="230.2" y2="90.5" opacity="0.8" stroke="rgb(0,0,0)"  stroke-width="2.0"/>
<line x1="69.9" y1="147.7" x2="90.7" y2="173.1" opacity="0.7" stroke="rgb(0,0,0)"  stroke-width="2.3"/>
<line x1="69.9" y1="147.7" x2="60.4" y2="124.7" opacity="0.8" stroke="rgb(0,0,0)"  stroke-width="2.4"/>
<line x1="69.9" y1="147.7" x2="40.0" y2="163.7" opacity="0.8" stroke="rgb(0,0,0)"  stroke-width="2.0"/>
<circle cx="157.019724" cy="99.290823" r="5.636364" opacity="0.200000" style="stroke:black;stroke-width:0.5;fill:url(#radialffffffbfbfbf)"/>
<circle cx="125.299936" cy="53.438424" r="5.636364" opacity="0.331040" style="stroke:black;stroke-width:0.5;fill:url(#radialffffffbfbfbf)"/>
<circle cx="200.023335" cy="154.878221" r="5.636364" opacity="0.433951" style="stroke:black;stroke-width:0.5;fill:url(#radialffffffbfbfbf)"/>
<circle cx="150.585391" cy="76.087931" r="13.818182" opacity="0.442833" style="stroke:black;stroke-width:0.5;fill:url(#radialffffff666666)"/>
<circle cx="98.822574" cy="148.840099" r="5.636364" opacity="0.481833" style="stroke:black;stroke-width:0.5;fill:url(#radialffffffbfbfbf)"/>
<circle cx="180.278283" cy="56.735815" r="5.636364" opacity="0.484835" style="stroke:black;stroke-width:0.5;fill:url(#radialffffffbfbfbf)"/>
<circle cx="68.933214" cy="101.625520" r="5.636364" opacity="0.565028" style="stroke:black;stroke-width:0.5;fill:url(#radialffffffbfbfbf)"/>
<circle cx="157.301329" cy="188.182853" r="5.636364" opacity="0.586844" style="stroke:black;stroke-width:0.5;fill:url(#radialffffffbfbfbf)"/>
<circle cx="185.281673" cy="167.704319" r="13.818182" opacity="0.640391" style="stroke:black;stroke-width:0.5;fill:url(#radialffffff666666)"/>
<circle cx="92.584709" cy="124.779296" r="13.818182" opacity="0.650712" style="stroke:black;stroke-width:0.5;fill:url(#radialffffff666666)"/>
<circle cx="135.562124" cy="99.611721" r="14.042101" opacity="0.712813" style="stroke:black;stroke-width:0.5;fill:url(#radialffffff666666)"/>
<circle cx="209.437436" cy="189.368211" r="5.900283" opacity="0.723472" style="stroke:black;stroke-width:0.5;fill:url(#radialffffffbfbfbf)"/>
<circle cx="230.227044" cy="90.495598" r="6.199100" opacity="0.741566" style="stroke:black;stroke-width:0.5;fill:url(#radialffffffbfbfbf)"/>
<circle cx="40.000000" cy="163.702917" r="6.978043" opacity="0.786778" style="stroke:black;stroke-width:0.5;fill:url(#radialffffffbfbfbf)"/>
<circle cx="172.167421" cy="130.889456" r="17.796599" opacity="0.802469" style="stroke:black;stroke-width:0.5;fill:url(#radialffffff666666)"/>
<circle cx="95.413851" cy="45.340660" r="7.780706" opacity="0.830797" style="stroke:black;stroke-width:0.5;fill:url(#radialffffffbfbfbf)"/>
<circle cx="69.931928" cy="147.730054" r="19.480341" opacity="0.839572" style="stroke:black;stroke-width:0.5;fill:url(#radialffffff666666)"/>
<circle cx="214.044615" cy="107.064414" r="20.775065" opacity="0.867023" style="stroke:black;stroke-width:0.5;fill:url(#radialffffff666666)"/>
<circle cx="124.694159" cy="63.811944" r="21.011684" opacity="0.871947" style="stroke:black;stroke-width:0.5;fill:url(#radialffffff666666)"/>
<circle cx="151.325422" cy="40.000000" r="8.836110" opacity="0.885352" style="stroke:black;stroke-width:0.5;fill:url(#radialffffffbfbfbf)"/>
<circle cx="90.675693" cy="173.117018" r="9.143107" opacity="0.900601" style="stroke:black;stroke-width:0.5;fill:url(#radialffffffbfbfbf)"/>
<circle cx="237.561856" cy="130.431030" r="9.619416" opacity="0.923761" style="stroke:black;stroke-width:0.5;fill:url(#radialffffffbfbfbf)"/>
<circle cx="159.193972" cy="146.750987" r="9.718385" opacity="0.928501" style="stroke:black;stroke-width:0.5;fill:url(#radialffffffbfbfbf)"/>
<circle cx="60.442514" cy="124.700708" r="10.087000" opacity="0.945946" style="stroke:black;stroke-width:0.5;fill:url(#radialffffffbfbfbf)"/>
<circle cx="207.390892" cy="82.947945" r="10.606931" opacity="0.970019" style="stroke:black;stroke-width:0.5;fill:url(#radialffffffbfbfbf)"/>
<circle cx="118.773918" cy="77.865968" r="11.272727" opacity="1.000000" style="stroke:black;stroke-width:0.5;fill:url(#radialffffffbfbfbf)"/>
</svg>
</g>
</svg>
