<?xml version="1.0"?>
<svg version="1.1" id="topsvg"
xmlns="http://www.w3.org/2000/svg" xmlns:xlink="http://www.w3.org/1999/xlink"
xmlns:cml="http://www.xml-cml.org/schema" x="0" y="0" width="200px" height="200px" viewBox="0 0 100 100">
<title>11229 - Open Babel Depiction</title>
<rect x="0" y="0" width="100" height="100" fill="white"/>
<defs>
<radialGradient id='radialffffff666666' cx='50%' cy='50%' r='50%' fx='30%' fy='30%'>
  <stop offset=' 0%' stop-color="rgb(255,255,255)"  stop-opacity='1.0'/>
  <stop offset='100%' stop-color="rgb(102,102,102)"  stop-opacity ='1.0'/>
</radialGradient>
<radialGradient id='radialffffffbfbfbf' cx='50%' cy='50%' r='50%' fx='30%' fy='30%'>
  <stop offset=' 0%' stop-color="rgb(255,255,255)"  stop-opacity='1.0'/>
  <stop offset='100%' stop-color="rgb(191,191,191)"  stop-opacity ='1.0'/>
</radialGradient>
</defs>
<g transform="translate(0,0)">
<svg width="100" height="100" x="0" y="0" viewBox="0 0 248.51 217.115"
font-family="sans-serif" stroke="rgb(0,0,0)" stroke-width="4"  stroke-linecap="round">
<line x1="124.9" y1="124.0" x2="158.2" y2="95.5" opacity="1.0" stroke="rgb(0,0,0)"  stroke-width="1.8"/>
<line x1="124.9" y1="124.0" x2="90.8" y2="96.3" opacity="0.6" stroke="rgb(0,0,0)"  stroke-width="1.2"/>
<line x1="124.9" y1="124.0" x2="149.5" y2="153.6" opacity="0.4" stroke="rgb(0,0,0)"  stroke-width="1.1"/>
<line x1="124.9" y1="124.0" x2="101.0" y2="154.4" opacity="0.4" stroke="rgb(0,0,0)"  stroke-width="1.9"/>
<line x1="158.2" y1="95.5" x2="186.7" y2="64.7" opacity="0.6" stroke="rgb(0,0,0)"  stroke-width="1.8"/>
<line x1="158.2" y1="95.5" x2="180.3" y2="117.2" opacity="0.6" stroke="rgb(0,0,0)"  stroke-width="2.4"/>
<line x1="158.2" y1="95.5" x2="140.8" y2="75.9" opacity="0.8" stroke="rgb(0,0,0)"  stroke-width="2.5"/>
<line x1="90.8" y1="96.3" x2="63.1" y2="64.7" opacity="0.8" stroke="rgb(0,0,0)"  stroke-width="1.2"/>
<line x1="90.8" y1="96.3" x2="107.6" y2="77.3" opacity="0.4" stroke="rgb(0,0,0)"  stroke-width="0.5"/>
<line x1="90.8" y1="96.3" x2="68.4" y2="118.5" opacity="0.2" stroke="rgb(0,0,0)"  stroke-width="0.6"/>
<line x1="149.5" y1="153.6" x2="175.3" y2="172.7" opacity="0.2" stroke="rgb(0,0,0)"  stroke-width="0.9"/>
<line x1="149.5" y1="153.6" x2="164.9" y2="134.4" opacity="0.3" stroke="rgb(0,0,0)"  stroke-width="0.4"/>
<line x1="149.5" y1="153.6" x2="127.0" y2="177.0" opacity="0.1" stroke="rgb(0,0,0)"  stroke-width="0.5"/>
<line x1="101.0" y1="154.4" x2="85.1" y2="135.6" opacity="0.2" stroke="rgb(0,0,0)"  stroke-width="2.7"/>
<line x1="101.0" y1="154.4" x2="75.8" y2="174.2" opacity="0.9" stroke="rgb(0,0,0)"  stroke-width="2.1"/>
<line x1="101.0" y1="154.4" x2="124.2" y2="177.1" opacity="0.7" stroke="rgb(0,0,0)"  stroke-width="2.5"/>
<line x1="186.7" y1="64.7" x2="207.4" y2="82.8" opacity="0.8" stroke="rgb(0,0,0)"  stroke-width="1.2"/>
<line x1="186.7" y1="64.7" x2="208.5" y2="45.9" opacity="0.4" stroke="rgb(0,0,0)"  stroke-width="1.7"/>
<line x1="186.7" y1="64.7" x2="166.8" y2="41.1" opacity="0.6" stroke="rgb(0,0,0)"  stroke-width="1.2"/>
<line x1="63.1" y1="64.7" x2="40.0" y2="47.2" opacity="0.4" stroke="rgb(0,0,0)"  stroke-width="1.3"/>
<line x1="63.1" y1="64.7" x2="43.6" y2="82.1" opacity="0.4" stroke="rgb(0,0,0)"  stroke-width="1.8"/>
<line x1="63.1" y1="64.7" x2="83.3" y2="40.0" opacity="0.6" stroke="rgb(0,0,0)"  stroke-width="1.7"/>
<circle cx="164.860239" cy="134.416063" r="5.636364" opacity="0.200000" style="stroke:black;stroke-width:0.5;fill:url(#radialffffffbfbfbf)"/>
<circle cx="107.597838" cy="77.275295" r="5.636364" opacity="0.254160" style="stroke:black;stroke-width:0.5;fill:url(#radialffffffbfbfbf)"/>
<circle cx="126.980071" cy="176.970847" r="5.636364" opacity="0.298756" style="stroke:black;stroke-width:0.5;fill:url(#radialffffffbfbfbf)"/>
<circle cx="68.369856" cy="118.515137" r="5.636364" opacity="0.365672" style="stroke:black;stroke-width:0.5;fill:url(#radialffffffbfbfbf)"/>
<circle cx="149.495151" cy="153.620779" r="13.818182" opacity="0.470875" style="stroke:black;stroke-width:0.5;fill:url(#radialffffff666666)"/>
<circle cx="90.825764" cy="96.276195" r="13.818182" opacity="0.530090" style="stroke:black;stroke-width:0.5;fill:url(#radialffffff666666)"/>
<circle cx="207.415023" cy="82.804622" r="5.636364" opacity="0.542860" style="stroke:black;stroke-width:0.5;fill:url(#radialffffffbfbfbf)"/>
<circle cx="40.000000" cy="47.245326" r="5.636364" opacity="0.574726" style="stroke:black;stroke-width:0.5;fill:url(#radialffffffbfbfbf)"/>
<circle cx="166.780053" cy="41.094689" r="5.636364" opacity="0.578262" style="stroke:black;stroke-width:0.5;fill:url(#radialffffffbfbfbf)"/>
<circle cx="175.317309" cy="172.720300" r="5.636364" opacity="0.599504" style="stroke:black;stroke-width:0.5;fill:url(#radialffffffbfbfbf)"/>
<circle cx="186.665251" cy="64.714319" r="13.818182" opacity="0.699773" style="stroke:black;stroke-width:0.5;fill:url(#radialffffff666666)"/>
<circle cx="124.869591" cy="124.021454" r="13.833512" opacity="0.707499" style="stroke:black;stroke-width:0.5;fill:url(#radialffffff666666)"/>
<circle cx="63.050919" cy="64.734043" r="14.124793" opacity="0.714909" style="stroke:black;stroke-width:0.5;fill:url(#radialffffff666666)"/>
<circle cx="75.799273" cy="174.173310" r="7.215621" opacity="0.800060" style="stroke:black;stroke-width:0.5;fill:url(#radialffffffbfbfbf)"/>
<circle cx="83.310875" cy="40.000000" r="7.323490" opacity="0.806018" style="stroke:black;stroke-width:0.5;fill:url(#radialffffffbfbfbf)"/>
<circle cx="208.509711" cy="45.940247" r="7.574557" opacity="0.819717" style="stroke:black;stroke-width:0.5;fill:url(#radialffffffbfbfbf)"/>
<circle cx="43.639100" cy="82.061681" r="8.119528" opacity="0.848694" style="stroke:black;stroke-width:0.5;fill:url(#radialffffffbfbfbf)"/>
<circle cx="158.167188" cy="95.480655" r="19.924336" opacity="0.849086" style="stroke:black;stroke-width:0.5;fill:url(#radialffffff666666)"/>
<circle cx="101.036282" cy="154.383445" r="21.514113" opacity="0.882310" style="stroke:black;stroke-width:0.5;fill:url(#radialffffff666666)"/>
<circle cx="180.264775" cy="117.213346" r="9.889509" opacity="0.936640" style="stroke:black;stroke-width:0.5;fill:url(#radialffffffbfbfbf)"/>
<circle cx="124.166097" cy="177.115491" r="10.270332" opacity="0.954504" style="stroke:black;stroke-width:0.5;fill:url(#radialffffffbfbfbf)"/>
<circle cx="140.786953" cy="75.924193" r="10.486382" opacity="0.964491" style="stroke:black;stroke-width:0.5;fill:url(#radialffffffbfbfbf)"/>
<circle cx="85.059747" cy="135.645533" r="11.272727" opacity="1.000000" style="stroke:black;stroke-width:0.5;fill:url(#radialffffffbfbfbf)"/>
</svg>
</g>
</svg>
