<?xml version="1.0"?>
<svg version="1.1" id="topsvg"
xmlns="http://www.w3.org/2000/svg" xmlns:xlink="http://www.w3.org/1999/xlink"
xmlns:cml="http://www.xml-cml.org/schema" x="0" y="0" width="1024px" height="1024px" viewBox="0 0 100 100">
<title>11240 - Open Babel Depiction</title>
<rect x="0" y="0" width="100" height="100" fill="white"/>
<defs>
<radialGradient id='radialffffff666666' cx='50%' cy='50%' r='50%' fx='30%' fy='30%'>
  <stop offset=' 0%' stop-color="rgb(255,255,255)"  stop-opacity='1.0'/>
  <stop offset='100%' stop-color="rgb(102,102,102)"  stop-opacity ='1.0'/>
</radialGradient>
<radialGradient id='radialffffffbfbfbf' cx='50%' cy='50%' r='50%' fx='30%' fy='30%'>
  <stop offset=' 0%' stop-color="rgb(255,255,255)"  stop-opacity='1.0'/>
  <stop offset='100%' stop-color="rgb(191,191,191)"  stop-opacity ='1.0'/>
</radialGradient>
</defs>
<g transform="translate(0,0)">
<svg width="100" height="100" x="0" y="0" viewBox="0 0 251.616 214.285"
font-family="sans-serif" stroke="rgb(0,0,0)" stroke-width="2"  stroke-linecap="round">
<line x1="143.2" y1="102.4" x2="96.3" y2="103.9" opacity="1.0" stroke="rgb(0,0,0)"  stroke-width="1.8"/>
<line x1="143.2" y1="102.4" x2="178.2" y2="100.0" opacity="0.6" stroke="rgb(0,0,0)"  stroke-width="1.5"/>
<line x1="143.2" y1="102.4" x2="146.9" y2="73.9" opacity="0.5" stroke="rgb(0,0,0)"  stroke-width="2.6"/>
<line x1="143.2" y1="102.4" x2="149.6" y2="132.1" opacity="0.9" stroke="rgb(0,0,0)"  stroke-width="2.5"/>
<line x1="96.3" y1="103.9" x2="73.6" y2="60.1" opacity="0.8" stroke="rgb(0,0,0)"  stroke-width="1.4"/>
<line x1="98.9" y1="105.3" x2="78.7" y2="144.1" opacity="0.5" stroke="rgb(0,0,0)"  stroke-width="1.3"/>
<line x1="93.6" y1="102.5" x2="73.4" y2="141.3" opacity="0.5" stroke="rgb(0,0,0)"  stroke-width="1.3"/>
<line x1="178.2" y1="100.0" x2="174.0" y2="69.9" opacity="0.4" stroke="rgb(0,0,0)"  stroke-width="0.4"/>
<line x1="178.2" y1="100.0" x2="211.6" y2="99.2" opacity="0.1" stroke="rgb(0,0,0)"  stroke-width="1.1"/>
<line x1="178.2" y1="100.0" x2="176.3" y2="128.9" opacity="0.4" stroke="rgb(0,0,0)"  stroke-width="0.4"/>
<line x1="73.6" y1="60.1" x2="40.0" y2="64.3" opacity="0.1" stroke="rgb(0,0,0)"  stroke-width="1.0"/>
<line x1="73.6" y1="60.1" x2="70.6" y2="41.5" opacity="0.3" stroke="rgb(0,0,0)"  stroke-width="1.8"/>
<line x1="73.6" y1="60.1" x2="92.7" y2="40.0" opacity="0.6" stroke="rgb(0,0,0)"  stroke-width="0.8"/>
<line x1="76.1" y1="142.7" x2="92.8" y2="174.3" opacity="0.3" stroke="rgb(0,0,0)"  stroke-width="1.3"/>
<line x1="76.1" y1="142.7" x2="42.5" y2="143.7" opacity="0.4" stroke="rgb(0,0,0)"  stroke-width="0.9"/>
<circle cx="176.253758" cy="128.927924" r="5.636364" opacity="0.200000" style="stroke:black;stroke-width:0.5;fill:url(#radialffffffbfbfbf)"/>
<circle cx="174.031560" cy="69.904730" r="5.636364" opacity="0.200000" style="stroke:black;stroke-width:0.5;fill:url(#radialffffffbfbfbf)"/>
<circle cx="92.743068" cy="40.000000" r="5.636364" opacity="0.332958" style="stroke:black;stroke-width:0.5;fill:url(#radialffffffbfbfbf)"/>
<circle cx="42.505387" cy="143.720371" r="5.636364" opacity="0.471395" style="stroke:black;stroke-width:0.5;fill:url(#radialffffffbfbfbf)"/>
<circle cx="40.000000" cy="64.257613" r="5.636364" opacity="0.483748" style="stroke:black;stroke-width:0.5;fill:url(#radialffffffbfbfbf)"/>
<circle cx="178.192768" cy="99.966046" r="13.818182" opacity="0.521409" style="stroke:black;stroke-width:0.5;fill:url(#radialffffff666666)"/>
<circle cx="76.084907" cy="142.684233" r="13.818182" opacity="0.621359" style="stroke:black;stroke-width:0.5;fill:url(#radialffffff666666)"/>
<circle cx="73.576188" cy="60.063089" r="13.818182" opacity="0.633924" style="stroke:black;stroke-width:0.5;fill:url(#radialffffff666666)"/>
<circle cx="211.615702" cy="99.156460" r="5.636364" opacity="0.671612" style="stroke:black;stroke-width:0.5;fill:url(#radialffffffbfbfbf)"/>
<circle cx="92.776384" cy="174.284764" r="5.636364" opacity="0.672923" style="stroke:black;stroke-width:0.5;fill:url(#radialffffffbfbfbf)"/>
<circle cx="96.281261" cy="103.907367" r="13.856111" opacity="0.708077" style="stroke:black;stroke-width:0.5;fill:url(#radialffffff666666)"/>
<circle cx="143.210631" cy="102.421459" r="19.965572" opacity="0.849964" style="stroke:black;stroke-width:0.5;fill:url(#radialffffff666666)"/>
<circle cx="70.604373" cy="41.455923" r="8.858759" opacity="0.886486" style="stroke:black;stroke-width:0.5;fill:url(#radialffffffbfbfbf)"/>
<circle cx="149.637350" cy="132.132954" r="10.960994" opacity="0.986076" style="stroke:black;stroke-width:0.5;fill:url(#radialffffffbfbfbf)"/>
<circle cx="146.875427" cy="73.929341" r="11.272727" opacity="1.000000" style="stroke:black;stroke-width:0.5;fill:url(#radialffffffbfbfbf)"/>
</svg>
</g>
</svg>
