<?xml version="1.0"?>
<svg version="1.1" id="topsvg"
xmlns="http://www.w3.org/2000/svg" xmlns:xlink="http://www.w3.org/1999/xlink"
xmlns:cml="http://www.xml-cml.org/schema" x="0" y="0" width="200px" height="200px" viewBox="0 0 100 100">
<title>11255 - Open Babel Depiction</title>
<rect x="0" y="0" width="100" height="100" fill="white"/>
<defs>
<radialGradient id='radialffffff666666' cx='50%' cy='50%' r='50%' fx='30%' fy='30%'>
  <stop offset=' 0%' stop-color="rgb(255,255,255)"  stop-opacity='1.0'/>
  <stop offset='100%' stop-color="rgb(102,102,102)"  stop-opacity ='1.0'/>
</radialGradient>
<radialGradient id='radialffffffbfbfbf' cx='50%' cy='50%' r='50%' fx='30%' fy='30%'>
  <stop offset=' 0%' stop-color="rgb(255,255,255)"  stop-opacity='1.0'/>
  <stop offset='100%' stop-color="rgb(191,191,191)"  stop-opacity ='1.0'/>
</radialGradient>
</defs>
<g transform="translate(0,0)">
<svg width="100" height="100" x="0" y="0" viewBox="0 0 298.469 235.906"
font-family="sans-serif" stroke="rgb(0,0,0)" stroke-width="4"  stroke-linecap="round">
<line x1="106.4" y1="124.3" x2="155.1" y2="110.9" opacity="1.0" stroke="rgb(0,0,0)"  stroke-width="1.2"/>
<line x1="106.4" y1="124.3" x2="95.2" y2="170.7" opacity="0.4" stroke="rgb(0,0,0)"  stroke-width="1.2"/>
<line x1="106.4" y1="124.3" x2="98.4" y2="122.7" opacity="0.4" stroke="rgb(0,0,0)"  stroke-width="2.0"/>
<line x1="106.4" y1="124.3" x2="73.8" y2="91.9" opacity="0.7" stroke="rgb(0,0,0)"  stroke-width="1.1"/>
<line x1="155.1" y1="110.9" x2="189.5" y2="142.9" opacity="0.4" stroke="rgb(0,0,0)"  stroke-width="1.3"/>
<line x1="155.1" y1="110.9" x2="166.0" y2="63.6" opacity="0.4" stroke="rgb(0,0,0)"  stroke-width="1.3"/>
<line x1="156.1" y1="110.4" x2="155.5" y2="111.9" opacity="0.4" stroke="rgb(0,0,0)"  stroke-width="1.0"/>
<line x1="156.8" y1="110.0" x2="155.8" y2="112.7" opacity="0.4" stroke="rgb(0,0,0)"  stroke-width="1.0"/>
<line x1="157.6" y1="109.7" x2="156.1" y2="113.5" opacity="0.4" stroke="rgb(0,0,0)"  stroke-width="1.0"/>
<line x1="158.4" y1="109.3" x2="156.3" y2="114.3" opacity="0.4" stroke="rgb(0,0,0)"  stroke-width="1.0"/>
<line x1="159.1" y1="108.9" x2="156.6" y2="115.1" opacity="0.4" stroke="rgb(0,0,0)"  stroke-width="1.0"/>
<line x1="159.9" y1="108.5" x2="156.9" y2="115.9" opacity="0.4" stroke="rgb(0,0,0)"  stroke-width="1.0"/>
<line x1="189.5" y1="142.9" x2="236.7" y2="131.8" opacity="0.4" stroke="rgb(0,0,0)"  stroke-width="1.4"/>
<line x1="189.5" y1="142.9" x2="183.0" y2="176.1" opacity="0.5" stroke="rgb(0,0,0)"  stroke-width="1.4"/>
<line x1="189.5" y1="142.9" x2="187.2" y2="144.1" opacity="0.5" stroke="rgb(0,0,0)"  stroke-width="2.0"/>
<line x1="95.2" y1="170.7" x2="102.2" y2="174.1" opacity="0.7" stroke="rgb(0,0,0)"  stroke-width="0.5"/>
<line x1="95.2" y1="170.7" x2="113.6" y2="195.9" opacity="0.2" stroke="rgb(0,0,0)"  stroke-width="1.2"/>
<line x1="95.2" y1="170.7" x2="60.4" y2="178.1" opacity="0.4" stroke="rgb(0,0,0)"  stroke-width="1.0"/>
<line x1="98.4" y1="122.7" x2="104.5" y2="90.1" opacity="0.3" stroke="rgb(0,0,0)"  stroke-width="2.7"/>
<line x1="98.4" y1="122.7" x2="64.2" y2="130.9" opacity="0.9" stroke="rgb(0,0,0)"  stroke-width="2.7"/>
<line x1="98.4" y1="122.7" x2="118.8" y2="146.3" opacity="0.9" stroke="rgb(0,0,0)"  stroke-width="2.8"/>
<line x1="73.8" y1="91.9" x2="75.2" y2="59.3" opacity="0.9" stroke="rgb(0,0,0)"  stroke-width="1.0"/>
<line x1="73.8" y1="91.9" x2="40.0" y2="103.3" opacity="0.3" stroke="rgb(0,0,0)"  stroke-width="0.9"/>
<line x1="73.8" y1="91.9" x2="80.3" y2="88.3" opacity="0.3" stroke="rgb(0,0,0)"  stroke-width="0.4"/>
<line x1="166.0" y1="63.6" x2="197.7" y2="53.4" opacity="0.1" stroke="rgb(0,0,0)"  stroke-width="1.3"/>
<line x1="166.0" y1="63.6" x2="167.6" y2="60.1" opacity="0.4" stroke="rgb(0,0,0)"  stroke-width="1.9"/>
<line x1="166.0" y1="63.6" x2="142.3" y2="40.0" opacity="0.6" stroke="rgb(0,0,0)"  stroke-width="1.3"/>
<line x1="236.7" y1="131.8" x2="247.9" y2="102.0" opacity="0.4" stroke="rgb(0,0,0)"  stroke-width="1.5"/>
<line x1="236.7" y1="131.8" x2="240.3" y2="127.4" opacity="0.5" stroke="rgb(0,0,0)"  stroke-width="0.8"/>
<line x1="236.7" y1="131.8" x2="258.5" y2="158.4" opacity="0.3" stroke="rgb(0,0,0)"  stroke-width="1.4"/>
<circle cx="80.268452" cy="88.320833" r="5.636364" opacity="0.200000" style="stroke:black;stroke-width:0.5;fill:url(#radialffffffbfbfbf)"/>
<circle cx="102.241398" cy="174.064442" r="5.636364" opacity="0.201533" style="stroke:black;stroke-width:0.5;fill:url(#radialffffffbfbfbf)"/>
<circle cx="158.414858" cy="112.225826" r="5.636364" opacity="0.277060" style="stroke:black;stroke-width:0.5;fill:url(#radialffffffbfbfbf)"/>
<circle cx="240.297646" cy="127.390761" r="5.636364" opacity="0.371914" style="stroke:black;stroke-width:0.5;fill:url(#radialffffffbfbfbf)"/>
<circle cx="73.833752" cy="91.850913" r="13.818182" opacity="0.532512" style="stroke:black;stroke-width:0.5;fill:url(#radialffffff666666)"/>
<circle cx="40.000000" cy="103.325309" r="5.636364" opacity="0.559345" style="stroke:black;stroke-width:0.5;fill:url(#radialffffffbfbfbf)"/>
<circle cx="95.158316" cy="170.721017" r="13.818182" opacity="0.568582" style="stroke:black;stroke-width:0.5;fill:url(#radialffffff666666)"/>
<circle cx="60.365089" cy="178.144664" r="5.636364" opacity="0.601750" style="stroke:black;stroke-width:0.5;fill:url(#radialffffffbfbfbf)"/>
<circle cx="155.117278" cy="110.896316" r="13.818182" opacity="0.605058" style="stroke:black;stroke-width:0.5;fill:url(#radialffffff666666)"/>
<circle cx="197.720561" cy="53.439191" r="5.636364" opacity="0.607305" style="stroke:black;stroke-width:0.5;fill:url(#radialffffffbfbfbf)"/>
<circle cx="142.339568" cy="40.000000" r="5.636364" opacity="0.611146" style="stroke:black;stroke-width:0.5;fill:url(#radialffffffbfbfbf)"/>
<circle cx="75.166537" cy="59.340122" r="5.636364" opacity="0.636245" style="stroke:black;stroke-width:0.5;fill:url(#radialffffffbfbfbf)"/>
<circle cx="183.030451" cy="176.098003" r="5.636364" opacity="0.651136" style="stroke:black;stroke-width:0.5;fill:url(#radialffffffbfbfbf)"/>
<circle cx="236.669327" cy="131.755878" r="13.818182" opacity="0.651197" style="stroke:black;stroke-width:0.5;fill:url(#radialffffff666666)"/>
<circle cx="106.400212" cy="124.302760" r="13.818182" opacity="0.673964" style="stroke:black;stroke-width:0.5;fill:url(#radialffffff666666)"/>
<circle cx="113.647027" cy="195.906401" r="5.636364" opacity="0.681979" style="stroke:black;stroke-width:0.5;fill:url(#radialffffffbfbfbf)"/>
<circle cx="166.015336" cy="63.613549" r="13.818182" opacity="0.690074" style="stroke:black;stroke-width:0.5;fill:url(#radialffffff666666)"/>
<circle cx="258.468716" cy="158.359188" r="5.704326" opacity="0.711357" style="stroke:black;stroke-width:0.5;fill:url(#radialffffffbfbfbf)"/>
<circle cx="189.501173" cy="142.945380" r="14.402800" opacity="0.721910" style="stroke:black;stroke-width:0.5;fill:url(#radialffffff666666)"/>
<circle cx="247.868652" cy="102.012172" r="6.284088" opacity="0.746632" style="stroke:black;stroke-width:0.5;fill:url(#radialffffffbfbfbf)"/>
<circle cx="167.613368" cy="60.063821" r="8.610291" opacity="0.873966" style="stroke:black;stroke-width:0.5;fill:url(#radialffffffbfbfbf)"/>
<circle cx="187.179441" cy="144.075136" r="9.130438" opacity="0.899977" style="stroke:black;stroke-width:0.5;fill:url(#radialffffffbfbfbf)"/>
<circle cx="98.383853" cy="122.681805" r="23.701152" opacity="0.926071" style="stroke:black;stroke-width:0.5;fill:url(#radialffffff666666)"/>
<circle cx="64.239008" cy="130.868446" r="10.357627" opacity="0.958552" style="stroke:black;stroke-width:0.5;fill:url(#radialffffffbfbfbf)"/>
<circle cx="104.546756" cy="90.134993" r="10.911456" opacity="0.983845" style="stroke:black;stroke-width:0.5;fill:url(#radialffffffbfbfbf)"/>
<circle cx="118.791513" cy="146.272431" r="11.272727" opacity="1.000000" style="stroke:black;stroke-width:0.5;fill:url(#radialffffffbfbfbf)"/>
</svg>
</g>
</svg>
