<?xml version="1.0"?>
<svg version="1.1" id="topsvg"
xmlns="http://www.w3.org/2000/svg" xmlns:xlink="http://www.w3.org/1999/xlink"
xmlns:cml="http://www.xml-cml.org/schema" x="0" y="0" width="1024px" height="1024px" viewBox="0 0 100 100">
<title>11326 - Open Babel Depiction</title>
<rect x="0" y="0" width="100" height="100" fill="white"/>
<defs>
<radialGradient id='radialffffff666666' cx='50%' cy='50%' r='50%' fx='30%' fy='30%'>
  <stop offset=' 0%' stop-color="rgb(255,255,255)"  stop-opacity='1.0'/>
  <stop offset='100%' stop-color="rgb(102,102,102)"  stop-opacity ='1.0'/>
</radialGradient>
<radialGradient id='radialffffffbfbfbf' cx='50%' cy='50%' r='50%' fx='30%' fy='30%'>
  <stop offset=' 0%' stop-color="rgb(255,255,255)"  stop-opacity='1.0'/>
  <stop offset='100%' stop-color="rgb(191,191,191)"  stop-opacity ='1.0'/>
</radialGradient>
</defs>
<g transform="translate(0,0)">
<svg width="100" height="100" x="0" y="0" viewBox="0 0 333.168 265.513"
font-family="sans-serif" stroke="rgb(0,0,0)" stroke-width="2"  stroke-linecap="round">
<line x1="222.5" y1="165.4" x2="223.4" y2="212.9" opacity="1.0" stroke="rgb(0,0,0)"  stroke-width="1.4"/>
<line x1="144.7" y1="163.1" x2="142.5" y2="197.6" opacity="0.5" stroke="rgb(0,0,0)"  stroke-width="1.4"/>
<line x1="107.0" y1="139.8" x2="65.3" y2="162.2" opacity="0.5" stroke="rgb(0,0,0)"  stroke-width="1.4"/>
<line x1="147.3" y1="74.6" x2="147.6" y2="40.0" opacity="0.5" stroke="rgb(0,0,0)"  stroke-width="1.4"/>
<line x1="225.1" y1="76.8" x2="226.9" y2="42.3" opacity="0.5" stroke="rgb(0,0,0)"  stroke-width="1.4"/>
<line x1="108.3" y1="95.6" x2="79.2" y2="77.1" opacity="0.5" stroke="rgb(0,0,0)"  stroke-width="1.4"/>
<line x1="261.5" y1="144.3" x2="291.3" y2="161.9" opacity="0.5" stroke="rgb(0,0,0)"  stroke-width="1.4"/>
<line x1="262.8" y1="100.1" x2="293.2" y2="83.8" opacity="0.5" stroke="rgb(0,0,0)"  stroke-width="1.4"/>
<line x1="223.4" y1="212.9" x2="207.9" y2="225.5" opacity="0.5" stroke="rgb(0,0,0)"  stroke-width="2.1"/>
<line x1="223.4" y1="212.9" x2="207.8" y2="225.5" opacity="0.7" stroke="rgb(0,0,0)"  stroke-width="0.7"/>
<line x1="223.4" y1="212.9" x2="256.0" y2="225.4" opacity="0.2" stroke="rgb(0,0,0)"  stroke-width="1.4"/>
<line x1="65.3" y1="162.2" x2="56.7" y2="171.5" opacity="0.5" stroke="rgb(0,0,0)"  stroke-width="2.2"/>
<line x1="65.3" y1="162.2" x2="40.0" y2="142.0" opacity="0.7" stroke="rgb(0,0,0)"  stroke-width="1.1"/>
<line x1="65.3" y1="162.2" x2="66.5" y2="190.8" opacity="0.4" stroke="rgb(0,0,0)"  stroke-width="0.9"/>
<line x1="182.7" y1="145.0" x2="221.0" y2="168.0" opacity="0.5" stroke="rgb(0,0,0)"  stroke-width="1.4"/>
<line x1="185.8" y1="139.9" x2="224.1" y2="162.8" opacity="0.5" stroke="rgb(0,0,0)"  stroke-width="1.4" stroke-dasharray="5.0,5.0"/>
<line x1="223.9" y1="168.0" x2="262.9" y2="147.0" opacity="0.5" stroke="rgb(0,0,0)"  stroke-width="1.4"/>
<line x1="221.1" y1="162.8" x2="260.1" y2="141.7" opacity="0.5" stroke="rgb(0,0,0)"  stroke-width="1.4" stroke-dasharray="5.0,5.0"/>
<line x1="264.5" y1="144.4" x2="265.8" y2="100.2" opacity="0.5" stroke="rgb(0,0,0)"  stroke-width="1.4"/>
<line x1="258.5" y1="144.2" x2="259.8" y2="100.1" opacity="0.5" stroke="rgb(0,0,0)"  stroke-width="1.4" stroke-dasharray="5.0,5.0"/>
<line x1="264.4" y1="97.6" x2="226.7" y2="74.3" opacity="0.5" stroke="rgb(0,0,0)"  stroke-width="1.4"/>
<line x1="261.2" y1="102.7" x2="223.5" y2="79.4" opacity="0.5" stroke="rgb(0,0,0)"  stroke-width="1.4" stroke-dasharray="5.0,5.0"/>
<line x1="223.7" y1="74.2" x2="184.2" y2="94.9" opacity="0.5" stroke="rgb(0,0,0)"  stroke-width="1.4"/>
<line x1="226.5" y1="79.5" x2="187.0" y2="100.2" opacity="0.5" stroke="rgb(0,0,0)"  stroke-width="1.4" stroke-dasharray="5.0,5.0"/>
<line x1="182.6" y1="97.4" x2="181.3" y2="142.4" opacity="0.5" stroke="rgb(0,0,0)"  stroke-width="1.4"/>
<line x1="188.6" y1="97.6" x2="187.3" y2="142.5" opacity="0.5" stroke="rgb(0,0,0)"  stroke-width="1.4" stroke-dasharray="5.0,5.0"/>
<line x1="187.3" y1="142.5" x2="188.6" y2="97.6" opacity="0.5" stroke="rgb(0,0,0)"  stroke-width="1.4"/>
<line x1="181.3" y1="142.4" x2="182.6" y2="97.4" opacity="0.5" stroke="rgb(0,0,0)"  stroke-width="1.4" stroke-dasharray="5.0,5.0"/>
<line x1="187.1" y1="94.9" x2="148.9" y2="72.0" opacity="0.5" stroke="rgb(0,0,0)"  stroke-width="1.4"/>
<line x1="184.0" y1="100.1" x2="145.8" y2="77.1" opacity="0.5" stroke="rgb(0,0,0)"  stroke-width="1.4" stroke-dasharray="5.0,5.0"/>
<line x1="145.9" y1="71.9" x2="106.9" y2="93.0" opacity="0.5" stroke="rgb(0,0,0)"  stroke-width="1.4"/>
<line x1="148.7" y1="77.2" x2="109.7" y2="98.3" opacity="0.5" stroke="rgb(0,0,0)"  stroke-width="1.4" stroke-dasharray="5.0,5.0"/>
<line x1="105.3" y1="95.5" x2="104.0" y2="139.7" opacity="0.5" stroke="rgb(0,0,0)"  stroke-width="1.4"/>
<line x1="111.3" y1="95.7" x2="110.0" y2="139.9" opacity="0.5" stroke="rgb(0,0,0)"  stroke-width="1.4" stroke-dasharray="5.0,5.0"/>
<line x1="105.4" y1="142.4" x2="143.1" y2="165.7" opacity="0.5" stroke="rgb(0,0,0)"  stroke-width="1.4"/>
<line x1="108.6" y1="137.3" x2="146.3" y2="160.6" opacity="0.5" stroke="rgb(0,0,0)"  stroke-width="1.4" stroke-dasharray="5.0,5.0"/>
<line x1="146.1" y1="165.8" x2="185.6" y2="145.1" opacity="0.5" stroke="rgb(0,0,0)"  stroke-width="1.4"/>
<line x1="143.3" y1="160.5" x2="182.9" y2="139.8" opacity="0.5" stroke="rgb(0,0,0)"  stroke-width="1.4" stroke-dasharray="5.0,5.0"/>
<circle cx="207.781219" cy="225.512954" r="5.636364" opacity="0.200000" style="stroke:black;stroke-width:0.5;fill:url(#radialffffffbfbfbf)"/>
<circle cx="66.537247" cy="190.757864" r="5.636364" opacity="0.373161" style="stroke:black;stroke-width:0.5;fill:url(#radialffffffbfbfbf)"/>
<circle cx="40.000000" cy="142.035301" r="5.636364" opacity="0.506701" style="stroke:black;stroke-width:0.5;fill:url(#radialffffffbfbfbf)"/>
<circle cx="65.292023" cy="162.238424" r="13.818182" opacity="0.683186" style="stroke:black;stroke-width:0.5;fill:url(#radialffffff666666)"/>
<circle cx="261.513267" cy="144.335153" r="13.818182" opacity="0.683224" style="stroke:black;stroke-width:0.5;fill:url(#radialffffff666666)"/>
<circle cx="222.514251" cy="165.392780" r="13.818182" opacity="0.683263" style="stroke:black;stroke-width:0.5;fill:url(#radialffffff666666)"/>
<circle cx="291.252518" cy="161.869939" r="5.636364" opacity="0.683263" style="stroke:black;stroke-width:0.5;fill:url(#radialffffffbfbfbf)"/>
<circle cx="144.722698" cy="163.115163" r="13.818182" opacity="0.683339" style="stroke:black;stroke-width:0.5;fill:url(#radialffffff666666)"/>
<circle cx="262.802963" cy="100.145587" r="13.818182" opacity="0.683339" style="stroke:black;stroke-width:0.5;fill:url(#radialffffff666666)"/>
<circle cx="293.168003" cy="83.760727" r="5.636364" opacity="0.683339" style="stroke:black;stroke-width:0.5;fill:url(#radialffffffbfbfbf)"/>
<circle cx="184.255381" cy="142.445081" r="13.818182" opacity="0.683378" style="stroke:black;stroke-width:0.5;fill:url(#radialffffff666666)"/>
<circle cx="255.966938" cy="225.350947" r="5.636364" opacity="0.683378" style="stroke:black;stroke-width:0.5;fill:url(#radialffffffbfbfbf)"/>
<circle cx="185.573666" cy="97.509016" r="13.818182" opacity="0.683454" style="stroke:black;stroke-width:0.5;fill:url(#radialffffff666666)"/>
<circle cx="107.026084" cy="139.814863" r="13.818182" opacity="0.683454" style="stroke:black;stroke-width:0.5;fill:url(#radialffffff666666)"/>
<circle cx="225.106350" cy="76.842110" r="13.818182" opacity="0.683454" style="stroke:black;stroke-width:0.5;fill:url(#radialffffff666666)"/>
<circle cx="108.318957" cy="95.625297" r="13.818182" opacity="0.683531" style="stroke:black;stroke-width:0.5;fill:url(#radialffffff666666)"/>
<circle cx="147.311620" cy="74.561317" r="13.818182" opacity="0.683569" style="stroke:black;stroke-width:0.5;fill:url(#radialffffff666666)"/>
<circle cx="226.878888" cy="42.325265" r="5.636364" opacity="0.683569" style="stroke:black;stroke-width:0.5;fill:url(#radialffffffbfbfbf)"/>
<circle cx="223.438639" cy="212.946357" r="13.818182" opacity="0.683798" style="stroke:black;stroke-width:0.5;fill:url(#radialffffff666666)"/>
<circle cx="147.565747" cy="40.000000" r="5.636364" opacity="0.683798" style="stroke:black;stroke-width:0.5;fill:url(#radialffffffbfbfbf)"/>
<circle cx="142.540379" cy="197.593889" r="5.636364" opacity="0.683989" style="stroke:black;stroke-width:0.5;fill:url(#radialffffffbfbfbf)"/>
<circle cx="79.183258" cy="77.102591" r="5.636364" opacity="0.684295" style="stroke:black;stroke-width:0.5;fill:url(#radialffffffbfbfbf)"/>
<circle cx="207.854280" cy="225.455775" r="10.554182" opacity="0.967604" style="stroke:black;stroke-width:0.5;fill:url(#radialffffffbfbfbf)"/>
<circle cx="56.712049" cy="171.507719" r="11.272727" opacity="1.000000" style="stroke:black;stroke-width:0.5;fill:url(#radialffffffbfbfbf)"/>
</svg>
</g>
</svg>
