<?xml version="1.0"?>
<svg version="1.1" id="topsvg"
xmlns="http://www.w3.org/2000/svg" xmlns:xlink="http://www.w3.org/1999/xlink"
xmlns:cml="http://www.xml-cml.org/schema" x="0" y="0" width="200px" height="200px" viewBox="0 0 100 100">
<title>11396 - Open Babel Depiction</title>
<rect x="0" y="0" width="100" height="100" fill="white"/>
<defs>
<radialGradient id='radialffffff666666' cx='50%' cy='50%' r='50%' fx='30%' fy='30%'>
  <stop offset=' 0%' stop-color="rgb(255,255,255)"  stop-opacity='1.0'/>
  <stop offset='100%' stop-color="rgb(102,102,102)"  stop-opacity ='1.0'/>
</radialGradient>
<radialGradient id='radialffffffbfbfbf' cx='50%' cy='50%' r='50%' fx='30%' fy='30%'>
  <stop offset=' 0%' stop-color="rgb(255,255,255)"  stop-opacity='1.0'/>
  <stop offset='100%' stop-color="rgb(191,191,191)"  stop-opacity ='1.0'/>
</radialGradient>
</defs>
<g transform="translate(0,0)">
<svg width="100" height="100" x="0" y="0" viewBox="0 0 367.427 237.746"
font-family="sans-serif" stroke="rgb(0,0,0)" stroke-width="4"  stroke-linecap="round">
<line x1="222.6" y1="163.2" x2="223.0" y2="197.7" opacity="1.0" stroke="rgb(0,0,0)"  stroke-width="1.5"/>
<line x1="144.8" y1="163.2" x2="144.4" y2="197.7" opacity="0.5" stroke="rgb(0,0,0)"  stroke-width="1.5"/>
<line x1="261.0" y1="141.0" x2="302.0" y2="164.6" opacity="0.5" stroke="rgb(0,0,0)"  stroke-width="1.5"/>
<line x1="106.4" y1="141.0" x2="65.4" y2="164.6" opacity="0.5" stroke="rgb(0,0,0)"  stroke-width="1.5"/>
<line x1="222.6" y1="74.6" x2="223.4" y2="40.0" opacity="0.5" stroke="rgb(0,0,0)"  stroke-width="1.5"/>
<line x1="144.8" y1="74.6" x2="144.0" y2="40.0" opacity="0.5" stroke="rgb(0,0,0)"  stroke-width="1.5"/>
<line x1="261.0" y1="96.8" x2="290.7" y2="79.1" opacity="0.5" stroke="rgb(0,0,0)"  stroke-width="1.5"/>
<line x1="106.4" y1="96.8" x2="76.8" y2="79.1" opacity="0.5" stroke="rgb(0,0,0)"  stroke-width="1.5"/>
<line x1="302.0" y1="164.6" x2="327.4" y2="146.0" opacity="0.5" stroke="rgb(0,0,0)"  stroke-width="1.8"/>
<line x1="302.0" y1="164.6" x2="299.4" y2="194.2" opacity="0.6" stroke="rgb(0,0,0)"  stroke-width="1.9"/>
<line x1="302.0" y1="164.6" x2="311.4" y2="172.3" opacity="0.6" stroke="rgb(0,0,0)"  stroke-width="0.7"/>
<line x1="65.4" y1="164.6" x2="56.0" y2="172.3" opacity="0.2" stroke="rgb(0,0,0)"  stroke-width="2.3"/>
<line x1="65.4" y1="164.6" x2="40.0" y2="145.9" opacity="0.8" stroke="rgb(0,0,0)"  stroke-width="1.2"/>
<line x1="65.4" y1="164.6" x2="68.0" y2="194.2" opacity="0.4" stroke="rgb(0,0,0)"  stroke-width="1.1"/>
<line x1="182.2" y1="144.0" x2="221.2" y2="165.8" opacity="0.5" stroke="rgb(0,0,0)"  stroke-width="1.5"/>
<line x1="185.2" y1="138.7" x2="224.1" y2="160.5" opacity="0.5" stroke="rgb(0,0,0)"  stroke-width="1.5" stroke-dasharray="5.0,5.0"/>
<line x1="224.1" y1="165.8" x2="262.5" y2="143.6" opacity="0.5" stroke="rgb(0,0,0)"  stroke-width="1.5"/>
<line x1="221.1" y1="160.6" x2="259.5" y2="138.4" opacity="0.5" stroke="rgb(0,0,0)"  stroke-width="1.5" stroke-dasharray="5.0,5.0"/>
<line x1="264.0" y1="141.0" x2="264.0" y2="96.8" opacity="0.5" stroke="rgb(0,0,0)"  stroke-width="1.5"/>
<line x1="258.0" y1="141.0" x2="258.0" y2="96.8" opacity="0.5" stroke="rgb(0,0,0)"  stroke-width="1.5" stroke-dasharray="5.0,5.0"/>
<line x1="262.5" y1="94.2" x2="224.1" y2="72.0" opacity="0.5" stroke="rgb(0,0,0)"  stroke-width="1.5"/>
<line x1="259.5" y1="99.4" x2="221.1" y2="77.2" opacity="0.5" stroke="rgb(0,0,0)"  stroke-width="1.5" stroke-dasharray="5.0,5.0"/>
<line x1="221.2" y1="71.9" x2="182.2" y2="93.8" opacity="0.5" stroke="rgb(0,0,0)"  stroke-width="1.5"/>
<line x1="224.1" y1="77.2" x2="185.2" y2="99.0" opacity="0.5" stroke="rgb(0,0,0)"  stroke-width="1.5" stroke-dasharray="5.0,5.0"/>
<line x1="180.7" y1="96.4" x2="180.7" y2="141.3" opacity="0.5" stroke="rgb(0,0,0)"  stroke-width="1.5"/>
<line x1="186.7" y1="96.4" x2="186.7" y2="141.3" opacity="0.5" stroke="rgb(0,0,0)"  stroke-width="1.5" stroke-dasharray="5.0,5.0"/>
<line x1="186.7" y1="141.3" x2="186.7" y2="96.4" opacity="0.5" stroke="rgb(0,0,0)"  stroke-width="1.5"/>
<line x1="180.7" y1="141.3" x2="180.7" y2="96.4" opacity="0.5" stroke="rgb(0,0,0)"  stroke-width="1.5" stroke-dasharray="5.0,5.0"/>
<line x1="185.2" y1="93.8" x2="146.3" y2="71.9" opacity="0.5" stroke="rgb(0,0,0)"  stroke-width="1.5"/>
<line x1="182.2" y1="99.0" x2="143.3" y2="77.2" opacity="0.5" stroke="rgb(0,0,0)"  stroke-width="1.5" stroke-dasharray="5.0,5.0"/>
<line x1="143.3" y1="72.0" x2="104.9" y2="94.2" opacity="0.5" stroke="rgb(0,0,0)"  stroke-width="1.5"/>
<line x1="146.3" y1="77.2" x2="107.9" y2="99.4" opacity="0.5" stroke="rgb(0,0,0)"  stroke-width="1.5" stroke-dasharray="5.0,5.0"/>
<line x1="103.4" y1="96.8" x2="103.4" y2="141.0" opacity="0.5" stroke="rgb(0,0,0)"  stroke-width="1.5"/>
<line x1="109.4" y1="96.8" x2="109.4" y2="141.0" opacity="0.5" stroke="rgb(0,0,0)"  stroke-width="1.5" stroke-dasharray="5.0,5.0"/>
<line x1="104.9" y1="143.6" x2="143.3" y2="165.8" opacity="0.5" stroke="rgb(0,0,0)"  stroke-width="1.5"/>
<line x1="107.9" y1="138.4" x2="146.3" y2="160.6" opacity="0.5" stroke="rgb(0,0,0)"  stroke-width="1.5" stroke-dasharray="5.0,5.0"/>
<line x1="146.3" y1="165.8" x2="185.2" y2="144.0" opacity="0.5" stroke="rgb(0,0,0)"  stroke-width="1.5"/>
<line x1="143.3" y1="160.5" x2="182.2" y2="138.7" opacity="0.5" stroke="rgb(0,0,0)"  stroke-width="1.5" stroke-dasharray="5.0,5.0"/>
<circle cx="311.390475" cy="172.257904" r="5.636364" opacity="0.200000" style="stroke:black;stroke-width:0.5;fill:url(#radialffffffbfbfbf)"/>
<circle cx="68.026019" cy="194.209819" r="5.636364" opacity="0.471146" style="stroke:black;stroke-width:0.5;fill:url(#radialffffffbfbfbf)"/>
<circle cx="40.000000" cy="145.928314" r="5.636364" opacity="0.524500" style="stroke:black;stroke-width:0.5;fill:url(#radialffffffbfbfbf)"/>
<circle cx="290.671171" cy="79.106812" r="5.636364" opacity="0.706694" style="stroke:black;stroke-width:0.5;fill:url(#radialffffffbfbfbf)"/>
<circle cx="222.985571" cy="197.745634" r="5.636364" opacity="0.706797" style="stroke:black;stroke-width:0.5;fill:url(#radialffffffbfbfbf)"/>
<circle cx="302.044232" cy="164.643036" r="13.818182" opacity="0.707003" style="stroke:black;stroke-width:0.5;fill:url(#radialffffff666666)"/>
<circle cx="223.385852" cy="40.003177" r="5.636913" opacity="0.707141" style="stroke:black;stroke-width:0.5;fill:url(#radialffffffbfbfbf)"/>
<circle cx="106.430751" cy="96.754118" r="13.823564" opacity="0.707244" style="stroke:black;stroke-width:0.5;fill:url(#radialffffff666666)"/>
<circle cx="144.794184" cy="74.557587" r="13.824910" opacity="0.707279" style="stroke:black;stroke-width:0.5;fill:url(#radialffffff666666)"/>
<circle cx="106.433928" cy="140.966101" r="13.826256" opacity="0.707313" style="stroke:black;stroke-width:0.5;fill:url(#radialffffff666666)"/>
<circle cx="183.713563" cy="96.376075" r="13.827601" opacity="0.707348" style="stroke:black;stroke-width:0.5;fill:url(#radialffffff666666)"/>
<circle cx="65.386071" cy="164.646213" r="13.827601" opacity="0.707348" style="stroke:black;stroke-width:0.5;fill:url(#radialffffff666666)"/>
<circle cx="144.797361" cy="163.156278" r="13.828947" opacity="0.707382" style="stroke:black;stroke-width:0.5;fill:url(#radialffffff666666)"/>
<circle cx="222.629765" cy="74.560764" r="13.828947" opacity="0.707382" style="stroke:black;stroke-width:0.5;fill:url(#radialffffff666666)"/>
<circle cx="183.710387" cy="141.337790" r="13.830292" opacity="0.707417" style="stroke:black;stroke-width:0.5;fill:url(#radialffffff666666)"/>
<circle cx="144.038098" cy="40.000000" r="5.641303" opacity="0.707417" style="stroke:black;stroke-width:0.5;fill:url(#radialffffffbfbfbf)"/>
<circle cx="260.996375" cy="96.754118" r="13.831638" opacity="0.707451" style="stroke:black;stroke-width:0.5;fill:url(#radialffffff666666)"/>
<circle cx="222.629765" cy="163.156278" r="13.832984" opacity="0.707485" style="stroke:black;stroke-width:0.5;fill:url(#radialffffff666666)"/>
<circle cx="260.996375" cy="140.966101" r="13.834329" opacity="0.707520" style="stroke:black;stroke-width:0.5;fill:url(#radialffffff666666)"/>
<circle cx="76.752779" cy="79.113166" r="5.647890" opacity="0.707829" style="stroke:black;stroke-width:0.5;fill:url(#radialffffffbfbfbf)"/>
<circle cx="144.441556" cy="197.742457" r="5.652281" opacity="0.708105" style="stroke:black;stroke-width:0.5;fill:url(#radialffffffbfbfbf)"/>
<circle cx="327.427127" cy="145.950552" r="8.182031" opacity="0.851954" style="stroke:black;stroke-width:0.5;fill:url(#radialffffffbfbfbf)"/>
<circle cx="299.404284" cy="194.244764" r="8.761090" opacity="0.881586" style="stroke:black;stroke-width:0.5;fill:url(#radialffffffbfbfbf)"/>
<circle cx="56.049359" cy="172.327794" r="11.272727" opacity="1.000000" style="stroke:black;stroke-width:0.5;fill:url(#radialffffffbfbfbf)"/>
</svg>
</g>
</svg>
