<?xml version="1.0"?>
<svg version="1.1" id="topsvg"
xmlns="http://www.w3.org/2000/svg" xmlns:xlink="http://www.w3.org/1999/xlink"
xmlns:cml="http://www.xml-cml.org/schema" x="0" y="0" width="200px" height="200px" viewBox="0 0 100 100">
<title>11475 - Open Babel Depiction</title>
<rect x="0" y="0" width="100" height="100" fill="white"/>
<defs>
<radialGradient id='radialffffff0ccff' cx='50%' cy='50%' r='50%' fx='30%' fy='30%'>
  <stop offset=' 0%' stop-color="rgb(255,255,255)"  stop-opacity='1.0'/>
  <stop offset='100%' stop-color="rgb(12,12,255)"  stop-opacity ='1.0'/>
</radialGradient>
<radialGradient id='radialffffff666666' cx='50%' cy='50%' r='50%' fx='30%' fy='30%'>
  <stop offset=' 0%' stop-color="rgb(255,255,255)"  stop-opacity='1.0'/>
  <stop offset='100%' stop-color="rgb(102,102,102)"  stop-opacity ='1.0'/>
</radialGradient>
<radialGradient id='radialffffffbfbfbf' cx='50%' cy='50%' r='50%' fx='30%' fy='30%'>
  <stop offset=' 0%' stop-color="rgb(255,255,255)"  stop-opacity='1.0'/>
  <stop offset='100%' stop-color="rgb(191,191,191)"  stop-opacity ='1.0'/>
</radialGradient>
</defs>
<g transform="translate(0,0)">
<svg width="100" height="100" x="0" y="0" viewBox="0 0 323.64 252.863"
font-family="sans-serif" stroke="rgb(0,0,0)" stroke-width="4"  stroke-linecap="round">
<line x1="71.1" y1="71.7" x2="103.8" y2="103.6" opacity="1.0" stroke="rgb(0,0,0)"  stroke-width="1.5"/>
<line x1="71.1" y1="71.7" x2="78.8" y2="40.0" opacity="0.5" stroke="rgb(0,0,0)"  stroke-width="1.6"/>
<line x1="71.1" y1="71.7" x2="40.0" y2="80.4" opacity="0.5" stroke="rgb(0,0,0)"  stroke-width="1.4"/>
<line x1="179.1" y1="123.2" x2="225.0" y2="110.3" opacity="0.5" stroke="rgb(0,0,0)"  stroke-width="2.1"/>
<line x1="225.0" y1="110.3" x2="250.2" y2="101.1" opacity="0.7" stroke="rgb(0,0,0)"  stroke-width="1.5"/>
<line x1="225.0" y1="110.3" x2="225.9" y2="81.5" opacity="0.5" stroke="rgb(0,0,0)"  stroke-width="2.6"/>
<line x1="225.0" y1="110.3" x2="241.6" y2="136.0" opacity="0.9" stroke="rgb(0,0,0)"  stroke-width="2.6"/>
<line x1="146.8" y1="91.6" x2="155.0" y2="57.5" opacity="0.9" stroke="rgb(0,0,0)"  stroke-width="1.9"/>
<line x1="168.5" y1="166.8" x2="193.4" y2="191.8" opacity="0.6" stroke="rgb(0,0,0)"  stroke-width="1.8"/>
<line x1="250.2" y1="101.1" x2="251.3" y2="129.8" opacity="0.6" stroke="rgb(0,0,0)"  stroke-width="0.4"/>
<line x1="250.2" y1="101.1" x2="283.6" y2="91.8" opacity="0.1" stroke="rgb(0,0,0)"  stroke-width="0.9"/>
<line x1="250.2" y1="101.1" x2="235.4" y2="74.6" opacity="0.3" stroke="rgb(0,0,0)"  stroke-width="0.4"/>
<line x1="125.6" y1="178.9" x2="117.3" y2="212.9" opacity="0.1" stroke="rgb(0,0,0)"  stroke-width="1.4"/>
<line x1="93.3" y1="147.3" x2="59.9" y2="157.1" opacity="0.5" stroke="rgb(0,0,0)"  stroke-width="1.3"/>
<line x1="146.0" y1="88.7" x2="103.0" y2="100.7" opacity="0.6" stroke="rgb(0,0,0)"  stroke-width="1.7"/>
<line x1="147.6" y1="94.5" x2="104.6" y2="106.5" opacity="0.6" stroke="rgb(0,0,0)"  stroke-width="1.7" stroke-dasharray="5.0,5.0"/>
<line x1="100.9" y1="102.9" x2="90.3" y2="146.6" opacity="0.5" stroke="rgb(0,0,0)"  stroke-width="1.5"/>
<line x1="106.8" y1="104.3" x2="96.2" y2="148.0" opacity="0.5" stroke="rgb(0,0,0)"  stroke-width="1.5" stroke-dasharray="5.0,5.0"/>
<line x1="91.2" y1="149.4" x2="123.5" y2="181.0" opacity="0.5" stroke="rgb(0,0,0)"  stroke-width="1.4"/>
<line x1="95.4" y1="145.1" x2="127.7" y2="176.7" opacity="0.5" stroke="rgb(0,0,0)"  stroke-width="1.4" stroke-dasharray="5.0,5.0"/>
<line x1="126.4" y1="181.8" x2="169.3" y2="169.7" opacity="0.5" stroke="rgb(0,0,0)"  stroke-width="1.6"/>
<line x1="124.8" y1="176.0" x2="167.7" y2="164.0" opacity="0.5" stroke="rgb(0,0,0)"  stroke-width="1.6" stroke-dasharray="5.0,5.0"/>
<line x1="171.4" y1="167.5" x2="182.0" y2="123.9" opacity="0.6" stroke="rgb(0,0,0)"  stroke-width="1.8"/>
<line x1="165.6" y1="166.1" x2="176.2" y2="122.5" opacity="0.6" stroke="rgb(0,0,0)"  stroke-width="1.8" stroke-dasharray="5.0,5.0"/>
<line x1="181.2" y1="121.0" x2="148.9" y2="89.4" opacity="0.6" stroke="rgb(0,0,0)"  stroke-width="1.9"/>
<line x1="177.0" y1="125.3" x2="144.7" y2="93.7" opacity="0.6" stroke="rgb(0,0,0)"  stroke-width="1.9" stroke-dasharray="5.0,5.0"/>
<circle cx="251.275009" cy="129.779463" r="5.636364" opacity="0.200000" style="stroke:black;stroke-width:0.5;fill:url(#radialffffffbfbfbf)"/>
<circle cx="235.356918" cy="74.601724" r="5.636364" opacity="0.200000" style="stroke:black;stroke-width:0.5;fill:url(#radialffffffbfbfbf)"/>
<circle cx="250.223325" cy="101.121056" r="13.818182" opacity="0.501562" style="stroke:black;stroke-width:0.5;fill:url(#radialffffff666666)"/>
<circle cx="283.640280" cy="91.840913" r="5.636364" opacity="0.586421" style="stroke:black;stroke-width:0.5;fill:url(#radialffffffbfbfbf)"/>
<circle cx="59.923582" cy="157.051854" r="5.636364" opacity="0.620641" style="stroke:black;stroke-width:0.5;fill:url(#radialffffffbfbfbf)"/>
<circle cx="117.344266" cy="212.862552" r="5.636364" opacity="0.657133" style="stroke:black;stroke-width:0.5;fill:url(#radialffffffbfbfbf)"/>
<circle cx="40.000000" cy="80.373006" r="5.636364" opacity="0.657754" style="stroke:black;stroke-width:0.5;fill:url(#radialffffffbfbfbf)"/>
<circle cx="93.252897" cy="147.262098" r="13.818182" opacity="0.677657" style="stroke:black;stroke-width:0.5;fill:url(#radialffffff666666)"/>
<circle cx="125.585708" cy="178.877556" r="13.818182" opacity="0.696685" style="stroke:black;stroke-width:0.5;fill:url(#radialffffff666666)"/>
<circle cx="71.122076" cy="71.654410" r="12.947715" opacity="0.708164" style="stroke:black;stroke-width:0.5;fill:url(#radialffffff0ccff)"/>
<circle cx="103.837908" cy="103.610692" r="14.585471" opacity="0.726473" style="stroke:black;stroke-width:0.5;fill:url(#radialffffff666666)"/>
<circle cx="78.769511" cy="40.000000" r="6.209527" opacity="0.742189" style="stroke:black;stroke-width:0.5;fill:url(#radialffffffbfbfbf)"/>
<circle cx="168.510023" cy="166.841610" r="16.028769" opacity="0.761570" style="stroke:black;stroke-width:0.5;fill:url(#radialffffff666666)"/>
<circle cx="193.412877" cy="191.780169" r="6.748743" opacity="0.773743" style="stroke:black;stroke-width:0.5;fill:url(#radialffffffbfbfbf)"/>
<circle cx="146.765469" cy="91.574746" r="17.201448" opacity="0.788937" style="stroke:black;stroke-width:0.5;fill:url(#radialffffff666666)"/>
<circle cx="179.101526" cy="123.193450" r="17.922023" opacity="0.805291" style="stroke:black;stroke-width:0.5;fill:url(#radialffffff666666)"/>
<circle cx="155.026387" cy="57.531324" r="7.610350" opacity="0.821652" style="stroke:black;stroke-width:0.5;fill:url(#radialffffffbfbfbf)"/>
<circle cx="224.999122" cy="110.346019" r="20.710896" opacity="0.865683" style="stroke:black;stroke-width:0.5;fill:url(#radialffffff666666)"/>
<circle cx="241.559910" cy="135.975963" r="10.927121" opacity="0.984551" style="stroke:black;stroke-width:0.5;fill:url(#radialffffffbfbfbf)"/>
<circle cx="225.865788" cy="81.541544" r="11.272727" opacity="1.000000" style="stroke:black;stroke-width:0.5;fill:url(#radialffffffbfbfbf)"/>
</svg>
</g>
</svg>
