<?xml version="1.0"?>
<svg version="1.1" id="topsvg"
xmlns="http://www.w3.org/2000/svg" xmlns:xlink="http://www.w3.org/1999/xlink"
xmlns:cml="http://www.xml-cml.org/schema" x="0" y="0" width="200px" height="200px" viewBox="0 0 100 100">
<title>11551 - Open Babel Depiction</title>
<rect x="0" y="0" width="100" height="100" fill="white"/>
<defs>
<radialGradient id='radialffffff666666' cx='50%' cy='50%' r='50%' fx='30%' fy='30%'>
  <stop offset=' 0%' stop-color="rgb(255,255,255)"  stop-opacity='1.0'/>
  <stop offset='100%' stop-color="rgb(102,102,102)"  stop-opacity ='1.0'/>
</radialGradient>
<radialGradient id='radialffffffbfbfbf' cx='50%' cy='50%' r='50%' fx='30%' fy='30%'>
  <stop offset=' 0%' stop-color="rgb(255,255,255)"  stop-opacity='1.0'/>
  <stop offset='100%' stop-color="rgb(191,191,191)"  stop-opacity ='1.0'/>
</radialGradient>
</defs>
<g transform="translate(0,0)">
<svg width="100" height="100" x="0" y="0" viewBox="0 0 347.894 200.205"
font-family="sans-serif" stroke="rgb(0,0,0)" stroke-width="2"  stroke-linecap="round">
<line x1="109.7" y1="102.0" x2="155.1" y2="125.1" opacity="1.0" stroke="rgb(0,0,0)"  stroke-width="1.5"/>
<line x1="109.7" y1="102.0" x2="72.2" y2="135.4" opacity="0.5" stroke="rgb(0,0,0)"  stroke-width="1.6"/>
<line x1="109.7" y1="102.0" x2="106.1" y2="67.4" opacity="0.5" stroke="rgb(0,0,0)"  stroke-width="1.9"/>
<line x1="109.7" y1="102.0" x2="104.5" y2="78.9" opacity="0.6" stroke="rgb(0,0,0)"  stroke-width="1.1"/>
<line x1="155.1" y1="125.1" x2="195.1" y2="94.7" opacity="0.4" stroke="rgb(0,0,0)"  stroke-width="1.5"/>
<line x1="155.1" y1="125.1" x2="156.7" y2="149.1" opacity="0.5" stroke="rgb(0,0,0)"  stroke-width="1.3"/>
<line x1="155.1" y1="125.1" x2="157.5" y2="144.1" opacity="0.4" stroke="rgb(0,0,0)"  stroke-width="1.9"/>
<line x1="195.1" y1="94.7" x2="237.8" y2="120.8" opacity="0.6" stroke="rgb(0,0,0)"  stroke-width="1.5"/>
<line x1="195.1" y1="94.7" x2="194.9" y2="76.6" opacity="0.5" stroke="rgb(0,0,0)"  stroke-width="1.2"/>
<line x1="195.1" y1="94.7" x2="194.5" y2="70.6" opacity="0.4" stroke="rgb(0,0,0)"  stroke-width="1.8"/>
<line x1="72.2" y1="135.4" x2="73.3" y2="160.2" opacity="0.6" stroke="rgb(0,0,0)"  stroke-width="1.4"/>
<line x1="72.2" y1="135.4" x2="40.0" y2="119.4" opacity="0.5" stroke="rgb(0,0,0)"  stroke-width="1.6"/>
<line x1="72.2" y1="135.4" x2="74.4" y2="152.5" opacity="0.5" stroke="rgb(0,0,0)"  stroke-width="2.0"/>
<line x1="106.1" y1="67.4" x2="73.0" y2="53.4" opacity="0.7" stroke="rgb(0,0,0)"  stroke-width="2.3"/>
<line x1="106.1" y1="67.4" x2="128.8" y2="40.0" opacity="0.8" stroke="rgb(0,0,0)"  stroke-width="2.3"/>
<line x1="106.1" y1="67.4" x2="112.9" y2="81.9" opacity="0.8" stroke="rgb(0,0,0)"  stroke-width="2.7"/>
<line x1="104.5" y1="78.9" x2="127.9" y2="51.9" opacity="0.9" stroke="rgb(0,0,0)"  stroke-width="0.5"/>
<line x1="104.5" y1="78.9" x2="109.2" y2="101.9" opacity="0.2" stroke="rgb(0,0,0)"  stroke-width="0.4"/>
<line x1="104.5" y1="78.9" x2="71.7" y2="64.7" opacity="0.1" stroke="rgb(0,0,0)"  stroke-width="0.5"/>
<line x1="237.8" y1="120.8" x2="277.7" y2="90.9" opacity="0.2" stroke="rgb(0,0,0)"  stroke-width="1.5"/>
<line x1="237.8" y1="120.8" x2="238.5" y2="139.6" opacity="0.5" stroke="rgb(0,0,0)"  stroke-width="1.9"/>
<line x1="237.8" y1="120.8" x2="239.7" y2="144.5" opacity="0.6" stroke="rgb(0,0,0)"  stroke-width="1.3"/>
<line x1="277.7" y1="90.9" x2="307.9" y2="110.3" opacity="0.4" stroke="rgb(0,0,0)"  stroke-width="1.5"/>
<line x1="277.7" y1="90.9" x2="277.4" y2="67.5" opacity="0.5" stroke="rgb(0,0,0)"  stroke-width="1.8"/>
<line x1="277.7" y1="90.9" x2="278.7" y2="72.4" opacity="0.6" stroke="rgb(0,0,0)"  stroke-width="1.2"/>
<circle cx="109.173396" cy="101.872817" r="5.636364" opacity="0.200000" style="stroke:black;stroke-width:0.5;fill:url(#radialffffffbfbfbf)"/>
<circle cx="127.915377" cy="51.900764" r="5.636364" opacity="0.405777" style="stroke:black;stroke-width:0.5;fill:url(#radialffffffbfbfbf)"/>
<circle cx="71.650061" cy="64.694003" r="5.636364" opacity="0.412368" style="stroke:black;stroke-width:0.5;fill:url(#radialffffffbfbfbf)"/>
<circle cx="104.546962" cy="78.868611" r="13.818182" opacity="0.440238" style="stroke:black;stroke-width:0.5;fill:url(#radialffffff666666)"/>
<circle cx="194.870710" cy="76.555394" r="5.636364" opacity="0.525088" style="stroke:black;stroke-width:0.5;fill:url(#radialffffffbfbfbf)"/>
<circle cx="278.694482" cy="72.398165" r="5.636364" opacity="0.537586" style="stroke:black;stroke-width:0.5;fill:url(#radialffffffbfbfbf)"/>
<circle cx="156.674737" cy="149.078853" r="5.636364" opacity="0.571226" style="stroke:black;stroke-width:0.5;fill:url(#radialffffffbfbfbf)"/>
<circle cx="239.707749" cy="144.541010" r="5.636364" opacity="0.572206" style="stroke:black;stroke-width:0.5;fill:url(#radialffffffbfbfbf)"/>
<circle cx="73.323452" cy="160.205264" r="5.636364" opacity="0.602141" style="stroke:black;stroke-width:0.5;fill:url(#radialffffffbfbfbf)"/>
<circle cx="195.080704" cy="94.680517" r="13.818182" opacity="0.704536" style="stroke:black;stroke-width:0.5;fill:url(#radialffffff666666)"/>
<circle cx="277.739664" cy="90.920308" r="14.034610" opacity="0.712623" style="stroke:black;stroke-width:0.5;fill:url(#radialffffff666666)"/>
<circle cx="109.655727" cy="102.046719" r="14.136534" opacity="0.715206" style="stroke:black;stroke-width:0.5;fill:url(#radialffffff666666)"/>
<circle cx="155.073531" cy="125.073893" r="14.293292" opacity="0.719160" style="stroke:black;stroke-width:0.5;fill:url(#radialffffff666666)"/>
<circle cx="237.837488" cy="120.831355" r="14.352640" opacity="0.720652" style="stroke:black;stroke-width:0.5;fill:url(#radialffffff666666)"/>
<circle cx="307.893517" cy="110.288990" r="5.908308" opacity="0.723964" style="stroke:black;stroke-width:0.5;fill:url(#radialffffffbfbfbf)"/>
<circle cx="40.000000" cy="119.420456" r="6.051713" opacity="0.732697" style="stroke:black;stroke-width:0.5;fill:url(#radialffffffbfbfbf)"/>
<circle cx="72.161922" cy="135.412826" r="15.134491" opacity="0.740020" style="stroke:black;stroke-width:0.5;fill:url(#radialffffff666666)"/>
<circle cx="194.457284" cy="70.586965" r="7.731795" opacity="0.828182" style="stroke:black;stroke-width:0.5;fill:url(#radialffffffbfbfbf)"/>
<circle cx="277.421392" cy="67.532206" r="7.910460" opacity="0.837696" style="stroke:black;stroke-width:0.5;fill:url(#radialffffffbfbfbf)"/>
<circle cx="157.527838" cy="144.143990" r="8.275157" opacity="0.856788" style="stroke:black;stroke-width:0.5;fill:url(#radialffffffbfbfbf)"/>
<circle cx="128.807852" cy="40.000000" r="8.293576" opacity="0.857741" style="stroke:black;stroke-width:0.5;fill:url(#radialffffffbfbfbf)"/>
<circle cx="238.460909" cy="139.550367" r="8.317258" opacity="0.858965" style="stroke:black;stroke-width:0.5;fill:url(#radialffffffbfbfbf)"/>
<circle cx="106.105513" cy="67.384554" r="21.308661" opacity="0.878087" style="stroke:black;stroke-width:0.5;fill:url(#radialffffff666666)"/>
<circle cx="74.425921" cy="152.533914" r="8.701690" opacity="0.878592" style="stroke:black;stroke-width:0.5;fill:url(#radialffffffbfbfbf)"/>
<circle cx="73.001898" cy="53.354318" r="8.788786" opacity="0.882978" style="stroke:black;stroke-width:0.5;fill:url(#radialffffffbfbfbf)"/>
<circle cx="112.933605" cy="81.861028" r="11.272727" opacity="1.000000" style="stroke:black;stroke-width:0.5;fill:url(#radialffffffbfbfbf)"/>
</svg>
</g>
</svg>
