<?xml version="1.0"?>
<svg version="1.1" id="topsvg"
xmlns="http://www.w3.org/2000/svg" xmlns:xlink="http://www.w3.org/1999/xlink"
xmlns:cml="http://www.xml-cml.org/schema" x="0" y="0" width="200px" height="200px" viewBox="0 0 100 100">
<title>11582 - Open Babel Depiction</title>
<rect x="0" y="0" width="100" height="100" fill="white"/>
<defs>
<radialGradient id='radialffffff666666' cx='50%' cy='50%' r='50%' fx='30%' fy='30%'>
  <stop offset=' 0%' stop-color="rgb(255,255,255)"  stop-opacity='1.0'/>
  <stop offset='100%' stop-color="rgb(102,102,102)"  stop-opacity ='1.0'/>
</radialGradient>
<radialGradient id='radialffffffbfbfbf' cx='50%' cy='50%' r='50%' fx='30%' fy='30%'>
  <stop offset=' 0%' stop-color="rgb(255,255,255)"  stop-opacity='1.0'/>
  <stop offset='100%' stop-color="rgb(191,191,191)"  stop-opacity ='1.0'/>
</radialGradient>
</defs>
<g transform="translate(0,0)">
<svg width="100" height="100" x="0" y="0" viewBox="0 0 322.718 221.955"
font-family="sans-serif" stroke="rgb(0,0,0)" stroke-width="4"  stroke-linecap="round">
<line x1="85.4" y1="110.6" x2="132.5" y2="109.1" opacity="1.0" stroke="rgb(0,0,0)"  stroke-width="1.0"/>
<line x1="85.4" y1="110.6" x2="78.9" y2="153.0" opacity="0.3" stroke="rgb(0,0,0)"  stroke-width="1.6"/>
<line x1="85.4" y1="110.6" x2="74.8" y2="70.7" opacity="0.5" stroke="rgb(0,0,0)"  stroke-width="1.7"/>
<line x1="85.4" y1="110.6" x2="62.4" y2="110.9" opacity="0.6" stroke="rgb(0,0,0)"  stroke-width="0.8"/>
<line x1="132.5" y1="109.1" x2="168.3" y2="110.9" opacity="0.3" stroke="rgb(0,0,0)"  stroke-width="1.2"/>
<line x1="132.5" y1="109.1" x2="136.5" y2="78.9" opacity="0.4" stroke="rgb(0,0,0)"  stroke-width="0.4"/>
<line x1="132.5" y1="109.1" x2="137.0" y2="136.7" opacity="0.1" stroke="rgb(0,0,0)"  stroke-width="0.4"/>
<line x1="168.3" y1="110.9" x2="214.4" y2="110.1" opacity="0.1" stroke="rgb(0,0,0)"  stroke-width="1.4"/>
<line x1="168.3" y1="110.9" x2="165.3" y2="141.0" opacity="0.5" stroke="rgb(0,0,0)"  stroke-width="2.0"/>
<line x1="168.3" y1="110.9" x2="165.1" y2="82.8" opacity="0.7" stroke="rgb(0,0,0)"  stroke-width="2.1"/>
<line x1="214.4" y1="110.1" x2="250.1" y2="110.7" opacity="0.7" stroke="rgb(0,0,0)"  stroke-width="1.6"/>
<line x1="214.4" y1="110.1" x2="218.6" y2="138.7" opacity="0.5" stroke="rgb(0,0,0)"  stroke-width="0.8"/>
<line x1="214.4" y1="110.1" x2="218.3" y2="80.5" opacity="0.3" stroke="rgb(0,0,0)"  stroke-width="0.8"/>
<line x1="78.9" y1="153.0" x2="96.9" y2="152.7" opacity="0.3" stroke="rgb(0,0,0)"  stroke-width="2.5"/>
<line x1="78.9" y1="153.0" x2="44.0" y2="157.3" opacity="0.8" stroke="rgb(0,0,0)"  stroke-width="2.1"/>
<line x1="78.9" y1="153.0" x2="89.3" y2="182.0" opacity="0.7" stroke="rgb(0,0,0)"  stroke-width="1.7"/>
<line x1="74.8" y1="70.7" x2="94.2" y2="70.3" opacity="0.6" stroke="rgb(0,0,0)"  stroke-width="2.5"/>
<line x1="74.8" y1="70.7" x2="40.0" y2="71.0" opacity="0.8" stroke="rgb(0,0,0)"  stroke-width="2.2"/>
<line x1="74.8" y1="70.7" x2="81.1" y2="40.0" opacity="0.7" stroke="rgb(0,0,0)"  stroke-width="1.8"/>
<line x1="250.1" y1="110.7" x2="282.7" y2="110.2" opacity="0.6" stroke="rgb(0,0,0)"  stroke-width="1.9"/>
<line x1="250.1" y1="110.7" x2="247.5" y2="81.9" opacity="0.6" stroke="rgb(0,0,0)"  stroke-width="2.5"/>
<line x1="250.1" y1="110.7" x2="247.8" y2="140.4" opacity="0.8" stroke="rgb(0,0,0)"  stroke-width="2.5"/>
<circle cx="136.994447" cy="136.714411" r="5.636364" opacity="0.200000" style="stroke:black;stroke-width:0.5;fill:url(#radialffffffbfbfbf)"/>
<circle cx="136.464026" cy="78.885413" r="5.636364" opacity="0.200000" style="stroke:black;stroke-width:0.5;fill:url(#radialffffffbfbfbf)"/>
<circle cx="62.425909" cy="110.881951" r="5.636364" opacity="0.368492" style="stroke:black;stroke-width:0.5;fill:url(#radialffffffbfbfbf)"/>
<circle cx="218.596819" cy="138.677955" r="5.636364" opacity="0.399851" style="stroke:black;stroke-width:0.5;fill:url(#radialffffffbfbfbf)"/>
<circle cx="218.257482" cy="80.542565" r="5.636364" opacity="0.416881" style="stroke:black;stroke-width:0.5;fill:url(#radialffffffbfbfbf)"/>
<circle cx="132.523761" cy="109.069956" r="13.818182" opacity="0.476144" style="stroke:black;stroke-width:0.5;fill:url(#radialffffff666666)"/>
<circle cx="214.369929" cy="110.143975" r="13.818182" opacity="0.612562" style="stroke:black;stroke-width:0.5;fill:url(#radialffffff666666)"/>
<circle cx="85.398712" cy="110.621683" r="13.818182" opacity="0.642123" style="stroke:black;stroke-width:0.5;fill:url(#radialffffff666666)"/>
<circle cx="89.263203" cy="181.954985" r="5.636364" opacity="0.698407" style="stroke:black;stroke-width:0.5;fill:url(#radialffffffbfbfbf)"/>
<circle cx="81.122404" cy="40.000000" r="5.886816" opacity="0.722646" style="stroke:black;stroke-width:0.5;fill:url(#radialffffffbfbfbf)"/>
<circle cx="282.718381" cy="110.160447" r="6.430044" opacity="0.755253" style="stroke:black;stroke-width:0.5;fill:url(#radialffffffbfbfbf)"/>
<circle cx="168.345255" cy="110.901718" r="15.986846" opacity="0.760573" style="stroke:black;stroke-width:0.5;fill:url(#radialffffff666666)"/>
<circle cx="78.944715" cy="153.025661" r="18.662147" opacity="0.821751" style="stroke:black;stroke-width:0.5;fill:url(#radialffffff666666)"/>
<circle cx="74.836428" cy="70.724847" r="19.312701" opacity="0.835951" style="stroke:black;stroke-width:0.5;fill:url(#radialffffff666666)"/>
<circle cx="250.115649" cy="110.694162" r="19.979497" opacity="0.850260" style="stroke:black;stroke-width:0.5;fill:url(#radialffffff666666)"/>
<circle cx="44.009451" cy="157.285496" r="8.512788" opacity="0.869003" style="stroke:black;stroke-width:0.5;fill:url(#radialffffffbfbfbf)"/>
<circle cx="165.324165" cy="140.951185" r="8.723675" opacity="0.879701" style="stroke:black;stroke-width:0.5;fill:url(#radialffffffbfbfbf)"/>
<circle cx="40.000000" cy="70.991704" r="8.932723" opacity="0.890179" style="stroke:black;stroke-width:0.5;fill:url(#radialffffffbfbfbf)"/>
<circle cx="165.116609" cy="82.832268" r="9.029517" opacity="0.894989" style="stroke:black;stroke-width:0.5;fill:url(#radialffffffbfbfbf)"/>
<circle cx="247.822652" cy="140.397703" r="10.419976" opacity="0.961433" style="stroke:black;stroke-width:0.5;fill:url(#radialffffffbfbfbf)"/>
<circle cx="247.470136" cy="81.942743" r="10.563880" opacity="0.968049" style="stroke:black;stroke-width:0.5;fill:url(#radialffffffbfbfbf)"/>
<circle cx="96.946062" cy="152.692913" r="11.101956" opacity="0.992397" style="stroke:black;stroke-width:0.5;fill:url(#radialffffffbfbfbf)"/>
<circle cx="94.231364" cy="70.329502" r="11.272727" opacity="1.000000" style="stroke:black;stroke-width:0.5;fill:url(#radialffffffbfbfbf)"/>
</svg>
</g>
</svg>
