<?xml version="1.0"?>
<svg version="1.1" id="topsvg"
xmlns="http://www.w3.org/2000/svg" xmlns:xlink="http://www.w3.org/1999/xlink"
xmlns:cml="http://www.xml-cml.org/schema" x="0" y="0" width="200px" height="200px" viewBox="0 0 100 100">
<title>11588 - Open Babel Depiction</title>
<rect x="0" y="0" width="100" height="100" fill="white"/>
<defs>
<radialGradient id='radialffffff666666' cx='50%' cy='50%' r='50%' fx='30%' fy='30%'>
  <stop offset=' 0%' stop-color="rgb(255,255,255)"  stop-opacity='1.0'/>
  <stop offset='100%' stop-color="rgb(102,102,102)"  stop-opacity ='1.0'/>
</radialGradient>
<radialGradient id='radialffffffbfbfbf' cx='50%' cy='50%' r='50%' fx='30%' fy='30%'>
  <stop offset=' 0%' stop-color="rgb(255,255,255)"  stop-opacity='1.0'/>
  <stop offset='100%' stop-color="rgb(191,191,191)"  stop-opacity ='1.0'/>
</radialGradient>
</defs>
<g transform="translate(0,0)">
<svg width="100" height="100" x="0" y="0" viewBox="0 0 287.082 180.164"
font-family="sans-serif" stroke="rgb(0,0,0)" stroke-width="4"  stroke-linecap="round">
<line x1="97.8" y1="70.6" x2="70.9" y2="108.8" opacity="1.0" stroke="rgb(0,0,0)"  stroke-width="1.5"/>
<line x1="97.8" y1="70.6" x2="140.0" y2="62.2" opacity="0.5" stroke="rgb(0,0,0)"  stroke-width="1.4"/>
<line x1="97.8" y1="70.6" x2="105.7" y2="78.1" opacity="0.5" stroke="rgb(0,0,0)"  stroke-width="2.4"/>
<line x1="97.8" y1="70.6" x2="77.6" y2="40.0" opacity="0.8" stroke="rgb(0,0,0)"  stroke-width="1.8"/>
<line x1="70.9" y1="108.8" x2="61.8" y2="101.7" opacity="0.6" stroke="rgb(0,0,0)"  stroke-width="0.6"/>
<line x1="70.9" y1="108.8" x2="40.0" y2="113.8" opacity="0.2" stroke="rgb(0,0,0)"  stroke-width="1.5"/>
<line x1="70.9" y1="108.8" x2="89.8" y2="140.2" opacity="0.5" stroke="rgb(0,0,0)"  stroke-width="1.2"/>
<line x1="141.3" y1="59.5" x2="179.6" y2="78.6" opacity="0.4" stroke="rgb(0,0,0)"  stroke-width="1.1"/>
<line x1="138.6" y1="64.9" x2="176.9" y2="84.0" opacity="0.4" stroke="rgb(0,0,0)"  stroke-width="1.1"/>
<line x1="140.0" y1="62.2" x2="137.4" y2="40.5" opacity="0.4" stroke="rgb(0,0,0)"  stroke-width="0.5"/>
<line x1="179.6" y1="78.6" x2="217.8" y2="97.7" opacity="0.2" stroke="rgb(0,0,0)"  stroke-width="1.4"/>
<line x1="176.9" y1="84.0" x2="215.1" y2="103.0" opacity="0.2" stroke="rgb(0,0,0)"  stroke-width="1.4"/>
<line x1="216.5" y1="100.3" x2="218.3" y2="130.0" opacity="0.5" stroke="rgb(0,0,0)"  stroke-width="1.8"/>
<line x1="216.5" y1="100.3" x2="247.1" y2="86.8" opacity="0.6" stroke="rgb(0,0,0)"  stroke-width="1.3"/>
<circle cx="137.378245" cy="40.481640" r="5.636364" opacity="0.200000" style="stroke:black;stroke-width:0.5;fill:url(#radialffffffbfbfbf)"/>
<circle cx="61.784176" cy="101.710126" r="5.636364" opacity="0.200000" style="stroke:black;stroke-width:0.5;fill:url(#radialffffffbfbfbf)"/>
<circle cx="139.960371" cy="62.229024" r="13.818182" opacity="0.568005" style="stroke:black;stroke-width:0.5;fill:url(#radialffffff666666)"/>
<circle cx="247.081791" cy="86.839491" r="5.636364" opacity="0.587645" style="stroke:black;stroke-width:0.5;fill:url(#radialffffffbfbfbf)"/>
<circle cx="70.905234" cy="108.767490" r="13.818182" opacity="0.622123" style="stroke:black;stroke-width:0.5;fill:url(#radialffffff666666)"/>
<circle cx="89.766123" cy="140.164399" r="5.636364" opacity="0.628371" style="stroke:black;stroke-width:0.5;fill:url(#radialffffffbfbfbf)"/>
<circle cx="178.260786" cy="81.314010" r="13.818182" opacity="0.641701" style="stroke:black;stroke-width:0.5;fill:url(#radialffffff666666)"/>
<circle cx="216.470893" cy="100.338790" r="13.830521" opacity="0.707422" style="stroke:black;stroke-width:0.5;fill:url(#radialffffff666666)"/>
<circle cx="40.000000" cy="113.761161" r="6.744510" opacity="0.773501" style="stroke:black;stroke-width:0.5;fill:url(#radialffffffbfbfbf)"/>
<circle cx="77.618092" cy="40.000000" r="6.877052" opacity="0.781064" style="stroke:black;stroke-width:0.5;fill:url(#radialffffffbfbfbf)"/>
<circle cx="97.833593" cy="70.577451" r="16.869123" opacity="0.781278" style="stroke:black;stroke-width:0.5;fill:url(#radialffffff666666)"/>
<circle cx="218.330559" cy="130.033235" r="8.237698" opacity="0.854847" style="stroke:black;stroke-width:0.5;fill:url(#radialffffffbfbfbf)"/>
<circle cx="105.663588" cy="78.113111" r="11.272727" opacity="1.000000" style="stroke:black;stroke-width:0.5;fill:url(#radialffffffbfbfbf)"/>
</svg>
</g>
</svg>
