<?xml version="1.0"?>
<svg version="1.1" id="topsvg"
xmlns="http://www.w3.org/2000/svg" xmlns:xlink="http://www.w3.org/1999/xlink"
xmlns:cml="http://www.xml-cml.org/schema" x="0" y="0" width="200px" height="200px" viewBox="0 0 100 100">
<title>11610 - Open Babel Depiction</title>
<rect x="0" y="0" width="100" height="100" fill="white"/>
<defs>
<radialGradient id='radialffffff666666' cx='50%' cy='50%' r='50%' fx='30%' fy='30%'>
  <stop offset=' 0%' stop-color="rgb(255,255,255)"  stop-opacity='1.0'/>
  <stop offset='100%' stop-color="rgb(102,102,102)"  stop-opacity ='1.0'/>
</radialGradient>
<radialGradient id='radialffffffbfbfbf' cx='50%' cy='50%' r='50%' fx='30%' fy='30%'>
  <stop offset=' 0%' stop-color="rgb(255,255,255)"  stop-opacity='1.0'/>
  <stop offset='100%' stop-color="rgb(191,191,191)"  stop-opacity ='1.0'/>
</radialGradient>
</defs>
<g transform="translate(0,0)">
<svg width="100" height="100" x="0" y="0" viewBox="0 0 379.815 168.182"
font-family="sans-serif" stroke="rgb(0,0,0)" stroke-width="2"  stroke-linecap="round">
<line x1="229.6" y1="97.1" x2="186.0" y2="72.7" opacity="1.0" stroke="rgb(0,0,0)"  stroke-width="1.7"/>
<line x1="229.6" y1="97.1" x2="268.8" y2="65.5" opacity="0.6" stroke="rgb(0,0,0)"  stroke-width="1.6"/>
<line x1="229.6" y1="97.1" x2="228.7" y2="113.3" opacity="0.5" stroke="rgb(0,0,0)"  stroke-width="1.0"/>
<line x1="229.6" y1="97.1" x2="233.5" y2="123.0" opacity="0.3" stroke="rgb(0,0,0)"  stroke-width="1.9"/>
<line x1="186.0" y1="72.7" x2="145.8" y2="103.2" opacity="0.6" stroke="rgb(0,0,0)"  stroke-width="1.8"/>
<line x1="186.0" y1="72.7" x2="187.4" y2="55.8" opacity="0.6" stroke="rgb(0,0,0)"  stroke-width="2.3"/>
<line x1="186.0" y1="72.7" x2="182.2" y2="47.0" opacity="0.8" stroke="rgb(0,0,0)"  stroke-width="1.4"/>
<line x1="268.8" y1="65.5" x2="312.2" y2="89.7" opacity="0.5" stroke="rgb(0,0,0)"  stroke-width="1.5"/>
<line x1="268.8" y1="65.5" x2="265.5" y2="40.0" opacity="0.5" stroke="rgb(0,0,0)"  stroke-width="1.2"/>
<line x1="268.8" y1="65.5" x2="269.3" y2="48.7" opacity="0.4" stroke="rgb(0,0,0)"  stroke-width="2.1"/>
<line x1="145.8" y1="103.2" x2="103.1" y2="79.3" opacity="0.7" stroke="rgb(0,0,0)"  stroke-width="1.9"/>
<line x1="145.8" y1="103.2" x2="149.1" y2="128.2" opacity="0.6" stroke="rgb(0,0,0)"  stroke-width="2.2"/>
<line x1="145.8" y1="103.2" x2="145.3" y2="121.1" opacity="0.7" stroke="rgb(0,0,0)"  stroke-width="1.2"/>
<line x1="312.2" y1="89.7" x2="313.3" y2="106.0" opacity="0.4" stroke="rgb(0,0,0)"  stroke-width="0.9"/>
<line x1="312.2" y1="89.7" x2="317.1" y2="114.6" opacity="0.3" stroke="rgb(0,0,0)"  stroke-width="1.8"/>
<line x1="312.2" y1="89.7" x2="339.8" y2="66.5" opacity="0.6" stroke="rgb(0,0,0)"  stroke-width="1.4"/>
<line x1="103.1" y1="82.3" x2="70.1" y2="81.6" opacity="0.5" stroke="rgb(0,0,0)"  stroke-width="1.5"/>
<line x1="103.2" y1="76.3" x2="70.2" y2="75.6" opacity="0.5" stroke="rgb(0,0,0)"  stroke-width="1.5"/>
<line x1="103.1" y1="79.3" x2="98.9" y2="61.8" opacity="0.5" stroke="rgb(0,0,0)"  stroke-width="2.5"/>
<line x1="70.2" y1="78.6" x2="40.0" y2="60.7" opacity="0.8" stroke="rgb(0,0,0)"  stroke-width="1.1"/>
<line x1="70.2" y1="78.6" x2="72.6" y2="95.6" opacity="0.4" stroke="rgb(0,0,0)"  stroke-width="0.5"/>
<circle cx="72.598466" cy="95.649485" r="5.636364" opacity="0.200000" style="stroke:black;stroke-width:0.5;fill:url(#radialffffffbfbfbf)"/>
<circle cx="313.279191" cy="106.037608" r="5.636364" opacity="0.337465" style="stroke:black;stroke-width:0.5;fill:url(#radialffffffbfbfbf)"/>
<circle cx="228.746701" cy="113.264129" r="5.636364" opacity="0.397550" style="stroke:black;stroke-width:0.5;fill:url(#radialffffffbfbfbf)"/>
<circle cx="145.259286" cy="121.143411" r="5.636364" opacity="0.492612" style="stroke:black;stroke-width:0.5;fill:url(#radialffffffbfbfbf)"/>
<circle cx="265.482614" cy="40.000000" r="5.636364" opacity="0.507476" style="stroke:black;stroke-width:0.5;fill:url(#radialffffffbfbfbf)"/>
<circle cx="182.150147" cy="46.989153" r="5.636364" opacity="0.567415" style="stroke:black;stroke-width:0.5;fill:url(#radialffffffbfbfbf)"/>
<circle cx="70.155559" cy="78.591995" r="13.818182" opacity="0.584753" style="stroke:black;stroke-width:0.5;fill:url(#radialffffff666666)"/>
<circle cx="40.000000" cy="60.739983" r="5.636364" opacity="0.647578" style="stroke:black;stroke-width:0.5;fill:url(#radialffffffbfbfbf)"/>
<circle cx="312.234115" cy="89.659253" r="13.818182" opacity="0.681775" style="stroke:black;stroke-width:0.5;fill:url(#radialffffff666666)"/>
<circle cx="339.814896" cy="66.453286" r="5.636364" opacity="0.694899" style="stroke:black;stroke-width:0.5;fill:url(#radialffffffbfbfbf)"/>
<circle cx="229.574190" cy="97.070393" r="14.117096" opacity="0.714714" style="stroke:black;stroke-width:0.5;fill:url(#radialffffff666666)"/>
<circle cx="268.799165" cy="65.484035" r="14.784554" opacity="0.731415" style="stroke:black;stroke-width:0.5;fill:url(#radialffffff666666)"/>
<circle cx="145.816440" cy="103.248541" r="16.190097" opacity="0.765393" style="stroke:black;stroke-width:0.5;fill:url(#radialffffff666666)"/>
<circle cx="186.037040" cy="72.713853" r="16.486524" opacity="0.772368" style="stroke:black;stroke-width:0.5;fill:url(#radialffffff666666)"/>
<circle cx="103.116670" cy="79.257942" r="18.287965" opacity="0.813471" style="stroke:black;stroke-width:0.5;fill:url(#radialffffff666666)"/>
<circle cx="317.053993" cy="114.628992" r="8.391148" opacity="0.862772" style="stroke:black;stroke-width:0.5;fill:url(#radialffffffbfbfbf)"/>
<circle cx="233.454489" cy="123.029163" r="8.818395" opacity="0.884464" style="stroke:black;stroke-width:0.5;fill:url(#radialffffffbfbfbf)"/>
<circle cx="149.126398" cy="128.182015" r="9.801507" opacity="0.932464" style="stroke:black;stroke-width:0.5;fill:url(#radialffffffbfbfbf)"/>
<circle cx="269.273900" cy="48.693584" r="9.968673" opacity="0.940382" style="stroke:black;stroke-width:0.5;fill:url(#radialffffffbfbfbf)"/>
<circle cx="187.401903" cy="55.831092" r="10.660463" opacity="0.972464" style="stroke:black;stroke-width:0.5;fill:url(#radialffffffbfbfbf)"/>
<circle cx="98.946255" cy="61.752091" r="11.272727" opacity="1.000000" style="stroke:black;stroke-width:0.5;fill:url(#radialffffffbfbfbf)"/>
</svg>
</g>
</svg>
