<?xml version="1.0"?>
<svg version="1.1" id="topsvg"
xmlns="http://www.w3.org/2000/svg" xmlns:xlink="http://www.w3.org/1999/xlink"
xmlns:cml="http://www.xml-cml.org/schema" x="0" y="0" width="200px" height="200px" viewBox="0 0 100 100">
<title>11635 - Open Babel Depiction</title>
<rect x="0" y="0" width="100" height="100" fill="white"/>
<defs>
<radialGradient id='radialffffff666666' cx='50%' cy='50%' r='50%' fx='30%' fy='30%'>
  <stop offset=' 0%' stop-color="rgb(255,255,255)"  stop-opacity='1.0'/>
  <stop offset='100%' stop-color="rgb(102,102,102)"  stop-opacity ='1.0'/>
</radialGradient>
<radialGradient id='radialffffffbfbfbf' cx='50%' cy='50%' r='50%' fx='30%' fy='30%'>
  <stop offset=' 0%' stop-color="rgb(255,255,255)"  stop-opacity='1.0'/>
  <stop offset='100%' stop-color="rgb(191,191,191)"  stop-opacity ='1.0'/>
</radialGradient>
</defs>
<g transform="translate(0,0)">
<svg width="100" height="100" x="0" y="0" viewBox="0 0 846.055 158.277"
font-family="sans-serif" stroke="rgb(0,0,0)" stroke-width="2"  stroke-linecap="round">
<line x1="401.4" y1="63.8" x2="442.5" y2="91.8" opacity="1.0" stroke="rgb(0,0,0)"  stroke-width="1.9"/>
<line x1="401.4" y1="63.8" x2="360.5" y2="92.1" opacity="0.6" stroke="rgb(0,0,0)"  stroke-width="1.9"/>
<line x1="401.4" y1="63.8" x2="401.8" y2="42.3" opacity="0.6" stroke="rgb(0,0,0)"  stroke-width="2.4"/>
<line x1="401.4" y1="63.8" x2="400.9" y2="43.1" opacity="0.8" stroke="rgb(0,0,0)"  stroke-width="1.4"/>
<line x1="442.5" y1="91.8" x2="484.6" y2="65.4" opacity="0.5" stroke="rgb(0,0,0)"  stroke-width="1.8"/>
<line x1="442.5" y1="91.8" x2="443.7" y2="111.6" opacity="0.6" stroke="rgb(0,0,0)"  stroke-width="2.4"/>
<line x1="442.5" y1="91.8" x2="441.1" y2="114.6" opacity="0.8" stroke="rgb(0,0,0)"  stroke-width="1.4"/>
<line x1="360.5" y1="92.1" x2="318.2" y2="65.9" opacity="0.5" stroke="rgb(0,0,0)"  stroke-width="1.9"/>
<line x1="360.5" y1="92.1" x2="361.0" y2="112.8" opacity="0.6" stroke="rgb(0,0,0)"  stroke-width="2.5"/>
<line x1="360.5" y1="92.1" x2="360.8" y2="114.0" opacity="0.8" stroke="rgb(0,0,0)"  stroke-width="1.4"/>
<line x1="484.6" y1="65.4" x2="526.7" y2="91.8" opacity="0.5" stroke="rgb(0,0,0)"  stroke-width="1.7"/>
<line x1="484.6" y1="65.4" x2="482.4" y2="44.3" opacity="0.6" stroke="rgb(0,0,0)"  stroke-width="1.2"/>
<line x1="484.6" y1="65.4" x2="486.7" y2="43.7" opacity="0.4" stroke="rgb(0,0,0)"  stroke-width="2.3"/>
<line x1="318.2" y1="65.9" x2="276.2" y2="92.6" opacity="0.8" stroke="rgb(0,0,0)"  stroke-width="1.9"/>
<line x1="318.2" y1="65.9" x2="317.3" y2="45.0" opacity="0.6" stroke="rgb(0,0,0)"  stroke-width="2.5"/>
<line x1="318.2" y1="65.9" x2="318.8" y2="44.0" opacity="0.8" stroke="rgb(0,0,0)"  stroke-width="1.4"/>
<line x1="526.7" y1="91.8" x2="567.7" y2="63.7" opacity="0.5" stroke="rgb(0,0,0)"  stroke-width="1.6"/>
<line x1="526.7" y1="91.8" x2="528.7" y2="113.7" opacity="0.5" stroke="rgb(0,0,0)"  stroke-width="2.2"/>
<line x1="526.7" y1="91.8" x2="525.4" y2="112.5" opacity="0.7" stroke="rgb(0,0,0)"  stroke-width="1.1"/>
<line x1="276.2" y1="92.6" x2="233.9" y2="66.3" opacity="0.4" stroke="rgb(0,0,0)"  stroke-width="1.8"/>
<line x1="276.2" y1="92.6" x2="274.9" y2="113.8" opacity="0.6" stroke="rgb(0,0,0)"  stroke-width="2.4"/>
<line x1="276.2" y1="92.6" x2="277.7" y2="114.1" opacity="0.8" stroke="rgb(0,0,0)"  stroke-width="1.3"/>
<line x1="567.7" y1="63.7" x2="609.7" y2="90.2" opacity="0.4" stroke="rgb(0,0,0)"  stroke-width="1.5"/>
<line x1="567.7" y1="63.7" x2="565.7" y2="41.5" opacity="0.5" stroke="rgb(0,0,0)"  stroke-width="1.1"/>
<line x1="567.7" y1="63.7" x2="569.1" y2="43.4" opacity="0.4" stroke="rgb(0,0,0)"  stroke-width="2.1"/>
<line x1="233.9" y1="66.3" x2="193.3" y2="94.7" opacity="0.7" stroke="rgb(0,0,0)"  stroke-width="1.7"/>
<line x1="233.9" y1="66.3" x2="231.5" y2="45.5" opacity="0.6" stroke="rgb(0,0,0)"  stroke-width="2.3"/>
<line x1="233.9" y1="66.3" x2="235.4" y2="44.6" opacity="0.8" stroke="rgb(0,0,0)"  stroke-width="1.3"/>
<line x1="609.7" y1="90.2" x2="652.0" y2="63.9" opacity="0.4" stroke="rgb(0,0,0)"  stroke-width="1.5"/>
<line x1="609.7" y1="90.2" x2="608.8" y2="109.3" opacity="0.5" stroke="rgb(0,0,0)"  stroke-width="0.9"/>
<line x1="609.7" y1="90.2" x2="610.5" y2="113.7" opacity="0.3" stroke="rgb(0,0,0)"  stroke-width="2.0"/>
<line x1="193.3" y1="94.7" x2="151.3" y2="68.4" opacity="0.7" stroke="rgb(0,0,0)"  stroke-width="1.6"/>
<line x1="193.3" y1="94.7" x2="196.5" y2="116.6" opacity="0.5" stroke="rgb(0,0,0)"  stroke-width="1.1"/>
<line x1="193.3" y1="94.7" x2="190.8" y2="115.2" opacity="0.4" stroke="rgb(0,0,0)"  stroke-width="2.2"/>
<line x1="652.0" y1="63.9" x2="694.1" y2="90.5" opacity="0.7" stroke="rgb(0,0,0)"  stroke-width="1.5"/>
<line x1="652.0" y1="63.9" x2="651.9" y2="41.0" opacity="0.5" stroke="rgb(0,0,0)"  stroke-width="1.0"/>
<line x1="652.0" y1="63.9" x2="652.3" y2="44.2" opacity="0.3" stroke="rgb(0,0,0)"  stroke-width="2.0"/>
<line x1="151.3" y1="68.4" x2="109.3" y2="95.0" opacity="0.7" stroke="rgb(0,0,0)"  stroke-width="1.4"/>
<line x1="151.3" y1="68.4" x2="148.5" y2="45.8" opacity="0.5" stroke="rgb(0,0,0)"  stroke-width="2.0"/>
<line x1="151.3" y1="68.4" x2="154.0" y2="48.1" opacity="0.7" stroke="rgb(0,0,0)"  stroke-width="0.9"/>
<line x1="694.1" y1="90.5" x2="736.2" y2="64.4" opacity="0.3" stroke="rgb(0,0,0)"  stroke-width="1.5"/>
<line x1="694.1" y1="90.5" x2="693.5" y2="114.3" opacity="0.5" stroke="rgb(0,0,0)"  stroke-width="1.9"/>
<line x1="694.1" y1="90.5" x2="694.3" y2="109.3" opacity="0.6" stroke="rgb(0,0,0)"  stroke-width="0.9"/>
<line x1="109.3" y1="95.0" x2="68.9" y2="67.5" opacity="0.3" stroke="rgb(0,0,0)"  stroke-width="1.2"/>
<line x1="109.3" y1="95.0" x2="112.1" y2="118.3" opacity="0.4" stroke="rgb(0,0,0)"  stroke-width="0.9"/>
<line x1="109.3" y1="95.0" x2="105.4" y2="114.0" opacity="0.3" stroke="rgb(0,0,0)"  stroke-width="1.9"/>
<line x1="736.2" y1="64.4" x2="777.0" y2="92.1" opacity="0.6" stroke="rgb(0,0,0)"  stroke-width="1.5"/>
<line x1="736.2" y1="64.4" x2="736.8" y2="46.5" opacity="0.5" stroke="rgb(0,0,0)"  stroke-width="2.1"/>
<line x1="736.2" y1="64.4" x2="736.8" y2="40.0" opacity="0.7" stroke="rgb(0,0,0)"  stroke-width="1.1"/>
<line x1="68.9" y1="67.5" x2="64.4" y2="44.5" opacity="0.4" stroke="rgb(0,0,0)"  stroke-width="1.6"/>
<line x1="68.9" y1="67.5" x2="71.2" y2="49.0" opacity="0.5" stroke="rgb(0,0,0)"  stroke-width="0.6"/>
<line x1="68.9" y1="67.5" x2="40.0" y2="88.2" opacity="0.2" stroke="rgb(0,0,0)"  stroke-width="1.1"/>
<line x1="777.0" y1="92.1" x2="778.1" y2="109.4" opacity="0.4" stroke="rgb(0,0,0)"  stroke-width="0.9"/>
<line x1="777.0" y1="92.1" x2="806.1" y2="71.8" opacity="0.3" stroke="rgb(0,0,0)"  stroke-width="1.5"/>
<line x1="777.0" y1="92.1" x2="778.1" y2="116.2" opacity="0.5" stroke="rgb(0,0,0)"  stroke-width="1.9"/>
<circle cx="71.157430" cy="48.983845" r="5.636364" opacity="0.200000" style="stroke:black;stroke-width:0.5;fill:url(#radialffffffbfbfbf)"/>
<circle cx="778.069656" cy="109.436280" r="5.636364" opacity="0.315896" style="stroke:black;stroke-width:0.5;fill:url(#radialffffffbfbfbf)"/>
<circle cx="694.293028" cy="109.338770" r="5.636364" opacity="0.335280" style="stroke:black;stroke-width:0.5;fill:url(#radialffffffbfbfbf)"/>
<circle cx="608.832741" cy="109.316018" r="5.636364" opacity="0.350737" style="stroke:black;stroke-width:0.5;fill:url(#radialffffffbfbfbf)"/>
<circle cx="112.117782" cy="118.277111" r="5.636364" opacity="0.356999" style="stroke:black;stroke-width:0.5;fill:url(#radialffffffbfbfbf)"/>
<circle cx="153.991469" cy="48.132265" r="5.636364" opacity="0.365109" style="stroke:black;stroke-width:0.5;fill:url(#radialffffffbfbfbf)"/>
<circle cx="651.857037" cy="40.975092" r="5.636364" opacity="0.411234" style="stroke:black;stroke-width:0.5;fill:url(#radialffffffbfbfbf)"/>
<circle cx="565.681683" cy="41.465888" r="5.636364" opacity="0.438881" style="stroke:black;stroke-width:0.5;fill:url(#radialffffffbfbfbf)"/>
<circle cx="525.361642" cy="112.465564" r="5.636364" opacity="0.445769" style="stroke:black;stroke-width:0.5;fill:url(#radialffffffbfbfbf)"/>
<circle cx="736.797275" cy="40.000000" r="5.636364" opacity="0.448645" style="stroke:black;stroke-width:0.5;fill:url(#radialffffffbfbfbf)"/>
<circle cx="196.469714" cy="116.629206" r="5.636364" opacity="0.458632" style="stroke:black;stroke-width:0.5;fill:url(#radialffffffbfbfbf)"/>
<circle cx="482.447856" cy="44.280653" r="5.636364" opacity="0.489554" style="stroke:black;stroke-width:0.5;fill:url(#radialffffffbfbfbf)"/>
<circle cx="235.437628" cy="44.582931" r="5.636364" opacity="0.497252" style="stroke:black;stroke-width:0.5;fill:url(#radialffffffbfbfbf)"/>
<circle cx="277.733856" cy="114.113469" r="5.636364" opacity="0.523722" style="stroke:black;stroke-width:0.5;fill:url(#radialffffffbfbfbf)"/>
<circle cx="400.878186" cy="43.123544" r="5.636364" opacity="0.531633" style="stroke:black;stroke-width:0.5;fill:url(#radialffffffbfbfbf)"/>
<circle cx="441.068215" cy="114.552261" r="5.636364" opacity="0.546062" style="stroke:black;stroke-width:0.5;fill:url(#radialffffffbfbfbf)"/>
<circle cx="318.755963" cy="43.981624" r="5.636364" opacity="0.546461" style="stroke:black;stroke-width:0.5;fill:url(#radialffffffbfbfbf)"/>
<circle cx="360.775915" cy="113.976957" r="5.636364" opacity="0.550896" style="stroke:black;stroke-width:0.5;fill:url(#radialffffffbfbfbf)"/>
<circle cx="40.000000" cy="88.172780" r="5.636364" opacity="0.589244" style="stroke:black;stroke-width:0.5;fill:url(#radialffffffbfbfbf)"/>
<circle cx="68.872465" cy="67.468333" r="13.818182" opacity="0.607430" style="stroke:black;stroke-width:0.5;fill:url(#radialffffff666666)"/>
<circle cx="109.332270" cy="94.969169" r="13.818182" opacity="0.673709" style="stroke:black;stroke-width:0.5;fill:url(#radialffffff666666)"/>
<circle cx="776.984054" cy="92.128402" r="13.818182" opacity="0.691333" style="stroke:black;stroke-width:0.5;fill:url(#radialffffff666666)"/>
<circle cx="694.052505" cy="90.526001" r="13.818182" opacity="0.693732" style="stroke:black;stroke-width:0.5;fill:url(#radialffffff666666)"/>
<circle cx="609.710324" cy="90.200971" r="13.818182" opacity="0.699554" style="stroke:black;stroke-width:0.5;fill:url(#radialffffff666666)"/>
<circle cx="151.267713" cy="68.352416" r="13.818182" opacity="0.699667" style="stroke:black;stroke-width:0.5;fill:url(#radialffffff666666)"/>
<circle cx="651.996800" cy="63.912499" r="13.859189" opacity="0.708155" style="stroke:black;stroke-width:0.5;fill:url(#radialffffff666666)"/>
<circle cx="806.054787" cy="71.765237" r="5.712859" opacity="0.711889" style="stroke:black;stroke-width:0.5;fill:url(#radialffffffbfbfbf)"/>
<circle cx="736.238222" cy="64.354540" r="14.314090" opacity="0.719683" style="stroke:black;stroke-width:0.5;fill:url(#radialffffff666666)"/>
<circle cx="567.700123" cy="63.671976" r="14.680417" opacity="0.728834" style="stroke:black;stroke-width:0.5;fill:url(#radialffffff666666)"/>
<circle cx="193.261662" cy="94.683142" r="15.204210" opacity="0.741723" style="stroke:black;stroke-width:0.5;fill:url(#radialffffff666666)"/>
<circle cx="526.704018" cy="91.813122" r="15.256699" opacity="0.743002" style="stroke:black;stroke-width:0.5;fill:url(#radialffffff666666)"/>
<circle cx="484.576807" cy="65.362135" r="16.279134" opacity="0.767494" style="stroke:black;stroke-width:0.5;fill:url(#radialffffff666666)"/>
<circle cx="233.935987" cy="66.268970" r="16.340370" opacity="0.768937" style="stroke:black;stroke-width:0.5;fill:url(#radialffffff666666)"/>
<circle cx="276.170459" cy="92.563943" r="17.128794" opacity="0.787269" style="stroke:black;stroke-width:0.5;fill:url(#radialffffff666666)"/>
<circle cx="442.543854" cy="91.813122" r="17.471063" opacity="0.795095" style="stroke:black;stroke-width:0.5;fill:url(#radialffffff666666)"/>
<circle cx="401.420987" cy="63.837742" r="17.566199" opacity="0.797257" style="stroke:black;stroke-width:0.5;fill:url(#radialffffff666666)"/>
<circle cx="318.226163" cy="65.898435" r="17.720384" opacity="0.800748" style="stroke:black;stroke-width:0.5;fill:url(#radialffffff666666)"/>
<circle cx="360.528891" cy="92.131652" r="17.869102" opacity="0.804102" style="stroke:black;stroke-width:0.5;fill:url(#radialffffff666666)"/>
<circle cx="64.403295" cy="44.482171" r="7.834664" opacity="0.833673" style="stroke:black;stroke-width:0.5;fill:url(#radialffffffbfbfbf)"/>
<circle cx="778.095658" cy="116.154661" r="8.985443" opacity="0.892802" style="stroke:black;stroke-width:0.5;fill:url(#radialffffffbfbfbf)"/>
<circle cx="693.522705" cy="114.324739" r="9.070190" opacity="0.897003" style="stroke:black;stroke-width:0.5;fill:url(#radialffffffbfbfbf)"/>
<circle cx="610.513149" cy="113.726683" r="9.195081" opacity="0.903157" style="stroke:black;stroke-width:0.5;fill:url(#radialffffffbfbfbf)"/>
<circle cx="105.435153" cy="114.022461" r="9.214260" opacity="0.904098" style="stroke:black;stroke-width:0.5;fill:url(#radialffffffbfbfbf)"/>
<circle cx="148.537457" cy="45.827798" r="9.295885" opacity="0.908094" style="stroke:black;stroke-width:0.5;fill:url(#radialffffffbfbfbf)"/>
<circle cx="652.315330" cy="44.153891" r="9.727650" opacity="0.928944" style="stroke:black;stroke-width:0.5;fill:url(#radialffffffbfbfbf)"/>
<circle cx="569.127007" cy="43.386818" r="10.006870" opacity="0.942182" style="stroke:black;stroke-width:0.5;fill:url(#radialffffffbfbfbf)"/>
<circle cx="736.813526" cy="46.516863" r="10.071546" opacity="0.945221" style="stroke:black;stroke-width:0.5;fill:url(#radialffffffbfbfbf)"/>
<circle cx="528.689955" cy="113.671428" r="10.078683" opacity="0.945556" style="stroke:black;stroke-width:0.5;fill:url(#radialffffffbfbfbf)"/>
<circle cx="190.836934" cy="115.228324" r="10.186178" opacity="0.950585" style="stroke:black;stroke-width:0.5;fill:url(#radialffffffbfbfbf)"/>
<circle cx="486.673254" cy="43.666345" r="10.514462" opacity="0.965782" style="stroke:black;stroke-width:0.5;fill:url(#radialffffffbfbfbf)"/>
<circle cx="231.485257" cy="45.450763" r="10.621511" opacity="0.970686" style="stroke:black;stroke-width:0.5;fill:url(#radialffffffbfbfbf)"/>
<circle cx="274.945093" cy="113.778688" r="10.917235" opacity="0.984106" style="stroke:black;stroke-width:0.5;fill:url(#radialffffffbfbfbf)"/>
<circle cx="401.788271" cy="42.265463" r="11.057291" opacity="0.990398" style="stroke:black;stroke-width:0.5;fill:url(#radialffffffbfbfbf)"/>
<circle cx="443.681461" cy="111.574981" r="11.195563" opacity="0.996571" style="stroke:black;stroke-width:0.5;fill:url(#radialffffffbfbfbf)"/>
<circle cx="317.309577" cy="45.044474" r="11.196455" opacity="0.996611" style="stroke:black;stroke-width:0.5;fill:url(#radialffffffbfbfbf)"/>
<circle cx="361.016437" cy="112.819848" r="11.272727" opacity="1.000000" style="stroke:black;stroke-width:0.5;fill:url(#radialffffffbfbfbf)"/>
</svg>
</g>
</svg>
