<?xml version="1.0"?>
<svg version="1.1" id="topsvg"
xmlns="http://www.w3.org/2000/svg" xmlns:xlink="http://www.w3.org/1999/xlink"
xmlns:cml="http://www.xml-cml.org/schema" x="0" y="0" width="200px" height="200px" viewBox="0 0 100 100">
<title>11795 - Open Babel Depiction</title>
<rect x="0" y="0" width="100" height="100" fill="white"/>
<defs>
<radialGradient id='radialffffff666666' cx='50%' cy='50%' r='50%' fx='30%' fy='30%'>
  <stop offset=' 0%' stop-color="rgb(255,255,255)"  stop-opacity='1.0'/>
  <stop offset='100%' stop-color="rgb(102,102,102)"  stop-opacity ='1.0'/>
</radialGradient>
<radialGradient id='radialffffffbfbfbf' cx='50%' cy='50%' r='50%' fx='30%' fy='30%'>
  <stop offset=' 0%' stop-color="rgb(255,255,255)"  stop-opacity='1.0'/>
  <stop offset='100%' stop-color="rgb(191,191,191)"  stop-opacity ='1.0'/>
</radialGradient>
</defs>
<g transform="translate(0,0)">
<svg width="100" height="100" x="0" y="0" viewBox="0 0 379.913 305.373"
font-family="sans-serif" stroke="rgb(0,0,0)" stroke-width="2"  stroke-linecap="round">
<line x1="198.2" y1="172.2" x2="155.0" y2="157.7" opacity="1.0" stroke="rgb(0,0,0)"  stroke-width="1.5"/>
<line x1="204.6" y1="215.5" x2="178.2" y2="237.2" opacity="0.5" stroke="rgb(0,0,0)"  stroke-width="1.5"/>
<line x1="226.7" y1="100.8" x2="195.7" y2="86.6" opacity="0.5" stroke="rgb(0,0,0)"  stroke-width="1.5"/>
<line x1="279.5" y1="204.6" x2="310.9" y2="217.9" opacity="0.5" stroke="rgb(0,0,0)"  stroke-width="1.5"/>
<line x1="307.9" y1="133.2" x2="339.9" y2="145.1" opacity="0.5" stroke="rgb(0,0,0)"  stroke-width="1.5"/>
<line x1="245.1" y1="231.7" x2="250.0" y2="265.4" opacity="0.5" stroke="rgb(0,0,0)"  stroke-width="1.5"/>
<line x1="134.5" y1="150.7" x2="150.2" y2="156.0" opacity="0.5" stroke="rgb(0,0,0)"  stroke-width="2.7"/>
<line x1="134.5" y1="150.7" x2="150.2" y2="156.0" opacity="0.9" stroke="rgb(0,0,0)"  stroke-width="0.4"/>
<line x1="261.0" y1="73.7" x2="256.1" y2="40.0" opacity="0.1" stroke="rgb(0,0,0)"  stroke-width="1.5"/>
<line x1="301.6" y1="89.9" x2="328.3" y2="68.8" opacity="0.5" stroke="rgb(0,0,0)"  stroke-width="1.5"/>
<line x1="93.0" y1="136.8" x2="76.9" y2="131.3" opacity="0.5" stroke="rgb(0,0,0)"  stroke-width="2.7"/>
<line x1="93.0" y1="136.8" x2="76.8" y2="131.3" opacity="0.9" stroke="rgb(0,0,0)"  stroke-width="0.4"/>
<line x1="72.3" y1="129.8" x2="40.0" y2="118.9" opacity="0.1" stroke="rgb(0,0,0)"  stroke-width="1.5"/>
<line x1="231.3" y1="147.3" x2="272.6" y2="163.7" opacity="0.5" stroke="rgb(0,0,0)"  stroke-width="1.5"/>
<line x1="233.6" y1="141.7" x2="274.8" y2="158.1" opacity="0.5" stroke="rgb(0,0,0)"  stroke-width="1.5" stroke-dasharray="5.0,5.0"/>
<line x1="270.7" y1="161.3" x2="276.5" y2="205.0" opacity="0.5" stroke="rgb(0,0,0)"  stroke-width="1.5"/>
<line x1="276.7" y1="160.5" x2="282.5" y2="204.2" opacity="0.5" stroke="rgb(0,0,0)"  stroke-width="1.5" stroke-dasharray="5.0,5.0"/>
<line x1="277.6" y1="202.2" x2="243.3" y2="229.3" opacity="0.5" stroke="rgb(0,0,0)"  stroke-width="1.5"/>
<line x1="281.4" y1="206.9" x2="247.0" y2="234.0" opacity="0.5" stroke="rgb(0,0,0)"  stroke-width="1.5" stroke-dasharray="5.0,5.0"/>
<line x1="246.2" y1="228.9" x2="205.7" y2="212.7" opacity="0.5" stroke="rgb(0,0,0)"  stroke-width="1.5"/>
<line x1="244.0" y1="234.4" x2="203.5" y2="218.3" opacity="0.5" stroke="rgb(0,0,0)"  stroke-width="1.5" stroke-dasharray="5.0,5.0"/>
<line x1="207.5" y1="215.1" x2="201.2" y2="171.8" opacity="0.5" stroke="rgb(0,0,0)"  stroke-width="1.5"/>
<line x1="201.6" y1="215.9" x2="195.3" y2="172.6" opacity="0.5" stroke="rgb(0,0,0)"  stroke-width="1.5" stroke-dasharray="5.0,5.0"/>
<line x1="200.1" y1="174.5" x2="234.3" y2="146.8" opacity="0.5" stroke="rgb(0,0,0)"  stroke-width="1.5"/>
<line x1="196.3" y1="169.9" x2="230.6" y2="142.1" opacity="0.5" stroke="rgb(0,0,0)"  stroke-width="1.5" stroke-dasharray="5.0,5.0"/>
<line x1="231.3" y1="147.3" x2="272.6" y2="163.7" opacity="0.5" stroke="rgb(0,0,0)"  stroke-width="1.5"/>
<line x1="233.6" y1="141.7" x2="274.8" y2="158.1" opacity="0.5" stroke="rgb(0,0,0)"  stroke-width="1.5" stroke-dasharray="5.0,5.0"/>
<line x1="275.6" y1="163.2" x2="309.8" y2="135.5" opacity="0.5" stroke="rgb(0,0,0)"  stroke-width="1.5"/>
<line x1="271.8" y1="158.6" x2="306.0" y2="130.8" opacity="0.5" stroke="rgb(0,0,0)"  stroke-width="1.5" stroke-dasharray="5.0,5.0"/>
<line x1="310.9" y1="132.7" x2="304.6" y2="89.4" opacity="0.5" stroke="rgb(0,0,0)"  stroke-width="1.5"/>
<line x1="305.0" y1="133.6" x2="298.6" y2="90.3" opacity="0.5" stroke="rgb(0,0,0)"  stroke-width="1.5" stroke-dasharray="5.0,5.0"/>
<line x1="302.7" y1="87.1" x2="262.1" y2="70.9" opacity="0.5" stroke="rgb(0,0,0)"  stroke-width="1.5"/>
<line x1="300.5" y1="92.7" x2="259.9" y2="76.5" opacity="0.5" stroke="rgb(0,0,0)"  stroke-width="1.5" stroke-dasharray="5.0,5.0"/>
<line x1="259.2" y1="71.4" x2="224.8" y2="98.4" opacity="0.5" stroke="rgb(0,0,0)"  stroke-width="1.5"/>
<line x1="262.9" y1="76.1" x2="228.5" y2="103.2" opacity="0.5" stroke="rgb(0,0,0)"  stroke-width="1.5" stroke-dasharray="5.0,5.0"/>
<line x1="223.7" y1="101.2" x2="229.5" y2="144.9" opacity="0.5" stroke="rgb(0,0,0)"  stroke-width="1.5"/>
<line x1="229.6" y1="100.4" x2="235.4" y2="144.1" opacity="0.5" stroke="rgb(0,0,0)"  stroke-width="1.5" stroke-dasharray="5.0,5.0"/>
<line x1="156.0" y1="154.8" x2="135.4" y2="147.9" opacity="0.4" stroke="rgb(0,0,0)"  stroke-width="1.1"/>
<line x1="154.0" y1="160.5" x2="133.5" y2="153.6" opacity="0.4" stroke="rgb(0,0,0)"  stroke-width="1.1" stroke-dasharray="5.0,5.0"/>
<line x1="135.4" y1="147.9" x2="94.0" y2="133.9" opacity="0.2" stroke="rgb(0,0,0)"  stroke-width="0.7"/>
<line x1="133.5" y1="153.6" x2="92.0" y2="139.6" opacity="0.2" stroke="rgb(0,0,0)"  stroke-width="0.7" stroke-dasharray="5.0,5.0"/>
<line x1="94.0" y1="133.9" x2="73.2" y2="126.9" opacity="0.4" stroke="rgb(0,0,0)"  stroke-width="1.1"/>
<line x1="92.0" y1="139.6" x2="71.3" y2="132.6" opacity="0.4" stroke="rgb(0,0,0)"  stroke-width="1.1" stroke-dasharray="5.0,5.0"/>
<line x1="71.3" y1="132.6" x2="92.1" y2="139.6" opacity="0.6" stroke="rgb(0,0,0)"  stroke-width="1.9"/>
<line x1="73.2" y1="126.9" x2="94.0" y2="133.9" opacity="0.6" stroke="rgb(0,0,0)"  stroke-width="1.9" stroke-dasharray="5.0,5.0"/>
<line x1="92.1" y1="139.6" x2="133.5" y2="153.6" opacity="0.8" stroke="rgb(0,0,0)"  stroke-width="2.3"/>
<line x1="94.0" y1="133.9" x2="135.4" y2="147.9" opacity="0.8" stroke="rgb(0,0,0)"  stroke-width="2.3" stroke-dasharray="5.0,5.0"/>
<line x1="133.5" y1="153.6" x2="154.0" y2="160.5" opacity="0.6" stroke="rgb(0,0,0)"  stroke-width="1.9"/>
<line x1="135.5" y1="147.9" x2="156.0" y2="154.8" opacity="0.6" stroke="rgb(0,0,0)"  stroke-width="1.9" stroke-dasharray="5.0,5.0"/>
<circle cx="150.178416" cy="156.012941" r="5.636364" opacity="0.200000" style="stroke:black;stroke-width:0.5;fill:url(#radialffffffbfbfbf)"/>
<circle cx="76.839065" cy="131.304042" r="5.636364" opacity="0.200000" style="stroke:black;stroke-width:0.5;fill:url(#radialffffffbfbfbf)"/>
<circle cx="134.459704" cy="150.730500" r="13.818182" opacity="0.469196" style="stroke:black;stroke-width:0.5;fill:url(#radialffffff666666)"/>
<circle cx="92.996935" cy="136.755872" r="13.818182" opacity="0.469368" style="stroke:black;stroke-width:0.5;fill:url(#radialffffff666666)"/>
<circle cx="195.672027" cy="86.585231" r="5.636364" opacity="0.707008" style="stroke:black;stroke-width:0.5;fill:url(#radialffffffbfbfbf)"/>
<circle cx="198.225416" cy="172.202180" r="13.818182" opacity="0.707041" style="stroke:black;stroke-width:0.5;fill:url(#radialffffff666666)"/>
<circle cx="226.664020" cy="100.801396" r="13.818182" opacity="0.707074" style="stroke:black;stroke-width:0.5;fill:url(#radialffffff666666)"/>
<circle cx="232.457766" cy="144.472502" r="13.818182" opacity="0.707090" style="stroke:black;stroke-width:0.5;fill:url(#radialffffff666666)"/>
<circle cx="178.231189" cy="237.200670" r="5.636364" opacity="0.707090" style="stroke:black;stroke-width:0.5;fill:url(#radialffffffbfbfbf)"/>
<circle cx="256.137781" cy="40.000000" r="5.636364" opacity="0.707090" style="stroke:black;stroke-width:0.5;fill:url(#radialffffffbfbfbf)"/>
<circle cx="155.002878" cy="157.650373" r="13.818182" opacity="0.707107" style="stroke:black;stroke-width:0.5;fill:url(#radialffffff666666)"/>
<circle cx="204.568109" cy="215.503138" r="13.818182" opacity="0.707107" style="stroke:black;stroke-width:0.5;fill:url(#radialffffff666666)"/>
<circle cx="261.034391" cy="73.714771" r="13.818822" opacity="0.707123" style="stroke:black;stroke-width:0.5;fill:url(#radialffffff666666)"/>
<circle cx="273.700956" cy="160.900140" r="13.821384" opacity="0.707189" style="stroke:black;stroke-width:0.5;fill:url(#radialffffff666666)"/>
<circle cx="245.124331" cy="231.657871" r="13.822024" opacity="0.707205" style="stroke:black;stroke-width:0.5;fill:url(#radialffffff666666)"/>
<circle cx="301.593749" cy="89.869504" r="13.822024" opacity="0.707205" style="stroke:black;stroke-width:0.5;fill:url(#radialffffff666666)"/>
<circle cx="250.046035" cy="265.372642" r="5.638453" opacity="0.707238" style="stroke:black;stroke-width:0.5;fill:url(#radialffffffbfbfbf)"/>
<circle cx="279.497839" cy="204.571246" r="13.823945" opacity="0.707254" style="stroke:black;stroke-width:0.5;fill:url(#radialffffff666666)"/>
<circle cx="328.341596" cy="68.764835" r="5.638714" opacity="0.707254" style="stroke:black;stroke-width:0.5;fill:url(#radialffffffbfbfbf)"/>
<circle cx="307.933306" cy="133.173599" r="13.824585" opacity="0.707271" style="stroke:black;stroke-width:0.5;fill:url(#radialffffff666666)"/>
<circle cx="72.281235" cy="129.770126" r="13.825866" opacity="0.707303" style="stroke:black;stroke-width:0.5;fill:url(#radialffffff666666)"/>
<circle cx="310.919579" cy="217.893411" r="5.640020" opacity="0.707336" style="stroke:black;stroke-width:0.5;fill:url(#radialffffffbfbfbf)"/>
<circle cx="339.913404" cy="145.099870" r="5.640282" opacity="0.707353" style="stroke:black;stroke-width:0.5;fill:url(#radialffffffbfbfbf)"/>
<circle cx="40.000000" cy="118.885287" r="5.640804" opacity="0.707385" style="stroke:black;stroke-width:0.5;fill:url(#radialffffffbfbfbf)"/>
<circle cx="134.491073" cy="150.727364" r="21.555570" opacity="0.883160" style="stroke:black;stroke-width:0.5;fill:url(#radialffffff666666)"/>
<circle cx="93.031440" cy="136.755872" r="21.558771" opacity="0.883225" style="stroke:black;stroke-width:0.5;fill:url(#radialffffff666666)"/>
<circle cx="76.901802" cy="131.310316" r="11.250787" opacity="0.999026" style="stroke:black;stroke-width:0.5;fill:url(#radialffffffbfbfbf)"/>
<circle cx="150.238016" cy="156.009805" r="11.272727" opacity="1.000000" style="stroke:black;stroke-width:0.5;fill:url(#radialffffffbfbfbf)"/>
</svg>
</g>
</svg>
