<?xml version="1.0"?>
<svg version="1.1" id="topsvg"
xmlns="http://www.w3.org/2000/svg" xmlns:xlink="http://www.w3.org/1999/xlink"
xmlns:cml="http://www.xml-cml.org/schema" x="0" y="0" width="200px" height="200px" viewBox="0 0 100 100">
<title>11791 - Open Babel Depiction</title>
<rect x="0" y="0" width="100" height="100" fill="white"/>
<defs>
<radialGradient id='radialffffff666666' cx='50%' cy='50%' r='50%' fx='30%' fy='30%'>
  <stop offset=' 0%' stop-color="rgb(255,255,255)"  stop-opacity='1.0'/>
  <stop offset='100%' stop-color="rgb(102,102,102)"  stop-opacity ='1.0'/>
</radialGradient>
<radialGradient id='radialffffffbfbfbf' cx='50%' cy='50%' r='50%' fx='30%' fy='30%'>
  <stop offset=' 0%' stop-color="rgb(255,255,255)"  stop-opacity='1.0'/>
  <stop offset='100%' stop-color="rgb(191,191,191)"  stop-opacity ='1.0'/>
</radialGradient>
</defs>
<g transform="translate(0,0)">
<svg width="100" height="100" x="0" y="0" viewBox="0 0 355.509 371.617"
font-family="sans-serif" stroke="rgb(0,0,0)" stroke-width="4"  stroke-linecap="round">
<line x1="170.7" y1="230.4" x2="163.2" y2="278.2" opacity="1.0" stroke="rgb(0,0,0)"  stroke-width="1.5"/>
<line x1="135.6" y1="202.0" x2="90.4" y2="219.4" opacity="0.5" stroke="rgb(0,0,0)"  stroke-width="1.5"/>
<line x1="212.8" y1="214.1" x2="250.5" y2="244.6" opacity="0.5" stroke="rgb(0,0,0)"  stroke-width="1.5"/>
<line x1="142.6" y1="157.4" x2="104.9" y2="127.0" opacity="0.5" stroke="rgb(0,0,0)"  stroke-width="1.5"/>
<line x1="219.9" y1="169.5" x2="265.0" y2="152.1" opacity="0.5" stroke="rgb(0,0,0)"  stroke-width="1.5"/>
<line x1="184.7" y1="141.2" x2="192.2" y2="93.3" opacity="0.5" stroke="rgb(0,0,0)"  stroke-width="1.5"/>
<line x1="163.2" y1="278.2" x2="160.3" y2="296.6" opacity="0.5" stroke="rgb(0,0,0)"  stroke-width="1.0"/>
<line x1="163.2" y1="278.2" x2="188.3" y2="295.6" opacity="0.3" stroke="rgb(0,0,0)"  stroke-width="1.7"/>
<line x1="163.2" y1="278.2" x2="134.0" y2="287.1" opacity="0.6" stroke="rgb(0,0,0)"  stroke-width="1.7"/>
<line x1="90.4" y1="219.4" x2="73.0" y2="226.1" opacity="0.6" stroke="rgb(0,0,0)"  stroke-width="2.0"/>
<line x1="90.4" y1="219.4" x2="68.1" y2="198.6" opacity="0.7" stroke="rgb(0,0,0)"  stroke-width="1.3"/>
<line x1="90.4" y1="219.4" x2="87.9" y2="249.8" opacity="0.4" stroke="rgb(0,0,0)"  stroke-width="1.3"/>
<line x1="250.5" y1="244.6" x2="265.0" y2="256.3" opacity="0.4" stroke="rgb(0,0,0)"  stroke-width="2.0"/>
<line x1="250.5" y1="244.6" x2="243.6" y2="274.3" opacity="0.7" stroke="rgb(0,0,0)"  stroke-width="1.3"/>
<line x1="250.5" y1="244.6" x2="278.1" y2="231.6" opacity="0.4" stroke="rgb(0,0,0)"  stroke-width="1.3"/>
<line x1="104.9" y1="127.0" x2="90.5" y2="115.3" opacity="0.4" stroke="rgb(0,0,0)"  stroke-width="1.0"/>
<line x1="104.9" y1="127.0" x2="77.3" y2="140.0" opacity="0.3" stroke="rgb(0,0,0)"  stroke-width="1.7"/>
<line x1="104.9" y1="127.0" x2="111.9" y2="97.3" opacity="0.6" stroke="rgb(0,0,0)"  stroke-width="1.7"/>
<line x1="265.0" y1="152.1" x2="282.5" y2="145.5" opacity="0.6" stroke="rgb(0,0,0)"  stroke-width="1.0"/>
<line x1="265.0" y1="152.1" x2="267.6" y2="121.7" opacity="0.3" stroke="rgb(0,0,0)"  stroke-width="1.7"/>
<line x1="265.0" y1="152.1" x2="287.3" y2="173.0" opacity="0.6" stroke="rgb(0,0,0)"  stroke-width="1.7"/>
<line x1="192.2" y1="93.3" x2="195.2" y2="75.0" opacity="0.6" stroke="rgb(0,0,0)"  stroke-width="2.0"/>
<line x1="192.2" y1="93.3" x2="221.5" y2="84.5" opacity="0.7" stroke="rgb(0,0,0)"  stroke-width="1.3"/>
<line x1="192.2" y1="93.3" x2="167.2" y2="75.9" opacity="0.4" stroke="rgb(0,0,0)"  stroke-width="1.3"/>
<line x1="160.3" y1="296.6" x2="133.7" y2="282.2" opacity="0.4" stroke="rgb(0,0,0)"  stroke-width="0.4"/>
<line x1="160.3" y1="296.6" x2="154.8" y2="331.6" opacity="0.1" stroke="rgb(0,0,0)"  stroke-width="0.4"/>
<line x1="160.3" y1="296.6" x2="190.0" y2="291.1" opacity="0.1" stroke="rgb(0,0,0)"  stroke-width="0.4"/>
<line x1="73.0" y1="226.1" x2="92.7" y2="249.1" opacity="0.1" stroke="rgb(0,0,0)"  stroke-width="2.8"/>
<line x1="73.0" y1="226.1" x2="40.0" y2="238.8" opacity="0.9" stroke="rgb(0,0,0)"  stroke-width="2.6"/>
<line x1="73.0" y1="226.1" x2="72.2" y2="195.9" opacity="0.9" stroke="rgb(0,0,0)"  stroke-width="2.8"/>
<line x1="265.0" y1="256.3" x2="275.1" y2="227.8" opacity="0.9" stroke="rgb(0,0,0)"  stroke-width="2.8"/>
<line x1="265.0" y1="256.3" x2="292.5" y2="278.6" opacity="0.9" stroke="rgb(0,0,0)"  stroke-width="2.6"/>
<line x1="265.0" y1="256.3" x2="239.2" y2="272.1" opacity="0.9" stroke="rgb(0,0,0)"  stroke-width="2.8"/>
<line x1="90.5" y1="115.3" x2="116.2" y2="99.5" opacity="0.9" stroke="rgb(0,0,0)"  stroke-width="0.4"/>
<line x1="90.5" y1="115.3" x2="62.9" y2="93.0" opacity="0.1" stroke="rgb(0,0,0)"  stroke-width="0.4"/>
<line x1="90.5" y1="115.3" x2="80.4" y2="143.8" opacity="0.1" stroke="rgb(0,0,0)"  stroke-width="0.4"/>
<line x1="282.5" y1="145.5" x2="283.3" y2="175.7" opacity="0.1" stroke="rgb(0,0,0)"  stroke-width="0.4"/>
<line x1="282.5" y1="145.5" x2="315.5" y2="132.7" opacity="0.1" stroke="rgb(0,0,0)"  stroke-width="0.4"/>
<line x1="282.5" y1="145.5" x2="262.8" y2="122.5" opacity="0.1" stroke="rgb(0,0,0)"  stroke-width="0.4"/>
<line x1="195.2" y1="75.0" x2="165.4" y2="80.5" opacity="0.1" stroke="rgb(0,0,0)"  stroke-width="2.8"/>
<line x1="195.2" y1="75.0" x2="200.7" y2="40.0" opacity="0.9" stroke="rgb(0,0,0)"  stroke-width="2.6"/>
<line x1="195.2" y1="75.0" x2="221.7" y2="89.4" opacity="0.9" stroke="rgb(0,0,0)"  stroke-width="2.8"/>
<line x1="171.8" y1="233.2" x2="213.9" y2="216.9" opacity="0.5" stroke="rgb(0,0,0)"  stroke-width="1.5"/>
<line x1="169.6" y1="227.6" x2="211.8" y2="211.3" opacity="0.5" stroke="rgb(0,0,0)"  stroke-width="1.5" stroke-dasharray="5.0,5.0"/>
<line x1="215.8" y1="214.6" x2="222.8" y2="170.0" opacity="0.5" stroke="rgb(0,0,0)"  stroke-width="1.5"/>
<line x1="209.9" y1="213.7" x2="216.9" y2="169.1" opacity="0.5" stroke="rgb(0,0,0)"  stroke-width="1.5" stroke-dasharray="5.0,5.0"/>
<line x1="221.7" y1="167.2" x2="186.6" y2="138.8" opacity="0.5" stroke="rgb(0,0,0)"  stroke-width="1.5"/>
<line x1="218.0" y1="171.9" x2="182.9" y2="143.5" opacity="0.5" stroke="rgb(0,0,0)"  stroke-width="1.5" stroke-dasharray="5.0,5.0"/>
<line x1="183.7" y1="138.4" x2="141.5" y2="154.6" opacity="0.5" stroke="rgb(0,0,0)"  stroke-width="1.5"/>
<line x1="185.8" y1="144.0" x2="143.7" y2="160.2" opacity="0.5" stroke="rgb(0,0,0)"  stroke-width="1.5" stroke-dasharray="5.0,5.0"/>
<line x1="139.7" y1="156.9" x2="132.6" y2="201.5" opacity="0.5" stroke="rgb(0,0,0)"  stroke-width="1.5"/>
<line x1="145.6" y1="157.9" x2="138.6" y2="202.5" opacity="0.5" stroke="rgb(0,0,0)"  stroke-width="1.5" stroke-dasharray="5.0,5.0"/>
<line x1="133.7" y1="204.3" x2="168.8" y2="232.7" opacity="0.5" stroke="rgb(0,0,0)"  stroke-width="1.5"/>
<line x1="137.5" y1="199.7" x2="172.6" y2="228.0" opacity="0.5" stroke="rgb(0,0,0)"  stroke-width="1.5" stroke-dasharray="5.0,5.0"/>
<circle cx="80.412627" cy="143.809996" r="5.636364" opacity="0.200000" style="stroke:black;stroke-width:0.5;fill:url(#radialffffffbfbfbf)"/>
<circle cx="116.223127" cy="99.452227" r="5.636364" opacity="0.200000" style="stroke:black;stroke-width:0.5;fill:url(#radialffffffbfbfbf)"/>
<circle cx="262.811540" cy="122.475805" r="5.636364" opacity="0.200000" style="stroke:black;stroke-width:0.5;fill:url(#radialffffffbfbfbf)"/>
<circle cx="283.275146" cy="175.685063" r="5.636364" opacity="0.200000" style="stroke:black;stroke-width:0.5;fill:url(#radialffffffbfbfbf)"/>
<circle cx="190.012499" cy="291.090994" r="5.636364" opacity="0.200000" style="stroke:black;stroke-width:0.5;fill:url(#radialffffffbfbfbf)"/>
<circle cx="133.693085" cy="282.245978" r="5.636364" opacity="0.200000" style="stroke:black;stroke-width:0.5;fill:url(#radialffffffbfbfbf)"/>
<circle cx="90.455101" cy="115.284578" r="13.818182" opacity="0.379049" style="stroke:black;stroke-width:0.5;fill:url(#radialffffff666666)"/>
<circle cx="282.459579" cy="145.457311" r="13.818182" opacity="0.379515" style="stroke:black;stroke-width:0.5;fill:url(#radialffffff666666)"/>
<circle cx="160.292859" cy="296.634906" r="13.818182" opacity="0.379714" style="stroke:black;stroke-width:0.5;fill:url(#radialffffff666666)"/>
<circle cx="62.907069" cy="93.037729" r="5.636364" opacity="0.392739" style="stroke:black;stroke-width:0.5;fill:url(#radialffffffbfbfbf)"/>
<circle cx="315.509450" cy="132.744826" r="5.636364" opacity="0.393476" style="stroke:black;stroke-width:0.5;fill:url(#radialffffffbfbfbf)"/>
<circle cx="154.797492" cy="331.616894" r="5.636364" opacity="0.393701" style="stroke:black;stroke-width:0.5;fill:url(#radialffffffbfbfbf)"/>
<circle cx="243.564813" cy="274.316857" r="5.636364" opacity="0.599982" style="stroke:black;stroke-width:0.5;fill:url(#radialffffffbfbfbf)"/>
<circle cx="278.109890" cy="231.570803" r="5.636364" opacity="0.600045" style="stroke:black;stroke-width:0.5;fill:url(#radialffffffbfbfbf)"/>
<circle cx="68.133816" cy="198.556532" r="5.636364" opacity="0.600192" style="stroke:black;stroke-width:0.5;fill:url(#radialffffffbfbfbf)"/>
<circle cx="87.891892" cy="249.836909" r="5.636364" opacity="0.600276" style="stroke:black;stroke-width:0.5;fill:url(#radialffffffbfbfbf)"/>
<circle cx="221.453892" cy="84.464570" r="5.636364" opacity="0.600318" style="stroke:black;stroke-width:0.5;fill:url(#radialffffffbfbfbf)"/>
<circle cx="167.163685" cy="75.927010" r="5.636364" opacity="0.600486" style="stroke:black;stroke-width:0.5;fill:url(#radialffffffbfbfbf)"/>
<circle cx="104.934648" cy="126.977604" r="13.818182" opacity="0.706911" style="stroke:black;stroke-width:0.5;fill:url(#radialffffff666666)"/>
<circle cx="219.861595" cy="169.545658" r="13.818182" opacity="0.706964" style="stroke:black;stroke-width:0.5;fill:url(#radialffffff666666)"/>
<circle cx="184.740443" cy="141.175586" r="13.818182" opacity="0.706964" style="stroke:black;stroke-width:0.5;fill:url(#radialffffff666666)"/>
<circle cx="250.510075" cy="244.600453" r="13.818182" opacity="0.706982" style="stroke:black;stroke-width:0.5;fill:url(#radialffffff666666)"/>
<circle cx="212.845132" cy="214.142919" r="13.818182" opacity="0.707000" style="stroke:black;stroke-width:0.5;fill:url(#radialffffff666666)"/>
<circle cx="142.615773" cy="157.409248" r="13.818182" opacity="0.707000" style="stroke:black;stroke-width:0.5;fill:url(#radialffffff666666)"/>
<circle cx="135.602546" cy="202.003272" r="13.818182" opacity="0.707035" style="stroke:black;stroke-width:0.5;fill:url(#radialffffff666666)"/>
<circle cx="170.717226" cy="230.370108" r="13.818182" opacity="0.707035" style="stroke:black;stroke-width:0.5;fill:url(#radialffffff666666)"/>
<circle cx="265.047876" cy="152.143664" r="13.818182" opacity="0.707071" style="stroke:black;stroke-width:0.5;fill:url(#radialffffff666666)"/>
<circle cx="90.413029" cy="219.418211" r="13.819576" opacity="0.707142" style="stroke:black;stroke-width:0.5;fill:url(#radialffffff666666)"/>
<circle cx="163.202361" cy="278.210217" r="13.820272" opacity="0.707160" style="stroke:black;stroke-width:0.5;fill:url(#radialffffff666666)"/>
<circle cx="192.248835" cy="93.332240" r="13.823757" opacity="0.707249" style="stroke:black;stroke-width:0.5;fill:url(#radialffffff666666)"/>
<circle cx="77.334833" cy="140.004018" r="7.208826" opacity="0.799683" style="stroke:black;stroke-width:0.5;fill:url(#radialffffffbfbfbf)"/>
<circle cx="111.866965" cy="97.254727" r="7.209111" opacity="0.799699" style="stroke:black;stroke-width:0.5;fill:url(#radialffffffbfbfbf)"/>
<circle cx="267.565777" cy="121.724966" r="7.211385" opacity="0.799825" style="stroke:black;stroke-width:0.5;fill:url(#radialffffffbfbfbf)"/>
<circle cx="287.307670" cy="173.011816" r="7.212806" opacity="0.799904" style="stroke:black;stroke-width:0.5;fill:url(#radialffffffbfbfbf)"/>
<circle cx="188.287511" cy="295.592793" r="7.213374" opacity="0.799935" style="stroke:black;stroke-width:0.5;fill:url(#radialffffffbfbfbf)"/>
<circle cx="134.003777" cy="287.055233" r="7.214511" opacity="0.799998" style="stroke:black;stroke-width:0.5;fill:url(#radialffffffbfbfbf)"/>
<circle cx="292.534417" cy="278.566219" r="9.527157" opacity="0.919321" style="stroke:black;stroke-width:0.5;fill:url(#radialffffffbfbfbf)"/>
<circle cx="40.000000" cy="238.836467" r="9.531137" opacity="0.919513" style="stroke:black;stroke-width:0.5;fill:url(#radialffffffbfbfbf)"/>
<circle cx="200.666649" cy="40.000000" r="9.536537" opacity="0.919773" style="stroke:black;stroke-width:0.5;fill:url(#radialffffffbfbfbf)"/>
<circle cx="264.996094" cy="256.303188" r="23.650980" opacity="0.925090" style="stroke:black;stroke-width:0.5;fill:url(#radialffffff666666)"/>
<circle cx="73.040162" cy="226.101328" r="23.658645" opacity="0.925240" style="stroke:black;stroke-width:0.5;fill:url(#radialffffff666666)"/>
<circle cx="195.161573" cy="74.978752" r="23.666311" opacity="0.925390" style="stroke:black;stroke-width:0.5;fill:url(#radialffffff666666)"/>
<circle cx="275.070933" cy="227.787480" r="11.266758" opacity="0.999735" style="stroke:black;stroke-width:0.5;fill:url(#radialffffffbfbfbf)"/>
<circle cx="239.224832" cy="272.112885" r="11.267895" opacity="0.999786" style="stroke:black;stroke-width:0.5;fill:url(#radialffffffbfbfbf)"/>
<circle cx="72.214886" cy="195.863867" r="11.269032" opacity="0.999836" style="stroke:black;stroke-width:0.5;fill:url(#radialffffffbfbfbf)"/>
<circle cx="92.717328" cy="249.056943" r="11.270738" opacity="0.999912" style="stroke:black;stroke-width:0.5;fill:url(#radialffffffbfbfbf)"/>
<circle cx="221.748402" cy="89.406516" r="11.271590" opacity="0.999950" style="stroke:black;stroke-width:0.5;fill:url(#radialffffffbfbfbf)"/>
<circle cx="165.435460" cy="80.542082" r="11.272727" opacity="1.000000" style="stroke:black;stroke-width:0.5;fill:url(#radialffffffbfbfbf)"/>
</svg>
</g>
</svg>
