<?xml version="1.0"?>
<svg version="1.1" id="topsvg"
xmlns="http://www.w3.org/2000/svg" xmlns:xlink="http://www.w3.org/1999/xlink"
xmlns:cml="http://www.xml-cml.org/schema" x="0" y="0" width="1024px" height="1024px" viewBox="0 0 100 100">
<title>11863 - Open Babel Depiction</title>
<rect x="0" y="0" width="100" height="100" fill="white"/>
<defs>
<radialGradient id='radialffffff666666' cx='50%' cy='50%' r='50%' fx='30%' fy='30%'>
  <stop offset=' 0%' stop-color="rgb(255,255,255)"  stop-opacity='1.0'/>
  <stop offset='100%' stop-color="rgb(102,102,102)"  stop-opacity ='1.0'/>
</radialGradient>
<radialGradient id='radialffffffbfbfbf' cx='50%' cy='50%' r='50%' fx='30%' fy='30%'>
  <stop offset=' 0%' stop-color="rgb(255,255,255)"  stop-opacity='1.0'/>
  <stop offset='100%' stop-color="rgb(191,191,191)"  stop-opacity ='1.0'/>
</radialGradient>
</defs>
<g transform="translate(0,0)">
<svg width="100" height="100" x="0" y="0" viewBox="0 0 277.551 270.148"
font-family="sans-serif" stroke="rgb(0,0,0)" stroke-width="2"  stroke-linecap="round">
<line x1="128.1" y1="151.4" x2="179.0" y2="149.9" opacity="1.0" stroke="rgb(0,0,0)"  stroke-width="1.7"/>
<line x1="128.1" y1="151.4" x2="104.9" y2="110.0" opacity="0.6" stroke="rgb(0,0,0)"  stroke-width="1.5"/>
<line x1="128.1" y1="151.4" x2="107.6" y2="193.5" opacity="0.5" stroke="rgb(0,0,0)"  stroke-width="1.5"/>
<line x1="128.1" y1="151.4" x2="121.7" y2="152.0" opacity="0.5" stroke="rgb(0,0,0)"  stroke-width="2.2"/>
<line x1="179.0" y1="149.9" x2="194.0" y2="149.0" opacity="0.7" stroke="rgb(0,0,0)"  stroke-width="1.0"/>
<line x1="179.0" y1="149.9" x2="202.0" y2="187.6" opacity="0.3" stroke="rgb(0,0,0)"  stroke-width="1.9"/>
<line x1="179.0" y1="149.9" x2="191.0" y2="119.8" opacity="0.6" stroke="rgb(0,0,0)"  stroke-width="1.8"/>
<line x1="104.9" y1="110.0" x2="120.8" y2="66.9" opacity="0.6" stroke="rgb(0,0,0)"  stroke-width="1.5"/>
<line x1="104.9" y1="110.0" x2="107.8" y2="108.7" opacity="0.5" stroke="rgb(0,0,0)"  stroke-width="0.9"/>
<line x1="104.9" y1="110.0" x2="69.8" y2="112.0" opacity="0.3" stroke="rgb(0,0,0)"  stroke-width="1.4"/>
<line x1="107.6" y1="193.5" x2="58.2" y2="197.3" opacity="0.5" stroke="rgb(0,0,0)"  stroke-width="1.3"/>
<line x1="107.6" y1="193.5" x2="113.9" y2="195.4" opacity="0.4" stroke="rgb(0,0,0)"  stroke-width="0.8"/>
<line x1="107.6" y1="193.5" x2="122.9" y2="222.4" opacity="0.3" stroke="rgb(0,0,0)"  stroke-width="1.4"/>
<line x1="194.0" y1="149.0" x2="229.7" y2="145.7" opacity="0.5" stroke="rgb(0,0,0)"  stroke-width="0.4"/>
<line x1="194.0" y1="149.0" x2="185.1" y2="179.1" opacity="0.1" stroke="rgb(0,0,0)"  stroke-width="0.4"/>
<line x1="194.0" y1="149.0" x2="179.9" y2="121.2" opacity="0.1" stroke="rgb(0,0,0)"  stroke-width="0.4"/>
<line x1="202.0" y1="187.6" x2="191.0" y2="189.7" opacity="0.1" stroke="rgb(0,0,0)"  stroke-width="2.6"/>
<line x1="202.0" y1="187.6" x2="237.6" y2="182.4" opacity="0.9" stroke="rgb(0,0,0)"  stroke-width="2.2"/>
<line x1="202.0" y1="187.6" x2="196.0" y2="219.3" opacity="0.7" stroke="rgb(0,0,0)"  stroke-width="2.0"/>
<line x1="120.8" y1="66.9" x2="154.2" y2="59.1" opacity="0.7" stroke="rgb(0,0,0)"  stroke-width="1.6"/>
<line x1="120.8" y1="66.9" x2="99.6" y2="40.0" opacity="0.5" stroke="rgb(0,0,0)"  stroke-width="1.6"/>
<line x1="120.8" y1="66.9" x2="120.1" y2="68.0" opacity="0.5" stroke="rgb(0,0,0)"  stroke-width="2.2"/>
<line x1="58.2" y1="197.3" x2="49.7" y2="192.0" opacity="0.7" stroke="rgb(0,0,0)"  stroke-width="1.8"/>
<line x1="58.2" y1="197.3" x2="47.1" y2="230.1" opacity="0.6" stroke="rgb(0,0,0)"  stroke-width="1.3"/>
<line x1="58.2" y1="197.3" x2="40.0" y2="173.9" opacity="0.4" stroke="rgb(0,0,0)"  stroke-width="1.2"/>
<circle cx="179.943920" cy="121.165702" r="5.636364" opacity="0.200000" style="stroke:black;stroke-width:0.5;fill:url(#radialffffffbfbfbf)"/>
<circle cx="185.149625" cy="179.133706" r="5.636364" opacity="0.200000" style="stroke:black;stroke-width:0.5;fill:url(#radialffffffbfbfbf)"/>
<circle cx="229.747463" cy="145.727971" r="5.636364" opacity="0.358218" style="stroke:black;stroke-width:0.5;fill:url(#radialffffffbfbfbf)"/>
<circle cx="113.926262" cy="195.367503" r="5.636364" opacity="0.364556" style="stroke:black;stroke-width:0.5;fill:url(#radialffffffbfbfbf)"/>
<circle cx="107.779135" cy="108.730398" r="5.636364" opacity="0.372957" style="stroke:black;stroke-width:0.5;fill:url(#radialffffffbfbfbf)"/>
<circle cx="193.999652" cy="149.014749" r="13.818182" opacity="0.378105" style="stroke:black;stroke-width:0.5;fill:url(#radialffffff666666)"/>
<circle cx="40.000000" cy="173.891919" r="5.636364" opacity="0.559737" style="stroke:black;stroke-width:0.5;fill:url(#radialffffffbfbfbf)"/>
<circle cx="47.062308" cy="230.147649" r="5.636364" opacity="0.633418" style="stroke:black;stroke-width:0.5;fill:url(#radialffffffbfbfbf)"/>
<circle cx="107.575761" cy="193.514180" r="13.818182" opacity="0.646554" style="stroke:black;stroke-width:0.5;fill:url(#radialffffff666666)"/>
<circle cx="104.905664" cy="110.039205" r="13.818182" opacity="0.654330" style="stroke:black;stroke-width:0.5;fill:url(#radialffffff666666)"/>
<circle cx="58.234729" cy="197.289710" r="13.818182" opacity="0.690059" style="stroke:black;stroke-width:0.5;fill:url(#radialffffff666666)"/>
<circle cx="69.761414" cy="111.951571" r="5.636364" opacity="0.697635" style="stroke:black;stroke-width:0.5;fill:url(#radialffffffbfbfbf)"/>
<circle cx="99.578591" cy="40.000000" r="5.636364" opacity="0.706948" style="stroke:black;stroke-width:0.5;fill:url(#radialffffffbfbfbf)"/>
<circle cx="154.158130" cy="59.087586" r="5.642483" opacity="0.707491" style="stroke:black;stroke-width:0.5;fill:url(#radialffffffbfbfbf)"/>
<circle cx="179.005778" cy="149.943051" r="14.641821" opacity="0.727875" style="stroke:black;stroke-width:0.5;fill:url(#radialffffff666666)"/>
<circle cx="122.858295" cy="222.389935" r="6.072020" opacity="0.733926" style="stroke:black;stroke-width:0.5;fill:url(#radialffffffbfbfbf)"/>
<circle cx="128.139445" cy="151.363385" r="15.920272" opacity="0.758988" style="stroke:black;stroke-width:0.5;fill:url(#radialffffff666666)"/>
<circle cx="120.801598" cy="66.924025" r="16.204210" opacity="0.765726" style="stroke:black;stroke-width:0.5;fill:url(#radialffffff666666)"/>
<circle cx="195.997305" cy="219.342613" r="6.734682" opacity="0.772937" style="stroke:black;stroke-width:0.5;fill:url(#radialffffffbfbfbf)"/>
<circle cx="190.965451" cy="119.784731" r="7.387793" opacity="0.809548" style="stroke:black;stroke-width:0.5;fill:url(#radialffffffbfbfbf)"/>
<circle cx="201.990262" cy="187.645871" r="20.024929" opacity="0.851226" style="stroke:black;stroke-width:0.5;fill:url(#radialffffff666666)"/>
<circle cx="237.551100" cy="182.423765" r="8.201196" opacity="0.852951" style="stroke:black;stroke-width:0.5;fill:url(#radialffffffbfbfbf)"/>
<circle cx="49.702883" cy="192.047923" r="8.504768" opacity="0.868594" style="stroke:black;stroke-width:0.5;fill:url(#radialffffffbfbfbf)"/>
<circle cx="121.651175" cy="151.983346" r="9.721739" opacity="0.928662" style="stroke:black;stroke-width:0.5;fill:url(#radialffffffbfbfbf)"/>
<circle cx="120.102912" cy="67.993376" r="9.874270" opacity="0.935918" style="stroke:black;stroke-width:0.5;fill:url(#radialffffffbfbfbf)"/>
<circle cx="190.958891" cy="189.656644" r="11.272727" opacity="1.000000" style="stroke:black;stroke-width:0.5;fill:url(#radialffffffbfbfbf)"/>
</svg>
</g>
</svg>
