<?xml version="1.0"?>
<svg version="1.1" id="topsvg"
xmlns="http://www.w3.org/2000/svg" xmlns:xlink="http://www.w3.org/1999/xlink"
xmlns:cml="http://www.xml-cml.org/schema" x="0" y="0" width="200px" height="200px" viewBox="0 0 100 100">
<title>12363 - Open Babel Depiction</title>
<rect x="0" y="0" width="100" height="100" fill="white"/>
<defs>
<radialGradient id='radialffffff666666' cx='50%' cy='50%' r='50%' fx='30%' fy='30%'>
  <stop offset=' 0%' stop-color="rgb(255,255,255)"  stop-opacity='1.0'/>
  <stop offset='100%' stop-color="rgb(102,102,102)"  stop-opacity ='1.0'/>
</radialGradient>
<radialGradient id='radialffffffbfbfbf' cx='50%' cy='50%' r='50%' fx='30%' fy='30%'>
  <stop offset=' 0%' stop-color="rgb(255,255,255)"  stop-opacity='1.0'/>
  <stop offset='100%' stop-color="rgb(191,191,191)"  stop-opacity ='1.0'/>
</radialGradient>
</defs>
<g transform="translate(0,0)">
<svg width="100" height="100" x="0" y="0" viewBox="0 0 235.937 244.725"
font-family="sans-serif" stroke="rgb(0,0,0)" stroke-width="4"  stroke-linecap="round">
<line x1="61.3" y1="122.3" x2="40.1" y2="111.2" opacity="1.0" stroke="rgb(0,0,0)"  stroke-width="1.9"/>
<line x1="61.3" y1="122.3" x2="40.0" y2="133.2" opacity="0.6" stroke="rgb(0,0,0)"  stroke-width="1.1"/>
<line x1="87.4" y1="84.1" x2="65.8" y2="56.1" opacity="0.4" stroke="rgb(0,0,0)"  stroke-width="1.0"/>
<line x1="87.4" y1="84.1" x2="97.5" y2="90.5" opacity="0.3" stroke="rgb(0,0,0)"  stroke-width="0.5"/>
<line x1="87.3" y1="160.5" x2="65.6" y2="188.4" opacity="0.2" stroke="rgb(0,0,0)"  stroke-width="2.0"/>
<line x1="87.3" y1="160.5" x2="97.4" y2="154.2" opacity="0.7" stroke="rgb(0,0,0)"  stroke-width="2.5"/>
<line x1="126.5" y1="72.3" x2="117.9" y2="69.9" opacity="0.8" stroke="rgb(0,0,0)"  stroke-width="2.3"/>
<line x1="126.5" y1="72.3" x2="136.9" y2="40.0" opacity="0.8" stroke="rgb(0,0,0)"  stroke-width="1.7"/>
<line x1="126.4" y1="172.4" x2="117.8" y2="174.8" opacity="0.6" stroke="rgb(0,0,0)"  stroke-width="0.7"/>
<line x1="126.4" y1="172.4" x2="136.6" y2="204.7" opacity="0.2" stroke="rgb(0,0,0)"  stroke-width="1.3"/>
<line x1="164.7" y1="101.5" x2="195.9" y2="86.1" opacity="0.4" stroke="rgb(0,0,0)"  stroke-width="1.7"/>
<line x1="164.6" y1="143.3" x2="195.8" y2="158.8" opacity="0.6" stroke="rgb(0,0,0)"  stroke-width="1.3"/>
<line x1="87.4" y1="84.1" x2="61.3" y2="122.3" opacity="0.4" stroke="rgb(0,0,0)"  stroke-width="1.2"/>
<line x1="61.3" y1="122.3" x2="87.3" y2="160.5" opacity="0.4" stroke="rgb(0,0,0)"  stroke-width="1.8"/>
<line x1="87.3" y1="160.5" x2="126.4" y2="172.4" opacity="0.6" stroke="rgb(0,0,0)"  stroke-width="1.6"/>
<line x1="126.4" y1="172.4" x2="164.6" y2="143.3" opacity="0.5" stroke="rgb(0,0,0)"  stroke-width="1.3"/>
<line x1="164.7" y1="129.5" x2="164.7" y2="115.3" opacity="0.4" stroke="rgb(0,0,0)"  stroke-width="1.3"/>
<line x1="157.5" y1="127.7" x2="157.5" y2="117.1" opacity="0.4" stroke="rgb(0,0,0)"  stroke-width="1.3"/>
<line x1="164.7" y1="101.5" x2="126.5" y2="72.3" opacity="0.4" stroke="rgb(0,0,0)"  stroke-width="1.7"/>
<line x1="126.5" y1="72.3" x2="87.4" y2="84.1" opacity="0.6" stroke="rgb(0,0,0)"  stroke-width="1.4"/>
<circle cx="97.523168" cy="90.470839" r="5.636364" opacity="0.200000" style="stroke:black;stroke-width:0.5;fill:url(#radialffffffbfbfbf)"/>
<circle cx="117.788145" cy="174.808955" r="5.636364" opacity="0.230726" style="stroke:black;stroke-width:0.5;fill:url(#radialffffffbfbfbf)"/>
<circle cx="40.000000" cy="133.222761" r="5.636364" opacity="0.490627" style="stroke:black;stroke-width:0.5;fill:url(#radialffffffbfbfbf)"/>
<circle cx="65.832774" cy="56.139849" r="5.636364" opacity="0.561247" style="stroke:black;stroke-width:0.5;fill:url(#radialffffffbfbfbf)"/>
<circle cx="87.376188" cy="84.101202" r="13.818182" opacity="0.576579" style="stroke:black;stroke-width:0.5;fill:url(#radialffffff666666)"/>
<circle cx="126.382969" cy="172.403435" r="13.818182" opacity="0.628089" style="stroke:black;stroke-width:0.5;fill:url(#radialffffff666666)"/>
<circle cx="195.821028" cy="158.794696" r="5.636364" opacity="0.635780" style="stroke:black;stroke-width:0.5;fill:url(#radialffffffbfbfbf)"/>
<circle cx="164.649094" cy="143.324657" r="13.818182" opacity="0.668357" style="stroke:black;stroke-width:0.5;fill:url(#radialffffff666666)"/>
<circle cx="136.629776" cy="204.724995" r="5.636364" opacity="0.703250" style="stroke:black;stroke-width:0.5;fill:url(#radialffffffbfbfbf)"/>
<circle cx="61.337318" cy="122.251399" r="13.819071" opacity="0.707130" style="stroke:black;stroke-width:0.5;fill:url(#radialffffff666666)"/>
<circle cx="136.871294" cy="40.000000" r="5.698405" opacity="0.710988" style="stroke:black;stroke-width:0.5;fill:url(#radialffffffbfbfbf)"/>
<circle cx="164.716719" cy="101.480844" r="15.291172" opacity="0.743841" style="stroke:black;stroke-width:0.5;fill:url(#radialffffff666666)"/>
<circle cx="195.936957" cy="86.107413" r="6.715019" opacity="0.771808" style="stroke:black;stroke-width:0.5;fill:url(#radialffffffbfbfbf)"/>
<circle cx="126.534320" cy="72.292578" r="16.735699" opacity="0.778183" style="stroke:black;stroke-width:0.5;fill:url(#radialffffff666666)"/>
<circle cx="87.253819" cy="160.494983" r="18.446183" opacity="0.816983" style="stroke:black;stroke-width:0.5;fill:url(#radialffffff666666)"/>
<circle cx="65.623459" cy="188.388712" r="7.718571" opacity="0.827473" style="stroke:black;stroke-width:0.5;fill:url(#radialffffffbfbfbf)"/>
<circle cx="40.051524" cy="111.202752" r="8.561395" opacity="0.871481" style="stroke:black;stroke-width:0.5;fill:url(#radialffffffbfbfbf)"/>
<circle cx="117.942717" cy="69.867737" r="10.673353" opacity="0.973052" style="stroke:black;stroke-width:0.5;fill:url(#radialffffffbfbfbf)"/>
<circle cx="97.410459" cy="154.170430" r="11.272727" opacity="1.000000" style="stroke:black;stroke-width:0.5;fill:url(#radialffffffbfbfbf)"/>
</svg>
</g>
</svg>
