<?xml version="1.0"?>
<svg version="1.1" id="topsvg"
xmlns="http://www.w3.org/2000/svg" xmlns:xlink="http://www.w3.org/1999/xlink"
xmlns:cml="http://www.xml-cml.org/schema" x="0" y="0" width="200px" height="200px" viewBox="0 0 100 100">
<title>12390 - Open Babel Depiction</title>
<rect x="0" y="0" width="100" height="100" fill="white"/>
<defs>
<radialGradient id='radialffffff0ccff' cx='50%' cy='50%' r='50%' fx='30%' fy='30%'>
  <stop offset=' 0%' stop-color="rgb(255,255,255)"  stop-opacity='1.0'/>
  <stop offset='100%' stop-color="rgb(12,12,255)"  stop-opacity ='1.0'/>
</radialGradient>
<radialGradient id='radialffffff666666' cx='50%' cy='50%' r='50%' fx='30%' fy='30%'>
  <stop offset=' 0%' stop-color="rgb(255,255,255)"  stop-opacity='1.0'/>
  <stop offset='100%' stop-color="rgb(102,102,102)"  stop-opacity ='1.0'/>
</radialGradient>
<radialGradient id='radialffffffbfbfbf' cx='50%' cy='50%' r='50%' fx='30%' fy='30%'>
  <stop offset=' 0%' stop-color="rgb(255,255,255)"  stop-opacity='1.0'/>
  <stop offset='100%' stop-color="rgb(191,191,191)"  stop-opacity ='1.0'/>
</radialGradient>
</defs>
<g transform="translate(0,0)">
<svg width="100" height="100" x="0" y="0" viewBox="0 0 634.206 165.691"
font-family="sans-serif" stroke="rgb(0,0,0)" stroke-width="4"  stroke-linecap="round">
<line x1="40.0" y1="111.6" x2="71.3" y2="90.8" opacity="1.0" stroke="rgb(0,0,0)"  stroke-width="1.7"/>
<line x1="37.7" y1="108.1" x2="69.0" y2="87.3" opacity="1.0" stroke="rgb(0,0,0)"  stroke-width="1.7"/>
<line x1="42.3" y1="115.1" x2="73.7" y2="94.3" opacity="1.0" stroke="rgb(0,0,0)"  stroke-width="1.7"/>
<line x1="317.7" y1="94.9" x2="360.4" y2="69.7" opacity="0.6" stroke="rgb(0,0,0)"  stroke-width="1.3"/>
<line x1="317.7" y1="94.9" x2="276.3" y2="67.7" opacity="0.4" stroke="rgb(0,0,0)"  stroke-width="1.3"/>
<line x1="317.7" y1="94.9" x2="317.4" y2="113.0" opacity="0.4" stroke="rgb(0,0,0)"  stroke-width="0.6"/>
<line x1="317.7" y1="94.9" x2="316.9" y2="119.2" opacity="0.2" stroke="rgb(0,0,0)"  stroke-width="1.7"/>
<line x1="360.4" y1="69.7" x2="400.6" y2="98.7" opacity="0.6" stroke="rgb(0,0,0)"  stroke-width="1.3"/>
<line x1="360.4" y1="69.7" x2="362.0" y2="46.0" opacity="0.4" stroke="rgb(0,0,0)"  stroke-width="0.8"/>
<line x1="360.4" y1="69.7" x2="360.3" y2="51.1" opacity="0.3" stroke="rgb(0,0,0)"  stroke-width="2.0"/>
<line x1="276.3" y1="67.7" x2="233.6" y2="93.1" opacity="0.7" stroke="rgb(0,0,0)"  stroke-width="1.3"/>
<line x1="276.3" y1="67.7" x2="276.4" y2="44.0" opacity="0.4" stroke="rgb(0,0,0)"  stroke-width="0.8"/>
<line x1="276.3" y1="67.7" x2="277.2" y2="48.8" opacity="0.3" stroke="rgb(0,0,0)"  stroke-width="1.9"/>
<line x1="400.6" y1="98.7" x2="442.1" y2="72.2" opacity="0.6" stroke="rgb(0,0,0)"  stroke-width="1.4"/>
<line x1="400.6" y1="98.7" x2="402.0" y2="115.9" opacity="0.5" stroke="rgb(0,0,0)"  stroke-width="0.7"/>
<line x1="400.6" y1="98.7" x2="398.4" y2="123.4" opacity="0.2" stroke="rgb(0,0,0)"  stroke-width="1.8"/>
<line x1="233.6" y1="93.1" x2="193.4" y2="64.4" opacity="0.6" stroke="rgb(0,0,0)"  stroke-width="1.4"/>
<line x1="233.6" y1="93.1" x2="231.9" y2="111.2" opacity="0.5" stroke="rgb(0,0,0)"  stroke-width="0.7"/>
<line x1="233.6" y1="93.1" x2="233.8" y2="117.2" opacity="0.2" stroke="rgb(0,0,0)"  stroke-width="1.8"/>
<line x1="442.1" y1="72.2" x2="483.4" y2="99.7" opacity="0.6" stroke="rgb(0,0,0)"  stroke-width="1.6"/>
<line x1="442.1" y1="72.2" x2="440.1" y2="54.5" opacity="0.5" stroke="rgb(0,0,0)"  stroke-width="2.2"/>
<line x1="442.1" y1="72.2" x2="444.3" y2="47.7" opacity="0.7" stroke="rgb(0,0,0)"  stroke-width="1.0"/>
<line x1="193.4" y1="64.4" x2="151.9" y2="91.7" opacity="0.3" stroke="rgb(0,0,0)"  stroke-width="1.5"/>
<line x1="193.4" y1="64.4" x2="191.9" y2="41.5" opacity="0.5" stroke="rgb(0,0,0)"  stroke-width="0.9"/>
<line x1="193.4" y1="64.4" x2="195.8" y2="45.1" opacity="0.3" stroke="rgb(0,0,0)"  stroke-width="2.1"/>
<line x1="483.4" y1="99.7" x2="524.9" y2="73.1" opacity="0.7" stroke="rgb(0,0,0)"  stroke-width="1.7"/>
<line x1="483.4" y1="99.7" x2="481.4" y2="123.8" opacity="0.6" stroke="rgb(0,0,0)"  stroke-width="2.1"/>
<line x1="483.4" y1="99.7" x2="485.1" y2="117.8" opacity="0.7" stroke="rgb(0,0,0)"  stroke-width="0.9"/>
<line x1="151.9" y1="91.7" x2="110.9" y2="64.4" opacity="0.3" stroke="rgb(0,0,0)"  stroke-width="1.6"/>
<line x1="151.9" y1="91.7" x2="154.0" y2="115.3" opacity="0.5" stroke="rgb(0,0,0)"  stroke-width="2.0"/>
<line x1="151.9" y1="91.7" x2="149.5" y2="110.7" opacity="0.7" stroke="rgb(0,0,0)"  stroke-width="0.9"/>
<line x1="524.9" y1="73.1" x2="564.9" y2="101.8" opacity="0.3" stroke="rgb(0,0,0)"  stroke-width="1.8"/>
<line x1="524.9" y1="73.1" x2="527.2" y2="48.9" opacity="0.6" stroke="rgb(0,0,0)"  stroke-width="1.3"/>
<line x1="524.9" y1="73.1" x2="523.7" y2="55.3" opacity="0.4" stroke="rgb(0,0,0)"  stroke-width="2.4"/>
<line x1="110.9" y1="64.4" x2="71.3" y2="90.8" opacity="0.8" stroke="rgb(0,0,0)"  stroke-width="1.7"/>
<line x1="110.9" y1="64.4" x2="112.6" y2="46.7" opacity="0.6" stroke="rgb(0,0,0)"  stroke-width="2.3"/>
<line x1="110.9" y1="64.4" x2="109.3" y2="40.0" opacity="0.8" stroke="rgb(0,0,0)"  stroke-width="1.2"/>
<line x1="564.9" y1="101.8" x2="564.0" y2="125.7" opacity="0.4" stroke="rgb(0,0,0)"  stroke-width="2.3"/>
<line x1="564.9" y1="101.8" x2="594.2" y2="82.2" opacity="0.8" stroke="rgb(0,0,0)"  stroke-width="1.8"/>
<line x1="564.9" y1="101.8" x2="567.5" y2="119.2" opacity="0.6" stroke="rgb(0,0,0)"  stroke-width="1.1"/>
<circle cx="317.415750" cy="112.957897" r="5.636364" opacity="0.200000" style="stroke:black;stroke-width:0.5;fill:url(#radialffffffbfbfbf)"/>
<circle cx="231.896682" cy="111.158349" r="5.636364" opacity="0.200000" style="stroke:black;stroke-width:0.5;fill:url(#radialffffffbfbfbf)"/>
<circle cx="401.952361" cy="115.856629" r="5.636364" opacity="0.200000" style="stroke:black;stroke-width:0.5;fill:url(#radialffffffbfbfbf)"/>
<circle cx="276.424961" cy="43.981703" r="5.636364" opacity="0.302857" style="stroke:black;stroke-width:0.5;fill:url(#radialffffffbfbfbf)"/>
<circle cx="361.982938" cy="45.998494" r="5.636364" opacity="0.314886" style="stroke:black;stroke-width:0.5;fill:url(#radialffffffbfbfbf)"/>
<circle cx="149.532498" cy="110.727106" r="5.636364" opacity="0.321472" style="stroke:black;stroke-width:0.5;fill:url(#radialffffffbfbfbf)"/>
<circle cx="485.101213" cy="117.766420" r="5.636364" opacity="0.329502" style="stroke:black;stroke-width:0.5;fill:url(#radialffffffbfbfbf)"/>
<circle cx="191.904561" cy="41.514214" r="5.636364" opacity="0.351700" style="stroke:black;stroke-width:0.5;fill:url(#radialffffffbfbfbf)"/>
<circle cx="567.471883" cy="119.235240" r="5.636364" opacity="0.410640" style="stroke:black;stroke-width:0.5;fill:url(#radialffffffbfbfbf)"/>
<circle cx="444.308213" cy="47.678072" r="5.636364" opacity="0.419333" style="stroke:black;stroke-width:0.5;fill:url(#radialffffffbfbfbf)"/>
<circle cx="109.342589" cy="40.000000" r="5.636364" opacity="0.483237" style="stroke:black;stroke-width:0.5;fill:url(#radialffffffbfbfbf)"/>
<circle cx="527.230095" cy="48.945862" r="5.636364" opacity="0.493499" style="stroke:black;stroke-width:0.5;fill:url(#radialffffffbfbfbf)"/>
<circle cx="317.730265" cy="94.891082" r="13.818182" opacity="0.639034" style="stroke:black;stroke-width:0.5;fill:url(#radialffffff666666)"/>
<circle cx="233.628139" cy="93.075322" r="13.818182" opacity="0.652746" style="stroke:black;stroke-width:0.5;fill:url(#radialffffff666666)"/>
<circle cx="400.622965" cy="98.723634" r="13.818182" opacity="0.658578" style="stroke:black;stroke-width:0.5;fill:url(#radialffffff666666)"/>
<circle cx="276.269324" cy="67.664405" r="13.818182" opacity="0.667473" style="stroke:black;stroke-width:0.5;fill:url(#radialffffff666666)"/>
<circle cx="360.394148" cy="69.681196" r="13.818182" opacity="0.672374" style="stroke:black;stroke-width:0.5;fill:url(#radialffffff666666)"/>
<circle cx="193.396079" cy="64.363612" r="13.818182" opacity="0.697169" style="stroke:black;stroke-width:0.5;fill:url(#radialffffff666666)"/>
<circle cx="151.915683" cy="91.745926" r="13.911314" opacity="0.709486" style="stroke:black;stroke-width:0.5;fill:url(#radialffffff666666)"/>
<circle cx="483.392453" cy="99.686635" r="14.265932" opacity="0.718472" style="stroke:black;stroke-width:0.5;fill:url(#radialffffff666666)"/>
<circle cx="442.070937" cy="72.155169" r="14.330409" opacity="0.720093" style="stroke:black;stroke-width:0.5;fill:url(#radialffffff666666)"/>
<circle cx="40.000000" cy="111.638229" r="14.271054" opacity="0.743473" style="stroke:black;stroke-width:0.5;fill:url(#radialffffff0ccff)"/>
<circle cx="71.325108" cy="90.815349" r="15.579334" opacity="0.750817" style="stroke:black;stroke-width:0.5;fill:url(#radialffffff666666)"/>
<circle cx="110.937864" cy="64.376582" r="15.962609" opacity="0.759996" style="stroke:black;stroke-width:0.5;fill:url(#radialffffff666666)"/>
<circle cx="564.916848" cy="101.823396" r="16.011563" opacity="0.761161" style="stroke:black;stroke-width:0.5;fill:url(#radialffffff666666)"/>
<circle cx="524.853394" cy="73.063050" r="16.304093" opacity="0.768083" style="stroke:black;stroke-width:0.5;fill:url(#radialffffff666666)"/>
<circle cx="594.205711" cy="82.190488" r="7.134459" opacity="0.795547" style="stroke:black;stroke-width:0.5;fill:url(#radialffffffbfbfbf)"/>
<circle cx="316.916416" cy="119.219028" r="8.502031" opacity="0.868454" style="stroke:black;stroke-width:0.5;fill:url(#radialffffffbfbfbf)"/>
<circle cx="398.388932" cy="123.392034" r="8.721193" opacity="0.879576" style="stroke:black;stroke-width:0.5;fill:url(#radialffffffbfbfbf)"/>
<circle cx="233.832412" cy="117.169813" r="8.733855" opacity="0.880214" style="stroke:black;stroke-width:0.5;fill:url(#radialffffffbfbfbf)"/>
<circle cx="277.229083" cy="48.848589" r="9.556444" opacity="0.920733" style="stroke:black;stroke-width:0.5;fill:url(#radialffffffbfbfbf)"/>
<circle cx="360.345511" cy="51.131259" r="9.655798" opacity="0.925507" style="stroke:black;stroke-width:0.5;fill:url(#radialffffffbfbfbf)"/>
<circle cx="154.036232" cy="115.263264" r="9.675279" opacity="0.926440" style="stroke:black;stroke-width:0.5;fill:url(#radialffffffbfbfbf)"/>
<circle cx="481.359450" cy="123.823277" r="9.732748" opacity="0.929187" style="stroke:black;stroke-width:0.5;fill:url(#radialffffffbfbfbf)"/>
<circle cx="195.769537" cy="45.136008" r="9.956780" opacity="0.939821" style="stroke:black;stroke-width:0.5;fill:url(#radialffffffbfbfbf)"/>
<circle cx="563.963574" cy="125.690916" r="10.474490" opacity="0.963944" style="stroke:black;stroke-width:0.5;fill:url(#radialffffffbfbfbf)"/>
<circle cx="440.128722" cy="54.503385" r="10.474977" opacity="0.963967" style="stroke:black;stroke-width:0.5;fill:url(#radialffffffbfbfbf)"/>
<circle cx="112.552594" cy="46.689131" r="11.135386" opacity="0.993890" style="stroke:black;stroke-width:0.5;fill:url(#radialffffffbfbfbf)"/>
<circle cx="523.731514" cy="55.323720" r="11.272727" opacity="1.000000" style="stroke:black;stroke-width:0.5;fill:url(#radialffffffbfbfbf)"/>
</svg>
</g>
</svg>
