<?xml version="1.0"?>
<svg version="1.1" id="topsvg"
xmlns="http://www.w3.org/2000/svg" xmlns:xlink="http://www.w3.org/1999/xlink"
xmlns:cml="http://www.xml-cml.org/schema" x="0" y="0" width="200px" height="200px" viewBox="0 0 100 100">
<title>12397 - Open Babel Depiction</title>
<rect x="0" y="0" width="100" height="100" fill="white"/>
<defs>
<radialGradient id='radialffffff666666' cx='50%' cy='50%' r='50%' fx='30%' fy='30%'>
  <stop offset=' 0%' stop-color="rgb(255,255,255)"  stop-opacity='1.0'/>
  <stop offset='100%' stop-color="rgb(102,102,102)"  stop-opacity ='1.0'/>
</radialGradient>
<radialGradient id='radialffffffbfbfbf' cx='50%' cy='50%' r='50%' fx='30%' fy='30%'>
  <stop offset=' 0%' stop-color="rgb(255,255,255)"  stop-opacity='1.0'/>
  <stop offset='100%' stop-color="rgb(191,191,191)"  stop-opacity ='1.0'/>
</radialGradient>
<radialGradient id='radialffffffffcc' cx='50%' cy='50%' r='50%' fx='30%' fy='30%'>
  <stop offset=' 0%' stop-color="rgb(255,255,255)"  stop-opacity='1.0'/>
  <stop offset='100%' stop-color="rgb(255,12,12)"  stop-opacity ='1.0'/>
</radialGradient>
</defs>
<g transform="translate(0,0)">
<svg width="100" height="100" x="0" y="0" viewBox="0 0 753.873 155.878"
font-family="sans-serif" stroke="rgb(0,0,0)" stroke-width="4"  stroke-linecap="round">
<line x1="688.3" y1="66.4" x2="651.3" y2="94.0" opacity="1.0" stroke="rgb(0,0,0)"  stroke-width="1.6"/>
<line x1="688.3" y1="66.4" x2="713.9" y2="85.0" opacity="0.5" stroke="rgb(0,0,0)"  stroke-width="1.6"/>
<line x1="360.1" y1="64.4" x2="402.0" y2="91.3" opacity="0.5" stroke="rgb(0,0,0)"  stroke-width="1.2"/>
<line x1="360.1" y1="64.4" x2="317.6" y2="90.5" opacity="0.4" stroke="rgb(0,0,0)"  stroke-width="1.2"/>
<line x1="360.1" y1="64.4" x2="360.4" y2="44.1" opacity="0.4" stroke="rgb(0,0,0)"  stroke-width="0.6"/>
<line x1="360.1" y1="64.4" x2="360.1" y2="41.9" opacity="0.2" stroke="rgb(0,0,0)"  stroke-width="1.8"/>
<line x1="402.0" y1="91.3" x2="443.2" y2="63.4" opacity="0.6" stroke="rgb(0,0,0)"  stroke-width="1.3"/>
<line x1="402.0" y1="91.3" x2="403.4" y2="112.3" opacity="0.4" stroke="rgb(0,0,0)"  stroke-width="0.7"/>
<line x1="402.0" y1="91.3" x2="401.1" y2="112.7" opacity="0.2" stroke="rgb(0,0,0)"  stroke-width="1.8"/>
<line x1="317.6" y1="90.5" x2="276.8" y2="62.1" opacity="0.6" stroke="rgb(0,0,0)"  stroke-width="1.2"/>
<line x1="317.6" y1="90.5" x2="317.7" y2="111.5" opacity="0.4" stroke="rgb(0,0,0)"  stroke-width="1.8"/>
<line x1="317.6" y1="90.5" x2="316.7" y2="112.1" opacity="0.6" stroke="rgb(0,0,0)"  stroke-width="0.7"/>
<line x1="443.2" y1="63.4" x2="485.2" y2="90.2" opacity="0.2" stroke="rgb(0,0,0)"  stroke-width="1.4"/>
<line x1="443.2" y1="63.4" x2="441.9" y2="42.6" opacity="0.5" stroke="rgb(0,0,0)"  stroke-width="1.9"/>
<line x1="443.2" y1="63.4" x2="444.1" y2="41.6" opacity="0.6" stroke="rgb(0,0,0)"  stroke-width="0.8"/>
<line x1="276.8" y1="62.1" x2="235.5" y2="89.8" opacity="0.3" stroke="rgb(0,0,0)"  stroke-width="1.3"/>
<line x1="276.8" y1="62.1" x2="276.4" y2="41.2" opacity="0.4" stroke="rgb(0,0,0)"  stroke-width="0.7"/>
<line x1="276.8" y1="62.1" x2="277.7" y2="40.6" opacity="0.2" stroke="rgb(0,0,0)"  stroke-width="1.8"/>
<line x1="485.2" y1="90.2" x2="527.4" y2="64.0" opacity="0.6" stroke="rgb(0,0,0)"  stroke-width="1.5"/>
<line x1="485.2" y1="90.2" x2="486.7" y2="110.1" opacity="0.5" stroke="rgb(0,0,0)"  stroke-width="0.8"/>
<line x1="485.2" y1="90.2" x2="483.4" y2="113.1" opacity="0.3" stroke="rgb(0,0,0)"  stroke-width="1.9"/>
<line x1="235.5" y1="89.8" x2="193.6" y2="62.8" opacity="0.6" stroke="rgb(0,0,0)"  stroke-width="1.3"/>
<line x1="235.5" y1="89.8" x2="236.6" y2="111.2" opacity="0.4" stroke="rgb(0,0,0)"  stroke-width="1.9"/>
<line x1="235.5" y1="89.8" x2="234.5" y2="110.9" opacity="0.6" stroke="rgb(0,0,0)"  stroke-width="0.7"/>
<line x1="527.4" y1="64.0" x2="568.3" y2="92.3" opacity="0.2" stroke="rgb(0,0,0)"  stroke-width="1.5"/>
<line x1="527.4" y1="64.0" x2="528.6" y2="40.0" opacity="0.5" stroke="rgb(0,0,0)"  stroke-width="1.0"/>
<line x1="527.4" y1="64.0" x2="527.0" y2="45.7" opacity="0.3" stroke="rgb(0,0,0)"  stroke-width="2.2"/>
<line x1="193.6" y1="62.8" x2="151.2" y2="88.8" opacity="0.7" stroke="rgb(0,0,0)"  stroke-width="1.4"/>
<line x1="193.6" y1="62.8" x2="192.5" y2="41.5" opacity="0.5" stroke="rgb(0,0,0)"  stroke-width="0.8"/>
<line x1="193.6" y1="62.8" x2="195.2" y2="41.3" opacity="0.3" stroke="rgb(0,0,0)"  stroke-width="2.0"/>
<line x1="568.3" y1="92.3" x2="610.5" y2="66.0" opacity="0.7" stroke="rgb(0,0,0)"  stroke-width="1.5"/>
<line x1="568.3" y1="92.3" x2="568.1" y2="111.3" opacity="0.5" stroke="rgb(0,0,0)"  stroke-width="0.9"/>
<line x1="568.3" y1="92.3" x2="567.6" y2="115.6" opacity="0.3" stroke="rgb(0,0,0)"  stroke-width="2.0"/>
<line x1="151.2" y1="88.8" x2="109.6" y2="61.8" opacity="0.7" stroke="rgb(0,0,0)"  stroke-width="1.5"/>
<line x1="151.2" y1="88.8" x2="148.9" y2="109.3" opacity="0.5" stroke="rgb(0,0,0)"  stroke-width="0.9"/>
<line x1="151.2" y1="88.8" x2="153.0" y2="111.0" opacity="0.3" stroke="rgb(0,0,0)"  stroke-width="2.0"/>
<line x1="610.5" y1="66.0" x2="651.3" y2="94.0" opacity="0.7" stroke="rgb(0,0,0)"  stroke-width="1.5"/>
<line x1="610.5" y1="66.0" x2="610.7" y2="46.0" opacity="0.5" stroke="rgb(0,0,0)"  stroke-width="2.2"/>
<line x1="610.5" y1="66.0" x2="611.7" y2="42.9" opacity="0.7" stroke="rgb(0,0,0)"  stroke-width="1.0"/>
<line x1="109.6" y1="61.8" x2="68.7" y2="89.2" opacity="0.3" stroke="rgb(0,0,0)"  stroke-width="1.7"/>
<line x1="109.6" y1="61.8" x2="106.4" y2="40.8" opacity="0.6" stroke="rgb(0,0,0)"  stroke-width="1.0"/>
<line x1="109.6" y1="61.8" x2="112.2" y2="40.2" opacity="0.3" stroke="rgb(0,0,0)"  stroke-width="2.2"/>
<line x1="651.3" y1="94.0" x2="652.2" y2="115.9" opacity="0.7" stroke="rgb(0,0,0)"  stroke-width="2.1"/>
<line x1="651.3" y1="94.0" x2="652.9" y2="113.4" opacity="0.7" stroke="rgb(0,0,0)"  stroke-width="0.9"/>
<line x1="68.7" y1="89.2" x2="70.3" y2="109.6" opacity="0.3" stroke="rgb(0,0,0)"  stroke-width="2.4"/>
<line x1="68.7" y1="89.2" x2="64.4" y2="110.4" opacity="0.8" stroke="rgb(0,0,0)"  stroke-width="1.2"/>
<line x1="68.7" y1="89.2" x2="40.0" y2="68.3" opacity="0.4" stroke="rgb(0,0,0)"  stroke-width="1.9"/>
<circle cx="360.419672" cy="44.139755" r="5.636364" opacity="0.200000" style="stroke:black;stroke-width:0.5;fill:url(#radialffffffbfbfbf)"/>
<circle cx="316.706716" cy="112.118897" r="5.636364" opacity="0.200000" style="stroke:black;stroke-width:0.5;fill:url(#radialffffffbfbfbf)"/>
<circle cx="276.372556" cy="41.209732" r="5.636364" opacity="0.200000" style="stroke:black;stroke-width:0.5;fill:url(#radialffffffbfbfbf)"/>
<circle cx="403.365163" cy="112.317267" r="5.636364" opacity="0.200000" style="stroke:black;stroke-width:0.5;fill:url(#radialffffffbfbfbf)"/>
<circle cx="234.519726" cy="110.899409" r="5.636364" opacity="0.217157" style="stroke:black;stroke-width:0.5;fill:url(#radialffffffbfbfbf)"/>
<circle cx="486.726114" cy="110.066905" r="5.636364" opacity="0.246438" style="stroke:black;stroke-width:0.5;fill:url(#radialffffffbfbfbf)"/>
<circle cx="444.138340" cy="41.580457" r="5.636364" opacity="0.250957" style="stroke:black;stroke-width:0.5;fill:url(#radialffffffbfbfbf)"/>
<circle cx="192.501046" cy="41.495905" r="5.636364" opacity="0.267532" style="stroke:black;stroke-width:0.5;fill:url(#radialffffffbfbfbf)"/>
<circle cx="568.096861" cy="111.331921" r="5.636364" opacity="0.286543" style="stroke:black;stroke-width:0.5;fill:url(#radialffffffbfbfbf)"/>
<circle cx="148.862885" cy="109.335213" r="5.636364" opacity="0.307250" style="stroke:black;stroke-width:0.5;fill:url(#radialffffffbfbfbf)"/>
<circle cx="652.865914" cy="113.374157" r="5.636364" opacity="0.325364" style="stroke:black;stroke-width:0.5;fill:url(#radialffffffbfbfbf)"/>
<circle cx="611.709006" cy="42.887748" r="5.636364" opacity="0.390387" style="stroke:black;stroke-width:0.5;fill:url(#radialffffffbfbfbf)"/>
<circle cx="106.382426" cy="40.796732" r="5.636364" opacity="0.392470" style="stroke:black;stroke-width:0.5;fill:url(#radialffffffbfbfbf)"/>
<circle cx="528.601708" cy="40.000000" r="5.636364" opacity="0.398488" style="stroke:black;stroke-width:0.5;fill:url(#radialffffffbfbfbf)"/>
<circle cx="64.373501" cy="110.388850" r="5.636364" opacity="0.471394" style="stroke:black;stroke-width:0.5;fill:url(#radialffffffbfbfbf)"/>
<circle cx="360.068460" cy="64.396265" r="13.818182" opacity="0.630990" style="stroke:black;stroke-width:0.5;fill:url(#radialffffff666666)"/>
<circle cx="317.646535" cy="90.542089" r="13.818182" opacity="0.641485" style="stroke:black;stroke-width:0.5;fill:url(#radialffffff666666)"/>
<circle cx="402.038360" cy="91.254270" r="13.818182" opacity="0.646583" style="stroke:black;stroke-width:0.5;fill:url(#radialffffff666666)"/>
<circle cx="276.831083" cy="62.051596" r="13.818182" opacity="0.647264" style="stroke:black;stroke-width:0.5;fill:url(#radialffffff666666)"/>
<circle cx="235.505072" cy="89.758364" r="13.818182" opacity="0.660575" style="stroke:black;stroke-width:0.5;fill:url(#radialffffff666666)"/>
<circle cx="443.205025" cy="63.355635" r="13.818182" opacity="0.667577" style="stroke:black;stroke-width:0.5;fill:url(#radialffffff666666)"/>
<circle cx="193.648990" cy="62.793045" r="13.818182" opacity="0.677732" style="stroke:black;stroke-width:0.5;fill:url(#radialffffff666666)"/>
<circle cx="485.178178" cy="90.216892" r="13.818182" opacity="0.679843" style="stroke:black;stroke-width:0.5;fill:url(#radialffffff666666)"/>
<circle cx="151.171783" cy="88.766514" r="13.818182" opacity="0.698831" style="stroke:black;stroke-width:0.5;fill:url(#radialffffff666666)"/>
<circle cx="568.340759" cy="92.268884" r="13.818182" opacity="0.700532" style="stroke:black;stroke-width:0.5;fill:url(#radialffffff666666)"/>
<circle cx="651.327733" cy="94.031451" r="14.101975" opacity="0.714331" style="stroke:black;stroke-width:0.5;fill:url(#radialffffff666666)"/>
<circle cx="527.404984" cy="64.002777" r="14.261533" opacity="0.718361" style="stroke:black;stroke-width:0.5;fill:url(#radialffffff666666)"/>
<circle cx="610.505777" cy="66.009241" r="14.384551" opacity="0.721452" style="stroke:black;stroke-width:0.5;fill:url(#radialffffff666666)"/>
<circle cx="713.872837" cy="85.023499" r="5.912096" opacity="0.724196" style="stroke:black;stroke-width:0.5;fill:url(#radialffffffbfbfbf)"/>
<circle cx="688.344887" cy="66.366958" r="12.757338" opacity="0.729079" style="stroke:black;stroke-width:0.5;fill:url(#radialffffffffcc)"/>
<circle cx="109.569354" cy="61.762171" r="14.991113" opacity="0.736506" style="stroke:black;stroke-width:0.5;fill:url(#radialffffff666666)"/>
<circle cx="68.679107" cy="89.173010" r="16.723106" opacity="0.777890" style="stroke:black;stroke-width:0.5;fill:url(#radialffffff666666)"/>
<circle cx="40.000000" cy="68.259603" r="7.226171" opacity="0.800644" style="stroke:black;stroke-width:0.5;fill:url(#radialffffffbfbfbf)"/>
<circle cx="360.068460" cy="41.902401" r="8.721583" opacity="0.879596" style="stroke:black;stroke-width:0.5;fill:url(#radialffffffbfbfbf)"/>
<circle cx="317.705071" cy="111.510779" r="9.048488" opacity="0.895929" style="stroke:black;stroke-width:0.5;fill:url(#radialffffffbfbfbf)"/>
<circle cx="401.092038" cy="112.730267" r="9.061902" opacity="0.896593" style="stroke:black;stroke-width:0.5;fill:url(#radialffffffbfbfbf)"/>
<circle cx="277.686351" cy="40.565842" r="9.068857" opacity="0.896937" style="stroke:black;stroke-width:0.5;fill:url(#radialffffffbfbfbf)"/>
<circle cx="236.555458" cy="111.175827" r="9.274538" opacity="0.907051" style="stroke:black;stroke-width:0.5;fill:url(#radialffffffbfbfbf)"/>
<circle cx="483.435123" cy="113.078228" r="9.387812" opacity="0.912573" style="stroke:black;stroke-width:0.5;fill:url(#radialffffffbfbfbf)"/>
<circle cx="441.874970" cy="42.604826" r="9.451404" opacity="0.915659" style="stroke:black;stroke-width:0.5;fill:url(#radialffffffbfbfbf)"/>
<circle cx="195.164408" cy="41.291031" r="9.522946" opacity="0.919118" style="stroke:black;stroke-width:0.5;fill:url(#radialffffffbfbfbf)"/>
<circle cx="567.609066" cy="115.621267" r="9.650130" opacity="0.925235" style="stroke:black;stroke-width:0.5;fill:url(#radialffffffbfbfbf)"/>
<circle cx="153.018901" cy="110.980708" r="9.763404" opacity="0.930649" style="stroke:black;stroke-width:0.5;fill:url(#radialffffffbfbfbf)"/>
<circle cx="652.231781" cy="115.878172" r="10.043111" opacity="0.943886" style="stroke:black;stroke-width:0.5;fill:url(#radialffffffbfbfbf)"/>
<circle cx="610.717155" cy="45.999881" r="10.382932" opacity="0.959722" style="stroke:black;stroke-width:0.5;fill:url(#radialffffffbfbfbf)"/>
<circle cx="112.200196" cy="40.237394" r="10.438575" opacity="0.962290" style="stroke:black;stroke-width:0.5;fill:url(#radialffffffbfbfbf)"/>
<circle cx="526.988732" cy="45.694196" r="10.492728" opacity="0.964783" style="stroke:black;stroke-width:0.5;fill:url(#radialffffffbfbfbf)"/>
<circle cx="70.272571" cy="109.553094" r="11.272727" opacity="1.000000" style="stroke:black;stroke-width:0.5;fill:url(#radialffffffbfbfbf)"/>
</svg>
</g>
</svg>
