<?xml version="1.0"?>
<svg version="1.1" id="topsvg"
xmlns="http://www.w3.org/2000/svg" xmlns:xlink="http://www.w3.org/1999/xlink"
xmlns:cml="http://www.xml-cml.org/schema" x="0" y="0" width="1024px" height="1024px" viewBox="0 0 100 100">
<title>12500 - Open Babel Depiction</title>
<rect x="0" y="0" width="100" height="100" fill="white"/>
<defs>
<radialGradient id='radialffffff666666' cx='50%' cy='50%' r='50%' fx='30%' fy='30%'>
  <stop offset=' 0%' stop-color="rgb(255,255,255)"  stop-opacity='1.0'/>
  <stop offset='100%' stop-color="rgb(102,102,102)"  stop-opacity ='1.0'/>
</radialGradient>
<radialGradient id='radialffffffbfbfbf' cx='50%' cy='50%' r='50%' fx='30%' fy='30%'>
  <stop offset=' 0%' stop-color="rgb(255,255,255)"  stop-opacity='1.0'/>
  <stop offset='100%' stop-color="rgb(191,191,191)"  stop-opacity ='1.0'/>
</radialGradient>
</defs>
<g transform="translate(0,0)">
<svg width="100" height="100" x="0" y="0" viewBox="0 0 343.5 231.486"
font-family="sans-serif" stroke="rgb(0,0,0)" stroke-width="2"  stroke-linecap="round">
<line x1="162.6" y1="124.1" x2="208.6" y2="133.0" opacity="1.0" stroke="rgb(0,0,0)"  stroke-width="2.1"/>
<line x1="147.8" y1="81.6" x2="169.5" y2="54.2" opacity="0.7" stroke="rgb(0,0,0)"  stroke-width="2.1"/>
<line x1="133.2" y1="158.1" x2="144.1" y2="191.5" opacity="0.7" stroke="rgb(0,0,0)"  stroke-width="1.8"/>
<line x1="206.6" y1="130.8" x2="238.6" y2="102.7" opacity="0.6" stroke="rgb(0,0,0)"  stroke-width="1.9"/>
<line x1="210.6" y1="135.3" x2="242.6" y2="107.3" opacity="0.6" stroke="rgb(0,0,0)"  stroke-width="1.9"/>
<line x1="208.6" y1="133.0" x2="217.3" y2="165.4" opacity="0.6" stroke="rgb(0,0,0)"  stroke-width="2.4"/>
<line x1="103.7" y1="73.1" x2="92.2" y2="40.0" opacity="0.8" stroke="rgb(0,0,0)"  stroke-width="1.9"/>
<line x1="89.1" y1="149.6" x2="66.2" y2="176.1" opacity="0.6" stroke="rgb(0,0,0)"  stroke-width="1.7"/>
<line x1="74.3" y1="107.1" x2="40.0" y2="100.4" opacity="0.6" stroke="rgb(0,0,0)"  stroke-width="1.7"/>
<line x1="240.6" y1="105.0" x2="287.5" y2="115.7" opacity="0.6" stroke="rgb(0,0,0)"  stroke-width="1.7"/>
<line x1="240.6" y1="105.0" x2="233.6" y2="72.6" opacity="0.6" stroke="rgb(0,0,0)"  stroke-width="1.3"/>
<line x1="287.5" y1="115.7" x2="302.6" y2="111.9" opacity="0.4" stroke="rgb(0,0,0)"  stroke-width="0.9"/>
<line x1="287.5" y1="115.7" x2="303.5" y2="93.7" opacity="0.3" stroke="rgb(0,0,0)"  stroke-width="2.4"/>
<line x1="287.5" y1="115.7" x2="293.1" y2="148.8" opacity="0.8" stroke="rgb(0,0,0)"  stroke-width="2.1"/>
<line x1="160.3" y1="122.2" x2="130.9" y2="156.2" opacity="0.6" stroke="rgb(0,0,0)"  stroke-width="1.9"/>
<line x1="164.8" y1="126.1" x2="135.5" y2="160.1" opacity="0.6" stroke="rgb(0,0,0)"  stroke-width="1.9" stroke-dasharray="5.0,5.0"/>
<line x1="133.8" y1="155.2" x2="89.6" y2="146.7" opacity="0.6" stroke="rgb(0,0,0)"  stroke-width="1.8"/>
<line x1="132.6" y1="161.1" x2="88.5" y2="152.5" opacity="0.6" stroke="rgb(0,0,0)"  stroke-width="1.8" stroke-dasharray="5.0,5.0"/>
<line x1="91.9" y1="148.6" x2="77.2" y2="106.1" opacity="0.6" stroke="rgb(0,0,0)"  stroke-width="1.7"/>
<line x1="86.2" y1="150.6" x2="71.5" y2="108.1" opacity="0.6" stroke="rgb(0,0,0)"  stroke-width="1.7" stroke-dasharray="5.0,5.0"/>
<line x1="76.6" y1="109.0" x2="106.0" y2="75.1" opacity="0.6" stroke="rgb(0,0,0)"  stroke-width="1.8"/>
<line x1="72.1" y1="105.1" x2="101.5" y2="71.1" opacity="0.6" stroke="rgb(0,0,0)"  stroke-width="1.8" stroke-dasharray="5.0,5.0"/>
<line x1="103.2" y1="76.0" x2="147.3" y2="84.6" opacity="0.6" stroke="rgb(0,0,0)"  stroke-width="1.9"/>
<line x1="104.3" y1="70.1" x2="148.4" y2="78.7" opacity="0.6" stroke="rgb(0,0,0)"  stroke-width="1.9" stroke-dasharray="5.0,5.0"/>
<line x1="145.0" y1="82.6" x2="159.7" y2="125.1" opacity="0.7" stroke="rgb(0,0,0)"  stroke-width="2.0"/>
<line x1="150.7" y1="80.6" x2="165.4" y2="123.2" opacity="0.7" stroke="rgb(0,0,0)"  stroke-width="2.0" stroke-dasharray="5.0,5.0"/>
<circle cx="302.629045" cy="111.902653" r="5.636364" opacity="0.200000" style="stroke:black;stroke-width:0.5;fill:url(#radialffffffbfbfbf)"/>
<circle cx="233.594240" cy="72.562492" r="5.636364" opacity="0.570864" style="stroke:black;stroke-width:0.5;fill:url(#radialffffffbfbfbf)"/>
<circle cx="240.607402" cy="105.002398" r="14.705015" opacity="0.729445" style="stroke:black;stroke-width:0.5;fill:url(#radialffffff666666)"/>
<circle cx="66.191289" cy="176.056633" r="6.026903" opacity="0.731194" style="stroke:black;stroke-width:0.5;fill:url(#radialffffffbfbfbf)"/>
<circle cx="40.000000" cy="100.437714" r="6.066426" opacity="0.733588" style="stroke:black;stroke-width:0.5;fill:url(#radialffffffbfbfbf)"/>
<circle cx="89.079230" cy="149.600818" r="15.772500" opacity="0.755457" style="stroke:black;stroke-width:0.5;fill:url(#radialffffff666666)"/>
<circle cx="74.349655" cy="107.079894" r="15.815200" opacity="0.756479" style="stroke:black;stroke-width:0.5;fill:url(#radialffffff666666)"/>
<circle cx="287.531714" cy="115.664082" r="16.130518" opacity="0.763983" style="stroke:black;stroke-width:0.5;fill:url(#radialffffff666666)"/>
<circle cx="144.068356" cy="191.486235" r="6.907124" opacity="0.782770" style="stroke:black;stroke-width:0.5;fill:url(#radialffffffbfbfbf)"/>
<circle cx="133.193761" cy="158.136617" r="17.009141" opacity="0.784514" style="stroke:black;stroke-width:0.5;fill:url(#radialffffff666666)"/>
<circle cx="103.731384" cy="73.094769" r="17.094539" opacity="0.786481" style="stroke:black;stroke-width:0.5;fill:url(#radialffffff666666)"/>
<circle cx="92.227734" cy="40.000000" r="7.017655" opacity="0.789008" style="stroke:black;stroke-width:0.5;fill:url(#radialffffffbfbfbf)"/>
<circle cx="162.578716" cy="124.148266" r="18.288480" opacity="0.813483" style="stroke:black;stroke-width:0.5;fill:url(#radialffffff666666)"/>
<circle cx="147.845915" cy="81.627342" r="18.329537" opacity="0.814395" style="stroke:black;stroke-width:0.5;fill:url(#radialffffff666666)"/>
<circle cx="208.583640" cy="133.038917" r="19.580958" opacity="0.841737" style="stroke:black;stroke-width:0.5;fill:url(#radialffffff666666)"/>
<circle cx="169.462841" cy="54.174717" r="8.008406" opacity="0.842866" style="stroke:black;stroke-width:0.5;fill:url(#radialffffffbfbfbf)"/>
<circle cx="293.073854" cy="148.755626" r="8.860492" opacity="0.886573" style="stroke:black;stroke-width:0.5;fill:url(#radialffffffbfbfbf)"/>
<circle cx="217.342027" cy="165.449790" r="10.113166" opacity="0.947172" style="stroke:black;stroke-width:0.5;fill:url(#radialffffffbfbfbf)"/>
<circle cx="303.500045" cy="93.747144" r="11.272727" opacity="1.000000" style="stroke:black;stroke-width:0.5;fill:url(#radialffffffbfbfbf)"/>
</svg>
</g>
</svg>
