<?xml version="1.0"?>
<svg version="1.1" id="topsvg"
xmlns="http://www.w3.org/2000/svg" xmlns:xlink="http://www.w3.org/1999/xlink"
xmlns:cml="http://www.xml-cml.org/schema" x="0" y="0" width="200px" height="200px" viewBox="0 0 100 100">
<title>12724 - Open Babel Depiction</title>
<rect x="0" y="0" width="100" height="100" fill="white"/>
<defs>
<radialGradient id='radialffffff666666' cx='50%' cy='50%' r='50%' fx='30%' fy='30%'>
  <stop offset=' 0%' stop-color="rgb(255,255,255)"  stop-opacity='1.0'/>
  <stop offset='100%' stop-color="rgb(102,102,102)"  stop-opacity ='1.0'/>
</radialGradient>
<radialGradient id='radialffffffbfbfbf' cx='50%' cy='50%' r='50%' fx='30%' fy='30%'>
  <stop offset=' 0%' stop-color="rgb(255,255,255)"  stop-opacity='1.0'/>
  <stop offset='100%' stop-color="rgb(191,191,191)"  stop-opacity ='1.0'/>
</radialGradient>
</defs>
<g transform="translate(0,0)">
<svg width="100" height="100" x="0" y="0" viewBox="0 0 297.618 208.616"
font-family="sans-serif" stroke="rgb(0,0,0)" stroke-width="4"  stroke-linecap="round">
<line x1="186.0" y1="107.6" x2="145.4" y2="134.2" opacity="1.0" stroke="rgb(0,0,0)"  stroke-width="1.6"/>
<line x1="186.0" y1="107.6" x2="180.4" y2="58.8" opacity="0.5" stroke="rgb(0,0,0)"  stroke-width="1.6"/>
<line x1="186.0" y1="107.6" x2="229.1" y2="125.3" opacity="0.5" stroke="rgb(0,0,0)"  stroke-width="1.5"/>
<line x1="186.0" y1="107.6" x2="188.5" y2="109.9" opacity="0.5" stroke="rgb(0,0,0)"  stroke-width="2.4"/>
<line x1="145.4" y1="134.2" x2="102.6" y2="116.5" opacity="0.8" stroke="rgb(0,0,0)"  stroke-width="1.6"/>
<line x1="145.4" y1="134.2" x2="148.9" y2="168.6" opacity="0.5" stroke="rgb(0,0,0)"  stroke-width="1.5"/>
<line x1="145.4" y1="134.2" x2="144.6" y2="134.9" opacity="0.5" stroke="rgb(0,0,0)"  stroke-width="0.8"/>
<line x1="180.4" y1="58.8" x2="210.1" y2="40.0" opacity="0.3" stroke="rgb(0,0,0)"  stroke-width="1.6"/>
<line x1="180.4" y1="58.8" x2="152.8" y2="43.4" opacity="0.5" stroke="rgb(0,0,0)"  stroke-width="1.7"/>
<line x1="180.4" y1="58.8" x2="174.8" y2="54.7" opacity="0.6" stroke="rgb(0,0,0)"  stroke-width="0.9"/>
<line x1="229.1" y1="125.3" x2="228.9" y2="123.1" opacity="0.3" stroke="rgb(0,0,0)"  stroke-width="0.6"/>
<line x1="229.1" y1="125.3" x2="257.6" y2="106.7" opacity="0.2" stroke="rgb(0,0,0)"  stroke-width="1.4"/>
<line x1="229.1" y1="125.3" x2="233.9" y2="160.1" opacity="0.5" stroke="rgb(0,0,0)"  stroke-width="1.3"/>
<line x1="101.2" y1="119.2" x2="68.9" y2="102.5" opacity="0.4" stroke="rgb(0,0,0)"  stroke-width="1.5"/>
<line x1="103.9" y1="113.8" x2="71.6" y2="97.2" opacity="0.4" stroke="rgb(0,0,0)"  stroke-width="1.5"/>
<line x1="102.6" y1="116.5" x2="97.9" y2="117.6" opacity="0.5" stroke="rgb(0,0,0)"  stroke-width="2.4"/>
<line x1="70.2" y1="99.9" x2="40.0" y2="87.7" opacity="0.8" stroke="rgb(0,0,0)"  stroke-width="1.3"/>
<line x1="70.2" y1="99.9" x2="73.3" y2="98.0" opacity="0.4" stroke="rgb(0,0,0)"  stroke-width="0.6"/>
<circle cx="73.287572" cy="98.022570" r="5.636364" opacity="0.200000" style="stroke:black;stroke-width:0.5;fill:url(#radialffffffbfbfbf)"/>
<circle cx="228.940458" cy="123.068450" r="5.636364" opacity="0.200000" style="stroke:black;stroke-width:0.5;fill:url(#radialffffffbfbfbf)"/>
<circle cx="144.562333" cy="134.948128" r="5.636364" opacity="0.263785" style="stroke:black;stroke-width:0.5;fill:url(#radialffffffbfbfbf)"/>
<circle cx="174.807226" cy="54.700771" r="5.636364" opacity="0.331500" style="stroke:black;stroke-width:0.5;fill:url(#radialffffffbfbfbf)"/>
<circle cx="70.228357" cy="99.858099" r="13.818182" opacity="0.608153" style="stroke:black;stroke-width:0.5;fill:url(#radialffffff666666)"/>
<circle cx="229.125665" cy="125.337230" r="13.818182" opacity="0.634036" style="stroke:black;stroke-width:0.5;fill:url(#radialffffff666666)"/>
<circle cx="145.415606" cy="134.161000" r="13.818182" opacity="0.667611" style="stroke:black;stroke-width:0.5;fill:url(#radialffffff666666)"/>
<circle cx="180.396495" cy="58.791851" r="13.818182" opacity="0.691718" style="stroke:black;stroke-width:0.5;fill:url(#radialffffff666666)"/>
<circle cx="233.858354" cy="160.089919" r="5.636364" opacity="0.703924" style="stroke:black;stroke-width:0.5;fill:url(#radialffffffbfbfbf)"/>
<circle cx="40.000000" cy="87.680768" r="5.918433" opacity="0.724584" style="stroke:black;stroke-width:0.5;fill:url(#radialffffffbfbfbf)"/>
<circle cx="257.617710" cy="106.680977" r="5.969824" opacity="0.727723" style="stroke:black;stroke-width:0.5;fill:url(#radialffffffbfbfbf)"/>
<circle cx="148.881615" cy="168.616035" r="6.288987" opacity="0.746923" style="stroke:black;stroke-width:0.5;fill:url(#radialffffffbfbfbf)"/>
<circle cx="210.138685" cy="40.000000" r="6.409929" opacity="0.754071" style="stroke:black;stroke-width:0.5;fill:url(#radialffffffbfbfbf)"/>
<circle cx="186.008916" cy="107.564015" r="16.756689" opacity="0.778670" style="stroke:black;stroke-width:0.5;fill:url(#radialffffff666666)"/>
<circle cx="102.573360" cy="116.500232" r="17.434004" opacity="0.794252" style="stroke:black;stroke-width:0.5;fill:url(#radialffffff666666)"/>
<circle cx="152.817254" cy="43.442858" r="7.464405" opacity="0.813735" style="stroke:black;stroke-width:0.5;fill:url(#radialffffffbfbfbf)"/>
<circle cx="188.469517" cy="109.882404" r="11.058664" opacity="0.990460" style="stroke:black;stroke-width:0.5;fill:url(#radialffffffbfbfbf)"/>
<circle cx="97.870436" cy="117.644544" r="11.272727" opacity="1.000000" style="stroke:black;stroke-width:0.5;fill:url(#radialffffffbfbfbf)"/>
</svg>
</g>
</svg>
