<?xml version="1.0"?>
<svg version="1.1" id="topsvg"
xmlns="http://www.w3.org/2000/svg" xmlns:xlink="http://www.w3.org/1999/xlink"
xmlns:cml="http://www.xml-cml.org/schema" x="0" y="0" width="1024px" height="1024px" viewBox="0 0 100 100">
<title>13024 - Open Babel Depiction</title>
<rect x="0" y="0" width="100" height="100" fill="white"/>
<defs>
<radialGradient id='radialffffff666666' cx='50%' cy='50%' r='50%' fx='30%' fy='30%'>
  <stop offset=' 0%' stop-color="rgb(255,255,255)"  stop-opacity='1.0'/>
  <stop offset='100%' stop-color="rgb(102,102,102)"  stop-opacity ='1.0'/>
</radialGradient>
<radialGradient id='radialffffffbfbfbf' cx='50%' cy='50%' r='50%' fx='30%' fy='30%'>
  <stop offset=' 0%' stop-color="rgb(255,255,255)"  stop-opacity='1.0'/>
  <stop offset='100%' stop-color="rgb(191,191,191)"  stop-opacity ='1.0'/>
</radialGradient>
</defs>
<g transform="translate(0,0)">
<svg width="100" height="100" x="0" y="0" viewBox="0 0 299.334 246.308"
font-family="sans-serif" stroke="rgb(0,0,0)" stroke-width="2"  stroke-linecap="round">
<line x1="95.5" y1="101.4" x2="74.4" y2="72.7" opacity="1.0" stroke="rgb(0,0,0)"  stroke-width="1.5"/>
<line x1="93.3" y1="99.8" x2="94.6" y2="98.8" opacity="0.5" stroke="rgb(0,0,0)"  stroke-width="1.0"/>
<line x1="91.6" y1="98.5" x2="93.9" y2="96.8" opacity="0.5" stroke="rgb(0,0,0)"  stroke-width="1.0"/>
<line x1="89.9" y1="97.2" x2="93.3" y2="94.8" opacity="0.5" stroke="rgb(0,0,0)"  stroke-width="1.0"/>
<line x1="88.2" y1="96.0" x2="92.6" y2="92.8" opacity="0.5" stroke="rgb(0,0,0)"  stroke-width="1.0"/>
<line x1="86.5" y1="94.7" x2="91.9" y2="90.8" opacity="0.5" stroke="rgb(0,0,0)"  stroke-width="1.0"/>
<line x1="84.8" y1="93.4" x2="91.2" y2="88.7" opacity="0.5" stroke="rgb(0,0,0)"  stroke-width="1.0"/>
<line x1="82.9" y1="147.2" x2="50.6" y2="158.2" opacity="0.5" stroke="rgb(0,0,0)"  stroke-width="1.1"/>
<line x1="116.0" y1="172.6" x2="115.4" y2="206.3" opacity="0.4" stroke="rgb(0,0,0)"  stroke-width="1.5"/>
<line x1="74.4" y1="72.7" x2="81.7" y2="82.4" opacity="0.5" stroke="rgb(0,0,0)"  stroke-width="2.5"/>
<line x1="74.4" y1="72.7" x2="85.0" y2="40.0" opacity="0.8" stroke="rgb(0,0,0)"  stroke-width="1.9"/>
<line x1="74.4" y1="72.7" x2="40.0" y2="73.2" opacity="0.6" stroke="rgb(0,0,0)"  stroke-width="1.9"/>
<line x1="172.8" y1="72.9" x2="164.2" y2="40.3" opacity="0.6" stroke="rgb(0,0,0)"  stroke-width="1.0"/>
<line x1="195.6" y1="158.2" x2="204.5" y2="190.8" opacity="0.3" stroke="rgb(0,0,0)"  stroke-width="1.7"/>
<line x1="215.0" y1="84.2" x2="239.4" y2="60.1" opacity="0.6" stroke="rgb(0,0,0)"  stroke-width="1.3"/>
<line x1="226.3" y1="126.5" x2="259.3" y2="134.6" opacity="0.4" stroke="rgb(0,0,0)"  stroke-width="1.6"/>
<line x1="144.7" y1="106.5" x2="175.0" y2="75.0" opacity="0.4" stroke="rgb(0,0,0)"  stroke-width="1.1"/>
<line x1="140.4" y1="102.4" x2="170.6" y2="70.8" opacity="0.4" stroke="rgb(0,0,0)"  stroke-width="1.1" stroke-dasharray="5.0,5.0"/>
<line x1="172.0" y1="75.8" x2="214.2" y2="87.1" opacity="0.4" stroke="rgb(0,0,0)"  stroke-width="1.2"/>
<line x1="173.6" y1="70.0" x2="215.8" y2="81.4" opacity="0.4" stroke="rgb(0,0,0)"  stroke-width="1.2" stroke-dasharray="5.0,5.0"/>
<line x1="212.1" y1="85.0" x2="223.4" y2="127.3" opacity="0.5" stroke="rgb(0,0,0)"  stroke-width="1.4"/>
<line x1="217.9" y1="83.5" x2="229.2" y2="125.7" opacity="0.5" stroke="rgb(0,0,0)"  stroke-width="1.4" stroke-dasharray="5.0,5.0"/>
<line x1="224.1" y1="124.4" x2="193.4" y2="156.1" opacity="0.5" stroke="rgb(0,0,0)"  stroke-width="1.6"/>
<line x1="228.5" y1="128.6" x2="197.7" y2="160.3" opacity="0.5" stroke="rgb(0,0,0)"  stroke-width="1.6" stroke-dasharray="5.0,5.0"/>
<line x1="196.4" y1="155.3" x2="154.7" y2="143.8" opacity="0.5" stroke="rgb(0,0,0)"  stroke-width="1.5"/>
<line x1="194.8" y1="161.1" x2="153.1" y2="149.5" opacity="0.5" stroke="rgb(0,0,0)"  stroke-width="1.5" stroke-dasharray="5.0,5.0"/>
<line x1="156.8" y1="145.9" x2="145.4" y2="103.7" opacity="0.4" stroke="rgb(0,0,0)"  stroke-width="1.3"/>
<line x1="151.0" y1="147.4" x2="139.7" y2="105.2" opacity="0.4" stroke="rgb(0,0,0)"  stroke-width="1.3" stroke-dasharray="5.0,5.0"/>
<line x1="142.5" y1="104.4" x2="95.5" y2="101.4" opacity="0.4" stroke="rgb(0,0,0)"  stroke-width="1.1"/>
<line x1="95.5" y1="101.4" x2="82.9" y2="147.2" opacity="0.4" stroke="rgb(0,0,0)"  stroke-width="1.1"/>
<line x1="82.9" y1="147.2" x2="116.0" y2="172.6" opacity="0.4" stroke="rgb(0,0,0)"  stroke-width="1.1"/>
<line x1="92.0" y1="145.2" x2="115.7" y2="163.3" opacity="0.4" stroke="rgb(0,0,0)"  stroke-width="1.1"/>
<line x1="116.0" y1="172.6" x2="153.9" y2="146.7" opacity="0.4" stroke="rgb(0,0,0)"  stroke-width="1.4"/>
<circle cx="87.990878" cy="91.092770" r="5.636364" opacity="0.200000" style="stroke:black;stroke-width:0.5;fill:url(#radialffffffbfbfbf)"/>
<circle cx="164.217816" cy="40.265335" r="5.636364" opacity="0.559030" style="stroke:black;stroke-width:0.5;fill:url(#radialffffffbfbfbf)"/>
<circle cx="95.467638" cy="101.361864" r="13.818182" opacity="0.576062" style="stroke:black;stroke-width:0.5;fill:url(#radialffffff666666)"/>
<circle cx="50.584969" cy="158.184605" r="5.636364" opacity="0.606609" style="stroke:black;stroke-width:0.5;fill:url(#radialffffffbfbfbf)"/>
<circle cx="172.806456" cy="72.901533" r="13.818182" opacity="0.610646" style="stroke:black;stroke-width:0.5;fill:url(#radialffffff666666)"/>
<circle cx="82.880022" cy="147.233221" r="13.818182" opacity="0.623724" style="stroke:black;stroke-width:0.5;fill:url(#radialffffff666666)"/>
<circle cx="142.548796" cy="104.435327" r="13.818182" opacity="0.624220" style="stroke:black;stroke-width:0.5;fill:url(#radialffffff666666)"/>
<circle cx="239.430796" cy="60.149662" r="5.636364" opacity="0.651518" style="stroke:black;stroke-width:0.5;fill:url(#radialffffffbfbfbf)"/>
<circle cx="215.007346" cy="84.247760" r="13.818182" opacity="0.659980" style="stroke:black;stroke-width:0.5;fill:url(#radialffffff666666)"/>
<circle cx="116.040572" cy="172.632724" r="13.818182" opacity="0.680999" style="stroke:black;stroke-width:0.5;fill:url(#radialffffff666666)"/>
<circle cx="153.857119" cy="146.652011" r="13.818182" opacity="0.681978" style="stroke:black;stroke-width:0.5;fill:url(#radialffffff666666)"/>
<circle cx="226.299875" cy="126.521302" r="14.159533" opacity="0.715787" style="stroke:black;stroke-width:0.5;fill:url(#radialffffff666666)"/>
<circle cx="115.443568" cy="206.308151" r="5.788440" opacity="0.716583" style="stroke:black;stroke-width:0.5;fill:url(#radialffffffbfbfbf)"/>
<circle cx="195.590514" cy="158.181446" r="14.576889" opacity="0.726260" style="stroke:black;stroke-width:0.5;fill:url(#radialffffff666666)"/>
<circle cx="259.334075" cy="134.636129" r="6.313461" opacity="0.748375" style="stroke:black;stroke-width:0.5;fill:url(#radialffffffbfbfbf)"/>
<circle cx="204.504505" cy="190.770263" r="6.610643" opacity="0.765786" style="stroke:black;stroke-width:0.5;fill:url(#radialffffffbfbfbf)"/>
<circle cx="40.000000" cy="73.226884" r="7.069990" opacity="0.791945" style="stroke:black;stroke-width:0.5;fill:url(#radialffffffbfbfbf)"/>
<circle cx="84.974273" cy="40.000000" r="7.074393" opacity="0.792191" style="stroke:black;stroke-width:0.5;fill:url(#radialffffffbfbfbf)"/>
<circle cx="74.398780" cy="72.740437" r="18.395159" opacity="0.815852" style="stroke:black;stroke-width:0.5;fill:url(#radialffffff666666)"/>
<circle cx="81.679697" cy="82.409368" r="11.272727" opacity="1.000000" style="stroke:black;stroke-width:0.5;fill:url(#radialffffffbfbfbf)"/>
</svg>
</g>
</svg>
