<?xml version="1.0"?>
<svg version="1.1" id="topsvg"
xmlns="http://www.w3.org/2000/svg" xmlns:xlink="http://www.w3.org/1999/xlink"
xmlns:cml="http://www.xml-cml.org/schema" x="0" y="0" width="200px" height="200px" viewBox="0 0 100 100">
<title>13190 - Open Babel Depiction</title>
<rect x="0" y="0" width="100" height="100" fill="white"/>
<defs>
<radialGradient id='radialffffff666666' cx='50%' cy='50%' r='50%' fx='30%' fy='30%'>
  <stop offset=' 0%' stop-color="rgb(255,255,255)"  stop-opacity='1.0'/>
  <stop offset='100%' stop-color="rgb(102,102,102)"  stop-opacity ='1.0'/>
</radialGradient>
<radialGradient id='radialffffffbfbfbf' cx='50%' cy='50%' r='50%' fx='30%' fy='30%'>
  <stop offset=' 0%' stop-color="rgb(255,255,255)"  stop-opacity='1.0'/>
  <stop offset='100%' stop-color="rgb(191,191,191)"  stop-opacity ='1.0'/>
</radialGradient>
</defs>
<g transform="translate(0,0)">
<svg width="100" height="100" x="0" y="0" viewBox="0 0 545.107 166.107"
font-family="sans-serif" stroke="rgb(0,0,0)" stroke-width="2"  stroke-linecap="round">
<line x1="308.9" y1="70.6" x2="266.7" y2="96.9" opacity="1.0" stroke="rgb(0,0,0)"  stroke-width="1.2"/>
<line x1="308.9" y1="70.6" x2="350.3" y2="98.6" opacity="0.4" stroke="rgb(0,0,0)"  stroke-width="1.2"/>
<line x1="308.9" y1="70.6" x2="310.3" y2="45.3" opacity="0.4" stroke="rgb(0,0,0)"  stroke-width="0.9"/>
<line x1="308.9" y1="70.6" x2="308.5" y2="53.4" opacity="0.3" stroke="rgb(0,0,0)"  stroke-width="1.8"/>
<line x1="266.7" y1="96.9" x2="226.4" y2="67.3" opacity="0.6" stroke="rgb(0,0,0)"  stroke-width="1.2"/>
<line x1="266.7" y1="96.9" x2="266.8" y2="113.8" opacity="0.4" stroke="rgb(0,0,0)"  stroke-width="0.6"/>
<line x1="266.7" y1="96.9" x2="265.2" y2="122.0" opacity="0.2" stroke="rgb(0,0,0)"  stroke-width="1.5"/>
<line x1="350.3" y1="98.6" x2="393.6" y2="74.1" opacity="0.5" stroke="rgb(0,0,0)"  stroke-width="1.3"/>
<line x1="350.3" y1="98.6" x2="350.7" y2="115.6" opacity="0.4" stroke="rgb(0,0,0)"  stroke-width="0.7"/>
<line x1="350.3" y1="98.6" x2="348.4" y2="124.1" opacity="0.2" stroke="rgb(0,0,0)"  stroke-width="1.6"/>
<line x1="226.4" y1="67.3" x2="184.2" y2="93.8" opacity="0.5" stroke="rgb(0,0,0)"  stroke-width="1.2"/>
<line x1="226.4" y1="67.3" x2="227.6" y2="42.6" opacity="0.4" stroke="rgb(0,0,0)"  stroke-width="0.8"/>
<line x1="226.4" y1="67.3" x2="226.6" y2="50.0" opacity="0.3" stroke="rgb(0,0,0)"  stroke-width="1.7"/>
<line x1="393.6" y1="74.1" x2="434.7" y2="102.4" opacity="0.6" stroke="rgb(0,0,0)"  stroke-width="1.4"/>
<line x1="393.6" y1="74.1" x2="392.5" y2="55.8" opacity="0.5" stroke="rgb(0,0,0)"  stroke-width="1.9"/>
<line x1="393.6" y1="74.1" x2="396.1" y2="49.5" opacity="0.6" stroke="rgb(0,0,0)"  stroke-width="1.0"/>
<line x1="184.2" y1="93.8" x2="142.9" y2="65.7" opacity="0.3" stroke="rgb(0,0,0)"  stroke-width="1.2"/>
<line x1="184.2" y1="93.8" x2="183.6" y2="119.2" opacity="0.4" stroke="rgb(0,0,0)"  stroke-width="1.5"/>
<line x1="184.2" y1="93.8" x2="184.0" y2="110.9" opacity="0.5" stroke="rgb(0,0,0)"  stroke-width="0.6"/>
<line x1="434.7" y1="102.4" x2="476.8" y2="76.3" opacity="0.2" stroke="rgb(0,0,0)"  stroke-width="1.4"/>
<line x1="434.7" y1="102.4" x2="435.7" y2="121.3" opacity="0.5" stroke="rgb(0,0,0)"  stroke-width="0.9"/>
<line x1="434.7" y1="102.4" x2="433.0" y2="126.1" opacity="0.3" stroke="rgb(0,0,0)"  stroke-width="1.8"/>
<line x1="142.9" y1="65.7" x2="101.6" y2="91.3" opacity="0.6" stroke="rgb(0,0,0)"  stroke-width="1.1"/>
<line x1="142.9" y1="65.7" x2="142.9" y2="49.1" opacity="0.4" stroke="rgb(0,0,0)"  stroke-width="1.7"/>
<line x1="142.9" y1="65.7" x2="143.9" y2="40.0" opacity="0.6" stroke="rgb(0,0,0)"  stroke-width="0.8"/>
<line x1="476.8" y1="76.3" x2="505.1" y2="98.2" opacity="0.3" stroke="rgb(0,0,0)"  stroke-width="1.5"/>
<line x1="476.8" y1="76.3" x2="480.2" y2="53.2" opacity="0.5" stroke="rgb(0,0,0)"  stroke-width="1.1"/>
<line x1="476.8" y1="76.3" x2="477.5" y2="57.9" opacity="0.4" stroke="rgb(0,0,0)"  stroke-width="2.0"/>
<line x1="101.7" y1="94.3" x2="69.4" y2="96.0" opacity="0.7" stroke="rgb(0,0,0)"  stroke-width="1.5"/>
<line x1="101.4" y1="88.3" x2="69.1" y2="90.0" opacity="0.7" stroke="rgb(0,0,0)"  stroke-width="1.5"/>
<line x1="101.6" y1="91.3" x2="97.8" y2="109.1" opacity="0.5" stroke="rgb(0,0,0)"  stroke-width="0.5"/>
<line x1="69.2" y1="93.0" x2="40.0" y2="111.9" opacity="0.2" stroke="rgb(0,0,0)"  stroke-width="1.9"/>
<line x1="69.2" y1="93.0" x2="71.2" y2="75.7" opacity="0.6" stroke="rgb(0,0,0)"  stroke-width="2.5"/>
<circle cx="97.791629" cy="109.065654" r="5.636364" opacity="0.200000" style="stroke:black;stroke-width:0.5;fill:url(#radialffffffbfbfbf)"/>
<circle cx="184.036282" cy="110.921783" r="5.636364" opacity="0.200000" style="stroke:black;stroke-width:0.5;fill:url(#radialffffffbfbfbf)"/>
<circle cx="266.836639" cy="113.820351" r="5.636364" opacity="0.200000" style="stroke:black;stroke-width:0.5;fill:url(#radialffffffbfbfbf)"/>
<circle cx="350.725184" cy="115.611124" r="5.636364" opacity="0.227487" style="stroke:black;stroke-width:0.5;fill:url(#radialffffffbfbfbf)"/>
<circle cx="435.728060" cy="121.313493" r="5.636364" opacity="0.347077" style="stroke:black;stroke-width:0.5;fill:url(#radialffffffbfbfbf)"/>
<circle cx="227.586695" cy="42.568517" r="5.636364" opacity="0.348785" style="stroke:black;stroke-width:0.5;fill:url(#radialffffffbfbfbf)"/>
<circle cx="143.858273" cy="40.000000" r="5.636364" opacity="0.360413" style="stroke:black;stroke-width:0.5;fill:url(#radialffffffbfbfbf)"/>
<circle cx="310.308623" cy="45.336372" r="5.636364" opacity="0.385051" style="stroke:black;stroke-width:0.5;fill:url(#radialffffffbfbfbf)"/>
<circle cx="396.099047" cy="49.548608" r="5.636364" opacity="0.416155" style="stroke:black;stroke-width:0.5;fill:url(#radialffffffbfbfbf)"/>
<circle cx="480.177127" cy="53.224921" r="5.636364" opacity="0.449799" style="stroke:black;stroke-width:0.5;fill:url(#radialffffffbfbfbf)"/>
<circle cx="101.585584" cy="91.337659" r="13.818182" opacity="0.580181" style="stroke:black;stroke-width:0.5;fill:url(#radialffffff666666)"/>
<circle cx="184.163728" cy="93.840819" r="13.818182" opacity="0.601843" style="stroke:black;stroke-width:0.5;fill:url(#radialffffff666666)"/>
<circle cx="266.689586" cy="96.883172" r="13.818182" opacity="0.610517" style="stroke:black;stroke-width:0.5;fill:url(#radialffffff666666)"/>
<circle cx="350.264419" cy="98.592249" r="13.818182" opacity="0.632108" style="stroke:black;stroke-width:0.5;fill:url(#radialffffff666666)"/>
<circle cx="142.933477" cy="65.711311" r="13.818182" opacity="0.636395" style="stroke:black;stroke-width:0.5;fill:url(#radialffffff666666)"/>
<circle cx="226.436417" cy="67.335424" r="13.818182" opacity="0.637780" style="stroke:black;stroke-width:0.5;fill:url(#radialffffff666666)"/>
<circle cx="308.890384" cy="70.550972" r="13.818182" opacity="0.654693" style="stroke:black;stroke-width:0.5;fill:url(#radialffffff666666)"/>
<circle cx="434.724835" cy="102.438488" r="13.818182" opacity="0.675192" style="stroke:black;stroke-width:0.5;fill:url(#radialffffff666666)"/>
<circle cx="393.559941" cy="74.050822" r="13.818182" opacity="0.678518" style="stroke:black;stroke-width:0.5;fill:url(#radialffffff666666)"/>
<circle cx="505.107426" cy="98.229519" r="5.636364" opacity="0.704172" style="stroke:black;stroke-width:0.5;fill:url(#radialffffffbfbfbf)"/>
<circle cx="476.824330" cy="76.344840" r="13.841073" opacity="0.707692" style="stroke:black;stroke-width:0.5;fill:url(#radialffffff666666)"/>
<circle cx="40.000000" cy="111.944615" r="6.622443" opacity="0.766469" style="stroke:black;stroke-width:0.5;fill:url(#radialffffffbfbfbf)"/>
<circle cx="183.559179" cy="119.159990" r="7.238692" opacity="0.801338" style="stroke:black;stroke-width:0.5;fill:url(#radialffffffbfbfbf)"/>
<circle cx="265.192919" cy="122.019344" r="7.369006" opacity="0.808518" style="stroke:black;stroke-width:0.5;fill:url(#radialffffffbfbfbf)"/>
<circle cx="69.224232" cy="93.007522" r="18.239124" opacity="0.812384" style="stroke:black;stroke-width:0.5;fill:url(#radialffffff666666)"/>
<circle cx="348.398487" cy="124.074812" r="7.630444" opacity="0.822736" style="stroke:black;stroke-width:0.5;fill:url(#radialffffffbfbfbf)"/>
<circle cx="433.022294" cy="126.107404" r="8.473626" opacity="0.867002" style="stroke:black;stroke-width:0.5;fill:url(#radialffffffbfbfbf)"/>
<circle cx="226.629220" cy="49.953820" r="8.478903" opacity="0.867272" style="stroke:black;stroke-width:0.5;fill:url(#radialffffffbfbfbf)"/>
<circle cx="142.887727" cy="49.149933" r="8.515034" opacity="0.869118" style="stroke:black;stroke-width:0.5;fill:url(#radialffffffbfbfbf)"/>
<circle cx="308.465565" cy="53.443866" r="8.744808" opacity="0.880766" style="stroke:black;stroke-width:0.5;fill:url(#radialffffffbfbfbf)"/>
<circle cx="392.530573" cy="55.845723" r="9.025733" opacity="0.894802" style="stroke:black;stroke-width:0.5;fill:url(#radialffffffbfbfbf)"/>
<circle cx="477.471361" cy="57.907726" r="9.452804" opacity="0.915727" style="stroke:black;stroke-width:0.5;fill:url(#radialffffffbfbfbf)"/>
<circle cx="71.247021" cy="75.701077" r="11.272727" opacity="1.000000" style="stroke:black;stroke-width:0.5;fill:url(#radialffffffbfbfbf)"/>
</svg>
</g>
</svg>
