<?xml version="1.0"?>
<svg version="1.1" id="topsvg"
xmlns="http://www.w3.org/2000/svg" xmlns:xlink="http://www.w3.org/1999/xlink"
xmlns:cml="http://www.xml-cml.org/schema" x="0" y="0" width="1024px" height="1024px" viewBox="0 0 100 100">
<title>13382 - Open Babel Depiction</title>
<rect x="0" y="0" width="100" height="100" fill="white"/>
<defs>
<radialGradient id='radialffffff666666' cx='50%' cy='50%' r='50%' fx='30%' fy='30%'>
  <stop offset=' 0%' stop-color="rgb(255,255,255)"  stop-opacity='1.0'/>
  <stop offset='100%' stop-color="rgb(102,102,102)"  stop-opacity ='1.0'/>
</radialGradient>
<radialGradient id='radialffffffb2b20' cx='50%' cy='50%' r='50%' fx='30%' fy='30%'>
  <stop offset=' 0%' stop-color="rgb(255,255,255)"  stop-opacity='1.0'/>
  <stop offset='100%' stop-color="rgb(178,178,0)"  stop-opacity ='1.0'/>
</radialGradient>
<radialGradient id='radialffffffbfbfbf' cx='50%' cy='50%' r='50%' fx='30%' fy='30%'>
  <stop offset=' 0%' stop-color="rgb(255,255,255)"  stop-opacity='1.0'/>
  <stop offset='100%' stop-color="rgb(191,191,191)"  stop-opacity ='1.0'/>
</radialGradient>
</defs>
<g transform="translate(0,0)">
<svg width="100" height="100" x="0" y="0" viewBox="0 0 550.054 161.958"
font-family="sans-serif" stroke="rgb(0,0,0)" stroke-width="2"  stroke-linecap="round">
<line x1="274.9" y1="115.8" x2="319.0" y2="77.7" opacity="1.0" stroke="rgb(0,0,0)"  stroke-width="1.5"/>
<line x1="274.9" y1="115.8" x2="231.1" y2="77.9" opacity="0.5" stroke="rgb(0,0,0)"  stroke-width="1.5"/>
<line x1="361.9" y1="101.1" x2="399.2" y2="69.2" opacity="0.5" stroke="rgb(0,0,0)"  stroke-width="1.5"/>
<line x1="361.9" y1="101.1" x2="319.0" y2="77.7" opacity="0.5" stroke="rgb(0,0,0)"  stroke-width="1.5"/>
<line x1="361.9" y1="101.1" x2="364.3" y2="121.9" opacity="0.5" stroke="rgb(0,0,0)"  stroke-width="2.2"/>
<line x1="361.9" y1="101.1" x2="364.6" y2="121.6" opacity="0.7" stroke="rgb(0,0,0)"  stroke-width="0.8"/>
<line x1="188.1" y1="101.2" x2="150.9" y2="69.2" opacity="0.3" stroke="rgb(0,0,0)"  stroke-width="1.5"/>
<line x1="188.1" y1="101.2" x2="231.1" y2="77.9" opacity="0.5" stroke="rgb(0,0,0)"  stroke-width="1.5"/>
<line x1="188.1" y1="101.2" x2="185.7" y2="122.0" opacity="0.5" stroke="rgb(0,0,0)"  stroke-width="0.8"/>
<line x1="188.1" y1="101.2" x2="185.4" y2="121.7" opacity="0.3" stroke="rgb(0,0,0)"  stroke-width="2.2"/>
<line x1="399.2" y1="69.2" x2="442.4" y2="92.2" opacity="0.7" stroke="rgb(0,0,0)"  stroke-width="1.5"/>
<line x1="399.2" y1="69.2" x2="397.2" y2="49.0" opacity="0.5" stroke="rgb(0,0,0)"  stroke-width="2.3"/>
<line x1="399.2" y1="69.2" x2="396.7" y2="47.9" opacity="0.8" stroke="rgb(0,0,0)"  stroke-width="0.8"/>
<line x1="150.9" y1="69.2" x2="107.6" y2="92.2" opacity="0.3" stroke="rgb(0,0,0)"  stroke-width="1.5"/>
<line x1="150.9" y1="69.2" x2="152.9" y2="49.0" opacity="0.5" stroke="rgb(0,0,0)"  stroke-width="0.7"/>
<line x1="150.9" y1="69.2" x2="153.4" y2="47.9" opacity="0.2" stroke="rgb(0,0,0)"  stroke-width="2.2"/>
<line x1="319.0" y1="77.7" x2="316.5" y2="57.4" opacity="0.7" stroke="rgb(0,0,0)"  stroke-width="0.8"/>
<line x1="319.0" y1="77.7" x2="316.2" y2="57.4" opacity="0.3" stroke="rgb(0,0,0)"  stroke-width="2.2"/>
<line x1="231.1" y1="77.9" x2="233.5" y2="57.5" opacity="0.7" stroke="rgb(0,0,0)"  stroke-width="2.2"/>
<line x1="231.1" y1="77.9" x2="233.8" y2="57.5" opacity="0.7" stroke="rgb(0,0,0)"  stroke-width="0.8"/>
<line x1="442.4" y1="92.2" x2="479.5" y2="60.6" opacity="0.3" stroke="rgb(0,0,0)"  stroke-width="1.5"/>
<line x1="442.4" y1="92.2" x2="445.4" y2="113.0" opacity="0.5" stroke="rgb(0,0,0)"  stroke-width="2.2"/>
<line x1="442.4" y1="92.2" x2="444.4" y2="112.8" opacity="0.7" stroke="rgb(0,0,0)"  stroke-width="0.8"/>
<line x1="107.6" y1="92.2" x2="70.6" y2="60.5" opacity="0.3" stroke="rgb(0,0,0)"  stroke-width="1.5"/>
<line x1="107.6" y1="92.2" x2="104.6" y2="113.0" opacity="0.5" stroke="rgb(0,0,0)"  stroke-width="0.8"/>
<line x1="107.6" y1="92.2" x2="105.7" y2="112.8" opacity="0.3" stroke="rgb(0,0,0)"  stroke-width="2.2"/>
<line x1="479.5" y1="60.6" x2="478.0" y2="40.1" opacity="0.7" stroke="rgb(0,0,0)"  stroke-width="0.7"/>
<line x1="479.5" y1="60.6" x2="479.1" y2="40.1" opacity="0.2" stroke="rgb(0,0,0)"  stroke-width="2.2"/>
<line x1="479.5" y1="60.6" x2="510.1" y2="77.8" opacity="0.7" stroke="rgb(0,0,0)"  stroke-width="1.4"/>
<line x1="70.6" y1="60.5" x2="72.1" y2="40.0" opacity="0.5" stroke="rgb(0,0,0)"  stroke-width="2.3"/>
<line x1="70.6" y1="60.5" x2="71.0" y2="40.1" opacity="0.8" stroke="rgb(0,0,0)"  stroke-width="0.8"/>
<line x1="70.6" y1="60.5" x2="40.0" y2="77.7" opacity="0.3" stroke="rgb(0,0,0)"  stroke-width="1.6"/>
<circle cx="152.911956" cy="49.049106" r="5.636364" opacity="0.200000" style="stroke:black;stroke-width:0.5;fill:url(#radialffffffbfbfbf)"/>
<circle cx="477.955601" cy="40.073700" r="5.636364" opacity="0.200000" style="stroke:black;stroke-width:0.5;fill:url(#radialffffffbfbfbf)"/>
<circle cx="185.727784" cy="121.957859" r="5.636364" opacity="0.200000" style="stroke:black;stroke-width:0.5;fill:url(#radialffffffbfbfbf)"/>
<circle cx="233.809172" cy="57.489385" r="5.636364" opacity="0.200000" style="stroke:black;stroke-width:0.5;fill:url(#radialffffffbfbfbf)"/>
<circle cx="444.357910" cy="112.822235" r="5.636364" opacity="0.200000" style="stroke:black;stroke-width:0.5;fill:url(#radialffffffbfbfbf)"/>
<circle cx="316.507238" cy="57.380437" r="5.636364" opacity="0.200000" style="stroke:black;stroke-width:0.5;fill:url(#radialffffffbfbfbf)"/>
<circle cx="104.571014" cy="112.982453" r="5.636364" opacity="0.200000" style="stroke:black;stroke-width:0.5;fill:url(#radialffffffbfbfbf)"/>
<circle cx="364.588627" cy="121.611789" r="5.636364" opacity="0.200000" style="stroke:black;stroke-width:0.5;fill:url(#radialffffffbfbfbf)"/>
<circle cx="71.047023" cy="40.067292" r="5.636364" opacity="0.200000" style="stroke:black;stroke-width:0.5;fill:url(#radialffffffbfbfbf)"/>
<circle cx="396.689883" cy="47.850677" r="5.636364" opacity="0.211585" style="stroke:black;stroke-width:0.5;fill:url(#radialffffffbfbfbf)"/>
<circle cx="510.053653" cy="77.785787" r="5.636364" opacity="0.690784" style="stroke:black;stroke-width:0.5;fill:url(#radialffffffbfbfbf)"/>
<circle cx="150.870780" cy="69.207721" r="13.818182" opacity="0.696559" style="stroke:black;stroke-width:0.5;fill:url(#radialffffff666666)"/>
<circle cx="479.474467" cy="60.623247" r="13.818182" opacity="0.698228" style="stroke:black;stroke-width:0.5;fill:url(#radialffffff666666)"/>
<circle cx="188.102213" cy="101.151964" r="13.818182" opacity="0.701554" style="stroke:black;stroke-width:0.5;fill:url(#radialffffff666666)"/>
<circle cx="231.101490" cy="77.859487" r="13.818182" opacity="0.704326" style="stroke:black;stroke-width:0.5;fill:url(#radialffffff666666)"/>
<circle cx="442.403252" cy="92.227828" r="13.818182" opacity="0.706552" style="stroke:black;stroke-width:0.5;fill:url(#radialffffff666666)"/>
<circle cx="274.901857" cy="115.751018" r="19.091943" opacity="0.707126" style="stroke:black;stroke-width:0.5;fill:url(#radialffffffb2b20)"/>
<circle cx="107.631176" cy="92.198988" r="13.842866" opacity="0.707738" style="stroke:black;stroke-width:0.5;fill:url(#radialffffff666666)"/>
<circle cx="318.952163" cy="77.737722" r="13.928141" opacity="0.709915" style="stroke:black;stroke-width:0.5;fill:url(#radialffffff666666)"/>
<circle cx="361.919397" cy="101.081468" r="14.035856" opacity="0.712654" style="stroke:black;stroke-width:0.5;fill:url(#radialffffff666666)"/>
<circle cx="70.601617" cy="60.549547" r="14.163019" opacity="0.715875" style="stroke:black;stroke-width:0.5;fill:url(#radialffffff666666)"/>
<circle cx="399.195691" cy="69.182086" r="14.228845" opacity="0.717537" style="stroke:black;stroke-width:0.5;fill:url(#radialffffff666666)"/>
<circle cx="40.000000" cy="77.673635" r="5.893574" opacity="0.723061" style="stroke:black;stroke-width:0.5;fill:url(#radialffffffbfbfbf)"/>
<circle cx="153.402222" cy="47.876311" r="10.768680" opacity="0.977387" style="stroke:black;stroke-width:0.5;fill:url(#radialffffffbfbfbf)"/>
<circle cx="479.054696" cy="40.137787" r="10.917575" opacity="0.984121" style="stroke:black;stroke-width:0.5;fill:url(#radialffffffbfbfbf)"/>
<circle cx="185.394531" cy="121.675876" r="10.961511" opacity="0.986099" style="stroke:black;stroke-width:0.5;fill:url(#radialffffffbfbfbf)"/>
<circle cx="445.440983" cy="113.011292" r="10.988972" opacity="0.987334" style="stroke:black;stroke-width:0.5;fill:url(#radialffffffbfbfbf)"/>
<circle cx="233.507963" cy="57.473363" r="11.011550" opacity="0.988348" style="stroke:black;stroke-width:0.5;fill:url(#radialffffffbfbfbf)"/>
<circle cx="105.650882" cy="112.790192" r="11.053656" opacity="0.990235" style="stroke:black;stroke-width:0.5;fill:url(#radialffffffbfbfbf)"/>
<circle cx="316.206029" cy="57.396458" r="11.101253" opacity="0.992365" style="stroke:black;stroke-width:0.5;fill:url(#radialffffffbfbfbf)"/>
<circle cx="364.255374" cy="121.893772" r="11.104305" opacity="0.992502" style="stroke:black;stroke-width:0.5;fill:url(#radialffffffbfbfbf)"/>
<circle cx="72.142913" cy="40.000000" r="11.183024" opacity="0.996013" style="stroke:black;stroke-width:0.5;fill:url(#radialffffffbfbfbf)"/>
<circle cx="397.176946" cy="49.023472" r="11.272727" opacity="1.000000" style="stroke:black;stroke-width:0.5;fill:url(#radialffffffbfbfbf)"/>
</svg>
</g>
</svg>
