<?xml version="1.0"?>
<svg version="1.1" id="topsvg"
xmlns="http://www.w3.org/2000/svg" xmlns:xlink="http://www.w3.org/1999/xlink"
xmlns:cml="http://www.xml-cml.org/schema" x="0" y="0" width="200px" height="200px" viewBox="0 0 100 100">
<title>13403 - Open Babel Depiction</title>
<rect x="0" y="0" width="100" height="100" fill="white"/>
<defs>
<radialGradient id='radialffffff666666' cx='50%' cy='50%' r='50%' fx='30%' fy='30%'>
  <stop offset=' 0%' stop-color="rgb(255,255,255)"  stop-opacity='1.0'/>
  <stop offset='100%' stop-color="rgb(102,102,102)"  stop-opacity ='1.0'/>
</radialGradient>
<radialGradient id='radialffffffbfbfbf' cx='50%' cy='50%' r='50%' fx='30%' fy='30%'>
  <stop offset=' 0%' stop-color="rgb(255,255,255)"  stop-opacity='1.0'/>
  <stop offset='100%' stop-color="rgb(191,191,191)"  stop-opacity ='1.0'/>
</radialGradient>
</defs>
<g transform="translate(0,0)">
<svg width="100" height="100" x="0" y="0" viewBox="0 0 339.526 258.339"
font-family="sans-serif" stroke="rgb(0,0,0)" stroke-width="2"  stroke-linecap="round">
<line x1="146.7" y1="108.9" x2="99.1" y2="104.2" opacity="1.0" stroke="rgb(0,0,0)"  stroke-width="0.8"/>
<line x1="165.5" y1="149.6" x2="138.5" y2="189.6" opacity="0.3" stroke="rgb(0,0,0)"  stroke-width="1.1"/>
<line x1="99.1" y1="104.2" x2="74.7" y2="98.8" opacity="0.4" stroke="rgb(0,0,0)"  stroke-width="1.5"/>
<line x1="99.1" y1="104.2" x2="92.7" y2="75.8" opacity="0.5" stroke="rgb(0,0,0)"  stroke-width="0.4"/>
<line x1="99.1" y1="104.2" x2="85.6" y2="131.4" opacity="0.1" stroke="rgb(0,0,0)"  stroke-width="0.4"/>
<line x1="235.9" y1="116.2" x2="283.5" y2="120.1" opacity="0.1" stroke="rgb(0,0,0)"  stroke-width="1.5"/>
<line x1="210.1" y1="153.2" x2="224.9" y2="184.8" opacity="0.5" stroke="rgb(0,0,0)"  stroke-width="1.4"/>
<line x1="172.5" y1="71.9" x2="158.3" y2="40.0" opacity="0.5" stroke="rgb(0,0,0)"  stroke-width="0.9"/>
<line x1="217.1" y1="75.5" x2="236.9" y2="46.5" opacity="0.3" stroke="rgb(0,0,0)"  stroke-width="1.2"/>
<line x1="138.5" y1="189.6" x2="157.8" y2="218.3" opacity="0.4" stroke="rgb(0,0,0)"  stroke-width="1.3"/>
<line x1="138.5" y1="189.6" x2="112.8" y2="188.1" opacity="0.4" stroke="rgb(0,0,0)"  stroke-width="1.6"/>
<line x1="138.5" y1="189.6" x2="124.4" y2="194.9" opacity="0.5" stroke="rgb(0,0,0)"  stroke-width="0.6"/>
<line x1="74.7" y1="98.8" x2="79.2" y2="126.7" opacity="0.2" stroke="rgb(0,0,0)"  stroke-width="2.6"/>
<line x1="74.7" y1="98.8" x2="40.0" y2="95.3" opacity="0.9" stroke="rgb(0,0,0)"  stroke-width="2.1"/>
<line x1="74.7" y1="98.8" x2="85.6" y2="70.0" opacity="0.7" stroke="rgb(0,0,0)"  stroke-width="2.6"/>
<line x1="283.5" y1="120.1" x2="291.4" y2="147.2" opacity="0.9" stroke="rgb(0,0,0)"  stroke-width="2.0"/>
<line x1="283.5" y1="120.1" x2="299.5" y2="125.2" opacity="0.7" stroke="rgb(0,0,0)"  stroke-width="1.0"/>
<line x1="283.5" y1="120.1" x2="297.0" y2="90.9" opacity="0.3" stroke="rgb(0,0,0)"  stroke-width="1.9"/>
<line x1="149.2" y1="110.6" x2="175.0" y2="73.6" opacity="0.3" stroke="rgb(0,0,0)"  stroke-width="1.0"/>
<line x1="144.3" y1="107.2" x2="170.1" y2="70.2" opacity="0.3" stroke="rgb(0,0,0)"  stroke-width="1.0" stroke-dasharray="5.0,5.0"/>
<line x1="172.3" y1="74.9" x2="216.9" y2="78.5" opacity="0.4" stroke="rgb(0,0,0)"  stroke-width="1.1"/>
<line x1="172.8" y1="68.9" x2="217.3" y2="72.6" opacity="0.4" stroke="rgb(0,0,0)"  stroke-width="1.1" stroke-dasharray="5.0,5.0"/>
<line x1="214.4" y1="76.8" x2="233.2" y2="117.5" opacity="0.4" stroke="rgb(0,0,0)"  stroke-width="1.3"/>
<line x1="219.8" y1="74.3" x2="238.6" y2="114.9" opacity="0.4" stroke="rgb(0,0,0)"  stroke-width="1.3" stroke-dasharray="5.0,5.0"/>
<line x1="233.4" y1="114.5" x2="207.6" y2="151.5" opacity="0.5" stroke="rgb(0,0,0)"  stroke-width="1.4"/>
<line x1="238.3" y1="117.9" x2="212.5" y2="154.9" opacity="0.5" stroke="rgb(0,0,0)"  stroke-width="1.4" stroke-dasharray="5.0,5.0"/>
<line x1="210.3" y1="150.2" x2="165.7" y2="146.6" opacity="0.4" stroke="rgb(0,0,0)"  stroke-width="1.3"/>
<line x1="209.8" y1="156.2" x2="165.2" y2="152.5" opacity="0.4" stroke="rgb(0,0,0)"  stroke-width="1.3" stroke-dasharray="5.0,5.0"/>
<line x1="168.2" y1="148.3" x2="149.4" y2="107.6" opacity="0.4" stroke="rgb(0,0,0)"  stroke-width="1.1"/>
<line x1="162.8" y1="150.8" x2="144.0" y2="110.2" opacity="0.4" stroke="rgb(0,0,0)"  stroke-width="1.1" stroke-dasharray="5.0,5.0"/>
<circle cx="124.363192" cy="194.860457" r="5.636364" opacity="0.200000" style="stroke:black;stroke-width:0.5;fill:url(#radialffffffbfbfbf)"/>
<circle cx="92.662711" cy="75.804951" r="5.636364" opacity="0.200000" style="stroke:black;stroke-width:0.5;fill:url(#radialffffffbfbfbf)"/>
<circle cx="85.605222" cy="131.414213" r="5.636364" opacity="0.200000" style="stroke:black;stroke-width:0.5;fill:url(#radialffffffbfbfbf)"/>
<circle cx="299.526059" cy="125.213843" r="5.636364" opacity="0.403395" style="stroke:black;stroke-width:0.5;fill:url(#radialffffffbfbfbf)"/>
<circle cx="99.053911" cy="104.177221" r="13.818182" opacity="0.493319" style="stroke:black;stroke-width:0.5;fill:url(#radialffffff666666)"/>
<circle cx="158.340700" cy="40.000000" r="5.636364" opacity="0.522909" style="stroke:black;stroke-width:0.5;fill:url(#radialffffffbfbfbf)"/>
<circle cx="146.712986" cy="108.892995" r="13.818182" opacity="0.564445" style="stroke:black;stroke-width:0.5;fill:url(#radialffffff666666)"/>
<circle cx="172.523601" cy="71.891311" r="13.818182" opacity="0.568334" style="stroke:black;stroke-width:0.5;fill:url(#radialffffff666666)"/>
<circle cx="138.494343" cy="189.620708" r="13.818182" opacity="0.616040" style="stroke:black;stroke-width:0.5;fill:url(#radialffffff666666)"/>
<circle cx="165.482284" cy="149.552800" r="13.818182" opacity="0.619358" style="stroke:black;stroke-width:0.5;fill:url(#radialffffff666666)"/>
<circle cx="217.103514" cy="75.549433" r="13.818182" opacity="0.626461" style="stroke:black;stroke-width:0.5;fill:url(#radialffffff666666)"/>
<circle cx="236.869012" cy="46.481764" r="5.636364" opacity="0.628171" style="stroke:black;stroke-width:0.5;fill:url(#radialffffffbfbfbf)"/>
<circle cx="210.068666" cy="153.210921" r="13.818182" opacity="0.673094" style="stroke:black;stroke-width:0.5;fill:url(#radialffffff666666)"/>
<circle cx="235.879281" cy="116.206003" r="13.818182" opacity="0.676386" style="stroke:black;stroke-width:0.5;fill:url(#radialffffff666666)"/>
<circle cx="157.829663" cy="218.339060" r="5.636364" opacity="0.685248" style="stroke:black;stroke-width:0.5;fill:url(#radialffffffbfbfbf)"/>
<circle cx="224.879043" cy="184.837011" r="5.668966" opacity="0.709149" style="stroke:black;stroke-width:0.5;fill:url(#radialffffffbfbfbf)"/>
<circle cx="283.544825" cy="120.093767" r="14.699518" opacity="0.729308" style="stroke:black;stroke-width:0.5;fill:url(#radialffffff666666)"/>
<circle cx="112.793697" cy="188.068190" r="7.516735" opacity="0.816583" style="stroke:black;stroke-width:0.5;fill:url(#radialffffffbfbfbf)"/>
<circle cx="40.000000" cy="95.308461" r="7.591872" opacity="0.820654" style="stroke:black;stroke-width:0.5;fill:url(#radialffffffbfbfbf)"/>
<circle cx="296.957935" cy="90.899956" r="7.988285" opacity="0.841807" style="stroke:black;stroke-width:0.5;fill:url(#radialffffffbfbfbf)"/>
<circle cx="74.679375" cy="98.833971" r="20.641786" opacity="0.864238" style="stroke:black;stroke-width:0.5;fill:url(#radialffffff666666)"/>
<circle cx="291.388276" cy="147.204617" r="8.855385" opacity="0.886317" style="stroke:black;stroke-width:0.5;fill:url(#radialffffffbfbfbf)"/>
<circle cx="85.627863" cy="69.999180" r="10.747199" opacity="0.976412" style="stroke:black;stroke-width:0.5;fill:url(#radialffffffbfbfbf)"/>
<circle cx="79.204319" cy="126.682267" r="11.272727" opacity="1.000000" style="stroke:black;stroke-width:0.5;fill:url(#radialffffffbfbfbf)"/>
</svg>
</g>
</svg>
