<?xml version="1.0"?>
<svg version="1.1" id="topsvg"
xmlns="http://www.w3.org/2000/svg" xmlns:xlink="http://www.w3.org/1999/xlink"
xmlns:cml="http://www.xml-cml.org/schema" x="0" y="0" width="1024px" height="1024px" viewBox="0 0 100 100">
<title>13558 - Open Babel Depiction</title>
<rect x="0" y="0" width="100" height="100" fill="white"/>
<defs>
<radialGradient id='radialffffff666666' cx='50%' cy='50%' r='50%' fx='30%' fy='30%'>
  <stop offset=' 0%' stop-color="rgb(255,255,255)"  stop-opacity='1.0'/>
  <stop offset='100%' stop-color="rgb(102,102,102)"  stop-opacity ='1.0'/>
</radialGradient>
<radialGradient id='radialffffffbfbfbf' cx='50%' cy='50%' r='50%' fx='30%' fy='30%'>
  <stop offset=' 0%' stop-color="rgb(255,255,255)"  stop-opacity='1.0'/>
  <stop offset='100%' stop-color="rgb(191,191,191)"  stop-opacity ='1.0'/>
</radialGradient>
</defs>
<g transform="translate(0,0)">
<svg width="100" height="100" x="0" y="0" viewBox="0 0 338.65 236.732"
font-family="sans-serif" stroke="rgb(0,0,0)" stroke-width="2"  stroke-linecap="round">
<line x1="175.6" y1="94.8" x2="126.4" y2="106.9" opacity="1.0" stroke="rgb(0,0,0)"  stroke-width="1.8"/>
<line x1="175.6" y1="94.8" x2="207.4" y2="131.0" opacity="0.6" stroke="rgb(0,0,0)"  stroke-width="1.6"/>
<line x1="175.6" y1="94.8" x2="179.0" y2="66.2" opacity="0.5" stroke="rgb(0,0,0)"  stroke-width="1.6"/>
<line x1="175.6" y1="94.8" x2="185.9" y2="84.1" opacity="0.5" stroke="rgb(0,0,0)"  stroke-width="2.2"/>
<line x1="126.4" y1="106.9" x2="109.2" y2="120.8" opacity="0.7" stroke="rgb(0,0,0)"  stroke-width="1.3"/>
<line x1="126.4" y1="106.9" x2="100.8" y2="67.8" opacity="0.4" stroke="rgb(0,0,0)"  stroke-width="2.1"/>
<polygon points="126.439358 106.867132 125.859935 134.799145 117.967813 133.489792 " stroke-width="2.061054" fill="rgb(0,0,0)"  stroke="rgb(0,0,0)" />
<line x1="207.4" y1="131.0" x2="255.3" y2="114.9" opacity="0.7" stroke="rgb(0,0,0)"  stroke-width="1.5"/>
<line x1="207.4" y1="131.0" x2="204.1" y2="172.3" opacity="0.5" stroke="rgb(0,0,0)"  stroke-width="1.8"/>
<line x1="206.3" y1="133.4" x2="205.1" y2="132.3" opacity="0.6" stroke="rgb(0,0,0)"  stroke-width="1.0"/>
<line x1="205.5" y1="135.2" x2="203.4" y2="133.3" opacity="0.6" stroke="rgb(0,0,0)"  stroke-width="1.0"/>
<line x1="204.7" y1="137.1" x2="201.6" y2="134.3" opacity="0.6" stroke="rgb(0,0,0)"  stroke-width="1.0"/>
<line x1="203.9" y1="139.0" x2="199.8" y2="135.3" opacity="0.6" stroke="rgb(0,0,0)"  stroke-width="1.0"/>
<line x1="203.0" y1="140.9" x2="198.0" y2="136.4" opacity="0.6" stroke="rgb(0,0,0)"  stroke-width="1.0"/>
<line x1="202.2" y1="142.7" x2="196.3" y2="137.4" opacity="0.6" stroke="rgb(0,0,0)"  stroke-width="1.0"/>
<line x1="109.2" y1="120.8" x2="60.8" y2="132.9" opacity="0.6" stroke="rgb(0,0,0)"  stroke-width="0.8"/>
<line x1="109.2" y1="120.8" x2="114.8" y2="94.6" opacity="0.3" stroke="rgb(0,0,0)"  stroke-width="0.5"/>
<line x1="109.2" y1="120.8" x2="127.4" y2="149.4" opacity="0.2" stroke="rgb(0,0,0)"  stroke-width="0.7"/>
<line x1="255.3" y1="114.9" x2="263.5" y2="75.5" opacity="0.2" stroke="rgb(0,0,0)"  stroke-width="1.1"/>
<line x1="255.3" y1="114.9" x2="276.6" y2="141.7" opacity="0.4" stroke="rgb(0,0,0)"  stroke-width="1.3"/>
<line x1="255.3" y1="114.9" x2="265.6" y2="106.9" opacity="0.4" stroke="rgb(0,0,0)"  stroke-width="1.8"/>
<line x1="100.8" y1="67.8" x2="66.6" y2="76.4" opacity="0.6" stroke="rgb(0,0,0)"  stroke-width="2.3"/>
<line x1="100.8" y1="67.8" x2="101.4" y2="40.0" opacity="0.8" stroke="rgb(0,0,0)"  stroke-width="2.0"/>
<line x1="100.8" y1="67.8" x2="114.8" y2="56.9" opacity="0.7" stroke="rgb(0,0,0)"  stroke-width="2.6"/>
<line x1="204.1" y1="172.3" x2="209.8" y2="164.7" opacity="0.9" stroke="rgb(0,0,0)"  stroke-width="2.5"/>
<line x1="204.1" y1="172.3" x2="171.8" y2="187.6" opacity="0.8" stroke="rgb(0,0,0)"  stroke-width="2.1"/>
<line x1="204.1" y1="172.3" x2="228.2" y2="196.7" opacity="0.7" stroke="rgb(0,0,0)"  stroke-width="2.0"/>
<line x1="60.8" y1="132.9" x2="53.5" y2="157.6" opacity="0.7" stroke="rgb(0,0,0)"  stroke-width="1.1"/>
<line x1="60.8" y1="132.9" x2="40.0" y2="104.3" opacity="0.4" stroke="rgb(0,0,0)"  stroke-width="0.9"/>
<line x1="60.8" y1="132.9" x2="51.7" y2="146.4" opacity="0.3" stroke="rgb(0,0,0)"  stroke-width="0.4"/>
<line x1="263.5" y1="75.5" x2="248.1" y2="45.9" opacity="0.1" stroke="rgb(0,0,0)"  stroke-width="0.9"/>
<line x1="263.5" y1="75.5" x2="298.7" y2="69.0" opacity="0.3" stroke="rgb(0,0,0)"  stroke-width="0.7"/>
<line x1="263.5" y1="75.5" x2="251.0" y2="81.2" opacity="0.2" stroke="rgb(0,0,0)"  stroke-width="0.4"/>
<circle cx="251.034241" cy="81.197620" r="5.636364" opacity="0.200000" style="stroke:black;stroke-width:0.5;fill:url(#radialffffffbfbfbf)"/>
<circle cx="51.749230" cy="146.355416" r="5.636364" opacity="0.200000" style="stroke:black;stroke-width:0.5;fill:url(#radialffffffbfbfbf)"/>
<circle cx="114.827661" cy="94.564497" r="5.636364" opacity="0.281555" style="stroke:black;stroke-width:0.5;fill:url(#radialffffffbfbfbf)"/>
<circle cx="127.402088" cy="149.440080" r="5.636364" opacity="0.418439" style="stroke:black;stroke-width:0.5;fill:url(#radialffffffbfbfbf)"/>
<circle cx="199.226949" cy="140.051830" r="5.636364" opacity="0.470695" style="stroke:black;stroke-width:0.5;fill:url(#radialffffffbfbfbf)"/>
<circle cx="298.650058" cy="69.035791" r="5.636364" opacity="0.488525" style="stroke:black;stroke-width:0.5;fill:url(#radialffffffbfbfbf)"/>
<circle cx="263.451487" cy="75.467087" r="13.818182" opacity="0.506680" style="stroke:black;stroke-width:0.5;fill:url(#radialffffff666666)"/>
<circle cx="60.790373" cy="132.880477" r="13.818182" opacity="0.511812" style="stroke:black;stroke-width:0.5;fill:url(#radialffffff666666)"/>
<circle cx="109.172444" cy="120.780866" r="13.818182" opacity="0.514187" style="stroke:black;stroke-width:0.5;fill:url(#radialffffff666666)"/>
<circle cx="40.000000" cy="104.299854" r="5.636364" opacity="0.554116" style="stroke:black;stroke-width:0.5;fill:url(#radialffffffbfbfbf)"/>
<circle cx="248.106758" cy="45.864791" r="5.636364" opacity="0.598330" style="stroke:black;stroke-width:0.5;fill:url(#radialffffffbfbfbf)"/>
<circle cx="276.592418" cy="141.682575" r="5.636364" opacity="0.630623" style="stroke:black;stroke-width:0.5;fill:url(#radialffffffbfbfbf)"/>
<circle cx="179.022728" cy="66.170525" r="5.636364" opacity="0.661802" style="stroke:black;stroke-width:0.5;fill:url(#radialffffffbfbfbf)"/>
<circle cx="53.533881" cy="157.613457" r="5.636364" opacity="0.674487" style="stroke:black;stroke-width:0.5;fill:url(#radialffffffbfbfbf)"/>
<circle cx="207.364306" cy="131.013961" r="13.818182" opacity="0.695236" style="stroke:black;stroke-width:0.5;fill:url(#radialffffff666666)"/>
<circle cx="255.327229" cy="114.945546" r="13.818182" opacity="0.695711" style="stroke:black;stroke-width:0.5;fill:url(#radialffffff666666)"/>
<circle cx="101.372370" cy="40.000000" r="6.565746" opacity="0.763181" style="stroke:black;stroke-width:0.5;fill:url(#radialffffffbfbfbf)"/>
<circle cx="175.636801" cy="94.790444" r="16.693463" opacity="0.777200" style="stroke:black;stroke-width:0.5;fill:url(#radialffffff666666)"/>
<circle cx="126.439358" cy="106.867132" r="17.016757" opacity="0.784690" style="stroke:black;stroke-width:0.5;fill:url(#radialffffff666666)"/>
<circle cx="228.233269" cy="196.731712" r="7.041736" opacity="0.790361" style="stroke:black;stroke-width:0.5;fill:url(#radialffffffbfbfbf)"/>
<circle cx="171.792433" cy="187.562859" r="7.675054" opacity="0.825137" style="stroke:black;stroke-width:0.5;fill:url(#radialffffffbfbfbf)"/>
<circle cx="204.053695" cy="172.257424" r="19.440409" opacity="0.838711" style="stroke:black;stroke-width:0.5;fill:url(#radialffffff666666)"/>
<circle cx="265.570147" cy="106.916251" r="8.381030" opacity="0.862252" style="stroke:black;stroke-width:0.5;fill:url(#radialffffffbfbfbf)"/>
<circle cx="100.782944" cy="67.765250" r="20.956594" opacity="0.870803" style="stroke:black;stroke-width:0.5;fill:url(#radialffffff666666)"/>
<circle cx="121.913874" cy="134.144469" r="8.942550" opacity="0.890669" style="stroke:black;stroke-width:0.5;fill:url(#radialffffffbfbfbf)"/>
<circle cx="66.586398" cy="76.380697" r="9.101022" opacity="0.898526" style="stroke:black;stroke-width:0.5;fill:url(#radialffffffbfbfbf)"/>
<circle cx="185.869896" cy="84.082534" r="9.672554" opacity="0.926309" style="stroke:black;stroke-width:0.5;fill:url(#radialffffffbfbfbf)"/>
<circle cx="209.816974" cy="164.699670" r="10.950633" opacity="0.985610" style="stroke:black;stroke-width:0.5;fill:url(#radialffffffbfbfbf)"/>
<circle cx="114.762169" cy="56.880513" r="11.272727" opacity="1.000000" style="stroke:black;stroke-width:0.5;fill:url(#radialffffffbfbfbf)"/>
</svg>
</g>
</svg>
