<?xml version="1.0"?>
<svg version="1.1" id="topsvg"
xmlns="http://www.w3.org/2000/svg" xmlns:xlink="http://www.w3.org/1999/xlink"
xmlns:cml="http://www.xml-cml.org/schema" x="0" y="0" width="1024px" height="1024px" viewBox="0 0 100 100">
<title>13576 - Open Babel Depiction</title>
<rect x="0" y="0" width="100" height="100" fill="white"/>
<defs>
<radialGradient id='radialffffff666666' cx='50%' cy='50%' r='50%' fx='30%' fy='30%'>
  <stop offset=' 0%' stop-color="rgb(255,255,255)"  stop-opacity='1.0'/>
  <stop offset='100%' stop-color="rgb(102,102,102)"  stop-opacity ='1.0'/>
</radialGradient>
<radialGradient id='radialffffffbfbfbf' cx='50%' cy='50%' r='50%' fx='30%' fy='30%'>
  <stop offset=' 0%' stop-color="rgb(255,255,255)"  stop-opacity='1.0'/>
  <stop offset='100%' stop-color="rgb(191,191,191)"  stop-opacity ='1.0'/>
</radialGradient>
<radialGradient id='radialffffffffcc' cx='50%' cy='50%' r='50%' fx='30%' fy='30%'>
  <stop offset=' 0%' stop-color="rgb(255,255,255)"  stop-opacity='1.0'/>
  <stop offset='100%' stop-color="rgb(255,12,12)"  stop-opacity ='1.0'/>
</radialGradient>
</defs>
<g transform="translate(0,0)">
<svg width="100" height="100" x="0" y="0" viewBox="0 0 507.902 169.068"
font-family="sans-serif" stroke="rgb(0,0,0)" stroke-width="2"  stroke-linecap="round">
<line x1="355.7" y1="129.2" x2="354.2" y2="89.2" opacity="1.0" stroke="rgb(0,0,0)"  stroke-width="1.4"/>
<line x1="361.7" y1="129.0" x2="360.2" y2="89.0" opacity="1.0" stroke="rgb(0,0,0)"  stroke-width="1.4"/>
<line x1="232.4" y1="68.3" x2="192.9" y2="98.5" opacity="0.5" stroke="rgb(0,0,0)"  stroke-width="1.3"/>
<line x1="232.4" y1="68.3" x2="274.9" y2="94.3" opacity="0.4" stroke="rgb(0,0,0)"  stroke-width="1.3"/>
<line x1="232.4" y1="68.3" x2="231.3" y2="47.7" opacity="0.4" stroke="rgb(0,0,0)"  stroke-width="0.6"/>
<line x1="232.4" y1="68.3" x2="231.2" y2="46.7" opacity="0.2" stroke="rgb(0,0,0)"  stroke-width="1.9"/>
<line x1="192.9" y1="98.5" x2="149.4" y2="74.2" opacity="0.6" stroke="rgb(0,0,0)"  stroke-width="1.4"/>
<line x1="192.9" y1="98.5" x2="193.5" y2="119.4" opacity="0.5" stroke="rgb(0,0,0)"  stroke-width="0.7"/>
<line x1="192.9" y1="98.5" x2="195.1" y2="120.2" opacity="0.2" stroke="rgb(0,0,0)"  stroke-width="1.9"/>
<line x1="274.9" y1="94.3" x2="314.5" y2="64.2" opacity="0.6" stroke="rgb(0,0,0)"  stroke-width="1.3"/>
<line x1="274.9" y1="94.3" x2="276.5" y2="115.6" opacity="0.4" stroke="rgb(0,0,0)"  stroke-width="0.7"/>
<line x1="274.9" y1="94.3" x2="275.5" y2="115.5" opacity="0.2" stroke="rgb(0,0,0)"  stroke-width="2.0"/>
<line x1="149.4" y1="74.2" x2="109.9" y2="104.4" opacity="0.7" stroke="rgb(0,0,0)"  stroke-width="1.5"/>
<line x1="149.4" y1="74.2" x2="146.4" y2="53.5" opacity="0.5" stroke="rgb(0,0,0)"  stroke-width="0.7"/>
<line x1="149.4" y1="74.2" x2="149.5" y2="52.4" opacity="0.2" stroke="rgb(0,0,0)"  stroke-width="2.0"/>
<line x1="314.5" y1="64.2" x2="357.2" y2="89.1" opacity="0.7" stroke="rgb(0,0,0)"  stroke-width="1.4"/>
<line x1="314.5" y1="64.2" x2="314.9" y2="43.9" opacity="0.5" stroke="rgb(0,0,0)"  stroke-width="0.7"/>
<line x1="314.5" y1="64.2" x2="313.0" y2="42.9" opacity="0.2" stroke="rgb(0,0,0)"  stroke-width="2.0"/>
<line x1="109.9" y1="104.4" x2="67.8" y2="78.7" opacity="0.7" stroke="rgb(0,0,0)"  stroke-width="1.6"/>
<line x1="109.9" y1="104.4" x2="108.5" y2="125.2" opacity="0.5" stroke="rgb(0,0,0)"  stroke-width="0.9"/>
<line x1="109.9" y1="104.4" x2="113.2" y2="125.9" opacity="0.3" stroke="rgb(0,0,0)"  stroke-width="2.1"/>
<line x1="357.2" y1="89.1" x2="398.0" y2="61.2" opacity="0.7" stroke="rgb(0,0,0)"  stroke-width="1.5"/>
<line x1="67.8" y1="78.7" x2="40.0" y2="100.8" opacity="0.5" stroke="rgb(0,0,0)"  stroke-width="1.7"/>
<line x1="67.8" y1="78.7" x2="63.1" y2="57.5" opacity="0.6" stroke="rgb(0,0,0)"  stroke-width="1.1"/>
<line x1="67.8" y1="78.7" x2="67.9" y2="58.5" opacity="0.4" stroke="rgb(0,0,0)"  stroke-width="2.3"/>
<line x1="398.0" y1="61.2" x2="439.4" y2="88.0" opacity="0.8" stroke="rgb(0,0,0)"  stroke-width="1.6"/>
<line x1="398.0" y1="61.2" x2="399.0" y2="40.8" opacity="0.5" stroke="rgb(0,0,0)"  stroke-width="0.9"/>
<line x1="398.0" y1="61.2" x2="395.6" y2="40.0" opacity="0.3" stroke="rgb(0,0,0)"  stroke-width="2.2"/>
<line x1="439.4" y1="88.0" x2="439.3" y2="108.6" opacity="0.7" stroke="rgb(0,0,0)"  stroke-width="2.3"/>
<line x1="439.4" y1="88.0" x2="467.9" y2="66.7" opacity="0.8" stroke="rgb(0,0,0)"  stroke-width="1.7"/>
<line x1="439.4" y1="88.0" x2="442.8" y2="109.3" opacity="0.6" stroke="rgb(0,0,0)"  stroke-width="1.0"/>
<circle cx="231.327689" cy="47.650634" r="5.636364" opacity="0.200000" style="stroke:black;stroke-width:0.5;fill:url(#radialffffffbfbfbf)"/>
<circle cx="193.481293" cy="119.376552" r="5.636364" opacity="0.200000" style="stroke:black;stroke-width:0.5;fill:url(#radialffffffbfbfbf)"/>
<circle cx="276.479774" cy="115.562625" r="5.636364" opacity="0.200000" style="stroke:black;stroke-width:0.5;fill:url(#radialffffffbfbfbf)"/>
<circle cx="314.879386" cy="43.911554" r="5.636364" opacity="0.200000" style="stroke:black;stroke-width:0.5;fill:url(#radialffffffbfbfbf)"/>
<circle cx="146.379940" cy="53.543998" r="5.636364" opacity="0.200000" style="stroke:black;stroke-width:0.5;fill:url(#radialffffffbfbfbf)"/>
<circle cx="398.987551" cy="40.820059" r="5.636364" opacity="0.276641" style="stroke:black;stroke-width:0.5;fill:url(#radialffffffbfbfbf)"/>
<circle cx="108.468459" cy="125.178798" r="5.636364" opacity="0.279328" style="stroke:black;stroke-width:0.5;fill:url(#radialffffffbfbfbf)"/>
<circle cx="442.818429" cy="109.288519" r="5.636364" opacity="0.362787" style="stroke:black;stroke-width:0.5;fill:url(#radialffffffbfbfbf)"/>
<circle cx="63.104851" cy="57.478331" r="5.636364" opacity="0.384457" style="stroke:black;stroke-width:0.5;fill:url(#radialffffffbfbfbf)"/>
<circle cx="232.430865" cy="68.311578" r="13.818182" opacity="0.656166" style="stroke:black;stroke-width:0.5;fill:url(#radialffffff666666)"/>
<circle cx="192.853232" cy="98.526865" r="13.818182" opacity="0.661907" style="stroke:black;stroke-width:0.5;fill:url(#radialffffff666666)"/>
<circle cx="274.911248" cy="94.273620" r="13.818182" opacity="0.663761" style="stroke:black;stroke-width:0.5;fill:url(#radialffffff666666)"/>
<circle cx="314.479118" cy="64.214534" r="13.818182" opacity="0.672023" style="stroke:black;stroke-width:0.5;fill:url(#radialffffff666666)"/>
<circle cx="149.380316" cy="74.217959" r="13.818182" opacity="0.680751" style="stroke:black;stroke-width:0.5;fill:url(#radialffffff666666)"/>
<circle cx="358.723281" cy="129.067573" r="12.000000" opacity="0.691114" style="stroke:black;stroke-width:0.5;fill:url(#radialffffffffcc)"/>
<circle cx="357.229601" cy="89.073401" r="13.818182" opacity="0.692855" style="stroke:black;stroke-width:0.5;fill:url(#radialffffff666666)"/>
<circle cx="109.936105" cy="104.403958" r="14.005976" opacity="0.711895" style="stroke:black;stroke-width:0.5;fill:url(#radialffffff666666)"/>
<circle cx="398.017798" cy="61.162091" r="14.081893" opacity="0.713822" style="stroke:black;stroke-width:0.5;fill:url(#radialffffff666666)"/>
<circle cx="439.378735" cy="88.012531" r="15.252609" opacity="0.742902" style="stroke:black;stroke-width:0.5;fill:url(#radialffffff666666)"/>
<circle cx="67.816939" cy="78.692489" r="15.636188" opacity="0.752186" style="stroke:black;stroke-width:0.5;fill:url(#radialffffff666666)"/>
<circle cx="467.901836" cy="66.739797" r="6.467014" opacity="0.757421" style="stroke:black;stroke-width:0.5;fill:url(#radialffffffbfbfbf)"/>
<circle cx="40.000000" cy="100.847113" r="6.704421" opacity="0.771198" style="stroke:black;stroke-width:0.5;fill:url(#radialffffffbfbfbf)"/>
<circle cx="231.213792" cy="46.684136" r="9.589152" opacity="0.922307" style="stroke:black;stroke-width:0.5;fill:url(#radialffffffbfbfbf)"/>
<circle cx="195.056328" cy="120.177086" r="9.664666" opacity="0.925932" style="stroke:black;stroke-width:0.5;fill:url(#radialffffffbfbfbf)"/>
<circle cx="275.519784" cy="115.539845" r="9.753761" opacity="0.930190" style="stroke:black;stroke-width:0.5;fill:url(#radialffffffbfbfbf)"/>
<circle cx="312.962659" cy="42.928784" r="9.860241" opacity="0.935253" style="stroke:black;stroke-width:0.5;fill:url(#radialffffffbfbfbf)"/>
<circle cx="149.487705" cy="52.378993" r="9.940101" opacity="0.939033" style="stroke:black;stroke-width:0.5;fill:url(#radialffffffbfbfbf)"/>
<circle cx="113.216343" cy="125.884961" r="10.435014" opacity="0.962126" style="stroke:black;stroke-width:0.5;fill:url(#radialffffffbfbfbf)"/>
<circle cx="395.619449" cy="40.000000" r="10.513244" opacity="0.965726" style="stroke:black;stroke-width:0.5;fill:url(#radialffffffbfbfbf)"/>
<circle cx="439.303888" cy="108.572594" r="11.080412" opacity="0.991433" style="stroke:black;stroke-width:0.5;fill:url(#radialffffffbfbfbf)"/>
<circle cx="67.917819" cy="58.464355" r="11.272727" opacity="1.000000" style="stroke:black;stroke-width:0.5;fill:url(#radialffffffbfbfbf)"/>
</svg>
</g>
</svg>
