<?xml version="1.0"?>
<svg version="1.1" id="topsvg"
xmlns="http://www.w3.org/2000/svg" xmlns:xlink="http://www.w3.org/1999/xlink"
xmlns:cml="http://www.xml-cml.org/schema" x="0" y="0" width="1024px" height="1024px" viewBox="0 0 100 100">
<title>137211 - Open Babel Depiction</title>
<rect x="0" y="0" width="100" height="100" fill="white"/>
<defs>
<radialGradient id='radialffffff666666' cx='50%' cy='50%' r='50%' fx='30%' fy='30%'>
  <stop offset=' 0%' stop-color="rgb(255,255,255)"  stop-opacity='1.0'/>
  <stop offset='100%' stop-color="rgb(102,102,102)"  stop-opacity ='1.0'/>
</radialGradient>
<radialGradient id='radialffffffbfbfbf' cx='50%' cy='50%' r='50%' fx='30%' fy='30%'>
  <stop offset=' 0%' stop-color="rgb(255,255,255)"  stop-opacity='1.0'/>
  <stop offset='100%' stop-color="rgb(191,191,191)"  stop-opacity ='1.0'/>
</radialGradient>
</defs>
<g transform="translate(0,0)">
<svg width="100" height="100" x="0" y="0" viewBox="0 0 620.792 204.123"
font-family="sans-serif" stroke="rgb(0,0,0)" stroke-width="2"  stroke-linecap="round">
<line x1="477.9" y1="110.1" x2="436.3" y2="131.2" opacity="1.0" stroke="rgb(0,0,0)"  stroke-width="1.6"/>
<line x1="477.9" y1="110.1" x2="476.4" y2="104.1" opacity="0.5" stroke="rgb(0,0,0)"  stroke-width="2.4"/>
<line x1="517.9" y1="137.0" x2="521.7" y2="164.1" opacity="0.8" stroke="rgb(0,0,0)"  stroke-width="1.9"/>
<line x1="517.9" y1="137.0" x2="516.6" y2="150.2" opacity="0.6" stroke="rgb(0,0,0)"  stroke-width="1.0"/>
<line x1="487.8" y1="67.9" x2="482.3" y2="71.1" opacity="0.3" stroke="rgb(0,0,0)"  stroke-width="0.6"/>
<line x1="487.8" y1="67.9" x2="468.2" y2="40.9" opacity="0.2" stroke="rgb(0,0,0)"  stroke-width="1.3"/>
<line x1="555.1" y1="105.0" x2="569.3" y2="106.0" opacity="0.4" stroke="rgb(0,0,0)"  stroke-width="2.2"/>
<line x1="555.1" y1="105.0" x2="580.8" y2="112.6" opacity="0.7" stroke="rgb(0,0,0)"  stroke-width="1.3"/>
<line x1="535.6" y1="60.4" x2="551.2" y2="44.1" opacity="0.4" stroke="rgb(0,0,0)"  stroke-width="1.0"/>
<line x1="535.6" y1="60.4" x2="539.9" y2="40.0" opacity="0.3" stroke="rgb(0,0,0)"  stroke-width="1.9"/>
<line x1="436.3" y1="131.2" x2="397.0" y2="103.8" opacity="0.6" stroke="rgb(0,0,0)"  stroke-width="1.6"/>
<line x1="436.3" y1="131.2" x2="433.3" y2="163.0" opacity="0.5" stroke="rgb(0,0,0)"  stroke-width="1.6"/>
<line x1="436.3" y1="131.2" x2="437.2" y2="136.7" opacity="0.5" stroke="rgb(0,0,0)"  stroke-width="0.8"/>
<line x1="397.0" y1="103.8" x2="355.1" y2="125.7" opacity="0.3" stroke="rgb(0,0,0)"  stroke-width="1.5"/>
<line x1="397.0" y1="103.8" x2="399.2" y2="72.1" opacity="0.5" stroke="rgb(0,0,0)"  stroke-width="1.5"/>
<line x1="397.0" y1="103.8" x2="396.2" y2="98.2" opacity="0.5" stroke="rgb(0,0,0)"  stroke-width="2.3"/>
<line x1="355.1" y1="125.7" x2="315.7" y2="98.7" opacity="0.8" stroke="rgb(0,0,0)"  stroke-width="1.5"/>
<line x1="355.1" y1="125.7" x2="355.4" y2="130.6" opacity="0.5" stroke="rgb(0,0,0)"  stroke-width="0.7"/>
<line x1="355.1" y1="125.7" x2="352.8" y2="157.6" opacity="0.2" stroke="rgb(0,0,0)"  stroke-width="1.5"/>
<line x1="315.7" y1="98.7" x2="272.7" y2="120.2" opacity="0.5" stroke="rgb(0,0,0)"  stroke-width="1.5"/>
<line x1="315.7" y1="98.7" x2="316.5" y2="92.5" opacity="0.5" stroke="rgb(0,0,0)"  stroke-width="2.3"/>
<line x1="315.7" y1="98.7" x2="317.5" y2="67.2" opacity="0.8" stroke="rgb(0,0,0)"  stroke-width="1.5"/>
<line x1="272.7" y1="120.2" x2="233.3" y2="92.9" opacity="0.5" stroke="rgb(0,0,0)"  stroke-width="1.5"/>
<line x1="272.7" y1="120.2" x2="272.1" y2="127.0" opacity="0.5" stroke="rgb(0,0,0)"  stroke-width="0.8"/>
<line x1="272.7" y1="120.2" x2="270.7" y2="151.4" opacity="0.3" stroke="rgb(0,0,0)"  stroke-width="1.6"/>
<line x1="233.3" y1="92.9" x2="191.4" y2="115.8" opacity="0.5" stroke="rgb(0,0,0)"  stroke-width="1.5"/>
<line x1="233.3" y1="92.9" x2="235.1" y2="61.7" opacity="0.5" stroke="rgb(0,0,0)"  stroke-width="1.5"/>
<line x1="233.3" y1="92.9" x2="233.4" y2="86.3" opacity="0.5" stroke="rgb(0,0,0)"  stroke-width="2.3"/>
<line x1="191.4" y1="115.8" x2="150.8" y2="89.5" opacity="0.8" stroke="rgb(0,0,0)"  stroke-width="1.5"/>
<line x1="191.4" y1="115.8" x2="191.8" y2="123.2" opacity="0.5" stroke="rgb(0,0,0)"  stroke-width="0.8"/>
<line x1="191.4" y1="115.8" x2="189.7" y2="146.8" opacity="0.3" stroke="rgb(0,0,0)"  stroke-width="1.6"/>
<line x1="150.8" y1="89.5" x2="108.9" y2="113.3" opacity="0.5" stroke="rgb(0,0,0)"  stroke-width="1.5"/>
<line x1="150.8" y1="89.5" x2="151.9" y2="59.2" opacity="0.5" stroke="rgb(0,0,0)"  stroke-width="1.4"/>
<line x1="150.8" y1="89.5" x2="151.1" y2="80.8" opacity="0.5" stroke="rgb(0,0,0)"  stroke-width="2.2"/>
<line x1="108.9" y1="113.3" x2="69.7" y2="85.7" opacity="0.7" stroke="rgb(0,0,0)"  stroke-width="1.5"/>
<line x1="108.9" y1="113.3" x2="107.3" y2="143.3" opacity="0.5" stroke="rgb(0,0,0)"  stroke-width="1.6"/>
<line x1="108.9" y1="113.3" x2="108.2" y2="122.2" opacity="0.5" stroke="rgb(0,0,0)"  stroke-width="0.8"/>
<line x1="69.7" y1="85.7" x2="40.0" y2="103.3" opacity="0.3" stroke="rgb(0,0,0)"  stroke-width="1.5"/>
<line x1="69.7" y1="85.7" x2="69.8" y2="55.9" opacity="0.5" stroke="rgb(0,0,0)"  stroke-width="1.4"/>
<line x1="69.7" y1="85.7" x2="68.9" y2="77.1" opacity="0.5" stroke="rgb(0,0,0)"  stroke-width="2.2"/>
<line x1="517.9" y1="137.0" x2="477.9" y2="110.1" opacity="0.7" stroke="rgb(0,0,0)"  stroke-width="1.7"/>
<line x1="477.9" y1="110.1" x2="487.8" y2="67.9" opacity="0.6" stroke="rgb(0,0,0)"  stroke-width="1.5"/>
<line x1="487.8" y1="67.9" x2="535.6" y2="60.4" opacity="0.5" stroke="rgb(0,0,0)"  stroke-width="1.3"/>
<line x1="535.6" y1="60.4" x2="555.1" y2="105.0" opacity="0.4" stroke="rgb(0,0,0)"  stroke-width="1.5"/>
<line x1="555.1" y1="105.0" x2="517.9" y2="137.0" opacity="0.5" stroke="rgb(0,0,0)"  stroke-width="1.6"/>
<circle cx="482.312101" cy="71.065420" r="5.636364" opacity="0.200000" style="stroke:black;stroke-width:0.5;fill:url(#radialffffffbfbfbf)"/>
<circle cx="355.366751" cy="130.560973" r="5.636364" opacity="0.241013" style="stroke:black;stroke-width:0.5;fill:url(#radialffffffbfbfbf)"/>
<circle cx="191.827361" cy="123.177654" r="5.636364" opacity="0.264541" style="stroke:black;stroke-width:0.5;fill:url(#radialffffffbfbfbf)"/>
<circle cx="108.198128" cy="122.209984" r="5.636364" opacity="0.272802" style="stroke:black;stroke-width:0.5;fill:url(#radialffffffbfbfbf)"/>
<circle cx="272.121360" cy="127.016077" r="5.636364" opacity="0.273500" style="stroke:black;stroke-width:0.5;fill:url(#radialffffffbfbfbf)"/>
<circle cx="437.173539" cy="136.734705" r="5.636364" opacity="0.296673" style="stroke:black;stroke-width:0.5;fill:url(#radialffffffbfbfbf)"/>
<circle cx="516.606312" cy="150.191764" r="5.636364" opacity="0.408800" style="stroke:black;stroke-width:0.5;fill:url(#radialffffffbfbfbf)"/>
<circle cx="551.213402" cy="44.093242" r="5.636364" opacity="0.419807" style="stroke:black;stroke-width:0.5;fill:url(#radialffffffbfbfbf)"/>
<circle cx="580.791837" cy="112.578446" r="5.636364" opacity="0.557021" style="stroke:black;stroke-width:0.5;fill:url(#radialffffffbfbfbf)"/>
<circle cx="69.833254" cy="55.908488" r="5.636364" opacity="0.591649" style="stroke:black;stroke-width:0.5;fill:url(#radialffffffbfbfbf)"/>
<circle cx="151.878734" cy="59.208242" r="5.636364" opacity="0.597133" style="stroke:black;stroke-width:0.5;fill:url(#radialffffffbfbfbf)"/>
<circle cx="487.760081" cy="67.914043" r="13.818182" opacity="0.611820" style="stroke:black;stroke-width:0.5;fill:url(#radialffffff666666)"/>
<circle cx="317.540546" cy="67.223772" r="5.636364" opacity="0.630687" style="stroke:black;stroke-width:0.5;fill:url(#radialffffffbfbfbf)"/>
<circle cx="235.130576" cy="61.695153" r="5.636364" opacity="0.630880" style="stroke:black;stroke-width:0.5;fill:url(#radialffffffbfbfbf)"/>
<circle cx="399.153800" cy="72.120180" r="5.636364" opacity="0.647750" style="stroke:black;stroke-width:0.5;fill:url(#radialffffffbfbfbf)"/>
<circle cx="355.092577" cy="125.654888" r="13.818182" opacity="0.659291" style="stroke:black;stroke-width:0.5;fill:url(#radialffffff666666)"/>
<circle cx="191.382233" cy="115.816914" r="13.818182" opacity="0.664896" style="stroke:black;stroke-width:0.5;fill:url(#radialffffff666666)"/>
<circle cx="108.875497" cy="113.346131" r="13.818182" opacity="0.665078" style="stroke:black;stroke-width:0.5;fill:url(#radialffffff666666)"/>
<circle cx="272.718089" cy="120.219810" r="13.818182" opacity="0.669418" style="stroke:black;stroke-width:0.5;fill:url(#radialffffff666666)"/>
<circle cx="436.331667" cy="131.212537" r="13.818182" opacity="0.681000" style="stroke:black;stroke-width:0.5;fill:url(#radialffffff666666)"/>
<circle cx="535.595215" cy="60.427505" r="13.818182" opacity="0.684023" style="stroke:black;stroke-width:0.5;fill:url(#radialffffff666666)"/>
<circle cx="40.000000" cy="103.314622" r="5.636364" opacity="0.687462" style="stroke:black;stroke-width:0.5;fill:url(#radialffffffbfbfbf)"/>
<circle cx="468.248636" cy="40.922512" r="5.636755" opacity="0.707131" style="stroke:black;stroke-width:0.5;fill:url(#radialffffffbfbfbf)"/>
<circle cx="517.944921" cy="137.047585" r="14.372136" opacity="0.721141" style="stroke:black;stroke-width:0.5;fill:url(#radialffffff666666)"/>
<circle cx="150.830426" cy="89.531782" r="15.264404" opacity="0.743189" style="stroke:black;stroke-width:0.5;fill:url(#radialffffff666666)"/>
<circle cx="69.665525" cy="85.719163" r="15.297948" opacity="0.744005" style="stroke:black;stroke-width:0.5;fill:url(#radialffffff666666)"/>
<circle cx="555.100209" cy="104.975789" r="15.409122" opacity="0.746704" style="stroke:black;stroke-width:0.5;fill:url(#radialffffff666666)"/>
<circle cx="315.711650" cy="98.708515" r="15.763730" opacity="0.755247" style="stroke:black;stroke-width:0.5;fill:url(#radialffffff666666)"/>
<circle cx="233.324260" cy="92.899272" r="15.916115" opacity="0.758889" style="stroke:black;stroke-width:0.5;fill:url(#radialffffff666666)"/>
<circle cx="397.012025" cy="103.775878" r="16.226636" opacity="0.766256" style="stroke:black;stroke-width:0.5;fill:url(#radialffffff666666)"/>
<circle cx="352.750817" cy="157.600887" r="6.718836" opacity="0.772027" style="stroke:black;stroke-width:0.5;fill:url(#radialffffffbfbfbf)"/>
<circle cx="477.928557" cy="110.120565" r="17.266498" opacity="0.790427" style="stroke:black;stroke-width:0.5;fill:url(#radialffffff666666)"/>
<circle cx="189.653330" cy="146.808146" r="7.044086" opacity="0.790493" style="stroke:black;stroke-width:0.5;fill:url(#radialffffffbfbfbf)"/>
<circle cx="270.705337" cy="151.436832" r="7.056987" opacity="0.791216" style="stroke:black;stroke-width:0.5;fill:url(#radialffffffbfbfbf)"/>
<circle cx="433.277056" cy="163.003709" r="7.075751" opacity="0.792267" style="stroke:black;stroke-width:0.5;fill:url(#radialffffffbfbfbf)"/>
<circle cx="107.278842" cy="143.343888" r="7.245413" opacity="0.801710" style="stroke:black;stroke-width:0.5;fill:url(#radialffffffbfbfbf)"/>
<circle cx="521.712382" cy="164.122981" r="8.569087" opacity="0.871872" style="stroke:black;stroke-width:0.5;fill:url(#radialffffffbfbfbf)"/>
<circle cx="539.859412" cy="40.000000" r="8.733275" opacity="0.880185" style="stroke:black;stroke-width:0.5;fill:url(#radialffffffbfbfbf)"/>
<circle cx="569.250764" cy="105.969263" r="10.210192" opacity="0.951705" style="stroke:black;stroke-width:0.5;fill:url(#radialffffffbfbfbf)"/>
<circle cx="151.120727" cy="80.822755" r="10.383763" opacity="0.959761" style="stroke:black;stroke-width:0.5;fill:url(#radialffffffbfbfbf)"/>
<circle cx="68.920419" cy="77.123032" r="10.389627" opacity="0.960031" style="stroke:black;stroke-width:0.5;fill:url(#radialffffffbfbfbf)"/>
<circle cx="316.469658" cy="92.454144" r="10.650765" opacity="0.972022" style="stroke:black;stroke-width:0.5;fill:url(#radialffffffbfbfbf)"/>
<circle cx="233.440380" cy="86.348149" r="10.703931" opacity="0.974445" style="stroke:black;stroke-width:0.5;fill:url(#radialffffffbfbfbf)"/>
<circle cx="396.231438" cy="98.224680" r="10.852482" opacity="0.981183" style="stroke:black;stroke-width:0.5;fill:url(#radialffffffbfbfbf)"/>
<circle cx="476.389963" cy="104.140367" r="11.272727" opacity="1.000000" style="stroke:black;stroke-width:0.5;fill:url(#radialffffffbfbfbf)"/>
</svg>
</g>
</svg>
