<?xml version="1.0"?>
<svg version="1.1" id="topsvg"
xmlns="http://www.w3.org/2000/svg" xmlns:xlink="http://www.w3.org/1999/xlink"
xmlns:cml="http://www.xml-cml.org/schema" x="0" y="0" width="1024px" height="1024px" viewBox="0 0 100 100">
<title>138241 - Open Babel Depiction</title>
<rect x="0" y="0" width="100" height="100" fill="white"/>
<defs>
<radialGradient id='radialffffff666666' cx='50%' cy='50%' r='50%' fx='30%' fy='30%'>
  <stop offset=' 0%' stop-color="rgb(255,255,255)"  stop-opacity='1.0'/>
  <stop offset='100%' stop-color="rgb(102,102,102)"  stop-opacity ='1.0'/>
</radialGradient>
<radialGradient id='radialffffffbfbfbf' cx='50%' cy='50%' r='50%' fx='30%' fy='30%'>
  <stop offset=' 0%' stop-color="rgb(255,255,255)"  stop-opacity='1.0'/>
  <stop offset='100%' stop-color="rgb(191,191,191)"  stop-opacity ='1.0'/>
</radialGradient>
</defs>
<g transform="translate(0,0)">
<svg width="100" height="100" x="0" y="0" viewBox="0 0 398.894 257.016"
font-family="sans-serif" stroke="rgb(0,0,0)" stroke-width="2"  stroke-linecap="round">
<line x1="209.4" y1="146.6" x2="163.4" y2="146.5" opacity="1.0" stroke="rgb(0,0,0)"  stroke-width="1.5"/>
<line x1="232.5" y1="108.6" x2="210.7" y2="66.3" opacity="0.5" stroke="rgb(0,0,0)"  stroke-width="1.5"/>
<line x1="298.3" y1="148.5" x2="345.8" y2="149.6" opacity="0.5" stroke="rgb(0,0,0)"  stroke-width="1.5"/>
<line x1="276.9" y1="109.6" x2="295.1" y2="80.1" opacity="0.5" stroke="rgb(0,0,0)"  stroke-width="1.5"/>
<line x1="230.9" y1="185.5" x2="213.5" y2="215.4" opacity="0.5" stroke="rgb(0,0,0)"  stroke-width="1.5"/>
<line x1="275.3" y1="186.5" x2="291.5" y2="217.0" opacity="0.5" stroke="rgb(0,0,0)"  stroke-width="1.5"/>
<line x1="210.7" y1="66.3" x2="191.0" y2="62.6" opacity="0.5" stroke="rgb(0,0,0)"  stroke-width="1.8"/>
<line x1="210.7" y1="66.3" x2="233.6" y2="40.0" opacity="0.6" stroke="rgb(0,0,0)"  stroke-width="1.5"/>
<line x1="210.7" y1="66.3" x2="191.0" y2="62.6" opacity="0.5" stroke="rgb(0,0,0)"  stroke-width="1.2"/>
<line x1="141.2" y1="146.4" x2="158.0" y2="146.4" opacity="0.4" stroke="rgb(0,0,0)"  stroke-width="2.7"/>
<line x1="141.2" y1="146.4" x2="158.0" y2="146.4" opacity="0.9" stroke="rgb(0,0,0)"  stroke-width="0.4"/>
<line x1="345.8" y1="149.6" x2="357.8" y2="178.6" opacity="0.1" stroke="rgb(0,0,0)"  stroke-width="1.3"/>
<line x1="345.8" y1="149.6" x2="358.9" y2="122.7" opacity="0.4" stroke="rgb(0,0,0)"  stroke-width="1.3"/>
<line x1="345.8" y1="149.6" x2="357.7" y2="148.2" opacity="0.4" stroke="rgb(0,0,0)"  stroke-width="1.9"/>
<line x1="96.8" y1="146.3" x2="79.5" y2="146.2" opacity="0.6" stroke="rgb(0,0,0)"  stroke-width="2.7"/>
<line x1="96.8" y1="146.2" x2="79.5" y2="146.2" opacity="0.9" stroke="rgb(0,0,0)"  stroke-width="0.4"/>
<line x1="74.6" y1="146.2" x2="40.0" y2="146.1" opacity="0.1" stroke="rgb(0,0,0)"  stroke-width="1.5"/>
<line x1="206.8" y1="148.0" x2="228.3" y2="187.0" opacity="0.5" stroke="rgb(0,0,0)"  stroke-width="1.5"/>
<line x1="212.1" y1="145.1" x2="233.5" y2="184.1" opacity="0.5" stroke="rgb(0,0,0)"  stroke-width="1.5" stroke-dasharray="5.0,5.0"/>
<line x1="230.8" y1="188.5" x2="275.2" y2="189.5" opacity="0.5" stroke="rgb(0,0,0)"  stroke-width="1.5"/>
<line x1="230.9" y1="182.5" x2="275.3" y2="183.5" opacity="0.5" stroke="rgb(0,0,0)"  stroke-width="1.5" stroke-dasharray="5.0,5.0"/>
<line x1="277.8" y1="188.0" x2="300.9" y2="150.1" opacity="0.5" stroke="rgb(0,0,0)"  stroke-width="1.5"/>
<line x1="272.7" y1="184.9" x2="295.7" y2="147.0" opacity="0.5" stroke="rgb(0,0,0)"  stroke-width="1.5" stroke-dasharray="5.0,5.0"/>
<line x1="300.9" y1="147.1" x2="279.6" y2="108.1" opacity="0.5" stroke="rgb(0,0,0)"  stroke-width="1.5"/>
<line x1="295.7" y1="150.0" x2="274.3" y2="111.0" opacity="0.5" stroke="rgb(0,0,0)"  stroke-width="1.5" stroke-dasharray="5.0,5.0"/>
<line x1="277.0" y1="106.6" x2="232.6" y2="105.6" opacity="0.5" stroke="rgb(0,0,0)"  stroke-width="1.5"/>
<line x1="276.9" y1="112.6" x2="232.5" y2="111.6" opacity="0.5" stroke="rgb(0,0,0)"  stroke-width="1.5" stroke-dasharray="5.0,5.0"/>
<line x1="230.0" y1="107.1" x2="206.9" y2="145.0" opacity="0.5" stroke="rgb(0,0,0)"  stroke-width="1.5"/>
<line x1="235.1" y1="110.2" x2="212.0" y2="148.2" opacity="0.5" stroke="rgb(0,0,0)"  stroke-width="1.5" stroke-dasharray="5.0,5.0"/>
<line x1="163.4" y1="143.5" x2="141.2" y2="143.4" opacity="0.4" stroke="rgb(0,0,0)"  stroke-width="1.1"/>
<line x1="163.4" y1="149.5" x2="141.2" y2="149.4" opacity="0.4" stroke="rgb(0,0,0)"  stroke-width="1.1" stroke-dasharray="5.0,5.0"/>
<line x1="141.2" y1="143.4" x2="96.8" y2="143.2" opacity="0.2" stroke="rgb(0,0,0)"  stroke-width="0.7"/>
<line x1="141.2" y1="149.4" x2="96.8" y2="149.2" opacity="0.2" stroke="rgb(0,0,0)"  stroke-width="0.7" stroke-dasharray="5.0,5.0"/>
<line x1="96.8" y1="143.2" x2="74.6" y2="143.2" opacity="0.4" stroke="rgb(0,0,0)"  stroke-width="1.1"/>
<line x1="96.8" y1="149.2" x2="74.6" y2="149.2" opacity="0.4" stroke="rgb(0,0,0)"  stroke-width="1.1" stroke-dasharray="5.0,5.0"/>
<line x1="74.6" y1="149.2" x2="96.8" y2="149.3" opacity="0.6" stroke="rgb(0,0,0)"  stroke-width="1.9"/>
<line x1="74.6" y1="143.2" x2="96.8" y2="143.3" opacity="0.6" stroke="rgb(0,0,0)"  stroke-width="1.9" stroke-dasharray="5.0,5.0"/>
<line x1="96.8" y1="149.3" x2="141.2" y2="149.4" opacity="0.8" stroke="rgb(0,0,0)"  stroke-width="2.3"/>
<line x1="96.8" y1="143.3" x2="141.2" y2="143.4" opacity="0.8" stroke="rgb(0,0,0)"  stroke-width="2.3" stroke-dasharray="5.0,5.0"/>
<line x1="141.2" y1="149.4" x2="163.4" y2="149.5" opacity="0.6" stroke="rgb(0,0,0)"  stroke-width="1.9"/>
<line x1="141.2" y1="143.4" x2="163.4" y2="143.5" opacity="0.6" stroke="rgb(0,0,0)"  stroke-width="1.9" stroke-dasharray="5.0,5.0"/>
<circle cx="157.972259" cy="146.401045" r="5.636364" opacity="0.200000" style="stroke:black;stroke-width:0.5;fill:url(#radialffffffbfbfbf)"/>
<circle cx="79.466273" cy="146.165483" r="5.636364" opacity="0.200000" style="stroke:black;stroke-width:0.5;fill:url(#radialffffffbfbfbf)"/>
<circle cx="141.167737" cy="146.378762" r="13.818182" opacity="0.469268" style="stroke:black;stroke-width:0.5;fill:url(#radialffffff666666)"/>
<circle cx="96.764202" cy="146.238698" r="13.818182" opacity="0.469391" style="stroke:black;stroke-width:0.5;fill:url(#radialffffff666666)"/>
<circle cx="190.998761" cy="62.578986" r="5.636364" opacity="0.541265" style="stroke:black;stroke-width:0.5;fill:url(#radialffffffbfbfbf)"/>
<circle cx="358.894358" cy="122.676079" r="5.636364" opacity="0.608321" style="stroke:black;stroke-width:0.5;fill:url(#radialffffffbfbfbf)"/>
<circle cx="357.777028" cy="178.644462" r="5.636364" opacity="0.625203" style="stroke:black;stroke-width:0.5;fill:url(#radialffffffbfbfbf)"/>
<circle cx="275.266479" cy="186.484874" r="13.818182" opacity="0.707074" style="stroke:black;stroke-width:0.5;fill:url(#radialffffff666666)"/>
<circle cx="230.878860" cy="185.520341" r="13.818182" opacity="0.707090" style="stroke:black;stroke-width:0.5;fill:url(#radialffffff666666)"/>
<circle cx="209.439487" cy="146.595225" r="13.818182" opacity="0.707107" style="stroke:black;stroke-width:0.5;fill:url(#radialffffff666666)"/>
<circle cx="163.380647" cy="146.464711" r="13.818182" opacity="0.707107" style="stroke:black;stroke-width:0.5;fill:url(#radialffffff666666)"/>
<circle cx="298.300674" cy="148.521108" r="13.818182" opacity="0.707107" style="stroke:black;stroke-width:0.5;fill:url(#radialffffff666666)"/>
<circle cx="276.937700" cy="109.589626" r="13.819462" opacity="0.707140" style="stroke:black;stroke-width:0.5;fill:url(#radialffffff666666)"/>
<circle cx="213.466333" cy="215.449514" r="5.636886" opacity="0.707140" style="stroke:black;stroke-width:0.5;fill:url(#radialffffffbfbfbf)"/>
<circle cx="232.543714" cy="108.628276" r="13.820742" opacity="0.707172" style="stroke:black;stroke-width:0.5;fill:url(#radialffffff666666)"/>
<circle cx="210.747814" cy="66.319337" r="13.822023" opacity="0.707205" style="stroke:black;stroke-width:0.5;fill:url(#radialffffff666666)"/>
<circle cx="74.573575" cy="146.181399" r="13.823303" opacity="0.707238" style="stroke:black;stroke-width:0.5;fill:url(#radialffffff666666)"/>
<circle cx="233.641945" cy="40.000000" r="5.638714" opacity="0.707254" style="stroke:black;stroke-width:0.5;fill:url(#radialffffffbfbfbf)"/>
<circle cx="40.000000" cy="146.066801" r="5.638975" opacity="0.707271" style="stroke:black;stroke-width:0.5;fill:url(#radialffffffbfbfbf)"/>
<circle cx="345.763339" cy="149.568406" r="13.825223" opacity="0.707287" style="stroke:black;stroke-width:0.5;fill:url(#radialffffff666666)"/>
<circle cx="291.536210" cy="217.015687" r="5.641064" opacity="0.707402" style="stroke:black;stroke-width:0.5;fill:url(#radialffffffbfbfbf)"/>
<circle cx="295.076014" cy="80.102928" r="5.642891" opacity="0.707516" style="stroke:black;stroke-width:0.5;fill:url(#radialffffffbfbfbf)"/>
<circle cx="190.992395" cy="62.594903" r="7.973055" opacity="0.841004" style="stroke:black;stroke-width:0.5;fill:url(#radialffffffbfbfbf)"/>
<circle cx="357.726096" cy="148.186864" r="8.320856" opacity="0.859151" style="stroke:black;stroke-width:0.5;fill:url(#radialffffffbfbfbf)"/>
<circle cx="141.183654" cy="146.404229" r="21.551780" opacity="0.883082" style="stroke:black;stroke-width:0.5;fill:url(#radialffffff666666)"/>
<circle cx="96.780118" cy="146.264165" r="21.554341" opacity="0.883135" style="stroke:black;stroke-width:0.5;fill:url(#radialffffff666666)"/>
<circle cx="79.494922" cy="146.213232" r="11.248183" opacity="0.998911" style="stroke:black;stroke-width:0.5;fill:url(#radialffffffbfbfbf)"/>
<circle cx="158.004091" cy="146.445611" r="11.272727" opacity="1.000000" style="stroke:black;stroke-width:0.5;fill:url(#radialffffffbfbfbf)"/>
</svg>
</g>
</svg>
