<?xml version="1.0"?>
<svg version="1.1" id="topsvg"
xmlns="http://www.w3.org/2000/svg" xmlns:xlink="http://www.w3.org/1999/xlink"
xmlns:cml="http://www.xml-cml.org/schema" x="0" y="0" width="1024px" height="1024px" viewBox="0 0 100 100">
<title>138548 - Open Babel Depiction</title>
<rect x="0" y="0" width="100" height="100" fill="white"/>
<defs>
<radialGradient id='radialffffff666666' cx='50%' cy='50%' r='50%' fx='30%' fy='30%'>
  <stop offset=' 0%' stop-color="rgb(255,255,255)"  stop-opacity='1.0'/>
  <stop offset='100%' stop-color="rgb(102,102,102)"  stop-opacity ='1.0'/>
</radialGradient>
<radialGradient id='radialffffffbfbfbf' cx='50%' cy='50%' r='50%' fx='30%' fy='30%'>
  <stop offset=' 0%' stop-color="rgb(255,255,255)"  stop-opacity='1.0'/>
  <stop offset='100%' stop-color="rgb(191,191,191)"  stop-opacity ='1.0'/>
</radialGradient>
</defs>
<g transform="translate(0,0)">
<svg width="100" height="100" x="0" y="0" viewBox="0 0 701.27 205.948"
font-family="sans-serif" stroke="rgb(0,0,0)" stroke-width="2"  stroke-linecap="round">
<line x1="560.1" y1="112.0" x2="518.6" y2="134.2" opacity="1.0" stroke="rgb(0,0,0)"  stroke-width="1.6"/>
<line x1="560.1" y1="112.0" x2="560.2" y2="107.3" opacity="0.5" stroke="rgb(0,0,0)"  stroke-width="2.4"/>
<line x1="600.6" y1="136.9" x2="606.5" y2="164.6" opacity="0.8" stroke="rgb(0,0,0)"  stroke-width="1.8"/>
<line x1="600.6" y1="136.9" x2="598.0" y2="148.9" opacity="0.6" stroke="rgb(0,0,0)"  stroke-width="0.9"/>
<line x1="567.1" y1="68.6" x2="559.9" y2="70.8" opacity="0.3" stroke="rgb(0,0,0)"  stroke-width="0.6"/>
<line x1="567.1" y1="68.6" x2="547.3" y2="42.9" opacity="0.2" stroke="rgb(0,0,0)"  stroke-width="1.4"/>
<line x1="636.6" y1="103.6" x2="652.5" y2="105.1" opacity="0.5" stroke="rgb(0,0,0)"  stroke-width="2.0"/>
<line x1="636.6" y1="103.6" x2="661.3" y2="109.3" opacity="0.7" stroke="rgb(0,0,0)"  stroke-width="1.1"/>
<line x1="615.0" y1="59.6" x2="628.5" y2="41.7" opacity="0.4" stroke="rgb(0,0,0)"  stroke-width="0.9"/>
<line x1="615.0" y1="59.6" x2="620.0" y2="40.0" opacity="0.3" stroke="rgb(0,0,0)"  stroke-width="1.8"/>
<line x1="518.6" y1="134.2" x2="479.0" y2="107.5" opacity="0.6" stroke="rgb(0,0,0)"  stroke-width="1.6"/>
<line x1="518.6" y1="134.2" x2="516.8" y2="165.9" opacity="0.5" stroke="rgb(0,0,0)"  stroke-width="1.7"/>
<line x1="518.6" y1="134.2" x2="518.6" y2="139.9" opacity="0.6" stroke="rgb(0,0,0)"  stroke-width="0.8"/>
<line x1="479.0" y1="107.5" x2="437.3" y2="130.5" opacity="0.3" stroke="rgb(0,0,0)"  stroke-width="1.6"/>
<line x1="479.0" y1="107.5" x2="480.0" y2="76.1" opacity="0.5" stroke="rgb(0,0,0)"  stroke-width="1.6"/>
<line x1="479.0" y1="107.5" x2="479.1" y2="101.6" opacity="0.5" stroke="rgb(0,0,0)"  stroke-width="2.4"/>
<line x1="437.3" y1="130.5" x2="397.7" y2="103.4" opacity="0.8" stroke="rgb(0,0,0)"  stroke-width="1.6"/>
<line x1="437.3" y1="130.5" x2="435.5" y2="161.7" opacity="0.5" stroke="rgb(0,0,0)"  stroke-width="1.7"/>
<line x1="437.3" y1="130.5" x2="437.4" y2="137.1" opacity="0.6" stroke="rgb(0,0,0)"  stroke-width="0.8"/>
<line x1="397.7" y1="103.4" x2="355.9" y2="127.0" opacity="0.3" stroke="rgb(0,0,0)"  stroke-width="1.6"/>
<line x1="397.7" y1="103.4" x2="399.0" y2="72.5" opacity="0.5" stroke="rgb(0,0,0)"  stroke-width="1.5"/>
<line x1="397.7" y1="103.4" x2="397.8" y2="96.1" opacity="0.5" stroke="rgb(0,0,0)"  stroke-width="2.3"/>
<line x1="355.9" y1="127.0" x2="315.2" y2="101.0" opacity="0.8" stroke="rgb(0,0,0)"  stroke-width="1.6"/>
<line x1="355.9" y1="127.0" x2="356.1" y2="134.6" opacity="0.5" stroke="rgb(0,0,0)"  stroke-width="0.8"/>
<line x1="355.9" y1="127.0" x2="354.7" y2="157.8" opacity="0.3" stroke="rgb(0,0,0)"  stroke-width="1.7"/>
<line x1="315.2" y1="101.0" x2="273.4" y2="124.3" opacity="0.6" stroke="rgb(0,0,0)"  stroke-width="1.5"/>
<line x1="315.2" y1="101.0" x2="316.7" y2="70.0" opacity="0.5" stroke="rgb(0,0,0)"  stroke-width="1.5"/>
<line x1="315.2" y1="101.0" x2="314.7" y2="93.8" opacity="0.5" stroke="rgb(0,0,0)"  stroke-width="2.3"/>
<line x1="273.4" y1="124.3" x2="233.9" y2="96.7" opacity="0.8" stroke="rgb(0,0,0)"  stroke-width="1.5"/>
<line x1="273.4" y1="124.3" x2="273.7" y2="131.6" opacity="0.5" stroke="rgb(0,0,0)"  stroke-width="0.8"/>
<line x1="273.4" y1="124.3" x2="271.4" y2="155.1" opacity="0.3" stroke="rgb(0,0,0)"  stroke-width="1.6"/>
<line x1="233.9" y1="96.7" x2="191.1" y2="118.1" opacity="0.5" stroke="rgb(0,0,0)"  stroke-width="1.5"/>
<line x1="233.9" y1="96.7" x2="233.7" y2="89.7" opacity="0.5" stroke="rgb(0,0,0)"  stroke-width="2.2"/>
<line x1="233.9" y1="96.7" x2="236.4" y2="65.6" opacity="0.7" stroke="rgb(0,0,0)"  stroke-width="1.4"/>
<line x1="191.1" y1="118.1" x2="151.6" y2="90.9" opacity="0.5" stroke="rgb(0,0,0)"  stroke-width="1.5"/>
<line x1="191.1" y1="118.1" x2="188.7" y2="149.5" opacity="0.5" stroke="rgb(0,0,0)"  stroke-width="1.5"/>
<line x1="191.1" y1="118.1" x2="191.0" y2="124.7" opacity="0.5" stroke="rgb(0,0,0)"  stroke-width="0.7"/>
<line x1="151.6" y1="90.9" x2="108.8" y2="112.5" opacity="0.2" stroke="rgb(0,0,0)"  stroke-width="1.5"/>
<line x1="151.6" y1="90.9" x2="151.7" y2="84.1" opacity="0.5" stroke="rgb(0,0,0)"  stroke-width="2.2"/>
<line x1="151.6" y1="90.9" x2="153.9" y2="59.7" opacity="0.7" stroke="rgb(0,0,0)"  stroke-width="1.4"/>
<line x1="108.8" y1="112.5" x2="69.5" y2="84.6" opacity="0.5" stroke="rgb(0,0,0)"  stroke-width="1.4"/>
<line x1="108.8" y1="112.5" x2="109.1" y2="120.6" opacity="0.5" stroke="rgb(0,0,0)"  stroke-width="0.7"/>
<line x1="108.8" y1="112.5" x2="105.7" y2="143.0" opacity="0.2" stroke="rgb(0,0,0)"  stroke-width="1.5"/>
<line x1="69.5" y1="84.6" x2="67.5" y2="76.8" opacity="0.5" stroke="rgb(0,0,0)"  stroke-width="2.1"/>
<line x1="69.5" y1="84.6" x2="40.0" y2="101.7" opacity="0.7" stroke="rgb(0,0,0)"  stroke-width="1.4"/>
<line x1="69.5" y1="84.6" x2="70.9" y2="54.5" opacity="0.5" stroke="rgb(0,0,0)"  stroke-width="1.3"/>
<line x1="600.6" y1="136.9" x2="560.1" y2="112.0" opacity="0.4" stroke="rgb(0,0,0)"  stroke-width="1.6"/>
<line x1="560.1" y1="112.0" x2="567.1" y2="68.6" opacity="0.5" stroke="rgb(0,0,0)"  stroke-width="1.5"/>
<line x1="567.1" y1="68.6" x2="615.0" y2="59.6" opacity="0.5" stroke="rgb(0,0,0)"  stroke-width="1.2"/>
<line x1="615.0" y1="59.6" x2="636.6" y2="103.6" opacity="0.4" stroke="rgb(0,0,0)"  stroke-width="1.4"/>
<line x1="636.6" y1="103.6" x2="600.6" y2="136.9" opacity="0.5" stroke="rgb(0,0,0)"  stroke-width="1.5"/>
<circle cx="559.871319" cy="70.757285" r="5.636364" opacity="0.200000" style="stroke:black;stroke-width:0.5;fill:url(#radialffffffbfbfbf)"/>
<circle cx="109.106333" cy="120.613305" r="5.636364" opacity="0.211649" style="stroke:black;stroke-width:0.5;fill:url(#radialffffffbfbfbf)"/>
<circle cx="190.996756" cy="124.654290" r="5.636364" opacity="0.215186" style="stroke:black;stroke-width:0.5;fill:url(#radialffffffbfbfbf)"/>
<circle cx="273.709567" cy="131.584919" r="5.636364" opacity="0.256562" style="stroke:black;stroke-width:0.5;fill:url(#radialffffffbfbfbf)"/>
<circle cx="356.132124" cy="134.639039" r="5.636364" opacity="0.296844" style="stroke:black;stroke-width:0.5;fill:url(#radialffffffbfbfbf)"/>
<circle cx="437.432364" cy="137.119101" r="5.636364" opacity="0.297140" style="stroke:black;stroke-width:0.5;fill:url(#radialffffffbfbfbf)"/>
<circle cx="518.561676" cy="139.863617" r="5.636364" opacity="0.300079" style="stroke:black;stroke-width:0.5;fill:url(#radialffffffbfbfbf)"/>
<circle cx="597.955913" cy="148.945353" r="5.636364" opacity="0.341655" style="stroke:black;stroke-width:0.5;fill:url(#radialffffffbfbfbf)"/>
<circle cx="628.484219" cy="41.667350" r="5.636364" opacity="0.386584" style="stroke:black;stroke-width:0.5;fill:url(#radialffffffbfbfbf)"/>
<circle cx="661.270059" cy="109.299836" r="5.636364" opacity="0.489919" style="stroke:black;stroke-width:0.5;fill:url(#radialffffffbfbfbf)"/>
<circle cx="70.941112" cy="54.454666" r="5.636364" opacity="0.567167" style="stroke:black;stroke-width:0.5;fill:url(#radialffffffbfbfbf)"/>
<circle cx="153.857101" cy="59.685694" r="5.636364" opacity="0.608811" style="stroke:black;stroke-width:0.5;fill:url(#radialffffffbfbfbf)"/>
<circle cx="567.076076" cy="68.628753" r="13.818182" opacity="0.613464" style="stroke:black;stroke-width:0.5;fill:url(#radialffffff666666)"/>
<circle cx="236.382860" cy="65.642358" r="5.636364" opacity="0.614693" style="stroke:black;stroke-width:0.5;fill:url(#radialffffffbfbfbf)"/>
<circle cx="316.657534" cy="70.009073" r="5.636364" opacity="0.626824" style="stroke:black;stroke-width:0.5;fill:url(#radialffffffbfbfbf)"/>
<circle cx="399.018815" cy="72.498811" r="5.636364" opacity="0.635280" style="stroke:black;stroke-width:0.5;fill:url(#radialffffffbfbfbf)"/>
<circle cx="108.832204" cy="112.502308" r="13.818182" opacity="0.647676" style="stroke:black;stroke-width:0.5;fill:url(#radialffffff666666)"/>
<circle cx="40.000000" cy="101.666146" r="5.636364" opacity="0.648542" style="stroke:black;stroke-width:0.5;fill:url(#radialffffffbfbfbf)"/>
<circle cx="191.077383" cy="118.146143" r="13.818182" opacity="0.651782" style="stroke:black;stroke-width:0.5;fill:url(#radialffffff666666)"/>
<circle cx="479.951399" cy="76.075389" r="5.636364" opacity="0.655997" style="stroke:black;stroke-width:0.5;fill:url(#radialffffffbfbfbf)"/>
<circle cx="273.403188" cy="124.299535" r="13.818182" opacity="0.665191" style="stroke:black;stroke-width:0.5;fill:url(#radialffffff666666)"/>
<circle cx="614.990617" cy="59.556692" r="13.818182" opacity="0.668139" style="stroke:black;stroke-width:0.5;fill:url(#radialffffff666666)"/>
<circle cx="355.896696" cy="126.956974" r="13.818182" opacity="0.681226" style="stroke:black;stroke-width:0.5;fill:url(#radialffffff666666)"/>
<circle cx="437.271112" cy="130.514203" r="13.818182" opacity="0.683079" style="stroke:black;stroke-width:0.5;fill:url(#radialffffff666666)"/>
<circle cx="518.626177" cy="134.181082" r="13.818182" opacity="0.685772" style="stroke:black;stroke-width:0.5;fill:url(#radialffffff666666)"/>
<circle cx="600.552076" cy="136.932048" r="13.818182" opacity="0.691278" style="stroke:black;stroke-width:0.5;fill:url(#radialffffff666666)"/>
<circle cx="636.591990" cy="103.552800" r="14.028232" opacity="0.712461" style="stroke:black;stroke-width:0.5;fill:url(#radialffffff666666)"/>
<circle cx="69.538216" cy="84.647567" r="14.375566" opacity="0.721227" style="stroke:black;stroke-width:0.5;fill:url(#radialffffff666666)"/>
<circle cx="547.271055" cy="42.850943" r="5.927037" opacity="0.725111" style="stroke:black;stroke-width:0.5;fill:url(#radialffffffbfbfbf)"/>
<circle cx="151.560867" cy="90.884810" r="15.213825" opacity="0.741957" style="stroke:black;stroke-width:0.5;fill:url(#radialffffff666666)"/>
<circle cx="233.860872" cy="96.738273" r="15.462199" opacity="0.747989" style="stroke:black;stroke-width:0.5;fill:url(#radialffffff666666)"/>
<circle cx="315.161112" cy="101.040487" r="15.954094" opacity="0.759794" style="stroke:black;stroke-width:0.5;fill:url(#radialffffff666666)"/>
<circle cx="397.657845" cy="103.368972" r="16.329564" opacity="0.768682" style="stroke:black;stroke-width:0.5;fill:url(#radialffffff666666)"/>
<circle cx="188.684397" cy="149.471036" r="6.785006" opacity="0.775819" style="stroke:black;stroke-width:0.5;fill:url(#radialffffffbfbfbf)"/>
<circle cx="479.038711" cy="107.548634" r="16.721528" opacity="0.777853" style="stroke:black;stroke-width:0.5;fill:url(#radialffffff666666)"/>
<circle cx="105.745832" cy="142.972564" r="6.898189" opacity="0.782263" style="stroke:black;stroke-width:0.5;fill:url(#radialffffffbfbfbf)"/>
<circle cx="560.135773" cy="111.989526" r="17.070803" opacity="0.785935" style="stroke:black;stroke-width:0.5;fill:url(#radialffffff666666)"/>
<circle cx="271.423008" cy="155.140671" r="7.096456" opacity="0.793426" style="stroke:black;stroke-width:0.5;fill:url(#radialffffffbfbfbf)"/>
<circle cx="516.813700" cy="165.947807" r="7.199745" opacity="0.799179" style="stroke:black;stroke-width:0.5;fill:url(#radialffffffbfbfbf)"/>
<circle cx="435.465085" cy="161.726219" r="7.290370" opacity="0.804193" style="stroke:black;stroke-width:0.5;fill:url(#radialffffffbfbfbf)"/>
<circle cx="354.658277" cy="157.794885" r="7.354480" opacity="0.807721" style="stroke:black;stroke-width:0.5;fill:url(#radialffffffbfbfbf)"/>
<circle cx="606.547441" cy="164.609412" r="7.972630" opacity="0.840981" style="stroke:black;stroke-width:0.5;fill:url(#radialffffffbfbfbf)"/>
<circle cx="620.021692" cy="40.000000" r="8.592759" opacity="0.873076" style="stroke:black;stroke-width:0.5;fill:url(#radialffffffbfbfbf)"/>
<circle cx="652.497928" cy="105.129848" r="9.591217" opacity="0.922407" style="stroke:black;stroke-width:0.5;fill:url(#radialffffffbfbfbf)"/>
<circle cx="67.525786" cy="76.765549" r="10.078772" opacity="0.945560" style="stroke:black;stroke-width:0.5;fill:url(#radialffffffbfbfbf)"/>
<circle cx="151.744695" cy="84.099309" r="10.465808" opacity="0.963545" style="stroke:black;stroke-width:0.5;fill:url(#radialffffffbfbfbf)"/>
<circle cx="233.657694" cy="89.730243" r="10.562765" opacity="0.967998" style="stroke:black;stroke-width:0.5;fill:url(#radialffffffbfbfbf)"/>
<circle cx="314.661229" cy="93.755103" r="10.755887" opacity="0.976807" style="stroke:black;stroke-width:0.5;fill:url(#radialffffffbfbfbf)"/>
<circle cx="397.767496" cy="96.064238" r="10.907061" opacity="0.983647" style="stroke:black;stroke-width:0.5;fill:url(#radialffffffbfbfbf)"/>
<circle cx="479.099987" cy="101.553270" r="11.098205" opacity="0.992229" style="stroke:black;stroke-width:0.5;fill:url(#radialffffffbfbfbf)"/>
<circle cx="560.197048" cy="107.277730" r="11.272727" opacity="1.000000" style="stroke:black;stroke-width:0.5;fill:url(#radialffffffbfbfbf)"/>
</svg>
</g>
</svg>
