<?xml version="1.0"?>
<svg version="1.1" id="topsvg"
xmlns="http://www.w3.org/2000/svg" xmlns:xlink="http://www.w3.org/1999/xlink"
xmlns:cml="http://www.xml-cml.org/schema" x="0" y="0" width="200px" height="200px" viewBox="0 0 100 100">
<title>139803 - Open Babel Depiction</title>
<rect x="0" y="0" width="100" height="100" fill="white"/>
<defs>
<radialGradient id='radialffffff666666' cx='50%' cy='50%' r='50%' fx='30%' fy='30%'>
  <stop offset=' 0%' stop-color="rgb(255,255,255)"  stop-opacity='1.0'/>
  <stop offset='100%' stop-color="rgb(102,102,102)"  stop-opacity ='1.0'/>
</radialGradient>
<radialGradient id='radialffffffbfbfbf' cx='50%' cy='50%' r='50%' fx='30%' fy='30%'>
  <stop offset=' 0%' stop-color="rgb(255,255,255)"  stop-opacity='1.0'/>
  <stop offset='100%' stop-color="rgb(191,191,191)"  stop-opacity ='1.0'/>
</radialGradient>
</defs>
<g transform="translate(0,0)">
<svg width="100" height="100" x="0" y="0" viewBox="0 0 355.974 275.44"
font-family="sans-serif" stroke="rgb(0,0,0)" stroke-width="4"  stroke-linecap="round">
<line x1="119.6" y1="134.4" x2="111.6" y2="184.6" opacity="1.0" stroke="rgb(0,0,0)"  stroke-width="1.7"/>
<line x1="119.6" y1="134.4" x2="164.5" y2="121.3" opacity="0.6" stroke="rgb(0,0,0)"  stroke-width="1.5"/>
<line x1="119.6" y1="134.4" x2="81.5" y2="106.0" opacity="0.5" stroke="rgb(0,0,0)"  stroke-width="1.5"/>
<polygon points="119.642066 134.374982 117.893059 126.861952 125.495895 129.351306 " stroke-width="1.546634" fill="rgb(0,0,0)"  stroke="rgb(0,0,0)" />
<line x1="111.6" y1="184.6" x2="69.0" y2="199.7" opacity="0.5" stroke="rgb(0,0,0)"  stroke-width="1.9"/>
<line x1="111.6" y1="184.6" x2="110.1" y2="198.5" opacity="0.6" stroke="rgb(0,0,0)"  stroke-width="1.0"/>
<line x1="111.6" y1="184.6" x2="137.9" y2="202.6" opacity="0.3" stroke="rgb(0,0,0)"  stroke-width="1.8"/>
<line x1="164.5" y1="121.3" x2="203.6" y2="146.5" opacity="0.6" stroke="rgb(0,0,0)"  stroke-width="1.5"/>
<line x1="164.5" y1="121.3" x2="163.7" y2="124.3" opacity="0.5" stroke="rgb(0,0,0)"  stroke-width="0.8"/>
<line x1="164.5" y1="121.3" x2="170.2" y2="86.5" opacity="0.3" stroke="rgb(0,0,0)"  stroke-width="1.4"/>
<line x1="81.5" y1="106.0" x2="87.0" y2="57.0" opacity="0.5" stroke="rgb(0,0,0)"  stroke-width="1.4"/>
<line x1="81.5" y1="106.0" x2="76.8" y2="112.0" opacity="0.5" stroke="rgb(0,0,0)"  stroke-width="0.9"/>
<line x1="81.5" y1="106.0" x2="51.1" y2="115.6" opacity="0.3" stroke="rgb(0,0,0)"  stroke-width="1.5"/>
<line x1="203.6" y1="146.5" x2="246.7" y2="129.4" opacity="0.5" stroke="rgb(0,0,0)"  stroke-width="1.5"/>
<line x1="203.6" y1="146.5" x2="204.0" y2="143.6" opacity="0.5" stroke="rgb(0,0,0)"  stroke-width="2.2"/>
<line x1="203.6" y1="146.5" x2="201.0" y2="181.3" opacity="0.7" stroke="rgb(0,0,0)"  stroke-width="1.6"/>
<line x1="69.0" y1="199.7" x2="67.2" y2="235.4" opacity="0.5" stroke="rgb(0,0,0)"  stroke-width="2.2"/>
<line x1="69.0" y1="199.7" x2="67.5" y2="188.4" opacity="0.7" stroke="rgb(0,0,0)"  stroke-width="2.6"/>
<line x1="69.0" y1="199.7" x2="40.0" y2="187.8" opacity="0.9" stroke="rgb(0,0,0)"  stroke-width="2.0"/>
<line x1="110.1" y1="198.5" x2="104.6" y2="233.8" opacity="0.7" stroke="rgb(0,0,0)"  stroke-width="0.4"/>
<line x1="110.1" y1="198.5" x2="140.9" y2="191.7" opacity="0.1" stroke="rgb(0,0,0)"  stroke-width="0.4"/>
<line x1="110.1" y1="198.5" x2="83.7" y2="182.4" opacity="0.1" stroke="rgb(0,0,0)"  stroke-width="0.4"/>
<line x1="246.7" y1="129.4" x2="285.6" y2="155.0" opacity="0.1" stroke="rgb(0,0,0)"  stroke-width="1.5"/>
<line x1="246.7" y1="129.4" x2="246.1" y2="131.9" opacity="0.5" stroke="rgb(0,0,0)"  stroke-width="0.8"/>
<line x1="246.7" y1="129.4" x2="250.7" y2="94.8" opacity="0.3" stroke="rgb(0,0,0)"  stroke-width="1.4"/>
<line x1="87.0" y1="57.0" x2="56.9" y2="40.0" opacity="0.5" stroke="rgb(0,0,0)"  stroke-width="1.4"/>
<line x1="87.0" y1="57.0" x2="113.3" y2="43.9" opacity="0.5" stroke="rgb(0,0,0)"  stroke-width="1.2"/>
<line x1="87.0" y1="57.0" x2="94.1" y2="49.4" opacity="0.4" stroke="rgb(0,0,0)"  stroke-width="1.9"/>
<line x1="285.6" y1="155.0" x2="316.0" y2="142.2" opacity="0.6" stroke="rgb(0,0,0)"  stroke-width="1.5"/>
<line x1="285.6" y1="155.0" x2="287.6" y2="152.4" opacity="0.5" stroke="rgb(0,0,0)"  stroke-width="2.1"/>
<line x1="285.6" y1="155.0" x2="283.1" y2="189.6" opacity="0.7" stroke="rgb(0,0,0)"  stroke-width="1.6"/>
<circle cx="83.679109" cy="182.377881" r="5.636364" opacity="0.200000" style="stroke:black;stroke-width:0.5;fill:url(#radialffffffbfbfbf)"/>
<circle cx="140.924397" cy="191.659488" r="5.636364" opacity="0.200000" style="stroke:black;stroke-width:0.5;fill:url(#radialffffffbfbfbf)"/>
<circle cx="104.644428" cy="233.786215" r="5.636364" opacity="0.355557" style="stroke:black;stroke-width:0.5;fill:url(#radialffffffbfbfbf)"/>
<circle cx="246.090880" cy="131.904244" r="5.636364" opacity="0.359044" style="stroke:black;stroke-width:0.5;fill:url(#radialffffffbfbfbf)"/>
<circle cx="163.670869" cy="124.266528" r="5.636364" opacity="0.363717" style="stroke:black;stroke-width:0.5;fill:url(#radialffffffbfbfbf)"/>
<circle cx="110.112078" cy="198.463820" r="13.818182" opacity="0.383271" style="stroke:black;stroke-width:0.5;fill:url(#radialffffff666666)"/>
<circle cx="76.832290" cy="111.974936" r="5.636364" opacity="0.395725" style="stroke:black;stroke-width:0.5;fill:url(#radialffffffbfbfbf)"/>
<circle cx="113.275668" cy="43.859710" r="5.636364" opacity="0.575553" style="stroke:black;stroke-width:0.5;fill:url(#radialffffffbfbfbf)"/>
<circle cx="246.666078" cy="129.446579" r="13.818182" opacity="0.649622" style="stroke:black;stroke-width:0.5;fill:url(#radialffffff666666)"/>
<circle cx="56.873568" cy="40.000000" r="5.636364" opacity="0.650323" style="stroke:black;stroke-width:0.5;fill:url(#radialffffffbfbfbf)"/>
<circle cx="164.451962" cy="121.279419" r="13.818182" opacity="0.651887" style="stroke:black;stroke-width:0.5;fill:url(#radialffffff666666)"/>
<circle cx="81.528652" cy="106.046473" r="13.818182" opacity="0.666001" style="stroke:black;stroke-width:0.5;fill:url(#radialffffff666666)"/>
<circle cx="315.974186" cy="142.208788" r="5.636364" opacity="0.671910" style="stroke:black;stroke-width:0.5;fill:url(#radialffffffbfbfbf)"/>
<circle cx="170.151653" cy="86.545295" r="5.636364" opacity="0.693173" style="stroke:black;stroke-width:0.5;fill:url(#radialffffffbfbfbf)"/>
<circle cx="250.702270" cy="94.807232" r="5.636364" opacity="0.699447" style="stroke:black;stroke-width:0.5;fill:url(#radialffffffbfbfbf)"/>
<circle cx="283.112724" cy="189.603808" r="5.636364" opacity="0.702849" style="stroke:black;stroke-width:0.5;fill:url(#radialffffffbfbfbf)"/>
<circle cx="86.989766" cy="57.030440" r="13.818182" opacity="0.705665" style="stroke:black;stroke-width:0.5;fill:url(#radialffffff666666)"/>
<circle cx="201.029335" cy="181.250362" r="5.765973" opacity="0.715191" style="stroke:black;stroke-width:0.5;fill:url(#radialffffffbfbfbf)"/>
<circle cx="111.563146" cy="184.587165" r="14.986980" opacity="0.736405" style="stroke:black;stroke-width:0.5;fill:url(#radialffffff666666)"/>
<circle cx="285.563853" cy="154.977533" r="15.614338" opacity="0.751660" style="stroke:black;stroke-width:0.5;fill:url(#radialffffff666666)"/>
<circle cx="203.607922" cy="146.473752" r="15.945423" opacity="0.759587" style="stroke:black;stroke-width:0.5;fill:url(#radialffffff666666)"/>
<circle cx="51.121587" cy="115.550315" r="6.508888" opacity="0.759869" style="stroke:black;stroke-width:0.5;fill:url(#radialffffffbfbfbf)"/>
<circle cx="40.000000" cy="187.799777" r="6.546049" opacity="0.762035" style="stroke:black;stroke-width:0.5;fill:url(#radialffffffbfbfbf)"/>
<circle cx="119.642066" cy="134.374982" r="16.237252" opacity="0.766506" style="stroke:black;stroke-width:0.5;fill:url(#radialffffff666666)"/>
<circle cx="137.920948" cy="202.568643" r="7.613744" opacity="0.821835" style="stroke:black;stroke-width:0.5;fill:url(#radialffffffbfbfbf)"/>
<circle cx="69.024629" cy="199.673044" r="19.948074" opacity="0.849591" style="stroke:black;stroke-width:0.5;fill:url(#radialffffff666666)"/>
<circle cx="67.246744" cy="235.439910" r="8.175084" opacity="0.851592" style="stroke:black;stroke-width:0.5;fill:url(#radialffffffbfbfbf)"/>
<circle cx="94.058821" cy="49.418870" r="8.777210" opacity="0.882396" style="stroke:black;stroke-width:0.5;fill:url(#radialffffffbfbfbf)"/>
<circle cx="287.642410" cy="152.418555" r="9.662424" opacity="0.925824" style="stroke:black;stroke-width:0.5;fill:url(#radialffffffbfbfbf)"/>
<circle cx="204.045857" cy="143.581420" r="9.805327" opacity="0.932645" style="stroke:black;stroke-width:0.5;fill:url(#radialffffffbfbfbf)"/>
<circle cx="121.694477" cy="128.106629" r="9.888712" opacity="0.936603" style="stroke:black;stroke-width:0.5;fill:url(#radialffffffbfbfbf)"/>
<circle cx="67.508198" cy="188.381512" r="11.272727" opacity="1.000000" style="stroke:black;stroke-width:0.5;fill:url(#radialffffffbfbfbf)"/>
</svg>
</g>
</svg>
