<?xml version="1.0"?>
<svg version="1.1" id="topsvg"
xmlns="http://www.w3.org/2000/svg" xmlns:xlink="http://www.w3.org/1999/xlink"
xmlns:cml="http://www.xml-cml.org/schema" x="0" y="0" width="200px" height="200px" viewBox="0 0 100 100">
<title>14018 - Open Babel Depiction</title>
<rect x="0" y="0" width="100" height="100" fill="white"/>
<defs>
<radialGradient id='radialffffff666666' cx='50%' cy='50%' r='50%' fx='30%' fy='30%'>
  <stop offset=' 0%' stop-color="rgb(255,255,255)"  stop-opacity='1.0'/>
  <stop offset='100%' stop-color="rgb(102,102,102)"  stop-opacity ='1.0'/>
</radialGradient>
<radialGradient id='radialffffffbfbfbf' cx='50%' cy='50%' r='50%' fx='30%' fy='30%'>
  <stop offset=' 0%' stop-color="rgb(255,255,255)"  stop-opacity='1.0'/>
  <stop offset='100%' stop-color="rgb(191,191,191)"  stop-opacity ='1.0'/>
</radialGradient>
</defs>
<g transform="translate(0,0)">
<svg width="100" height="100" x="0" y="0" viewBox="0 0 303.217 263.987"
font-family="sans-serif" stroke="rgb(0,0,0)" stroke-width="2"  stroke-linecap="round">
<line x1="151.6" y1="154.8" x2="151.6" y2="110.1" opacity="1.0" stroke="rgb(0,0,0)"  stroke-width="1.8"/>
<line x1="151.6" y1="154.8" x2="192.6" y2="160.1" opacity="0.6" stroke="rgb(0,0,0)"  stroke-width="1.1"/>
<line x1="151.6" y1="154.8" x2="110.6" y2="160.1" opacity="0.4" stroke="rgb(0,0,0)"  stroke-width="1.1"/>
<line x1="151.6" y1="154.8" x2="151.6" y2="191.6" opacity="0.4" stroke="rgb(0,0,0)"  stroke-width="2.0"/>
<line x1="151.6" y1="110.1" x2="151.6" y2="69.5" opacity="0.7" stroke="rgb(0,0,0)"  stroke-width="1.8"/>
<line x1="151.6" y1="110.1" x2="123.1" y2="108.3" opacity="0.6" stroke="rgb(0,0,0)"  stroke-width="2.4"/>
<line x1="151.6" y1="110.1" x2="180.1" y2="108.3" opacity="0.8" stroke="rgb(0,0,0)"  stroke-width="2.4"/>
<line x1="192.6" y1="160.1" x2="237.2" y2="157.9" opacity="0.8" stroke="rgb(0,0,0)"  stroke-width="1.0"/>
<line x1="192.6" y1="160.1" x2="191.9" y2="135.4" opacity="0.3" stroke="rgb(0,0,0)"  stroke-width="0.4"/>
<line x1="192.6" y1="160.1" x2="190.7" y2="191.9" opacity="0.1" stroke="rgb(0,0,0)"  stroke-width="0.5"/>
<line x1="110.6" y1="160.1" x2="66.0" y2="157.9" opacity="0.2" stroke="rgb(0,0,0)"  stroke-width="1.0"/>
<line x1="110.6" y1="160.1" x2="111.3" y2="135.4" opacity="0.3" stroke="rgb(0,0,0)"  stroke-width="0.4"/>
<line x1="110.6" y1="160.1" x2="112.5" y2="191.9" opacity="0.1" stroke="rgb(0,0,0)"  stroke-width="0.5"/>
<line x1="151.6" y1="191.6" x2="151.6" y2="224.0" opacity="0.2" stroke="rgb(0,0,0)"  stroke-width="2.2"/>
<line x1="151.6" y1="191.6" x2="122.9" y2="189.6" opacity="0.7" stroke="rgb(0,0,0)"  stroke-width="2.7"/>
<line x1="151.6" y1="191.6" x2="180.3" y2="189.5" opacity="0.9" stroke="rgb(0,0,0)"  stroke-width="2.7"/>
<line x1="151.6" y1="69.5" x2="122.4" y2="68.0" opacity="0.9" stroke="rgb(0,0,0)"  stroke-width="1.1"/>
<line x1="151.6" y1="69.5" x2="151.6" y2="40.0" opacity="0.4" stroke="rgb(0,0,0)"  stroke-width="1.7"/>
<line x1="151.6" y1="69.5" x2="180.7" y2="68.0" opacity="0.6" stroke="rgb(0,0,0)"  stroke-width="1.1"/>
<line x1="237.2" y1="157.9" x2="241.4" y2="184.2" opacity="0.4" stroke="rgb(0,0,0)"  stroke-width="1.6"/>
<line x1="237.2" y1="157.9" x2="263.2" y2="161.5" opacity="0.5" stroke="rgb(0,0,0)"  stroke-width="1.0"/>
<line x1="237.2" y1="157.9" x2="242.2" y2="126.4" opacity="0.3" stroke="rgb(0,0,0)"  stroke-width="1.5"/>
<line x1="66.0" y1="157.9" x2="61.0" y2="126.5" opacity="0.5" stroke="rgb(0,0,0)"  stroke-width="1.5"/>
<line x1="66.0" y1="157.9" x2="40.0" y2="161.5" opacity="0.5" stroke="rgb(0,0,0)"  stroke-width="1.0"/>
<line x1="66.0" y1="157.9" x2="61.8" y2="184.2" opacity="0.3" stroke="rgb(0,0,0)"  stroke-width="1.6"/>
<circle cx="191.880003" cy="135.387551" r="5.636364" opacity="0.200000" style="stroke:black;stroke-width:0.5;fill:url(#radialffffffbfbfbf)"/>
<circle cx="111.323523" cy="135.400661" r="5.636364" opacity="0.200000" style="stroke:black;stroke-width:0.5;fill:url(#radialffffffbfbfbf)"/>
<circle cx="190.690239" cy="191.909501" r="5.636364" opacity="0.287355" style="stroke:black;stroke-width:0.5;fill:url(#radialffffffbfbfbf)"/>
<circle cx="112.539507" cy="191.919334" r="5.636364" opacity="0.287355" style="stroke:black;stroke-width:0.5;fill:url(#radialffffffbfbfbf)"/>
<circle cx="40.000000" cy="161.509902" r="5.636364" opacity="0.463542" style="stroke:black;stroke-width:0.5;fill:url(#radialffffffbfbfbf)"/>
<circle cx="263.216636" cy="161.450905" r="5.636364" opacity="0.463573" style="stroke:black;stroke-width:0.5;fill:url(#radialffffffbfbfbf)"/>
<circle cx="192.624014" cy="160.123483" r="13.818182" opacity="0.481582" style="stroke:black;stroke-width:0.5;fill:url(#radialffffff666666)"/>
<circle cx="110.592622" cy="160.136594" r="13.818182" opacity="0.481613" style="stroke:black;stroke-width:0.5;fill:url(#radialffffff666666)"/>
<circle cx="180.693606" cy="68.010240" r="5.636364" opacity="0.524072" style="stroke:black;stroke-width:0.5;fill:url(#radialffffffbfbfbf)"/>
<circle cx="122.437813" cy="68.023350" r="5.636364" opacity="0.524183" style="stroke:black;stroke-width:0.5;fill:url(#radialffffffbfbfbf)"/>
<circle cx="237.163114" cy="157.865227" r="13.818182" opacity="0.657456" style="stroke:black;stroke-width:0.5;fill:url(#radialffffff666666)"/>
<circle cx="66.046967" cy="157.904559" r="13.818182" opacity="0.657456" style="stroke:black;stroke-width:0.5;fill:url(#radialffffff666666)"/>
<circle cx="151.572265" cy="69.478598" r="13.818182" opacity="0.678123" style="stroke:black;stroke-width:0.5;fill:url(#radialffffff666666)"/>
<circle cx="151.605041" cy="154.751522" r="13.818182" opacity="0.706828" style="stroke:black;stroke-width:0.5;fill:url(#radialffffff666666)"/>
<circle cx="61.015874" cy="126.452855" r="6.518067" opacity="0.760405" style="stroke:black;stroke-width:0.5;fill:url(#radialffffffbfbfbf)"/>
<circle cx="242.171264" cy="126.410246" r="6.518396" opacity="0.760424" style="stroke:black;stroke-width:0.5;fill:url(#radialffffffbfbfbf)"/>
<circle cx="151.565709" cy="40.000000" r="7.237624" opacity="0.801279" style="stroke:black;stroke-width:0.5;fill:url(#radialffffffbfbfbf)"/>
<circle cx="241.397754" cy="184.184234" r="7.272123" opacity="0.803186" style="stroke:black;stroke-width:0.5;fill:url(#radialffffffbfbfbf)"/>
<circle cx="61.828715" cy="184.226842" r="7.272123" opacity="0.803186" style="stroke:black;stroke-width:0.5;fill:url(#radialffffffbfbfbf)"/>
<circle cx="151.634539" cy="223.987224" r="7.577360" opacity="0.819869" style="stroke:black;stroke-width:0.5;fill:url(#radialffffffbfbfbf)"/>
<circle cx="151.588653" cy="110.110817" r="19.846242" opacity="0.847420" style="stroke:black;stroke-width:0.5;fill:url(#radialffffff666666)"/>
<circle cx="151.621428" cy="191.552244" r="22.364278" opacity="0.899574" style="stroke:black;stroke-width:0.5;fill:url(#radialffffff666666)"/>
<circle cx="180.126584" cy="108.272092" r="10.280133" opacity="0.954959" style="stroke:black;stroke-width:0.5;fill:url(#radialffffffbfbfbf)"/>
<circle cx="123.050722" cy="108.295035" r="10.280790" opacity="0.954990" style="stroke:black;stroke-width:0.5;fill:url(#radialffffffbfbfbf)"/>
<circle cx="122.922896" cy="189.569305" r="11.272727" opacity="1.000000" style="stroke:black;stroke-width:0.5;fill:url(#radialffffffbfbfbf)"/>
<circle cx="180.316683" cy="189.549640" r="11.272727" opacity="1.000000" style="stroke:black;stroke-width:0.5;fill:url(#radialffffffbfbfbf)"/>
</svg>
</g>
</svg>
