<?xml version="1.0"?>
<svg version="1.1" id="topsvg"
xmlns="http://www.w3.org/2000/svg" xmlns:xlink="http://www.w3.org/1999/xlink"
xmlns:cml="http://www.xml-cml.org/schema" x="0" y="0" width="1024px" height="1024px" viewBox="0 0 100 100">
<title>140334 - Open Babel Depiction</title>
<rect x="0" y="0" width="100" height="100" fill="white"/>
<defs>
<radialGradient id='radialffffff666666' cx='50%' cy='50%' r='50%' fx='30%' fy='30%'>
  <stop offset=' 0%' stop-color="rgb(255,255,255)"  stop-opacity='1.0'/>
  <stop offset='100%' stop-color="rgb(102,102,102)"  stop-opacity ='1.0'/>
</radialGradient>
<radialGradient id='radialffffffbfbfbf' cx='50%' cy='50%' r='50%' fx='30%' fy='30%'>
  <stop offset=' 0%' stop-color="rgb(255,255,255)"  stop-opacity='1.0'/>
  <stop offset='100%' stop-color="rgb(191,191,191)"  stop-opacity ='1.0'/>
</radialGradient>
</defs>
<g transform="translate(0,0)">
<svg width="100" height="100" x="0" y="0" viewBox="0 0 623.208 203.471"
font-family="sans-serif" stroke="rgb(0,0,0)" stroke-width="2"  stroke-linecap="round">
<line x1="314.4" y1="122.0" x2="274.6" y2="97.2" opacity="1.0" stroke="rgb(0,0,0)"  stroke-width="1.6"/>
<line x1="314.4" y1="122.0" x2="357.8" y2="101.7" opacity="0.5" stroke="rgb(0,0,0)"  stroke-width="1.7"/>
<line x1="314.4" y1="122.0" x2="313.2" y2="123.7" opacity="0.6" stroke="rgb(0,0,0)"  stroke-width="2.4"/>
<line x1="314.4" y1="122.0" x2="313.1" y2="155.7" opacity="0.8" stroke="rgb(0,0,0)"  stroke-width="1.7"/>
<line x1="274.6" y1="97.2" x2="232.2" y2="119.3" opacity="0.6" stroke="rgb(0,0,0)"  stroke-width="1.6"/>
<line x1="274.6" y1="97.2" x2="275.4" y2="63.6" opacity="0.5" stroke="rgb(0,0,0)"  stroke-width="1.5"/>
<line x1="274.6" y1="97.2" x2="275.9" y2="95.4" opacity="0.5" stroke="rgb(0,0,0)"  stroke-width="0.8"/>
<line x1="357.8" y1="101.7" x2="399.0" y2="126.7" opacity="0.3" stroke="rgb(0,0,0)"  stroke-width="1.7"/>
<line x1="357.8" y1="101.7" x2="358.0" y2="98.1" opacity="0.6" stroke="rgb(0,0,0)"  stroke-width="0.9"/>
<line x1="357.8" y1="101.7" x2="359.6" y2="68.6" opacity="0.3" stroke="rgb(0,0,0)"  stroke-width="1.7"/>
<line x1="232.2" y1="119.3" x2="192.4" y2="95.2" opacity="0.6" stroke="rgb(0,0,0)"  stroke-width="1.5"/>
<line x1="232.2" y1="119.3" x2="231.9" y2="153.1" opacity="0.5" stroke="rgb(0,0,0)"  stroke-width="1.6"/>
<line x1="232.2" y1="119.3" x2="230.6" y2="120.5" opacity="0.5" stroke="rgb(0,0,0)"  stroke-width="2.4"/>
<line x1="399.0" y1="126.7" x2="441.3" y2="103.7" opacity="0.8" stroke="rgb(0,0,0)"  stroke-width="1.7"/>
<line x1="399.0" y1="126.7" x2="398.7" y2="131.3" opacity="0.6" stroke="rgb(0,0,0)"  stroke-width="2.4"/>
<line x1="399.0" y1="126.7" x2="398.1" y2="159.2" opacity="0.8" stroke="rgb(0,0,0)"  stroke-width="1.6"/>
<line x1="192.4" y1="95.2" x2="150.0" y2="117.9" opacity="0.5" stroke="rgb(0,0,0)"  stroke-width="1.4"/>
<line x1="192.4" y1="95.2" x2="194.3" y2="93.4" opacity="0.5" stroke="rgb(0,0,0)"  stroke-width="0.7"/>
<line x1="192.4" y1="95.2" x2="192.3" y2="61.6" opacity="0.2" stroke="rgb(0,0,0)"  stroke-width="1.4"/>
<line x1="441.3" y1="103.7" x2="482.3" y2="128.9" opacity="0.5" stroke="rgb(0,0,0)"  stroke-width="1.7"/>
<line x1="441.3" y1="103.7" x2="441.6" y2="71.2" opacity="0.6" stroke="rgb(0,0,0)"  stroke-width="1.7"/>
<line x1="441.3" y1="103.7" x2="441.5" y2="98.9" opacity="0.6" stroke="rgb(0,0,0)"  stroke-width="0.9"/>
<line x1="150.0" y1="117.9" x2="110.2" y2="93.2" opacity="0.3" stroke="rgb(0,0,0)"  stroke-width="1.4"/>
<line x1="150.0" y1="117.9" x2="148.3" y2="120.3" opacity="0.5" stroke="rgb(0,0,0)"  stroke-width="2.2"/>
<line x1="150.0" y1="117.9" x2="149.8" y2="151.2" opacity="0.7" stroke="rgb(0,0,0)"  stroke-width="1.4"/>
<line x1="482.3" y1="128.9" x2="524.7" y2="108.5" opacity="0.5" stroke="rgb(0,0,0)"  stroke-width="1.6"/>
<line x1="482.3" y1="128.9" x2="483.0" y2="131.7" opacity="0.5" stroke="rgb(0,0,0)"  stroke-width="2.4"/>
<line x1="482.3" y1="128.9" x2="479.8" y2="162.3" opacity="0.8" stroke="rgb(0,0,0)"  stroke-width="1.7"/>
<line x1="110.2" y1="93.2" x2="68.1" y2="116.2" opacity="0.6" stroke="rgb(0,0,0)"  stroke-width="1.3"/>
<line x1="110.2" y1="93.2" x2="112.0" y2="90.1" opacity="0.4" stroke="rgb(0,0,0)"  stroke-width="0.6"/>
<line x1="110.2" y1="93.2" x2="109.8" y2="60.1" opacity="0.2" stroke="rgb(0,0,0)"  stroke-width="1.3"/>
<line x1="524.7" y1="108.5" x2="533.4" y2="62.5" opacity="0.4" stroke="rgb(0,0,0)"  stroke-width="1.6"/>
<line x1="526.5" y1="106.2" x2="554.8" y2="128.0" opacity="0.5" stroke="rgb(0,0,0)"  stroke-width="1.0"/>
<line x1="522.9" y1="110.9" x2="551.2" y2="132.7" opacity="0.5" stroke="rgb(0,0,0)"  stroke-width="1.0"/>
<line x1="68.1" y1="116.2" x2="64.8" y2="119.0" opacity="0.3" stroke="rgb(0,0,0)"  stroke-width="2.1"/>
<line x1="68.1" y1="116.2" x2="40.0" y2="98.0" opacity="0.7" stroke="rgb(0,0,0)"  stroke-width="1.3"/>
<line x1="68.1" y1="116.2" x2="66.9" y2="149.0" opacity="0.4" stroke="rgb(0,0,0)"  stroke-width="1.3"/>
<line x1="533.4" y1="62.5" x2="510.3" y2="40.0" opacity="0.4" stroke="rgb(0,0,0)"  stroke-width="1.6"/>
<line x1="533.4" y1="62.5" x2="530.3" y2="59.5" opacity="0.5" stroke="rgb(0,0,0)"  stroke-width="2.4"/>
<line x1="533.4" y1="62.5" x2="566.3" y2="51.8" opacity="0.8" stroke="rgb(0,0,0)"  stroke-width="1.7"/>
<line x1="553.0" y1="130.3" x2="546.6" y2="163.5" opacity="0.6" stroke="rgb(0,0,0)"  stroke-width="0.5"/>
<line x1="553.0" y1="130.3" x2="583.2" y2="115.5" opacity="0.2" stroke="rgb(0,0,0)"  stroke-width="0.4"/>
<circle cx="111.952464" cy="90.091714" r="5.636364" opacity="0.200000" style="stroke:black;stroke-width:0.5;fill:url(#radialffffffbfbfbf)"/>
<circle cx="194.286259" cy="93.399012" r="5.636364" opacity="0.200000" style="stroke:black;stroke-width:0.5;fill:url(#radialffffffbfbfbf)"/>
<circle cx="275.860842" cy="95.386649" r="5.636364" opacity="0.272063" style="stroke:black;stroke-width:0.5;fill:url(#radialffffffbfbfbf)"/>
<circle cx="583.208193" cy="115.520436" r="5.636364" opacity="0.304485" style="stroke:black;stroke-width:0.5;fill:url(#radialffffffbfbfbf)"/>
<circle cx="546.567243" cy="163.471367" r="5.636364" opacity="0.309835" style="stroke:black;stroke-width:0.5;fill:url(#radialffffffbfbfbf)"/>
<circle cx="357.973064" cy="98.104173" r="5.636364" opacity="0.325147" style="stroke:black;stroke-width:0.5;fill:url(#radialffffffbfbfbf)"/>
<circle cx="441.476632" cy="98.925295" r="5.636364" opacity="0.332230" style="stroke:black;stroke-width:0.5;fill:url(#radialffffffbfbfbf)"/>
<circle cx="552.983075" cy="130.329961" r="13.818182" opacity="0.454172" style="stroke:black;stroke-width:0.5;fill:url(#radialffffff666666)"/>
<circle cx="66.934112" cy="149.026784" r="5.636364" opacity="0.595842" style="stroke:black;stroke-width:0.5;fill:url(#radialffffffbfbfbf)"/>
<circle cx="40.000000" cy="97.983611" r="5.636364" opacity="0.609785" style="stroke:black;stroke-width:0.5;fill:url(#radialffffffbfbfbf)"/>
<circle cx="110.189658" cy="93.170922" r="13.818182" opacity="0.611103" style="stroke:black;stroke-width:0.5;fill:url(#radialffffff666666)"/>
<circle cx="192.363790" cy="95.165076" r="13.818182" opacity="0.641176" style="stroke:black;stroke-width:0.5;fill:url(#radialffffff666666)"/>
<circle cx="149.818580" cy="151.203410" r="5.636364" opacity="0.644398" style="stroke:black;stroke-width:0.5;fill:url(#radialffffffbfbfbf)"/>
<circle cx="274.593316" cy="97.165747" r="13.818182" opacity="0.669900" style="stroke:black;stroke-width:0.5;fill:url(#radialffffff666666)"/>
<circle cx="510.330337" cy="40.000000" r="5.636364" opacity="0.676562" style="stroke:black;stroke-width:0.5;fill:url(#radialffffffbfbfbf)"/>
<circle cx="398.087491" cy="159.232160" r="5.636364" opacity="0.682833" style="stroke:black;stroke-width:0.5;fill:url(#radialffffffbfbfbf)"/>
<circle cx="524.716268" cy="108.540897" r="13.818182" opacity="0.686932" style="stroke:black;stroke-width:0.5;fill:url(#radialffffff666666)"/>
<circle cx="231.872151" cy="153.060710" r="5.636364" opacity="0.689121" style="stroke:black;stroke-width:0.5;fill:url(#radialffffffbfbfbf)"/>
<circle cx="357.836210" cy="101.698211" r="13.818182" opacity="0.692516" style="stroke:black;stroke-width:0.5;fill:url(#radialffffff666666)"/>
<circle cx="441.268093" cy="103.685849" r="13.818182" opacity="0.694762" style="stroke:black;stroke-width:0.5;fill:url(#radialffffff666666)"/>
<circle cx="479.805444" cy="162.282043" r="5.636364" opacity="0.702772" style="stroke:black;stroke-width:0.5;fill:url(#radialffffffbfbfbf)"/>
<circle cx="313.140442" cy="155.683739" r="5.636364" opacity="0.706586" style="stroke:black;stroke-width:0.5;fill:url(#radialffffffbfbfbf)"/>
<circle cx="68.058268" cy="116.211221" r="13.859340" opacity="0.708159" style="stroke:black;stroke-width:0.5;fill:url(#radialffffff666666)"/>
<circle cx="109.818198" cy="60.091427" r="5.805981" opacity="0.717668" style="stroke:black;stroke-width:0.5;fill:url(#radialffffffbfbfbf)"/>
<circle cx="566.264401" cy="51.795486" r="5.932567" opacity="0.725449" style="stroke:black;stroke-width:0.5;fill:url(#radialffffffbfbfbf)"/>
<circle cx="192.337723" cy="61.583784" r="6.082696" opacity="0.734571" style="stroke:black;stroke-width:0.5;fill:url(#radialffffffbfbfbf)"/>
<circle cx="150.020603" cy="117.863241" r="15.213294" opacity="0.741944" style="stroke:black;stroke-width:0.5;fill:url(#radialffffff666666)"/>
<circle cx="275.385112" cy="63.620298" r="6.513011" opacity="0.760110" style="stroke:black;stroke-width:0.5;fill:url(#radialffffffbfbfbf)"/>
<circle cx="232.204510" cy="119.283912" r="16.518047" opacity="0.773106" style="stroke:black;stroke-width:0.5;fill:url(#radialffffff666666)"/>
<circle cx="533.367377" cy="62.466816" r="17.106558" opacity="0.786757" style="stroke:black;stroke-width:0.5;fill:url(#radialffffff666666)"/>
<circle cx="359.599016" cy="68.595907" r="6.995814" opacity="0.787779" style="stroke:black;stroke-width:0.5;fill:url(#radialffffffbfbfbf)"/>
<circle cx="398.950973" cy="126.664237" r="17.151974" opacity="0.787801" style="stroke:black;stroke-width:0.5;fill:url(#radialffffff666666)"/>
<circle cx="482.307912" cy="128.853896" r="17.274028" opacity="0.790599" style="stroke:black;stroke-width:0.5;fill:url(#radialffffff666666)"/>
<circle cx="314.407968" cy="122.027503" r="17.274974" opacity="0.790621" style="stroke:black;stroke-width:0.5;fill:url(#radialffffff666666)"/>
<circle cx="441.620003" cy="71.163543" r="7.195341" opacity="0.798935" style="stroke:black;stroke-width:0.5;fill:url(#radialffffffbfbfbf)"/>
<circle cx="64.777037" cy="118.958070" r="9.847475" opacity="0.934648" style="stroke:black;stroke-width:0.5;fill:url(#radialffffffbfbfbf)"/>
<circle cx="148.349032" cy="120.320090" r="10.423674" opacity="0.961603" style="stroke:black;stroke-width:0.5;fill:url(#radialffffffbfbfbf)"/>
<circle cx="230.630693" cy="120.460203" r="10.963981" opacity="0.986211" style="stroke:black;stroke-width:0.5;fill:url(#radialffffffbfbfbf)"/>
<circle cx="530.337045" cy="59.537495" r="11.173542" opacity="0.995591" style="stroke:black;stroke-width:0.5;fill:url(#radialffffffbfbfbf)"/>
<circle cx="398.667490" cy="131.314005" r="11.193611" opacity="0.996485" style="stroke:black;stroke-width:0.5;fill:url(#radialffffffbfbfbf)"/>
<circle cx="482.959597" cy="131.698498" r="11.268096" opacity="0.999795" style="stroke:black;stroke-width:0.5;fill:url(#radialffffffbfbfbf)"/>
<circle cx="313.244712" cy="123.741433" r="11.272727" opacity="1.000000" style="stroke:black;stroke-width:0.5;fill:url(#radialffffffbfbfbf)"/>
</svg>
</g>
</svg>
