<?xml version="1.0"?>
<svg version="1.1" id="topsvg"
xmlns="http://www.w3.org/2000/svg" xmlns:xlink="http://www.w3.org/1999/xlink"
xmlns:cml="http://www.xml-cml.org/schema" x="0" y="0" width="1024px" height="1024px" viewBox="0 0 100 100">
<title>14040 - Open Babel Depiction</title>
<rect x="0" y="0" width="100" height="100" fill="white"/>
<defs>
<radialGradient id='radialffffff666666' cx='50%' cy='50%' r='50%' fx='30%' fy='30%'>
  <stop offset=' 0%' stop-color="rgb(255,255,255)"  stop-opacity='1.0'/>
  <stop offset='100%' stop-color="rgb(102,102,102)"  stop-opacity ='1.0'/>
</radialGradient>
<radialGradient id='radialffffffbfbfbf' cx='50%' cy='50%' r='50%' fx='30%' fy='30%'>
  <stop offset=' 0%' stop-color="rgb(255,255,255)"  stop-opacity='1.0'/>
  <stop offset='100%' stop-color="rgb(191,191,191)"  stop-opacity ='1.0'/>
</radialGradient>
</defs>
<g transform="translate(0,0)">
<svg width="100" height="100" x="0" y="0" viewBox="0 0 278.102 277.415"
font-family="sans-serif" stroke="rgb(0,0,0)" stroke-width="2"  stroke-linecap="round">
<line x1="150.5" y1="147.7" x2="195.0" y2="171.9" opacity="1.0" stroke="rgb(0,0,0)"  stroke-width="1.3"/>
<line x1="150.5" y1="147.7" x2="109.1" y2="176.8" opacity="0.4" stroke="rgb(0,0,0)"  stroke-width="1.3"/>
<line x1="150.5" y1="147.7" x2="147.5" y2="103.4" opacity="0.4" stroke="rgb(0,0,0)"  stroke-width="1.5"/>
<line x1="150.5" y1="147.7" x2="150.2" y2="139.4" opacity="0.5" stroke="rgb(0,0,0)"  stroke-width="0.9"/>
<line x1="195.0" y1="171.9" x2="202.8" y2="187.0" opacity="0.3" stroke="rgb(0,0,0)"  stroke-width="2.0"/>
<line x1="195.0" y1="171.9" x2="201.2" y2="210.6" opacity="0.7" stroke="rgb(0,0,0)"  stroke-width="1.1"/>
<line x1="195.0" y1="171.9" x2="221.2" y2="148.8" opacity="0.4" stroke="rgb(0,0,0)"  stroke-width="1.3"/>
<line x1="109.1" y1="176.8" x2="102.4" y2="192.3" opacity="0.4" stroke="rgb(0,0,0)"  stroke-width="2.0"/>
<line x1="109.1" y1="176.8" x2="67.6" y2="152.6" opacity="0.7" stroke="rgb(0,0,0)"  stroke-width="1.3"/>
<line x1="109.1" y1="176.8" x2="111.6" y2="206.0" opacity="0.4" stroke="rgb(0,0,0)"  stroke-width="1.2"/>
<line x1="147.5" y1="103.4" x2="185.3" y2="72.4" opacity="0.4" stroke="rgb(0,0,0)"  stroke-width="1.7"/>
<line x1="147.5" y1="103.4" x2="145.3" y2="108.2" opacity="0.6" stroke="rgb(0,0,0)"  stroke-width="2.2"/>
<line x1="147.5" y1="103.4" x2="117.6" y2="86.3" opacity="0.7" stroke="rgb(0,0,0)"  stroke-width="1.7"/>
<line x1="202.8" y1="187.0" x2="238.1" y2="190.6" opacity="0.6" stroke="rgb(0,0,0)"  stroke-width="2.5"/>
<line x1="202.8" y1="187.0" x2="188.8" y2="219.1" opacity="0.8" stroke="rgb(0,0,0)"  stroke-width="2.5"/>
<line x1="202.8" y1="187.0" x2="191.2" y2="163.5" opacity="0.8" stroke="rgb(0,0,0)"  stroke-width="2.7"/>
<line x1="201.2" y1="210.6" x2="178.6" y2="237.4" opacity="0.9" stroke="rgb(0,0,0)"  stroke-width="0.8"/>
<line x1="201.2" y1="210.6" x2="234.5" y2="223.6" opacity="0.3" stroke="rgb(0,0,0)"  stroke-width="0.8"/>
<line x1="201.2" y1="210.6" x2="196.1" y2="200.4" opacity="0.3" stroke="rgb(0,0,0)"  stroke-width="0.4"/>
<line x1="102.4" y1="192.3" x2="108.2" y2="166.5" opacity="0.1" stroke="rgb(0,0,0)"  stroke-width="2.7"/>
<line x1="102.4" y1="192.3" x2="122.9" y2="220.4" opacity="0.9" stroke="rgb(0,0,0)"  stroke-width="2.6"/>
<line x1="102.4" y1="192.3" x2="68.7" y2="203.6" opacity="0.9" stroke="rgb(0,0,0)"  stroke-width="2.5"/>
<line x1="67.6" y1="152.6" x2="40.0" y2="175.4" opacity="0.8" stroke="rgb(0,0,0)"  stroke-width="1.1"/>
<line x1="67.6" y1="152.6" x2="71.9" y2="138.5" opacity="0.4" stroke="rgb(0,0,0)"  stroke-width="0.7"/>
<line x1="67.6" y1="152.6" x2="58.3" y2="126.5" opacity="0.2" stroke="rgb(0,0,0)"  stroke-width="1.4"/>
<line x1="185.3" y1="72.4" x2="215.7" y2="83.6" opacity="0.5" stroke="rgb(0,0,0)"  stroke-width="1.8"/>
<line x1="185.3" y1="72.4" x2="190.6" y2="68.6" opacity="0.6" stroke="rgb(0,0,0)"  stroke-width="1.2"/>
<line x1="185.3" y1="72.4" x2="178.2" y2="40.0" opacity="0.4" stroke="rgb(0,0,0)"  stroke-width="1.7"/>
<circle cx="196.127428" cy="200.445943" r="5.636364" opacity="0.200000" style="stroke:black;stroke-width:0.5;fill:url(#radialffffffbfbfbf)"/>
<circle cx="71.901399" cy="138.471972" r="5.636364" opacity="0.360302" style="stroke:black;stroke-width:0.5;fill:url(#radialffffffbfbfbf)"/>
<circle cx="150.249742" cy="139.394564" r="5.636364" opacity="0.405732" style="stroke:black;stroke-width:0.5;fill:url(#radialffffffbfbfbf)"/>
<circle cx="201.175511" cy="210.587912" r="13.818182" opacity="0.498783" style="stroke:black;stroke-width:0.5;fill:url(#radialffffff666666)"/>
<circle cx="234.486970" cy="223.566360" r="5.636364" opacity="0.517750" style="stroke:black;stroke-width:0.5;fill:url(#radialffffffbfbfbf)"/>
<circle cx="190.637678" cy="68.557821" r="5.636364" opacity="0.524004" style="stroke:black;stroke-width:0.5;fill:url(#radialffffffbfbfbf)"/>
<circle cx="178.591637" cy="237.415055" r="5.636364" opacity="0.549179" style="stroke:black;stroke-width:0.5;fill:url(#radialffffffbfbfbf)"/>
<circle cx="111.628471" cy="205.971680" r="5.636364" opacity="0.570653" style="stroke:black;stroke-width:0.5;fill:url(#radialffffffbfbfbf)"/>
<circle cx="40.000000" cy="175.388738" r="5.636364" opacity="0.596269" style="stroke:black;stroke-width:0.5;fill:url(#radialffffffbfbfbf)"/>
<circle cx="67.638500" cy="152.615111" r="13.818182" opacity="0.607234" style="stroke:black;stroke-width:0.5;fill:url(#radialffffff666666)"/>
<circle cx="221.227164" cy="148.803693" r="5.636364" opacity="0.647068" style="stroke:black;stroke-width:0.5;fill:url(#radialffffffbfbfbf)"/>
<circle cx="150.537643" cy="147.740423" r="13.818182" opacity="0.648934" style="stroke:black;stroke-width:0.5;fill:url(#radialffffff666666)"/>
<circle cx="109.092979" cy="176.847872" r="13.818182" opacity="0.691272" style="stroke:black;stroke-width:0.5;fill:url(#radialffffff666666)"/>
<circle cx="194.969280" cy="171.852135" r="13.818182" opacity="0.691722" style="stroke:black;stroke-width:0.5;fill:url(#radialffffff666666)"/>
<circle cx="117.615504" cy="86.299722" r="5.957527" opacity="0.726973" style="stroke:black;stroke-width:0.5;fill:url(#radialffffffbfbfbf)"/>
<circle cx="185.347496" cy="72.352880" r="14.711460" opacity="0.729604" style="stroke:black;stroke-width:0.5;fill:url(#radialffffff666666)"/>
<circle cx="58.278445" cy="126.540437" r="6.029077" opacity="0.731326" style="stroke:black;stroke-width:0.5;fill:url(#radialffffffbfbfbf)"/>
<circle cx="147.501596" cy="103.433106" r="16.595984" opacity="0.774927" style="stroke:black;stroke-width:0.5;fill:url(#radialffffff666666)"/>
<circle cx="178.185958" cy="40.000000" r="7.125543" opacity="0.795050" style="stroke:black;stroke-width:0.5;fill:url(#radialffffffbfbfbf)"/>
<circle cx="215.747229" cy="83.649724" r="7.248123" opacity="0.801859" style="stroke:black;stroke-width:0.5;fill:url(#radialffffffbfbfbf)"/>
<circle cx="202.798226" cy="186.989841" r="22.728793" opacity="0.906876" style="stroke:black;stroke-width:0.5;fill:url(#radialffffff666666)"/>
<circle cx="102.399280" cy="192.250578" r="22.769170" opacity="0.907681" style="stroke:black;stroke-width:0.5;fill:url(#radialffffff666666)"/>
<circle cx="68.688685" cy="203.609583" r="9.678653" opacity="0.926601" style="stroke:black;stroke-width:0.5;fill:url(#radialffffffbfbfbf)"/>
<circle cx="145.276906" cy="108.222733" r="9.690803" opacity="0.927183" style="stroke:black;stroke-width:0.5;fill:url(#radialffffffbfbfbf)"/>
<circle cx="238.102091" cy="190.640950" r="9.715913" opacity="0.928383" style="stroke:black;stroke-width:0.5;fill:url(#radialffffffbfbfbf)"/>
<circle cx="188.802309" cy="219.136610" r="9.830393" opacity="0.933837" style="stroke:black;stroke-width:0.5;fill:url(#radialffffffbfbfbf)"/>
<circle cx="122.853340" cy="220.422350" r="9.924892" opacity="0.938314" style="stroke:black;stroke-width:0.5;fill:url(#radialffffffbfbfbf)"/>
<circle cx="108.167115" cy="166.457262" r="11.272187" opacity="0.999976" style="stroke:black;stroke-width:0.5;fill:url(#radialffffffbfbfbf)"/>
<circle cx="191.184036" cy="163.450659" r="11.272727" opacity="1.000000" style="stroke:black;stroke-width:0.5;fill:url(#radialffffffbfbfbf)"/>
</svg>
</g>
</svg>
