<?xml version="1.0"?>
<svg version="1.1" id="topsvg"
xmlns="http://www.w3.org/2000/svg" xmlns:xlink="http://www.w3.org/1999/xlink"
xmlns:cml="http://www.xml-cml.org/schema" x="0" y="0" width="200px" height="200px" viewBox="0 0 100 100">
<title>14058 - Open Babel Depiction</title>
<rect x="0" y="0" width="100" height="100" fill="white"/>
<defs>
<radialGradient id='radialffffff666666' cx='50%' cy='50%' r='50%' fx='30%' fy='30%'>
  <stop offset=' 0%' stop-color="rgb(255,255,255)"  stop-opacity='1.0'/>
  <stop offset='100%' stop-color="rgb(102,102,102)"  stop-opacity ='1.0'/>
</radialGradient>
<radialGradient id='radialffffffbfbfbf' cx='50%' cy='50%' r='50%' fx='30%' fy='30%'>
  <stop offset=' 0%' stop-color="rgb(255,255,255)"  stop-opacity='1.0'/>
  <stop offset='100%' stop-color="rgb(191,191,191)"  stop-opacity ='1.0'/>
</radialGradient>
</defs>
<g transform="translate(0,0)">
<svg width="100" height="100" x="0" y="0" viewBox="0 0 308.352 221.057"
font-family="sans-serif" stroke="rgb(0,0,0)" stroke-width="4"  stroke-linecap="round">
<line x1="109.7" y1="110.1" x2="154.7" y2="117.3" opacity="1.0" stroke="rgb(0,0,0)"  stroke-width="1.9"/>
<line x1="109.7" y1="110.1" x2="101.3" y2="62.5" opacity="0.6" stroke="rgb(0,0,0)"  stroke-width="1.5"/>
<line x1="109.7" y1="110.1" x2="71.3" y2="126.6" opacity="0.5" stroke="rgb(0,0,0)"  stroke-width="1.9"/>
<line x1="109.7" y1="110.1" x2="110.2" y2="138.0" opacity="0.6" stroke="rgb(0,0,0)"  stroke-width="1.1"/>
<line x1="199.6" y1="110.1" x2="154.7" y2="117.3" opacity="0.4" stroke="rgb(0,0,0)"  stroke-width="1.9"/>
<line x1="199.6" y1="110.1" x2="237.0" y2="99.0" opacity="0.6" stroke="rgb(0,0,0)"  stroke-width="2.0"/>
<line x1="199.6" y1="110.1" x2="196.9" y2="74.9" opacity="0.7" stroke="rgb(0,0,0)"  stroke-width="1.2"/>
<line x1="199.6" y1="110.1" x2="211.4" y2="153.7" opacity="0.4" stroke="rgb(0,0,0)"  stroke-width="1.3"/>
<line x1="154.7" y1="117.3" x2="154.4" y2="95.3" opacity="0.4" stroke="rgb(0,0,0)"  stroke-width="2.5"/>
<line x1="154.7" y1="117.3" x2="154.7" y2="150.1" opacity="0.8" stroke="rgb(0,0,0)"  stroke-width="2.3"/>
<line x1="101.3" y1="62.5" x2="110.8" y2="40.0" opacity="0.8" stroke="rgb(0,0,0)"  stroke-width="1.6"/>
<line x1="101.3" y1="62.5" x2="66.4" y2="57.1" opacity="0.5" stroke="rgb(0,0,0)"  stroke-width="1.2"/>
<line x1="101.3" y1="62.5" x2="117.5" y2="52.6" opacity="0.4" stroke="rgb(0,0,0)"  stroke-width="0.9"/>
<line x1="71.3" y1="126.6" x2="75.5" y2="161.1" opacity="0.3" stroke="rgb(0,0,0)"  stroke-width="2.4"/>
<line x1="71.3" y1="126.6" x2="69.2" y2="108.1" opacity="0.8" stroke="rgb(0,0,0)"  stroke-width="2.6"/>
<line x1="71.3" y1="126.6" x2="40.0" y2="123.3" opacity="0.9" stroke="rgb(0,0,0)"  stroke-width="2.1"/>
<line x1="110.2" y1="138.0" x2="131.3" y2="126.2" opacity="0.7" stroke="rgb(0,0,0)"  stroke-width="0.4"/>
<line x1="110.2" y1="138.0" x2="77.3" y2="138.4" opacity="0.1" stroke="rgb(0,0,0)"  stroke-width="0.4"/>
<line x1="110.2" y1="138.0" x2="118.3" y2="172.1" opacity="0.1" stroke="rgb(0,0,0)"  stroke-width="0.7"/>
<line x1="237.0" y1="99.0" x2="240.4" y2="124.2" opacity="0.2" stroke="rgb(0,0,0)"  stroke-width="2.7"/>
<line x1="237.0" y1="99.0" x2="230.7" y2="67.9" opacity="0.9" stroke="rgb(0,0,0)"  stroke-width="2.6"/>
<line x1="237.0" y1="99.0" x2="268.4" y2="96.2" opacity="0.9" stroke="rgb(0,0,0)"  stroke-width="2.2"/>
<line x1="196.9" y1="74.9" x2="229.8" y2="69.0" opacity="0.7" stroke="rgb(0,0,0)"  stroke-width="0.6"/>
<line x1="196.9" y1="74.9" x2="186.3" y2="43.6" opacity="0.2" stroke="rgb(0,0,0)"  stroke-width="0.9"/>
<line x1="196.9" y1="74.9" x2="177.3" y2="83.3" opacity="0.3" stroke="rgb(0,0,0)"  stroke-width="0.4"/>
<line x1="211.4" y1="153.7" x2="211.3" y2="181.1" opacity="0.1" stroke="rgb(0,0,0)"  stroke-width="1.3"/>
<line x1="211.4" y1="153.7" x2="244.5" y2="151.9" opacity="0.4" stroke="rgb(0,0,0)"  stroke-width="0.9"/>
<line x1="211.4" y1="153.7" x2="190.0" y2="162.0" opacity="0.3" stroke="rgb(0,0,0)"  stroke-width="0.7"/>
<circle cx="131.301502" cy="126.176905" r="5.636364" opacity="0.200000" style="stroke:black;stroke-width:0.5;fill:url(#radialffffffbfbfbf)"/>
<circle cx="177.344442" cy="83.261669" r="5.636364" opacity="0.200000" style="stroke:black;stroke-width:0.5;fill:url(#radialffffffbfbfbf)"/>
<circle cx="77.290598" cy="138.442603" r="5.636364" opacity="0.302028" style="stroke:black;stroke-width:0.5;fill:url(#radialffffffbfbfbf)"/>
<circle cx="189.985987" cy="162.013136" r="5.636364" opacity="0.376227" style="stroke:black;stroke-width:0.5;fill:url(#radialffffffbfbfbf)"/>
<circle cx="229.780055" cy="68.959859" r="5.636364" opacity="0.387396" style="stroke:black;stroke-width:0.5;fill:url(#radialffffffbfbfbf)"/>
<circle cx="117.503000" cy="52.618668" r="5.636364" opacity="0.441869" style="stroke:black;stroke-width:0.5;fill:url(#radialffffffbfbfbf)"/>
<circle cx="110.159269" cy="137.958903" r="13.818182" opacity="0.452757" style="stroke:black;stroke-width:0.5;fill:url(#radialffffff666666)"/>
<circle cx="244.513273" cy="151.884866" r="5.636364" opacity="0.497293" style="stroke:black;stroke-width:0.5;fill:url(#radialffffffbfbfbf)"/>
<circle cx="196.937530" cy="74.927662" r="13.818182" opacity="0.504572" style="stroke:black;stroke-width:0.5;fill:url(#radialffffff666666)"/>
<circle cx="118.323328" cy="172.095651" r="5.636364" opacity="0.511244" style="stroke:black;stroke-width:0.5;fill:url(#radialffffffbfbfbf)"/>
<circle cx="211.445239" cy="153.666056" r="13.818182" opacity="0.596608" style="stroke:black;stroke-width:0.5;fill:url(#radialffffff666666)"/>
<circle cx="186.328828" cy="43.578721" r="5.636364" opacity="0.601362" style="stroke:black;stroke-width:0.5;fill:url(#radialffffffbfbfbf)"/>
<circle cx="66.368146" cy="57.145178" r="5.636364" opacity="0.620864" style="stroke:black;stroke-width:0.5;fill:url(#radialffffffbfbfbf)"/>
<circle cx="101.302344" cy="62.537771" r="13.818182" opacity="0.658156" style="stroke:black;stroke-width:0.5;fill:url(#radialffffff666666)"/>
<circle cx="199.604412" cy="110.136392" r="14.851866" opacity="0.733078" style="stroke:black;stroke-width:0.5;fill:url(#radialffffff666666)"/>
<circle cx="211.314509" cy="181.057160" r="6.064098" opacity="0.733447" style="stroke:black;stroke-width:0.5;fill:url(#radialffffffbfbfbf)"/>
<circle cx="109.740935" cy="110.067759" r="14.874655" opacity="0.733640" style="stroke:black;stroke-width:0.5;fill:url(#radialffffff666666)"/>
<circle cx="40.000000" cy="123.310660" r="7.044184" opacity="0.790498" style="stroke:black;stroke-width:0.5;fill:url(#radialffffffbfbfbf)"/>
<circle cx="110.848867" cy="40.000000" r="7.204530" opacity="0.799444" style="stroke:black;stroke-width:0.5;fill:url(#radialffffffbfbfbf)"/>
<circle cx="268.351802" cy="96.233306" r="7.343089" opacity="0.807095" style="stroke:black;stroke-width:0.5;fill:url(#radialffffffbfbfbf)"/>
<circle cx="154.692283" cy="117.306906" r="19.889608" opacity="0.848345" style="stroke:black;stroke-width:0.5;fill:url(#radialffffff666666)"/>
<circle cx="71.332600" cy="126.611580" r="20.979908" opacity="0.871287" style="stroke:black;stroke-width:0.5;fill:url(#radialffffff666666)"/>
<circle cx="236.953838" cy="99.011309" r="21.705587" opacity="0.886228" style="stroke:black;stroke-width:0.5;fill:url(#radialffffff666666)"/>
<circle cx="75.470189" cy="161.147053" r="9.316332" opacity="0.909092" style="stroke:black;stroke-width:0.5;fill:url(#radialffffffbfbfbf)"/>
<circle cx="154.689015" cy="150.139627" r="9.413063" opacity="0.913800" style="stroke:black;stroke-width:0.5;fill:url(#radialffffffbfbfbf)"/>
<circle cx="230.747454" cy="67.871535" r="10.324304" opacity="0.957009" style="stroke:black;stroke-width:0.5;fill:url(#radialffffffbfbfbf)"/>
<circle cx="154.365459" cy="95.292054" r="10.641220" opacity="0.971586" style="stroke:black;stroke-width:0.5;fill:url(#radialffffffbfbfbf)"/>
<circle cx="240.356074" cy="124.199620" r="11.095533" opacity="0.992109" style="stroke:black;stroke-width:0.5;fill:url(#radialffffffbfbfbf)"/>
<circle cx="69.191904" cy="108.054524" r="11.272727" opacity="1.000000" style="stroke:black;stroke-width:0.5;fill:url(#radialffffffbfbfbf)"/>
</svg>
</g>
</svg>
