<?xml version="1.0"?>
<svg version="1.1" id="topsvg"
xmlns="http://www.w3.org/2000/svg" xmlns:xlink="http://www.w3.org/1999/xlink"
xmlns:cml="http://www.xml-cml.org/schema" x="0" y="0" width="1024px" height="1024px" viewBox="0 0 100 100">
<title>14067 - Open Babel Depiction</title>
<rect x="0" y="0" width="100" height="100" fill="white"/>
<defs>
<radialGradient id='radialffffff666666' cx='50%' cy='50%' r='50%' fx='30%' fy='30%'>
  <stop offset=' 0%' stop-color="rgb(255,255,255)"  stop-opacity='1.0'/>
  <stop offset='100%' stop-color="rgb(102,102,102)"  stop-opacity ='1.0'/>
</radialGradient>
<radialGradient id='radialffffffbfbfbf' cx='50%' cy='50%' r='50%' fx='30%' fy='30%'>
  <stop offset=' 0%' stop-color="rgb(255,255,255)"  stop-opacity='1.0'/>
  <stop offset='100%' stop-color="rgb(191,191,191)"  stop-opacity ='1.0'/>
</radialGradient>
</defs>
<g transform="translate(0,0)">
<svg width="100" height="100" x="0" y="0" viewBox="0 0 343.334 221.552"
font-family="sans-serif" stroke="rgb(0,0,0)" stroke-width="2"  stroke-linecap="round">
<line x1="105.3" y1="110.7" x2="153.0" y2="95.9" opacity="1.0" stroke="rgb(0,0,0)"  stroke-width="1.6"/>
<line x1="105.3" y1="110.7" x2="96.0" y2="112.9" opacity="0.5" stroke="rgb(0,0,0)"  stroke-width="0.9"/>
<line x1="105.3" y1="110.7" x2="95.8" y2="155.5" opacity="0.3" stroke="rgb(0,0,0)"  stroke-width="1.7"/>
<line x1="105.3" y1="110.7" x2="74.2" y2="76.9" opacity="0.6" stroke="rgb(0,0,0)"  stroke-width="1.7"/>
<line x1="236.6" y1="110.9" x2="188.9" y2="126.5" opacity="0.6" stroke="rgb(0,0,0)"  stroke-width="1.4"/>
<line x1="236.6" y1="110.9" x2="269.7" y2="142.7" opacity="0.5" stroke="rgb(0,0,0)"  stroke-width="1.3"/>
<line x1="236.6" y1="110.9" x2="244.6" y2="109.0" opacity="0.4" stroke="rgb(0,0,0)"  stroke-width="2.1"/>
<line x1="236.6" y1="110.9" x2="244.0" y2="65.0" opacity="0.7" stroke="rgb(0,0,0)"  stroke-width="1.3"/>
<line x1="153.0" y1="95.9" x2="188.9" y2="126.5" opacity="0.4" stroke="rgb(0,0,0)"  stroke-width="1.5"/>
<line x1="153.0" y1="95.9" x2="157.2" y2="63.4" opacity="0.5" stroke="rgb(0,0,0)"  stroke-width="1.5"/>
<line x1="153.0" y1="95.9" x2="156.8" y2="92.0" opacity="0.5" stroke="rgb(0,0,0)"  stroke-width="2.1"/>
<line x1="188.9" y1="126.5" x2="185.0" y2="158.9" opacity="0.7" stroke="rgb(0,0,0)"  stroke-width="1.5"/>
<line x1="188.9" y1="126.5" x2="184.5" y2="131.0" opacity="0.5" stroke="rgb(0,0,0)"  stroke-width="0.9"/>
<line x1="96.0" y1="112.9" x2="114.8" y2="138.8" opacity="0.3" stroke="rgb(0,0,0)"  stroke-width="0.4"/>
<line x1="96.0" y1="112.9" x2="61.4" y2="119.8" opacity="0.1" stroke="rgb(0,0,0)"  stroke-width="0.4"/>
<line x1="96.0" y1="112.9" x2="104.0" y2="82.0" opacity="0.1" stroke="rgb(0,0,0)"  stroke-width="0.4"/>
<line x1="95.8" y1="155.5" x2="114.6" y2="181.6" opacity="0.1" stroke="rgb(0,0,0)"  stroke-width="1.8"/>
<line x1="95.8" y1="155.5" x2="61.3" y2="164.1" opacity="0.6" stroke="rgb(0,0,0)"  stroke-width="1.9"/>
<line x1="95.8" y1="155.5" x2="103.8" y2="155.5" opacity="0.6" stroke="rgb(0,0,0)"  stroke-width="2.4"/>
<line x1="74.2" y1="76.9" x2="79.5" y2="44.4" opacity="0.8" stroke="rgb(0,0,0)"  stroke-width="1.8"/>
<line x1="74.2" y1="76.9" x2="79.3" y2="74.5" opacity="0.6" stroke="rgb(0,0,0)"  stroke-width="2.4"/>
<line x1="74.2" y1="76.9" x2="40.0" y2="85.6" opacity="0.8" stroke="rgb(0,0,0)"  stroke-width="1.9"/>
<line x1="269.7" y1="142.7" x2="303.3" y2="132.4" opacity="0.6" stroke="rgb(0,0,0)"  stroke-width="1.1"/>
<line x1="269.7" y1="142.7" x2="265.3" y2="144.9" opacity="0.4" stroke="rgb(0,0,0)"  stroke-width="0.6"/>
<line x1="269.7" y1="142.7" x2="265.7" y2="175.6" opacity="0.2" stroke="rgb(0,0,0)"  stroke-width="1.2"/>
<line x1="244.6" y1="109.0" x2="224.9" y2="83.7" opacity="0.4" stroke="rgb(0,0,0)"  stroke-width="2.8"/>
<line x1="244.6" y1="109.0" x2="237.1" y2="140.3" opacity="0.9" stroke="rgb(0,0,0)"  stroke-width="2.8"/>
<line x1="244.6" y1="109.0" x2="278.8" y2="101.3" opacity="0.9" stroke="rgb(0,0,0)"  stroke-width="2.7"/>
<line x1="244.0" y1="65.0" x2="225.1" y2="40.0" opacity="0.9" stroke="rgb(0,0,0)"  stroke-width="1.3"/>
<line x1="244.0" y1="65.0" x2="278.4" y2="55.5" opacity="0.4" stroke="rgb(0,0,0)"  stroke-width="1.1"/>
<line x1="244.0" y1="65.0" x2="235.2" y2="64.0" opacity="0.4" stroke="rgb(0,0,0)"  stroke-width="0.7"/>
<circle cx="103.980492" cy="81.961698" r="5.636364" opacity="0.200000" style="stroke:black;stroke-width:0.5;fill:url(#radialffffffbfbfbf)"/>
<circle cx="114.846274" cy="138.754911" r="5.636364" opacity="0.200000" style="stroke:black;stroke-width:0.5;fill:url(#radialffffffbfbfbf)"/>
<circle cx="265.302592" cy="144.943413" r="5.636364" opacity="0.267298" style="stroke:black;stroke-width:0.5;fill:url(#radialffffffbfbfbf)"/>
<circle cx="61.441070" cy="119.758560" r="5.636364" opacity="0.273632" style="stroke:black;stroke-width:0.5;fill:url(#radialffffffbfbfbf)"/>
<circle cx="235.211981" cy="64.000028" r="5.636364" opacity="0.293433" style="stroke:black;stroke-width:0.5;fill:url(#radialffffffbfbfbf)"/>
<circle cx="96.000066" cy="112.920527" r="13.818182" opacity="0.350378" style="stroke:black;stroke-width:0.5;fill:url(#radialffffff666666)"/>
<circle cx="184.463655" cy="130.957268" r="5.636364" opacity="0.410524" style="stroke:black;stroke-width:0.5;fill:url(#radialffffffbfbfbf)"/>
<circle cx="269.679586" cy="142.746755" r="13.818182" opacity="0.585544" style="stroke:black;stroke-width:0.5;fill:url(#radialffffff666666)"/>
<circle cx="244.024721" cy="65.034709" r="13.818182" opacity="0.592886" style="stroke:black;stroke-width:0.5;fill:url(#radialffffff666666)"/>
<circle cx="278.420518" cy="55.536534" r="5.636364" opacity="0.609976" style="stroke:black;stroke-width:0.5;fill:url(#radialffffffbfbfbf)"/>
<circle cx="303.334461" cy="132.360778" r="5.636364" opacity="0.624902" style="stroke:black;stroke-width:0.5;fill:url(#radialffffffbfbfbf)"/>
<circle cx="188.883081" cy="126.508466" r="13.818182" opacity="0.662207" style="stroke:black;stroke-width:0.5;fill:url(#radialffffff666666)"/>
<circle cx="265.730173" cy="175.624803" r="5.636364" opacity="0.668109" style="stroke:black;stroke-width:0.5;fill:url(#radialffffffbfbfbf)"/>
<circle cx="157.238817" cy="63.392929" r="5.636364" opacity="0.678509" style="stroke:black;stroke-width:0.5;fill:url(#radialffffffbfbfbf)"/>
<circle cx="225.070802" cy="40.000000" r="5.636364" opacity="0.694321" style="stroke:black;stroke-width:0.5;fill:url(#radialffffffbfbfbf)"/>
<circle cx="236.560004" cy="110.870749" r="13.818182" opacity="0.705203" style="stroke:black;stroke-width:0.5;fill:url(#radialffffff666666)"/>
<circle cx="105.302403" cy="110.720606" r="13.826130" opacity="0.707310" style="stroke:black;stroke-width:0.5;fill:url(#radialffffff666666)"/>
<circle cx="114.594947" cy="181.552187" r="6.069236" opacity="0.733757" style="stroke:black;stroke-width:0.5;fill:url(#radialffffffbfbfbf)"/>
<circle cx="79.484339" cy="44.363938" r="6.205399" opacity="0.741943" style="stroke:black;stroke-width:0.5;fill:url(#radialffffffbfbfbf)"/>
<circle cx="185.047907" cy="158.887125" r="6.218366" opacity="0.742717" style="stroke:black;stroke-width:0.5;fill:url(#radialffffffbfbfbf)"/>
<circle cx="152.982590" cy="95.898883" r="15.757849" opacity="0.755106" style="stroke:black;stroke-width:0.5;fill:url(#radialffffff666666)"/>
<circle cx="40.000000" cy="85.627145" r="6.939492" opacity="0.784602" style="stroke:black;stroke-width:0.5;fill:url(#radialffffffbfbfbf)"/>
<circle cx="61.255023" cy="164.054002" r="7.145568" opacity="0.796166" style="stroke:black;stroke-width:0.5;fill:url(#radialffffffbfbfbf)"/>
<circle cx="74.245655" cy="76.863365" r="18.176817" opacity="0.810996" style="stroke:black;stroke-width:0.5;fill:url(#radialffffff666666)"/>
<circle cx="95.843395" cy="155.482797" r="18.197551" opacity="0.811458" style="stroke:black;stroke-width:0.5;fill:url(#radialffffff666666)"/>
<circle cx="156.801444" cy="92.021277" r="9.482036" opacity="0.917141" style="stroke:black;stroke-width:0.5;fill:url(#radialffffffbfbfbf)"/>
<circle cx="244.550221" cy="108.954794" r="24.258102" opacity="0.936889" style="stroke:black;stroke-width:0.5;fill:url(#radialffffff666666)"/>
<circle cx="103.836877" cy="155.548076" r="10.433200" opacity="0.962043" style="stroke:black;stroke-width:0.5;fill:url(#radialffffffbfbfbf)"/>
<circle cx="79.265652" cy="74.477397" r="10.466183" opacity="0.963562" style="stroke:black;stroke-width:0.5;fill:url(#radialffffffbfbfbf)"/>
<circle cx="278.805668" cy="101.349726" r="10.503677" opacity="0.965286" style="stroke:black;stroke-width:0.5;fill:url(#radialffffffbfbfbf)"/>
<circle cx="237.124672" cy="140.288980" r="11.239180" opacity="0.998511" style="stroke:black;stroke-width:0.5;fill:url(#radialffffffbfbfbf)"/>
<circle cx="224.936979" cy="83.707926" r="11.272727" opacity="1.000000" style="stroke:black;stroke-width:0.5;fill:url(#radialffffffbfbfbf)"/>
</svg>
</g>
</svg>
