<?xml version="1.0"?>
<svg version="1.1" id="topsvg"
xmlns="http://www.w3.org/2000/svg" xmlns:xlink="http://www.w3.org/1999/xlink"
xmlns:cml="http://www.xml-cml.org/schema" x="0" y="0" width="200px" height="200px" viewBox="0 0 100 100">
<title>14062 - Open Babel Depiction</title>
<rect x="0" y="0" width="100" height="100" fill="white"/>
<defs>
<radialGradient id='radialffffff666666' cx='50%' cy='50%' r='50%' fx='30%' fy='30%'>
  <stop offset=' 0%' stop-color="rgb(255,255,255)"  stop-opacity='1.0'/>
  <stop offset='100%' stop-color="rgb(102,102,102)"  stop-opacity ='1.0'/>
</radialGradient>
<radialGradient id='radialffffffbfbfbf' cx='50%' cy='50%' r='50%' fx='30%' fy='30%'>
  <stop offset=' 0%' stop-color="rgb(255,255,255)"  stop-opacity='1.0'/>
  <stop offset='100%' stop-color="rgb(191,191,191)"  stop-opacity ='1.0'/>
</radialGradient>
</defs>
<g transform="translate(0,0)">
<svg width="100" height="100" x="0" y="0" viewBox="0 0 385.849 194.941"
font-family="sans-serif" stroke="rgb(0,0,0)" stroke-width="4"  stroke-linecap="round">
<line x1="107.7" y1="97.0" x2="153.8" y2="118.4" opacity="1.0" stroke="rgb(0,0,0)"  stroke-width="1.5"/>
<line x1="107.7" y1="97.0" x2="73.3" y2="134.0" opacity="0.5" stroke="rgb(0,0,0)"  stroke-width="1.5"/>
<line x1="107.7" y1="97.0" x2="99.6" y2="68.5" opacity="0.5" stroke="rgb(0,0,0)"  stroke-width="1.1"/>
<line x1="107.7" y1="97.0" x2="101.8" y2="69.0" opacity="0.4" stroke="rgb(0,0,0)"  stroke-width="1.9"/>
<line x1="153.8" y1="118.4" x2="192.7" y2="86.5" opacity="0.6" stroke="rgb(0,0,0)"  stroke-width="1.5"/>
<line x1="153.8" y1="118.4" x2="156.5" y2="138.7" opacity="0.5" stroke="rgb(0,0,0)"  stroke-width="1.2"/>
<line x1="153.8" y1="118.4" x2="157.0" y2="140.9" opacity="0.4" stroke="rgb(0,0,0)"  stroke-width="1.8"/>
<line x1="192.7" y1="86.5" x2="236.3" y2="111.3" opacity="0.6" stroke="rgb(0,0,0)"  stroke-width="1.5"/>
<line x1="192.7" y1="86.5" x2="190.9" y2="65.6" opacity="0.5" stroke="rgb(0,0,0)"  stroke-width="1.8"/>
<line x1="192.7" y1="86.5" x2="191.7" y2="65.1" opacity="0.6" stroke="rgb(0,0,0)"  stroke-width="1.2"/>
<line x1="236.3" y1="111.3" x2="275.2" y2="79.8" opacity="0.4" stroke="rgb(0,0,0)"  stroke-width="1.5"/>
<line x1="236.3" y1="111.3" x2="237.8" y2="132.3" opacity="0.5" stroke="rgb(0,0,0)"  stroke-width="1.8"/>
<line x1="236.3" y1="111.3" x2="238.2" y2="132.9" opacity="0.6" stroke="rgb(0,0,0)"  stroke-width="1.2"/>
<line x1="73.3" y1="134.0" x2="40.0" y2="120.7" opacity="0.4" stroke="rgb(0,0,0)"  stroke-width="1.5"/>
<line x1="73.3" y1="134.0" x2="76.1" y2="154.8" opacity="0.5" stroke="rgb(0,0,0)"  stroke-width="1.2"/>
<line x1="73.3" y1="134.0" x2="77.4" y2="154.9" opacity="0.4" stroke="rgb(0,0,0)"  stroke-width="1.8"/>
<line x1="99.6" y1="68.5" x2="121.6" y2="40.1" opacity="0.6" stroke="rgb(0,0,0)"  stroke-width="0.6"/>
<line x1="99.6" y1="68.5" x2="66.0" y2="55.9" opacity="0.2" stroke="rgb(0,0,0)"  stroke-width="0.6"/>
<line x1="99.6" y1="68.5" x2="104.7" y2="87.2" opacity="0.2" stroke="rgb(0,0,0)"  stroke-width="0.4"/>
<line x1="101.8" y1="69.0" x2="122.9" y2="40.0" opacity="0.1" stroke="rgb(0,0,0)"  stroke-width="2.4"/>
<line x1="101.8" y1="69.0" x2="109.4" y2="87.8" opacity="0.8" stroke="rgb(0,0,0)"  stroke-width="2.7"/>
<line x1="101.8" y1="69.0" x2="68.0" y2="57.3" opacity="0.9" stroke="rgb(0,0,0)"  stroke-width="2.4"/>
<line x1="275.2" y1="79.8" x2="318.5" y2="104.3" opacity="0.8" stroke="rgb(0,0,0)"  stroke-width="1.5"/>
<line x1="275.2" y1="79.8" x2="273.5" y2="58.5" opacity="0.5" stroke="rgb(0,0,0)"  stroke-width="1.2"/>
<line x1="275.2" y1="79.8" x2="273.8" y2="58.7" opacity="0.4" stroke="rgb(0,0,0)"  stroke-width="1.8"/>
<line x1="318.5" y1="104.3" x2="321.7" y2="125.2" opacity="0.6" stroke="rgb(0,0,0)"  stroke-width="1.8"/>
<line x1="318.5" y1="104.3" x2="345.8" y2="81.1" opacity="0.6" stroke="rgb(0,0,0)"  stroke-width="1.5"/>
<line x1="318.5" y1="104.3" x2="321.3" y2="124.9" opacity="0.5" stroke="rgb(0,0,0)"  stroke-width="1.2"/>
<circle cx="104.704521" cy="87.204599" r="5.636364" opacity="0.200000" style="stroke:black;stroke-width:0.5;fill:url(#radialffffffbfbfbf)"/>
<circle cx="121.556055" cy="40.098241" r="5.636364" opacity="0.454735" style="stroke:black;stroke-width:0.5;fill:url(#radialffffffbfbfbf)"/>
<circle cx="66.020655" cy="55.918249" r="5.636364" opacity="0.457519" style="stroke:black;stroke-width:0.5;fill:url(#radialffffffbfbfbf)"/>
<circle cx="99.648406" cy="68.466845" r="13.818182" opacity="0.461238" style="stroke:black;stroke-width:0.5;fill:url(#radialffffff666666)"/>
<circle cx="156.500229" cy="138.708860" r="5.636364" opacity="0.530695" style="stroke:black;stroke-width:0.5;fill:url(#radialffffffbfbfbf)"/>
<circle cx="321.308626" cy="124.922432" r="5.636364" opacity="0.540417" style="stroke:black;stroke-width:0.5;fill:url(#radialffffffbfbfbf)"/>
<circle cx="191.735851" cy="65.077545" r="5.636364" opacity="0.542996" style="stroke:black;stroke-width:0.5;fill:url(#radialffffffbfbfbf)"/>
<circle cx="273.462189" cy="58.469229" r="5.636364" opacity="0.545731" style="stroke:black;stroke-width:0.5;fill:url(#radialffffffbfbfbf)"/>
<circle cx="76.100138" cy="154.771195" r="5.636364" opacity="0.546788" style="stroke:black;stroke-width:0.5;fill:url(#radialffffffbfbfbf)"/>
<circle cx="238.220018" cy="132.906117" r="5.636364" opacity="0.547843" style="stroke:black;stroke-width:0.5;fill:url(#radialffffffbfbfbf)"/>
<circle cx="153.841184" cy="118.366511" r="13.818182" opacity="0.699961" style="stroke:black;stroke-width:0.5;fill:url(#radialffffff666666)"/>
<circle cx="345.849123" cy="81.149704" r="5.636364" opacity="0.705268" style="stroke:black;stroke-width:0.5;fill:url(#radialffffffbfbfbf)"/>
<circle cx="192.678960" cy="86.526739" r="13.818182" opacity="0.705300" style="stroke:black;stroke-width:0.5;fill:url(#radialffffff666666)"/>
<circle cx="318.498946" cy="104.311558" r="13.818182" opacity="0.705595" style="stroke:black;stroke-width:0.5;fill:url(#radialffffff666666)"/>
<circle cx="107.727056" cy="97.028657" r="13.818182" opacity="0.706756" style="stroke:black;stroke-width:0.5;fill:url(#radialffffff666666)"/>
<circle cx="275.158477" cy="79.813632" r="13.845939" opacity="0.707817" style="stroke:black;stroke-width:0.5;fill:url(#radialffffff666666)"/>
<circle cx="236.274855" cy="111.329211" r="13.877205" opacity="0.708615" style="stroke:black;stroke-width:0.5;fill:url(#radialffffff666666)"/>
<circle cx="73.346128" cy="133.980214" r="13.937186" opacity="0.710145" style="stroke:black;stroke-width:0.5;fill:url(#radialffffff666666)"/>
<circle cx="40.000000" cy="120.743933" r="5.747370" opacity="0.714036" style="stroke:black;stroke-width:0.5;fill:url(#radialffffffbfbfbf)"/>
<circle cx="156.952136" cy="140.873428" r="7.740028" opacity="0.828623" style="stroke:black;stroke-width:0.5;fill:url(#radialffffffbfbfbf)"/>
<circle cx="321.711413" cy="125.246626" r="7.911028" opacity="0.837726" style="stroke:black;stroke-width:0.5;fill:url(#radialffffffbfbfbf)"/>
<circle cx="190.936827" cy="65.644066" r="7.920398" opacity="0.838222" style="stroke:black;stroke-width:0.5;fill:url(#radialffffffbfbfbf)"/>
<circle cx="273.832229" cy="58.665710" r="7.950850" opacity="0.839832" style="stroke:black;stroke-width:0.5;fill:url(#radialffffffbfbfbf)"/>
<circle cx="237.833605" cy="132.257729" r="7.977138" opacity="0.841219" style="stroke:black;stroke-width:0.5;fill:url(#radialffffffbfbfbf)"/>
<circle cx="77.393639" cy="154.941479" r="7.977658" opacity="0.841246" style="stroke:black;stroke-width:0.5;fill:url(#radialffffffbfbfbf)"/>
<circle cx="122.901951" cy="40.000000" r="8.891220" opacity="0.888109" style="stroke:black;stroke-width:0.5;fill:url(#radialffffffbfbfbf)"/>
<circle cx="101.812973" cy="68.987520" r="21.871849" opacity="0.889615" style="stroke:black;stroke-width:0.5;fill:url(#radialffffff666666)"/>
<circle cx="67.992016" cy="57.306716" r="9.152535" opacity="0.901065" style="stroke:black;stroke-width:0.5;fill:url(#radialffffffbfbfbf)"/>
<circle cx="109.367674" cy="87.833338" r="11.272727" opacity="1.000000" style="stroke:black;stroke-width:0.5;fill:url(#radialffffffbfbfbf)"/>
</svg>
</g>
</svg>
