<?xml version="1.0"?>
<svg version="1.1" id="topsvg"
xmlns="http://www.w3.org/2000/svg" xmlns:xlink="http://www.w3.org/1999/xlink"
xmlns:cml="http://www.xml-cml.org/schema" x="0" y="0" width="200px" height="200px" viewBox="0 0 100 100">
<title>140668 - Open Babel Depiction</title>
<rect x="0" y="0" width="100" height="100" fill="white"/>
<defs>
<radialGradient id='radialffffff666666' cx='50%' cy='50%' r='50%' fx='30%' fy='30%'>
  <stop offset=' 0%' stop-color="rgb(255,255,255)"  stop-opacity='1.0'/>
  <stop offset='100%' stop-color="rgb(102,102,102)"  stop-opacity ='1.0'/>
</radialGradient>
<radialGradient id='radialffffffbfbfbf' cx='50%' cy='50%' r='50%' fx='30%' fy='30%'>
  <stop offset=' 0%' stop-color="rgb(255,255,255)"  stop-opacity='1.0'/>
  <stop offset='100%' stop-color="rgb(191,191,191)"  stop-opacity ='1.0'/>
</radialGradient>
</defs>
<g transform="translate(0,0)">
<svg width="100" height="100" x="0" y="0" viewBox="0 0 344.905 270.165"
font-family="sans-serif" stroke="rgb(0,0,0)" stroke-width="4"  stroke-linecap="round">
<line x1="109.2" y1="153.2" x2="154.9" y2="162.9" opacity="1.0" stroke="rgb(0,0,0)"  stroke-width="1.8"/>
<line x1="109.2" y1="153.2" x2="101.9" y2="103.6" opacity="0.6" stroke="rgb(0,0,0)"  stroke-width="1.4"/>
<line x1="109.2" y1="153.2" x2="104.7" y2="177.0" opacity="0.5" stroke="rgb(0,0,0)"  stroke-width="1.0"/>
<line x1="109.2" y1="153.2" x2="71.7" y2="169.4" opacity="0.3" stroke="rgb(0,0,0)"  stroke-width="1.9"/>
<line x1="154.9" y1="162.9" x2="194.0" y2="144.1" opacity="0.6" stroke="rgb(0,0,0)"  stroke-width="1.8"/>
<line x1="154.9" y1="162.9" x2="162.3" y2="211.7" opacity="0.6" stroke="rgb(0,0,0)"  stroke-width="2.2"/>
<polygon points="154.856532 162.882982 150.719640 146.766138 158.719352 146.698261 " stroke-width="2.158121" fill="rgb(0,0,0)"  stroke="rgb(0,0,0)" />
<line x1="101.9" y1="103.6" x2="105.0" y2="73.7" opacity="0.7" stroke="rgb(0,0,0)"  stroke-width="1.8"/>
<line x1="101.9" y1="103.6" x2="124.7" y2="92.0" opacity="0.6" stroke="rgb(0,0,0)"  stroke-width="1.1"/>
<line x1="101.9" y1="103.6" x2="69.3" y2="99.1" opacity="0.4" stroke="rgb(0,0,0)"  stroke-width="1.2"/>
<line x1="194.0" y1="144.1" x2="237.5" y2="146.3" opacity="0.4" stroke="rgb(0,0,0)"  stroke-width="1.7"/>
<line x1="194.0" y1="144.1" x2="197.2" y2="161.4" opacity="0.6" stroke="rgb(0,0,0)"  stroke-width="1.1"/>
<line x1="194.0" y1="144.1" x2="188.1" y2="109.7" opacity="0.4" stroke="rgb(0,0,0)"  stroke-width="1.4"/>
<line x1="104.7" y1="177.0" x2="72.7" y2="170.5" opacity="0.5" stroke="rgb(0,0,0)"  stroke-width="0.4"/>
<line x1="104.7" y1="177.0" x2="129.5" y2="166.4" opacity="0.1" stroke="rgb(0,0,0)"  stroke-width="0.4"/>
<line x1="104.7" y1="177.0" x2="107.4" y2="212.5" opacity="0.1" stroke="rgb(0,0,0)"  stroke-width="0.6"/>
<line x1="71.7" y1="169.4" x2="75.8" y2="158.1" opacity="0.2" stroke="rgb(0,0,0)"  stroke-width="2.6"/>
<line x1="71.7" y1="169.4" x2="40.0" y2="157.7" opacity="0.9" stroke="rgb(0,0,0)"  stroke-width="2.1"/>
<line x1="71.7" y1="169.4" x2="69.7" y2="205.1" opacity="0.7" stroke="rgb(0,0,0)"  stroke-width="2.2"/>
<line x1="162.3" y1="211.7" x2="167.5" y2="230.2" opacity="0.7" stroke="rgb(0,0,0)"  stroke-width="1.9"/>
<line x1="162.3" y1="211.7" x2="134.9" y2="226.4" opacity="0.6" stroke="rgb(0,0,0)"  stroke-width="2.5"/>
<line x1="162.3" y1="211.7" x2="190.9" y2="216.7" opacity="0.8" stroke="rgb(0,0,0)"  stroke-width="2.5"/>
<line x1="237.5" y1="146.3" x2="274.1" y2="125.2" opacity="0.8" stroke="rgb(0,0,0)"  stroke-width="1.7"/>
<line x1="237.5" y1="146.3" x2="246.7" y2="180.2" opacity="0.6" stroke="rgb(0,0,0)"  stroke-width="2.1"/>
<line x1="237.5" y1="146.3" x2="234.6" y2="129.7" opacity="0.7" stroke="rgb(0,0,0)"  stroke-width="2.4"/>
<line x1="105.0" y1="73.7" x2="137.6" y2="74.3" opacity="0.8" stroke="rgb(0,0,0)"  stroke-width="2.4"/>
<line x1="105.0" y1="73.7" x2="81.2" y2="82.5" opacity="0.8" stroke="rgb(0,0,0)"  stroke-width="2.5"/>
<line x1="105.0" y1="73.7" x2="98.2" y2="40.0" opacity="0.8" stroke="rgb(0,0,0)"  stroke-width="2.1"/>
<line x1="274.1" y1="125.2" x2="267.1" y2="90.7" opacity="0.7" stroke="rgb(0,0,0)"  stroke-width="1.3"/>
<line x1="274.1" y1="125.2" x2="304.9" y2="127.2" opacity="0.4" stroke="rgb(0,0,0)"  stroke-width="1.6"/>
<line x1="274.1" y1="125.2" x2="278.4" y2="141.6" opacity="0.5" stroke="rgb(0,0,0)"  stroke-width="1.1"/>
<circle cx="129.498173" cy="166.380687" r="5.636364" opacity="0.200000" style="stroke:black;stroke-width:0.5;fill:url(#radialffffffbfbfbf)"/>
<circle cx="72.748566" cy="170.504846" r="5.636364" opacity="0.255346" style="stroke:black;stroke-width:0.5;fill:url(#radialffffffbfbfbf)"/>
<circle cx="104.658596" cy="177.049991" r="13.818182" opacity="0.422214" style="stroke:black;stroke-width:0.5;fill:url(#radialffffff666666)"/>
<circle cx="107.383021" cy="212.474040" r="5.636364" opacity="0.453674" style="stroke:black;stroke-width:0.5;fill:url(#radialffffffbfbfbf)"/>
<circle cx="278.411648" cy="141.635731" r="5.636364" opacity="0.481359" style="stroke:black;stroke-width:0.5;fill:url(#radialffffffbfbfbf)"/>
<circle cx="197.246626" cy="161.391889" r="5.636364" opacity="0.497246" style="stroke:black;stroke-width:0.5;fill:url(#radialffffffbfbfbf)"/>
<circle cx="124.665989" cy="91.953314" r="5.636364" opacity="0.506209" style="stroke:black;stroke-width:0.5;fill:url(#radialffffffbfbfbf)"/>
<circle cx="69.348745" cy="99.066184" r="5.636364" opacity="0.580942" style="stroke:black;stroke-width:0.5;fill:url(#radialffffffbfbfbf)"/>
<circle cx="267.148517" cy="90.726507" r="5.636364" opacity="0.651285" style="stroke:black;stroke-width:0.5;fill:url(#radialffffffbfbfbf)"/>
<circle cx="188.074939" cy="109.742014" r="5.636364" opacity="0.651935" style="stroke:black;stroke-width:0.5;fill:url(#radialffffffbfbfbf)"/>
<circle cx="101.888492" cy="103.585140" r="13.818182" opacity="0.668707" style="stroke:black;stroke-width:0.5;fill:url(#radialffffff666666)"/>
<circle cx="274.081933" cy="125.210874" r="13.818182" opacity="0.686757" style="stroke:black;stroke-width:0.5;fill:url(#radialffffff666666)"/>
<circle cx="193.954477" cy="144.059979" r="13.818182" opacity="0.696358" style="stroke:black;stroke-width:0.5;fill:url(#radialffffff666666)"/>
<circle cx="109.200392" cy="153.212089" r="14.257822" opacity="0.718267" style="stroke:black;stroke-width:0.5;fill:url(#radialffffff666666)"/>
<circle cx="167.529187" cy="230.164857" r="5.912024" opacity="0.724192" style="stroke:black;stroke-width:0.5;fill:url(#radialffffffbfbfbf)"/>
<circle cx="304.905456" cy="127.240326" r="6.859071" opacity="0.780042" style="stroke:black;stroke-width:0.5;fill:url(#radialffffffbfbfbf)"/>
<circle cx="40.000000" cy="157.688629" r="7.375004" opacity="0.808847" style="stroke:black;stroke-width:0.5;fill:url(#radialffffffbfbfbf)"/>
<circle cx="237.548537" cy="146.281935" r="18.565395" opacity="0.819618" style="stroke:black;stroke-width:0.5;fill:url(#radialffffff666666)"/>
<circle cx="98.247225" cy="40.000000" r="7.611485" opacity="0.821713" style="stroke:black;stroke-width:0.5;fill:url(#radialffffffbfbfbf)"/>
<circle cx="154.856532" cy="162.882982" r="18.909671" opacity="0.827183" style="stroke:black;stroke-width:0.5;fill:url(#radialffffff666666)"/>
<circle cx="246.697385" cy="180.195315" r="8.125171" opacity="0.848988" style="stroke:black;stroke-width:0.5;fill:url(#radialffffffbfbfbf)"/>
<circle cx="71.724052" cy="169.402025" r="20.539470" opacity="0.862093" style="stroke:black;stroke-width:0.5;fill:url(#radialffffff666666)"/>
<circle cx="69.733753" cy="205.064257" r="8.441135" opacity="0.865338" style="stroke:black;stroke-width:0.5;fill:url(#radialffffffbfbfbf)"/>
<circle cx="104.965298" cy="73.707824" r="20.724002" opacity="0.865957" style="stroke:black;stroke-width:0.5;fill:url(#radialffffff666666)"/>
<circle cx="162.272841" cy="211.733388" r="20.852073" opacity="0.868629" style="stroke:black;stroke-width:0.5;fill:url(#radialffffff666666)"/>
<circle cx="137.560513" cy="74.282075" r="9.700494" opacity="0.927646" style="stroke:black;stroke-width:0.5;fill:url(#radialffffffbfbfbf)"/>
<circle cx="134.898081" cy="226.399604" r="10.013368" opacity="0.942487" style="stroke:black;stroke-width:0.5;fill:url(#radialffffffbfbfbf)"/>
<circle cx="234.621820" cy="129.749407" r="10.290011" opacity="0.955418" style="stroke:black;stroke-width:0.5;fill:url(#radialffffffbfbfbf)"/>
<circle cx="190.871145" cy="216.660192" r="10.296471" opacity="0.955718" style="stroke:black;stroke-width:0.5;fill:url(#radialffffffbfbfbf)"/>
<circle cx="154.719496" cy="146.732200" r="10.467232" opacity="0.963610" style="stroke:black;stroke-width:0.5;fill:url(#radialffffffbfbfbf)"/>
<circle cx="81.169812" cy="82.507554" r="10.612434" opacity="0.970271" style="stroke:black;stroke-width:0.5;fill:url(#radialffffffbfbfbf)"/>
<circle cx="75.841685" cy="158.073638" r="11.272727" opacity="1.000000" style="stroke:black;stroke-width:0.5;fill:url(#radialffffffbfbfbf)"/>
</svg>
</g>
</svg>
