<?xml version="1.0"?>
<svg version="1.1" id="topsvg"
xmlns="http://www.w3.org/2000/svg" xmlns:xlink="http://www.w3.org/1999/xlink"
xmlns:cml="http://www.xml-cml.org/schema" x="0" y="0" width="200px" height="200px" viewBox="0 0 100 100">
<title>14095 - Open Babel Depiction</title>
<rect x="0" y="0" width="100" height="100" fill="white"/>
<defs>
<radialGradient id='radialffffff666666' cx='50%' cy='50%' r='50%' fx='30%' fy='30%'>
  <stop offset=' 0%' stop-color="rgb(255,255,255)"  stop-opacity='1.0'/>
  <stop offset='100%' stop-color="rgb(102,102,102)"  stop-opacity ='1.0'/>
</radialGradient>
<radialGradient id='radialffffffbfbfbf' cx='50%' cy='50%' r='50%' fx='30%' fy='30%'>
  <stop offset=' 0%' stop-color="rgb(255,255,255)"  stop-opacity='1.0'/>
  <stop offset='100%' stop-color="rgb(191,191,191)"  stop-opacity ='1.0'/>
</radialGradient>
</defs>
<g transform="translate(0,0)">
<svg width="100" height="100" x="0" y="0" viewBox="0 0 372.535 219.583"
font-family="sans-serif" stroke="rgb(0,0,0)" stroke-width="2"  stroke-linecap="round">
<line x1="239.0" y1="110.1" x2="191.7" y2="110.0" opacity="1.0" stroke="rgb(0,0,0)"  stroke-width="2.2"/>
<line x1="239.0" y1="110.1" x2="266.0" y2="110.1" opacity="0.7" stroke="rgb(0,0,0)"  stroke-width="1.6"/>
<line x1="239.0" y1="110.1" x2="247.5" y2="81.9" opacity="0.5" stroke="rgb(0,0,0)"  stroke-width="2.7"/>
<line x1="239.0" y1="110.1" x2="247.4" y2="138.4" opacity="0.9" stroke="rgb(0,0,0)"  stroke-width="2.7"/>
<line x1="266.0" y1="110.1" x2="314.2" y2="109.1" opacity="0.9" stroke="rgb(0,0,0)"  stroke-width="1.1"/>
<line x1="266.0" y1="110.1" x2="258.4" y2="138.9" opacity="0.4" stroke="rgb(0,0,0)"  stroke-width="0.6"/>
<line x1="266.0" y1="110.1" x2="257.5" y2="82.0" opacity="0.2" stroke="rgb(0,0,0)"  stroke-width="0.6"/>
<line x1="169.6" y1="70.8" x2="186.6" y2="40.3" opacity="0.2" stroke="rgb(0,0,0)"  stroke-width="2.0"/>
<line x1="169.4" y1="148.9" x2="186.2" y2="179.6" opacity="0.7" stroke="rgb(0,0,0)"  stroke-width="1.9"/>
<line x1="103.1" y1="109.6" x2="55.7" y2="109.5" opacity="0.6" stroke="rgb(0,0,0)"  stroke-width="1.3"/>
<line x1="314.2" y1="109.1" x2="323.0" y2="80.1" opacity="0.4" stroke="rgb(0,0,0)"  stroke-width="1.6"/>
<line x1="314.2" y1="109.1" x2="324.0" y2="137.4" opacity="0.5" stroke="rgb(0,0,0)"  stroke-width="1.6"/>
<line x1="314.2" y1="109.1" x2="332.5" y2="109.2" opacity="0.5" stroke="rgb(0,0,0)"  stroke-width="0.7"/>
<line x1="125.3" y1="70.7" x2="108.6" y2="40.0" opacity="0.2" stroke="rgb(0,0,0)"  stroke-width="1.6"/>
<line x1="125.1" y1="148.7" x2="108.1" y2="179.3" opacity="0.5" stroke="rgb(0,0,0)"  stroke-width="1.6"/>
<line x1="55.7" y1="109.5" x2="40.0" y2="137.9" opacity="0.5" stroke="rgb(0,0,0)"  stroke-width="1.4"/>
<line x1="55.7" y1="109.5" x2="40.2" y2="81.0" opacity="0.5" stroke="rgb(0,0,0)"  stroke-width="1.4"/>
<line x1="55.7" y1="109.5" x2="50.0" y2="109.4" opacity="0.5" stroke="rgb(0,0,0)"  stroke-width="0.6"/>
<line x1="189.1" y1="108.5" x2="166.8" y2="147.4" opacity="0.7" stroke="rgb(0,0,0)"  stroke-width="2.0"/>
<line x1="194.3" y1="111.4" x2="172.0" y2="150.4" opacity="0.7" stroke="rgb(0,0,0)"  stroke-width="2.0" stroke-dasharray="5.0,5.0"/>
<line x1="169.4" y1="145.9" x2="125.1" y2="145.7" opacity="0.6" stroke="rgb(0,0,0)"  stroke-width="1.7"/>
<line x1="169.4" y1="151.9" x2="125.1" y2="151.7" opacity="0.6" stroke="rgb(0,0,0)"  stroke-width="1.7" stroke-dasharray="5.0,5.0"/>
<line x1="127.7" y1="147.3" x2="105.7" y2="108.2" opacity="0.5" stroke="rgb(0,0,0)"  stroke-width="1.5"/>
<line x1="122.5" y1="150.2" x2="100.5" y2="111.1" opacity="0.5" stroke="rgb(0,0,0)"  stroke-width="1.5" stroke-dasharray="5.0,5.0"/>
<line x1="105.7" y1="111.1" x2="128.0" y2="72.2" opacity="0.5" stroke="rgb(0,0,0)"  stroke-width="1.5"/>
<line x1="100.5" y1="108.1" x2="122.7" y2="69.2" opacity="0.5" stroke="rgb(0,0,0)"  stroke-width="1.5" stroke-dasharray="5.0,5.0"/>
<line x1="125.3" y1="73.7" x2="169.6" y2="73.8" opacity="0.6" stroke="rgb(0,0,0)"  stroke-width="1.8"/>
<line x1="125.4" y1="67.7" x2="169.6" y2="67.8" opacity="0.6" stroke="rgb(0,0,0)"  stroke-width="1.8" stroke-dasharray="5.0,5.0"/>
<line x1="167.0" y1="72.3" x2="189.0" y2="111.4" opacity="0.7" stroke="rgb(0,0,0)"  stroke-width="2.0"/>
<line x1="172.2" y1="69.4" x2="194.3" y2="108.5" opacity="0.7" stroke="rgb(0,0,0)"  stroke-width="2.0" stroke-dasharray="5.0,5.0"/>
<circle cx="49.951266" cy="109.368079" r="5.636364" opacity="0.200000" style="stroke:black;stroke-width:0.5;fill:url(#radialffffffbfbfbf)"/>
<circle cx="332.534916" cy="109.177455" r="5.636364" opacity="0.277807" style="stroke:black;stroke-width:0.5;fill:url(#radialffffffbfbfbf)"/>
<circle cx="257.532094" cy="81.979481" r="5.636364" opacity="0.297753" style="stroke:black;stroke-width:0.5;fill:url(#radialffffffbfbfbf)"/>
<circle cx="258.446447" cy="138.850321" r="5.636364" opacity="0.308389" style="stroke:black;stroke-width:0.5;fill:url(#radialffffffbfbfbf)"/>
<circle cx="265.968054" cy="110.088577" r="13.818182" opacity="0.558020" style="stroke:black;stroke-width:0.5;fill:url(#radialffffff666666)"/>
<circle cx="55.737863" cy="109.458546" r="13.818182" opacity="0.625349" style="stroke:black;stroke-width:0.5;fill:url(#radialffffff666666)"/>
<circle cx="314.186461" cy="109.138683" r="13.818182" opacity="0.644992" style="stroke:black;stroke-width:0.5;fill:url(#radialffffff666666)"/>
<circle cx="103.083919" cy="109.629785" r="13.818182" opacity="0.700624" style="stroke:black;stroke-width:0.5;fill:url(#radialffffff666666)"/>
<circle cx="108.133864" cy="179.298341" r="5.636364" opacity="0.706441" style="stroke:black;stroke-width:0.5;fill:url(#radialffffffbfbfbf)"/>
<circle cx="108.563578" cy="40.000000" r="5.674331" opacity="0.709484" style="stroke:black;stroke-width:0.5;fill:url(#radialffffffbfbfbf)"/>
<circle cx="125.105942" cy="148.740199" r="14.827071" opacity="0.732466" style="stroke:black;stroke-width:0.5;fill:url(#radialffffff666666)"/>
<circle cx="125.348262" cy="70.680917" r="14.893129" opacity="0.734095" style="stroke:black;stroke-width:0.5;fill:url(#radialffffff666666)"/>
<circle cx="40.000000" cy="137.881042" r="6.181384" opacity="0.740506" style="stroke:black;stroke-width:0.5;fill:url(#radialffffffbfbfbf)"/>
<circle cx="40.180932" cy="80.994047" r="6.196081" opacity="0.741385" style="stroke:black;stroke-width:0.5;fill:url(#radialffffffbfbfbf)"/>
<circle cx="322.987516" cy="80.095848" r="6.984420" opacity="0.787138" style="stroke:black;stroke-width:0.5;fill:url(#radialffffffbfbfbf)"/>
<circle cx="323.972950" cy="137.425481" r="7.070154" opacity="0.791954" style="stroke:black;stroke-width:0.5;fill:url(#radialffffffbfbfbf)"/>
<circle cx="169.395539" cy="148.898515" r="17.414352" opacity="0.793804" style="stroke:black;stroke-width:0.5;fill:url(#radialffffff666666)"/>
<circle cx="169.634627" cy="70.845694" r="17.479409" opacity="0.795285" style="stroke:black;stroke-width:0.5;fill:url(#radialffffff666666)"/>
<circle cx="186.199609" cy="179.582663" r="7.485757" opacity="0.814898" style="stroke:black;stroke-width:0.5;fill:url(#radialffffffbfbfbf)"/>
<circle cx="186.629322" cy="40.284322" r="7.533115" opacity="0.817472" style="stroke:black;stroke-width:0.5;fill:url(#radialffffffbfbfbf)"/>
<circle cx="191.656650" cy="109.952878" r="18.740521" opacity="0.823475" style="stroke:black;stroke-width:0.5;fill:url(#radialffffff666666)"/>
<circle cx="239.002707" cy="110.120886" r="21.501956" opacity="0.882061" style="stroke:black;stroke-width:0.5;fill:url(#radialffffff666666)"/>
<circle cx="247.399896" cy="138.404453" r="11.258438" opacity="0.999366" style="stroke:black;stroke-width:0.5;fill:url(#radialffffffbfbfbf)"/>
<circle cx="247.500054" cy="81.947172" r="11.272727" opacity="1.000000" style="stroke:black;stroke-width:0.5;fill:url(#radialffffffbfbfbf)"/>
</svg>
</g>
</svg>
