<?xml version="1.0"?>
<svg version="1.1" id="topsvg"
xmlns="http://www.w3.org/2000/svg" xmlns:xlink="http://www.w3.org/1999/xlink"
xmlns:cml="http://www.xml-cml.org/schema" x="0" y="0" width="1024px" height="1024px" viewBox="0 0 100 100">
<title>14092 - Open Babel Depiction</title>
<rect x="0" y="0" width="100" height="100" fill="white"/>
<defs>
<radialGradient id='radialffffff666666' cx='50%' cy='50%' r='50%' fx='30%' fy='30%'>
  <stop offset=' 0%' stop-color="rgb(255,255,255)"  stop-opacity='1.0'/>
  <stop offset='100%' stop-color="rgb(102,102,102)"  stop-opacity ='1.0'/>
</radialGradient>
<radialGradient id='radialffffffbfbfbf' cx='50%' cy='50%' r='50%' fx='30%' fy='30%'>
  <stop offset=' 0%' stop-color="rgb(255,255,255)"  stop-opacity='1.0'/>
  <stop offset='100%' stop-color="rgb(191,191,191)"  stop-opacity ='1.0'/>
</radialGradient>
</defs>
<g transform="translate(0,0)">
<svg width="100" height="100" x="0" y="0" viewBox="0 0 349.133 255.566"
font-family="sans-serif" stroke="rgb(0,0,0)" stroke-width="2"  stroke-linecap="round">
<line x1="215.3" y1="129.3" x2="168.9" y2="121.7" opacity="1.0" stroke="rgb(0,0,0)"  stroke-width="2.0"/>
<line x1="215.3" y1="129.3" x2="242.9" y2="136.8" opacity="0.7" stroke="rgb(0,0,0)"  stroke-width="1.5"/>
<line x1="215.3" y1="129.3" x2="228.0" y2="101.6" opacity="0.5" stroke="rgb(0,0,0)"  stroke-width="2.5"/>
<line x1="215.3" y1="129.3" x2="218.2" y2="157.1" opacity="0.8" stroke="rgb(0,0,0)"  stroke-width="2.6"/>
<line x1="242.9" y1="136.8" x2="290.3" y2="143.4" opacity="0.9" stroke="rgb(0,0,0)"  stroke-width="1.0"/>
<line x1="242.9" y1="136.8" x2="231.0" y2="165.1" opacity="0.3" stroke="rgb(0,0,0)"  stroke-width="0.5"/>
<line x1="242.9" y1="136.8" x2="239.9" y2="109.1" opacity="0.2" stroke="rgb(0,0,0)"  stroke-width="0.4"/>
<line x1="140.4" y1="156.4" x2="151.9" y2="189.1" opacity="0.1" stroke="rgb(0,0,0)"  stroke-width="1.9"/>
<line x1="97.0" y1="149.3" x2="66.5" y2="186.5" opacity="0.6" stroke="rgb(0,0,0)"  stroke-width="1.4"/>
<line x1="154.1" y1="79.8" x2="176.0" y2="52.4" opacity="0.5" stroke="rgb(0,0,0)"  stroke-width="1.6"/>
<line x1="290.3" y1="143.4" x2="303.5" y2="115.1" opacity="0.5" stroke="rgb(0,0,0)"  stroke-width="1.5"/>
<line x1="290.3" y1="143.4" x2="294.6" y2="171.5" opacity="0.5" stroke="rgb(0,0,0)"  stroke-width="1.5"/>
<line x1="290.3" y1="143.4" x2="309.1" y2="148.7" opacity="0.5" stroke="rgb(0,0,0)"  stroke-width="0.6"/>
<line x1="82.2" y1="107.4" x2="48.5" y2="101.4" opacity="0.2" stroke="rgb(0,0,0)"  stroke-width="1.0"/>
<line x1="110.7" y1="72.6" x2="99.2" y2="40.0" opacity="0.3" stroke="rgb(0,0,0)"  stroke-width="1.1"/>
<line x1="66.5" y1="186.5" x2="82.9" y2="215.6" opacity="0.4" stroke="rgb(0,0,0)"  stroke-width="1.1"/>
<line x1="66.5" y1="186.5" x2="52.8" y2="193.3" opacity="0.4" stroke="rgb(0,0,0)"  stroke-width="1.9"/>
<line x1="66.5" y1="186.5" x2="40.0" y2="179.7" opacity="0.6" stroke="rgb(0,0,0)"  stroke-width="0.9"/>
<line x1="171.8" y1="120.7" x2="156.9" y2="78.7" opacity="0.6" stroke="rgb(0,0,0)"  stroke-width="1.7"/>
<line x1="166.1" y1="122.7" x2="151.3" y2="80.8" opacity="0.6" stroke="rgb(0,0,0)"  stroke-width="1.7" stroke-dasharray="5.0,5.0"/>
<line x1="154.6" y1="76.8" x2="111.2" y2="69.7" opacity="0.5" stroke="rgb(0,0,0)"  stroke-width="1.4"/>
<line x1="153.6" y1="82.7" x2="110.3" y2="75.6" opacity="0.5" stroke="rgb(0,0,0)"  stroke-width="1.4" stroke-dasharray="5.0,5.0"/>
<line x1="108.4" y1="70.7" x2="79.9" y2="105.5" opacity="0.4" stroke="rgb(0,0,0)"  stroke-width="1.2"/>
<line x1="113.1" y1="74.5" x2="84.5" y2="109.3" opacity="0.4" stroke="rgb(0,0,0)"  stroke-width="1.2" stroke-dasharray="5.0,5.0"/>
<line x1="79.4" y1="108.4" x2="94.2" y2="150.3" opacity="0.4" stroke="rgb(0,0,0)"  stroke-width="1.3"/>
<line x1="85.0" y1="106.4" x2="99.9" y2="148.3" opacity="0.4" stroke="rgb(0,0,0)"  stroke-width="1.3" stroke-dasharray="5.0,5.0"/>
<line x1="96.5" y1="152.3" x2="139.9" y2="159.4" opacity="0.5" stroke="rgb(0,0,0)"  stroke-width="1.6"/>
<line x1="97.5" y1="146.4" x2="140.9" y2="153.5" opacity="0.5" stroke="rgb(0,0,0)"  stroke-width="1.6" stroke-dasharray="5.0,5.0"/>
<line x1="142.7" y1="158.3" x2="171.3" y2="123.6" opacity="0.6" stroke="rgb(0,0,0)"  stroke-width="1.8"/>
<line x1="138.1" y1="154.5" x2="166.6" y2="119.8" opacity="0.6" stroke="rgb(0,0,0)"  stroke-width="1.8" stroke-dasharray="5.0,5.0"/>
<circle cx="239.949429" cy="109.125780" r="5.636364" opacity="0.200000" style="stroke:black;stroke-width:0.5;fill:url(#radialffffffbfbfbf)"/>
<circle cx="309.133366" cy="148.704692" r="5.636364" opacity="0.204484" style="stroke:black;stroke-width:0.5;fill:url(#radialffffffbfbfbf)"/>
<circle cx="231.022365" cy="165.130747" r="5.636364" opacity="0.227211" style="stroke:black;stroke-width:0.5;fill:url(#radialffffffbfbfbf)"/>
<circle cx="40.000000" cy="179.711941" r="5.636364" opacity="0.410651" style="stroke:black;stroke-width:0.5;fill:url(#radialffffffbfbfbf)"/>
<circle cx="242.908962" cy="136.772861" r="13.818182" opacity="0.510543" style="stroke:black;stroke-width:0.5;fill:url(#radialffffff666666)"/>
<circle cx="48.468272" cy="101.429701" r="5.636364" opacity="0.536067" style="stroke:black;stroke-width:0.5;fill:url(#radialffffffbfbfbf)"/>
<circle cx="82.864769" cy="215.565589" r="5.636364" opacity="0.542993" style="stroke:black;stroke-width:0.5;fill:url(#radialffffffbfbfbf)"/>
<circle cx="99.193897" cy="40.000000" r="5.636364" opacity="0.583447" style="stroke:black;stroke-width:0.5;fill:url(#radialffffffbfbfbf)"/>
<circle cx="82.195966" cy="107.410156" r="13.818182" opacity="0.615634" style="stroke:black;stroke-width:0.5;fill:url(#radialffffff666666)"/>
<circle cx="290.319652" cy="143.389809" r="13.818182" opacity="0.625577" style="stroke:black;stroke-width:0.5;fill:url(#radialffffff666666)"/>
<circle cx="110.738015" cy="72.629178" r="13.818182" opacity="0.639542" style="stroke:black;stroke-width:0.5;fill:url(#radialffffff666666)"/>
<circle cx="66.500100" cy="186.493667" r="13.818182" opacity="0.659516" style="stroke:black;stroke-width:0.5;fill:url(#radialffffff666666)"/>
<circle cx="97.025942" cy="149.318569" r="13.818182" opacity="0.683431" style="stroke:black;stroke-width:0.5;fill:url(#radialffffff666666)"/>
<circle cx="154.113271" cy="79.750151" r="14.564910" opacity="0.725961" style="stroke:black;stroke-width:0.5;fill:url(#radialffffff666666)"/>
<circle cx="176.038372" cy="52.380930" r="6.183323" opacity="0.740622" style="stroke:black;stroke-width:0.5;fill:url(#radialffffffbfbfbf)"/>
<circle cx="140.401197" cy="156.436311" r="16.171700" opacity="0.764958" style="stroke:black;stroke-width:0.5;fill:url(#radialffffff666666)"/>
<circle cx="303.547085" cy="115.054540" r="6.620978" opacity="0.766384" style="stroke:black;stroke-width:0.5;fill:url(#radialffffffbfbfbf)"/>
<circle cx="168.943247" cy="121.655333" r="16.998927" opacity="0.784278" style="stroke:black;stroke-width:0.5;fill:url(#radialffffff666666)"/>
<circle cx="294.613560" cy="171.518299" r="7.220214" opacity="0.800314" style="stroke:black;stroke-width:0.5;fill:url(#radialffffffbfbfbf)"/>
<circle cx="151.945316" cy="189.117183" r="7.369699" opacity="0.808556" style="stroke:black;stroke-width:0.5;fill:url(#radialffffffbfbfbf)"/>
<circle cx="215.316807" cy="129.251253" r="20.487896" opacity="0.861010" style="stroke:black;stroke-width:0.5;fill:url(#radialffffff666666)"/>
<circle cx="52.823567" cy="193.317394" r="9.167408" opacity="0.901797" style="stroke:black;stroke-width:0.5;fill:url(#radialffffffbfbfbf)"/>
<circle cx="228.049908" cy="101.597710" r="10.791005" opacity="0.978400" style="stroke:black;stroke-width:0.5;fill:url(#radialffffffbfbfbf)"/>
<circle cx="218.221414" cy="157.076035" r="11.272727" opacity="1.000000" style="stroke:black;stroke-width:0.5;fill:url(#radialffffffbfbfbf)"/>
</svg>
</g>
</svg>
