<?xml version="1.0"?>
<svg version="1.1" id="topsvg"
xmlns="http://www.w3.org/2000/svg" xmlns:xlink="http://www.w3.org/1999/xlink"
xmlns:cml="http://www.xml-cml.org/schema" x="0" y="0" width="1024px" height="1024px" viewBox="0 0 100 100">
<title>14126 - Open Babel Depiction</title>
<rect x="0" y="0" width="100" height="100" fill="white"/>
<defs>
<radialGradient id='radialffffff666666' cx='50%' cy='50%' r='50%' fx='30%' fy='30%'>
  <stop offset=' 0%' stop-color="rgb(255,255,255)"  stop-opacity='1.0'/>
  <stop offset='100%' stop-color="rgb(102,102,102)"  stop-opacity ='1.0'/>
</radialGradient>
<radialGradient id='radialffffffbfbfbf' cx='50%' cy='50%' r='50%' fx='30%' fy='30%'>
  <stop offset=' 0%' stop-color="rgb(255,255,255)"  stop-opacity='1.0'/>
  <stop offset='100%' stop-color="rgb(191,191,191)"  stop-opacity ='1.0'/>
</radialGradient>
</defs>
<g transform="translate(0,0)">
<svg width="100" height="100" x="0" y="0" viewBox="0 0 587.495 222.102"
font-family="sans-serif" stroke="rgb(0,0,0)" stroke-width="2"  stroke-linecap="round">
<line x1="272.3" y1="107.3" x2="228.4" y2="106.9" opacity="1.0" stroke="rgb(0,0,0)"  stroke-width="1.5"/>
<line x1="272.3" y1="107.3" x2="310.4" y2="105.8" opacity="0.5" stroke="rgb(0,0,0)"  stroke-width="1.6"/>
<line x1="272.3" y1="107.3" x2="274.5" y2="79.8" opacity="0.5" stroke="rgb(0,0,0)"  stroke-width="0.9"/>
<line x1="272.3" y1="107.3" x2="275.0" y2="136.5" opacity="0.3" stroke="rgb(0,0,0)"  stroke-width="0.9"/>
<line x1="228.4" y1="106.9" x2="191.5" y2="109.2" opacity="0.3" stroke="rgb(0,0,0)"  stroke-width="1.3"/>
<line x1="228.4" y1="106.9" x2="225.3" y2="77.6" opacity="0.4" stroke="rgb(0,0,0)"  stroke-width="2.1"/>
<line x1="228.4" y1="106.9" x2="226.3" y2="134.4" opacity="0.7" stroke="rgb(0,0,0)"  stroke-width="2.1"/>
<line x1="310.4" y1="105.8" x2="354.4" y2="108.6" opacity="0.7" stroke="rgb(0,0,0)"  stroke-width="1.7"/>
<line x1="310.4" y1="105.8" x2="308.7" y2="75.9" opacity="0.6" stroke="rgb(0,0,0)"  stroke-width="2.3"/>
<line x1="310.4" y1="105.8" x2="307.5" y2="132.5" opacity="0.8" stroke="rgb(0,0,0)"  stroke-width="2.4"/>
<line x1="191.5" y1="109.2" x2="147.6" y2="110.1" opacity="0.8" stroke="rgb(0,0,0)"  stroke-width="1.2"/>
<line x1="191.5" y1="109.2" x2="195.1" y2="138.2" opacity="0.4" stroke="rgb(0,0,0)"  stroke-width="0.6"/>
<line x1="191.5" y1="109.2" x2="193.2" y2="81.4" opacity="0.2" stroke="rgb(0,0,0)"  stroke-width="0.6"/>
<line x1="354.4" y1="108.6" x2="392.3" y2="106.7" opacity="0.2" stroke="rgb(0,0,0)"  stroke-width="1.9"/>
<line x1="354.4" y1="108.6" x2="356.1" y2="138.6" opacity="0.6" stroke="rgb(0,0,0)"  stroke-width="1.2"/>
<line x1="354.4" y1="108.6" x2="357.2" y2="82.2" opacity="0.4" stroke="rgb(0,0,0)"  stroke-width="1.1"/>
<line x1="147.6" y1="110.1" x2="109.6" y2="111.4" opacity="0.4" stroke="rgb(0,0,0)"  stroke-width="1.1"/>
<line x1="147.6" y1="110.1" x2="144.5" y2="81.6" opacity="0.4" stroke="rgb(0,0,0)"  stroke-width="1.8"/>
<line x1="147.6" y1="110.1" x2="146.1" y2="138.4" opacity="0.6" stroke="rgb(0,0,0)"  stroke-width="1.8"/>
<line x1="392.3" y1="106.7" x2="435.9" y2="109.0" opacity="0.6" stroke="rgb(0,0,0)"  stroke-width="2.0"/>
<line x1="392.3" y1="106.7" x2="389.4" y2="133.1" opacity="0.7" stroke="rgb(0,0,0)"  stroke-width="2.7"/>
<line x1="392.3" y1="106.7" x2="390.3" y2="77.0" opacity="0.9" stroke="rgb(0,0,0)"  stroke-width="2.6"/>
<line x1="109.6" y1="111.4" x2="65.9" y2="114.6" opacity="0.9" stroke="rgb(0,0,0)"  stroke-width="0.9"/>
<line x1="109.6" y1="111.4" x2="113.2" y2="139.1" opacity="0.3" stroke="rgb(0,0,0)"  stroke-width="0.4"/>
<line x1="109.6" y1="111.4" x2="110.1" y2="82.4" opacity="0.1" stroke="rgb(0,0,0)"  stroke-width="0.4"/>
<line x1="65.9" y1="114.6" x2="40.0" y2="115.4" opacity="0.1" stroke="rgb(0,0,0)"  stroke-width="0.9"/>
<line x1="65.9" y1="114.6" x2="60.6" y2="86.9" opacity="0.3" stroke="rgb(0,0,0)"  stroke-width="1.6"/>
<line x1="65.9" y1="114.6" x2="63.9" y2="144.0" opacity="0.5" stroke="rgb(0,0,0)"  stroke-width="1.5"/>
<line x1="455.0" y1="148.9" x2="439.1" y2="178.5" opacity="0.5" stroke="rgb(0,0,0)"  stroke-width="1.7"/>
<line x1="456.2" y1="71.2" x2="441.2" y2="40.0" opacity="0.6" stroke="rgb(0,0,0)"  stroke-width="1.4"/>
<line x1="495.3" y1="151.0" x2="510.6" y2="182.1" opacity="0.5" stroke="rgb(0,0,0)"  stroke-width="0.9"/>
<line x1="496.5" y1="73.3" x2="512.7" y2="43.9" opacity="0.3" stroke="rgb(0,0,0)"  stroke-width="0.6"/>
<line x1="516.1" y1="113.3" x2="547.5" y2="114.9" opacity="0.2" stroke="rgb(0,0,0)"  stroke-width="0.4"/>
<line x1="438.5" y1="110.4" x2="458.8" y2="72.6" opacity="0.5" stroke="rgb(0,0,0)"  stroke-width="1.5"/>
<line x1="433.3" y1="107.6" x2="453.5" y2="69.8" opacity="0.5" stroke="rgb(0,0,0)"  stroke-width="1.5" stroke-dasharray="5.0,5.0"/>
<line x1="456.0" y1="74.2" x2="496.4" y2="76.3" opacity="0.4" stroke="rgb(0,0,0)"  stroke-width="1.1"/>
<line x1="456.3" y1="68.2" x2="496.7" y2="70.4" opacity="0.4" stroke="rgb(0,0,0)"  stroke-width="1.1" stroke-dasharray="5.0,5.0"/>
<line x1="493.8" y1="74.7" x2="513.4" y2="114.6" opacity="0.2" stroke="rgb(0,0,0)"  stroke-width="0.7"/>
<line x1="499.2" y1="72.0" x2="518.8" y2="111.9" opacity="0.2" stroke="rgb(0,0,0)"  stroke-width="0.7" stroke-dasharray="5.0,5.0"/>
<line x1="513.5" y1="111.8" x2="492.7" y2="149.6" opacity="0.3" stroke="rgb(0,0,0)"  stroke-width="0.8"/>
<line x1="518.7" y1="114.7" x2="498.0" y2="152.5" opacity="0.3" stroke="rgb(0,0,0)"  stroke-width="0.8" stroke-dasharray="5.0,5.0"/>
<line x1="495.5" y1="148.0" x2="455.2" y2="145.9" opacity="0.4" stroke="rgb(0,0,0)"  stroke-width="1.2"/>
<line x1="495.2" y1="154.0" x2="454.9" y2="151.9" opacity="0.4" stroke="rgb(0,0,0)"  stroke-width="1.2" stroke-dasharray="5.0,5.0"/>
<line x1="457.7" y1="147.6" x2="438.6" y2="107.7" opacity="0.5" stroke="rgb(0,0,0)"  stroke-width="1.6"/>
<line x1="452.3" y1="150.2" x2="433.2" y2="110.3" opacity="0.5" stroke="rgb(0,0,0)"  stroke-width="1.6" stroke-dasharray="5.0,5.0"/>
<circle cx="113.241147" cy="139.110505" r="5.636364" opacity="0.200000" style="stroke:black;stroke-width:0.5;fill:url(#radialffffffbfbfbf)"/>
<circle cx="110.051421" cy="82.427553" r="5.636364" opacity="0.200000" style="stroke:black;stroke-width:0.5;fill:url(#radialffffffbfbfbf)"/>
<circle cx="547.495453" cy="114.908577" r="5.636364" opacity="0.227187" style="stroke:black;stroke-width:0.5;fill:url(#radialffffffbfbfbf)"/>
<circle cx="193.152015" cy="81.350335" r="5.636364" opacity="0.290811" style="stroke:black;stroke-width:0.5;fill:url(#radialffffffbfbfbf)"/>
<circle cx="195.067786" cy="138.226799" r="5.636364" opacity="0.317545" style="stroke:black;stroke-width:0.5;fill:url(#radialffffffbfbfbf)"/>
<circle cx="512.660029" cy="43.937974" r="5.636364" opacity="0.410634" style="stroke:black;stroke-width:0.5;fill:url(#radialffffffbfbfbf)"/>
<circle cx="274.475523" cy="79.763534" r="5.636364" opacity="0.423002" style="stroke:black;stroke-width:0.5;fill:url(#radialffffffbfbfbf)"/>
<circle cx="40.000000" cy="115.402034" r="5.636364" opacity="0.436463" style="stroke:black;stroke-width:0.5;fill:url(#radialffffffbfbfbf)"/>
<circle cx="516.091646" cy="113.254048" r="13.818182" opacity="0.445474" style="stroke:black;stroke-width:0.5;fill:url(#radialffffff666666)"/>
<circle cx="274.952853" cy="136.520666" r="5.636364" opacity="0.447776" style="stroke:black;stroke-width:0.5;fill:url(#radialffffffbfbfbf)"/>
<circle cx="109.554740" cy="111.438258" r="13.818182" opacity="0.454544" style="stroke:black;stroke-width:0.5;fill:url(#radialffffff666666)"/>
<circle cx="357.208444" cy="82.156635" r="5.636364" opacity="0.503029" style="stroke:black;stroke-width:0.5;fill:url(#radialffffffbfbfbf)"/>
<circle cx="496.508210" cy="73.348605" r="13.818182" opacity="0.514101" style="stroke:black;stroke-width:0.5;fill:url(#radialffffff666666)"/>
<circle cx="510.589448" cy="182.102468" r="5.636364" opacity="0.519209" style="stroke:black;stroke-width:0.5;fill:url(#radialffffffbfbfbf)"/>
<circle cx="191.523287" cy="109.248345" r="13.818182" opacity="0.539270" style="stroke:black;stroke-width:0.5;fill:url(#radialffffff666666)"/>
<circle cx="356.073172" cy="138.649301" r="5.636364" opacity="0.545606" style="stroke:black;stroke-width:0.5;fill:url(#radialffffffbfbfbf)"/>
<circle cx="495.347137" cy="151.030857" r="13.818182" opacity="0.566603" style="stroke:black;stroke-width:0.5;fill:url(#radialffffff666666)"/>
<circle cx="272.330762" cy="107.322899" r="13.818182" opacity="0.623754" style="stroke:black;stroke-width:0.5;fill:url(#radialffffff666666)"/>
<circle cx="65.943537" cy="114.634435" r="13.818182" opacity="0.646606" style="stroke:black;stroke-width:0.5;fill:url(#radialffffff666666)"/>
<circle cx="456.173814" cy="71.219970" r="13.818182" opacity="0.672862" style="stroke:black;stroke-width:0.5;fill:url(#radialffffff666666)"/>
<circle cx="354.379940" cy="108.616205" r="13.818182" opacity="0.689263" style="stroke:black;stroke-width:0.5;fill:url(#radialffffff666666)"/>
<circle cx="441.150816" cy="40.000000" r="5.659886" opacity="0.708581" style="stroke:black;stroke-width:0.5;fill:url(#radialffffffbfbfbf)"/>
<circle cx="147.615366" cy="110.128826" r="13.961503" opacity="0.710764" style="stroke:black;stroke-width:0.5;fill:url(#radialffffff666666)"/>
<circle cx="455.009516" cy="148.905448" r="14.080230" opacity="0.713780" style="stroke:black;stroke-width:0.5;fill:url(#radialffffff666666)"/>
<circle cx="435.903410" cy="109.025806" r="15.839941" opacity="0.757071" style="stroke:black;stroke-width:0.5;fill:url(#radialffffff666666)"/>
<circle cx="228.384139" cy="106.948775" r="16.659161" opacity="0.776401" style="stroke:black;stroke-width:0.5;fill:url(#radialffffff666666)"/>
<circle cx="63.853605" cy="144.019265" r="6.799335" opacity="0.776638" style="stroke:black;stroke-width:0.5;fill:url(#radialffffffbfbfbf)"/>
<circle cx="439.077010" cy="178.506366" r="6.800719" opacity="0.776717" style="stroke:black;stroke-width:0.5;fill:url(#radialffffffbfbfbf)"/>
<circle cx="60.576799" cy="86.913811" r="6.985784" opacity="0.787214" style="stroke:black;stroke-width:0.5;fill:url(#radialffffffbfbfbf)"/>
<circle cx="310.410740" cy="105.819954" r="19.020989" opacity="0.829614" style="stroke:black;stroke-width:0.5;fill:url(#radialffffff666666)"/>
<circle cx="144.464343" cy="81.624477" r="7.917337" opacity="0.838060" style="stroke:black;stroke-width:0.5;fill:url(#radialffffffbfbfbf)"/>
<circle cx="146.067269" cy="138.391284" r="7.973030" opacity="0.841002" style="stroke:black;stroke-width:0.5;fill:url(#radialffffffbfbfbf)"/>
<circle cx="392.288983" cy="106.735912" r="21.469319" opacity="0.881391" style="stroke:black;stroke-width:0.5;fill:url(#radialffffff666666)"/>
<circle cx="225.278268" cy="77.560720" r="8.878985" opacity="0.887498" style="stroke:black;stroke-width:0.5;fill:url(#radialffffffbfbfbf)"/>
<circle cx="226.281306" cy="134.417834" r="9.174398" opacity="0.902141" style="stroke:black;stroke-width:0.5;fill:url(#radialffffffbfbfbf)"/>
<circle cx="308.733635" cy="75.890065" r="9.773179" opacity="0.931115" style="stroke:black;stroke-width:0.5;fill:url(#radialffffffbfbfbf)"/>
<circle cx="307.511282" cy="132.527864" r="10.227713" opacity="0.952521" style="stroke:black;stroke-width:0.5;fill:url(#radialffffffbfbfbf)"/>
<circle cx="390.279681" cy="76.986634" r="10.807124" opacity="0.979130" style="stroke:black;stroke-width:0.5;fill:url(#radialffffffbfbfbf)"/>
<circle cx="389.431452" cy="133.114851" r="11.272727" opacity="1.000000" style="stroke:black;stroke-width:0.5;fill:url(#radialffffffbfbfbf)"/>
</svg>
</g>
</svg>
