<?xml version="1.0"?>
<svg version="1.1" id="topsvg"
xmlns="http://www.w3.org/2000/svg" xmlns:xlink="http://www.w3.org/1999/xlink"
xmlns:cml="http://www.xml-cml.org/schema" x="0" y="0" width="200px" height="200px" viewBox="0 0 100 100">
<title>14257 - Open Babel Depiction</title>
<rect x="0" y="0" width="100" height="100" fill="white"/>
<defs>
<radialGradient id='radialffffff666666' cx='50%' cy='50%' r='50%' fx='30%' fy='30%'>
  <stop offset=' 0%' stop-color="rgb(255,255,255)"  stop-opacity='1.0'/>
  <stop offset='100%' stop-color="rgb(102,102,102)"  stop-opacity ='1.0'/>
</radialGradient>
<radialGradient id='radialffffffbfbfbf' cx='50%' cy='50%' r='50%' fx='30%' fy='30%'>
  <stop offset=' 0%' stop-color="rgb(255,255,255)"  stop-opacity='1.0'/>
  <stop offset='100%' stop-color="rgb(191,191,191)"  stop-opacity ='1.0'/>
</radialGradient>
</defs>
<g transform="translate(0,0)">
<svg width="100" height="100" x="0" y="0" viewBox="0 0 552.862 155.215"
font-family="sans-serif" stroke="rgb(0,0,0)" stroke-width="2"  stroke-linecap="round">
<line x1="276.5" y1="89.9" x2="235.1" y2="61.6" opacity="1.0" stroke="rgb(0,0,0)"  stroke-width="1.5"/>
<line x1="276.5" y1="89.9" x2="318.8" y2="63.2" opacity="0.5" stroke="rgb(0,0,0)"  stroke-width="1.4"/>
<line x1="276.5" y1="89.9" x2="276.4" y2="110.8" opacity="0.5" stroke="rgb(0,0,0)"  stroke-width="2.1"/>
<line x1="276.5" y1="89.9" x2="275.9" y2="111.7" opacity="0.7" stroke="rgb(0,0,0)"  stroke-width="0.8"/>
<line x1="235.1" y1="61.6" x2="193.9" y2="90.0" opacity="0.3" stroke="rgb(0,0,0)"  stroke-width="1.5"/>
<line x1="235.1" y1="61.6" x2="235.2" y2="40.0" opacity="0.5" stroke="rgb(0,0,0)"  stroke-width="2.1"/>
<line x1="235.1" y1="61.6" x2="234.9" y2="40.7" opacity="0.7" stroke="rgb(0,0,0)"  stroke-width="0.8"/>
<line x1="318.8" y1="63.2" x2="360.1" y2="91.4" opacity="0.3" stroke="rgb(0,0,0)"  stroke-width="1.4"/>
<line x1="318.8" y1="63.2" x2="318.6" y2="41.8" opacity="0.5" stroke="rgb(0,0,0)"  stroke-width="0.7"/>
<line x1="318.8" y1="63.2" x2="319.6" y2="41.8" opacity="0.2" stroke="rgb(0,0,0)"  stroke-width="2.1"/>
<line x1="193.9" y1="90.0" x2="151.4" y2="63.5" opacity="0.7" stroke="rgb(0,0,0)"  stroke-width="1.5"/>
<line x1="193.9" y1="90.0" x2="194.4" y2="112.3" opacity="0.5" stroke="rgb(0,0,0)"  stroke-width="0.8"/>
<line x1="193.9" y1="90.0" x2="194.2" y2="110.5" opacity="0.3" stroke="rgb(0,0,0)"  stroke-width="2.2"/>
<line x1="360.1" y1="91.4" x2="401.4" y2="63.2" opacity="0.7" stroke="rgb(0,0,0)"  stroke-width="1.4"/>
<line x1="360.1" y1="91.4" x2="360.3" y2="111.7" opacity="0.5" stroke="rgb(0,0,0)"  stroke-width="0.7"/>
<line x1="360.1" y1="91.4" x2="359.8" y2="113.7" opacity="0.2" stroke="rgb(0,0,0)"  stroke-width="2.0"/>
<line x1="151.4" y1="63.5" x2="110.3" y2="91.7" opacity="0.7" stroke="rgb(0,0,0)"  stroke-width="1.5"/>
<line x1="151.4" y1="63.5" x2="151.6" y2="40.1" opacity="0.5" stroke="rgb(0,0,0)"  stroke-width="2.1"/>
<line x1="151.4" y1="63.5" x2="150.5" y2="44.2" opacity="0.7" stroke="rgb(0,0,0)"  stroke-width="0.7"/>
<line x1="401.4" y1="63.2" x2="442.7" y2="91.4" opacity="0.2" stroke="rgb(0,0,0)"  stroke-width="1.5"/>
<line x1="401.4" y1="63.2" x2="402.1" y2="41.3" opacity="0.5" stroke="rgb(0,0,0)"  stroke-width="0.8"/>
<line x1="401.4" y1="63.2" x2="400.7" y2="42.5" opacity="0.3" stroke="rgb(0,0,0)"  stroke-width="2.1"/>
<line x1="110.3" y1="91.7" x2="69.1" y2="63.9" opacity="0.7" stroke="rgb(0,0,0)"  stroke-width="1.5"/>
<line x1="110.3" y1="91.7" x2="109.7" y2="115.2" opacity="0.5" stroke="rgb(0,0,0)"  stroke-width="0.9"/>
<line x1="110.3" y1="91.7" x2="110.6" y2="110.6" opacity="0.3" stroke="rgb(0,0,0)"  stroke-width="2.3"/>
<line x1="442.7" y1="91.4" x2="483.7" y2="63.5" opacity="0.8" stroke="rgb(0,0,0)"  stroke-width="1.5"/>
<line x1="442.7" y1="91.4" x2="444.0" y2="111.6" opacity="0.5" stroke="rgb(0,0,0)"  stroke-width="0.8"/>
<line x1="442.7" y1="91.4" x2="441.9" y2="113.7" opacity="0.3" stroke="rgb(0,0,0)"  stroke-width="2.1"/>
<line x1="69.1" y1="63.9" x2="40.0" y2="84.6" opacity="0.7" stroke="rgb(0,0,0)"  stroke-width="1.5"/>
<line x1="69.1" y1="63.9" x2="68.2" y2="40.7" opacity="0.5" stroke="rgb(0,0,0)"  stroke-width="2.1"/>
<line x1="69.1" y1="63.9" x2="67.3" y2="45.4" opacity="0.7" stroke="rgb(0,0,0)"  stroke-width="0.8"/>
<line x1="483.7" y1="63.5" x2="486.1" y2="41.4" opacity="0.3" stroke="rgb(0,0,0)"  stroke-width="0.9"/>
<line x1="483.7" y1="63.5" x2="483.9" y2="43.7" opacity="0.3" stroke="rgb(0,0,0)"  stroke-width="2.3"/>
<line x1="483.7" y1="63.5" x2="512.9" y2="84.3" opacity="0.8" stroke="rgb(0,0,0)"  stroke-width="1.6"/>
<circle cx="360.312878" cy="111.658011" r="5.636364" opacity="0.200000" style="stroke:black;stroke-width:0.5;fill:url(#radialffffffbfbfbf)"/>
<circle cx="150.495109" cy="44.178634" r="5.636364" opacity="0.200000" style="stroke:black;stroke-width:0.5;fill:url(#radialffffffbfbfbf)"/>
<circle cx="67.272288" cy="45.385141" r="5.636364" opacity="0.200000" style="stroke:black;stroke-width:0.5;fill:url(#radialffffffbfbfbf)"/>
<circle cx="318.647518" cy="41.804856" r="5.636364" opacity="0.200000" style="stroke:black;stroke-width:0.5;fill:url(#radialffffffbfbfbf)"/>
<circle cx="443.996722" cy="111.553382" r="5.636364" opacity="0.200000" style="stroke:black;stroke-width:0.5;fill:url(#radialffffffbfbfbf)"/>
<circle cx="234.927707" cy="40.722596" r="5.636364" opacity="0.200000" style="stroke:black;stroke-width:0.5;fill:url(#radialffffffbfbfbf)"/>
<circle cx="402.082867" cy="41.298058" r="5.636364" opacity="0.206187" style="stroke:black;stroke-width:0.5;fill:url(#radialffffffbfbfbf)"/>
<circle cx="275.873741" cy="111.726674" r="5.636364" opacity="0.209745" style="stroke:black;stroke-width:0.5;fill:url(#radialffffffbfbfbf)"/>
<circle cx="194.387112" cy="112.289056" r="5.636364" opacity="0.236183" style="stroke:black;stroke-width:0.5;fill:url(#radialffffffbfbfbf)"/>
<circle cx="486.090409" cy="41.432114" r="5.636364" opacity="0.309095" style="stroke:black;stroke-width:0.5;fill:url(#radialffffffbfbfbf)"/>
<circle cx="109.712559" cy="115.215408" r="5.636364" opacity="0.319088" style="stroke:black;stroke-width:0.5;fill:url(#radialffffffbfbfbf)"/>
<circle cx="360.123237" cy="91.422045" r="13.818182" opacity="0.679690" style="stroke:black;stroke-width:0.5;fill:url(#radialffffff666666)"/>
<circle cx="318.820810" cy="63.181935" r="13.818182" opacity="0.688308" style="stroke:black;stroke-width:0.5;fill:url(#radialffffff666666)"/>
<circle cx="151.420425" cy="63.505632" r="13.818182" opacity="0.691562" style="stroke:black;stroke-width:0.5;fill:url(#radialffffff666666)"/>
<circle cx="401.406046" cy="63.185205" r="13.818182" opacity="0.696929" style="stroke:black;stroke-width:0.5;fill:url(#radialffffff666666)"/>
<circle cx="235.120618" cy="61.628844" r="13.818182" opacity="0.697551" style="stroke:black;stroke-width:0.5;fill:url(#radialffffff666666)"/>
<circle cx="276.459011" cy="89.868953" r="13.818182" opacity="0.698502" style="stroke:black;stroke-width:0.5;fill:url(#radialffffff666666)"/>
<circle cx="442.685586" cy="91.356652" r="13.818182" opacity="0.702618" style="stroke:black;stroke-width:0.5;fill:url(#radialffffff666666)"/>
<circle cx="193.886853" cy="90.019358" r="13.818182" opacity="0.703344" style="stroke:black;stroke-width:0.5;fill:url(#radialffffff666666)"/>
<circle cx="69.067335" cy="63.878374" r="13.818182" opacity="0.706204" style="stroke:black;stroke-width:0.5;fill:url(#radialffffff666666)"/>
<circle cx="110.255324" cy="91.716315" r="14.482504" opacity="0.723905" style="stroke:black;stroke-width:0.5;fill:url(#radialffffff666666)"/>
<circle cx="40.000000" cy="84.644026" r="5.999963" opacity="0.729558" style="stroke:black;stroke-width:0.5;fill:url(#radialffffffbfbfbf)"/>
<circle cx="483.742788" cy="63.456587" r="14.768825" opacity="0.731026" style="stroke:black;stroke-width:0.5;fill:url(#radialffffff666666)"/>
<circle cx="512.862438" cy="84.254936" r="6.073028" opacity="0.733987" style="stroke:black;stroke-width:0.5;fill:url(#radialffffffbfbfbf)"/>
<circle cx="359.799540" cy="113.727710" r="10.147986" opacity="0.948802" style="stroke:black;stroke-width:0.5;fill:url(#radialffffffbfbfbf)"/>
<circle cx="151.577369" cy="40.120978" r="10.178478" opacity="0.950226" style="stroke:black;stroke-width:0.5;fill:url(#radialffffffbfbfbf)"/>
<circle cx="319.605530" cy="41.765620" r="10.402275" opacity="0.960616" style="stroke:black;stroke-width:0.5;fill:url(#radialffffffbfbfbf)"/>
<circle cx="68.184525" cy="40.676821" r="10.414932" opacity="0.961200" style="stroke:black;stroke-width:0.5;fill:url(#radialffffffbfbfbf)"/>
<circle cx="441.881248" cy="113.655777" r="10.500654" opacity="0.965147" style="stroke:black;stroke-width:0.5;fill:url(#radialffffffbfbfbf)"/>
<circle cx="235.231786" cy="40.000000" r="10.515612" opacity="0.965835" style="stroke:black;stroke-width:0.5;fill:url(#radialffffffbfbfbf)"/>
<circle cx="276.439393" cy="110.798089" r="10.626073" opacity="0.970894" style="stroke:black;stroke-width:0.5;fill:url(#radialffffffbfbfbf)"/>
<circle cx="400.703068" cy="42.488216" r="10.627224" opacity="0.970947" style="stroke:black;stroke-width:0.5;fill:url(#radialffffffbfbfbf)"/>
<circle cx="194.151696" cy="110.526706" r="10.756094" opacity="0.976816" style="stroke:black;stroke-width:0.5;fill:url(#radialffffffbfbfbf)"/>
<circle cx="110.605178" cy="110.575751" r="11.268700" opacity="0.999821" style="stroke:black;stroke-width:0.5;fill:url(#radialffffffbfbfbf)"/>
<circle cx="483.942238" cy="43.671835" r="11.272727" opacity="1.000000" style="stroke:black;stroke-width:0.5;fill:url(#radialffffffbfbfbf)"/>
</svg>
</g>
</svg>
