<?xml version="1.0"?>
<svg version="1.1" id="topsvg"
xmlns="http://www.w3.org/2000/svg" xmlns:xlink="http://www.w3.org/1999/xlink"
xmlns:cml="http://www.xml-cml.org/schema" x="0" y="0" width="1024px" height="1024px" viewBox="0 0 100 100">
<title>14339 - Open Babel Depiction</title>
<rect x="0" y="0" width="100" height="100" fill="white"/>
<defs>
<radialGradient id='radialffffff666666' cx='50%' cy='50%' r='50%' fx='30%' fy='30%'>
  <stop offset=' 0%' stop-color="rgb(255,255,255)"  stop-opacity='1.0'/>
  <stop offset='100%' stop-color="rgb(102,102,102)"  stop-opacity ='1.0'/>
</radialGradient>
<radialGradient id='radialffffffbfbfbf' cx='50%' cy='50%' r='50%' fx='30%' fy='30%'>
  <stop offset=' 0%' stop-color="rgb(255,255,255)"  stop-opacity='1.0'/>
  <stop offset='100%' stop-color="rgb(191,191,191)"  stop-opacity ='1.0'/>
</radialGradient>
</defs>
<g transform="translate(0,0)">
<svg width="100" height="100" x="0" y="0" viewBox="0 0 450.022 253.065"
font-family="sans-serif" stroke="rgb(0,0,0)" stroke-width="2"  stroke-linecap="round">
<line x1="275.3" y1="122.6" x2="303.3" y2="133.7" opacity="1.0" stroke="rgb(0,0,0)"  stroke-width="1.8"/>
<line x1="275.3" y1="122.6" x2="229.7" y2="116.9" opacity="0.6" stroke="rgb(0,0,0)"  stroke-width="2.2"/>
<line x1="275.3" y1="122.6" x2="287.3" y2="93.5" opacity="0.7" stroke="rgb(0,0,0)"  stroke-width="2.6"/>
<line x1="275.3" y1="122.6" x2="278.1" y2="147.6" opacity="0.9" stroke="rgb(0,0,0)"  stroke-width="2.7"/>
<line x1="303.3" y1="133.7" x2="349.7" y2="140.7" opacity="0.9" stroke="rgb(0,0,0)"  stroke-width="1.5"/>
<line x1="303.3" y1="133.7" x2="301.4" y2="108.1" opacity="0.5" stroke="rgb(0,0,0)"  stroke-width="1.0"/>
<line x1="303.3" y1="133.7" x2="291.0" y2="162.6" opacity="0.3" stroke="rgb(0,0,0)"  stroke-width="1.1"/>
<line x1="349.7" y1="140.7" x2="377.0" y2="153.0" opacity="0.4" stroke="rgb(0,0,0)"  stroke-width="1.2"/>
<line x1="349.7" y1="140.7" x2="362.5" y2="111.7" opacity="0.4" stroke="rgb(0,0,0)"  stroke-width="1.9"/>
<line x1="349.7" y1="140.7" x2="351.7" y2="165.9" opacity="0.6" stroke="rgb(0,0,0)"  stroke-width="2.0"/>
<line x1="202.1" y1="151.7" x2="214.1" y2="182.9" opacity="0.7" stroke="rgb(0,0,0)"  stroke-width="2.2"/>
<line x1="214.7" y1="76.9" x2="236.0" y2="49.6" opacity="0.7" stroke="rgb(0,0,0)"  stroke-width="1.7"/>
<line x1="172.1" y1="71.5" x2="161.1" y2="40.0" opacity="0.6" stroke="rgb(0,0,0)"  stroke-width="1.3"/>
<line x1="377.0" y1="153.0" x2="376.4" y2="128.0" opacity="0.4" stroke="rgb(0,0,0)"  stroke-width="0.4"/>
<line x1="377.0" y1="153.0" x2="365.6" y2="182.6" opacity="0.1" stroke="rgb(0,0,0)"  stroke-width="0.5"/>
<line x1="377.0" y1="153.0" x2="410.0" y2="157.8" opacity="0.2" stroke="rgb(0,0,0)"  stroke-width="0.8"/>
<line x1="130.8" y1="181.5" x2="141.8" y2="213.1" opacity="0.3" stroke="rgb(0,0,0)"  stroke-width="1.9"/>
<line x1="100.8" y1="101.4" x2="88.4" y2="70.4" opacity="0.6" stroke="rgb(0,0,0)"  stroke-width="1.0"/>
<line x1="88.2" y1="176.1" x2="66.7" y2="203.2" opacity="0.3" stroke="rgb(0,0,0)"  stroke-width="1.5"/>
<line x1="73.2" y1="136.1" x2="40.0" y2="132.0" opacity="0.5" stroke="rgb(0,0,0)"  stroke-width="1.0"/>
<line x1="204.4" y1="153.5" x2="232.1" y2="118.8" opacity="0.7" stroke="rgb(0,0,0)"  stroke-width="2.0"/>
<line x1="199.7" y1="149.8" x2="227.4" y2="115.0" opacity="0.7" stroke="rgb(0,0,0)"  stroke-width="2.0" stroke-dasharray="5.0,5.0"/>
<line x1="232.5" y1="115.9" x2="217.5" y2="75.9" opacity="0.6" stroke="rgb(0,0,0)"  stroke-width="1.9"/>
<line x1="226.9" y1="118.0" x2="211.9" y2="78.0" opacity="0.6" stroke="rgb(0,0,0)"  stroke-width="1.9" stroke-dasharray="5.0,5.0"/>
<line x1="215.1" y1="73.9" x2="172.5" y2="68.6" opacity="0.5" stroke="rgb(0,0,0)"  stroke-width="1.6"/>
<line x1="214.4" y1="79.9" x2="171.7" y2="74.5" opacity="0.5" stroke="rgb(0,0,0)"  stroke-width="1.6" stroke-dasharray="5.0,5.0"/>
<line x1="169.8" y1="69.6" x2="141.5" y2="104.3" opacity="0.5" stroke="rgb(0,0,0)"  stroke-width="1.4"/>
<line x1="174.4" y1="73.4" x2="146.2" y2="108.1" opacity="0.5" stroke="rgb(0,0,0)"  stroke-width="1.4" stroke-dasharray="5.0,5.0"/>
<line x1="141.0" y1="107.2" x2="156.3" y2="147.9" opacity="0.5" stroke="rgb(0,0,0)"  stroke-width="1.6"/>
<line x1="146.6" y1="105.1" x2="161.9" y2="145.8" opacity="0.5" stroke="rgb(0,0,0)"  stroke-width="1.6" stroke-dasharray="5.0,5.0"/>
<line x1="158.7" y1="149.8" x2="201.8" y2="154.7" opacity="0.6" stroke="rgb(0,0,0)"  stroke-width="1.9"/>
<line x1="159.4" y1="143.9" x2="202.4" y2="148.7" opacity="0.6" stroke="rgb(0,0,0)"  stroke-width="1.9" stroke-dasharray="5.0,5.0"/>
<line x1="156.7" y1="145.0" x2="128.5" y2="179.6" opacity="0.6" stroke="rgb(0,0,0)"  stroke-width="1.8"/>
<line x1="161.4" y1="148.8" x2="133.1" y2="183.4" opacity="0.6" stroke="rgb(0,0,0)"  stroke-width="1.8" stroke-dasharray="5.0,5.0"/>
<line x1="131.2" y1="178.5" x2="88.6" y2="173.2" opacity="0.5" stroke="rgb(0,0,0)"  stroke-width="1.6"/>
<line x1="130.4" y1="184.5" x2="87.8" y2="179.1" opacity="0.5" stroke="rgb(0,0,0)"  stroke-width="1.6" stroke-dasharray="5.0,5.0"/>
<line x1="91.0" y1="175.1" x2="76.0" y2="135.1" opacity="0.4" stroke="rgb(0,0,0)"  stroke-width="1.3"/>
<line x1="85.4" y1="177.2" x2="70.4" y2="137.2" opacity="0.4" stroke="rgb(0,0,0)"  stroke-width="1.3" stroke-dasharray="5.0,5.0"/>
<line x1="75.6" y1="138.0" x2="103.2" y2="103.2" opacity="0.4" stroke="rgb(0,0,0)"  stroke-width="1.1"/>
<line x1="70.9" y1="134.3" x2="98.5" y2="99.5" opacity="0.4" stroke="rgb(0,0,0)"  stroke-width="1.1" stroke-dasharray="5.0,5.0"/>
<line x1="100.5" y1="104.4" x2="143.5" y2="109.2" opacity="0.4" stroke="rgb(0,0,0)"  stroke-width="1.3"/>
<line x1="101.2" y1="98.4" x2="144.2" y2="103.2" opacity="0.4" stroke="rgb(0,0,0)"  stroke-width="1.3" stroke-dasharray="5.0,5.0"/>
<line x1="141.0" y1="107.2" x2="156.3" y2="147.9" opacity="0.5" stroke="rgb(0,0,0)"  stroke-width="1.6"/>
<line x1="146.6" y1="105.1" x2="161.9" y2="145.8" opacity="0.5" stroke="rgb(0,0,0)"  stroke-width="1.6" stroke-dasharray="5.0,5.0"/>
<circle cx="376.443721" cy="128.025639" r="5.636364" opacity="0.200000" style="stroke:black;stroke-width:0.5;fill:url(#radialffffffbfbfbf)"/>
<circle cx="365.598091" cy="182.594405" r="5.636364" opacity="0.295552" style="stroke:black;stroke-width:0.5;fill:url(#radialffffffbfbfbf)"/>
<circle cx="376.956238" cy="153.005286" r="13.818182" opacity="0.465059" style="stroke:black;stroke-width:0.5;fill:url(#radialffffff666666)"/>
<circle cx="301.431564" cy="108.145699" r="5.636364" opacity="0.479551" style="stroke:black;stroke-width:0.5;fill:url(#radialffffffbfbfbf)"/>
<circle cx="88.418558" cy="70.404053" r="5.636364" opacity="0.543492" style="stroke:black;stroke-width:0.5;fill:url(#radialffffffbfbfbf)"/>
<circle cx="291.031601" cy="162.583947" r="5.636364" opacity="0.551181" style="stroke:black;stroke-width:0.5;fill:url(#radialffffffbfbfbf)"/>
<circle cx="410.021561" cy="157.802575" r="5.636364" opacity="0.551592" style="stroke:black;stroke-width:0.5;fill:url(#radialffffffbfbfbf)"/>
<circle cx="40.000000" cy="131.995260" r="5.636364" opacity="0.553951" style="stroke:black;stroke-width:0.5;fill:url(#radialffffffbfbfbf)"/>
<circle cx="100.817656" cy="101.371557" r="13.818182" opacity="0.615163" style="stroke:black;stroke-width:0.5;fill:url(#radialffffff666666)"/>
<circle cx="73.202207" cy="136.149515" r="13.818182" opacity="0.619936" style="stroke:black;stroke-width:0.5;fill:url(#radialffffff666666)"/>
<circle cx="161.078229" cy="40.000000" r="5.636364" opacity="0.626168" style="stroke:black;stroke-width:0.5;fill:url(#radialffffffbfbfbf)"/>
<circle cx="303.284266" cy="133.730179" r="13.818182" opacity="0.664211" style="stroke:black;stroke-width:0.5;fill:url(#radialffffff666666)"/>
<circle cx="172.086209" cy="71.543688" r="13.818182" opacity="0.688021" style="stroke:black;stroke-width:0.5;fill:url(#radialffffff666666)"/>
<circle cx="143.840458" cy="106.197496" r="13.818182" opacity="0.691165" style="stroke:black;stroke-width:0.5;fill:url(#radialffffff666666)"/>
<circle cx="88.176625" cy="176.144964" r="13.818182" opacity="0.699541" style="stroke:black;stroke-width:0.5;fill:url(#radialffffff666666)"/>
<circle cx="66.660449" cy="203.206513" r="5.636364" opacity="0.702795" style="stroke:black;stroke-width:0.5;fill:url(#radialffffffbfbfbf)"/>
<circle cx="349.703689" cy="140.733521" r="15.343614" opacity="0.745115" style="stroke:black;stroke-width:0.5;fill:url(#radialffffff666666)"/>
<circle cx="235.953502" cy="49.591395" r="6.387975" opacity="0.752778" style="stroke:black;stroke-width:0.5;fill:url(#radialffffffbfbfbf)"/>
<circle cx="214.733377" cy="76.913978" r="15.833162" opacity="0.756908" style="stroke:black;stroke-width:0.5;fill:url(#radialffffff666666)"/>
<circle cx="159.066360" cy="146.864628" r="16.153522" opacity="0.764528" style="stroke:black;stroke-width:0.5;fill:url(#radialffffff666666)"/>
<circle cx="130.820609" cy="181.512070" r="16.274930" opacity="0.767395" style="stroke:black;stroke-width:0.5;fill:url(#radialffffff666666)"/>
<circle cx="141.822222" cy="213.065308" r="7.553491" opacity="0.818577" style="stroke:black;stroke-width:0.5;fill:url(#radialffffffbfbfbf)"/>
<circle cx="229.704611" cy="116.906242" r="18.735203" opacity="0.823358" style="stroke:black;stroke-width:0.5;fill:url(#radialffffff666666)"/>
<circle cx="362.500704" cy="111.656919" r="7.707487" opacity="0.826879" style="stroke:black;stroke-width:0.5;fill:url(#radialffffffbfbfbf)"/>
<circle cx="202.092345" cy="151.684201" r="18.898125" opacity="0.826930" style="stroke:black;stroke-width:0.5;fill:url(#radialffffff666666)"/>
<circle cx="214.112626" cy="182.861805" r="8.632744" opacity="0.875105" style="stroke:black;stroke-width:0.5;fill:url(#radialffffffbfbfbf)"/>
<circle cx="351.683724" cy="165.948735" r="8.671722" opacity="0.877078" style="stroke:black;stroke-width:0.5;fill:url(#radialffffffbfbfbf)"/>
<circle cx="275.312283" cy="122.594866" r="21.673276" opacity="0.885568" style="stroke:black;stroke-width:0.5;fill:url(#radialffffff666666)"/>
<circle cx="287.265714" cy="93.508714" r="10.369836" opacity="0.959117" style="stroke:black;stroke-width:0.5;fill:url(#radialffffffbfbfbf)"/>
<circle cx="278.062686" cy="147.625446" r="11.272727" opacity="1.000000" style="stroke:black;stroke-width:0.5;fill:url(#radialffffffbfbfbf)"/>
</svg>
</g>
</svg>
