<?xml version="1.0"?>
<svg version="1.1" id="topsvg"
xmlns="http://www.w3.org/2000/svg" xmlns:xlink="http://www.w3.org/1999/xlink"
xmlns:cml="http://www.xml-cml.org/schema" x="0" y="0" width="200px" height="200px" viewBox="0 0 100 100">
<title>14475152 - Open Babel Depiction</title>
<rect x="0" y="0" width="100" height="100" fill="white"/>
<defs>
<radialGradient id='radialffffff666666' cx='50%' cy='50%' r='50%' fx='30%' fy='30%'>
  <stop offset=' 0%' stop-color="rgb(255,255,255)"  stop-opacity='1.0'/>
  <stop offset='100%' stop-color="rgb(102,102,102)"  stop-opacity ='1.0'/>
</radialGradient>
<radialGradient id='radialffffffb2b20' cx='50%' cy='50%' r='50%' fx='30%' fy='30%'>
  <stop offset=' 0%' stop-color="rgb(255,255,255)"  stop-opacity='1.0'/>
  <stop offset='100%' stop-color="rgb(178,178,0)"  stop-opacity ='1.0'/>
</radialGradient>
<radialGradient id='radialffffffbfbfbf' cx='50%' cy='50%' r='50%' fx='30%' fy='30%'>
  <stop offset=' 0%' stop-color="rgb(255,255,255)"  stop-opacity='1.0'/>
  <stop offset='100%' stop-color="rgb(191,191,191)"  stop-opacity ='1.0'/>
</radialGradient>
</defs>
<g transform="translate(0,0)">
<svg width="100" height="100" x="0" y="0" viewBox="0 0 625.658 202.565"
font-family="sans-serif" stroke="rgb(0,0,0)" stroke-width="4"  stroke-linecap="round">
<line x1="100.2" y1="49.6" x2="108.4" y2="102.6" opacity="1.0" stroke="rgb(0,0,0)"  stroke-width="1.6"/>
<line x1="100.2" y1="49.6" x2="64.2" y2="40.0" opacity="0.5" stroke="rgb(0,0,0)"  stroke-width="1.7"/>
<line x1="313.7" y1="117.2" x2="272.7" y2="93.2" opacity="0.6" stroke="rgb(0,0,0)"  stroke-width="1.6"/>
<line x1="313.7" y1="117.2" x2="353.7" y2="91.6" opacity="0.5" stroke="rgb(0,0,0)"  stroke-width="1.6"/>
<line x1="313.7" y1="117.2" x2="314.0" y2="123.3" opacity="0.5" stroke="rgb(0,0,0)"  stroke-width="2.4"/>
<line x1="313.7" y1="117.2" x2="314.4" y2="148.5" opacity="0.8" stroke="rgb(0,0,0)"  stroke-width="1.5"/>
<line x1="272.7" y1="93.2" x2="232.7" y2="119.1" opacity="0.5" stroke="rgb(0,0,0)"  stroke-width="1.6"/>
<line x1="272.7" y1="93.2" x2="271.8" y2="62.1" opacity="0.5" stroke="rgb(0,0,0)"  stroke-width="1.6"/>
<line x1="272.7" y1="93.2" x2="272.8" y2="86.6" opacity="0.5" stroke="rgb(0,0,0)"  stroke-width="0.7"/>
<line x1="353.7" y1="91.6" x2="395.7" y2="114.6" opacity="0.2" stroke="rgb(0,0,0)"  stroke-width="1.5"/>
<line x1="353.7" y1="91.6" x2="352.9" y2="84.8" opacity="0.5" stroke="rgb(0,0,0)"  stroke-width="0.7"/>
<line x1="353.7" y1="91.6" x2="353.1" y2="60.5" opacity="0.2" stroke="rgb(0,0,0)"  stroke-width="1.6"/>
<line x1="232.7" y1="119.1" x2="191.7" y2="95.6" opacity="0.5" stroke="rgb(0,0,0)"  stroke-width="1.5"/>
<line x1="232.7" y1="119.1" x2="234.0" y2="150.4" opacity="0.5" stroke="rgb(0,0,0)"  stroke-width="1.5"/>
<line x1="232.7" y1="119.1" x2="232.1" y2="125.2" opacity="0.5" stroke="rgb(0,0,0)"  stroke-width="2.4"/>
<line x1="395.7" y1="114.6" x2="435.7" y2="88.1" opacity="0.8" stroke="rgb(0,0,0)"  stroke-width="1.5"/>
<line x1="395.7" y1="114.6" x2="395.9" y2="122.9" opacity="0.5" stroke="rgb(0,0,0)"  stroke-width="2.3"/>
<line x1="395.7" y1="114.6" x2="397.0" y2="145.0" opacity="0.8" stroke="rgb(0,0,0)"  stroke-width="1.4"/>
<line x1="191.7" y1="95.6" x2="151.7" y2="122.3" opacity="0.5" stroke="rgb(0,0,0)"  stroke-width="1.5"/>
<line x1="191.7" y1="95.6" x2="192.4" y2="89.0" opacity="0.5" stroke="rgb(0,0,0)"  stroke-width="0.7"/>
<line x1="191.7" y1="95.6" x2="190.7" y2="64.6" opacity="0.2" stroke="rgb(0,0,0)"  stroke-width="1.6"/>
<line x1="435.7" y1="88.1" x2="476.7" y2="112.7" opacity="0.5" stroke="rgb(0,0,0)"  stroke-width="1.6"/>
<line x1="435.7" y1="88.1" x2="435.7" y2="79.6" opacity="0.5" stroke="rgb(0,0,0)"  stroke-width="0.8"/>
<line x1="435.7" y1="88.1" x2="434.8" y2="58.0" opacity="0.3" stroke="rgb(0,0,0)"  stroke-width="1.7"/>
<line x1="151.7" y1="122.3" x2="108.4" y2="102.6" opacity="0.6" stroke="rgb(0,0,0)"  stroke-width="1.4"/>
<line x1="151.7" y1="122.3" x2="154.7" y2="153.5" opacity="0.5" stroke="rgb(0,0,0)"  stroke-width="1.4"/>
<line x1="151.7" y1="122.3" x2="151.6" y2="129.1" opacity="0.5" stroke="rgb(0,0,0)"  stroke-width="2.3"/>
<line x1="476.7" y1="112.7" x2="516.7" y2="85.8" opacity="0.8" stroke="rgb(0,0,0)"  stroke-width="1.6"/>
<line x1="476.7" y1="112.7" x2="476.3" y2="122.0" opacity="0.5" stroke="rgb(0,0,0)"  stroke-width="2.3"/>
<line x1="476.7" y1="112.7" x2="477.9" y2="142.5" opacity="0.8" stroke="rgb(0,0,0)"  stroke-width="1.4"/>
<line x1="108.4" y1="102.6" x2="70.2" y2="131.3" opacity="0.5" stroke="rgb(0,0,0)"  stroke-width="1.4"/>
<line x1="107.6" y1="101.5" x2="109.2" y2="101.6" opacity="0.5" stroke="rgb(0,0,0)"  stroke-width="1.0"/>
<line x1="107.1" y1="100.6" x2="109.9" y2="100.9" opacity="0.5" stroke="rgb(0,0,0)"  stroke-width="1.0"/>
<line x1="106.5" y1="99.8" x2="110.6" y2="100.1" opacity="0.5" stroke="rgb(0,0,0)"  stroke-width="1.0"/>
<line x1="105.9" y1="98.9" x2="111.3" y2="99.3" opacity="0.5" stroke="rgb(0,0,0)"  stroke-width="1.0"/>
<line x1="105.3" y1="98.1" x2="112.0" y2="98.6" opacity="0.5" stroke="rgb(0,0,0)"  stroke-width="1.0"/>
<line x1="104.7" y1="97.2" x2="112.7" y2="97.8" opacity="0.5" stroke="rgb(0,0,0)"  stroke-width="1.0"/>
<line x1="516.7" y1="85.8" x2="557.5" y2="110.6" opacity="0.5" stroke="rgb(0,0,0)"  stroke-width="1.6"/>
<line x1="516.7" y1="85.8" x2="517.0" y2="76.0" opacity="0.5" stroke="rgb(0,0,0)"  stroke-width="0.8"/>
<line x1="516.7" y1="85.8" x2="516.0" y2="56.5" opacity="0.3" stroke="rgb(0,0,0)"  stroke-width="1.8"/>
<line x1="70.2" y1="131.3" x2="67.4" y2="137.0" opacity="0.6" stroke="rgb(0,0,0)"  stroke-width="2.2"/>
<line x1="70.2" y1="131.3" x2="73.8" y2="162.6" opacity="0.7" stroke="rgb(0,0,0)"  stroke-width="1.3"/>
<line x1="70.2" y1="131.3" x2="40.0" y2="117.4" opacity="0.4" stroke="rgb(0,0,0)"  stroke-width="1.4"/>
<line x1="557.5" y1="110.6" x2="558.7" y2="120.1" opacity="0.5" stroke="rgb(0,0,0)"  stroke-width="2.4"/>
<line x1="557.5" y1="110.6" x2="585.7" y2="90.8" opacity="0.8" stroke="rgb(0,0,0)"  stroke-width="1.6"/>
<line x1="557.5" y1="110.6" x2="559.6" y2="139.6" opacity="0.5" stroke="rgb(0,0,0)"  stroke-width="1.4"/>
<circle cx="108.731257" cy="97.518729" r="5.636364" opacity="0.200000" style="stroke:black;stroke-width:0.5;fill:url(#radialffffffbfbfbf)"/>
<circle cx="192.360166" cy="89.041981" r="5.636364" opacity="0.200000" style="stroke:black;stroke-width:0.5;fill:url(#radialffffffbfbfbf)"/>
<circle cx="352.860318" cy="84.798796" r="5.636364" opacity="0.213325" style="stroke:black;stroke-width:0.5;fill:url(#radialffffffbfbfbf)"/>
<circle cx="272.845975" cy="86.591646" r="5.636364" opacity="0.218361" style="stroke:black;stroke-width:0.5;fill:url(#radialffffffbfbfbf)"/>
<circle cx="435.697038" cy="79.619095" r="5.636364" opacity="0.232656" style="stroke:black;stroke-width:0.5;fill:url(#radialffffffbfbfbf)"/>
<circle cx="516.975036" cy="76.023774" r="5.636364" opacity="0.281903" style="stroke:black;stroke-width:0.5;fill:url(#radialffffffbfbfbf)"/>
<circle cx="73.807568" cy="162.564861" r="5.636364" opacity="0.588560" style="stroke:black;stroke-width:0.5;fill:url(#radialffffffbfbfbf)"/>
<circle cx="559.637807" cy="139.629853" r="5.636364" opacity="0.598507" style="stroke:black;stroke-width:0.5;fill:url(#radialffffffbfbfbf)"/>
<circle cx="477.888344" cy="142.458643" r="5.636364" opacity="0.600976" style="stroke:black;stroke-width:0.5;fill:url(#radialffffffbfbfbf)"/>
<circle cx="396.975971" cy="145.001988" r="5.636364" opacity="0.605420" style="stroke:black;stroke-width:0.5;fill:url(#radialffffffbfbfbf)"/>
<circle cx="154.665417" cy="153.523638" r="5.636364" opacity="0.607583" style="stroke:black;stroke-width:0.5;fill:url(#radialffffffbfbfbf)"/>
<circle cx="40.000000" cy="117.361952" r="5.636364" opacity="0.628776" style="stroke:black;stroke-width:0.5;fill:url(#radialffffffbfbfbf)"/>
<circle cx="233.970960" cy="150.428647" r="5.636364" opacity="0.631453" style="stroke:black;stroke-width:0.5;fill:url(#radialffffffbfbfbf)"/>
<circle cx="108.356009" cy="102.560518" r="13.818182" opacity="0.637803" style="stroke:black;stroke-width:0.5;fill:url(#radialffffff666666)"/>
<circle cx="314.354137" cy="148.485056" r="5.636364" opacity="0.638332" style="stroke:black;stroke-width:0.5;fill:url(#radialffffffbfbfbf)"/>
<circle cx="191.660986" cy="95.587967" r="13.818182" opacity="0.656541" style="stroke:black;stroke-width:0.5;fill:url(#radialffffff666666)"/>
<circle cx="64.173004" cy="40.000000" r="5.636364" opacity="0.660355" style="stroke:black;stroke-width:0.5;fill:url(#radialffffffbfbfbf)"/>
<circle cx="353.671751" cy="91.623813" r="13.818182" opacity="0.669963" style="stroke:black;stroke-width:0.5;fill:url(#radialffffff666666)"/>
<circle cx="272.685612" cy="93.188948" r="13.818182" opacity="0.671975" style="stroke:black;stroke-width:0.5;fill:url(#radialffffff666666)"/>
<circle cx="435.687416" cy="88.086222" r="13.818182" opacity="0.673117" style="stroke:black;stroke-width:0.5;fill:url(#radialffffff666666)"/>
<circle cx="516.654312" cy="85.847565" r="13.818182" opacity="0.688479" style="stroke:black;stroke-width:0.5;fill:url(#radialffffff666666)"/>
<circle cx="585.658184" cy="90.793136" r="5.745174" opacity="0.713900" style="stroke:black;stroke-width:0.5;fill:url(#radialffffffbfbfbf)"/>
<circle cx="70.164138" cy="131.300639" r="14.617427" opacity="0.727269" style="stroke:black;stroke-width:0.5;fill:url(#radialffffff666666)"/>
<circle cx="151.746824" cy="122.278659" r="15.369535" opacity="0.745744" style="stroke:black;stroke-width:0.5;fill:url(#radialffffff666666)"/>
<circle cx="395.725146" cy="114.635794" r="15.856437" opacity="0.757465" style="stroke:black;stroke-width:0.5;fill:url(#radialffffff666666)"/>
<circle cx="476.698456" cy="112.743520" r="16.051198" opacity="0.762102" style="stroke:black;stroke-width:0.5;fill:url(#radialffffff666666)"/>
<circle cx="232.678440" cy="119.145181" r="16.200377" opacity="0.765636" style="stroke:black;stroke-width:0.5;fill:url(#radialffffff666666)"/>
<circle cx="557.492160" cy="110.633153" r="16.257355" opacity="0.766981" style="stroke:black;stroke-width:0.5;fill:url(#radialffffff666666)"/>
<circle cx="313.696652" cy="117.198383" r="16.447972" opacity="0.771464" style="stroke:black;stroke-width:0.5;fill:url(#radialffffff666666)"/>
<circle cx="190.714849" cy="64.602775" r="7.035260" opacity="0.789997" style="stroke:black;stroke-width:0.5;fill:url(#radialffffffbfbfbf)"/>
<circle cx="353.068789" cy="60.548818" r="7.233442" opacity="0.801047" style="stroke:black;stroke-width:0.5;fill:url(#radialffffffbfbfbf)"/>
<circle cx="271.781169" cy="62.129989" r="7.262599" opacity="0.802660" style="stroke:black;stroke-width:0.5;fill:url(#radialffffffbfbfbf)"/>
<circle cx="434.750901" cy="57.986229" r="7.501770" opacity="0.815769" style="stroke:black;stroke-width:0.5;fill:url(#radialffffffbfbfbf)"/>
<circle cx="100.248094" cy="49.624942" r="26.182104" opacity="0.828083" style="stroke:black;stroke-width:0.5;fill:url(#radialffffffb2b20)"/>
<circle cx="515.993619" cy="56.517311" r="7.895600" opacity="0.836909" style="stroke:black;stroke-width:0.5;fill:url(#radialffffffbfbfbf)"/>
<circle cx="67.367420" cy="137.009534" r="10.515916" opacity="0.965849" style="stroke:black;stroke-width:0.5;fill:url(#radialffffffbfbfbf)"/>
<circle cx="151.551182" cy="129.129334" r="10.822275" opacity="0.979817" style="stroke:black;stroke-width:0.5;fill:url(#radialffffffbfbfbf)"/>
<circle cx="395.898337" cy="122.859170" r="10.975665" opacity="0.986736" style="stroke:black;stroke-width:0.5;fill:url(#radialffffffbfbfbf)"/>
<circle cx="476.278307" cy="121.961142" r="11.019612" opacity="0.988709" style="stroke:black;stroke-width:0.5;fill:url(#radialffffffbfbfbf)"/>
<circle cx="558.662805" cy="120.123390" r="11.082151" opacity="0.991511" style="stroke:black;stroke-width:0.5;fill:url(#radialffffffbfbfbf)"/>
<circle cx="232.133209" cy="125.242153" r="11.172157" opacity="0.995529" style="stroke:black;stroke-width:0.5;fill:url(#radialffffffbfbfbf)"/>
<circle cx="313.966060" cy="123.285734" r="11.272727" opacity="1.000000" style="stroke:black;stroke-width:0.5;fill:url(#radialffffffbfbfbf)"/>
</svg>
</g>
</svg>
