<?xml version="1.0"?>
<svg version="1.1" id="topsvg"
xmlns="http://www.w3.org/2000/svg" xmlns:xlink="http://www.w3.org/1999/xlink"
xmlns:cml="http://www.xml-cml.org/schema" x="0" y="0" width="200px" height="200px" viewBox="0 0 100 100">
<title>14498 - Open Babel Depiction</title>
<rect x="0" y="0" width="100" height="100" fill="white"/>
<defs>
<radialGradient id='radialffffff666666' cx='50%' cy='50%' r='50%' fx='30%' fy='30%'>
  <stop offset=' 0%' stop-color="rgb(255,255,255)"  stop-opacity='1.0'/>
  <stop offset='100%' stop-color="rgb(102,102,102)"  stop-opacity ='1.0'/>
</radialGradient>
<radialGradient id='radialffffffbfbfbf' cx='50%' cy='50%' r='50%' fx='30%' fy='30%'>
  <stop offset=' 0%' stop-color="rgb(255,255,255)"  stop-opacity='1.0'/>
  <stop offset='100%' stop-color="rgb(191,191,191)"  stop-opacity ='1.0'/>
</radialGradient>
</defs>
<g transform="translate(0,0)">
<svg width="100" height="100" x="0" y="0" viewBox="0 0 239.856 243.207"
font-family="sans-serif" stroke="rgb(0,0,0)" stroke-width="2"  stroke-linecap="round">
<line x1="134.8" y1="140.6" x2="181.9" y2="138.6" opacity="1.0" stroke="rgb(0,0,0)"  stroke-width="1.2"/>
<line x1="135.3" y1="143.4" x2="133.7" y2="143.2" opacity="0.4" stroke="rgb(0,0,0)"  stroke-width="1.0"/>
<line x1="135.7" y1="145.7" x2="132.9" y2="145.4" opacity="0.4" stroke="rgb(0,0,0)"  stroke-width="1.0"/>
<line x1="136.1" y1="147.9" x2="132.0" y2="147.5" opacity="0.4" stroke="rgb(0,0,0)"  stroke-width="1.0"/>
<line x1="136.6" y1="150.2" x2="131.1" y2="149.6" opacity="0.4" stroke="rgb(0,0,0)"  stroke-width="1.0"/>
<line x1="137.0" y1="152.4" x2="130.3" y2="151.7" opacity="0.4" stroke="rgb(0,0,0)"  stroke-width="1.0"/>
<line x1="137.4" y1="154.6" x2="129.4" y2="153.8" opacity="0.4" stroke="rgb(0,0,0)"  stroke-width="1.0"/>
<line x1="110.7" y1="97.3" x2="118.6" y2="68.5" opacity="0.4" stroke="rgb(0,0,0)"  stroke-width="1.6"/>
<line x1="111.6" y1="93.3" x2="113.1" y2="93.9" opacity="0.5" stroke="rgb(0,0,0)"  stroke-width="1.0"/>
<line x1="112.4" y1="90.1" x2="115.0" y2="91.3" opacity="0.5" stroke="rgb(0,0,0)"  stroke-width="1.0"/>
<line x1="113.1" y1="86.9" x2="116.9" y2="88.6" opacity="0.5" stroke="rgb(0,0,0)"  stroke-width="1.0"/>
<line x1="113.9" y1="83.7" x2="118.8" y2="85.9" opacity="0.5" stroke="rgb(0,0,0)"  stroke-width="1.0"/>
<line x1="114.6" y1="80.5" x2="120.7" y2="83.2" opacity="0.5" stroke="rgb(0,0,0)"  stroke-width="1.0"/>
<line x1="115.4" y1="77.2" x2="122.7" y2="80.6" opacity="0.5" stroke="rgb(0,0,0)"  stroke-width="1.0"/>
<line x1="107.5" y1="169.2" x2="118.0" y2="166.6" opacity="0.5" stroke="rgb(0,0,0)"  stroke-width="2.4"/>
<line x1="107.5" y1="169.2" x2="109.9" y2="203.2" opacity="0.8" stroke="rgb(0,0,0)"  stroke-width="1.7"/>
<line x1="63.6" y1="112.1" x2="55.6" y2="120.8" opacity="0.6" stroke="rgb(0,0,0)"  stroke-width="0.5"/>
<line x1="63.6" y1="112.1" x2="40.6" y2="87.4" opacity="0.2" stroke="rgb(0,0,0)"  stroke-width="1.1"/>
<line x1="61.3" y1="152.5" x2="40.0" y2="176.7" opacity="0.4" stroke="rgb(0,0,0)"  stroke-width="1.5"/>
<line x1="61.3" y1="152.5" x2="48.2" y2="144.7" opacity="0.5" stroke="rgb(0,0,0)"  stroke-width="2.2"/>
<line x1="181.9" y1="138.6" x2="199.9" y2="116.4" opacity="0.7" stroke="rgb(0,0,0)"  stroke-width="1.1"/>
<line x1="181.9" y1="138.6" x2="185.7" y2="127.9" opacity="0.4" stroke="rgb(0,0,0)"  stroke-width="1.9"/>
<line x1="181.9" y1="138.6" x2="196.8" y2="170.5" opacity="0.6" stroke="rgb(0,0,0)"  stroke-width="1.4"/>
<line x1="118.6" y1="68.5" x2="152.1" y2="57.2" opacity="0.5" stroke="rgb(0,0,0)"  stroke-width="2.1"/>
<line x1="118.6" y1="68.5" x2="97.8" y2="40.0" opacity="0.7" stroke="rgb(0,0,0)"  stroke-width="2.1"/>
<line x1="118.6" y1="68.5" x2="112.1" y2="85.3" opacity="0.7" stroke="rgb(0,0,0)"  stroke-width="2.6"/>
<line x1="110.7" y1="97.3" x2="134.8" y2="140.6" opacity="0.9" stroke="rgb(0,0,0)"  stroke-width="1.0"/>
<line x1="134.8" y1="140.6" x2="107.5" y2="169.2" opacity="0.3" stroke="rgb(0,0,0)"  stroke-width="1.5"/>
<line x1="107.5" y1="169.2" x2="61.3" y2="152.5" opacity="0.5" stroke="rgb(0,0,0)"  stroke-width="1.8"/>
<line x1="61.3" y1="152.5" x2="63.6" y2="112.1" opacity="0.6" stroke="rgb(0,0,0)"  stroke-width="1.4"/>
<line x1="63.6" y1="112.1" x2="110.7" y2="97.3" opacity="0.5" stroke="rgb(0,0,0)"  stroke-width="1.0"/>
<circle cx="55.581176" cy="120.789252" r="5.636364" opacity="0.200000" style="stroke:black;stroke-width:0.5;fill:url(#radialffffffbfbfbf)"/>
<circle cx="133.409650" cy="154.244756" r="5.636364" opacity="0.200000" style="stroke:black;stroke-width:0.5;fill:url(#radialffffffbfbfbf)"/>
<circle cx="119.028267" cy="78.902949" r="5.636364" opacity="0.250501" style="stroke:black;stroke-width:0.5;fill:url(#radialffffffbfbfbf)"/>
<circle cx="199.856222" cy="116.396464" r="5.636364" opacity="0.523493" style="stroke:black;stroke-width:0.5;fill:url(#radialffffffbfbfbf)"/>
<circle cx="63.618496" cy="112.139136" r="13.818182" opacity="0.562975" style="stroke:black;stroke-width:0.5;fill:url(#radialffffff666666)"/>
<circle cx="110.655521" cy="97.296541" r="13.818182" opacity="0.581738" style="stroke:black;stroke-width:0.5;fill:url(#radialffffff666666)"/>
<circle cx="134.790056" cy="140.595504" r="13.818182" opacity="0.586590" style="stroke:black;stroke-width:0.5;fill:url(#radialffffff666666)"/>
<circle cx="40.632149" cy="87.407929" r="5.636364" opacity="0.644078" style="stroke:black;stroke-width:0.5;fill:url(#radialffffffbfbfbf)"/>
<circle cx="196.821263" cy="170.500009" r="5.636364" opacity="0.667669" style="stroke:black;stroke-width:0.5;fill:url(#radialffffffbfbfbf)"/>
<circle cx="40.000000" cy="176.724739" r="5.636364" opacity="0.668793" style="stroke:black;stroke-width:0.5;fill:url(#radialffffffbfbfbf)"/>
<circle cx="181.914164" cy="138.592625" r="13.818182" opacity="0.686673" style="stroke:black;stroke-width:0.5;fill:url(#radialffffff666666)"/>
<circle cx="109.910489" cy="203.207255" r="6.070355" opacity="0.733825" style="stroke:black;stroke-width:0.5;fill:url(#radialffffffbfbfbf)"/>
<circle cx="61.273740" cy="152.506347" r="16.148944" opacity="0.764419" style="stroke:black;stroke-width:0.5;fill:url(#radialffffff666666)"/>
<circle cx="107.501228" cy="169.177657" r="17.282783" opacity="0.790800" style="stroke:black;stroke-width:0.5;fill:url(#radialffffff666666)"/>
<circle cx="97.844834" cy="40.000000" r="7.887490" opacity="0.836479" style="stroke:black;stroke-width:0.5;fill:url(#radialffffffbfbfbf)"/>
<circle cx="118.628336" cy="68.543450" r="19.658001" opacity="0.843392" style="stroke:black;stroke-width:0.5;fill:url(#radialffffff666666)"/>
<circle cx="152.051587" cy="57.190575" r="8.093346" opacity="0.847324" style="stroke:black;stroke-width:0.5;fill:url(#radialffffffbfbfbf)"/>
<circle cx="185.739309" cy="127.936403" r="8.896740" opacity="0.888384" style="stroke:black;stroke-width:0.5;fill:url(#radialffffffbfbfbf)"/>
<circle cx="48.240510" cy="144.710921" r="10.005120" opacity="0.942099" style="stroke:black;stroke-width:0.5;fill:url(#radialffffffbfbfbf)"/>
<circle cx="117.963934" cy="166.603909" r="10.656539" opacity="0.972285" style="stroke:black;stroke-width:0.5;fill:url(#radialffffffbfbfbf)"/>
<circle cx="112.110108" cy="85.288941" r="11.272727" opacity="1.000000" style="stroke:black;stroke-width:0.5;fill:url(#radialffffffbfbfbf)"/>
</svg>
</g>
</svg>
