<?xml version="1.0"?>
<svg version="1.1" id="topsvg"
xmlns="http://www.w3.org/2000/svg" xmlns:xlink="http://www.w3.org/1999/xlink"
xmlns:cml="http://www.xml-cml.org/schema" x="0" y="0" width="200px" height="200px" viewBox="0 0 100 100">
<title>15076 - Open Babel Depiction</title>
<rect x="0" y="0" width="100" height="100" fill="white"/>
<defs>
<radialGradient id='radialffffff666666' cx='50%' cy='50%' r='50%' fx='30%' fy='30%'>
  <stop offset=' 0%' stop-color="rgb(255,255,255)"  stop-opacity='1.0'/>
  <stop offset='100%' stop-color="rgb(102,102,102)"  stop-opacity ='1.0'/>
</radialGradient>
<radialGradient id='radialffffffbfbfbf' cx='50%' cy='50%' r='50%' fx='30%' fy='30%'>
  <stop offset=' 0%' stop-color="rgb(255,255,255)"  stop-opacity='1.0'/>
  <stop offset='100%' stop-color="rgb(191,191,191)"  stop-opacity ='1.0'/>
</radialGradient>
<radialGradient id='radialffffffffcc' cx='50%' cy='50%' r='50%' fx='30%' fy='30%'>
  <stop offset=' 0%' stop-color="rgb(255,255,255)"  stop-opacity='1.0'/>
  <stop offset='100%' stop-color="rgb(255,12,12)"  stop-opacity ='1.0'/>
</radialGradient>
</defs>
<g transform="translate(0,0)">
<svg width="100" height="100" x="0" y="0" viewBox="0 0 835.482 157.155"
font-family="sans-serif" stroke="rgb(0,0,0)" stroke-width="4"  stroke-linecap="round">
<line x1="770.0" y1="65.9" x2="733.0" y2="93.5" opacity="1.0" stroke="rgb(0,0,0)"  stroke-width="1.4"/>
<line x1="770.0" y1="65.9" x2="795.5" y2="84.5" opacity="0.5" stroke="rgb(0,0,0)"  stroke-width="1.4"/>
<line x1="401.2" y1="92.7" x2="443.3" y2="66.3" opacity="0.5" stroke="rgb(0,0,0)"  stroke-width="1.4"/>
<line x1="401.2" y1="92.7" x2="360.3" y2="64.5" opacity="0.5" stroke="rgb(0,0,0)"  stroke-width="1.5"/>
<line x1="401.2" y1="92.7" x2="401.4" y2="114.2" opacity="0.5" stroke="rgb(0,0,0)"  stroke-width="2.1"/>
<line x1="401.2" y1="92.7" x2="400.0" y2="113.8" opacity="0.7" stroke="rgb(0,0,0)"  stroke-width="0.8"/>
<line x1="443.3" y1="66.3" x2="484.3" y2="94.5" opacity="0.3" stroke="rgb(0,0,0)"  stroke-width="1.4"/>
<line x1="443.3" y1="66.3" x2="443.7" y2="44.1" opacity="0.5" stroke="rgb(0,0,0)"  stroke-width="2.1"/>
<line x1="443.3" y1="66.3" x2="443.7" y2="46.0" opacity="0.7" stroke="rgb(0,0,0)"  stroke-width="0.7"/>
<line x1="360.3" y1="64.5" x2="318.1" y2="91.0" opacity="0.2" stroke="rgb(0,0,0)"  stroke-width="1.5"/>
<line x1="360.3" y1="64.5" x2="361.2" y2="43.7" opacity="0.5" stroke="rgb(0,0,0)"  stroke-width="2.2"/>
<line x1="360.3" y1="64.5" x2="360.0" y2="42.9" opacity="0.7" stroke="rgb(0,0,0)"  stroke-width="0.8"/>
<line x1="484.3" y1="94.5" x2="525.4" y2="66.4" opacity="0.3" stroke="rgb(0,0,0)"  stroke-width="1.5"/>
<line x1="484.3" y1="94.5" x2="483.9" y2="114.9" opacity="0.5" stroke="rgb(0,0,0)"  stroke-width="2.1"/>
<line x1="484.3" y1="94.5" x2="484.4" y2="116.2" opacity="0.7" stroke="rgb(0,0,0)"  stroke-width="0.8"/>
<line x1="318.1" y1="91.0" x2="276.0" y2="64.5" opacity="0.3" stroke="rgb(0,0,0)"  stroke-width="1.6"/>
<line x1="318.1" y1="91.0" x2="318.4" y2="112.6" opacity="0.5" stroke="rgb(0,0,0)"  stroke-width="2.2"/>
<line x1="318.1" y1="91.0" x2="317.7" y2="112.2" opacity="0.7" stroke="rgb(0,0,0)"  stroke-width="0.9"/>
<line x1="525.4" y1="66.4" x2="566.3" y2="94.6" opacity="0.3" stroke="rgb(0,0,0)"  stroke-width="1.4"/>
<line x1="525.4" y1="66.4" x2="525.5" y2="45.2" opacity="0.5" stroke="rgb(0,0,0)"  stroke-width="2.1"/>
<line x1="525.4" y1="66.4" x2="525.5" y2="45.3" opacity="0.7" stroke="rgb(0,0,0)"  stroke-width="0.8"/>
<line x1="276.0" y1="64.5" x2="233.8" y2="90.8" opacity="0.3" stroke="rgb(0,0,0)"  stroke-width="1.5"/>
<line x1="276.0" y1="64.5" x2="276.5" y2="42.0" opacity="0.5" stroke="rgb(0,0,0)"  stroke-width="0.9"/>
<line x1="276.0" y1="64.5" x2="275.7" y2="44.2" opacity="0.3" stroke="rgb(0,0,0)"  stroke-width="2.3"/>
<line x1="566.3" y1="94.6" x2="608.5" y2="68.3" opacity="0.8" stroke="rgb(0,0,0)"  stroke-width="1.5"/>
<line x1="566.3" y1="94.6" x2="565.2" y2="117.2" opacity="0.5" stroke="rgb(0,0,0)"  stroke-width="2.1"/>
<line x1="566.3" y1="94.6" x2="566.9" y2="114.5" opacity="0.7" stroke="rgb(0,0,0)"  stroke-width="0.8"/>
<line x1="233.8" y1="90.8" x2="192.9" y2="62.6" opacity="0.3" stroke="rgb(0,0,0)"  stroke-width="1.4"/>
<line x1="233.8" y1="90.8" x2="234.6" y2="112.1" opacity="0.5" stroke="rgb(0,0,0)"  stroke-width="0.8"/>
<line x1="233.8" y1="90.8" x2="232.4" y2="112.0" opacity="0.3" stroke="rgb(0,0,0)"  stroke-width="2.2"/>
<line x1="608.5" y1="68.3" x2="650.7" y2="94.6" opacity="0.7" stroke="rgb(0,0,0)"  stroke-width="1.5"/>
<line x1="608.5" y1="68.3" x2="608.2" y2="49.2" opacity="0.5" stroke="rgb(0,0,0)"  stroke-width="2.3"/>
<line x1="608.5" y1="68.3" x2="608.7" y2="44.7" opacity="0.8" stroke="rgb(0,0,0)"  stroke-width="0.9"/>
<line x1="192.9" y1="62.6" x2="151.8" y2="90.5" opacity="0.3" stroke="rgb(0,0,0)"  stroke-width="1.4"/>
<line x1="192.9" y1="62.6" x2="192.8" y2="40.0" opacity="0.5" stroke="rgb(0,0,0)"  stroke-width="2.1"/>
<line x1="192.9" y1="62.6" x2="193.2" y2="42.9" opacity="0.7" stroke="rgb(0,0,0)"  stroke-width="0.7"/>
<line x1="650.7" y1="94.6" x2="691.6" y2="66.3" opacity="0.2" stroke="rgb(0,0,0)"  stroke-width="1.5"/>
<line x1="650.7" y1="94.6" x2="651.7" y2="116.8" opacity="0.5" stroke="rgb(0,0,0)"  stroke-width="2.1"/>
<line x1="650.7" y1="94.6" x2="650.4" y2="114.9" opacity="0.7" stroke="rgb(0,0,0)"  stroke-width="0.8"/>
<line x1="151.8" y1="90.5" x2="109.9" y2="63.8" opacity="0.3" stroke="rgb(0,0,0)"  stroke-width="1.4"/>
<line x1="151.8" y1="90.5" x2="152.1" y2="110.6" opacity="0.5" stroke="rgb(0,0,0)"  stroke-width="2.2"/>
<line x1="151.8" y1="90.5" x2="151.9" y2="112.8" opacity="0.7" stroke="rgb(0,0,0)"  stroke-width="0.8"/>
<line x1="691.6" y1="66.3" x2="733.0" y2="93.5" opacity="0.3" stroke="rgb(0,0,0)"  stroke-width="1.5"/>
<line x1="691.6" y1="66.3" x2="691.3" y2="44.5" opacity="0.5" stroke="rgb(0,0,0)"  stroke-width="0.8"/>
<line x1="691.6" y1="66.3" x2="692.0" y2="45.2" opacity="0.3" stroke="rgb(0,0,0)"  stroke-width="2.2"/>
<line x1="109.9" y1="63.8" x2="68.9" y2="91.4" opacity="0.7" stroke="rgb(0,0,0)"  stroke-width="1.4"/>
<line x1="109.9" y1="63.8" x2="109.3" y2="41.9" opacity="0.5" stroke="rgb(0,0,0)"  stroke-width="2.1"/>
<line x1="109.9" y1="63.8" x2="109.5" y2="43.3" opacity="0.7" stroke="rgb(0,0,0)"  stroke-width="0.7"/>
<line x1="733.0" y1="93.5" x2="734.0" y2="114.0" opacity="0.2" stroke="rgb(0,0,0)"  stroke-width="0.8"/>
<line x1="733.0" y1="93.5" x2="735.0" y2="114.3" opacity="0.3" stroke="rgb(0,0,0)"  stroke-width="2.1"/>
<line x1="68.9" y1="91.4" x2="67.8" y2="112.8" opacity="0.7" stroke="rgb(0,0,0)"  stroke-width="0.8"/>
<line x1="68.9" y1="91.4" x2="67.5" y2="111.6" opacity="0.3" stroke="rgb(0,0,0)"  stroke-width="2.1"/>
<line x1="68.9" y1="91.4" x2="40.0" y2="70.7" opacity="0.7" stroke="rgb(0,0,0)"  stroke-width="1.4"/>
<circle cx="193.244384" cy="42.907524" r="5.636364" opacity="0.200000" style="stroke:black;stroke-width:0.5;fill:url(#radialffffffbfbfbf)"/>
<circle cx="443.665042" cy="45.983977" r="5.636364" opacity="0.200000" style="stroke:black;stroke-width:0.5;fill:url(#radialffffffbfbfbf)"/>
<circle cx="109.523935" cy="43.264873" r="5.636364" opacity="0.200000" style="stroke:black;stroke-width:0.5;fill:url(#radialffffffbfbfbf)"/>
<circle cx="566.895331" cy="114.468350" r="5.636364" opacity="0.200000" style="stroke:black;stroke-width:0.5;fill:url(#radialffffffbfbfbf)"/>
<circle cx="733.952890" cy="114.046028" r="5.636364" opacity="0.200000" style="stroke:black;stroke-width:0.5;fill:url(#radialffffffbfbfbf)"/>
<circle cx="525.491539" cy="45.347245" r="5.636364" opacity="0.200000" style="stroke:black;stroke-width:0.5;fill:url(#radialffffffbfbfbf)"/>
<circle cx="400.016447" cy="113.834867" r="5.636364" opacity="0.200000" style="stroke:black;stroke-width:0.5;fill:url(#radialffffffbfbfbf)"/>
<circle cx="650.391624" cy="114.900418" r="5.636364" opacity="0.200000" style="stroke:black;stroke-width:0.5;fill:url(#radialffffffbfbfbf)"/>
<circle cx="67.753048" cy="112.844035" r="5.636364" opacity="0.200000" style="stroke:black;stroke-width:0.5;fill:url(#radialffffffbfbfbf)"/>
<circle cx="484.412611" cy="116.242102" r="5.636364" opacity="0.207439" style="stroke:black;stroke-width:0.5;fill:url(#radialffffffbfbfbf)"/>
<circle cx="234.563711" cy="112.145579" r="5.636364" opacity="0.217199" style="stroke:black;stroke-width:0.5;fill:url(#radialffffffbfbfbf)"/>
<circle cx="691.269138" cy="44.499353" r="5.636364" opacity="0.221515" style="stroke:black;stroke-width:0.5;fill:url(#radialffffffbfbfbf)"/>
<circle cx="151.938051" cy="112.831040" r="5.636364" opacity="0.225747" style="stroke:black;stroke-width:0.5;fill:url(#radialffffffbfbfbf)"/>
<circle cx="360.038804" cy="42.858795" r="5.636364" opacity="0.244882" style="stroke:black;stroke-width:0.5;fill:url(#radialffffffbfbfbf)"/>
<circle cx="317.676666" cy="112.161823" r="5.636364" opacity="0.248820" style="stroke:black;stroke-width:0.5;fill:url(#radialffffffbfbfbf)"/>
<circle cx="276.471040" cy="42.017399" r="5.636364" opacity="0.297434" style="stroke:black;stroke-width:0.5;fill:url(#radialffffffbfbfbf)"/>
<circle cx="608.718196" cy="44.687773" r="5.636364" opacity="0.322603" style="stroke:black;stroke-width:0.5;fill:url(#radialffffffbfbfbf)"/>
<circle cx="795.481946" cy="84.489991" r="5.636364" opacity="0.680446" style="stroke:black;stroke-width:0.5;fill:url(#radialffffffbfbfbf)"/>
<circle cx="192.932515" cy="62.558488" r="13.818182" opacity="0.684008" style="stroke:black;stroke-width:0.5;fill:url(#radialffffff666666)"/>
<circle cx="443.314190" cy="66.297661" r="13.818182" opacity="0.685577" style="stroke:black;stroke-width:0.5;fill:url(#radialffffff666666)"/>
<circle cx="769.973702" cy="65.862345" r="12.000000" opacity="0.686361" style="stroke:black;stroke-width:0.5;fill:url(#radialffffffffcc)"/>
<circle cx="40.000000" cy="70.696307" r="5.636364" opacity="0.687515" style="stroke:black;stroke-width:0.5;fill:url(#radialffffffbfbfbf)"/>
<circle cx="109.855295" cy="63.809211" r="13.818182" opacity="0.689596" style="stroke:black;stroke-width:0.5;fill:url(#radialffffff666666)"/>
<circle cx="733.030279" cy="93.498442" r="13.818182" opacity="0.692668" style="stroke:black;stroke-width:0.5;fill:url(#radialffffff666666)"/>
<circle cx="68.883571" cy="91.419319" r="13.818182" opacity="0.694328" style="stroke:black;stroke-width:0.5;fill:url(#radialffffff666666)"/>
<circle cx="525.377837" cy="66.424358" r="13.818182" opacity="0.695028" style="stroke:black;stroke-width:0.5;fill:url(#radialffffff666666)"/>
<circle cx="566.339815" cy="94.573739" r="13.818182" opacity="0.695322" style="stroke:black;stroke-width:0.5;fill:url(#radialffffff666666)"/>
<circle cx="401.169710" cy="92.748008" r="13.818182" opacity="0.696131" style="stroke:black;stroke-width:0.5;fill:url(#radialffffff666666)"/>
<circle cx="484.279417" cy="94.450291" r="13.818182" opacity="0.697783" style="stroke:black;stroke-width:0.5;fill:url(#radialffffff666666)"/>
<circle cx="151.795111" cy="90.483713" r="13.818182" opacity="0.698772" style="stroke:black;stroke-width:0.5;fill:url(#radialffffff666666)"/>
<circle cx="691.626488" cy="66.326899" r="13.818182" opacity="0.701950" style="stroke:black;stroke-width:0.5;fill:url(#radialffffff666666)"/>
<circle cx="650.674255" cy="94.596479" r="13.818182" opacity="0.704388" style="stroke:black;stroke-width:0.5;fill:url(#radialffffff666666)"/>
<circle cx="233.813277" cy="90.818322" r="13.818182" opacity="0.704751" style="stroke:black;stroke-width:0.5;fill:url(#radialffffff666666)"/>
<circle cx="360.262959" cy="64.504418" r="13.976556" opacity="0.711147" style="stroke:black;stroke-width:0.5;fill:url(#radialffffff666666)"/>
<circle cx="318.124977" cy="91.000245" r="14.198564" opacity="0.716773" style="stroke:black;stroke-width:0.5;fill:url(#radialffffff666666)"/>
<circle cx="275.999989" cy="64.488174" r="14.491274" opacity="0.724124" style="stroke:black;stroke-width:0.5;fill:url(#radialffffff666666)"/>
<circle cx="608.484295" cy="68.253337" r="14.525211" opacity="0.724971" style="stroke:black;stroke-width:0.5;fill:url(#radialffffff666666)"/>
<circle cx="192.805818" cy="40.000000" r="10.168757" opacity="0.949772" style="stroke:black;stroke-width:0.5;fill:url(#radialffffffbfbfbf)"/>
<circle cx="443.681285" cy="44.125760" r="10.252968" opacity="0.953697" style="stroke:black;stroke-width:0.5;fill:url(#radialffffffbfbfbf)"/>
<circle cx="565.228784" cy="117.154967" r="10.341216" opacity="0.957792" style="stroke:black;stroke-width:0.5;fill:url(#radialffffffbfbfbf)"/>
<circle cx="109.270542" cy="41.910195" r="10.348138" opacity="0.958113" style="stroke:black;stroke-width:0.5;fill:url(#radialffffffbfbfbf)"/>
<circle cx="401.426352" cy="114.153233" r="10.521174" opacity="0.966090" style="stroke:black;stroke-width:0.5;fill:url(#radialffffffbfbfbf)"/>
<circle cx="734.959966" cy="114.273432" r="10.522327" opacity="0.966143" style="stroke:black;stroke-width:0.5;fill:url(#radialffffffbfbfbf)"/>
<circle cx="525.478545" cy="45.217300" r="10.528095" opacity="0.966408" style="stroke:black;stroke-width:0.5;fill:url(#radialffffffbfbfbf)"/>
<circle cx="651.687828" cy="116.752137" r="10.544822" opacity="0.967175" style="stroke:black;stroke-width:0.5;fill:url(#radialffffffbfbfbf)"/>
<circle cx="67.480163" cy="111.560826" r="10.631340" opacity="0.971135" style="stroke:black;stroke-width:0.5;fill:url(#radialffffffbfbfbf)"/>
<circle cx="692.029318" cy="45.175068" r="10.646336" opacity="0.971819" style="stroke:black;stroke-width:0.5;fill:url(#radialffffffbfbfbf)"/>
<circle cx="483.915570" cy="114.923158" r="10.664217" opacity="0.972635" style="stroke:black;stroke-width:0.5;fill:url(#radialffffffbfbfbf)"/>
<circle cx="232.393626" cy="112.002640" r="10.680367" opacity="0.973371" style="stroke:black;stroke-width:0.5;fill:url(#radialffffffbfbfbf)"/>
<circle cx="152.113477" cy="110.621972" r="10.725356" opacity="0.975419" style="stroke:black;stroke-width:0.5;fill:url(#radialffffffbfbfbf)"/>
<circle cx="318.404359" cy="112.577647" r="10.829178" opacity="0.980129" style="stroke:black;stroke-width:0.5;fill:url(#radialffffffbfbfbf)"/>
<circle cx="361.247294" cy="43.677449" r="10.830332" opacity="0.980181" style="stroke:black;stroke-width:0.5;fill:url(#radialffffffbfbfbf)"/>
<circle cx="275.736850" cy="44.239462" r="11.119302" opacity="0.993172" style="stroke:black;stroke-width:0.5;fill:url(#radialffffffbfbfbf)"/>
<circle cx="608.234150" cy="49.180629" r="11.272727" opacity="1.000000" style="stroke:black;stroke-width:0.5;fill:url(#radialffffffbfbfbf)"/>
</svg>
</g>
</svg>
