<?xml version="1.0"?>
<svg version="1.1" id="topsvg"
xmlns="http://www.w3.org/2000/svg" xmlns:xlink="http://www.w3.org/1999/xlink"
xmlns:cml="http://www.xml-cml.org/schema" x="0" y="0" width="200px" height="200px" viewBox="0 0 100 100">
<title>15265 - Open Babel Depiction</title>
<rect x="0" y="0" width="100" height="100" fill="white"/>
<defs>
<radialGradient id='radialffffff666666' cx='50%' cy='50%' r='50%' fx='30%' fy='30%'>
  <stop offset=' 0%' stop-color="rgb(255,255,255)"  stop-opacity='1.0'/>
  <stop offset='100%' stop-color="rgb(102,102,102)"  stop-opacity ='1.0'/>
</radialGradient>
<radialGradient id='radialffffffbfbfbf' cx='50%' cy='50%' r='50%' fx='30%' fy='30%'>
  <stop offset=' 0%' stop-color="rgb(255,255,255)"  stop-opacity='1.0'/>
  <stop offset='100%' stop-color="rgb(191,191,191)"  stop-opacity ='1.0'/>
</radialGradient>
</defs>
<g transform="translate(0,0)">
<svg width="100" height="100" x="0" y="0" viewBox="0 0 801.479 208.046"
font-family="sans-serif" stroke="rgb(0,0,0)" stroke-width="4"  stroke-linecap="round">
<line x1="359.0" y1="99.1" x2="318.4" y2="126.7" opacity="1.0" stroke="rgb(0,0,0)"  stroke-width="1.6"/>
<line x1="359.0" y1="99.1" x2="400.5" y2="125.3" opacity="0.5" stroke="rgb(0,0,0)"  stroke-width="1.5"/>
<line x1="359.0" y1="99.1" x2="359.1" y2="86.9" opacity="0.5" stroke="rgb(0,0,0)"  stroke-width="2.2"/>
<line x1="359.0" y1="99.1" x2="358.5" y2="70.7" opacity="0.7" stroke="rgb(0,0,0)"  stroke-width="1.3"/>
<line x1="318.4" y1="126.7" x2="277.0" y2="100.9" opacity="0.4" stroke="rgb(0,0,0)"  stroke-width="1.6"/>
<line x1="318.4" y1="126.7" x2="319.3" y2="155.5" opacity="0.5" stroke="rgb(0,0,0)"  stroke-width="1.8"/>
<line x1="318.4" y1="126.7" x2="318.0" y2="138.3" opacity="0.6" stroke="rgb(0,0,0)"  stroke-width="0.9"/>
<line x1="400.5" y1="125.3" x2="442.2" y2="98.9" opacity="0.3" stroke="rgb(0,0,0)"  stroke-width="1.5"/>
<line x1="400.5" y1="125.3" x2="399.9" y2="138.4" opacity="0.5" stroke="rgb(0,0,0)"  stroke-width="0.9"/>
<line x1="400.5" y1="125.3" x2="401.1" y2="153.3" opacity="0.3" stroke="rgb(0,0,0)"  stroke-width="1.8"/>
<line x1="277.0" y1="100.9" x2="235.2" y2="126.9" opacity="0.6" stroke="rgb(0,0,0)"  stroke-width="1.6"/>
<line x1="277.0" y1="100.9" x2="276.3" y2="71.8" opacity="0.5" stroke="rgb(0,0,0)"  stroke-width="1.4"/>
<line x1="277.0" y1="100.9" x2="277.5" y2="89.5" opacity="0.5" stroke="rgb(0,0,0)"  stroke-width="2.3"/>
<line x1="442.2" y1="98.9" x2="484.8" y2="124.2" opacity="0.8" stroke="rgb(0,0,0)"  stroke-width="1.5"/>
<line x1="442.2" y1="98.9" x2="442.1" y2="71.9" opacity="0.5" stroke="rgb(0,0,0)"  stroke-width="1.2"/>
<line x1="442.2" y1="98.9" x2="441.7" y2="84.1" opacity="0.4" stroke="rgb(0,0,0)"  stroke-width="2.1"/>
<line x1="235.2" y1="126.9" x2="192.5" y2="103.3" opacity="0.7" stroke="rgb(0,0,0)"  stroke-width="1.7"/>
<line x1="235.2" y1="126.9" x2="236.6" y2="156.7" opacity="0.6" stroke="rgb(0,0,0)"  stroke-width="1.8"/>
<line x1="235.2" y1="126.9" x2="234.4" y2="137.4" opacity="0.6" stroke="rgb(0,0,0)"  stroke-width="0.9"/>
<line x1="484.8" y1="124.2" x2="526.5" y2="97.4" opacity="0.3" stroke="rgb(0,0,0)"  stroke-width="1.5"/>
<line x1="484.8" y1="124.2" x2="485.4" y2="150.2" opacity="0.5" stroke="rgb(0,0,0)"  stroke-width="1.8"/>
<line x1="484.8" y1="124.2" x2="484.7" y2="140.4" opacity="0.6" stroke="rgb(0,0,0)"  stroke-width="0.9"/>
<line x1="192.5" y1="103.3" x2="152.0" y2="130.1" opacity="0.3" stroke="rgb(0,0,0)"  stroke-width="1.6"/>
<line x1="192.5" y1="103.3" x2="192.2" y2="72.9" opacity="0.5" stroke="rgb(0,0,0)"  stroke-width="1.5"/>
<line x1="192.5" y1="103.3" x2="192.2" y2="94.6" opacity="0.5" stroke="rgb(0,0,0)"  stroke-width="2.4"/>
<line x1="526.5" y1="97.4" x2="568.0" y2="124.6" opacity="0.8" stroke="rgb(0,0,0)"  stroke-width="1.5"/>
<line x1="526.5" y1="97.4" x2="526.3" y2="80.4" opacity="0.5" stroke="rgb(0,0,0)"  stroke-width="2.1"/>
<line x1="526.5" y1="97.4" x2="526.5" y2="72.2" opacity="0.7" stroke="rgb(0,0,0)"  stroke-width="1.2"/>
<line x1="152.0" y1="130.1" x2="109.2" y2="107.3" opacity="0.4" stroke="rgb(0,0,0)"  stroke-width="1.7"/>
<line x1="152.0" y1="130.1" x2="153.9" y2="161.3" opacity="0.6" stroke="rgb(0,0,0)"  stroke-width="1.7"/>
<line x1="152.0" y1="130.1" x2="151.8" y2="137.5" opacity="0.6" stroke="rgb(0,0,0)"  stroke-width="0.9"/>
<line x1="568.0" y1="124.6" x2="608.5" y2="96.1" opacity="0.3" stroke="rgb(0,0,0)"  stroke-width="1.5"/>
<line x1="568.0" y1="124.6" x2="568.3" y2="149.6" opacity="0.5" stroke="rgb(0,0,0)"  stroke-width="1.9"/>
<line x1="568.0" y1="124.6" x2="568.3" y2="141.6" opacity="0.6" stroke="rgb(0,0,0)"  stroke-width="1.0"/>
<line x1="109.2" y1="107.3" x2="103.2" y2="63.8" opacity="0.3" stroke="rgb(0,0,0)"  stroke-width="1.5"/>
<line x1="109.2" y1="107.3" x2="70.6" y2="137.1" opacity="0.5" stroke="rgb(0,0,0)"  stroke-width="1.7"/>
<line x1="109.2" y1="107.3" x2="109.4" y2="101.2" opacity="0.6" stroke="rgb(0,0,0)"  stroke-width="2.4"/>
<line x1="608.5" y1="96.1" x2="651.1" y2="121.5" opacity="0.8" stroke="rgb(0,0,0)"  stroke-width="1.5"/>
<line x1="608.5" y1="96.1" x2="608.1" y2="79.6" opacity="0.5" stroke="rgb(0,0,0)"  stroke-width="2.1"/>
<line x1="608.5" y1="96.1" x2="607.7" y2="70.6" opacity="0.7" stroke="rgb(0,0,0)"  stroke-width="1.2"/>
<line x1="651.1" y1="121.5" x2="691.6" y2="93.5" opacity="0.4" stroke="rgb(0,0,0)"  stroke-width="1.6"/>
<line x1="651.1" y1="121.5" x2="651.3" y2="147.9" opacity="0.5" stroke="rgb(0,0,0)"  stroke-width="1.8"/>
<line x1="651.1" y1="121.5" x2="652.3" y2="136.9" opacity="0.6" stroke="rgb(0,0,0)"  stroke-width="0.9"/>
<line x1="103.2" y1="63.8" x2="105.8" y2="67.5" opacity="0.3" stroke="rgb(0,0,0)"  stroke-width="0.6"/>
<line x1="103.2" y1="63.8" x2="71.2" y2="49.9" opacity="0.2" stroke="rgb(0,0,0)"  stroke-width="1.2"/>
<line x1="103.2" y1="63.8" x2="127.5" y2="40.0" opacity="0.4" stroke="rgb(0,0,0)"  stroke-width="1.3"/>
<line x1="70.6" y1="137.1" x2="68.5" y2="144.1" opacity="0.4" stroke="rgb(0,0,0)"  stroke-width="1.0"/>
<line x1="70.6" y1="137.1" x2="73.7" y2="168.0" opacity="0.3" stroke="rgb(0,0,0)"  stroke-width="1.8"/>
<line x1="70.6" y1="137.1" x2="40.0" y2="122.0" opacity="0.6" stroke="rgb(0,0,0)"  stroke-width="1.7"/>
<line x1="691.6" y1="93.5" x2="732.9" y2="120.6" opacity="0.6" stroke="rgb(0,0,0)"  stroke-width="1.6"/>
<line x1="691.6" y1="93.5" x2="692.7" y2="68.1" opacity="0.5" stroke="rgb(0,0,0)"  stroke-width="1.3"/>
<line x1="691.6" y1="93.5" x2="690.2" y2="77.2" opacity="0.4" stroke="rgb(0,0,0)"  stroke-width="2.2"/>
<line x1="732.9" y1="120.6" x2="733.2" y2="145.6" opacity="0.7" stroke="rgb(0,0,0)"  stroke-width="2.0"/>
<line x1="732.9" y1="120.6" x2="735.8" y2="136.7" opacity="0.7" stroke="rgb(0,0,0)"  stroke-width="1.1"/>
<line x1="732.9" y1="120.6" x2="761.5" y2="100.0" opacity="0.4" stroke="rgb(0,0,0)"  stroke-width="1.7"/>
<circle cx="105.781357" cy="67.526708" r="5.636364" opacity="0.200000" style="stroke:black;stroke-width:0.5;fill:url(#radialffffffbfbfbf)"/>
<circle cx="317.971003" cy="138.286922" r="5.636364" opacity="0.341297" style="stroke:black;stroke-width:0.5;fill:url(#radialffffffbfbfbf)"/>
<circle cx="399.949894" cy="138.403919" r="5.636364" opacity="0.343375" style="stroke:black;stroke-width:0.5;fill:url(#radialffffffbfbfbf)"/>
<circle cx="151.822783" cy="137.513445" r="5.636364" opacity="0.343930" style="stroke:black;stroke-width:0.5;fill:url(#radialffffffbfbfbf)"/>
<circle cx="234.435406" cy="137.370449" r="5.636364" opacity="0.362683" style="stroke:black;stroke-width:0.5;fill:url(#radialffffffbfbfbf)"/>
<circle cx="652.285634" cy="136.876463" r="5.636364" opacity="0.375234" style="stroke:black;stroke-width:0.5;fill:url(#radialffffffbfbfbf)"/>
<circle cx="68.524429" cy="144.068506" r="5.636364" opacity="0.380102" style="stroke:black;stroke-width:0.5;fill:url(#radialffffffbfbfbf)"/>
<circle cx="484.681456" cy="140.366862" r="5.636364" opacity="0.381378" style="stroke:black;stroke-width:0.5;fill:url(#radialffffffbfbfbf)"/>
<circle cx="568.347049" cy="141.566078" r="5.636364" opacity="0.392008" style="stroke:black;stroke-width:0.5;fill:url(#radialffffffbfbfbf)"/>
<circle cx="735.775732" cy="136.694468" r="5.636364" opacity="0.435718" style="stroke:black;stroke-width:0.5;fill:url(#radialffffffbfbfbf)"/>
<circle cx="526.527253" cy="72.232573" r="5.636364" opacity="0.508052" style="stroke:black;stroke-width:0.5;fill:url(#radialffffffbfbfbf)"/>
<circle cx="607.657918" cy="70.633619" r="5.636364" opacity="0.515104" style="stroke:black;stroke-width:0.5;fill:url(#radialffffffbfbfbf)"/>
<circle cx="692.737221" cy="68.053193" r="5.636364" opacity="0.535088" style="stroke:black;stroke-width:0.5;fill:url(#radialffffffbfbfbf)"/>
<circle cx="442.123931" cy="71.927081" r="5.636364" opacity="0.538255" style="stroke:black;stroke-width:0.5;fill:url(#radialffffffbfbfbf)"/>
<circle cx="358.464838" cy="70.698617" r="5.636364" opacity="0.573180" style="stroke:black;stroke-width:0.5;fill:url(#radialffffffbfbfbf)"/>
<circle cx="276.290952" cy="71.800335" r="5.636364" opacity="0.595675" style="stroke:black;stroke-width:0.5;fill:url(#radialffffffbfbfbf)"/>
<circle cx="103.204182" cy="63.776316" r="13.818182" opacity="0.613829" style="stroke:black;stroke-width:0.5;fill:url(#radialffffff666666)"/>
<circle cx="192.154123" cy="72.863055" r="5.636364" opacity="0.639676" style="stroke:black;stroke-width:0.5;fill:url(#radialffffffbfbfbf)"/>
<circle cx="71.231601" cy="49.889465" r="5.636364" opacity="0.673875" style="stroke:black;stroke-width:0.5;fill:url(#radialffffffbfbfbf)"/>
<circle cx="400.456880" cy="125.332795" r="13.818182" opacity="0.686926" style="stroke:black;stroke-width:0.5;fill:url(#radialffffff666666)"/>
<circle cx="318.399990" cy="126.743254" r="13.818182" opacity="0.690176" style="stroke:black;stroke-width:0.5;fill:url(#radialffffff666666)"/>
<circle cx="651.109168" cy="121.530404" r="13.818182" opacity="0.695732" style="stroke:black;stroke-width:0.5;fill:url(#radialffffff666666)"/>
<circle cx="484.765954" cy="124.218077" r="13.818182" opacity="0.696305" style="stroke:black;stroke-width:0.5;fill:url(#radialffffff666666)"/>
<circle cx="567.970060" cy="124.627565" r="13.818182" opacity="0.698767" style="stroke:black;stroke-width:0.5;fill:url(#radialffffff666666)"/>
<circle cx="127.471233" cy="40.000000" r="5.636364" opacity="0.699164" style="stroke:black;stroke-width:0.5;fill:url(#radialffffffbfbfbf)"/>
<circle cx="151.969029" cy="130.084158" r="13.818182" opacity="0.700478" style="stroke:black;stroke-width:0.5;fill:url(#radialffffff666666)"/>
<circle cx="235.199134" cy="126.892750" r="13.818182" opacity="0.703862" style="stroke:black;stroke-width:0.5;fill:url(#radialffffff666666)"/>
<circle cx="70.633619" cy="137.084457" r="14.270671" opacity="0.718591" style="stroke:black;stroke-width:0.5;fill:url(#radialffffff666666)"/>
<circle cx="732.880066" cy="120.626930" r="14.570733" opacity="0.726106" style="stroke:black;stroke-width:0.5;fill:url(#radialffffff666666)"/>
<circle cx="526.498003" cy="97.383599" r="14.587030" opacity="0.726512" style="stroke:black;stroke-width:0.5;fill:url(#radialffffff666666)"/>
<circle cx="608.545143" cy="96.116136" r="14.684814" opacity="0.728943" style="stroke:black;stroke-width:0.5;fill:url(#radialffffff666666)"/>
<circle cx="442.169430" cy="98.914305" r="14.884216" opacity="0.733876" style="stroke:black;stroke-width:0.5;fill:url(#radialffffff666666)"/>
<circle cx="691.632252" cy="93.480461" r="15.263847" opacity="0.743176" style="stroke:black;stroke-width:0.5;fill:url(#radialffffff666666)"/>
<circle cx="359.030321" cy="99.067051" r="15.440241" opacity="0.747458" style="stroke:black;stroke-width:0.5;fill:url(#radialffffff666666)"/>
<circle cx="276.970182" cy="100.860999" r="15.892731" opacity="0.758331" style="stroke:black;stroke-width:0.5;fill:url(#radialffffff666666)"/>
<circle cx="761.479243" cy="99.973775" r="6.490773" opacity="0.758811" style="stroke:black;stroke-width:0.5;fill:url(#radialffffffbfbfbf)"/>
<circle cx="192.544111" cy="103.324428" r="16.745941" opacity="0.778421" style="stroke:black;stroke-width:0.5;fill:url(#radialffffff666666)"/>
<circle cx="40.000000" cy="122.043890" r="7.036265" opacity="0.790054" style="stroke:black;stroke-width:0.5;fill:url(#radialffffffbfbfbf)"/>
<circle cx="109.177510" cy="107.302314" r="17.269372" opacity="0.790493" style="stroke:black;stroke-width:0.5;fill:url(#radialffffff666666)"/>
<circle cx="153.944972" cy="161.328759" r="7.586841" opacity="0.820382" style="stroke:black;stroke-width:0.5;fill:url(#radialffffffbfbfbf)"/>
<circle cx="319.319714" cy="155.537426" r="7.894194" opacity="0.836834" style="stroke:black;stroke-width:0.5;fill:url(#radialffffffbfbfbf)"/>
<circle cx="73.678781" cy="168.046316" r="7.901232" opacity="0.837207" style="stroke:black;stroke-width:0.5;fill:url(#radialffffffbfbfbf)"/>
<circle cx="236.645342" cy="156.678143" r="7.939554" opacity="0.839235" style="stroke:black;stroke-width:0.5;fill:url(#radialffffffbfbfbf)"/>
<circle cx="401.090611" cy="153.327490" r="7.974747" opacity="0.841093" style="stroke:black;stroke-width:0.5;fill:url(#radialffffffbfbfbf)"/>
<circle cx="651.287913" cy="147.926145" r="8.341537" opacity="0.860218" style="stroke:black;stroke-width:0.5;fill:url(#radialffffffbfbfbf)"/>
<circle cx="485.389936" cy="150.194580" r="8.404884" opacity="0.863478" style="stroke:black;stroke-width:0.5;fill:url(#radialffffffbfbfbf)"/>
<circle cx="568.265802" cy="149.551098" r="8.568336" opacity="0.871834" style="stroke:black;stroke-width:0.5;fill:url(#radialffffffbfbfbf)"/>
<circle cx="733.175807" cy="145.615461" r="8.989871" opacity="0.893022" style="stroke:black;stroke-width:0.5;fill:url(#radialffffffbfbfbf)"/>
<circle cx="526.338758" cy="80.445086" r="9.724624" opacity="0.928799" style="stroke:black;stroke-width:0.5;fill:url(#radialffffffbfbfbf)"/>
<circle cx="608.077156" cy="79.609860" r="9.792273" opacity="0.932024" style="stroke:black;stroke-width:0.5;fill:url(#radialffffffbfbfbf)"/>
<circle cx="441.678694" cy="84.120731" r="9.974886" opacity="0.940675" style="stroke:black;stroke-width:0.5;fill:url(#radialffffffbfbfbf)"/>
<circle cx="690.179544" cy="77.198430" r="10.034323" opacity="0.943473" style="stroke:black;stroke-width:0.5;fill:url(#radialffffffbfbfbf)"/>
<circle cx="359.105069" cy="86.857152" r="10.326425" opacity="0.957107" style="stroke:black;stroke-width:0.5;fill:url(#radialffffffbfbfbf)"/>
<circle cx="277.535666" cy="89.460327" r="10.546577" opacity="0.967256" style="stroke:black;stroke-width:0.5;fill:url(#radialffffffbfbfbf)"/>
<circle cx="192.202871" cy="94.595179" r="10.988446" opacity="0.987310" style="stroke:black;stroke-width:0.5;fill:url(#radialffffffbfbfbf)"/>
<circle cx="109.385504" cy="101.234738" r="11.272727" opacity="1.000000" style="stroke:black;stroke-width:0.5;fill:url(#radialffffffbfbfbf)"/>
</svg>
</g>
</svg>
