<?xml version="1.0"?>
<svg version="1.1" id="topsvg"
xmlns="http://www.w3.org/2000/svg" xmlns:xlink="http://www.w3.org/1999/xlink"
xmlns:cml="http://www.xml-cml.org/schema" x="0" y="0" width="1024px" height="1024px" viewBox="0 0 100 100">
<title>15422 - Open Babel Depiction</title>
<rect x="0" y="0" width="100" height="100" fill="white"/>
<defs>
<radialGradient id='radialffffff666666' cx='50%' cy='50%' r='50%' fx='30%' fy='30%'>
  <stop offset=' 0%' stop-color="rgb(255,255,255)"  stop-opacity='1.0'/>
  <stop offset='100%' stop-color="rgb(102,102,102)"  stop-opacity ='1.0'/>
</radialGradient>
<radialGradient id='radialffffffb2b20' cx='50%' cy='50%' r='50%' fx='30%' fy='30%'>
  <stop offset=' 0%' stop-color="rgb(255,255,255)"  stop-opacity='1.0'/>
  <stop offset='100%' stop-color="rgb(178,178,0)"  stop-opacity ='1.0'/>
</radialGradient>
<radialGradient id='radialffffffbfbfbf' cx='50%' cy='50%' r='50%' fx='30%' fy='30%'>
  <stop offset=' 0%' stop-color="rgb(255,255,255)"  stop-opacity='1.0'/>
  <stop offset='100%' stop-color="rgb(191,191,191)"  stop-opacity ='1.0'/>
</radialGradient>
</defs>
<g transform="translate(0,0)">
<svg width="100" height="100" x="0" y="0" viewBox="0 0 399.339 159.447"
font-family="sans-serif" stroke="rgb(0,0,0)" stroke-width="2"  stroke-linecap="round">
<line x1="40.0" y1="67.0" x2="89.0" y2="98.2" opacity="1.0" stroke="rgb(0,0,0)"  stroke-width="1.6"/>
<line x1="40.0" y1="67.0" x2="46.1" y2="46.8" opacity="0.5" stroke="rgb(0,0,0)"  stroke-width="0.8"/>
<line x1="209.8" y1="64.4" x2="170.4" y2="93.5" opacity="0.3" stroke="rgb(0,0,0)"  stroke-width="1.6"/>
<line x1="209.8" y1="64.4" x2="251.2" y2="90.5" opacity="0.5" stroke="rgb(0,0,0)"  stroke-width="1.6"/>
<line x1="209.8" y1="64.4" x2="209.1" y2="44.2" opacity="0.5" stroke="rgb(0,0,0)"  stroke-width="0.9"/>
<line x1="209.8" y1="64.4" x2="208.8" y2="42.9" opacity="0.3" stroke="rgb(0,0,0)"  stroke-width="2.2"/>
<line x1="170.4" y1="93.5" x2="128.0" y2="68.9" opacity="0.7" stroke="rgb(0,0,0)"  stroke-width="1.6"/>
<line x1="170.4" y1="93.5" x2="170.9" y2="114.0" opacity="0.5" stroke="rgb(0,0,0)"  stroke-width="0.9"/>
<line x1="170.4" y1="93.5" x2="172.1" y2="114.7" opacity="0.3" stroke="rgb(0,0,0)"  stroke-width="2.2"/>
<line x1="251.2" y1="90.5" x2="290.5" y2="61.4" opacity="0.7" stroke="rgb(0,0,0)"  stroke-width="1.6"/>
<line x1="251.2" y1="90.5" x2="252.5" y2="111.5" opacity="0.5" stroke="rgb(0,0,0)"  stroke-width="1.0"/>
<line x1="251.2" y1="90.5" x2="251.4" y2="111.1" opacity="0.3" stroke="rgb(0,0,0)"  stroke-width="2.2"/>
<line x1="128.0" y1="68.9" x2="89.0" y2="98.2" opacity="0.7" stroke="rgb(0,0,0)"  stroke-width="1.6"/>
<line x1="128.0" y1="68.9" x2="127.6" y2="48.9" opacity="0.5" stroke="rgb(0,0,0)"  stroke-width="2.3"/>
<line x1="128.0" y1="68.9" x2="126.8" y2="47.3" opacity="0.8" stroke="rgb(0,0,0)"  stroke-width="1.0"/>
<line x1="290.5" y1="61.4" x2="331.6" y2="87.2" opacity="0.3" stroke="rgb(0,0,0)"  stroke-width="1.7"/>
<line x1="290.5" y1="61.4" x2="289.0" y2="40.0" opacity="0.6" stroke="rgb(0,0,0)"  stroke-width="2.2"/>
<line x1="290.5" y1="61.4" x2="290.9" y2="41.3" opacity="0.7" stroke="rgb(0,0,0)"  stroke-width="1.0"/>
<line x1="89.0" y1="98.2" x2="88.8" y2="118.1" opacity="0.3" stroke="rgb(0,0,0)"  stroke-width="1.0"/>
<line x1="89.0" y1="98.2" x2="89.4" y2="119.4" opacity="0.3" stroke="rgb(0,0,0)"  stroke-width="2.2"/>
<line x1="331.6" y1="87.2" x2="334.6" y2="108.3" opacity="0.7" stroke="rgb(0,0,0)"  stroke-width="1.1"/>
<line x1="331.6" y1="87.2" x2="332.7" y2="106.9" opacity="0.4" stroke="rgb(0,0,0)"  stroke-width="2.4"/>
<line x1="331.6" y1="87.2" x2="359.3" y2="65.8" opacity="0.8" stroke="rgb(0,0,0)"  stroke-width="1.7"/>
<circle cx="46.079078" cy="46.753821" r="5.636364" opacity="0.200000" style="stroke:black;stroke-width:0.5;fill:url(#radialffffffbfbfbf)"/>
<circle cx="209.062972" cy="44.237127" r="5.636364" opacity="0.291135" style="stroke:black;stroke-width:0.5;fill:url(#radialffffffbfbfbf)"/>
<circle cx="170.919234" cy="114.048993" r="5.636364" opacity="0.313510" style="stroke:black;stroke-width:0.5;fill:url(#radialffffffbfbfbf)"/>
<circle cx="88.789320" cy="118.139020" r="5.636364" opacity="0.329204" style="stroke:black;stroke-width:0.5;fill:url(#radialffffffbfbfbf)"/>
<circle cx="290.850718" cy="41.288726" r="5.636364" opacity="0.329857" style="stroke:black;stroke-width:0.5;fill:url(#radialffffffbfbfbf)"/>
<circle cx="252.467143" cy="111.497123" r="5.636364" opacity="0.330436" style="stroke:black;stroke-width:0.5;fill:url(#radialffffffbfbfbf)"/>
<circle cx="126.824331" cy="47.255880" r="5.636364" opacity="0.362582" style="stroke:black;stroke-width:0.5;fill:url(#radialffffffbfbfbf)"/>
<circle cx="334.584266" cy="108.318479" r="5.636364" opacity="0.390268" style="stroke:black;stroke-width:0.5;fill:url(#radialffffffbfbfbf)"/>
<circle cx="209.772890" cy="64.354687" r="14.203965" opacity="0.716910" style="stroke:black;stroke-width:0.5;fill:url(#radialffffff666666)"/>
<circle cx="170.449153" cy="93.474143" r="14.456310" opacity="0.723250" style="stroke:black;stroke-width:0.5;fill:url(#radialffffff666666)"/>
<circle cx="251.159230" cy="90.461786" r="14.598997" opacity="0.726810" style="stroke:black;stroke-width:0.5;fill:url(#radialffffff666666)"/>
<circle cx="290.476572" cy="61.428671" r="14.859269" opacity="0.733260" style="stroke:black;stroke-width:0.5;fill:url(#radialffffff666666)"/>
<circle cx="89.000377" cy="98.248506" r="14.894940" opacity="0.734140" style="stroke:black;stroke-width:0.5;fill:url(#radialffffff666666)"/>
<circle cx="128.042705" cy="68.930784" r="15.029700" opacity="0.737454" style="stroke:black;stroke-width:0.5;fill:url(#radialffffff666666)"/>
<circle cx="40.000000" cy="67.040866" r="21.286756" opacity="0.746666" style="stroke:black;stroke-width:0.5;fill:url(#radialffffffb2b20)"/>
<circle cx="331.642260" cy="87.219184" r="15.686325" opacity="0.753391" style="stroke:black;stroke-width:0.5;fill:url(#radialffffff666666)"/>
<circle cx="359.338682" cy="65.828887" r="6.461421" opacity="0.757093" style="stroke:black;stroke-width:0.5;fill:url(#radialffffffbfbfbf)"/>
<circle cx="208.794354" cy="42.890840" r="10.465454" opacity="0.963528" style="stroke:black;stroke-width:0.5;fill:url(#radialffffffbfbfbf)"/>
<circle cx="172.144004" cy="114.701351" r="10.596407" opacity="0.969538" style="stroke:black;stroke-width:0.5;fill:url(#radialffffffbfbfbf)"/>
<circle cx="289.031152" cy="40.000000" r="10.730054" opacity="0.975633" style="stroke:black;stroke-width:0.5;fill:url(#radialffffffbfbfbf)"/>
<circle cx="251.383078" cy="111.055823" r="10.740293" opacity="0.976098" style="stroke:black;stroke-width:0.5;fill:url(#radialffffffbfbfbf)"/>
<circle cx="89.374523" cy="119.446933" r="10.768316" opacity="0.977371" style="stroke:black;stroke-width:0.5;fill:url(#radialffffffbfbfbf)"/>
<circle cx="127.614196" cy="48.896368" r="10.987110" opacity="0.987250" style="stroke:black;stroke-width:0.5;fill:url(#radialffffffbfbfbf)"/>
<circle cx="332.726325" cy="106.905037" r="11.272727" opacity="1.000000" style="stroke:black;stroke-width:0.5;fill:url(#radialffffffbfbfbf)"/>
</svg>
</g>
</svg>
