<?xml version="1.0"?>
<svg version="1.1" id="topsvg"
xmlns="http://www.w3.org/2000/svg" xmlns:xlink="http://www.w3.org/1999/xlink"
xmlns:cml="http://www.xml-cml.org/schema" x="0" y="0" width="200px" height="200px" viewBox="0 0 100 100">
<title>16476 - Open Babel Depiction</title>
<rect x="0" y="0" width="100" height="100" fill="white"/>
<defs>
<radialGradient id='radialffffff666666' cx='50%' cy='50%' r='50%' fx='30%' fy='30%'>
  <stop offset=' 0%' stop-color="rgb(255,255,255)"  stop-opacity='1.0'/>
  <stop offset='100%' stop-color="rgb(102,102,102)"  stop-opacity ='1.0'/>
</radialGradient>
<radialGradient id='radialffffffbfbfbf' cx='50%' cy='50%' r='50%' fx='30%' fy='30%'>
  <stop offset=' 0%' stop-color="rgb(255,255,255)"  stop-opacity='1.0'/>
  <stop offset='100%' stop-color="rgb(191,191,191)"  stop-opacity ='1.0'/>
</radialGradient>
</defs>
<g transform="translate(0,0)">
<svg width="100" height="100" x="0" y="0" viewBox="0 0 746.857 291.565"
font-family="sans-serif" stroke="rgb(0,0,0)" stroke-width="4"  stroke-linecap="round">
<line x1="356.3" y1="120.5" x2="398.9" y2="110.3" opacity="1.0" stroke="rgb(0,0,0)"  stroke-width="1.6"/>
<line x1="356.3" y1="120.5" x2="318.4" y2="98.6" opacity="0.5" stroke="rgb(0,0,0)"  stroke-width="1.6"/>
<line x1="356.3" y1="120.5" x2="357.9" y2="109.8" opacity="0.5" stroke="rgb(0,0,0)"  stroke-width="2.3"/>
<line x1="356.3" y1="120.5" x2="351.2" y2="155.5" opacity="0.8" stroke="rgb(0,0,0)"  stroke-width="1.9"/>
<line x1="398.9" y1="110.3" x2="436.8" y2="133.1" opacity="0.6" stroke="rgb(0,0,0)"  stroke-width="1.6"/>
<line x1="398.9" y1="110.3" x2="404.4" y2="75.4" opacity="0.5" stroke="rgb(0,0,0)"  stroke-width="1.4"/>
<line x1="398.9" y1="110.3" x2="397.1" y2="120.5" opacity="0.5" stroke="rgb(0,0,0)"  stroke-width="1.0"/>
<line x1="318.4" y1="98.6" x2="275.6" y2="109.6" opacity="0.3" stroke="rgb(0,0,0)"  stroke-width="1.6"/>
<line x1="318.4" y1="98.6" x2="317.2" y2="108.8" opacity="0.5" stroke="rgb(0,0,0)"  stroke-width="1.0"/>
<line x1="318.4" y1="98.6" x2="323.2" y2="63.6" opacity="0.3" stroke="rgb(0,0,0)"  stroke-width="1.4"/>
<line x1="436.8" y1="133.1" x2="479.2" y2="123.7" opacity="0.5" stroke="rgb(0,0,0)"  stroke-width="1.6"/>
<line x1="436.8" y1="133.1" x2="431.0" y2="168.0" opacity="0.5" stroke="rgb(0,0,0)"  stroke-width="1.9"/>
<line x1="436.8" y1="133.1" x2="439.2" y2="122.5" opacity="0.6" stroke="rgb(0,0,0)"  stroke-width="2.3"/>
<line x1="275.6" y1="109.6" x2="237.9" y2="86.7" opacity="0.8" stroke="rgb(0,0,0)"  stroke-width="1.6"/>
<line x1="275.6" y1="109.6" x2="276.9" y2="100.1" opacity="0.5" stroke="rgb(0,0,0)"  stroke-width="2.3"/>
<line x1="275.6" y1="109.6" x2="270.4" y2="144.6" opacity="0.8" stroke="rgb(0,0,0)"  stroke-width="1.9"/>
<line x1="479.2" y1="123.7" x2="518.1" y2="146.4" opacity="0.6" stroke="rgb(0,0,0)"  stroke-width="1.6"/>
<line x1="479.2" y1="123.7" x2="485.0" y2="88.9" opacity="0.5" stroke="rgb(0,0,0)"  stroke-width="1.3"/>
<line x1="479.2" y1="123.7" x2="476.4" y2="133.9" opacity="0.4" stroke="rgb(0,0,0)"  stroke-width="0.9"/>
<line x1="237.9" y1="86.7" x2="194.0" y2="97.0" opacity="0.3" stroke="rgb(0,0,0)"  stroke-width="1.6"/>
<line x1="237.9" y1="86.7" x2="237.1" y2="95.6" opacity="0.5" stroke="rgb(0,0,0)"  stroke-width="1.0"/>
<line x1="237.9" y1="86.7" x2="243.1" y2="51.8" opacity="0.3" stroke="rgb(0,0,0)"  stroke-width="1.4"/>
<line x1="518.1" y1="146.4" x2="560.2" y2="138.9" opacity="0.5" stroke="rgb(0,0,0)"  stroke-width="1.5"/>
<line x1="518.1" y1="146.4" x2="511.7" y2="181.1" opacity="0.5" stroke="rgb(0,0,0)"  stroke-width="1.8"/>
<line x1="518.1" y1="146.4" x2="521.9" y2="135.1" opacity="0.6" stroke="rgb(0,0,0)"  stroke-width="2.2"/>
<line x1="194.0" y1="97.0" x2="154.5" y2="75.0" opacity="0.7" stroke="rgb(0,0,0)"  stroke-width="1.6"/>
<line x1="194.0" y1="97.0" x2="195.1" y2="88.8" opacity="0.5" stroke="rgb(0,0,0)"  stroke-width="2.2"/>
<line x1="194.0" y1="97.0" x2="189.7" y2="132.0" opacity="0.7" stroke="rgb(0,0,0)"  stroke-width="1.8"/>
<line x1="560.2" y1="138.9" x2="598.0" y2="161.9" opacity="0.6" stroke="rgb(0,0,0)"  stroke-width="1.5"/>
<line x1="560.2" y1="138.9" x2="566.9" y2="104.3" opacity="0.5" stroke="rgb(0,0,0)"  stroke-width="1.2"/>
<line x1="560.2" y1="138.9" x2="556.6" y2="150.7" opacity="0.4" stroke="rgb(0,0,0)"  stroke-width="0.8"/>
<line x1="154.5" y1="75.0" x2="110.9" y2="87.5" opacity="0.3" stroke="rgb(0,0,0)"  stroke-width="1.6"/>
<line x1="154.5" y1="75.0" x2="158.5" y2="40.0" opacity="0.5" stroke="rgb(0,0,0)"  stroke-width="1.4"/>
<line x1="154.5" y1="75.0" x2="153.9" y2="82.0" opacity="0.5" stroke="rgb(0,0,0)"  stroke-width="1.0"/>
<line x1="598.0" y1="161.9" x2="639.8" y2="155.6" opacity="0.3" stroke="rgb(0,0,0)"  stroke-width="1.4"/>
<line x1="598.0" y1="161.9" x2="602.0" y2="149.6" opacity="0.5" stroke="rgb(0,0,0)"  stroke-width="2.1"/>
<line x1="598.0" y1="161.9" x2="590.9" y2="196.5" opacity="0.7" stroke="rgb(0,0,0)"  stroke-width="1.8"/>
<line x1="110.9" y1="87.5" x2="96.8" y2="133.5" opacity="0.6" stroke="rgb(0,0,0)"  stroke-width="1.7"/>
<line x1="110.9" y1="87.5" x2="111.6" y2="80.9" opacity="0.6" stroke="rgb(0,0,0)"  stroke-width="2.2"/>
<line x1="110.9" y1="87.5" x2="86.0" y2="65.9" opacity="0.7" stroke="rgb(0,0,0)"  stroke-width="1.7"/>
<line x1="639.8" y1="155.6" x2="677.3" y2="179.2" opacity="0.6" stroke="rgb(0,0,0)"  stroke-width="1.4"/>
<line x1="639.8" y1="155.6" x2="647.5" y2="121.2" opacity="0.5" stroke="rgb(0,0,0)"  stroke-width="1.1"/>
<line x1="639.8" y1="155.6" x2="635.8" y2="167.4" opacity="0.4" stroke="rgb(0,0,0)"  stroke-width="0.8"/>
<line x1="677.3" y1="179.2" x2="671.0" y2="213.9" opacity="0.3" stroke="rgb(0,0,0)"  stroke-width="1.7"/>
<line x1="677.3" y1="179.2" x2="682.8" y2="167.5" opacity="0.6" stroke="rgb(0,0,0)"  stroke-width="2.0"/>
<line x1="677.3" y1="179.2" x2="706.9" y2="174.3" opacity="0.7" stroke="rgb(0,0,0)"  stroke-width="1.4"/>
<line x1="72.2" y1="144.0" x2="63.0" y2="119.4" opacity="0.5" stroke="rgb(0,0,0)"  stroke-width="0.5"/>
<line x1="108.4" y1="165.5" x2="127.5" y2="157.7" opacity="0.2" stroke="rgb(0,0,0)"  stroke-width="2.7"/>
<line x1="59.2" y1="186.5" x2="40.0" y2="194.7" opacity="0.9" stroke="rgb(0,0,0)"  stroke-width="0.4"/>
<line x1="95.4" y1="208.0" x2="104.4" y2="232.9" opacity="0.1" stroke="rgb(0,0,0)"  stroke-width="2.5"/>
<line x1="70.7" y1="218.5" x2="60.6" y2="251.6" opacity="0.8" stroke="rgb(0,0,0)"  stroke-width="1.3"/>
<line x1="94.0" y1="134.5" x2="105.6" y2="166.5" opacity="0.7" stroke="rgb(0,0,0)"  stroke-width="2.0"/>
<line x1="99.6" y1="132.4" x2="111.2" y2="164.4" opacity="0.7" stroke="rgb(0,0,0)"  stroke-width="2.0" stroke-dasharray="5.0,5.0"/>
<line x1="105.5" y1="164.6" x2="92.5" y2="207.1" opacity="0.8" stroke="rgb(0,0,0)"  stroke-width="2.3"/>
<line x1="111.3" y1="166.3" x2="98.2" y2="208.8" opacity="0.8" stroke="rgb(0,0,0)"  stroke-width="2.3" stroke-dasharray="5.0,5.0"/>
<line x1="94.2" y1="205.2" x2="69.6" y2="215.7" opacity="0.6" stroke="rgb(0,0,0)"  stroke-width="1.8"/>
<line x1="96.5" y1="210.7" x2="71.9" y2="221.2" opacity="0.6" stroke="rgb(0,0,0)"  stroke-width="1.8" stroke-dasharray="5.0,5.0"/>
<line x1="73.6" y1="217.4" x2="62.0" y2="185.5" opacity="0.3" stroke="rgb(0,0,0)"  stroke-width="1.0"/>
<line x1="67.9" y1="219.5" x2="56.3" y2="187.5" opacity="0.3" stroke="rgb(0,0,0)"  stroke-width="1.0" stroke-dasharray="5.0,5.0"/>
<line x1="62.0" y1="187.4" x2="75.1" y2="144.9" opacity="0.2" stroke="rgb(0,0,0)"  stroke-width="0.7"/>
<line x1="56.3" y1="185.6" x2="69.3" y2="143.1" opacity="0.2" stroke="rgb(0,0,0)"  stroke-width="0.7" stroke-dasharray="5.0,5.0"/>
<line x1="73.4" y1="146.7" x2="98.0" y2="136.2" opacity="0.4" stroke="rgb(0,0,0)"  stroke-width="1.2"/>
<line x1="71.0" y1="141.2" x2="95.6" y2="130.7" opacity="0.4" stroke="rgb(0,0,0)"  stroke-width="1.2" stroke-dasharray="5.0,5.0"/>
<circle cx="40.000000" cy="194.680270" r="5.636364" opacity="0.200000" style="stroke:black;stroke-width:0.5;fill:url(#radialffffffbfbfbf)"/>
<circle cx="63.045855" cy="119.362973" r="5.636364" opacity="0.301152" style="stroke:black;stroke-width:0.5;fill:url(#radialffffffbfbfbf)"/>
<circle cx="635.849301" cy="167.434002" r="5.636364" opacity="0.353598" style="stroke:black;stroke-width:0.5;fill:url(#radialffffffbfbfbf)"/>
<circle cx="556.631391" cy="150.741957" r="5.636364" opacity="0.388174" style="stroke:black;stroke-width:0.5;fill:url(#radialffffffbfbfbf)"/>
<circle cx="476.378691" cy="133.875834" r="5.636364" opacity="0.424303" style="stroke:black;stroke-width:0.5;fill:url(#radialffffffbfbfbf)"/>
<circle cx="153.862447" cy="81.981559" r="5.636364" opacity="0.428240" style="stroke:black;stroke-width:0.5;fill:url(#radialffffffbfbfbf)"/>
<circle cx="237.129258" cy="95.630482" r="5.636364" opacity="0.432199" style="stroke:black;stroke-width:0.5;fill:url(#radialffffffbfbfbf)"/>
<circle cx="317.178868" cy="108.811976" r="5.636364" opacity="0.435432" style="stroke:black;stroke-width:0.5;fill:url(#radialffffffbfbfbf)"/>
<circle cx="397.080191" cy="120.517039" r="5.636364" opacity="0.435633" style="stroke:black;stroke-width:0.5;fill:url(#radialffffffbfbfbf)"/>
<circle cx="59.154912" cy="186.485758" r="13.818182" opacity="0.467552" style="stroke:black;stroke-width:0.5;fill:url(#radialffffff666666)"/>
<circle cx="72.207460" cy="143.981968" r="13.818182" opacity="0.520385" style="stroke:black;stroke-width:0.5;fill:url(#radialffffff666666)"/>
<circle cx="647.525351" cy="121.168216" r="5.636364" opacity="0.604836" style="stroke:black;stroke-width:0.5;fill:url(#radialffffffbfbfbf)"/>
<circle cx="639.846623" cy="155.599993" r="13.818182" opacity="0.617986" style="stroke:black;stroke-width:0.5;fill:url(#radialffffff666666)"/>
<circle cx="566.856801" cy="104.279528" r="5.636364" opacity="0.627138" style="stroke:black;stroke-width:0.5;fill:url(#radialffffffbfbfbf)"/>
<circle cx="706.856580" cy="174.252016" r="5.636364" opacity="0.633556" style="stroke:black;stroke-width:0.5;fill:url(#radialffffffbfbfbf)"/>
<circle cx="60.576541" cy="251.564750" r="5.636364" opacity="0.637516" style="stroke:black;stroke-width:0.5;fill:url(#radialffffffbfbfbf)"/>
<circle cx="560.209640" cy="138.946631" r="13.818182" opacity="0.638851" style="stroke:black;stroke-width:0.5;fill:url(#radialffffff666666)"/>
<circle cx="485.021290" cy="88.851152" r="5.636364" opacity="0.663430" style="stroke:black;stroke-width:0.5;fill:url(#radialffffffbfbfbf)"/>
<circle cx="479.231619" cy="123.737463" r="13.818182" opacity="0.665108" style="stroke:black;stroke-width:0.5;fill:url(#radialffffff666666)"/>
<circle cx="70.734254" cy="218.470787" r="13.818182" opacity="0.668638" style="stroke:black;stroke-width:0.5;fill:url(#radialffffff666666)"/>
<circle cx="318.358723" cy="98.612356" r="13.818182" opacity="0.672634" style="stroke:black;stroke-width:0.5;fill:url(#radialffffff666666)"/>
<circle cx="398.933788" cy="110.339985" r="13.818182" opacity="0.672672" style="stroke:black;stroke-width:0.5;fill:url(#radialffffff666666)"/>
<circle cx="237.886815" cy="86.733215" r="13.818182" opacity="0.672802" style="stroke:black;stroke-width:0.5;fill:url(#radialffffff666666)"/>
<circle cx="154.484611" cy="74.992692" r="13.818182" opacity="0.672839" style="stroke:black;stroke-width:0.5;fill:url(#radialffffff666666)"/>
<circle cx="404.397870" cy="75.408542" r="5.636364" opacity="0.673211" style="stroke:black;stroke-width:0.5;fill:url(#radialffffffbfbfbf)"/>
<circle cx="323.152286" cy="63.584204" r="5.636364" opacity="0.673639" style="stroke:black;stroke-width:0.5;fill:url(#radialffffffbfbfbf)"/>
<circle cx="243.086558" cy="51.775984" r="5.636364" opacity="0.680170" style="stroke:black;stroke-width:0.5;fill:url(#radialffffffbfbfbf)"/>
<circle cx="158.520618" cy="40.000000" r="5.636364" opacity="0.690875" style="stroke:black;stroke-width:0.5;fill:url(#radialffffffbfbfbf)"/>
<circle cx="86.046578" cy="65.927795" r="5.716266" opacity="0.712101" style="stroke:black;stroke-width:0.5;fill:url(#radialffffffbfbfbf)"/>
<circle cx="677.257050" cy="179.245446" r="15.075198" opacity="0.738569" style="stroke:black;stroke-width:0.5;fill:url(#radialffffff666666)"/>
<circle cx="96.826455" cy="133.459983" r="15.241324" opacity="0.742627" style="stroke:black;stroke-width:0.5;fill:url(#radialffffff666666)"/>
<circle cx="671.028964" cy="213.944786" r="6.284900" opacity="0.746680" style="stroke:black;stroke-width:0.5;fill:url(#radialffffffbfbfbf)"/>
<circle cx="598.000457" cy="161.918342" r="15.972968" opacity="0.760243" style="stroke:black;stroke-width:0.5;fill:url(#radialffffff666666)"/>
<circle cx="189.696511" cy="132.028684" r="6.704740" opacity="0.771217" style="stroke:black;stroke-width:0.5;fill:url(#radialffffffbfbfbf)"/>
<circle cx="590.911657" cy="196.462947" r="6.744268" opacity="0.773487" style="stroke:black;stroke-width:0.5;fill:url(#radialffffffbfbfbf)"/>
<circle cx="518.141042" cy="146.367467" r="16.577250" opacity="0.774490" style="stroke:black;stroke-width:0.5;fill:url(#radialffffff666666)"/>
<circle cx="110.942807" cy="87.500443" r="16.798750" opacity="0.779647" style="stroke:black;stroke-width:0.5;fill:url(#radialffffff666666)"/>
<circle cx="194.012975" cy="97.003756" r="16.810518" opacity="0.779920" style="stroke:black;stroke-width:0.5;fill:url(#radialffffff666666)"/>
<circle cx="511.684077" cy="181.105491" r="6.906614" opacity="0.782741" style="stroke:black;stroke-width:0.5;fill:url(#radialffffffbfbfbf)"/>
<circle cx="270.423087" cy="144.581567" r="6.948118" opacity="0.785089" style="stroke:black;stroke-width:0.5;fill:url(#radialffffffbfbfbf)"/>
<circle cx="436.772960" cy="133.102158" r="17.229292" opacity="0.789575" style="stroke:black;stroke-width:0.5;fill:url(#radialffffff666666)"/>
<circle cx="275.609936" cy="109.624335" r="17.231369" opacity="0.789622" style="stroke:black;stroke-width:0.5;fill:url(#radialffffff666666)"/>
<circle cx="431.041315" cy="167.985246" r="7.064160" opacity="0.791618" style="stroke:black;stroke-width:0.5;fill:url(#radialffffffbfbfbf)"/>
<circle cx="356.307499" cy="120.507368" r="17.359424" opacity="0.792551" style="stroke:black;stroke-width:0.5;fill:url(#radialffffff666666)"/>
<circle cx="351.201242" cy="155.493613" r="7.116393" opacity="0.794539" style="stroke:black;stroke-width:0.5;fill:url(#radialffffffbfbfbf)"/>
<circle cx="95.356472" cy="207.955249" r="20.112262" opacity="0.853080" style="stroke:black;stroke-width:0.5;fill:url(#radialffffff666666)"/>
<circle cx="108.405796" cy="165.451459" r="21.555478" opacity="0.883158" style="stroke:black;stroke-width:0.5;fill:url(#radialffffff666666)"/>
<circle cx="682.779158" cy="167.492028" r="9.023038" opacity="0.894668" style="stroke:black;stroke-width:0.5;fill:url(#radialffffffbfbfbf)"/>
<circle cx="601.981662" cy="149.587891" r="9.396857" opacity="0.913013" style="stroke:black;stroke-width:0.5;fill:url(#radialffffffbfbfbf)"/>
<circle cx="521.919157" cy="135.107267" r="9.679197" opacity="0.926627" style="stroke:black;stroke-width:0.5;fill:url(#radialffffffbfbfbf)"/>
<circle cx="195.067107" cy="88.831810" r="9.870342" opacity="0.935732" style="stroke:black;stroke-width:0.5;fill:url(#radialffffffbfbfbf)"/>
<circle cx="111.645562" cy="80.885519" r="9.896882" opacity="0.936989" style="stroke:black;stroke-width:0.5;fill:url(#radialffffffbfbfbf)"/>
<circle cx="439.152012" cy="122.502806" r="9.974243" opacity="0.940644" style="stroke:black;stroke-width:0.5;fill:url(#radialffffffbfbfbf)"/>
<circle cx="276.902618" cy="100.143588" r="10.009253" opacity="0.942294" style="stroke:black;stroke-width:0.5;fill:url(#radialffffffbfbfbf)"/>
<circle cx="357.877415" cy="109.808083" r="10.029017" opacity="0.943224" style="stroke:black;stroke-width:0.5;fill:url(#radialffffffbfbfbf)"/>
<circle cx="104.356895" cy="232.864372" r="10.209433" opacity="0.951670" style="stroke:black;stroke-width:0.5;fill:url(#radialffffffbfbfbf)"/>
<circle cx="127.512354" cy="157.682469" r="11.272727" opacity="1.000000" style="stroke:black;stroke-width:0.5;fill:url(#radialffffffbfbfbf)"/>
</svg>
</g>
</svg>
