<?xml version="1.0"?>
<svg version="1.1" id="topsvg"
xmlns="http://www.w3.org/2000/svg" xmlns:xlink="http://www.w3.org/1999/xlink"
xmlns:cml="http://www.xml-cml.org/schema" x="0" y="0" width="200px" height="200px" viewBox="0 0 100 100">
<title>16664 - Open Babel Depiction</title>
<rect x="0" y="0" width="100" height="100" fill="white"/>
<defs>
<radialGradient id='radialffffff666666' cx='50%' cy='50%' r='50%' fx='30%' fy='30%'>
  <stop offset=' 0%' stop-color="rgb(255,255,255)"  stop-opacity='1.0'/>
  <stop offset='100%' stop-color="rgb(102,102,102)"  stop-opacity ='1.0'/>
</radialGradient>
<radialGradient id='radialffffffbfbfbf' cx='50%' cy='50%' r='50%' fx='30%' fy='30%'>
  <stop offset=' 0%' stop-color="rgb(255,255,255)"  stop-opacity='1.0'/>
  <stop offset='100%' stop-color="rgb(191,191,191)"  stop-opacity ='1.0'/>
</radialGradient>
</defs>
<g transform="translate(0,0)">
<svg width="100" height="100" x="0" y="0" viewBox="0 0 364.133 256.769"
font-family="sans-serif" stroke="rgb(0,0,0)" stroke-width="2"  stroke-linecap="round">
<line x1="274.2" y1="145.7" x2="227.3" y2="138.8" opacity="1.0" stroke="rgb(0,0,0)"  stroke-width="0.9"/>
<line x1="274.2" y1="145.7" x2="290.4" y2="109.0" opacity="0.3" stroke="rgb(0,0,0)"  stroke-width="1.7"/>
<line x1="274.2" y1="145.7" x2="278.9" y2="190.2" opacity="0.6" stroke="rgb(0,0,0)"  stroke-width="1.5"/>
<line x1="278.6" y1="145.0" x2="278.6" y2="146.6" opacity="0.5" stroke="rgb(0,0,0)"  stroke-width="1.0"/>
<line x1="282.1" y1="144.5" x2="282.0" y2="147.4" opacity="0.5" stroke="rgb(0,0,0)"  stroke-width="1.0"/>
<line x1="285.6" y1="143.9" x2="285.5" y2="148.1" opacity="0.5" stroke="rgb(0,0,0)"  stroke-width="1.0"/>
<line x1="289.2" y1="143.4" x2="289.0" y2="148.8" opacity="0.5" stroke="rgb(0,0,0)"  stroke-width="1.0"/>
<line x1="292.7" y1="142.9" x2="292.5" y2="149.6" opacity="0.5" stroke="rgb(0,0,0)"  stroke-width="1.0"/>
<line x1="296.2" y1="142.3" x2="296.0" y2="150.3" opacity="0.5" stroke="rgb(0,0,0)"  stroke-width="1.0"/>
<line x1="227.3" y1="138.8" x2="191.2" y2="137.5" opacity="0.5" stroke="rgb(0,0,0)"  stroke-width="1.2"/>
<line x1="227.3" y1="138.8" x2="219.9" y2="165.4" opacity="0.4" stroke="rgb(0,0,0)"  stroke-width="0.4"/>
<line x1="227.3" y1="138.8" x2="226.3" y2="108.6" opacity="0.1" stroke="rgb(0,0,0)"  stroke-width="0.4"/>
<line x1="191.2" y1="137.5" x2="146.5" y2="128.0" opacity="0.1" stroke="rgb(0,0,0)"  stroke-width="1.4"/>
<line x1="191.2" y1="137.5" x2="198.4" y2="112.0" opacity="0.5" stroke="rgb(0,0,0)"  stroke-width="2.1"/>
<line x1="191.2" y1="137.5" x2="189.8" y2="168.9" opacity="0.7" stroke="rgb(0,0,0)"  stroke-width="2.0"/>
<line x1="290.4" y1="109.0" x2="290.2" y2="63.8" opacity="0.7" stroke="rgb(0,0,0)"  stroke-width="1.8"/>
<line x1="290.4" y1="109.0" x2="270.9" y2="108.2" opacity="0.6" stroke="rgb(0,0,0)"  stroke-width="2.6"/>
<line x1="290.4" y1="109.0" x2="324.1" y2="116.5" opacity="0.9" stroke="rgb(0,0,0)"  stroke-width="2.3"/>
<line x1="146.5" y1="128.0" x2="110.1" y2="127.9" opacity="0.8" stroke="rgb(0,0,0)"  stroke-width="1.6"/>
<line x1="146.5" y1="128.0" x2="147.4" y2="96.2" opacity="0.5" stroke="rgb(0,0,0)"  stroke-width="0.9"/>
<line x1="146.5" y1="128.0" x2="139.3" y2="152.9" opacity="0.3" stroke="rgb(0,0,0)"  stroke-width="0.7"/>
<line x1="278.9" y1="190.2" x2="267.3" y2="216.8" opacity="0.2" stroke="rgb(0,0,0)"  stroke-width="1.6"/>
<line x1="278.9" y1="190.2" x2="313.3" y2="196.8" opacity="0.5" stroke="rgb(0,0,0)"  stroke-width="2.0"/>
<line x1="278.9" y1="190.2" x2="260.4" y2="191.4" opacity="0.7" stroke="rgb(0,0,0)"  stroke-width="2.3"/>
<line x1="110.1" y1="127.9" x2="65.5" y2="119.6" opacity="0.8" stroke="rgb(0,0,0)"  stroke-width="1.8"/>
<line x1="110.1" y1="127.9" x2="116.7" y2="102.5" opacity="0.6" stroke="rgb(0,0,0)"  stroke-width="2.5"/>
<line x1="110.1" y1="127.9" x2="109.5" y2="159.4" opacity="0.8" stroke="rgb(0,0,0)"  stroke-width="2.4"/>
<line x1="290.2" y1="63.8" x2="305.7" y2="40.0" opacity="0.8" stroke="rgb(0,0,0)"  stroke-width="1.8"/>
<line x1="290.2" y1="63.8" x2="256.8" y2="52.4" opacity="0.6" stroke="rgb(0,0,0)"  stroke-width="1.4"/>
<line x1="290.2" y1="63.8" x2="308.4" y2="63.8" opacity="0.5" stroke="rgb(0,0,0)"  stroke-width="1.0"/>
<line x1="65.5" y1="119.6" x2="64.7" y2="87.8" opacity="0.3" stroke="rgb(0,0,0)"  stroke-width="1.3"/>
<line x1="65.5" y1="119.6" x2="57.4" y2="145.1" opacity="0.4" stroke="rgb(0,0,0)"  stroke-width="1.2"/>
<line x1="65.5" y1="119.6" x2="40.0" y2="119.6" opacity="0.4" stroke="rgb(0,0,0)"  stroke-width="1.9"/>
<circle cx="219.931969" cy="165.397395" r="5.636364" opacity="0.200000" style="stroke:black;stroke-width:0.5;fill:url(#radialffffffbfbfbf)"/>
<circle cx="226.337389" cy="108.581259" r="5.636364" opacity="0.200000" style="stroke:black;stroke-width:0.5;fill:url(#radialffffffbfbfbf)"/>
<circle cx="296.079097" cy="146.302427" r="5.636364" opacity="0.347081" style="stroke:black;stroke-width:0.5;fill:url(#radialffffffbfbfbf)"/>
<circle cx="139.300392" cy="152.943870" r="5.636364" opacity="0.349348" style="stroke:black;stroke-width:0.5;fill:url(#radialffffffbfbfbf)"/>
<circle cx="308.408054" cy="63.831832" r="5.636364" opacity="0.439305" style="stroke:black;stroke-width:0.5;fill:url(#radialffffffbfbfbf)"/>
<circle cx="147.390758" cy="96.232633" r="5.636364" opacity="0.449671" style="stroke:black;stroke-width:0.5;fill:url(#radialffffffbfbfbf)"/>
<circle cx="227.343767" cy="138.831623" r="13.818182" opacity="0.476863" style="stroke:black;stroke-width:0.5;fill:url(#radialffffff666666)"/>
<circle cx="57.449359" cy="145.073137" r="5.636364" opacity="0.517837" style="stroke:black;stroke-width:0.5;fill:url(#radialffffffbfbfbf)"/>
<circle cx="64.720199" cy="87.814456" r="5.636364" opacity="0.582876" style="stroke:black;stroke-width:0.5;fill:url(#radialffffffbfbfbf)"/>
<circle cx="146.495835" cy="128.033541" r="13.818182" opacity="0.605700" style="stroke:black;stroke-width:0.5;fill:url(#radialffffff666666)"/>
<circle cx="274.214129" cy="145.718924" r="13.818182" opacity="0.633799" style="stroke:black;stroke-width:0.5;fill:url(#radialffffff666666)"/>
<circle cx="267.277656" cy="216.768597" r="5.636364" opacity="0.646333" style="stroke:black;stroke-width:0.5;fill:url(#radialffffffbfbfbf)"/>
<circle cx="256.827054" cy="52.368295" r="5.636364" opacity="0.658848" style="stroke:black;stroke-width:0.5;fill:url(#radialffffffbfbfbf)"/>
<circle cx="290.211287" cy="63.789216" r="13.818182" opacity="0.704893" style="stroke:black;stroke-width:0.5;fill:url(#radialffffff666666)"/>
<circle cx="65.500388" cy="119.589140" r="13.914345" opacity="0.709563" style="stroke:black;stroke-width:0.5;fill:url(#radialffffff666666)"/>
<circle cx="191.241984" cy="137.477765" r="15.761934" opacity="0.755204" style="stroke:black;stroke-width:0.5;fill:url(#radialffffff666666)"/>
<circle cx="278.882152" cy="190.222493" r="17.300552" opacity="0.791206" style="stroke:black;stroke-width:0.5;fill:url(#radialffffff666666)"/>
<circle cx="313.315379" cy="196.804930" r="7.920110" opacity="0.838207" style="stroke:black;stroke-width:0.5;fill:url(#radialffffffbfbfbf)"/>
<circle cx="290.391583" cy="109.036916" r="19.438413" opacity="0.838668" style="stroke:black;stroke-width:0.5;fill:url(#radialffffff666666)"/>
<circle cx="110.131803" cy="127.866358" r="19.503412" opacity="0.840069" style="stroke:black;stroke-width:0.5;fill:url(#radialffffff666666)"/>
<circle cx="305.713451" cy="40.000000" r="8.033788" opacity="0.844201" style="stroke:black;stroke-width:0.5;fill:url(#radialffffffbfbfbf)"/>
<circle cx="189.816008" cy="168.852519" r="8.359208" opacity="0.861129" style="stroke:black;stroke-width:0.5;fill:url(#radialffffffbfbfbf)"/>
<circle cx="40.000000" cy="119.562915" r="8.471434" opacity="0.866890" style="stroke:black;stroke-width:0.5;fill:url(#radialffffffbfbfbf)"/>
<circle cx="324.133130" cy="116.461826" r="9.042007" opacity="0.895608" style="stroke:black;stroke-width:0.5;fill:url(#radialffffffbfbfbf)"/>
<circle cx="198.371865" cy="112.023270" r="9.120820" opacity="0.899503" style="stroke:black;stroke-width:0.5;fill:url(#radialffffffbfbfbf)"/>
<circle cx="109.456513" cy="159.411573" r="9.861730" opacity="0.935324" style="stroke:black;stroke-width:0.5;fill:url(#radialffffffbfbfbf)"/>
<circle cx="260.406746" cy="191.445227" r="10.462085" opacity="0.963373" style="stroke:black;stroke-width:0.5;fill:url(#radialffffffbfbfbf)"/>
<circle cx="116.727353" cy="102.483982" r="10.677457" opacity="0.973239" style="stroke:black;stroke-width:0.5;fill:url(#radialffffffbfbfbf)"/>
<circle cx="270.922910" cy="108.194442" r="11.272727" opacity="1.000000" style="stroke:black;stroke-width:0.5;fill:url(#radialffffffbfbfbf)"/>
</svg>
</g>
</svg>
