<?xml version="1.0"?>
<svg version="1.1" id="topsvg"
xmlns="http://www.w3.org/2000/svg" xmlns:xlink="http://www.w3.org/1999/xlink"
xmlns:cml="http://www.xml-cml.org/schema" x="0" y="0" width="200px" height="200px" viewBox="0 0 100 100">
<title>16665 - Open Babel Depiction</title>
<rect x="0" y="0" width="100" height="100" fill="white"/>
<defs>
<radialGradient id='radialffffff666666' cx='50%' cy='50%' r='50%' fx='30%' fy='30%'>
  <stop offset=' 0%' stop-color="rgb(255,255,255)"  stop-opacity='1.0'/>
  <stop offset='100%' stop-color="rgb(102,102,102)"  stop-opacity ='1.0'/>
</radialGradient>
<radialGradient id='radialffffffbfbfbf' cx='50%' cy='50%' r='50%' fx='30%' fy='30%'>
  <stop offset=' 0%' stop-color="rgb(255,255,255)"  stop-opacity='1.0'/>
  <stop offset='100%' stop-color="rgb(191,191,191)"  stop-opacity ='1.0'/>
</radialGradient>
</defs>
<g transform="translate(0,0)">
<svg width="100" height="100" x="0" y="0" viewBox="0 0 398.179 234.025"
font-family="sans-serif" stroke="rgb(0,0,0)" stroke-width="2"  stroke-linecap="round">
<line x1="175.2" y1="139.7" x2="222.7" y2="132.3" opacity="1.0" stroke="rgb(0,0,0)"  stroke-width="2.0"/>
<line x1="175.2" y1="139.7" x2="147.8" y2="97.4" opacity="0.7" stroke="rgb(0,0,0)"  stroke-width="1.7"/>
<line x1="175.2" y1="139.7" x2="175.3" y2="166.2" opacity="0.6" stroke="rgb(0,0,0)"  stroke-width="1.3"/>
<polygon points="175.152826 139.732945 162.453747 162.514267 156.146113 157.593519 " stroke-width="1.261308" fill="rgb(0,0,0)"  stroke="rgb(0,0,0)" />
<line x1="222.7" y1="132.3" x2="250.8" y2="106.7" opacity="0.4" stroke="rgb(0,0,0)"  stroke-width="1.8"/>
<line x1="222.7" y1="132.3" x2="238.1" y2="164.2" opacity="0.6" stroke="rgb(0,0,0)"  stroke-width="2.3"/>
<line x1="222.7" y1="132.3" x2="221.9" y2="114.8" opacity="0.8" stroke="rgb(0,0,0)"  stroke-width="2.6"/>
<line x1="147.8" y1="97.4" x2="99.1" y2="104.4" opacity="0.9" stroke="rgb(0,0,0)"  stroke-width="1.6"/>
<line x1="147.8" y1="97.4" x2="161.8" y2="76.8" opacity="0.5" stroke="rgb(0,0,0)"  stroke-width="1.4"/>
<line x1="147.8" y1="97.4" x2="150.8" y2="78.6" opacity="0.5" stroke="rgb(0,0,0)"  stroke-width="2.1"/>
<line x1="250.8" y1="106.7" x2="297.3" y2="99.9" opacity="0.7" stroke="rgb(0,0,0)"  stroke-width="1.6"/>
<line x1="250.8" y1="106.7" x2="252.7" y2="124.1" opacity="0.5" stroke="rgb(0,0,0)"  stroke-width="1.0"/>
<line x1="250.8" y1="106.7" x2="236.0" y2="74.6" opacity="0.3" stroke="rgb(0,0,0)"  stroke-width="1.3"/>
<line x1="175.3" y1="166.2" x2="184.6" y2="146.1" opacity="0.4" stroke="rgb(0,0,0)"  stroke-width="0.4"/>
<line x1="175.3" y1="166.2" x2="142.7" y2="179.7" opacity="0.1" stroke="rgb(0,0,0)"  stroke-width="0.6"/>
<line x1="175.3" y1="166.2" x2="197.9" y2="194.0" opacity="0.2" stroke="rgb(0,0,0)"  stroke-width="0.7"/>
<line x1="99.1" y1="104.4" x2="74.7" y2="60.9" opacity="0.2" stroke="rgb(0,0,0)"  stroke-width="1.4"/>
<line x1="99.1" y1="104.4" x2="84.4" y2="124.9" opacity="0.5" stroke="rgb(0,0,0)"  stroke-width="1.8"/>
<line x1="99.1" y1="104.4" x2="94.9" y2="121.5" opacity="0.6" stroke="rgb(0,0,0)"  stroke-width="1.0"/>
<line x1="297.3" y1="99.9" x2="325.1" y2="73.5" opacity="0.3" stroke="rgb(0,0,0)"  stroke-width="1.4"/>
<line x1="297.3" y1="99.9" x2="312.9" y2="131.7" opacity="0.5" stroke="rgb(0,0,0)"  stroke-width="1.9"/>
<line x1="297.3" y1="99.9" x2="296.1" y2="82.7" opacity="0.6" stroke="rgb(0,0,0)"  stroke-width="2.2"/>
<line x1="74.7" y1="60.9" x2="88.1" y2="40.0" opacity="0.7" stroke="rgb(0,0,0)"  stroke-width="1.1"/>
<line x1="74.7" y1="60.9" x2="77.1" y2="43.2" opacity="0.4" stroke="rgb(0,0,0)"  stroke-width="1.8"/>
<line x1="74.7" y1="60.9" x2="40.0" y2="66.5" opacity="0.6" stroke="rgb(0,0,0)"  stroke-width="1.3"/>
<line x1="325.1" y1="73.5" x2="310.9" y2="41.0" opacity="0.4" stroke="rgb(0,0,0)"  stroke-width="0.9"/>
<line x1="325.1" y1="73.5" x2="327.8" y2="90.3" opacity="0.3" stroke="rgb(0,0,0)"  stroke-width="0.6"/>
<line x1="325.1" y1="73.5" x2="358.2" y2="69.1" opacity="0.2" stroke="rgb(0,0,0)"  stroke-width="1.2"/>
<circle cx="184.597035" cy="146.089183" r="5.636364" opacity="0.200000" style="stroke:black;stroke-width:0.5;fill:url(#radialffffffbfbfbf)"/>
<circle cx="327.781209" cy="90.282791" r="5.636364" opacity="0.256196" style="stroke:black;stroke-width:0.5;fill:url(#radialffffffbfbfbf)"/>
<circle cx="142.702905" cy="179.712665" r="5.636364" opacity="0.427502" style="stroke:black;stroke-width:0.5;fill:url(#radialffffffbfbfbf)"/>
<circle cx="252.725809" cy="124.112794" r="5.636364" opacity="0.436416" style="stroke:black;stroke-width:0.5;fill:url(#radialffffffbfbfbf)"/>
<circle cx="94.921304" cy="121.450976" r="5.636364" opacity="0.462638" style="stroke:black;stroke-width:0.5;fill:url(#radialffffffbfbfbf)"/>
<circle cx="175.277394" cy="166.197054" r="13.818182" opacity="0.489244" style="stroke:black;stroke-width:0.5;fill:url(#radialffffff666666)"/>
<circle cx="88.109410" cy="40.000000" r="5.636364" opacity="0.490294" style="stroke:black;stroke-width:0.5;fill:url(#radialffffffbfbfbf)"/>
<circle cx="197.873345" cy="194.024854" r="5.636364" opacity="0.506662" style="stroke:black;stroke-width:0.5;fill:url(#radialffffffbfbfbf)"/>
<circle cx="310.892433" cy="41.039158" r="5.636364" opacity="0.534641" style="stroke:black;stroke-width:0.5;fill:url(#radialffffffbfbfbf)"/>
<circle cx="325.080054" cy="73.515305" r="13.818182" opacity="0.577655" style="stroke:black;stroke-width:0.5;fill:url(#radialffffff666666)"/>
<circle cx="161.784731" cy="76.836021" r="5.636364" opacity="0.584853" style="stroke:black;stroke-width:0.5;fill:url(#radialffffffbfbfbf)"/>
<circle cx="40.000000" cy="66.496890" r="5.636364" opacity="0.633106" style="stroke:black;stroke-width:0.5;fill:url(#radialffffffbfbfbf)"/>
<circle cx="235.981269" cy="74.590522" r="5.636364" opacity="0.633194" style="stroke:black;stroke-width:0.5;fill:url(#radialffffffbfbfbf)"/>
<circle cx="358.179040" cy="69.076756" r="5.636364" opacity="0.666998" style="stroke:black;stroke-width:0.5;fill:url(#radialffffffbfbfbf)"/>
<circle cx="250.765504" cy="106.663462" r="13.818182" opacity="0.675303" style="stroke:black;stroke-width:0.5;fill:url(#radialffffff666666)"/>
<circle cx="74.741314" cy="60.901172" r="13.818182" opacity="0.678404" style="stroke:black;stroke-width:0.5;fill:url(#radialffffff666666)"/>
<circle cx="99.100883" cy="104.385182" r="13.818182" opacity="0.692437" style="stroke:black;stroke-width:0.5;fill:url(#radialffffff666666)"/>
<circle cx="147.836411" cy="97.415939" r="15.541085" opacity="0.749895" style="stroke:black;stroke-width:0.5;fill:url(#radialffffff666666)"/>
<circle cx="175.152826" cy="139.732945" r="16.623613" opacity="0.775572" style="stroke:black;stroke-width:0.5;fill:url(#radialffffff666666)"/>
<circle cx="297.275201" cy="99.871237" r="16.694297" opacity="0.777219" style="stroke:black;stroke-width:0.5;fill:url(#radialffffff666666)"/>
<circle cx="312.908465" cy="131.704876" r="7.364205" opacity="0.808255" style="stroke:black;stroke-width:0.5;fill:url(#radialffffffbfbfbf)"/>
<circle cx="84.392044" cy="124.945431" r="7.844622" opacity="0.834203" style="stroke:black;stroke-width:0.5;fill:url(#radialffffffbfbfbf)"/>
<circle cx="77.098269" cy="43.192870" r="8.163334" opacity="0.850980" style="stroke:black;stroke-width:0.5;fill:url(#radialffffffbfbfbf)"/>
<circle cx="222.652510" cy="132.321159" r="20.274555" opacity="0.856515" style="stroke:black;stroke-width:0.5;fill:url(#radialffffff666666)"/>
<circle cx="238.072697" cy="164.181022" r="8.887877" opacity="0.887942" style="stroke:black;stroke-width:0.5;fill:url(#radialffffffbfbfbf)"/>
<circle cx="159.299930" cy="160.053893" r="9.185278" opacity="0.902675" style="stroke:black;stroke-width:0.5;fill:url(#radialffffffbfbfbf)"/>
<circle cx="150.839151" cy="78.638977" r="9.259550" opacity="0.906318" style="stroke:black;stroke-width:0.5;fill:url(#radialffffffbfbfbf)"/>
<circle cx="296.104919" cy="82.680875" r="9.824268" opacity="0.933546" style="stroke:black;stroke-width:0.5;fill:url(#radialffffffbfbfbf)"/>
<circle cx="221.947718" cy="114.806265" r="11.272727" opacity="1.000000" style="stroke:black;stroke-width:0.5;fill:url(#radialffffffbfbfbf)"/>
</svg>
</g>
</svg>
