<?xml version="1.0"?>
<svg version="1.1" id="topsvg"
xmlns="http://www.w3.org/2000/svg" xmlns:xlink="http://www.w3.org/1999/xlink"
xmlns:cml="http://www.xml-cml.org/schema" x="0" y="0" width="1024px" height="1024px" viewBox="0 0 100 100">
<title>17186 - Open Babel Depiction</title>
<rect x="0" y="0" width="100" height="100" fill="white"/>
<defs>
<radialGradient id='radialffffff1eef1e' cx='50%' cy='50%' r='50%' fx='30%' fy='30%'>
  <stop offset=' 0%' stop-color="rgb(255,255,255)"  stop-opacity='1.0'/>
  <stop offset='100%' stop-color="rgb(30,239,30)"  stop-opacity ='1.0'/>
</radialGradient>
<radialGradient id='radialffffff666666' cx='50%' cy='50%' r='50%' fx='30%' fy='30%'>
  <stop offset=' 0%' stop-color="rgb(255,255,255)"  stop-opacity='1.0'/>
  <stop offset='100%' stop-color="rgb(102,102,102)"  stop-opacity ='1.0'/>
</radialGradient>
<radialGradient id='radialffffffbfbfbf' cx='50%' cy='50%' r='50%' fx='30%' fy='30%'>
  <stop offset=' 0%' stop-color="rgb(255,255,255)"  stop-opacity='1.0'/>
  <stop offset='100%' stop-color="rgb(191,191,191)"  stop-opacity ='1.0'/>
</radialGradient>
</defs>
<g transform="translate(0,0)">
<svg width="100" height="100" x="0" y="0" viewBox="0 0 546.83 186.906"
font-family="sans-serif" stroke="rgb(0,0,0)" stroke-width="2"  stroke-linecap="round">
<line x1="488.3" y1="44.6" x2="479.9" y2="94.8" opacity="1.0" stroke="rgb(0,0,0)"  stroke-width="1.4"/>
<line x1="273.2" y1="105.1" x2="314.7" y2="83.6" opacity="0.5" stroke="rgb(0,0,0)"  stroke-width="1.5"/>
<line x1="273.2" y1="105.1" x2="232.4" y2="81.1" opacity="0.5" stroke="rgb(0,0,0)"  stroke-width="1.4"/>
<line x1="273.2" y1="105.1" x2="274.0" y2="107.4" opacity="0.5" stroke="rgb(0,0,0)"  stroke-width="0.6"/>
<line x1="273.2" y1="105.1" x2="271.8" y2="138.1" opacity="0.2" stroke="rgb(0,0,0)"  stroke-width="1.4"/>
<line x1="314.7" y1="83.6" x2="355.3" y2="109.0" opacity="0.5" stroke="rgb(0,0,0)"  stroke-width="1.5"/>
<line x1="314.7" y1="83.6" x2="313.3" y2="79.7" opacity="0.5" stroke="rgb(0,0,0)"  stroke-width="2.3"/>
<line x1="314.7" y1="83.6" x2="316.9" y2="51.3" opacity="0.8" stroke="rgb(0,0,0)"  stroke-width="1.5"/>
<line x1="232.4" y1="81.1" x2="189.9" y2="100.7" opacity="0.5" stroke="rgb(0,0,0)"  stroke-width="1.4"/>
<line x1="232.4" y1="81.1" x2="231.9" y2="79.2" opacity="0.5" stroke="rgb(0,0,0)"  stroke-width="2.3"/>
<line x1="232.4" y1="81.1" x2="234.4" y2="47.9" opacity="0.8" stroke="rgb(0,0,0)"  stroke-width="1.5"/>
<line x1="355.3" y1="109.0" x2="398.1" y2="88.2" opacity="0.5" stroke="rgb(0,0,0)"  stroke-width="1.6"/>
<line x1="355.3" y1="109.0" x2="353.2" y2="140.9" opacity="0.5" stroke="rgb(0,0,0)"  stroke-width="1.6"/>
<line x1="355.3" y1="109.0" x2="355.7" y2="114.4" opacity="0.5" stroke="rgb(0,0,0)"  stroke-width="0.8"/>
<line x1="189.9" y1="100.7" x2="150.2" y2="76.6" opacity="0.3" stroke="rgb(0,0,0)"  stroke-width="1.4"/>
<line x1="189.9" y1="100.7" x2="189.7" y2="101.2" opacity="0.5" stroke="rgb(0,0,0)"  stroke-width="0.6"/>
<line x1="189.9" y1="100.7" x2="188.3" y2="134.2" opacity="0.2" stroke="rgb(0,0,0)"  stroke-width="1.3"/>
<line x1="398.1" y1="88.2" x2="437.4" y2="115.6" opacity="0.4" stroke="rgb(0,0,0)"  stroke-width="1.6"/>
<line x1="398.1" y1="88.2" x2="400.0" y2="56.7" opacity="0.5" stroke="rgb(0,0,0)"  stroke-width="1.5"/>
<line x1="398.1" y1="88.2" x2="397.8" y2="82.3" opacity="0.5" stroke="rgb(0,0,0)"  stroke-width="2.4"/>
<line x1="150.2" y1="76.6" x2="108.8" y2="97.6" opacity="0.8" stroke="rgb(0,0,0)"  stroke-width="1.4"/>
<line x1="150.2" y1="76.6" x2="150.4" y2="76.1" opacity="0.5" stroke="rgb(0,0,0)"  stroke-width="2.3"/>
<line x1="150.2" y1="76.6" x2="151.6" y2="43.1" opacity="0.8" stroke="rgb(0,0,0)"  stroke-width="1.5"/>
<line x1="437.4" y1="115.6" x2="479.9" y2="94.8" opacity="0.5" stroke="rgb(0,0,0)"  stroke-width="1.6"/>
<line x1="437.4" y1="115.6" x2="434.7" y2="146.9" opacity="0.5" stroke="rgb(0,0,0)"  stroke-width="1.7"/>
<line x1="437.4" y1="115.6" x2="437.7" y2="121.8" opacity="0.6" stroke="rgb(0,0,0)"  stroke-width="0.8"/>
<line x1="108.8" y1="97.6" x2="69.3" y2="73.1" opacity="0.3" stroke="rgb(0,0,0)"  stroke-width="1.4"/>
<line x1="108.8" y1="97.6" x2="107.0" y2="130.8" opacity="0.5" stroke="rgb(0,0,0)"  stroke-width="1.4"/>
<line x1="108.8" y1="97.6" x2="108.8" y2="98.8" opacity="0.5" stroke="rgb(0,0,0)"  stroke-width="0.6"/>
<line x1="479.9" y1="94.8" x2="480.8" y2="89.2" opacity="0.2" stroke="rgb(0,0,0)"  stroke-width="2.4"/>
<line x1="479.9" y1="94.8" x2="506.8" y2="115.8" opacity="0.8" stroke="rgb(0,0,0)"  stroke-width="1.7"/>
<line x1="69.3" y1="73.1" x2="69.6" y2="40.0" opacity="0.6" stroke="rgb(0,0,0)"  stroke-width="1.5"/>
<line x1="69.3" y1="73.1" x2="67.7" y2="72.1" opacity="0.5" stroke="rgb(0,0,0)"  stroke-width="2.3"/>
<line x1="69.3" y1="73.1" x2="40.0" y2="88.7" opacity="0.8" stroke="rgb(0,0,0)"  stroke-width="1.5"/>
<circle cx="189.652228" cy="101.201195" r="5.636364" opacity="0.200000" style="stroke:black;stroke-width:0.5;fill:url(#radialffffffbfbfbf)"/>
<circle cx="108.803109" cy="98.792636" r="5.636364" opacity="0.200000" style="stroke:black;stroke-width:0.5;fill:url(#radialffffffbfbfbf)"/>
<circle cx="273.967871" cy="107.439652" r="5.636364" opacity="0.200000" style="stroke:black;stroke-width:0.5;fill:url(#radialffffffbfbfbf)"/>
<circle cx="355.720602" cy="114.356622" r="5.636364" opacity="0.260283" style="stroke:black;stroke-width:0.5;fill:url(#radialffffffbfbfbf)"/>
<circle cx="437.688785" cy="121.839555" r="5.636364" opacity="0.296589" style="stroke:black;stroke-width:0.5;fill:url(#radialffffffbfbfbf)"/>
<circle cx="488.307112" cy="44.553431" r="18.545455" opacity="0.575299" style="stroke:black;stroke-width:0.5;fill:url(#radialffffff1eef1e)"/>
<circle cx="189.912700" cy="100.657742" r="13.818182" opacity="0.623725" style="stroke:black;stroke-width:0.5;fill:url(#radialffffff666666)"/>
<circle cx="108.780599" cy="97.599611" r="13.818182" opacity="0.626194" style="stroke:black;stroke-width:0.5;fill:url(#radialffffff666666)"/>
<circle cx="273.234692" cy="105.088976" r="13.818182" opacity="0.637756" style="stroke:black;stroke-width:0.5;fill:url(#radialffffff666666)"/>
<circle cx="399.994354" cy="56.705559" r="5.636364" opacity="0.650994" style="stroke:black;stroke-width:0.5;fill:url(#radialffffffbfbfbf)"/>
<circle cx="69.590868" cy="40.000000" r="5.636364" opacity="0.653251" style="stroke:black;stroke-width:0.5;fill:url(#radialffffffbfbfbf)"/>
<circle cx="316.881383" cy="51.274243" r="5.636364" opacity="0.653713" style="stroke:black;stroke-width:0.5;fill:url(#radialffffffbfbfbf)"/>
<circle cx="40.000000" cy="88.695339" r="5.636364" opacity="0.654851" style="stroke:black;stroke-width:0.5;fill:url(#radialffffffbfbfbf)"/>
<circle cx="234.372962" cy="47.852738" r="5.636364" opacity="0.655365" style="stroke:black;stroke-width:0.5;fill:url(#radialffffffbfbfbf)"/>
<circle cx="151.575129" cy="43.058130" r="5.636364" opacity="0.669951" style="stroke:black;stroke-width:0.5;fill:url(#radialffffffbfbfbf)"/>
<circle cx="355.312208" cy="108.989619" r="13.818182" opacity="0.672672" style="stroke:black;stroke-width:0.5;fill:url(#radialffffff666666)"/>
<circle cx="437.412235" cy="115.565725" r="13.818182" opacity="0.686194" style="stroke:black;stroke-width:0.5;fill:url(#radialffffff666666)"/>
<circle cx="188.304850" cy="134.239292" r="5.715332" opacity="0.712043" style="stroke:black;stroke-width:0.5;fill:url(#radialffffffbfbfbf)"/>
<circle cx="106.960513" cy="130.846729" r="5.859275" opacity="0.720954" style="stroke:black;stroke-width:0.5;fill:url(#radialffffffbfbfbf)"/>
<circle cx="506.829542" cy="115.787608" r="5.899259" opacity="0.723410" style="stroke:black;stroke-width:0.5;fill:url(#radialffffffbfbfbf)"/>
<circle cx="271.774764" cy="138.082053" r="6.125570" opacity="0.737155" style="stroke:black;stroke-width:0.5;fill:url(#radialffffffbfbfbf)"/>
<circle cx="232.440327" cy="81.099857" r="15.430213" opacity="0.747215" style="stroke:black;stroke-width:0.5;fill:url(#radialffffff666666)"/>
<circle cx="69.266082" cy="73.099196" r="15.445897" opacity="0.747595" style="stroke:black;stroke-width:0.5;fill:url(#radialffffff666666)"/>
<circle cx="150.234182" cy="76.572152" r="15.728211" opacity="0.754396" style="stroke:black;stroke-width:0.5;fill:url(#radialffffff666666)"/>
<circle cx="314.656118" cy="83.646691" r="16.025229" opacity="0.761486" style="stroke:black;stroke-width:0.5;fill:url(#radialffffff666666)"/>
<circle cx="398.058503" cy="88.200121" r="16.487910" opacity="0.772400" style="stroke:black;stroke-width:0.5;fill:url(#radialffffff666666)"/>
<circle cx="479.875548" cy="94.827678" r="17.049596" opacity="0.785446" style="stroke:black;stroke-width:0.5;fill:url(#radialffffff666666)"/>
<circle cx="353.244514" cy="140.905438" r="6.955640" opacity="0.785514" style="stroke:black;stroke-width:0.5;fill:url(#radialffffffbfbfbf)"/>
<circle cx="434.736773" cy="146.905933" r="7.291107" opacity="0.804234" style="stroke:black;stroke-width:0.5;fill:url(#radialffffffbfbfbf)"/>
<circle cx="67.725762" cy="72.118408" r="10.671366" opacity="0.972961" style="stroke:black;stroke-width:0.5;fill:url(#radialffffffbfbfbf)"/>
<circle cx="231.909736" cy="79.221888" r="10.675364" opacity="0.973143" style="stroke:black;stroke-width:0.5;fill:url(#radialffffffbfbfbf)"/>
<circle cx="150.391752" cy="76.054424" r="10.799715" opacity="0.978795" style="stroke:black;stroke-width:0.5;fill:url(#radialffffffbfbfbf)"/>
<circle cx="313.263720" cy="79.691380" r="10.890879" opacity="0.982917" style="stroke:black;stroke-width:0.5;fill:url(#radialffffffbfbfbf)"/>
<circle cx="397.759443" cy="82.283234" r="11.048816" opacity="0.990019" style="stroke:black;stroke-width:0.5;fill:url(#radialffffffbfbfbf)"/>
<circle cx="480.788807" cy="89.232361" r="11.272727" opacity="1.000000" style="stroke:black;stroke-width:0.5;fill:url(#radialffffffbfbfbf)"/>
</svg>
</g>
</svg>
