<?xml version="1.0"?>
<svg version="1.1" id="topsvg"
xmlns="http://www.w3.org/2000/svg" xmlns:xlink="http://www.w3.org/1999/xlink"
xmlns:cml="http://www.xml-cml.org/schema" x="0" y="0" width="200px" height="200px" viewBox="0 0 100 100">
<title>172092 - Open Babel Depiction</title>
<rect x="0" y="0" width="100" height="100" fill="white"/>
<defs>
<radialGradient id='radialffffff666666' cx='50%' cy='50%' r='50%' fx='30%' fy='30%'>
  <stop offset=' 0%' stop-color="rgb(255,255,255)"  stop-opacity='1.0'/>
  <stop offset='100%' stop-color="rgb(102,102,102)"  stop-opacity ='1.0'/>
</radialGradient>
<radialGradient id='radialffffffbfbfbf' cx='50%' cy='50%' r='50%' fx='30%' fy='30%'>
  <stop offset=' 0%' stop-color="rgb(255,255,255)"  stop-opacity='1.0'/>
  <stop offset='100%' stop-color="rgb(191,191,191)"  stop-opacity ='1.0'/>
</radialGradient>
</defs>
<g transform="translate(0,0)">
<svg width="100" height="100" x="0" y="0" viewBox="0 0 284.883 223.183"
font-family="sans-serif" stroke="rgb(0,0,0)" stroke-width="2"  stroke-linecap="round">
<line x1="186.7" y1="111.6" x2="212.0" y2="153.2" opacity="1.0" stroke="rgb(0,0,0)"  stroke-width="1.6"/>
<line x1="186.7" y1="111.6" x2="212.0" y2="70.0" opacity="0.5" stroke="rgb(0,0,0)"  stroke-width="1.6"/>
<line x1="186.7" y1="111.6" x2="141.1" y2="111.6" opacity="0.5" stroke="rgb(0,0,0)"  stroke-width="1.4"/>
<line x1="186.7" y1="111.6" x2="184.0" y2="111.6" opacity="0.5" stroke="rgb(0,0,0)"  stroke-width="2.3"/>
<line x1="212.0" y1="153.2" x2="194.4" y2="183.2" opacity="0.8" stroke="rgb(0,0,0)"  stroke-width="1.5"/>
<line x1="212.0" y1="153.2" x2="244.9" y2="153.9" opacity="0.5" stroke="rgb(0,0,0)"  stroke-width="1.6"/>
<line x1="212.0" y1="153.2" x2="216.5" y2="154.8" opacity="0.5" stroke="rgb(0,0,0)"  stroke-width="0.8"/>
<line x1="212.0" y1="70.0" x2="216.4" y2="68.4" opacity="0.3" stroke="rgb(0,0,0)"  stroke-width="0.8"/>
<line x1="212.0" y1="70.0" x2="244.9" y2="69.3" opacity="0.3" stroke="rgb(0,0,0)"  stroke-width="1.6"/>
<line x1="212.0" y1="70.0" x2="194.4" y2="40.0" opacity="0.5" stroke="rgb(0,0,0)"  stroke-width="1.5"/>
<line x1="141.1" y1="114.6" x2="103.5" y2="114.6" opacity="0.5" stroke="rgb(0,0,0)"  stroke-width="1.5"/>
<line x1="141.1" y1="108.6" x2="103.5" y2="108.6" opacity="0.5" stroke="rgb(0,0,0)"  stroke-width="1.5"/>
<line x1="141.1" y1="111.6" x2="139.2" y2="111.6" opacity="0.5" stroke="rgb(0,0,0)"  stroke-width="0.6"/>
<line x1="103.5" y1="111.6" x2="58.3" y2="111.6" opacity="0.2" stroke="rgb(0,0,0)"  stroke-width="1.6"/>
<line x1="103.5" y1="111.6" x2="105.1" y2="111.6" opacity="0.5" stroke="rgb(0,0,0)"  stroke-width="2.4"/>
<line x1="58.3" y1="111.6" x2="59.4" y2="111.6" opacity="0.8" stroke="rgb(0,0,0)"  stroke-width="0.7"/>
<line x1="58.3" y1="111.6" x2="40.0" y2="82.2" opacity="0.2" stroke="rgb(0,0,0)"  stroke-width="1.4"/>
<line x1="58.3" y1="111.6" x2="40.0" y2="141.0" opacity="0.5" stroke="rgb(0,0,0)"  stroke-width="1.4"/>
<circle cx="139.215038" cy="111.584821" r="5.636364" opacity="0.200000" style="stroke:black;stroke-width:0.5;fill:url(#radialffffffbfbfbf)"/>
<circle cx="59.355396" cy="111.588133" r="5.636364" opacity="0.200000" style="stroke:black;stroke-width:0.5;fill:url(#radialffffffbfbfbf)"/>
<circle cx="216.451117" cy="154.827220" r="5.636364" opacity="0.262501" style="stroke:black;stroke-width:0.5;fill:url(#radialffffffbfbfbf)"/>
<circle cx="216.447805" cy="68.352359" r="5.636364" opacity="0.262501" style="stroke:black;stroke-width:0.5;fill:url(#radialffffffbfbfbf)"/>
<circle cx="141.076707" cy="111.591446" r="13.818182" opacity="0.613492" style="stroke:black;stroke-width:0.5;fill:url(#radialffffff666666)"/>
<circle cx="58.292058" cy="111.591446" r="13.818182" opacity="0.643156" style="stroke:black;stroke-width:0.5;fill:url(#radialffffff666666)"/>
<circle cx="211.995699" cy="153.207369" r="13.818182" opacity="0.667319" style="stroke:black;stroke-width:0.5;fill:url(#radialffffff666666)"/>
<circle cx="211.989074" cy="69.972210" r="13.818182" opacity="0.667345" style="stroke:black;stroke-width:0.5;fill:url(#radialffffff666666)"/>
<circle cx="40.000000" cy="140.977330" r="5.931802" opacity="0.725402" style="stroke:black;stroke-width:0.5;fill:url(#radialffffffbfbfbf)"/>
<circle cx="40.003313" cy="82.205562" r="5.932583" opacity="0.725450" style="stroke:black;stroke-width:0.5;fill:url(#radialffffffbfbfbf)"/>
<circle cx="194.372782" cy="183.182892" r="6.247352" opacity="0.744446" style="stroke:black;stroke-width:0.5;fill:url(#radialffffffbfbfbf)"/>
<circle cx="194.359532" cy="40.000000" r="6.247743" opacity="0.744470" style="stroke:black;stroke-width:0.5;fill:url(#radialffffffbfbfbf)"/>
<circle cx="186.674350" cy="111.591446" r="16.291715" opacity="0.767791" style="stroke:black;stroke-width:0.5;fill:url(#radialffffff666666)"/>
<circle cx="244.882978" cy="153.859947" r="6.825731" opacity="0.778144" style="stroke:black;stroke-width:0.5;fill:url(#radialffffffbfbfbf)"/>
<circle cx="244.873041" cy="69.313007" r="6.826512" opacity="0.778189" style="stroke:black;stroke-width:0.5;fill:url(#radialffffffbfbfbf)"/>
<circle cx="103.472316" cy="111.594758" r="17.241491" opacity="0.789854" style="stroke:black;stroke-width:0.5;fill:url(#radialffffff666666)"/>
<circle cx="184.020974" cy="111.591446" r="10.920076" opacity="0.984234" style="stroke:black;stroke-width:0.5;fill:url(#radialffffffbfbfbf)"/>
<circle cx="105.082229" cy="111.601384" r="11.272727" opacity="1.000000" style="stroke:black;stroke-width:0.5;fill:url(#radialffffffbfbfbf)"/>
</svg>
</g>
</svg>
