<?xml version="1.0"?>
<svg version="1.1" id="topsvg"
xmlns="http://www.w3.org/2000/svg" xmlns:xlink="http://www.w3.org/1999/xlink"
xmlns:cml="http://www.xml-cml.org/schema" x="0" y="0" width="200px" height="200px" viewBox="0 0 100 100">
<title>17326 - Open Babel Depiction</title>
<rect x="0" y="0" width="100" height="100" fill="white"/>
<defs>
<radialGradient id='radialffffff666666' cx='50%' cy='50%' r='50%' fx='30%' fy='30%'>
  <stop offset=' 0%' stop-color="rgb(255,255,255)"  stop-opacity='1.0'/>
  <stop offset='100%' stop-color="rgb(102,102,102)"  stop-opacity ='1.0'/>
</radialGradient>
<radialGradient id='radialffffffbfbfbf' cx='50%' cy='50%' r='50%' fx='30%' fy='30%'>
  <stop offset=' 0%' stop-color="rgb(255,255,255)"  stop-opacity='1.0'/>
  <stop offset='100%' stop-color="rgb(191,191,191)"  stop-opacity ='1.0'/>
</radialGradient>
</defs>
<g transform="translate(0,0)">
<svg width="100" height="100" x="0" y="0" viewBox="0 0 293.956 209.191"
font-family="sans-serif" stroke="rgb(0,0,0)" stroke-width="2"  stroke-linecap="round">
<line x1="185.4" y1="98.9" x2="227.5" y2="84.0" opacity="1.0" stroke="rgb(0,0,0)"  stroke-width="1.5"/>
<polygon points="185.363399 98.894123 188.745848 94.675924 189.242665 102.660482 " stroke-width="1.500373" fill="rgb(0,0,0)"  stroke="rgb(0,0,0)" />
<line x1="108.6" y1="99.1" x2="66.4" y2="84.1" opacity="0.5" stroke="rgb(0,0,0)"  stroke-width="1.5"/>
<polygon points="108.608684 99.074859 105.451976 103.301062 104.903878 95.319860 " stroke-width="1.503839" fill="rgb(0,0,0)"  stroke="rgb(0,0,0)" />
<line x1="146.9" y1="70.6" x2="146.8" y2="40.0" opacity="0.5" stroke="rgb(0,0,0)"  stroke-width="1.7"/>
<line x1="146.9" y1="70.6" x2="146.9" y2="63.4" opacity="0.6" stroke="rgb(0,0,0)"  stroke-width="0.9"/>
<line x1="171.8" y1="144.2" x2="184.2" y2="168.7" opacity="0.3" stroke="rgb(0,0,0)"  stroke-width="1.7"/>
<line x1="171.8" y1="144.2" x2="184.1" y2="152.1" opacity="0.6" stroke="rgb(0,0,0)"  stroke-width="0.8"/>
<line x1="122.3" y1="144.1" x2="111.0" y2="150.8" opacity="0.3" stroke="rgb(0,0,0)"  stroke-width="0.8"/>
<line x1="122.3" y1="144.1" x2="109.0" y2="169.2" opacity="0.3" stroke="rgb(0,0,0)"  stroke-width="1.7"/>
<line x1="227.5" y1="84.0" x2="254.0" y2="105.6" opacity="0.6" stroke="rgb(0,0,0)"  stroke-width="1.3"/>
<line x1="227.5" y1="84.0" x2="225.4" y2="83.6" opacity="0.4" stroke="rgb(0,0,0)"  stroke-width="0.6"/>
<line x1="227.5" y1="84.0" x2="235.7" y2="51.4" opacity="0.2" stroke="rgb(0,0,0)"  stroke-width="1.3"/>
<line x1="66.4" y1="84.1" x2="58.1" y2="51.7" opacity="0.4" stroke="rgb(0,0,0)"  stroke-width="1.4"/>
<line x1="66.4" y1="84.1" x2="68.3" y2="83.2" opacity="0.5" stroke="rgb(0,0,0)"  stroke-width="0.6"/>
<line x1="66.4" y1="84.1" x2="40.0" y2="105.9" opacity="0.2" stroke="rgb(0,0,0)"  stroke-width="1.3"/>
<line x1="108.6" y1="99.1" x2="146.9" y2="70.6" opacity="0.4" stroke="rgb(0,0,0)"  stroke-width="1.6"/>
<line x1="146.9" y1="70.6" x2="185.4" y2="98.9" opacity="0.5" stroke="rgb(0,0,0)"  stroke-width="1.6"/>
<line x1="185.4" y1="98.9" x2="171.8" y2="144.2" opacity="0.5" stroke="rgb(0,0,0)"  stroke-width="1.6"/>
<line x1="171.8" y1="144.2" x2="122.3" y2="144.1" opacity="0.5" stroke="rgb(0,0,0)"  stroke-width="1.4"/>
<line x1="122.3" y1="144.1" x2="108.6" y2="99.1" opacity="0.5" stroke="rgb(0,0,0)"  stroke-width="1.6"/>
<circle cx="225.412564" cy="83.563836" r="5.636364" opacity="0.200000" style="stroke:black;stroke-width:0.5;fill:url(#radialffffffbfbfbf)"/>
<circle cx="68.262595" cy="83.176544" r="5.636364" opacity="0.200000" style="stroke:black;stroke-width:0.5;fill:url(#radialffffffbfbfbf)"/>
<circle cx="111.048620" cy="150.839591" r="5.636364" opacity="0.289827" style="stroke:black;stroke-width:0.5;fill:url(#radialffffffbfbfbf)"/>
<circle cx="146.944085" cy="63.444044" r="5.636364" opacity="0.307618" style="stroke:black;stroke-width:0.5;fill:url(#radialffffffbfbfbf)"/>
<circle cx="184.130521" cy="152.059559" r="5.636364" opacity="0.315828" style="stroke:black;stroke-width:0.5;fill:url(#radialffffffbfbfbf)"/>
<circle cx="227.471664" cy="84.025358" r="13.818182" opacity="0.623386" style="stroke:black;stroke-width:0.5;fill:url(#radialffffff666666)"/>
<circle cx="66.364867" cy="84.106044" r="13.818182" opacity="0.625975" style="stroke:black;stroke-width:0.5;fill:url(#radialffffff666666)"/>
<circle cx="122.338167" cy="144.113629" r="13.818182" opacity="0.667768" style="stroke:black;stroke-width:0.5;fill:url(#radialffffff666666)"/>
<circle cx="171.775923" cy="144.239499" r="13.818182" opacity="0.674284" style="stroke:black;stroke-width:0.5;fill:url(#radialffffff666666)"/>
<circle cx="146.927948" cy="70.628300" r="13.818182" opacity="0.690330" style="stroke:black;stroke-width:0.5;fill:url(#radialffffff666666)"/>
<circle cx="253.955945" cy="105.578128" r="5.636364" opacity="0.699131" style="stroke:black;stroke-width:0.5;fill:url(#radialffffffbfbfbf)"/>
<circle cx="40.000000" cy="105.868597" r="5.636364" opacity="0.700122" style="stroke:black;stroke-width:0.5;fill:url(#radialffffffbfbfbf)"/>
<circle cx="235.666106" cy="51.408961" r="5.726727" opacity="0.712752" style="stroke:black;stroke-width:0.5;fill:url(#radialffffffbfbfbf)"/>
<circle cx="58.102649" cy="51.660701" r="5.819694" opacity="0.718515" style="stroke:black;stroke-width:0.5;fill:url(#radialffffffbfbfbf)"/>
<circle cx="108.608684" cy="99.074859" r="16.877919" opacity="0.781482" style="stroke:black;stroke-width:0.5;fill:url(#radialffffff666666)"/>
<circle cx="185.363399" cy="98.894123" r="16.903461" opacity="0.782073" style="stroke:black;stroke-width:0.5;fill:url(#radialffffff666666)"/>
<circle cx="146.844034" cy="40.000000" r="7.558830" opacity="0.818866" style="stroke:black;stroke-width:0.5;fill:url(#radialffffffbfbfbf)"/>
<circle cx="108.979838" cy="169.190752" r="7.637372" opacity="0.823109" style="stroke:black;stroke-width:0.5;fill:url(#radialffffffbfbfbf)"/>
<circle cx="184.240253" cy="168.738912" r="7.885419" opacity="0.836369" style="stroke:black;stroke-width:0.5;fill:url(#radialffffffbfbfbf)"/>
<circle cx="105.177927" cy="99.310461" r="11.264713" opacity="0.999644" style="stroke:black;stroke-width:0.5;fill:url(#radialffffffbfbfbf)"/>
<circle cx="188.994256" cy="98.668203" r="11.272727" opacity="1.000000" style="stroke:black;stroke-width:0.5;fill:url(#radialffffffbfbfbf)"/>
</svg>
</g>
</svg>
