<?xml version="1.0"?>
<svg version="1.1" id="topsvg"
xmlns="http://www.w3.org/2000/svg" xmlns:xlink="http://www.w3.org/1999/xlink"
xmlns:cml="http://www.xml-cml.org/schema" x="0" y="0" width="200px" height="200px" viewBox="0 0 100 100">
<title>18314 - Open Babel Depiction</title>
<rect x="0" y="0" width="100" height="100" fill="white"/>
<defs>
<radialGradient id='radialffffff666666' cx='50%' cy='50%' r='50%' fx='30%' fy='30%'>
  <stop offset=' 0%' stop-color="rgb(255,255,255)"  stop-opacity='1.0'/>
  <stop offset='100%' stop-color="rgb(102,102,102)"  stop-opacity ='1.0'/>
</radialGradient>
<radialGradient id='radialffffffbfbfbf' cx='50%' cy='50%' r='50%' fx='30%' fy='30%'>
  <stop offset=' 0%' stop-color="rgb(255,255,255)"  stop-opacity='1.0'/>
  <stop offset='100%' stop-color="rgb(191,191,191)"  stop-opacity ='1.0'/>
</radialGradient>
</defs>
<g transform="translate(0,0)">
<svg width="100" height="100" x="0" y="0" viewBox="0 0 303.653 266.145"
font-family="sans-serif" stroke="rgb(0,0,0)" stroke-width="4"  stroke-linecap="round">
<line x1="180.0" y1="113.0" x2="129.0" y2="110.7" opacity="1.0" stroke="rgb(0,0,0)"  stroke-width="1.7"/>
<line x1="180.0" y1="113.0" x2="199.0" y2="72.9" opacity="0.6" stroke="rgb(0,0,0)"  stroke-width="1.3"/>
<line x1="180.0" y1="113.0" x2="196.3" y2="156.1" opacity="0.4" stroke="rgb(0,0,0)"  stroke-width="1.4"/>
<line x1="180.0" y1="113.0" x2="193.3" y2="112.2" opacity="0.5" stroke="rgb(0,0,0)"  stroke-width="2.0"/>
<line x1="129.0" y1="110.7" x2="104.9" y2="116.2" opacity="0.7" stroke="rgb(0,0,0)"  stroke-width="1.2"/>
<line x1="129.0" y1="110.7" x2="114.7" y2="68.5" opacity="0.4" stroke="rgb(0,0,0)"  stroke-width="2.0"/>
<polygon points="128.989790 110.658351 122.702683 139.140993 115.201010 136.361622 " stroke-width="2.017272" fill="rgb(0,0,0)"  stroke="rgb(0,0,0)" />
<line x1="199.0" y1="72.9" x2="248.9" y2="72.7" opacity="0.7" stroke="rgb(0,0,0)"  stroke-width="1.0"/>
<line x1="199.0" y1="72.9" x2="185.9" y2="71.1" opacity="0.3" stroke="rgb(0,0,0)"  stroke-width="0.6"/>
<line x1="199.0" y1="72.9" x2="189.3" y2="42.8" opacity="0.2" stroke="rgb(0,0,0)"  stroke-width="1.2"/>
<line x1="196.3" y1="156.1" x2="181.9" y2="197.6" opacity="0.4" stroke="rgb(0,0,0)"  stroke-width="1.4"/>
<line x1="196.3" y1="156.1" x2="232.2" y2="156.6" opacity="0.5" stroke="rgb(0,0,0)"  stroke-width="1.1"/>
<line x1="196.3" y1="156.1" x2="186.6" y2="157.9" opacity="0.4" stroke="rgb(0,0,0)"  stroke-width="0.7"/>
<line x1="104.9" y1="116.2" x2="55.2" y2="114.9" opacity="0.2" stroke="rgb(0,0,0)"  stroke-width="0.7"/>
<line x1="104.9" y1="116.2" x2="113.6" y2="147.6" opacity="0.2" stroke="rgb(0,0,0)"  stroke-width="0.5"/>
<line x1="104.9" y1="116.2" x2="114.8" y2="90.6" opacity="0.2" stroke="rgb(0,0,0)"  stroke-width="0.4"/>
<line x1="114.7" y1="68.5" x2="135.3" y2="62.2" opacity="0.1" stroke="rgb(0,0,0)"  stroke-width="2.7"/>
<line x1="114.7" y1="68.5" x2="116.3" y2="40.0" opacity="0.9" stroke="rgb(0,0,0)"  stroke-width="2.0"/>
<line x1="114.7" y1="68.5" x2="81.0" y2="71.3" opacity="0.7" stroke="rgb(0,0,0)"  stroke-width="2.4"/>
<line x1="248.9" y1="72.7" x2="263.7" y2="78.1" opacity="0.8" stroke="rgb(0,0,0)"  stroke-width="1.4"/>
<line x1="248.9" y1="72.7" x2="261.0" y2="97.6" opacity="0.5" stroke="rgb(0,0,0)"  stroke-width="0.7"/>
<line x1="248.9" y1="72.7" x2="260.2" y2="41.0" opacity="0.2" stroke="rgb(0,0,0)"  stroke-width="0.8"/>
<line x1="181.9" y1="197.6" x2="146.6" y2="202.8" opacity="0.3" stroke="rgb(0,0,0)"  stroke-width="1.6"/>
<line x1="181.9" y1="197.6" x2="198.1" y2="226.1" opacity="0.5" stroke="rgb(0,0,0)"  stroke-width="1.5"/>
<line x1="181.9" y1="197.6" x2="190.4" y2="196.2" opacity="0.5" stroke="rgb(0,0,0)"  stroke-width="2.1"/>
<line x1="55.2" y1="114.9" x2="40.0" y2="123.0" opacity="0.7" stroke="rgb(0,0,0)"  stroke-width="0.4"/>
<line x1="55.2" y1="114.9" x2="43.5" y2="82.4" opacity="0.1" stroke="rgb(0,0,0)"  stroke-width="0.9"/>
<line x1="55.2" y1="114.9" x2="43.8" y2="138.7" opacity="0.3" stroke="rgb(0,0,0)"  stroke-width="1.1"/>
<circle cx="40.000000" cy="123.039682" r="5.636364" opacity="0.200000" style="stroke:black;stroke-width:0.5;fill:url(#radialffffffbfbfbf)"/>
<circle cx="114.782189" cy="90.602101" r="5.636364" opacity="0.200000" style="stroke:black;stroke-width:0.5;fill:url(#radialffffffbfbfbf)"/>
<circle cx="185.888925" cy="71.069514" r="5.636364" opacity="0.268391" style="stroke:black;stroke-width:0.5;fill:url(#radialffffffbfbfbf)"/>
<circle cx="186.628598" cy="157.859923" r="5.636364" opacity="0.299527" style="stroke:black;stroke-width:0.5;fill:url(#radialffffffbfbfbf)"/>
<circle cx="113.620314" cy="147.596151" r="5.636364" opacity="0.315501" style="stroke:black;stroke-width:0.5;fill:url(#radialffffffbfbfbf)"/>
<circle cx="261.001675" cy="97.592987" r="5.636364" opacity="0.368632" style="stroke:black;stroke-width:0.5;fill:url(#radialffffffbfbfbf)"/>
<circle cx="104.868615" cy="116.176438" r="13.818182" opacity="0.468989" style="stroke:black;stroke-width:0.5;fill:url(#radialffffff666666)"/>
<circle cx="260.209637" cy="40.962229" r="5.636364" opacity="0.469837" style="stroke:black;stroke-width:0.5;fill:url(#radialffffffbfbfbf)"/>
<circle cx="55.192740" cy="114.932741" r="13.818182" opacity="0.504947" style="stroke:black;stroke-width:0.5;fill:url(#radialffffff666666)"/>
<circle cx="248.852720" cy="72.696138" r="13.818182" opacity="0.565470" style="stroke:black;stroke-width:0.5;fill:url(#radialffffff666666)"/>
<circle cx="43.541263" cy="82.413339" r="5.636364" opacity="0.575592" style="stroke:black;stroke-width:0.5;fill:url(#radialffffffbfbfbf)"/>
<circle cx="199.039384" cy="72.899057" r="13.818182" opacity="0.584972" style="stroke:black;stroke-width:0.5;fill:url(#radialffffff666666)"/>
<circle cx="196.345798" cy="156.131839" r="13.818182" opacity="0.607811" style="stroke:black;stroke-width:0.5;fill:url(#radialffffff666666)"/>
<circle cx="232.200272" cy="156.583498" r="5.636364" opacity="0.609795" style="stroke:black;stroke-width:0.5;fill:url(#radialffffffbfbfbf)"/>
<circle cx="198.122976" cy="226.145432" r="5.636364" opacity="0.666963" style="stroke:black;stroke-width:0.5;fill:url(#radialffffffbfbfbf)"/>
<circle cx="43.763820" cy="138.693899" r="5.636364" opacity="0.672059" style="stroke:black;stroke-width:0.5;fill:url(#radialffffffbfbfbf)"/>
<circle cx="189.259999" cy="42.765589" r="5.636364" opacity="0.691550" style="stroke:black;stroke-width:0.5;fill:url(#radialffffffbfbfbf)"/>
<circle cx="146.588102" cy="202.763929" r="6.061826" opacity="0.733309" style="stroke:black;stroke-width:0.5;fill:url(#radialffffffbfbfbf)"/>
<circle cx="179.971546" cy="113.018103" r="14.941966" opacity="0.735298" style="stroke:black;stroke-width:0.5;fill:url(#radialffffff666666)"/>
<circle cx="181.886185" cy="197.579677" r="15.499639" opacity="0.748894" style="stroke:black;stroke-width:0.5;fill:url(#radialffffff666666)"/>
<circle cx="128.989790" cy="110.658351" r="15.951648" opacity="0.759735" style="stroke:black;stroke-width:0.5;fill:url(#radialffffff666666)"/>
<circle cx="263.652714" cy="78.066945" r="6.546700" opacity="0.762073" style="stroke:black;stroke-width:0.5;fill:url(#radialffffffbfbfbf)"/>
<circle cx="116.294262" cy="40.000000" r="6.675701" opacity="0.769545" style="stroke:black;stroke-width:0.5;fill:url(#radialffffffbfbfbf)"/>
<circle cx="118.951846" cy="137.751307" r="8.460756" opacity="0.866343" style="stroke:black;stroke-width:0.5;fill:url(#radialffffffbfbfbf)"/>
<circle cx="114.723277" cy="68.519935" r="21.215053" opacity="0.876156" style="stroke:black;stroke-width:0.5;fill:url(#radialffffff666666)"/>
<circle cx="193.328197" cy="112.150788" r="9.150355" opacity="0.900958" style="stroke:black;stroke-width:0.5;fill:url(#radialffffffbfbfbf)"/>
<circle cx="190.444784" cy="196.218156" r="9.500841" opacity="0.918050" style="stroke:black;stroke-width:0.5;fill:url(#radialffffffbfbfbf)"/>
<circle cx="81.019089" cy="71.305161" r="9.739687" opacity="0.929518" style="stroke:black;stroke-width:0.5;fill:url(#radialffffffbfbfbf)"/>
<circle cx="135.329371" cy="62.199991" r="11.272727" opacity="1.000000" style="stroke:black;stroke-width:0.5;fill:url(#radialffffffbfbfbf)"/>
</svg>
</g>
</svg>
