<?xml version="1.0"?>
<svg version="1.1" id="topsvg"
xmlns="http://www.w3.org/2000/svg" xmlns:xlink="http://www.w3.org/1999/xlink"
xmlns:cml="http://www.xml-cml.org/schema" x="0" y="0" width="200px" height="200px" viewBox="0 0 100 100">
<title>19041 - Open Babel Depiction</title>
<rect x="0" y="0" width="100" height="100" fill="white"/>
<defs>
<radialGradient id='radialffffff666666' cx='50%' cy='50%' r='50%' fx='30%' fy='30%'>
  <stop offset=' 0%' stop-color="rgb(255,255,255)"  stop-opacity='1.0'/>
  <stop offset='100%' stop-color="rgb(102,102,102)"  stop-opacity ='1.0'/>
</radialGradient>
<radialGradient id='radialffffffbfbfbf' cx='50%' cy='50%' r='50%' fx='30%' fy='30%'>
  <stop offset=' 0%' stop-color="rgb(255,255,255)"  stop-opacity='1.0'/>
  <stop offset='100%' stop-color="rgb(191,191,191)"  stop-opacity ='1.0'/>
</radialGradient>
</defs>
<g transform="translate(0,0)">
<svg width="100" height="100" x="0" y="0" viewBox="0 0 320.13 222.189"
font-family="sans-serif" stroke="rgb(0,0,0)" stroke-width="4"  stroke-linecap="round">
<line x1="217.1" y1="111.7" x2="167.5" y2="111.9" opacity="1.0" stroke="rgb(0,0,0)"  stroke-width="1.4"/>
<line x1="217.1" y1="111.7" x2="227.9" y2="68.0" opacity="0.5" stroke="rgb(0,0,0)"  stroke-width="1.8"/>
<line x1="217.1" y1="111.7" x2="229.1" y2="149.4" opacity="0.6" stroke="rgb(0,0,0)"  stroke-width="1.9"/>
<line x1="217.1" y1="111.7" x2="245.1" y2="115.0" opacity="0.6" stroke="rgb(0,0,0)"  stroke-width="1.0"/>
<line x1="167.5" y1="111.9" x2="136.5" y2="109.6" opacity="0.3" stroke="rgb(0,0,0)"  stroke-width="1.7"/>
<line x1="167.5" y1="111.9" x2="160.8" y2="84.6" opacity="0.6" stroke="rgb(0,0,0)"  stroke-width="1.0"/>
<line x1="167.5" y1="111.9" x2="160.9" y2="141.9" opacity="0.3" stroke="rgb(0,0,0)"  stroke-width="1.0"/>
<line x1="136.5" y1="109.6" x2="87.7" y2="111.6" opacity="0.3" stroke="rgb(0,0,0)"  stroke-width="2.0"/>
<line x1="136.5" y1="109.6" x2="142.1" y2="79.6" opacity="0.7" stroke="rgb(0,0,0)"  stroke-width="2.4"/>
<line x1="136.5" y1="109.6" x2="142.9" y2="137.1" opacity="0.8" stroke="rgb(0,0,0)"  stroke-width="2.4"/>
<line x1="87.7" y1="111.6" x2="76.3" y2="152.8" opacity="0.8" stroke="rgb(0,0,0)"  stroke-width="1.6"/>
<line x1="87.7" y1="111.6" x2="75.5" y2="70.9" opacity="0.5" stroke="rgb(0,0,0)"  stroke-width="1.6"/>
<line x1="87.7" y1="111.6" x2="68.3" y2="111.6" opacity="0.5" stroke="rgb(0,0,0)"  stroke-width="2.2"/>
<line x1="227.9" y1="68.0" x2="217.5" y2="40.0" opacity="0.7" stroke="rgb(0,0,0)"  stroke-width="1.8"/>
<line x1="227.9" y1="68.0" x2="212.4" y2="65.3" opacity="0.6" stroke="rgb(0,0,0)"  stroke-width="2.4"/>
<line x1="227.9" y1="68.0" x2="263.3" y2="64.8" opacity="0.8" stroke="rgb(0,0,0)"  stroke-width="2.1"/>
<line x1="229.1" y1="149.4" x2="213.9" y2="145.8" opacity="0.7" stroke="rgb(0,0,0)"  stroke-width="2.6"/>
<line x1="229.1" y1="149.4" x2="219.0" y2="181.0" opacity="0.9" stroke="rgb(0,0,0)"  stroke-width="2.1"/>
<line x1="229.1" y1="149.4" x2="264.6" y2="150.8" opacity="0.7" stroke="rgb(0,0,0)"  stroke-width="2.3"/>
<line x1="245.1" y1="115.0" x2="237.9" y2="88.1" opacity="0.8" stroke="rgb(0,0,0)"  stroke-width="0.4"/>
<line x1="245.1" y1="115.0" x2="238.6" y2="145.7" opacity="0.1" stroke="rgb(0,0,0)"  stroke-width="0.4"/>
<line x1="245.1" y1="115.0" x2="280.1" y2="113.9" opacity="0.1" stroke="rgb(0,0,0)"  stroke-width="0.6"/>
<line x1="76.3" y1="152.8" x2="87.7" y2="182.2" opacity="0.2" stroke="rgb(0,0,0)"  stroke-width="1.5"/>
<line x1="76.3" y1="152.8" x2="90.5" y2="152.5" opacity="0.5" stroke="rgb(0,0,0)"  stroke-width="0.9"/>
<line x1="76.3" y1="152.8" x2="40.8" y2="155.5" opacity="0.3" stroke="rgb(0,0,0)"  stroke-width="1.2"/>
<line x1="75.5" y1="70.9" x2="90.5" y2="70.8" opacity="0.4" stroke="rgb(0,0,0)"  stroke-width="0.9"/>
<line x1="75.5" y1="70.9" x2="40.0" y2="69.5" opacity="0.3" stroke="rgb(0,0,0)"  stroke-width="1.2"/>
<line x1="75.5" y1="70.9" x2="85.3" y2="40.9" opacity="0.4" stroke="rgb(0,0,0)"  stroke-width="1.5"/>
<circle cx="237.896852" cy="88.055428" r="5.636364" opacity="0.200000" style="stroke:black;stroke-width:0.5;fill:url(#radialffffffbfbfbf)"/>
<circle cx="238.554697" cy="145.726523" r="5.636364" opacity="0.201999" style="stroke:black;stroke-width:0.5;fill:url(#radialffffffbfbfbf)"/>
<circle cx="90.490437" cy="70.813992" r="5.636364" opacity="0.403522" style="stroke:black;stroke-width:0.5;fill:url(#radialffffffbfbfbf)"/>
<circle cx="90.493709" cy="152.494800" r="5.636364" opacity="0.405204" style="stroke:black;stroke-width:0.5;fill:url(#radialffffffbfbfbf)"/>
<circle cx="245.084056" cy="115.017262" r="13.818182" opacity="0.420251" style="stroke:black;stroke-width:0.5;fill:url(#radialffffff666666)"/>
<circle cx="280.129859" cy="113.940490" r="5.636364" opacity="0.485423" style="stroke:black;stroke-width:0.5;fill:url(#radialffffffbfbfbf)"/>
<circle cx="160.824233" cy="84.579648" r="5.636364" opacity="0.493237" style="stroke:black;stroke-width:0.5;fill:url(#radialffffffbfbfbf)"/>
<circle cx="160.889691" cy="141.894002" r="5.636364" opacity="0.521782" style="stroke:black;stroke-width:0.5;fill:url(#radialffffffbfbfbf)"/>
<circle cx="40.000000" cy="69.485211" r="5.636364" opacity="0.617118" style="stroke:black;stroke-width:0.5;fill:url(#radialffffffbfbfbf)"/>
<circle cx="40.782214" cy="155.518925" r="5.636364" opacity="0.626098" style="stroke:black;stroke-width:0.5;fill:url(#radialffffffbfbfbf)"/>
<circle cx="167.484507" cy="111.911316" r="13.818182" opacity="0.646485" style="stroke:black;stroke-width:0.5;fill:url(#radialffffff666666)"/>
<circle cx="75.523640" cy="70.905633" r="13.818182" opacity="0.646505" style="stroke:black;stroke-width:0.5;fill:url(#radialffffff666666)"/>
<circle cx="76.328764" cy="152.772994" r="13.818182" opacity="0.649732" style="stroke:black;stroke-width:0.5;fill:url(#radialffffff666666)"/>
<circle cx="217.140364" cy="111.675670" r="13.922792" opacity="0.709778" style="stroke:black;stroke-width:0.5;fill:url(#radialffffff666666)"/>
<circle cx="217.467650" cy="40.000000" r="5.954726" opacity="0.726802" style="stroke:black;stroke-width:0.5;fill:url(#radialffffffbfbfbf)"/>
<circle cx="85.302951" cy="40.929493" r="6.217979" opacity="0.742694" style="stroke:black;stroke-width:0.5;fill:url(#radialffffffbfbfbf)"/>
<circle cx="87.708504" cy="182.189474" r="6.262241" opacity="0.745333" style="stroke:black;stroke-width:0.5;fill:url(#radialffffffbfbfbf)"/>
<circle cx="87.675776" cy="111.584030" r="17.318561" opacity="0.791618" style="stroke:black;stroke-width:0.5;fill:url(#radialffffff666666)"/>
<circle cx="218.986258" cy="180.968697" r="7.216027" opacity="0.800082" style="stroke:black;stroke-width:0.5;fill:url(#radialffffffbfbfbf)"/>
<circle cx="227.937534" cy="68.025514" r="18.884529" opacity="0.826633" style="stroke:black;stroke-width:0.5;fill:url(#radialffffff666666)"/>
<circle cx="263.290986" cy="64.834474" r="8.169813" opacity="0.851317" style="stroke:black;stroke-width:0.5;fill:url(#radialffffffbfbfbf)"/>
<circle cx="136.457778" cy="109.630131" r="20.105814" opacity="0.852944" style="stroke:black;stroke-width:0.5;fill:url(#radialffffff666666)"/>
<circle cx="229.128856" cy="149.408492" r="20.652627" opacity="0.864465" style="stroke:black;stroke-width:0.5;fill:url(#radialffffff666666)"/>
<circle cx="264.577220" cy="150.819095" r="8.899110" opacity="0.888503" style="stroke:black;stroke-width:0.5;fill:url(#radialffffffbfbfbf)"/>
<circle cx="68.349528" cy="111.551301" r="9.739206" opacity="0.929495" style="stroke:black;stroke-width:0.5;fill:url(#radialffffffbfbfbf)"/>
<circle cx="142.103465" cy="79.585262" r="9.855211" opacity="0.935015" style="stroke:black;stroke-width:0.5;fill:url(#radialffffffbfbfbf)"/>
<circle cx="142.921680" cy="137.059985" r="10.160411" opacity="0.949382" style="stroke:black;stroke-width:0.5;fill:url(#radialffffffbfbfbf)"/>
<circle cx="212.447080" cy="65.348313" r="10.548347" opacity="0.967337" style="stroke:black;stroke-width:0.5;fill:url(#radialffffffbfbfbf)"/>
<circle cx="213.896958" cy="145.837800" r="11.272727" opacity="1.000000" style="stroke:black;stroke-width:0.5;fill:url(#radialffffffbfbfbf)"/>
</svg>
</g>
</svg>
