<?xml version="1.0"?>
<svg version="1.1" id="topsvg"
xmlns="http://www.w3.org/2000/svg" xmlns:xlink="http://www.w3.org/1999/xlink"
xmlns:cml="http://www.xml-cml.org/schema" x="0" y="0" width="200px" height="200px" viewBox="0 0 100 100">
<title>20993 - Open Babel Depiction</title>
<rect x="0" y="0" width="100" height="100" fill="white"/>
<defs>
<radialGradient id='radialffffff1eef1e' cx='50%' cy='50%' r='50%' fx='30%' fy='30%'>
  <stop offset=' 0%' stop-color="rgb(255,255,255)"  stop-opacity='1.0'/>
  <stop offset='100%' stop-color="rgb(30,239,30)"  stop-opacity ='1.0'/>
</radialGradient>
<radialGradient id='radialffffff666666' cx='50%' cy='50%' r='50%' fx='30%' fy='30%'>
  <stop offset=' 0%' stop-color="rgb(255,255,255)"  stop-opacity='1.0'/>
  <stop offset='100%' stop-color="rgb(102,102,102)"  stop-opacity ='1.0'/>
</radialGradient>
<radialGradient id='radialffffffbfbfbf' cx='50%' cy='50%' r='50%' fx='30%' fy='30%'>
  <stop offset=' 0%' stop-color="rgb(255,255,255)"  stop-opacity='1.0'/>
  <stop offset='100%' stop-color="rgb(191,191,191)"  stop-opacity ='1.0'/>
</radialGradient>
</defs>
<g transform="translate(0,0)">
<svg width="100" height="100" x="0" y="0" viewBox="0 0 772.131 155.286"
font-family="sans-serif" stroke="rgb(0,0,0)" stroke-width="4"  stroke-linecap="round">
<line x1="40.0" y1="60.8" x2="87.0" y2="93.4" opacity="1.0" stroke="rgb(0,0,0)"  stroke-width="1.5"/>
<line x1="374.3" y1="63.2" x2="414.9" y2="91.0" opacity="0.5" stroke="rgb(0,0,0)"  stroke-width="1.6"/>
<line x1="374.3" y1="63.2" x2="332.6" y2="89.6" opacity="0.5" stroke="rgb(0,0,0)"  stroke-width="1.6"/>
<line x1="374.3" y1="63.2" x2="375.0" y2="42.9" opacity="0.5" stroke="rgb(0,0,0)"  stroke-width="2.3"/>
<line x1="374.3" y1="63.2" x2="374.2" y2="41.5" opacity="0.8" stroke="rgb(0,0,0)"  stroke-width="1.0"/>
<line x1="414.9" y1="91.0" x2="456.6" y2="64.7" opacity="0.3" stroke="rgb(0,0,0)"  stroke-width="1.6"/>
<line x1="414.9" y1="91.0" x2="414.1" y2="111.6" opacity="0.5" stroke="rgb(0,0,0)"  stroke-width="0.9"/>
<line x1="414.9" y1="91.0" x2="415.1" y2="112.6" opacity="0.3" stroke="rgb(0,0,0)"  stroke-width="2.2"/>
<line x1="332.6" y1="89.6" x2="290.7" y2="63.5" opacity="0.7" stroke="rgb(0,0,0)"  stroke-width="1.6"/>
<line x1="332.6" y1="89.6" x2="332.4" y2="110.6" opacity="0.5" stroke="rgb(0,0,0)"  stroke-width="2.3"/>
<line x1="332.6" y1="89.6" x2="332.9" y2="110.9" opacity="0.8" stroke="rgb(0,0,0)"  stroke-width="1.0"/>
<line x1="456.6" y1="64.7" x2="498.5" y2="90.8" opacity="0.3" stroke="rgb(0,0,0)"  stroke-width="1.6"/>
<line x1="456.6" y1="64.7" x2="456.8" y2="44.4" opacity="0.5" stroke="rgb(0,0,0)"  stroke-width="0.9"/>
<line x1="456.6" y1="64.7" x2="456.3" y2="42.7" opacity="0.3" stroke="rgb(0,0,0)"  stroke-width="2.2"/>
<line x1="290.7" y1="63.5" x2="250.3" y2="91.4" opacity="0.7" stroke="rgb(0,0,0)"  stroke-width="1.5"/>
<line x1="290.7" y1="63.5" x2="291.5" y2="41.4" opacity="0.5" stroke="rgb(0,0,0)"  stroke-width="0.9"/>
<line x1="290.7" y1="63.5" x2="289.3" y2="43.6" opacity="0.3" stroke="rgb(0,0,0)"  stroke-width="2.3"/>
<line x1="498.5" y1="90.8" x2="539.1" y2="63.0" opacity="0.8" stroke="rgb(0,0,0)"  stroke-width="1.6"/>
<line x1="498.5" y1="90.8" x2="498.5" y2="113.6" opacity="0.5" stroke="rgb(0,0,0)"  stroke-width="1.0"/>
<line x1="498.5" y1="90.8" x2="499.0" y2="110.0" opacity="0.3" stroke="rgb(0,0,0)"  stroke-width="2.3"/>
<line x1="250.3" y1="91.4" x2="209.5" y2="63.7" opacity="0.8" stroke="rgb(0,0,0)"  stroke-width="1.5"/>
<line x1="250.3" y1="91.4" x2="251.2" y2="110.7" opacity="0.5" stroke="rgb(0,0,0)"  stroke-width="0.8"/>
<line x1="250.3" y1="91.4" x2="249.6" y2="113.9" opacity="0.3" stroke="rgb(0,0,0)"  stroke-width="2.1"/>
<line x1="539.1" y1="63.0" x2="579.6" y2="90.8" opacity="0.7" stroke="rgb(0,0,0)"  stroke-width="1.5"/>
<line x1="539.1" y1="63.0" x2="538.9" y2="44.2" opacity="0.5" stroke="rgb(0,0,0)"  stroke-width="0.8"/>
<line x1="539.1" y1="63.0" x2="539.2" y2="40.0" opacity="0.3" stroke="rgb(0,0,0)"  stroke-width="2.1"/>
<line x1="209.5" y1="63.7" x2="169.0" y2="91.5" opacity="0.7" stroke="rgb(0,0,0)"  stroke-width="1.4"/>
<line x1="209.5" y1="63.7" x2="209.0" y2="44.0" opacity="0.5" stroke="rgb(0,0,0)"  stroke-width="2.2"/>
<line x1="209.5" y1="63.7" x2="209.9" y2="41.5" opacity="0.7" stroke="rgb(0,0,0)"  stroke-width="0.8"/>
<line x1="579.6" y1="90.8" x2="621.4" y2="64.7" opacity="0.3" stroke="rgb(0,0,0)"  stroke-width="1.5"/>
<line x1="579.6" y1="90.8" x2="579.0" y2="114.1" opacity="0.5" stroke="rgb(0,0,0)"  stroke-width="1.0"/>
<line x1="579.6" y1="90.8" x2="579.8" y2="109.4" opacity="0.3" stroke="rgb(0,0,0)"  stroke-width="2.3"/>
<line x1="169.0" y1="91.5" x2="127.2" y2="65.4" opacity="0.8" stroke="rgb(0,0,0)"  stroke-width="1.4"/>
<line x1="169.0" y1="91.5" x2="169.1" y2="113.9" opacity="0.5" stroke="rgb(0,0,0)"  stroke-width="2.0"/>
<line x1="169.0" y1="91.5" x2="169.6" y2="111.1" opacity="0.7" stroke="rgb(0,0,0)"  stroke-width="0.7"/>
<line x1="621.4" y1="64.7" x2="663.0" y2="91.1" opacity="0.2" stroke="rgb(0,0,0)"  stroke-width="1.4"/>
<line x1="621.4" y1="64.7" x2="620.2" y2="44.6" opacity="0.5" stroke="rgb(0,0,0)"  stroke-width="0.8"/>
<line x1="621.4" y1="64.7" x2="622.7" y2="42.5" opacity="0.3" stroke="rgb(0,0,0)"  stroke-width="2.1"/>
<line x1="127.2" y1="65.4" x2="87.0" y2="93.4" opacity="0.7" stroke="rgb(0,0,0)"  stroke-width="1.4"/>
<line x1="127.2" y1="65.4" x2="127.0" y2="45.4" opacity="0.5" stroke="rgb(0,0,0)"  stroke-width="2.1"/>
<line x1="127.2" y1="65.4" x2="126.9" y2="43.3" opacity="0.7" stroke="rgb(0,0,0)"  stroke-width="0.8"/>
<line x1="663.0" y1="91.1" x2="703.5" y2="63.6" opacity="0.3" stroke="rgb(0,0,0)"  stroke-width="1.4"/>
<line x1="663.0" y1="91.1" x2="662.6" y2="112.3" opacity="0.5" stroke="rgb(0,0,0)"  stroke-width="0.7"/>
<line x1="663.0" y1="91.1" x2="664.3" y2="111.9" opacity="0.2" stroke="rgb(0,0,0)"  stroke-width="2.1"/>
<line x1="87.0" y1="93.4" x2="86.2" y2="115.3" opacity="0.7" stroke="rgb(0,0,0)"  stroke-width="2.1"/>
<line x1="87.0" y1="93.4" x2="85.6" y2="112.5" opacity="0.7" stroke="rgb(0,0,0)"  stroke-width="0.7"/>
<line x1="703.5" y1="63.6" x2="705.5" y2="42.9" opacity="0.2" stroke="rgb(0,0,0)"  stroke-width="2.0"/>
<line x1="703.5" y1="63.6" x2="732.1" y2="84.1" opacity="0.7" stroke="rgb(0,0,0)"  stroke-width="1.3"/>
<line x1="703.5" y1="63.6" x2="703.9" y2="43.2" opacity="0.4" stroke="rgb(0,0,0)"  stroke-width="0.7"/>
<circle cx="703.852634" cy="43.159579" r="5.636364" opacity="0.200000" style="stroke:black;stroke-width:0.5;fill:url(#radialffffffbfbfbf)"/>
<circle cx="85.562930" cy="112.477266" r="5.636364" opacity="0.200000" style="stroke:black;stroke-width:0.5;fill:url(#radialffffffbfbfbf)"/>
<circle cx="169.590999" cy="111.145224" r="5.636364" opacity="0.200000" style="stroke:black;stroke-width:0.5;fill:url(#radialffffffbfbfbf)"/>
<circle cx="251.167338" cy="110.665817" r="5.636364" opacity="0.200000" style="stroke:black;stroke-width:0.5;fill:url(#radialffffffbfbfbf)"/>
<circle cx="662.585058" cy="112.280999" r="5.636364" opacity="0.200000" style="stroke:black;stroke-width:0.5;fill:url(#radialffffffbfbfbf)"/>
<circle cx="620.191359" cy="44.568841" r="5.636364" opacity="0.200000" style="stroke:black;stroke-width:0.5;fill:url(#radialffffffbfbfbf)"/>
<circle cx="538.901377" cy="44.169872" r="5.636364" opacity="0.200000" style="stroke:black;stroke-width:0.5;fill:url(#radialffffffbfbfbf)"/>
<circle cx="126.885204" cy="43.259321" r="5.636364" opacity="0.231354" style="stroke:black;stroke-width:0.5;fill:url(#radialffffffbfbfbf)"/>
<circle cx="456.829544" cy="44.407967" r="5.636364" opacity="0.250377" style="stroke:black;stroke-width:0.5;fill:url(#radialffffffbfbfbf)"/>
<circle cx="209.851500" cy="41.518657" r="5.636364" opacity="0.256732" style="stroke:black;stroke-width:0.5;fill:url(#radialffffffbfbfbf)"/>
<circle cx="414.081921" cy="111.550628" r="5.636364" opacity="0.265411" style="stroke:black;stroke-width:0.5;fill:url(#radialffffffbfbfbf)"/>
<circle cx="332.894899" cy="110.881389" r="5.636364" opacity="0.317420" style="stroke:black;stroke-width:0.5;fill:url(#radialffffffbfbfbf)"/>
<circle cx="291.466448" cy="41.402827" r="5.636364" opacity="0.317816" style="stroke:black;stroke-width:0.5;fill:url(#radialffffffbfbfbf)"/>
<circle cx="374.152823" cy="41.512222" r="5.636364" opacity="0.326259" style="stroke:black;stroke-width:0.5;fill:url(#radialffffffbfbfbf)"/>
<circle cx="498.534699" cy="113.567997" r="5.636364" opacity="0.337785" style="stroke:black;stroke-width:0.5;fill:url(#radialffffffbfbfbf)"/>
<circle cx="578.965610" cy="114.086013" r="5.636364" opacity="0.341270" style="stroke:black;stroke-width:0.5;fill:url(#radialffffffbfbfbf)"/>
<circle cx="732.131187" cy="84.086101" r="5.636364" opacity="0.660990" style="stroke:black;stroke-width:0.5;fill:url(#radialffffffbfbfbf)"/>
<circle cx="703.489057" cy="63.613187" r="13.818182" opacity="0.669769" style="stroke:black;stroke-width:0.5;fill:url(#radialffffff666666)"/>
<circle cx="168.989328" cy="91.515294" r="13.818182" opacity="0.684456" style="stroke:black;stroke-width:0.5;fill:url(#radialffffff666666)"/>
<circle cx="87.026890" cy="93.416833" r="13.818182" opacity="0.684860" style="stroke:black;stroke-width:0.5;fill:url(#radialffffff666666)"/>
<circle cx="662.993680" cy="91.055192" r="13.818182" opacity="0.684970" style="stroke:black;stroke-width:0.5;fill:url(#radialffffff666666)"/>
<circle cx="127.235910" cy="65.382809" r="13.818182" opacity="0.695765" style="stroke:black;stroke-width:0.5;fill:url(#radialffffff666666)"/>
<circle cx="621.381832" cy="64.710353" r="13.818182" opacity="0.697066" style="stroke:black;stroke-width:0.5;fill:url(#radialffffff666666)"/>
<circle cx="250.256787" cy="91.393029" r="13.818182" opacity="0.698149" style="stroke:black;stroke-width:0.5;fill:url(#radialffffff666666)"/>
<circle cx="209.539403" cy="63.658232" r="13.818182" opacity="0.704145" style="stroke:black;stroke-width:0.5;fill:url(#radialffffff666666)"/>
<circle cx="539.052599" cy="62.956819" r="13.857145" opacity="0.708103" style="stroke:black;stroke-width:0.5;fill:url(#radialffffff666666)"/>
<circle cx="40.000000" cy="60.788228" r="18.648174" opacity="0.709062" style="stroke:black;stroke-width:0.5;fill:url(#radialffffff1eef1e)"/>
<circle cx="456.620407" cy="64.729658" r="14.221734" opacity="0.717358" style="stroke:black;stroke-width:0.5;fill:url(#radialffffff666666)"/>
<circle cx="414.905600" cy="91.003712" r="14.351149" opacity="0.720614" style="stroke:black;stroke-width:0.5;fill:url(#radialffffff666666)"/>
<circle cx="579.647719" cy="90.762400" r="14.673991" opacity="0.728675" style="stroke:black;stroke-width:0.5;fill:url(#radialffffff666666)"/>
<circle cx="290.745730" cy="63.532750" r="14.680948" opacity="0.728847" style="stroke:black;stroke-width:0.5;fill:url(#radialffffff666666)"/>
<circle cx="498.454262" cy="90.755965" r="14.803406" opacity="0.731881" style="stroke:black;stroke-width:0.5;fill:url(#radialffffff666666)"/>
<circle cx="332.589237" cy="89.565493" r="14.962043" opacity="0.735792" style="stroke:black;stroke-width:0.5;fill:url(#radialffffff666666)"/>
<circle cx="374.275087" cy="63.233523" r="14.973176" opacity="0.736066" style="stroke:black;stroke-width:0.5;fill:url(#radialffffff666666)"/>
<circle cx="705.541818" cy="42.889309" r="10.066557" opacity="0.944987" style="stroke:black;stroke-width:0.5;fill:url(#radialffffffbfbfbf)"/>
<circle cx="169.134115" cy="113.941226" r="10.090396" opacity="0.946106" style="stroke:black;stroke-width:0.5;fill:url(#radialffffffbfbfbf)"/>
<circle cx="86.154949" cy="115.286138" r="10.149995" opacity="0.948896" style="stroke:black;stroke-width:0.5;fill:url(#radialffffffbfbfbf)"/>
<circle cx="249.635811" cy="113.921921" r="10.283951" opacity="0.955137" style="stroke:black;stroke-width:0.5;fill:url(#radialffffffbfbfbf)"/>
<circle cx="664.264590" cy="111.862725" r="10.308926" opacity="0.956296" style="stroke:black;stroke-width:0.5;fill:url(#radialffffffbfbfbf)"/>
<circle cx="622.659177" cy="42.525733" r="10.319143" opacity="0.956769" style="stroke:black;stroke-width:0.5;fill:url(#radialffffffbfbfbf)"/>
<circle cx="539.181299" cy="40.000000" r="10.377607" opacity="0.959476" style="stroke:black;stroke-width:0.5;fill:url(#radialffffffbfbfbf)"/>
<circle cx="126.968858" cy="45.431130" r="10.595569" opacity="0.969500" style="stroke:black;stroke-width:0.5;fill:url(#radialffffffbfbfbf)"/>
<circle cx="456.324398" cy="42.712347" r="10.671061" opacity="0.972947" style="stroke:black;stroke-width:0.5;fill:url(#radialffffffbfbfbf)"/>
<circle cx="208.976341" cy="43.957517" r="10.752797" opacity="0.976666" style="stroke:black;stroke-width:0.5;fill:url(#radialffffffbfbfbf)"/>
<circle cx="415.121172" cy="112.554486" r="10.784015" opacity="0.978083" style="stroke:black;stroke-width:0.5;fill:url(#radialffffffbfbfbf)"/>
<circle cx="332.418710" cy="110.601467" r="11.105282" opacity="0.992545" style="stroke:black;stroke-width:0.5;fill:url(#radialffffffbfbfbf)"/>
<circle cx="289.339685" cy="43.571418" r="11.117202" opacity="0.993078" style="stroke:black;stroke-width:0.5;fill:url(#radialffffffbfbfbf)"/>
<circle cx="374.989371" cy="42.876439" r="11.190991" opacity="0.996368" style="stroke:black;stroke-width:0.5;fill:url(#radialffffffbfbfbf)"/>
<circle cx="498.972279" cy="109.977274" r="11.259672" opacity="0.999421" style="stroke:black;stroke-width:0.5;fill:url(#radialffffffbfbfbf)"/>
<circle cx="579.802159" cy="109.401342" r="11.272727" opacity="1.000000" style="stroke:black;stroke-width:0.5;fill:url(#radialffffffbfbfbf)"/>
</svg>
</g>
</svg>
