<?xml version="1.0"?>
<svg version="1.1" id="topsvg"
xmlns="http://www.w3.org/2000/svg" xmlns:xlink="http://www.w3.org/1999/xlink"
xmlns:cml="http://www.xml-cml.org/schema" x="0" y="0" width="200px" height="200px" viewBox="0 0 100 100">
<title>21832 - Open Babel Depiction</title>
<rect x="0" y="0" width="100" height="100" fill="white"/>
<defs>
<radialGradient id='radialffffff666666' cx='50%' cy='50%' r='50%' fx='30%' fy='30%'>
  <stop offset=' 0%' stop-color="rgb(255,255,255)"  stop-opacity='1.0'/>
  <stop offset='100%' stop-color="rgb(102,102,102)"  stop-opacity ='1.0'/>
</radialGradient>
<radialGradient id='radialffffffbfbfbf' cx='50%' cy='50%' r='50%' fx='30%' fy='30%'>
  <stop offset=' 0%' stop-color="rgb(255,255,255)"  stop-opacity='1.0'/>
  <stop offset='100%' stop-color="rgb(191,191,191)"  stop-opacity ='1.0'/>
</radialGradient>
</defs>
<g transform="translate(0,0)">
<svg width="100" height="100" x="0" y="0" viewBox="0 0 509.912 237.334"
font-family="sans-serif" stroke="rgb(0,0,0)" stroke-width="4"  stroke-linecap="round">
<line x1="352.2" y1="135.9" x2="308.9" y2="154.4" opacity="1.0" stroke="rgb(0,0,0)"  stroke-width="1.4"/>
<line x1="352.2" y1="135.9" x2="352.4" y2="133.8" opacity="0.5" stroke="rgb(0,0,0)"  stroke-width="0.6"/>
<line x1="358.5" y1="90.3" x2="355.5" y2="90.6" opacity="0.2" stroke="rgb(0,0,0)"  stroke-width="2.4"/>
<line x1="358.5" y1="90.3" x2="334.1" y2="68.0" opacity="0.8" stroke="rgb(0,0,0)"  stroke-width="1.6"/>
<line x1="389.3" y1="165.6" x2="385.6" y2="197.3" opacity="0.5" stroke="rgb(0,0,0)"  stroke-width="1.4"/>
<line x1="389.3" y1="165.6" x2="388.4" y2="170.7" opacity="0.5" stroke="rgb(0,0,0)"  stroke-width="2.2"/>
<line x1="308.9" y1="154.4" x2="271.4" y2="126.0" opacity="0.7" stroke="rgb(0,0,0)"  stroke-width="1.4"/>
<line x1="308.9" y1="154.4" x2="304.9" y2="186.9" opacity="0.5" stroke="rgb(0,0,0)"  stroke-width="1.4"/>
<line x1="308.9" y1="154.4" x2="308.1" y2="157.9" opacity="0.5" stroke="rgb(0,0,0)"  stroke-width="2.2"/>
<line x1="402.4" y1="71.7" x2="406.6" y2="40.0" opacity="0.7" stroke="rgb(0,0,0)"  stroke-width="1.6"/>
<line x1="402.4" y1="71.7" x2="403.5" y2="66.6" opacity="0.5" stroke="rgb(0,0,0)"  stroke-width="0.8"/>
<line x1="433.1" y1="146.8" x2="436.1" y2="146.1" opacity="0.3" stroke="rgb(0,0,0)"  stroke-width="0.6"/>
<line x1="433.1" y1="146.8" x2="458.9" y2="167.8" opacity="0.2" stroke="rgb(0,0,0)"  stroke-width="1.4"/>
<line x1="439.2" y1="101.4" x2="469.9" y2="88.2" opacity="0.5" stroke="rgb(0,0,0)"  stroke-width="1.6"/>
<line x1="439.2" y1="101.4" x2="440.9" y2="102.8" opacity="0.5" stroke="rgb(0,0,0)"  stroke-width="2.4"/>
<line x1="271.4" y1="126.0" x2="227.9" y2="145.3" opacity="0.8" stroke="rgb(0,0,0)"  stroke-width="1.4"/>
<line x1="271.4" y1="126.0" x2="273.5" y2="93.9" opacity="0.5" stroke="rgb(0,0,0)"  stroke-width="1.4"/>
<line x1="271.4" y1="126.0" x2="272.2" y2="121.9" opacity="0.5" stroke="rgb(0,0,0)"  stroke-width="0.6"/>
<line x1="227.9" y1="145.3" x2="190.5" y2="116.1" opacity="0.2" stroke="rgb(0,0,0)"  stroke-width="1.4"/>
<line x1="227.9" y1="145.3" x2="224.0" y2="177.2" opacity="0.5" stroke="rgb(0,0,0)"  stroke-width="1.4"/>
<line x1="227.9" y1="145.3" x2="227.3" y2="149.7" opacity="0.5" stroke="rgb(0,0,0)"  stroke-width="2.2"/>
<line x1="190.5" y1="116.1" x2="146.4" y2="132.7" opacity="0.7" stroke="rgb(0,0,0)"  stroke-width="1.4"/>
<line x1="190.5" y1="116.1" x2="190.5" y2="112.6" opacity="0.5" stroke="rgb(0,0,0)"  stroke-width="0.6"/>
<line x1="190.5" y1="116.1" x2="195.5" y2="83.8" opacity="0.2" stroke="rgb(0,0,0)"  stroke-width="1.4"/>
<line x1="146.4" y1="132.7" x2="109.2" y2="102.4" opacity="0.5" stroke="rgb(0,0,0)"  stroke-width="1.5"/>
<line x1="146.4" y1="132.7" x2="146.9" y2="137.6" opacity="0.5" stroke="rgb(0,0,0)"  stroke-width="2.2"/>
<line x1="146.4" y1="132.7" x2="140.6" y2="164.4" opacity="0.7" stroke="rgb(0,0,0)"  stroke-width="1.4"/>
<line x1="109.2" y1="102.4" x2="66.1" y2="120.5" opacity="0.5" stroke="rgb(0,0,0)"  stroke-width="1.5"/>
<line x1="109.2" y1="102.4" x2="108.3" y2="97.3" opacity="0.5" stroke="rgb(0,0,0)"  stroke-width="0.7"/>
<line x1="109.2" y1="102.4" x2="114.4" y2="70.8" opacity="0.2" stroke="rgb(0,0,0)"  stroke-width="1.5"/>
<line x1="66.1" y1="120.5" x2="59.5" y2="151.6" opacity="0.5" stroke="rgb(0,0,0)"  stroke-width="1.5"/>
<line x1="66.1" y1="120.5" x2="65.7" y2="125.0" opacity="0.5" stroke="rgb(0,0,0)"  stroke-width="2.4"/>
<line x1="66.1" y1="120.5" x2="40.0" y2="98.3" opacity="0.8" stroke="rgb(0,0,0)"  stroke-width="1.6"/>
<line x1="358.5" y1="90.3" x2="352.2" y2="135.9" opacity="0.5" stroke="rgb(0,0,0)"  stroke-width="1.5"/>
<line x1="352.2" y1="135.9" x2="389.3" y2="165.6" opacity="0.5" stroke="rgb(0,0,0)"  stroke-width="1.4"/>
<line x1="389.3" y1="165.6" x2="433.1" y2="146.8" opacity="0.5" stroke="rgb(0,0,0)"  stroke-width="1.4"/>
<line x1="433.1" y1="146.8" x2="439.2" y2="101.4" opacity="0.5" stroke="rgb(0,0,0)"  stroke-width="1.5"/>
<line x1="439.2" y1="101.4" x2="402.4" y2="71.7" opacity="0.5" stroke="rgb(0,0,0)"  stroke-width="1.6"/>
<line x1="402.4" y1="71.7" x2="358.5" y2="90.3" opacity="0.5" stroke="rgb(0,0,0)"  stroke-width="1.6"/>
<circle cx="190.504216" cy="112.612843" r="5.636364" opacity="0.200000" style="stroke:black;stroke-width:0.5;fill:url(#radialffffffbfbfbf)"/>
<circle cx="272.232761" cy="121.867199" r="5.636364" opacity="0.200000" style="stroke:black;stroke-width:0.5;fill:url(#radialffffffbfbfbf)"/>
<circle cx="352.374845" cy="133.801128" r="5.636364" opacity="0.200000" style="stroke:black;stroke-width:0.5;fill:url(#radialffffffbfbfbf)"/>
<circle cx="436.057446" cy="146.112324" r="5.636364" opacity="0.200000" style="stroke:black;stroke-width:0.5;fill:url(#radialffffffbfbfbf)"/>
<circle cx="108.304891" cy="97.312521" r="5.636364" opacity="0.200000" style="stroke:black;stroke-width:0.5;fill:url(#radialffffffbfbfbf)"/>
<circle cx="403.534993" cy="66.570000" r="5.636364" opacity="0.266125" style="stroke:black;stroke-width:0.5;fill:url(#radialffffffbfbfbf)"/>
<circle cx="223.955330" cy="177.196644" r="5.636364" opacity="0.615240" style="stroke:black;stroke-width:0.5;fill:url(#radialffffffbfbfbf)"/>
<circle cx="385.561549" cy="197.333738" r="5.636364" opacity="0.616664" style="stroke:black;stroke-width:0.5;fill:url(#radialffffffbfbfbf)"/>
<circle cx="190.517114" cy="116.104992" r="13.818182" opacity="0.625051" style="stroke:black;stroke-width:0.5;fill:url(#radialffffff666666)"/>
<circle cx="140.611302" cy="164.417893" r="5.636364" opacity="0.625766" style="stroke:black;stroke-width:0.5;fill:url(#radialffffffbfbfbf)"/>
<circle cx="271.352469" cy="125.988129" r="13.818182" opacity="0.626223" style="stroke:black;stroke-width:0.5;fill:url(#radialffffff666666)"/>
<circle cx="352.203946" cy="135.861593" r="13.818182" opacity="0.628818" style="stroke:black;stroke-width:0.5;fill:url(#radialffffff666666)"/>
<circle cx="304.929338" cy="186.863739" r="5.636364" opacity="0.634991" style="stroke:black;stroke-width:0.5;fill:url(#radialffffffbfbfbf)"/>
<circle cx="433.136036" cy="146.837840" r="13.818182" opacity="0.640211" style="stroke:black;stroke-width:0.5;fill:url(#radialffffff666666)"/>
<circle cx="59.527660" cy="151.613346" r="5.636364" opacity="0.648983" style="stroke:black;stroke-width:0.5;fill:url(#radialffffffbfbfbf)"/>
<circle cx="109.223878" cy="102.384683" r="13.818182" opacity="0.652694" style="stroke:black;stroke-width:0.5;fill:url(#radialffffff666666)"/>
<circle cx="402.370943" cy="71.651835" r="13.818182" opacity="0.677579" style="stroke:black;stroke-width:0.5;fill:url(#radialffffff666666)"/>
<circle cx="334.140216" cy="67.962990" r="5.636364" opacity="0.677790" style="stroke:black;stroke-width:0.5;fill:url(#radialffffffbfbfbf)"/>
<circle cx="469.911624" cy="88.161349" r="5.636364" opacity="0.694764" style="stroke:black;stroke-width:0.5;fill:url(#radialffffffbfbfbf)"/>
<circle cx="40.000000" cy="98.347590" r="5.636364" opacity="0.704737" style="stroke:black;stroke-width:0.5;fill:url(#radialffffffbfbfbf)"/>
<circle cx="195.544132" cy="83.766336" r="6.086781" opacity="0.734817" style="stroke:black;stroke-width:0.5;fill:url(#radialffffffbfbfbf)"/>
<circle cx="227.944054" cy="145.261052" r="14.954079" opacity="0.735596" style="stroke:black;stroke-width:0.5;fill:url(#radialffffff666666)"/>
<circle cx="458.874111" cy="167.848777" r="6.125509" opacity="0.737151" style="stroke:black;stroke-width:0.5;fill:url(#radialffffffbfbfbf)"/>
<circle cx="389.321333" cy="165.572269" r="15.133092" opacity="0.739986" style="stroke:black;stroke-width:0.5;fill:url(#radialffffff666666)"/>
<circle cx="146.379959" cy="132.704793" r="15.293315" opacity="0.743893" style="stroke:black;stroke-width:0.5;fill:url(#radialffffff666666)"/>
<circle cx="273.477424" cy="93.926781" r="6.243710" opacity="0.744229" style="stroke:black;stroke-width:0.5;fill:url(#radialffffffbfbfbf)"/>
<circle cx="308.876144" cy="154.434796" r="15.308150" opacity="0.744254" style="stroke:black;stroke-width:0.5;fill:url(#radialffffff666666)"/>
<circle cx="66.131466" cy="120.493556" r="16.331792" opacity="0.768735" style="stroke:black;stroke-width:0.5;fill:url(#radialffffff666666)"/>
<circle cx="114.441142" cy="70.832808" r="6.684244" opacity="0.770037" style="stroke:black;stroke-width:0.5;fill:url(#radialffffffbfbfbf)"/>
<circle cx="358.507872" cy="90.260508" r="16.498938" opacity="0.772658" style="stroke:black;stroke-width:0.5;fill:url(#radialffffff666666)"/>
<circle cx="439.169103" cy="101.407655" r="16.807514" opacity="0.779850" style="stroke:black;stroke-width:0.5;fill:url(#radialffffff666666)"/>
<circle cx="406.582159" cy="40.000000" r="7.069912" opacity="0.791940" style="stroke:black;stroke-width:0.5;fill:url(#radialffffffbfbfbf)"/>
<circle cx="227.299151" cy="149.701209" r="10.488481" opacity="0.964588" style="stroke:black;stroke-width:0.5;fill:url(#radialffffffbfbfbf)"/>
<circle cx="388.373325" cy="170.670227" r="10.552625" opacity="0.967533" style="stroke:black;stroke-width:0.5;fill:url(#radialffffffbfbfbf)"/>
<circle cx="146.931351" cy="137.554463" r="10.622013" opacity="0.970709" style="stroke:black;stroke-width:0.5;fill:url(#radialffffffbfbfbf)"/>
<circle cx="308.111934" cy="157.920496" r="10.648639" opacity="0.971925" style="stroke:black;stroke-width:0.5;fill:url(#radialffffffbfbfbf)"/>
<circle cx="65.705830" cy="125.023999" r="11.041165" opacity="0.989676" style="stroke:black;stroke-width:0.5;fill:url(#radialffffffbfbfbf)"/>
<circle cx="355.463930" cy="90.647450" r="11.140003" opacity="0.994096" style="stroke:black;stroke-width:0.5;fill:url(#radialffffffbfbfbf)"/>
<circle cx="440.884545" cy="102.787747" r="11.272727" opacity="1.000000" style="stroke:black;stroke-width:0.5;fill:url(#radialffffffbfbfbf)"/>
</svg>
</g>
</svg>
