<?xml version="1.0"?>
<svg version="1.1" id="topsvg"
xmlns="http://www.w3.org/2000/svg" xmlns:xlink="http://www.w3.org/1999/xlink"
xmlns:cml="http://www.xml-cml.org/schema" x="0" y="0" width="1024px" height="1024px" viewBox="0 0 100 100">
<title>23459 - Open Babel Depiction</title>
<rect x="0" y="0" width="100" height="100" fill="white"/>
<defs>
<radialGradient id='radialffffff666666' cx='50%' cy='50%' r='50%' fx='30%' fy='30%'>
  <stop offset=' 0%' stop-color="rgb(255,255,255)"  stop-opacity='1.0'/>
  <stop offset='100%' stop-color="rgb(102,102,102)"  stop-opacity ='1.0'/>
</radialGradient>
<radialGradient id='radialffffffbfbfbf' cx='50%' cy='50%' r='50%' fx='30%' fy='30%'>
  <stop offset=' 0%' stop-color="rgb(255,255,255)"  stop-opacity='1.0'/>
  <stop offset='100%' stop-color="rgb(191,191,191)"  stop-opacity ='1.0'/>
</radialGradient>
</defs>
<g transform="translate(0,0)">
<svg width="100" height="100" x="0" y="0" viewBox="0 0 554.763 208.144"
font-family="sans-serif" stroke="rgb(0,0,0)" stroke-width="2"  stroke-linecap="round">
<line x1="318.5" y1="79.7" x2="360.4" y2="103.5" opacity="1.0" stroke="rgb(0,0,0)"  stroke-width="1.3"/>
<line x1="318.5" y1="79.7" x2="276.9" y2="105.6" opacity="0.4" stroke="rgb(0,0,0)"  stroke-width="1.4"/>
<line x1="318.5" y1="79.7" x2="319.4" y2="72.6" opacity="0.5" stroke="rgb(0,0,0)"  stroke-width="2.1"/>
<line x1="318.5" y1="79.7" x2="317.0" y2="48.1" opacity="0.7" stroke="rgb(0,0,0)"  stroke-width="1.3"/>
<line x1="360.4" y1="103.5" x2="401.9" y2="77.6" opacity="0.4" stroke="rgb(0,0,0)"  stroke-width="1.3"/>
<line x1="360.4" y1="103.5" x2="359.5" y2="111.0" opacity="0.4" stroke="rgb(0,0,0)"  stroke-width="0.6"/>
<line x1="360.4" y1="103.5" x2="361.0" y2="134.8" opacity="0.2" stroke="rgb(0,0,0)"  stroke-width="1.4"/>
<line x1="276.9" y1="105.6" x2="234.0" y2="84.5" opacity="0.5" stroke="rgb(0,0,0)"  stroke-width="1.5"/>
<line x1="276.9" y1="105.6" x2="275.4" y2="111.0" opacity="0.5" stroke="rgb(0,0,0)"  stroke-width="0.7"/>
<line x1="276.9" y1="105.6" x2="279.5" y2="137.9" opacity="0.2" stroke="rgb(0,0,0)"  stroke-width="1.5"/>
<line x1="401.9" y1="77.6" x2="445.3" y2="100.8" opacity="0.5" stroke="rgb(0,0,0)"  stroke-width="1.3"/>
<line x1="401.9" y1="77.6" x2="401.6" y2="68.8" opacity="0.4" stroke="rgb(0,0,0)"  stroke-width="2.0"/>
<line x1="401.9" y1="77.6" x2="400.7" y2="46.7" opacity="0.7" stroke="rgb(0,0,0)"  stroke-width="1.2"/>
<line x1="234.0" y1="84.5" x2="193.6" y2="111.0" opacity="0.4" stroke="rgb(0,0,0)"  stroke-width="1.5"/>
<line x1="234.0" y1="84.5" x2="234.7" y2="80.3" opacity="0.5" stroke="rgb(0,0,0)"  stroke-width="2.3"/>
<line x1="234.0" y1="84.5" x2="231.7" y2="51.8" opacity="0.8" stroke="rgb(0,0,0)"  stroke-width="1.5"/>
<line x1="445.3" y1="100.8" x2="483.6" y2="71.0" opacity="0.5" stroke="rgb(0,0,0)"  stroke-width="1.3"/>
<line x1="445.3" y1="100.8" x2="449.8" y2="144.4" opacity="0.4" stroke="rgb(0,0,0)"  stroke-width="1.5"/>
<line x1="445.3" y1="100.8" x2="446.6" y2="107.2" opacity="0.5" stroke="rgb(0,0,0)"  stroke-width="0.6"/>
<line x1="193.6" y1="111.0" x2="150.7" y2="88.7" opacity="0.2" stroke="rgb(0,0,0)"  stroke-width="1.5"/>
<line x1="193.6" y1="111.0" x2="195.2" y2="143.2" opacity="0.5" stroke="rgb(0,0,0)"  stroke-width="1.5"/>
<line x1="193.6" y1="111.0" x2="193.9" y2="116.4" opacity="0.5" stroke="rgb(0,0,0)"  stroke-width="0.7"/>
<line x1="150.7" y1="88.7" x2="110.2" y2="113.8" opacity="0.2" stroke="rgb(0,0,0)"  stroke-width="1.4"/>
<line x1="150.7" y1="88.7" x2="150.0" y2="55.9" opacity="0.5" stroke="rgb(0,0,0)"  stroke-width="1.5"/>
<line x1="150.7" y1="88.7" x2="149.6" y2="84.5" opacity="0.5" stroke="rgb(0,0,0)"  stroke-width="2.2"/>
<line x1="483.6" y1="71.0" x2="514.8" y2="86.3" opacity="0.7" stroke="rgb(0,0,0)"  stroke-width="1.4"/>
<line x1="483.6" y1="71.0" x2="481.5" y2="40.0" opacity="0.5" stroke="rgb(0,0,0)"  stroke-width="1.2"/>
<line x1="483.6" y1="71.0" x2="484.2" y2="63.9" opacity="0.4" stroke="rgb(0,0,0)"  stroke-width="2.1"/>
<line x1="449.8" y1="144.4" x2="445.5" y2="140.4" opacity="0.7" stroke="rgb(0,0,0)"  stroke-width="2.4"/>
<line x1="449.8" y1="144.4" x2="482.1" y2="158.6" opacity="0.8" stroke="rgb(0,0,0)"  stroke-width="1.8"/>
<line x1="449.8" y1="144.4" x2="425.8" y2="168.1" opacity="0.6" stroke="rgb(0,0,0)"  stroke-width="1.7"/>
<line x1="110.2" y1="113.8" x2="68.5" y2="89.3" opacity="0.6" stroke="rgb(0,0,0)"  stroke-width="1.4"/>
<line x1="110.2" y1="113.8" x2="109.6" y2="146.1" opacity="0.5" stroke="rgb(0,0,0)"  stroke-width="1.5"/>
<line x1="110.2" y1="113.8" x2="111.6" y2="119.1" opacity="0.5" stroke="rgb(0,0,0)"  stroke-width="0.6"/>
<line x1="68.5" y1="89.3" x2="40.0" y2="107.9" opacity="0.2" stroke="rgb(0,0,0)"  stroke-width="1.4"/>
<line x1="68.5" y1="89.3" x2="65.7" y2="84.3" opacity="0.5" stroke="rgb(0,0,0)"  stroke-width="2.1"/>
<line x1="68.5" y1="89.3" x2="67.7" y2="57.4" opacity="0.7" stroke="rgb(0,0,0)"  stroke-width="1.3"/>
<circle cx="446.631440" cy="107.178981" r="5.636364" opacity="0.200000" style="stroke:black;stroke-width:0.5;fill:url(#radialffffffbfbfbf)"/>
<circle cx="359.481211" cy="110.987846" r="5.636364" opacity="0.200000" style="stroke:black;stroke-width:0.5;fill:url(#radialffffffbfbfbf)"/>
<circle cx="111.611234" cy="119.075565" r="5.636364" opacity="0.200000" style="stroke:black;stroke-width:0.5;fill:url(#radialffffffbfbfbf)"/>
<circle cx="275.447920" cy="111.046595" r="5.636364" opacity="0.200000" style="stroke:black;stroke-width:0.5;fill:url(#radialffffffbfbfbf)"/>
<circle cx="193.931025" cy="116.363340" r="5.636364" opacity="0.227231" style="stroke:black;stroke-width:0.5;fill:url(#radialffffffbfbfbf)"/>
<circle cx="400.735757" cy="46.720183" r="5.636364" opacity="0.539660" style="stroke:black;stroke-width:0.5;fill:url(#radialffffffbfbfbf)"/>
<circle cx="481.537877" cy="40.000000" r="5.636364" opacity="0.558710" style="stroke:black;stroke-width:0.5;fill:url(#radialffffffbfbfbf)"/>
<circle cx="317.009264" cy="48.094246" r="5.636364" opacity="0.579194" style="stroke:black;stroke-width:0.5;fill:url(#radialffffffbfbfbf)"/>
<circle cx="67.742377" cy="57.386311" r="5.636364" opacity="0.592010" style="stroke:black;stroke-width:0.5;fill:url(#radialffffffbfbfbf)"/>
<circle cx="445.306333" cy="100.814554" r="13.818182" opacity="0.610870" style="stroke:black;stroke-width:0.5;fill:url(#radialffffff666666)"/>
<circle cx="360.352648" cy="103.526779" r="13.818182" opacity="0.613103" style="stroke:black;stroke-width:0.5;fill:url(#radialffffff666666)"/>
<circle cx="110.230643" cy="113.824097" r="13.818182" opacity="0.633930" style="stroke:black;stroke-width:0.5;fill:url(#radialffffff666666)"/>
<circle cx="276.916634" cy="105.563396" r="13.818182" opacity="0.636082" style="stroke:black;stroke-width:0.5;fill:url(#radialffffff666666)"/>
<circle cx="40.000000" cy="107.870909" r="5.636364" opacity="0.636353" style="stroke:black;stroke-width:0.5;fill:url(#radialffffffbfbfbf)"/>
<circle cx="514.763453" cy="86.326505" r="5.636364" opacity="0.638307" style="stroke:black;stroke-width:0.5;fill:url(#radialffffffbfbfbf)"/>
<circle cx="149.996892" cy="55.852320" r="5.636364" opacity="0.639390" style="stroke:black;stroke-width:0.5;fill:url(#radialffffffbfbfbf)"/>
<circle cx="231.693296" cy="51.792142" r="5.636364" opacity="0.641064" style="stroke:black;stroke-width:0.5;fill:url(#radialffffffbfbfbf)"/>
<circle cx="193.601381" cy="110.955208" r="13.818182" opacity="0.653222" style="stroke:black;stroke-width:0.5;fill:url(#radialffffff666666)"/>
<circle cx="401.946630" cy="77.589289" r="13.818182" opacity="0.695406" style="stroke:black;stroke-width:0.5;fill:url(#radialffffff666666)"/>
<circle cx="483.636507" cy="71.022505" r="13.818182" opacity="0.706385" style="stroke:black;stroke-width:0.5;fill:url(#radialffffff666666)"/>
<circle cx="425.808338" cy="168.143670" r="5.677104" opacity="0.709658" style="stroke:black;stroke-width:0.5;fill:url(#radialffffffbfbfbf)"/>
<circle cx="318.451868" cy="79.652016" r="14.200016" opacity="0.716810" style="stroke:black;stroke-width:0.5;fill:url(#radialffffff666666)"/>
<circle cx="68.525691" cy="89.316154" r="14.375879" opacity="0.721235" style="stroke:black;stroke-width:0.5;fill:url(#radialffffff666666)"/>
<circle cx="361.041312" cy="134.797333" r="6.305164" opacity="0.747883" style="stroke:black;stroke-width:0.5;fill:url(#radialffffffbfbfbf)"/>
<circle cx="150.662709" cy="88.676448" r="15.488406" opacity="0.748623" style="stroke:black;stroke-width:0.5;fill:url(#radialffffff666666)"/>
<circle cx="234.036711" cy="84.537938" r="15.539063" opacity="0.749846" style="stroke:black;stroke-width:0.5;fill:url(#radialffffff666666)"/>
<circle cx="279.475460" cy="137.930590" r="6.367541" opacity="0.751573" style="stroke:black;stroke-width:0.5;fill:url(#radialffffffbfbfbf)"/>
<circle cx="109.610519" cy="146.054211" r="6.381966" opacity="0.752424" style="stroke:black;stroke-width:0.5;fill:url(#radialffffffbfbfbf)"/>
<circle cx="482.141682" cy="158.619876" r="6.392102" opacity="0.753021" style="stroke:black;stroke-width:0.5;fill:url(#radialffffffbfbfbf)"/>
<circle cx="195.164745" cy="143.231016" r="6.650188" opacity="0.768073" style="stroke:black;stroke-width:0.5;fill:url(#radialffffffbfbfbf)"/>
<circle cx="449.823445" cy="144.389668" r="17.311078" opacity="0.791447" style="stroke:black;stroke-width:0.5;fill:url(#radialffffff666666)"/>
<circle cx="401.577820" cy="68.770477" r="9.601019" opacity="0.922878" style="stroke:black;stroke-width:0.5;fill:url(#radialffffffbfbfbf)"/>
<circle cx="484.178299" cy="63.858444" r="9.808423" opacity="0.932793" style="stroke:black;stroke-width:0.5;fill:url(#radialffffffbfbfbf)"/>
<circle cx="319.372262" cy="72.625035" r="9.984249" opacity="0.941116" style="stroke:black;stroke-width:0.5;fill:url(#radialffffffbfbfbf)"/>
<circle cx="65.699232" cy="84.270306" r="10.075085" opacity="0.945388" style="stroke:black;stroke-width:0.5;fill:url(#radialffffffbfbfbf)"/>
<circle cx="149.601971" cy="84.466134" r="10.562797" opacity="0.967999" style="stroke:black;stroke-width:0.5;fill:url(#radialffffffbfbfbf)"/>
<circle cx="234.689473" cy="80.301514" r="10.583069" opacity="0.968928" style="stroke:black;stroke-width:0.5;fill:url(#radialffffffbfbfbf)"/>
<circle cx="445.525009" cy="140.365392" r="11.272727" opacity="1.000000" style="stroke:black;stroke-width:0.5;fill:url(#radialffffffbfbfbf)"/>
</svg>
</g>
</svg>
