<?xml version="1.0"?>
<svg version="1.1" id="topsvg"
xmlns="http://www.w3.org/2000/svg" xmlns:xlink="http://www.w3.org/1999/xlink"
xmlns:cml="http://www.xml-cml.org/schema" x="0" y="0" width="200px" height="200px" viewBox="0 0 100 100">
<title>241 - Open Babel Depiction</title>
<rect x="0" y="0" width="100" height="100" fill="white"/>
<defs>
<radialGradient id='radialffffff666666' cx='50%' cy='50%' r='50%' fx='30%' fy='30%'>
  <stop offset=' 0%' stop-color="rgb(255,255,255)"  stop-opacity='1.0'/>
  <stop offset='100%' stop-color="rgb(102,102,102)"  stop-opacity ='1.0'/>
</radialGradient>
<radialGradient id='radialffffffbfbfbf' cx='50%' cy='50%' r='50%' fx='30%' fy='30%'>
  <stop offset=' 0%' stop-color="rgb(255,255,255)"  stop-opacity='1.0'/>
  <stop offset='100%' stop-color="rgb(191,191,191)"  stop-opacity ='1.0'/>
</radialGradient>
</defs>
<g transform="translate(0,0)">
<svg width="100" height="100" x="0" y="0" viewBox="0 0 219.154 239.994"
font-family="sans-serif" stroke="rgb(0,0,0)" stroke-width="4"  stroke-linecap="round">
<line x1="70.5" y1="142.2" x2="40.0" y2="159.5" opacity="1.0" stroke="rgb(0,0,0)"  stroke-width="3.0"/>
<line x1="70.8" y1="97.2" x2="40.6" y2="79.5" opacity="1.0" stroke="rgb(0,0,0)"  stroke-width="3.0"/>
<line x1="109.2" y1="165.0" x2="109.0" y2="200.0" opacity="1.0" stroke="rgb(0,0,0)"  stroke-width="3.0"/>
<line x1="109.9" y1="75.0" x2="110.2" y2="40.0" opacity="1.0" stroke="rgb(0,0,0)"  stroke-width="3.0"/>
<line x1="148.4" y1="142.8" x2="178.6" y2="160.5" opacity="1.0" stroke="rgb(0,0,0)"  stroke-width="3.0"/>
<line x1="148.7" y1="97.8" x2="179.2" y2="80.5" opacity="1.0" stroke="rgb(0,0,0)"  stroke-width="3.0"/>
<line x1="68.9" y1="144.8" x2="107.7" y2="167.6" opacity="1.0" stroke="rgb(0,0,0)"  stroke-width="3.0"/>
<line x1="72.0" y1="139.6" x2="110.8" y2="162.4" opacity="1.0" stroke="rgb(0,0,0)"  stroke-width="3.0" stroke-dasharray="5.0,5.0"/>
<line x1="110.7" y1="167.6" x2="149.8" y2="145.4" opacity="1.0" stroke="rgb(0,0,0)"  stroke-width="3.0"/>
<line x1="107.8" y1="162.4" x2="146.9" y2="140.2" opacity="1.0" stroke="rgb(0,0,0)"  stroke-width="3.0" stroke-dasharray="5.0,5.0"/>
<line x1="151.4" y1="142.8" x2="151.7" y2="97.8" opacity="1.0" stroke="rgb(0,0,0)"  stroke-width="3.0"/>
<line x1="145.4" y1="142.7" x2="145.7" y2="97.8" opacity="1.0" stroke="rgb(0,0,0)"  stroke-width="3.0" stroke-dasharray="5.0,5.0"/>
<line x1="150.2" y1="95.2" x2="111.4" y2="72.4" opacity="1.0" stroke="rgb(0,0,0)"  stroke-width="3.0"/>
<line x1="147.2" y1="100.4" x2="108.4" y2="77.6" opacity="1.0" stroke="rgb(0,0,0)"  stroke-width="3.0" stroke-dasharray="5.0,5.0"/>
<line x1="108.4" y1="72.4" x2="69.3" y2="94.6" opacity="1.0" stroke="rgb(0,0,0)"  stroke-width="3.0"/>
<line x1="111.4" y1="77.6" x2="72.3" y2="99.8" opacity="1.0" stroke="rgb(0,0,0)"  stroke-width="3.0" stroke-dasharray="5.0,5.0"/>
<line x1="67.8" y1="97.2" x2="67.5" y2="142.2" opacity="1.0" stroke="rgb(0,0,0)"  stroke-width="3.0"/>
<line x1="73.8" y1="97.2" x2="73.5" y2="142.2" opacity="1.0" stroke="rgb(0,0,0)"  stroke-width="3.0" stroke-dasharray="5.0,5.0"/>
<circle cx="109.912312" cy="75.019036" r="27.636364" opacity="1.000000" style="stroke:black;stroke-width:0.5;fill:url(#radialffffff666666)"/>
<circle cx="108.983631" cy="199.994428" r="11.272727" opacity="1.000000" style="stroke:black;stroke-width:0.5;fill:url(#radialffffffbfbfbf)"/>
<circle cx="70.459467" cy="142.193672" r="27.636364" opacity="1.000000" style="stroke:black;stroke-width:0.5;fill:url(#radialffffff666666)"/>
<circle cx="109.244822" cy="164.972168" r="27.636364" opacity="1.000000" style="stroke:black;stroke-width:0.5;fill:url(#radialffffff666666)"/>
<circle cx="148.362310" cy="142.770873" r="27.636364" opacity="1.000000" style="stroke:black;stroke-width:0.5;fill:url(#radialffffff666666)"/>
<circle cx="148.694443" cy="97.797532" r="27.636364" opacity="1.000000" style="stroke:black;stroke-width:0.5;fill:url(#radialffffff666666)"/>
<circle cx="40.000000" cy="159.477468" r="11.272727" opacity="1.000000" style="stroke:black;stroke-width:0.5;fill:url(#radialffffffbfbfbf)"/>
<circle cx="110.170279" cy="40.000000" r="11.272727" opacity="1.000000" style="stroke:black;stroke-width:0.5;fill:url(#radialffffffbfbfbf)"/>
<circle cx="179.153910" cy="80.510511" r="11.272727" opacity="1.000000" style="stroke:black;stroke-width:0.5;fill:url(#radialffffffbfbfbf)"/>
<circle cx="70.791600" cy="97.217106" r="27.636364" opacity="1.000000" style="stroke:black;stroke-width:0.5;fill:url(#radialffffff666666)"/>
<circle cx="40.593324" cy="79.481867" r="11.272727" opacity="1.000000" style="stroke:black;stroke-width:0.5;fill:url(#radialffffffbfbfbf)"/>
<circle cx="178.563810" cy="160.506112" r="11.272727" opacity="1.000000" style="stroke:black;stroke-width:0.5;fill:url(#radialffffffbfbfbf)"/>
</svg>
</g>
</svg>
