<?xml version="1.0"?>
<svg version="1.1" id="topsvg"
xmlns="http://www.w3.org/2000/svg" xmlns:xlink="http://www.w3.org/1999/xlink"
xmlns:cml="http://www.xml-cml.org/schema" x="0" y="0" width="200px" height="200px" viewBox="0 0 100 100">
<title>26839 - Open Babel Depiction</title>
<rect x="0" y="0" width="100" height="100" fill="white"/>
<defs>
<radialGradient id='radialffffff666666' cx='50%' cy='50%' r='50%' fx='30%' fy='30%'>
  <stop offset=' 0%' stop-color="rgb(255,255,255)"  stop-opacity='1.0'/>
  <stop offset='100%' stop-color="rgb(102,102,102)"  stop-opacity ='1.0'/>
</radialGradient>
<radialGradient id='radialffffffbfbfbf' cx='50%' cy='50%' r='50%' fx='30%' fy='30%'>
  <stop offset=' 0%' stop-color="rgb(255,255,255)"  stop-opacity='1.0'/>
  <stop offset='100%' stop-color="rgb(191,191,191)"  stop-opacity ='1.0'/>
</radialGradient>
</defs>
<g transform="translate(0,0)">
<svg width="100" height="100" x="0" y="0" viewBox="0 0 382.663 223.462"
font-family="sans-serif" stroke="rgb(0,0,0)" stroke-width="4"  stroke-linecap="round">
<line x1="279.7" y1="106.6" x2="233.3" y2="93.1" opacity="1.0" stroke="rgb(0,0,0)"  stroke-width="1.8"/>
<line x1="279.7" y1="106.6" x2="300.2" y2="142.2" opacity="0.6" stroke="rgb(0,0,0)"  stroke-width="1.9"/>
<line x1="279.7" y1="106.6" x2="277.9" y2="122.7" opacity="0.6" stroke="rgb(0,0,0)"  stroke-width="1.0"/>
<line x1="279.7" y1="106.6" x2="309.2" y2="65.9" opacity="0.3" stroke="rgb(0,0,0)"  stroke-width="1.6"/>
<line x1="233.3" y1="93.1" x2="194.0" y2="116.9" opacity="0.5" stroke="rgb(0,0,0)"  stroke-width="1.7"/>
<line x1="233.3" y1="93.1" x2="231.5" y2="96.3" opacity="0.6" stroke="rgb(0,0,0)"  stroke-width="2.3"/>
<line x1="233.3" y1="93.1" x2="228.8" y2="58.1" opacity="0.8" stroke="rgb(0,0,0)"  stroke-width="1.9"/>
<line x1="194.0" y1="116.9" x2="150.4" y2="96.6" opacity="0.6" stroke="rgb(0,0,0)"  stroke-width="1.6"/>
<line x1="194.0" y1="116.9" x2="195.9" y2="165.7" opacity="0.5" stroke="rgb(0,0,0)"  stroke-width="1.6"/>
<line x1="193.5" y1="115.9" x2="195.0" y2="116.4" opacity="0.5" stroke="rgb(0,0,0)"  stroke-width="1.0"/>
<line x1="193.1" y1="115.1" x2="195.8" y2="116.0" opacity="0.5" stroke="rgb(0,0,0)"  stroke-width="1.0"/>
<line x1="192.7" y1="114.3" x2="196.6" y2="115.6" opacity="0.5" stroke="rgb(0,0,0)"  stroke-width="1.0"/>
<line x1="192.3" y1="113.5" x2="197.4" y2="115.2" opacity="0.5" stroke="rgb(0,0,0)"  stroke-width="1.0"/>
<line x1="191.9" y1="112.7" x2="198.2" y2="114.7" opacity="0.5" stroke="rgb(0,0,0)"  stroke-width="1.0"/>
<line x1="191.4" y1="111.9" x2="199.1" y2="114.3" opacity="0.5" stroke="rgb(0,0,0)"  stroke-width="1.0"/>
<line x1="150.4" y1="96.6" x2="110.2" y2="117.2" opacity="0.5" stroke="rgb(0,0,0)"  stroke-width="1.6"/>
<line x1="150.4" y1="96.6" x2="147.6" y2="99.7" opacity="0.5" stroke="rgb(0,0,0)"  stroke-width="2.2"/>
<line x1="150.4" y1="96.6" x2="150.7" y2="61.5" opacity="0.7" stroke="rgb(0,0,0)"  stroke-width="1.7"/>
<line x1="300.2" y1="142.2" x2="302.5" y2="131.4" opacity="0.6" stroke="rgb(0,0,0)"  stroke-width="2.6"/>
<line x1="300.2" y1="142.2" x2="282.0" y2="172.9" opacity="0.9" stroke="rgb(0,0,0)"  stroke-width="2.2"/>
<line x1="300.2" y1="142.2" x2="333.5" y2="149.8" opacity="0.7" stroke="rgb(0,0,0)"  stroke-width="2.1"/>
<line x1="277.9" y1="122.7" x2="311.2" y2="127.4" opacity="0.7" stroke="rgb(0,0,0)"  stroke-width="0.4"/>
<line x1="277.9" y1="122.7" x2="262.4" y2="98.5" opacity="0.1" stroke="rgb(0,0,0)"  stroke-width="0.4"/>
<line x1="277.9" y1="122.7" x2="261.5" y2="154.0" opacity="0.1" stroke="rgb(0,0,0)"  stroke-width="0.4"/>
<line x1="309.2" y1="65.9" x2="310.9" y2="52.6" opacity="0.1" stroke="rgb(0,0,0)"  stroke-width="2.0"/>
<line x1="309.2" y1="65.9" x2="297.1" y2="40.0" opacity="0.7" stroke="rgb(0,0,0)"  stroke-width="1.4"/>
<line x1="309.2" y1="65.9" x2="342.7" y2="73.6" opacity="0.5" stroke="rgb(0,0,0)"  stroke-width="1.5"/>
<line x1="195.9" y1="165.7" x2="224.8" y2="182.4" opacity="0.5" stroke="rgb(0,0,0)"  stroke-width="1.6"/>
<line x1="195.9" y1="165.7" x2="194.2" y2="170.7" opacity="0.5" stroke="rgb(0,0,0)"  stroke-width="2.1"/>
<line x1="195.9" y1="165.7" x2="168.5" y2="183.5" opacity="0.7" stroke="rgb(0,0,0)"  stroke-width="1.5"/>
<line x1="110.2" y1="117.2" x2="68.3" y2="95.2" opacity="0.5" stroke="rgb(0,0,0)"  stroke-width="1.5"/>
<line x1="110.2" y1="117.2" x2="107.6" y2="151.9" opacity="0.5" stroke="rgb(0,0,0)"  stroke-width="1.4"/>
<line x1="110.2" y1="117.2" x2="112.9" y2="114.7" opacity="0.5" stroke="rgb(0,0,0)"  stroke-width="0.9"/>
<line x1="68.3" y1="95.2" x2="68.4" y2="60.4" opacity="0.3" stroke="rgb(0,0,0)"  stroke-width="1.5"/>
<line x1="68.3" y1="95.2" x2="64.2" y2="98.2" opacity="0.5" stroke="rgb(0,0,0)"  stroke-width="2.0"/>
<line x1="68.3" y1="95.2" x2="40.0" y2="110.4" opacity="0.7" stroke="rgb(0,0,0)"  stroke-width="1.5"/>
<circle cx="262.434993" cy="98.503540" r="5.636364" opacity="0.200000" style="stroke:black;stroke-width:0.5;fill:url(#radialffffffbfbfbf)"/>
<circle cx="311.205368" cy="127.379575" r="5.636364" opacity="0.258285" style="stroke:black;stroke-width:0.5;fill:url(#radialffffffbfbfbf)"/>
<circle cx="261.543032" cy="154.011003" r="5.636364" opacity="0.355952" style="stroke:black;stroke-width:0.5;fill:url(#radialffffffbfbfbf)"/>
<circle cx="277.928335" cy="122.740067" r="13.818182" opacity="0.402421" style="stroke:black;stroke-width:0.5;fill:url(#radialffffff666666)"/>
<circle cx="112.921954" cy="114.696075" r="5.636364" opacity="0.405643" style="stroke:black;stroke-width:0.5;fill:url(#radialffffffbfbfbf)"/>
<circle cx="195.243812" cy="113.104920" r="5.636364" opacity="0.461551" style="stroke:black;stroke-width:0.5;fill:url(#radialffffffbfbfbf)"/>
<circle cx="297.087542" cy="40.000000" r="5.636364" opacity="0.610342" style="stroke:black;stroke-width:0.5;fill:url(#radialffffffbfbfbf)"/>
<circle cx="40.000000" cy="110.353888" r="5.636364" opacity="0.654819" style="stroke:black;stroke-width:0.5;fill:url(#radialffffffbfbfbf)"/>
<circle cx="110.242801" cy="117.241270" r="13.818182" opacity="0.659442" style="stroke:black;stroke-width:0.5;fill:url(#radialffffff666666)"/>
<circle cx="168.543771" cy="183.462076" r="5.636364" opacity="0.676263" style="stroke:black;stroke-width:0.5;fill:url(#radialffffffbfbfbf)"/>
<circle cx="342.662538" cy="73.613561" r="5.636364" opacity="0.676886" style="stroke:black;stroke-width:0.5;fill:url(#radialffffffbfbfbf)"/>
<circle cx="224.802704" cy="182.436156" r="5.636364" opacity="0.691081" style="stroke:black;stroke-width:0.5;fill:url(#radialffffffbfbfbf)"/>
<circle cx="194.021857" cy="116.888406" r="13.818182" opacity="0.695000" style="stroke:black;stroke-width:0.5;fill:url(#radialffffff666666)"/>
<circle cx="68.359808" cy="60.430171" r="5.636364" opacity="0.696087" style="stroke:black;stroke-width:0.5;fill:url(#radialffffffbfbfbf)"/>
<circle cx="107.648598" cy="151.936294" r="5.636364" opacity="0.704903" style="stroke:black;stroke-width:0.5;fill:url(#radialffffffbfbfbf)"/>
<circle cx="279.656715" cy="106.635747" r="14.466889" opacity="0.723514" style="stroke:black;stroke-width:0.5;fill:url(#radialffffff666666)"/>
<circle cx="309.245013" cy="65.870157" r="14.820542" opacity="0.732304" style="stroke:black;stroke-width:0.5;fill:url(#radialffffff666666)"/>
<circle cx="150.707804" cy="61.531237" r="6.131326" opacity="0.737501" style="stroke:black;stroke-width:0.5;fill:url(#radialffffffbfbfbf)"/>
<circle cx="68.281394" cy="95.187272" r="15.160488" opacity="0.740655" style="stroke:black;stroke-width:0.5;fill:url(#radialffffff666666)"/>
<circle cx="195.861324" cy="165.707790" r="15.718383" opacity="0.754160" style="stroke:black;stroke-width:0.5;fill:url(#radialffffff666666)"/>
<circle cx="228.762622" cy="58.143089" r="6.711694" opacity="0.771617" style="stroke:black;stroke-width:0.5;fill:url(#radialffffffbfbfbf)"/>
<circle cx="150.374544" cy="96.637935" r="16.560023" opacity="0.774087" style="stroke:black;stroke-width:0.5;fill:url(#radialffffff666666)"/>
<circle cx="233.343319" cy="93.138700" r="17.845786" opacity="0.803577" style="stroke:black;stroke-width:0.5;fill:url(#radialffffff666666)"/>
<circle cx="333.471739" cy="149.845248" r="7.424015" opacity="0.811531" style="stroke:black;stroke-width:0.5;fill:url(#radialffffffbfbfbf)"/>
<circle cx="281.989538" cy="172.869622" r="8.346286" opacity="0.860463" style="stroke:black;stroke-width:0.5;fill:url(#radialffffffbfbfbf)"/>
<circle cx="300.214309" cy="142.245603" r="20.494074" opacity="0.861140" style="stroke:black;stroke-width:0.5;fill:url(#radialffffff666666)"/>
<circle cx="310.917850" cy="52.588749" r="8.886956" opacity="0.887896" style="stroke:black;stroke-width:0.5;fill:url(#radialffffffbfbfbf)"/>
<circle cx="64.167915" cy="98.153943" r="9.213203" opacity="0.904047" style="stroke:black;stroke-width:0.5;fill:url(#radialffffffbfbfbf)"/>
<circle cx="194.178685" cy="170.687093" r="9.441604" opacity="0.915184" style="stroke:black;stroke-width:0.5;fill:url(#radialffffffbfbfbf)"/>
<circle cx="147.558167" cy="99.712426" r="9.802238" opacity="0.932498" style="stroke:black;stroke-width:0.5;fill:url(#radialffffffbfbfbf)"/>
<circle cx="231.520188" cy="96.321011" r="10.333403" opacity="0.957430" style="stroke:black;stroke-width:0.5;fill:url(#radialffffffbfbfbf)"/>
<circle cx="302.462183" cy="131.365631" r="11.272727" opacity="1.000000" style="stroke:black;stroke-width:0.5;fill:url(#radialffffffbfbfbf)"/>
</svg>
</g>
</svg>
