<?xml version="1.0"?>
<svg version="1.1" id="topsvg"
xmlns="http://www.w3.org/2000/svg" xmlns:xlink="http://www.w3.org/1999/xlink"
xmlns:cml="http://www.xml-cml.org/schema" x="0" y="0" width="200px" height="200px" viewBox="0 0 100 100">
<title>27518 - Open Babel Depiction</title>
<rect x="0" y="0" width="100" height="100" fill="white"/>
<defs>
<radialGradient id='radialffffff666666' cx='50%' cy='50%' r='50%' fx='30%' fy='30%'>
  <stop offset=' 0%' stop-color="rgb(255,255,255)"  stop-opacity='1.0'/>
  <stop offset='100%' stop-color="rgb(102,102,102)"  stop-opacity ='1.0'/>
</radialGradient>
<radialGradient id='radialffffffbfbfbf' cx='50%' cy='50%' r='50%' fx='30%' fy='30%'>
  <stop offset=' 0%' stop-color="rgb(255,255,255)"  stop-opacity='1.0'/>
  <stop offset='100%' stop-color="rgb(191,191,191)"  stop-opacity ='1.0'/>
</radialGradient>
</defs>
<g transform="translate(0,0)">
<svg width="100" height="100" x="0" y="0" viewBox="0 0 377.064 279.621"
font-family="sans-serif" stroke="rgb(0,0,0)" stroke-width="2"  stroke-linecap="round">
<line x1="191.3" y1="102.1" x2="152.9" y2="121.7" opacity="1.0" stroke="rgb(0,0,0)"  stroke-width="1.4"/>
<line x1="191.3" y1="102.1" x2="224.1" y2="136.2" opacity="0.5" stroke="rgb(0,0,0)"  stroke-width="2.1"/>
<line x1="191.3" y1="102.1" x2="214.4" y2="67.1" opacity="0.7" stroke="rgb(0,0,0)"  stroke-width="1.4"/>
<line x1="191.3" y1="102.1" x2="177.2" y2="85.6" opacity="0.5" stroke="rgb(0,0,0)"  stroke-width="2.2"/>
<line x1="152.9" y1="121.7" x2="128.0" y2="157.6" opacity="0.7" stroke="rgb(0,0,0)"  stroke-width="1.4"/>
<line x1="152.9" y1="121.7" x2="130.0" y2="95.3" opacity="0.5" stroke="rgb(0,0,0)"  stroke-width="0.9"/>
<line x1="152.9" y1="121.7" x2="165.0" y2="135.0" opacity="0.3" stroke="rgb(0,0,0)"  stroke-width="0.6"/>
<line x1="224.1" y1="136.2" x2="251.5" y2="159.5" opacity="0.2" stroke="rgb(0,0,0)"  stroke-width="1.8"/>
<line x1="224.1" y1="136.2" x2="207.5" y2="160.2" opacity="0.6" stroke="rgb(0,0,0)"  stroke-width="2.7"/>
<line x1="224.1" y1="136.2" x2="246.8" y2="119.0" opacity="0.9" stroke="rgb(0,0,0)"  stroke-width="2.7"/>
<line x1="128.0" y1="157.6" x2="90.7" y2="176.1" opacity="0.9" stroke="rgb(0,0,0)"  stroke-width="1.3"/>
<line x1="128.0" y1="157.6" x2="115.1" y2="144.4" opacity="0.4" stroke="rgb(0,0,0)"  stroke-width="2.2"/>
<line x1="128.0" y1="157.6" x2="150.0" y2="184.6" opacity="0.7" stroke="rgb(0,0,0)"  stroke-width="1.9"/>
<line x1="251.5" y1="159.5" x2="285.0" y2="191.4" opacity="0.6" stroke="rgb(0,0,0)"  stroke-width="1.6"/>
<line x1="251.5" y1="159.5" x2="229.8" y2="177.5" opacity="0.5" stroke="rgb(0,0,0)"  stroke-width="1.0"/>
<line x1="251.5" y1="159.5" x2="269.3" y2="135.5" opacity="0.3" stroke="rgb(0,0,0)"  stroke-width="1.0"/>
<line x1="214.4" y1="67.1" x2="191.9" y2="40.0" opacity="0.3" stroke="rgb(0,0,0)"  stroke-width="0.9"/>
<line x1="214.4" y1="67.1" x2="225.7" y2="79.9" opacity="0.3" stroke="rgb(0,0,0)"  stroke-width="0.5"/>
<line x1="214.4" y1="67.1" x2="242.5" y2="53.5" opacity="0.2" stroke="rgb(0,0,0)"  stroke-width="1.2"/>
<line x1="90.7" y1="176.1" x2="66.6" y2="212.4" opacity="0.4" stroke="rgb(0,0,0)"  stroke-width="1.3"/>
<line x1="90.7" y1="176.1" x2="103.7" y2="188.9" opacity="0.4" stroke="rgb(0,0,0)"  stroke-width="0.5"/>
<line x1="90.7" y1="176.1" x2="67.6" y2="149.9" opacity="0.2" stroke="rgb(0,0,0)"  stroke-width="0.8"/>
<line x1="285.0" y1="191.4" x2="313.9" y2="213.0" opacity="0.3" stroke="rgb(0,0,0)"  stroke-width="1.4"/>
<line x1="285.0" y1="191.4" x2="267.7" y2="216.9" opacity="0.5" stroke="rgb(0,0,0)"  stroke-width="2.1"/>
<line x1="285.0" y1="191.4" x2="305.9" y2="174.0" opacity="0.7" stroke="rgb(0,0,0)"  stroke-width="2.2"/>
<line x1="66.6" y1="212.4" x2="40.0" y2="225.1" opacity="0.7" stroke="rgb(0,0,0)"  stroke-width="1.3"/>
<line x1="66.6" y1="212.4" x2="88.6" y2="239.6" opacity="0.4" stroke="rgb(0,0,0)"  stroke-width="1.8"/>
<line x1="66.6" y1="212.4" x2="52.4" y2="200.5" opacity="0.6" stroke="rgb(0,0,0)"  stroke-width="2.1"/>
<line x1="313.9" y1="213.0" x2="337.1" y2="235.5" opacity="0.7" stroke="rgb(0,0,0)"  stroke-width="1.1"/>
<line x1="313.9" y1="213.0" x2="332.7" y2="188.5" opacity="0.4" stroke="rgb(0,0,0)"  stroke-width="0.6"/>
<line x1="313.9" y1="213.0" x2="294.3" y2="231.7" opacity="0.2" stroke="rgb(0,0,0)"  stroke-width="0.5"/>
<circle cx="103.708709" cy="188.893624" r="5.636364" opacity="0.200000" style="stroke:black;stroke-width:0.5;fill:url(#radialffffffbfbfbf)"/>
<circle cx="225.716989" cy="79.922248" r="5.636364" opacity="0.200000" style="stroke:black;stroke-width:0.5;fill:url(#radialffffffbfbfbf)"/>
<circle cx="165.038445" cy="134.975683" r="5.636364" opacity="0.200000" style="stroke:black;stroke-width:0.5;fill:url(#radialffffffbfbfbf)"/>
<circle cx="294.288359" cy="231.728233" r="5.636364" opacity="0.219467" style="stroke:black;stroke-width:0.5;fill:url(#radialffffffbfbfbf)"/>
<circle cx="332.708614" cy="188.514035" r="5.636364" opacity="0.316946" style="stroke:black;stroke-width:0.5;fill:url(#radialffffffbfbfbf)"/>
<circle cx="229.849924" cy="177.463426" r="5.636364" opacity="0.455830" style="stroke:black;stroke-width:0.5;fill:url(#radialffffffbfbfbf)"/>
<circle cx="67.575802" cy="149.943253" r="5.636364" opacity="0.475952" style="stroke:black;stroke-width:0.5;fill:url(#radialffffffbfbfbf)"/>
<circle cx="269.284597" cy="135.476347" r="5.636364" opacity="0.483083" style="stroke:black;stroke-width:0.5;fill:url(#radialffffffbfbfbf)"/>
<circle cx="129.978857" cy="95.328309" r="5.636364" opacity="0.505006" style="stroke:black;stroke-width:0.5;fill:url(#radialffffffbfbfbf)"/>
<circle cx="191.933605" cy="40.000000" r="5.636364" opacity="0.507688" style="stroke:black;stroke-width:0.5;fill:url(#radialffffffbfbfbf)"/>
<circle cx="313.941885" cy="213.033495" r="13.818182" opacity="0.531061" style="stroke:black;stroke-width:0.5;fill:url(#radialffffff666666)"/>
<circle cx="90.733978" cy="176.066147" r="13.818182" opacity="0.555750" style="stroke:black;stroke-width:0.5;fill:url(#radialffffff666666)"/>
<circle cx="214.378416" cy="67.065321" r="13.818182" opacity="0.572713" style="stroke:black;stroke-width:0.5;fill:url(#radialffffff666666)"/>
<circle cx="152.865431" cy="121.657359" r="13.818182" opacity="0.583551" style="stroke:black;stroke-width:0.5;fill:url(#radialffffff666666)"/>
<circle cx="40.000000" cy="225.118156" r="5.636364" opacity="0.585985" style="stroke:black;stroke-width:0.5;fill:url(#radialffffffbfbfbf)"/>
<circle cx="251.486473" cy="159.537682" r="13.818182" opacity="0.656262" style="stroke:black;stroke-width:0.5;fill:url(#radialffffff666666)"/>
<circle cx="337.064066" cy="235.471762" r="5.636364" opacity="0.662045" style="stroke:black;stroke-width:0.5;fill:url(#radialffffffbfbfbf)"/>
<circle cx="242.520329" cy="53.481940" r="5.673803" opacity="0.709451" style="stroke:black;stroke-width:0.5;fill:url(#radialffffffbfbfbf)"/>
<circle cx="66.574474" cy="212.444478" r="15.125350" opacity="0.739796" style="stroke:black;stroke-width:0.5;fill:url(#radialffffff666666)"/>
<circle cx="128.028557" cy="157.561204" r="16.212321" opacity="0.765918" style="stroke:black;stroke-width:0.5;fill:url(#radialffffff666666)"/>
<circle cx="191.279142" cy="102.102002" r="16.651811" opacity="0.776230" style="stroke:black;stroke-width:0.5;fill:url(#radialffffff666666)"/>
<circle cx="88.610246" cy="239.621058" r="7.035634" opacity="0.790018" style="stroke:black;stroke-width:0.5;fill:url(#radialffffffbfbfbf)"/>
<circle cx="284.962260" cy="191.439485" r="17.251363" opacity="0.790080" style="stroke:black;stroke-width:0.5;fill:url(#radialffffff666666)"/>
<circle cx="150.047968" cy="184.590529" r="7.542816" opacity="0.817998" style="stroke:black;stroke-width:0.5;fill:url(#radialffffffbfbfbf)"/>
<circle cx="224.103738" cy="136.160261" r="21.554935" opacity="0.883147" style="stroke:black;stroke-width:0.5;fill:url(#radialffffff666666)"/>
<circle cx="267.730247" cy="216.934095" r="9.117110" opacity="0.899320" style="stroke:black;stroke-width:0.5;fill:url(#radialffffffbfbfbf)"/>
<circle cx="52.359535" cy="200.477621" r="9.621710" opacity="0.923872" style="stroke:black;stroke-width:0.5;fill:url(#radialffffffbfbfbf)"/>
<circle cx="305.872356" cy="174.004589" r="9.671506" opacity="0.926259" style="stroke:black;stroke-width:0.5;fill:url(#radialffffffbfbfbf)"/>
<circle cx="177.234364" cy="85.583354" r="10.025243" opacity="0.943046" style="stroke:black;stroke-width:0.5;fill:url(#radialffffffbfbfbf)"/>
<circle cx="115.050554" cy="144.416313" r="10.079466" opacity="0.945593" style="stroke:black;stroke-width:0.5;fill:url(#radialffffffbfbfbf)"/>
<circle cx="207.509826" cy="160.244502" r="11.125552" opacity="0.993451" style="stroke:black;stroke-width:0.5;fill:url(#radialffffffbfbfbf)"/>
<circle cx="246.751433" cy="118.960971" r="11.272727" opacity="1.000000" style="stroke:black;stroke-width:0.5;fill:url(#radialffffffbfbfbf)"/>
</svg>
</g>
</svg>
