<?xml version="1.0"?>
<svg version="1.1" id="topsvg"
xmlns="http://www.w3.org/2000/svg" xmlns:xlink="http://www.w3.org/1999/xlink"
xmlns:cml="http://www.xml-cml.org/schema" x="0" y="0" width="200px" height="200px" viewBox="0 0 100 100">
<title>28021 - Open Babel Depiction</title>
<rect x="0" y="0" width="100" height="100" fill="white"/>
<defs>
<radialGradient id='radialffffff666666' cx='50%' cy='50%' r='50%' fx='30%' fy='30%'>
  <stop offset=' 0%' stop-color="rgb(255,255,255)"  stop-opacity='1.0'/>
  <stop offset='100%' stop-color="rgb(102,102,102)"  stop-opacity ='1.0'/>
</radialGradient>
<radialGradient id='radialffffffbfbfbf' cx='50%' cy='50%' r='50%' fx='30%' fy='30%'>
  <stop offset=' 0%' stop-color="rgb(255,255,255)"  stop-opacity='1.0'/>
  <stop offset='100%' stop-color="rgb(191,191,191)"  stop-opacity ='1.0'/>
</radialGradient>
</defs>
<g transform="translate(0,0)">
<svg width="100" height="100" x="0" y="0" viewBox="0 0 347.825 238.463"
font-family="sans-serif" stroke="rgb(0,0,0)" stroke-width="4"  stroke-linecap="round">
<line x1="238.0" y1="129.8" x2="193.3" y2="106.4" opacity="1.0" stroke="rgb(0,0,0)"  stroke-width="1.2"/>
<line x1="238.0" y1="129.8" x2="277.6" y2="105.3" opacity="0.4" stroke="rgb(0,0,0)"  stroke-width="1.1"/>
<line x1="238.0" y1="129.8" x2="244.6" y2="133.6" opacity="0.4" stroke="rgb(0,0,0)"  stroke-width="2.0"/>
<line x1="238.0" y1="129.8" x2="238.2" y2="176.9" opacity="0.7" stroke="rgb(0,0,0)"  stroke-width="1.1"/>
<line x1="193.3" y1="106.4" x2="152.8" y2="131.7" opacity="0.4" stroke="rgb(0,0,0)"  stroke-width="1.3"/>
<line x1="193.3" y1="106.4" x2="191.9" y2="58.6" opacity="0.4" stroke="rgb(0,0,0)"  stroke-width="1.3"/>
<line x1="192.5" y1="106.9" x2="193.0" y2="105.4" opacity="0.4" stroke="rgb(0,0,0)"  stroke-width="1.0"/>
<line x1="191.8" y1="107.4" x2="192.8" y2="104.7" opacity="0.4" stroke="rgb(0,0,0)"  stroke-width="1.0"/>
<line x1="191.2" y1="107.8" x2="192.6" y2="103.9" opacity="0.4" stroke="rgb(0,0,0)"  stroke-width="1.0"/>
<line x1="190.5" y1="108.3" x2="192.4" y2="103.2" opacity="0.4" stroke="rgb(0,0,0)"  stroke-width="1.0"/>
<line x1="189.9" y1="108.7" x2="192.2" y2="102.4" opacity="0.4" stroke="rgb(0,0,0)"  stroke-width="1.0"/>
<line x1="189.3" y1="109.1" x2="192.0" y2="101.6" opacity="0.4" stroke="rgb(0,0,0)"  stroke-width="1.0"/>
<line x1="152.8" y1="131.7" x2="109.0" y2="113.8" opacity="0.4" stroke="rgb(0,0,0)"  stroke-width="1.3"/>
<line x1="152.8" y1="131.7" x2="152.5" y2="131.2" opacity="0.4" stroke="rgb(0,0,0)"  stroke-width="2.0"/>
<line x1="152.8" y1="131.7" x2="154.6" y2="166.0" opacity="0.7" stroke="rgb(0,0,0)"  stroke-width="1.4"/>
<line x1="277.6" y1="105.3" x2="307.8" y2="124.0" opacity="0.5" stroke="rgb(0,0,0)"  stroke-width="0.9"/>
<line x1="277.6" y1="105.3" x2="273.2" y2="99.6" opacity="0.3" stroke="rgb(0,0,0)"  stroke-width="0.4"/>
<line x1="277.6" y1="105.3" x2="282.8" y2="73.7" opacity="0.1" stroke="rgb(0,0,0)"  stroke-width="1.1"/>
<line x1="244.6" y1="133.6" x2="275.6" y2="149.9" opacity="0.4" stroke="rgb(0,0,0)"  stroke-width="2.7"/>
<line x1="244.6" y1="133.6" x2="218.8" y2="152.8" opacity="0.9" stroke="rgb(0,0,0)"  stroke-width="2.8"/>
<line x1="244.6" y1="133.6" x2="245.6" y2="101.5" opacity="0.9" stroke="rgb(0,0,0)"  stroke-width="2.8"/>
<line x1="238.2" y1="176.9" x2="270.7" y2="191.8" opacity="0.9" stroke="rgb(0,0,0)"  stroke-width="0.9"/>
<line x1="238.2" y1="176.9" x2="215.5" y2="198.5" opacity="0.3" stroke="rgb(0,0,0)"  stroke-width="1.1"/>
<line x1="238.2" y1="176.9" x2="229.6" y2="177.0" opacity="0.4" stroke="rgb(0,0,0)"  stroke-width="0.5"/>
<line x1="191.9" y1="58.6" x2="163.3" y2="41.6" opacity="0.2" stroke="rgb(0,0,0)"  stroke-width="1.3"/>
<line x1="191.9" y1="58.6" x2="190.5" y2="56.5" opacity="0.4" stroke="rgb(0,0,0)"  stroke-width="1.9"/>
<line x1="191.9" y1="58.6" x2="220.2" y2="40.0" opacity="0.6" stroke="rgb(0,0,0)"  stroke-width="1.3"/>
<line x1="109.0" y1="113.8" x2="70.9" y2="141.5" opacity="0.4" stroke="rgb(0,0,0)"  stroke-width="1.3"/>
<line x1="109.0" y1="113.8" x2="109.0" y2="113.2" opacity="0.4" stroke="rgb(0,0,0)"  stroke-width="0.7"/>
<line x1="109.0" y1="113.8" x2="103.9" y2="80.3" opacity="0.2" stroke="rgb(0,0,0)"  stroke-width="1.2"/>
<line x1="70.9" y1="141.5" x2="40.0" y2="128.1" opacity="0.4" stroke="rgb(0,0,0)"  stroke-width="1.4"/>
<line x1="70.9" y1="141.5" x2="73.7" y2="175.2" opacity="0.5" stroke="rgb(0,0,0)"  stroke-width="1.4"/>
<line x1="70.9" y1="141.5" x2="69.6" y2="142.0" opacity="0.5" stroke="rgb(0,0,0)"  stroke-width="2.0"/>
<circle cx="273.229736" cy="99.634609" r="5.636364" opacity="0.200000" style="stroke:black;stroke-width:0.5;fill:url(#radialffffffbfbfbf)"/>
<circle cx="229.625831" cy="177.035709" r="5.636364" opacity="0.200000" style="stroke:black;stroke-width:0.5;fill:url(#radialffffffbfbfbf)"/>
<circle cx="190.647424" cy="105.394417" r="5.636364" opacity="0.254569" style="stroke:black;stroke-width:0.5;fill:url(#radialffffffbfbfbf)"/>
<circle cx="108.970598" cy="113.226710" r="5.636364" opacity="0.264178" style="stroke:black;stroke-width:0.5;fill:url(#radialffffffbfbfbf)"/>
<circle cx="277.580647" cy="105.296350" r="13.818182" opacity="0.540765" style="stroke:black;stroke-width:0.5;fill:url(#radialffffff666666)"/>
<circle cx="238.196896" cy="176.868995" r="13.818182" opacity="0.547399" style="stroke:black;stroke-width:0.5;fill:url(#radialffffff666666)"/>
<circle cx="270.653840" cy="191.771927" r="5.636364" opacity="0.570595" style="stroke:black;stroke-width:0.5;fill:url(#radialffffffbfbfbf)"/>
<circle cx="307.824543" cy="124.046781" r="5.636364" opacity="0.572692" style="stroke:black;stroke-width:0.5;fill:url(#radialffffffbfbfbf)"/>
<circle cx="193.298505" cy="106.381626" r="13.818182" opacity="0.602817" style="stroke:black;stroke-width:0.5;fill:url(#radialffffff666666)"/>
<circle cx="109.042514" cy="113.824920" r="13.818182" opacity="0.606848" style="stroke:black;stroke-width:0.5;fill:url(#radialffffff666666)"/>
<circle cx="163.254011" cy="41.598494" r="5.636364" opacity="0.621792" style="stroke:black;stroke-width:0.5;fill:url(#radialffffffbfbfbf)"/>
<circle cx="220.221195" cy="40.000000" r="5.636364" opacity="0.633316" style="stroke:black;stroke-width:0.5;fill:url(#radialffffffbfbfbf)"/>
<circle cx="40.000000" cy="128.145986" r="5.636364" opacity="0.633338" style="stroke:black;stroke-width:0.5;fill:url(#radialffffffbfbfbf)"/>
<circle cx="73.744892" cy="175.208392" r="5.636364" opacity="0.636534" style="stroke:black;stroke-width:0.5;fill:url(#radialffffffbfbfbf)"/>
<circle cx="154.614299" cy="165.980277" r="5.636364" opacity="0.651089" style="stroke:black;stroke-width:0.5;fill:url(#radialffffffbfbfbf)"/>
<circle cx="282.817431" cy="73.656632" r="5.636364" opacity="0.651549" style="stroke:black;stroke-width:0.5;fill:url(#radialffffffbfbfbf)"/>
<circle cx="215.517243" cy="198.463372" r="5.636364" opacity="0.666083" style="stroke:black;stroke-width:0.5;fill:url(#radialffffffbfbfbf)"/>
<circle cx="238.026913" cy="129.800052" r="13.818182" opacity="0.672919" style="stroke:black;stroke-width:0.5;fill:url(#radialffffff666666)"/>
<circle cx="103.946293" cy="80.279431" r="5.636364" opacity="0.680326" style="stroke:black;stroke-width:0.5;fill:url(#radialffffffbfbfbf)"/>
<circle cx="191.899414" cy="58.632751" r="13.818182" opacity="0.703573" style="stroke:black;stroke-width:0.5;fill:url(#radialffffff666666)"/>
<circle cx="70.917291" cy="141.479844" r="13.872386" opacity="0.708492" style="stroke:black;stroke-width:0.5;fill:url(#radialffffff666666)"/>
<circle cx="152.832747" cy="131.686209" r="14.013917" opacity="0.712097" style="stroke:black;stroke-width:0.5;fill:url(#radialffffff666666)"/>
<circle cx="190.490516" cy="56.543921" r="8.931894" opacity="0.890138" style="stroke:black;stroke-width:0.5;fill:url(#radialffffffbfbfbf)"/>
<circle cx="69.580309" cy="141.960373" r="9.017261" opacity="0.894382" style="stroke:black;stroke-width:0.5;fill:url(#radialffffffbfbfbf)"/>
<circle cx="152.463361" cy="131.212218" r="9.082053" opacity="0.897589" style="stroke:black;stroke-width:0.5;fill:url(#radialffffffbfbfbf)"/>
<circle cx="244.587603" cy="133.591980" r="24.016760" opacity="0.932216" style="stroke:black;stroke-width:0.5;fill:url(#radialffffff666666)"/>
<circle cx="275.645456" cy="149.877658" r="10.499205" opacity="0.965081" style="stroke:black;stroke-width:0.5;fill:url(#radialffffffbfbfbf)"/>
<circle cx="218.763264" cy="152.803327" r="11.263208" opacity="0.999578" style="stroke:black;stroke-width:0.5;fill:url(#radialffffffbfbfbf)"/>
<circle cx="245.614038" cy="101.461926" r="11.272727" opacity="1.000000" style="stroke:black;stroke-width:0.5;fill:url(#radialffffffbfbfbf)"/>
</svg>
</g>
</svg>
