<?xml version="1.0"?>
<svg version="1.1" id="topsvg"
xmlns="http://www.w3.org/2000/svg" xmlns:xlink="http://www.w3.org/1999/xlink"
xmlns:cml="http://www.xml-cml.org/schema" x="0" y="0" width="200px" height="200px" viewBox="0 0 100 100">
<title>28027 - Open Babel Depiction</title>
<rect x="0" y="0" width="100" height="100" fill="white"/>
<defs>
<radialGradient id='radialffffff666666' cx='50%' cy='50%' r='50%' fx='30%' fy='30%'>
  <stop offset=' 0%' stop-color="rgb(255,255,255)"  stop-opacity='1.0'/>
  <stop offset='100%' stop-color="rgb(102,102,102)"  stop-opacity ='1.0'/>
</radialGradient>
<radialGradient id='radialffffffbfbfbf' cx='50%' cy='50%' r='50%' fx='30%' fy='30%'>
  <stop offset=' 0%' stop-color="rgb(255,255,255)"  stop-opacity='1.0'/>
  <stop offset='100%' stop-color="rgb(191,191,191)"  stop-opacity ='1.0'/>
</radialGradient>
</defs>
<g transform="translate(0,0)">
<svg width="100" height="100" x="0" y="0" viewBox="0 0 273.611 268.966"
font-family="sans-serif" stroke="rgb(0,0,0)" stroke-width="4"  stroke-linecap="round">
<line x1="149.0" y1="116.7" x2="97.4" y2="116.7" opacity="1.0" stroke="rgb(0,0,0)"  stroke-width="1.5"/>
<line x1="149.0" y1="116.7" x2="168.7" y2="158.6" opacity="0.5" stroke="rgb(0,0,0)"  stroke-width="1.7"/>
<line x1="149.0" y1="116.7" x2="168.1" y2="75.5" opacity="0.6" stroke="rgb(0,0,0)"  stroke-width="1.7"/>
<line x1="149.0" y1="116.7" x2="162.9" y2="115.7" opacity="0.6" stroke="rgb(0,0,0)"  stroke-width="1.0"/>
<line x1="97.4" y1="116.7" x2="75.6" y2="76.6" opacity="0.3" stroke="rgb(0,0,0)"  stroke-width="1.3"/>
<line x1="97.4" y1="116.7" x2="79.4" y2="121.7" opacity="0.4" stroke="rgb(0,0,0)"  stroke-width="2.0"/>
<line x1="97.4" y1="116.7" x2="85.6" y2="145.0" opacity="0.7" stroke="rgb(0,0,0)"  stroke-width="1.3"/>
<line x1="168.7" y1="158.6" x2="154.7" y2="202.1" opacity="0.4" stroke="rgb(0,0,0)"  stroke-width="1.7"/>
<line x1="168.7" y1="158.6" x2="161.8" y2="159.0" opacity="0.6" stroke="rgb(0,0,0)"  stroke-width="2.3"/>
<line x1="168.7" y1="158.6" x2="204.5" y2="157.7" opacity="0.8" stroke="rgb(0,0,0)"  stroke-width="1.9"/>
<line x1="168.1" y1="75.5" x2="217.8" y2="71.0" opacity="0.6" stroke="rgb(0,0,0)"  stroke-width="2.0"/>
<line x1="168.1" y1="75.5" x2="157.5" y2="75.2" opacity="0.7" stroke="rgb(0,0,0)"  stroke-width="2.4"/>
<line x1="168.1" y1="75.5" x2="154.9" y2="45.9" opacity="0.8" stroke="rgb(0,0,0)"  stroke-width="1.8"/>
<line x1="162.9" y1="115.7" x2="197.6" y2="123.8" opacity="0.6" stroke="rgb(0,0,0)"  stroke-width="0.4"/>
<line x1="162.9" y1="115.7" x2="144.2" y2="139.2" opacity="0.1" stroke="rgb(0,0,0)"  stroke-width="0.4"/>
<line x1="162.9" y1="115.7" x2="158.0" y2="83.4" opacity="0.1" stroke="rgb(0,0,0)"  stroke-width="0.4"/>
<line x1="75.6" y1="76.6" x2="40.0" y2="80.5" opacity="0.1" stroke="rgb(0,0,0)"  stroke-width="1.1"/>
<line x1="75.6" y1="76.6" x2="85.6" y2="72.3" opacity="0.4" stroke="rgb(0,0,0)"  stroke-width="0.7"/>
<line x1="75.6" y1="76.6" x2="82.9" y2="46.5" opacity="0.2" stroke="rgb(0,0,0)"  stroke-width="1.3"/>
<line x1="79.4" y1="121.7" x2="88.5" y2="94.2" opacity="0.4" stroke="rgb(0,0,0)"  stroke-width="2.8"/>
<line x1="79.4" y1="121.7" x2="43.6" y2="123.1" opacity="0.9" stroke="rgb(0,0,0)"  stroke-width="2.5"/>
<line x1="79.4" y1="121.7" x2="90.4" y2="151.9" opacity="0.8" stroke="rgb(0,0,0)"  stroke-width="2.7"/>
<line x1="154.7" y1="202.1" x2="119.5" y2="207.4" opacity="0.9" stroke="rgb(0,0,0)"  stroke-width="1.5"/>
<line x1="154.7" y1="202.1" x2="171.2" y2="229.0" opacity="0.5" stroke="rgb(0,0,0)"  stroke-width="1.7"/>
<line x1="154.7" y1="202.1" x2="163.3" y2="204.4" opacity="0.6" stroke="rgb(0,0,0)"  stroke-width="1.1"/>
<line x1="217.8" y1="71.0" x2="233.6" y2="97.0" opacity="0.4" stroke="rgb(0,0,0)"  stroke-width="2.2"/>
<line x1="217.8" y1="71.0" x2="227.0" y2="40.0" opacity="0.7" stroke="rgb(0,0,0)"  stroke-width="2.2"/>
<line x1="217.8" y1="71.0" x2="231.0" y2="70.9" opacity="0.7" stroke="rgb(0,0,0)"  stroke-width="1.6"/>
<circle cx="144.226986" cy="139.160510" r="5.636364" opacity="0.200000" style="stroke:black;stroke-width:0.5;fill:url(#radialffffffbfbfbf)"/>
<circle cx="157.962984" cy="83.354140" r="5.636364" opacity="0.200000" style="stroke:black;stroke-width:0.5;fill:url(#radialffffffbfbfbf)"/>
<circle cx="197.567082" cy="123.794485" r="5.636364" opacity="0.334884" style="stroke:black;stroke-width:0.5;fill:url(#radialffffffbfbfbf)"/>
<circle cx="85.598286" cy="72.283678" r="5.636364" opacity="0.338008" style="stroke:black;stroke-width:0.5;fill:url(#radialffffffbfbfbf)"/>
<circle cx="162.934729" cy="115.696617" r="13.818182" opacity="0.375381" style="stroke:black;stroke-width:0.5;fill:url(#radialffffff666666)"/>
<circle cx="163.339786" cy="204.368116" r="5.636364" opacity="0.504104" style="stroke:black;stroke-width:0.5;fill:url(#radialffffffbfbfbf)"/>
<circle cx="40.000000" cy="80.459945" r="5.636364" opacity="0.599576" style="stroke:black;stroke-width:0.5;fill:url(#radialffffffbfbfbf)"/>
<circle cx="75.595997" cy="76.575973" r="13.818182" opacity="0.600127" style="stroke:black;stroke-width:0.5;fill:url(#radialffffff666666)"/>
<circle cx="85.601552" cy="144.984834" r="5.636364" opacity="0.614302" style="stroke:black;stroke-width:0.5;fill:url(#radialffffffbfbfbf)"/>
<circle cx="231.046331" cy="70.931311" r="5.636364" opacity="0.649451" style="stroke:black;stroke-width:0.5;fill:url(#radialffffffbfbfbf)"/>
<circle cx="82.870686" cy="46.500508" r="5.636364" opacity="0.699586" style="stroke:black;stroke-width:0.5;fill:url(#radialffffffbfbfbf)"/>
<circle cx="149.009269" cy="116.656993" r="13.818182" opacity="0.701861" style="stroke:black;stroke-width:0.5;fill:url(#radialffffff666666)"/>
<circle cx="154.660464" cy="202.104372" r="13.930435" opacity="0.709973" style="stroke:black;stroke-width:0.5;fill:url(#radialffffff666666)"/>
<circle cx="97.384131" cy="116.676593" r="14.149066" opacity="0.715523" style="stroke:black;stroke-width:0.5;fill:url(#radialffffff666666)"/>
<circle cx="119.508724" cy="207.412575" r="5.955544" opacity="0.726852" style="stroke:black;stroke-width:0.5;fill:url(#radialffffffbfbfbf)"/>
<circle cx="154.889126" cy="45.853724" r="6.249168" opacity="0.744555" style="stroke:black;stroke-width:0.5;fill:url(#radialffffffbfbfbf)"/>
<circle cx="171.150195" cy="228.965515" r="7.062159" opacity="0.791506" style="stroke:black;stroke-width:0.5;fill:url(#radialffffffbfbfbf)"/>
<circle cx="204.456314" cy="157.688590" r="7.081326" opacity="0.792579" style="stroke:black;stroke-width:0.5;fill:url(#radialffffffbfbfbf)"/>
<circle cx="168.745987" cy="158.619568" r="17.899091" opacity="0.804776" style="stroke:black;stroke-width:0.5;fill:url(#radialffffff666666)"/>
<circle cx="217.783988" cy="71.019509" r="18.281534" opacity="0.813328" style="stroke:black;stroke-width:0.5;fill:url(#radialffffff666666)"/>
<circle cx="168.115536" cy="75.533932" r="18.322649" opacity="0.814242" style="stroke:black;stroke-width:0.5;fill:url(#radialffffff666666)"/>
<circle cx="227.021896" cy="40.000000" r="8.701451" opacity="0.878580" style="stroke:black;stroke-width:0.5;fill:url(#radialffffffbfbfbf)"/>
<circle cx="233.610602" cy="96.982341" r="8.982564" opacity="0.892659" style="stroke:black;stroke-width:0.5;fill:url(#radialffffffbfbfbf)"/>
<circle cx="43.576913" cy="123.056237" r="9.516039" opacity="0.918784" style="stroke:black;stroke-width:0.5;fill:url(#radialffffffbfbfbf)"/>
<circle cx="79.352572" cy="121.674471" r="23.453644" opacity="0.921223" style="stroke:black;stroke-width:0.5;fill:url(#radialffffff666666)"/>
<circle cx="161.817556" cy="159.005025" r="10.163184" opacity="0.949512" style="stroke:black;stroke-width:0.5;fill:url(#radialffffffbfbfbf)"/>
<circle cx="157.548127" cy="75.181140" r="10.260615" opacity="0.954052" style="stroke:black;stroke-width:0.5;fill:url(#radialffffffbfbfbf)"/>
<circle cx="90.445900" cy="151.903465" r="10.823639" opacity="0.979878" style="stroke:black;stroke-width:0.5;fill:url(#radialffffffbfbfbf)"/>
<circle cx="88.518614" cy="94.212275" r="11.272727" opacity="1.000000" style="stroke:black;stroke-width:0.5;fill:url(#radialffffffbfbfbf)"/>
</svg>
</g>
</svg>
