<?xml version="1.0"?>
<svg version="1.1" id="topsvg"
xmlns="http://www.w3.org/2000/svg" xmlns:xlink="http://www.w3.org/1999/xlink"
xmlns:cml="http://www.xml-cml.org/schema" x="0" y="0" width="200px" height="200px" viewBox="0 0 100 100">
<title>28030 - Open Babel Depiction</title>
<rect x="0" y="0" width="100" height="100" fill="white"/>
<defs>
<radialGradient id='radialffffff666666' cx='50%' cy='50%' r='50%' fx='30%' fy='30%'>
  <stop offset=' 0%' stop-color="rgb(255,255,255)"  stop-opacity='1.0'/>
  <stop offset='100%' stop-color="rgb(102,102,102)"  stop-opacity ='1.0'/>
</radialGradient>
<radialGradient id='radialffffffbfbfbf' cx='50%' cy='50%' r='50%' fx='30%' fy='30%'>
  <stop offset=' 0%' stop-color="rgb(255,255,255)"  stop-opacity='1.0'/>
  <stop offset='100%' stop-color="rgb(191,191,191)"  stop-opacity ='1.0'/>
</radialGradient>
</defs>
<g transform="translate(0,0)">
<svg width="100" height="100" x="0" y="0" viewBox="0 0 288.275 209.539"
font-family="sans-serif" stroke="rgb(0,0,0)" stroke-width="2"  stroke-linecap="round">
<line x1="141.8" y1="108.9" x2="185.0" y2="114.2" opacity="1.0" stroke="rgb(0,0,0)"  stroke-width="1.9"/>
<line x1="141.8" y1="108.9" x2="147.3" y2="121.6" opacity="0.6" stroke="rgb(0,0,0)"  stroke-width="1.0"/>
<line x1="124.2" y1="62.9" x2="138.5" y2="40.0" opacity="0.3" stroke="rgb(0,0,0)"  stroke-width="1.4"/>
<line x1="124.2" y1="62.9" x2="129.8" y2="50.4" opacity="0.5" stroke="rgb(0,0,0)"  stroke-width="2.1"/>
<line x1="106.1" y1="135.5" x2="109.0" y2="134.0" opacity="0.7" stroke="rgb(0,0,0)"  stroke-width="2.5"/>
<line x1="106.1" y1="135.5" x2="106.7" y2="169.5" opacity="0.8" stroke="rgb(0,0,0)"  stroke-width="2.0"/>
<line x1="75.6" y1="67.0" x2="67.5" y2="60.3" opacity="0.7" stroke="rgb(0,0,0)"  stroke-width="1.1"/>
<line x1="75.6" y1="67.0" x2="57.7" y2="44.0" opacity="0.4" stroke="rgb(0,0,0)"  stroke-width="1.8"/>
<line x1="64.0" y1="113.6" x2="40.0" y2="115.3" opacity="0.6" stroke="rgb(0,0,0)"  stroke-width="2.1"/>
<line x1="64.0" y1="113.6" x2="50.1" y2="129.6" opacity="0.7" stroke="rgb(0,0,0)"  stroke-width="1.4"/>
<line x1="185.0" y1="114.2" x2="218.2" y2="83.0" opacity="0.5" stroke="rgb(0,0,0)"  stroke-width="1.9"/>
<line x1="185.0" y1="114.2" x2="196.9" y2="147.3" opacity="0.6" stroke="rgb(0,0,0)"  stroke-width="2.1"/>
<line x1="185.0" y1="114.2" x2="181.1" y2="108.2" opacity="0.7" stroke="rgb(0,0,0)"  stroke-width="2.6"/>
<line x1="147.3" y1="121.6" x2="162.1" y2="153.5" opacity="0.9" stroke="rgb(0,0,0)"  stroke-width="0.4"/>
<line x1="147.3" y1="121.6" x2="116.3" y2="122.9" opacity="0.1" stroke="rgb(0,0,0)"  stroke-width="0.4"/>
<line x1="147.3" y1="121.6" x2="167.3" y2="98.5" opacity="0.1" stroke="rgb(0,0,0)"  stroke-width="0.4"/>
<line x1="218.2" y1="83.0" x2="226.3" y2="89.2" opacity="0.1" stroke="rgb(0,0,0)"  stroke-width="1.3"/>
<line x1="218.2" y1="83.0" x2="208.4" y2="49.3" opacity="0.4" stroke="rgb(0,0,0)"  stroke-width="1.8"/>
<line x1="218.2" y1="83.0" x2="248.3" y2="86.6" opacity="0.6" stroke="rgb(0,0,0)"  stroke-width="2.0"/>
<line x1="124.2" y1="62.9" x2="141.8" y2="108.9" opacity="0.7" stroke="rgb(0,0,0)"  stroke-width="1.6"/>
<line x1="141.8" y1="108.9" x2="106.1" y2="135.5" opacity="0.5" stroke="rgb(0,0,0)"  stroke-width="1.9"/>
<line x1="106.1" y1="135.5" x2="64.0" y2="113.6" opacity="0.6" stroke="rgb(0,0,0)"  stroke-width="2.0"/>
<line x1="64.0" y1="113.6" x2="75.6" y2="67.0" opacity="0.7" stroke="rgb(0,0,0)"  stroke-width="1.7"/>
<line x1="75.6" y1="67.0" x2="124.2" y2="62.9" opacity="0.6" stroke="rgb(0,0,0)"  stroke-width="1.6"/>
<circle cx="167.280946" cy="98.469886" r="5.636364" opacity="0.200000" style="stroke:black;stroke-width:0.5;fill:url(#radialffffffbfbfbf)"/>
<circle cx="116.313733" cy="122.935826" r="5.636364" opacity="0.200000" style="stroke:black;stroke-width:0.5;fill:url(#radialffffffbfbfbf)"/>
<circle cx="162.103908" cy="153.523895" r="5.636364" opacity="0.345611" style="stroke:black;stroke-width:0.5;fill:url(#radialffffffbfbfbf)"/>
<circle cx="147.324352" cy="121.558508" r="13.818182" opacity="0.379336" style="stroke:black;stroke-width:0.5;fill:url(#radialffffff666666)"/>
<circle cx="67.549583" cy="60.292054" r="5.636364" opacity="0.483361" style="stroke:black;stroke-width:0.5;fill:url(#radialffffffbfbfbf)"/>
<circle cx="226.273374" cy="89.206052" r="5.636364" opacity="0.551104" style="stroke:black;stroke-width:0.5;fill:url(#radialffffffbfbfbf)"/>
<circle cx="50.092805" cy="129.648234" r="5.636364" opacity="0.606535" style="stroke:black;stroke-width:0.5;fill:url(#radialffffffbfbfbf)"/>
<circle cx="138.450812" cy="40.000000" r="5.636364" opacity="0.617346" style="stroke:black;stroke-width:0.5;fill:url(#radialffffffbfbfbf)"/>
<circle cx="75.639310" cy="67.001237" r="14.019440" opacity="0.712238" style="stroke:black;stroke-width:0.5;fill:url(#radialffffff666666)"/>
<circle cx="141.824757" cy="108.907827" r="14.648147" opacity="0.728033" style="stroke:black;stroke-width:0.5;fill:url(#radialffffff666666)"/>
<circle cx="124.177670" cy="62.866057" r="15.646129" opacity="0.752425" style="stroke:black;stroke-width:0.5;fill:url(#radialffffff666666)"/>
<circle cx="218.228806" cy="82.974254" r="15.958314" opacity="0.759894" style="stroke:black;stroke-width:0.5;fill:url(#radialffffff666666)"/>
<circle cx="64.011134" cy="113.620383" r="16.500303" opacity="0.772690" style="stroke:black;stroke-width:0.5;fill:url(#radialffffff666666)"/>
<circle cx="208.381144" cy="49.263834" r="6.812037" opacity="0.777363" style="stroke:black;stroke-width:0.5;fill:url(#radialffffffbfbfbf)"/>
<circle cx="106.695087" cy="169.538844" r="7.104445" opacity="0.793872" style="stroke:black;stroke-width:0.5;fill:url(#radialffffffbfbfbf)"/>
<circle cx="57.714824" cy="43.960999" r="7.534508" opacity="0.817547" style="stroke:black;stroke-width:0.5;fill:url(#radialffffffbfbfbf)"/>
<circle cx="196.885217" cy="147.324352" r="7.815420" opacity="0.832648" style="stroke:black;stroke-width:0.5;fill:url(#radialffffffbfbfbf)"/>
<circle cx="106.082229" cy="135.463935" r="19.496416" opacity="0.839918" style="stroke:black;stroke-width:0.5;fill:url(#radialffffff666666)"/>
<circle cx="185.005447" cy="114.152602" r="19.870750" opacity="0.847943" style="stroke:black;stroke-width:0.5;fill:url(#radialffffff666666)"/>
<circle cx="248.274979" cy="86.590116" r="8.179750" opacity="0.851835" style="stroke:black;stroke-width:0.5;fill:url(#radialffffffbfbfbf)"/>
<circle cx="40.000000" cy="115.294453" r="9.092050" opacity="0.898083" style="stroke:black;stroke-width:0.5;fill:url(#radialffffffbfbfbf)"/>
<circle cx="129.809513" cy="50.389557" r="9.365888" opacity="0.911507" style="stroke:black;stroke-width:0.5;fill:url(#radialffffffbfbfbf)"/>
<circle cx="109.027173" cy="134.038234" r="11.173391" opacity="0.995584" style="stroke:black;stroke-width:0.5;fill:url(#radialffffffbfbfbf)"/>
<circle cx="181.073478" cy="108.172397" r="11.272727" opacity="1.000000" style="stroke:black;stroke-width:0.5;fill:url(#radialffffffbfbfbf)"/>
</svg>
</g>
</svg>
