<?xml version="1.0"?>
<svg version="1.1" id="topsvg"
xmlns="http://www.w3.org/2000/svg" xmlns:xlink="http://www.w3.org/1999/xlink"
xmlns:cml="http://www.xml-cml.org/schema" x="0" y="0" width="1024px" height="1024px" viewBox="0 0 100 100">
<title>294861 - Open Babel Depiction</title>
<rect x="0" y="0" width="100" height="100" fill="white"/>
<defs>
<radialGradient id='radialffffff666666' cx='50%' cy='50%' r='50%' fx='30%' fy='30%'>
  <stop offset=' 0%' stop-color="rgb(255,255,255)"  stop-opacity='1.0'/>
  <stop offset='100%' stop-color="rgb(102,102,102)"  stop-opacity ='1.0'/>
</radialGradient>
<radialGradient id='radialffffffb2b20' cx='50%' cy='50%' r='50%' fx='30%' fy='30%'>
  <stop offset=' 0%' stop-color="rgb(255,255,255)"  stop-opacity='1.0'/>
  <stop offset='100%' stop-color="rgb(178,178,0)"  stop-opacity ='1.0'/>
</radialGradient>
<radialGradient id='radialffffffbfbfbf' cx='50%' cy='50%' r='50%' fx='30%' fy='30%'>
  <stop offset=' 0%' stop-color="rgb(255,255,255)"  stop-opacity='1.0'/>
  <stop offset='100%' stop-color="rgb(191,191,191)"  stop-opacity ='1.0'/>
</radialGradient>
</defs>
<g transform="translate(0,0)">
<svg width="100" height="100" x="0" y="0" viewBox="0 0 428.149 156.141"
font-family="sans-serif" stroke="rgb(0,0,0)" stroke-width="2"  stroke-linecap="round">
<line x1="194.1" y1="46.5" x2="238.0" y2="84.6" opacity="1.0" stroke="rgb(0,0,0)"  stroke-width="1.4"/>
<line x1="194.1" y1="46.5" x2="150.3" y2="84.2" opacity="0.5" stroke="rgb(0,0,0)"  stroke-width="1.5"/>
<line x1="281.8" y1="63.1" x2="238.0" y2="84.6" opacity="0.5" stroke="rgb(0,0,0)"  stroke-width="1.4"/>
<line x1="281.8" y1="63.1" x2="319.2" y2="94.7" opacity="0.5" stroke="rgb(0,0,0)"  stroke-width="1.4"/>
<line x1="281.8" y1="63.1" x2="284.7" y2="42.9" opacity="0.5" stroke="rgb(0,0,0)"  stroke-width="0.7"/>
<line x1="281.8" y1="63.1" x2="284.5" y2="41.9" opacity="0.2" stroke="rgb(0,0,0)"  stroke-width="2.1"/>
<line x1="238.0" y1="84.6" x2="234.7" y2="104.8" opacity="0.7" stroke="rgb(0,0,0)"  stroke-width="0.7"/>
<line x1="238.0" y1="84.6" x2="235.3" y2="105.0" opacity="0.2" stroke="rgb(0,0,0)"  stroke-width="2.1"/>
<line x1="319.2" y1="94.7" x2="361.9" y2="71.5" opacity="0.7" stroke="rgb(0,0,0)"  stroke-width="1.5"/>
<line x1="319.2" y1="94.7" x2="315.9" y2="116.1" opacity="0.5" stroke="rgb(0,0,0)"  stroke-width="2.1"/>
<line x1="319.2" y1="94.7" x2="318.6" y2="114.6" opacity="0.7" stroke="rgb(0,0,0)"  stroke-width="0.7"/>
<line x1="150.3" y1="84.2" x2="107.6" y2="60.8" opacity="0.2" stroke="rgb(0,0,0)"  stroke-width="1.5"/>
<line x1="150.3" y1="84.2" x2="153.1" y2="104.8" opacity="0.5" stroke="rgb(0,0,0)"  stroke-width="2.2"/>
<line x1="150.3" y1="84.2" x2="152.5" y2="104.4" opacity="0.7" stroke="rgb(0,0,0)"  stroke-width="0.8"/>
<line x1="107.6" y1="60.8" x2="70.4" y2="92.2" opacity="0.3" stroke="rgb(0,0,0)"  stroke-width="1.5"/>
<line x1="107.6" y1="60.8" x2="105.2" y2="40.5" opacity="0.5" stroke="rgb(0,0,0)"  stroke-width="2.2"/>
<line x1="107.6" y1="60.8" x2="104.6" y2="40.0" opacity="0.7" stroke="rgb(0,0,0)"  stroke-width="0.8"/>
<line x1="361.9" y1="71.5" x2="388.1" y2="94.6" opacity="0.3" stroke="rgb(0,0,0)"  stroke-width="1.6"/>
<line x1="361.9" y1="71.5" x2="363.8" y2="52.3" opacity="0.5" stroke="rgb(0,0,0)"  stroke-width="2.3"/>
<line x1="361.9" y1="71.5" x2="366.5" y2="50.3" opacity="0.8" stroke="rgb(0,0,0)"  stroke-width="0.9"/>
<line x1="70.4" y1="92.2" x2="71.6" y2="112.9" opacity="0.3" stroke="rgb(0,0,0)"  stroke-width="2.2"/>
<line x1="70.4" y1="92.2" x2="40.0" y2="74.9" opacity="0.7" stroke="rgb(0,0,0)"  stroke-width="1.5"/>
<line x1="70.4" y1="92.2" x2="71.0" y2="112.4" opacity="0.5" stroke="rgb(0,0,0)"  stroke-width="0.8"/>
<circle cx="284.747863" cy="42.854491" r="5.636364" opacity="0.200000" style="stroke:black;stroke-width:0.5;fill:url(#radialffffffbfbfbf)"/>
<circle cx="234.699967" cy="104.809421" r="5.636364" opacity="0.200000" style="stroke:black;stroke-width:0.5;fill:url(#radialffffffbfbfbf)"/>
<circle cx="318.563837" cy="114.555607" r="5.636364" opacity="0.200000" style="stroke:black;stroke-width:0.5;fill:url(#radialffffffbfbfbf)"/>
<circle cx="152.472714" cy="104.384284" r="5.636364" opacity="0.200000" style="stroke:black;stroke-width:0.5;fill:url(#radialffffffbfbfbf)"/>
<circle cx="70.993447" cy="112.413939" r="5.636364" opacity="0.200000" style="stroke:black;stroke-width:0.5;fill:url(#radialffffffbfbfbf)"/>
<circle cx="104.627219" cy="40.000000" r="5.636364" opacity="0.201983" style="stroke:black;stroke-width:0.5;fill:url(#radialffffffbfbfbf)"/>
<circle cx="366.486049" cy="50.334346" r="5.636364" opacity="0.279292" style="stroke:black;stroke-width:0.5;fill:url(#radialffffffbfbfbf)"/>
<circle cx="281.839031" cy="63.082063" r="13.818182" opacity="0.681417" style="stroke:black;stroke-width:0.5;fill:url(#radialffffff666666)"/>
<circle cx="237.954023" cy="84.559474" r="13.818182" opacity="0.685907" style="stroke:black;stroke-width:0.5;fill:url(#radialffffff666666)"/>
<circle cx="319.199944" cy="94.682849" r="13.818182" opacity="0.691687" style="stroke:black;stroke-width:0.5;fill:url(#radialffffff666666)"/>
<circle cx="194.075408" cy="46.514506" r="19.090909" opacity="0.694690" style="stroke:black;stroke-width:0.5;fill:url(#radialffffffb2b20)"/>
<circle cx="150.324654" cy="84.233429" r="13.818182" opacity="0.697866" style="stroke:black;stroke-width:0.5;fill:url(#radialffffff666666)"/>
<circle cx="107.590392" cy="60.815731" r="13.818182" opacity="0.705320" style="stroke:black;stroke-width:0.5;fill:url(#radialffffff666666)"/>
<circle cx="70.424467" cy="92.199154" r="13.818182" opacity="0.706499" style="stroke:black;stroke-width:0.5;fill:url(#radialffffff666666)"/>
<circle cx="40.000000" cy="74.934755" r="5.712915" opacity="0.711892" style="stroke:black;stroke-width:0.5;fill:url(#radialffffffbfbfbf)"/>
<circle cx="361.863882" cy="71.527266" r="14.509199" opacity="0.724572" style="stroke:black;stroke-width:0.5;fill:url(#radialffffff666666)"/>
<circle cx="388.148857" cy="94.609329" r="6.000937" opacity="0.729617" style="stroke:black;stroke-width:0.5;fill:url(#radialffffffbfbfbf)"/>
<circle cx="284.453784" cy="41.850784" r="10.340030" opacity="0.957737" style="stroke:black;stroke-width:0.5;fill:url(#radialffffffbfbfbf)"/>
<circle cx="315.942692" cy="116.141080" r="10.440926" opacity="0.962399" style="stroke:black;stroke-width:0.5;fill:url(#radialffffffbfbfbf)"/>
<circle cx="235.268947" cy="105.026784" r="10.493133" opacity="0.964802" style="stroke:black;stroke-width:0.5;fill:url(#radialffffffbfbfbf)"/>
<circle cx="153.121608" cy="104.751884" r="10.669114" opacity="0.972858" style="stroke:black;stroke-width:0.5;fill:url(#radialffffffbfbfbf)"/>
<circle cx="71.581607" cy="112.922186" r="10.796993" opacity="0.978671" style="stroke:black;stroke-width:0.5;fill:url(#radialffffffbfbfbf)"/>
<circle cx="105.215379" cy="40.489067" r="10.832776" opacity="0.980292" style="stroke:black;stroke-width:0.5;fill:url(#radialffffffbfbfbf)"/>
<circle cx="363.800973" cy="52.309794" r="11.272727" opacity="1.000000" style="stroke:black;stroke-width:0.5;fill:url(#radialffffffbfbfbf)"/>
</svg>
</g>
</svg>
