<?xml version="1.0"?>
<svg version="1.1" id="topsvg"
xmlns="http://www.w3.org/2000/svg" xmlns:xlink="http://www.w3.org/1999/xlink"
xmlns:cml="http://www.xml-cml.org/schema" x="0" y="0" width="1024px" height="1024px" viewBox="0 0 100 100">
<title>3013877 - Open Babel Depiction</title>
<rect x="0" y="0" width="100" height="100" fill="white"/>
<defs>
<radialGradient id='radialffffff666666' cx='50%' cy='50%' r='50%' fx='30%' fy='30%'>
  <stop offset=' 0%' stop-color="rgb(255,255,255)"  stop-opacity='1.0'/>
  <stop offset='100%' stop-color="rgb(102,102,102)"  stop-opacity ='1.0'/>
</radialGradient>
<radialGradient id='radialffffff7fb2ff' cx='50%' cy='50%' r='50%' fx='30%' fy='30%'>
  <stop offset=' 0%' stop-color="rgb(255,255,255)"  stop-opacity='1.0'/>
  <stop offset='100%' stop-color="rgb(127,178,255)"  stop-opacity ='1.0'/>
</radialGradient>
<radialGradient id='radialffffffbfbfbf' cx='50%' cy='50%' r='50%' fx='30%' fy='30%'>
  <stop offset=' 0%' stop-color="rgb(255,255,255)"  stop-opacity='1.0'/>
  <stop offset='100%' stop-color="rgb(191,191,191)"  stop-opacity ='1.0'/>
</radialGradient>
</defs>
<g transform="translate(0,0)">
<svg width="100" height="100" x="0" y="0" viewBox="0 0 764.742 154.649"
font-family="sans-serif" stroke="rgb(0,0,0)" stroke-width="2"  stroke-linecap="round">
<line x1="40.0" y1="65.1" x2="75.0" y2="91.9" opacity="1.0" stroke="rgb(0,0,0)"  stroke-width="1.5"/>
<line x1="364.4" y1="62.9" x2="405.3" y2="91.0" opacity="0.5" stroke="rgb(0,0,0)"  stroke-width="1.6"/>
<line x1="364.4" y1="62.9" x2="322.4" y2="89.4" opacity="0.5" stroke="rgb(0,0,0)"  stroke-width="1.6"/>
<line x1="364.4" y1="62.9" x2="365.2" y2="42.5" opacity="0.5" stroke="rgb(0,0,0)"  stroke-width="2.3"/>
<line x1="364.4" y1="62.9" x2="364.3" y2="41.0" opacity="0.8" stroke="rgb(0,0,0)"  stroke-width="1.0"/>
<line x1="405.3" y1="91.0" x2="447.3" y2="64.7" opacity="0.3" stroke="rgb(0,0,0)"  stroke-width="1.6"/>
<line x1="405.3" y1="91.0" x2="404.4" y2="111.7" opacity="0.5" stroke="rgb(0,0,0)"  stroke-width="0.9"/>
<line x1="405.3" y1="91.0" x2="405.4" y2="112.7" opacity="0.3" stroke="rgb(0,0,0)"  stroke-width="2.2"/>
<line x1="322.4" y1="89.4" x2="280.3" y2="63.0" opacity="0.7" stroke="rgb(0,0,0)"  stroke-width="1.6"/>
<line x1="322.4" y1="89.4" x2="322.1" y2="110.6" opacity="0.5" stroke="rgb(0,0,0)"  stroke-width="2.3"/>
<line x1="322.4" y1="89.4" x2="322.6" y2="110.8" opacity="0.8" stroke="rgb(0,0,0)"  stroke-width="1.0"/>
<line x1="447.3" y1="64.7" x2="489.4" y2="91.0" opacity="0.3" stroke="rgb(0,0,0)"  stroke-width="1.6"/>
<line x1="447.3" y1="64.7" x2="447.6" y2="44.2" opacity="0.5" stroke="rgb(0,0,0)"  stroke-width="0.9"/>
<line x1="447.3" y1="64.7" x2="447.1" y2="42.5" opacity="0.3" stroke="rgb(0,0,0)"  stroke-width="2.2"/>
<line x1="280.3" y1="63.0" x2="239.4" y2="91.0" opacity="0.7" stroke="rgb(0,0,0)"  stroke-width="1.5"/>
<line x1="280.3" y1="63.0" x2="281.1" y2="40.7" opacity="0.5" stroke="rgb(0,0,0)"  stroke-width="0.9"/>
<line x1="280.3" y1="63.0" x2="278.9" y2="43.0" opacity="0.3" stroke="rgb(0,0,0)"  stroke-width="2.3"/>
<line x1="489.4" y1="91.0" x2="530.4" y2="63.1" opacity="0.8" stroke="rgb(0,0,0)"  stroke-width="1.6"/>
<line x1="489.4" y1="91.0" x2="489.4" y2="113.9" opacity="0.5" stroke="rgb(0,0,0)"  stroke-width="1.0"/>
<line x1="489.4" y1="91.0" x2="489.9" y2="110.4" opacity="0.3" stroke="rgb(0,0,0)"  stroke-width="2.3"/>
<line x1="239.4" y1="91.0" x2="198.5" y2="62.9" opacity="0.8" stroke="rgb(0,0,0)"  stroke-width="1.5"/>
<line x1="239.4" y1="91.0" x2="240.3" y2="110.4" opacity="0.5" stroke="rgb(0,0,0)"  stroke-width="0.8"/>
<line x1="239.4" y1="91.0" x2="238.7" y2="113.7" opacity="0.3" stroke="rgb(0,0,0)"  stroke-width="2.1"/>
<line x1="530.4" y1="63.1" x2="571.2" y2="91.2" opacity="0.7" stroke="rgb(0,0,0)"  stroke-width="1.5"/>
<line x1="530.4" y1="63.1" x2="530.3" y2="44.1" opacity="0.5" stroke="rgb(0,0,0)"  stroke-width="0.8"/>
<line x1="530.4" y1="63.1" x2="530.5" y2="40.0" opacity="0.3" stroke="rgb(0,0,0)"  stroke-width="2.1"/>
<line x1="198.5" y1="62.9" x2="157.6" y2="90.9" opacity="0.7" stroke="rgb(0,0,0)"  stroke-width="1.4"/>
<line x1="198.5" y1="62.9" x2="198.0" y2="43.1" opacity="0.5" stroke="rgb(0,0,0)"  stroke-width="2.2"/>
<line x1="198.5" y1="62.9" x2="198.9" y2="40.6" opacity="0.7" stroke="rgb(0,0,0)"  stroke-width="0.8"/>
<line x1="571.2" y1="91.2" x2="613.3" y2="65.1" opacity="0.3" stroke="rgb(0,0,0)"  stroke-width="1.5"/>
<line x1="571.2" y1="91.2" x2="570.4" y2="114.6" opacity="0.5" stroke="rgb(0,0,0)"  stroke-width="1.0"/>
<line x1="571.2" y1="91.2" x2="571.3" y2="110.0" opacity="0.3" stroke="rgb(0,0,0)"  stroke-width="2.3"/>
<line x1="157.6" y1="90.9" x2="115.8" y2="64.4" opacity="0.8" stroke="rgb(0,0,0)"  stroke-width="1.4"/>
<line x1="157.6" y1="90.9" x2="157.7" y2="113.5" opacity="0.5" stroke="rgb(0,0,0)"  stroke-width="2.0"/>
<line x1="157.6" y1="90.9" x2="158.1" y2="110.6" opacity="0.7" stroke="rgb(0,0,0)"  stroke-width="0.7"/>
<line x1="613.3" y1="65.1" x2="655.1" y2="91.7" opacity="0.2" stroke="rgb(0,0,0)"  stroke-width="1.4"/>
<line x1="613.3" y1="65.1" x2="612.1" y2="44.7" opacity="0.5" stroke="rgb(0,0,0)"  stroke-width="0.8"/>
<line x1="613.3" y1="65.1" x2="614.6" y2="42.7" opacity="0.3" stroke="rgb(0,0,0)"  stroke-width="2.1"/>
<line x1="115.8" y1="64.4" x2="75.0" y2="91.9" opacity="0.7" stroke="rgb(0,0,0)"  stroke-width="1.4"/>
<line x1="115.8" y1="64.4" x2="115.1" y2="44.1" opacity="0.5" stroke="rgb(0,0,0)"  stroke-width="2.1"/>
<line x1="115.8" y1="64.4" x2="115.0" y2="41.9" opacity="0.7" stroke="rgb(0,0,0)"  stroke-width="0.8"/>
<line x1="655.1" y1="91.7" x2="695.9" y2="64.2" opacity="0.3" stroke="rgb(0,0,0)"  stroke-width="1.4"/>
<line x1="655.1" y1="91.7" x2="654.6" y2="113.0" opacity="0.5" stroke="rgb(0,0,0)"  stroke-width="0.7"/>
<line x1="655.1" y1="91.7" x2="656.3" y2="112.7" opacity="0.2" stroke="rgb(0,0,0)"  stroke-width="2.1"/>
<line x1="75.0" y1="91.9" x2="73.5" y2="114.0" opacity="0.7" stroke="rgb(0,0,0)"  stroke-width="2.1"/>
<line x1="75.0" y1="91.9" x2="72.6" y2="110.7" opacity="0.7" stroke="rgb(0,0,0)"  stroke-width="0.7"/>
<line x1="695.9" y1="64.2" x2="698.1" y2="43.3" opacity="0.2" stroke="rgb(0,0,0)"  stroke-width="2.0"/>
<line x1="695.9" y1="64.2" x2="724.7" y2="84.8" opacity="0.7" stroke="rgb(0,0,0)"  stroke-width="1.3"/>
<line x1="695.9" y1="64.2" x2="696.4" y2="43.5" opacity="0.4" stroke="rgb(0,0,0)"  stroke-width="0.7"/>
<circle cx="696.376287" cy="43.518923" r="5.636364" opacity="0.200000" style="stroke:black;stroke-width:0.5;fill:url(#radialffffffbfbfbf)"/>
<circle cx="72.590538" cy="110.728402" r="5.636364" opacity="0.200000" style="stroke:black;stroke-width:0.5;fill:url(#radialffffffbfbfbf)"/>
<circle cx="158.104247" cy="110.608512" r="5.636364" opacity="0.200000" style="stroke:black;stroke-width:0.5;fill:url(#radialffffffbfbfbf)"/>
<circle cx="240.312891" cy="110.381694" r="5.636364" opacity="0.200000" style="stroke:black;stroke-width:0.5;fill:url(#radialffffffbfbfbf)"/>
<circle cx="654.641734" cy="113.035467" r="5.636364" opacity="0.200000" style="stroke:black;stroke-width:0.5;fill:url(#radialffffffbfbfbf)"/>
<circle cx="612.119799" cy="44.734020" r="5.636364" opacity="0.200000" style="stroke:black;stroke-width:0.5;fill:url(#radialffffffbfbfbf)"/>
<circle cx="530.254622" cy="44.131332" r="5.636364" opacity="0.200000" style="stroke:black;stroke-width:0.5;fill:url(#radialffffffbfbfbf)"/>
<circle cx="115.008785" cy="41.898793" r="5.636364" opacity="0.237024" style="stroke:black;stroke-width:0.5;fill:url(#radialffffffbfbfbf)"/>
<circle cx="447.602063" cy="44.157254" r="5.636364" opacity="0.249565" style="stroke:black;stroke-width:0.5;fill:url(#radialffffffbfbfbf)"/>
<circle cx="198.899124" cy="40.635091" r="5.636364" opacity="0.254566" style="stroke:black;stroke-width:0.5;fill:url(#radialffffffbfbfbf)"/>
<circle cx="404.373750" cy="111.664837" r="5.636364" opacity="0.262467" style="stroke:black;stroke-width:0.5;fill:url(#radialffffffbfbfbf)"/>
<circle cx="322.628464" cy="110.799687" r="5.636364" opacity="0.315277" style="stroke:black;stroke-width:0.5;fill:url(#radialffffffbfbfbf)"/>
<circle cx="281.072125" cy="40.729059" r="5.636364" opacity="0.316873" style="stroke:black;stroke-width:0.5;fill:url(#radialffffffbfbfbf)"/>
<circle cx="364.343575" cy="41.033643" r="5.636364" opacity="0.325664" style="stroke:black;stroke-width:0.5;fill:url(#radialffffffbfbfbf)"/>
<circle cx="489.424102" cy="113.923298" r="5.636364" opacity="0.335428" style="stroke:black;stroke-width:0.5;fill:url(#radialffffffbfbfbf)"/>
<circle cx="570.430610" cy="114.649117" r="5.636364" opacity="0.339017" style="stroke:black;stroke-width:0.5;fill:url(#radialffffffbfbfbf)"/>
<circle cx="724.741525" cy="84.838722" r="5.636364" opacity="0.661049" style="stroke:black;stroke-width:0.5;fill:url(#radialffffffbfbfbf)"/>
<circle cx="695.948572" cy="64.152900" r="13.818182" opacity="0.670029" style="stroke:black;stroke-width:0.5;fill:url(#radialffffff666666)"/>
<circle cx="157.589046" cy="90.862366" r="13.818182" opacity="0.683848" style="stroke:black;stroke-width:0.5;fill:url(#radialffffff666666)"/>
<circle cx="655.105092" cy="91.688632" r="13.818182" opacity="0.684769" style="stroke:black;stroke-width:0.5;fill:url(#radialffffff666666)"/>
<circle cx="74.952688" cy="91.918691" r="13.818182" opacity="0.685542" style="stroke:black;stroke-width:0.5;fill:url(#radialffffff666666)"/>
<circle cx="115.750805" cy="64.408881" r="13.818182" opacity="0.695729" style="stroke:black;stroke-width:0.5;fill:url(#radialffffff666666)"/>
<circle cx="613.266851" cy="65.053693" r="13.818182" opacity="0.697141" style="stroke:black;stroke-width:0.5;fill:url(#radialffffff666666)"/>
<circle cx="239.441261" cy="90.991976" r="13.818182" opacity="0.697611" style="stroke:black;stroke-width:0.5;fill:url(#radialffffff666666)"/>
<circle cx="198.510293" cy="62.944283" r="13.818182" opacity="0.703729" style="stroke:black;stroke-width:0.5;fill:url(#radialffffff666666)"/>
<circle cx="530.355070" cy="63.086855" r="13.856510" opacity="0.708087" style="stroke:black;stroke-width:0.5;fill:url(#radialffffff666666)"/>
<circle cx="40.000000" cy="65.118498" r="10.423741" opacity="0.709154" style="stroke:black;stroke-width:0.5;fill:url(#radialffffff7fb2ff)"/>
<circle cx="447.336361" cy="64.655141" r="14.220274" opacity="0.717321" style="stroke:black;stroke-width:0.5;fill:url(#radialffffff666666)"/>
<circle cx="405.258341" cy="91.011418" r="14.337348" opacity="0.720268" style="stroke:black;stroke-width:0.5;fill:url(#radialffffff666666)"/>
<circle cx="571.175869" cy="91.189632" r="14.662088" opacity="0.728379" style="stroke:black;stroke-width:0.5;fill:url(#radialffffff666666)"/>
<circle cx="280.287982" cy="63.035010" r="14.674632" opacity="0.728691" style="stroke:black;stroke-width:0.5;fill:url(#radialffffff666666)"/>
<circle cx="489.401421" cy="90.982255" r="14.788918" opacity="0.731523" style="stroke:black;stroke-width:0.5;fill:url(#radialffffff666666)"/>
<circle cx="322.369243" cy="89.355645" r="14.950591" opacity="0.735510" style="stroke:black;stroke-width:0.5;fill:url(#radialffffff666666)"/>
<circle cx="364.414860" cy="62.934562" r="14.971497" opacity="0.736024" style="stroke:black;stroke-width:0.5;fill:url(#radialffffff666666)"/>
<circle cx="698.061222" cy="43.318027" r="10.082863" opacity="0.945752" style="stroke:black;stroke-width:0.5;fill:url(#radialffffffbfbfbf)"/>
<circle cx="157.663572" cy="113.476142" r="10.084569" opacity="0.945832" style="stroke:black;stroke-width:0.5;fill:url(#radialffffffbfbfbf)"/>
<circle cx="73.497811" cy="113.968662" r="10.159610" opacity="0.949345" style="stroke:black;stroke-width:0.5;fill:url(#radialffffffbfbfbf)"/>
<circle cx="238.747845" cy="113.696480" r="10.280131" opacity="0.954959" style="stroke:black;stroke-width:0.5;fill:url(#radialffffffbfbfbf)"/>
<circle cx="656.329910" cy="112.679038" r="10.310262" opacity="0.956358" style="stroke:black;stroke-width:0.5;fill:url(#radialffffffbfbfbf)"/>
<circle cx="614.605078" cy="42.747741" r="10.332433" opacity="0.957385" style="stroke:black;stroke-width:0.5;fill:url(#radialffffffbfbfbf)"/>
<circle cx="530.539765" cy="40.000000" r="10.389283" opacity="0.960016" style="stroke:black;stroke-width:0.5;fill:url(#radialffffffbfbfbf)"/>
<circle cx="115.118954" cy="44.092449" r="10.572339" opacity="0.968436" style="stroke:black;stroke-width:0.5;fill:url(#radialffffffbfbfbf)"/>
<circle cx="447.096582" cy="42.514442" r="10.683196" opacity="0.973500" style="stroke:black;stroke-width:0.5;fill:url(#radialffffffbfbfbf)"/>
<circle cx="198.008053" cy="43.113890" r="10.755395" opacity="0.976784" style="stroke:black;stroke-width:0.5;fill:url(#radialffffffbfbfbf)"/>
<circle cx="405.417114" cy="112.740603" r="10.782683" opacity="0.978023" style="stroke:black;stroke-width:0.5;fill:url(#radialffffffbfbfbf)"/>
<circle cx="322.145665" cy="110.559908" r="11.106158" opacity="0.992584" style="stroke:black;stroke-width:0.5;fill:url(#radialffffffbfbfbf)"/>
<circle cx="278.917352" cy="42.951877" r="11.126055" opacity="0.993473" style="stroke:black;stroke-width:0.5;fill:url(#radialffffffbfbfbf)"/>
<circle cx="365.182802" cy="42.462598" r="11.201665" opacity="0.996843" style="stroke:black;stroke-width:0.5;fill:url(#radialffffffbfbfbf)"/>
<circle cx="489.871258" cy="110.375213" r="11.257946" opacity="0.999344" style="stroke:black;stroke-width:0.5;fill:url(#radialffffffbfbfbf)"/>
<circle cx="571.279558" cy="109.992863" r="11.272727" opacity="1.000000" style="stroke:black;stroke-width:0.5;fill:url(#radialffffffbfbfbf)"/>
</svg>
</g>
</svg>
