<?xml version="1.0"?>
<svg version="1.1" id="topsvg"
xmlns="http://www.w3.org/2000/svg" xmlns:xlink="http://www.w3.org/1999/xlink"
xmlns:cml="http://www.xml-cml.org/schema" x="0" y="0" width="1024px" height="1024px" viewBox="0 0 100 100">
<title>31242 - Open Babel Depiction</title>
<rect x="0" y="0" width="100" height="100" fill="white"/>
<defs>
<radialGradient id='radialffffff666666' cx='50%' cy='50%' r='50%' fx='30%' fy='30%'>
  <stop offset=' 0%' stop-color="rgb(255,255,255)"  stop-opacity='1.0'/>
  <stop offset='100%' stop-color="rgb(102,102,102)"  stop-opacity ='1.0'/>
</radialGradient>
<radialGradient id='radialffffffbfbfbf' cx='50%' cy='50%' r='50%' fx='30%' fy='30%'>
  <stop offset=' 0%' stop-color="rgb(255,255,255)"  stop-opacity='1.0'/>
  <stop offset='100%' stop-color="rgb(191,191,191)"  stop-opacity ='1.0'/>
</radialGradient>
<radialGradient id='radialffffffffcc' cx='50%' cy='50%' r='50%' fx='30%' fy='30%'>
  <stop offset=' 0%' stop-color="rgb(255,255,255)"  stop-opacity='1.0'/>
  <stop offset='100%' stop-color="rgb(255,12,12)"  stop-opacity ='1.0'/>
</radialGradient>
</defs>
<g transform="translate(0,0)">
<svg width="100" height="100" x="0" y="0" viewBox="0 0 330.051 219.166"
font-family="sans-serif" stroke="rgb(0,0,0)" stroke-width="2"  stroke-linecap="round">
<line x1="50.1" y1="109.6" x2="93.6" y2="109.6" opacity="1.0" stroke="rgb(0,0,0)"  stroke-width="1.5"/>
<line x1="50.1" y1="109.6" x2="40.0" y2="139.3" opacity="0.5" stroke="rgb(0,0,0)"  stroke-width="1.7"/>
<line x1="182.8" y1="109.6" x2="230.4" y2="109.6" opacity="0.6" stroke="rgb(0,0,0)"  stroke-width="0.8"/>
<line x1="230.4" y1="109.6" x2="255.3" y2="109.6" opacity="0.3" stroke="rgb(0,0,0)"  stroke-width="1.5"/>
<line x1="230.4" y1="109.6" x2="240.0" y2="137.8" opacity="0.5" stroke="rgb(0,0,0)"  stroke-width="0.4"/>
<line x1="230.4" y1="109.6" x2="240.0" y2="81.4" opacity="0.1" stroke="rgb(0,0,0)"  stroke-width="0.4"/>
<line x1="160.5" y1="148.6" x2="177.5" y2="179.2" opacity="0.1" stroke="rgb(0,0,0)"  stroke-width="1.0"/>
<line x1="160.5" y1="70.6" x2="177.5" y2="40.0" opacity="0.3" stroke="rgb(0,0,0)"  stroke-width="1.0"/>
<line x1="255.3" y1="109.6" x2="247.5" y2="81.0" opacity="0.3" stroke="rgb(0,0,0)"  stroke-width="2.6"/>
<line x1="255.3" y1="109.6" x2="290.1" y2="109.6" opacity="0.9" stroke="rgb(0,0,0)"  stroke-width="2.2"/>
<line x1="255.3" y1="109.6" x2="247.5" y2="138.2" opacity="0.7" stroke="rgb(0,0,0)"  stroke-width="2.6"/>
<line x1="115.9" y1="148.6" x2="98.9" y2="179.1" opacity="0.9" stroke="rgb(0,0,0)"  stroke-width="1.3"/>
<line x1="115.9" y1="70.6" x2="98.7" y2="40.1" opacity="0.4" stroke="rgb(0,0,0)"  stroke-width="1.3"/>
<line x1="160.5" y1="67.6" x2="115.9" y2="67.6" opacity="0.4" stroke="rgb(0,0,0)"  stroke-width="1.2"/>
<line x1="160.5" y1="73.6" x2="115.9" y2="73.6" opacity="0.4" stroke="rgb(0,0,0)"  stroke-width="1.2" stroke-dasharray="5.0,5.0"/>
<line x1="113.3" y1="69.1" x2="91.0" y2="108.1" opacity="0.5" stroke="rgb(0,0,0)"  stroke-width="1.4"/>
<line x1="118.5" y1="72.1" x2="96.2" y2="111.1" opacity="0.5" stroke="rgb(0,0,0)"  stroke-width="1.4" stroke-dasharray="5.0,5.0"/>
<line x1="91.0" y1="111.1" x2="113.3" y2="150.0" opacity="0.5" stroke="rgb(0,0,0)"  stroke-width="1.4"/>
<line x1="96.2" y1="108.1" x2="118.5" y2="147.1" opacity="0.5" stroke="rgb(0,0,0)"  stroke-width="1.4" stroke-dasharray="5.0,5.0"/>
<line x1="115.9" y1="151.6" x2="160.5" y2="151.6" opacity="0.4" stroke="rgb(0,0,0)"  stroke-width="1.2"/>
<line x1="115.9" y1="145.6" x2="160.5" y2="145.6" opacity="0.4" stroke="rgb(0,0,0)"  stroke-width="1.2" stroke-dasharray="5.0,5.0"/>
<line x1="163.1" y1="150.1" x2="185.4" y2="111.1" opacity="0.3" stroke="rgb(0,0,0)"  stroke-width="1.0"/>
<line x1="157.9" y1="147.1" x2="180.2" y2="108.1" opacity="0.3" stroke="rgb(0,0,0)"  stroke-width="1.0" stroke-dasharray="5.0,5.0"/>
<line x1="185.4" y1="108.1" x2="163.1" y2="69.1" opacity="0.3" stroke="rgb(0,0,0)"  stroke-width="1.0"/>
<line x1="180.2" y1="111.1" x2="157.9" y2="72.1" opacity="0.3" stroke="rgb(0,0,0)"  stroke-width="1.0" stroke-dasharray="5.0,5.0"/>
<circle cx="239.985521" cy="137.781888" r="5.636364" opacity="0.200000" style="stroke:black;stroke-width:0.5;fill:url(#radialffffffbfbfbf)"/>
<circle cx="239.982294" cy="81.354612" r="5.636364" opacity="0.200000" style="stroke:black;stroke-width:0.5;fill:url(#radialffffffbfbfbf)"/>
<circle cx="230.438425" cy="109.573091" r="13.818182" opacity="0.486311" style="stroke:black;stroke-width:0.5;fill:url(#radialffffff666666)"/>
<circle cx="182.767495" cy="109.582774" r="13.818182" opacity="0.564009" style="stroke:black;stroke-width:0.5;fill:url(#radialffffff666666)"/>
<circle cx="177.490449" cy="40.000000" r="5.636364" opacity="0.572663" style="stroke:black;stroke-width:0.5;fill:url(#radialffffffbfbfbf)"/>
<circle cx="177.458174" cy="179.165548" r="5.636364" opacity="0.572768" style="stroke:black;stroke-width:0.5;fill:url(#radialffffffbfbfbf)"/>
<circle cx="160.481255" cy="70.587502" r="13.818182" opacity="0.596976" style="stroke:black;stroke-width:0.5;fill:url(#radialffffff666666)"/>
<circle cx="160.458662" cy="148.568364" r="13.818182" opacity="0.597043" style="stroke:black;stroke-width:0.5;fill:url(#radialffffff666666)"/>
<circle cx="115.866816" cy="148.555454" r="13.818182" opacity="0.657974" style="stroke:black;stroke-width:0.5;fill:url(#radialffffff666666)"/>
<circle cx="115.892637" cy="70.581047" r="13.818182" opacity="0.658004" style="stroke:black;stroke-width:0.5;fill:url(#radialffffff666666)"/>
<circle cx="98.867305" cy="179.142955" r="5.636364" opacity="0.679885" style="stroke:black;stroke-width:0.5;fill:url(#radialffffffbfbfbf)"/>
<circle cx="98.705927" cy="40.103282" r="5.636364" opacity="0.680177" style="stroke:black;stroke-width:0.5;fill:url(#radialffffffbfbfbf)"/>
<circle cx="93.583803" cy="109.563409" r="13.818182" opacity="0.686443" style="stroke:black;stroke-width:0.5;fill:url(#radialffffff666666)"/>
<circle cx="50.066732" cy="109.573091" r="13.092560" opacity="0.738596" style="stroke:black;stroke-width:0.5;fill:url(#radialffffffffcc)"/>
<circle cx="40.000000" cy="139.273017" r="6.343491" opacity="0.750153" style="stroke:black;stroke-width:0.5;fill:url(#radialffffffbfbfbf)"/>
<circle cx="290.051294" cy="109.573091" r="7.725419" opacity="0.827840" style="stroke:black;stroke-width:0.5;fill:url(#radialffffffbfbfbf)"/>
<circle cx="255.271203" cy="109.576319" r="21.048677" opacity="0.872714" style="stroke:black;stroke-width:0.5;fill:url(#radialffffff666666)"/>
<circle cx="247.544446" cy="138.165967" r="11.270931" opacity="0.999920" style="stroke:black;stroke-width:0.5;fill:url(#radialffffffbfbfbf)"/>
<circle cx="247.537991" cy="80.999582" r="11.272727" opacity="1.000000" style="stroke:black;stroke-width:0.5;fill:url(#radialffffffbfbfbf)"/>
</svg>
</g>
</svg>
