<?xml version="1.0"?>
<svg version="1.1" id="topsvg"
xmlns="http://www.w3.org/2000/svg" xmlns:xlink="http://www.w3.org/1999/xlink"
xmlns:cml="http://www.xml-cml.org/schema" x="0" y="0" width="200px" height="200px" viewBox="0 0 100 100">
<title>338 - Open Babel Depiction</title>
<rect x="0" y="0" width="100" height="100" fill="white"/>
<defs>
<radialGradient id='radialffffff666666' cx='50%' cy='50%' r='50%' fx='30%' fy='30%'>
  <stop offset=' 0%' stop-color="rgb(255,255,255)"  stop-opacity='1.0'/>
  <stop offset='100%' stop-color="rgb(102,102,102)"  stop-opacity ='1.0'/>
</radialGradient>
<radialGradient id='radialffffffbfbfbf' cx='50%' cy='50%' r='50%' fx='30%' fy='30%'>
  <stop offset=' 0%' stop-color="rgb(255,255,255)"  stop-opacity='1.0'/>
  <stop offset='100%' stop-color="rgb(191,191,191)"  stop-opacity ='1.0'/>
</radialGradient>
<radialGradient id='radialffffffffcc' cx='50%' cy='50%' r='50%' fx='30%' fy='30%'>
  <stop offset=' 0%' stop-color="rgb(255,255,255)"  stop-opacity='1.0'/>
  <stop offset='100%' stop-color="rgb(255,12,12)"  stop-opacity ='1.0'/>
</radialGradient>
</defs>
<g transform="translate(0,0)">
<svg width="100" height="100" x="0" y="0" viewBox="0 0 297.007 247.908"
font-family="sans-serif" stroke="rgb(0,0,0)" stroke-width="2"  stroke-linecap="round">
<line x1="163.0" y1="184.8" x2="141.6" y2="147.1" opacity="1.0" stroke="rgb(0,0,0)"  stroke-width="1.1"/>
<line x1="163.0" y1="184.8" x2="142.5" y2="207.9" opacity="0.4" stroke="rgb(0,0,0)"  stroke-width="0.8"/>
<line x1="225.7" y1="70.9" x2="209.9" y2="107.6" opacity="0.3" stroke="rgb(0,0,0)"  stroke-width="0.8"/>
<line x1="225.7" y1="70.9" x2="257.0" y2="70.4" opacity="0.3" stroke="rgb(0,0,0)"  stroke-width="0.4"/>
<line x1="230.9" y1="138.1" x2="207.6" y2="109.5" opacity="0.1" stroke="rgb(0,0,0)"  stroke-width="2.3"/>
<line x1="235.5" y1="134.3" x2="212.2" y2="105.7" opacity="0.1" stroke="rgb(0,0,0)"  stroke-width="2.3"/>
<line x1="163.5" y1="108.6" x2="209.9" y2="107.6" opacity="0.8" stroke="rgb(0,0,0)"  stroke-width="1.6"/>
<line x1="141.0" y1="70.5" x2="157.2" y2="40.0" opacity="0.5" stroke="rgb(0,0,0)"  stroke-width="2.1"/>
<line x1="97.1" y1="147.4" x2="79.6" y2="177.2" opacity="0.7" stroke="rgb(0,0,0)"  stroke-width="1.1"/>
<line x1="96.5" y1="70.8" x2="79.0" y2="41.0" opacity="0.4" stroke="rgb(0,0,0)"  stroke-width="2.1"/>
<line x1="74.6" y1="109.2" x2="40.0" y2="109.5" opacity="0.7" stroke="rgb(0,0,0)"  stroke-width="1.5"/>
<line x1="141.6" y1="144.1" x2="97.1" y2="144.4" opacity="0.4" stroke="rgb(0,0,0)"  stroke-width="1.2"/>
<line x1="141.6" y1="150.1" x2="97.1" y2="150.4" opacity="0.4" stroke="rgb(0,0,0)"  stroke-width="1.2" stroke-dasharray="5.0,5.0"/>
<line x1="99.7" y1="145.9" x2="77.2" y2="107.7" opacity="0.5" stroke="rgb(0,0,0)"  stroke-width="1.4"/>
<line x1="94.5" y1="148.9" x2="72.0" y2="110.8" opacity="0.5" stroke="rgb(0,0,0)"  stroke-width="1.4" stroke-dasharray="5.0,5.0"/>
<line x1="77.2" y1="110.7" x2="99.2" y2="72.2" opacity="0.6" stroke="rgb(0,0,0)"  stroke-width="1.7"/>
<line x1="72.0" y1="107.8" x2="93.9" y2="69.3" opacity="0.6" stroke="rgb(0,0,0)"  stroke-width="1.7" stroke-dasharray="5.0,5.0"/>
<line x1="96.6" y1="73.8" x2="141.0" y2="73.5" opacity="0.6" stroke="rgb(0,0,0)"  stroke-width="1.9"/>
<line x1="96.5" y1="67.8" x2="141.0" y2="67.5" opacity="0.6" stroke="rgb(0,0,0)"  stroke-width="1.9" stroke-dasharray="5.0,5.0"/>
<line x1="138.4" y1="72.0" x2="160.9" y2="110.2" opacity="0.6" stroke="rgb(0,0,0)"  stroke-width="1.8"/>
<line x1="143.6" y1="68.9" x2="166.1" y2="107.1" opacity="0.6" stroke="rgb(0,0,0)"  stroke-width="1.8" stroke-dasharray="5.0,5.0"/>
<line x1="160.9" y1="107.2" x2="139.0" y2="145.6" opacity="0.5" stroke="rgb(0,0,0)"  stroke-width="1.4"/>
<line x1="166.1" y1="110.1" x2="144.2" y2="148.6" opacity="0.5" stroke="rgb(0,0,0)"  stroke-width="1.4" stroke-dasharray="5.0,5.0"/>
<circle cx="225.747934" cy="70.870352" r="12.000000" opacity="0.200000" style="stroke:black;stroke-width:0.5;fill:url(#radialffffffffcc)"/>
<circle cx="257.007073" cy="70.449697" r="5.636364" opacity="0.200000" style="stroke:black;stroke-width:0.5;fill:url(#radialffffffbfbfbf)"/>
<circle cx="142.496454" cy="207.908331" r="5.636364" opacity="0.482741" style="stroke:black;stroke-width:0.5;fill:url(#radialffffffbfbfbf)"/>
<circle cx="162.990645" cy="184.762737" r="12.000000" opacity="0.554336" style="stroke:black;stroke-width:0.5;fill:url(#radialffffffffcc)"/>
<circle cx="79.608507" cy="177.165450" r="5.636364" opacity="0.560459" style="stroke:black;stroke-width:0.5;fill:url(#radialffffffbfbfbf)"/>
<circle cx="97.123059" cy="147.423218" r="13.818182" opacity="0.638751" style="stroke:black;stroke-width:0.5;fill:url(#radialffffff666666)"/>
<circle cx="141.575474" cy="147.123660" r="13.818182" opacity="0.646757" style="stroke:black;stroke-width:0.5;fill:url(#radialffffff666666)"/>
<circle cx="40.000000" cy="109.475024" r="5.764221" opacity="0.715082" style="stroke:black;stroke-width:0.5;fill:url(#radialffffffbfbfbf)"/>
<circle cx="74.608447" cy="109.242389" r="14.331901" opacity="0.720131" style="stroke:black;stroke-width:0.5;fill:url(#radialffffff666666)"/>
<circle cx="163.513278" cy="108.636900" r="14.906570" opacity="0.734427" style="stroke:black;stroke-width:0.5;fill:url(#radialffffff666666)"/>
<circle cx="209.909630" cy="107.604383" r="15.228733" opacity="0.742320" style="stroke:black;stroke-width:0.5;fill:url(#radialffffff666666)"/>
<circle cx="96.549438" cy="70.762002" r="17.681236" opacity="0.799863" style="stroke:black;stroke-width:0.5;fill:url(#radialffffff666666)"/>
<circle cx="140.998666" cy="70.456071" r="17.968570" opacity="0.806336" style="stroke:black;stroke-width:0.5;fill:url(#radialffffff666666)"/>
<circle cx="79.006206" cy="41.045264" r="8.218365" opacity="0.853843" style="stroke:black;stroke-width:0.5;fill:url(#radialffffffbfbfbf)"/>
<circle cx="157.158835" cy="40.000000" r="8.558133" opacity="0.871315" style="stroke:black;stroke-width:0.5;fill:url(#radialffffffbfbfbf)"/>
<circle cx="233.205002" cy="136.218494" r="24.000000" opacity="1.000000" style="stroke:black;stroke-width:0.5;fill:url(#radialffffffffcc)"/>
</svg>
</g>
</svg>
