<?xml version="1.0"?>
<svg version="1.1" id="topsvg"
xmlns="http://www.w3.org/2000/svg" xmlns:xlink="http://www.w3.org/1999/xlink"
xmlns:cml="http://www.xml-cml.org/schema" x="0" y="0" width="200px" height="200px" viewBox="0 0 100 100">
<title>33800 - Open Babel Depiction</title>
<rect x="0" y="0" width="100" height="100" fill="white"/>
<defs>
<radialGradient id='radialffffff666666' cx='50%' cy='50%' r='50%' fx='30%' fy='30%'>
  <stop offset=' 0%' stop-color="rgb(255,255,255)"  stop-opacity='1.0'/>
  <stop offset='100%' stop-color="rgb(102,102,102)"  stop-opacity ='1.0'/>
</radialGradient>
<radialGradient id='radialffffffbfbfbf' cx='50%' cy='50%' r='50%' fx='30%' fy='30%'>
  <stop offset=' 0%' stop-color="rgb(255,255,255)"  stop-opacity='1.0'/>
  <stop offset='100%' stop-color="rgb(191,191,191)"  stop-opacity ='1.0'/>
</radialGradient>
</defs>
<g transform="translate(0,0)">
<svg width="100" height="100" x="0" y="0" viewBox="0 0 352.453 304.489"
font-family="sans-serif" stroke="rgb(0,0,0)" stroke-width="4"  stroke-linecap="round">
<line x1="184.0" y1="164.1" x2="225.4" y2="142.6" opacity="1.0" stroke="rgb(0,0,0)"  stroke-width="1.0"/>
<line x1="225.4" y1="142.6" x2="249.6" y2="130.3" opacity="0.3" stroke="rgb(0,0,0)"  stroke-width="1.5"/>
<line x1="225.4" y1="142.6" x2="245.3" y2="164.4" opacity="0.5" stroke="rgb(0,0,0)"  stroke-width="0.4"/>
<line x1="225.4" y1="142.6" x2="221.3" y2="115.2" opacity="0.1" stroke="rgb(0,0,0)"  stroke-width="0.4"/>
<line x1="249.6" y1="130.3" x2="292.0" y2="109.5" opacity="0.1" stroke="rgb(0,0,0)"  stroke-width="2.1"/>
<line x1="249.6" y1="130.3" x2="230.5" y2="108.5" opacity="0.7" stroke="rgb(0,0,0)"  stroke-width="2.6"/>
<line x1="249.6" y1="130.3" x2="255.3" y2="158.6" opacity="0.9" stroke="rgb(0,0,0)"  stroke-width="2.6"/>
<line x1="184.5" y1="208.3" x2="213.8" y2="226.2" opacity="0.9" stroke="rgb(0,0,0)"  stroke-width="1.2"/>
<line x1="145.0" y1="96.7" x2="173.2" y2="77.9" opacity="0.4" stroke="rgb(0,0,0)"  stroke-width="1.1"/>
<line x1="109.0" y1="207.8" x2="80.2" y2="225.6" opacity="0.4" stroke="rgb(0,0,0)"  stroke-width="1.9"/>
<line x1="147.1" y1="230.1" x2="147.4" y2="264.5" opacity="0.6" stroke="rgb(0,0,0)"  stroke-width="1.7"/>
<line x1="70.0" y1="140.4" x2="40.4" y2="156.8" opacity="0.6" stroke="rgb(0,0,0)"  stroke-width="2.0"/>
<line x1="292.0" y1="109.5" x2="312.5" y2="131.0" opacity="0.7" stroke="rgb(0,0,0)"  stroke-width="1.6"/>
<line x1="292.0" y1="109.5" x2="287.5" y2="80.4" opacity="0.5" stroke="rgb(0,0,0)"  stroke-width="1.6"/>
<line x1="292.0" y1="109.5" x2="308.7" y2="101.1" opacity="0.5" stroke="rgb(0,0,0)"  stroke-width="2.4"/>
<line x1="107.0" y1="74.4" x2="106.6" y2="40.0" opacity="0.8" stroke="rgb(0,0,0)"  stroke-width="1.3"/>
<line x1="69.6" y1="96.2" x2="40.0" y2="78.9" opacity="0.4" stroke="rgb(0,0,0)"  stroke-width="1.8"/>
<line x1="181.0" y1="164.1" x2="181.5" y2="208.3" opacity="0.4" stroke="rgb(0,0,0)"  stroke-width="1.2"/>
<line x1="187.0" y1="164.1" x2="187.5" y2="208.2" opacity="0.4" stroke="rgb(0,0,0)"  stroke-width="1.2" stroke-dasharray="5.0,5.0"/>
<line x1="183.0" y1="205.7" x2="145.6" y2="227.5" opacity="0.5" stroke="rgb(0,0,0)"  stroke-width="1.5"/>
<line x1="186.0" y1="210.9" x2="148.6" y2="232.7" opacity="0.5" stroke="rgb(0,0,0)"  stroke-width="1.5" stroke-dasharray="5.0,5.0"/>
<line x1="148.6" y1="227.5" x2="110.6" y2="205.2" opacity="0.6" stroke="rgb(0,0,0)"  stroke-width="1.7"/>
<line x1="145.6" y1="232.7" x2="107.5" y2="210.4" opacity="0.6" stroke="rgb(0,0,0)"  stroke-width="1.7" stroke-dasharray="5.0,5.0"/>
<line x1="112.0" y1="207.8" x2="111.0" y2="163.3" opacity="0.6" stroke="rgb(0,0,0)"  stroke-width="1.7"/>
<line x1="106.0" y1="207.9" x2="105.0" y2="163.4" opacity="0.6" stroke="rgb(0,0,0)"  stroke-width="1.7" stroke-dasharray="5.0,5.0"/>
<line x1="109.5" y1="165.9" x2="147.6" y2="143.8" opacity="0.5" stroke="rgb(0,0,0)"  stroke-width="1.5"/>
<line x1="106.5" y1="160.8" x2="144.5" y2="138.6" opacity="0.5" stroke="rgb(0,0,0)"  stroke-width="1.5" stroke-dasharray="5.0,5.0"/>
<line x1="144.5" y1="143.7" x2="182.5" y2="166.7" opacity="0.4" stroke="rgb(0,0,0)"  stroke-width="1.2"/>
<line x1="147.6" y1="138.6" x2="185.6" y2="161.5" opacity="0.4" stroke="rgb(0,0,0)"  stroke-width="1.2" stroke-dasharray="5.0,5.0"/>
<line x1="149.0" y1="141.1" x2="148.0" y2="96.6" opacity="0.4" stroke="rgb(0,0,0)"  stroke-width="1.3"/>
<line x1="143.1" y1="141.2" x2="142.0" y2="96.8" opacity="0.4" stroke="rgb(0,0,0)"  stroke-width="1.3" stroke-dasharray="5.0,5.0"/>
<line x1="146.5" y1="94.1" x2="108.5" y2="71.8" opacity="0.4" stroke="rgb(0,0,0)"  stroke-width="1.3"/>
<line x1="143.5" y1="99.3" x2="105.5" y2="77.0" opacity="0.4" stroke="rgb(0,0,0)"  stroke-width="1.3" stroke-dasharray="5.0,5.0"/>
<line x1="105.5" y1="71.8" x2="68.1" y2="93.6" opacity="0.5" stroke="rgb(0,0,0)"  stroke-width="1.5"/>
<line x1="108.5" y1="77.0" x2="71.1" y2="98.8" opacity="0.5" stroke="rgb(0,0,0)"  stroke-width="1.5" stroke-dasharray="5.0,5.0"/>
<line x1="66.6" y1="96.3" x2="67.0" y2="140.4" opacity="0.6" stroke="rgb(0,0,0)"  stroke-width="1.8"/>
<line x1="72.6" y1="96.2" x2="73.0" y2="140.4" opacity="0.6" stroke="rgb(0,0,0)"  stroke-width="1.8" stroke-dasharray="5.0,5.0"/>
<line x1="68.5" y1="143.0" x2="106.4" y2="165.9" opacity="0.6" stroke="rgb(0,0,0)"  stroke-width="1.8"/>
<line x1="71.6" y1="137.9" x2="109.5" y2="160.8" opacity="0.6" stroke="rgb(0,0,0)"  stroke-width="1.8" stroke-dasharray="5.0,5.0"/>
<line x1="109.5" y1="165.9" x2="147.6" y2="143.8" opacity="0.5" stroke="rgb(0,0,0)"  stroke-width="1.5"/>
<line x1="106.5" y1="160.8" x2="144.5" y2="138.6" opacity="0.5" stroke="rgb(0,0,0)"  stroke-width="1.5" stroke-dasharray="5.0,5.0"/>
<circle cx="221.283790" cy="115.186767" r="5.636364" opacity="0.200000" style="stroke:black;stroke-width:0.5;fill:url(#radialffffffbfbfbf)"/>
<circle cx="245.294720" cy="164.394547" r="5.636364" opacity="0.200000" style="stroke:black;stroke-width:0.5;fill:url(#radialffffffbfbfbf)"/>
<circle cx="225.385233" cy="142.596489" r="13.818182" opacity="0.509662" style="stroke:black;stroke-width:0.5;fill:url(#radialffffff666666)"/>
<circle cx="173.191984" cy="77.860454" r="5.636364" opacity="0.561212" style="stroke:black;stroke-width:0.5;fill:url(#radialffffffbfbfbf)"/>
<circle cx="184.027424" cy="164.089323" r="13.818182" opacity="0.616310" style="stroke:black;stroke-width:0.5;fill:url(#radialffffff666666)"/>
<circle cx="213.815348" cy="226.154651" r="5.636364" opacity="0.617358" style="stroke:black;stroke-width:0.5;fill:url(#radialffffffbfbfbf)"/>
<circle cx="145.006484" cy="96.682581" r="13.818182" opacity="0.628647" style="stroke:black;stroke-width:0.5;fill:url(#radialffffff666666)"/>
<circle cx="287.460099" cy="80.391267" r="5.636364" opacity="0.636451" style="stroke:black;stroke-width:0.5;fill:url(#radialffffffbfbfbf)"/>
<circle cx="312.453468" cy="130.988451" r="5.636364" opacity="0.639736" style="stroke:black;stroke-width:0.5;fill:url(#radialffffffbfbfbf)"/>
<circle cx="106.618248" cy="40.000000" r="5.636364" opacity="0.650064" style="stroke:black;stroke-width:0.5;fill:url(#radialffffffbfbfbf)"/>
<circle cx="184.485260" cy="208.270451" r="13.818182" opacity="0.654209" style="stroke:black;stroke-width:0.5;fill:url(#radialffffff666666)"/>
<circle cx="146.049332" cy="141.159394" r="13.818182" opacity="0.665107" style="stroke:black;stroke-width:0.5;fill:url(#radialffffff666666)"/>
<circle cx="106.990239" cy="74.407611" r="13.818182" opacity="0.677191" style="stroke:black;stroke-width:0.5;fill:url(#radialffffff666666)"/>
<circle cx="147.066744" cy="230.093944" r="14.894445" opacity="0.734128" style="stroke:black;stroke-width:0.5;fill:url(#radialffffff666666)"/>
<circle cx="107.994934" cy="163.351699" r="15.342708" opacity="0.745093" style="stroke:black;stroke-width:0.5;fill:url(#radialffffff666666)"/>
<circle cx="69.574903" cy="96.234284" r="15.744412" opacity="0.754784" style="stroke:black;stroke-width:0.5;fill:url(#radialffffff666666)"/>
<circle cx="147.438736" cy="264.488838" r="6.501118" opacity="0.759416" style="stroke:black;stroke-width:0.5;fill:url(#radialffffffbfbfbf)"/>
<circle cx="109.044140" cy="207.828513" r="16.643102" opacity="0.776027" style="stroke:black;stroke-width:0.5;fill:url(#radialffffff666666)"/>
<circle cx="70.020021" cy="140.418591" r="17.071875" opacity="0.785959" style="stroke:black;stroke-width:0.5;fill:url(#radialffffff666666)"/>
<circle cx="40.000000" cy="78.871508" r="6.981636" opacity="0.786981" style="stroke:black;stroke-width:0.5;fill:url(#radialffffffbfbfbf)"/>
<circle cx="292.019378" cy="109.486079" r="17.510393" opacity="0.795990" style="stroke:black;stroke-width:0.5;fill:url(#radialffffff666666)"/>
<circle cx="80.178246" cy="225.550563" r="7.765127" opacity="0.829965" style="stroke:black;stroke-width:0.5;fill:url(#radialffffffbfbfbf)"/>
<circle cx="40.391068" cy="156.821184" r="7.943996" opacity="0.839470" style="stroke:black;stroke-width:0.5;fill:url(#radialffffffbfbfbf)"/>
<circle cx="249.606004" cy="130.346210" r="20.962232" opacity="0.870920" style="stroke:black;stroke-width:0.5;fill:url(#radialffffff666666)"/>
<circle cx="308.650889" cy="101.073351" r="11.224587" opacity="0.997862" style="stroke:black;stroke-width:0.5;fill:url(#radialffffffbfbfbf)"/>
<circle cx="230.526345" cy="108.459128" r="11.231212" opacity="0.998157" style="stroke:black;stroke-width:0.5;fill:url(#radialffffffbfbfbf)"/>
<circle cx="255.287616" cy="158.630271" r="11.272727" opacity="1.000000" style="stroke:black;stroke-width:0.5;fill:url(#radialffffffbfbfbf)"/>
</svg>
</g>
</svg>
