<?xml version="1.0"?>
<svg version="1.1" id="topsvg"
xmlns="http://www.w3.org/2000/svg" xmlns:xlink="http://www.w3.org/1999/xlink"
xmlns:cml="http://www.xml-cml.org/schema" x="0" y="0" width="1024px" height="1024px" viewBox="0 0 100 100">
<title>35364 - Open Babel Depiction</title>
<rect x="0" y="0" width="100" height="100" fill="white"/>
<defs>
<radialGradient id='radialffffff666666' cx='50%' cy='50%' r='50%' fx='30%' fy='30%'>
  <stop offset=' 0%' stop-color="rgb(255,255,255)"  stop-opacity='1.0'/>
  <stop offset='100%' stop-color="rgb(102,102,102)"  stop-opacity ='1.0'/>
</radialGradient>
<radialGradient id='radialffffffbfbfbf' cx='50%' cy='50%' r='50%' fx='30%' fy='30%'>
  <stop offset=' 0%' stop-color="rgb(255,255,255)"  stop-opacity='1.0'/>
  <stop offset='100%' stop-color="rgb(191,191,191)"  stop-opacity ='1.0'/>
</radialGradient>
</defs>
<g transform="translate(0,0)">
<svg width="100" height="100" x="0" y="0" viewBox="0 0 300.438 276.17"
font-family="sans-serif" stroke="rgb(0,0,0)" stroke-width="2"  stroke-linecap="round">
<line x1="109.7" y1="173.8" x2="68.4" y2="195.1" opacity="1.0" stroke="rgb(0,0,0)"  stroke-width="1.5"/>
<polygon points="109.705304 173.818722 110.639470 177.825380 107.051053 170.675327 " stroke-width="1.498277" fill="rgb(0,0,0)"  stroke="rgb(0,0,0)" />
<line x1="154.0" y1="105.0" x2="156.2" y2="58.6" opacity="0.5" stroke="rgb(0,0,0)"  stroke-width="1.5"/>
<polygon points="153.957220 105.024999 150.010698 103.871637 158.000376 104.277892 " stroke-width="1.498555" fill="rgb(0,0,0)"  stroke="rgb(0,0,0)" />
<line x1="191.4" y1="177.7" x2="230.5" y2="202.8" opacity="0.5" stroke="rgb(0,0,0)"  stroke-width="1.5"/>
<polygon points="191.425431 177.732398 194.368790 174.857839 190.111966 181.631276 " stroke-width="1.498333" fill="rgb(0,0,0)"  stroke="rgb(0,0,0)" />
<line x1="112.2" y1="126.8" x2="84.4" y2="108.9" opacity="0.5" stroke="rgb(0,0,0)"  stroke-width="1.5"/>
<line x1="112.2" y1="126.8" x2="110.0" y2="125.4" opacity="0.5" stroke="rgb(0,0,0)"  stroke-width="0.7"/>
<line x1="149.4" y1="199.2" x2="149.3" y2="201.8" opacity="0.2" stroke="rgb(0,0,0)"  stroke-width="0.7"/>
<line x1="149.4" y1="199.2" x2="147.9" y2="232.1" opacity="0.2" stroke="rgb(0,0,0)"  stroke-width="1.5"/>
<line x1="193.5" y1="130.7" x2="195.8" y2="129.5" opacity="0.5" stroke="rgb(0,0,0)"  stroke-width="0.7"/>
<line x1="193.5" y1="130.7" x2="222.8" y2="115.5" opacity="0.2" stroke="rgb(0,0,0)"  stroke-width="1.5"/>
<line x1="68.4" y1="195.1" x2="67.4" y2="195.6" opacity="0.5" stroke="rgb(0,0,0)"  stroke-width="0.6"/>
<line x1="68.4" y1="195.1" x2="66.1" y2="228.3" opacity="0.2" stroke="rgb(0,0,0)"  stroke-width="1.4"/>
<line x1="68.4" y1="195.1" x2="40.0" y2="177.7" opacity="0.5" stroke="rgb(0,0,0)"  stroke-width="1.4"/>
<line x1="156.2" y1="58.6" x2="156.2" y2="57.4" opacity="0.5" stroke="rgb(0,0,0)"  stroke-width="0.6"/>
<line x1="156.2" y1="58.6" x2="128.5" y2="40.0" opacity="0.2" stroke="rgb(0,0,0)"  stroke-width="1.4"/>
<line x1="156.2" y1="58.6" x2="185.5" y2="42.7" opacity="0.5" stroke="rgb(0,0,0)"  stroke-width="1.4"/>
<line x1="230.5" y1="202.8" x2="260.4" y2="188.2" opacity="0.5" stroke="rgb(0,0,0)"  stroke-width="1.4"/>
<line x1="230.5" y1="202.8" x2="229.6" y2="236.2" opacity="0.5" stroke="rgb(0,0,0)"  stroke-width="1.4"/>
<line x1="230.5" y1="202.8" x2="231.5" y2="203.5" opacity="0.5" stroke="rgb(0,0,0)"  stroke-width="0.6"/>
<line x1="154.0" y1="105.0" x2="112.2" y2="126.8" opacity="0.2" stroke="rgb(0,0,0)"  stroke-width="1.5"/>
<line x1="112.2" y1="126.8" x2="109.7" y2="173.8" opacity="0.5" stroke="rgb(0,0,0)"  stroke-width="1.5"/>
<line x1="109.7" y1="173.8" x2="149.4" y2="199.2" opacity="0.5" stroke="rgb(0,0,0)"  stroke-width="1.5"/>
<line x1="149.4" y1="199.2" x2="191.4" y2="177.7" opacity="0.5" stroke="rgb(0,0,0)"  stroke-width="1.5"/>
<line x1="191.4" y1="177.7" x2="193.5" y2="130.7" opacity="0.5" stroke="rgb(0,0,0)"  stroke-width="1.5"/>
<line x1="193.5" y1="130.7" x2="154.0" y2="105.0" opacity="0.5" stroke="rgb(0,0,0)"  stroke-width="1.5"/>
<circle cx="67.363519" cy="195.641893" r="5.636364" opacity="0.200000" style="stroke:black;stroke-width:0.5;fill:url(#radialffffffbfbfbf)"/>
<circle cx="231.483433" cy="203.511120" r="5.636364" opacity="0.200000" style="stroke:black;stroke-width:0.5;fill:url(#radialffffffbfbfbf)"/>
<circle cx="156.237782" cy="57.419884" r="5.636364" opacity="0.200000" style="stroke:black;stroke-width:0.5;fill:url(#radialffffffbfbfbf)"/>
<circle cx="195.796508" cy="129.473393" r="5.636364" opacity="0.200000" style="stroke:black;stroke-width:0.5;fill:url(#radialffffffbfbfbf)"/>
<circle cx="109.959773" cy="125.353565" r="5.636364" opacity="0.200000" style="stroke:black;stroke-width:0.5;fill:url(#radialffffffbfbfbf)"/>
<circle cx="149.322010" cy="201.791035" r="5.636364" opacity="0.200000" style="stroke:black;stroke-width:0.5;fill:url(#radialffffffbfbfbf)"/>
<circle cx="68.436156" cy="195.078195" r="13.818182" opacity="0.636775" style="stroke:black;stroke-width:0.5;fill:url(#radialffffff666666)"/>
<circle cx="230.468776" cy="202.844345" r="13.818182" opacity="0.636804" style="stroke:black;stroke-width:0.5;fill:url(#radialffffff666666)"/>
<circle cx="156.183022" cy="58.643914" r="13.818182" opacity="0.636950" style="stroke:black;stroke-width:0.5;fill:url(#radialffffff666666)"/>
<circle cx="193.483735" cy="130.665212" r="13.818182" opacity="0.649076" style="stroke:black;stroke-width:0.5;fill:url(#radialffffff666666)"/>
<circle cx="112.156586" cy="126.764421" r="13.818182" opacity="0.649134" style="stroke:black;stroke-width:0.5;fill:url(#radialffffff666666)"/>
<circle cx="149.447635" cy="199.152928" r="13.818182" opacity="0.649362" style="stroke:black;stroke-width:0.5;fill:url(#radialffffff666666)"/>
<circle cx="40.000000" cy="177.661533" r="6.062092" opacity="0.733325" style="stroke:black;stroke-width:0.5;fill:url(#radialffffffbfbfbf)"/>
<circle cx="260.438192" cy="188.226847" r="6.062510" opacity="0.733351" style="stroke:black;stroke-width:0.5;fill:url(#radialffffffbfbfbf)"/>
<circle cx="66.100835" cy="228.336387" r="6.063763" opacity="0.733426" style="stroke:black;stroke-width:0.5;fill:url(#radialffffffbfbfbf)"/>
<circle cx="229.611955" cy="236.170181" r="6.065015" opacity="0.733502" style="stroke:black;stroke-width:0.5;fill:url(#radialffffffbfbfbf)"/>
<circle cx="185.479221" cy="42.731520" r="6.066268" opacity="0.733578" style="stroke:black;stroke-width:0.5;fill:url(#radialffffffbfbfbf)"/>
<circle cx="128.542486" cy="40.000000" r="6.066686" opacity="0.733603" style="stroke:black;stroke-width:0.5;fill:url(#radialffffffbfbfbf)"/>
<circle cx="222.834693" cy="115.538774" r="6.384469" opacity="0.752572" style="stroke:black;stroke-width:0.5;fill:url(#radialffffffbfbfbf)"/>
<circle cx="84.390425" cy="108.906463" r="6.386139" opacity="0.752670" style="stroke:black;stroke-width:0.5;fill:url(#radialffffffbfbfbf)"/>
<circle cx="147.869280" cy="232.121217" r="6.392820" opacity="0.753064" style="stroke:black;stroke-width:0.5;fill:url(#radialffffffbfbfbf)"/>
<circle cx="153.957220" cy="105.024999" r="16.397542" opacity="0.770281" style="stroke:black;stroke-width:0.5;fill:url(#radialffffff666666)"/>
<circle cx="109.705304" cy="173.818722" r="16.398565" opacity="0.770305" style="stroke:black;stroke-width:0.5;fill:url(#radialffffff666666)"/>
<circle cx="191.425431" cy="177.732398" r="16.398565" opacity="0.770305" style="stroke:black;stroke-width:0.5;fill:url(#radialffffff666666)"/>
<circle cx="108.845261" cy="174.250354" r="11.272727" opacity="1.000000" style="stroke:black;stroke-width:0.5;fill:url(#radialffffffbfbfbf)"/>
<circle cx="154.005537" cy="104.074764" r="11.272727" opacity="1.000000" style="stroke:black;stroke-width:0.5;fill:url(#radialffffffbfbfbf)"/>
<circle cx="192.240378" cy="178.244558" r="11.272727" opacity="1.000000" style="stroke:black;stroke-width:0.5;fill:url(#radialffffffbfbfbf)"/>
</svg>
</g>
</svg>
