<?xml version="1.0"?>
<svg version="1.1" id="topsvg"
xmlns="http://www.w3.org/2000/svg" xmlns:xlink="http://www.w3.org/1999/xlink"
xmlns:cml="http://www.xml-cml.org/schema" x="0" y="0" width="200px" height="200px" viewBox="0 0 100 100">
<title>40997 - Open Babel Depiction</title>
<rect x="0" y="0" width="100" height="100" fill="white"/>
<defs>
<radialGradient id='radialffffff666666' cx='50%' cy='50%' r='50%' fx='30%' fy='30%'>
  <stop offset=' 0%' stop-color="rgb(255,255,255)"  stop-opacity='1.0'/>
  <stop offset='100%' stop-color="rgb(102,102,102)"  stop-opacity ='1.0'/>
</radialGradient>
<radialGradient id='radialffffffbfbfbf' cx='50%' cy='50%' r='50%' fx='30%' fy='30%'>
  <stop offset=' 0%' stop-color="rgb(255,255,255)"  stop-opacity='1.0'/>
  <stop offset='100%' stop-color="rgb(191,191,191)"  stop-opacity ='1.0'/>
</radialGradient>
</defs>
<g transform="translate(0,0)">
<svg width="100" height="100" x="0" y="0" viewBox="0 0 680.324 229.8"
font-family="sans-serif" stroke="rgb(0,0,0)" stroke-width="4"  stroke-linecap="round">
<line x1="518.8" y1="126.9" x2="476.9" y2="144.1" opacity="1.0" stroke="rgb(0,0,0)"  stroke-width="1.3"/>
<line x1="518.8" y1="126.9" x2="513.5" y2="119.6" opacity="0.4" stroke="rgb(0,0,0)"  stroke-width="2.1"/>
<line x1="554.4" y1="161.2" x2="544.9" y2="189.8" opacity="0.7" stroke="rgb(0,0,0)"  stroke-width="1.8"/>
<line x1="554.4" y1="161.2" x2="558.9" y2="171.6" opacity="0.6" stroke="rgb(0,0,0)"  stroke-width="1.1"/>
<line x1="532.8" y1="85.4" x2="536.2" y2="91.2" opacity="0.4" stroke="rgb(0,0,0)"  stroke-width="0.5"/>
<line x1="532.8" y1="85.4" x2="508.4" y2="60.2" opacity="0.2" stroke="rgb(0,0,0)"  stroke-width="1.0"/>
<line x1="476.9" y1="144.1" x2="437.8" y2="119.1" opacity="0.3" stroke="rgb(0,0,0)"  stroke-width="1.3"/>
<line x1="476.9" y1="144.1" x2="472.7" y2="178.1" opacity="0.4" stroke="rgb(0,0,0)"  stroke-width="1.2"/>
<line x1="476.9" y1="144.1" x2="477.9" y2="143.2" opacity="0.4" stroke="rgb(0,0,0)"  stroke-width="0.6"/>
<line x1="597.1" y1="144.2" x2="594.0" y2="138.2" opacity="0.2" stroke="rgb(0,0,0)"  stroke-width="2.5"/>
<line x1="597.1" y1="144.2" x2="622.2" y2="168.7" opacity="0.8" stroke="rgb(0,0,0)"  stroke-width="2.0"/>
<line x1="575.5" y1="68.5" x2="585.5" y2="40.0" opacity="0.7" stroke="rgb(0,0,0)"  stroke-width="1.2"/>
<line x1="575.5" y1="68.5" x2="571.1" y2="58.1" opacity="0.4" stroke="rgb(0,0,0)"  stroke-width="1.9"/>
<line x1="610.8" y1="102.7" x2="618.4" y2="109.7" opacity="0.6" stroke="rgb(0,0,0)"  stroke-width="0.9"/>
<line x1="610.8" y1="102.7" x2="640.3" y2="90.2" opacity="0.3" stroke="rgb(0,0,0)"  stroke-width="1.6"/>
<line x1="437.8" y1="119.1" x2="394.8" y2="136.6" opacity="0.5" stroke="rgb(0,0,0)"  stroke-width="1.3"/>
<line x1="437.8" y1="119.1" x2="440.4" y2="85.1" opacity="0.4" stroke="rgb(0,0,0)"  stroke-width="1.4"/>
<line x1="437.8" y1="119.1" x2="437.5" y2="120.1" opacity="0.5" stroke="rgb(0,0,0)"  stroke-width="2.0"/>
<line x1="394.8" y1="136.6" x2="355.6" y2="113.0" opacity="0.7" stroke="rgb(0,0,0)"  stroke-width="1.3"/>
<line x1="394.8" y1="136.6" x2="394.2" y2="134.2" opacity="0.4" stroke="rgb(0,0,0)"  stroke-width="0.6"/>
<line x1="394.8" y1="136.6" x2="392.3" y2="171.0" opacity="0.2" stroke="rgb(0,0,0)"  stroke-width="1.2"/>
<line x1="355.6" y1="113.0" x2="312.5" y2="130.3" opacity="0.4" stroke="rgb(0,0,0)"  stroke-width="1.3"/>
<line x1="355.6" y1="113.0" x2="356.1" y2="115.8" opacity="0.4" stroke="rgb(0,0,0)"  stroke-width="2.1"/>
<line x1="355.6" y1="113.0" x2="358.0" y2="78.6" opacity="0.7" stroke="rgb(0,0,0)"  stroke-width="1.5"/>
<line x1="312.5" y1="130.3" x2="273.3" y2="108.3" opacity="0.5" stroke="rgb(0,0,0)"  stroke-width="1.4"/>
<line x1="312.5" y1="130.3" x2="310.8" y2="165.0" opacity="0.5" stroke="rgb(0,0,0)"  stroke-width="1.2"/>
<line x1="312.5" y1="130.3" x2="311.5" y2="126.1" opacity="0.4" stroke="rgb(0,0,0)"  stroke-width="0.6"/>
<line x1="273.3" y1="108.3" x2="231.2" y2="127.3" opacity="0.2" stroke="rgb(0,0,0)"  stroke-width="1.4"/>
<line x1="273.3" y1="108.3" x2="274.3" y2="112.2" opacity="0.5" stroke="rgb(0,0,0)"  stroke-width="2.2"/>
<line x1="273.3" y1="108.3" x2="274.3" y2="73.6" opacity="0.7" stroke="rgb(0,0,0)"  stroke-width="1.6"/>
<line x1="231.2" y1="127.3" x2="190.8" y2="107.1" opacity="0.5" stroke="rgb(0,0,0)"  stroke-width="1.5"/>
<line x1="231.2" y1="127.3" x2="230.8" y2="162.2" opacity="0.5" stroke="rgb(0,0,0)"  stroke-width="1.3"/>
<line x1="231.2" y1="127.3" x2="230.3" y2="123.1" opacity="0.4" stroke="rgb(0,0,0)"  stroke-width="0.7"/>
<line x1="190.8" y1="107.1" x2="148.7" y2="125.6" opacity="0.2" stroke="rgb(0,0,0)"  stroke-width="1.5"/>
<line x1="190.8" y1="107.1" x2="191.4" y2="72.2" opacity="0.5" stroke="rgb(0,0,0)"  stroke-width="1.7"/>
<line x1="190.8" y1="107.1" x2="191.6" y2="112.0" opacity="0.6" stroke="rgb(0,0,0)"  stroke-width="2.2"/>
<line x1="148.7" y1="125.6" x2="109.5" y2="106.0" opacity="0.7" stroke="rgb(0,0,0)"  stroke-width="1.5"/>
<line x1="148.7" y1="125.6" x2="147.1" y2="119.2" opacity="0.5" stroke="rgb(0,0,0)"  stroke-width="0.7"/>
<line x1="148.7" y1="125.6" x2="148.5" y2="160.7" opacity="0.2" stroke="rgb(0,0,0)"  stroke-width="1.3"/>
<line x1="109.5" y1="106.0" x2="67.6" y2="123.4" opacity="0.4" stroke="rgb(0,0,0)"  stroke-width="1.6"/>
<line x1="109.5" y1="106.0" x2="110.7" y2="113.1" opacity="0.5" stroke="rgb(0,0,0)"  stroke-width="2.3"/>
<line x1="109.5" y1="106.0" x2="110.0" y2="70.8" opacity="0.8" stroke="rgb(0,0,0)"  stroke-width="1.8"/>
<line x1="67.6" y1="123.4" x2="64.9" y2="115.9" opacity="0.6" stroke="rgb(0,0,0)"  stroke-width="0.9"/>
<line x1="67.6" y1="123.4" x2="65.7" y2="158.4" opacity="0.3" stroke="rgb(0,0,0)"  stroke-width="1.4"/>
<line x1="67.6" y1="123.4" x2="40.0" y2="109.0" opacity="0.5" stroke="rgb(0,0,0)"  stroke-width="1.6"/>
<line x1="554.4" y1="161.2" x2="518.8" y2="126.9" opacity="0.5" stroke="rgb(0,0,0)"  stroke-width="1.6"/>
<line x1="518.8" y1="126.9" x2="532.8" y2="85.4" opacity="0.5" stroke="rgb(0,0,0)"  stroke-width="1.3"/>
<line x1="532.8" y1="85.4" x2="575.5" y2="68.5" opacity="0.4" stroke="rgb(0,0,0)"  stroke-width="1.2"/>
<line x1="575.5" y1="68.5" x2="610.8" y2="102.7" opacity="0.4" stroke="rgb(0,0,0)"  stroke-width="1.4"/>
<line x1="610.8" y1="102.7" x2="597.1" y2="144.2" opacity="0.5" stroke="rgb(0,0,0)"  stroke-width="1.7"/>
<line x1="597.1" y1="144.2" x2="554.4" y2="161.2" opacity="0.6" stroke="rgb(0,0,0)"  stroke-width="1.8"/>
<circle cx="536.169145" cy="91.205460" r="5.636364" opacity="0.200000" style="stroke:black;stroke-width:0.5;fill:url(#radialffffffbfbfbf)"/>
<circle cx="394.228318" cy="134.226428" r="5.636364" opacity="0.200000" style="stroke:black;stroke-width:0.5;fill:url(#radialffffffbfbfbf)"/>
<circle cx="477.933209" cy="143.155552" r="5.636364" opacity="0.200000" style="stroke:black;stroke-width:0.5;fill:url(#radialffffffbfbfbf)"/>
<circle cx="311.509821" cy="126.109629" r="5.636364" opacity="0.204850" style="stroke:black;stroke-width:0.5;fill:url(#radialffffffbfbfbf)"/>
<circle cx="230.258022" cy="123.063412" r="5.636364" opacity="0.260236" style="stroke:black;stroke-width:0.5;fill:url(#radialffffffbfbfbf)"/>
<circle cx="147.085011" cy="119.214541" r="5.636364" opacity="0.294979" style="stroke:black;stroke-width:0.5;fill:url(#radialffffffbfbfbf)"/>
<circle cx="64.895170" cy="115.913666" r="5.636364" opacity="0.356916" style="stroke:black;stroke-width:0.5;fill:url(#radialffffffbfbfbf)"/>
<circle cx="618.442797" cy="109.676174" r="5.636364" opacity="0.391686" style="stroke:black;stroke-width:0.5;fill:url(#radialffffffbfbfbf)"/>
<circle cx="558.933574" cy="171.577241" r="5.636364" opacity="0.449911" style="stroke:black;stroke-width:0.5;fill:url(#radialffffffbfbfbf)"/>
<circle cx="585.537204" cy="40.000000" r="5.636364" opacity="0.562139" style="stroke:black;stroke-width:0.5;fill:url(#radialffffffbfbfbf)"/>
<circle cx="532.797353" cy="85.364460" r="13.818182" opacity="0.568076" style="stroke:black;stroke-width:0.5;fill:url(#radialffffff666666)"/>
<circle cx="394.766644" cy="136.608602" r="13.818182" opacity="0.594988" style="stroke:black;stroke-width:0.5;fill:url(#radialffffff666666)"/>
<circle cx="476.882344" cy="144.125828" r="13.818182" opacity="0.595893" style="stroke:black;stroke-width:0.5;fill:url(#radialffffff666666)"/>
<circle cx="508.350251" cy="60.175951" r="5.636364" opacity="0.598401" style="stroke:black;stroke-width:0.5;fill:url(#radialffffffbfbfbf)"/>
<circle cx="312.541345" cy="130.255063" r="13.818182" opacity="0.606752" style="stroke:black;stroke-width:0.5;fill:url(#radialffffff666666)"/>
<circle cx="231.228299" cy="127.337787" r="13.818182" opacity="0.627549" style="stroke:black;stroke-width:0.5;fill:url(#radialffffff666666)"/>
<circle cx="148.745118" cy="125.597091" r="13.818182" opacity="0.640072" style="stroke:black;stroke-width:0.5;fill:url(#radialffffff666666)"/>
<circle cx="440.366420" cy="85.084014" r="5.636364" opacity="0.651230" style="stroke:black;stroke-width:0.5;fill:url(#radialffffffbfbfbf)"/>
<circle cx="310.845778" cy="165.030292" r="5.636364" opacity="0.652700" style="stroke:black;stroke-width:0.5;fill:url(#radialffffffbfbfbf)"/>
<circle cx="392.329670" cy="170.977668" r="5.636364" opacity="0.654189" style="stroke:black;stroke-width:0.5;fill:url(#radialffffffbfbfbf)"/>
<circle cx="472.714345" cy="178.072615" r="5.636364" opacity="0.662719" style="stroke:black;stroke-width:0.5;fill:url(#radialffffffbfbfbf)"/>
<circle cx="67.612589" cy="123.424445" r="13.818182" opacity="0.668412" style="stroke:black;stroke-width:0.5;fill:url(#radialffffff666666)"/>
<circle cx="148.471120" cy="160.697894" r="5.636364" opacity="0.669732" style="stroke:black;stroke-width:0.5;fill:url(#radialffffffbfbfbf)"/>
<circle cx="230.780231" cy="162.183933" r="5.636364" opacity="0.670805" style="stroke:black;stroke-width:0.5;fill:url(#radialffffffbfbfbf)"/>
<circle cx="358.037968" cy="78.559630" r="5.636364" opacity="0.675543" style="stroke:black;stroke-width:0.5;fill:url(#radialffffffbfbfbf)"/>
<circle cx="610.803078" cy="102.677933" r="13.818182" opacity="0.683806" style="stroke:black;stroke-width:0.5;fill:url(#radialffffff666666)"/>
<circle cx="65.672036" cy="158.441437" r="5.636364" opacity="0.694865" style="stroke:black;stroke-width:0.5;fill:url(#radialffffffbfbfbf)"/>
<circle cx="575.531428" cy="68.470043" r="13.818182" opacity="0.697575" style="stroke:black;stroke-width:0.5;fill:url(#radialffffff666666)"/>
<circle cx="274.287948" cy="73.592200" r="5.636364" opacity="0.703135" style="stroke:black;stroke-width:0.5;fill:url(#radialffffffbfbfbf)"/>
<circle cx="437.806953" cy="119.095271" r="14.079761" opacity="0.713768" style="stroke:black;stroke-width:0.5;fill:url(#radialffffff666666)"/>
<circle cx="554.404542" cy="161.171750" r="14.200618" opacity="0.716825" style="stroke:black;stroke-width:0.5;fill:url(#radialffffff666666)"/>
<circle cx="355.584877" cy="113.018954" r="14.546631" opacity="0.725506" style="stroke:black;stroke-width:0.5;fill:url(#radialffffff666666)"/>
<circle cx="191.408276" cy="72.202867" r="5.941935" opacity="0.726021" style="stroke:black;stroke-width:0.5;fill:url(#radialffffffbfbfbf)"/>
<circle cx="518.765413" cy="126.938071" r="14.784205" opacity="0.731406" style="stroke:black;stroke-width:0.5;fill:url(#radialffffff666666)"/>
<circle cx="273.259649" cy="108.286841" r="15.377725" opacity="0.745943" style="stroke:black;stroke-width:0.5;fill:url(#radialffffff666666)"/>
<circle cx="190.763574" cy="107.139271" r="15.967107" opacity="0.760103" style="stroke:black;stroke-width:0.5;fill:url(#radialffffff666666)"/>
<circle cx="109.963066" cy="70.842546" r="6.608116" opacity="0.765639" style="stroke:black;stroke-width:0.5;fill:url(#radialffffffbfbfbf)"/>
<circle cx="40.000000" cy="109.018578" r="6.772550" opacity="0.775107" style="stroke:black;stroke-width:0.5;fill:url(#radialffffffbfbfbf)"/>
<circle cx="640.323984" cy="90.228737" r="6.828600" opacity="0.778308" style="stroke:black;stroke-width:0.5;fill:url(#radialffffffbfbfbf)"/>
<circle cx="109.511775" cy="106.001372" r="17.105308" opacity="0.786729" style="stroke:black;stroke-width:0.5;fill:url(#radialffffff666666)"/>
<circle cx="622.201410" cy="168.682529" r="7.220947" opacity="0.800355" style="stroke:black;stroke-width:0.5;fill:url(#radialffffffbfbfbf)"/>
<circle cx="597.099935" cy="144.151616" r="18.723624" opacity="0.823104" style="stroke:black;stroke-width:0.5;fill:url(#radialffffff666666)"/>
<circle cx="544.908081" cy="189.799745" r="7.722693" opacity="0.827694" style="stroke:black;stroke-width:0.5;fill:url(#radialffffffbfbfbf)"/>
<circle cx="571.134560" cy="58.083893" r="8.996302" opacity="0.893342" style="stroke:black;stroke-width:0.5;fill:url(#radialffffffbfbfbf)"/>
<circle cx="437.458814" cy="120.130018" r="9.446387" opacity="0.915416" style="stroke:black;stroke-width:0.5;fill:url(#radialffffffbfbfbf)"/>
<circle cx="513.482080" cy="119.607809" r="9.617913" opacity="0.923689" style="stroke:black;stroke-width:0.5;fill:url(#radialffffffbfbfbf)"/>
<circle cx="356.065180" cy="115.833079" r="9.625341" opacity="0.924046" style="stroke:black;stroke-width:0.5;fill:url(#radialffffffbfbfbf)"/>
<circle cx="274.294396" cy="112.225971" r="9.950159" opacity="0.939508" style="stroke:black;stroke-width:0.5;fill:url(#radialffffffbfbfbf)"/>
<circle cx="191.550111" cy="112.006772" r="10.181110" opacity="0.950349" style="stroke:black;stroke-width:0.5;fill:url(#radialffffffbfbfbf)"/>
<circle cx="110.743156" cy="113.073754" r="10.601482" opacity="0.969770" style="stroke:black;stroke-width:0.5;fill:url(#radialffffffbfbfbf)"/>
<circle cx="593.957013" cy="138.165558" r="11.272727" opacity="1.000000" style="stroke:black;stroke-width:0.5;fill:url(#radialffffffbfbfbf)"/>
</svg>
</g>
</svg>
