<?xml version="1.0"?>
<svg version="1.1" id="topsvg"
xmlns="http://www.w3.org/2000/svg" xmlns:xlink="http://www.w3.org/1999/xlink"
xmlns:cml="http://www.xml-cml.org/schema" x="0" y="0" width="1024px" height="1024px" viewBox="0 0 100 100">
<title>519302 - Open Babel Depiction</title>
<rect x="0" y="0" width="100" height="100" fill="white"/>
<defs>
<radialGradient id='radialffffff666666' cx='50%' cy='50%' r='50%' fx='30%' fy='30%'>
  <stop offset=' 0%' stop-color="rgb(255,255,255)"  stop-opacity='1.0'/>
  <stop offset='100%' stop-color="rgb(102,102,102)"  stop-opacity ='1.0'/>
</radialGradient>
<radialGradient id='radialffffffbfbfbf' cx='50%' cy='50%' r='50%' fx='30%' fy='30%'>
  <stop offset=' 0%' stop-color="rgb(255,255,255)"  stop-opacity='1.0'/>
  <stop offset='100%' stop-color="rgb(191,191,191)"  stop-opacity ='1.0'/>
</radialGradient>
</defs>
<g transform="translate(0,0)">
<svg width="100" height="100" x="0" y="0" viewBox="0 0 305.726 242.475"
font-family="sans-serif" stroke="rgb(0,0,0)" stroke-width="2"  stroke-linecap="round">
<line x1="155.8" y1="135.7" x2="109.3" y2="111.7" opacity="1.0" stroke="rgb(0,0,0)"  stroke-width="1.5"/>
<line x1="155.8" y1="135.7" x2="195.3" y2="106.7" opacity="0.5" stroke="rgb(0,0,0)"  stroke-width="1.4"/>
<line x1="155.8" y1="135.7" x2="155.9" y2="180.2" opacity="0.5" stroke="rgb(0,0,0)"  stroke-width="1.3"/>
<line x1="155.8" y1="135.7" x2="162.8" y2="146.7" opacity="0.4" stroke="rgb(0,0,0)"  stroke-width="2.1"/>
<line x1="109.3" y1="111.7" x2="71.6" y2="144.8" opacity="0.7" stroke="rgb(0,0,0)"  stroke-width="1.4"/>
<line x1="109.3" y1="111.7" x2="97.6" y2="81.9" opacity="0.5" stroke="rgb(0,0,0)"  stroke-width="1.9"/>
<line x1="109.3" y1="111.7" x2="107.7" y2="82.3" opacity="0.6" stroke="rgb(0,0,0)"  stroke-width="1.0"/>
<line x1="195.3" y1="106.7" x2="198.7" y2="61.4" opacity="0.3" stroke="rgb(0,0,0)"  stroke-width="1.4"/>
<line x1="195.3" y1="106.7" x2="240.6" y2="127.7" opacity="0.5" stroke="rgb(0,0,0)"  stroke-width="1.3"/>
<line x1="195.3" y1="106.7" x2="190.6" y2="101.7" opacity="0.4" stroke="rgb(0,0,0)"  stroke-width="0.8"/>
<line x1="155.9" y1="180.2" x2="131.1" y2="202.5" opacity="0.3" stroke="rgb(0,0,0)"  stroke-width="1.2"/>
<line x1="155.9" y1="180.2" x2="150.6" y2="175.9" opacity="0.4" stroke="rgb(0,0,0)"  stroke-width="0.7"/>
<line x1="155.9" y1="180.2" x2="186.8" y2="197.4" opacity="0.2" stroke="rgb(0,0,0)"  stroke-width="1.1"/>
<line x1="162.8" y1="146.7" x2="166.9" y2="117.8" opacity="0.4" stroke="rgb(0,0,0)"  stroke-width="2.8"/>
<line x1="162.8" y1="146.7" x2="191.7" y2="166.9" opacity="0.9" stroke="rgb(0,0,0)"  stroke-width="2.6"/>
<line x1="162.8" y1="146.7" x2="135.3" y2="165.3" opacity="0.9" stroke="rgb(0,0,0)"  stroke-width="2.7"/>
<line x1="71.6" y1="144.8" x2="70.7" y2="167.5" opacity="0.9" stroke="rgb(0,0,0)"  stroke-width="1.6"/>
<line x1="71.6" y1="144.8" x2="40.0" y2="128.2" opacity="0.5" stroke="rgb(0,0,0)"  stroke-width="1.3"/>
<line x1="71.6" y1="144.8" x2="73.7" y2="163.4" opacity="0.4" stroke="rgb(0,0,0)"  stroke-width="1.0"/>
<line x1="97.6" y1="81.9" x2="122.8" y2="58.4" opacity="0.3" stroke="rgb(0,0,0)"  stroke-width="2.3"/>
<line x1="97.6" y1="81.9" x2="68.0" y2="63.1" opacity="0.8" stroke="rgb(0,0,0)"  stroke-width="2.2"/>
<line x1="97.6" y1="81.9" x2="90.6" y2="100.8" opacity="0.7" stroke="rgb(0,0,0)"  stroke-width="2.6"/>
<line x1="107.7" y1="82.3" x2="127.4" y2="53.0" opacity="0.9" stroke="rgb(0,0,0)"  stroke-width="0.6"/>
<line x1="107.7" y1="82.3" x2="117.6" y2="100.7" opacity="0.2" stroke="rgb(0,0,0)"  stroke-width="0.4"/>
<line x1="107.7" y1="82.3" x2="74.4" y2="71.2" opacity="0.1" stroke="rgb(0,0,0)"  stroke-width="0.5"/>
<line x1="198.7" y1="61.4" x2="204.0" y2="63.8" opacity="0.2" stroke="rgb(0,0,0)"  stroke-width="2.0"/>
<line x1="198.7" y1="61.4" x2="226.9" y2="44.0" opacity="0.7" stroke="rgb(0,0,0)"  stroke-width="1.5"/>
<line x1="198.7" y1="61.4" x2="171.3" y2="40.0" opacity="0.5" stroke="rgb(0,0,0)"  stroke-width="1.6"/>
<line x1="240.6" y1="127.7" x2="242.8" y2="158.4" opacity="0.5" stroke="rgb(0,0,0)"  stroke-width="1.1"/>
<line x1="240.6" y1="127.7" x2="249.1" y2="133.6" opacity="0.4" stroke="rgb(0,0,0)"  stroke-width="1.7"/>
<line x1="240.6" y1="127.7" x2="265.7" y2="106.4" opacity="0.6" stroke="rgb(0,0,0)"  stroke-width="1.2"/>
<circle cx="117.612215" cy="100.720909" r="5.636364" opacity="0.200000" style="stroke:black;stroke-width:0.5;fill:url(#radialffffffbfbfbf)"/>
<circle cx="150.585213" cy="175.920545" r="5.636364" opacity="0.340666" style="stroke:black;stroke-width:0.5;fill:url(#radialffffffbfbfbf)"/>
<circle cx="74.384129" cy="71.187950" r="5.636364" opacity="0.396864" style="stroke:black;stroke-width:0.5;fill:url(#radialffffffbfbfbf)"/>
<circle cx="190.633376" cy="101.686591" r="5.636364" opacity="0.400723" style="stroke:black;stroke-width:0.5;fill:url(#radialffffffbfbfbf)"/>
<circle cx="107.740799" cy="82.343690" r="13.818182" opacity="0.446766" style="stroke:black;stroke-width:0.5;fill:url(#radialffffff666666)"/>
<circle cx="127.405595" cy="52.989560" r="5.636364" opacity="0.458822" style="stroke:black;stroke-width:0.5;fill:url(#radialffffffbfbfbf)"/>
<circle cx="73.688318" cy="163.412200" r="5.636364" opacity="0.492132" style="stroke:black;stroke-width:0.5;fill:url(#radialffffffbfbfbf)"/>
<circle cx="242.845229" cy="158.372446" r="5.636364" opacity="0.558421" style="stroke:black;stroke-width:0.5;fill:url(#radialffffffbfbfbf)"/>
<circle cx="265.725713" cy="106.381691" r="5.636364" opacity="0.582926" style="stroke:black;stroke-width:0.5;fill:url(#radialffffffbfbfbf)"/>
<circle cx="155.914347" cy="180.209213" r="13.818182" opacity="0.597899" style="stroke:black;stroke-width:0.5;fill:url(#radialffffff666666)"/>
<circle cx="186.780402" cy="197.419161" r="5.636364" opacity="0.621119" style="stroke:black;stroke-width:0.5;fill:url(#radialffffffbfbfbf)"/>
<circle cx="195.318721" cy="106.693831" r="13.818182" opacity="0.634449" style="stroke:black;stroke-width:0.5;fill:url(#radialffffff666666)"/>
<circle cx="240.621234" cy="127.665711" r="13.818182" opacity="0.659109" style="stroke:black;stroke-width:0.5;fill:url(#radialffffff666666)"/>
<circle cx="131.144768" cy="202.475172" r="5.636364" opacity="0.666532" style="stroke:black;stroke-width:0.5;fill:url(#radialffffffbfbfbf)"/>
<circle cx="40.000000" cy="128.166435" r="5.636364" opacity="0.668618" style="stroke:black;stroke-width:0.5;fill:url(#radialffffffbfbfbf)"/>
<circle cx="71.552113" cy="144.794373" r="13.818182" opacity="0.671836" style="stroke:black;stroke-width:0.5;fill:url(#radialffffff666666)"/>
<circle cx="226.896846" cy="43.989534" r="5.636364" opacity="0.676617" style="stroke:black;stroke-width:0.5;fill:url(#radialffffffbfbfbf)"/>
<circle cx="109.275486" cy="111.655550" r="13.818182" opacity="0.695091" style="stroke:black;stroke-width:0.5;fill:url(#radialffffff666666)"/>
<circle cx="171.254708" cy="40.000000" r="5.755893" opacity="0.714565" style="stroke:black;stroke-width:0.5;fill:url(#radialffffffbfbfbf)"/>
<circle cx="155.774534" cy="135.716312" r="14.421645" opacity="0.722382" style="stroke:black;stroke-width:0.5;fill:url(#radialffffff666666)"/>
<circle cx="198.732748" cy="61.433587" r="15.182803" opacity="0.741200" style="stroke:black;stroke-width:0.5;fill:url(#radialffffff666666)"/>
<circle cx="70.674220" cy="167.496027" r="7.223419" opacity="0.800492" style="stroke:black;stroke-width:0.5;fill:url(#radialffffffbfbfbf)"/>
<circle cx="249.136793" cy="133.570352" r="7.547566" opacity="0.818256" style="stroke:black;stroke-width:0.5;fill:url(#radialffffffbfbfbf)"/>
<circle cx="68.040542" cy="63.095080" r="7.921602" opacity="0.838286" style="stroke:black;stroke-width:0.5;fill:url(#radialffffffbfbfbf)"/>
<circle cx="97.596262" cy="81.859223" r="20.740000" opacity="0.866291" style="stroke:black;stroke-width:0.5;fill:url(#radialffffff666666)"/>
<circle cx="203.977344" cy="63.823406" r="8.927724" opacity="0.889930" style="stroke:black;stroke-width:0.5;fill:url(#radialffffffbfbfbf)"/>
<circle cx="122.791781" cy="58.393477" r="9.107018" opacity="0.898822" style="stroke:black;stroke-width:0.5;fill:url(#radialffffffbfbfbf)"/>
<circle cx="162.758658" cy="146.712731" r="23.770352" opacity="0.927422" style="stroke:black;stroke-width:0.5;fill:url(#radialffffff666666)"/>
<circle cx="191.703104" cy="166.930274" r="10.064519" opacity="0.944892" style="stroke:black;stroke-width:0.5;fill:url(#radialffffffbfbfbf)"/>
<circle cx="135.293623" cy="165.317552" r="10.708762" opacity="0.974664" style="stroke:black;stroke-width:0.5;fill:url(#radialffffffbfbfbf)"/>
<circle cx="90.569869" cy="100.789190" r="10.746241" opacity="0.976369" style="stroke:black;stroke-width:0.5;fill:url(#radialffffffbfbfbf)"/>
<circle cx="166.855490" cy="117.794296" r="11.272727" opacity="1.000000" style="stroke:black;stroke-width:0.5;fill:url(#radialffffffbfbfbf)"/>
</svg>
</g>
</svg>
