<?xml version="1.0"?>
<svg version="1.1" id="topsvg"
xmlns="http://www.w3.org/2000/svg" xmlns:xlink="http://www.w3.org/1999/xlink"
xmlns:cml="http://www.xml-cml.org/schema" x="0" y="0" width="200px" height="200px" viewBox="0 0 100 100">
<title>519402 - Open Babel Depiction</title>
<rect x="0" y="0" width="100" height="100" fill="white"/>
<defs>
<radialGradient id='radialffffff666666' cx='50%' cy='50%' r='50%' fx='30%' fy='30%'>
  <stop offset=' 0%' stop-color="rgb(255,255,255)"  stop-opacity='1.0'/>
  <stop offset='100%' stop-color="rgb(102,102,102)"  stop-opacity ='1.0'/>
</radialGradient>
<radialGradient id='radialffffffbfbfbf' cx='50%' cy='50%' r='50%' fx='30%' fy='30%'>
  <stop offset=' 0%' stop-color="rgb(255,255,255)"  stop-opacity='1.0'/>
  <stop offset='100%' stop-color="rgb(191,191,191)"  stop-opacity ='1.0'/>
</radialGradient>
</defs>
<g transform="translate(0,0)">
<svg width="100" height="100" x="0" y="0" viewBox="0 0 522.668 240.893"
font-family="sans-serif" stroke="rgb(0,0,0)" stroke-width="4"  stroke-linecap="round">
<line x1="400.7" y1="133.4" x2="358.7" y2="111.7" opacity="1.0" stroke="rgb(0,0,0)"  stroke-width="1.7"/>
<line x1="400.7" y1="133.4" x2="443.1" y2="107.3" opacity="0.6" stroke="rgb(0,0,0)"  stroke-width="1.8"/>
<line x1="400.7" y1="133.4" x2="403.8" y2="180.7" opacity="0.6" stroke="rgb(0,0,0)"  stroke-width="1.7"/>
<polygon points="400.664199 133.427694 399.255469 138.559926 395.758177 131.364861 " stroke-width="1.674325" fill="rgb(0,0,0)"  stroke="rgb(0,0,0)" />
<line x1="358.7" y1="111.7" x2="316.0" y2="132.2" opacity="0.6" stroke="rgb(0,0,0)"  stroke-width="1.6"/>
<line x1="358.7" y1="111.7" x2="359.1" y2="112.3" opacity="0.5" stroke="rgb(0,0,0)"  stroke-width="1.0"/>
<line x1="358.7" y1="111.7" x2="358.1" y2="77.4" opacity="0.3" stroke="rgb(0,0,0)"  stroke-width="1.6"/>
<line x1="443.1" y1="107.3" x2="452.0" y2="103.0" opacity="0.5" stroke="rgb(0,0,0)"  stroke-width="1.0"/>
<line x1="443.1" y1="107.3" x2="441.7" y2="61.5" opacity="0.3" stroke="rgb(0,0,0)"  stroke-width="1.9"/>
<line x1="443.1" y1="107.3" x2="470.5" y2="124.9" opacity="0.6" stroke="rgb(0,0,0)"  stroke-width="1.8"/>
<line x1="316.0" y1="132.2" x2="275.4" y2="108.2" opacity="0.6" stroke="rgb(0,0,0)"  stroke-width="1.6"/>
<line x1="316.0" y1="132.2" x2="315.5" y2="132.7" opacity="0.5" stroke="rgb(0,0,0)"  stroke-width="2.3"/>
<line x1="316.0" y1="132.2" x2="314.0" y2="166.2" opacity="0.8" stroke="rgb(0,0,0)"  stroke-width="1.7"/>
<line x1="275.4" y1="108.2" x2="231.5" y2="127.5" opacity="0.6" stroke="rgb(0,0,0)"  stroke-width="1.6"/>
<line x1="275.4" y1="108.2" x2="276.5" y2="107.0" opacity="0.5" stroke="rgb(0,0,0)"  stroke-width="1.0"/>
<line x1="275.4" y1="108.2" x2="276.9" y2="74.3" opacity="0.3" stroke="rgb(0,0,0)"  stroke-width="1.6"/>
<line x1="231.5" y1="127.5" x2="192.3" y2="101.0" opacity="0.5" stroke="rgb(0,0,0)"  stroke-width="1.6"/>
<line x1="231.5" y1="127.5" x2="230.5" y2="129.9" opacity="0.5" stroke="rgb(0,0,0)"  stroke-width="2.2"/>
<line x1="231.5" y1="127.5" x2="229.2" y2="160.9" opacity="0.7" stroke="rgb(0,0,0)"  stroke-width="1.6"/>
<line x1="403.8" y1="180.7" x2="400.7" y2="182.8" opacity="0.5" stroke="rgb(0,0,0)"  stroke-width="1.0"/>
<line x1="403.8" y1="180.7" x2="435.0" y2="195.2" opacity="0.3" stroke="rgb(0,0,0)"  stroke-width="1.6"/>
<line x1="403.8" y1="180.7" x2="378.1" y2="200.9" opacity="0.5" stroke="rgb(0,0,0)"  stroke-width="1.7"/>
<line x1="192.3" y1="101.0" x2="149.4" y2="123.3" opacity="0.6" stroke="rgb(0,0,0)"  stroke-width="1.5"/>
<line x1="192.3" y1="101.0" x2="193.5" y2="68.3" opacity="0.5" stroke="rgb(0,0,0)"  stroke-width="1.5"/>
<line x1="192.3" y1="101.0" x2="194.2" y2="97.0" opacity="0.5" stroke="rgb(0,0,0)"  stroke-width="0.9"/>
<line x1="452.0" y1="103.0" x2="455.3" y2="134.9" opacity="0.3" stroke="rgb(0,0,0)"  stroke-width="0.4"/>
<line x1="452.0" y1="103.0" x2="426.3" y2="84.9" opacity="0.1" stroke="rgb(0,0,0)"  stroke-width="0.4"/>
<line x1="452.0" y1="103.0" x2="482.7" y2="85.5" opacity="0.1" stroke="rgb(0,0,0)"  stroke-width="0.4"/>
<line x1="441.7" y1="61.5" x2="418.8" y2="40.0" opacity="0.1" stroke="rgb(0,0,0)"  stroke-width="1.9"/>
<line x1="441.7" y1="61.5" x2="432.7" y2="62.9" opacity="0.6" stroke="rgb(0,0,0)"  stroke-width="2.6"/>
<line x1="441.7" y1="61.5" x2="473.9" y2="46.2" opacity="0.9" stroke="rgb(0,0,0)"  stroke-width="2.1"/>
<line x1="149.4" y1="123.3" x2="110.3" y2="97.5" opacity="0.7" stroke="rgb(0,0,0)"  stroke-width="1.5"/>
<line x1="149.4" y1="123.3" x2="148.7" y2="156.3" opacity="0.5" stroke="rgb(0,0,0)"  stroke-width="1.5"/>
<line x1="149.4" y1="123.3" x2="147.2" y2="126.8" opacity="0.5" stroke="rgb(0,0,0)"  stroke-width="2.1"/>
<line x1="110.3" y1="97.5" x2="67.5" y2="120.1" opacity="0.7" stroke="rgb(0,0,0)"  stroke-width="1.4"/>
<line x1="110.3" y1="97.5" x2="110.3" y2="64.8" opacity="0.5" stroke="rgb(0,0,0)"  stroke-width="1.4"/>
<line x1="110.3" y1="97.5" x2="112.6" y2="93.5" opacity="0.5" stroke="rgb(0,0,0)"  stroke-width="0.8"/>
<line x1="67.5" y1="120.1" x2="63.7" y2="123.7" opacity="0.3" stroke="rgb(0,0,0)"  stroke-width="2.0"/>
<line x1="67.5" y1="120.1" x2="40.0" y2="101.0" opacity="0.7" stroke="rgb(0,0,0)"  stroke-width="1.4"/>
<line x1="67.5" y1="120.1" x2="66.1" y2="152.5" opacity="0.5" stroke="rgb(0,0,0)"  stroke-width="1.3"/>
<circle cx="426.275110" cy="84.881005" r="5.636364" opacity="0.200000" style="stroke:black;stroke-width:0.5;fill:url(#radialffffffbfbfbf)"/>
<circle cx="455.320361" cy="134.858125" r="5.636364" opacity="0.200000" style="stroke:black;stroke-width:0.5;fill:url(#radialffffffbfbfbf)"/>
<circle cx="482.667992" cy="85.451222" r="5.636364" opacity="0.306396" style="stroke:black;stroke-width:0.5;fill:url(#radialffffffbfbfbf)"/>
<circle cx="112.587059" cy="93.515727" r="5.636364" opacity="0.348456" style="stroke:black;stroke-width:0.5;fill:url(#radialffffffbfbfbf)"/>
<circle cx="452.032649" cy="102.965046" r="13.818182" opacity="0.373501" style="stroke:black;stroke-width:0.5;fill:url(#radialffffff666666)"/>
<circle cx="194.154228" cy="97.021750" r="5.636364" opacity="0.400471" style="stroke:black;stroke-width:0.5;fill:url(#radialffffffbfbfbf)"/>
<circle cx="276.496894" cy="106.976118" r="5.636364" opacity="0.416856" style="stroke:black;stroke-width:0.5;fill:url(#radialffffffbfbfbf)"/>
<circle cx="359.119781" cy="112.280770" r="5.636364" opacity="0.423822" style="stroke:black;stroke-width:0.5;fill:url(#radialffffffbfbfbf)"/>
<circle cx="400.709816" cy="182.811788" r="5.636364" opacity="0.442534" style="stroke:black;stroke-width:0.5;fill:url(#radialffffffbfbfbf)"/>
<circle cx="66.054052" cy="152.492509" r="5.636364" opacity="0.619765" style="stroke:black;stroke-width:0.5;fill:url(#radialffffffbfbfbf)"/>
<circle cx="40.000000" cy="101.032823" r="5.636364" opacity="0.636744" style="stroke:black;stroke-width:0.5;fill:url(#radialffffffbfbfbf)"/>
<circle cx="110.250796" cy="97.487699" r="13.818182" opacity="0.645077" style="stroke:black;stroke-width:0.5;fill:url(#radialffffff666666)"/>
<circle cx="148.742107" cy="156.255944" r="5.636364" opacity="0.663637" style="stroke:black;stroke-width:0.5;fill:url(#radialffffffbfbfbf)"/>
<circle cx="192.323016" cy="101.003497" r="13.818182" opacity="0.674858" style="stroke:black;stroke-width:0.5;fill:url(#radialffffff666666)"/>
<circle cx="275.372751" cy="108.207788" r="13.818182" opacity="0.686289" style="stroke:black;stroke-width:0.5;fill:url(#radialffffff666666)"/>
<circle cx="358.722258" cy="111.736620" r="13.818182" opacity="0.690582" style="stroke:black;stroke-width:0.5;fill:url(#radialffffff666666)"/>
<circle cx="229.175358" cy="160.882852" r="5.636364" opacity="0.693461" style="stroke:black;stroke-width:0.5;fill:url(#radialffffffbfbfbf)"/>
<circle cx="403.753148" cy="180.700354" r="13.818182" opacity="0.700675" style="stroke:black;stroke-width:0.5;fill:url(#radialffffff666666)"/>
<circle cx="67.549651" cy="120.078087" r="14.021214" opacity="0.712283" style="stroke:black;stroke-width:0.5;fill:url(#radialffffff666666)"/>
<circle cx="314.040014" cy="166.164695" r="5.827971" opacity="0.719025" style="stroke:black;stroke-width:0.5;fill:url(#radialffffffbfbfbf)"/>
<circle cx="110.270346" cy="64.770248" r="6.035163" opacity="0.731695" style="stroke:black;stroke-width:0.5;fill:url(#radialffffffbfbfbf)"/>
<circle cx="443.120965" cy="107.305215" r="15.115790" opacity="0.739563" style="stroke:black;stroke-width:0.5;fill:url(#radialffffff666666)"/>
<circle cx="149.393784" cy="123.313664" r="15.356282" opacity="0.745423" style="stroke:black;stroke-width:0.5;fill:url(#radialffffff666666)"/>
<circle cx="358.057547" cy="77.386718" r="6.278415" opacity="0.746295" style="stroke:black;stroke-width:0.5;fill:url(#radialffffffbfbfbf)"/>
<circle cx="276.936776" cy="74.304285" r="6.366121" opacity="0.751490" style="stroke:black;stroke-width:0.5;fill:url(#radialffffffbfbfbf)"/>
<circle cx="434.961967" cy="195.242529" r="6.415321" opacity="0.754388" style="stroke:black;stroke-width:0.5;fill:url(#radialffffffbfbfbf)"/>
<circle cx="418.777565" cy="40.000000" r="6.461160" opacity="0.757078" style="stroke:black;stroke-width:0.5;fill:url(#radialffffffbfbfbf)"/>
<circle cx="193.453675" cy="68.305597" r="6.480412" opacity="0.758205" style="stroke:black;stroke-width:0.5;fill:url(#radialffffffbfbfbf)"/>
<circle cx="231.488812" cy="127.530016" r="16.199129" opacity="0.765606" style="stroke:black;stroke-width:0.5;fill:url(#radialffffff666666)"/>
<circle cx="315.978754" cy="132.241641" r="16.801483" opacity="0.779710" style="stroke:black;stroke-width:0.5;fill:url(#radialffffff666666)"/>
<circle cx="378.125945" cy="200.892570" r="6.884712" opacity="0.781499" style="stroke:black;stroke-width:0.5;fill:url(#radialffffffbfbfbf)"/>
<circle cx="400.664199" cy="133.427694" r="17.280219" opacity="0.790741" style="stroke:black;stroke-width:0.5;fill:url(#radialffffff666666)"/>
<circle cx="470.504438" cy="124.858139" r="7.560379" opacity="0.818950" style="stroke:black;stroke-width:0.5;fill:url(#radialffffffbfbfbf)"/>
<circle cx="473.929001" cy="46.181158" r="7.846720" opacity="0.834314" style="stroke:black;stroke-width:0.5;fill:url(#radialffffffbfbfbf)"/>
<circle cx="441.729634" cy="61.479279" r="19.708365" opacity="0.844471" style="stroke:black;stroke-width:0.5;fill:url(#radialffffff666666)"/>
<circle cx="63.698239" cy="123.691637" r="9.027839" opacity="0.894906" style="stroke:black;stroke-width:0.5;fill:url(#radialffffffbfbfbf)"/>
<circle cx="147.210665" cy="126.774070" r="9.593492" opacity="0.922516" style="stroke:black;stroke-width:0.5;fill:url(#radialffffffbfbfbf)"/>
<circle cx="230.517813" cy="129.947738" r="9.950730" opacity="0.939535" style="stroke:black;stroke-width:0.5;fill:url(#radialffffffbfbfbf)"/>
<circle cx="315.545388" cy="132.733658" r="10.203762" opacity="0.951405" style="stroke:black;stroke-width:0.5;fill:url(#radialffffffbfbfbf)"/>
<circle cx="397.506823" cy="134.962393" r="10.391396" opacity="0.960113" style="stroke:black;stroke-width:0.5;fill:url(#radialffffffbfbfbf)"/>
<circle cx="432.687613" cy="62.912968" r="11.272727" opacity="1.000000" style="stroke:black;stroke-width:0.5;fill:url(#radialffffffbfbfbf)"/>
</svg>
</g>
</svg>
