<?xml version="1.0"?>
<svg version="1.1" id="topsvg"
xmlns="http://www.w3.org/2000/svg" xmlns:xlink="http://www.w3.org/1999/xlink"
xmlns:cml="http://www.xml-cml.org/schema" x="0" y="0" width="200px" height="200px" viewBox="0 0 100 100">
<title>519761 - Open Babel Depiction</title>
<rect x="0" y="0" width="100" height="100" fill="white"/>
<defs>
<radialGradient id='radialffffff666666' cx='50%' cy='50%' r='50%' fx='30%' fy='30%'>
  <stop offset=' 0%' stop-color="rgb(255,255,255)"  stop-opacity='1.0'/>
  <stop offset='100%' stop-color="rgb(102,102,102)"  stop-opacity ='1.0'/>
</radialGradient>
<radialGradient id='radialffffffbfbfbf' cx='50%' cy='50%' r='50%' fx='30%' fy='30%'>
  <stop offset=' 0%' stop-color="rgb(255,255,255)"  stop-opacity='1.0'/>
  <stop offset='100%' stop-color="rgb(191,191,191)"  stop-opacity ='1.0'/>
</radialGradient>
</defs>
<g transform="translate(0,0)">
<svg width="100" height="100" x="0" y="0" viewBox="0 0 336.559 248.164"
font-family="sans-serif" stroke="rgb(0,0,0)" stroke-width="4"  stroke-linecap="round">
<line x1="103.9" y1="123.2" x2="151.0" y2="125.7" opacity="1.0" stroke="rgb(0,0,0)"  stroke-width="1.8"/>
<line x1="103.9" y1="123.2" x2="73.8" y2="150.5" opacity="0.6" stroke="rgb(0,0,0)"  stroke-width="1.9"/>
<line x1="103.9" y1="123.2" x2="87.0" y2="75.9" opacity="0.6" stroke="rgb(0,0,0)"  stroke-width="1.6"/>
<line x1="103.9" y1="123.2" x2="101.8" y2="142.2" opacity="0.5" stroke="rgb(0,0,0)"  stroke-width="1.0"/>
<line x1="151.0" y1="125.7" x2="185.6" y2="98.8" opacity="0.3" stroke="rgb(0,0,0)"  stroke-width="1.7"/>
<line x1="151.0" y1="125.7" x2="160.8" y2="160.2" opacity="0.6" stroke="rgb(0,0,0)"  stroke-width="2.0"/>
<line x1="151.0" y1="125.7" x2="150.6" y2="115.0" opacity="0.7" stroke="rgb(0,0,0)"  stroke-width="2.4"/>
<line x1="185.6" y1="98.8" x2="231.4" y2="101.3" opacity="0.8" stroke="rgb(0,0,0)"  stroke-width="1.7"/>
<line x1="185.6" y1="98.8" x2="175.8" y2="64.4" opacity="0.6" stroke="rgb(0,0,0)"  stroke-width="1.4"/>
<line x1="185.6" y1="98.8" x2="187.6" y2="109.8" opacity="0.5" stroke="rgb(0,0,0)"  stroke-width="1.1"/>
<line x1="231.4" y1="101.3" x2="248.6" y2="148.1" opacity="0.4" stroke="rgb(0,0,0)"  stroke-width="2.0"/>
<line x1="231.4" y1="101.3" x2="263.8" y2="74.3" opacity="0.7" stroke="rgb(0,0,0)"  stroke-width="1.6"/>
<polygon points="231.419675 101.326826 225.263982 86.442825 233.184380 85.317083 " stroke-width="1.612434" fill="rgb(0,0,0)"  stroke="rgb(0,0,0)" />
<line x1="248.6" y1="148.1" x2="253.9" y2="175.6" opacity="0.5" stroke="rgb(0,0,0)"  stroke-width="1.6"/>
<line x1="248.6" y1="148.1" x2="280.5" y2="146.0" opacity="0.5" stroke="rgb(0,0,0)"  stroke-width="2.3"/>
<line x1="248.6" y1="148.1" x2="227.4" y2="165.4" opacity="0.8" stroke="rgb(0,0,0)"  stroke-width="2.3"/>
<line x1="73.8" y1="150.5" x2="40.0" y2="150.0" opacity="0.8" stroke="rgb(0,0,0)"  stroke-width="2.1"/>
<line x1="73.8" y1="150.5" x2="73.8" y2="137.8" opacity="0.7" stroke="rgb(0,0,0)"  stroke-width="2.6"/>
<line x1="73.8" y1="150.5" x2="84.4" y2="184.7" opacity="0.9" stroke="rgb(0,0,0)"  stroke-width="2.3"/>
<line x1="87.0" y1="75.9" x2="104.9" y2="55.7" opacity="0.8" stroke="rgb(0,0,0)"  stroke-width="1.3"/>
<line x1="87.0" y1="75.9" x2="90.0" y2="60.7" opacity="0.4" stroke="rgb(0,0,0)"  stroke-width="1.9"/>
<line x1="87.0" y1="75.9" x2="52.5" y2="74.8" opacity="0.6" stroke="rgb(0,0,0)"  stroke-width="1.5"/>
<line x1="101.8" y1="142.2" x2="114.9" y2="175.5" opacity="0.5" stroke="rgb(0,0,0)"  stroke-width="0.5"/>
<line x1="101.8" y1="142.2" x2="68.1" y2="143.4" opacity="0.2" stroke="rgb(0,0,0)"  stroke-width="0.4"/>
<line x1="101.8" y1="142.2" x2="120.5" y2="122.5" opacity="0.1" stroke="rgb(0,0,0)"  stroke-width="0.4"/>
<line x1="263.8" y1="74.3" x2="296.6" y2="75.5" opacity="0.1" stroke="rgb(0,0,0)"  stroke-width="1.5"/>
<line x1="263.8" y1="74.3" x2="253.7" y2="40.0" opacity="0.5" stroke="rgb(0,0,0)"  stroke-width="1.3"/>
<line x1="263.8" y1="74.3" x2="265.9" y2="85.9" opacity="0.4" stroke="rgb(0,0,0)"  stroke-width="0.9"/>
<line x1="253.9" y1="175.6" x2="266.0" y2="208.2" opacity="0.3" stroke="rgb(0,0,0)"  stroke-width="1.3"/>
<line x1="253.9" y1="175.6" x2="277.4" y2="161.1" opacity="0.4" stroke="rgb(0,0,0)"  stroke-width="0.9"/>
<line x1="253.9" y1="175.6" x2="222.8" y2="179.8" opacity="0.3" stroke="rgb(0,0,0)"  stroke-width="1.0"/>
<circle cx="120.481862" cy="122.461727" r="5.636364" opacity="0.200000" style="stroke:black;stroke-width:0.5;fill:url(#radialffffffbfbfbf)"/>
<circle cx="68.064431" cy="143.439808" r="5.636364" opacity="0.292606" style="stroke:black;stroke-width:0.5;fill:url(#radialffffffbfbfbf)"/>
<circle cx="114.865709" cy="175.545648" r="5.636364" opacity="0.409780" style="stroke:black;stroke-width:0.5;fill:url(#radialffffffbfbfbf)"/>
<circle cx="101.826693" cy="142.217911" r="13.818182" opacity="0.418236" style="stroke:black;stroke-width:0.5;fill:url(#radialffffff666666)"/>
<circle cx="265.930104" cy="85.922426" r="5.636364" opacity="0.426640" style="stroke:black;stroke-width:0.5;fill:url(#radialffffffbfbfbf)"/>
<circle cx="277.440115" cy="161.134448" r="5.636364" opacity="0.465232" style="stroke:black;stroke-width:0.5;fill:url(#radialffffffbfbfbf)"/>
<circle cx="187.627401" cy="109.811497" r="5.636364" opacity="0.474513" style="stroke:black;stroke-width:0.5;fill:url(#radialffffffbfbfbf)"/>
<circle cx="222.810854" cy="179.848425" r="5.636364" opacity="0.507873" style="stroke:black;stroke-width:0.5;fill:url(#radialffffffbfbfbf)"/>
<circle cx="104.887970" cy="55.714775" r="5.636364" opacity="0.585484" style="stroke:black;stroke-width:0.5;fill:url(#radialffffffbfbfbf)"/>
<circle cx="253.894090" cy="175.627325" r="13.818182" opacity="0.621788" style="stroke:black;stroke-width:0.5;fill:url(#radialffffff666666)"/>
<circle cx="253.707865" cy="40.000000" r="5.636364" opacity="0.654530" style="stroke:black;stroke-width:0.5;fill:url(#radialffffffbfbfbf)"/>
<circle cx="263.813020" cy="74.320937" r="13.818182" opacity="0.660230" style="stroke:black;stroke-width:0.5;fill:url(#radialffffff666666)"/>
<circle cx="52.470539" cy="74.775064" r="5.636364" opacity="0.670073" style="stroke:black;stroke-width:0.5;fill:url(#radialffffffbfbfbf)"/>
<circle cx="265.962775" cy="208.164423" r="5.636364" opacity="0.672287" style="stroke:black;stroke-width:0.5;fill:url(#radialffffffbfbfbf)"/>
<circle cx="175.754742" cy="64.441212" r="5.636364" opacity="0.688660" style="stroke:black;stroke-width:0.5;fill:url(#radialffffffbfbfbf)"/>
<circle cx="185.634468" cy="98.847093" r="13.818182" opacity="0.693495" style="stroke:black;stroke-width:0.5;fill:url(#radialffffff666666)"/>
<circle cx="87.020174" cy="75.931620" r="14.353881" opacity="0.720683" style="stroke:black;stroke-width:0.5;fill:url(#radialffffff666666)"/>
<circle cx="103.943777" cy="123.226230" r="14.487636" opacity="0.724033" style="stroke:black;stroke-width:0.5;fill:url(#radialffffff666666)"/>
<circle cx="296.559213" cy="75.533033" r="6.130986" opacity="0.737481" style="stroke:black;stroke-width:0.5;fill:url(#radialffffffbfbfbf)"/>
<circle cx="231.419675" cy="101.326826" r="17.661092" opacity="0.799408" style="stroke:black;stroke-width:0.5;fill:url(#radialffffff666666)"/>
<circle cx="40.000000" cy="149.983819" r="7.436776" opacity="0.812228" style="stroke:black;stroke-width:0.5;fill:url(#radialffffffbfbfbf)"/>
<circle cx="151.048895" cy="125.722298" r="18.377394" opacity="0.815458" style="stroke:black;stroke-width:0.5;fill:url(#radialffffff666666)"/>
<circle cx="160.791402" cy="160.190255" r="7.525121" opacity="0.817038" style="stroke:black;stroke-width:0.5;fill:url(#radialffffffbfbfbf)"/>
<circle cx="248.585044" cy="148.085631" r="19.220662" opacity="0.833957" style="stroke:black;stroke-width:0.5;fill:url(#radialffffff666666)"/>
<circle cx="73.811268" cy="150.457549" r="20.679067" opacity="0.865018" style="stroke:black;stroke-width:0.5;fill:url(#radialffffff666666)"/>
<circle cx="84.364017" cy="184.651069" r="8.542891" opacity="0.870538" style="stroke:black;stroke-width:0.5;fill:url(#radialffffffbfbfbf)"/>
<circle cx="90.025910" cy="60.706911" r="8.589140" opacity="0.872892" style="stroke:black;stroke-width:0.5;fill:url(#radialffffffbfbfbf)"/>
<circle cx="280.520995" cy="146.030622" r="9.212818" opacity="0.904028" style="stroke:black;stroke-width:0.5;fill:url(#radialffffffbfbfbf)"/>
<circle cx="227.378267" cy="165.388219" r="9.795785" opacity="0.932191" style="stroke:black;stroke-width:0.5;fill:url(#radialffffffbfbfbf)"/>
<circle cx="229.224181" cy="85.879954" r="9.944227" opacity="0.939228" style="stroke:black;stroke-width:0.5;fill:url(#radialffffffbfbfbf)"/>
<circle cx="150.614370" cy="114.980057" r="10.397861" opacity="0.960412" style="stroke:black;stroke-width:0.5;fill:url(#radialffffffbfbfbf)"/>
<circle cx="73.811268" cy="137.764847" r="11.272727" opacity="1.000000" style="stroke:black;stroke-width:0.5;fill:url(#radialffffffbfbfbf)"/>
</svg>
</g>
</svg>
