<?xml version="1.0"?>
<svg version="1.1" id="topsvg"
xmlns="http://www.w3.org/2000/svg" xmlns:xlink="http://www.w3.org/1999/xlink"
xmlns:cml="http://www.xml-cml.org/schema" x="0" y="0" width="1024px" height="1024px" viewBox="0 0 100 100">
<title>520357 - Open Babel Depiction</title>
<rect x="0" y="0" width="100" height="100" fill="white"/>
<defs>
<radialGradient id='radialffffff666666' cx='50%' cy='50%' r='50%' fx='30%' fy='30%'>
  <stop offset=' 0%' stop-color="rgb(255,255,255)"  stop-opacity='1.0'/>
  <stop offset='100%' stop-color="rgb(102,102,102)"  stop-opacity ='1.0'/>
</radialGradient>
<radialGradient id='radialffffffbfbfbf' cx='50%' cy='50%' r='50%' fx='30%' fy='30%'>
  <stop offset=' 0%' stop-color="rgb(255,255,255)"  stop-opacity='1.0'/>
  <stop offset='100%' stop-color="rgb(191,191,191)"  stop-opacity ='1.0'/>
</radialGradient>
</defs>
<g transform="translate(0,0)">
<svg width="100" height="100" x="0" y="0" viewBox="0 0 477.486 255.585"
font-family="sans-serif" stroke="rgb(0,0,0)" stroke-width="2"  stroke-linecap="round">
<line x1="167.2" y1="106.9" x2="122.7" y2="121.1" opacity="1.0" stroke="rgb(0,0,0)"  stroke-width="1.6"/>
<line x1="167.2" y1="106.9" x2="205.3" y2="132.6" opacity="0.5" stroke="rgb(0,0,0)"  stroke-width="1.6"/>
<line x1="167.2" y1="106.9" x2="172.4" y2="57.5" opacity="0.5" stroke="rgb(0,0,0)"  stroke-width="1.4"/>
<line x1="168.0" y1="108.1" x2="166.4" y2="108.1" opacity="0.5" stroke="rgb(0,0,0)"  stroke-width="1.0"/>
<line x1="168.6" y1="109.0" x2="165.7" y2="109.0" opacity="0.5" stroke="rgb(0,0,0)"  stroke-width="1.0"/>
<line x1="169.2" y1="110.0" x2="165.1" y2="109.9" opacity="0.5" stroke="rgb(0,0,0)"  stroke-width="1.0"/>
<line x1="169.9" y1="110.9" x2="164.4" y2="110.8" opacity="0.5" stroke="rgb(0,0,0)"  stroke-width="1.0"/>
<line x1="170.5" y1="111.9" x2="163.8" y2="111.8" opacity="0.5" stroke="rgb(0,0,0)"  stroke-width="1.0"/>
<line x1="171.1" y1="112.8" x2="163.1" y2="112.7" opacity="0.5" stroke="rgb(0,0,0)"  stroke-width="1.0"/>
<line x1="122.7" y1="121.1" x2="110.6" y2="169.7" opacity="0.5" stroke="rgb(0,0,0)"  stroke-width="1.7"/>
<line x1="122.7" y1="121.1" x2="122.0" y2="113.0" opacity="0.6" stroke="rgb(0,0,0)"  stroke-width="2.2"/>
<line x1="122.7" y1="121.1" x2="96.9" y2="101.3" opacity="0.7" stroke="rgb(0,0,0)"  stroke-width="1.6"/>
<line x1="205.3" y1="132.6" x2="250.0" y2="121.2" opacity="0.5" stroke="rgb(0,0,0)"  stroke-width="1.6"/>
<line x1="205.3" y1="132.6" x2="205.9" y2="126.9" opacity="0.5" stroke="rgb(0,0,0)"  stroke-width="2.3"/>
<line x1="205.3" y1="132.6" x2="200.2" y2="167.6" opacity="0.8" stroke="rgb(0,0,0)"  stroke-width="1.8"/>
<line x1="110.6" y1="169.7" x2="111.0" y2="182.0" opacity="0.6" stroke="rgb(0,0,0)"  stroke-width="1.1"/>
<line x1="110.6" y1="169.7" x2="66.1" y2="180.5" opacity="0.4" stroke="rgb(0,0,0)"  stroke-width="1.9"/>
<line x1="110.6" y1="169.7" x2="134.6" y2="189.9" opacity="0.6" stroke="rgb(0,0,0)"  stroke-width="1.9"/>
<line x1="250.0" y1="121.2" x2="286.2" y2="148.6" opacity="0.6" stroke="rgb(0,0,0)"  stroke-width="1.6"/>
<line x1="250.0" y1="121.2" x2="257.4" y2="86.7" opacity="0.5" stroke="rgb(0,0,0)"  stroke-width="1.4"/>
<line x1="250.0" y1="121.2" x2="249.5" y2="126.8" opacity="0.5" stroke="rgb(0,0,0)"  stroke-width="0.9"/>
<line x1="286.2" y1="148.6" x2="330.7" y2="138.0" opacity="0.3" stroke="rgb(0,0,0)"  stroke-width="1.6"/>
<line x1="286.2" y1="148.6" x2="287.2" y2="142.4" opacity="0.5" stroke="rgb(0,0,0)"  stroke-width="2.3"/>
<line x1="286.2" y1="148.6" x2="279.2" y2="183.3" opacity="0.8" stroke="rgb(0,0,0)"  stroke-width="1.8"/>
<line x1="172.4" y1="57.5" x2="200.8" y2="45.0" opacity="0.6" stroke="rgb(0,0,0)"  stroke-width="1.3"/>
<line x1="172.4" y1="57.5" x2="176.1" y2="49.3" opacity="0.4" stroke="rgb(0,0,0)"  stroke-width="1.9"/>
<line x1="172.4" y1="57.5" x2="143.9" y2="40.0" opacity="0.6" stroke="rgb(0,0,0)"  stroke-width="1.3"/>
<line x1="330.7" y1="138.0" x2="368.0" y2="165.1" opacity="0.4" stroke="rgb(0,0,0)"  stroke-width="1.6"/>
<line x1="330.7" y1="138.0" x2="337.9" y2="103.2" opacity="0.5" stroke="rgb(0,0,0)"  stroke-width="1.4"/>
<line x1="330.7" y1="138.0" x2="329.4" y2="143.4" opacity="0.5" stroke="rgb(0,0,0)"  stroke-width="0.9"/>
<line x1="111.0" y1="182.0" x2="89.8" y2="160.6" opacity="0.3" stroke="rgb(0,0,0)"  stroke-width="0.4"/>
<line x1="111.0" y1="182.0" x2="143.9" y2="180.5" opacity="0.1" stroke="rgb(0,0,0)"  stroke-width="0.4"/>
<line x1="111.0" y1="182.0" x2="99.5" y2="215.6" opacity="0.1" stroke="rgb(0,0,0)"  stroke-width="0.4"/>
<line x1="66.1" y1="180.5" x2="65.4" y2="172.4" opacity="0.1" stroke="rgb(0,0,0)"  stroke-width="2.6"/>
<line x1="66.1" y1="180.5" x2="40.0" y2="162.1" opacity="0.9" stroke="rgb(0,0,0)"  stroke-width="1.9"/>
<line x1="66.1" y1="180.5" x2="58.8" y2="215.3" opacity="0.6" stroke="rgb(0,0,0)"  stroke-width="2.1"/>
<line x1="368.0" y1="165.1" x2="412.2" y2="155.3" opacity="0.7" stroke="rgb(0,0,0)"  stroke-width="1.6"/>
<line x1="368.0" y1="165.1" x2="370.0" y2="159.4" opacity="0.5" stroke="rgb(0,0,0)"  stroke-width="2.3"/>
<line x1="368.0" y1="165.1" x2="360.8" y2="199.9" opacity="0.8" stroke="rgb(0,0,0)"  stroke-width="1.8"/>
<line x1="412.2" y1="155.3" x2="421.1" y2="121.1" opacity="0.6" stroke="rgb(0,0,0)"  stroke-width="1.4"/>
<line x1="412.2" y1="155.3" x2="411.8" y2="162.0" opacity="0.5" stroke="rgb(0,0,0)"  stroke-width="0.9"/>
<line x1="412.2" y1="155.3" x2="437.5" y2="175.6" opacity="0.3" stroke="rgb(0,0,0)"  stroke-width="1.5"/>
<circle cx="89.776710" cy="160.585695" r="5.636364" opacity="0.200000" style="stroke:black;stroke-width:0.5;fill:url(#radialffffffbfbfbf)"/>
<circle cx="143.921687" cy="180.498989" r="5.636364" opacity="0.210263" style="stroke:black;stroke-width:0.5;fill:url(#radialffffffbfbfbf)"/>
<circle cx="99.544141" cy="215.585403" r="5.636364" opacity="0.346084" style="stroke:black;stroke-width:0.5;fill:url(#radialffffffbfbfbf)"/>
<circle cx="167.126677" cy="112.743550" r="5.636364" opacity="0.387960" style="stroke:black;stroke-width:0.5;fill:url(#radialffffffbfbfbf)"/>
<circle cx="111.017774" cy="182.029024" r="13.818182" opacity="0.395872" style="stroke:black;stroke-width:0.5;fill:url(#radialffffff666666)"/>
<circle cx="411.762666" cy="161.952613" r="5.636364" opacity="0.399367" style="stroke:black;stroke-width:0.5;fill:url(#radialffffffbfbfbf)"/>
<circle cx="249.536526" cy="126.794427" r="5.636364" opacity="0.400036" style="stroke:black;stroke-width:0.5;fill:url(#radialffffffbfbfbf)"/>
<circle cx="329.362605" cy="143.367090" r="5.636364" opacity="0.409382" style="stroke:black;stroke-width:0.5;fill:url(#radialffffffbfbfbf)"/>
<circle cx="200.807025" cy="44.958749" r="5.636364" opacity="0.590495" style="stroke:black;stroke-width:0.5;fill:url(#radialffffffbfbfbf)"/>
<circle cx="143.879276" cy="40.000000" r="5.636364" opacity="0.624571" style="stroke:black;stroke-width:0.5;fill:url(#radialffffffbfbfbf)"/>
<circle cx="167.208235" cy="106.897445" r="13.818182" opacity="0.663057" style="stroke:black;stroke-width:0.5;fill:url(#radialffffff666666)"/>
<circle cx="412.167196" cy="155.326811" r="13.818182" opacity="0.668557" style="stroke:black;stroke-width:0.5;fill:url(#radialffffff666666)"/>
<circle cx="250.035663" cy="121.215834" r="13.818182" opacity="0.670454" style="stroke:black;stroke-width:0.5;fill:url(#radialffffff666666)"/>
<circle cx="330.749097" cy="137.958138" r="13.818182" opacity="0.676230" style="stroke:black;stroke-width:0.5;fill:url(#radialffffff666666)"/>
<circle cx="96.911437" cy="101.328639" r="5.636364" opacity="0.686722" style="stroke:black;stroke-width:0.5;fill:url(#radialffffffbfbfbf)"/>
<circle cx="421.070109" cy="121.088603" r="5.636364" opacity="0.697593" style="stroke:black;stroke-width:0.5;fill:url(#radialffffffbfbfbf)"/>
<circle cx="172.401873" cy="57.528527" r="13.818182" opacity="0.701909" style="stroke:black;stroke-width:0.5;fill:url(#radialffffff666666)"/>
<circle cx="257.434639" cy="86.664442" r="5.636364" opacity="0.701928" style="stroke:black;stroke-width:0.5;fill:url(#radialffffffbfbfbf)"/>
<circle cx="337.929497" cy="103.230580" r="5.636364" opacity="0.704949" style="stroke:black;stroke-width:0.5;fill:url(#radialffffffbfbfbf)"/>
<circle cx="110.603458" cy="169.677823" r="15.297066" opacity="0.743984" style="stroke:black;stroke-width:0.5;fill:url(#radialffffff666666)"/>
<circle cx="200.170870" cy="167.616027" r="6.410738" opacity="0.754118" style="stroke:black;stroke-width:0.5;fill:url(#radialffffffbfbfbf)"/>
<circle cx="437.486179" cy="175.631585" r="6.412848" opacity="0.754242" style="stroke:black;stroke-width:0.5;fill:url(#radialffffffbfbfbf)"/>
<circle cx="360.769105" cy="199.900096" r="6.508665" opacity="0.759856" style="stroke:black;stroke-width:0.5;fill:url(#radialffffffbfbfbf)"/>
<circle cx="40.000000" cy="162.141829" r="6.572845" opacity="0.763593" style="stroke:black;stroke-width:0.5;fill:url(#radialffffffbfbfbf)"/>
<circle cx="279.181365" cy="183.340483" r="6.584596" opacity="0.764276" style="stroke:black;stroke-width:0.5;fill:url(#radialffffffbfbfbf)"/>
<circle cx="122.687147" cy="121.101652" r="16.460523" opacity="0.771758" style="stroke:black;stroke-width:0.5;fill:url(#radialffffff666666)"/>
<circle cx="205.325359" cy="132.578547" r="16.794417" opacity="0.779546" style="stroke:black;stroke-width:0.5;fill:url(#radialffffff666666)"/>
<circle cx="367.998440" cy="165.146439" r="16.961364" opacity="0.783411" style="stroke:black;stroke-width:0.5;fill:url(#radialffffff666666)"/>
<circle cx="286.244321" cy="148.557465" r="17.165246" opacity="0.788106" style="stroke:black;stroke-width:0.5;fill:url(#radialffffff666666)"/>
<circle cx="58.787788" cy="215.317892" r="7.760320" opacity="0.829708" style="stroke:black;stroke-width:0.5;fill:url(#radialffffffbfbfbf)"/>
<circle cx="134.640343" cy="189.855366" r="7.819377" opacity="0.832859" style="stroke:black;stroke-width:0.5;fill:url(#radialffffffbfbfbf)"/>
<circle cx="66.085632" cy="180.495726" r="19.760310" opacity="0.845583" style="stroke:black;stroke-width:0.5;fill:url(#radialffffff666666)"/>
<circle cx="176.078525" cy="49.327016" r="8.748024" opacity="0.880928" style="stroke:black;stroke-width:0.5;fill:url(#radialffffffbfbfbf)"/>
<circle cx="122.024893" cy="113.043684" r="9.938814" opacity="0.938972" style="stroke:black;stroke-width:0.5;fill:url(#radialffffffbfbfbf)"/>
<circle cx="205.863645" cy="126.928183" r="10.115082" opacity="0.947262" style="stroke:black;stroke-width:0.5;fill:url(#radialffffffbfbfbf)"/>
<circle cx="369.972153" cy="159.398205" r="10.174441" opacity="0.950038" style="stroke:black;stroke-width:0.5;fill:url(#radialffffffbfbfbf)"/>
<circle cx="287.174086" cy="142.437324" r="10.255795" opacity="0.953828" style="stroke:black;stroke-width:0.5;fill:url(#radialffffffbfbfbf)"/>
<circle cx="65.436427" cy="172.382299" r="11.272727" opacity="1.000000" style="stroke:black;stroke-width:0.5;fill:url(#radialffffffbfbfbf)"/>
</svg>
</g>
</svg>
