<?xml version="1.0"?>
<svg version="1.1" id="topsvg"
xmlns="http://www.w3.org/2000/svg" xmlns:xlink="http://www.w3.org/1999/xlink"
xmlns:cml="http://www.xml-cml.org/schema" x="0" y="0" width="200px" height="200px" viewBox="0 0 100 100">
<title>521429 - Open Babel Depiction</title>
<rect x="0" y="0" width="100" height="100" fill="white"/>
<defs>
<radialGradient id='radialffffff666666' cx='50%' cy='50%' r='50%' fx='30%' fy='30%'>
  <stop offset=' 0%' stop-color="rgb(255,255,255)"  stop-opacity='1.0'/>
  <stop offset='100%' stop-color="rgb(102,102,102)"  stop-opacity ='1.0'/>
</radialGradient>
<radialGradient id='radialffffffbfbfbf' cx='50%' cy='50%' r='50%' fx='30%' fy='30%'>
  <stop offset=' 0%' stop-color="rgb(255,255,255)"  stop-opacity='1.0'/>
  <stop offset='100%' stop-color="rgb(191,191,191)"  stop-opacity ='1.0'/>
</radialGradient>
</defs>
<g transform="translate(0,0)">
<svg width="100" height="100" x="0" y="0" viewBox="0 0 314.749 229.302"
font-family="sans-serif" stroke="rgb(0,0,0)" stroke-width="4"  stroke-linecap="round">
<line x1="180.6" y1="118.6" x2="134.1" y2="118.6" opacity="1.0" stroke="rgb(0,0,0)"  stroke-width="1.5"/>
<line x1="180.6" y1="118.6" x2="207.8" y2="76.5" opacity="0.5" stroke="rgb(0,0,0)"  stroke-width="1.6"/>
<line x1="180.6" y1="118.6" x2="206.2" y2="160.2" opacity="0.5" stroke="rgb(0,0,0)"  stroke-width="1.6"/>
<polygon points="180.600418 118.628303 176.884469 123.877972 174.645663 116.197624 " stroke-width="1.612380" fill="rgb(0,0,0)"  stroke="rgb(0,0,0)" />
<line x1="134.1" y1="118.6" x2="107.0" y2="76.5" opacity="0.5" stroke="rgb(0,0,0)"  stroke-width="1.4"/>
<line x1="134.1" y1="118.6" x2="108.6" y2="160.2" opacity="0.5" stroke="rgb(0,0,0)"  stroke-width="1.4"/>
<line x1="135.3" y1="118.1" x2="134.9" y2="119.7" opacity="0.5" stroke="rgb(0,0,0)"  stroke-width="1.0"/>
<line x1="136.3" y1="117.8" x2="135.5" y2="120.5" opacity="0.5" stroke="rgb(0,0,0)"  stroke-width="1.0"/>
<line x1="137.2" y1="117.4" x2="136.1" y2="121.4" opacity="0.5" stroke="rgb(0,0,0)"  stroke-width="1.0"/>
<line x1="138.2" y1="117.0" x2="136.7" y2="122.2" opacity="0.5" stroke="rgb(0,0,0)"  stroke-width="1.0"/>
<line x1="139.1" y1="116.6" x2="137.3" y2="123.0" opacity="0.5" stroke="rgb(0,0,0)"  stroke-width="1.0"/>
<line x1="140.1" y1="116.2" x2="137.9" y2="123.9" opacity="0.5" stroke="rgb(0,0,0)"  stroke-width="1.0"/>
<line x1="207.8" y1="76.5" x2="217.3" y2="70.4" opacity="0.5" stroke="rgb(0,0,0)"  stroke-width="1.0"/>
<line x1="207.8" y1="76.5" x2="250.5" y2="74.0" opacity="0.3" stroke="rgb(0,0,0)"  stroke-width="1.8"/>
<line x1="207.8" y1="76.5" x2="188.8" y2="48.3" opacity="0.6" stroke="rgb(0,0,0)"  stroke-width="1.7"/>
<line x1="107.0" y1="76.5" x2="97.5" y2="70.4" opacity="0.6" stroke="rgb(0,0,0)"  stroke-width="2.0"/>
<line x1="107.0" y1="76.5" x2="64.3" y2="74.0" opacity="0.7" stroke="rgb(0,0,0)"  stroke-width="1.2"/>
<line x1="107.0" y1="76.5" x2="125.9" y2="48.3" opacity="0.4" stroke="rgb(0,0,0)"  stroke-width="1.3"/>
<line x1="206.2" y1="160.2" x2="208.1" y2="164.6" opacity="0.4" stroke="rgb(0,0,0)"  stroke-width="1.1"/>
<line x1="206.2" y1="160.2" x2="190.7" y2="189.3" opacity="0.4" stroke="rgb(0,0,0)"  stroke-width="1.6"/>
<line x1="206.2" y1="160.2" x2="239.4" y2="159.8" opacity="0.5" stroke="rgb(0,0,0)"  stroke-width="1.6"/>
<line x1="108.6" y1="160.2" x2="75.4" y2="159.8" opacity="0.5" stroke="rgb(0,0,0)"  stroke-width="1.4"/>
<line x1="108.6" y1="160.2" x2="106.6" y2="164.6" opacity="0.5" stroke="rgb(0,0,0)"  stroke-width="1.9"/>
<line x1="108.6" y1="160.2" x2="124.0" y2="189.3" opacity="0.6" stroke="rgb(0,0,0)"  stroke-width="1.4"/>
<line x1="217.3" y1="70.4" x2="237.1" y2="97.0" opacity="0.5" stroke="rgb(0,0,0)"  stroke-width="0.4"/>
<line x1="217.3" y1="70.4" x2="235.2" y2="40.0" opacity="0.1" stroke="rgb(0,0,0)"  stroke-width="0.4"/>
<line x1="217.3" y1="70.4" x2="187.2" y2="68.3" opacity="0.1" stroke="rgb(0,0,0)"  stroke-width="0.4"/>
<line x1="250.5" y1="74.0" x2="264.9" y2="41.4" opacity="0.1" stroke="rgb(0,0,0)"  stroke-width="2.1"/>
<line x1="250.5" y1="74.0" x2="274.7" y2="97.4" opacity="0.7" stroke="rgb(0,0,0)"  stroke-width="2.0"/>
<line x1="250.5" y1="74.0" x2="244.8" y2="80.2" opacity="0.7" stroke="rgb(0,0,0)"  stroke-width="2.5"/>
<line x1="97.5" y1="70.4" x2="127.5" y2="68.3" opacity="0.8" stroke="rgb(0,0,0)"  stroke-width="2.8"/>
<line x1="97.5" y1="70.4" x2="79.5" y2="40.0" opacity="0.9" stroke="rgb(0,0,0)"  stroke-width="2.6"/>
<line x1="97.5" y1="70.4" x2="77.6" y2="97.1" opacity="0.9" stroke="rgb(0,0,0)"  stroke-width="2.7"/>
<line x1="64.3" y1="74.0" x2="40.0" y2="97.4" opacity="0.9" stroke="rgb(0,0,0)"  stroke-width="1.0"/>
<line x1="64.3" y1="74.0" x2="70.0" y2="80.2" opacity="0.3" stroke="rgb(0,0,0)"  stroke-width="0.5"/>
<line x1="64.3" y1="74.0" x2="49.8" y2="41.4" opacity="0.2" stroke="rgb(0,0,0)"  stroke-width="0.9"/>
<circle cx="187.249842" cy="68.330203" r="5.636364" opacity="0.200000" style="stroke:black;stroke-width:0.5;fill:url(#radialffffffbfbfbf)"/>
<circle cx="69.958300" cy="80.190192" r="5.636364" opacity="0.200000" style="stroke:black;stroke-width:0.5;fill:url(#radialffffffbfbfbf)"/>
<circle cx="237.149891" cy="97.042144" r="5.636364" opacity="0.214667" style="stroke:black;stroke-width:0.5;fill:url(#radialffffffbfbfbf)"/>
<circle cx="235.234674" cy="40.000000" r="5.636364" opacity="0.321963" style="stroke:black;stroke-width:0.5;fill:url(#radialffffffbfbfbf)"/>
<circle cx="217.253821" cy="70.428132" r="13.818182" opacity="0.380015" style="stroke:black;stroke-width:0.5;fill:url(#radialffffff666666)"/>
<circle cx="138.977891" cy="120.034536" r="5.636364" opacity="0.387060" style="stroke:black;stroke-width:0.5;fill:url(#radialffffffbfbfbf)"/>
<circle cx="208.118203" cy="164.573934" r="5.636364" opacity="0.474892" style="stroke:black;stroke-width:0.5;fill:url(#radialffffffbfbfbf)"/>
<circle cx="64.261590" cy="74.007337" r="13.818182" opacity="0.542450" style="stroke:black;stroke-width:0.5;fill:url(#radialffffff666666)"/>
<circle cx="49.840365" cy="41.425809" r="5.636364" opacity="0.562546" style="stroke:black;stroke-width:0.5;fill:url(#radialffffffbfbfbf)"/>
<circle cx="40.000000" cy="97.387992" r="5.636364" opacity="0.618951" style="stroke:black;stroke-width:0.5;fill:url(#radialffffffbfbfbf)"/>
<circle cx="124.024843" cy="189.302093" r="5.636364" opacity="0.635420" style="stroke:black;stroke-width:0.5;fill:url(#radialffffffbfbfbf)"/>
<circle cx="125.913958" cy="48.251420" r="5.636364" opacity="0.636983" style="stroke:black;stroke-width:0.5;fill:url(#radialffffffbfbfbf)"/>
<circle cx="75.393993" cy="159.764684" r="5.636364" opacity="0.640234" style="stroke:black;stroke-width:0.5;fill:url(#radialffffffbfbfbf)"/>
<circle cx="134.145802" cy="118.628303" r="13.818182" opacity="0.645697" style="stroke:black;stroke-width:0.5;fill:url(#radialffffff666666)"/>
<circle cx="106.983653" cy="76.516369" r="13.818182" opacity="0.698702" style="stroke:black;stroke-width:0.5;fill:url(#radialffffff666666)"/>
<circle cx="206.157308" cy="160.221465" r="13.818182" opacity="0.701404" style="stroke:black;stroke-width:0.5;fill:url(#radialffffff666666)"/>
<circle cx="108.592175" cy="160.227990" r="14.038132" opacity="0.712712" style="stroke:black;stroke-width:0.5;fill:url(#radialffffff666666)"/>
<circle cx="207.762567" cy="76.513106" r="14.144713" opacity="0.715413" style="stroke:black;stroke-width:0.5;fill:url(#radialffffff666666)"/>
<circle cx="180.600418" cy="118.628303" r="16.110690" opacity="0.763513" style="stroke:black;stroke-width:0.5;fill:url(#radialffffff666666)"/>
<circle cx="239.352227" cy="159.758159" r="6.652044" opacity="0.768180" style="stroke:black;stroke-width:0.5;fill:url(#radialffffffbfbfbf)"/>
<circle cx="188.835524" cy="48.251420" r="6.699395" opacity="0.770909" style="stroke:black;stroke-width:0.5;fill:url(#radialffffffbfbfbf)"/>
<circle cx="190.727902" cy="189.302093" r="6.719609" opacity="0.772071" style="stroke:black;stroke-width:0.5;fill:url(#radialffffffbfbfbf)"/>
<circle cx="274.749483" cy="97.387992" r="6.953038" opacity="0.785367" style="stroke:black;stroke-width:0.5;fill:url(#radialffffffbfbfbf)"/>
<circle cx="264.905855" cy="41.429072" r="7.706215" opacity="0.826811" style="stroke:black;stroke-width:0.5;fill:url(#radialffffffbfbfbf)"/>
<circle cx="250.487892" cy="74.013862" r="19.504308" opacity="0.840088" style="stroke:black;stroke-width:0.5;fill:url(#radialffffff666666)"/>
<circle cx="106.641068" cy="164.583722" r="8.729372" opacity="0.879988" style="stroke:black;stroke-width:0.5;fill:url(#radialffffffbfbfbf)"/>
<circle cx="175.765066" cy="120.037798" r="9.582510" opacity="0.921988" style="stroke:black;stroke-width:0.5;fill:url(#radialffffffbfbfbf)"/>
<circle cx="97.489137" cy="70.437920" r="23.643992" opacity="0.924954" style="stroke:black;stroke-width:0.5;fill:url(#radialffffff666666)"/>
<circle cx="79.505021" cy="40.013051" r="10.104196" opacity="0.946752" style="stroke:black;stroke-width:0.5;fill:url(#radialffffffbfbfbf)"/>
<circle cx="77.586541" cy="97.055195" r="10.752426" opacity="0.976650" style="stroke:black;stroke-width:0.5;fill:url(#radialffffffbfbfbf)"/>
<circle cx="244.794445" cy="80.213031" r="10.901954" opacity="0.983417" style="stroke:black;stroke-width:0.5;fill:url(#radialffffffbfbfbf)"/>
<circle cx="127.489852" cy="68.343254" r="11.272727" opacity="1.000000" style="stroke:black;stroke-width:0.5;fill:url(#radialffffffbfbfbf)"/>
</svg>
</g>
</svg>
