<?xml version="1.0"?>
<svg version="1.1" id="topsvg"
xmlns="http://www.w3.org/2000/svg" xmlns:xlink="http://www.w3.org/1999/xlink"
xmlns:cml="http://www.xml-cml.org/schema" x="0" y="0" width="1024px" height="1024px" viewBox="0 0 100 100">
<title>521421 - Open Babel Depiction</title>
<rect x="0" y="0" width="100" height="100" fill="white"/>
<defs>
<radialGradient id='radialffffff666666' cx='50%' cy='50%' r='50%' fx='30%' fy='30%'>
  <stop offset=' 0%' stop-color="rgb(255,255,255)"  stop-opacity='1.0'/>
  <stop offset='100%' stop-color="rgb(102,102,102)"  stop-opacity ='1.0'/>
</radialGradient>
<radialGradient id='radialffffffbfbfbf' cx='50%' cy='50%' r='50%' fx='30%' fy='30%'>
  <stop offset=' 0%' stop-color="rgb(255,255,255)"  stop-opacity='1.0'/>
  <stop offset='100%' stop-color="rgb(191,191,191)"  stop-opacity ='1.0'/>
</radialGradient>
</defs>
<g transform="translate(0,0)">
<svg width="100" height="100" x="0" y="0" viewBox="0 0 310.999 280.616"
font-family="sans-serif" stroke="rgb(0,0,0)" stroke-width="2"  stroke-linecap="round">
<line x1="169.8" y1="154.6" x2="140.0" y2="185.8" opacity="1.0" stroke="rgb(0,0,0)"  stroke-width="1.5"/>
<line x1="169.8" y1="154.6" x2="218.7" y2="169.1" opacity="0.5" stroke="rgb(0,0,0)"  stroke-width="1.3"/>
<line x1="169.8" y1="154.6" x2="162.6" y2="105.9" opacity="0.4" stroke="rgb(0,0,0)"  stroke-width="1.4"/>
<line x1="168.4" y1="156.0" x2="167.8" y2="154.5" opacity="0.5" stroke="rgb(0,0,0)"  stroke-width="1.0"/>
<line x1="167.2" y1="157.1" x2="166.1" y2="154.5" opacity="0.5" stroke="rgb(0,0,0)"  stroke-width="1.0"/>
<line x1="166.1" y1="158.3" x2="164.5" y2="154.4" opacity="0.5" stroke="rgb(0,0,0)"  stroke-width="1.0"/>
<line x1="164.9" y1="159.4" x2="162.9" y2="154.4" opacity="0.5" stroke="rgb(0,0,0)"  stroke-width="1.0"/>
<line x1="163.8" y1="160.6" x2="161.3" y2="154.4" opacity="0.5" stroke="rgb(0,0,0)"  stroke-width="1.0"/>
<line x1="162.6" y1="161.7" x2="159.6" y2="154.3" opacity="0.5" stroke="rgb(0,0,0)"  stroke-width="1.0"/>
<line x1="140.0" y1="185.8" x2="90.2" y2="180.0" opacity="0.5" stroke="rgb(0,0,0)"  stroke-width="1.8"/>
<line x1="140.0" y1="185.8" x2="147.6" y2="182.8" opacity="0.6" stroke="rgb(0,0,0)"  stroke-width="2.3"/>
<line x1="140.0" y1="185.8" x2="147.0" y2="219.7" opacity="0.8" stroke="rgb(0,0,0)"  stroke-width="1.8"/>
<line x1="218.7" y1="169.1" x2="236.2" y2="166.2" opacity="0.6" stroke="rgb(0,0,0)"  stroke-width="1.9"/>
<line x1="218.7" y1="169.1" x2="225.9" y2="215.9" opacity="0.6" stroke="rgb(0,0,0)"  stroke-width="1.1"/>
<line x1="218.7" y1="169.1" x2="238.5" y2="147.6" opacity="0.4" stroke="rgb(0,0,0)"  stroke-width="1.0"/>
<line x1="90.2" y1="180.0" x2="75.7" y2="184.9" opacity="0.3" stroke="rgb(0,0,0)"  stroke-width="1.2"/>
<line x1="90.2" y1="180.0" x2="76.5" y2="134.9" opacity="0.4" stroke="rgb(0,0,0)"  stroke-width="1.9"/>
<line x1="90.2" y1="180.0" x2="74.0" y2="205.2" opacity="0.6" stroke="rgb(0,0,0)"  stroke-width="2.0"/>
<line x1="162.6" y1="105.9" x2="189.3" y2="73.4" opacity="0.7" stroke="rgb(0,0,0)"  stroke-width="1.2"/>
<line x1="162.6" y1="105.9" x2="129.8" y2="96.0" opacity="0.4" stroke="rgb(0,0,0)"  stroke-width="1.4"/>
<line x1="162.6" y1="105.9" x2="167.7" y2="100.2" opacity="0.5" stroke="rgb(0,0,0)"  stroke-width="1.9"/>
<line x1="236.2" y1="166.2" x2="219.5" y2="188.8" opacity="0.6" stroke="rgb(0,0,0)"  stroke-width="2.7"/>
<line x1="236.2" y1="166.2" x2="271.0" y2="174.4" opacity="0.9" stroke="rgb(0,0,0)"  stroke-width="2.5"/>
<line x1="236.2" y1="166.2" x2="233.0" y2="133.1" opacity="0.8" stroke="rgb(0,0,0)"  stroke-width="2.6"/>
<line x1="225.9" y1="215.9" x2="213.3" y2="240.6" opacity="0.9" stroke="rgb(0,0,0)"  stroke-width="1.2"/>
<line x1="225.9" y1="215.9" x2="261.0" y2="222.3" opacity="0.4" stroke="rgb(0,0,0)"  stroke-width="0.9"/>
<line x1="225.9" y1="215.9" x2="210.6" y2="220.8" opacity="0.3" stroke="rgb(0,0,0)"  stroke-width="0.5"/>
<line x1="75.7" y1="184.9" x2="88.4" y2="158.8" opacity="0.2" stroke="rgb(0,0,0)"  stroke-width="0.4"/>
<line x1="75.7" y1="184.9" x2="86.7" y2="216.2" opacity="0.1" stroke="rgb(0,0,0)"  stroke-width="0.4"/>
<line x1="75.7" y1="184.9" x2="40.0" y2="184.0" opacity="0.1" stroke="rgb(0,0,0)"  stroke-width="0.5"/>
<line x1="76.5" y1="134.9" x2="70.8" y2="110.7" opacity="0.2" stroke="rgb(0,0,0)"  stroke-width="1.8"/>
<line x1="76.5" y1="134.9" x2="44.1" y2="138.7" opacity="0.6" stroke="rgb(0,0,0)"  stroke-width="2.3"/>
<line x1="76.5" y1="134.9" x2="97.2" y2="122.5" opacity="0.8" stroke="rgb(0,0,0)"  stroke-width="2.5"/>
<line x1="189.3" y1="73.4" x2="178.7" y2="40.0" opacity="0.8" stroke="rgb(0,0,0)"  stroke-width="0.9"/>
<line x1="189.3" y1="73.4" x2="185.5" y2="79.2" opacity="0.3" stroke="rgb(0,0,0)"  stroke-width="0.4"/>
<line x1="189.3" y1="73.4" x2="224.1" y2="75.5" opacity="0.1" stroke="rgb(0,0,0)"  stroke-width="1.0"/>
<circle cx="185.500950" cy="79.186025" r="5.636364" opacity="0.200000" style="stroke:black;stroke-width:0.5;fill:url(#radialffffffbfbfbf)"/>
<circle cx="88.360907" cy="158.753947" r="5.636364" opacity="0.200000" style="stroke:black;stroke-width:0.5;fill:url(#radialffffffbfbfbf)"/>
<circle cx="210.584842" cy="220.762818" r="5.636364" opacity="0.200000" style="stroke:black;stroke-width:0.5;fill:url(#radialffffffbfbfbf)"/>
<circle cx="86.720668" cy="216.185179" r="5.636364" opacity="0.281254" style="stroke:black;stroke-width:0.5;fill:url(#radialffffffbfbfbf)"/>
<circle cx="161.139155" cy="158.038385" r="5.636364" opacity="0.348784" style="stroke:black;stroke-width:0.5;fill:url(#radialffffffbfbfbf)"/>
<circle cx="40.000000" cy="184.046953" r="5.636364" opacity="0.412862" style="stroke:black;stroke-width:0.5;fill:url(#radialffffffbfbfbf)"/>
<circle cx="75.716038" cy="184.886677" r="13.818182" opacity="0.434358" style="stroke:black;stroke-width:0.5;fill:url(#radialffffff666666)"/>
<circle cx="238.508111" cy="147.625155" r="5.636364" opacity="0.514641" style="stroke:black;stroke-width:0.5;fill:url(#radialffffffbfbfbf)"/>
<circle cx="260.958472" cy="222.318104" r="5.636364" opacity="0.518266" style="stroke:black;stroke-width:0.5;fill:url(#radialffffffbfbfbf)"/>
<circle cx="189.349956" cy="73.445189" r="13.818182" opacity="0.535921" style="stroke:black;stroke-width:0.5;fill:url(#radialffffff666666)"/>
<circle cx="225.925323" cy="215.946658" r="13.818182" opacity="0.547669" style="stroke:black;stroke-width:0.5;fill:url(#radialffffff666666)"/>
<circle cx="178.717811" cy="40.000000" r="5.636364" opacity="0.586936" style="stroke:black;stroke-width:0.5;fill:url(#radialffffffbfbfbf)"/>
<circle cx="224.098841" cy="75.490587" r="5.636364" opacity="0.594541" style="stroke:black;stroke-width:0.5;fill:url(#radialffffffbfbfbf)"/>
<circle cx="169.781449" cy="154.552060" r="13.818182" opacity="0.636531" style="stroke:black;stroke-width:0.5;fill:url(#radialffffff666666)"/>
<circle cx="218.727223" cy="169.092026" r="13.818182" opacity="0.659395" style="stroke:black;stroke-width:0.5;fill:url(#radialffffff666666)"/>
<circle cx="129.804711" cy="95.973968" r="5.636364" opacity="0.659598" style="stroke:black;stroke-width:0.5;fill:url(#radialffffffbfbfbf)"/>
<circle cx="213.293523" cy="240.615589" r="5.636364" opacity="0.696264" style="stroke:black;stroke-width:0.5;fill:url(#radialffffffbfbfbf)"/>
<circle cx="162.612756" cy="105.933028" r="13.943822" opacity="0.710314" style="stroke:black;stroke-width:0.5;fill:url(#radialffffff666666)"/>
<circle cx="70.844332" cy="110.674037" r="5.734036" opacity="0.713207" style="stroke:black;stroke-width:0.5;fill:url(#radialffffffbfbfbf)"/>
<circle cx="146.965139" cy="219.746654" r="6.208531" opacity="0.742130" style="stroke:black;stroke-width:0.5;fill:url(#radialffffffbfbfbf)"/>
<circle cx="90.184121" cy="179.956158" r="15.974755" opacity="0.760285" style="stroke:black;stroke-width:0.5;fill:url(#radialffffff666666)"/>
<circle cx="139.976153" cy="185.808086" r="17.235590" opacity="0.789719" style="stroke:black;stroke-width:0.5;fill:url(#radialffffff666666)"/>
<circle cx="76.529622" cy="134.931275" r="19.846684" opacity="0.847429" style="stroke:black;stroke-width:0.5;fill:url(#radialffffff666666)"/>
<circle cx="74.016986" cy="205.193618" r="8.331400" opacity="0.859695" style="stroke:black;stroke-width:0.5;fill:url(#radialffffffbfbfbf)"/>
<circle cx="167.677239" cy="100.201994" r="8.910199" opacity="0.889056" style="stroke:black;stroke-width:0.5;fill:url(#radialffffffbfbfbf)"/>
<circle cx="236.152310" cy="166.193835" r="22.631458" opacity="0.904932" style="stroke:black;stroke-width:0.5;fill:url(#radialffffff666666)"/>
<circle cx="270.999217" cy="174.434238" r="9.295463" opacity="0.908074" style="stroke:black;stroke-width:0.5;fill:url(#radialffffffbfbfbf)"/>
<circle cx="44.103865" cy="138.685527" r="9.479654" opacity="0.917026" style="stroke:black;stroke-width:0.5;fill:url(#radialffffffbfbfbf)"/>
<circle cx="147.595748" cy="182.828210" r="10.249578" opacity="0.953539" style="stroke:black;stroke-width:0.5;fill:url(#radialffffffbfbfbf)"/>
<circle cx="232.992726" cy="133.134200" r="10.447335" opacity="0.962694" style="stroke:black;stroke-width:0.5;fill:url(#radialffffffbfbfbf)"/>
<circle cx="97.238455" cy="122.524926" r="10.524207" opacity="0.966229" style="stroke:black;stroke-width:0.5;fill:url(#radialffffffbfbfbf)"/>
<circle cx="219.524470" cy="188.817369" r="11.272727" opacity="1.000000" style="stroke:black;stroke-width:0.5;fill:url(#radialffffffbfbfbf)"/>
</svg>
</g>
</svg>
