<?xml version="1.0"?>
<svg version="1.1" id="topsvg"
xmlns="http://www.w3.org/2000/svg" xmlns:xlink="http://www.w3.org/1999/xlink"
xmlns:cml="http://www.xml-cml.org/schema" x="0" y="0" width="1024px" height="1024px" viewBox="0 0 100 100">
<title>521423 - Open Babel Depiction</title>
<rect x="0" y="0" width="100" height="100" fill="white"/>
<defs>
<radialGradient id='radialffffff666666' cx='50%' cy='50%' r='50%' fx='30%' fy='30%'>
  <stop offset=' 0%' stop-color="rgb(255,255,255)"  stop-opacity='1.0'/>
  <stop offset='100%' stop-color="rgb(102,102,102)"  stop-opacity ='1.0'/>
</radialGradient>
<radialGradient id='radialffffffbfbfbf' cx='50%' cy='50%' r='50%' fx='30%' fy='30%'>
  <stop offset=' 0%' stop-color="rgb(255,255,255)"  stop-opacity='1.0'/>
  <stop offset='100%' stop-color="rgb(191,191,191)"  stop-opacity ='1.0'/>
</radialGradient>
</defs>
<g transform="translate(0,0)">
<svg width="100" height="100" x="0" y="0" viewBox="0 0 308.674 265.923"
font-family="sans-serif" stroke="rgb(0,0,0)" stroke-width="2"  stroke-linecap="round">
<line x1="184.7" y1="153.2" x2="133.6" y2="155.6" opacity="1.0" stroke="rgb(0,0,0)"  stroke-width="1.5"/>
<line x1="184.7" y1="153.2" x2="197.9" y2="110.2" opacity="0.5" stroke="rgb(0,0,0)"  stroke-width="1.1"/>
<line x1="184.7" y1="153.2" x2="200.0" y2="193.1" opacity="0.4" stroke="rgb(0,0,0)"  stroke-width="1.1"/>
<line x1="184.7" y1="153.2" x2="208.7" y2="153.9" opacity="0.4" stroke="rgb(0,0,0)"  stroke-width="1.9"/>
<line x1="133.6" y1="155.6" x2="106.2" y2="150.3" opacity="0.6" stroke="rgb(0,0,0)"  stroke-width="1.1"/>
<line x1="133.6" y1="155.6" x2="119.2" y2="197.1" opacity="0.4" stroke="rgb(0,0,0)"  stroke-width="1.9"/>
<polygon points="133.550212 155.584469 121.157203 129.435106 128.790609 127.041133 " stroke-width="1.879350" fill="rgb(0,0,0)"  stroke="rgb(0,0,0)" />
<line x1="197.9" y1="110.2" x2="186.7" y2="67.7" opacity="0.6" stroke="rgb(0,0,0)"  stroke-width="1.1"/>
<line x1="197.9" y1="110.2" x2="233.3" y2="109.7" opacity="0.4" stroke="rgb(0,0,0)"  stroke-width="0.8"/>
<line x1="197.9" y1="110.2" x2="183.9" y2="109.6" opacity="0.3" stroke="rgb(0,0,0)"  stroke-width="0.4"/>
<line x1="200.0" y1="193.1" x2="248.7" y2="195.3" opacity="0.1" stroke="rgb(0,0,0)"  stroke-width="0.6"/>
<line x1="200.0" y1="193.1" x2="182.6" y2="193.7" opacity="0.2" stroke="rgb(0,0,0)"  stroke-width="0.4"/>
<line x1="200.0" y1="193.1" x2="191.6" y2="223.4" opacity="0.1" stroke="rgb(0,0,0)"  stroke-width="0.9"/>
<line x1="208.7" y1="153.9" x2="209.0" y2="186.6" opacity="0.3" stroke="rgb(0,0,0)"  stroke-width="2.6"/>
<line x1="208.7" y1="153.9" x2="193.2" y2="132.0" opacity="0.9" stroke="rgb(0,0,0)"  stroke-width="2.7"/>
<line x1="208.7" y1="153.9" x2="242.8" y2="143.6" opacity="0.9" stroke="rgb(0,0,0)"  stroke-width="2.4"/>
<line x1="106.2" y1="150.3" x2="57.1" y2="151.0" opacity="0.8" stroke="rgb(0,0,0)"  stroke-width="0.7"/>
<line x1="106.2" y1="150.3" x2="114.1" y2="176.1" opacity="0.2" stroke="rgb(0,0,0)"  stroke-width="0.4"/>
<line x1="106.2" y1="150.3" x2="114.0" y2="119.2" opacity="0.1" stroke="rgb(0,0,0)"  stroke-width="0.4"/>
<line x1="119.2" y1="197.1" x2="85.7" y2="194.0" opacity="0.1" stroke="rgb(0,0,0)"  stroke-width="2.3"/>
<line x1="119.2" y1="197.1" x2="120.7" y2="225.9" opacity="0.8" stroke="rgb(0,0,0)"  stroke-width="1.9"/>
<line x1="119.2" y1="197.1" x2="139.2" y2="203.3" opacity="0.6" stroke="rgb(0,0,0)"  stroke-width="2.5"/>
<line x1="186.7" y1="67.7" x2="151.5" y2="64.0" opacity="0.8" stroke="rgb(0,0,0)"  stroke-width="1.4"/>
<line x1="186.7" y1="67.7" x2="198.0" y2="40.0" opacity="0.5" stroke="rgb(0,0,0)"  stroke-width="1.2"/>
<line x1="186.7" y1="67.7" x2="202.5" y2="65.5" opacity="0.4" stroke="rgb(0,0,0)"  stroke-width="1.8"/>
<line x1="248.7" y1="195.3" x2="255.8" y2="225.7" opacity="0.6" stroke="rgb(0,0,0)"  stroke-width="0.4"/>
<line x1="248.7" y1="195.3" x2="258.9" y2="168.6" opacity="0.1" stroke="rgb(0,0,0)"  stroke-width="0.4"/>
<line x1="248.7" y1="195.3" x2="268.7" y2="194.8" opacity="0.1" stroke="rgb(0,0,0)"  stroke-width="0.8"/>
<line x1="57.1" y1="151.0" x2="45.7" y2="183.4" opacity="0.3" stroke="rgb(0,0,0)"  stroke-width="0.9"/>
<line x1="57.1" y1="151.0" x2="47.7" y2="127.6" opacity="0.3" stroke="rgb(0,0,0)"  stroke-width="1.1"/>
<line x1="57.1" y1="151.0" x2="40.0" y2="142.1" opacity="0.4" stroke="rgb(0,0,0)"  stroke-width="0.4"/>
<circle cx="258.907756" cy="168.595671" r="5.636364" opacity="0.200000" style="stroke:black;stroke-width:0.5;fill:url(#radialffffffbfbfbf)"/>
<circle cx="182.588419" cy="193.665875" r="5.636364" opacity="0.200000" style="stroke:black;stroke-width:0.5;fill:url(#radialffffffbfbfbf)"/>
<circle cx="114.072541" cy="176.053470" r="5.636364" opacity="0.200000" style="stroke:black;stroke-width:0.5;fill:url(#radialffffffbfbfbf)"/>
<circle cx="183.879756" cy="109.644167" r="5.636364" opacity="0.200000" style="stroke:black;stroke-width:0.5;fill:url(#radialffffffbfbfbf)"/>
<circle cx="40.000000" cy="142.113474" r="5.636364" opacity="0.200000" style="stroke:black;stroke-width:0.5;fill:url(#radialffffffbfbfbf)"/>
<circle cx="255.816373" cy="225.727562" r="5.636364" opacity="0.200000" style="stroke:black;stroke-width:0.5;fill:url(#radialffffffbfbfbf)"/>
<circle cx="113.981234" cy="119.166149" r="5.636364" opacity="0.278563" style="stroke:black;stroke-width:0.5;fill:url(#radialffffffbfbfbf)"/>
<circle cx="248.671626" cy="195.267003" r="13.818182" opacity="0.408717" style="stroke:black;stroke-width:0.5;fill:url(#radialffffff666666)"/>
<circle cx="106.246255" cy="150.318031" r="13.818182" opacity="0.447082" style="stroke:black;stroke-width:0.5;fill:url(#radialffffff666666)"/>
<circle cx="233.335365" cy="109.693082" r="5.636364" opacity="0.489608" style="stroke:black;stroke-width:0.5;fill:url(#radialffffffbfbfbf)"/>
<circle cx="200.044299" cy="193.101730" r="13.818182" opacity="0.498887" style="stroke:black;stroke-width:0.5;fill:url(#radialffffff666666)"/>
<circle cx="57.120002" cy="150.996309" r="13.818182" opacity="0.510281" style="stroke:black;stroke-width:0.5;fill:url(#radialffffff666666)"/>
<circle cx="197.898592" cy="110.221356" r="13.818182" opacity="0.526618" style="stroke:black;stroke-width:0.5;fill:url(#radialffffff666666)"/>
<circle cx="198.006203" cy="40.000000" r="5.636364" opacity="0.554690" style="stroke:black;stroke-width:0.5;fill:url(#radialffffffbfbfbf)"/>
<circle cx="45.667536" cy="183.429745" r="5.636364" opacity="0.578257" style="stroke:black;stroke-width:0.5;fill:url(#radialffffffbfbfbf)"/>
<circle cx="191.569083" cy="223.435113" r="5.636364" opacity="0.617550" style="stroke:black;stroke-width:0.5;fill:url(#radialffffffbfbfbf)"/>
<circle cx="268.674310" cy="194.807209" r="5.636364" opacity="0.631036" style="stroke:black;stroke-width:0.5;fill:url(#radialffffffbfbfbf)"/>
<circle cx="47.741502" cy="127.641365" r="5.636364" opacity="0.677225" style="stroke:black;stroke-width:0.5;fill:url(#radialffffffbfbfbf)"/>
<circle cx="186.684175" cy="67.734403" r="13.818182" opacity="0.678280" style="stroke:black;stroke-width:0.5;fill:url(#radialffffff666666)"/>
<circle cx="184.678690" cy="153.194191" r="13.818182" opacity="0.683104" style="stroke:black;stroke-width:0.5;fill:url(#radialffffff666666)"/>
<circle cx="151.501757" cy="63.984307" r="5.636364" opacity="0.703121" style="stroke:black;stroke-width:0.5;fill:url(#radialffffffbfbfbf)"/>
<circle cx="133.550212" cy="155.584469" r="14.669064" opacity="0.728552" style="stroke:black;stroke-width:0.5;fill:url(#radialffffff666666)"/>
<circle cx="120.718363" cy="225.923220" r="6.284708" opacity="0.746669" style="stroke:black;stroke-width:0.5;fill:url(#radialffffffbfbfbf)"/>
<circle cx="124.973906" cy="128.238120" r="7.881231" opacity="0.836147" style="stroke:black;stroke-width:0.5;fill:url(#radialffffffbfbfbf)"/>
<circle cx="202.467187" cy="65.513694" r="8.003642" opacity="0.842615" style="stroke:black;stroke-width:0.5;fill:url(#radialffffffbfbfbf)"/>
<circle cx="119.244412" cy="197.112702" r="19.956536" opacity="0.849771" style="stroke:black;stroke-width:0.5;fill:url(#radialffffff666666)"/>
<circle cx="242.752997" cy="143.642860" r="8.901992" opacity="0.888647" style="stroke:black;stroke-width:0.5;fill:url(#radialffffffbfbfbf)"/>
<circle cx="85.695731" cy="194.044146" r="9.186273" opacity="0.902724" style="stroke:black;stroke-width:0.5;fill:url(#radialffffffbfbfbf)"/>
<circle cx="208.676041" cy="153.878991" r="22.530366" opacity="0.902908" style="stroke:black;stroke-width:0.5;fill:url(#radialffffff666666)"/>
<circle cx="209.008658" cy="186.583086" r="10.455888" opacity="0.963088" style="stroke:black;stroke-width:0.5;fill:url(#radialffffffbfbfbf)"/>
<circle cx="139.224269" cy="203.253076" r="10.689476" opacity="0.973786" style="stroke:black;stroke-width:0.5;fill:url(#radialffffffbfbfbf)"/>
<circle cx="193.209342" cy="131.952345" r="11.272727" opacity="1.000000" style="stroke:black;stroke-width:0.5;fill:url(#radialffffffbfbfbf)"/>
</svg>
</g>
</svg>
