<?xml version="1.0"?>
<svg version="1.1" id="topsvg"
xmlns="http://www.w3.org/2000/svg" xmlns:xlink="http://www.w3.org/1999/xlink"
xmlns:cml="http://www.xml-cml.org/schema" x="0" y="0" width="1024px" height="1024px" viewBox="0 0 100 100">
<title>521959 - Open Babel Depiction</title>
<rect x="0" y="0" width="100" height="100" fill="white"/>
<defs>
<radialGradient id='radialffffff666666' cx='50%' cy='50%' r='50%' fx='30%' fy='30%'>
  <stop offset=' 0%' stop-color="rgb(255,255,255)"  stop-opacity='1.0'/>
  <stop offset='100%' stop-color="rgb(102,102,102)"  stop-opacity ='1.0'/>
</radialGradient>
<radialGradient id='radialffffffbfbfbf' cx='50%' cy='50%' r='50%' fx='30%' fy='30%'>
  <stop offset=' 0%' stop-color="rgb(255,255,255)"  stop-opacity='1.0'/>
  <stop offset='100%' stop-color="rgb(191,191,191)"  stop-opacity ='1.0'/>
</radialGradient>
</defs>
<g transform="translate(0,0)">
<svg width="100" height="100" x="0" y="0" viewBox="0 0 567.623 241.023"
font-family="sans-serif" stroke="rgb(0,0,0)" stroke-width="2"  stroke-linecap="round">
<line x1="443.0" y1="133.4" x2="401.5" y2="110.6" opacity="1.0" stroke="rgb(0,0,0)"  stroke-width="1.7"/>
<line x1="443.0" y1="133.4" x2="485.6" y2="107.4" opacity="0.6" stroke="rgb(0,0,0)"  stroke-width="1.8"/>
<line x1="443.0" y1="133.4" x2="446.7" y2="180.0" opacity="0.6" stroke="rgb(0,0,0)"  stroke-width="1.7"/>
<polygon points="443.017045 133.399906 442.677998 138.966265 437.462840 132.899790 " stroke-width="1.661607" fill="rgb(0,0,0)"  stroke="rgb(0,0,0)" />
<line x1="401.5" y1="110.6" x2="359.3" y2="133.1" opacity="0.6" stroke="rgb(0,0,0)"  stroke-width="1.6"/>
<line x1="401.5" y1="110.6" x2="402.3" y2="108.9" opacity="0.5" stroke="rgb(0,0,0)"  stroke-width="1.0"/>
<line x1="401.5" y1="110.6" x2="400.4" y2="77.0" opacity="0.3" stroke="rgb(0,0,0)"  stroke-width="1.6"/>
<line x1="485.6" y1="107.4" x2="484.4" y2="61.9" opacity="0.5" stroke="rgb(0,0,0)"  stroke-width="1.9"/>
<line x1="485.6" y1="107.4" x2="497.1" y2="103.9" opacity="0.6" stroke="rgb(0,0,0)"  stroke-width="1.1"/>
<line x1="485.6" y1="107.4" x2="512.3" y2="125.1" opacity="0.4" stroke="rgb(0,0,0)"  stroke-width="1.8"/>
<line x1="359.3" y1="133.1" x2="318.2" y2="109.4" opacity="0.6" stroke="rgb(0,0,0)"  stroke-width="1.6"/>
<line x1="359.3" y1="133.1" x2="358.3" y2="166.4" opacity="0.5" stroke="rgb(0,0,0)"  stroke-width="1.7"/>
<line x1="359.3" y1="133.1" x2="358.8" y2="135.4" opacity="0.6" stroke="rgb(0,0,0)"  stroke-width="2.3"/>
<line x1="318.2" y1="109.4" x2="276.1" y2="130.4" opacity="0.8" stroke="rgb(0,0,0)"  stroke-width="1.6"/>
<line x1="318.2" y1="109.4" x2="319.3" y2="75.5" opacity="0.5" stroke="rgb(0,0,0)"  stroke-width="1.6"/>
<line x1="318.2" y1="109.4" x2="318.0" y2="108.4" opacity="0.5" stroke="rgb(0,0,0)"  stroke-width="1.0"/>
<line x1="276.1" y1="130.4" x2="234.9" y2="107.0" opacity="0.3" stroke="rgb(0,0,0)"  stroke-width="1.6"/>
<line x1="276.1" y1="130.4" x2="276.1" y2="131.0" opacity="0.5" stroke="rgb(0,0,0)"  stroke-width="2.3"/>
<line x1="276.1" y1="130.4" x2="275.0" y2="164.4" opacity="0.8" stroke="rgb(0,0,0)"  stroke-width="1.7"/>
<line x1="446.7" y1="180.0" x2="443.1" y2="181.0" opacity="0.6" stroke="rgb(0,0,0)"  stroke-width="1.0"/>
<line x1="446.7" y1="180.0" x2="478.1" y2="194.5" opacity="0.3" stroke="rgb(0,0,0)"  stroke-width="1.5"/>
<line x1="446.7" y1="180.0" x2="421.5" y2="201.0" opacity="0.5" stroke="rgb(0,0,0)"  stroke-width="1.6"/>
<line x1="234.9" y1="107.0" x2="191.6" y2="127.1" opacity="0.5" stroke="rgb(0,0,0)"  stroke-width="1.6"/>
<line x1="234.9" y1="107.0" x2="236.1" y2="73.1" opacity="0.5" stroke="rgb(0,0,0)"  stroke-width="1.6"/>
<line x1="234.9" y1="107.0" x2="235.5" y2="106.0" opacity="0.5" stroke="rgb(0,0,0)"  stroke-width="1.0"/>
<line x1="484.4" y1="61.9" x2="462.2" y2="40.0" opacity="0.3" stroke="rgb(0,0,0)"  stroke-width="1.9"/>
<line x1="484.4" y1="61.9" x2="474.3" y2="63.3" opacity="0.6" stroke="rgb(0,0,0)"  stroke-width="2.6"/>
<line x1="484.4" y1="61.9" x2="516.8" y2="47.0" opacity="0.9" stroke="rgb(0,0,0)"  stroke-width="2.1"/>
<line x1="497.1" y1="103.9" x2="501.7" y2="136.0" opacity="0.7" stroke="rgb(0,0,0)"  stroke-width="0.4"/>
<line x1="497.1" y1="103.9" x2="471.9" y2="86.7" opacity="0.1" stroke="rgb(0,0,0)"  stroke-width="0.4"/>
<line x1="497.1" y1="103.9" x2="527.6" y2="86.0" opacity="0.1" stroke="rgb(0,0,0)"  stroke-width="0.4"/>
<line x1="191.6" y1="127.1" x2="151.7" y2="103.5" opacity="0.1" stroke="rgb(0,0,0)"  stroke-width="1.6"/>
<line x1="191.6" y1="127.1" x2="190.8" y2="161.2" opacity="0.5" stroke="rgb(0,0,0)"  stroke-width="1.7"/>
<line x1="191.6" y1="127.1" x2="190.2" y2="127.1" opacity="0.6" stroke="rgb(0,0,0)"  stroke-width="2.2"/>
<line x1="151.7" y1="103.5" x2="109.6" y2="126.5" opacity="0.7" stroke="rgb(0,0,0)"  stroke-width="1.5"/>
<line x1="151.7" y1="103.5" x2="151.4" y2="69.8" opacity="0.5" stroke="rgb(0,0,0)"  stroke-width="1.5"/>
<line x1="151.7" y1="103.5" x2="153.9" y2="102.0" opacity="0.5" stroke="rgb(0,0,0)"  stroke-width="0.9"/>
<line x1="109.6" y1="126.5" x2="69.7" y2="102.6" opacity="0.3" stroke="rgb(0,0,0)"  stroke-width="1.5"/>
<line x1="109.6" y1="126.5" x2="107.5" y2="128.6" opacity="0.5" stroke="rgb(0,0,0)"  stroke-width="2.1"/>
<line x1="109.6" y1="126.5" x2="109.6" y2="159.9" opacity="0.7" stroke="rgb(0,0,0)"  stroke-width="1.5"/>
<line x1="69.7" y1="102.6" x2="40.0" y2="119.7" opacity="0.5" stroke="rgb(0,0,0)"  stroke-width="1.4"/>
<line x1="69.7" y1="102.6" x2="70.2" y2="100.8" opacity="0.5" stroke="rgb(0,0,0)"  stroke-width="0.8"/>
<line x1="69.7" y1="102.6" x2="68.2" y2="69.4" opacity="0.3" stroke="rgb(0,0,0)"  stroke-width="1.4"/>
<circle cx="471.851653" cy="86.703209" r="5.636364" opacity="0.200000" style="stroke:black;stroke-width:0.5;fill:url(#radialffffffbfbfbf)"/>
<circle cx="501.666299" cy="136.033962" r="5.636364" opacity="0.200000" style="stroke:black;stroke-width:0.5;fill:url(#radialffffffbfbfbf)"/>
<circle cx="527.622656" cy="85.996670" r="5.636364" opacity="0.340686" style="stroke:black;stroke-width:0.5;fill:url(#radialffffffbfbfbf)"/>
<circle cx="70.247686" cy="100.759104" r="5.636364" opacity="0.351094" style="stroke:black;stroke-width:0.5;fill:url(#radialffffffbfbfbf)"/>
<circle cx="497.081935" cy="103.936901" r="13.818182" opacity="0.388994" style="stroke:black;stroke-width:0.5;fill:url(#radialffffff666666)"/>
<circle cx="153.860235" cy="102.009385" r="5.636364" opacity="0.394311" style="stroke:black;stroke-width:0.5;fill:url(#radialffffffbfbfbf)"/>
<circle cx="318.001958" cy="108.410563" r="5.636364" opacity="0.426172" style="stroke:black;stroke-width:0.5;fill:url(#radialffffffbfbfbf)"/>
<circle cx="235.525732" cy="105.991400" r="5.636364" opacity="0.429876" style="stroke:black;stroke-width:0.5;fill:url(#radialffffffbfbfbf)"/>
<circle cx="443.117979" cy="180.998498" r="5.636364" opacity="0.433888" style="stroke:black;stroke-width:0.5;fill:url(#radialffffffbfbfbf)"/>
<circle cx="402.304766" cy="108.905466" r="5.636364" opacity="0.437803" style="stroke:black;stroke-width:0.5;fill:url(#radialffffffbfbfbf)"/>
<circle cx="69.733248" cy="102.618245" r="13.818182" opacity="0.645719" style="stroke:black;stroke-width:0.5;fill:url(#radialffffff666666)"/>
<circle cx="151.704803" cy="103.451766" r="13.818182" opacity="0.670340" style="stroke:black;stroke-width:0.5;fill:url(#radialffffff666666)"/>
<circle cx="109.559910" cy="159.890237" r="5.636364" opacity="0.673658" style="stroke:black;stroke-width:0.5;fill:url(#radialffffffbfbfbf)"/>
<circle cx="318.207082" cy="109.364554" r="13.818182" opacity="0.690089" style="stroke:black;stroke-width:0.5;fill:url(#radialffffff666666)"/>
<circle cx="234.923383" cy="107.036557" r="13.818182" opacity="0.692479" style="stroke:black;stroke-width:0.5;fill:url(#radialffffff666666)"/>
<circle cx="446.657186" cy="180.005437" r="13.818182" opacity="0.693410" style="stroke:black;stroke-width:0.5;fill:url(#radialffffff666666)"/>
<circle cx="401.549388" cy="110.565996" r="13.818182" opacity="0.697042" style="stroke:black;stroke-width:0.5;fill:url(#radialffffff666666)"/>
<circle cx="40.000000" cy="119.666349" r="5.636364" opacity="0.705338" style="stroke:black;stroke-width:0.5;fill:url(#radialffffffbfbfbf)"/>
<circle cx="358.290964" cy="166.418397" r="5.636364" opacity="0.706480" style="stroke:black;stroke-width:0.5;fill:url(#radialffffffbfbfbf)"/>
<circle cx="190.792367" cy="161.241452" r="5.797186" opacity="0.717124" style="stroke:black;stroke-width:0.5;fill:url(#radialffffffbfbfbf)"/>
<circle cx="274.987729" cy="164.438786" r="5.862909" opacity="0.721177" style="stroke:black;stroke-width:0.5;fill:url(#radialffffffbfbfbf)"/>
<circle cx="68.212723" cy="69.436957" r="5.902281" opacity="0.723595" style="stroke:black;stroke-width:0.5;fill:url(#radialffffffbfbfbf)"/>
<circle cx="151.366185" cy="69.788599" r="6.173045" opacity="0.740006" style="stroke:black;stroke-width:0.5;fill:url(#radialffffffbfbfbf)"/>
<circle cx="485.572186" cy="107.430525" r="15.215593" opacity="0.742000" style="stroke:black;stroke-width:0.5;fill:url(#radialffffff666666)"/>
<circle cx="478.122594" cy="194.465068" r="6.212720" opacity="0.742380" style="stroke:black;stroke-width:0.5;fill:url(#radialffffffbfbfbf)"/>
<circle cx="109.582702" cy="126.507080" r="15.420527" opacity="0.746980" style="stroke:black;stroke-width:0.5;fill:url(#radialffffff666666)"/>
<circle cx="319.301078" cy="75.476726" r="6.412916" opacity="0.754246" style="stroke:black;stroke-width:0.5;fill:url(#radialffffffbfbfbf)"/>
<circle cx="236.079242" cy="73.073842" r="6.433511" opacity="0.755457" style="stroke:black;stroke-width:0.5;fill:url(#radialffffffbfbfbf)"/>
<circle cx="462.246629" cy="40.000000" r="6.476215" opacity="0.757960" style="stroke:black;stroke-width:0.5;fill:url(#radialffffffbfbfbf)"/>
<circle cx="400.373994" cy="76.980971" r="6.584642" opacity="0.764278" style="stroke:black;stroke-width:0.5;fill:url(#radialffffffbfbfbf)"/>
<circle cx="421.531094" cy="201.022532" r="6.726081" opacity="0.772443" style="stroke:black;stroke-width:0.5;fill:url(#radialffffffbfbfbf)"/>
<circle cx="191.619376" cy="127.057334" r="16.570680" opacity="0.774336" style="stroke:black;stroke-width:0.5;fill:url(#radialffffff666666)"/>
<circle cx="359.310074" cy="133.100359" r="16.687255" opacity="0.777055" style="stroke:black;stroke-width:0.5;fill:url(#radialffffff666666)"/>
<circle cx="276.052422" cy="130.440256" r="16.857291" opacity="0.781004" style="stroke:black;stroke-width:0.5;fill:url(#radialffffff666666)"/>
<circle cx="443.017045" cy="133.399906" r="17.325817" opacity="0.791783" style="stroke:black;stroke-width:0.5;fill:url(#radialffffff666666)"/>
<circle cx="512.319736" cy="125.071210" r="7.687382" opacity="0.825800" style="stroke:black;stroke-width:0.5;fill:url(#radialffffffbfbfbf)"/>
<circle cx="516.812934" cy="47.019807" r="7.995096" opacity="0.842165" style="stroke:black;stroke-width:0.5;fill:url(#radialffffffbfbfbf)"/>
<circle cx="484.380512" cy="61.850616" r="19.842196" opacity="0.847334" style="stroke:black;stroke-width:0.5;fill:url(#radialffffff666666)"/>
<circle cx="107.544483" cy="128.649489" r="9.598779" opacity="0.922770" style="stroke:black;stroke-width:0.5;fill:url(#radialffffffbfbfbf)"/>
<circle cx="190.176994" cy="127.067102" r="10.078521" opacity="0.945549" style="stroke:black;stroke-width:0.5;fill:url(#radialffffffbfbfbf)"/>
<circle cx="358.772843" cy="135.441381" r="10.120922" opacity="0.947536" style="stroke:black;stroke-width:0.5;fill:url(#radialffffffbfbfbf)"/>
<circle cx="276.107773" cy="131.042605" r="10.197245" opacity="0.951102" style="stroke:black;stroke-width:0.5;fill:url(#radialffffffbfbfbf)"/>
<circle cx="440.070419" cy="135.933027" r="10.375937" opacity="0.959399" style="stroke:black;stroke-width:0.5;fill:url(#radialffffffbfbfbf)"/>
<circle cx="474.348959" cy="63.319045" r="11.272727" opacity="1.000000" style="stroke:black;stroke-width:0.5;fill:url(#radialffffffbfbfbf)"/>
</svg>
</g>
</svg>
