<?xml version="1.0"?>
<svg version="1.1" id="topsvg"
xmlns="http://www.w3.org/2000/svg" xmlns:xlink="http://www.w3.org/1999/xlink"
xmlns:cml="http://www.xml-cml.org/schema" x="0" y="0" width="1024px" height="1024px" viewBox="0 0 100 100">
<title>522447 - Open Babel Depiction</title>
<rect x="0" y="0" width="100" height="100" fill="white"/>
<defs>
<radialGradient id='radialffffff666666' cx='50%' cy='50%' r='50%' fx='30%' fy='30%'>
  <stop offset=' 0%' stop-color="rgb(255,255,255)"  stop-opacity='1.0'/>
  <stop offset='100%' stop-color="rgb(102,102,102)"  stop-opacity ='1.0'/>
</radialGradient>
<radialGradient id='radialffffffbfbfbf' cx='50%' cy='50%' r='50%' fx='30%' fy='30%'>
  <stop offset=' 0%' stop-color="rgb(255,255,255)"  stop-opacity='1.0'/>
  <stop offset='100%' stop-color="rgb(191,191,191)"  stop-opacity ='1.0'/>
</radialGradient>
</defs>
<g transform="translate(0,0)">
<svg width="100" height="100" x="0" y="0" viewBox="0 0 311.786 272.374"
font-family="sans-serif" stroke="rgb(0,0,0)" stroke-width="2"  stroke-linecap="round">
<line x1="177.5" y1="122.9" x2="126.9" y2="115.2" opacity="1.0" stroke="rgb(0,0,0)"  stroke-width="1.3"/>
<line x1="177.5" y1="122.9" x2="204.3" y2="81.1" opacity="0.4" stroke="rgb(0,0,0)"  stroke-width="1.5"/>
<line x1="177.5" y1="122.9" x2="189.9" y2="162.6" opacity="0.5" stroke="rgb(0,0,0)"  stroke-width="1.6"/>
<line x1="180.0" y1="124.0" x2="179.0" y2="125.2" opacity="0.5" stroke="rgb(0,0,0)"  stroke-width="1.0"/>
<line x1="182.1" y1="124.9" x2="180.3" y2="127.1" opacity="0.5" stroke="rgb(0,0,0)"  stroke-width="1.0"/>
<line x1="184.2" y1="125.8" x2="181.5" y2="129.0" opacity="0.5" stroke="rgb(0,0,0)"  stroke-width="1.0"/>
<line x1="186.3" y1="126.7" x2="182.8" y2="130.9" opacity="0.5" stroke="rgb(0,0,0)"  stroke-width="1.0"/>
<line x1="188.3" y1="127.6" x2="184.0" y2="132.7" opacity="0.5" stroke="rgb(0,0,0)"  stroke-width="1.0"/>
<line x1="190.4" y1="128.5" x2="185.3" y2="134.6" opacity="0.5" stroke="rgb(0,0,0)"  stroke-width="1.0"/>
<line x1="126.9" y1="115.2" x2="104.2" y2="107.3" opacity="0.5" stroke="rgb(0,0,0)"  stroke-width="1.7"/>
<line x1="126.9" y1="115.2" x2="116.3" y2="78.5" opacity="0.6" stroke="rgb(0,0,0)"  stroke-width="0.9"/>
<line x1="124.8" y1="121.5" x2="123.4" y2="120.8" opacity="0.3" stroke="rgb(0,0,0)"  stroke-width="1.0"/>
<line x1="123.1" y1="126.5" x2="120.5" y2="125.3" opacity="0.3" stroke="rgb(0,0,0)"  stroke-width="1.0"/>
<line x1="121.4" y1="131.6" x2="117.6" y2="129.8" opacity="0.3" stroke="rgb(0,0,0)"  stroke-width="1.0"/>
<line x1="119.7" y1="136.6" x2="114.8" y2="134.2" opacity="0.3" stroke="rgb(0,0,0)"  stroke-width="1.0"/>
<line x1="118.0" y1="141.6" x2="111.9" y2="138.7" opacity="0.3" stroke="rgb(0,0,0)"  stroke-width="1.0"/>
<line x1="116.3" y1="146.6" x2="109.1" y2="143.2" opacity="0.3" stroke="rgb(0,0,0)"  stroke-width="1.0"/>
<line x1="204.3" y1="81.1" x2="195.5" y2="62.8" opacity="0.3" stroke="rgb(0,0,0)"  stroke-width="2.0"/>
<line x1="204.3" y1="81.1" x2="253.5" y2="90.0" opacity="0.7" stroke="rgb(0,0,0)"  stroke-width="1.5"/>
<line x1="204.3" y1="81.1" x2="196.9" y2="55.4" opacity="0.5" stroke="rgb(0,0,0)"  stroke-width="1.3"/>
<line x1="189.9" y1="162.6" x2="167.4" y2="205.1" opacity="0.4" stroke="rgb(0,0,0)"  stroke-width="1.8"/>
<line x1="189.9" y1="162.6" x2="225.0" y2="168.7" opacity="0.6" stroke="rgb(0,0,0)"  stroke-width="1.9"/>
<line x1="189.9" y1="162.6" x2="182.9" y2="156.3" opacity="0.6" stroke="rgb(0,0,0)"  stroke-width="2.3"/>
<line x1="104.2" y1="107.3" x2="55.0" y2="101.0" opacity="0.8" stroke="rgb(0,0,0)"  stroke-width="2.1"/>
<line x1="104.2" y1="107.3" x2="110.1" y2="135.1" opacity="0.7" stroke="rgb(0,0,0)"  stroke-width="2.4"/>
<line x1="104.2" y1="107.3" x2="116.2" y2="78.4" opacity="0.8" stroke="rgb(0,0,0)"  stroke-width="2.3"/>
<line x1="116.3" y1="78.5" x2="81.9" y2="79.6" opacity="0.8" stroke="rgb(0,0,0)"  stroke-width="0.5"/>
<line x1="116.3" y1="78.5" x2="135.7" y2="81.8" opacity="0.2" stroke="rgb(0,0,0)"  stroke-width="0.4"/>
<line x1="116.3" y1="78.5" x2="122.6" y2="46.2" opacity="0.1" stroke="rgb(0,0,0)"  stroke-width="0.7"/>
<line x1="195.5" y1="62.8" x2="168.0" y2="40.0" opacity="0.2" stroke="rgb(0,0,0)"  stroke-width="2.5"/>
<line x1="195.5" y1="62.8" x2="223.3" y2="43.3" opacity="0.8" stroke="rgb(0,0,0)"  stroke-width="2.6"/>
<line x1="195.5" y1="62.8" x2="189.7" y2="88.0" opacity="0.9" stroke="rgb(0,0,0)"  stroke-width="2.8"/>
<line x1="253.5" y1="90.0" x2="261.1" y2="105.9" opacity="0.9" stroke="rgb(0,0,0)"  stroke-width="1.2"/>
<line x1="253.5" y1="90.0" x2="271.8" y2="59.3" opacity="0.4" stroke="rgb(0,0,0)"  stroke-width="1.5"/>
<line x1="253.5" y1="90.0" x2="266.0" y2="110.5" opacity="0.5" stroke="rgb(0,0,0)"  stroke-width="1.8"/>
<line x1="167.4" y1="205.1" x2="132.3" y2="204.2" opacity="0.6" stroke="rgb(0,0,0)"  stroke-width="1.7"/>
<line x1="167.4" y1="205.1" x2="172.1" y2="211.9" opacity="0.6" stroke="rgb(0,0,0)"  stroke-width="1.3"/>
<line x1="167.4" y1="205.1" x2="181.1" y2="232.4" opacity="0.4" stroke="rgb(0,0,0)"  stroke-width="1.8"/>
<line x1="55.0" y1="101.0" x2="40.2" y2="100.0" opacity="0.6" stroke="rgb(0,0,0)"  stroke-width="2.4"/>
<line x1="55.0" y1="101.0" x2="40.0" y2="128.0" opacity="0.8" stroke="rgb(0,0,0)"  stroke-width="1.9"/>
<line x1="55.0" y1="101.0" x2="46.8" y2="70.3" opacity="0.6" stroke="rgb(0,0,0)"  stroke-width="1.9"/>
<circle cx="135.721723" cy="81.838245" r="5.636364" opacity="0.200000" style="stroke:black;stroke-width:0.5;fill:url(#radialffffffbfbfbf)"/>
<circle cx="81.929694" cy="79.620589" r="5.636364" opacity="0.366714" style="stroke:black;stroke-width:0.5;fill:url(#radialffffffbfbfbf)"/>
<circle cx="116.272328" cy="78.477468" r="13.818182" opacity="0.448615" style="stroke:black;stroke-width:0.5;fill:url(#radialffffff666666)"/>
<circle cx="187.821932" cy="131.550963" r="5.636364" opacity="0.467352" style="stroke:black;stroke-width:0.5;fill:url(#radialffffffbfbfbf)"/>
<circle cx="261.115612" cy="105.876455" r="5.636364" opacity="0.535376" style="stroke:black;stroke-width:0.5;fill:url(#radialffffffbfbfbf)"/>
<circle cx="122.569294" cy="46.169590" r="5.636364" opacity="0.543543" style="stroke:black;stroke-width:0.5;fill:url(#radialffffffbfbfbf)"/>
<circle cx="172.102379" cy="211.909134" r="5.636364" opacity="0.560879" style="stroke:black;stroke-width:0.5;fill:url(#radialffffffbfbfbf)"/>
<circle cx="112.692725" cy="144.915685" r="5.636364" opacity="0.570382" style="stroke:black;stroke-width:0.5;fill:url(#radialffffffbfbfbf)"/>
<circle cx="196.924445" cy="55.357020" r="5.636364" opacity="0.604638" style="stroke:black;stroke-width:0.5;fill:url(#radialffffffbfbfbf)"/>
<circle cx="126.926220" cy="115.214124" r="13.818182" opacity="0.648859" style="stroke:black;stroke-width:0.5;fill:url(#radialffffff666666)"/>
<circle cx="177.461986" cy="122.866506" r="13.818182" opacity="0.665768" style="stroke:black;stroke-width:0.5;fill:url(#radialffffff666666)"/>
<circle cx="253.522020" cy="90.045856" r="13.818182" opacity="0.704829" style="stroke:black;stroke-width:0.5;fill:url(#radialffffff666666)"/>
<circle cx="271.785834" cy="59.273027" r="5.676597" opacity="0.709626" style="stroke:black;stroke-width:0.5;fill:url(#radialffffffbfbfbf)"/>
<circle cx="204.318807" cy="81.100115" r="14.536642" opacity="0.725256" style="stroke:black;stroke-width:0.5;fill:url(#radialffffff666666)"/>
<circle cx="167.392719" cy="205.066735" r="15.175950" opacity="0.741033" style="stroke:black;stroke-width:0.5;fill:url(#radialffffff666666)"/>
<circle cx="40.000000" cy="127.961561" r="6.426125" opacity="0.755023" style="stroke:black;stroke-width:0.5;fill:url(#radialffffffbfbfbf)"/>
<circle cx="46.848930" cy="70.295984" r="6.559987" opacity="0.762846" style="stroke:black;stroke-width:0.5;fill:url(#radialffffffbfbfbf)"/>
<circle cx="132.347882" cy="204.175101" r="6.709992" opacity="0.771519" style="stroke:black;stroke-width:0.5;fill:url(#radialffffffbfbfbf)"/>
<circle cx="225.041966" cy="168.653419" r="7.012237" opacity="0.788704" style="stroke:black;stroke-width:0.5;fill:url(#radialffffffbfbfbf)"/>
<circle cx="189.859954" cy="162.637334" r="17.616888" opacity="0.798407" style="stroke:black;stroke-width:0.5;fill:url(#radialffffff666666)"/>
<circle cx="181.136305" cy="232.374273" r="7.601578" opacity="0.821178" style="stroke:black;stroke-width:0.5;fill:url(#radialffffffbfbfbf)"/>
<circle cx="265.955915" cy="110.481602" r="7.620453" opacity="0.822197" style="stroke:black;stroke-width:0.5;fill:url(#radialffffffbfbfbf)"/>
<circle cx="55.001019" cy="101.019822" r="19.125046" opacity="0.831880" style="stroke:black;stroke-width:0.5;fill:url(#radialffffff666666)"/>
<circle cx="104.227094" cy="107.323320" r="19.871514" opacity="0.847959" style="stroke:black;stroke-width:0.5;fill:url(#radialffffff666666)"/>
<circle cx="116.242934" cy="78.366421" r="9.364882" opacity="0.911458" style="stroke:black;stroke-width:0.5;fill:url(#radialffffffbfbfbf)"/>
<circle cx="168.019803" cy="40.000000" r="9.366372" opacity="0.911531" style="stroke:black;stroke-width:0.5;fill:url(#radialffffffbfbfbf)"/>
<circle cx="195.497176" cy="62.780777" r="23.066835" opacity="0.913595" style="stroke:black;stroke-width:0.5;fill:url(#radialffffff666666)"/>
<circle cx="110.079876" cy="135.084841" r="9.761005" opacity="0.930535" style="stroke:black;stroke-width:0.5;fill:url(#radialffffffbfbfbf)"/>
<circle cx="182.883647" cy="156.317505" r="9.807447" opacity="0.932746" style="stroke:black;stroke-width:0.5;fill:url(#radialffffffbfbfbf)"/>
<circle cx="40.166569" cy="100.026940" r="10.275095" opacity="0.954725" style="stroke:black;stroke-width:0.5;fill:url(#radialffffffbfbfbf)"/>
<circle cx="223.330550" cy="43.321584" r="10.276088" opacity="0.954771" style="stroke:black;stroke-width:0.5;fill:url(#radialffffffbfbfbf)"/>
<circle cx="189.732578" cy="88.037229" r="11.272727" opacity="1.000000" style="stroke:black;stroke-width:0.5;fill:url(#radialffffffbfbfbf)"/>
</svg>
</g>
</svg>
