<?xml version="1.0"?>
<svg version="1.1" id="topsvg"
xmlns="http://www.w3.org/2000/svg" xmlns:xlink="http://www.w3.org/1999/xlink"
xmlns:cml="http://www.xml-cml.org/schema" x="0" y="0" width="200px" height="200px" viewBox="0 0 100 100">
<title>526407 - Open Babel Depiction</title>
<rect x="0" y="0" width="100" height="100" fill="white"/>
<defs>
<radialGradient id='radialffffff666666' cx='50%' cy='50%' r='50%' fx='30%' fy='30%'>
  <stop offset=' 0%' stop-color="rgb(255,255,255)"  stop-opacity='1.0'/>
  <stop offset='100%' stop-color="rgb(102,102,102)"  stop-opacity ='1.0'/>
</radialGradient>
<radialGradient id='radialffffff7fb2ff' cx='50%' cy='50%' r='50%' fx='30%' fy='30%'>
  <stop offset=' 0%' stop-color="rgb(255,255,255)"  stop-opacity='1.0'/>
  <stop offset='100%' stop-color="rgb(127,178,255)"  stop-opacity ='1.0'/>
</radialGradient>
<radialGradient id='radialffffffbfbfbf' cx='50%' cy='50%' r='50%' fx='30%' fy='30%'>
  <stop offset=' 0%' stop-color="rgb(255,255,255)"  stop-opacity='1.0'/>
  <stop offset='100%' stop-color="rgb(191,191,191)"  stop-opacity ='1.0'/>
</radialGradient>
</defs>
<g transform="translate(0,0)">
<svg width="100" height="100" x="0" y="0" viewBox="0 0 509.315 165.662"
font-family="sans-serif" stroke="rgb(0,0,0)" stroke-width="4"  stroke-linecap="round">
<line x1="70.7" y1="53.9" x2="74.2" y2="79.2" opacity="1.0" stroke="rgb(0,0,0)"  stroke-width="0.8"/>
<line x1="40.0" y1="105.7" x2="74.2" y2="79.2" opacity="0.3" stroke="rgb(0,0,0)"  stroke-width="1.5"/>
<line x1="72.0" y1="53.6" x2="74.2" y2="79.2" opacity="0.5" stroke="rgb(0,0,0)"  stroke-width="2.3"/>
<line x1="235.9" y1="70.2" x2="278.9" y2="94.1" opacity="0.8" stroke="rgb(0,0,0)"  stroke-width="1.4"/>
<line x1="235.9" y1="70.2" x2="196.9" y2="100.0" opacity="0.5" stroke="rgb(0,0,0)"  stroke-width="1.5"/>
<line x1="235.9" y1="70.2" x2="234.2" y2="49.1" opacity="0.5" stroke="rgb(0,0,0)"  stroke-width="0.9"/>
<line x1="235.9" y1="70.2" x2="235.0" y2="49.3" opacity="0.3" stroke="rgb(0,0,0)"  stroke-width="2.1"/>
<line x1="278.9" y1="94.1" x2="319.2" y2="65.9" opacity="0.7" stroke="rgb(0,0,0)"  stroke-width="1.4"/>
<line x1="278.9" y1="94.1" x2="279.8" y2="114.8" opacity="0.5" stroke="rgb(0,0,0)"  stroke-width="0.8"/>
<line x1="278.9" y1="94.1" x2="280.1" y2="115.7" opacity="0.3" stroke="rgb(0,0,0)"  stroke-width="2.0"/>
<line x1="196.9" y1="100.0" x2="155.0" y2="74.4" opacity="0.7" stroke="rgb(0,0,0)"  stroke-width="1.5"/>
<line x1="196.9" y1="100.0" x2="198.2" y2="120.7" opacity="0.5" stroke="rgb(0,0,0)"  stroke-width="2.1"/>
<line x1="196.9" y1="100.0" x2="197.9" y2="121.0" opacity="0.7" stroke="rgb(0,0,0)"  stroke-width="0.9"/>
<line x1="319.2" y1="65.9" x2="361.0" y2="91.6" opacity="0.3" stroke="rgb(0,0,0)"  stroke-width="1.5"/>
<line x1="319.2" y1="65.9" x2="318.0" y2="44.6" opacity="0.5" stroke="rgb(0,0,0)"  stroke-width="2.0"/>
<line x1="319.2" y1="65.9" x2="318.8" y2="45.3" opacity="0.7" stroke="rgb(0,0,0)"  stroke-width="0.8"/>
<line x1="155.0" y1="74.4" x2="115.9" y2="104.1" opacity="0.3" stroke="rgb(0,0,0)"  stroke-width="1.5"/>
<line x1="155.0" y1="74.4" x2="153.9" y2="53.8" opacity="0.5" stroke="rgb(0,0,0)"  stroke-width="2.1"/>
<line x1="155.0" y1="74.4" x2="154.1" y2="53.1" opacity="0.7" stroke="rgb(0,0,0)"  stroke-width="0.9"/>
<line x1="361.0" y1="91.6" x2="400.1" y2="61.9" opacity="0.3" stroke="rgb(0,0,0)"  stroke-width="1.5"/>
<line x1="361.0" y1="91.6" x2="362.4" y2="113.1" opacity="0.5" stroke="rgb(0,0,0)"  stroke-width="0.9"/>
<line x1="361.0" y1="91.6" x2="361.6" y2="111.9" opacity="0.3" stroke="rgb(0,0,0)"  stroke-width="2.1"/>
<line x1="115.9" y1="104.1" x2="74.2" y2="79.2" opacity="0.7" stroke="rgb(0,0,0)"  stroke-width="1.5"/>
<line x1="115.9" y1="104.1" x2="116.7" y2="124.2" opacity="0.5" stroke="rgb(0,0,0)"  stroke-width="0.8"/>
<line x1="115.9" y1="104.1" x2="117.0" y2="125.7" opacity="0.3" stroke="rgb(0,0,0)"  stroke-width="2.1"/>
<line x1="400.1" y1="61.9" x2="441.8" y2="87.2" opacity="0.7" stroke="rgb(0,0,0)"  stroke-width="1.5"/>
<line x1="400.1" y1="61.9" x2="400.1" y2="42.2" opacity="0.5" stroke="rgb(0,0,0)"  stroke-width="0.9"/>
<line x1="400.1" y1="61.9" x2="398.5" y2="40.0" opacity="0.3" stroke="rgb(0,0,0)"  stroke-width="2.1"/>
<line x1="441.8" y1="87.2" x2="469.3" y2="65.4" opacity="0.7" stroke="rgb(0,0,0)"  stroke-width="1.6"/>
<line x1="441.8" y1="87.2" x2="443.3" y2="106.5" opacity="0.5" stroke="rgb(0,0,0)"  stroke-width="2.2"/>
<line x1="441.8" y1="87.2" x2="444.9" y2="108.8" opacity="0.7" stroke="rgb(0,0,0)"  stroke-width="1.0"/>
<circle cx="70.749751" cy="53.890195" r="10.363636" opacity="0.200000" style="stroke:black;stroke-width:0.5;fill:url(#radialffffff7fb2ff)"/>
<circle cx="279.767165" cy="114.789404" r="5.636364" opacity="0.262986" style="stroke:black;stroke-width:0.5;fill:url(#radialffffffbfbfbf)"/>
<circle cx="318.802239" cy="45.296700" r="5.636364" opacity="0.268765" style="stroke:black;stroke-width:0.5;fill:url(#radialffffffbfbfbf)"/>
<circle cx="116.693006" cy="124.201480" r="5.636364" opacity="0.273081" style="stroke:black;stroke-width:0.5;fill:url(#radialffffffbfbfbf)"/>
<circle cx="400.082509" cy="42.208563" r="5.636364" opacity="0.277496" style="stroke:black;stroke-width:0.5;fill:url(#radialffffffbfbfbf)"/>
<circle cx="234.209124" cy="49.068592" r="5.636364" opacity="0.293090" style="stroke:black;stroke-width:0.5;fill:url(#radialffffffbfbfbf)"/>
<circle cx="197.896233" cy="120.991359" r="5.636364" opacity="0.302712" style="stroke:black;stroke-width:0.5;fill:url(#radialffffffbfbfbf)"/>
<circle cx="154.078078" cy="53.119765" r="5.636364" opacity="0.307746" style="stroke:black;stroke-width:0.5;fill:url(#radialffffffbfbfbf)"/>
<circle cx="362.379635" cy="113.078410" r="5.636364" opacity="0.309455" style="stroke:black;stroke-width:0.5;fill:url(#radialffffffbfbfbf)"/>
<circle cx="444.886171" cy="108.847470" r="5.636364" opacity="0.362488" style="stroke:black;stroke-width:0.5;fill:url(#radialffffffbfbfbf)"/>
<circle cx="278.887592" cy="94.119434" r="13.818182" opacity="0.690369" style="stroke:black;stroke-width:0.5;fill:url(#radialffffff666666)"/>
<circle cx="319.187454" cy="65.944200" r="13.818182" opacity="0.692624" style="stroke:black;stroke-width:0.5;fill:url(#radialffffff666666)"/>
<circle cx="115.945048" cy="104.064389" r="13.818182" opacity="0.697573" style="stroke:black;stroke-width:0.5;fill:url(#radialffffff666666)"/>
<circle cx="235.949010" cy="70.171929" r="13.818182" opacity="0.698526" style="stroke:black;stroke-width:0.5;fill:url(#radialffffff666666)"/>
<circle cx="400.121030" cy="61.944389" r="13.818182" opacity="0.702323" style="stroke:black;stroke-width:0.5;fill:url(#radialffffff666666)"/>
<circle cx="361.028174" cy="91.641220" r="13.818182" opacity="0.703009" style="stroke:black;stroke-width:0.5;fill:url(#radialffffff666666)"/>
<circle cx="196.917146" cy="99.968275" r="13.818182" opacity="0.703433" style="stroke:black;stroke-width:0.5;fill:url(#radialffffff666666)"/>
<circle cx="154.992963" cy="74.354717" r="13.818182" opacity="0.704019" style="stroke:black;stroke-width:0.5;fill:url(#radialffffff666666)"/>
<circle cx="74.248783" cy="79.153849" r="13.856207" opacity="0.708079" style="stroke:black;stroke-width:0.5;fill:url(#radialffffff666666)"/>
<circle cx="40.000000" cy="105.691921" r="10.560414" opacity="0.713788" style="stroke:black;stroke-width:0.5;fill:url(#radialffffff7fb2ff)"/>
<circle cx="469.315193" cy="65.401689" r="5.896416" opacity="0.723235" style="stroke:black;stroke-width:0.5;fill:url(#radialffffffbfbfbf)"/>
<circle cx="441.798034" cy="87.246564" r="14.506429" opacity="0.724502" style="stroke:black;stroke-width:0.5;fill:url(#radialffffff666666)"/>
<circle cx="280.145959" cy="115.652927" r="9.859242" opacity="0.935206" style="stroke:black;stroke-width:0.5;fill:url(#radialffffffbfbfbf)"/>
<circle cx="318.002919" cy="44.606524" r="9.915595" opacity="0.937875" style="stroke:black;stroke-width:0.5;fill:url(#radialffffffbfbfbf)"/>
<circle cx="117.049330" cy="125.662085" r="9.955404" opacity="0.939756" style="stroke:black;stroke-width:0.5;fill:url(#radialffffffbfbfbf)"/>
<circle cx="398.525600" cy="40.000000" r="9.983322" opacity="0.941072" style="stroke:black;stroke-width:0.5;fill:url(#radialffffffbfbfbf)"/>
<circle cx="235.018075" cy="49.338243" r="10.070696" opacity="0.945182" style="stroke:black;stroke-width:0.5;fill:url(#radialffffffbfbfbf)"/>
<circle cx="198.236506" cy="120.670347" r="10.158586" opacity="0.949297" style="stroke:black;stroke-width:0.5;fill:url(#radialffffffbfbfbf)"/>
<circle cx="153.859790" cy="53.825992" r="10.190641" opacity="0.950794" style="stroke:black;stroke-width:0.5;fill:url(#radialffffffbfbfbf)"/>
<circle cx="361.602786" cy="111.948447" r="10.202015" opacity="0.951324" style="stroke:black;stroke-width:0.5;fill:url(#radialffffffbfbfbf)"/>
<circle cx="443.297161" cy="106.500871" r="10.645086" opacity="0.971762" style="stroke:black;stroke-width:0.5;fill:url(#radialffffffbfbfbf)"/>
<circle cx="71.992068" cy="53.575603" r="20.727273" opacity="1.000000" style="stroke:black;stroke-width:0.5;fill:url(#radialffffff7fb2ff)"/>
</svg>
</g>
</svg>
