<?xml version="1.0"?>
<svg version="1.1" id="topsvg"
xmlns="http://www.w3.org/2000/svg" xmlns:xlink="http://www.w3.org/1999/xlink"
xmlns:cml="http://www.xml-cml.org/schema" x="0" y="0" width="200px" height="200px" viewBox="0 0 100 100">
<title>5326159 - Open Babel Depiction</title>
<rect x="0" y="0" width="100" height="100" fill="white"/>
<defs>
<radialGradient id='radialffffff666666' cx='50%' cy='50%' r='50%' fx='30%' fy='30%'>
  <stop offset=' 0%' stop-color="rgb(255,255,255)"  stop-opacity='1.0'/>
  <stop offset='100%' stop-color="rgb(102,102,102)"  stop-opacity ='1.0'/>
</radialGradient>
<radialGradient id='radialffffffbfbfbf' cx='50%' cy='50%' r='50%' fx='30%' fy='30%'>
  <stop offset=' 0%' stop-color="rgb(255,255,255)"  stop-opacity='1.0'/>
  <stop offset='100%' stop-color="rgb(191,191,191)"  stop-opacity ='1.0'/>
</radialGradient>
</defs>
<g transform="translate(0,0)">
<svg width="100" height="100" x="0" y="0" viewBox="0 0 270.908 207.453"
font-family="sans-serif" stroke="rgb(0,0,0)" stroke-width="2"  stroke-linecap="round">
<line x1="164.8" y1="101.1" x2="176.8" y2="145.7" opacity="1.0" stroke="rgb(0,0,0)"  stroke-width="1.4"/>
<line x1="164.8" y1="101.1" x2="206.0" y2="71.9" opacity="0.5" stroke="rgb(0,0,0)"  stroke-width="1.8"/>
<line x1="164.8" y1="101.1" x2="130.3" y2="77.9" opacity="0.6" stroke="rgb(0,0,0)"  stroke-width="1.3"/>
<line x1="164.8" y1="101.1" x2="152.7" y2="106.7" opacity="0.4" stroke="rgb(0,0,0)"  stroke-width="2.3"/>
<line x1="176.8" y1="145.7" x2="147.8" y2="167.5" opacity="0.8" stroke="rgb(0,0,0)"  stroke-width="1.0"/>
<line x1="176.8" y1="145.7" x2="201.7" y2="162.8" opacity="0.3" stroke="rgb(0,0,0)"  stroke-width="1.4"/>
<line x1="176.8" y1="145.7" x2="190.3" y2="141.6" opacity="0.5" stroke="rgb(0,0,0)"  stroke-width="0.5"/>
<line x1="206.0" y1="71.9" x2="221.3" y2="65.3" opacity="0.2" stroke="rgb(0,0,0)"  stroke-width="1.4"/>
<line x1="206.0" y1="71.9" x2="230.9" y2="88.0" opacity="0.5" stroke="rgb(0,0,0)"  stroke-width="2.2"/>
<line x1="206.0" y1="71.9" x2="197.8" y2="40.0" opacity="0.7" stroke="rgb(0,0,0)"  stroke-width="2.1"/>
<line x1="130.6" y1="80.9" x2="86.9" y2="86.3" opacity="0.7" stroke="rgb(0,0,0)"  stroke-width="0.9"/>
<line x1="129.9" y1="74.9" x2="86.1" y2="80.4" opacity="0.7" stroke="rgb(0,0,0)"  stroke-width="0.9"/>
<line x1="130.3" y1="77.9" x2="141.5" y2="56.3" opacity="0.3" stroke="rgb(0,0,0)"  stroke-width="0.4"/>
<line x1="86.5" y1="83.3" x2="66.6" y2="112.9" opacity="0.1" stroke="rgb(0,0,0)"  stroke-width="1.6"/>
<line x1="86.5" y1="83.3" x2="63.9" y2="65.3" opacity="0.5" stroke="rgb(0,0,0)"  stroke-width="0.7"/>
<line x1="66.6" y1="112.9" x2="89.5" y2="136.7" opacity="0.2" stroke="rgb(0,0,0)"  stroke-width="2.4"/>
<line x1="66.6" y1="112.9" x2="40.0" y2="132.4" opacity="0.8" stroke="rgb(0,0,0)"  stroke-width="1.9"/>
<line x1="66.6" y1="112.9" x2="51.9" y2="93.0" opacity="0.6" stroke="rgb(0,0,0)"  stroke-width="2.6"/>
<circle cx="190.334078" cy="141.633046" r="5.636364" opacity="0.200000" style="stroke:black;stroke-width:0.5;fill:url(#radialffffffbfbfbf)"/>
<circle cx="141.464072" cy="56.257974" r="5.636364" opacity="0.200000" style="stroke:black;stroke-width:0.5;fill:url(#radialffffffbfbfbf)"/>
<circle cx="63.871755" cy="65.329573" r="5.636364" opacity="0.339810" style="stroke:black;stroke-width:0.5;fill:url(#radialffffffbfbfbf)"/>
<circle cx="221.325945" cy="65.332886" r="5.636364" opacity="0.532636" style="stroke:black;stroke-width:0.5;fill:url(#radialffffffbfbfbf)"/>
<circle cx="130.255446" cy="77.919811" r="13.818182" opacity="0.534475" style="stroke:black;stroke-width:0.5;fill:url(#radialffffff666666)"/>
<circle cx="147.828769" cy="167.452976" r="5.636364" opacity="0.578821" style="stroke:black;stroke-width:0.5;fill:url(#radialffffffbfbfbf)"/>
<circle cx="86.507680" cy="83.343554" r="13.818182" opacity="0.588296" style="stroke:black;stroke-width:0.5;fill:url(#radialffffff666666)"/>
<circle cx="176.786319" cy="145.704995" r="13.818182" opacity="0.600122" style="stroke:black;stroke-width:0.5;fill:url(#radialffffff666666)"/>
<circle cx="40.000000" cy="132.385847" r="6.213210" opacity="0.742409" style="stroke:black;stroke-width:0.5;fill:url(#radialffffffbfbfbf)"/>
<circle cx="201.741497" cy="162.811153" r="6.492283" opacity="0.758899" style="stroke:black;stroke-width:0.5;fill:url(#radialffffffbfbfbf)"/>
<circle cx="164.848784" cy="101.062658" r="16.114722" opacity="0.763609" style="stroke:black;stroke-width:0.5;fill:url(#radialffffff666666)"/>
<circle cx="206.032118" cy="71.929508" r="17.441678" opacity="0.794426" style="stroke:black;stroke-width:0.5;fill:url(#radialffffff666666)"/>
<circle cx="66.601849" cy="112.940555" r="19.760399" opacity="0.845585" style="stroke:black;stroke-width:0.5;fill:url(#radialffffff666666)"/>
<circle cx="197.798765" cy="40.000000" r="8.958507" opacity="0.891463" style="stroke:black;stroke-width:0.5;fill:url(#radialffffffbfbfbf)"/>
<circle cx="230.907780" cy="88.031761" r="9.658202" opacity="0.925622" style="stroke:black;stroke-width:0.5;fill:url(#radialffffffbfbfbf)"/>
<circle cx="89.509458" cy="136.663215" r="9.860470" opacity="0.935264" style="stroke:black;stroke-width:0.5;fill:url(#radialffffffbfbfbf)"/>
<circle cx="152.719083" cy="106.662001" r="10.670346" opacity="0.972915" style="stroke:black;stroke-width:0.5;fill:url(#radialffffffbfbfbf)"/>
<circle cx="51.920968" cy="92.971773" r="11.272727" opacity="1.000000" style="stroke:black;stroke-width:0.5;fill:url(#radialffffffbfbfbf)"/>
</svg>
</g>
</svg>
