<?xml version="1.0"?>
<svg version="1.1" id="topsvg"
xmlns="http://www.w3.org/2000/svg" xmlns:xlink="http://www.w3.org/1999/xlink"
xmlns:cml="http://www.xml-cml.org/schema" x="0" y="0" width="200px" height="200px" viewBox="0 0 100 100">
<title>5326160 - Open Babel Depiction</title>
<rect x="0" y="0" width="100" height="100" fill="white"/>
<defs>
<radialGradient id='radialffffff666666' cx='50%' cy='50%' r='50%' fx='30%' fy='30%'>
  <stop offset=' 0%' stop-color="rgb(255,255,255)"  stop-opacity='1.0'/>
  <stop offset='100%' stop-color="rgb(102,102,102)"  stop-opacity ='1.0'/>
</radialGradient>
<radialGradient id='radialffffffbfbfbf' cx='50%' cy='50%' r='50%' fx='30%' fy='30%'>
  <stop offset=' 0%' stop-color="rgb(255,255,255)"  stop-opacity='1.0'/>
  <stop offset='100%' stop-color="rgb(191,191,191)"  stop-opacity ='1.0'/>
</radialGradient>
</defs>
<g transform="translate(0,0)">
<svg width="100" height="100" x="0" y="0" viewBox="0 0 250.589 197.211"
font-family="sans-serif" stroke="rgb(0,0,0)" stroke-width="2"  stroke-linecap="round">
<line x1="94.9" y1="99.0" x2="131.7" y2="123.9" opacity="1.0" stroke="rgb(0,0,0)"  stroke-width="1.3"/>
<line x1="94.9" y1="99.0" x2="67.5" y2="72.0" opacity="0.4" stroke="rgb(0,0,0)"  stroke-width="1.5"/>
<line x1="94.9" y1="99.0" x2="73.2" y2="123.5" opacity="0.5" stroke="rgb(0,0,0)"  stroke-width="0.7"/>
<line x1="94.9" y1="99.0" x2="107.4" y2="77.6" opacity="0.2" stroke="rgb(0,0,0)"  stroke-width="0.5"/>
<line x1="130.6" y1="121.2" x2="171.6" y2="104.5" opacity="0.2" stroke="rgb(0,0,0)"  stroke-width="1.9"/>
<line x1="132.9" y1="126.7" x2="173.9" y2="110.1" opacity="0.2" stroke="rgb(0,0,0)"  stroke-width="1.9"/>
<line x1="131.7" y1="123.9" x2="124.2" y2="157.2" opacity="0.6" stroke="rgb(0,0,0)"  stroke-width="2.0"/>
<line x1="67.5" y1="72.0" x2="40.0" y2="55.2" opacity="0.7" stroke="rgb(0,0,0)"  stroke-width="1.8"/>
<line x1="67.5" y1="72.0" x2="87.7" y2="46.3" opacity="0.6" stroke="rgb(0,0,0)"  stroke-width="2.4"/>
<line x1="67.5" y1="72.0" x2="53.1" y2="93.3" opacity="0.8" stroke="rgb(0,0,0)"  stroke-width="2.5"/>
<line x1="172.8" y1="107.3" x2="186.9" y2="61.9" opacity="0.8" stroke="rgb(0,0,0)"  stroke-width="1.7"/>
<line x1="172.8" y1="107.3" x2="197.5" y2="127.7" opacity="0.6" stroke="rgb(0,0,0)"  stroke-width="2.3"/>
<line x1="186.9" y1="61.9" x2="204.0" y2="45.2" opacity="0.8" stroke="rgb(0,0,0)"  stroke-width="1.9"/>
<line x1="186.9" y1="61.9" x2="159.7" y2="40.0" opacity="0.6" stroke="rgb(0,0,0)"  stroke-width="1.3"/>
<line x1="186.9" y1="61.9" x2="210.6" y2="64.8" opacity="0.4" stroke="rgb(0,0,0)"  stroke-width="1.0"/>
<circle cx="107.406255" cy="77.638078" r="5.636364" opacity="0.200000" style="stroke:black;stroke-width:0.5;fill:url(#radialffffffbfbfbf)"/>
<circle cx="73.211050" cy="123.486341" r="5.636364" opacity="0.349165" style="stroke:black;stroke-width:0.5;fill:url(#radialffffffbfbfbf)"/>
<circle cx="210.589034" cy="64.777345" r="5.636364" opacity="0.402440" style="stroke:black;stroke-width:0.5;fill:url(#radialffffffbfbfbf)"/>
<circle cx="94.939184" cy="99.029264" r="13.818182" opacity="0.559691" style="stroke:black;stroke-width:0.5;fill:url(#radialffffff666666)"/>
<circle cx="159.743267" cy="40.000000" r="5.636364" opacity="0.603386" style="stroke:black;stroke-width:0.5;fill:url(#radialffffffbfbfbf)"/>
<circle cx="186.932624" cy="61.908284" r="13.818182" opacity="0.696181" style="stroke:black;stroke-width:0.5;fill:url(#radialffffff666666)"/>
<circle cx="40.000000" cy="55.242721" r="5.636364" opacity="0.704322" style="stroke:black;stroke-width:0.5;fill:url(#radialffffffbfbfbf)"/>
<circle cx="131.749904" cy="123.936717" r="16.070129" opacity="0.762552" style="stroke:black;stroke-width:0.5;fill:url(#radialffffff666666)"/>
<circle cx="172.754125" cy="107.292827" r="18.168290" opacity="0.810805" style="stroke:black;stroke-width:0.5;fill:url(#radialffffff666666)"/>
<circle cx="67.486272" cy="71.953334" r="19.285661" opacity="0.835366" style="stroke:black;stroke-width:0.5;fill:url(#radialffffff666666)"/>
<circle cx="124.240304" cy="157.211153" r="8.170951" opacity="0.851377" style="stroke:black;stroke-width:0.5;fill:url(#radialffffffbfbfbf)"/>
<circle cx="204.036899" cy="45.150965" r="9.093017" opacity="0.898131" style="stroke:black;stroke-width:0.5;fill:url(#radialffffffbfbfbf)"/>
<circle cx="197.464748" cy="127.743227" r="9.630378" opacity="0.924288" style="stroke:black;stroke-width:0.5;fill:url(#radialffffffbfbfbf)"/>
<circle cx="87.679792" cy="46.301926" r="10.020787" opacity="0.942837" style="stroke:black;stroke-width:0.5;fill:url(#radialffffffbfbfbf)"/>
<circle cx="53.084253" cy="93.331175" r="11.272727" opacity="1.000000" style="stroke:black;stroke-width:0.5;fill:url(#radialffffffbfbfbf)"/>
</svg>
</g>
</svg>
