<?xml version="1.0"?>
<svg version="1.1" id="topsvg"
xmlns="http://www.w3.org/2000/svg" xmlns:xlink="http://www.w3.org/1999/xlink"
xmlns:cml="http://www.xml-cml.org/schema" x="0" y="0" width="200px" height="200px" viewBox="0 0 100 100">
<title>61235 - Open Babel Depiction</title>
<rect x="0" y="0" width="100" height="100" fill="white"/>
<defs>
<radialGradient id='radialffffff666666' cx='50%' cy='50%' r='50%' fx='30%' fy='30%'>
  <stop offset=' 0%' stop-color="rgb(255,255,255)"  stop-opacity='1.0'/>
  <stop offset='100%' stop-color="rgb(102,102,102)"  stop-opacity ='1.0'/>
</radialGradient>
<radialGradient id='radialffffffbfbfbf' cx='50%' cy='50%' r='50%' fx='30%' fy='30%'>
  <stop offset=' 0%' stop-color="rgb(255,255,255)"  stop-opacity='1.0'/>
  <stop offset='100%' stop-color="rgb(191,191,191)"  stop-opacity ='1.0'/>
</radialGradient>
<radialGradient id='radialffffffffcc' cx='50%' cy='50%' r='50%' fx='30%' fy='30%'>
  <stop offset=' 0%' stop-color="rgb(255,255,255)"  stop-opacity='1.0'/>
  <stop offset='100%' stop-color="rgb(255,12,12)"  stop-opacity ='1.0'/>
</radialGradient>
</defs>
<g transform="translate(0,0)">
<svg width="100" height="100" x="0" y="0" viewBox="0 0 468.126 169.744"
font-family="sans-serif" stroke="rgb(0,0,0)" stroke-width="4"  stroke-linecap="round">
<line x1="315.4" y1="129.8" x2="314.2" y2="89.8" opacity="1.0" stroke="rgb(0,0,0)"  stroke-width="1.5"/>
<line x1="321.4" y1="129.6" x2="320.2" y2="89.6" opacity="1.0" stroke="rgb(0,0,0)"  stroke-width="1.5"/>
<line x1="191.7" y1="67.2" x2="234.0" y2="93.6" opacity="0.5" stroke="rgb(0,0,0)"  stroke-width="1.4"/>
<line x1="191.7" y1="67.2" x2="151.8" y2="97.1" opacity="0.5" stroke="rgb(0,0,0)"  stroke-width="1.4"/>
<line x1="191.7" y1="67.2" x2="190.2" y2="45.9" opacity="0.5" stroke="rgb(0,0,0)"  stroke-width="0.7"/>
<line x1="191.7" y1="67.2" x2="191.3" y2="46.2" opacity="0.2" stroke="rgb(0,0,0)"  stroke-width="2.1"/>
<line x1="234.0" y1="93.6" x2="274.4" y2="64.6" opacity="0.7" stroke="rgb(0,0,0)"  stroke-width="1.4"/>
<line x1="234.0" y1="93.6" x2="234.6" y2="114.4" opacity="0.5" stroke="rgb(0,0,0)"  stroke-width="0.7"/>
<line x1="234.0" y1="93.6" x2="234.9" y2="115.5" opacity="0.2" stroke="rgb(0,0,0)"  stroke-width="2.0"/>
<line x1="151.8" y1="97.1" x2="109.5" y2="70.9" opacity="0.7" stroke="rgb(0,0,0)"  stroke-width="1.5"/>
<line x1="151.8" y1="97.1" x2="151.6" y2="117.6" opacity="0.5" stroke="rgb(0,0,0)"  stroke-width="0.8"/>
<line x1="151.8" y1="97.1" x2="153.8" y2="119.1" opacity="0.3" stroke="rgb(0,0,0)"  stroke-width="2.1"/>
<line x1="274.4" y1="64.6" x2="317.2" y2="89.7" opacity="0.7" stroke="rgb(0,0,0)"  stroke-width="1.4"/>
<line x1="274.4" y1="64.6" x2="274.9" y2="44.1" opacity="0.5" stroke="rgb(0,0,0)"  stroke-width="0.7"/>
<line x1="274.4" y1="64.6" x2="273.5" y2="43.3" opacity="0.2" stroke="rgb(0,0,0)"  stroke-width="2.1"/>
<line x1="109.5" y1="70.9" x2="69.9" y2="100.5" opacity="0.7" stroke="rgb(0,0,0)"  stroke-width="1.6"/>
<line x1="109.5" y1="70.9" x2="109.8" y2="50.0" opacity="0.5" stroke="rgb(0,0,0)"  stroke-width="2.2"/>
<line x1="109.5" y1="70.9" x2="106.9" y2="49.5" opacity="0.7" stroke="rgb(0,0,0)"  stroke-width="0.9"/>
<line x1="317.2" y1="89.7" x2="358.1" y2="62.0" opacity="0.3" stroke="rgb(0,0,0)"  stroke-width="1.5"/>
<line x1="69.9" y1="100.5" x2="40.0" y2="81.1" opacity="0.5" stroke="rgb(0,0,0)"  stroke-width="1.7"/>
<line x1="69.9" y1="100.5" x2="68.0" y2="121.2" opacity="0.6" stroke="rgb(0,0,0)"  stroke-width="1.0"/>
<line x1="69.9" y1="100.5" x2="70.9" y2="121.6" opacity="0.3" stroke="rgb(0,0,0)"  stroke-width="2.3"/>
<line x1="358.1" y1="62.0" x2="399.5" y2="89.1" opacity="0.8" stroke="rgb(0,0,0)"  stroke-width="1.6"/>
<line x1="358.1" y1="62.0" x2="356.3" y2="42.5" opacity="0.5" stroke="rgb(0,0,0)"  stroke-width="2.3"/>
<line x1="358.1" y1="62.0" x2="358.6" y2="40.0" opacity="0.8" stroke="rgb(0,0,0)"  stroke-width="0.9"/>
<line x1="399.5" y1="89.1" x2="400.1" y2="111.1" opacity="0.3" stroke="rgb(0,0,0)"  stroke-width="2.3"/>
<line x1="399.5" y1="89.1" x2="428.1" y2="67.9" opacity="0.8" stroke="rgb(0,0,0)"  stroke-width="1.7"/>
<line x1="399.5" y1="89.1" x2="402.1" y2="108.9" opacity="0.6" stroke="rgb(0,0,0)"  stroke-width="0.9"/>
<circle cx="234.626831" cy="114.396882" r="5.636364" opacity="0.200000" style="stroke:black;stroke-width:0.5;fill:url(#radialffffffbfbfbf)"/>
<circle cx="274.872882" cy="44.101488" r="5.636364" opacity="0.200000" style="stroke:black;stroke-width:0.5;fill:url(#radialffffffbfbfbf)"/>
<circle cx="151.616499" cy="117.582946" r="5.636364" opacity="0.200000" style="stroke:black;stroke-width:0.5;fill:url(#radialffffffbfbfbf)"/>
<circle cx="190.240198" cy="45.883468" r="5.636364" opacity="0.200000" style="stroke:black;stroke-width:0.5;fill:url(#radialffffffbfbfbf)"/>
<circle cx="106.939928" cy="49.470234" r="5.636364" opacity="0.266940" style="stroke:black;stroke-width:0.5;fill:url(#radialffffffbfbfbf)"/>
<circle cx="402.100444" cy="108.888053" r="5.636364" opacity="0.271409" style="stroke:black;stroke-width:0.5;fill:url(#radialffffffbfbfbf)"/>
<circle cx="68.036063" cy="121.176228" r="5.636364" opacity="0.299731" style="stroke:black;stroke-width:0.5;fill:url(#radialffffffbfbfbf)"/>
<circle cx="358.554308" cy="40.000000" r="5.636364" opacity="0.301009" style="stroke:black;stroke-width:0.5;fill:url(#radialffffffbfbfbf)"/>
<circle cx="234.011119" cy="93.602763" r="13.818182" opacity="0.675772" style="stroke:black;stroke-width:0.5;fill:url(#radialffffff666666)"/>
<circle cx="274.442861" cy="64.576349" r="13.818182" opacity="0.680979" style="stroke:black;stroke-width:0.5;fill:url(#radialffffff666666)"/>
<circle cx="191.650797" cy="67.237918" r="13.818182" opacity="0.685847" style="stroke:black;stroke-width:0.5;fill:url(#radialffffff666666)"/>
<circle cx="151.776128" cy="97.134147" r="13.818182" opacity="0.693419" style="stroke:black;stroke-width:0.5;fill:url(#radialffffff666666)"/>
<circle cx="317.151760" cy="89.699997" r="13.818182" opacity="0.698567" style="stroke:black;stroke-width:0.5;fill:url(#radialffffff666666)"/>
<circle cx="318.445081" cy="129.744069" r="12.000000" opacity="0.699043" style="stroke:black;stroke-width:0.5;fill:url(#radialffffffffcc)"/>
<circle cx="109.513538" cy="70.912642" r="14.321111" opacity="0.719860" style="stroke:black;stroke-width:0.5;fill:url(#radialffffff666666)"/>
<circle cx="358.098225" cy="61.999481" r="14.696009" opacity="0.729221" style="stroke:black;stroke-width:0.5;fill:url(#radialffffff666666)"/>
<circle cx="399.481226" cy="89.061481" r="14.865775" opacity="0.733421" style="stroke:black;stroke-width:0.5;fill:url(#radialffffff666666)"/>
<circle cx="69.853879" cy="100.518933" r="15.082225" opacity="0.738741" style="stroke:black;stroke-width:0.5;fill:url(#radialffffff666666)"/>
<circle cx="428.126485" cy="67.918784" r="6.384513" opacity="0.752574" style="stroke:black;stroke-width:0.5;fill:url(#radialffffffbfbfbf)"/>
<circle cx="40.000000" cy="81.089805" r="6.442795" opacity="0.756001" style="stroke:black;stroke-width:0.5;fill:url(#radialffffffbfbfbf)"/>
<circle cx="234.903738" cy="115.546862" r="10.144589" opacity="0.948643" style="stroke:black;stroke-width:0.5;fill:url(#radialffffffbfbfbf)"/>
<circle cx="273.472057" cy="43.270765" r="10.299816" opacity="0.955873" style="stroke:black;stroke-width:0.5;fill:url(#radialffffffbfbfbf)"/>
<circle cx="153.766603" cy="119.074989" r="10.403686" opacity="0.960681" style="stroke:black;stroke-width:0.5;fill:url(#radialffffffbfbfbf)"/>
<circle cx="191.341313" cy="46.222273" r="10.420997" opacity="0.961480" style="stroke:black;stroke-width:0.5;fill:url(#radialffffffbfbfbf)"/>
<circle cx="109.780672" cy="50.043595" r="10.974968" opacity="0.986705" style="stroke:black;stroke-width:0.5;fill:url(#radialffffffbfbfbf)"/>
<circle cx="400.116484" cy="111.106570" r="11.030365" opacity="0.989192" style="stroke:black;stroke-width:0.5;fill:url(#radialffffffbfbfbf)"/>
<circle cx="70.906127" cy="121.622537" r="11.240989" opacity="0.998591" style="stroke:black;stroke-width:0.5;fill:url(#radialffffffbfbfbf)"/>
<circle cx="356.322760" cy="42.472620" r="11.272727" opacity="1.000000" style="stroke:black;stroke-width:0.5;fill:url(#radialffffffbfbfbf)"/>
</svg>
</g>
</svg>
