<?xml version="1.0"?>
<svg version="1.1" id="topsvg"
xmlns="http://www.w3.org/2000/svg" xmlns:xlink="http://www.w3.org/1999/xlink"
xmlns:cml="http://www.xml-cml.org/schema" x="0" y="0" width="1024px" height="1024px" viewBox="0 0 100 100">
<title>62570 - Open Babel Depiction</title>
<rect x="0" y="0" width="100" height="100" fill="white"/>
<defs>
<radialGradient id='radialffffff666666' cx='50%' cy='50%' r='50%' fx='30%' fy='30%'>
  <stop offset=' 0%' stop-color="rgb(255,255,255)"  stop-opacity='1.0'/>
  <stop offset='100%' stop-color="rgb(102,102,102)"  stop-opacity ='1.0'/>
</radialGradient>
<radialGradient id='radialffffffb2b20' cx='50%' cy='50%' r='50%' fx='30%' fy='30%'>
  <stop offset=' 0%' stop-color="rgb(255,255,255)"  stop-opacity='1.0'/>
  <stop offset='100%' stop-color="rgb(178,178,0)"  stop-opacity ='1.0'/>
</radialGradient>
<radialGradient id='radialffffffbfbfbf' cx='50%' cy='50%' r='50%' fx='30%' fy='30%'>
  <stop offset=' 0%' stop-color="rgb(255,255,255)"  stop-opacity='1.0'/>
  <stop offset='100%' stop-color="rgb(191,191,191)"  stop-opacity ='1.0'/>
</radialGradient>
</defs>
<g transform="translate(0,0)">
<svg width="100" height="100" x="0" y="0" viewBox="0 0 567.225 158.532"
font-family="sans-serif" stroke="rgb(0,0,0)" stroke-width="2"  stroke-linecap="round">
<line x1="40.0" y1="64.6" x2="88.4" y2="96.9" opacity="1.0" stroke="rgb(0,0,0)"  stroke-width="1.7"/>
<line x1="40.0" y1="64.6" x2="44.8" y2="45.2" opacity="0.6" stroke="rgb(0,0,0)"  stroke-width="0.9"/>
<line x1="294.4" y1="67.4" x2="253.5" y2="94.5" opacity="0.3" stroke="rgb(0,0,0)"  stroke-width="1.4"/>
<line x1="294.4" y1="67.4" x2="335.5" y2="94.0" opacity="0.5" stroke="rgb(0,0,0)"  stroke-width="1.4"/>
<line x1="294.4" y1="67.4" x2="294.3" y2="48.9" opacity="0.5" stroke="rgb(0,0,0)"  stroke-width="0.7"/>
<line x1="294.4" y1="67.4" x2="293.9" y2="44.2" opacity="0.2" stroke="rgb(0,0,0)"  stroke-width="1.9"/>
<line x1="253.5" y1="94.5" x2="211.2" y2="69.4" opacity="0.6" stroke="rgb(0,0,0)"  stroke-width="1.4"/>
<line x1="253.5" y1="94.5" x2="253.6" y2="117.1" opacity="0.5" stroke="rgb(0,0,0)"  stroke-width="0.8"/>
<line x1="253.5" y1="94.5" x2="254.2" y2="113.9" opacity="0.3" stroke="rgb(0,0,0)"  stroke-width="2.0"/>
<line x1="335.5" y1="94.0" x2="375.2" y2="65.2" opacity="0.7" stroke="rgb(0,0,0)"  stroke-width="1.4"/>
<line x1="335.5" y1="94.0" x2="337.1" y2="115.9" opacity="0.5" stroke="rgb(0,0,0)"  stroke-width="0.8"/>
<line x1="335.5" y1="94.0" x2="335.0" y2="113.8" opacity="0.3" stroke="rgb(0,0,0)"  stroke-width="2.1"/>
<line x1="211.2" y1="69.4" x2="170.3" y2="96.6" opacity="0.7" stroke="rgb(0,0,0)"  stroke-width="1.4"/>
<line x1="211.2" y1="69.4" x2="210.5" y2="47.9" opacity="0.5" stroke="rgb(0,0,0)"  stroke-width="2.0"/>
<line x1="211.2" y1="69.4" x2="210.9" y2="48.8" opacity="0.7" stroke="rgb(0,0,0)"  stroke-width="0.7"/>
<line x1="375.2" y1="65.2" x2="417.5" y2="90.1" opacity="0.2" stroke="rgb(0,0,0)"  stroke-width="1.5"/>
<line x1="375.2" y1="65.2" x2="373.5" y2="43.7" opacity="0.5" stroke="rgb(0,0,0)"  stroke-width="2.1"/>
<line x1="375.2" y1="65.2" x2="375.1" y2="44.8" opacity="0.7" stroke="rgb(0,0,0)"  stroke-width="0.8"/>
<line x1="170.3" y1="96.6" x2="129.2" y2="69.9" opacity="0.3" stroke="rgb(0,0,0)"  stroke-width="1.4"/>
<line x1="170.3" y1="96.6" x2="171.2" y2="118.5" opacity="0.5" stroke="rgb(0,0,0)"  stroke-width="2.0"/>
<line x1="170.3" y1="96.6" x2="169.7" y2="116.6" opacity="0.7" stroke="rgb(0,0,0)"  stroke-width="0.7"/>
<line x1="417.5" y1="90.1" x2="458.3" y2="62.8" opacity="0.2" stroke="rgb(0,0,0)"  stroke-width="1.5"/>
<line x1="417.5" y1="90.1" x2="418.6" y2="112.1" opacity="0.5" stroke="rgb(0,0,0)"  stroke-width="0.9"/>
<line x1="417.5" y1="90.1" x2="417.4" y2="110.2" opacity="0.3" stroke="rgb(0,0,0)"  stroke-width="2.2"/>
<line x1="129.2" y1="69.9" x2="88.4" y2="96.9" opacity="0.7" stroke="rgb(0,0,0)"  stroke-width="1.5"/>
<line x1="129.2" y1="69.9" x2="131.1" y2="48.7" opacity="0.5" stroke="rgb(0,0,0)"  stroke-width="2.1"/>
<line x1="129.2" y1="69.9" x2="127.7" y2="49.1" opacity="0.7" stroke="rgb(0,0,0)"  stroke-width="0.8"/>
<line x1="458.3" y1="62.8" x2="499.2" y2="89.0" opacity="0.3" stroke="rgb(0,0,0)"  stroke-width="1.6"/>
<line x1="458.3" y1="62.8" x2="456.9" y2="40.0" opacity="0.5" stroke="rgb(0,0,0)"  stroke-width="2.1"/>
<line x1="458.3" y1="62.8" x2="459.4" y2="43.9" opacity="0.7" stroke="rgb(0,0,0)"  stroke-width="0.9"/>
<line x1="88.4" y1="96.9" x2="85.9" y2="117.9" opacity="0.3" stroke="rgb(0,0,0)"  stroke-width="1.0"/>
<line x1="88.4" y1="96.9" x2="89.5" y2="117.3" opacity="0.3" stroke="rgb(0,0,0)"  stroke-width="2.2"/>
<line x1="499.2" y1="89.0" x2="499.6" y2="107.4" opacity="0.7" stroke="rgb(0,0,0)"  stroke-width="2.3"/>
<line x1="499.2" y1="89.0" x2="527.2" y2="67.9" opacity="0.8" stroke="rgb(0,0,0)"  stroke-width="1.7"/>
<line x1="499.2" y1="89.0" x2="502.2" y2="111.5" opacity="0.6" stroke="rgb(0,0,0)"  stroke-width="1.1"/>
<circle cx="294.347366" cy="48.884210" r="5.636364" opacity="0.200000" style="stroke:black;stroke-width:0.5;fill:url(#radialffffffbfbfbf)"/>
<circle cx="44.762603" cy="45.214506" r="5.636364" opacity="0.200000" style="stroke:black;stroke-width:0.5;fill:url(#radialffffffbfbfbf)"/>
<circle cx="169.689594" cy="116.637528" r="5.636364" opacity="0.200000" style="stroke:black;stroke-width:0.5;fill:url(#radialffffffbfbfbf)"/>
<circle cx="210.940917" cy="48.791265" r="5.636364" opacity="0.200000" style="stroke:black;stroke-width:0.5;fill:url(#radialffffffbfbfbf)"/>
<circle cx="375.125731" cy="44.791448" r="5.636364" opacity="0.255593" style="stroke:black;stroke-width:0.5;fill:url(#radialffffffbfbfbf)"/>
<circle cx="127.723561" cy="49.134199" r="5.636364" opacity="0.268837" style="stroke:black;stroke-width:0.5;fill:url(#radialffffffbfbfbf)"/>
<circle cx="337.130670" cy="115.942047" r="5.636364" opacity="0.272650" style="stroke:black;stroke-width:0.5;fill:url(#radialffffffbfbfbf)"/>
<circle cx="459.432781" cy="43.871618" r="5.636364" opacity="0.273166" style="stroke:black;stroke-width:0.5;fill:url(#radialffffffbfbfbf)"/>
<circle cx="253.602431" cy="117.137505" r="5.636364" opacity="0.273596" style="stroke:black;stroke-width:0.5;fill:url(#radialffffffbfbfbf)"/>
<circle cx="418.649386" cy="112.108889" r="5.636364" opacity="0.328329" style="stroke:black;stroke-width:0.5;fill:url(#radialffffffbfbfbf)"/>
<circle cx="85.901751" cy="117.861831" r="5.636364" opacity="0.346074" style="stroke:black;stroke-width:0.5;fill:url(#radialffffffbfbfbf)"/>
<circle cx="502.161600" cy="111.471097" r="5.636364" opacity="0.412688" style="stroke:black;stroke-width:0.5;fill:url(#radialffffffbfbfbf)"/>
<circle cx="294.373006" cy="67.441055" r="13.818182" opacity="0.661216" style="stroke:black;stroke-width:0.5;fill:url(#radialffffff666666)"/>
<circle cx="170.317771" cy="96.641646" r="13.818182" opacity="0.674636" style="stroke:black;stroke-width:0.5;fill:url(#radialffffff666666)"/>
<circle cx="211.203725" cy="69.431349" r="13.818182" opacity="0.674915" style="stroke:black;stroke-width:0.5;fill:url(#radialffffff666666)"/>
<circle cx="253.455002" cy="94.471873" r="13.818182" opacity="0.684580" style="stroke:black;stroke-width:0.5;fill:url(#radialffffff666666)"/>
<circle cx="335.512154" cy="94.039200" r="13.818182" opacity="0.689941" style="stroke:black;stroke-width:0.5;fill:url(#radialffffff666666)"/>
<circle cx="375.167396" cy="65.171928" r="13.818182" opacity="0.696339" style="stroke:black;stroke-width:0.5;fill:url(#radialffffff666666)"/>
<circle cx="129.210672" cy="69.851202" r="13.818182" opacity="0.698526" style="stroke:black;stroke-width:0.5;fill:url(#radialffffff666666)"/>
<circle cx="458.256553" cy="62.832291" r="14.024404" opacity="0.712364" style="stroke:black;stroke-width:0.5;fill:url(#radialffffff666666)"/>
<circle cx="417.450723" cy="90.065023" r="14.062017" opacity="0.713318" style="stroke:black;stroke-width:0.5;fill:url(#radialffffff666666)"/>
<circle cx="88.411252" cy="96.865995" r="14.643070" opacity="0.727907" style="stroke:black;stroke-width:0.5;fill:url(#radialffffff666666)"/>
<circle cx="527.224559" cy="67.899368" r="6.293428" opacity="0.747187" style="stroke:black;stroke-width:0.5;fill:url(#radialffffffbfbfbf)"/>
<circle cx="499.206607" cy="88.994559" r="15.540591" opacity="0.749883" style="stroke:black;stroke-width:0.5;fill:url(#radialffffff666666)"/>
<circle cx="40.000000" cy="64.591826" r="21.802055" opacity="0.755650" style="stroke:black;stroke-width:0.5;fill:url(#radialffffffb2b20)"/>
<circle cx="293.879439" cy="44.195321" r="9.283018" opacity="0.907465" style="stroke:black;stroke-width:0.5;fill:url(#radialffffffbfbfbf)"/>
<circle cx="171.240805" cy="118.531672" r="9.669215" opacity="0.926150" style="stroke:black;stroke-width:0.5;fill:url(#radialffffffbfbfbf)"/>
<circle cx="210.546704" cy="47.916305" r="9.725822" opacity="0.928857" style="stroke:black;stroke-width:0.5;fill:url(#radialffffffbfbfbf)"/>
<circle cx="373.526445" cy="43.650474" r="10.046419" opacity="0.944042" style="stroke:black;stroke-width:0.5;fill:url(#radialffffffbfbfbf)"/>
<circle cx="254.204968" cy="113.910088" r="10.119426" opacity="0.947466" style="stroke:black;stroke-width:0.5;fill:url(#radialffffffbfbfbf)"/>
<circle cx="456.948920" cy="40.000000" r="10.125245" opacity="0.947738" style="stroke:black;stroke-width:0.5;fill:url(#radialffffffbfbfbf)"/>
<circle cx="131.056742" cy="48.675886" r="10.126832" opacity="0.947812" style="stroke:black;stroke-width:0.5;fill:url(#radialffffffbfbfbf)"/>
<circle cx="334.999357" cy="113.788299" r="10.163865" opacity="0.949544" style="stroke:black;stroke-width:0.5;fill:url(#radialffffffbfbfbf)"/>
<circle cx="417.412263" cy="110.176284" r="10.499275" opacity="0.965084" style="stroke:black;stroke-width:0.5;fill:url(#radialffffffbfbfbf)"/>
<circle cx="89.481716" cy="117.272114" r="10.681793" opacity="0.973436" style="stroke:black;stroke-width:0.5;fill:url(#radialffffffbfbfbf)"/>
<circle cx="499.629665" cy="107.355900" r="11.272727" opacity="1.000000" style="stroke:black;stroke-width:0.5;fill:url(#radialffffffbfbfbf)"/>
</svg>
</g>
</svg>
