<?xml version="1.0"?>
<svg version="1.1" id="topsvg"
xmlns="http://www.w3.org/2000/svg" xmlns:xlink="http://www.w3.org/1999/xlink"
xmlns:cml="http://www.xml-cml.org/schema" x="0" y="0" width="200px" height="200px" viewBox="0 0 100 100">
<title>639661 - Open Babel Depiction</title>
<rect x="0" y="0" width="100" height="100" fill="white"/>
<defs>
<radialGradient id='radialffffff666666' cx='50%' cy='50%' r='50%' fx='30%' fy='30%'>
  <stop offset=' 0%' stop-color="rgb(255,255,255)"  stop-opacity='1.0'/>
  <stop offset='100%' stop-color="rgb(102,102,102)"  stop-opacity ='1.0'/>
</radialGradient>
<radialGradient id='radialffffffbfbfbf' cx='50%' cy='50%' r='50%' fx='30%' fy='30%'>
  <stop offset=' 0%' stop-color="rgb(255,255,255)"  stop-opacity='1.0'/>
  <stop offset='100%' stop-color="rgb(191,191,191)"  stop-opacity ='1.0'/>
</radialGradient>
</defs>
<g transform="translate(0,0)">
<svg width="100" height="100" x="0" y="0" viewBox="0 0 333.224 168.921"
font-family="sans-serif" stroke="rgb(0,0,0)" stroke-width="2"  stroke-linecap="round">
<line x1="223.3" y1="65.6" x2="189.5" y2="103.4" opacity="1.0" stroke="rgb(0,0,0)"  stroke-width="1.6"/>
<line x1="223.3" y1="65.6" x2="269.6" y2="82.1" opacity="0.5" stroke="rgb(0,0,0)"  stroke-width="1.4"/>
<line x1="223.3" y1="65.6" x2="213.7" y2="40.0" opacity="0.5" stroke="rgb(0,0,0)"  stroke-width="1.2"/>
<line x1="223.3" y1="65.6" x2="223.8" y2="49.8" opacity="0.4" stroke="rgb(0,0,0)"  stroke-width="2.1"/>
<line x1="189.5" y1="103.4" x2="144.0" y2="87.1" opacity="0.7" stroke="rgb(0,0,0)"  stroke-width="1.8"/>
<line x1="189.5" y1="103.4" x2="199.2" y2="128.9" opacity="0.6" stroke="rgb(0,0,0)"  stroke-width="1.9"/>
<line x1="189.5" y1="103.4" x2="189.5" y2="119.2" opacity="0.6" stroke="rgb(0,0,0)"  stroke-width="1.0"/>
<line x1="269.6" y1="82.1" x2="293.2" y2="54.6" opacity="0.3" stroke="rgb(0,0,0)"  stroke-width="1.2"/>
<line x1="269.6" y1="82.1" x2="280.6" y2="106.9" opacity="0.4" stroke="rgb(0,0,0)"  stroke-width="1.6"/>
<line x1="269.6" y1="82.1" x2="270.5" y2="97.0" opacity="0.5" stroke="rgb(0,0,0)"  stroke-width="0.7"/>
<line x1="144.2" y1="90.1" x2="109.3" y2="92.1" opacity="0.2" stroke="rgb(0,0,0)"  stroke-width="1.5"/>
<line x1="143.8" y1="84.1" x2="109.0" y2="86.1" opacity="0.2" stroke="rgb(0,0,0)"  stroke-width="1.5"/>
<line x1="144.0" y1="87.1" x2="139.8" y2="73.2" opacity="0.5" stroke="rgb(0,0,0)"  stroke-width="2.5"/>
<line x1="109.1" y1="89.1" x2="63.9" y2="72.7" opacity="0.8" stroke="rgb(0,0,0)"  stroke-width="1.2"/>
<line x1="109.1" y1="89.1" x2="113.2" y2="103.0" opacity="0.4" stroke="rgb(0,0,0)"  stroke-width="0.5"/>
<line x1="63.9" y1="72.7" x2="53.8" y2="46.8" opacity="0.2" stroke="rgb(0,0,0)"  stroke-width="1.1"/>
<line x1="63.9" y1="72.7" x2="40.0" y2="99.9" opacity="0.4" stroke="rgb(0,0,0)"  stroke-width="1.4"/>
<line x1="63.9" y1="72.7" x2="62.4" y2="59.0" opacity="0.5" stroke="rgb(0,0,0)"  stroke-width="2.0"/>
<circle cx="113.207924" cy="103.044209" r="5.636364" opacity="0.200000" style="stroke:black;stroke-width:0.5;fill:url(#radialffffffbfbfbf)"/>
<circle cx="270.543303" cy="97.017583" r="5.636364" opacity="0.233286" style="stroke:black;stroke-width:0.5;fill:url(#radialffffffbfbfbf)"/>
<circle cx="189.475571" cy="119.241180" r="5.636364" opacity="0.412535" style="stroke:black;stroke-width:0.5;fill:url(#radialffffffbfbfbf)"/>
<circle cx="53.777039" cy="46.789070" r="5.636364" opacity="0.478138" style="stroke:black;stroke-width:0.5;fill:url(#radialffffffbfbfbf)"/>
<circle cx="213.714674" cy="40.000000" r="5.636364" opacity="0.519599" style="stroke:black;stroke-width:0.5;fill:url(#radialffffffbfbfbf)"/>
<circle cx="109.127189" cy="89.081531" r="13.818182" opacity="0.593899" style="stroke:black;stroke-width:0.5;fill:url(#radialffffff666666)"/>
<circle cx="269.605165" cy="82.100192" r="13.818182" opacity="0.638990" style="stroke:black;stroke-width:0.5;fill:url(#radialffffff666666)"/>
<circle cx="293.224367" cy="54.566003" r="5.636364" opacity="0.644023" style="stroke:black;stroke-width:0.5;fill:url(#radialffffffbfbfbf)"/>
<circle cx="40.000000" cy="99.938077" r="5.636364" opacity="0.674008" style="stroke:black;stroke-width:0.5;fill:url(#radialffffffbfbfbf)"/>
<circle cx="63.897660" cy="72.732071" r="13.818182" opacity="0.690955" style="stroke:black;stroke-width:0.5;fill:url(#radialffffff666666)"/>
<circle cx="189.515351" cy="103.398911" r="14.383420" opacity="0.721424" style="stroke:black;stroke-width:0.5;fill:url(#radialffffff666666)"/>
<circle cx="223.271749" cy="65.598243" r="14.557943" opacity="0.725788" style="stroke:black;stroke-width:0.5;fill:url(#radialffffff666666)"/>
<circle cx="143.994104" cy="87.129010" r="17.879758" opacity="0.804341" style="stroke:black;stroke-width:0.5;fill:url(#radialffffff666666)"/>
<circle cx="280.647349" cy="106.939305" r="7.503020" opacity="0.815837" style="stroke:black;stroke-width:0.5;fill:url(#radialffffffbfbfbf)"/>
<circle cx="199.171876" cy="128.920909" r="8.764788" opacity="0.881772" style="stroke:black;stroke-width:0.5;fill:url(#radialffffffbfbfbf)"/>
<circle cx="62.432441" cy="59.034591" r="9.431866" opacity="0.914712" style="stroke:black;stroke-width:0.5;fill:url(#radialffffffbfbfbf)"/>
<circle cx="223.828665" cy="49.828903" r="9.890181" opacity="0.936672" style="stroke:black;stroke-width:0.5;fill:url(#radialffffffbfbfbf)"/>
<circle cx="139.784085" cy="73.226002" r="11.272727" opacity="1.000000" style="stroke:black;stroke-width:0.5;fill:url(#radialffffffbfbfbf)"/>
</svg>
</g>
</svg>
