<?xml version="1.0"?>
<svg version="1.1" id="topsvg"
xmlns="http://www.w3.org/2000/svg" xmlns:xlink="http://www.w3.org/1999/xlink"
xmlns:cml="http://www.xml-cml.org/schema" x="0" y="0" width="200px" height="200px" viewBox="0 0 100 100">
<title>6403 - Open Babel Depiction</title>
<rect x="0" y="0" width="100" height="100" fill="white"/>
<defs>
<radialGradient id='radialffffff666666' cx='50%' cy='50%' r='50%' fx='30%' fy='30%'>
  <stop offset=' 0%' stop-color="rgb(255,255,255)"  stop-opacity='1.0'/>
  <stop offset='100%' stop-color="rgb(102,102,102)"  stop-opacity ='1.0'/>
</radialGradient>
<radialGradient id='radialffffffbfbfbf' cx='50%' cy='50%' r='50%' fx='30%' fy='30%'>
  <stop offset=' 0%' stop-color="rgb(255,255,255)"  stop-opacity='1.0'/>
  <stop offset='100%' stop-color="rgb(191,191,191)"  stop-opacity ='1.0'/>
</radialGradient>
</defs>
<g transform="translate(0,0)">
<svg width="100" height="100" x="0" y="0" viewBox="0 0 265.837 207.577"
font-family="sans-serif" stroke="rgb(0,0,0)" stroke-width="4"  stroke-linecap="round">
<line x1="111.2" y1="108.6" x2="155.0" y2="129.3" opacity="1.0" stroke="rgb(0,0,0)"  stroke-width="1.2"/>
<line x1="111.2" y1="108.6" x2="109.5" y2="113.4" opacity="0.4" stroke="rgb(0,0,0)"  stroke-width="2.0"/>
<line x1="111.2" y1="108.6" x2="71.0" y2="132.4" opacity="0.7" stroke="rgb(0,0,0)"  stroke-width="1.1"/>
<line x1="111.2" y1="108.6" x2="108.8" y2="59.2" opacity="0.4" stroke="rgb(0,0,0)"  stroke-width="1.2"/>
<line x1="155.0" y1="129.3" x2="197.2" y2="107.7" opacity="0.4" stroke="rgb(0,0,0)"  stroke-width="1.2"/>
<line x1="155.0" y1="129.3" x2="155.8" y2="164.4" opacity="0.4" stroke="rgb(0,0,0)"  stroke-width="1.1"/>
<line x1="155.0" y1="129.3" x2="155.5" y2="128.2" opacity="0.4" stroke="rgb(0,0,0)"  stroke-width="0.5"/>
<line x1="109.5" y1="113.4" x2="134.9" y2="93.9" opacity="0.2" stroke="rgb(0,0,0)"  stroke-width="2.8"/>
<line x1="109.5" y1="113.4" x2="113.6" y2="147.9" opacity="0.9" stroke="rgb(0,0,0)"  stroke-width="2.7"/>
<line x1="109.5" y1="113.4" x2="77.6" y2="102.1" opacity="0.9" stroke="rgb(0,0,0)"  stroke-width="2.8"/>
<line x1="71.0" y1="132.4" x2="70.9" y2="129.6" opacity="0.9" stroke="rgb(0,0,0)"  stroke-width="0.4"/>
<line x1="71.0" y1="132.4" x2="71.3" y2="167.6" opacity="0.1" stroke="rgb(0,0,0)"  stroke-width="1.0"/>
<line x1="71.0" y1="132.4" x2="40.0" y2="118.4" opacity="0.3" stroke="rgb(0,0,0)"  stroke-width="1.0"/>
<line x1="108.8" y1="59.2" x2="134.2" y2="40.0" opacity="0.3" stroke="rgb(0,0,0)"  stroke-width="1.3"/>
<line x1="108.8" y1="59.2" x2="76.8" y2="45.3" opacity="0.4" stroke="rgb(0,0,0)"  stroke-width="1.2"/>
<line x1="108.8" y1="59.2" x2="112.8" y2="54.1" opacity="0.4" stroke="rgb(0,0,0)"  stroke-width="0.6"/>
<line x1="197.2" y1="107.7" x2="200.0" y2="109.7" opacity="0.2" stroke="rgb(0,0,0)"  stroke-width="1.8"/>
<line x1="197.2" y1="107.7" x2="225.8" y2="124.8" opacity="0.6" stroke="rgb(0,0,0)"  stroke-width="1.2"/>
<line x1="197.2" y1="107.7" x2="199.5" y2="73.1" opacity="0.4" stroke="rgb(0,0,0)"  stroke-width="1.2"/>
<circle cx="70.948688" cy="129.621830" r="5.636364" opacity="0.200000" style="stroke:black;stroke-width:0.5;fill:url(#radialffffffbfbfbf)"/>
<circle cx="155.524608" cy="128.159869" r="5.636364" opacity="0.200000" style="stroke:black;stroke-width:0.5;fill:url(#radialffffffbfbfbf)"/>
<circle cx="112.771328" cy="54.094887" r="5.636364" opacity="0.267451" style="stroke:black;stroke-width:0.5;fill:url(#radialffffffbfbfbf)"/>
<circle cx="71.034491" cy="132.390645" r="13.818182" opacity="0.541282" style="stroke:black;stroke-width:0.5;fill:url(#radialffffff666666)"/>
<circle cx="154.986685" cy="129.324817" r="13.818182" opacity="0.565870" style="stroke:black;stroke-width:0.5;fill:url(#radialffffff666666)"/>
<circle cx="225.837334" cy="124.800329" r="5.636364" opacity="0.586514" style="stroke:black;stroke-width:0.5;fill:url(#radialffffffbfbfbf)"/>
<circle cx="108.801263" cy="59.243101" r="13.818182" opacity="0.600500" style="stroke:black;stroke-width:0.5;fill:url(#radialffffff666666)"/>
<circle cx="71.338104" cy="167.576709" r="5.636364" opacity="0.600567" style="stroke:black;stroke-width:0.5;fill:url(#radialffffffbfbfbf)"/>
<circle cx="199.495637" cy="73.139979" r="5.636364" opacity="0.613229" style="stroke:black;stroke-width:0.5;fill:url(#radialffffffbfbfbf)"/>
<circle cx="40.000000" cy="118.421163" r="5.636364" opacity="0.626341" style="stroke:black;stroke-width:0.5;fill:url(#radialffffffbfbfbf)"/>
<circle cx="155.778718" cy="164.438278" r="5.636364" opacity="0.626383" style="stroke:black;stroke-width:0.5;fill:url(#radialffffffbfbfbf)"/>
<circle cx="76.836133" cy="45.260419" r="5.636364" opacity="0.662103" style="stroke:black;stroke-width:0.5;fill:url(#radialffffffbfbfbf)"/>
<circle cx="111.213664" cy="108.596655" r="13.818182" opacity="0.674146" style="stroke:black;stroke-width:0.5;fill:url(#radialffffff666666)"/>
<circle cx="197.165740" cy="107.735319" r="13.818182" opacity="0.676132" style="stroke:black;stroke-width:0.5;fill:url(#radialffffff666666)"/>
<circle cx="134.222221" cy="40.000000" r="5.636364" opacity="0.706167" style="stroke:black;stroke-width:0.5;fill:url(#radialffffffbfbfbf)"/>
<circle cx="200.003859" cy="109.725302" r="8.442527" opacity="0.865410" style="stroke:black;stroke-width:0.5;fill:url(#radialffffffbfbfbf)"/>
<circle cx="109.457990" cy="113.437956" r="23.925078" opacity="0.930435" style="stroke:black;stroke-width:0.5;fill:url(#radialffffff666666)"/>
<circle cx="113.553461" cy="147.940892" r="10.678026" opacity="0.973265" style="stroke:black;stroke-width:0.5;fill:url(#radialffffffbfbfbf)"/>
<circle cx="77.591864" cy="102.118485" r="10.939247" opacity="0.985097" style="stroke:black;stroke-width:0.5;fill:url(#radialffffffbfbfbf)"/>
<circle cx="134.925150" cy="93.851641" r="11.272727" opacity="1.000000" style="stroke:black;stroke-width:0.5;fill:url(#radialffffffbfbfbf)"/>
</svg>
</g>
</svg>
