<?xml version="1.0"?>
<svg version="1.1" id="topsvg"
xmlns="http://www.w3.org/2000/svg" xmlns:xlink="http://www.w3.org/1999/xlink"
xmlns:cml="http://www.xml-cml.org/schema" x="0" y="0" width="200px" height="200px" viewBox="0 0 100 100">
<title>642661 - Open Babel Depiction</title>
<rect x="0" y="0" width="100" height="100" fill="white"/>
<defs>
<radialGradient id='radialffffff666666' cx='50%' cy='50%' r='50%' fx='30%' fy='30%'>
  <stop offset=' 0%' stop-color="rgb(255,255,255)"  stop-opacity='1.0'/>
  <stop offset='100%' stop-color="rgb(102,102,102)"  stop-opacity ='1.0'/>
</radialGradient>
<radialGradient id='radialffffffbfbfbf' cx='50%' cy='50%' r='50%' fx='30%' fy='30%'>
  <stop offset=' 0%' stop-color="rgb(255,255,255)"  stop-opacity='1.0'/>
  <stop offset='100%' stop-color="rgb(191,191,191)"  stop-opacity ='1.0'/>
</radialGradient>
</defs>
<g transform="translate(0,0)">
<svg width="100" height="100" x="0" y="0" viewBox="0 0 291.252 211.783"
font-family="sans-serif" stroke="rgb(0,0,0)" stroke-width="4"  stroke-linecap="round">
<line x1="188.9" y1="118.2" x2="141.9" y2="107.7" opacity="1.0" stroke="rgb(0,0,0)"  stroke-width="1.1"/>
<line x1="188.9" y1="118.2" x2="217.6" y2="132.2" opacity="0.4" stroke="rgb(0,0,0)"  stroke-width="1.5"/>
<line x1="188.9" y1="118.2" x2="203.7" y2="89.6" opacity="0.5" stroke="rgb(0,0,0)"  stroke-width="0.5"/>
<line x1="188.9" y1="118.2" x2="188.6" y2="145.1" opacity="0.2" stroke="rgb(0,0,0)"  stroke-width="0.4"/>
<line x1="141.9" y1="107.7" x2="133.3" y2="60.0" opacity="0.1" stroke="rgb(0,0,0)"  stroke-width="1.5"/>
<line x1="143.9" y1="110.0" x2="110.8" y2="139.8" opacity="0.5" stroke="rgb(0,0,0)"  stroke-width="1.3"/>
<line x1="139.9" y1="105.5" x2="106.8" y2="135.4" opacity="0.5" stroke="rgb(0,0,0)"  stroke-width="1.3"/>
<line x1="217.6" y1="132.2" x2="251.3" y2="139.9" opacity="0.4" stroke="rgb(0,0,0)"  stroke-width="2.0"/>
<line x1="217.6" y1="132.2" x2="204.3" y2="161.8" opacity="0.7" stroke="rgb(0,0,0)"  stroke-width="2.4"/>
<line x1="217.6" y1="132.2" x2="220.0" y2="105.8" opacity="0.8" stroke="rgb(0,0,0)"  stroke-width="2.6"/>
<line x1="133.3" y1="60.0" x2="103.7" y2="54.9" opacity="0.9" stroke="rgb(0,0,0)"  stroke-width="2.0"/>
<line x1="133.3" y1="60.0" x2="161.0" y2="46.9" opacity="0.7" stroke="rgb(0,0,0)"  stroke-width="2.0"/>
<line x1="133.3" y1="60.0" x2="130.6" y2="40.0" opacity="0.7" stroke="rgb(0,0,0)"  stroke-width="1.2"/>
<line x1="108.8" y1="137.6" x2="61.5" y2="129.6" opacity="0.4" stroke="rgb(0,0,0)"  stroke-width="1.6"/>
<line x1="108.8" y1="137.6" x2="116.6" y2="171.8" opacity="0.5" stroke="rgb(0,0,0)"  stroke-width="1.2"/>
<line x1="61.5" y1="129.6" x2="55.5" y2="140.3" opacity="0.4" stroke="rgb(0,0,0)"  stroke-width="2.3"/>
<line x1="61.5" y1="129.6" x2="40.0" y2="149.3" opacity="0.8" stroke="rgb(0,0,0)"  stroke-width="1.4"/>
<line x1="61.5" y1="129.6" x2="51.0" y2="95.2" opacity="0.5" stroke="rgb(0,0,0)"  stroke-width="1.7"/>
<circle cx="188.617359" cy="145.117169" r="5.636364" opacity="0.200000" style="stroke:black;stroke-width:0.5;fill:url(#radialffffffbfbfbf)"/>
<circle cx="203.690927" cy="89.566745" r="5.636364" opacity="0.295481" style="stroke:black;stroke-width:0.5;fill:url(#radialffffffbfbfbf)"/>
<circle cx="130.567380" cy="40.000000" r="5.636364" opacity="0.475873" style="stroke:black;stroke-width:0.5;fill:url(#radialffffffbfbfbf)"/>
<circle cx="188.912399" cy="118.222105" r="13.818182" opacity="0.526609" style="stroke:black;stroke-width:0.5;fill:url(#radialffffff666666)"/>
<circle cx="40.000000" cy="149.340553" r="5.636364" opacity="0.586691" style="stroke:black;stroke-width:0.5;fill:url(#radialffffffbfbfbf)"/>
<circle cx="116.630877" cy="171.783495" r="5.636364" opacity="0.593719" style="stroke:black;stroke-width:0.5;fill:url(#radialffffffbfbfbf)"/>
<circle cx="141.938029" cy="107.749837" r="13.818182" opacity="0.658867" style="stroke:black;stroke-width:0.5;fill:url(#radialffffff666666)"/>
<circle cx="108.767560" cy="137.611878" r="13.818182" opacity="0.670444" style="stroke:black;stroke-width:0.5;fill:url(#radialffffff666666)"/>
<circle cx="50.996047" cy="95.182453" r="6.169302" opacity="0.739782" style="stroke:black;stroke-width:0.5;fill:url(#radialffffffbfbfbf)"/>
<circle cx="133.345399" cy="59.996429" r="15.695289" opacity="0.753606" style="stroke:black;stroke-width:0.5;fill:url(#radialffffff666666)"/>
<circle cx="61.455054" cy="129.639164" r="16.297996" opacity="0.767939" style="stroke:black;stroke-width:0.5;fill:url(#radialffffff666666)"/>
<circle cx="251.252062" cy="139.895953" r="6.659291" opacity="0.768598" style="stroke:black;stroke-width:0.5;fill:url(#radialffffffbfbfbf)"/>
<circle cx="217.644005" cy="132.224909" r="19.875858" opacity="0.848052" style="stroke:black;stroke-width:0.5;fill:url(#radialffffff666666)"/>
<circle cx="160.969776" cy="46.892005" r="8.907405" opacity="0.888917" style="stroke:black;stroke-width:0.5;fill:url(#radialffffffbfbfbf)"/>
<circle cx="103.662371" cy="54.877980" r="8.968760" opacity="0.891973" style="stroke:black;stroke-width:0.5;fill:url(#radialffffffbfbfbf)"/>
<circle cx="204.294267" cy="161.828376" r="10.178501" opacity="0.950227" style="stroke:black;stroke-width:0.5;fill:url(#radialffffffbfbfbf)"/>
<circle cx="55.534361" cy="140.250664" r="11.008691" opacity="0.988219" style="stroke:black;stroke-width:0.5;fill:url(#radialffffffbfbfbf)"/>
<circle cx="219.971176" cy="105.820474" r="11.272727" opacity="1.000000" style="stroke:black;stroke-width:0.5;fill:url(#radialffffffbfbfbf)"/>
</svg>
</g>
</svg>
