<?xml version="1.0"?>
<svg version="1.1" id="topsvg"
xmlns="http://www.w3.org/2000/svg" xmlns:xlink="http://www.w3.org/1999/xlink"
xmlns:cml="http://www.xml-cml.org/schema" x="0" y="0" width="200px" height="200px" viewBox="0 0 100 100">
<title>6589 - Open Babel Depiction</title>
<rect x="0" y="0" width="100" height="100" fill="white"/>
<defs>
<radialGradient id='radialffffff666666' cx='50%' cy='50%' r='50%' fx='30%' fy='30%'>
  <stop offset=' 0%' stop-color="rgb(255,255,255)"  stop-opacity='1.0'/>
  <stop offset='100%' stop-color="rgb(102,102,102)"  stop-opacity ='1.0'/>
</radialGradient>
<radialGradient id='radialffffffbfbfbf' cx='50%' cy='50%' r='50%' fx='30%' fy='30%'>
  <stop offset=' 0%' stop-color="rgb(255,255,255)"  stop-opacity='1.0'/>
  <stop offset='100%' stop-color="rgb(191,191,191)"  stop-opacity ='1.0'/>
</radialGradient>
</defs>
<g transform="translate(0,0)">
<svg width="100" height="100" x="0" y="0" viewBox="0 0 263.055 214.371"
font-family="sans-serif" stroke="rgb(0,0,0)" stroke-width="2"  stroke-linecap="round">
<line x1="155.2" y1="97.5" x2="107.8" y2="116.9" opacity="1.0" stroke="rgb(0,0,0)"  stroke-width="0.9"/>
<line x1="155.2" y1="97.5" x2="165.4" y2="67.8" opacity="0.3" stroke="rgb(0,0,0)"  stroke-width="1.5"/>
<line x1="155.2" y1="97.5" x2="190.3" y2="133.8" opacity="0.5" stroke="rgb(0,0,0)"  stroke-width="0.9"/>
<line x1="155.2" y1="97.5" x2="158.5" y2="77.0" opacity="0.3" stroke="rgb(0,0,0)"  stroke-width="0.5"/>
<line x1="107.8" y1="116.9" x2="97.7" y2="146.5" opacity="0.2" stroke="rgb(0,0,0)"  stroke-width="1.5"/>
<line x1="107.8" y1="116.9" x2="72.7" y2="80.6" opacity="0.5" stroke="rgb(0,0,0)"  stroke-width="0.9"/>
<line x1="107.8" y1="116.9" x2="104.6" y2="137.4" opacity="0.3" stroke="rgb(0,0,0)"  stroke-width="0.5"/>
<line x1="165.4" y1="67.8" x2="163.9" y2="86.1" opacity="0.2" stroke="rgb(0,0,0)"  stroke-width="2.5"/>
<line x1="165.4" y1="67.8" x2="198.7" y2="54.0" opacity="0.8" stroke="rgb(0,0,0)"  stroke-width="2.0"/>
<line x1="165.4" y1="67.8" x2="142.5" y2="40.0" opacity="0.7" stroke="rgb(0,0,0)"  stroke-width="2.1"/>
<line x1="190.3" y1="133.8" x2="223.1" y2="119.3" opacity="0.7" stroke="rgb(0,0,0)"  stroke-width="0.7"/>
<line x1="190.3" y1="133.8" x2="192.0" y2="153.8" opacity="0.2" stroke="rgb(0,0,0)"  stroke-width="1.3"/>
<line x1="190.3" y1="133.8" x2="183.5" y2="155.7" opacity="0.4" stroke="rgb(0,0,0)"  stroke-width="0.4"/>
<line x1="97.7" y1="146.5" x2="120.6" y2="174.4" opacity="0.1" stroke="rgb(0,0,0)"  stroke-width="2.1"/>
<line x1="97.7" y1="146.5" x2="99.2" y2="128.3" opacity="0.7" stroke="rgb(0,0,0)"  stroke-width="2.5"/>
<line x1="97.7" y1="146.5" x2="64.4" y2="160.4" opacity="0.8" stroke="rgb(0,0,0)"  stroke-width="2.0"/>
<line x1="72.7" y1="80.6" x2="71.1" y2="60.6" opacity="0.7" stroke="rgb(0,0,0)"  stroke-width="1.3"/>
<line x1="72.7" y1="80.6" x2="40.0" y2="95.1" opacity="0.4" stroke="rgb(0,0,0)"  stroke-width="0.7"/>
<line x1="72.7" y1="80.6" x2="79.5" y2="58.7" opacity="0.2" stroke="rgb(0,0,0)"  stroke-width="0.4"/>
<circle cx="79.517670" cy="58.664149" r="5.636364" opacity="0.200000" style="stroke:black;stroke-width:0.5;fill:url(#radialffffffbfbfbf)"/>
<circle cx="183.524399" cy="155.713100" r="5.636364" opacity="0.200000" style="stroke:black;stroke-width:0.5;fill:url(#radialffffffbfbfbf)"/>
<circle cx="158.477058" cy="76.978262" r="5.636364" opacity="0.200000" style="stroke:black;stroke-width:0.5;fill:url(#radialffffffbfbfbf)"/>
<circle cx="104.581522" cy="137.385778" r="5.636364" opacity="0.200000" style="stroke:black;stroke-width:0.5;fill:url(#radialffffffbfbfbf)"/>
<circle cx="223.055278" cy="119.276402" r="5.636364" opacity="0.471469" style="stroke:black;stroke-width:0.5;fill:url(#radialffffffbfbfbf)"/>
<circle cx="40.000000" cy="95.104149" r="5.636364" opacity="0.471606" style="stroke:black;stroke-width:0.5;fill:url(#radialffffffbfbfbf)"/>
<circle cx="190.323671" cy="133.776451" r="13.818182" opacity="0.522818" style="stroke:black;stroke-width:0.5;fill:url(#radialffffff666666)"/>
<circle cx="72.731607" cy="80.594194" r="13.818182" opacity="0.522849" style="stroke:black;stroke-width:0.5;fill:url(#radialffffff666666)"/>
<circle cx="155.247487" cy="97.458632" r="13.818182" opacity="0.553967" style="stroke:black;stroke-width:0.5;fill:url(#radialffffff666666)"/>
<circle cx="107.814395" cy="116.905408" r="13.818182" opacity="0.554025" style="stroke:black;stroke-width:0.5;fill:url(#radialffffff666666)"/>
<circle cx="191.991292" cy="153.797812" r="6.394933" opacity="0.753188" style="stroke:black;stroke-width:0.5;fill:url(#radialffffffbfbfbf)"/>
<circle cx="71.060684" cy="60.562926" r="6.394933" opacity="0.753188" style="stroke:black;stroke-width:0.5;fill:url(#radialffffffbfbfbf)"/>
<circle cx="198.714612" cy="53.978298" r="7.527779" opacity="0.817182" style="stroke:black;stroke-width:0.5;fill:url(#radialffffffbfbfbf)"/>
<circle cx="64.357177" cy="160.389044" r="7.528143" opacity="0.817202" style="stroke:black;stroke-width:0.5;fill:url(#radialffffffbfbfbf)"/>
<circle cx="165.401814" cy="67.824508" r="19.215163" opacity="0.833838" style="stroke:black;stroke-width:0.5;fill:url(#radialffffff666666)"/>
<circle cx="97.669975" cy="146.542834" r="19.215163" opacity="0.833838" style="stroke:black;stroke-width:0.5;fill:url(#radialffffff666666)"/>
<circle cx="120.607197" cy="174.370645" r="8.058140" opacity="0.845479" style="stroke:black;stroke-width:0.5;fill:url(#radialffffffbfbfbf)"/>
<circle cx="142.464592" cy="40.000000" r="8.058869" opacity="0.845517" style="stroke:black;stroke-width:0.5;fill:url(#radialffffffbfbfbf)"/>
<circle cx="163.862980" cy="86.105599" r="11.272363" opacity="0.999984" style="stroke:black;stroke-width:0.5;fill:url(#radialffffffbfbfbf)"/>
<circle cx="99.218716" cy="128.268348" r="11.272727" opacity="1.000000" style="stroke:black;stroke-width:0.5;fill:url(#radialffffffbfbfbf)"/>
</svg>
</g>
</svg>
