<?xml version="1.0"?>
<svg version="1.1" id="topsvg"
xmlns="http://www.w3.org/2000/svg" xmlns:xlink="http://www.w3.org/1999/xlink"
xmlns:cml="http://www.xml-cml.org/schema" x="0" y="0" width="200px" height="200px" viewBox="0 0 100 100">
<title>6627 - Open Babel Depiction</title>
<rect x="0" y="0" width="100" height="100" fill="white"/>
<defs>
<radialGradient id='radialffffff1eef1e' cx='50%' cy='50%' r='50%' fx='30%' fy='30%'>
  <stop offset=' 0%' stop-color="rgb(255,255,255)"  stop-opacity='1.0'/>
  <stop offset='100%' stop-color="rgb(30,239,30)"  stop-opacity ='1.0'/>
</radialGradient>
<radialGradient id='radialffffff666666' cx='50%' cy='50%' r='50%' fx='30%' fy='30%'>
  <stop offset=' 0%' stop-color="rgb(255,255,255)"  stop-opacity='1.0'/>
  <stop offset='100%' stop-color="rgb(102,102,102)"  stop-opacity ='1.0'/>
</radialGradient>
<radialGradient id='radialffffff7f9999' cx='50%' cy='50%' r='50%' fx='30%' fy='30%'>
  <stop offset=' 0%' stop-color="rgb(255,255,255)"  stop-opacity='1.0'/>
  <stop offset='100%' stop-color="rgb(127,153,153)"  stop-opacity ='1.0'/>
</radialGradient>
<radialGradient id='radialffffffbfbfbf' cx='50%' cy='50%' r='50%' fx='30%' fy='30%'>
  <stop offset=' 0%' stop-color="rgb(255,255,255)"  stop-opacity='1.0'/>
  <stop offset='100%' stop-color="rgb(191,191,191)"  stop-opacity ='1.0'/>
</radialGradient>
</defs>
<g transform="translate(0,0)">
<svg width="100" height="100" x="0" y="0" viewBox="0 0 361.16 236.49"
font-family="sans-serif" stroke="rgb(0,0,0)" stroke-width="4"  stroke-linecap="round">
<line x1="180.5" y1="41.7" x2="180.8" y2="75.2" opacity="1.0" stroke="rgb(0,0,0)"  stroke-width="2.1"/>
<line x1="182.0" y1="40.0" x2="180.8" y2="75.2" opacity="0.7" stroke="rgb(0,0,0)"  stroke-width="0.8"/>
<line x1="180.8" y1="75.2" x2="135.1" y2="105.3" opacity="0.3" stroke="rgb(0,0,0)"  stroke-width="1.5"/>
<line x1="180.8" y1="75.2" x2="224.6" y2="106.5" opacity="0.5" stroke="rgb(0,0,0)"  stroke-width="1.4"/>
<line x1="128.7" y1="131.5" x2="149.9" y2="135.0" opacity="0.5" stroke="rgb(0,0,0)"  stroke-width="2.6"/>
<line x1="223.7" y1="143.9" x2="196.9" y2="155.1" opacity="0.9" stroke="rgb(0,0,0)"  stroke-width="0.7"/>
<line x1="107.3" y1="101.7" x2="111.0" y2="81.8" opacity="0.2" stroke="rgb(0,0,0)"  stroke-width="0.4"/>
<line x1="260.5" y1="94.0" x2="263.1" y2="65.3" opacity="0.1" stroke="rgb(0,0,0)"  stroke-width="2.0"/>
<line x1="94.5" y1="154.1" x2="89.5" y2="174.5" opacity="0.7" stroke="rgb(0,0,0)"  stroke-width="2.7"/>
<line x1="257.0" y1="167.8" x2="255.7" y2="196.5" opacity="0.9" stroke="rgb(0,0,0)"  stroke-width="0.7"/>
<line x1="73.1" y1="124.3" x2="51.4" y2="121.5" opacity="0.2" stroke="rgb(0,0,0)"  stroke-width="0.4"/>
<line x1="293.8" y1="117.8" x2="321.2" y2="107.6" opacity="0.1" stroke="rgb(0,0,0)"  stroke-width="2.0"/>
<line x1="66.6" y1="150.5" x2="40.0" y2="168.0" opacity="0.7" stroke="rgb(0,0,0)"  stroke-width="1.5"/>
<line x1="292.1" y1="154.7" x2="318.1" y2="173.3" opacity="0.5" stroke="rgb(0,0,0)"  stroke-width="1.3"/>
<line x1="135.5" y1="102.4" x2="107.7" y2="98.8" opacity="0.4" stroke="rgb(0,0,0)"  stroke-width="1.1"/>
<line x1="134.7" y1="108.3" x2="106.9" y2="104.7" opacity="0.4" stroke="rgb(0,0,0)"  stroke-width="1.1" stroke-dasharray="5.0,5.0"/>
<line x1="105.6" y1="99.2" x2="71.4" y2="121.8" opacity="0.2" stroke="rgb(0,0,0)"  stroke-width="0.7"/>
<line x1="108.9" y1="104.2" x2="74.7" y2="126.8" opacity="0.2" stroke="rgb(0,0,0)"  stroke-width="0.7" stroke-dasharray="5.0,5.0"/>
<line x1="70.1" y1="123.6" x2="63.7" y2="149.8" opacity="0.4" stroke="rgb(0,0,0)"  stroke-width="1.1"/>
<line x1="76.0" y1="125.0" x2="69.6" y2="151.2" opacity="0.4" stroke="rgb(0,0,0)"  stroke-width="1.1" stroke-dasharray="5.0,5.0"/>
<line x1="66.3" y1="153.4" x2="94.1" y2="157.0" opacity="0.6" stroke="rgb(0,0,0)"  stroke-width="1.9"/>
<line x1="67.0" y1="147.5" x2="94.8" y2="151.1" opacity="0.6" stroke="rgb(0,0,0)"  stroke-width="1.9" stroke-dasharray="5.0,5.0"/>
<line x1="96.1" y1="156.6" x2="130.3" y2="134.0" opacity="0.8" stroke="rgb(0,0,0)"  stroke-width="2.3"/>
<line x1="92.8" y1="151.6" x2="127.0" y2="129.0" opacity="0.8" stroke="rgb(0,0,0)"  stroke-width="2.3" stroke-dasharray="5.0,5.0"/>
<line x1="131.6" y1="132.2" x2="138.0" y2="106.1" opacity="0.6" stroke="rgb(0,0,0)"  stroke-width="1.9"/>
<line x1="125.8" y1="130.8" x2="132.2" y2="104.6" opacity="0.6" stroke="rgb(0,0,0)"  stroke-width="1.9" stroke-dasharray="5.0,5.0"/>
<line x1="225.6" y1="109.3" x2="261.5" y2="96.8" opacity="0.5" stroke="rgb(0,0,0)"  stroke-width="1.6"/>
<line x1="223.6" y1="103.6" x2="259.5" y2="91.1" opacity="0.5" stroke="rgb(0,0,0)"  stroke-width="1.6" stroke-dasharray="5.0,5.0"/>
<line x1="258.7" y1="96.4" x2="292.1" y2="120.2" opacity="0.6" stroke="rgb(0,0,0)"  stroke-width="1.8"/>
<line x1="262.2" y1="91.5" x2="295.6" y2="115.4" opacity="0.6" stroke="rgb(0,0,0)"  stroke-width="1.8" stroke-dasharray="5.0,5.0"/>
<line x1="290.8" y1="117.7" x2="289.1" y2="154.6" opacity="0.5" stroke="rgb(0,0,0)"  stroke-width="1.6"/>
<line x1="296.8" y1="117.9" x2="295.1" y2="154.8" opacity="0.5" stroke="rgb(0,0,0)"  stroke-width="1.6" stroke-dasharray="5.0,5.0"/>
<line x1="291.0" y1="151.9" x2="256.0" y2="165.0" opacity="0.4" stroke="rgb(0,0,0)"  stroke-width="1.1"/>
<line x1="293.1" y1="157.5" x2="258.1" y2="170.6" opacity="0.4" stroke="rgb(0,0,0)"  stroke-width="1.1" stroke-dasharray="5.0,5.0"/>
<line x1="258.8" y1="165.3" x2="225.4" y2="141.5" opacity="0.3" stroke="rgb(0,0,0)"  stroke-width="0.9"/>
<line x1="255.3" y1="170.2" x2="221.9" y2="146.4" opacity="0.3" stroke="rgb(0,0,0)"  stroke-width="0.9" stroke-dasharray="5.0,5.0"/>
<line x1="226.7" y1="144.0" x2="227.6" y2="106.5" opacity="0.4" stroke="rgb(0,0,0)"  stroke-width="1.2"/>
<line x1="220.7" y1="143.9" x2="221.6" y2="106.4" opacity="0.4" stroke="rgb(0,0,0)"  stroke-width="1.2" stroke-dasharray="5.0,5.0"/>
<circle cx="111.021167" cy="81.776120" r="5.636364" opacity="0.200000" style="stroke:black;stroke-width:0.5;fill:url(#radialffffffbfbfbf)"/>
<circle cx="51.384669" cy="121.509289" r="5.636364" opacity="0.200000" style="stroke:black;stroke-width:0.5;fill:url(#radialffffffbfbfbf)"/>
<circle cx="182.039394" cy="40.000000" r="18.545455" opacity="0.220751" style="stroke:black;stroke-width:0.5;fill:url(#radialffffff1eef1e)"/>
<circle cx="255.697289" cy="196.489958" r="5.636364" opacity="0.414916" style="stroke:black;stroke-width:0.5;fill:url(#radialffffffbfbfbf)"/>
<circle cx="196.930882" cy="155.104791" r="5.636364" opacity="0.429748" style="stroke:black;stroke-width:0.5;fill:url(#radialffffffbfbfbf)"/>
<circle cx="107.273309" cy="101.735299" r="13.818182" opacity="0.472075" style="stroke:black;stroke-width:0.5;fill:url(#radialffffff666666)"/>
<circle cx="73.051695" cy="124.295932" r="13.818182" opacity="0.481614" style="stroke:black;stroke-width:0.5;fill:url(#radialffffff666666)"/>
<circle cx="257.017123" cy="167.779899" r="13.818182" opacity="0.545796" style="stroke:black;stroke-width:0.5;fill:url(#radialffffff666666)"/>
<circle cx="223.668539" cy="143.946464" r="13.818182" opacity="0.554523" style="stroke:black;stroke-width:0.5;fill:url(#radialffffff666666)"/>
<circle cx="318.067519" cy="173.250301" r="5.636364" opacity="0.664480" style="stroke:black;stroke-width:0.5;fill:url(#radialffffffbfbfbf)"/>
<circle cx="292.094131" cy="154.707959" r="13.818182" opacity="0.670239" style="stroke:black;stroke-width:0.5;fill:url(#radialffffff666666)"/>
<circle cx="224.570965" cy="106.456129" r="13.818182" opacity="0.684611" style="stroke:black;stroke-width:0.5;fill:url(#radialffffff666666)"/>
<circle cx="180.825383" cy="75.223983" r="20.181818" opacity="0.693854" style="stroke:black;stroke-width:0.5;fill:url(#radialffffff7f9999)"/>
<circle cx="135.089762" cy="105.342060" r="13.818182" opacity="0.702502" style="stroke:black;stroke-width:0.5;fill:url(#radialffffff666666)"/>
<circle cx="66.643593" cy="150.466266" r="14.140903" opacity="0.715316" style="stroke:black;stroke-width:0.5;fill:url(#radialffffff666666)"/>
<circle cx="40.000000" cy="168.032695" r="5.847461" opacity="0.720227" style="stroke:black;stroke-width:0.5;fill:url(#radialffffffbfbfbf)"/>
<circle cx="293.825494" cy="117.802585" r="16.863078" opacity="0.781138" style="stroke:black;stroke-width:0.5;fill:url(#radialffffff666666)"/>
<circle cx="260.473971" cy="93.969150" r="17.129194" opacity="0.787278" style="stroke:black;stroke-width:0.5;fill:url(#radialffffff666666)"/>
<circle cx="321.159869" cy="107.611351" r="8.200719" opacity="0.852926" style="stroke:black;stroke-width:0.5;fill:url(#radialffffffbfbfbf)"/>
<circle cx="263.104820" cy="65.291425" r="8.407618" opacity="0.863619" style="stroke:black;stroke-width:0.5;fill:url(#radialffffffbfbfbf)"/>
<circle cx="128.675781" cy="131.509455" r="21.370876" opacity="0.879368" style="stroke:black;stroke-width:0.5;fill:url(#radialffffff666666)"/>
<circle cx="94.454167" cy="154.070088" r="21.620084" opacity="0.884480" style="stroke:black;stroke-width:0.5;fill:url(#radialffffff666666)"/>
<circle cx="180.463824" cy="41.749000" r="34.392509" opacity="0.962938" style="stroke:black;stroke-width:0.5;fill:url(#radialffffff1eef1e)"/>
<circle cx="149.857790" cy="134.963363" r="11.134195" opacity="0.993836" style="stroke:black;stroke-width:0.5;fill:url(#radialffffffbfbfbf)"/>
<circle cx="89.462902" cy="174.458434" r="11.272727" opacity="1.000000" style="stroke:black;stroke-width:0.5;fill:url(#radialffffffbfbfbf)"/>
</svg>
</g>
</svg>
