<?xml version="1.0"?>
<svg version="1.1" id="topsvg"
xmlns="http://www.w3.org/2000/svg" xmlns:xlink="http://www.w3.org/1999/xlink"
xmlns:cml="http://www.xml-cml.org/schema" x="0" y="0" width="1024px" height="1024px" viewBox="0 0 100 100">
<title>6734 - Open Babel Depiction</title>
<rect x="0" y="0" width="100" height="100" fill="white"/>
<defs>
<radialGradient id='radialffffff666666' cx='50%' cy='50%' r='50%' fx='30%' fy='30%'>
  <stop offset=' 0%' stop-color="rgb(255,255,255)"  stop-opacity='1.0'/>
  <stop offset='100%' stop-color="rgb(102,102,102)"  stop-opacity ='1.0'/>
</radialGradient>
<radialGradient id='radialffffffbfbfbf' cx='50%' cy='50%' r='50%' fx='30%' fy='30%'>
  <stop offset=' 0%' stop-color="rgb(255,255,255)"  stop-opacity='1.0'/>
  <stop offset='100%' stop-color="rgb(191,191,191)"  stop-opacity ='1.0'/>
</radialGradient>
</defs>
<g transform="translate(0,0)">
<svg width="100" height="100" x="0" y="0" viewBox="0 0 292.207 262.017"
font-family="sans-serif" stroke="rgb(0,0,0)" stroke-width="2"  stroke-linecap="round">
<line x1="170.3" y1="206.4" x2="182.4" y2="222.0" opacity="1.0" stroke="rgb(0,0,0)"  stroke-width="0.7"/>
<line x1="170.3" y1="206.4" x2="182.5" y2="222.0" opacity="0.2" stroke="rgb(0,0,0)"  stroke-width="2.2"/>
<line x1="121.9" y1="206.4" x2="109.8" y2="222.0" opacity="0.7" stroke="rgb(0,0,0)"  stroke-width="2.3"/>
<line x1="121.9" y1="206.4" x2="109.8" y2="222.0" opacity="0.8" stroke="rgb(0,0,0)"  stroke-width="0.8"/>
<line x1="219.9" y1="142.0" x2="248.3" y2="160.3" opacity="0.3" stroke="rgb(0,0,0)"  stroke-width="1.5"/>
<line x1="72.3" y1="142.0" x2="43.9" y2="160.4" opacity="0.5" stroke="rgb(0,0,0)"  stroke-width="1.5"/>
<line x1="185.5" y1="73.8" x2="188.1" y2="40.0" opacity="0.5" stroke="rgb(0,0,0)"  stroke-width="1.5"/>
<line x1="106.7" y1="73.8" x2="104.1" y2="40.0" opacity="0.5" stroke="rgb(0,0,0)"  stroke-width="1.5"/>
<line x1="222.0" y1="98.2" x2="252.2" y2="83.0" opacity="0.5" stroke="rgb(0,0,0)"  stroke-width="1.5"/>
<line x1="70.3" y1="98.2" x2="40.0" y2="83.0" opacity="0.5" stroke="rgb(0,0,0)"  stroke-width="1.5"/>
<line x1="144.4" y1="134.2" x2="109.3" y2="158.5" opacity="0.5" stroke="rgb(0,0,0)"  stroke-width="1.5"/>
<line x1="147.8" y1="139.1" x2="112.7" y2="163.4" opacity="0.5" stroke="rgb(0,0,0)"  stroke-width="1.5" stroke-dasharray="5.0,5.0"/>
<line x1="112.3" y1="158.3" x2="73.6" y2="139.3" opacity="0.5" stroke="rgb(0,0,0)"  stroke-width="1.5"/>
<line x1="109.7" y1="163.7" x2="71.0" y2="144.7" opacity="0.5" stroke="rgb(0,0,0)"  stroke-width="1.5" stroke-dasharray="5.0,5.0"/>
<line x1="75.3" y1="141.9" x2="73.2" y2="98.1" opacity="0.5" stroke="rgb(0,0,0)"  stroke-width="1.5"/>
<line x1="69.3" y1="142.1" x2="67.3" y2="98.4" opacity="0.5" stroke="rgb(0,0,0)"  stroke-width="1.5" stroke-dasharray="5.0,5.0"/>
<line x1="71.9" y1="100.7" x2="108.4" y2="76.3" opacity="0.5" stroke="rgb(0,0,0)"  stroke-width="1.5"/>
<line x1="68.6" y1="95.8" x2="105.0" y2="71.3" opacity="0.5" stroke="rgb(0,0,0)"  stroke-width="1.5" stroke-dasharray="5.0,5.0"/>
<line x1="105.4" y1="76.5" x2="144.8" y2="95.8" opacity="0.5" stroke="rgb(0,0,0)"  stroke-width="1.5"/>
<line x1="108.0" y1="71.1" x2="147.4" y2="90.4" opacity="0.5" stroke="rgb(0,0,0)"  stroke-width="1.5" stroke-dasharray="5.0,5.0"/>
<line x1="143.1" y1="93.1" x2="143.1" y2="136.6" opacity="0.5" stroke="rgb(0,0,0)"  stroke-width="1.5"/>
<line x1="149.1" y1="93.1" x2="149.1" y2="136.6" opacity="0.5" stroke="rgb(0,0,0)"  stroke-width="1.5" stroke-dasharray="5.0,5.0"/>
<line x1="149.1" y1="136.6" x2="149.1" y2="93.1" opacity="0.5" stroke="rgb(0,0,0)"  stroke-width="1.5"/>
<line x1="143.1" y1="136.6" x2="143.1" y2="93.1" opacity="0.5" stroke="rgb(0,0,0)"  stroke-width="1.5" stroke-dasharray="5.0,5.0"/>
<line x1="147.4" y1="95.8" x2="186.8" y2="76.5" opacity="0.5" stroke="rgb(0,0,0)"  stroke-width="1.5"/>
<line x1="144.8" y1="90.4" x2="184.2" y2="71.1" opacity="0.5" stroke="rgb(0,0,0)"  stroke-width="1.5" stroke-dasharray="5.0,5.0"/>
<line x1="183.8" y1="76.3" x2="220.3" y2="100.7" opacity="0.5" stroke="rgb(0,0,0)"  stroke-width="1.5"/>
<line x1="187.2" y1="71.3" x2="223.6" y2="95.7" opacity="0.5" stroke="rgb(0,0,0)"  stroke-width="1.5" stroke-dasharray="5.0,5.0"/>
<line x1="219.0" y1="98.1" x2="216.9" y2="141.8" opacity="0.5" stroke="rgb(0,0,0)"  stroke-width="1.5"/>
<line x1="225.0" y1="98.4" x2="222.9" y2="142.1" opacity="0.5" stroke="rgb(0,0,0)"  stroke-width="1.5" stroke-dasharray="5.0,5.0"/>
<line x1="218.6" y1="139.3" x2="179.9" y2="158.3" opacity="0.5" stroke="rgb(0,0,0)"  stroke-width="1.5"/>
<line x1="221.3" y1="144.7" x2="182.5" y2="163.7" opacity="0.5" stroke="rgb(0,0,0)"  stroke-width="1.5" stroke-dasharray="5.0,5.0"/>
<line x1="182.9" y1="158.5" x2="147.8" y2="134.2" opacity="0.5" stroke="rgb(0,0,0)"  stroke-width="1.5"/>
<line x1="179.5" y1="163.4" x2="144.4" y2="139.1" opacity="0.5" stroke="rgb(0,0,0)"  stroke-width="1.5" stroke-dasharray="5.0,5.0"/>
<line x1="170.3" y1="206.4" x2="181.2" y2="161.0" opacity="0.5" stroke="rgb(0,0,0)"  stroke-width="1.5"/>
<line x1="111.0" y1="161.0" x2="121.9" y2="206.4" opacity="0.5" stroke="rgb(0,0,0)"  stroke-width="1.5"/>
<line x1="121.9" y1="206.4" x2="170.3" y2="206.4" opacity="0.5" stroke="rgb(0,0,0)"  stroke-width="1.5"/>
<circle cx="182.416064" cy="221.967250" r="5.636364" opacity="0.200000" style="stroke:black;stroke-width:0.5;fill:url(#radialffffffbfbfbf)"/>
<circle cx="109.756970" cy="222.017125" r="5.636364" opacity="0.200000" style="stroke:black;stroke-width:0.5;fill:url(#radialffffffbfbfbf)"/>
<circle cx="170.321281" cy="206.446651" r="13.818182" opacity="0.706890" style="stroke:black;stroke-width:0.5;fill:url(#radialffffff666666)"/>
<circle cx="248.338863" cy="160.349320" r="5.636364" opacity="0.707008" style="stroke:black;stroke-width:0.5;fill:url(#radialffffffbfbfbf)"/>
<circle cx="146.106779" cy="136.636689" r="13.818182" opacity="0.707048" style="stroke:black;stroke-width:0.5;fill:url(#radialffffff666666)"/>
<circle cx="111.025675" cy="160.975880" r="13.818182" opacity="0.707048" style="stroke:black;stroke-width:0.5;fill:url(#radialffffff666666)"/>
<circle cx="219.934827" cy="141.985824" r="13.818182" opacity="0.707048" style="stroke:black;stroke-width:0.5;fill:url(#radialffffff666666)"/>
<circle cx="72.281847" cy="141.992059" r="13.818182" opacity="0.707048" style="stroke:black;stroke-width:0.5;fill:url(#radialffffff666666)"/>
<circle cx="106.720805" cy="73.784343" r="13.818182" opacity="0.707048" style="stroke:black;stroke-width:0.5;fill:url(#radialffffff666666)"/>
<circle cx="70.252542" cy="98.245106" r="13.818182" opacity="0.707048" style="stroke:black;stroke-width:0.5;fill:url(#radialffffff666666)"/>
<circle cx="146.106779" cy="93.107941" r="13.818182" opacity="0.707087" style="stroke:black;stroke-width:0.5;fill:url(#radialffffff666666)"/>
<circle cx="104.130402" cy="40.003117" r="5.636364" opacity="0.707087" style="stroke:black;stroke-width:0.5;fill:url(#radialffffffbfbfbf)"/>
<circle cx="252.207323" cy="82.964533" r="5.636364" opacity="0.707087" style="stroke:black;stroke-width:0.5;fill:url(#radialffffffbfbfbf)"/>
<circle cx="40.000000" cy="82.973884" r="5.636364" opacity="0.707087" style="stroke:black;stroke-width:0.5;fill:url(#radialffffffbfbfbf)"/>
<circle cx="181.191000" cy="160.975880" r="13.818954" opacity="0.707127" style="stroke:black;stroke-width:0.5;fill:url(#radialffffff666666)"/>
<circle cx="185.486518" cy="73.778109" r="13.818954" opacity="0.707127" style="stroke:black;stroke-width:0.5;fill:url(#radialffffff666666)"/>
<circle cx="221.954781" cy="98.238871" r="13.818954" opacity="0.707127" style="stroke:black;stroke-width:0.5;fill:url(#radialffffff666666)"/>
<circle cx="43.877812" cy="160.358672" r="5.636678" opacity="0.707127" style="stroke:black;stroke-width:0.5;fill:url(#radialffffffbfbfbf)"/>
<circle cx="188.073804" cy="40.000000" r="5.636678" opacity="0.707127" style="stroke:black;stroke-width:0.5;fill:url(#radialffffffbfbfbf)"/>
<circle cx="121.898510" cy="206.449768" r="13.826672" opacity="0.707324" style="stroke:black;stroke-width:0.5;fill:url(#radialffffff666666)"/>
<circle cx="182.462822" cy="222.010891" r="11.256356" opacity="0.999274" style="stroke:black;stroke-width:0.5;fill:url(#radialffffffbfbfbf)"/>
<circle cx="109.803728" cy="221.970367" r="11.272727" opacity="1.000000" style="stroke:black;stroke-width:0.5;fill:url(#radialffffffbfbfbf)"/>
</svg>
</g>
</svg>
