<?xml version="1.0"?>
<svg version="1.1" id="topsvg"
xmlns="http://www.w3.org/2000/svg" xmlns:xlink="http://www.w3.org/1999/xlink"
xmlns:cml="http://www.xml-cml.org/schema" x="0" y="0" width="1024px" height="1024px" viewBox="0 0 100 100">
<title>6896 - Open Babel Depiction</title>
<rect x="0" y="0" width="100" height="100" fill="white"/>
<defs>
<radialGradient id='radialffffff0ccff' cx='50%' cy='50%' r='50%' fx='30%' fy='30%'>
  <stop offset=' 0%' stop-color="rgb(255,255,255)"  stop-opacity='1.0'/>
  <stop offset='100%' stop-color="rgb(12,12,255)"  stop-opacity ='1.0'/>
</radialGradient>
<radialGradient id='radialffffff666666' cx='50%' cy='50%' r='50%' fx='30%' fy='30%'>
  <stop offset=' 0%' stop-color="rgb(255,255,255)"  stop-opacity='1.0'/>
  <stop offset='100%' stop-color="rgb(102,102,102)"  stop-opacity ='1.0'/>
</radialGradient>
<radialGradient id='radialffffffbfbfbf' cx='50%' cy='50%' r='50%' fx='30%' fy='30%'>
  <stop offset=' 0%' stop-color="rgb(255,255,255)"  stop-opacity='1.0'/>
  <stop offset='100%' stop-color="rgb(191,191,191)"  stop-opacity ='1.0'/>
</radialGradient>
</defs>
<g transform="translate(0,0)">
<svg width="100" height="100" x="0" y="0" viewBox="0 0 298.567 268.626"
font-family="sans-serif" stroke="rgb(0,0,0)" stroke-width="2"  stroke-linecap="round">
<line x1="149.3" y1="211.9" x2="149.3" y2="165.9" opacity="1.0" stroke="rgb(0,0,0)"  stroke-width="1.5"/>
<line x1="149.3" y1="211.9" x2="177.5" y2="228.6" opacity="0.5" stroke="rgb(0,0,0)"  stroke-width="1.5"/>
<line x1="149.3" y1="211.9" x2="121.0" y2="228.6" opacity="0.5" stroke="rgb(0,0,0)"  stroke-width="1.5"/>
<line x1="110.0" y1="143.3" x2="67.5" y2="166.6" opacity="0.5" stroke="rgb(0,0,0)"  stroke-width="1.5"/>
<line x1="188.5" y1="143.3" x2="231.1" y2="166.6" opacity="0.5" stroke="rgb(0,0,0)"  stroke-width="1.5"/>
<line x1="110.0" y1="97.9" x2="79.8" y2="79.8" opacity="0.5" stroke="rgb(0,0,0)"  stroke-width="1.5"/>
<line x1="188.5" y1="97.9" x2="218.8" y2="79.8" opacity="0.5" stroke="rgb(0,0,0)"  stroke-width="1.5"/>
<line x1="149.3" y1="75.3" x2="149.3" y2="40.0" opacity="0.5" stroke="rgb(0,0,0)"  stroke-width="1.5"/>
<line x1="67.5" y1="166.6" x2="64.4" y2="186.9" opacity="0.5" stroke="rgb(0,0,0)"  stroke-width="0.8"/>
<line x1="67.5" y1="166.6" x2="64.3" y2="186.9" opacity="0.3" stroke="rgb(0,0,0)"  stroke-width="2.3"/>
<line x1="67.5" y1="166.6" x2="40.0" y2="144.0" opacity="0.8" stroke="rgb(0,0,0)"  stroke-width="1.5"/>
<line x1="231.1" y1="166.6" x2="234.2" y2="187.0" opacity="0.5" stroke="rgb(0,0,0)"  stroke-width="2.2"/>
<line x1="231.1" y1="166.6" x2="234.2" y2="186.9" opacity="0.7" stroke="rgb(0,0,0)"  stroke-width="0.8"/>
<line x1="231.1" y1="166.6" x2="258.6" y2="144.0" opacity="0.3" stroke="rgb(0,0,0)"  stroke-width="1.5"/>
<line x1="150.8" y1="168.5" x2="190.0" y2="145.9" opacity="0.5" stroke="rgb(0,0,0)"  stroke-width="1.5"/>
<line x1="147.8" y1="163.3" x2="187.0" y2="140.7" opacity="0.5" stroke="rgb(0,0,0)"  stroke-width="1.5" stroke-dasharray="5.0,5.0"/>
<line x1="191.5" y1="143.3" x2="191.5" y2="97.9" opacity="0.5" stroke="rgb(0,0,0)"  stroke-width="1.5"/>
<line x1="185.5" y1="143.3" x2="185.5" y2="97.9" opacity="0.5" stroke="rgb(0,0,0)"  stroke-width="1.5" stroke-dasharray="5.0,5.0"/>
<line x1="190.0" y1="95.4" x2="150.8" y2="72.7" opacity="0.5" stroke="rgb(0,0,0)"  stroke-width="1.5"/>
<line x1="187.0" y1="100.5" x2="147.8" y2="77.9" opacity="0.5" stroke="rgb(0,0,0)"  stroke-width="1.5" stroke-dasharray="5.0,5.0"/>
<line x1="147.8" y1="72.7" x2="108.5" y2="95.3" opacity="0.5" stroke="rgb(0,0,0)"  stroke-width="1.5"/>
<line x1="150.8" y1="77.9" x2="111.5" y2="100.5" opacity="0.5" stroke="rgb(0,0,0)"  stroke-width="1.5" stroke-dasharray="5.0,5.0"/>
<line x1="107.0" y1="97.9" x2="107.0" y2="143.3" opacity="0.5" stroke="rgb(0,0,0)"  stroke-width="1.5"/>
<line x1="113.0" y1="97.9" x2="113.0" y2="143.3" opacity="0.5" stroke="rgb(0,0,0)"  stroke-width="1.5" stroke-dasharray="5.0,5.0"/>
<line x1="108.5" y1="145.9" x2="147.8" y2="168.5" opacity="0.5" stroke="rgb(0,0,0)"  stroke-width="1.5"/>
<line x1="111.5" y1="140.7" x2="150.8" y2="163.3" opacity="0.5" stroke="rgb(0,0,0)"  stroke-width="1.5" stroke-dasharray="5.0,5.0"/>
<circle cx="234.174501" cy="186.901158" r="5.636364" opacity="0.200000" style="stroke:black;stroke-width:0.5;fill:url(#radialffffffbfbfbf)"/>
<circle cx="64.382272" cy="186.907655" r="5.636364" opacity="0.200000" style="stroke:black;stroke-width:0.5;fill:url(#radialffffffbfbfbf)"/>
<circle cx="231.071893" cy="166.648115" r="13.822042" opacity="0.707206" style="stroke:black;stroke-width:0.5;fill:url(#radialffffff666666)"/>
<circle cx="40.000000" cy="144.010451" r="5.637938" opacity="0.707206" style="stroke:black;stroke-width:0.5;fill:url(#radialffffffbfbfbf)"/>
<circle cx="258.566519" cy="144.036441" r="5.639828" opacity="0.707324" style="stroke:black;stroke-width:0.5;fill:url(#radialffffffbfbfbf)"/>
<circle cx="67.488128" cy="166.628622" r="13.828218" opacity="0.707364" style="stroke:black;stroke-width:0.5;fill:url(#radialffffff666666)"/>
<circle cx="79.778353" cy="79.758860" r="5.641717" opacity="0.707442" style="stroke:black;stroke-width:0.5;fill:url(#radialffffffbfbfbf)"/>
<circle cx="149.293006" cy="40.000000" r="5.643606" opacity="0.707561" style="stroke:black;stroke-width:0.5;fill:url(#radialffffffbfbfbf)"/>
<circle cx="110.044208" cy="97.939165" r="13.839026" opacity="0.707640" style="stroke:black;stroke-width:0.5;fill:url(#radialffffff666666)"/>
<circle cx="218.801161" cy="79.771855" r="5.644866" opacity="0.707640" style="stroke:black;stroke-width:0.5;fill:url(#radialffffffbfbfbf)"/>
<circle cx="149.289757" cy="75.285257" r="13.840570" opacity="0.707679" style="stroke:black;stroke-width:0.5;fill:url(#radialffffff666666)"/>
<circle cx="110.040959" cy="143.256729" r="13.842114" opacity="0.707719" style="stroke:black;stroke-width:0.5;fill:url(#radialffffff666666)"/>
<circle cx="188.532057" cy="97.948912" r="13.845202" opacity="0.707798" style="stroke:black;stroke-width:0.5;fill:url(#radialffffff666666)"/>
<circle cx="188.528808" cy="143.266475" r="13.848290" opacity="0.707877" style="stroke:black;stroke-width:0.5;fill:url(#radialffffff666666)"/>
<circle cx="149.270264" cy="211.864965" r="12.938661" opacity="0.707916" style="stroke:black;stroke-width:0.5;fill:url(#radialffffff0ccff)"/>
<circle cx="149.283259" cy="165.920383" r="13.849834" opacity="0.707916" style="stroke:black;stroke-width:0.5;fill:url(#radialffffff666666)"/>
<circle cx="121.034911" cy="228.615797" r="5.655572" opacity="0.708311" style="stroke:black;stroke-width:0.5;fill:url(#radialffffffbfbfbf)"/>
<circle cx="177.499120" cy="228.625544" r="5.657462" opacity="0.708429" style="stroke:black;stroke-width:0.5;fill:url(#radialffffffbfbfbf)"/>
<circle cx="234.213486" cy="186.962885" r="11.267059" opacity="0.999749" style="stroke:black;stroke-width:0.5;fill:url(#radialffffffbfbfbf)"/>
<circle cx="64.346535" cy="186.920650" r="11.272727" opacity="1.000000" style="stroke:black;stroke-width:0.5;fill:url(#radialffffffbfbfbf)"/>
</svg>
</g>
</svg>
