<?xml version="1.0"?>
<svg version="1.1" id="topsvg"
xmlns="http://www.w3.org/2000/svg" xmlns:xlink="http://www.w3.org/1999/xlink"
xmlns:cml="http://www.xml-cml.org/schema" x="0" y="0" width="200px" height="200px" viewBox="0 0 100 100">
<title>69425 - Open Babel Depiction</title>
<rect x="0" y="0" width="100" height="100" fill="white"/>
<defs>
<radialGradient id='radialffffff666666' cx='50%' cy='50%' r='50%' fx='30%' fy='30%'>
  <stop offset=' 0%' stop-color="rgb(255,255,255)"  stop-opacity='1.0'/>
  <stop offset='100%' stop-color="rgb(102,102,102)"  stop-opacity ='1.0'/>
</radialGradient>
<radialGradient id='radialffffffbfbfbf' cx='50%' cy='50%' r='50%' fx='30%' fy='30%'>
  <stop offset=' 0%' stop-color="rgb(255,255,255)"  stop-opacity='1.0'/>
  <stop offset='100%' stop-color="rgb(191,191,191)"  stop-opacity ='1.0'/>
</radialGradient>
</defs>
<g transform="translate(0,0)">
<svg width="100" height="100" x="0" y="0" viewBox="0 0 829.399 171.152"
font-family="sans-serif" stroke="rgb(0,0,0)" stroke-width="4"  stroke-linecap="round">
<line x1="429.6" y1="79.3" x2="470.8" y2="107.0" opacity="1.0" stroke="rgb(0,0,0)"  stroke-width="1.5"/>
<line x1="429.6" y1="79.3" x2="387.7" y2="106.0" opacity="0.5" stroke="rgb(0,0,0)"  stroke-width="1.6"/>
<line x1="429.6" y1="79.3" x2="430.2" y2="59.1" opacity="0.5" stroke="rgb(0,0,0)"  stroke-width="2.3"/>
<line x1="429.6" y1="79.3" x2="429.3" y2="57.0" opacity="0.8" stroke="rgb(0,0,0)"  stroke-width="0.9"/>
<line x1="470.8" y1="107.0" x2="511.5" y2="78.5" opacity="0.3" stroke="rgb(0,0,0)"  stroke-width="1.5"/>
<line x1="470.8" y1="107.0" x2="470.5" y2="127.1" opacity="0.5" stroke="rgb(0,0,0)"  stroke-width="0.8"/>
<line x1="470.8" y1="107.0" x2="471.5" y2="129.0" opacity="0.3" stroke="rgb(0,0,0)"  stroke-width="2.1"/>
<line x1="387.7" y1="106.0" x2="345.4" y2="80.0" opacity="0.7" stroke="rgb(0,0,0)"  stroke-width="1.6"/>
<line x1="387.7" y1="106.0" x2="388.1" y2="128.1" opacity="0.5" stroke="rgb(0,0,0)"  stroke-width="2.2"/>
<line x1="387.7" y1="106.0" x2="387.8" y2="126.6" opacity="0.7" stroke="rgb(0,0,0)"  stroke-width="0.9"/>
<line x1="511.5" y1="78.5" x2="553.9" y2="104.5" opacity="0.3" stroke="rgb(0,0,0)"  stroke-width="1.5"/>
<line x1="511.5" y1="78.5" x2="511.3" y2="57.8" opacity="0.5" stroke="rgb(0,0,0)"  stroke-width="2.2"/>
<line x1="511.5" y1="78.5" x2="510.7" y2="56.8" opacity="0.7" stroke="rgb(0,0,0)"  stroke-width="0.8"/>
<line x1="345.4" y1="80.0" x2="304.7" y2="108.3" opacity="0.3" stroke="rgb(0,0,0)"  stroke-width="1.5"/>
<line x1="345.4" y1="80.0" x2="345.3" y2="57.2" opacity="0.5" stroke="rgb(0,0,0)"  stroke-width="0.9"/>
<line x1="345.4" y1="80.0" x2="344.6" y2="60.4" opacity="0.3" stroke="rgb(0,0,0)"  stroke-width="2.3"/>
<line x1="553.9" y1="104.5" x2="594.5" y2="75.9" opacity="0.8" stroke="rgb(0,0,0)"  stroke-width="1.4"/>
<line x1="553.9" y1="104.5" x2="554.1" y2="125.6" opacity="0.5" stroke="rgb(0,0,0)"  stroke-width="0.8"/>
<line x1="553.9" y1="104.5" x2="555.0" y2="125.8" opacity="0.3" stroke="rgb(0,0,0)"  stroke-width="2.1"/>
<line x1="304.7" y1="108.3" x2="263.5" y2="80.7" opacity="0.7" stroke="rgb(0,0,0)"  stroke-width="1.5"/>
<line x1="304.7" y1="108.3" x2="305.3" y2="127.7" opacity="0.5" stroke="rgb(0,0,0)"  stroke-width="0.8"/>
<line x1="304.7" y1="108.3" x2="304.7" y2="131.2" opacity="0.3" stroke="rgb(0,0,0)"  stroke-width="2.1"/>
<line x1="594.5" y1="75.9" x2="636.9" y2="101.9" opacity="0.7" stroke="rgb(0,0,0)"  stroke-width="1.5"/>
<line x1="594.5" y1="75.9" x2="594.2" y2="55.7" opacity="0.5" stroke="rgb(0,0,0)"  stroke-width="0.7"/>
<line x1="594.5" y1="75.9" x2="593.6" y2="53.7" opacity="0.2" stroke="rgb(0,0,0)"  stroke-width="2.1"/>
<line x1="263.5" y1="80.7" x2="222.7" y2="109.1" opacity="0.7" stroke="rgb(0,0,0)"  stroke-width="1.5"/>
<line x1="263.5" y1="80.7" x2="263.3" y2="60.9" opacity="0.5" stroke="rgb(0,0,0)"  stroke-width="2.2"/>
<line x1="263.5" y1="80.7" x2="263.3" y2="58.4" opacity="0.7" stroke="rgb(0,0,0)"  stroke-width="0.9"/>
<line x1="636.9" y1="101.9" x2="677.5" y2="73.3" opacity="0.3" stroke="rgb(0,0,0)"  stroke-width="1.5"/>
<line x1="636.9" y1="101.9" x2="636.9" y2="122.6" opacity="0.5" stroke="rgb(0,0,0)"  stroke-width="2.2"/>
<line x1="636.9" y1="101.9" x2="638.1" y2="123.6" opacity="0.7" stroke="rgb(0,0,0)"  stroke-width="0.8"/>
<line x1="222.7" y1="109.1" x2="181.5" y2="81.3" opacity="0.3" stroke="rgb(0,0,0)"  stroke-width="1.5"/>
<line x1="222.7" y1="109.1" x2="222.5" y2="130.9" opacity="0.5" stroke="rgb(0,0,0)"  stroke-width="2.2"/>
<line x1="222.7" y1="109.1" x2="223.2" y2="129.4" opacity="0.7" stroke="rgb(0,0,0)"  stroke-width="0.8"/>
<line x1="677.5" y1="73.3" x2="719.8" y2="99.4" opacity="0.3" stroke="rgb(0,0,0)"  stroke-width="1.5"/>
<line x1="677.5" y1="73.3" x2="677.0" y2="52.5" opacity="0.5" stroke="rgb(0,0,0)"  stroke-width="2.2"/>
<line x1="677.5" y1="73.3" x2="676.8" y2="51.8" opacity="0.7" stroke="rgb(0,0,0)"  stroke-width="0.8"/>
<line x1="181.5" y1="81.3" x2="140.0" y2="108.4" opacity="0.3" stroke="rgb(0,0,0)"  stroke-width="1.5"/>
<line x1="181.5" y1="81.3" x2="182.3" y2="58.8" opacity="0.5" stroke="rgb(0,0,0)"  stroke-width="0.8"/>
<line x1="181.5" y1="81.3" x2="181.0" y2="61.2" opacity="0.3" stroke="rgb(0,0,0)"  stroke-width="2.2"/>
<line x1="719.8" y1="99.4" x2="760.3" y2="71.3" opacity="0.7" stroke="rgb(0,0,0)"  stroke-width="1.4"/>
<line x1="719.8" y1="99.4" x2="721.3" y2="119.9" opacity="0.5" stroke="rgb(0,0,0)"  stroke-width="2.2"/>
<line x1="719.8" y1="99.4" x2="719.8" y2="121.3" opacity="0.7" stroke="rgb(0,0,0)"  stroke-width="0.8"/>
<line x1="140.0" y1="108.4" x2="100.7" y2="81.4" opacity="0.3" stroke="rgb(0,0,0)"  stroke-width="1.4"/>
<line x1="140.0" y1="108.4" x2="139.2" y2="131.0" opacity="0.5" stroke="rgb(0,0,0)"  stroke-width="2.1"/>
<line x1="140.0" y1="108.4" x2="140.2" y2="128.2" opacity="0.7" stroke="rgb(0,0,0)"  stroke-width="0.7"/>
<line x1="760.3" y1="71.3" x2="760.4" y2="51.3" opacity="0.2" stroke="rgb(0,0,0)"  stroke-width="0.7"/>
<line x1="760.3" y1="71.3" x2="789.4" y2="91.6" opacity="0.2" stroke="rgb(0,0,0)"  stroke-width="1.4"/>
<line x1="760.3" y1="71.3" x2="762.0" y2="49.7" opacity="0.5" stroke="rgb(0,0,0)"  stroke-width="2.1"/>
<line x1="100.7" y1="81.4" x2="68.5" y2="59.5" opacity="0.7" stroke="rgb(0,0,0)"  stroke-width="1.4"/>
<line x1="98.3" y1="84.9" x2="66.2" y2="62.9" opacity="0.7" stroke="rgb(0,0,0)"  stroke-width="1.4"/>
<line x1="103.1" y1="77.9" x2="70.9" y2="56.0" opacity="0.7" stroke="rgb(0,0,0)"  stroke-width="1.4"/>
<line x1="68.5" y1="59.5" x2="40.0" y2="40.0" opacity="0.5" stroke="rgb(0,0,0)"  stroke-width="1.5"/>
<circle cx="140.222627" cy="128.167624" r="5.636364" opacity="0.200000" style="stroke:black;stroke-width:0.5;fill:url(#radialffffffbfbfbf)"/>
<circle cx="760.390281" cy="51.347794" r="5.636364" opacity="0.200000" style="stroke:black;stroke-width:0.5;fill:url(#radialffffffbfbfbf)"/>
<circle cx="594.202517" cy="55.675398" r="5.636364" opacity="0.200000" style="stroke:black;stroke-width:0.5;fill:url(#radialffffffbfbfbf)"/>
<circle cx="305.294427" cy="127.668035" r="5.636364" opacity="0.200000" style="stroke:black;stroke-width:0.5;fill:url(#radialffffffbfbfbf)"/>
<circle cx="554.144609" cy="125.633997" r="5.636364" opacity="0.200000" style="stroke:black;stroke-width:0.5;fill:url(#radialffffffbfbfbf)"/>
<circle cx="470.492746" cy="127.123030" r="5.636364" opacity="0.200000" style="stroke:black;stroke-width:0.5;fill:url(#radialffffffbfbfbf)"/>
<circle cx="223.167281" cy="129.380910" r="5.636364" opacity="0.200000" style="stroke:black;stroke-width:0.5;fill:url(#radialffffffbfbfbf)"/>
<circle cx="510.729078" cy="56.765409" r="5.636364" opacity="0.230144" style="stroke:black;stroke-width:0.5;fill:url(#radialffffffbfbfbf)"/>
<circle cx="719.758171" cy="121.309637" r="5.636364" opacity="0.233242" style="stroke:black;stroke-width:0.5;fill:url(#radialffffffbfbfbf)"/>
<circle cx="638.127369" cy="123.632399" r="5.636364" opacity="0.235430" style="stroke:black;stroke-width:0.5;fill:url(#radialffffffbfbfbf)"/>
<circle cx="387.775178" cy="126.555316" r="5.636364" opacity="0.241026" style="stroke:black;stroke-width:0.5;fill:url(#radialffffffbfbfbf)"/>
<circle cx="676.835739" cy="51.788989" r="5.636364" opacity="0.243460" style="stroke:black;stroke-width:0.5;fill:url(#radialffffffbfbfbf)"/>
<circle cx="182.285377" cy="58.799447" r="5.636364" opacity="0.253671" style="stroke:black;stroke-width:0.5;fill:url(#radialffffffbfbfbf)"/>
<circle cx="263.319268" cy="58.377717" r="5.636364" opacity="0.279172" style="stroke:black;stroke-width:0.5;fill:url(#radialffffffbfbfbf)"/>
<circle cx="429.309142" cy="56.989250" r="5.636364" opacity="0.289628" style="stroke:black;stroke-width:0.5;fill:url(#radialffffffbfbfbf)"/>
<circle cx="345.313406" cy="57.213092" r="5.636364" opacity="0.314088" style="stroke:black;stroke-width:0.5;fill:url(#radialffffffbfbfbf)"/>
<circle cx="789.398850" cy="91.584126" r="5.636364" opacity="0.680068" style="stroke:black;stroke-width:0.5;fill:url(#radialffffffbfbfbf)"/>
<circle cx="760.260517" cy="71.302134" r="13.818182" opacity="0.683153" style="stroke:black;stroke-width:0.5;fill:url(#radialffffff666666)"/>
<circle cx="140.002030" cy="108.404685" r="13.818182" opacity="0.683640" style="stroke:black;stroke-width:0.5;fill:url(#radialffffff666666)"/>
<circle cx="594.526925" cy="75.905485" r="13.818182" opacity="0.690023" style="stroke:black;stroke-width:0.5;fill:url(#radialffffff666666)"/>
<circle cx="100.703237" cy="81.417178" r="13.818182" opacity="0.691026" style="stroke:black;stroke-width:0.5;fill:url(#radialffffff666666)"/>
<circle cx="553.907792" cy="104.485835" r="13.818182" opacity="0.696568" style="stroke:black;stroke-width:0.5;fill:url(#radialffffff666666)"/>
<circle cx="68.531689" cy="59.470972" r="13.818182" opacity="0.696568" style="stroke:black;stroke-width:0.5;fill:url(#radialffffff666666)"/>
<circle cx="40.000000" cy="40.000000" r="5.636364" opacity="0.701446" style="stroke:black;stroke-width:0.5;fill:url(#radialffffffbfbfbf)"/>
<circle cx="304.726713" cy="108.333315" r="13.818182" opacity="0.704000" style="stroke:black;stroke-width:0.5;fill:url(#radialffffff666666)"/>
<circle cx="470.826886" cy="106.954580" r="13.818182" opacity="0.704182" style="stroke:black;stroke-width:0.5;fill:url(#radialffffff666666)"/>
<circle cx="222.745551" cy="109.050257" r="13.818182" opacity="0.705237" style="stroke:black;stroke-width:0.5;fill:url(#radialffffff666666)"/>
<circle cx="719.780879" cy="99.444534" r="13.818182" opacity="0.705637" style="stroke:black;stroke-width:0.5;fill:url(#radialffffff666666)"/>
<circle cx="511.540098" cy="78.497505" r="13.818182" opacity="0.705927" style="stroke:black;stroke-width:0.5;fill:url(#radialffffff666666)"/>
<circle cx="636.904351" cy="101.897059" r="13.827393" opacity="0.707342" style="stroke:black;stroke-width:0.5;fill:url(#radialffffff666666)"/>
<circle cx="181.510042" cy="81.290658" r="13.835895" opacity="0.707560" style="stroke:black;stroke-width:0.5;fill:url(#radialffffff666666)"/>
<circle cx="677.533217" cy="73.339417" r="14.005938" opacity="0.711895" style="stroke:black;stroke-width:0.5;fill:url(#radialffffff666666)"/>
<circle cx="263.491204" cy="80.716456" r="14.249668" opacity="0.718062" style="stroke:black;stroke-width:0.5;fill:url(#radialffffff666666)"/>
<circle cx="387.749225" cy="105.968380" r="14.295013" opacity="0.719204" style="stroke:black;stroke-width:0.5;fill:url(#radialffffff666666)"/>
<circle cx="429.643282" cy="79.250132" r="14.448052" opacity="0.723043" style="stroke:black;stroke-width:0.5;fill:url(#radialffffff666666)"/>
<circle cx="345.400996" cy="79.983294" r="14.671943" opacity="0.728624" style="stroke:black;stroke-width:0.5;fill:url(#radialffffff666666)"/>
<circle cx="139.178034" cy="130.986730" r="10.162968" opacity="0.949502" style="stroke:black;stroke-width:0.5;fill:url(#radialffffffbfbfbf)"/>
<circle cx="762.038274" cy="49.719266" r="10.274522" opacity="0.954699" style="stroke:black;stroke-width:0.5;fill:url(#radialffffffbfbfbf)"/>
<circle cx="593.563433" cy="53.745170" r="10.325964" opacity="0.957086" style="stroke:black;stroke-width:0.5;fill:url(#radialffffffbfbfbf)"/>
<circle cx="304.700760" cy="131.152178" r="10.450812" opacity="0.962854" style="stroke:black;stroke-width:0.5;fill:url(#radialffffffbfbfbf)"/>
<circle cx="554.965362" cy="125.760516" r="10.548494" opacity="0.967344" style="stroke:black;stroke-width:0.5;fill:url(#radialffffffbfbfbf)"/>
<circle cx="471.537340" cy="128.962424" r="10.566990" opacity="0.968191" style="stroke:black;stroke-width:0.5;fill:url(#radialffffffbfbfbf)"/>
<circle cx="222.518465" cy="130.918604" r="10.605716" opacity="0.969964" style="stroke:black;stroke-width:0.5;fill:url(#radialffffffbfbfbf)"/>
<circle cx="511.277328" cy="57.780806" r="10.774492" opacity="0.977651" style="stroke:black;stroke-width:0.5;fill:url(#radialffffffbfbfbf)"/>
<circle cx="721.341282" cy="119.930903" r="10.786052" opacity="0.978175" style="stroke:black;stroke-width:0.5;fill:url(#radialffffffbfbfbf)"/>
<circle cx="636.949768" cy="122.578073" r="10.799924" opacity="0.978804" style="stroke:black;stroke-width:0.5;fill:url(#radialffffffbfbfbf)"/>
<circle cx="388.093097" cy="128.076790" r="10.802814" opacity="0.978935" style="stroke:black;stroke-width:0.5;fill:url(#radialffffffbfbfbf)"/>
<circle cx="676.984967" cy="52.467002" r="10.846742" opacity="0.980924" style="stroke:black;stroke-width:0.5;fill:url(#radialffffffbfbfbf)"/>
<circle cx="181.049382" cy="61.154650" r="10.877954" opacity="0.982334" style="stroke:black;stroke-width:0.5;fill:url(#radialffffffbfbfbf)"/>
<circle cx="263.290071" cy="60.852950" r="11.071583" opacity="0.991038" style="stroke:black;stroke-width:0.5;fill:url(#radialffffffbfbfbf)"/>
<circle cx="430.175312" cy="59.071950" r="11.114933" opacity="0.992976" style="stroke:black;stroke-width:0.5;fill:url(#radialffffffbfbfbf)"/>
<circle cx="344.564023" cy="60.363094" r="11.272727" opacity="1.000000" style="stroke:black;stroke-width:0.5;fill:url(#radialffffffbfbfbf)"/>
</svg>
</g>
</svg>
