<?xml version="1.0"?>
<svg version="1.1" id="topsvg"
xmlns="http://www.w3.org/2000/svg" xmlns:xlink="http://www.w3.org/1999/xlink"
xmlns:cml="http://www.xml-cml.org/schema" x="0" y="0" width="200px" height="200px" viewBox="0 0 100 100">
<title>69823 - Open Babel Depiction</title>
<rect x="0" y="0" width="100" height="100" fill="white"/>
<defs>
<radialGradient id='radialffffff666666' cx='50%' cy='50%' r='50%' fx='30%' fy='30%'>
  <stop offset=' 0%' stop-color="rgb(255,255,255)"  stop-opacity='1.0'/>
  <stop offset='100%' stop-color="rgb(102,102,102)"  stop-opacity ='1.0'/>
</radialGradient>
<radialGradient id='radialffffffbfbfbf' cx='50%' cy='50%' r='50%' fx='30%' fy='30%'>
  <stop offset=' 0%' stop-color="rgb(255,255,255)"  stop-opacity='1.0'/>
  <stop offset='100%' stop-color="rgb(191,191,191)"  stop-opacity ='1.0'/>
</radialGradient>
</defs>
<g transform="translate(0,0)">
<svg width="100" height="100" x="0" y="0" viewBox="0 0 589.6 246.035"
font-family="sans-serif" stroke="rgb(0,0,0)" stroke-width="4"  stroke-linecap="round">
<line x1="314.2" y1="90.3" x2="274.2" y2="114.9" opacity="1.0" stroke="rgb(0,0,0)"  stroke-width="1.4"/>
<line x1="314.2" y1="90.3" x2="358.4" y2="107.1" opacity="0.5" stroke="rgb(0,0,0)"  stroke-width="1.4"/>
<line x1="314.2" y1="90.3" x2="311.1" y2="56.0" opacity="0.5" stroke="rgb(0,0,0)"  stroke-width="1.5"/>
<line x1="314.2" y1="90.3" x2="313.7" y2="91.2" opacity="0.5" stroke="rgb(0,0,0)"  stroke-width="2.3"/>
<line x1="274.2" y1="114.9" x2="231.2" y2="97.7" opacity="0.8" stroke="rgb(0,0,0)"  stroke-width="1.4"/>
<line x1="274.2" y1="114.9" x2="277.5" y2="149.4" opacity="0.5" stroke="rgb(0,0,0)"  stroke-width="1.3"/>
<line x1="274.2" y1="114.9" x2="273.5" y2="113.0" opacity="0.4" stroke="rgb(0,0,0)"  stroke-width="0.6"/>
<line x1="358.4" y1="107.1" x2="397.0" y2="82.5" opacity="0.2" stroke="rgb(0,0,0)"  stroke-width="1.5"/>
<line x1="358.4" y1="107.1" x2="361.2" y2="141.7" opacity="0.5" stroke="rgb(0,0,0)"  stroke-width="1.3"/>
<line x1="358.4" y1="107.1" x2="359.5" y2="104.8" opacity="0.4" stroke="rgb(0,0,0)"  stroke-width="0.6"/>
<line x1="231.2" y1="97.7" x2="191.3" y2="122.4" opacity="0.2" stroke="rgb(0,0,0)"  stroke-width="1.5"/>
<line x1="231.2" y1="97.7" x2="227.9" y2="63.2" opacity="0.5" stroke="rgb(0,0,0)"  stroke-width="1.6"/>
<line x1="231.2" y1="97.7" x2="232.1" y2="99.7" opacity="0.5" stroke="rgb(0,0,0)"  stroke-width="2.3"/>
<line x1="397.0" y1="82.5" x2="440.0" y2="98.7" opacity="0.8" stroke="rgb(0,0,0)"  stroke-width="1.5"/>
<line x1="397.0" y1="82.5" x2="397.1" y2="86.6" opacity="0.5" stroke="rgb(0,0,0)"  stroke-width="2.4"/>
<line x1="397.0" y1="82.5" x2="393.5" y2="47.7" opacity="0.8" stroke="rgb(0,0,0)"  stroke-width="1.7"/>
<line x1="191.3" y1="122.4" x2="148.4" y2="105.9" opacity="0.6" stroke="rgb(0,0,0)"  stroke-width="1.5"/>
<line x1="191.3" y1="122.4" x2="190.3" y2="120.0" opacity="0.5" stroke="rgb(0,0,0)"  stroke-width="0.6"/>
<line x1="191.3" y1="122.4" x2="195.0" y2="157.0" opacity="0.2" stroke="rgb(0,0,0)"  stroke-width="1.3"/>
<line x1="440.0" y1="98.7" x2="479.9" y2="74.7" opacity="0.4" stroke="rgb(0,0,0)"  stroke-width="1.5"/>
<line x1="440.0" y1="98.7" x2="439.4" y2="95.2" opacity="0.5" stroke="rgb(0,0,0)"  stroke-width="0.6"/>
<line x1="440.0" y1="98.7" x2="443.0" y2="133.6" opacity="0.2" stroke="rgb(0,0,0)"  stroke-width="1.3"/>
<line x1="148.4" y1="105.9" x2="109.8" y2="131.9" opacity="0.4" stroke="rgb(0,0,0)"  stroke-width="1.5"/>
<line x1="148.4" y1="105.9" x2="144.3" y2="71.4" opacity="0.5" stroke="rgb(0,0,0)"  stroke-width="1.7"/>
<line x1="148.4" y1="105.9" x2="149.3" y2="108.4" opacity="0.6" stroke="rgb(0,0,0)"  stroke-width="2.4"/>
<line x1="479.9" y1="74.7" x2="523.8" y2="90.3" opacity="0.8" stroke="rgb(0,0,0)"  stroke-width="1.5"/>
<line x1="479.9" y1="74.7" x2="480.0" y2="77.5" opacity="0.5" stroke="rgb(0,0,0)"  stroke-width="2.3"/>
<line x1="479.9" y1="74.7" x2="476.6" y2="40.0" opacity="0.8" stroke="rgb(0,0,0)"  stroke-width="1.7"/>
<line x1="109.8" y1="131.9" x2="67.1" y2="116.4" opacity="0.6" stroke="rgb(0,0,0)"  stroke-width="1.5"/>
<line x1="109.8" y1="131.9" x2="114.1" y2="166.5" opacity="0.5" stroke="rgb(0,0,0)"  stroke-width="1.4"/>
<line x1="109.8" y1="131.9" x2="108.3" y2="128.9" opacity="0.5" stroke="rgb(0,0,0)"  stroke-width="0.7"/>
<line x1="523.8" y1="90.3" x2="532.8" y2="135.8" opacity="0.2" stroke="rgb(0,0,0)"  stroke-width="1.4"/>
<line x1="523.8" y1="90.3" x2="549.6" y2="69.6" opacity="0.5" stroke="rgb(0,0,0)"  stroke-width="1.4"/>
<line x1="523.8" y1="90.3" x2="524.6" y2="86.3" opacity="0.5" stroke="rgb(0,0,0)"  stroke-width="0.6"/>
<line x1="67.1" y1="116.4" x2="61.3" y2="82.1" opacity="0.2" stroke="rgb(0,0,0)"  stroke-width="1.7"/>
<line x1="67.1" y1="116.4" x2="67.1" y2="120.0" opacity="0.6" stroke="rgb(0,0,0)"  stroke-width="2.4"/>
<line x1="67.1" y1="116.4" x2="40.0" y2="135.4" opacity="0.8" stroke="rgb(0,0,0)"  stroke-width="1.7"/>
<line x1="532.8" y1="135.8" x2="540.3" y2="173.0" opacity="0.6" stroke="rgb(0,0,0)"  stroke-width="1.7"/>
<line x1="536.9" y1="135.0" x2="544.4" y2="172.2" opacity="0.6" stroke="rgb(0,0,0)"  stroke-width="1.7"/>
<line x1="528.7" y1="136.7" x2="536.2" y2="173.9" opacity="0.6" stroke="rgb(0,0,0)"  stroke-width="1.7"/>
<line x1="540.3" y1="173.0" x2="547.0" y2="206.0" opacity="0.6" stroke="rgb(0,0,0)"  stroke-width="2.0"/>
<circle cx="273.517994" cy="113.003836" r="5.636364" opacity="0.200000" style="stroke:black;stroke-width:0.5;fill:url(#radialffffffbfbfbf)"/>
<circle cx="359.539303" cy="104.775259" r="5.636364" opacity="0.200000" style="stroke:black;stroke-width:0.5;fill:url(#radialffffffbfbfbf)"/>
<circle cx="190.253632" cy="119.970980" r="5.636364" opacity="0.200000" style="stroke:black;stroke-width:0.5;fill:url(#radialffffffbfbfbf)"/>
<circle cx="439.389992" cy="95.155203" r="5.636364" opacity="0.200000" style="stroke:black;stroke-width:0.5;fill:url(#radialffffffbfbfbf)"/>
<circle cx="524.556258" cy="86.338173" r="5.636364" opacity="0.200000" style="stroke:black;stroke-width:0.5;fill:url(#radialffffffbfbfbf)"/>
<circle cx="108.348236" cy="128.879041" r="5.636364" opacity="0.200000" style="stroke:black;stroke-width:0.5;fill:url(#radialffffffbfbfbf)"/>
<circle cx="274.207230" cy="114.925246" r="13.818182" opacity="0.617576" style="stroke:black;stroke-width:0.5;fill:url(#radialffffff666666)"/>
<circle cx="358.365650" cy="107.109561" r="13.818182" opacity="0.627923" style="stroke:black;stroke-width:0.5;fill:url(#radialffffff666666)"/>
<circle cx="191.336254" cy="122.422323" r="13.818182" opacity="0.630939" style="stroke:black;stroke-width:0.5;fill:url(#radialffffff666666)"/>
<circle cx="440.020709" cy="98.734683" r="13.818182" opacity="0.632648" style="stroke:black;stroke-width:0.5;fill:url(#radialffffff666666)"/>
<circle cx="523.821505" cy="90.304536" r="13.818182" opacity="0.635258" style="stroke:black;stroke-width:0.5;fill:url(#radialffffff666666)"/>
<circle cx="109.824244" cy="131.918836" r="13.818182" opacity="0.642129" style="stroke:black;stroke-width:0.5;fill:url(#radialffffff666666)"/>
<circle cx="311.087904" cy="55.966236" r="5.636364" opacity="0.680422" style="stroke:black;stroke-width:0.5;fill:url(#radialffffffbfbfbf)"/>
<circle cx="277.500612" cy="149.432604" r="5.636364" opacity="0.686436" style="stroke:black;stroke-width:0.5;fill:url(#radialffffffbfbfbf)"/>
<circle cx="442.985728" cy="133.612668" r="5.636364" opacity="0.687450" style="stroke:black;stroke-width:0.5;fill:url(#radialffffffbfbfbf)"/>
<circle cx="40.000000" cy="135.394280" r="5.636364" opacity="0.693554" style="stroke:black;stroke-width:0.5;fill:url(#radialffffffbfbfbf)"/>
<circle cx="361.184368" cy="141.720954" r="5.636364" opacity="0.693755" style="stroke:black;stroke-width:0.5;fill:url(#radialffffffbfbfbf)"/>
<circle cx="195.036025" cy="157.030465" r="5.636364" opacity="0.694031" style="stroke:black;stroke-width:0.5;fill:url(#radialffffffbfbfbf)"/>
<circle cx="227.937331" cy="63.212977" r="5.636364" opacity="0.698882" style="stroke:black;stroke-width:0.5;fill:url(#radialffffffbfbfbf)"/>
<circle cx="114.118969" cy="166.504221" r="5.636364" opacity="0.701643" style="stroke:black;stroke-width:0.5;fill:url(#radialffffffbfbfbf)"/>
<circle cx="476.615284" cy="40.000000" r="5.765543" opacity="0.715164" style="stroke:black;stroke-width:0.5;fill:url(#radialffffffbfbfbf)"/>
<circle cx="144.292588" cy="71.412294" r="5.804021" opacity="0.717546" style="stroke:black;stroke-width:0.5;fill:url(#radialffffffbfbfbf)"/>
<circle cx="532.820597" cy="135.849437" r="14.480453" opacity="0.723853" style="stroke:black;stroke-width:0.5;fill:url(#radialffffff666666)"/>
<circle cx="393.490720" cy="47.669385" r="6.009765" opacity="0.730154" style="stroke:black;stroke-width:0.5;fill:url(#radialffffffbfbfbf)"/>
<circle cx="61.311073" cy="82.131228" r="6.067091" opacity="0.733628" style="stroke:black;stroke-width:0.5;fill:url(#radialffffffbfbfbf)"/>
<circle cx="549.599613" cy="69.572162" r="6.149938" opacity="0.738620" style="stroke:black;stroke-width:0.5;fill:url(#radialffffffbfbfbf)"/>
<circle cx="314.150456" cy="90.307787" r="15.513328" opacity="0.749225" style="stroke:black;stroke-width:0.5;fill:url(#radialffffff666666)"/>
<circle cx="231.240466" cy="97.736590" r="15.956126" opacity="0.759842" style="stroke:black;stroke-width:0.5;fill:url(#radialffffff666666)"/>
<circle cx="479.941177" cy="74.728434" r="16.340205" opacity="0.768933" style="stroke:black;stroke-width:0.5;fill:url(#radialffffff666666)"/>
<circle cx="148.385744" cy="105.909899" r="16.602033" opacity="0.775069" style="stroke:black;stroke-width:0.5;fill:url(#radialffffff666666)"/>
<circle cx="396.966164" cy="82.527864" r="16.685779" opacity="0.777021" style="stroke:black;stroke-width:0.5;fill:url(#radialffffff666666)"/>
<circle cx="67.111066" cy="116.391500" r="17.154568" opacity="0.787861" style="stroke:black;stroke-width:0.5;fill:url(#radialffffff666666)"/>
<circle cx="540.324176" cy="173.042217" r="17.194997" opacity="0.788789" style="stroke:black;stroke-width:0.5;fill:url(#radialffffff666666)"/>
<circle cx="546.962957" cy="206.034554" r="7.996137" opacity="0.842220" style="stroke:black;stroke-width:0.5;fill:url(#radialffffffbfbfbf)"/>
<circle cx="313.737564" cy="91.195342" r="10.635863" opacity="0.971341" style="stroke:black;stroke-width:0.5;fill:url(#radialffffffbfbfbf)"/>
<circle cx="232.082505" cy="99.726274" r="10.807840" opacity="0.979163" style="stroke:black;stroke-width:0.5;fill:url(#radialffffffbfbfbf)"/>
<circle cx="479.976939" cy="77.465874" r="10.963326" opacity="0.986181" style="stroke:black;stroke-width:0.5;fill:url(#radialffffffbfbfbf)"/>
<circle cx="149.344824" cy="108.413259" r="11.065805" opacity="0.990780" style="stroke:black;stroke-width:0.5;fill:url(#radialffffffbfbfbf)"/>
<circle cx="397.099460" cy="86.608016" r="11.082689" opacity="0.991535" style="stroke:black;stroke-width:0.5;fill:url(#radialffffffbfbfbf)"/>
<circle cx="67.143577" cy="120.039254" r="11.272727" opacity="1.000000" style="stroke:black;stroke-width:0.5;fill:url(#radialffffffbfbfbf)"/>
</svg>
</g>
</svg>
