<?xml version="1.0"?>
<svg version="1.1" id="topsvg"
xmlns="http://www.w3.org/2000/svg" xmlns:xlink="http://www.w3.org/1999/xlink"
xmlns:cml="http://www.xml-cml.org/schema" x="0" y="0" width="200px" height="200px" viewBox="0 0 100 100">
<title>7095 - Open Babel Depiction</title>
<rect x="0" y="0" width="100" height="100" fill="white"/>
<defs>
<radialGradient id='radialffffff666666' cx='50%' cy='50%' r='50%' fx='30%' fy='30%'>
  <stop offset=' 0%' stop-color="rgb(255,255,255)"  stop-opacity='1.0'/>
  <stop offset='100%' stop-color="rgb(102,102,102)"  stop-opacity ='1.0'/>
</radialGradient>
<radialGradient id='radialffffffbfbfbf' cx='50%' cy='50%' r='50%' fx='30%' fy='30%'>
  <stop offset=' 0%' stop-color="rgb(255,255,255)"  stop-opacity='1.0'/>
  <stop offset='100%' stop-color="rgb(191,191,191)"  stop-opacity ='1.0'/>
</radialGradient>
</defs>
<g transform="translate(0,0)">
<svg width="100" height="100" x="0" y="0" viewBox="0 0 371.293 188.507"
font-family="sans-serif" stroke="rgb(0,0,0)" stroke-width="2"  stroke-linecap="round">
<line x1="208.6" y1="94.3" x2="162.7" y2="94.3" opacity="1.0" stroke="rgb(0,0,0)"  stroke-width="1.5"/>
<line x1="230.6" y1="71.0" x2="213.9" y2="52.7" opacity="0.5" stroke="rgb(0,0,0)"  stroke-width="2.7"/>
<line x1="140.7" y1="124.6" x2="157.4" y2="148.5" opacity="0.9" stroke="rgb(0,0,0)"  stroke-width="2.4"/>
<line x1="230.6" y1="117.5" x2="213.9" y2="135.9" opacity="0.8" stroke="rgb(0,0,0)"  stroke-width="0.4"/>
<line x1="140.6" y1="63.9" x2="157.4" y2="40.0" opacity="0.1" stroke="rgb(0,0,0)"  stroke-width="0.6"/>
<line x1="274.8" y1="71.0" x2="292.0" y2="52.9" opacity="0.2" stroke="rgb(0,0,0)"  stroke-width="2.7"/>
<line x1="96.5" y1="124.6" x2="79.3" y2="148.3" opacity="0.9" stroke="rgb(0,0,0)"  stroke-width="2.4"/>
<line x1="274.8" y1="117.5" x2="292.0" y2="135.6" opacity="0.8" stroke="rgb(0,0,0)"  stroke-width="0.4"/>
<line x1="96.5" y1="63.9" x2="79.3" y2="40.3" opacity="0.1" stroke="rgb(0,0,0)"  stroke-width="0.6"/>
<line x1="296.9" y1="94.3" x2="331.3" y2="94.3" opacity="0.2" stroke="rgb(0,0,0)"  stroke-width="1.5"/>
<line x1="74.4" y1="94.3" x2="40.0" y2="94.3" opacity="0.5" stroke="rgb(0,0,0)"  stroke-width="1.5"/>
<line x1="206.4" y1="96.3" x2="228.5" y2="119.6" opacity="0.4" stroke="rgb(0,0,0)"  stroke-width="1.1"/>
<line x1="210.7" y1="92.2" x2="232.8" y2="115.5" opacity="0.4" stroke="rgb(0,0,0)"  stroke-width="1.1" stroke-dasharray="5.0,5.0"/>
<line x1="230.7" y1="120.5" x2="274.8" y2="120.5" opacity="0.2" stroke="rgb(0,0,0)"  stroke-width="0.7"/>
<line x1="230.6" y1="114.5" x2="274.8" y2="114.5" opacity="0.2" stroke="rgb(0,0,0)"  stroke-width="0.7" stroke-dasharray="5.0,5.0"/>
<line x1="277.0" y1="119.6" x2="299.1" y2="96.3" opacity="0.4" stroke="rgb(0,0,0)"  stroke-width="1.1"/>
<line x1="272.6" y1="115.5" x2="294.7" y2="92.2" opacity="0.4" stroke="rgb(0,0,0)"  stroke-width="1.1" stroke-dasharray="5.0,5.0"/>
<line x1="299.1" y1="92.2" x2="277.0" y2="68.9" opacity="0.6" stroke="rgb(0,0,0)"  stroke-width="1.9"/>
<line x1="294.7" y1="96.3" x2="272.6" y2="73.0" opacity="0.6" stroke="rgb(0,0,0)"  stroke-width="1.9" stroke-dasharray="5.0,5.0"/>
<line x1="274.8" y1="68.0" x2="230.6" y2="68.0" opacity="0.8" stroke="rgb(0,0,0)"  stroke-width="2.3"/>
<line x1="274.8" y1="74.0" x2="230.6" y2="74.0" opacity="0.8" stroke="rgb(0,0,0)"  stroke-width="2.3" stroke-dasharray="5.0,5.0"/>
<line x1="228.5" y1="68.9" x2="206.4" y2="92.2" opacity="0.6" stroke="rgb(0,0,0)"  stroke-width="1.9"/>
<line x1="232.8" y1="73.1" x2="210.7" y2="96.3" opacity="0.6" stroke="rgb(0,0,0)"  stroke-width="1.9" stroke-dasharray="5.0,5.0"/>
<line x1="165.2" y1="92.5" x2="143.1" y2="62.1" opacity="0.4" stroke="rgb(0,0,0)"  stroke-width="1.2"/>
<line x1="160.3" y1="96.0" x2="138.2" y2="65.7" opacity="0.4" stroke="rgb(0,0,0)"  stroke-width="1.2" stroke-dasharray="5.0,5.0"/>
<line x1="140.6" y1="60.9" x2="96.5" y2="60.9" opacity="0.3" stroke="rgb(0,0,0)"  stroke-width="0.9"/>
<line x1="140.6" y1="66.9" x2="96.5" y2="66.9" opacity="0.3" stroke="rgb(0,0,0)"  stroke-width="0.9" stroke-dasharray="5.0,5.0"/>
<line x1="94.0" y1="62.1" x2="72.0" y2="92.5" opacity="0.4" stroke="rgb(0,0,0)"  stroke-width="1.2"/>
<line x1="98.9" y1="65.7" x2="76.8" y2="96.0" opacity="0.4" stroke="rgb(0,0,0)"  stroke-width="1.2" stroke-dasharray="5.0,5.0"/>
<line x1="72.0" y1="96.0" x2="94.1" y2="126.4" opacity="0.6" stroke="rgb(0,0,0)"  stroke-width="1.8"/>
<line x1="76.8" y1="92.5" x2="98.9" y2="122.9" opacity="0.6" stroke="rgb(0,0,0)"  stroke-width="1.8" stroke-dasharray="5.0,5.0"/>
<line x1="96.5" y1="127.6" x2="140.7" y2="127.6" opacity="0.7" stroke="rgb(0,0,0)"  stroke-width="2.1"/>
<line x1="96.5" y1="121.6" x2="140.7" y2="121.6" opacity="0.7" stroke="rgb(0,0,0)"  stroke-width="2.1" stroke-dasharray="5.0,5.0"/>
<line x1="143.1" y1="126.4" x2="165.2" y2="96.0" opacity="0.6" stroke="rgb(0,0,0)"  stroke-width="1.8"/>
<line x1="138.2" y1="122.9" x2="160.3" y2="92.5" opacity="0.6" stroke="rgb(0,0,0)"  stroke-width="1.8" stroke-dasharray="5.0,5.0"/>
<circle cx="213.929060" cy="135.852098" r="5.636364" opacity="0.200000" style="stroke:black;stroke-width:0.5;fill:url(#radialffffffbfbfbf)"/>
<circle cx="292.028189" cy="135.646258" r="5.636364" opacity="0.200000" style="stroke:black;stroke-width:0.5;fill:url(#radialffffffbfbfbf)"/>
<circle cx="157.364035" cy="40.000000" r="5.636364" opacity="0.341636" style="stroke:black;stroke-width:0.5;fill:url(#radialffffffbfbfbf)"/>
<circle cx="79.264906" cy="40.269176" r="5.636364" opacity="0.344358" style="stroke:black;stroke-width:0.5;fill:url(#radialffffffbfbfbf)"/>
<circle cx="230.649659" cy="117.535442" r="13.818182" opacity="0.469264" style="stroke:black;stroke-width:0.5;fill:url(#radialffffff666666)"/>
<circle cx="274.819907" cy="117.529109" r="13.818182" opacity="0.469326" style="stroke:black;stroke-width:0.5;fill:url(#radialffffff666666)"/>
<circle cx="140.646603" cy="63.896522" r="13.818182" opacity="0.534347" style="stroke:black;stroke-width:0.5;fill:url(#radialffffff666666)"/>
<circle cx="96.473188" cy="63.902856" r="13.818182" opacity="0.534374" style="stroke:black;stroke-width:0.5;fill:url(#radialffffff666666)"/>
<circle cx="208.555034" cy="94.265943" r="13.818585" opacity="0.707117" style="stroke:black;stroke-width:0.5;fill:url(#radialffffff666666)"/>
<circle cx="162.738061" cy="94.250109" r="13.818585" opacity="0.707117" style="stroke:black;stroke-width:0.5;fill:url(#radialffffff666666)"/>
<circle cx="296.898697" cy="94.256442" r="13.820198" opacity="0.707158" style="stroke:black;stroke-width:0.5;fill:url(#radialffffff666666)"/>
<circle cx="74.391231" cy="94.265943" r="13.820198" opacity="0.707158" style="stroke:black;stroke-width:0.5;fill:url(#radialffffff666666)"/>
<circle cx="331.293095" cy="94.250109" r="5.637515" opacity="0.707179" style="stroke:black;stroke-width:0.5;fill:url(#radialffffffbfbfbf)"/>
<circle cx="40.000000" cy="94.272276" r="5.637515" opacity="0.707179" style="stroke:black;stroke-width:0.5;fill:url(#radialffffffbfbfbf)"/>
<circle cx="140.659270" cy="124.616363" r="19.747058" opacity="0.845300" style="stroke:black;stroke-width:0.5;fill:url(#radialffffff666666)"/>
<circle cx="96.489022" cy="124.622696" r="19.747865" opacity="0.845317" style="stroke:black;stroke-width:0.5;fill:url(#radialffffff666666)"/>
<circle cx="230.633825" cy="70.990109" r="21.551411" opacity="0.883075" style="stroke:black;stroke-width:0.5;fill:url(#radialffffff666666)"/>
<circle cx="274.807240" cy="70.980609" r="21.553024" opacity="0.883108" style="stroke:black;stroke-width:0.5;fill:url(#radialffffff666666)"/>
<circle cx="79.293407" cy="148.265876" r="9.937622" opacity="0.938916" style="stroke:black;stroke-width:0.5;fill:url(#radialffffffbfbfbf)"/>
<circle cx="157.389369" cy="148.506551" r="9.957033" opacity="0.939833" style="stroke:black;stroke-width:0.5;fill:url(#radialffffffbfbfbf)"/>
<circle cx="292.002855" cy="52.857127" r="11.246736" opacity="0.998846" style="stroke:black;stroke-width:0.5;fill:url(#radialffffffbfbfbf)"/>
<circle cx="213.906893" cy="52.673454" r="11.272727" opacity="1.000000" style="stroke:black;stroke-width:0.5;fill:url(#radialffffffbfbfbf)"/>
</svg>
</g>
</svg>
