<?xml version="1.0"?>
<svg version="1.1" id="topsvg"
xmlns="http://www.w3.org/2000/svg" xmlns:xlink="http://www.w3.org/1999/xlink"
xmlns:cml="http://www.xml-cml.org/schema" x="0" y="0" width="200px" height="200px" viewBox="0 0 100 100">
<title>7250 - Open Babel Depiction</title>
<rect x="0" y="0" width="100" height="100" fill="white"/>
<defs>
<radialGradient id='radialffffff0ccff' cx='50%' cy='50%' r='50%' fx='30%' fy='30%'>
  <stop offset=' 0%' stop-color="rgb(255,255,255)"  stop-opacity='1.0'/>
  <stop offset='100%' stop-color="rgb(12,12,255)"  stop-opacity ='1.0'/>
</radialGradient>
<radialGradient id='radialffffff666666' cx='50%' cy='50%' r='50%' fx='30%' fy='30%'>
  <stop offset=' 0%' stop-color="rgb(255,255,255)"  stop-opacity='1.0'/>
  <stop offset='100%' stop-color="rgb(102,102,102)"  stop-opacity ='1.0'/>
</radialGradient>
<radialGradient id='radialffffffbfbfbf' cx='50%' cy='50%' r='50%' fx='30%' fy='30%'>
  <stop offset=' 0%' stop-color="rgb(255,255,255)"  stop-opacity='1.0'/>
  <stop offset='100%' stop-color="rgb(191,191,191)"  stop-opacity ='1.0'/>
</radialGradient>
</defs>
<g transform="translate(0,0)">
<svg width="100" height="100" x="0" y="0" viewBox="0 0 302.475 258.26"
font-family="sans-serif" stroke="rgb(0,0,0)" stroke-width="4"  stroke-linecap="round">
<line x1="63.3" y1="95.6" x2="107.8" y2="106.9" opacity="1.0" stroke="rgb(0,0,0)"  stroke-width="1.4"/>
<line x1="63.3" y1="95.6" x2="40.0" y2="118.7" opacity="0.5" stroke="rgb(0,0,0)"  stroke-width="1.4"/>
<line x1="63.3" y1="95.6" x2="54.6" y2="63.9" opacity="0.5" stroke="rgb(0,0,0)"  stroke-width="1.4"/>
<line x1="120.7" y1="150.3" x2="88.0" y2="186.2" opacity="0.5" stroke="rgb(0,0,0)"  stroke-width="1.4"/>
<line x1="196.0" y1="128.0" x2="243.1" y2="139.3" opacity="0.5" stroke="rgb(0,0,0)"  stroke-width="1.4"/>
<line x1="164.8" y1="160.9" x2="175.0" y2="194.7" opacity="0.5" stroke="rgb(0,0,0)"  stroke-width="1.4"/>
<line x1="183.1" y1="84.6" x2="207.0" y2="58.6" opacity="0.5" stroke="rgb(0,0,0)"  stroke-width="1.4"/>
<line x1="139.0" y1="74.0" x2="129.4" y2="40.0" opacity="0.5" stroke="rgb(0,0,0)"  stroke-width="1.4"/>
<line x1="88.0" y1="186.2" x2="67.5" y2="184.5" opacity="0.5" stroke="rgb(0,0,0)"  stroke-width="2.1"/>
<line x1="88.0" y1="186.2" x2="67.5" y2="184.4" opacity="0.7" stroke="rgb(0,0,0)"  stroke-width="0.7"/>
<line x1="88.0" y1="186.2" x2="103.5" y2="218.3" opacity="0.2" stroke="rgb(0,0,0)"  stroke-width="1.4"/>
<line x1="243.1" y1="139.3" x2="249.1" y2="169.2" opacity="0.5" stroke="rgb(0,0,0)"  stroke-width="1.0"/>
<line x1="243.1" y1="139.3" x2="262.5" y2="113.7" opacity="0.3" stroke="rgb(0,0,0)"  stroke-width="1.0"/>
<line x1="243.1" y1="139.3" x2="254.6" y2="143.8" opacity="0.3" stroke="rgb(0,0,0)"  stroke-width="2.2"/>
<line x1="110.0" y1="108.9" x2="141.2" y2="76.1" opacity="0.5" stroke="rgb(0,0,0)"  stroke-width="1.4"/>
<line x1="105.6" y1="104.8" x2="136.8" y2="71.9" opacity="0.5" stroke="rgb(0,0,0)"  stroke-width="1.4" stroke-dasharray="5.0,5.0"/>
<line x1="138.3" y1="76.9" x2="182.4" y2="87.5" opacity="0.5" stroke="rgb(0,0,0)"  stroke-width="1.4"/>
<line x1="139.7" y1="71.1" x2="183.8" y2="81.6" opacity="0.5" stroke="rgb(0,0,0)"  stroke-width="1.4" stroke-dasharray="5.0,5.0"/>
<line x1="180.2" y1="85.4" x2="193.1" y2="128.9" opacity="0.5" stroke="rgb(0,0,0)"  stroke-width="1.4"/>
<line x1="185.9" y1="83.7" x2="198.8" y2="127.1" opacity="0.5" stroke="rgb(0,0,0)"  stroke-width="1.4" stroke-dasharray="5.0,5.0"/>
<line x1="193.8" y1="125.9" x2="162.6" y2="158.8" opacity="0.5" stroke="rgb(0,0,0)"  stroke-width="1.4"/>
<line x1="198.1" y1="130.1" x2="167.0" y2="163.0" opacity="0.5" stroke="rgb(0,0,0)"  stroke-width="1.4" stroke-dasharray="5.0,5.0"/>
<line x1="165.5" y1="158.0" x2="121.4" y2="147.4" opacity="0.5" stroke="rgb(0,0,0)"  stroke-width="1.4"/>
<line x1="164.1" y1="163.8" x2="120.0" y2="153.3" opacity="0.5" stroke="rgb(0,0,0)"  stroke-width="1.4" stroke-dasharray="5.0,5.0"/>
<line x1="123.6" y1="149.5" x2="110.7" y2="106.0" opacity="0.5" stroke="rgb(0,0,0)"  stroke-width="1.4"/>
<line x1="117.8" y1="151.2" x2="104.9" y2="107.7" opacity="0.5" stroke="rgb(0,0,0)"  stroke-width="1.4" stroke-dasharray="5.0,5.0"/>
<circle cx="67.511286" cy="184.444813" r="5.636364" opacity="0.200000" style="stroke:black;stroke-width:0.5;fill:url(#radialffffffbfbfbf)"/>
<circle cx="249.065631" cy="169.199395" r="5.636364" opacity="0.414797" style="stroke:black;stroke-width:0.5;fill:url(#radialffffffbfbfbf)"/>
<circle cx="262.475230" cy="113.663443" r="5.636364" opacity="0.468783" style="stroke:black;stroke-width:0.5;fill:url(#radialffffffbfbfbf)"/>
<circle cx="103.503080" cy="218.259618" r="5.636364" opacity="0.681932" style="stroke:black;stroke-width:0.5;fill:url(#radialffffffbfbfbf)"/>
<circle cx="63.329519" cy="95.591189" r="12.909091" opacity="0.682161" style="stroke:black;stroke-width:0.5;fill:url(#radialffffff0ccff)"/>
<circle cx="120.698040" cy="150.334327" r="13.818182" opacity="0.682199" style="stroke:black;stroke-width:0.5;fill:url(#radialffffff666666)"/>
<circle cx="195.956858" cy="127.999075" r="13.818182" opacity="0.682199" style="stroke:black;stroke-width:0.5;fill:url(#radialffffff666666)"/>
<circle cx="164.773935" cy="160.891097" r="13.818182" opacity="0.682199" style="stroke:black;stroke-width:0.5;fill:url(#radialffffff666666)"/>
<circle cx="183.054140" cy="84.550283" r="13.818182" opacity="0.682199" style="stroke:black;stroke-width:0.5;fill:url(#radialffffff666666)"/>
<circle cx="138.978245" cy="73.993513" r="13.818182" opacity="0.682199" style="stroke:black;stroke-width:0.5;fill:url(#radialffffff666666)"/>
<circle cx="87.991225" cy="186.215647" r="13.818182" opacity="0.682199" style="stroke:black;stroke-width:0.5;fill:url(#radialffffff666666)"/>
<circle cx="243.080537" cy="139.270677" r="13.818182" opacity="0.682199" style="stroke:black;stroke-width:0.5;fill:url(#radialffffff666666)"/>
<circle cx="107.801820" cy="106.885535" r="13.818182" opacity="0.682276" style="stroke:black;stroke-width:0.5;fill:url(#radialffffff666666)"/>
<circle cx="129.373502" cy="40.000000" r="5.636364" opacity="0.682352" style="stroke:black;stroke-width:0.5;fill:url(#radialffffffbfbfbf)"/>
<circle cx="54.615066" cy="63.894886" r="5.636364" opacity="0.682505" style="stroke:black;stroke-width:0.5;fill:url(#radialffffffbfbfbf)"/>
<circle cx="40.000000" cy="118.686763" r="5.636364" opacity="0.682619" style="stroke:black;stroke-width:0.5;fill:url(#radialffffffbfbfbf)"/>
<circle cx="175.012279" cy="194.712401" r="5.636364" opacity="0.682848" style="stroke:black;stroke-width:0.5;fill:url(#radialffffffbfbfbf)"/>
<circle cx="207.027007" cy="58.621375" r="5.636364" opacity="0.682924" style="stroke:black;stroke-width:0.5;fill:url(#radialffffffbfbfbf)"/>
<circle cx="67.543779" cy="184.467558" r="10.497848" opacity="0.965019" style="stroke:black;stroke-width:0.5;fill:url(#radialffffffbfbfbf)"/>
<circle cx="254.553591" cy="143.770869" r="11.272727" opacity="1.000000" style="stroke:black;stroke-width:0.5;fill:url(#radialffffffbfbfbf)"/>
</svg>
</g>
</svg>
