<?xml version="1.0"?>
<svg version="1.1" id="topsvg"
xmlns="http://www.w3.org/2000/svg" xmlns:xlink="http://www.w3.org/1999/xlink"
xmlns:cml="http://www.xml-cml.org/schema" x="0" y="0" width="200px" height="200px" viewBox="0 0 100 100">
<title>7296 - Open Babel Depiction</title>
<rect x="0" y="0" width="100" height="100" fill="white"/>
<defs>
<radialGradient id='radialffffff666666' cx='50%' cy='50%' r='50%' fx='30%' fy='30%'>
  <stop offset=' 0%' stop-color="rgb(255,255,255)"  stop-opacity='1.0'/>
  <stop offset='100%' stop-color="rgb(102,102,102)"  stop-opacity ='1.0'/>
</radialGradient>
<radialGradient id='radialffffffbfbfbf' cx='50%' cy='50%' r='50%' fx='30%' fy='30%'>
  <stop offset=' 0%' stop-color="rgb(255,255,255)"  stop-opacity='1.0'/>
  <stop offset='100%' stop-color="rgb(191,191,191)"  stop-opacity ='1.0'/>
</radialGradient>
</defs>
<g transform="translate(0,0)">
<svg width="100" height="100" x="0" y="0" viewBox="0 0 237.118 216.552"
font-family="sans-serif" stroke="rgb(0,0,0)" stroke-width="4"  stroke-linecap="round">
<line x1="103.6" y1="108.3" x2="56.9" y2="108.3" opacity="1.0" stroke="rgb(0,0,0)"  stroke-width="1.5"/>
<line x1="103.6" y1="108.3" x2="104.5" y2="108.2" opacity="0.5" stroke="rgb(0,0,0)"  stroke-width="2.4"/>
<line x1="129.5" y1="146.7" x2="122.8" y2="152.3" opacity="0.8" stroke="rgb(0,0,0)"  stroke-width="0.6"/>
<line x1="129.5" y1="146.7" x2="122.2" y2="176.6" opacity="0.2" stroke="rgb(0,0,0)"  stroke-width="1.5"/>
<line x1="129.5" y1="70.0" x2="122.0" y2="40.0" opacity="0.5" stroke="rgb(0,0,0)"  stroke-width="1.5"/>
<line x1="129.5" y1="70.0" x2="123.0" y2="64.7" opacity="0.5" stroke="rgb(0,0,0)"  stroke-width="0.6"/>
<line x1="176.4" y1="133.0" x2="196.8" y2="146.0" opacity="0.2" stroke="rgb(0,0,0)"  stroke-width="0.9"/>
<line x1="176.4" y1="133.0" x2="189.2" y2="145.1" opacity="0.3" stroke="rgb(0,0,0)"  stroke-width="1.9"/>
<line x1="176.4" y1="83.6" x2="188.6" y2="71.8" opacity="0.6" stroke="rgb(0,0,0)"  stroke-width="1.9"/>
<line x1="176.4" y1="83.6" x2="197.1" y2="70.3" opacity="0.6" stroke="rgb(0,0,0)"  stroke-width="1.0"/>
<line x1="56.9" y1="108.3" x2="40.0" y2="79.7" opacity="0.3" stroke="rgb(0,0,0)"  stroke-width="1.5"/>
<line x1="56.9" y1="108.3" x2="54.6" y2="108.4" opacity="0.5" stroke="rgb(0,0,0)"  stroke-width="0.7"/>
<line x1="56.9" y1="108.3" x2="40.0" y2="136.9" opacity="0.2" stroke="rgb(0,0,0)"  stroke-width="1.5"/>
<line x1="129.5" y1="146.7" x2="103.6" y2="108.3" opacity="0.5" stroke="rgb(0,0,0)"  stroke-width="1.5"/>
<line x1="103.6" y1="108.3" x2="129.5" y2="70.0" opacity="0.5" stroke="rgb(0,0,0)"  stroke-width="1.5"/>
<line x1="129.5" y1="70.0" x2="176.4" y2="83.6" opacity="0.5" stroke="rgb(0,0,0)"  stroke-width="1.3"/>
<line x1="176.4" y1="83.6" x2="176.4" y2="133.0" opacity="0.4" stroke="rgb(0,0,0)"  stroke-width="1.4"/>
<line x1="176.4" y1="133.0" x2="129.5" y2="146.7" opacity="0.5" stroke="rgb(0,0,0)"  stroke-width="1.3"/>
<circle cx="122.987776" cy="64.689671" r="5.636364" opacity="0.200000" style="stroke:black;stroke-width:0.5;fill:url(#radialffffffbfbfbf)"/>
<circle cx="122.764969" cy="152.324117" r="5.636364" opacity="0.200000" style="stroke:black;stroke-width:0.5;fill:url(#radialffffffbfbfbf)"/>
<circle cx="54.595516" cy="108.395490" r="5.636364" opacity="0.200000" style="stroke:black;stroke-width:0.5;fill:url(#radialffffffbfbfbf)"/>
<circle cx="196.808148" cy="145.998317" r="5.636364" opacity="0.408900" style="stroke:black;stroke-width:0.5;fill:url(#radialffffffbfbfbf)"/>
<circle cx="197.118141" cy="70.279237" r="5.636364" opacity="0.419042" style="stroke:black;stroke-width:0.5;fill:url(#radialffffffbfbfbf)"/>
<circle cx="129.465344" cy="69.982160" r="13.818182" opacity="0.629346" style="stroke:black;stroke-width:0.5;fill:url(#radialffffff666666)"/>
<circle cx="129.452427" cy="146.708718" r="13.818182" opacity="0.631056" style="stroke:black;stroke-width:0.5;fill:url(#radialffffff666666)"/>
<circle cx="56.926923" cy="108.321221" r="13.818182" opacity="0.647963" style="stroke:black;stroke-width:0.5;fill:url(#radialffffff666666)"/>
<circle cx="176.426092" cy="133.007662" r="13.818182" opacity="0.681173" style="stroke:black;stroke-width:0.5;fill:url(#radialffffff666666)"/>
<circle cx="176.384114" cy="83.612175" r="13.818182" opacity="0.683433" style="stroke:black;stroke-width:0.5;fill:url(#radialffffff666666)"/>
<circle cx="40.006458" cy="79.675907" r="6.283894" opacity="0.746621" style="stroke:black;stroke-width:0.5;fill:url(#radialffffffbfbfbf)"/>
<circle cx="40.000000" cy="136.911640" r="6.299391" opacity="0.747541" style="stroke:black;stroke-width:0.5;fill:url(#radialffffffbfbfbf)"/>
<circle cx="103.626115" cy="108.295388" r="16.364744" opacity="0.769510" style="stroke:black;stroke-width:0.5;fill:url(#radialffffff666666)"/>
<circle cx="122.022277" cy="40.000000" r="6.691428" opacity="0.770451" style="stroke:black;stroke-width:0.5;fill:url(#radialffffffbfbfbf)"/>
<circle cx="122.151440" cy="176.552027" r="6.754254" opacity="0.774059" style="stroke:black;stroke-width:0.5;fill:url(#radialffffffbfbfbf)"/>
<circle cx="189.177793" cy="145.142606" r="9.213279" opacity="0.904050" style="stroke:black;stroke-width:0.5;fill:url(#radialffffffbfbfbf)"/>
<circle cx="188.641763" cy="71.816286" r="9.291183" opacity="0.907864" style="stroke:black;stroke-width:0.5;fill:url(#radialffffffbfbfbf)"/>
<circle cx="104.478596" cy="108.211431" r="11.272727" opacity="1.000000" style="stroke:black;stroke-width:0.5;fill:url(#radialffffffbfbfbf)"/>
</svg>
</g>
</svg>
