<?xml version="1.0"?>
<svg version="1.1" id="topsvg"
xmlns="http://www.w3.org/2000/svg" xmlns:xlink="http://www.w3.org/1999/xlink"
xmlns:cml="http://www.xml-cml.org/schema" x="0" y="0" width="200px" height="200px" viewBox="0 0 100 100">
<title>7470 - Open Babel Depiction</title>
<rect x="0" y="0" width="100" height="100" fill="white"/>
<defs>
<radialGradient id='radialffffff666666' cx='50%' cy='50%' r='50%' fx='30%' fy='30%'>
  <stop offset=' 0%' stop-color="rgb(255,255,255)"  stop-opacity='1.0'/>
  <stop offset='100%' stop-color="rgb(102,102,102)"  stop-opacity ='1.0'/>
</radialGradient>
<radialGradient id='radialffffffbfbfbf' cx='50%' cy='50%' r='50%' fx='30%' fy='30%'>
  <stop offset=' 0%' stop-color="rgb(255,255,255)"  stop-opacity='1.0'/>
  <stop offset='100%' stop-color="rgb(191,191,191)"  stop-opacity ='1.0'/>
</radialGradient>
<radialGradient id='radialffffffffcc' cx='50%' cy='50%' r='50%' fx='30%' fy='30%'>
  <stop offset=' 0%' stop-color="rgb(255,255,255)"  stop-opacity='1.0'/>
  <stop offset='100%' stop-color="rgb(255,12,12)"  stop-opacity ='1.0'/>
</radialGradient>
</defs>
<g transform="translate(0,0)">
<svg width="100" height="100" x="0" y="0" viewBox="0 0 324.963 219.031"
font-family="sans-serif" stroke="rgb(0,0,0)" stroke-width="2"  stroke-linecap="round">
<line x1="71.3" y1="148.3" x2="88.6" y2="108.3" opacity="1.0" stroke="rgb(0,0,0)"  stroke-width="1.0"/>
<line x1="71.3" y1="148.3" x2="40.0" y2="147.5" opacity="0.3" stroke="rgb(0,0,0)"  stroke-width="1.0"/>
<line x1="68.6" y1="74.1" x2="91.0" y2="106.6" opacity="0.3" stroke="rgb(0,0,0)"  stroke-width="1.0"/>
<line x1="63.7" y1="77.5" x2="86.1" y2="110.0" opacity="0.3" stroke="rgb(0,0,0)"  stroke-width="1.0"/>
<line x1="224.2" y1="110.2" x2="271.9" y2="110.9" opacity="0.3" stroke="rgb(0,0,0)"  stroke-width="1.0"/>
<line x1="135.0" y1="109.0" x2="88.6" y2="108.3" opacity="0.3" stroke="rgb(0,0,0)"  stroke-width="1.0"/>
<line x1="202.5" y1="71.3" x2="219.9" y2="41.2" opacity="0.3" stroke="rgb(0,0,0)"  stroke-width="1.0"/>
<line x1="201.4" y1="148.5" x2="218.0" y2="179.0" opacity="0.3" stroke="rgb(0,0,0)"  stroke-width="1.0"/>
<line x1="157.9" y1="70.7" x2="141.5" y2="40.0" opacity="0.3" stroke="rgb(0,0,0)"  stroke-width="1.0"/>
<line x1="156.8" y1="147.9" x2="140.3" y2="178.4" opacity="0.3" stroke="rgb(0,0,0)"  stroke-width="1.0"/>
<line x1="271.9" y1="110.9" x2="284.1" y2="139.0" opacity="0.3" stroke="rgb(0,0,0)"  stroke-width="0.5"/>
<line x1="271.9" y1="110.9" x2="285.0" y2="82.8" opacity="0.2" stroke="rgb(0,0,0)"  stroke-width="0.5"/>
<line x1="271.9" y1="110.9" x2="283.8" y2="111.6" opacity="0.2" stroke="rgb(0,0,0)"  stroke-width="2.0"/>
<line x1="202.5" y1="68.3" x2="157.9" y2="67.7" opacity="0.3" stroke="rgb(0,0,0)"  stroke-width="1.0"/>
<line x1="202.4" y1="74.3" x2="157.8" y2="73.7" opacity="0.3" stroke="rgb(0,0,0)"  stroke-width="1.0" stroke-dasharray="5.0,5.0"/>
<line x1="155.3" y1="69.1" x2="132.5" y2="107.4" opacity="0.3" stroke="rgb(0,0,0)"  stroke-width="1.0"/>
<line x1="160.5" y1="72.2" x2="137.6" y2="110.5" opacity="0.3" stroke="rgb(0,0,0)"  stroke-width="1.0" stroke-dasharray="5.0,5.0"/>
<line x1="132.4" y1="110.4" x2="154.2" y2="149.3" opacity="0.3" stroke="rgb(0,0,0)"  stroke-width="1.0"/>
<line x1="137.7" y1="107.5" x2="159.4" y2="146.4" opacity="0.3" stroke="rgb(0,0,0)"  stroke-width="1.0" stroke-dasharray="5.0,5.0"/>
<line x1="156.7" y1="150.9" x2="201.3" y2="151.5" opacity="0.3" stroke="rgb(0,0,0)"  stroke-width="1.0"/>
<line x1="156.8" y1="144.9" x2="201.4" y2="145.5" opacity="0.3" stroke="rgb(0,0,0)"  stroke-width="1.0" stroke-dasharray="5.0,5.0"/>
<line x1="203.9" y1="150.0" x2="226.8" y2="111.8" opacity="0.3" stroke="rgb(0,0,0)"  stroke-width="1.0"/>
<line x1="198.8" y1="147.0" x2="221.6" y2="108.7" opacity="0.3" stroke="rgb(0,0,0)"  stroke-width="1.0" stroke-dasharray="5.0,5.0"/>
<line x1="226.8" y1="108.8" x2="205.1" y2="69.8" opacity="0.3" stroke="rgb(0,0,0)"  stroke-width="1.0"/>
<line x1="221.6" y1="111.7" x2="199.8" y2="72.8" opacity="0.3" stroke="rgb(0,0,0)"  stroke-width="1.0" stroke-dasharray="5.0,5.0"/>
<circle cx="284.099580" cy="139.027106" r="5.636364" opacity="0.200000" style="stroke:black;stroke-width:0.5;fill:url(#radialffffffbfbfbf)"/>
<circle cx="284.962630" cy="82.756184" r="5.636364" opacity="0.200000" style="stroke:black;stroke-width:0.5;fill:url(#radialffffffbfbfbf)"/>
<circle cx="157.883172" cy="70.660684" r="13.818182" opacity="0.581798" style="stroke:black;stroke-width:0.5;fill:url(#radialffffff666666)"/>
<circle cx="202.464548" cy="71.293588" r="13.818182" opacity="0.581853" style="stroke:black;stroke-width:0.5;fill:url(#radialffffff666666)"/>
<circle cx="135.041089" cy="108.954575" r="13.818182" opacity="0.581964" style="stroke:black;stroke-width:0.5;fill:url(#radialffffff666666)"/>
<circle cx="71.347929" cy="148.252162" r="12.000000" opacity="0.582019" style="stroke:black;stroke-width:0.5;fill:url(#radialffffffffcc)"/>
<circle cx="141.545937" cy="40.000000" r="5.636364" opacity="0.582019" style="stroke:black;stroke-width:0.5;fill:url(#radialffffffbfbfbf)"/>
<circle cx="224.207039" cy="110.220383" r="13.818182" opacity="0.582074" style="stroke:black;stroke-width:0.5;fill:url(#radialffffff666666)"/>
<circle cx="40.000000" cy="147.453041" r="5.636364" opacity="0.582074" style="stroke:black;stroke-width:0.5;fill:url(#radialffffffbfbfbf)"/>
<circle cx="156.786777" cy="147.878173" r="13.818182" opacity="0.582239" style="stroke:black;stroke-width:0.5;fill:url(#radialffffff666666)"/>
<circle cx="201.368154" cy="148.511077" r="13.818182" opacity="0.582294" style="stroke:black;stroke-width:0.5;fill:url(#radialffffff666666)"/>
<circle cx="88.557804" cy="108.286510" r="13.818182" opacity="0.582625" style="stroke:black;stroke-width:0.5;fill:url(#radialffffff666666)"/>
<circle cx="140.276932" cy="178.430177" r="5.636364" opacity="0.582845" style="stroke:black;stroke-width:0.5;fill:url(#radialffffffbfbfbf)"/>
<circle cx="219.907767" cy="41.249826" r="5.636364" opacity="0.582900" style="stroke:black;stroke-width:0.5;fill:url(#radialffffffbfbfbf)"/>
<circle cx="66.134462" cy="75.781453" r="12.000000" opacity="0.583010" style="stroke:black;stroke-width:0.5;fill:url(#radialffffffffcc)"/>
<circle cx="271.879417" cy="110.926806" r="13.818182" opacity="0.583065" style="stroke:black;stroke-width:0.5;fill:url(#radialffffff666666)"/>
<circle cx="217.964304" cy="179.031116" r="5.636364" opacity="0.583726" style="stroke:black;stroke-width:0.5;fill:url(#radialffffffbfbfbf)"/>
<circle cx="283.834271" cy="111.550121" r="11.272727" opacity="1.000000" style="stroke:black;stroke-width:0.5;fill:url(#radialffffffbfbfbf)"/>
</svg>
</g>
</svg>
