<?xml version="1.0"?>
<svg version="1.1" id="topsvg"
xmlns="http://www.w3.org/2000/svg" xmlns:xlink="http://www.w3.org/1999/xlink"
xmlns:cml="http://www.xml-cml.org/schema" x="0" y="0" width="200px" height="200px" viewBox="0 0 100 100">
<title>7486 - Open Babel Depiction</title>
<rect x="0" y="0" width="100" height="100" fill="white"/>
<defs>
<radialGradient id='radialffffff666666' cx='50%' cy='50%' r='50%' fx='30%' fy='30%'>
  <stop offset=' 0%' stop-color="rgb(255,255,255)"  stop-opacity='1.0'/>
  <stop offset='100%' stop-color="rgb(102,102,102)"  stop-opacity ='1.0'/>
</radialGradient>
<radialGradient id='radialffffffbfbfbf' cx='50%' cy='50%' r='50%' fx='30%' fy='30%'>
  <stop offset=' 0%' stop-color="rgb(255,255,255)"  stop-opacity='1.0'/>
  <stop offset='100%' stop-color="rgb(191,191,191)"  stop-opacity ='1.0'/>
</radialGradient>
</defs>
<g transform="translate(0,0)">
<svg width="100" height="100" x="0" y="0" viewBox="0 0 376.712 220.102"
font-family="sans-serif" stroke="rgb(0,0,0)" stroke-width="2"  stroke-linecap="round">
<line x1="280.5" y1="110.3" x2="232.9" y2="110.2" opacity="1.0" stroke="rgb(0,0,0)"  stroke-width="1.7"/>
<line x1="280.5" y1="110.3" x2="302.3" y2="69.3" opacity="0.6" stroke="rgb(0,0,0)"  stroke-width="1.6"/>
<line x1="280.5" y1="110.3" x2="302.3" y2="150.6" opacity="0.5" stroke="rgb(0,0,0)"  stroke-width="1.6"/>
<line x1="280.5" y1="110.3" x2="287.1" y2="111.0" opacity="0.5" stroke="rgb(0,0,0)"  stroke-width="2.1"/>
<line x1="96.2" y1="109.8" x2="143.8" y2="109.9" opacity="0.7" stroke="rgb(0,0,0)"  stroke-width="1.3"/>
<line x1="96.2" y1="109.8" x2="74.4" y2="69.5" opacity="0.4" stroke="rgb(0,0,0)"  stroke-width="1.4"/>
<line x1="96.2" y1="109.8" x2="74.4" y2="150.8" opacity="0.5" stroke="rgb(0,0,0)"  stroke-width="1.4"/>
<line x1="96.2" y1="109.8" x2="89.6" y2="109.1" opacity="0.5" stroke="rgb(0,0,0)"  stroke-width="0.9"/>
<line x1="216.1" y1="109.3" x2="237.1" y2="108.8" opacity="0.3" stroke="rgb(0,0,0)"  stroke-width="0.5"/>
<line x1="171.6" y1="109.2" x2="159.0" y2="108.6" opacity="0.2" stroke="rgb(0,0,0)"  stroke-width="0.4"/>
<line x1="205.1" y1="110.9" x2="217.7" y2="111.5" opacity="0.1" stroke="rgb(0,0,0)"  stroke-width="2.7"/>
<line x1="160.6" y1="110.7" x2="139.6" y2="111.3" opacity="0.9" stroke="rgb(0,0,0)"  stroke-width="2.5"/>
<line x1="302.3" y1="69.3" x2="299.7" y2="67.0" opacity="0.8" stroke="rgb(0,0,0)"  stroke-width="1.1"/>
<line x1="302.3" y1="69.3" x2="336.7" y2="69.1" opacity="0.4" stroke="rgb(0,0,0)"  stroke-width="1.5"/>
<line x1="302.3" y1="69.3" x2="287.7" y2="40.3" opacity="0.5" stroke="rgb(0,0,0)"  stroke-width="1.5"/>
<line x1="302.3" y1="150.6" x2="287.7" y2="180.1" opacity="0.5" stroke="rgb(0,0,0)"  stroke-width="1.5"/>
<line x1="302.3" y1="150.6" x2="336.7" y2="151.2" opacity="0.5" stroke="rgb(0,0,0)"  stroke-width="1.5"/>
<line x1="302.3" y1="150.6" x2="299.7" y2="151.5" opacity="0.5" stroke="rgb(0,0,0)"  stroke-width="1.0"/>
<line x1="74.4" y1="69.5" x2="77.0" y2="68.6" opacity="0.3" stroke="rgb(0,0,0)"  stroke-width="2.0"/>
<line x1="74.4" y1="69.5" x2="40.0" y2="69.0" opacity="0.7" stroke="rgb(0,0,0)"  stroke-width="1.5"/>
<line x1="74.4" y1="69.5" x2="89.0" y2="40.0" opacity="0.5" stroke="rgb(0,0,0)"  stroke-width="1.5"/>
<line x1="74.4" y1="150.8" x2="89.1" y2="179.8" opacity="0.5" stroke="rgb(0,0,0)"  stroke-width="1.5"/>
<line x1="74.4" y1="150.8" x2="40.0" y2="151.1" opacity="0.5" stroke="rgb(0,0,0)"  stroke-width="1.5"/>
<line x1="74.4" y1="150.8" x2="77.1" y2="153.1" opacity="0.5" stroke="rgb(0,0,0)"  stroke-width="1.9"/>
<line x1="171.6" y1="112.2" x2="216.1" y2="112.3" opacity="0.2" stroke="rgb(0,0,0)"  stroke-width="0.7"/>
<line x1="171.6" y1="106.2" x2="216.1" y2="106.3" opacity="0.2" stroke="rgb(0,0,0)"  stroke-width="0.7" stroke-dasharray="5.0,5.0"/>
<line x1="216.0" y1="112.3" x2="232.8" y2="113.2" opacity="0.4" stroke="rgb(0,0,0)"  stroke-width="1.2"/>
<line x1="216.3" y1="106.4" x2="233.0" y2="107.2" opacity="0.4" stroke="rgb(0,0,0)"  stroke-width="1.2" stroke-dasharray="5.0,5.0"/>
<line x1="232.8" y1="107.2" x2="205.1" y2="107.9" opacity="0.7" stroke="rgb(0,0,0)"  stroke-width="2.0"/>
<line x1="233.0" y1="113.2" x2="205.2" y2="113.9" opacity="0.7" stroke="rgb(0,0,0)"  stroke-width="2.0" stroke-dasharray="5.0,5.0"/>
<line x1="205.2" y1="107.9" x2="160.6" y2="107.7" opacity="0.8" stroke="rgb(0,0,0)"  stroke-width="2.3"/>
<line x1="205.1" y1="113.9" x2="160.6" y2="113.7" opacity="0.8" stroke="rgb(0,0,0)"  stroke-width="2.3" stroke-dasharray="5.0,5.0"/>
<line x1="160.7" y1="107.7" x2="144.0" y2="106.9" opacity="0.6" stroke="rgb(0,0,0)"  stroke-width="1.8"/>
<line x1="160.5" y1="113.7" x2="143.7" y2="112.9" opacity="0.6" stroke="rgb(0,0,0)"  stroke-width="1.8" stroke-dasharray="5.0,5.0"/>
<line x1="143.9" y1="112.9" x2="171.7" y2="112.2" opacity="0.3" stroke="rgb(0,0,0)"  stroke-width="1.0"/>
<line x1="143.7" y1="106.9" x2="171.5" y2="106.2" opacity="0.3" stroke="rgb(0,0,0)"  stroke-width="1.0" stroke-dasharray="5.0,5.0"/>
<circle cx="159.046149" cy="108.580232" r="5.636364" opacity="0.200000" style="stroke:black;stroke-width:0.5;fill:url(#radialffffffbfbfbf)"/>
<circle cx="237.141558" cy="108.806016" r="5.636364" opacity="0.272264" style="stroke:black;stroke-width:0.5;fill:url(#radialffffffbfbfbf)"/>
<circle cx="89.601487" cy="109.128565" r="5.636364" opacity="0.422118" style="stroke:black;stroke-width:0.5;fill:url(#radialffffffbfbfbf)"/>
<circle cx="171.577153" cy="109.215653" r="13.818182" opacity="0.468789" style="stroke:black;stroke-width:0.5;fill:url(#radialffffff666666)"/>
<circle cx="299.680460" cy="151.533998" r="5.636364" opacity="0.471897" style="stroke:black;stroke-width:0.5;fill:url(#radialffffffbfbfbf)"/>
<circle cx="299.690136" cy="67.003749" r="5.636364" opacity="0.483345" style="stroke:black;stroke-width:0.5;fill:url(#radialffffffbfbfbf)"/>
<circle cx="216.117856" cy="109.347897" r="13.818182" opacity="0.512190" style="stroke:black;stroke-width:0.5;fill:url(#radialffffff666666)"/>
<circle cx="96.200826" cy="109.796240" r="13.818182" opacity="0.641789" style="stroke:black;stroke-width:0.5;fill:url(#radialffffff666666)"/>
<circle cx="89.098311" cy="179.798910" r="5.636364" opacity="0.661201" style="stroke:black;stroke-width:0.5;fill:url(#radialffffffbfbfbf)"/>
<circle cx="89.037027" cy="40.000000" r="5.636364" opacity="0.674753" style="stroke:black;stroke-width:0.5;fill:url(#radialffffffbfbfbf)"/>
<circle cx="143.818641" cy="109.905906" r="13.818182" opacity="0.676324" style="stroke:black;stroke-width:0.5;fill:url(#radialffffff666666)"/>
<circle cx="302.344709" cy="150.598607" r="13.818182" opacity="0.677587" style="stroke:black;stroke-width:0.5;fill:url(#radialffffff666666)"/>
<circle cx="302.347934" cy="69.300293" r="13.818182" opacity="0.685326" style="stroke:black;stroke-width:0.5;fill:url(#radialffffff666666)"/>
<circle cx="40.035480" cy="151.075979" r="5.636364" opacity="0.689358" style="stroke:black;stroke-width:0.5;fill:url(#radialffffffbfbfbf)"/>
<circle cx="40.000000" cy="68.961617" r="5.636364" opacity="0.697059" style="stroke:black;stroke-width:0.5;fill:url(#radialffffffbfbfbf)"/>
<circle cx="336.705786" cy="151.166292" r="5.796140" opacity="0.717059" style="stroke:black;stroke-width:0.5;fill:url(#radialffffffbfbfbf)"/>
<circle cx="336.712237" cy="69.051931" r="5.916491" opacity="0.724465" style="stroke:black;stroke-width:0.5;fill:url(#radialffffffbfbfbf)"/>
<circle cx="74.399783" cy="150.811489" r="14.658758" opacity="0.728296" style="stroke:black;stroke-width:0.5;fill:url(#radialffffff666666)"/>
<circle cx="74.364302" cy="69.513175" r="14.949623" opacity="0.735486" style="stroke:black;stroke-width:0.5;fill:url(#radialffffff666666)"/>
<circle cx="232.903272" cy="110.167170" r="14.994509" opacity="0.736590" style="stroke:black;stroke-width:0.5;fill:url(#radialffffff666666)"/>
<circle cx="287.655857" cy="180.102106" r="6.141082" opacity="0.738088" style="stroke:black;stroke-width:0.5;fill:url(#radialffffffbfbfbf)"/>
<circle cx="287.665533" cy="40.306421" r="6.345166" opacity="0.750252" style="stroke:black;stroke-width:0.5;fill:url(#radialffffffbfbfbf)"/>
<circle cx="280.530763" cy="110.302641" r="16.254326" opacity="0.766909" style="stroke:black;stroke-width:0.5;fill:url(#radialffffff666666)"/>
<circle cx="160.597606" cy="110.725179" r="20.386284" opacity="0.858872" style="stroke:black;stroke-width:0.5;fill:url(#radialffffff666666)"/>
<circle cx="77.060807" cy="153.104808" r="8.639649" opacity="0.875454" style="stroke:black;stroke-width:0.5;fill:url(#radialffffffbfbfbf)"/>
<circle cx="77.028552" cy="68.571334" r="8.763174" opacity="0.881691" style="stroke:black;stroke-width:0.5;fill:url(#radialffffffbfbfbf)"/>
<circle cx="205.141535" cy="110.854198" r="21.562911" opacity="0.883310" style="stroke:black;stroke-width:0.5;fill:url(#radialffffff666666)"/>
<circle cx="287.117201" cy="110.976767" r="9.264841" opacity="0.906577" style="stroke:black;stroke-width:0.5;fill:url(#radialffffffbfbfbf)"/>
<circle cx="139.570679" cy="111.273511" r="10.436861" opacity="0.962211" style="stroke:black;stroke-width:0.5;fill:url(#radialffffffbfbfbf)"/>
<circle cx="217.675764" cy="111.496070" r="11.272727" opacity="1.000000" style="stroke:black;stroke-width:0.5;fill:url(#radialffffffbfbfbf)"/>
</svg>
</g>
</svg>
