<?xml version="1.0"?>
<svg version="1.1" id="topsvg"
xmlns="http://www.w3.org/2000/svg" xmlns:xlink="http://www.w3.org/1999/xlink"
xmlns:cml="http://www.xml-cml.org/schema" x="0" y="0" width="200px" height="200px" viewBox="0 0 100 100">
<title>7489 - Open Babel Depiction</title>
<rect x="0" y="0" width="100" height="100" fill="white"/>
<defs>
<radialGradient id='radialffffff666666' cx='50%' cy='50%' r='50%' fx='30%' fy='30%'>
  <stop offset=' 0%' stop-color="rgb(255,255,255)"  stop-opacity='1.0'/>
  <stop offset='100%' stop-color="rgb(102,102,102)"  stop-opacity ='1.0'/>
</radialGradient>
<radialGradient id='radialffffffbfbfbf' cx='50%' cy='50%' r='50%' fx='30%' fy='30%'>
  <stop offset=' 0%' stop-color="rgb(255,255,255)"  stop-opacity='1.0'/>
  <stop offset='100%' stop-color="rgb(191,191,191)"  stop-opacity ='1.0'/>
</radialGradient>
<radialGradient id='radialffffffffcc' cx='50%' cy='50%' r='50%' fx='30%' fy='30%'>
  <stop offset=' 0%' stop-color="rgb(255,255,255)"  stop-opacity='1.0'/>
  <stop offset='100%' stop-color="rgb(255,12,12)"  stop-opacity ='1.0'/>
</radialGradient>
</defs>
<g transform="translate(0,0)">
<svg width="100" height="100" x="0" y="0" viewBox="0 0 356.684 218.175"
font-family="sans-serif" stroke="rgb(0,0,0)" stroke-width="2"  stroke-linecap="round">
<line x1="285.7" y1="71.7" x2="268.4" y2="111.1" opacity="1.0" stroke="rgb(0,0,0)"  stroke-width="3.0"/>
<line x1="285.7" y1="71.7" x2="316.7" y2="72.7" opacity="1.0" stroke="rgb(0,0,0)"  stroke-width="3.0"/>
<line x1="71.0" y1="146.5" x2="88.3" y2="107.1" opacity="1.0" stroke="rgb(0,0,0)"  stroke-width="3.0"/>
<line x1="71.0" y1="146.5" x2="40.0" y2="145.5" opacity="1.0" stroke="rgb(0,0,0)"  stroke-width="3.0"/>
<line x1="287.8" y1="145.1" x2="265.9" y2="112.7" opacity="1.0" stroke="rgb(0,0,0)"  stroke-width="3.0"/>
<line x1="292.8" y1="141.7" x2="270.9" y2="109.4" opacity="1.0" stroke="rgb(0,0,0)"  stroke-width="3.0"/>
<line x1="68.9" y1="73.1" x2="90.8" y2="105.4" opacity="1.0" stroke="rgb(0,0,0)"  stroke-width="3.0"/>
<line x1="63.9" y1="76.5" x2="85.8" y2="108.8" opacity="1.0" stroke="rgb(0,0,0)"  stroke-width="3.0"/>
<line x1="222.4" y1="110.0" x2="268.4" y2="111.1" opacity="1.0" stroke="rgb(0,0,0)"  stroke-width="3.0"/>
<line x1="134.3" y1="108.1" x2="88.3" y2="107.1" opacity="1.0" stroke="rgb(0,0,0)"  stroke-width="3.0"/>
<line x1="201.2" y1="71.4" x2="217.8" y2="41.3" opacity="1.0" stroke="rgb(0,0,0)"  stroke-width="3.0"/>
<line x1="157.1" y1="70.4" x2="141.2" y2="40.0" opacity="1.0" stroke="rgb(0,0,0)"  stroke-width="3.0"/>
<line x1="199.5" y1="147.7" x2="215.5" y2="178.2" opacity="1.0" stroke="rgb(0,0,0)"  stroke-width="3.0"/>
<line x1="155.5" y1="146.8" x2="138.9" y2="176.9" opacity="1.0" stroke="rgb(0,0,0)"  stroke-width="3.0"/>
<line x1="157.1" y1="73.4" x2="201.1" y2="74.4" opacity="1.0" stroke="rgb(0,0,0)"  stroke-width="3.0"/>
<line x1="157.2" y1="67.4" x2="201.3" y2="68.4" opacity="1.0" stroke="rgb(0,0,0)"  stroke-width="3.0" stroke-dasharray="5.0,5.0"/>
<line x1="198.6" y1="72.8" x2="219.8" y2="111.5" opacity="1.0" stroke="rgb(0,0,0)"  stroke-width="3.0"/>
<line x1="203.8" y1="70.0" x2="225.1" y2="108.6" opacity="1.0" stroke="rgb(0,0,0)"  stroke-width="3.0" stroke-dasharray="5.0,5.0"/>
<line x1="219.9" y1="108.5" x2="197.0" y2="146.2" opacity="1.0" stroke="rgb(0,0,0)"  stroke-width="3.0"/>
<line x1="225.0" y1="111.6" x2="202.1" y2="149.3" opacity="1.0" stroke="rgb(0,0,0)"  stroke-width="3.0" stroke-dasharray="5.0,5.0"/>
<line x1="199.6" y1="144.7" x2="155.5" y2="143.8" opacity="1.0" stroke="rgb(0,0,0)"  stroke-width="3.0"/>
<line x1="199.5" y1="150.7" x2="155.4" y2="149.8" opacity="1.0" stroke="rgb(0,0,0)"  stroke-width="3.0" stroke-dasharray="5.0,5.0"/>
<line x1="158.1" y1="145.3" x2="136.9" y2="106.7" opacity="1.0" stroke="rgb(0,0,0)"  stroke-width="3.0"/>
<line x1="152.8" y1="148.2" x2="131.6" y2="109.6" opacity="1.0" stroke="rgb(0,0,0)"  stroke-width="3.0" stroke-dasharray="5.0,5.0"/>
<line x1="136.8" y1="109.7" x2="159.7" y2="72.0" opacity="1.0" stroke="rgb(0,0,0)"  stroke-width="3.0"/>
<line x1="131.7" y1="106.6" x2="154.6" y2="68.9" opacity="1.0" stroke="rgb(0,0,0)"  stroke-width="3.0" stroke-dasharray="5.0,5.0"/>
<circle cx="40.000000" cy="145.458552" r="11.272727" opacity="1.000000" style="stroke:black;stroke-width:0.5;fill:url(#radialffffffbfbfbf)"/>
<circle cx="70.990263" cy="146.495248" r="24.000000" opacity="1.000000" style="stroke:black;stroke-width:0.5;fill:url(#radialffffffffcc)"/>
<circle cx="222.420601" cy="110.049688" r="27.636364" opacity="1.000000" style="stroke:black;stroke-width:0.5;fill:url(#radialffffff666666)"/>
<circle cx="316.684098" cy="72.703340" r="11.272727" opacity="1.000000" style="stroke:black;stroke-width:0.5;fill:url(#radialffffffbfbfbf)"/>
<circle cx="285.696996" cy="71.672965" r="24.000000" opacity="1.000000" style="stroke:black;stroke-width:0.5;fill:url(#radialffffffffcc)"/>
<circle cx="201.209418" cy="71.397988" r="27.636364" opacity="1.000000" style="stroke:black;stroke-width:0.5;fill:url(#radialffffff666666)"/>
<circle cx="217.774432" cy="41.317995" r="11.272727" opacity="1.000000" style="stroke:black;stroke-width:0.5;fill:url(#radialffffffbfbfbf)"/>
<circle cx="199.546911" cy="147.743708" r="27.636364" opacity="1.000000" style="stroke:black;stroke-width:0.5;fill:url(#radialffffff666666)"/>
<circle cx="215.486115" cy="178.174534" r="11.272727" opacity="1.000000" style="stroke:black;stroke-width:0.5;fill:url(#radialffffffbfbfbf)"/>
<circle cx="66.382022" cy="74.802017" r="24.000000" opacity="1.000000" style="stroke:black;stroke-width:0.5;fill:url(#radialffffffffcc)"/>
<circle cx="290.302076" cy="143.366195" r="24.000000" opacity="1.000000" style="stroke:black;stroke-width:0.5;fill:url(#radialffffffffcc)"/>
<circle cx="157.134026" cy="70.430826" r="27.636364" opacity="1.000000" style="stroke:black;stroke-width:0.5;fill:url(#radialffffff666666)"/>
<circle cx="155.468359" cy="146.776547" r="27.636364" opacity="1.000000" style="stroke:black;stroke-width:0.5;fill:url(#radialffffff666666)"/>
<circle cx="268.370263" cy="111.057938" r="27.636364" opacity="1.000000" style="stroke:black;stroke-width:0.5;fill:url(#radialffffff666666)"/>
<circle cx="88.320156" cy="107.110275" r="27.636364" opacity="1.000000" style="stroke:black;stroke-width:0.5;fill:url(#radialffffff666666)"/>
<circle cx="141.194823" cy="40.000000" r="11.272727" opacity="1.000000" style="stroke:black;stroke-width:0.5;fill:url(#radialffffffbfbfbf)"/>
<circle cx="134.266658" cy="108.121686" r="27.636364" opacity="1.000000" style="stroke:black;stroke-width:0.5;fill:url(#radialffffff666666)"/>
<circle cx="138.906505" cy="176.856539" r="11.272727" opacity="1.000000" style="stroke:black;stroke-width:0.5;fill:url(#radialffffffbfbfbf)"/>
</svg>
</g>
</svg>
