<?xml version="1.0"?>
<svg version="1.1" id="topsvg"
xmlns="http://www.w3.org/2000/svg" xmlns:xlink="http://www.w3.org/1999/xlink"
xmlns:cml="http://www.xml-cml.org/schema" x="0" y="0" width="1024px" height="1024px" viewBox="0 0 100 100">
<title>7500 - Open Babel Depiction</title>
<rect x="0" y="0" width="100" height="100" fill="white"/>
<defs>
<radialGradient id='radialffffff666666' cx='50%' cy='50%' r='50%' fx='30%' fy='30%'>
  <stop offset=' 0%' stop-color="rgb(255,255,255)"  stop-opacity='1.0'/>
  <stop offset='100%' stop-color="rgb(102,102,102)"  stop-opacity ='1.0'/>
</radialGradient>
<radialGradient id='radialffffffbfbfbf' cx='50%' cy='50%' r='50%' fx='30%' fy='30%'>
  <stop offset=' 0%' stop-color="rgb(255,255,255)"  stop-opacity='1.0'/>
  <stop offset='100%' stop-color="rgb(191,191,191)"  stop-opacity ='1.0'/>
</radialGradient>
</defs>
<g transform="translate(0,0)">
<svg width="100" height="100" x="0" y="0" viewBox="0 0 311.633 219.225"
font-family="sans-serif" stroke="rgb(0,0,0)" stroke-width="2"  stroke-linecap="round">
<line x1="210.3" y1="109.6" x2="163.0" y2="109.6" opacity="1.0" stroke="rgb(0,0,0)"  stroke-width="2.1"/>
<line x1="210.3" y1="109.6" x2="237.2" y2="109.6" opacity="0.7" stroke="rgb(0,0,0)"  stroke-width="1.5"/>
<line x1="210.3" y1="109.6" x2="219.0" y2="81.4" opacity="0.5" stroke="rgb(0,0,0)"  stroke-width="2.6"/>
<line x1="210.3" y1="109.6" x2="219.0" y2="137.8" opacity="0.9" stroke="rgb(0,0,0)"  stroke-width="2.6"/>
<line x1="140.9" y1="70.6" x2="157.7" y2="40.0" opacity="0.9" stroke="rgb(0,0,0)"  stroke-width="1.8"/>
<line x1="140.9" y1="148.6" x2="157.8" y2="179.2" opacity="0.6" stroke="rgb(0,0,0)"  stroke-width="1.8"/>
<line x1="237.2" y1="109.6" x2="230.4" y2="138.2" opacity="0.6" stroke="rgb(0,0,0)"  stroke-width="0.4"/>
<line x1="237.2" y1="109.6" x2="271.6" y2="109.6" opacity="0.1" stroke="rgb(0,0,0)"  stroke-width="0.9"/>
<line x1="237.2" y1="109.6" x2="230.4" y2="81.0" opacity="0.3" stroke="rgb(0,0,0)"  stroke-width="0.4"/>
<line x1="96.6" y1="70.6" x2="79.4" y2="40.2" opacity="0.1" stroke="rgb(0,0,0)"  stroke-width="1.4"/>
<line x1="96.6" y1="148.6" x2="79.4" y2="179.0" opacity="0.5" stroke="rgb(0,0,0)"  stroke-width="1.4"/>
<line x1="74.5" y1="109.6" x2="40.0" y2="109.6" opacity="0.5" stroke="rgb(0,0,0)"  stroke-width="1.2"/>
<line x1="160.4" y1="108.1" x2="138.3" y2="147.1" opacity="0.6" stroke="rgb(0,0,0)"  stroke-width="1.9"/>
<line x1="165.6" y1="111.1" x2="143.5" y2="150.1" opacity="0.6" stroke="rgb(0,0,0)"  stroke-width="1.9" stroke-dasharray="5.0,5.0"/>
<line x1="140.9" y1="145.6" x2="96.6" y2="145.6" opacity="0.5" stroke="rgb(0,0,0)"  stroke-width="1.6"/>
<line x1="140.9" y1="151.6" x2="96.6" y2="151.6" opacity="0.5" stroke="rgb(0,0,0)"  stroke-width="1.6" stroke-dasharray="5.0,5.0"/>
<line x1="99.2" y1="147.1" x2="77.1" y2="108.1" opacity="0.5" stroke="rgb(0,0,0)"  stroke-width="1.4"/>
<line x1="94.0" y1="150.1" x2="71.9" y2="111.1" opacity="0.5" stroke="rgb(0,0,0)"  stroke-width="1.4" stroke-dasharray="5.0,5.0"/>
<line x1="77.1" y1="111.1" x2="99.2" y2="72.1" opacity="0.5" stroke="rgb(0,0,0)"  stroke-width="1.4"/>
<line x1="71.9" y1="108.1" x2="94.0" y2="69.1" opacity="0.5" stroke="rgb(0,0,0)"  stroke-width="1.4" stroke-dasharray="5.0,5.0"/>
<line x1="96.6" y1="73.6" x2="140.9" y2="73.6" opacity="0.5" stroke="rgb(0,0,0)"  stroke-width="1.6"/>
<line x1="96.6" y1="67.6" x2="140.9" y2="67.6" opacity="0.5" stroke="rgb(0,0,0)"  stroke-width="1.6" stroke-dasharray="5.0,5.0"/>
<line x1="138.3" y1="72.1" x2="160.4" y2="111.1" opacity="0.6" stroke="rgb(0,0,0)"  stroke-width="1.9"/>
<line x1="143.5" y1="69.1" x2="165.6" y2="108.1" opacity="0.6" stroke="rgb(0,0,0)"  stroke-width="1.9" stroke-dasharray="5.0,5.0"/>
<circle cx="230.364527" cy="81.026726" r="5.636364" opacity="0.200000" style="stroke:black;stroke-width:0.5;fill:url(#radialffffffbfbfbf)"/>
<circle cx="230.367756" cy="138.217454" r="5.636364" opacity="0.200000" style="stroke:black;stroke-width:0.5;fill:url(#radialffffffbfbfbf)"/>
<circle cx="237.171102" cy="109.618861" r="13.818182" opacity="0.493925" style="stroke:black;stroke-width:0.5;fill:url(#radialffffff666666)"/>
<circle cx="271.633423" cy="109.618861" r="5.636364" opacity="0.584064" style="stroke:black;stroke-width:0.5;fill:url(#radialffffffbfbfbf)"/>
<circle cx="40.000000" cy="109.625319" r="5.636364" opacity="0.600163" style="stroke:black;stroke-width:0.5;fill:url(#radialffffffbfbfbf)"/>
<circle cx="74.465550" cy="109.618861" r="13.818182" opacity="0.663703" style="stroke:black;stroke-width:0.5;fill:url(#radialffffff666666)"/>
<circle cx="79.363830" cy="40.245398" r="5.636364" opacity="0.672069" style="stroke:black;stroke-width:0.5;fill:url(#radialffffffbfbfbf)"/>
<circle cx="79.370288" cy="178.992324" r="5.636364" opacity="0.672098" style="stroke:black;stroke-width:0.5;fill:url(#radialffffffbfbfbf)"/>
<circle cx="96.596605" cy="70.613442" r="13.818182" opacity="0.701434" style="stroke:black;stroke-width:0.5;fill:url(#radialffffff666666)"/>
<circle cx="96.603063" cy="148.621051" r="13.818182" opacity="0.701462" style="stroke:black;stroke-width:0.5;fill:url(#radialffffff666666)"/>
<circle cx="140.865172" cy="70.606984" r="16.444339" opacity="0.771379" style="stroke:black;stroke-width:0.5;fill:url(#radialffffff666666)"/>
<circle cx="140.871630" cy="148.617822" r="16.445446" opacity="0.771405" style="stroke:black;stroke-width:0.5;fill:url(#radialffffff666666)"/>
<circle cx="157.745994" cy="40.000000" r="7.142359" opacity="0.795988" style="stroke:black;stroke-width:0.5;fill:url(#radialffffffbfbfbf)"/>
<circle cx="157.752452" cy="179.224806" r="7.142810" opacity="0.796013" style="stroke:black;stroke-width:0.5;fill:url(#radialffffffbfbfbf)"/>
<circle cx="163.002685" cy="109.612403" r="17.867833" opacity="0.804073" style="stroke:black;stroke-width:0.5;fill:url(#radialffffff666666)"/>
<circle cx="210.332274" cy="109.612403" r="20.914065" opacity="0.869919" style="stroke:black;stroke-width:0.5;fill:url(#radialffffff666666)"/>
<circle cx="218.953505" cy="81.381908" r="11.270921" opacity="0.999920" style="stroke:black;stroke-width:0.5;fill:url(#radialffffffbfbfbf)"/>
<circle cx="218.953505" cy="137.829982" r="11.272727" opacity="1.000000" style="stroke:black;stroke-width:0.5;fill:url(#radialffffffbfbfbf)"/>
</svg>
</g>
</svg>
