<?xml version="1.0"?>
<svg version="1.1" id="topsvg"
xmlns="http://www.w3.org/2000/svg" xmlns:xlink="http://www.w3.org/1999/xlink"
xmlns:cml="http://www.xml-cml.org/schema" x="0" y="0" width="200px" height="200px" viewBox="0 0 100 100">
<title>7501 - Open Babel Depiction</title>
<rect x="0" y="0" width="100" height="100" fill="white"/>
<defs>
<radialGradient id='radialffffff666666' cx='50%' cy='50%' r='50%' fx='30%' fy='30%'>
  <stop offset=' 0%' stop-color="rgb(255,255,255)"  stop-opacity='1.0'/>
  <stop offset='100%' stop-color="rgb(102,102,102)"  stop-opacity ='1.0'/>
</radialGradient>
<radialGradient id='radialffffffbfbfbf' cx='50%' cy='50%' r='50%' fx='30%' fy='30%'>
  <stop offset=' 0%' stop-color="rgb(255,255,255)"  stop-opacity='1.0'/>
  <stop offset='100%' stop-color="rgb(191,191,191)"  stop-opacity ='1.0'/>
</radialGradient>
</defs>
<g transform="translate(0,0)">
<svg width="100" height="100" x="0" y="0" viewBox="0 0 313.986 230.061"
font-family="sans-serif" stroke="rgb(0,0,0)" stroke-width="2"  stroke-linecap="round">
<line x1="162.8" y1="122.4" x2="208.9" y2="130.3" opacity="1.0" stroke="rgb(0,0,0)"  stroke-width="1.9"/>
<line x1="134.3" y1="157.0" x2="146.0" y2="190.1" opacity="0.6" stroke="rgb(0,0,0)"  stroke-width="1.6"/>
<line x1="147.2" y1="80.3" x2="168.4" y2="52.7" opacity="0.5" stroke="rgb(0,0,0)"  stroke-width="1.9"/>
<line x1="90.1" y1="149.5" x2="67.9" y2="176.4" opacity="0.6" stroke="rgb(0,0,0)"  stroke-width="1.3"/>
<line x1="102.9" y1="72.8" x2="90.7" y2="40.0" opacity="0.4" stroke="rgb(0,0,0)"  stroke-width="1.6"/>
<line x1="74.4" y1="107.4" x2="40.0" y2="101.5" opacity="0.5" stroke="rgb(0,0,0)"  stroke-width="1.4"/>
<line x1="207.0" y1="128.0" x2="238.6" y2="102.2" opacity="0.5" stroke="rgb(0,0,0)"  stroke-width="1.5"/>
<line x1="210.8" y1="132.6" x2="242.4" y2="106.8" opacity="0.5" stroke="rgb(0,0,0)"  stroke-width="1.5"/>
<line x1="208.9" y1="130.3" x2="218.4" y2="160.4" opacity="0.5" stroke="rgb(0,0,0)"  stroke-width="2.5"/>
<line x1="240.5" y1="104.5" x2="274.0" y2="113.9" opacity="0.8" stroke="rgb(0,0,0)"  stroke-width="1.2"/>
<line x1="240.5" y1="104.5" x2="234.1" y2="74.3" opacity="0.4" stroke="rgb(0,0,0)"  stroke-width="0.5"/>
<line x1="165.6" y1="121.4" x2="150.0" y2="79.3" opacity="0.6" stroke="rgb(0,0,0)"  stroke-width="1.8"/>
<line x1="160.0" y1="123.5" x2="144.3" y2="81.4" opacity="0.6" stroke="rgb(0,0,0)"  stroke-width="1.8" stroke-dasharray="5.0,5.0"/>
<line x1="147.7" y1="77.4" x2="103.4" y2="69.8" opacity="0.6" stroke="rgb(0,0,0)"  stroke-width="1.7"/>
<line x1="146.6" y1="83.3" x2="102.4" y2="75.7" opacity="0.6" stroke="rgb(0,0,0)"  stroke-width="1.7" stroke-dasharray="5.0,5.0"/>
<line x1="100.6" y1="70.9" x2="72.1" y2="105.5" opacity="0.5" stroke="rgb(0,0,0)"  stroke-width="1.5"/>
<line x1="105.3" y1="74.7" x2="76.7" y2="109.3" opacity="0.5" stroke="rgb(0,0,0)"  stroke-width="1.5" stroke-dasharray="5.0,5.0"/>
<line x1="71.6" y1="108.4" x2="87.3" y2="150.5" opacity="0.5" stroke="rgb(0,0,0)"  stroke-width="1.4"/>
<line x1="77.2" y1="106.3" x2="92.9" y2="148.4" opacity="0.5" stroke="rgb(0,0,0)"  stroke-width="1.4" stroke-dasharray="5.0,5.0"/>
<line x1="89.6" y1="152.5" x2="133.8" y2="160.0" opacity="0.5" stroke="rgb(0,0,0)"  stroke-width="1.5"/>
<line x1="90.6" y1="146.5" x2="134.8" y2="154.1" opacity="0.5" stroke="rgb(0,0,0)"  stroke-width="1.5" stroke-dasharray="5.0,5.0"/>
<line x1="136.6" y1="158.9" x2="165.2" y2="124.3" opacity="0.6" stroke="rgb(0,0,0)"  stroke-width="1.7"/>
<line x1="132.0" y1="155.1" x2="160.5" y2="120.5" opacity="0.6" stroke="rgb(0,0,0)"  stroke-width="1.7" stroke-dasharray="5.0,5.0"/>
<circle cx="234.114670" cy="74.329261" r="5.636364" opacity="0.200000" style="stroke:black;stroke-width:0.5;fill:url(#radialffffffbfbfbf)"/>
<circle cx="240.536504" cy="104.476114" r="13.818182" opacity="0.593469" style="stroke:black;stroke-width:0.5;fill:url(#radialffffff666666)"/>
<circle cx="67.897761" cy="176.421275" r="5.636364" opacity="0.647335" style="stroke:black;stroke-width:0.5;fill:url(#radialffffffbfbfbf)"/>
<circle cx="40.000000" cy="101.518139" r="5.636364" opacity="0.652647" style="stroke:black;stroke-width:0.5;fill:url(#radialffffffbfbfbf)"/>
<circle cx="273.986106" cy="113.904256" r="5.636364" opacity="0.659383" style="stroke:black;stroke-width:0.5;fill:url(#radialffffffbfbfbf)"/>
<circle cx="90.111571" cy="149.493395" r="13.818182" opacity="0.687325" style="stroke:black;stroke-width:0.5;fill:url(#radialffffff666666)"/>
<circle cx="74.422705" cy="107.376089" r="13.818182" opacity="0.689832" style="stroke:black;stroke-width:0.5;fill:url(#radialffffff666666)"/>
<circle cx="145.977981" cy="190.060825" r="6.005687" opacity="0.729906" style="stroke:black;stroke-width:0.5;fill:url(#radialffffffbfbfbf)"/>
<circle cx="134.316858" cy="157.020442" r="14.851468" opacity="0.733068" style="stroke:black;stroke-width:0.5;fill:url(#radialffffff666666)"/>
<circle cx="102.942349" cy="72.785830" r="15.040380" opacity="0.737716" style="stroke:black;stroke-width:0.5;fill:url(#radialffffff666666)"/>
<circle cx="90.704454" cy="40.000000" r="6.190154" opacity="0.741031" style="stroke:black;stroke-width:0.5;fill:url(#radialffffffbfbfbf)"/>
<circle cx="162.836503" cy="122.430182" r="16.742488" opacity="0.778340" style="stroke:black;stroke-width:0.5;fill:url(#radialffffff666666)"/>
<circle cx="147.150859" cy="80.312877" r="16.834081" opacity="0.780466" style="stroke:black;stroke-width:0.5;fill:url(#radialffffff666666)"/>
<circle cx="168.439899" cy="52.656780" r="7.566263" opacity="0.819268" style="stroke:black;stroke-width:0.5;fill:url(#radialffffffbfbfbf)"/>
<circle cx="208.936441" cy="130.279449" r="18.610609" opacity="0.820616" style="stroke:black;stroke-width:0.5;fill:url(#radialffffff666666)"/>
<circle cx="218.387138" cy="160.397302" r="11.272727" opacity="1.000000" style="stroke:black;stroke-width:0.5;fill:url(#radialffffffbfbfbf)"/>
</svg>
</g>
</svg>
