<?xml version="1.0"?>
<svg version="1.1" id="topsvg"
xmlns="http://www.w3.org/2000/svg" xmlns:xlink="http://www.w3.org/1999/xlink"
xmlns:cml="http://www.xml-cml.org/schema" x="0" y="0" width="1024px" height="1024px" viewBox="0 0 100 100">
<title>75901 - Open Babel Depiction</title>
<rect x="0" y="0" width="100" height="100" fill="white"/>
<defs>
<radialGradient id='radialffffff666666' cx='50%' cy='50%' r='50%' fx='30%' fy='30%'>
  <stop offset=' 0%' stop-color="rgb(255,255,255)"  stop-opacity='1.0'/>
  <stop offset='100%' stop-color="rgb(102,102,102)"  stop-opacity ='1.0'/>
</radialGradient>
<radialGradient id='radialffffffb2b20' cx='50%' cy='50%' r='50%' fx='30%' fy='30%'>
  <stop offset=' 0%' stop-color="rgb(255,255,255)"  stop-opacity='1.0'/>
  <stop offset='100%' stop-color="rgb(178,178,0)"  stop-opacity ='1.0'/>
</radialGradient>
<radialGradient id='radialffffffbfbfbf' cx='50%' cy='50%' r='50%' fx='30%' fy='30%'>
  <stop offset=' 0%' stop-color="rgb(255,255,255)"  stop-opacity='1.0'/>
  <stop offset='100%' stop-color="rgb(191,191,191)"  stop-opacity ='1.0'/>
</radialGradient>
</defs>
<g transform="translate(0,0)">
<svg width="100" height="100" x="0" y="0" viewBox="0 0 792.061 169.51"
font-family="sans-serif" stroke="rgb(0,0,0)" stroke-width="2"  stroke-linecap="round">
<line x1="395.9" y1="123.2" x2="440.0" y2="85.2" opacity="1.0" stroke="rgb(0,0,0)"  stroke-width="1.5"/>
<line x1="395.9" y1="123.2" x2="352.0" y2="85.3" opacity="0.5" stroke="rgb(0,0,0)"  stroke-width="1.5"/>
<line x1="563.7" y1="100.1" x2="520.5" y2="76.8" opacity="0.5" stroke="rgb(0,0,0)"  stroke-width="1.4"/>
<line x1="563.7" y1="100.1" x2="602.3" y2="69.7" opacity="0.5" stroke="rgb(0,0,0)"  stroke-width="1.4"/>
<line x1="563.7" y1="100.1" x2="566.0" y2="121.8" opacity="0.5" stroke="rgb(0,0,0)"  stroke-width="2.0"/>
<line x1="563.7" y1="100.1" x2="565.1" y2="120.3" opacity="0.7" stroke="rgb(0,0,0)"  stroke-width="0.7"/>
<line x1="228.4" y1="100.2" x2="271.6" y2="76.9" opacity="0.2" stroke="rgb(0,0,0)"  stroke-width="1.6"/>
<line x1="228.4" y1="100.2" x2="189.7" y2="69.7" opacity="0.5" stroke="rgb(0,0,0)"  stroke-width="1.6"/>
<line x1="228.4" y1="100.2" x2="226.0" y2="121.8" opacity="0.5" stroke="rgb(0,0,0)"  stroke-width="1.0"/>
<line x1="228.4" y1="100.2" x2="226.9" y2="120.3" opacity="0.3" stroke="rgb(0,0,0)"  stroke-width="2.3"/>
<line x1="520.5" y1="76.8" x2="483.0" y2="108.7" opacity="0.8" stroke="rgb(0,0,0)"  stroke-width="1.5"/>
<line x1="520.5" y1="76.8" x2="517.7" y2="55.5" opacity="0.5" stroke="rgb(0,0,0)"  stroke-width="0.8"/>
<line x1="520.5" y1="76.8" x2="519.0" y2="56.5" opacity="0.3" stroke="rgb(0,0,0)"  stroke-width="2.1"/>
<line x1="271.6" y1="76.9" x2="309.0" y2="108.8" opacity="0.7" stroke="rgb(0,0,0)"  stroke-width="1.5"/>
<line x1="271.6" y1="76.9" x2="274.4" y2="55.6" opacity="0.5" stroke="rgb(0,0,0)"  stroke-width="2.2"/>
<line x1="271.6" y1="76.9" x2="273.1" y2="56.5" opacity="0.7" stroke="rgb(0,0,0)"  stroke-width="0.9"/>
<line x1="602.3" y1="69.7" x2="645.5" y2="93.1" opacity="0.3" stroke="rgb(0,0,0)"  stroke-width="1.4"/>
<line x1="602.3" y1="69.7" x2="600.0" y2="48.7" opacity="0.5" stroke="rgb(0,0,0)"  stroke-width="2.1"/>
<line x1="602.3" y1="69.7" x2="600.9" y2="48.9" opacity="0.7" stroke="rgb(0,0,0)"  stroke-width="0.7"/>
<line x1="189.7" y1="69.7" x2="146.5" y2="93.0" opacity="0.2" stroke="rgb(0,0,0)"  stroke-width="1.6"/>
<line x1="189.7" y1="69.7" x2="192.1" y2="48.7" opacity="0.5" stroke="rgb(0,0,0)"  stroke-width="0.9"/>
<line x1="189.7" y1="69.7" x2="191.2" y2="48.9" opacity="0.3" stroke="rgb(0,0,0)"  stroke-width="2.3"/>
<line x1="483.0" y1="108.7" x2="440.0" y2="85.2" opacity="0.8" stroke="rgb(0,0,0)"  stroke-width="1.5"/>
<line x1="483.0" y1="108.7" x2="485.2" y2="129.4" opacity="0.5" stroke="rgb(0,0,0)"  stroke-width="0.8"/>
<line x1="483.0" y1="108.7" x2="485.8" y2="129.4" opacity="0.3" stroke="rgb(0,0,0)"  stroke-width="2.1"/>
<line x1="309.0" y1="108.8" x2="352.0" y2="85.3" opacity="0.7" stroke="rgb(0,0,0)"  stroke-width="1.5"/>
<line x1="309.0" y1="108.8" x2="306.8" y2="129.5" opacity="0.5" stroke="rgb(0,0,0)"  stroke-width="2.2"/>
<line x1="309.0" y1="108.8" x2="306.2" y2="129.4" opacity="0.7" stroke="rgb(0,0,0)"  stroke-width="0.9"/>
<line x1="645.5" y1="93.1" x2="682.9" y2="61.2" opacity="0.3" stroke="rgb(0,0,0)"  stroke-width="1.5"/>
<line x1="645.5" y1="93.1" x2="646.6" y2="114.7" opacity="0.5" stroke="rgb(0,0,0)"  stroke-width="2.1"/>
<line x1="645.5" y1="93.1" x2="648.8" y2="113.0" opacity="0.7" stroke="rgb(0,0,0)"  stroke-width="0.8"/>
<line x1="146.5" y1="93.0" x2="109.2" y2="61.2" opacity="0.3" stroke="rgb(0,0,0)"  stroke-width="1.5"/>
<line x1="146.5" y1="93.0" x2="145.4" y2="114.7" opacity="0.5" stroke="rgb(0,0,0)"  stroke-width="0.9"/>
<line x1="146.5" y1="93.0" x2="143.2" y2="113.0" opacity="0.3" stroke="rgb(0,0,0)"  stroke-width="2.2"/>
<line x1="440.0" y1="85.2" x2="437.7" y2="64.8" opacity="0.7" stroke="rgb(0,0,0)"  stroke-width="2.2"/>
<line x1="440.0" y1="85.2" x2="437.2" y2="64.8" opacity="0.7" stroke="rgb(0,0,0)"  stroke-width="0.8"/>
<line x1="352.0" y1="85.3" x2="354.3" y2="64.9" opacity="0.3" stroke="rgb(0,0,0)"  stroke-width="0.8"/>
<line x1="352.0" y1="85.3" x2="354.8" y2="64.9" opacity="0.3" stroke="rgb(0,0,0)"  stroke-width="2.2"/>
<line x1="682.9" y1="61.2" x2="725.8" y2="84.2" opacity="0.7" stroke="rgb(0,0,0)"  stroke-width="1.6"/>
<line x1="682.9" y1="61.2" x2="679.3" y2="40.9" opacity="0.5" stroke="rgb(0,0,0)"  stroke-width="2.2"/>
<line x1="682.9" y1="61.2" x2="682.4" y2="40.0" opacity="0.7" stroke="rgb(0,0,0)"  stroke-width="0.9"/>
<line x1="109.2" y1="61.2" x2="66.2" y2="84.2" opacity="0.3" stroke="rgb(0,0,0)"  stroke-width="1.4"/>
<line x1="109.2" y1="61.2" x2="112.8" y2="40.8" opacity="0.5" stroke="rgb(0,0,0)"  stroke-width="0.8"/>
<line x1="109.2" y1="61.2" x2="109.6" y2="40.0" opacity="0.3" stroke="rgb(0,0,0)"  stroke-width="2.1"/>
<line x1="725.8" y1="84.2" x2="727.7" y2="104.9" opacity="0.7" stroke="rgb(0,0,0)"  stroke-width="2.3"/>
<line x1="725.8" y1="84.2" x2="752.1" y2="60.9" opacity="0.8" stroke="rgb(0,0,0)"  stroke-width="1.7"/>
<line x1="725.8" y1="84.2" x2="730.9" y2="104.2" opacity="0.6" stroke="rgb(0,0,0)"  stroke-width="1.0"/>
<line x1="66.2" y1="84.2" x2="64.3" y2="104.8" opacity="0.3" stroke="rgb(0,0,0)"  stroke-width="0.7"/>
<line x1="66.2" y1="84.2" x2="40.0" y2="60.8" opacity="0.2" stroke="rgb(0,0,0)"  stroke-width="1.3"/>
<line x1="66.2" y1="84.2" x2="61.1" y2="104.1" opacity="0.4" stroke="rgb(0,0,0)"  stroke-width="2.0"/>
<circle cx="64.342255" cy="104.804592" r="5.636364" opacity="0.200000" style="stroke:black;stroke-width:0.5;fill:url(#radialffffffbfbfbf)"/>
<circle cx="565.127488" cy="120.263305" r="5.636364" opacity="0.200000" style="stroke:black;stroke-width:0.5;fill:url(#radialffffffbfbfbf)"/>
<circle cx="600.860712" cy="48.912437" r="5.636364" opacity="0.200000" style="stroke:black;stroke-width:0.5;fill:url(#radialffffffbfbfbf)"/>
<circle cx="648.790747" cy="112.978607" r="5.636364" opacity="0.200000" style="stroke:black;stroke-width:0.5;fill:url(#radialffffffbfbfbf)"/>
<circle cx="112.789186" cy="40.834738" r="5.636364" opacity="0.200000" style="stroke:black;stroke-width:0.5;fill:url(#radialffffffbfbfbf)"/>
<circle cx="485.194868" cy="129.400480" r="5.636364" opacity="0.205375" style="stroke:black;stroke-width:0.5;fill:url(#radialffffffbfbfbf)"/>
<circle cx="517.698296" cy="55.526134" r="5.636364" opacity="0.207579" style="stroke:black;stroke-width:0.5;fill:url(#radialffffffbfbfbf)"/>
<circle cx="437.235938" cy="64.778888" r="5.636364" opacity="0.213938" style="stroke:black;stroke-width:0.5;fill:url(#radialffffffbfbfbf)"/>
<circle cx="354.311102" cy="64.875203" r="5.636364" opacity="0.236719" style="stroke:black;stroke-width:0.5;fill:url(#radialffffffbfbfbf)"/>
<circle cx="306.246225" cy="129.445427" r="5.636364" opacity="0.251632" style="stroke:black;stroke-width:0.5;fill:url(#radialffffffbfbfbf)"/>
<circle cx="273.062164" cy="56.537451" r="5.636364" opacity="0.254231" style="stroke:black;stroke-width:0.5;fill:url(#radialffffffbfbfbf)"/>
<circle cx="682.430703" cy="40.032105" r="5.636364" opacity="0.276985" style="stroke:black;stroke-width:0.5;fill:url(#radialffffffbfbfbf)"/>
<circle cx="145.437088" cy="114.673768" r="5.636364" opacity="0.290705" style="stroke:black;stroke-width:0.5;fill:url(#radialffffffbfbfbf)"/>
<circle cx="192.070068" cy="48.668437" r="5.636364" opacity="0.304885" style="stroke:black;stroke-width:0.5;fill:url(#radialffffffbfbfbf)"/>
<circle cx="730.903318" cy="104.175328" r="5.636364" opacity="0.322460" style="stroke:black;stroke-width:0.5;fill:url(#radialffffffbfbfbf)"/>
<circle cx="226.027867" cy="121.842887" r="5.636364" opacity="0.323321" style="stroke:black;stroke-width:0.5;fill:url(#radialffffffbfbfbf)"/>
<circle cx="40.000000" cy="60.813880" r="5.636364" opacity="0.647541" style="stroke:black;stroke-width:0.5;fill:url(#radialffffffbfbfbf)"/>
<circle cx="66.194732" cy="84.170502" r="13.818182" opacity="0.668712" style="stroke:black;stroke-width:0.5;fill:url(#radialffffff666666)"/>
<circle cx="563.679538" cy="100.114005" r="13.818182" opacity="0.678062" style="stroke:black;stroke-width:0.5;fill:url(#radialffffff666666)"/>
<circle cx="602.321504" cy="69.716686" r="13.818182" opacity="0.681188" style="stroke:black;stroke-width:0.5;fill:url(#radialffffff666666)"/>
<circle cx="645.538478" cy="93.054045" r="13.818182" opacity="0.691577" style="stroke:black;stroke-width:0.5;fill:url(#radialffffff666666)"/>
<circle cx="109.212653" cy="61.199144" r="13.818182" opacity="0.693658" style="stroke:black;stroke-width:0.5;fill:url(#radialffffff666666)"/>
<circle cx="520.462564" cy="76.779857" r="13.818182" opacity="0.695078" style="stroke:black;stroke-width:0.5;fill:url(#radialffffff666666)"/>
<circle cx="483.014917" cy="108.660442" r="13.818182" opacity="0.699683" style="stroke:black;stroke-width:0.5;fill:url(#radialffffff666666)"/>
<circle cx="440.029101" cy="85.162556" r="13.818182" opacity="0.703432" style="stroke:black;stroke-width:0.5;fill:url(#radialffffff666666)"/>
<circle cx="395.913178" cy="123.245889" r="19.091875" opacity="0.707125" style="stroke:black;stroke-width:0.5;fill:url(#radialffffffb2b20)"/>
<circle cx="352.015572" cy="85.297399" r="13.967035" opacity="0.710905" style="stroke:black;stroke-width:0.5;fill:url(#radialffffff666666)"/>
<circle cx="309.016914" cy="108.766389" r="14.108201" opacity="0.714489" style="stroke:black;stroke-width:0.5;fill:url(#radialffffff666666)"/>
<circle cx="271.588530" cy="76.856910" r="14.288502" opacity="0.719040" style="stroke:black;stroke-width:0.5;fill:url(#radialffffff666666)"/>
<circle cx="682.851283" cy="61.240881" r="14.345807" opacity="0.720480" style="stroke:black;stroke-width:0.5;fill:url(#radialffffff666666)"/>
<circle cx="146.499774" cy="93.037992" r="14.419884" opacity="0.722338" style="stroke:black;stroke-width:0.5;fill:url(#radialffffff666666)"/>
<circle cx="189.732801" cy="69.732739" r="14.819621" opacity="0.732282" style="stroke:black;stroke-width:0.5;fill:url(#radialffffff666666)"/>
<circle cx="228.355503" cy="100.158952" r="14.932833" opacity="0.735073" style="stroke:black;stroke-width:0.5;fill:url(#radialffffff666666)"/>
<circle cx="725.849941" cy="84.244344" r="15.282254" opacity="0.743624" style="stroke:black;stroke-width:0.5;fill:url(#radialffffff666666)"/>
<circle cx="752.060726" cy="60.906986" r="6.549390" opacity="0.762230" style="stroke:black;stroke-width:0.5;fill:url(#radialffffffbfbfbf)"/>
<circle cx="565.994332" cy="121.804360" r="10.094316" opacity="0.946289" style="stroke:black;stroke-width:0.5;fill:url(#radialffffffbfbfbf)"/>
<circle cx="61.128512" cy="104.107907" r="10.100587" opacity="0.946583" style="stroke:black;stroke-width:0.5;fill:url(#radialffffffbfbfbf)"/>
<circle cx="600.003500" cy="48.658805" r="10.228861" opacity="0.952575" style="stroke:black;stroke-width:0.5;fill:url(#radialffffffbfbfbf)"/>
<circle cx="646.585111" cy="114.699453" r="10.320078" opacity="0.956813" style="stroke:black;stroke-width:0.5;fill:url(#radialffffffbfbfbf)"/>
<circle cx="109.646075" cy="40.000000" r="10.412436" opacity="0.961085" style="stroke:black;stroke-width:0.5;fill:url(#radialffffffbfbfbf)"/>
<circle cx="519.001772" cy="56.466820" r="10.546411" opacity="0.967248" style="stroke:black;stroke-width:0.5;fill:url(#radialffffffbfbfbf)"/>
<circle cx="485.753501" cy="129.355532" r="10.558383" opacity="0.967797" style="stroke:black;stroke-width:0.5;fill:url(#radialffffffbfbfbf)"/>
<circle cx="437.688623" cy="64.775677" r="10.646750" opacity="0.971838" style="stroke:black;stroke-width:0.5;fill:url(#radialffffffbfbfbf)"/>
<circle cx="354.766998" cy="64.894467" r="10.757921" opacity="0.976899" style="stroke:black;stroke-width:0.5;fill:url(#radialffffffbfbfbf)"/>
<circle cx="274.365640" cy="55.609608" r="10.789847" opacity="0.978347" style="stroke:black;stroke-width:0.5;fill:url(#radialffffffbfbfbf)"/>
<circle cx="306.808068" cy="129.509638" r="10.797258" opacity="0.978683" style="stroke:black;stroke-width:0.5;fill:url(#radialffffffbfbfbf)"/>
<circle cx="679.287592" cy="40.886107" r="10.910709" opacity="0.983812" style="stroke:black;stroke-width:0.5;fill:url(#radialffffffbfbfbf)"/>
<circle cx="143.231452" cy="112.972186" r="11.002497" opacity="0.987941" style="stroke:black;stroke-width:0.5;fill:url(#radialffffffbfbfbf)"/>
<circle cx="191.206435" cy="48.938122" r="11.085732" opacity="0.991671" style="stroke:black;stroke-width:0.5;fill:url(#radialffffffbfbfbf)"/>
<circle cx="226.891500" cy="120.311463" r="11.213436" opacity="0.997367" style="stroke:black;stroke-width:0.5;fill:url(#radialffffffbfbfbf)"/>
<circle cx="727.686365" cy="104.894487" r="11.272727" opacity="1.000000" style="stroke:black;stroke-width:0.5;fill:url(#radialffffffbfbfbf)"/>
</svg>
</g>
</svg>
