<?xml version="1.0"?>
<svg version="1.1" id="topsvg"
xmlns="http://www.w3.org/2000/svg" xmlns:xlink="http://www.w3.org/1999/xlink"
xmlns:cml="http://www.xml-cml.org/schema" x="0" y="0" width="200px" height="200px" viewBox="0 0 100 100">
<title>7705 - Open Babel Depiction</title>
<rect x="0" y="0" width="100" height="100" fill="white"/>
<defs>
<radialGradient id='radialffffff666666' cx='50%' cy='50%' r='50%' fx='30%' fy='30%'>
  <stop offset=' 0%' stop-color="rgb(255,255,255)"  stop-opacity='1.0'/>
  <stop offset='100%' stop-color="rgb(102,102,102)"  stop-opacity ='1.0'/>
</radialGradient>
<radialGradient id='radialffffffbfbfbf' cx='50%' cy='50%' r='50%' fx='30%' fy='30%'>
  <stop offset=' 0%' stop-color="rgb(255,255,255)"  stop-opacity='1.0'/>
  <stop offset='100%' stop-color="rgb(191,191,191)"  stop-opacity ='1.0'/>
</radialGradient>
</defs>
<g transform="translate(0,0)">
<svg width="100" height="100" x="0" y="0" viewBox="0 0 387.645 219.919"
font-family="sans-serif" stroke="rgb(0,0,0)" stroke-width="4"  stroke-linecap="round">
<line x1="235.8" y1="110.8" x2="203.3" y2="111.1" opacity="1.0" stroke="rgb(0,0,0)"  stroke-width="1.2"/>
<line x1="235.8" y1="110.8" x2="282.2" y2="110.3" opacity="0.4" stroke="rgb(0,0,0)"  stroke-width="1.5"/>
<line x1="235.8" y1="110.8" x2="231.0" y2="139.3" opacity="0.5" stroke="rgb(0,0,0)"  stroke-width="2.1"/>
<line x1="235.8" y1="110.8" x2="230.4" y2="82.4" opacity="0.7" stroke="rgb(0,0,0)"  stroke-width="2.1"/>
<line x1="203.3" y1="111.1" x2="157.4" y2="110.5" opacity="0.7" stroke="rgb(0,0,0)"  stroke-width="0.9"/>
<line x1="203.3" y1="111.1" x2="208.3" y2="139.7" opacity="0.3" stroke="rgb(0,0,0)"  stroke-width="0.4"/>
<line x1="203.3" y1="111.1" x2="208.7" y2="83.2" opacity="0.1" stroke="rgb(0,0,0)"  stroke-width="0.4"/>
<line x1="282.2" y1="110.3" x2="314.7" y2="108.7" opacity="0.1" stroke="rgb(0,0,0)"  stroke-width="1.8"/>
<line x1="282.2" y1="110.3" x2="288.2" y2="139.2" opacity="0.6" stroke="rgb(0,0,0)"  stroke-width="1.0"/>
<line x1="282.2" y1="110.3" x2="287.1" y2="82.2" opacity="0.3" stroke="rgb(0,0,0)"  stroke-width="0.9"/>
<line x1="314.7" y1="108.7" x2="311.4" y2="136.9" opacity="0.3" stroke="rgb(0,0,0)"  stroke-width="2.7"/>
<line x1="314.7" y1="108.7" x2="310.3" y2="79.6" opacity="0.9" stroke="rgb(0,0,0)"  stroke-width="2.7"/>
<line x1="314.7" y1="108.7" x2="347.6" y2="108.4" opacity="0.9" stroke="rgb(0,0,0)"  stroke-width="2.2"/>
<line x1="136.4" y1="149.2" x2="152.4" y2="179.9" opacity="0.7" stroke="rgb(0,0,0)"  stroke-width="1.3"/>
<line x1="137.0" y1="71.2" x2="153.5" y2="40.9" opacity="0.4" stroke="rgb(0,0,0)"  stroke-width="1.2"/>
<line x1="93.9" y1="148.6" x2="77.1" y2="178.7" opacity="0.4" stroke="rgb(0,0,0)"  stroke-width="1.9"/>
<line x1="94.6" y1="70.6" x2="78.3" y2="40.0" opacity="0.6" stroke="rgb(0,0,0)"  stroke-width="1.9"/>
<line x1="73.0" y1="109.3" x2="40.0" y2="108.8" opacity="0.6" stroke="rgb(0,0,0)"  stroke-width="2.2"/>
<line x1="160.1" y1="109.1" x2="139.7" y2="69.8" opacity="0.4" stroke="rgb(0,0,0)"  stroke-width="1.2"/>
<line x1="154.8" y1="111.8" x2="134.4" y2="72.6" opacity="0.4" stroke="rgb(0,0,0)"  stroke-width="1.2" stroke-dasharray="5.0,5.0"/>
<line x1="137.1" y1="68.2" x2="94.6" y2="67.6" opacity="0.5" stroke="rgb(0,0,0)"  stroke-width="1.6"/>
<line x1="137.0" y1="74.2" x2="94.5" y2="73.6" opacity="0.5" stroke="rgb(0,0,0)"  stroke-width="1.6" stroke-dasharray="5.0,5.0"/>
<line x1="92.0" y1="69.1" x2="70.4" y2="107.8" opacity="0.6" stroke="rgb(0,0,0)"  stroke-width="1.9"/>
<line x1="97.2" y1="72.0" x2="75.7" y2="110.7" opacity="0.6" stroke="rgb(0,0,0)"  stroke-width="1.9" stroke-dasharray="5.0,5.0"/>
<line x1="70.4" y1="110.7" x2="91.3" y2="150.0" opacity="0.6" stroke="rgb(0,0,0)"  stroke-width="1.9"/>
<line x1="75.7" y1="107.9" x2="96.6" y2="147.2" opacity="0.6" stroke="rgb(0,0,0)"  stroke-width="1.9" stroke-dasharray="5.0,5.0"/>
<line x1="93.9" y1="151.6" x2="136.3" y2="152.2" opacity="0.5" stroke="rgb(0,0,0)"  stroke-width="1.6"/>
<line x1="94.0" y1="145.6" x2="136.4" y2="146.2" opacity="0.5" stroke="rgb(0,0,0)"  stroke-width="1.6" stroke-dasharray="5.0,5.0"/>
<line x1="139.0" y1="150.6" x2="160.1" y2="111.9" opacity="0.4" stroke="rgb(0,0,0)"  stroke-width="1.3"/>
<line x1="133.7" y1="147.7" x2="154.8" y2="109.0" opacity="0.4" stroke="rgb(0,0,0)"  stroke-width="1.3" stroke-dasharray="5.0,5.0"/>
<circle cx="208.685383" cy="83.187435" r="5.636364" opacity="0.200000" style="stroke:black;stroke-width:0.5;fill:url(#radialffffffbfbfbf)"/>
<circle cx="208.281853" cy="139.672003" r="5.636364" opacity="0.200000" style="stroke:black;stroke-width:0.5;fill:url(#radialffffffbfbfbf)"/>
<circle cx="287.083265" cy="82.199593" r="5.636364" opacity="0.454342" style="stroke:black;stroke-width:0.5;fill:url(#radialffffffbfbfbf)"/>
<circle cx="203.281304" cy="111.098824" r="13.818182" opacity="0.461691" style="stroke:black;stroke-width:0.5;fill:url(#radialffffff666666)"/>
<circle cx="288.184096" cy="139.155485" r="5.636364" opacity="0.469064" style="stroke:black;stroke-width:0.5;fill:url(#radialffffffbfbfbf)"/>
<circle cx="157.424112" cy="110.453176" r="13.818182" opacity="0.613987" style="stroke:black;stroke-width:0.5;fill:url(#radialffffff666666)"/>
<circle cx="153.546992" cy="40.861941" r="5.636364" opacity="0.618920" style="stroke:black;stroke-width:0.5;fill:url(#radialffffffbfbfbf)"/>
<circle cx="152.358999" cy="179.918509" r="5.636364" opacity="0.635871" style="stroke:black;stroke-width:0.5;fill:url(#radialffffffbfbfbf)"/>
<circle cx="282.211846" cy="110.301448" r="13.818182" opacity="0.646146" style="stroke:black;stroke-width:0.5;fill:url(#radialffffff666666)"/>
<circle cx="137.018388" cy="71.171915" r="13.818182" opacity="0.667195" style="stroke:black;stroke-width:0.5;fill:url(#radialffffff666666)"/>
<circle cx="136.353370" cy="149.156581" r="13.818182" opacity="0.676105" style="stroke:black;stroke-width:0.5;fill:url(#radialffffff666666)"/>
<circle cx="235.844591" cy="110.821196" r="16.234690" opacity="0.766446" style="stroke:black;stroke-width:0.5;fill:url(#radialffffff666666)"/>
<circle cx="94.586361" cy="70.587603" r="16.494452" opacity="0.772553" style="stroke:black;stroke-width:0.5;fill:url(#radialffffff666666)"/>
<circle cx="93.918115" cy="148.569041" r="16.824323" opacity="0.780240" style="stroke:black;stroke-width:0.5;fill:url(#radialffffff666666)"/>
<circle cx="78.325701" cy="40.000000" r="7.343936" opacity="0.807142" style="stroke:black;stroke-width:0.5;fill:url(#radialffffffbfbfbf)"/>
<circle cx="347.645104" cy="108.403241" r="7.425694" opacity="0.811622" style="stroke:black;stroke-width:0.5;fill:url(#radialffffffbfbfbf)"/>
<circle cx="77.144164" cy="178.698233" r="7.582611" opacity="0.820153" style="stroke:black;stroke-width:0.5;fill:url(#radialffffffbfbfbf)"/>
<circle cx="73.034611" cy="109.284552" r="18.755012" opacity="0.823793" style="stroke:black;stroke-width:0.5;fill:url(#radialffffff666666)"/>
<circle cx="314.713797" cy="108.697012" r="21.768793" opacity="0.887517" style="stroke:black;stroke-width:0.5;fill:url(#radialffffff666666)"/>
<circle cx="230.434056" cy="82.432026" r="8.949402" opacity="0.891010" style="stroke:black;stroke-width:0.5;fill:url(#radialffffffbfbfbf)"/>
<circle cx="230.989314" cy="139.271701" r="8.955268" opacity="0.891302" style="stroke:black;stroke-width:0.5;fill:url(#radialffffffbfbfbf)"/>
<circle cx="40.000000" cy="108.826141" r="8.982399" opacity="0.892651" style="stroke:black;stroke-width:0.5;fill:url(#radialffffffbfbfbf)"/>
<circle cx="310.294332" cy="79.604085" r="11.101512" opacity="0.992377" style="stroke:black;stroke-width:0.5;fill:url(#radialffffffbfbfbf)"/>
<circle cx="311.388707" cy="136.866660" r="11.272727" opacity="1.000000" style="stroke:black;stroke-width:0.5;fill:url(#radialffffffbfbfbf)"/>
</svg>
</g>
</svg>
