<?xml version="1.0"?>
<svg version="1.1" id="topsvg"
xmlns="http://www.w3.org/2000/svg" xmlns:xlink="http://www.w3.org/1999/xlink"
xmlns:cml="http://www.xml-cml.org/schema" x="0" y="0" width="1024px" height="1024px" viewBox="0 0 100 100">
<title>7716 - Open Babel Depiction</title>
<rect x="0" y="0" width="100" height="100" fill="white"/>
<defs>
<radialGradient id='radialffffff666666' cx='50%' cy='50%' r='50%' fx='30%' fy='30%'>
  <stop offset=' 0%' stop-color="rgb(255,255,255)"  stop-opacity='1.0'/>
  <stop offset='100%' stop-color="rgb(102,102,102)"  stop-opacity ='1.0'/>
</radialGradient>
<radialGradient id='radialffffffbfbfbf' cx='50%' cy='50%' r='50%' fx='30%' fy='30%'>
  <stop offset=' 0%' stop-color="rgb(255,255,255)"  stop-opacity='1.0'/>
  <stop offset='100%' stop-color="rgb(191,191,191)"  stop-opacity ='1.0'/>
</radialGradient>
</defs>
<g transform="translate(0,0)">
<svg width="100" height="100" x="0" y="0" viewBox="0 0 628.481 225.055"
font-family="sans-serif" stroke="rgb(0,0,0)" stroke-width="2"  stroke-linecap="round">
<line x1="271.2" y1="103.8" x2="314.5" y2="109.1" opacity="1.0" stroke="rgb(0,0,0)"  stroke-width="1.6"/>
<line x1="271.2" y1="103.8" x2="233.4" y2="111.6" opacity="0.5" stroke="rgb(0,0,0)"  stroke-width="1.5"/>
<line x1="271.2" y1="103.8" x2="269.0" y2="71.2" opacity="0.5" stroke="rgb(0,0,0)"  stroke-width="2.1"/>
<line x1="271.2" y1="103.8" x2="269.5" y2="126.5" opacity="0.7" stroke="rgb(0,0,0)"  stroke-width="2.3"/>
<line x1="314.5" y1="109.1" x2="353.5" y2="102.3" opacity="0.8" stroke="rgb(0,0,0)"  stroke-width="1.7"/>
<line x1="314.5" y1="109.1" x2="316.3" y2="141.5" opacity="0.6" stroke="rgb(0,0,0)"  stroke-width="1.1"/>
<line x1="314.5" y1="109.1" x2="316.2" y2="86.1" opacity="0.4" stroke="rgb(0,0,0)"  stroke-width="1.0"/>
<line x1="233.4" y1="111.6" x2="190.2" y2="107.6" opacity="0.3" stroke="rgb(0,0,0)"  stroke-width="1.4"/>
<line x1="233.4" y1="111.6" x2="234.9" y2="88.4" opacity="0.5" stroke="rgb(0,0,0)"  stroke-width="0.8"/>
<line x1="233.4" y1="111.6" x2="236.2" y2="143.9" opacity="0.3" stroke="rgb(0,0,0)"  stroke-width="0.9"/>
<line x1="353.5" y1="102.3" x2="396.8" y2="106.8" opacity="0.3" stroke="rgb(0,0,0)"  stroke-width="1.8"/>
<line x1="353.5" y1="102.3" x2="352.1" y2="125.6" opacity="0.6" stroke="rgb(0,0,0)"  stroke-width="2.5"/>
<line x1="353.5" y1="102.3" x2="351.5" y2="70.0" opacity="0.8" stroke="rgb(0,0,0)"  stroke-width="2.3"/>
<line x1="190.2" y1="107.6" x2="152.4" y2="114.4" opacity="0.8" stroke="rgb(0,0,0)"  stroke-width="1.3"/>
<line x1="190.2" y1="107.6" x2="188.4" y2="131.3" opacity="0.4" stroke="rgb(0,0,0)"  stroke-width="2.1"/>
<line x1="190.2" y1="107.6" x2="187.6" y2="75.5" opacity="0.7" stroke="rgb(0,0,0)"  stroke-width="1.9"/>
<line x1="396.8" y1="106.8" x2="435.6" y2="99.6" opacity="0.6" stroke="rgb(0,0,0)"  stroke-width="1.9"/>
<line x1="396.8" y1="106.8" x2="398.1" y2="83.8" opacity="0.6" stroke="rgb(0,0,0)"  stroke-width="1.1"/>
<line x1="396.8" y1="106.8" x2="398.8" y2="139.1" opacity="0.4" stroke="rgb(0,0,0)"  stroke-width="1.3"/>
<line x1="152.4" y1="114.4" x2="108.3" y2="109.8" opacity="0.4" stroke="rgb(0,0,0)"  stroke-width="1.2"/>
<line x1="152.4" y1="114.4" x2="154.7" y2="91.0" opacity="0.4" stroke="rgb(0,0,0)"  stroke-width="0.6"/>
<line x1="152.4" y1="114.4" x2="154.9" y2="146.5" opacity="0.2" stroke="rgb(0,0,0)"  stroke-width="0.7"/>
<line x1="435.6" y1="99.6" x2="478.6" y2="106.4" opacity="0.2" stroke="rgb(0,0,0)"  stroke-width="2.0"/>
<line x1="435.6" y1="99.6" x2="434.3" y2="66.8" opacity="0.7" stroke="rgb(0,0,0)"  stroke-width="2.4"/>
<line x1="435.6" y1="99.6" x2="433.3" y2="121.2" opacity="0.8" stroke="rgb(0,0,0)"  stroke-width="2.6"/>
<line x1="108.3" y1="109.8" x2="70.6" y2="117.4" opacity="0.9" stroke="rgb(0,0,0)"  stroke-width="1.1"/>
<line x1="108.3" y1="109.8" x2="105.9" y2="132.8" opacity="0.4" stroke="rgb(0,0,0)"  stroke-width="1.8"/>
<line x1="108.3" y1="109.8" x2="105.3" y2="77.5" opacity="0.6" stroke="rgb(0,0,0)"  stroke-width="1.7"/>
<line x1="70.6" y1="117.4" x2="71.8" y2="149.9" opacity="0.6" stroke="rgb(0,0,0)"  stroke-width="0.5"/>
<line x1="70.6" y1="117.4" x2="71.2" y2="94.2" opacity="0.2" stroke="rgb(0,0,0)"  stroke-width="0.4"/>
<line x1="70.6" y1="117.4" x2="40.0" y2="113.8" opacity="0.1" stroke="rgb(0,0,0)"  stroke-width="0.9"/>
<line x1="497.2" y1="147.0" x2="481.3" y2="174.1" opacity="0.3" stroke="rgb(0,0,0)"  stroke-width="1.9"/>
<line x1="498.8" y1="71.8" x2="484.1" y2="40.0" opacity="0.6" stroke="rgb(0,0,0)"  stroke-width="1.2"/>
<line x1="536.9" y1="153.3" x2="551.7" y2="185.1" opacity="0.4" stroke="rgb(0,0,0)"  stroke-width="1.2"/>
<line x1="538.5" y1="78.1" x2="554.6" y2="51.3" opacity="0.4" stroke="rgb(0,0,0)"  stroke-width="0.4"/>
<line x1="557.6" y1="118.9" x2="588.5" y2="123.8" opacity="0.1" stroke="rgb(0,0,0)"  stroke-width="0.4"/>
<line x1="481.2" y1="107.9" x2="501.4" y2="73.3" opacity="0.5" stroke="rgb(0,0,0)"  stroke-width="1.4"/>
<line x1="476.0" y1="104.9" x2="496.2" y2="70.3" opacity="0.5" stroke="rgb(0,0,0)"  stroke-width="1.4" stroke-dasharray="5.0,5.0"/>
<line x1="498.3" y1="74.8" x2="538.0" y2="81.1" opacity="0.3" stroke="rgb(0,0,0)"  stroke-width="0.9"/>
<line x1="499.2" y1="68.9" x2="539.0" y2="75.2" opacity="0.3" stroke="rgb(0,0,0)"  stroke-width="0.9" stroke-dasharray="5.0,5.0"/>
<line x1="535.8" y1="79.4" x2="554.8" y2="120.1" opacity="0.2" stroke="rgb(0,0,0)"  stroke-width="0.7"/>
<line x1="541.2" y1="76.9" x2="560.3" y2="117.6" opacity="0.2" stroke="rgb(0,0,0)"  stroke-width="0.7" stroke-dasharray="5.0,5.0"/>
<line x1="555.0" y1="117.3" x2="534.3" y2="151.8" opacity="0.3" stroke="rgb(0,0,0)"  stroke-width="0.9"/>
<line x1="560.1" y1="120.4" x2="539.5" y2="154.9" opacity="0.3" stroke="rgb(0,0,0)"  stroke-width="0.9" stroke-dasharray="5.0,5.0"/>
<line x1="537.4" y1="150.4" x2="497.6" y2="144.1" opacity="0.5" stroke="rgb(0,0,0)"  stroke-width="1.4"/>
<line x1="536.4" y1="156.3" x2="496.7" y2="150.0" opacity="0.5" stroke="rgb(0,0,0)"  stroke-width="1.4" stroke-dasharray="5.0,5.0"/>
<line x1="499.9" y1="145.8" x2="481.3" y2="105.1" opacity="0.6" stroke="rgb(0,0,0)"  stroke-width="1.7"/>
<line x1="494.4" y1="148.3" x2="475.8" y2="107.6" opacity="0.6" stroke="rgb(0,0,0)"  stroke-width="1.7" stroke-dasharray="5.0,5.0"/>
<circle cx="71.218280" cy="94.222412" r="5.636364" opacity="0.200000" style="stroke:black;stroke-width:0.5;fill:url(#radialffffffbfbfbf)"/>
<circle cx="154.672354" cy="91.029633" r="5.636364" opacity="0.281131" style="stroke:black;stroke-width:0.5;fill:url(#radialffffffbfbfbf)"/>
<circle cx="554.572718" cy="51.306951" r="5.636364" opacity="0.282079" style="stroke:black;stroke-width:0.5;fill:url(#radialffffffbfbfbf)"/>
<circle cx="588.480673" cy="123.773352" r="5.636364" opacity="0.284805" style="stroke:black;stroke-width:0.5;fill:url(#radialffffffbfbfbf)"/>
<circle cx="71.840711" cy="149.944462" r="5.636364" opacity="0.336410" style="stroke:black;stroke-width:0.5;fill:url(#radialffffffbfbfbf)"/>
<circle cx="234.865924" cy="88.398009" r="5.636364" opacity="0.380905" style="stroke:black;stroke-width:0.5;fill:url(#radialffffffbfbfbf)"/>
<circle cx="154.936807" cy="146.542056" r="5.636364" opacity="0.428332" style="stroke:black;stroke-width:0.5;fill:url(#radialffffffbfbfbf)"/>
<circle cx="316.217279" cy="86.124364" r="5.636364" opacity="0.457481" style="stroke:black;stroke-width:0.5;fill:url(#radialffffffbfbfbf)"/>
<circle cx="538.489499" cy="78.129517" r="13.818182" opacity="0.465879" style="stroke:black;stroke-width:0.5;fill:url(#radialffffff666666)"/>
<circle cx="557.552645" cy="118.874533" r="13.818182" opacity="0.466753" style="stroke:black;stroke-width:0.5;fill:url(#radialffffff666666)"/>
<circle cx="70.647450" cy="117.400695" r="13.818182" opacity="0.481508" style="stroke:black;stroke-width:0.5;fill:url(#radialffffff666666)"/>
<circle cx="236.181736" cy="143.936233" r="5.636364" opacity="0.503416" style="stroke:black;stroke-width:0.5;fill:url(#radialffffffbfbfbf)"/>
<circle cx="398.100764" cy="83.786218" r="5.636364" opacity="0.512981" style="stroke:black;stroke-width:0.5;fill:url(#radialffffffbfbfbf)"/>
<circle cx="152.401934" cy="114.369167" r="13.818182" opacity="0.556662" style="stroke:black;stroke-width:0.5;fill:url(#radialffffff666666)"/>
<circle cx="316.330155" cy="141.475536" r="5.636364" opacity="0.566047" style="stroke:black;stroke-width:0.5;fill:url(#radialffffffbfbfbf)"/>
<circle cx="398.778020" cy="139.092239" r="5.636364" opacity="0.609798" style="stroke:black;stroke-width:0.5;fill:url(#radialffffffbfbfbf)"/>
<circle cx="233.446911" cy="111.647243" r="13.818182" opacity="0.613999" style="stroke:black;stroke-width:0.5;fill:url(#radialffffff666666)"/>
<circle cx="40.000000" cy="113.753187" r="5.636364" opacity="0.617285" style="stroke:black;stroke-width:0.5;fill:url(#radialffffffbfbfbf)"/>
<circle cx="484.141311" cy="40.000000" r="5.636364" opacity="0.624413" style="stroke:black;stroke-width:0.5;fill:url(#radialffffffbfbfbf)"/>
<circle cx="498.763593" cy="71.834261" r="13.818182" opacity="0.626524" style="stroke:black;stroke-width:0.5;fill:url(#radialffffff666666)"/>
<circle cx="536.896335" cy="153.327517" r="13.818182" opacity="0.627823" style="stroke:black;stroke-width:0.5;fill:url(#radialffffff666666)"/>
<circle cx="551.731468" cy="185.055352" r="5.636364" opacity="0.628181" style="stroke:black;stroke-width:0.5;fill:url(#radialffffffbfbfbf)"/>
<circle cx="314.504789" cy="109.080120" r="13.818182" opacity="0.665872" style="stroke:black;stroke-width:0.5;fill:url(#radialffffff666666)"/>
<circle cx="396.791402" cy="106.809700" r="13.818182" opacity="0.705018" style="stroke:black;stroke-width:0.5;fill:url(#radialffffff666666)"/>
<circle cx="108.260963" cy="109.847677" r="13.818182" opacity="0.705755" style="stroke:black;stroke-width:0.5;fill:url(#radialffffff666666)"/>
<circle cx="478.571686" cy="106.364646" r="15.664644" opacity="0.752870" style="stroke:black;stroke-width:0.5;fill:url(#radialffffff666666)"/>
<circle cx="497.167203" cy="147.038711" r="15.743068" opacity="0.754752" style="stroke:black;stroke-width:0.5;fill:url(#radialffffff666666)"/>
<circle cx="190.150898" cy="107.557906" r="16.039682" opacity="0.761829" style="stroke:black;stroke-width:0.5;fill:url(#radialffffff666666)"/>
<circle cx="105.326186" cy="77.497412" r="6.986544" opacity="0.787257" style="stroke:black;stroke-width:0.5;fill:url(#radialffffffbfbfbf)"/>
<circle cx="271.234575" cy="103.765272" r="17.824026" opacity="0.803087" style="stroke:black;stroke-width:0.5;fill:url(#radialffffff666666)"/>
<circle cx="353.495389" cy="102.252734" r="19.370768" opacity="0.837207" style="stroke:black;stroke-width:0.5;fill:url(#radialffffff666666)"/>
<circle cx="481.293611" cy="174.087028" r="7.954443" opacity="0.840021" style="stroke:black;stroke-width:0.5;fill:url(#radialffffffbfbfbf)"/>
<circle cx="187.596675" cy="75.523694" r="7.992450" opacity="0.842026" style="stroke:black;stroke-width:0.5;fill:url(#radialffffffbfbfbf)"/>
<circle cx="105.942167" cy="132.819558" r="8.245510" opacity="0.855252" style="stroke:black;stroke-width:0.5;fill:url(#radialffffffbfbfbf)"/>
<circle cx="435.617526" cy="99.569510" r="20.906639" opacity="0.869764" style="stroke:black;stroke-width:0.5;fill:url(#radialffffff666666)"/>
<circle cx="268.983505" cy="71.189255" r="8.604038" opacity="0.873648" style="stroke:black;stroke-width:0.5;fill:url(#radialffffffbfbfbf)"/>
<circle cx="188.402932" cy="131.294119" r="9.111424" opacity="0.899039" style="stroke:black;stroke-width:0.5;fill:url(#radialffffffbfbfbf)"/>
<circle cx="351.528121" cy="70.047595" r="9.326161" opacity="0.909572" style="stroke:black;stroke-width:0.5;fill:url(#radialffffffbfbfbf)"/>
<circle cx="434.321064" cy="66.819341" r="9.843683" opacity="0.934468" style="stroke:black;stroke-width:0.5;fill:url(#radialffffffbfbfbf)"/>
<circle cx="269.499510" cy="126.501726" r="9.925397" opacity="0.938338" style="stroke:black;stroke-width:0.5;fill:url(#radialffffffbfbfbf)"/>
<circle cx="352.118301" cy="125.560018" r="10.511647" opacity="0.965653" style="stroke:black;stroke-width:0.5;fill:url(#radialffffffbfbfbf)"/>
<circle cx="433.305180" cy="121.190104" r="11.272727" opacity="1.000000" style="stroke:black;stroke-width:0.5;fill:url(#radialffffffbfbfbf)"/>
</svg>
</g>
</svg>
