<?xml version="1.0"?>
<svg version="1.1" id="topsvg"
xmlns="http://www.w3.org/2000/svg" xmlns:xlink="http://www.w3.org/1999/xlink"
xmlns:cml="http://www.xml-cml.org/schema" x="0" y="0" width="200px" height="200px" viewBox="0 0 100 100">
<title>7734 - Open Babel Depiction</title>
<rect x="0" y="0" width="100" height="100" fill="white"/>
<defs>
<radialGradient id='radialffffff666666' cx='50%' cy='50%' r='50%' fx='30%' fy='30%'>
  <stop offset=' 0%' stop-color="rgb(255,255,255)"  stop-opacity='1.0'/>
  <stop offset='100%' stop-color="rgb(102,102,102)"  stop-opacity ='1.0'/>
</radialGradient>
<radialGradient id='radialffffffbfbfbf' cx='50%' cy='50%' r='50%' fx='30%' fy='30%'>
  <stop offset=' 0%' stop-color="rgb(255,255,255)"  stop-opacity='1.0'/>
  <stop offset='100%' stop-color="rgb(191,191,191)"  stop-opacity ='1.0'/>
</radialGradient>
</defs>
<g transform="translate(0,0)">
<svg width="100" height="100" x="0" y="0" viewBox="0 0 374.747 219.32"
font-family="sans-serif" stroke="rgb(0,0,0)" stroke-width="2"  stroke-linecap="round">
<line x1="232.4" y1="109.7" x2="280.6" y2="109.7" opacity="1.0" stroke="rgb(0,0,0)"  stroke-width="0.7"/>
<line x1="142.3" y1="109.7" x2="94.1" y2="109.7" opacity="0.2" stroke="rgb(0,0,0)"  stroke-width="0.7"/>
<line x1="280.6" y1="109.7" x2="299.4" y2="109.7" opacity="0.2" stroke="rgb(0,0,0)"  stroke-width="1.5"/>
<line x1="280.6" y1="109.7" x2="292.7" y2="137.9" opacity="0.5" stroke="rgb(0,0,0)"  stroke-width="0.4"/>
<line x1="280.6" y1="109.7" x2="292.7" y2="81.4" opacity="0.1" stroke="rgb(0,0,0)"  stroke-width="0.4"/>
<line x1="94.1" y1="109.7" x2="75.3" y2="109.7" opacity="0.1" stroke="rgb(0,0,0)"  stroke-width="1.5"/>
<line x1="94.1" y1="109.7" x2="82.0" y2="81.4" opacity="0.5" stroke="rgb(0,0,0)"  stroke-width="0.4"/>
<line x1="94.1" y1="109.7" x2="82.0" y2="137.9" opacity="0.1" stroke="rgb(0,0,0)"  stroke-width="0.4"/>
<line x1="209.9" y1="70.6" x2="227.1" y2="40.0" opacity="0.1" stroke="rgb(0,0,0)"  stroke-width="0.7"/>
<line x1="164.8" y1="70.6" x2="147.7" y2="40.0" opacity="0.2" stroke="rgb(0,0,0)"  stroke-width="0.7"/>
<line x1="209.9" y1="148.7" x2="227.1" y2="179.3" opacity="0.2" stroke="rgb(0,0,0)"  stroke-width="0.7"/>
<line x1="164.8" y1="148.7" x2="147.7" y2="179.3" opacity="0.2" stroke="rgb(0,0,0)"  stroke-width="0.7"/>
<line x1="299.4" y1="109.7" x2="289.1" y2="81.1" opacity="0.2" stroke="rgb(0,0,0)"  stroke-width="2.7"/>
<line x1="299.4" y1="109.7" x2="334.7" y2="109.7" opacity="0.9" stroke="rgb(0,0,0)"  stroke-width="2.3"/>
<line x1="299.4" y1="109.7" x2="289.1" y2="138.3" opacity="0.8" stroke="rgb(0,0,0)"  stroke-width="2.7"/>
<line x1="75.3" y1="109.7" x2="85.7" y2="138.3" opacity="0.9" stroke="rgb(0,0,0)"  stroke-width="2.7"/>
<line x1="75.3" y1="109.7" x2="40.0" y2="109.7" opacity="0.9" stroke="rgb(0,0,0)"  stroke-width="2.3"/>
<line x1="75.3" y1="109.7" x2="85.7" y2="81.1" opacity="0.8" stroke="rgb(0,0,0)"  stroke-width="2.7"/>
<line x1="164.8" y1="73.6" x2="209.9" y2="73.6" opacity="0.2" stroke="rgb(0,0,0)"  stroke-width="0.7"/>
<line x1="164.8" y1="67.6" x2="209.9" y2="67.6" opacity="0.2" stroke="rgb(0,0,0)"  stroke-width="0.7" stroke-dasharray="5.0,5.0"/>
<line x1="207.3" y1="72.1" x2="229.9" y2="111.2" opacity="0.2" stroke="rgb(0,0,0)"  stroke-width="0.7"/>
<line x1="212.5" y1="69.1" x2="235.0" y2="108.2" opacity="0.2" stroke="rgb(0,0,0)"  stroke-width="0.7" stroke-dasharray="5.0,5.0"/>
<line x1="229.9" y1="108.2" x2="207.3" y2="147.2" opacity="0.2" stroke="rgb(0,0,0)"  stroke-width="0.7"/>
<line x1="235.0" y1="111.2" x2="212.5" y2="150.2" opacity="0.2" stroke="rgb(0,0,0)"  stroke-width="0.7" stroke-dasharray="5.0,5.0"/>
<line x1="209.9" y1="145.7" x2="164.8" y2="145.7" opacity="0.2" stroke="rgb(0,0,0)"  stroke-width="0.7"/>
<line x1="209.9" y1="151.7" x2="164.8" y2="151.7" opacity="0.2" stroke="rgb(0,0,0)"  stroke-width="0.7" stroke-dasharray="5.0,5.0"/>
<line x1="167.4" y1="147.2" x2="144.9" y2="108.2" opacity="0.2" stroke="rgb(0,0,0)"  stroke-width="0.7"/>
<line x1="162.3" y1="150.2" x2="139.7" y2="111.2" opacity="0.2" stroke="rgb(0,0,0)"  stroke-width="0.7" stroke-dasharray="5.0,5.0"/>
<line x1="144.9" y1="111.2" x2="167.4" y2="72.1" opacity="0.2" stroke="rgb(0,0,0)"  stroke-width="0.7"/>
<line x1="139.7" y1="108.2" x2="162.2" y2="69.1" opacity="0.2" stroke="rgb(0,0,0)"  stroke-width="0.7" stroke-dasharray="5.0,5.0"/>
<circle cx="82.036128" cy="137.894743" r="5.636364" opacity="0.200000" style="stroke:black;stroke-width:0.5;fill:url(#radialffffffbfbfbf)"/>
<circle cx="292.730506" cy="137.907667" r="5.636364" opacity="0.200000" style="stroke:black;stroke-width:0.5;fill:url(#radialffffffbfbfbf)"/>
<circle cx="82.036128" cy="81.409302" r="5.636364" opacity="0.200000" style="stroke:black;stroke-width:0.5;fill:url(#radialffffffbfbfbf)"/>
<circle cx="292.736968" cy="81.418995" r="5.636364" opacity="0.200000" style="stroke:black;stroke-width:0.5;fill:url(#radialffffffbfbfbf)"/>
<circle cx="209.918365" cy="148.692955" r="13.818182" opacity="0.466369" style="stroke:black;stroke-width:0.5;fill:url(#radialffffff666666)"/>
<circle cx="94.126765" cy="109.661715" r="13.818182" opacity="0.466411" style="stroke:black;stroke-width:0.5;fill:url(#radialffffff666666)"/>
<circle cx="280.639869" cy="109.668177" r="13.818182" opacity="0.466454" style="stroke:black;stroke-width:0.5;fill:url(#radialffffff666666)"/>
<circle cx="164.848269" cy="148.692955" r="13.818182" opacity="0.466454" style="stroke:black;stroke-width:0.5;fill:url(#radialffffff666666)"/>
<circle cx="232.448566" cy="109.658484" r="13.818182" opacity="0.466497" style="stroke:black;stroke-width:0.5;fill:url(#radialffffff666666)"/>
<circle cx="142.311606" cy="109.661715" r="13.818182" opacity="0.466709" style="stroke:black;stroke-width:0.5;fill:url(#radialffffff666666)"/>
<circle cx="209.905441" cy="70.627245" r="13.818182" opacity="0.466709" style="stroke:black;stroke-width:0.5;fill:url(#radialffffff666666)"/>
<circle cx="164.838576" cy="70.630476" r="13.818182" opacity="0.466837" style="stroke:black;stroke-width:0.5;fill:url(#radialffffff666666)"/>
<circle cx="227.101157" cy="179.316969" r="5.636364" opacity="0.467134" style="stroke:black;stroke-width:0.5;fill:url(#radialffffffbfbfbf)"/>
<circle cx="147.665477" cy="179.320200" r="5.636364" opacity="0.467219" style="stroke:black;stroke-width:0.5;fill:url(#radialffffffbfbfbf)"/>
<circle cx="227.085002" cy="40.000000" r="5.636364" opacity="0.467771" style="stroke:black;stroke-width:0.5;fill:url(#radialffffffbfbfbf)"/>
<circle cx="147.659015" cy="40.006462" r="5.636364" opacity="0.467940" style="stroke:black;stroke-width:0.5;fill:url(#radialffffffbfbfbf)"/>
<circle cx="40.000000" cy="109.697257" r="8.577561" opacity="0.872303" style="stroke:black;stroke-width:0.5;fill:url(#radialffffffbfbfbf)"/>
<circle cx="334.747248" cy="109.690795" r="8.581587" opacity="0.872508" style="stroke:black;stroke-width:0.5;fill:url(#radialffffffbfbfbf)"/>
<circle cx="75.341366" cy="109.694026" r="21.490563" opacity="0.881827" style="stroke:black;stroke-width:0.5;fill:url(#radialffffff666666)"/>
<circle cx="299.405882" cy="109.687564" r="21.494949" opacity="0.881917" style="stroke:black;stroke-width:0.5;fill:url(#radialffffff666666)"/>
<circle cx="85.658149" cy="138.321243" r="11.267359" opacity="0.999762" style="stroke:black;stroke-width:0.5;fill:url(#radialffffffbfbfbf)"/>
<circle cx="289.079405" cy="138.308319" r="11.269596" opacity="0.999861" style="stroke:black;stroke-width:0.5;fill:url(#radialffffffbfbfbf)"/>
<circle cx="289.089098" cy="81.076502" r="11.272727" opacity="1.000000" style="stroke:black;stroke-width:0.5;fill:url(#radialffffffbfbfbf)"/>
<circle cx="85.651687" cy="81.092658" r="11.272727" opacity="1.000000" style="stroke:black;stroke-width:0.5;fill:url(#radialffffffbfbfbf)"/>
</svg>
</g>
</svg>
