<?xml version="1.0"?>
<svg version="1.1" id="topsvg"
xmlns="http://www.w3.org/2000/svg" xmlns:xlink="http://www.w3.org/1999/xlink"
xmlns:cml="http://www.xml-cml.org/schema" x="0" y="0" width="1024px" height="1024px" viewBox="0 0 100 100">
<title>7771 - Open Babel Depiction</title>
<rect x="0" y="0" width="100" height="100" fill="white"/>
<defs>
<radialGradient id='radialffffff666666' cx='50%' cy='50%' r='50%' fx='30%' fy='30%'>
  <stop offset=' 0%' stop-color="rgb(255,255,255)"  stop-opacity='1.0'/>
  <stop offset='100%' stop-color="rgb(102,102,102)"  stop-opacity ='1.0'/>
</radialGradient>
<radialGradient id='radialffffffbfbfbf' cx='50%' cy='50%' r='50%' fx='30%' fy='30%'>
  <stop offset=' 0%' stop-color="rgb(255,255,255)"  stop-opacity='1.0'/>
  <stop offset='100%' stop-color="rgb(191,191,191)"  stop-opacity ='1.0'/>
</radialGradient>
<radialGradient id='radialffffffffcc' cx='50%' cy='50%' r='50%' fx='30%' fy='30%'>
  <stop offset=' 0%' stop-color="rgb(255,255,255)"  stop-opacity='1.0'/>
  <stop offset='100%' stop-color="rgb(255,12,12)"  stop-opacity ='1.0'/>
</radialGradient>
</defs>
<g transform="translate(0,0)">
<svg width="100" height="100" x="0" y="0" viewBox="0 0 278.872 257"
font-family="sans-serif" stroke="rgb(0,0,0)" stroke-width="2"  stroke-linecap="round">
<line x1="42.5" y1="95.4" x2="85.1" y2="106.4" opacity="1.0" stroke="rgb(0,0,0)"  stroke-width="1.4"/>
<line x1="42.5" y1="95.4" x2="40.0" y2="64.0" opacity="0.5" stroke="rgb(0,0,0)"  stroke-width="1.4"/>
<line x1="97.7" y1="149.7" x2="64.7" y2="184.9" opacity="0.5" stroke="rgb(0,0,0)"  stroke-width="1.4"/>
<line x1="172.6" y1="127.9" x2="219.5" y2="139.3" opacity="0.5" stroke="rgb(0,0,0)"  stroke-width="1.4"/>
<line x1="141.5" y1="160.4" x2="151.4" y2="194.1" opacity="0.5" stroke="rgb(0,0,0)"  stroke-width="1.4"/>
<line x1="160.1" y1="84.6" x2="184.0" y2="58.9" opacity="0.5" stroke="rgb(0,0,0)"  stroke-width="1.4"/>
<line x1="116.3" y1="73.8" x2="106.9" y2="40.0" opacity="0.5" stroke="rgb(0,0,0)"  stroke-width="1.4"/>
<line x1="64.7" y1="184.9" x2="44.5" y2="182.8" opacity="0.5" stroke="rgb(0,0,0)"  stroke-width="2.1"/>
<line x1="64.7" y1="184.9" x2="44.2" y2="182.6" opacity="0.7" stroke="rgb(0,0,0)"  stroke-width="0.7"/>
<line x1="64.7" y1="184.9" x2="79.7" y2="217.0" opacity="0.2" stroke="rgb(0,0,0)"  stroke-width="1.4"/>
<line x1="219.5" y1="139.3" x2="225.2" y2="169.1" opacity="0.5" stroke="rgb(0,0,0)"  stroke-width="0.9"/>
<line x1="219.5" y1="139.3" x2="238.9" y2="114.0" opacity="0.3" stroke="rgb(0,0,0)"  stroke-width="1.0"/>
<line x1="219.5" y1="139.3" x2="230.9" y2="143.9" opacity="0.3" stroke="rgb(0,0,0)"  stroke-width="2.2"/>
<line x1="87.3" y1="108.5" x2="118.4" y2="75.9" opacity="0.5" stroke="rgb(0,0,0)"  stroke-width="1.4"/>
<line x1="82.9" y1="104.3" x2="114.1" y2="71.8" opacity="0.5" stroke="rgb(0,0,0)"  stroke-width="1.4" stroke-dasharray="5.0,5.0"/>
<line x1="115.6" y1="76.8" x2="159.3" y2="87.5" opacity="0.5" stroke="rgb(0,0,0)"  stroke-width="1.4"/>
<line x1="117.0" y1="70.9" x2="160.8" y2="81.7" opacity="0.5" stroke="rgb(0,0,0)"  stroke-width="1.4" stroke-dasharray="5.0,5.0"/>
<line x1="157.2" y1="85.4" x2="169.8" y2="128.7" opacity="0.5" stroke="rgb(0,0,0)"  stroke-width="1.4"/>
<line x1="162.9" y1="83.7" x2="175.5" y2="127.0" opacity="0.5" stroke="rgb(0,0,0)"  stroke-width="1.4" stroke-dasharray="5.0,5.0"/>
<line x1="170.5" y1="125.8" x2="139.3" y2="158.3" opacity="0.5" stroke="rgb(0,0,0)"  stroke-width="1.4"/>
<line x1="174.8" y1="129.9" x2="143.6" y2="162.5" opacity="0.5" stroke="rgb(0,0,0)"  stroke-width="1.4" stroke-dasharray="5.0,5.0"/>
<line x1="142.2" y1="157.5" x2="98.4" y2="146.8" opacity="0.5" stroke="rgb(0,0,0)"  stroke-width="1.4"/>
<line x1="140.7" y1="163.3" x2="97.0" y2="152.6" opacity="0.5" stroke="rgb(0,0,0)"  stroke-width="1.4" stroke-dasharray="5.0,5.0"/>
<line x1="100.6" y1="148.8" x2="88.0" y2="105.6" opacity="0.5" stroke="rgb(0,0,0)"  stroke-width="1.4"/>
<line x1="94.8" y1="150.5" x2="82.2" y2="107.2" opacity="0.5" stroke="rgb(0,0,0)"  stroke-width="1.4" stroke-dasharray="5.0,5.0"/>
<circle cx="44.223354" cy="182.576153" r="5.636364" opacity="0.200000" style="stroke:black;stroke-width:0.5;fill:url(#radialffffffbfbfbf)"/>
<circle cx="225.229763" cy="169.114416" r="5.636364" opacity="0.411550" style="stroke:black;stroke-width:0.5;fill:url(#radialffffffbfbfbf)"/>
<circle cx="238.872456" cy="113.962006" r="5.636364" opacity="0.466622" style="stroke:black;stroke-width:0.5;fill:url(#radialffffffbfbfbf)"/>
<circle cx="79.680782" cy="216.999555" r="5.636364" opacity="0.679133" style="stroke:black;stroke-width:0.5;fill:url(#radialffffffbfbfbf)"/>
<circle cx="219.452138" cy="139.327978" r="13.818182" opacity="0.681129" style="stroke:black;stroke-width:0.5;fill:url(#radialffffff666666)"/>
<circle cx="97.685776" cy="149.668247" r="13.818182" opacity="0.681167" style="stroke:black;stroke-width:0.5;fill:url(#radialffffff666666)"/>
<circle cx="85.096498" cy="106.390990" r="13.818182" opacity="0.681206" style="stroke:black;stroke-width:0.5;fill:url(#radialffffff666666)"/>
<circle cx="42.478433" cy="95.352753" r="12.000000" opacity="0.681282" style="stroke:black;stroke-width:0.5;fill:url(#radialffffffffcc)"/>
<circle cx="116.278872" cy="73.848224" r="13.818182" opacity="0.681282" style="stroke:black;stroke-width:0.5;fill:url(#radialffffff666666)"/>
<circle cx="40.000000" cy="64.021738" r="5.636364" opacity="0.681321" style="stroke:black;stroke-width:0.5;fill:url(#radialffffffbfbfbf)"/>
<circle cx="141.463890" cy="160.405970" r="13.818182" opacity="0.681359" style="stroke:black;stroke-width:0.5;fill:url(#radialffffff666666)"/>
<circle cx="64.745556" cy="184.912408" r="13.818182" opacity="0.681436" style="stroke:black;stroke-width:0.5;fill:url(#radialffffff666666)"/>
<circle cx="160.056986" cy="84.585948" r="13.818182" opacity="0.681474" style="stroke:black;stroke-width:0.5;fill:url(#radialffffff666666)"/>
<circle cx="106.930623" cy="40.000000" r="5.636364" opacity="0.681474" style="stroke:black;stroke-width:0.5;fill:url(#radialffffffbfbfbf)"/>
<circle cx="172.649495" cy="127.863205" r="13.818182" opacity="0.681512" style="stroke:black;stroke-width:0.5;fill:url(#radialffffff666666)"/>
<circle cx="151.429324" cy="194.099091" r="5.636364" opacity="0.682049" style="stroke:black;stroke-width:0.5;fill:url(#radialffffffbfbfbf)"/>
<circle cx="184.036716" cy="58.929155" r="5.636364" opacity="0.682202" style="stroke:black;stroke-width:0.5;fill:url(#radialffffffbfbfbf)"/>
<circle cx="44.494786" cy="182.776496" r="10.506179" opacity="0.965401" style="stroke:black;stroke-width:0.5;fill:url(#radialffffffbfbfbf)"/>
<circle cx="230.852284" cy="143.890622" r="11.272727" opacity="1.000000" style="stroke:black;stroke-width:0.5;fill:url(#radialffffffbfbfbf)"/>
</svg>
</g>
</svg>
