<?xml version="1.0"?>
<svg version="1.1" id="topsvg"
xmlns="http://www.w3.org/2000/svg" xmlns:xlink="http://www.w3.org/1999/xlink"
xmlns:cml="http://www.xml-cml.org/schema" x="0" y="0" width="200px" height="200px" viewBox="0 0 100 100">
<title>7949 - Open Babel Depiction</title>
<rect x="0" y="0" width="100" height="100" fill="white"/>
<defs>
<radialGradient id='radialffffff0ccff' cx='50%' cy='50%' r='50%' fx='30%' fy='30%'>
  <stop offset=' 0%' stop-color="rgb(255,255,255)"  stop-opacity='1.0'/>
  <stop offset='100%' stop-color="rgb(12,12,255)"  stop-opacity ='1.0'/>
</radialGradient>
<radialGradient id='radialffffff666666' cx='50%' cy='50%' r='50%' fx='30%' fy='30%'>
  <stop offset=' 0%' stop-color="rgb(255,255,255)"  stop-opacity='1.0'/>
  <stop offset='100%' stop-color="rgb(102,102,102)"  stop-opacity ='1.0'/>
</radialGradient>
<radialGradient id='radialffffffbfbfbf' cx='50%' cy='50%' r='50%' fx='30%' fy='30%'>
  <stop offset=' 0%' stop-color="rgb(255,255,255)"  stop-opacity='1.0'/>
  <stop offset='100%' stop-color="rgb(191,191,191)"  stop-opacity ='1.0'/>
</radialGradient>
</defs>
<g transform="translate(0,0)">
<svg width="100" height="100" x="0" y="0" viewBox="0 0 293.264 268.417"
font-family="sans-serif" stroke="rgb(0,0,0)" stroke-width="4"  stroke-linecap="round">
<line x1="146.0" y1="211.8" x2="146.2" y2="166.0" opacity="1.0" stroke="rgb(0,0,0)"  stroke-width="1.0"/>
<line x1="146.0" y1="211.8" x2="117.5" y2="228.1" opacity="0.3" stroke="rgb(0,0,0)"  stroke-width="1.0"/>
<line x1="146.0" y1="211.8" x2="174.4" y2="228.4" opacity="0.3" stroke="rgb(0,0,0)"  stroke-width="1.0"/>
<line x1="185.8" y1="98.2" x2="227.9" y2="74.1" opacity="0.3" stroke="rgb(0,0,0)"  stroke-width="1.0"/>
<line x1="107.3" y1="97.8" x2="65.4" y2="73.4" opacity="0.3" stroke="rgb(0,0,0)"  stroke-width="1.0"/>
<line x1="146.6" y1="75.3" x2="146.8" y2="40.0" opacity="0.3" stroke="rgb(0,0,0)"  stroke-width="1.0"/>
<line x1="185.6" y1="143.5" x2="216.1" y2="161.3" opacity="0.3" stroke="rgb(0,0,0)"  stroke-width="1.0"/>
<line x1="107.1" y1="143.1" x2="76.4" y2="160.7" opacity="0.3" stroke="rgb(0,0,0)"  stroke-width="1.0"/>
<line x1="227.9" y1="74.1" x2="238.4" y2="67.9" opacity="0.3" stroke="rgb(0,0,0)"  stroke-width="2.0"/>
<line x1="227.9" y1="74.1" x2="253.3" y2="92.7" opacity="0.7" stroke="rgb(0,0,0)"  stroke-width="0.5"/>
<line x1="227.9" y1="74.1" x2="224.9" y2="43.0" opacity="0.2" stroke="rgb(0,0,0)"  stroke-width="0.5"/>
<line x1="65.4" y1="73.4" x2="40.0" y2="91.5" opacity="0.2" stroke="rgb(0,0,0)"  stroke-width="0.5"/>
<line x1="65.4" y1="73.4" x2="54.7" y2="67.5" opacity="0.2" stroke="rgb(0,0,0)"  stroke-width="2.0"/>
<line x1="65.4" y1="73.4" x2="68.8" y2="42.1" opacity="0.7" stroke="rgb(0,0,0)"  stroke-width="0.5"/>
<line x1="184.1" y1="140.9" x2="144.7" y2="163.4" opacity="0.3" stroke="rgb(0,0,0)"  stroke-width="1.0"/>
<line x1="187.1" y1="146.1" x2="147.7" y2="168.6" opacity="0.3" stroke="rgb(0,0,0)"  stroke-width="1.0" stroke-dasharray="5.0,5.0"/>
<line x1="147.7" y1="163.4" x2="108.6" y2="140.6" opacity="0.3" stroke="rgb(0,0,0)"  stroke-width="1.0"/>
<line x1="144.7" y1="168.6" x2="105.6" y2="145.7" opacity="0.3" stroke="rgb(0,0,0)"  stroke-width="1.0" stroke-dasharray="5.0,5.0"/>
<line x1="110.1" y1="143.2" x2="110.3" y2="97.8" opacity="0.3" stroke="rgb(0,0,0)"  stroke-width="1.0"/>
<line x1="104.1" y1="143.1" x2="104.3" y2="97.8" opacity="0.3" stroke="rgb(0,0,0)"  stroke-width="1.0" stroke-dasharray="5.0,5.0"/>
<line x1="108.8" y1="100.4" x2="148.1" y2="77.9" opacity="0.3" stroke="rgb(0,0,0)"  stroke-width="1.0"/>
<line x1="105.8" y1="95.2" x2="145.2" y2="72.7" opacity="0.3" stroke="rgb(0,0,0)"  stroke-width="1.0" stroke-dasharray="5.0,5.0"/>
<line x1="145.1" y1="77.9" x2="184.3" y2="100.8" opacity="0.3" stroke="rgb(0,0,0)"  stroke-width="1.0"/>
<line x1="148.2" y1="72.7" x2="187.3" y2="95.6" opacity="0.3" stroke="rgb(0,0,0)"  stroke-width="1.0" stroke-dasharray="5.0,5.0"/>
<line x1="182.8" y1="98.2" x2="182.6" y2="143.5" opacity="0.3" stroke="rgb(0,0,0)"  stroke-width="1.0"/>
<line x1="188.8" y1="98.2" x2="188.6" y2="143.5" opacity="0.3" stroke="rgb(0,0,0)"  stroke-width="1.0" stroke-dasharray="5.0,5.0"/>
<circle cx="40.000000" cy="91.535181" r="5.636364" opacity="0.200000" style="stroke:black;stroke-width:0.5;fill:url(#radialffffffbfbfbf)"/>
<circle cx="224.862436" cy="43.022115" r="5.636364" opacity="0.200000" style="stroke:black;stroke-width:0.5;fill:url(#radialffffffbfbfbf)"/>
<circle cx="253.263815" cy="92.685534" r="5.636364" opacity="0.200000" style="stroke:black;stroke-width:0.5;fill:url(#radialffffffbfbfbf)"/>
<circle cx="68.797829" cy="42.102482" r="5.636364" opacity="0.200000" style="stroke:black;stroke-width:0.5;fill:url(#radialffffffbfbfbf)"/>
<circle cx="146.001488" cy="211.831597" r="12.909091" opacity="0.581681" style="stroke:black;stroke-width:0.5;fill:url(#radialffffff0ccff)"/>
<circle cx="227.868303" cy="74.133649" r="13.818182" opacity="0.581791" style="stroke:black;stroke-width:0.5;fill:url(#radialffffff666666)"/>
<circle cx="65.418260" cy="73.412241" r="13.818182" opacity="0.581847" style="stroke:black;stroke-width:0.5;fill:url(#radialffffff666666)"/>
<circle cx="146.644906" cy="75.339245" r="13.818182" opacity="0.582234" style="stroke:black;stroke-width:0.5;fill:url(#radialffffff666666)"/>
<circle cx="107.285923" cy="97.823129" r="13.818182" opacity="0.582289" style="stroke:black;stroke-width:0.5;fill:url(#radialffffff666666)"/>
<circle cx="185.792666" cy="98.183833" r="13.818182" opacity="0.582400" style="stroke:black;stroke-width:0.5;fill:url(#radialffffff666666)"/>
<circle cx="146.225709" cy="165.992940" r="13.818182" opacity="0.582400" style="stroke:black;stroke-width:0.5;fill:url(#radialffffff666666)"/>
<circle cx="107.077950" cy="143.148352" r="13.818182" opacity="0.582400" style="stroke:black;stroke-width:0.5;fill:url(#radialffffff666666)"/>
<circle cx="185.584692" cy="143.512305" r="13.818182" opacity="0.582510" style="stroke:black;stroke-width:0.5;fill:url(#radialffffff666666)"/>
<circle cx="117.473375" cy="228.144517" r="5.636364" opacity="0.582565" style="stroke:black;stroke-width:0.5;fill:url(#radialffffffbfbfbf)"/>
<circle cx="174.373622" cy="228.417483" r="5.636364" opacity="0.582676" style="stroke:black;stroke-width:0.5;fill:url(#radialffffffbfbfbf)"/>
<circle cx="76.382362" cy="160.676617" r="5.636364" opacity="0.583338" style="stroke:black;stroke-width:0.5;fill:url(#radialffffffbfbfbf)"/>
<circle cx="216.114551" cy="161.323285" r="5.636364" opacity="0.583448" style="stroke:black;stroke-width:0.5;fill:url(#radialffffffbfbfbf)"/>
<circle cx="146.810635" cy="40.000000" r="5.636364" opacity="0.584110" style="stroke:black;stroke-width:0.5;fill:url(#radialffffffbfbfbf)"/>
<circle cx="238.380713" cy="67.884696" r="11.270551" opacity="0.999903" style="stroke:black;stroke-width:0.5;fill:url(#radialffffffbfbfbf)"/>
<circle cx="54.714124" cy="67.504494" r="11.272727" opacity="1.000000" style="stroke:black;stroke-width:0.5;fill:url(#radialffffffbfbfbf)"/>
</svg>
</g>
</svg>
