<?xml version="1.0"?>
<svg version="1.1" id="topsvg"
xmlns="http://www.w3.org/2000/svg" xmlns:xlink="http://www.w3.org/1999/xlink"
xmlns:cml="http://www.xml-cml.org/schema" x="0" y="0" width="200px" height="200px" viewBox="0 0 100 100">
<title>8004 - Open Babel Depiction</title>
<rect x="0" y="0" width="100" height="100" fill="white"/>
<defs>
<radialGradient id='radialffffff666666' cx='50%' cy='50%' r='50%' fx='30%' fy='30%'>
  <stop offset=' 0%' stop-color="rgb(255,255,255)"  stop-opacity='1.0'/>
  <stop offset='100%' stop-color="rgb(102,102,102)"  stop-opacity ='1.0'/>
</radialGradient>
<radialGradient id='radialffffffbfbfbf' cx='50%' cy='50%' r='50%' fx='30%' fy='30%'>
  <stop offset=' 0%' stop-color="rgb(255,255,255)"  stop-opacity='1.0'/>
  <stop offset='100%' stop-color="rgb(191,191,191)"  stop-opacity ='1.0'/>
</radialGradient>
</defs>
<g transform="translate(0,0)">
<svg width="100" height="100" x="0" y="0" viewBox="0 0 299.268 161.688"
font-family="sans-serif" stroke="rgb(0,0,0)" stroke-width="2"  stroke-linecap="round">
<line x1="111.2" y1="97.7" x2="148.6" y2="64.1" opacity="1.0" stroke="rgb(0,0,0)"  stroke-width="1.4"/>
<line x1="111.2" y1="97.7" x2="66.3" y2="74.6" opacity="0.5" stroke="rgb(0,0,0)"  stroke-width="1.6"/>
<line x1="111.2" y1="97.7" x2="117.9" y2="116.7" opacity="0.5" stroke="rgb(0,0,0)"  stroke-width="2.1"/>
<line x1="111.2" y1="97.7" x2="109.5" y2="121.7" opacity="0.7" stroke="rgb(0,0,0)"  stroke-width="1.0"/>
<line x1="148.6" y1="64.1" x2="192.6" y2="87.1" opacity="0.3" stroke="rgb(0,0,0)"  stroke-width="1.1"/>
<line x1="148.6" y1="64.1" x2="149.7" y2="40.0" opacity="0.4" stroke="rgb(0,0,0)"  stroke-width="1.7"/>
<line x1="148.6" y1="64.1" x2="141.7" y2="45.3" opacity="0.6" stroke="rgb(0,0,0)"  stroke-width="0.6"/>
<line x1="66.3" y1="74.6" x2="66.3" y2="51.2" opacity="0.2" stroke="rgb(0,0,0)"  stroke-width="2.2"/>
<line x1="66.3" y1="74.6" x2="40.0" y2="99.2" opacity="0.7" stroke="rgb(0,0,0)"  stroke-width="1.8"/>
<line x1="66.3" y1="74.6" x2="58.0" y2="56.2" opacity="0.6" stroke="rgb(0,0,0)"  stroke-width="1.1"/>
<line x1="192.0" y1="84.1" x2="227.5" y2="76.0" opacity="0.4" stroke="rgb(0,0,0)"  stroke-width="1.5"/>
<line x1="193.3" y1="90.0" x2="228.9" y2="81.8" opacity="0.4" stroke="rgb(0,0,0)"  stroke-width="1.5"/>
<line x1="192.6" y1="87.1" x2="195.7" y2="111.4" opacity="0.5" stroke="rgb(0,0,0)"  stroke-width="0.5"/>
<line x1="228.2" y1="78.9" x2="259.3" y2="96.4" opacity="0.2" stroke="rgb(0,0,0)"  stroke-width="1.9"/>
<line x1="228.2" y1="78.9" x2="227.0" y2="54.8" opacity="0.6" stroke="rgb(0,0,0)"  stroke-width="2.5"/>
<circle cx="195.716695" cy="111.360716" r="5.636364" opacity="0.200000" style="stroke:black;stroke-width:0.5;fill:url(#radialffffffbfbfbf)"/>
<circle cx="141.684107" cy="45.285362" r="5.636364" opacity="0.200000" style="stroke:black;stroke-width:0.5;fill:url(#radialffffffbfbfbf)"/>
<circle cx="109.509007" cy="121.688320" r="5.636364" opacity="0.400499" style="stroke:black;stroke-width:0.5;fill:url(#radialffffffbfbfbf)"/>
<circle cx="57.977558" cy="56.209110" r="5.636364" opacity="0.425282" style="stroke:black;stroke-width:0.5;fill:url(#radialffffffbfbfbf)"/>
<circle cx="192.649386" cy="87.068698" r="13.818182" opacity="0.580672" style="stroke:black;stroke-width:0.5;fill:url(#radialffffff666666)"/>
<circle cx="148.574728" cy="64.145479" r="13.818182" opacity="0.635551" style="stroke:black;stroke-width:0.5;fill:url(#radialffffff666666)"/>
<circle cx="111.157561" cy="97.686048" r="14.039883" opacity="0.712757" style="stroke:black;stroke-width:0.5;fill:url(#radialffffff666666)"/>
<circle cx="66.280273" cy="74.632944" r="15.601680" opacity="0.751355" style="stroke:black;stroke-width:0.5;fill:url(#radialffffff666666)"/>
<circle cx="259.267597" cy="96.410501" r="6.629201" opacity="0.766860" style="stroke:black;stroke-width:0.5;fill:url(#radialffffffbfbfbf)"/>
<circle cx="40.000000" cy="99.201385" r="7.200266" opacity="0.799208" style="stroke:black;stroke-width:0.5;fill:url(#radialffffffbfbfbf)"/>
<circle cx="228.211515" cy="78.875887" r="18.249287" opacity="0.812611" style="stroke:black;stroke-width:0.5;fill:url(#radialffffff666666)"/>
<circle cx="149.700407" cy="40.000000" r="8.457750" opacity="0.866189" style="stroke:black;stroke-width:0.5;fill:url(#radialffffffbfbfbf)"/>
<circle cx="117.901643" cy="116.716016" r="10.066037" opacity="0.944963" style="stroke:black;stroke-width:0.5;fill:url(#radialffffffbfbfbf)"/>
<circle cx="66.336890" cy="51.236807" r="10.349434" opacity="0.958173" style="stroke:black;stroke-width:0.5;fill:url(#radialffffffbfbfbf)"/>
<circle cx="227.032549" cy="54.773703" r="11.272727" opacity="1.000000" style="stroke:black;stroke-width:0.5;fill:url(#radialffffffbfbfbf)"/>
</svg>
</g>
</svg>
