<?xml version="1.0"?>
<svg version="1.1" id="topsvg"
xmlns="http://www.w3.org/2000/svg" xmlns:xlink="http://www.w3.org/1999/xlink"
xmlns:cml="http://www.xml-cml.org/schema" x="0" y="0" width="1024px" height="1024px" viewBox="0 0 100 100">
<title>8125 - Open Babel Depiction</title>
<rect x="0" y="0" width="100" height="100" fill="white"/>
<defs>
<radialGradient id='radialffffff666666' cx='50%' cy='50%' r='50%' fx='30%' fy='30%'>
  <stop offset=' 0%' stop-color="rgb(255,255,255)"  stop-opacity='1.0'/>
  <stop offset='100%' stop-color="rgb(102,102,102)"  stop-opacity ='1.0'/>
</radialGradient>
<radialGradient id='radialffffffbfbfbf' cx='50%' cy='50%' r='50%' fx='30%' fy='30%'>
  <stop offset=' 0%' stop-color="rgb(255,255,255)"  stop-opacity='1.0'/>
  <stop offset='100%' stop-color="rgb(191,191,191)"  stop-opacity ='1.0'/>
</radialGradient>
</defs>
<g transform="translate(0,0)">
<svg width="100" height="100" x="0" y="0" viewBox="0 0 417.494 177.039"
font-family="sans-serif" stroke="rgb(0,0,0)" stroke-width="2"  stroke-linecap="round">
<line x1="224.9" y1="74.2" x2="265.9" y2="102.3" opacity="1.0" stroke="rgb(0,0,0)"  stroke-width="1.7"/>
<line x1="224.9" y1="74.2" x2="182.0" y2="97.5" opacity="0.6" stroke="rgb(0,0,0)"  stroke-width="1.7"/>
<line x1="224.9" y1="74.2" x2="227.7" y2="43.6" opacity="0.6" stroke="rgb(0,0,0)"  stroke-width="1.8"/>
<line x1="224.9" y1="74.2" x2="223.4" y2="64.7" opacity="0.6" stroke="rgb(0,0,0)"  stroke-width="1.0"/>
<line x1="265.9" y1="102.3" x2="307.4" y2="78.4" opacity="0.3" stroke="rgb(0,0,0)"  stroke-width="1.6"/>
<line x1="265.9" y1="102.3" x2="268.5" y2="110.6" opacity="0.5" stroke="rgb(0,0,0)"  stroke-width="2.3"/>
<line x1="265.9" y1="102.3" x2="262.7" y2="133.3" opacity="0.8" stroke="rgb(0,0,0)"  stroke-width="1.5"/>
<line x1="182.0" y1="97.5" x2="140.9" y2="70.2" opacity="0.5" stroke="rgb(0,0,0)"  stroke-width="1.8"/>
<line x1="182.0" y1="97.5" x2="182.9" y2="105.8" opacity="0.6" stroke="rgb(0,0,0)"  stroke-width="2.5"/>
<line x1="182.0" y1="97.5" x2="180.2" y2="128.7" opacity="0.8" stroke="rgb(0,0,0)"  stroke-width="1.7"/>
<line x1="307.4" y1="78.4" x2="348.2" y2="106.6" opacity="0.6" stroke="rgb(0,0,0)"  stroke-width="1.4"/>
<line x1="307.4" y1="78.4" x2="311.3" y2="47.7" opacity="0.5" stroke="rgb(0,0,0)"  stroke-width="1.6"/>
<line x1="307.4" y1="78.4" x2="304.6" y2="69.5" opacity="0.5" stroke="rgb(0,0,0)"  stroke-width="0.8"/>
<line x1="140.9" y1="70.2" x2="99.8" y2="95.4" opacity="0.3" stroke="rgb(0,0,0)"  stroke-width="1.8"/>
<line x1="140.9" y1="70.2" x2="141.4" y2="40.0" opacity="0.6" stroke="rgb(0,0,0)"  stroke-width="1.9"/>
<line x1="140.9" y1="70.2" x2="141.1" y2="60.2" opacity="0.6" stroke="rgb(0,0,0)"  stroke-width="1.1"/>
<line x1="348.2" y1="106.6" x2="352.6" y2="115.2" opacity="0.4" stroke="rgb(0,0,0)"  stroke-width="2.0"/>
<line x1="348.2" y1="106.6" x2="345.9" y2="137.0" opacity="0.7" stroke="rgb(0,0,0)"  stroke-width="1.2"/>
<line x1="348.2" y1="106.6" x2="377.5" y2="88.8" opacity="0.4" stroke="rgb(0,0,0)"  stroke-width="1.4"/>
<line x1="100.8" y1="98.2" x2="70.0" y2="108.7" opacity="0.5" stroke="rgb(0,0,0)"  stroke-width="1.5"/>
<line x1="98.9" y1="92.6" x2="68.1" y2="103.0" opacity="0.5" stroke="rgb(0,0,0)"  stroke-width="1.5"/>
<line x1="99.8" y1="95.4" x2="94.9" y2="105.3" opacity="0.5" stroke="rgb(0,0,0)"  stroke-width="2.5"/>
<line x1="69.1" y1="105.8" x2="40.0" y2="124.0" opacity="0.8" stroke="rgb(0,0,0)"  stroke-width="1.2"/>
<line x1="69.1" y1="105.8" x2="72.3" y2="96.6" opacity="0.4" stroke="rgb(0,0,0)"  stroke-width="0.5"/>
<circle cx="72.294916" cy="96.559655" r="5.636364" opacity="0.200000" style="stroke:black;stroke-width:0.5;fill:url(#radialffffffbfbfbf)"/>
<circle cx="304.565208" cy="69.520676" r="5.636364" opacity="0.296675" style="stroke:black;stroke-width:0.5;fill:url(#radialffffffbfbfbf)"/>
<circle cx="223.418686" cy="64.715061" r="5.636364" opacity="0.404925" style="stroke:black;stroke-width:0.5;fill:url(#radialffffffbfbfbf)"/>
<circle cx="141.128282" cy="60.159259" r="5.636364" opacity="0.436241" style="stroke:black;stroke-width:0.5;fill:url(#radialffffffbfbfbf)"/>
<circle cx="345.869830" cy="137.039237" r="5.636364" opacity="0.559363" style="stroke:black;stroke-width:0.5;fill:url(#radialffffffbfbfbf)"/>
<circle cx="69.080216" cy="105.815888" r="13.818182" opacity="0.590357" style="stroke:black;stroke-width:0.5;fill:url(#radialffffff666666)"/>
<circle cx="377.494195" cy="88.802302" r="5.636364" opacity="0.628692" style="stroke:black;stroke-width:0.5;fill:url(#radialffffffbfbfbf)"/>
<circle cx="262.665637" cy="133.344633" r="5.636364" opacity="0.641664" style="stroke:black;stroke-width:0.5;fill:url(#radialffffffbfbfbf)"/>
<circle cx="307.441346" cy="78.359457" r="13.818182" opacity="0.664895" style="stroke:black;stroke-width:0.5;fill:url(#radialffffff666666)"/>
<circle cx="40.000000" cy="123.960207" r="5.636364" opacity="0.669355" style="stroke:black;stroke-width:0.5;fill:url(#radialffffffbfbfbf)"/>
<circle cx="180.194448" cy="128.700081" r="5.636364" opacity="0.678433" style="stroke:black;stroke-width:0.5;fill:url(#radialffffffbfbfbf)"/>
<circle cx="348.193749" cy="106.591623" r="13.995095" opacity="0.711619" style="stroke:black;stroke-width:0.5;fill:url(#radialffffff666666)"/>
<circle cx="224.910990" cy="74.165227" r="14.304578" opacity="0.719444" style="stroke:black;stroke-width:0.5;fill:url(#radialffffff666666)"/>
<circle cx="140.917914" cy="70.194514" r="14.990984" opacity="0.736503" style="stroke:black;stroke-width:0.5;fill:url(#radialffffff666666)"/>
<circle cx="265.893485" cy="102.308643" r="16.450634" opacity="0.771527" style="stroke:black;stroke-width:0.5;fill:url(#radialffffff666666)"/>
<circle cx="311.260856" cy="47.685039" r="7.106171" opacity="0.793969" style="stroke:black;stroke-width:0.5;fill:url(#radialffffffbfbfbf)"/>
<circle cx="182.022028" cy="97.470158" r="17.775406" opacity="0.801991" style="stroke:black;stroke-width:0.5;fill:url(#radialffffff666666)"/>
<circle cx="99.843383" cy="95.396052" r="17.961096" opacity="0.806169" style="stroke:black;stroke-width:0.5;fill:url(#radialffffff666666)"/>
<circle cx="227.655647" cy="43.619003" r="8.009044" opacity="0.842900" style="stroke:black;stroke-width:0.5;fill:url(#radialffffffbfbfbf)"/>
<circle cx="141.364947" cy="40.000000" r="8.368912" opacity="0.861628" style="stroke:black;stroke-width:0.5;fill:url(#radialffffffbfbfbf)"/>
<circle cx="352.637793" cy="115.223323" r="9.680264" opacity="0.926679" style="stroke:black;stroke-width:0.5;fill:url(#radialffffffbfbfbf)"/>
<circle cx="268.523096" cy="110.565623" r="10.721055" opacity="0.975224" style="stroke:black;stroke-width:0.5;fill:url(#radialffffffbfbfbf)"/>
<circle cx="94.945731" cy="105.312974" r="11.221102" opacity="0.997708" style="stroke:black;stroke-width:0.5;fill:url(#radialffffffbfbfbf)"/>
<circle cx="182.853642" cy="105.832323" r="11.272727" opacity="1.000000" style="stroke:black;stroke-width:0.5;fill:url(#radialffffffbfbfbf)"/>
</svg>
</g>
</svg>
