<?xml version="1.0"?>
<svg version="1.1" id="topsvg"
xmlns="http://www.w3.org/2000/svg" xmlns:xlink="http://www.w3.org/1999/xlink"
xmlns:cml="http://www.xml-cml.org/schema" x="0" y="0" width="200px" height="200px" viewBox="0 0 100 100">
<title>8174 - Open Babel Depiction</title>
<rect x="0" y="0" width="100" height="100" fill="white"/>
<defs>
<radialGradient id='radialffffff666666' cx='50%' cy='50%' r='50%' fx='30%' fy='30%'>
  <stop offset=' 0%' stop-color="rgb(255,255,255)"  stop-opacity='1.0'/>
  <stop offset='100%' stop-color="rgb(102,102,102)"  stop-opacity ='1.0'/>
</radialGradient>
<radialGradient id='radialffffffbfbfbf' cx='50%' cy='50%' r='50%' fx='30%' fy='30%'>
  <stop offset=' 0%' stop-color="rgb(255,255,255)"  stop-opacity='1.0'/>
  <stop offset='100%' stop-color="rgb(191,191,191)"  stop-opacity ='1.0'/>
</radialGradient>
<radialGradient id='radialffffffffcc' cx='50%' cy='50%' r='50%' fx='30%' fy='30%'>
  <stop offset=' 0%' stop-color="rgb(255,255,255)"  stop-opacity='1.0'/>
  <stop offset='100%' stop-color="rgb(255,12,12)"  stop-opacity ='1.0'/>
</radialGradient>
</defs>
<g transform="translate(0,0)">
<svg width="100" height="100" x="0" y="0" viewBox="0 0 544.292 153.701"
font-family="sans-serif" stroke="rgb(0,0,0)" stroke-width="4"  stroke-linecap="round">
<line x1="65.5" y1="62.8" x2="102.9" y2="90.3" opacity="1.0" stroke="rgb(0,0,0)"  stroke-width="1.3"/>
<line x1="65.5" y1="62.8" x2="40.0" y2="81.7" opacity="0.4" stroke="rgb(0,0,0)"  stroke-width="1.3"/>
<line x1="268.2" y1="90.3" x2="310.4" y2="63.4" opacity="0.4" stroke="rgb(0,0,0)"  stroke-width="1.6"/>
<line x1="268.2" y1="90.3" x2="226.8" y2="62.2" opacity="0.5" stroke="rgb(0,0,0)"  stroke-width="1.5"/>
<line x1="268.2" y1="90.3" x2="267.4" y2="112.6" opacity="0.5" stroke="rgb(0,0,0)"  stroke-width="2.2"/>
<line x1="268.2" y1="90.3" x2="268.6" y2="110.7" opacity="0.7" stroke="rgb(0,0,0)"  stroke-width="0.9"/>
<line x1="310.4" y1="63.4" x2="351.8" y2="91.4" opacity="0.3" stroke="rgb(0,0,0)"  stroke-width="1.6"/>
<line x1="310.4" y1="63.4" x2="310.8" y2="44.1" opacity="0.5" stroke="rgb(0,0,0)"  stroke-width="2.3"/>
<line x1="310.4" y1="63.4" x2="310.5" y2="40.1" opacity="0.8" stroke="rgb(0,0,0)"  stroke-width="1.0"/>
<line x1="226.8" y1="62.2" x2="185.7" y2="90.7" opacity="0.3" stroke="rgb(0,0,0)"  stroke-width="1.5"/>
<line x1="226.8" y1="62.2" x2="227.2" y2="40.5" opacity="0.5" stroke="rgb(0,0,0)"  stroke-width="0.9"/>
<line x1="226.8" y1="62.2" x2="226.4" y2="41.4" opacity="0.3" stroke="rgb(0,0,0)"  stroke-width="2.2"/>
<line x1="351.8" y1="91.4" x2="392.9" y2="62.8" opacity="0.7" stroke="rgb(0,0,0)"  stroke-width="1.5"/>
<line x1="351.8" y1="91.4" x2="352.8" y2="113.7" opacity="0.5" stroke="rgb(0,0,0)"  stroke-width="2.2"/>
<line x1="351.8" y1="91.4" x2="351.0" y2="111.5" opacity="0.7" stroke="rgb(0,0,0)"  stroke-width="0.9"/>
<line x1="185.7" y1="90.7" x2="144.2" y2="62.6" opacity="0.3" stroke="rgb(0,0,0)"  stroke-width="1.5"/>
<line x1="185.7" y1="90.7" x2="185.0" y2="111.9" opacity="0.5" stroke="rgb(0,0,0)"  stroke-width="2.2"/>
<line x1="185.7" y1="90.7" x2="186.5" y2="112.0" opacity="0.7" stroke="rgb(0,0,0)"  stroke-width="0.8"/>
<line x1="392.9" y1="62.8" x2="434.3" y2="90.5" opacity="0.3" stroke="rgb(0,0,0)"  stroke-width="1.4"/>
<line x1="392.9" y1="62.8" x2="394.1" y2="43.1" opacity="0.5" stroke="rgb(0,0,0)"  stroke-width="2.2"/>
<line x1="392.9" y1="62.8" x2="391.4" y2="40.0" opacity="0.7" stroke="rgb(0,0,0)"  stroke-width="0.9"/>
<line x1="144.2" y1="62.6" x2="102.9" y2="90.3" opacity="0.3" stroke="rgb(0,0,0)"  stroke-width="1.4"/>
<line x1="144.2" y1="62.6" x2="142.9" y2="41.5" opacity="0.5" stroke="rgb(0,0,0)"  stroke-width="2.1"/>
<line x1="144.2" y1="62.6" x2="145.0" y2="40.6" opacity="0.7" stroke="rgb(0,0,0)"  stroke-width="0.8"/>
<line x1="434.3" y1="90.5" x2="475.1" y2="62.2" opacity="0.3" stroke="rgb(0,0,0)"  stroke-width="1.3"/>
<line x1="434.3" y1="90.5" x2="433.0" y2="110.7" opacity="0.4" stroke="rgb(0,0,0)"  stroke-width="0.7"/>
<line x1="434.3" y1="90.5" x2="436.4" y2="112.8" opacity="0.2" stroke="rgb(0,0,0)"  stroke-width="2.0"/>
<line x1="102.9" y1="90.3" x2="100.7" y2="111.9" opacity="0.7" stroke="rgb(0,0,0)"  stroke-width="2.0"/>
<line x1="102.9" y1="90.3" x2="102.5" y2="110.3" opacity="0.7" stroke="rgb(0,0,0)"  stroke-width="0.7"/>
<line x1="475.1" y1="62.2" x2="478.0" y2="42.3" opacity="0.2" stroke="rgb(0,0,0)"  stroke-width="2.0"/>
<line x1="475.1" y1="62.2" x2="474.4" y2="40.3" opacity="0.7" stroke="rgb(0,0,0)"  stroke-width="0.6"/>
<line x1="475.1" y1="62.2" x2="504.3" y2="82.7" opacity="0.2" stroke="rgb(0,0,0)"  stroke-width="1.2"/>
<circle cx="474.449486" cy="40.277745" r="5.636364" opacity="0.200000" style="stroke:black;stroke-width:0.5;fill:url(#radialffffffbfbfbf)"/>
<circle cx="432.951043" cy="110.671522" r="5.636364" opacity="0.200000" style="stroke:black;stroke-width:0.5;fill:url(#radialffffffbfbfbf)"/>
<circle cx="102.505804" cy="110.279410" r="5.636364" opacity="0.200000" style="stroke:black;stroke-width:0.5;fill:url(#radialffffffbfbfbf)"/>
<circle cx="145.004131" cy="40.578364" r="5.636364" opacity="0.235848" style="stroke:black;stroke-width:0.5;fill:url(#radialffffffbfbfbf)"/>
<circle cx="350.993252" cy="111.504758" r="5.636364" opacity="0.248086" style="stroke:black;stroke-width:0.5;fill:url(#radialffffffbfbfbf)"/>
<circle cx="186.466630" cy="111.962221" r="5.636364" opacity="0.253109" style="stroke:black;stroke-width:0.5;fill:url(#radialffffffbfbfbf)"/>
<circle cx="268.630280" cy="110.664986" r="5.636364" opacity="0.264457" style="stroke:black;stroke-width:0.5;fill:url(#radialffffffbfbfbf)"/>
<circle cx="227.193921" cy="40.545688" r="5.636364" opacity="0.286494" style="stroke:black;stroke-width:0.5;fill:url(#radialffffffbfbfbf)"/>
<circle cx="391.380713" cy="40.000000" r="5.636364" opacity="0.293220" style="stroke:black;stroke-width:0.5;fill:url(#radialffffffbfbfbf)"/>
<circle cx="310.484890" cy="40.075155" r="5.636364" opacity="0.364779" style="stroke:black;stroke-width:0.5;fill:url(#radialffffffbfbfbf)"/>
<circle cx="504.292422" cy="82.684580" r="5.636364" opacity="0.623757" style="stroke:black;stroke-width:0.5;fill:url(#radialffffffbfbfbf)"/>
<circle cx="475.083399" cy="62.200033" r="13.818182" opacity="0.653284" style="stroke:black;stroke-width:0.5;fill:url(#radialffffff666666)"/>
<circle cx="40.000000" cy="81.740245" r="5.636364" opacity="0.653624" style="stroke:black;stroke-width:0.5;fill:url(#radialffffffbfbfbf)"/>
<circle cx="65.477430" cy="62.801270" r="12.000000" opacity="0.668334" style="stroke:black;stroke-width:0.5;fill:url(#radialffffffffcc)"/>
<circle cx="434.294024" cy="90.517002" r="13.818182" opacity="0.670325" style="stroke:black;stroke-width:0.5;fill:url(#radialffffff666666)"/>
<circle cx="102.878310" cy="90.278468" r="13.818182" opacity="0.672310" style="stroke:black;stroke-width:0.5;fill:url(#radialffffff666666)"/>
<circle cx="144.246049" cy="62.641158" r="13.818182" opacity="0.694518" style="stroke:black;stroke-width:0.5;fill:url(#radialffffff666666)"/>
<circle cx="185.692211" cy="90.667311" r="13.818182" opacity="0.706635" style="stroke:black;stroke-width:0.5;fill:url(#radialffffff666666)"/>
<circle cx="392.896877" cy="62.791468" r="13.906161" opacity="0.709354" style="stroke:black;stroke-width:0.5;fill:url(#radialffffff666666)"/>
<circle cx="351.842827" cy="91.353506" r="14.065751" opacity="0.713413" style="stroke:black;stroke-width:0.5;fill:url(#radialffffff666666)"/>
<circle cx="226.824683" cy="62.213104" r="14.180329" opacity="0.716313" style="stroke:black;stroke-width:0.5;fill:url(#radialffffff666666)"/>
<circle cx="268.221830" cy="90.258862" r="14.236253" opacity="0.717724" style="stroke:black;stroke-width:0.5;fill:url(#radialffffff666666)"/>
<circle cx="310.419539" cy="63.438451" r="15.028748" opacity="0.737430" style="stroke:black;stroke-width:0.5;fill:url(#radialffffff666666)"/>
<circle cx="436.427763" cy="112.824866" r="9.823369" opacity="0.933503" style="stroke:black;stroke-width:0.5;fill:url(#radialffffffbfbfbf)"/>
<circle cx="477.965417" cy="42.313457" r="9.849518" opacity="0.934745" style="stroke:black;stroke-width:0.5;fill:url(#radialffffffbfbfbf)"/>
<circle cx="100.747839" cy="111.851123" r="9.939651" opacity="0.939012" style="stroke:black;stroke-width:0.5;fill:url(#radialffffffbfbfbf)"/>
<circle cx="142.929209" cy="41.450812" r="10.356377" opacity="0.958494" style="stroke:black;stroke-width:0.5;fill:url(#radialffffffbfbfbf)"/>
<circle cx="352.836175" cy="113.700581" r="10.502703" opacity="0.965242" style="stroke:black;stroke-width:0.5;fill:url(#radialffffffbfbfbf)"/>
<circle cx="185.038692" cy="111.900137" r="10.542762" opacity="0.967081" style="stroke:black;stroke-width:0.5;fill:url(#radialffffffbfbfbf)"/>
<circle cx="267.382059" cy="112.602670" r="10.578370" opacity="0.968712" style="stroke:black;stroke-width:0.5;fill:url(#radialffffffbfbfbf)"/>
<circle cx="226.380290" cy="41.356051" r="10.744727" opacity="0.976300" style="stroke:black;stroke-width:0.5;fill:url(#radialffffffbfbfbf)"/>
<circle cx="394.125492" cy="43.078073" r="10.763644" opacity="0.977159" style="stroke:black;stroke-width:0.5;fill:url(#radialffffffbfbfbf)"/>
<circle cx="310.752833" cy="44.133506" r="11.272727" opacity="1.000000" style="stroke:black;stroke-width:0.5;fill:url(#radialffffffbfbfbf)"/>
</svg>
</g>
</svg>
