<?xml version="1.0"?>
<svg version="1.1" id="topsvg"
xmlns="http://www.w3.org/2000/svg" xmlns:xlink="http://www.w3.org/1999/xlink"
xmlns:cml="http://www.xml-cml.org/schema" x="0" y="0" width="1024px" height="1024px" viewBox="0 0 100 100">
<title>8182 - Open Babel Depiction</title>
<rect x="0" y="0" width="100" height="100" fill="white"/>
<defs>
<radialGradient id='radialffffff666666' cx='50%' cy='50%' r='50%' fx='30%' fy='30%'>
  <stop offset=' 0%' stop-color="rgb(255,255,255)"  stop-opacity='1.0'/>
  <stop offset='100%' stop-color="rgb(102,102,102)"  stop-opacity ='1.0'/>
</radialGradient>
<radialGradient id='radialffffffbfbfbf' cx='50%' cy='50%' r='50%' fx='30%' fy='30%'>
  <stop offset=' 0%' stop-color="rgb(255,255,255)"  stop-opacity='1.0'/>
  <stop offset='100%' stop-color="rgb(191,191,191)"  stop-opacity ='1.0'/>
</radialGradient>
</defs>
<g transform="translate(0,0)">
<svg width="100" height="100" x="0" y="0" viewBox="0 0 593.832 158.844"
font-family="sans-serif" stroke="rgb(0,0,0)" stroke-width="2"  stroke-linecap="round">
<line x1="317.8" y1="63.2" x2="276.8" y2="91.9" opacity="1.0" stroke="rgb(0,0,0)"  stroke-width="1.7"/>
<line x1="317.8" y1="63.2" x2="359.3" y2="91.0" opacity="0.6" stroke="rgb(0,0,0)"  stroke-width="1.6"/>
<line x1="317.8" y1="63.2" x2="318.3" y2="42.3" opacity="0.5" stroke="rgb(0,0,0)"  stroke-width="2.3"/>
<line x1="317.8" y1="63.2" x2="316.9" y2="41.6" opacity="0.8" stroke="rgb(0,0,0)"  stroke-width="1.0"/>
<line x1="276.8" y1="91.9" x2="234.2" y2="65.7" opacity="0.3" stroke="rgb(0,0,0)"  stroke-width="1.7"/>
<line x1="276.8" y1="91.9" x2="277.3" y2="112.7" opacity="0.6" stroke="rgb(0,0,0)"  stroke-width="2.4"/>
<line x1="276.8" y1="91.9" x2="277.5" y2="113.8" opacity="0.8" stroke="rgb(0,0,0)"  stroke-width="1.1"/>
<line x1="359.3" y1="91.0" x2="401.3" y2="64.0" opacity="0.4" stroke="rgb(0,0,0)"  stroke-width="1.6"/>
<line x1="359.3" y1="91.0" x2="358.2" y2="112.4" opacity="0.5" stroke="rgb(0,0,0)"  stroke-width="1.0"/>
<line x1="359.3" y1="91.0" x2="360.1" y2="112.4" opacity="0.3" stroke="rgb(0,0,0)"  stroke-width="2.3"/>
<line x1="234.2" y1="65.7" x2="193.4" y2="94.4" opacity="0.8" stroke="rgb(0,0,0)"  stroke-width="1.6"/>
<line x1="234.2" y1="65.7" x2="234.4" y2="43.8" opacity="0.5" stroke="rgb(0,0,0)"  stroke-width="1.0"/>
<line x1="234.2" y1="65.7" x2="232.7" y2="44.8" opacity="0.3" stroke="rgb(0,0,0)"  stroke-width="2.3"/>
<line x1="401.3" y1="64.0" x2="442.8" y2="91.9" opacity="0.8" stroke="rgb(0,0,0)"  stroke-width="1.5"/>
<line x1="401.3" y1="64.0" x2="402.3" y2="42.2" opacity="0.5" stroke="rgb(0,0,0)"  stroke-width="2.2"/>
<line x1="401.3" y1="64.0" x2="400.6" y2="43.1" opacity="0.7" stroke="rgb(0,0,0)"  stroke-width="0.9"/>
<line x1="193.4" y1="94.4" x2="150.8" y2="68.2" opacity="0.3" stroke="rgb(0,0,0)"  stroke-width="1.6"/>
<line x1="193.4" y1="94.4" x2="193.2" y2="116.6" opacity="0.5" stroke="rgb(0,0,0)"  stroke-width="2.2"/>
<line x1="193.4" y1="94.4" x2="194.8" y2="114.9" opacity="0.7" stroke="rgb(0,0,0)"  stroke-width="0.9"/>
<line x1="442.8" y1="91.9" x2="483.6" y2="63.3" opacity="0.3" stroke="rgb(0,0,0)"  stroke-width="1.4"/>
<line x1="442.8" y1="91.9" x2="441.5" y2="114.7" opacity="0.5" stroke="rgb(0,0,0)"  stroke-width="0.9"/>
<line x1="442.8" y1="91.9" x2="444.5" y2="111.5" opacity="0.3" stroke="rgb(0,0,0)"  stroke-width="2.2"/>
<line x1="150.8" y1="68.2" x2="110.0" y2="96.7" opacity="0.7" stroke="rgb(0,0,0)"  stroke-width="1.5"/>
<line x1="150.8" y1="68.2" x2="148.6" y2="48.7" opacity="0.5" stroke="rgb(0,0,0)"  stroke-width="2.2"/>
<line x1="150.8" y1="68.2" x2="151.7" y2="45.0" opacity="0.7" stroke="rgb(0,0,0)"  stroke-width="1.0"/>
<line x1="483.6" y1="63.3" x2="525.1" y2="90.7" opacity="0.3" stroke="rgb(0,0,0)"  stroke-width="1.4"/>
<line x1="483.6" y1="63.3" x2="482.4" y2="44.3" opacity="0.5" stroke="rgb(0,0,0)"  stroke-width="0.7"/>
<line x1="483.6" y1="63.3" x2="484.8" y2="40.0" opacity="0.2" stroke="rgb(0,0,0)"  stroke-width="1.9"/>
<line x1="110.0" y1="96.7" x2="68.8" y2="69.1" opacity="0.6" stroke="rgb(0,0,0)"  stroke-width="1.3"/>
<line x1="110.0" y1="96.7" x2="107.7" y2="118.8" opacity="0.4" stroke="rgb(0,0,0)"  stroke-width="2.0"/>
<line x1="110.0" y1="96.7" x2="112.4" y2="117.0" opacity="0.7" stroke="rgb(0,0,0)"  stroke-width="0.7"/>
<line x1="525.1" y1="90.7" x2="527.9" y2="109.3" opacity="0.2" stroke="rgb(0,0,0)"  stroke-width="2.0"/>
<line x1="525.1" y1="90.7" x2="525.4" y2="113.8" opacity="0.7" stroke="rgb(0,0,0)"  stroke-width="0.8"/>
<line x1="525.1" y1="90.7" x2="553.8" y2="69.7" opacity="0.3" stroke="rgb(0,0,0)"  stroke-width="1.3"/>
<line x1="68.8" y1="69.1" x2="69.6" y2="47.4" opacity="0.4" stroke="rgb(0,0,0)"  stroke-width="0.6"/>
<line x1="68.8" y1="69.1" x2="40.0" y2="90.1" opacity="0.2" stroke="rgb(0,0,0)"  stroke-width="1.2"/>
<line x1="68.8" y1="69.1" x2="64.9" y2="49.0" opacity="0.4" stroke="rgb(0,0,0)"  stroke-width="1.9"/>
<circle cx="482.383514" cy="44.329986" r="5.636364" opacity="0.200000" style="stroke:black;stroke-width:0.5;fill:url(#radialffffffbfbfbf)"/>
<circle cx="69.627424" cy="47.412571" r="5.636364" opacity="0.200000" style="stroke:black;stroke-width:0.5;fill:url(#radialffffffbfbfbf)"/>
<circle cx="112.381955" cy="116.969912" r="5.636364" opacity="0.200000" style="stroke:black;stroke-width:0.5;fill:url(#radialffffffbfbfbf)"/>
<circle cx="525.444997" cy="113.756709" r="5.636364" opacity="0.223001" style="stroke:black;stroke-width:0.5;fill:url(#radialffffffbfbfbf)"/>
<circle cx="400.626453" cy="43.131566" r="5.636364" opacity="0.291811" style="stroke:black;stroke-width:0.5;fill:url(#radialffffffbfbfbf)"/>
<circle cx="194.821495" cy="114.902882" r="5.636364" opacity="0.308476" style="stroke:black;stroke-width:0.5;fill:url(#radialffffffbfbfbf)"/>
<circle cx="441.519678" cy="114.687362" r="5.636364" opacity="0.312909" style="stroke:black;stroke-width:0.5;fill:url(#radialffffffbfbfbf)"/>
<circle cx="358.169078" cy="112.395017" r="5.636364" opacity="0.334988" style="stroke:black;stroke-width:0.5;fill:url(#radialffffffbfbfbf)"/>
<circle cx="151.717560" cy="44.963483" r="5.636364" opacity="0.345709" style="stroke:black;stroke-width:0.5;fill:url(#radialffffffbfbfbf)"/>
<circle cx="234.408540" cy="43.827107" r="5.636364" opacity="0.368774" style="stroke:black;stroke-width:0.5;fill:url(#radialffffffbfbfbf)"/>
<circle cx="316.900326" cy="41.580478" r="5.636364" opacity="0.371191" style="stroke:black;stroke-width:0.5;fill:url(#radialffffffbfbfbf)"/>
<circle cx="277.466758" cy="113.779567" r="5.636364" opacity="0.385998" style="stroke:black;stroke-width:0.5;fill:url(#radialffffffbfbfbf)"/>
<circle cx="40.000000" cy="90.088731" r="5.636364" opacity="0.614952" style="stroke:black;stroke-width:0.5;fill:url(#radialffffffbfbfbf)"/>
<circle cx="553.831550" cy="69.679671" r="5.636364" opacity="0.642094" style="stroke:black;stroke-width:0.5;fill:url(#radialffffffbfbfbf)"/>
<circle cx="68.775142" cy="69.091890" r="13.818182" opacity="0.649354" style="stroke:black;stroke-width:0.5;fill:url(#radialffffff666666)"/>
<circle cx="483.647243" cy="63.338168" r="13.818182" opacity="0.669688" style="stroke:black;stroke-width:0.5;fill:url(#radialffffff666666)"/>
<circle cx="525.072736" cy="90.712432" r="13.818182" opacity="0.673897" style="stroke:black;stroke-width:0.5;fill:url(#radialffffff666666)"/>
<circle cx="109.988380" cy="96.691470" r="13.818182" opacity="0.678364" style="stroke:black;stroke-width:0.5;fill:url(#radialffffff666666)"/>
<circle cx="442.835654" cy="91.858604" r="13.978455" opacity="0.711196" style="stroke:black;stroke-width:0.5;fill:url(#radialffffff666666)"/>
<circle cx="401.338321" cy="64.030443" r="14.252254" opacity="0.718127" style="stroke:black;stroke-width:0.5;fill:url(#radialffffff666666)"/>
<circle cx="150.750987" cy="68.177564" r="14.459273" opacity="0.723324" style="stroke:black;stroke-width:0.5;fill:url(#radialffffff666666)"/>
<circle cx="193.358573" cy="94.399124" r="14.628895" opacity="0.727554" style="stroke:black;stroke-width:0.5;fill:url(#radialffffff666666)"/>
<circle cx="359.276065" cy="91.045508" r="14.861290" opacity="0.733310" style="stroke:black;stroke-width:0.5;fill:url(#radialffffff666666)"/>
<circle cx="234.222409" cy="65.656637" r="15.375499" opacity="0.745889" style="stroke:black;stroke-width:0.5;fill:url(#radialffffff666666)"/>
<circle cx="317.788529" cy="63.187957" r="15.481012" opacity="0.748444" style="stroke:black;stroke-width:0.5;fill:url(#radialffffff666666)"/>
<circle cx="276.833260" cy="91.871666" r="15.710736" opacity="0.753977" style="stroke:black;stroke-width:0.5;fill:url(#radialffffff666666)"/>
<circle cx="484.793416" cy="40.000000" r="9.580075" opacity="0.921871" style="stroke:black;stroke-width:0.5;fill:url(#radialffffffbfbfbf)"/>
<circle cx="64.928442" cy="49.028968" r="9.647084" opacity="0.925089" style="stroke:black;stroke-width:0.5;fill:url(#radialffffffbfbfbf)"/>
<circle cx="107.738486" cy="118.844280" r="9.862274" opacity="0.935350" style="stroke:black;stroke-width:0.5;fill:url(#radialffffffbfbfbf)"/>
<circle cx="527.864695" cy="109.299371" r="10.192415" opacity="0.950876" style="stroke:black;stroke-width:0.5;fill:url(#radialffffffbfbfbf)"/>
<circle cx="402.265709" cy="42.191117" r="10.548161" opacity="0.967328" style="stroke:black;stroke-width:0.5;fill:url(#radialffffffbfbfbf)"/>
<circle cx="193.205097" cy="116.574792" r="10.659842" opacity="0.972436" style="stroke:black;stroke-width:0.5;fill:url(#radialffffffbfbfbf)"/>
<circle cx="444.504299" cy="111.483956" r="10.691440" opacity="0.973876" style="stroke:black;stroke-width:0.5;fill:url(#radialffffffbfbfbf)"/>
<circle cx="360.138144" cy="112.437468" r="10.853786" opacity="0.981242" style="stroke:black;stroke-width:0.5;fill:url(#radialffffffbfbfbf)"/>
<circle cx="148.605587" cy="48.744874" r="10.905541" opacity="0.983579" style="stroke:black;stroke-width:0.5;fill:url(#radialffffffbfbfbf)"/>
<circle cx="232.743160" cy="44.793680" r="11.122366" opacity="0.993308" style="stroke:black;stroke-width:0.5;fill:url(#radialffffffbfbfbf)"/>
<circle cx="318.265284" cy="42.318469" r="11.167039" opacity="0.995301" style="stroke:black;stroke-width:0.5;fill:url(#radialffffffbfbfbf)"/>
<circle cx="277.287158" cy="112.679111" r="11.272727" opacity="1.000000" style="stroke:black;stroke-width:0.5;fill:url(#radialffffffbfbfbf)"/>
</svg>
</g>
</svg>
