<?xml version="1.0"?>
<svg version="1.1" id="topsvg"
xmlns="http://www.w3.org/2000/svg" xmlns:xlink="http://www.w3.org/1999/xlink"
xmlns:cml="http://www.xml-cml.org/schema" x="0" y="0" width="1024px" height="1024px" viewBox="0 0 100 100">
<title>8192 - Open Babel Depiction</title>
<rect x="0" y="0" width="100" height="100" fill="white"/>
<defs>
<radialGradient id='radialffffff1eef1e' cx='50%' cy='50%' r='50%' fx='30%' fy='30%'>
  <stop offset=' 0%' stop-color="rgb(255,255,255)"  stop-opacity='1.0'/>
  <stop offset='100%' stop-color="rgb(30,239,30)"  stop-opacity ='1.0'/>
</radialGradient>
<radialGradient id='radialffffff666666' cx='50%' cy='50%' r='50%' fx='30%' fy='30%'>
  <stop offset=' 0%' stop-color="rgb(255,255,255)"  stop-opacity='1.0'/>
  <stop offset='100%' stop-color="rgb(102,102,102)"  stop-opacity ='1.0'/>
</radialGradient>
<radialGradient id='radialffffffbfbfbf' cx='50%' cy='50%' r='50%' fx='30%' fy='30%'>
  <stop offset=' 0%' stop-color="rgb(255,255,255)"  stop-opacity='1.0'/>
  <stop offset='100%' stop-color="rgb(191,191,191)"  stop-opacity ='1.0'/>
</radialGradient>
</defs>
<g transform="translate(0,0)">
<svg width="100" height="100" x="0" y="0" viewBox="0 0 605.147 152.763"
font-family="sans-serif" stroke="rgb(0,0,0)" stroke-width="2"  stroke-linecap="round">
<line x1="565.1" y1="94.9" x2="518.3" y2="62.1" opacity="1.0" stroke="rgb(0,0,0)"  stroke-width="1.6"/>
<line x1="313.3" y1="89.9" x2="272.6" y2="62.1" opacity="0.5" stroke="rgb(0,0,0)"  stroke-width="1.5"/>
<line x1="313.3" y1="89.9" x2="353.8" y2="62.0" opacity="0.5" stroke="rgb(0,0,0)"  stroke-width="1.5"/>
<line x1="313.3" y1="89.9" x2="313.2" y2="110.5" opacity="0.5" stroke="rgb(0,0,0)"  stroke-width="0.8"/>
<line x1="313.3" y1="89.9" x2="313.5" y2="111.2" opacity="0.3" stroke="rgb(0,0,0)"  stroke-width="2.2"/>
<line x1="272.6" y1="62.1" x2="232.0" y2="89.9" opacity="0.7" stroke="rgb(0,0,0)"  stroke-width="1.5"/>
<line x1="272.6" y1="62.1" x2="272.3" y2="42.0" opacity="0.5" stroke="rgb(0,0,0)"  stroke-width="2.2"/>
<line x1="272.6" y1="62.1" x2="272.7" y2="40.3" opacity="0.7" stroke="rgb(0,0,0)"  stroke-width="0.8"/>
<line x1="353.8" y1="62.0" x2="395.6" y2="88.2" opacity="0.3" stroke="rgb(0,0,0)"  stroke-width="1.5"/>
<line x1="353.8" y1="62.0" x2="353.4" y2="40.5" opacity="0.5" stroke="rgb(0,0,0)"  stroke-width="0.8"/>
<line x1="353.8" y1="62.0" x2="353.7" y2="41.5" opacity="0.3" stroke="rgb(0,0,0)"  stroke-width="2.2"/>
<line x1="232.0" y1="89.9" x2="190.3" y2="63.7" opacity="0.7" stroke="rgb(0,0,0)"  stroke-width="1.5"/>
<line x1="232.0" y1="89.9" x2="232.4" y2="112.0" opacity="0.5" stroke="rgb(0,0,0)"  stroke-width="2.1"/>
<line x1="232.0" y1="89.9" x2="232.3" y2="109.9" opacity="0.7" stroke="rgb(0,0,0)"  stroke-width="0.7"/>
<line x1="395.6" y1="88.2" x2="437.4" y2="62.1" opacity="0.2" stroke="rgb(0,0,0)"  stroke-width="1.5"/>
<line x1="395.6" y1="88.2" x2="395.2" y2="110.6" opacity="0.5" stroke="rgb(0,0,0)"  stroke-width="2.1"/>
<line x1="395.6" y1="88.2" x2="396.0" y2="108.0" opacity="0.7" stroke="rgb(0,0,0)"  stroke-width="0.7"/>
<line x1="190.3" y1="63.7" x2="149.7" y2="91.6" opacity="0.2" stroke="rgb(0,0,0)"  stroke-width="1.5"/>
<line x1="190.3" y1="63.7" x2="190.7" y2="42.7" opacity="0.5" stroke="rgb(0,0,0)"  stroke-width="2.2"/>
<line x1="190.3" y1="63.7" x2="189.2" y2="42.7" opacity="0.7" stroke="rgb(0,0,0)"  stroke-width="0.8"/>
<line x1="437.4" y1="62.1" x2="477.9" y2="89.9" opacity="0.3" stroke="rgb(0,0,0)"  stroke-width="1.5"/>
<line x1="437.4" y1="62.1" x2="437.0" y2="42.0" opacity="0.5" stroke="rgb(0,0,0)"  stroke-width="2.2"/>
<line x1="437.4" y1="62.1" x2="438.2" y2="40.0" opacity="0.7" stroke="rgb(0,0,0)"  stroke-width="0.9"/>
<line x1="149.7" y1="91.6" x2="109.1" y2="63.9" opacity="0.3" stroke="rgb(0,0,0)"  stroke-width="1.6"/>
<line x1="149.7" y1="91.6" x2="150.5" y2="112.3" opacity="0.5" stroke="rgb(0,0,0)"  stroke-width="2.3"/>
<line x1="149.7" y1="91.6" x2="149.2" y2="112.8" opacity="0.8" stroke="rgb(0,0,0)"  stroke-width="0.9"/>
<line x1="477.9" y1="89.9" x2="518.3" y2="62.1" opacity="0.3" stroke="rgb(0,0,0)"  stroke-width="1.6"/>
<line x1="477.9" y1="89.9" x2="477.4" y2="111.5" opacity="0.5" stroke="rgb(0,0,0)"  stroke-width="2.2"/>
<line x1="477.9" y1="89.9" x2="478.2" y2="110.2" opacity="0.7" stroke="rgb(0,0,0)"  stroke-width="0.8"/>
<line x1="109.1" y1="63.9" x2="68.6" y2="91.4" opacity="0.3" stroke="rgb(0,0,0)"  stroke-width="1.6"/>
<line x1="109.1" y1="63.9" x2="109.2" y2="43.2" opacity="0.5" stroke="rgb(0,0,0)"  stroke-width="2.3"/>
<line x1="109.1" y1="63.9" x2="108.5" y2="42.7" opacity="0.8" stroke="rgb(0,0,0)"  stroke-width="0.9"/>
<line x1="518.3" y1="62.1" x2="519.1" y2="42.0" opacity="0.3" stroke="rgb(0,0,0)"  stroke-width="2.3"/>
<line x1="518.3" y1="62.1" x2="520.1" y2="41.2" opacity="0.8" stroke="rgb(0,0,0)"  stroke-width="0.9"/>
<line x1="68.6" y1="91.4" x2="67.0" y2="111.7" opacity="0.3" stroke="rgb(0,0,0)"  stroke-width="0.9"/>
<line x1="68.6" y1="91.4" x2="67.7" y2="112.2" opacity="0.3" stroke="rgb(0,0,0)"  stroke-width="2.3"/>
<line x1="68.6" y1="91.4" x2="40.0" y2="70.9" opacity="0.8" stroke="rgb(0,0,0)"  stroke-width="1.6"/>
<circle cx="395.977186" cy="107.992823" r="5.636364" opacity="0.200000" style="stroke:black;stroke-width:0.5;fill:url(#radialffffffbfbfbf)"/>
<circle cx="232.269434" cy="109.861765" r="5.636364" opacity="0.200000" style="stroke:black;stroke-width:0.5;fill:url(#radialffffffbfbfbf)"/>
<circle cx="313.245132" cy="110.453650" r="5.636364" opacity="0.200000" style="stroke:black;stroke-width:0.5;fill:url(#radialffffffbfbfbf)"/>
<circle cx="353.383962" cy="40.472865" r="5.636364" opacity="0.200000" style="stroke:black;stroke-width:0.5;fill:url(#radialffffffbfbfbf)"/>
<circle cx="189.177611" cy="42.673134" r="5.636364" opacity="0.200000" style="stroke:black;stroke-width:0.5;fill:url(#radialffffffbfbfbf)"/>
<circle cx="478.168822" cy="110.205959" r="5.636364" opacity="0.200000" style="stroke:black;stroke-width:0.5;fill:url(#radialffffffbfbfbf)"/>
<circle cx="272.668822" cy="40.340977" r="5.636364" opacity="0.204344" style="stroke:black;stroke-width:0.5;fill:url(#radialffffffbfbfbf)"/>
<circle cx="149.167452" cy="112.763290" r="5.636364" opacity="0.234576" style="stroke:black;stroke-width:0.5;fill:url(#radialffffffbfbfbf)"/>
<circle cx="438.242299" cy="40.000000" r="5.636364" opacity="0.242088" style="stroke:black;stroke-width:0.5;fill:url(#radialffffffbfbfbf)"/>
<circle cx="67.027284" cy="111.669589" r="5.636364" opacity="0.249163" style="stroke:black;stroke-width:0.5;fill:url(#radialffffffbfbfbf)"/>
<circle cx="520.137993" cy="41.196638" r="5.636364" opacity="0.253977" style="stroke:black;stroke-width:0.5;fill:url(#radialffffffbfbfbf)"/>
<circle cx="108.501072" cy="42.734253" r="5.636364" opacity="0.259210" style="stroke:black;stroke-width:0.5;fill:url(#radialffffffbfbfbf)"/>
<circle cx="231.996009" cy="89.917804" r="13.818182" opacity="0.691044" style="stroke:black;stroke-width:0.5;fill:url(#radialffffff666666)"/>
<circle cx="395.600824" cy="88.161449" r="13.818182" opacity="0.691387" style="stroke:black;stroke-width:0.5;fill:url(#radialffffff666666)"/>
<circle cx="313.264433" cy="89.879203" r="13.818182" opacity="0.698698" style="stroke:black;stroke-width:0.5;fill:url(#radialffffff666666)"/>
<circle cx="353.840743" cy="62.025210" r="13.818182" opacity="0.700015" style="stroke:black;stroke-width:0.5;fill:url(#radialffffff666666)"/>
<circle cx="272.591620" cy="62.095979" r="13.818182" opacity="0.704514" style="stroke:black;stroke-width:0.5;fill:url(#radialffffff666666)"/>
<circle cx="190.284179" cy="63.736530" r="13.818182" opacity="0.704664" style="stroke:black;stroke-width:0.5;fill:url(#radialffffff666666)"/>
<circle cx="477.933998" cy="89.904937" r="14.041560" opacity="0.712799" style="stroke:black;stroke-width:0.5;fill:url(#radialffffff666666)"/>
<circle cx="437.354471" cy="62.060594" r="14.073576" opacity="0.713611" style="stroke:black;stroke-width:0.5;fill:url(#radialffffff666666)"/>
<circle cx="149.727170" cy="91.606607" r="14.288950" opacity="0.719051" style="stroke:black;stroke-width:0.5;fill:url(#radialffffff666666)"/>
<circle cx="518.294785" cy="62.108846" r="14.562534" opacity="0.725902" style="stroke:black;stroke-width:0.5;fill:url(#radialffffff666666)"/>
<circle cx="109.092958" cy="63.884502" r="14.619289" opacity="0.727315" style="stroke:black;stroke-width:0.5;fill:url(#radialffffff666666)"/>
<circle cx="68.645318" cy="91.375000" r="14.713879" opacity="0.729664" style="stroke:black;stroke-width:0.5;fill:url(#radialffffff666666)"/>
<circle cx="565.147010" cy="94.945612" r="19.798354" opacity="0.730602" style="stroke:black;stroke-width:0.5;fill:url(#radialffffff1eef1e)"/>
<circle cx="40.000000" cy="70.916356" r="6.103810" opacity="0.735844" style="stroke:black;stroke-width:0.5;fill:url(#radialffffffbfbfbf)"/>
<circle cx="395.237329" cy="110.630573" r="10.413220" opacity="0.961121" style="stroke:black;stroke-width:0.5;fill:url(#radialffffffbfbfbf)"/>
<circle cx="232.404538" cy="112.045951" r="10.456551" opacity="0.963119" style="stroke:black;stroke-width:0.5;fill:url(#radialffffffbfbfbf)"/>
<circle cx="313.463872" cy="111.167773" r="10.692797" opacity="0.973938" style="stroke:black;stroke-width:0.5;fill:url(#radialffffffbfbfbf)"/>
<circle cx="353.728156" cy="41.479713" r="10.818043" opacity="0.979625" style="stroke:black;stroke-width:0.5;fill:url(#radialffffffbfbfbf)"/>
<circle cx="190.689492" cy="42.698868" r="10.826353" opacity="0.980001" style="stroke:black;stroke-width:0.5;fill:url(#radialffffffbfbfbf)"/>
<circle cx="477.354980" cy="111.479799" r="10.877995" opacity="0.982336" style="stroke:black;stroke-width:0.5;fill:url(#radialffffffbfbfbf)"/>
<circle cx="272.327845" cy="42.000830" r="10.945070" opacity="0.985360" style="stroke:black;stroke-width:0.5;fill:url(#radialffffffbfbfbf)"/>
<circle cx="150.495977" cy="112.332243" r="11.094059" opacity="0.992044" style="stroke:black;stroke-width:0.5;fill:url(#radialffffffbfbfbf)"/>
<circle cx="437.013494" cy="42.042648" r="11.103556" opacity="0.992468" style="stroke:black;stroke-width:0.5;fill:url(#radialffffffbfbfbf)"/>
<circle cx="67.728539" cy="112.245390" r="11.232364" opacity="0.998208" style="stroke:black;stroke-width:0.5;fill:url(#radialffffffbfbfbf)"/>
<circle cx="109.215195" cy="43.200684" r="11.232957" opacity="0.998234" style="stroke:black;stroke-width:0.5;fill:url(#radialffffffbfbfbf)"/>
<circle cx="519.076460" cy="42.032997" r="11.272727" opacity="1.000000" style="stroke:black;stroke-width:0.5;fill:url(#radialffffffbfbfbf)"/>
</svg>
</g>
</svg>
