<?xml version="1.0"?>
<svg version="1.1" id="topsvg"
xmlns="http://www.w3.org/2000/svg" xmlns:xlink="http://www.w3.org/1999/xlink"
xmlns:cml="http://www.xml-cml.org/schema" x="0" y="0" width="200px" height="200px" viewBox="0 0 100 100">
<title>8207 - Open Babel Depiction</title>
<rect x="0" y="0" width="100" height="100" fill="white"/>
<defs>
<radialGradient id='radialffffff666666' cx='50%' cy='50%' r='50%' fx='30%' fy='30%'>
  <stop offset=' 0%' stop-color="rgb(255,255,255)"  stop-opacity='1.0'/>
  <stop offset='100%' stop-color="rgb(102,102,102)"  stop-opacity ='1.0'/>
</radialGradient>
<radialGradient id='radialffffffbfbfbf' cx='50%' cy='50%' r='50%' fx='30%' fy='30%'>
  <stop offset=' 0%' stop-color="rgb(255,255,255)"  stop-opacity='1.0'/>
  <stop offset='100%' stop-color="rgb(191,191,191)"  stop-opacity ='1.0'/>
</radialGradient>
<radialGradient id='radialffffffffcc' cx='50%' cy='50%' r='50%' fx='30%' fy='30%'>
  <stop offset=' 0%' stop-color="rgb(255,255,255)"  stop-opacity='1.0'/>
  <stop offset='100%' stop-color="rgb(255,12,12)"  stop-opacity ='1.0'/>
</radialGradient>
</defs>
<g transform="translate(0,0)">
<svg width="100" height="100" x="0" y="0" viewBox="0 0 669.05 157.344"
font-family="sans-serif" stroke="rgb(0,0,0)" stroke-width="4"  stroke-linecap="round">
<line x1="65.5" y1="67.6" x2="102.6" y2="95.2" opacity="1.0" stroke="rgb(0,0,0)"  stroke-width="1.5"/>
<line x1="65.5" y1="67.6" x2="40.0" y2="86.4" opacity="0.5" stroke="rgb(0,0,0)"  stroke-width="1.6"/>
<line x1="350.4" y1="91.8" x2="307.9" y2="65.6" opacity="0.5" stroke="rgb(0,0,0)"  stroke-width="1.3"/>
<line x1="350.4" y1="91.8" x2="391.3" y2="63.2" opacity="0.4" stroke="rgb(0,0,0)"  stroke-width="1.3"/>
<line x1="350.4" y1="91.8" x2="351.0" y2="113.0" opacity="0.4" stroke="rgb(0,0,0)"  stroke-width="0.7"/>
<line x1="350.4" y1="91.8" x2="350.8" y2="113.3" opacity="0.2" stroke="rgb(0,0,0)"  stroke-width="2.0"/>
<line x1="307.9" y1="65.6" x2="267.0" y2="94.2" opacity="0.7" stroke="rgb(0,0,0)"  stroke-width="1.3"/>
<line x1="307.9" y1="65.6" x2="307.2" y2="44.5" opacity="0.4" stroke="rgb(0,0,0)"  stroke-width="0.7"/>
<line x1="307.9" y1="65.6" x2="307.5" y2="44.2" opacity="0.2" stroke="rgb(0,0,0)"  stroke-width="2.0"/>
<line x1="391.3" y1="63.2" x2="432.6" y2="91.1" opacity="0.7" stroke="rgb(0,0,0)"  stroke-width="1.3"/>
<line x1="391.3" y1="63.2" x2="390.8" y2="42.1" opacity="0.4" stroke="rgb(0,0,0)"  stroke-width="2.0"/>
<line x1="391.3" y1="63.2" x2="391.3" y2="42.0" opacity="0.7" stroke="rgb(0,0,0)"  stroke-width="0.7"/>
<line x1="267.0" y1="94.2" x2="225.6" y2="66.4" opacity="0.2" stroke="rgb(0,0,0)"  stroke-width="1.4"/>
<line x1="267.0" y1="94.2" x2="266.8" y2="115.1" opacity="0.5" stroke="rgb(0,0,0)"  stroke-width="0.7"/>
<line x1="267.0" y1="94.2" x2="267.8" y2="115.7" opacity="0.2" stroke="rgb(0,0,0)"  stroke-width="2.0"/>
<line x1="432.6" y1="91.1" x2="474.6" y2="64.2" opacity="0.7" stroke="rgb(0,0,0)"  stroke-width="1.4"/>
<line x1="432.6" y1="91.1" x2="433.1" y2="111.9" opacity="0.5" stroke="rgb(0,0,0)"  stroke-width="0.7"/>
<line x1="432.6" y1="91.1" x2="432.0" y2="112.8" opacity="0.2" stroke="rgb(0,0,0)"  stroke-width="2.0"/>
<line x1="225.6" y1="66.4" x2="184.7" y2="94.8" opacity="0.7" stroke="rgb(0,0,0)"  stroke-width="1.4"/>
<line x1="225.6" y1="66.4" x2="225.3" y2="44.4" opacity="0.5" stroke="rgb(0,0,0)"  stroke-width="0.7"/>
<line x1="225.6" y1="66.4" x2="225.7" y2="46.1" opacity="0.2" stroke="rgb(0,0,0)"  stroke-width="2.0"/>
<line x1="474.6" y1="64.2" x2="517.1" y2="90.3" opacity="0.7" stroke="rgb(0,0,0)"  stroke-width="1.4"/>
<line x1="474.6" y1="64.2" x2="475.3" y2="42.7" opacity="0.5" stroke="rgb(0,0,0)"  stroke-width="0.8"/>
<line x1="474.6" y1="64.2" x2="473.7" y2="42.8" opacity="0.3" stroke="rgb(0,0,0)"  stroke-width="2.1"/>
<line x1="184.7" y1="94.8" x2="143.5" y2="67.2" opacity="0.7" stroke="rgb(0,0,0)"  stroke-width="1.4"/>
<line x1="184.7" y1="94.8" x2="185.4" y2="117.3" opacity="0.5" stroke="rgb(0,0,0)"  stroke-width="2.0"/>
<line x1="184.7" y1="94.8" x2="184.3" y2="114.7" opacity="0.7" stroke="rgb(0,0,0)"  stroke-width="0.7"/>
<line x1="517.1" y1="90.3" x2="559.1" y2="63.4" opacity="0.2" stroke="rgb(0,0,0)"  stroke-width="1.4"/>
<line x1="517.1" y1="90.3" x2="517.5" y2="112.6" opacity="0.5" stroke="rgb(0,0,0)"  stroke-width="0.8"/>
<line x1="517.1" y1="90.3" x2="516.9" y2="110.9" opacity="0.3" stroke="rgb(0,0,0)"  stroke-width="2.1"/>
<line x1="143.5" y1="67.2" x2="102.6" y2="95.2" opacity="0.7" stroke="rgb(0,0,0)"  stroke-width="1.5"/>
<line x1="143.5" y1="67.2" x2="144.0" y2="46.3" opacity="0.5" stroke="rgb(0,0,0)"  stroke-width="2.1"/>
<line x1="143.5" y1="67.2" x2="142.0" y2="44.9" opacity="0.7" stroke="rgb(0,0,0)"  stroke-width="0.8"/>
<line x1="559.1" y1="63.4" x2="600.2" y2="90.8" opacity="0.3" stroke="rgb(0,0,0)"  stroke-width="1.5"/>
<line x1="559.1" y1="63.4" x2="560.5" y2="44.4" opacity="0.5" stroke="rgb(0,0,0)"  stroke-width="0.7"/>
<line x1="559.1" y1="63.4" x2="558.3" y2="40.0" opacity="0.2" stroke="rgb(0,0,0)"  stroke-width="2.0"/>
<line x1="102.6" y1="95.2" x2="100.1" y2="115.0" opacity="0.7" stroke="rgb(0,0,0)"  stroke-width="0.8"/>
<line x1="102.6" y1="95.2" x2="102.5" y2="116.8" opacity="0.3" stroke="rgb(0,0,0)"  stroke-width="2.1"/>
<line x1="600.2" y1="90.8" x2="600.4" y2="109.2" opacity="0.7" stroke="rgb(0,0,0)"  stroke-width="2.3"/>
<line x1="600.2" y1="90.8" x2="629.0" y2="69.9" opacity="0.8" stroke="rgb(0,0,0)"  stroke-width="1.6"/>
<line x1="600.2" y1="90.8" x2="602.6" y2="113.9" opacity="0.5" stroke="rgb(0,0,0)"  stroke-width="1.0"/>
<circle cx="184.348656" cy="114.692302" r="5.636364" opacity="0.200000" style="stroke:black;stroke-width:0.5;fill:url(#radialffffffbfbfbf)"/>
<circle cx="351.010538" cy="112.959363" r="5.636364" opacity="0.200000" style="stroke:black;stroke-width:0.5;fill:url(#radialffffffbfbfbf)"/>
<circle cx="307.221239" cy="44.501734" r="5.636364" opacity="0.200000" style="stroke:black;stroke-width:0.5;fill:url(#radialffffffbfbfbf)"/>
<circle cx="266.832672" cy="115.102735" r="5.636364" opacity="0.200000" style="stroke:black;stroke-width:0.5;fill:url(#radialffffffbfbfbf)"/>
<circle cx="391.330700" cy="42.000047" r="5.636364" opacity="0.200000" style="stroke:black;stroke-width:0.5;fill:url(#radialffffffbfbfbf)"/>
<circle cx="433.123210" cy="111.943052" r="5.636364" opacity="0.200000" style="stroke:black;stroke-width:0.5;fill:url(#radialffffffbfbfbf)"/>
<circle cx="560.481240" cy="44.364923" r="5.636364" opacity="0.200000" style="stroke:black;stroke-width:0.5;fill:url(#radialffffffbfbfbf)"/>
<circle cx="225.284468" cy="44.361666" r="5.636364" opacity="0.200000" style="stroke:black;stroke-width:0.5;fill:url(#radialffffffbfbfbf)"/>
<circle cx="475.283806" cy="42.658043" r="5.636364" opacity="0.200000" style="stroke:black;stroke-width:0.5;fill:url(#radialffffffbfbfbf)"/>
<circle cx="100.147988" cy="114.952895" r="5.636364" opacity="0.212694" style="stroke:black;stroke-width:0.5;fill:url(#radialffffffbfbfbf)"/>
<circle cx="142.031705" cy="44.876336" r="5.636364" opacity="0.243170" style="stroke:black;stroke-width:0.5;fill:url(#radialffffffbfbfbf)"/>
<circle cx="517.548639" cy="112.646652" r="5.636364" opacity="0.248599" style="stroke:black;stroke-width:0.5;fill:url(#radialffffffbfbfbf)"/>
<circle cx="602.599490" cy="113.884466" r="5.636364" opacity="0.355419" style="stroke:black;stroke-width:0.5;fill:url(#radialffffffbfbfbf)"/>
<circle cx="350.378601" cy="91.805773" r="13.818182" opacity="0.661517" style="stroke:black;stroke-width:0.5;fill:url(#radialffffff666666)"/>
<circle cx="307.905294" cy="65.648809" r="13.818182" opacity="0.661741" style="stroke:black;stroke-width:0.5;fill:url(#radialffffff666666)"/>
<circle cx="391.259037" cy="63.238329" r="13.818182" opacity="0.665615" style="stroke:black;stroke-width:0.5;fill:url(#radialffffff666666)"/>
<circle cx="267.037888" cy="94.193451" r="13.818182" opacity="0.666951" style="stroke:black;stroke-width:0.5;fill:url(#radialffffff666666)"/>
<circle cx="432.628084" cy="91.085886" r="13.818182" opacity="0.669651" style="stroke:black;stroke-width:0.5;fill:url(#radialffffff666666)"/>
<circle cx="184.726515" cy="94.825388" r="13.818182" opacity="0.671310" style="stroke:black;stroke-width:0.5;fill:url(#radialffffff666666)"/>
<circle cx="225.649297" cy="66.414299" r="13.818182" opacity="0.678562" style="stroke:black;stroke-width:0.5;fill:url(#radialffffff666666)"/>
<circle cx="474.625810" cy="64.182977" r="13.818182" opacity="0.684872" style="stroke:black;stroke-width:0.5;fill:url(#radialffffff666666)"/>
<circle cx="559.054496" cy="63.404457" r="13.818182" opacity="0.691803" style="stroke:black;stroke-width:0.5;fill:url(#radialffffff666666)"/>
<circle cx="143.451933" cy="67.150473" r="13.818182" opacity="0.694834" style="stroke:black;stroke-width:0.5;fill:url(#radialffffff666666)"/>
<circle cx="517.115404" cy="90.349713" r="13.818182" opacity="0.697001" style="stroke:black;stroke-width:0.5;fill:url(#radialffffff666666)"/>
<circle cx="102.600814" cy="95.239078" r="13.818182" opacity="0.703356" style="stroke:black;stroke-width:0.5;fill:url(#radialffffff666666)"/>
<circle cx="629.049620" cy="69.906238" r="5.954604" opacity="0.726795" style="stroke:black;stroke-width:0.5;fill:url(#radialffffffbfbfbf)"/>
<circle cx="65.515255" cy="67.645598" r="12.770098" opacity="0.729443" style="stroke:black;stroke-width:0.5;fill:url(#radialffffffffcc)"/>
<circle cx="600.156436" cy="90.779690" r="14.836134" opacity="0.732689" style="stroke:black;stroke-width:0.5;fill:url(#radialffffff666666)"/>
<circle cx="40.000000" cy="86.404995" r="6.073874" opacity="0.734038" style="stroke:black;stroke-width:0.5;fill:url(#radialffffffbfbfbf)"/>
<circle cx="350.795549" cy="113.275331" r="9.820861" opacity="0.933384" style="stroke:black;stroke-width:0.5;fill:url(#radialffffffbfbfbf)"/>
<circle cx="307.540465" cy="44.169479" r="9.823090" opacity="0.933490" style="stroke:black;stroke-width:0.5;fill:url(#radialffffffbfbfbf)"/>
<circle cx="185.433372" cy="117.343830" r="9.824762" opacity="0.933569" style="stroke:black;stroke-width:0.5;fill:url(#radialffffffbfbfbf)"/>
<circle cx="267.774062" cy="115.679296" r="9.894987" opacity="0.936900" style="stroke:black;stroke-width:0.5;fill:url(#radialffffffbfbfbf)"/>
<circle cx="431.979860" cy="112.848611" r="9.903347" opacity="0.937295" style="stroke:black;stroke-width:0.5;fill:url(#radialffffffbfbfbf)"/>
<circle cx="390.803001" cy="42.101026" r="9.920067" opacity="0.938086" style="stroke:black;stroke-width:0.5;fill:url(#radialffffffbfbfbf)"/>
<circle cx="558.289006" cy="40.000000" r="10.009798" opacity="0.942319" style="stroke:black;stroke-width:0.5;fill:url(#radialffffffbfbfbf)"/>
<circle cx="473.716994" cy="42.843715" r="10.191491" opacity="0.950833" style="stroke:black;stroke-width:0.5;fill:url(#radialffffffbfbfbf)"/>
<circle cx="225.688386" cy="46.065289" r="10.214899" opacity="0.951925" style="stroke:black;stroke-width:0.5;fill:url(#radialffffffbfbfbf)"/>
<circle cx="143.986148" cy="46.348683" r="10.414426" opacity="0.961177" style="stroke:black;stroke-width:0.5;fill:url(#radialffffffbfbfbf)"/>
<circle cx="102.538923" cy="116.838932" r="10.430589" opacity="0.961922" style="stroke:black;stroke-width:0.5;fill:url(#radialffffffbfbfbf)"/>
<circle cx="516.916702" cy="110.900683" r="10.480749" opacity="0.964232" style="stroke:black;stroke-width:0.5;fill:url(#radialffffffbfbfbf)"/>
<circle cx="600.361652" cy="109.216604" r="11.272727" opacity="1.000000" style="stroke:black;stroke-width:0.5;fill:url(#radialffffffbfbfbf)"/>
</svg>
</g>
</svg>
