<?xml version="1.0"?>
<svg version="1.1" id="topsvg"
xmlns="http://www.w3.org/2000/svg" xmlns:xlink="http://www.w3.org/1999/xlink"
xmlns:cml="http://www.xml-cml.org/schema" x="0" y="0" width="1024px" height="1024px" viewBox="0 0 100 100">
<title>8370 - Open Babel Depiction</title>
<rect x="0" y="0" width="100" height="100" fill="white"/>
<defs>
<radialGradient id='radialffffff1eef1e' cx='50%' cy='50%' r='50%' fx='30%' fy='30%'>
  <stop offset=' 0%' stop-color="rgb(255,255,255)"  stop-opacity='1.0'/>
  <stop offset='100%' stop-color="rgb(30,239,30)"  stop-opacity ='1.0'/>
</radialGradient>
<radialGradient id='radialffffff666666' cx='50%' cy='50%' r='50%' fx='30%' fy='30%'>
  <stop offset=' 0%' stop-color="rgb(255,255,255)"  stop-opacity='1.0'/>
  <stop offset='100%' stop-color="rgb(102,102,102)"  stop-opacity ='1.0'/>
</radialGradient>
</defs>
<g transform="translate(0,0)">
<svg width="100" height="100" x="0" y="0" viewBox="0 0 236.61 232.017"
font-family="sans-serif" stroke="rgb(0,0,0)" stroke-width="2"  stroke-linecap="round">
<line x1="40.0" y1="99.6" x2="83.5" y2="108.7" opacity="1.0" stroke="rgb(0,0,0)"  stroke-width="3.0"/>
<line x1="93.4" y1="40.0" x2="107.2" y2="82.2" opacity="1.0" stroke="rgb(0,0,0)"  stroke-width="3.0"/>
<line x1="64.9" y1="175.6" x2="94.6" y2="142.5" opacity="1.0" stroke="rgb(0,0,0)"  stroke-width="3.0"/>
<line x1="171.7" y1="56.4" x2="142.0" y2="89.5" opacity="1.0" stroke="rgb(0,0,0)"  stroke-width="3.0"/>
<line x1="143.2" y1="192.0" x2="129.4" y2="149.8" opacity="1.0" stroke="rgb(0,0,0)"  stroke-width="3.0"/>
<line x1="196.6" y1="132.4" x2="153.1" y2="123.3" opacity="1.0" stroke="rgb(0,0,0)"  stroke-width="3.0"/>
<line x1="80.7" y1="109.7" x2="91.7" y2="143.4" opacity="1.0" stroke="rgb(0,0,0)"  stroke-width="3.0"/>
<line x1="86.4" y1="107.8" x2="97.4" y2="141.6" opacity="1.0" stroke="rgb(0,0,0)"  stroke-width="3.0" stroke-dasharray="5.0,5.0"/>
<line x1="94.0" y1="145.4" x2="128.8" y2="152.7" opacity="1.0" stroke="rgb(0,0,0)"  stroke-width="3.0"/>
<line x1="95.2" y1="139.6" x2="130.0" y2="146.9" opacity="1.0" stroke="rgb(0,0,0)"  stroke-width="3.0" stroke-dasharray="5.0,5.0"/>
<line x1="131.6" y1="151.8" x2="155.3" y2="125.3" opacity="1.0" stroke="rgb(0,0,0)"  stroke-width="3.0"/>
<line x1="127.2" y1="147.8" x2="150.9" y2="121.3" opacity="1.0" stroke="rgb(0,0,0)"  stroke-width="3.0" stroke-dasharray="5.0,5.0"/>
<line x1="156.0" y1="122.4" x2="144.9" y2="88.6" opacity="1.0" stroke="rgb(0,0,0)"  stroke-width="3.0"/>
<line x1="150.3" y1="124.2" x2="139.2" y2="90.5" opacity="1.0" stroke="rgb(0,0,0)"  stroke-width="3.0" stroke-dasharray="5.0,5.0"/>
<line x1="142.6" y1="86.6" x2="107.8" y2="79.3" opacity="1.0" stroke="rgb(0,0,0)"  stroke-width="3.0"/>
<line x1="141.4" y1="92.5" x2="106.6" y2="85.2" opacity="1.0" stroke="rgb(0,0,0)"  stroke-width="3.0" stroke-dasharray="5.0,5.0"/>
<line x1="105.0" y1="80.2" x2="81.3" y2="106.7" opacity="1.0" stroke="rgb(0,0,0)"  stroke-width="3.0"/>
<line x1="109.5" y1="84.2" x2="85.7" y2="110.7" opacity="1.0" stroke="rgb(0,0,0)"  stroke-width="3.0" stroke-dasharray="5.0,5.0"/>
<circle cx="143.249534" cy="192.017020" r="37.090909" opacity="1.000000" style="stroke:black;stroke-width:0.5;fill:url(#radialffffff1eef1e)"/>
<circle cx="171.671958" cy="56.414708" r="37.090909" opacity="1.000000" style="stroke:black;stroke-width:0.5;fill:url(#radialffffff1eef1e)"/>
<circle cx="83.506623" cy="108.722571" r="27.636364" opacity="1.000000" style="stroke:black;stroke-width:0.5;fill:url(#radialffffff666666)"/>
<circle cx="107.216191" cy="82.229640" r="27.636364" opacity="1.000000" style="stroke:black;stroke-width:0.5;fill:url(#radialffffff666666)"/>
<circle cx="94.599295" cy="142.502715" r="27.636364" opacity="1.000000" style="stroke:black;stroke-width:0.5;fill:url(#radialffffff666666)"/>
<circle cx="142.015882" cy="89.514304" r="27.636364" opacity="1.000000" style="stroke:black;stroke-width:0.5;fill:url(#radialffffff666666)"/>
<circle cx="40.000000" cy="99.610369" r="37.090909" opacity="1.000000" style="stroke:black;stroke-width:0.5;fill:url(#radialffffff1eef1e)"/>
<circle cx="153.106005" cy="123.294448" r="27.636364" opacity="1.000000" style="stroke:black;stroke-width:0.5;fill:url(#radialffffff666666)"/>
<circle cx="129.398986" cy="149.787379" r="27.636364" opacity="1.000000" style="stroke:black;stroke-width:0.5;fill:url(#radialffffff666666)"/>
<circle cx="93.360546" cy="40.000000" r="37.090909" opacity="1.000000" style="stroke:black;stroke-width:0.5;fill:url(#radialffffff1eef1e)"/>
<circle cx="64.940671" cy="175.609958" r="37.090909" opacity="1.000000" style="stroke:black;stroke-width:0.5;fill:url(#radialffffff1eef1e)"/>
<circle cx="196.610079" cy="132.414297" r="37.090909" opacity="1.000000" style="stroke:black;stroke-width:0.5;fill:url(#radialffffff1eef1e)"/>
</svg>
</g>
</svg>
