<?xml version="1.0"?>
<svg version="1.1" id="topsvg"
xmlns="http://www.w3.org/2000/svg" xmlns:xlink="http://www.w3.org/1999/xlink"
xmlns:cml="http://www.xml-cml.org/schema" x="0" y="0" width="1024px" height="1024px" viewBox="0 0 100 100">
<title>8404 - Open Babel Depiction</title>
<rect x="0" y="0" width="100" height="100" fill="white"/>
<defs>
<radialGradient id='radialffffff666666' cx='50%' cy='50%' r='50%' fx='30%' fy='30%'>
  <stop offset=' 0%' stop-color="rgb(255,255,255)"  stop-opacity='1.0'/>
  <stop offset='100%' stop-color="rgb(102,102,102)"  stop-opacity ='1.0'/>
</radialGradient>
<radialGradient id='radialffffffbfbfbf' cx='50%' cy='50%' r='50%' fx='30%' fy='30%'>
  <stop offset=' 0%' stop-color="rgb(255,255,255)"  stop-opacity='1.0'/>
  <stop offset='100%' stop-color="rgb(191,191,191)"  stop-opacity ='1.0'/>
</radialGradient>
</defs>
<g transform="translate(0,0)">
<svg width="100" height="100" x="0" y="0" viewBox="0 0 294.652 236.596"
font-family="sans-serif" stroke="rgb(0,0,0)" stroke-width="2"  stroke-linecap="round">
<line x1="68.8" y1="139.8" x2="40.0" y2="157.2" opacity="1.0" stroke="rgb(0,0,0)"  stroke-width="1.7"/>
<line x1="68.8" y1="139.8" x2="68.8" y2="135.5" opacity="0.6" stroke="rgb(0,0,0)"  stroke-width="2.4"/>
<line x1="68.8" y1="96.8" x2="40.0" y2="79.3" opacity="0.8" stroke="rgb(0,0,0)"  stroke-width="1.3"/>
<line x1="68.8" y1="96.8" x2="68.8" y2="101.1" opacity="0.4" stroke="rgb(0,0,0)"  stroke-width="0.6"/>
<line x1="107.5" y1="165.4" x2="103.2" y2="176.3" opacity="0.2" stroke="rgb(0,0,0)"  stroke-width="0.9"/>
<line x1="107.5" y1="165.4" x2="109.8" y2="193.4" opacity="0.3" stroke="rgb(0,0,0)"  stroke-width="1.7"/>
<line x1="107.5" y1="71.2" x2="103.2" y2="60.2" opacity="0.6" stroke="rgb(0,0,0)"  stroke-width="2.1"/>
<line x1="107.5" y1="71.2" x2="109.8" y2="43.2" opacity="0.7" stroke="rgb(0,0,0)"  stroke-width="1.3"/>
<line x1="186.8" y1="162.3" x2="187.3" y2="196.6" opacity="0.4" stroke="rgb(0,0,0)"  stroke-width="1.4"/>
<line x1="186.8" y1="74.3" x2="187.3" y2="40.0" opacity="0.5" stroke="rgb(0,0,0)"  stroke-width="1.6"/>
<line x1="224.9" y1="140.3" x2="254.7" y2="157.4" opacity="0.5" stroke="rgb(0,0,0)"  stroke-width="1.5"/>
<line x1="224.9" y1="96.3" x2="254.7" y2="79.2" opacity="0.5" stroke="rgb(0,0,0)"  stroke-width="1.5"/>
<line x1="149.6" y1="98.7" x2="188.2" y2="76.9" opacity="0.5" stroke="rgb(0,0,0)"  stroke-width="1.5"/>
<line x1="146.7" y1="93.5" x2="185.3" y2="71.7" opacity="0.5" stroke="rgb(0,0,0)"  stroke-width="1.5" stroke-dasharray="5.0,5.0"/>
<line x1="185.3" y1="76.9" x2="223.4" y2="98.9" opacity="0.5" stroke="rgb(0,0,0)"  stroke-width="1.5"/>
<line x1="188.3" y1="71.7" x2="226.4" y2="93.7" opacity="0.5" stroke="rgb(0,0,0)"  stroke-width="1.5" stroke-dasharray="5.0,5.0"/>
<line x1="221.9" y1="96.3" x2="221.9" y2="140.3" opacity="0.5" stroke="rgb(0,0,0)"  stroke-width="1.5"/>
<line x1="227.9" y1="96.3" x2="227.9" y2="140.3" opacity="0.5" stroke="rgb(0,0,0)"  stroke-width="1.5" stroke-dasharray="5.0,5.0"/>
<line x1="223.4" y1="137.7" x2="185.3" y2="159.7" opacity="0.5" stroke="rgb(0,0,0)"  stroke-width="1.5"/>
<line x1="226.4" y1="142.9" x2="188.3" y2="164.9" opacity="0.5" stroke="rgb(0,0,0)"  stroke-width="1.5" stroke-dasharray="5.0,5.0"/>
<line x1="188.2" y1="159.7" x2="149.6" y2="137.9" opacity="0.5" stroke="rgb(0,0,0)"  stroke-width="1.5"/>
<line x1="185.3" y1="164.9" x2="146.7" y2="143.1" opacity="0.5" stroke="rgb(0,0,0)"  stroke-width="1.5" stroke-dasharray="5.0,5.0"/>
<line x1="151.1" y1="140.5" x2="151.1" y2="96.1" opacity="0.5" stroke="rgb(0,0,0)"  stroke-width="1.5"/>
<line x1="145.1" y1="140.5" x2="145.1" y2="96.1" opacity="0.5" stroke="rgb(0,0,0)"  stroke-width="1.5" stroke-dasharray="5.0,5.0"/>
<line x1="68.8" y1="96.8" x2="68.8" y2="139.8" opacity="0.5" stroke="rgb(0,0,0)"  stroke-width="1.5"/>
<line x1="68.8" y1="139.8" x2="107.5" y2="165.4" opacity="0.5" stroke="rgb(0,0,0)"  stroke-width="1.6"/>
<line x1="107.5" y1="165.4" x2="148.1" y2="140.5" opacity="0.5" stroke="rgb(0,0,0)"  stroke-width="1.4"/>
<line x1="148.1" y1="96.1" x2="107.5" y2="71.2" opacity="0.5" stroke="rgb(0,0,0)"  stroke-width="1.6"/>
<line x1="107.5" y1="71.2" x2="68.8" y2="96.8" opacity="0.5" stroke="rgb(0,0,0)"  stroke-width="1.4"/>
<circle cx="68.803549" cy="101.051894" r="5.636364" opacity="0.200000" style="stroke:black;stroke-width:0.5;fill:url(#radialffffffbfbfbf)"/>
<circle cx="103.248347" cy="176.347546" r="5.636364" opacity="0.332143" style="stroke:black;stroke-width:0.5;fill:url(#radialffffffbfbfbf)"/>
<circle cx="109.828223" cy="43.160363" r="5.636364" opacity="0.552064" style="stroke:black;stroke-width:0.5;fill:url(#radialffffffbfbfbf)"/>
<circle cx="68.816191" cy="96.779084" r="13.818182" opacity="0.617007" style="stroke:black;stroke-width:0.5;fill:url(#radialffffff666666)"/>
<circle cx="187.257119" cy="196.595992" r="5.636364" opacity="0.680813" style="stroke:black;stroke-width:0.5;fill:url(#radialffffffbfbfbf)"/>
<circle cx="40.000000" cy="79.349681" r="5.636364" opacity="0.685597" style="stroke:black;stroke-width:0.5;fill:url(#radialffffffbfbfbf)"/>
<circle cx="107.511677" cy="165.396887" r="13.818182" opacity="0.686412" style="stroke:black;stroke-width:0.5;fill:url(#radialffffff666666)"/>
<circle cx="186.760942" cy="162.268128" r="13.818182" opacity="0.693329" style="stroke:black;stroke-width:0.5;fill:url(#radialffffff666666)"/>
<circle cx="254.651862" cy="157.435933" r="5.636364" opacity="0.693757" style="stroke:black;stroke-width:0.5;fill:url(#radialffffffbfbfbf)"/>
<circle cx="224.938128" cy="140.268840" r="13.818182" opacity="0.699927" style="stroke:black;stroke-width:0.5;fill:url(#radialffffff666666)"/>
<circle cx="148.128663" cy="140.527990" r="13.818182" opacity="0.702494" style="stroke:black;stroke-width:0.5;fill:url(#radialffffff666666)"/>
<circle cx="148.131824" cy="96.068002" r="13.995932" opacity="0.711640" style="stroke:black;stroke-width:0.5;fill:url(#radialffffff666666)"/>
<circle cx="224.938128" cy="96.323991" r="14.095434" opacity="0.714165" style="stroke:black;stroke-width:0.5;fill:url(#radialffffff666666)"/>
<circle cx="254.651862" cy="79.160059" r="5.846388" opacity="0.720161" style="stroke:black;stroke-width:0.5;fill:url(#radialffffffbfbfbf)"/>
<circle cx="186.760942" cy="74.327864" r="14.351434" opacity="0.720621" style="stroke:black;stroke-width:0.5;fill:url(#radialffffff666666)"/>
<circle cx="107.508516" cy="71.199105" r="14.610332" opacity="0.727092" style="stroke:black;stroke-width:0.5;fill:url(#radialffffff666666)"/>
<circle cx="40.003160" cy="157.243151" r="5.974845" opacity="0.728029" style="stroke:black;stroke-width:0.5;fill:url(#radialffffffbfbfbf)"/>
<circle cx="187.250798" cy="40.000000" r="6.047348" opacity="0.732433" style="stroke:black;stroke-width:0.5;fill:url(#radialffffffbfbfbf)"/>
<circle cx="68.816191" cy="139.816908" r="17.115263" opacity="0.786958" style="stroke:black;stroke-width:0.5;fill:url(#radialffffff666666)"/>
<circle cx="109.831383" cy="193.441950" r="7.833537" opacity="0.833613" style="stroke:black;stroke-width:0.5;fill:url(#radialffffffbfbfbf)"/>
<circle cx="103.248347" cy="60.235805" r="10.026769" opacity="0.943118" style="stroke:black;stroke-width:0.5;fill:url(#radialffffffbfbfbf)"/>
<circle cx="68.816191" cy="135.547258" r="11.272727" opacity="1.000000" style="stroke:black;stroke-width:0.5;fill:url(#radialffffffbfbfbf)"/>
</svg>
</g>
</svg>
