<?xml version="1.0"?>
<svg version="1.1" id="topsvg"
xmlns="http://www.w3.org/2000/svg" xmlns:xlink="http://www.w3.org/1999/xlink"
xmlns:cml="http://www.xml-cml.org/schema" x="0" y="0" width="1024px" height="1024px" viewBox="0 0 100 100">
<title>8418 - Open Babel Depiction</title>
<rect x="0" y="0" width="100" height="100" fill="white"/>
<defs>
<radialGradient id='radialffffff666666' cx='50%' cy='50%' r='50%' fx='30%' fy='30%'>
  <stop offset=' 0%' stop-color="rgb(255,255,255)"  stop-opacity='1.0'/>
  <stop offset='100%' stop-color="rgb(102,102,102)"  stop-opacity ='1.0'/>
</radialGradient>
<radialGradient id='radialffffffbfbfbf' cx='50%' cy='50%' r='50%' fx='30%' fy='30%'>
  <stop offset=' 0%' stop-color="rgb(255,255,255)"  stop-opacity='1.0'/>
  <stop offset='100%' stop-color="rgb(191,191,191)"  stop-opacity ='1.0'/>
</radialGradient>
</defs>
<g transform="translate(0,0)">
<svg width="100" height="100" x="0" y="0" viewBox="0 0 367.242 235.135"
font-family="sans-serif" stroke="rgb(0,0,0)" stroke-width="2"  stroke-linecap="round">
<line x1="183.6" y1="74.0" x2="183.6" y2="40.0" opacity="1.0" stroke="rgb(0,0,0)"  stroke-width="3.0"/>
<line x1="183.6" y1="161.1" x2="183.6" y2="195.1" opacity="1.0" stroke="rgb(0,0,0)"  stroke-width="3.0"/>
<line x1="107.1" y1="74.1" x2="106.4" y2="40.1" opacity="1.0" stroke="rgb(0,0,0)"  stroke-width="3.0"/>
<line x1="107.1" y1="161.1" x2="106.4" y2="195.0" opacity="1.0" stroke="rgb(0,0,0)"  stroke-width="3.0"/>
<line x1="260.1" y1="74.1" x2="260.9" y2="40.1" opacity="1.0" stroke="rgb(0,0,0)"  stroke-width="3.0"/>
<line x1="260.1" y1="161.1" x2="260.9" y2="195.0" opacity="1.0" stroke="rgb(0,0,0)"  stroke-width="3.0"/>
<line x1="69.4" y1="95.8" x2="40.0" y2="78.9" opacity="1.0" stroke="rgb(0,0,0)"  stroke-width="3.0"/>
<line x1="69.4" y1="139.3" x2="40.0" y2="156.3" opacity="1.0" stroke="rgb(0,0,0)"  stroke-width="3.0"/>
<line x1="297.9" y1="95.8" x2="327.2" y2="78.9" opacity="1.0" stroke="rgb(0,0,0)"  stroke-width="3.0"/>
<line x1="297.9" y1="139.3" x2="327.2" y2="156.3" opacity="1.0" stroke="rgb(0,0,0)"  stroke-width="3.0"/>
<line x1="146.8" y1="98.1" x2="185.1" y2="76.7" opacity="1.0" stroke="rgb(0,0,0)"  stroke-width="3.0"/>
<line x1="143.9" y1="92.9" x2="182.2" y2="71.4" opacity="1.0" stroke="rgb(0,0,0)"  stroke-width="3.0" stroke-dasharray="5.0,5.0"/>
<line x1="182.2" y1="76.7" x2="220.4" y2="98.1" opacity="1.0" stroke="rgb(0,0,0)"  stroke-width="3.0"/>
<line x1="185.1" y1="71.4" x2="223.4" y2="92.9" opacity="1.0" stroke="rgb(0,0,0)"  stroke-width="3.0" stroke-dasharray="5.0,5.0"/>
<line x1="218.9" y1="95.5" x2="218.9" y2="139.6" opacity="1.0" stroke="rgb(0,0,0)"  stroke-width="3.0"/>
<line x1="224.9" y1="95.5" x2="224.9" y2="139.6" opacity="1.0" stroke="rgb(0,0,0)"  stroke-width="3.0" stroke-dasharray="5.0,5.0"/>
<line x1="220.4" y1="137.0" x2="182.2" y2="158.5" opacity="1.0" stroke="rgb(0,0,0)"  stroke-width="3.0"/>
<line x1="223.4" y1="142.2" x2="185.1" y2="163.7" opacity="1.0" stroke="rgb(0,0,0)"  stroke-width="3.0" stroke-dasharray="5.0,5.0"/>
<line x1="185.1" y1="158.5" x2="146.8" y2="137.0" opacity="1.0" stroke="rgb(0,0,0)"  stroke-width="3.0"/>
<line x1="182.2" y1="163.7" x2="143.9" y2="142.2" opacity="1.0" stroke="rgb(0,0,0)"  stroke-width="3.0" stroke-dasharray="5.0,5.0"/>
<line x1="148.4" y1="139.6" x2="148.4" y2="95.5" opacity="1.0" stroke="rgb(0,0,0)"  stroke-width="3.0"/>
<line x1="142.4" y1="139.6" x2="142.4" y2="95.5" opacity="1.0" stroke="rgb(0,0,0)"  stroke-width="3.0" stroke-dasharray="5.0,5.0"/>
<line x1="142.4" y1="95.5" x2="142.4" y2="139.6" opacity="1.0" stroke="rgb(0,0,0)"  stroke-width="3.0"/>
<line x1="148.4" y1="95.5" x2="148.4" y2="139.6" opacity="1.0" stroke="rgb(0,0,0)"  stroke-width="3.0" stroke-dasharray="5.0,5.0"/>
<line x1="143.9" y1="137.0" x2="105.6" y2="158.5" opacity="1.0" stroke="rgb(0,0,0)"  stroke-width="3.0"/>
<line x1="146.8" y1="142.2" x2="108.6" y2="163.7" opacity="1.0" stroke="rgb(0,0,0)"  stroke-width="3.0" stroke-dasharray="5.0,5.0"/>
<line x1="108.6" y1="158.5" x2="70.9" y2="136.7" opacity="1.0" stroke="rgb(0,0,0)"  stroke-width="3.0"/>
<line x1="105.6" y1="163.7" x2="67.9" y2="141.9" opacity="1.0" stroke="rgb(0,0,0)"  stroke-width="3.0" stroke-dasharray="5.0,5.0"/>
<line x1="72.4" y1="139.3" x2="72.4" y2="95.8" opacity="1.0" stroke="rgb(0,0,0)"  stroke-width="3.0"/>
<line x1="66.4" y1="139.3" x2="66.4" y2="95.8" opacity="1.0" stroke="rgb(0,0,0)"  stroke-width="3.0" stroke-dasharray="5.0,5.0"/>
<line x1="70.9" y1="98.4" x2="108.6" y2="76.7" opacity="1.0" stroke="rgb(0,0,0)"  stroke-width="3.0"/>
<line x1="67.9" y1="93.2" x2="105.6" y2="71.5" opacity="1.0" stroke="rgb(0,0,0)"  stroke-width="3.0" stroke-dasharray="5.0,5.0"/>
<line x1="105.6" y1="76.7" x2="143.9" y2="98.1" opacity="1.0" stroke="rgb(0,0,0)"  stroke-width="3.0"/>
<line x1="108.6" y1="71.4" x2="146.8" y2="92.9" opacity="1.0" stroke="rgb(0,0,0)"  stroke-width="3.0" stroke-dasharray="5.0,5.0"/>
<line x1="220.4" y1="142.2" x2="258.7" y2="163.7" opacity="1.0" stroke="rgb(0,0,0)"  stroke-width="3.0"/>
<line x1="223.3" y1="137.0" x2="261.6" y2="158.4" opacity="1.0" stroke="rgb(0,0,0)"  stroke-width="3.0" stroke-dasharray="5.0,5.0"/>
<line x1="261.6" y1="163.7" x2="299.4" y2="141.9" opacity="1.0" stroke="rgb(0,0,0)"  stroke-width="3.0"/>
<line x1="258.7" y1="158.5" x2="296.4" y2="136.7" opacity="1.0" stroke="rgb(0,0,0)"  stroke-width="3.0" stroke-dasharray="5.0,5.0"/>
<line x1="300.9" y1="139.3" x2="300.9" y2="95.8" opacity="1.0" stroke="rgb(0,0,0)"  stroke-width="3.0"/>
<line x1="294.9" y1="139.3" x2="294.9" y2="95.8" opacity="1.0" stroke="rgb(0,0,0)"  stroke-width="3.0" stroke-dasharray="5.0,5.0"/>
<line x1="299.4" y1="93.2" x2="261.6" y2="71.5" opacity="1.0" stroke="rgb(0,0,0)"  stroke-width="3.0"/>
<line x1="296.4" y1="98.4" x2="258.7" y2="76.7" opacity="1.0" stroke="rgb(0,0,0)"  stroke-width="3.0" stroke-dasharray="5.0,5.0"/>
<line x1="258.7" y1="71.5" x2="220.4" y2="92.9" opacity="1.0" stroke="rgb(0,0,0)"  stroke-width="3.0"/>
<line x1="261.6" y1="76.7" x2="223.3" y2="98.1" opacity="1.0" stroke="rgb(0,0,0)"  stroke-width="3.0" stroke-dasharray="5.0,5.0"/>
<line x1="218.9" y1="95.5" x2="218.9" y2="139.6" opacity="1.0" stroke="rgb(0,0,0)"  stroke-width="3.0"/>
<line x1="224.9" y1="95.5" x2="224.9" y2="139.6" opacity="1.0" stroke="rgb(0,0,0)"  stroke-width="3.0" stroke-dasharray="5.0,5.0"/>
<circle cx="327.241684" cy="156.267614" r="11.272727" opacity="1.000000" style="stroke:black;stroke-width:0.5;fill:url(#radialffffffbfbfbf)"/>
<circle cx="40.006246" cy="78.861008" r="11.272727" opacity="1.000000" style="stroke:black;stroke-width:0.5;fill:url(#radialffffffbfbfbf)"/>
<circle cx="327.241684" cy="78.864131" r="11.272727" opacity="1.000000" style="stroke:black;stroke-width:0.5;fill:url(#radialffffffbfbfbf)"/>
<circle cx="297.880450" cy="95.843181" r="27.636364" opacity="1.000000" style="stroke:black;stroke-width:0.5;fill:url(#radialffffff666666)"/>
<circle cx="297.880450" cy="139.288564" r="27.636364" opacity="1.000000" style="stroke:black;stroke-width:0.5;fill:url(#radialffffff666666)"/>
<circle cx="40.000000" cy="156.261368" r="11.272727" opacity="1.000000" style="stroke:black;stroke-width:0.5;fill:url(#radialffffffbfbfbf)"/>
<circle cx="107.101131" cy="74.064278" r="27.636364" opacity="1.000000" style="stroke:black;stroke-width:0.5;fill:url(#radialffffff666666)"/>
<circle cx="69.367480" cy="95.843181" r="27.636364" opacity="1.000000" style="stroke:black;stroke-width:0.5;fill:url(#radialffffff666666)"/>
<circle cx="69.364357" cy="139.285441" r="27.636364" opacity="1.000000" style="stroke:black;stroke-width:0.5;fill:url(#radialffffff666666)"/>
<circle cx="183.623965" cy="195.134868" r="11.272727" opacity="1.000000" style="stroke:black;stroke-width:0.5;fill:url(#radialffffffbfbfbf)"/>
<circle cx="106.357888" cy="40.093686" r="11.272727" opacity="1.000000" style="stroke:black;stroke-width:0.5;fill:url(#radialffffffbfbfbf)"/>
<circle cx="183.623965" cy="161.092450" r="27.636364" opacity="1.000000" style="stroke:black;stroke-width:0.5;fill:url(#radialffffff666666)"/>
<circle cx="107.098009" cy="161.067467" r="27.636364" opacity="1.000000" style="stroke:black;stroke-width:0.5;fill:url(#radialffffff666666)"/>
<circle cx="260.149922" cy="74.067401" r="27.636364" opacity="1.000000" style="stroke:black;stroke-width:0.5;fill:url(#radialffffff666666)"/>
<circle cx="260.149922" cy="161.064344" r="27.636364" opacity="1.000000" style="stroke:black;stroke-width:0.5;fill:url(#radialffffff666666)"/>
<circle cx="183.623965" cy="40.000000" r="11.272727" opacity="1.000000" style="stroke:black;stroke-width:0.5;fill:url(#radialffffffbfbfbf)"/>
<circle cx="106.351642" cy="195.041182" r="11.272727" opacity="1.000000" style="stroke:black;stroke-width:0.5;fill:url(#radialffffffbfbfbf)"/>
<circle cx="260.890042" cy="40.093686" r="11.272727" opacity="1.000000" style="stroke:black;stroke-width:0.5;fill:url(#radialffffffbfbfbf)"/>
<circle cx="260.893165" cy="195.038059" r="11.272727" opacity="1.000000" style="stroke:black;stroke-width:0.5;fill:url(#radialffffffbfbfbf)"/>
<circle cx="145.368794" cy="95.518403" r="27.636364" opacity="1.000000" style="stroke:black;stroke-width:0.5;fill:url(#radialffffff666666)"/>
<circle cx="145.365671" cy="139.616465" r="27.636364" opacity="1.000000" style="stroke:black;stroke-width:0.5;fill:url(#radialffffff666666)"/>
<circle cx="221.882259" cy="139.616465" r="27.636364" opacity="1.000000" style="stroke:black;stroke-width:0.5;fill:url(#radialffffff666666)"/>
<circle cx="183.623965" cy="74.042418" r="27.636364" opacity="1.000000" style="stroke:black;stroke-width:0.5;fill:url(#radialffffff666666)"/>
<circle cx="221.882259" cy="95.515280" r="27.636364" opacity="1.000000" style="stroke:black;stroke-width:0.5;fill:url(#radialffffff666666)"/>
</svg>
</g>
</svg>
