<?xml version="1.0"?>
<svg version="1.1" id="topsvg"
xmlns="http://www.w3.org/2000/svg" xmlns:xlink="http://www.w3.org/1999/xlink"
xmlns:cml="http://www.xml-cml.org/schema" x="0" y="0" width="1024px" height="1024px" viewBox="0 0 100 100">
<title>85926 - Open Babel Depiction</title>
<rect x="0" y="0" width="100" height="100" fill="white"/>
<defs>
<radialGradient id='radialffffff666666' cx='50%' cy='50%' r='50%' fx='30%' fy='30%'>
  <stop offset=' 0%' stop-color="rgb(255,255,255)"  stop-opacity='1.0'/>
  <stop offset='100%' stop-color="rgb(102,102,102)"  stop-opacity ='1.0'/>
</radialGradient>
<radialGradient id='radialffffffbfbfbf' cx='50%' cy='50%' r='50%' fx='30%' fy='30%'>
  <stop offset=' 0%' stop-color="rgb(255,255,255)"  stop-opacity='1.0'/>
  <stop offset='100%' stop-color="rgb(191,191,191)"  stop-opacity ='1.0'/>
</radialGradient>
</defs>
<g transform="translate(0,0)">
<svg width="100" height="100" x="0" y="0" viewBox="0 0 398.477 236.023"
font-family="sans-serif" stroke="rgb(0,0,0)" stroke-width="2"  stroke-linecap="round">
<line x1="174.2" y1="106.3" x2="126.9" y2="125.3" opacity="1.0" stroke="rgb(0,0,0)"  stroke-width="1.9"/>
<line x1="174.2" y1="106.3" x2="208.8" y2="134.9" opacity="0.6" stroke="rgb(0,0,0)"  stroke-width="1.7"/>
<line x1="174.2" y1="106.3" x2="175.6" y2="58.9" opacity="0.6" stroke="rgb(0,0,0)"  stroke-width="1.7"/>
<polygon points="174.212588 106.308655 182.207102 101.463447 183.027338 109.421286 " stroke-width="1.745793" fill="rgb(0,0,0)"  stroke="rgb(0,0,0)" />
<line x1="126.9" y1="125.3" x2="108.2" y2="124.5" opacity="0.6" stroke="rgb(0,0,0)"  stroke-width="1.3"/>
<line x1="126.9" y1="125.3" x2="124.7" y2="171.3" opacity="0.4" stroke="rgb(0,0,0)"  stroke-width="2.1"/>
<polygon points="126.913242 125.252584 103.141535 107.108308 108.802358 101.455426 " stroke-width="2.081650" fill="rgb(0,0,0)"  stroke="rgb(0,0,0)" />
<line x1="208.8" y1="134.9" x2="255.9" y2="119.7" opacity="0.7" stroke="rgb(0,0,0)"  stroke-width="1.5"/>
<line x1="208.8" y1="134.9" x2="202.6" y2="135.1" opacity="0.5" stroke="rgb(0,0,0)"  stroke-width="1.0"/>
<line x1="208.8" y1="134.9" x2="206.1" y2="168.8" opacity="0.3" stroke="rgb(0,0,0)"  stroke-width="1.5"/>
<line x1="108.2" y1="124.5" x2="61.4" y2="141.5" opacity="0.5" stroke="rgb(0,0,0)"  stroke-width="0.8"/>
<line x1="108.2" y1="124.5" x2="128.7" y2="143.9" opacity="0.3" stroke="rgb(0,0,0)"  stroke-width="0.6"/>
<line x1="108.2" y1="124.5" x2="108.3" y2="91.0" opacity="0.2" stroke="rgb(0,0,0)"  stroke-width="0.7"/>
<line x1="255.9" y1="119.7" x2="288.8" y2="150.4" opacity="0.2" stroke="rgb(0,0,0)"  stroke-width="1.3"/>
<line x1="255.9" y1="119.7" x2="262.1" y2="118.5" opacity="0.4" stroke="rgb(0,0,0)"  stroke-width="2.0"/>
<line x1="255.9" y1="119.7" x2="260.6" y2="86.7" opacity="0.7" stroke="rgb(0,0,0)"  stroke-width="1.4"/>
<line x1="175.6" y1="58.9" x2="205.5" y2="42.5" opacity="0.5" stroke="rgb(0,0,0)"  stroke-width="1.7"/>
<line x1="175.6" y1="58.9" x2="148.1" y2="40.0" opacity="0.6" stroke="rgb(0,0,0)"  stroke-width="1.7"/>
<line x1="175.6" y1="58.9" x2="174.5" y2="57.2" opacity="0.6" stroke="rgb(0,0,0)"  stroke-width="1.2"/>
<line x1="124.7" y1="171.3" x2="90.8" y2="180.5" opacity="0.4" stroke="rgb(0,0,0)"  stroke-width="2.4"/>
<line x1="124.7" y1="171.3" x2="138.3" y2="196.0" opacity="0.8" stroke="rgb(0,0,0)"  stroke-width="2.1"/>
<line x1="124.7" y1="171.3" x2="142.5" y2="172.8" opacity="0.7" stroke="rgb(0,0,0)"  stroke-width="2.7"/>
<line x1="288.8" y1="150.4" x2="335.5" y2="135.0" opacity="0.9" stroke="rgb(0,0,0)"  stroke-width="1.2"/>
<line x1="288.8" y1="150.4" x2="282.3" y2="152.1" opacity="0.4" stroke="rgb(0,0,0)"  stroke-width="0.7"/>
<line x1="288.8" y1="150.4" x2="285.2" y2="183.5" opacity="0.2" stroke="rgb(0,0,0)"  stroke-width="1.2"/>
<line x1="61.4" y1="141.5" x2="40.0" y2="124.2" opacity="0.4" stroke="rgb(0,0,0)"  stroke-width="1.0"/>
<line x1="61.4" y1="141.5" x2="48.7" y2="136.5" opacity="0.3" stroke="rgb(0,0,0)"  stroke-width="0.4"/>
<line x1="61.4" y1="141.5" x2="59.7" y2="176.5" opacity="0.1" stroke="rgb(0,0,0)"  stroke-width="0.8"/>
<line x1="335.5" y1="135.0" x2="343.4" y2="133.8" opacity="0.3" stroke="rgb(0,0,0)"  stroke-width="1.7"/>
<line x1="335.5" y1="135.0" x2="340.5" y2="102.3" opacity="0.6" stroke="rgb(0,0,0)"  stroke-width="1.1"/>
<line x1="335.5" y1="135.0" x2="358.5" y2="157.4" opacity="0.4" stroke="rgb(0,0,0)"  stroke-width="1.1"/>
<circle cx="48.675960" cy="136.471836" r="5.636364" opacity="0.200000" style="stroke:black;stroke-width:0.5;fill:url(#radialffffffbfbfbf)"/>
<circle cx="282.266536" cy="152.074834" r="5.636364" opacity="0.322325" style="stroke:black;stroke-width:0.5;fill:url(#radialffffffbfbfbf)"/>
<circle cx="128.688316" cy="143.941530" r="5.636364" opacity="0.323688" style="stroke:black;stroke-width:0.5;fill:url(#radialffffffbfbfbf)"/>
<circle cx="108.266794" cy="90.963909" r="5.636364" opacity="0.418727" style="stroke:black;stroke-width:0.5;fill:url(#radialffffffbfbfbf)"/>
<circle cx="202.646461" cy="135.144616" r="5.636364" opacity="0.453011" style="stroke:black;stroke-width:0.5;fill:url(#radialffffffbfbfbf)"/>
<circle cx="61.431648" cy="141.473425" r="13.818182" opacity="0.497425" style="stroke:black;stroke-width:0.5;fill:url(#radialffffff666666)"/>
<circle cx="174.519875" cy="57.172124" r="5.636364" opacity="0.503096" style="stroke:black;stroke-width:0.5;fill:url(#radialffffffbfbfbf)"/>
<circle cx="108.175261" cy="124.494173" r="13.818182" opacity="0.518962" style="stroke:black;stroke-width:0.5;fill:url(#radialffffff666666)"/>
<circle cx="59.659843" cy="176.510704" r="5.636364" opacity="0.547088" style="stroke:black;stroke-width:0.5;fill:url(#radialffffffbfbfbf)"/>
<circle cx="358.477030" cy="157.370634" r="5.636364" opacity="0.549675" style="stroke:black;stroke-width:0.5;fill:url(#radialffffffbfbfbf)"/>
<circle cx="340.520343" cy="102.340073" r="5.636364" opacity="0.563820" style="stroke:black;stroke-width:0.5;fill:url(#radialffffffbfbfbf)"/>
<circle cx="288.778409" cy="150.358602" r="13.818182" opacity="0.605989" style="stroke:black;stroke-width:0.5;fill:url(#radialffffff666666)"/>
<circle cx="40.000000" cy="124.177079" r="5.636364" opacity="0.646753" style="stroke:black;stroke-width:0.5;fill:url(#radialffffffbfbfbf)"/>
<circle cx="335.502409" cy="134.990973" r="13.818182" opacity="0.648697" style="stroke:black;stroke-width:0.5;fill:url(#radialffffff666666)"/>
<circle cx="260.606057" cy="86.655350" r="5.636364" opacity="0.659522" style="stroke:black;stroke-width:0.5;fill:url(#radialffffffbfbfbf)"/>
<circle cx="285.159612" cy="183.519467" r="5.636364" opacity="0.682036" style="stroke:black;stroke-width:0.5;fill:url(#radialffffffbfbfbf)"/>
<circle cx="208.772591" cy="134.873288" r="13.818182" opacity="0.685131" style="stroke:black;stroke-width:0.5;fill:url(#radialffffff666666)"/>
<circle cx="175.582304" cy="58.901432" r="14.381210" opacity="0.721369" style="stroke:black;stroke-width:0.5;fill:url(#radialffffff666666)"/>
<circle cx="255.852913" cy="119.744297" r="14.677932" opacity="0.728773" style="stroke:black;stroke-width:0.5;fill:url(#radialffffff666666)"/>
<circle cx="206.127960" cy="168.759875" r="6.240142" opacity="0.744017" style="stroke:black;stroke-width:0.5;fill:url(#radialffffffbfbfbf)"/>
<circle cx="205.503578" cy="42.497526" r="6.775822" opacity="0.775294" style="stroke:black;stroke-width:0.5;fill:url(#radialffffffbfbfbf)"/>
<circle cx="138.269793" cy="196.023441" r="6.795672" opacity="0.776429" style="stroke:black;stroke-width:0.5;fill:url(#radialffffffbfbfbf)"/>
<circle cx="148.112790" cy="40.000000" r="6.966605" opacity="0.786133" style="stroke:black;stroke-width:0.5;fill:url(#radialffffffbfbfbf)"/>
<circle cx="126.913242" cy="125.252584" r="17.129436" opacity="0.787283" style="stroke:black;stroke-width:0.5;fill:url(#radialffffff666666)"/>
<circle cx="174.212588" cy="106.308655" r="17.783711" opacity="0.802178" style="stroke:black;stroke-width:0.5;fill:url(#radialffffff666666)"/>
<circle cx="343.406881" cy="133.833742" r="7.685349" opacity="0.825691" style="stroke:black;stroke-width:0.5;fill:url(#radialffffffbfbfbf)"/>
<circle cx="124.719735" cy="171.329319" r="21.223386" opacity="0.876328" style="stroke:black;stroke-width:0.5;fill:url(#radialffffff666666)"/>
<circle cx="105.971947" cy="104.281867" r="8.701019" opacity="0.878558" style="stroke:black;stroke-width:0.5;fill:url(#radialffffffbfbfbf)"/>
<circle cx="262.135955" cy="118.538032" r="8.961554" opacity="0.891615" style="stroke:black;stroke-width:0.5;fill:url(#radialffffffbfbfbf)"/>
<circle cx="90.849494" cy="180.538128" r="9.250485" opacity="0.905874" style="stroke:black;stroke-width:0.5;fill:url(#radialffffffbfbfbf)"/>
<circle cx="182.617220" cy="105.442366" r="10.199160" opacity="0.951191" style="stroke:black;stroke-width:0.5;fill:url(#radialffffffbfbfbf)"/>
<circle cx="142.535854" cy="172.849410" r="11.272727" opacity="1.000000" style="stroke:black;stroke-width:0.5;fill:url(#radialffffffbfbfbf)"/>
</svg>
</g>
</svg>
