<?xml version="1.0"?>
<svg version="1.1" id="topsvg"
xmlns="http://www.w3.org/2000/svg" xmlns:xlink="http://www.w3.org/1999/xlink"
xmlns:cml="http://www.xml-cml.org/schema" x="0" y="0" width="200px" height="200px" viewBox="0 0 100 100">
<title>86067 - Open Babel Depiction</title>
<rect x="0" y="0" width="100" height="100" fill="white"/>
<defs>
<radialGradient id='radialffffff666666' cx='50%' cy='50%' r='50%' fx='30%' fy='30%'>
  <stop offset=' 0%' stop-color="rgb(255,255,255)"  stop-opacity='1.0'/>
  <stop offset='100%' stop-color="rgb(102,102,102)"  stop-opacity ='1.0'/>
</radialGradient>
<radialGradient id='radialffffffbfbfbf' cx='50%' cy='50%' r='50%' fx='30%' fy='30%'>
  <stop offset=' 0%' stop-color="rgb(255,255,255)"  stop-opacity='1.0'/>
  <stop offset='100%' stop-color="rgb(191,191,191)"  stop-opacity ='1.0'/>
</radialGradient>
</defs>
<g transform="translate(0,0)">
<svg width="100" height="100" x="0" y="0" viewBox="0 0 347.423 272.643"
font-family="sans-serif" stroke="rgb(0,0,0)" stroke-width="4"  stroke-linecap="round">
<line x1="194.7" y1="122.5" x2="236.3" y2="103.7" opacity="1.0" stroke="rgb(0,0,0)"  stroke-width="1.5"/>
<line x1="194.7" y1="122.5" x2="152.2" y2="105.0" opacity="0.5" stroke="rgb(0,0,0)"  stroke-width="1.5"/>
<line x1="194.7" y1="122.5" x2="195.2" y2="173.1" opacity="0.5" stroke="rgb(0,0,0)"  stroke-width="1.1"/>
<line x1="194.0" y1="120.0" x2="195.6" y2="120.0" opacity="0.4" stroke="rgb(0,0,0)"  stroke-width="1.0"/>
<line x1="193.4" y1="118.0" x2="196.3" y2="118.1" opacity="0.4" stroke="rgb(0,0,0)"  stroke-width="1.0"/>
<line x1="192.8" y1="116.0" x2="197.0" y2="116.1" opacity="0.4" stroke="rgb(0,0,0)"  stroke-width="1.0"/>
<line x1="192.2" y1="114.0" x2="197.7" y2="114.1" opacity="0.4" stroke="rgb(0,0,0)"  stroke-width="1.0"/>
<line x1="191.6" y1="112.0" x2="198.4" y2="112.2" opacity="0.4" stroke="rgb(0,0,0)"  stroke-width="1.0"/>
<line x1="191.1" y1="110.0" x2="199.1" y2="110.2" opacity="0.4" stroke="rgb(0,0,0)"  stroke-width="1.0"/>
<line x1="236.3" y1="103.7" x2="236.7" y2="53.5" opacity="0.4" stroke="rgb(0,0,0)"  stroke-width="1.9"/>
<line x1="236.3" y1="103.7" x2="279.0" y2="119.5" opacity="0.6" stroke="rgb(0,0,0)"  stroke-width="1.5"/>
<line x1="236.3" y1="103.7" x2="236.5" y2="114.7" opacity="0.5" stroke="rgb(0,0,0)"  stroke-width="2.4"/>
<line x1="152.2" y1="105.0" x2="109.8" y2="119.5" opacity="0.8" stroke="rgb(0,0,0)"  stroke-width="1.4"/>
<line x1="152.2" y1="105.0" x2="151.2" y2="114.3" opacity="0.5" stroke="rgb(0,0,0)"  stroke-width="2.3"/>
<line x1="152.2" y1="105.0" x2="152.4" y2="69.1" opacity="0.8" stroke="rgb(0,0,0)"  stroke-width="1.8"/>
<line x1="195.2" y1="173.1" x2="194.8" y2="197.3" opacity="0.6" stroke="rgb(0,0,0)"  stroke-width="1.7"/>
<line x1="195.2" y1="173.1" x2="167.1" y2="184.1" opacity="0.6" stroke="rgb(0,0,0)"  stroke-width="0.7"/>
<line x1="195.2" y1="173.1" x2="223.8" y2="183.6" opacity="0.2" stroke="rgb(0,0,0)"  stroke-width="0.7"/>
<line x1="109.8" y1="119.5" x2="69.9" y2="98.5" opacity="0.2" stroke="rgb(0,0,0)"  stroke-width="1.4"/>
<line x1="109.8" y1="119.5" x2="106.0" y2="155.1" opacity="0.5" stroke="rgb(0,0,0)"  stroke-width="1.1"/>
<line x1="109.8" y1="119.5" x2="110.9" y2="110.8" opacity="0.4" stroke="rgb(0,0,0)"  stroke-width="0.5"/>
<line x1="236.7" y1="53.5" x2="211.3" y2="40.3" opacity="0.2" stroke="rgb(0,0,0)"  stroke-width="2.2"/>
<line x1="236.7" y1="53.5" x2="232.1" y2="40.0" opacity="0.7" stroke="rgb(0,0,0)"  stroke-width="1.4"/>
<line x1="236.7" y1="53.5" x2="267.9" y2="41.1" opacity="0.5" stroke="rgb(0,0,0)"  stroke-width="2.1"/>
<line x1="279.0" y1="119.5" x2="279.4" y2="112.0" opacity="0.7" stroke="rgb(0,0,0)"  stroke-width="0.6"/>
<line x1="279.0" y1="119.5" x2="307.4" y2="103.6" opacity="0.2" stroke="rgb(0,0,0)"  stroke-width="1.4"/>
<line x1="279.0" y1="119.5" x2="283.5" y2="154.7" opacity="0.5" stroke="rgb(0,0,0)"  stroke-width="1.3"/>
<line x1="194.8" y1="197.3" x2="165.5" y2="189.6" opacity="0.4" stroke="rgb(0,0,0)"  stroke-width="2.7"/>
<line x1="194.8" y1="197.3" x2="223.7" y2="189.5" opacity="0.9" stroke="rgb(0,0,0)"  stroke-width="2.7"/>
<line x1="194.8" y1="197.3" x2="195.0" y2="232.6" opacity="0.9" stroke="rgb(0,0,0)"  stroke-width="2.3"/>
<line x1="69.9" y1="98.5" x2="71.4" y2="62.8" opacity="0.8" stroke="rgb(0,0,0)"  stroke-width="1.7"/>
<line x1="69.9" y1="98.5" x2="40.0" y2="109.4" opacity="0.6" stroke="rgb(0,0,0)"  stroke-width="1.5"/>
<line x1="69.9" y1="98.5" x2="67.4" y2="107.4" opacity="0.5" stroke="rgb(0,0,0)"  stroke-width="2.3"/>
<circle cx="110.931371" cy="110.767723" r="5.636364" opacity="0.200000" style="stroke:black;stroke-width:0.5;fill:url(#radialffffffbfbfbf)"/>
<circle cx="195.056002" cy="110.090222" r="5.636364" opacity="0.200000" style="stroke:black;stroke-width:0.5;fill:url(#radialffffffbfbfbf)"/>
<circle cx="279.419559" cy="112.047446" r="5.636364" opacity="0.200000" style="stroke:black;stroke-width:0.5;fill:url(#radialffffffbfbfbf)"/>
<circle cx="167.131193" cy="184.081801" r="5.636364" opacity="0.365926" style="stroke:black;stroke-width:0.5;fill:url(#radialffffffbfbfbf)"/>
<circle cx="223.812140" cy="183.643226" r="5.636364" opacity="0.375307" style="stroke:black;stroke-width:0.5;fill:url(#radialffffffbfbfbf)"/>
<circle cx="232.063247" cy="40.000000" r="5.636364" opacity="0.530668" style="stroke:black;stroke-width:0.5;fill:url(#radialffffffbfbfbf)"/>
<circle cx="195.164009" cy="173.081416" r="13.818182" opacity="0.581194" style="stroke:black;stroke-width:0.5;fill:url(#radialffffff666666)"/>
<circle cx="109.834932" cy="119.503226" r="13.818182" opacity="0.603232" style="stroke:black;stroke-width:0.5;fill:url(#radialffffff666666)"/>
<circle cx="194.699251" cy="122.504521" r="13.818182" opacity="0.612558" style="stroke:black;stroke-width:0.5;fill:url(#radialffffff666666)"/>
<circle cx="106.012127" cy="155.057281" r="5.636364" opacity="0.621303" style="stroke:black;stroke-width:0.5;fill:url(#radialffffffbfbfbf)"/>
<circle cx="278.971165" cy="119.467224" r="13.818182" opacity="0.629056" style="stroke:black;stroke-width:0.5;fill:url(#radialffffff666666)"/>
<circle cx="40.000000" cy="109.422541" r="5.636364" opacity="0.641885" style="stroke:black;stroke-width:0.5;fill:url(#radialffffffbfbfbf)"/>
<circle cx="283.546749" cy="154.726713" r="5.636364" opacity="0.662862" style="stroke:black;stroke-width:0.5;fill:url(#radialffffffbfbfbf)"/>
<circle cx="307.422919" cy="103.616327" r="6.231606" opacity="0.743508" style="stroke:black;stroke-width:0.5;fill:url(#radialffffffbfbfbf)"/>
<circle cx="71.400681" cy="62.750275" r="6.303815" opacity="0.747803" style="stroke:black;stroke-width:0.5;fill:url(#radialffffffbfbfbf)"/>
<circle cx="69.882033" cy="98.467977" r="16.143696" opacity="0.764295" style="stroke:black;stroke-width:0.5;fill:url(#radialffffff666666)"/>
<circle cx="152.438921" cy="69.116162" r="6.676445" opacity="0.769588" style="stroke:black;stroke-width:0.5;fill:url(#radialffffffbfbfbf)"/>
<circle cx="152.173812" cy="104.958237" r="16.595261" opacity="0.774911" style="stroke:black;stroke-width:0.5;fill:url(#radialffffff666666)"/>
<circle cx="236.298444" cy="103.724335" r="17.102680" opacity="0.786668" style="stroke:black;stroke-width:0.5;fill:url(#radialffffff666666)"/>
<circle cx="236.740292" cy="53.468189" r="17.294856" opacity="0.791076" style="stroke:black;stroke-width:0.5;fill:url(#radialffffff666666)"/>
<circle cx="194.983997" cy="232.642559" r="8.266203" opacity="0.856325" style="stroke:black;stroke-width:0.5;fill:url(#radialffffffbfbfbf)"/>
<circle cx="267.934778" cy="41.083346" r="8.545772" opacity="0.870685" style="stroke:black;stroke-width:0.5;fill:url(#radialffffffbfbfbf)"/>
<circle cx="194.817077" cy="197.268516" r="21.936417" opacity="0.890928" style="stroke:black;stroke-width:0.5;fill:url(#radialffffff666666)"/>
<circle cx="211.253831" cy="40.330568" r="9.583730" opacity="0.922046" style="stroke:black;stroke-width:0.5;fill:url(#radialffffffbfbfbf)"/>
<circle cx="67.437139" cy="107.360582" r="10.669183" opacity="0.972862" style="stroke:black;stroke-width:0.5;fill:url(#radialffffffbfbfbf)"/>
<circle cx="151.231203" cy="114.325420" r="10.855305" opacity="0.981311" style="stroke:black;stroke-width:0.5;fill:url(#radialffffffbfbfbf)"/>
<circle cx="236.485002" cy="114.678898" r="11.010535" opacity="0.988302" style="stroke:black;stroke-width:0.5;fill:url(#radialffffffbfbfbf)"/>
<circle cx="165.530721" cy="189.626178" r="11.201677" opacity="0.996844" style="stroke:black;stroke-width:0.5;fill:url(#radialffffffbfbfbf)"/>
<circle cx="223.651766" cy="189.465804" r="11.272727" opacity="1.000000" style="stroke:black;stroke-width:0.5;fill:url(#radialffffffbfbfbf)"/>
</svg>
</g>
</svg>
