<?xml version="1.0"?>
<svg version="1.1" id="topsvg"
xmlns="http://www.w3.org/2000/svg" xmlns:xlink="http://www.w3.org/1999/xlink"
xmlns:cml="http://www.xml-cml.org/schema" x="0" y="0" width="200px" height="200px" viewBox="0 0 100 100">
<title>86544 - Open Babel Depiction</title>
<rect x="0" y="0" width="100" height="100" fill="white"/>
<defs>
<radialGradient id='radialffffff666666' cx='50%' cy='50%' r='50%' fx='30%' fy='30%'>
  <stop offset=' 0%' stop-color="rgb(255,255,255)"  stop-opacity='1.0'/>
  <stop offset='100%' stop-color="rgb(102,102,102)"  stop-opacity ='1.0'/>
</radialGradient>
<radialGradient id='radialffffffbfbfbf' cx='50%' cy='50%' r='50%' fx='30%' fy='30%'>
  <stop offset=' 0%' stop-color="rgb(255,255,255)"  stop-opacity='1.0'/>
  <stop offset='100%' stop-color="rgb(191,191,191)"  stop-opacity ='1.0'/>
</radialGradient>
</defs>
<g transform="translate(0,0)">
<svg width="100" height="100" x="0" y="0" viewBox="0 0 482.451 240.184"
font-family="sans-serif" stroke="rgb(0,0,0)" stroke-width="4"  stroke-linecap="round">
<line x1="359.1" y1="133.0" x2="318.0" y2="109.3" opacity="1.0" stroke="rgb(0,0,0)"  stroke-width="1.3"/>
<line x1="359.1" y1="133.0" x2="402.2" y2="108.5" opacity="0.4" stroke="rgb(0,0,0)"  stroke-width="1.2"/>
<line x1="359.1" y1="133.0" x2="361.0" y2="180.3" opacity="0.4" stroke="rgb(0,0,0)"  stroke-width="1.2"/>
<line x1="359.0" y1="133.9" x2="358.2" y2="132.5" opacity="0.4" stroke="rgb(0,0,0)"  stroke-width="1.0"/>
<line x1="358.9" y1="134.7" x2="357.6" y2="132.1" opacity="0.4" stroke="rgb(0,0,0)"  stroke-width="1.0"/>
<line x1="358.8" y1="135.4" x2="356.9" y2="131.7" opacity="0.4" stroke="rgb(0,0,0)"  stroke-width="1.0"/>
<line x1="358.7" y1="136.2" x2="356.3" y2="131.3" opacity="0.4" stroke="rgb(0,0,0)"  stroke-width="1.0"/>
<line x1="358.6" y1="136.9" x2="355.6" y2="130.9" opacity="0.4" stroke="rgb(0,0,0)"  stroke-width="1.0"/>
<line x1="358.5" y1="137.7" x2="355.0" y2="130.5" opacity="0.4" stroke="rgb(0,0,0)"  stroke-width="1.0"/>
<line x1="318.0" y1="109.3" x2="275.2" y2="130.6" opacity="0.4" stroke="rgb(0,0,0)"  stroke-width="1.3"/>
<line x1="318.0" y1="109.3" x2="318.5" y2="108.3" opacity="0.4" stroke="rgb(0,0,0)"  stroke-width="1.9"/>
<line x1="318.0" y1="109.3" x2="317.9" y2="75.5" opacity="0.6" stroke="rgb(0,0,0)"  stroke-width="1.3"/>
<line x1="402.2" y1="108.5" x2="404.3" y2="62.0" opacity="0.4" stroke="rgb(0,0,0)"  stroke-width="1.1"/>
<line x1="402.2" y1="108.5" x2="411.3" y2="108.0" opacity="0.4" stroke="rgb(0,0,0)"  stroke-width="1.9"/>
<line x1="402.2" y1="108.5" x2="428.9" y2="126.7" opacity="0.6" stroke="rgb(0,0,0)"  stroke-width="1.1"/>
<line x1="275.2" y1="130.6" x2="235.6" y2="105.2" opacity="0.4" stroke="rgb(0,0,0)"  stroke-width="1.3"/>
<line x1="275.2" y1="130.6" x2="274.2" y2="132.1" opacity="0.4" stroke="rgb(0,0,0)"  stroke-width="0.7"/>
<line x1="275.2" y1="130.6" x2="273.2" y2="164.2" opacity="0.2" stroke="rgb(0,0,0)"  stroke-width="1.3"/>
<line x1="235.6" y1="105.2" x2="192.9" y2="127.1" opacity="0.4" stroke="rgb(0,0,0)"  stroke-width="1.4"/>
<line x1="235.6" y1="105.2" x2="236.5" y2="71.7" opacity="0.5" stroke="rgb(0,0,0)"  stroke-width="1.4"/>
<line x1="235.6" y1="105.2" x2="236.9" y2="103.2" opacity="0.5" stroke="rgb(0,0,0)"  stroke-width="2.0"/>
<line x1="361.0" y1="180.3" x2="335.9" y2="200.2" opacity="0.7" stroke="rgb(0,0,0)"  stroke-width="1.2"/>
<line x1="361.0" y1="180.3" x2="392.5" y2="195.3" opacity="0.4" stroke="rgb(0,0,0)"  stroke-width="1.3"/>
<line x1="361.0" y1="180.3" x2="356.0" y2="182.6" opacity="0.4" stroke="rgb(0,0,0)"  stroke-width="1.9"/>
<line x1="192.9" y1="127.1" x2="152.2" y2="103.6" opacity="0.6" stroke="rgb(0,0,0)"  stroke-width="1.4"/>
<line x1="192.9" y1="127.1" x2="191.5" y2="128.8" opacity="0.5" stroke="rgb(0,0,0)"  stroke-width="0.7"/>
<line x1="192.9" y1="127.1" x2="192.6" y2="160.8" opacity="0.2" stroke="rgb(0,0,0)"  stroke-width="1.3"/>
<line x1="404.3" y1="62.0" x2="396.2" y2="61.5" opacity="0.4" stroke="rgb(0,0,0)"  stroke-width="0.4"/>
<line x1="404.3" y1="62.0" x2="382.0" y2="40.0" opacity="0.1" stroke="rgb(0,0,0)"  stroke-width="1.1"/>
<line x1="404.3" y1="62.0" x2="437.3" y2="48.7" opacity="0.4" stroke="rgb(0,0,0)"  stroke-width="0.9"/>
<line x1="411.3" y1="108.0" x2="386.1" y2="90.4" opacity="0.3" stroke="rgb(0,0,0)"  stroke-width="2.8"/>
<line x1="411.3" y1="108.0" x2="414.0" y2="140.9" opacity="0.9" stroke="rgb(0,0,0)"  stroke-width="2.7"/>
<line x1="411.3" y1="108.0" x2="442.5" y2="91.6" opacity="0.9" stroke="rgb(0,0,0)"  stroke-width="2.6"/>
<line x1="152.2" y1="103.6" x2="109.5" y2="125.9" opacity="0.9" stroke="rgb(0,0,0)"  stroke-width="1.4"/>
<line x1="152.2" y1="103.6" x2="152.2" y2="70.0" opacity="0.5" stroke="rgb(0,0,0)"  stroke-width="1.4"/>
<line x1="152.2" y1="103.6" x2="153.9" y2="101.5" opacity="0.5" stroke="rgb(0,0,0)"  stroke-width="2.0"/>
<line x1="109.5" y1="125.9" x2="70.2" y2="101.6" opacity="0.7" stroke="rgb(0,0,0)"  stroke-width="1.5"/>
<line x1="109.5" y1="125.9" x2="107.2" y2="127.6" opacity="0.5" stroke="rgb(0,0,0)"  stroke-width="0.8"/>
<line x1="109.5" y1="125.9" x2="109.2" y2="159.5" opacity="0.3" stroke="rgb(0,0,0)"  stroke-width="1.4"/>
<line x1="70.2" y1="101.6" x2="69.1" y2="68.1" opacity="0.5" stroke="rgb(0,0,0)"  stroke-width="1.6"/>
<line x1="70.2" y1="101.6" x2="40.0" y2="118.0" opacity="0.5" stroke="rgb(0,0,0)"  stroke-width="1.6"/>
<line x1="70.2" y1="101.6" x2="71.0" y2="100.2" opacity="0.5" stroke="rgb(0,0,0)"  stroke-width="2.2"/>
<circle cx="396.232661" cy="61.453747" r="5.636364" opacity="0.200000" style="stroke:black;stroke-width:0.5;fill:url(#radialffffffbfbfbf)"/>
<circle cx="356.759986" cy="134.090516" r="5.636364" opacity="0.223214" style="stroke:black;stroke-width:0.5;fill:url(#radialffffffbfbfbf)"/>
<circle cx="274.249339" cy="132.084426" r="5.636364" opacity="0.263379" style="stroke:black;stroke-width:0.5;fill:url(#radialffffffbfbfbf)"/>
<circle cx="191.481000" cy="128.780085" r="5.636364" opacity="0.308002" style="stroke:black;stroke-width:0.5;fill:url(#radialffffffbfbfbf)"/>
<circle cx="107.205647" cy="127.586217" r="5.636364" opacity="0.356172" style="stroke:black;stroke-width:0.5;fill:url(#radialffffffbfbfbf)"/>
<circle cx="404.325522" cy="61.972394" r="13.818182" opacity="0.538345" style="stroke:black;stroke-width:0.5;fill:url(#radialffffff666666)"/>
<circle cx="428.897678" cy="126.705495" r="5.636364" opacity="0.557055" style="stroke:black;stroke-width:0.5;fill:url(#radialffffffbfbfbf)"/>
<circle cx="437.290637" cy="48.670223" r="5.636364" opacity="0.566058" style="stroke:black;stroke-width:0.5;fill:url(#radialffffffbfbfbf)"/>
<circle cx="359.053126" cy="132.952100" r="13.818182" opacity="0.589695" style="stroke:black;stroke-width:0.5;fill:url(#radialffffff666666)"/>
<circle cx="335.896649" cy="200.183843" r="5.636364" opacity="0.592018" style="stroke:black;stroke-width:0.5;fill:url(#radialffffffbfbfbf)"/>
<circle cx="275.182253" cy="130.610031" r="13.818182" opacity="0.605837" style="stroke:black;stroke-width:0.5;fill:url(#radialffffff666666)"/>
<circle cx="192.890156" cy="127.106713" r="13.818182" opacity="0.626527" style="stroke:black;stroke-width:0.5;fill:url(#radialffffff666666)"/>
<circle cx="317.913601" cy="75.473543" r="5.636364" opacity="0.629319" style="stroke:black;stroke-width:0.5;fill:url(#radialffffffbfbfbf)"/>
<circle cx="236.459822" cy="71.732104" r="5.636364" opacity="0.634952" style="stroke:black;stroke-width:0.5;fill:url(#radialffffffbfbfbf)"/>
<circle cx="392.468388" cy="195.297464" r="5.636364" opacity="0.645460" style="stroke:black;stroke-width:0.5;fill:url(#radialffffffbfbfbf)"/>
<circle cx="109.521621" cy="125.903059" r="13.818182" opacity="0.651016" style="stroke:black;stroke-width:0.5;fill:url(#radialffffff666666)"/>
<circle cx="152.194255" cy="69.980445" r="5.636364" opacity="0.656215" style="stroke:black;stroke-width:0.5;fill:url(#radialffffffbfbfbf)"/>
<circle cx="381.987791" cy="40.000000" r="5.636364" opacity="0.657498" style="stroke:black;stroke-width:0.5;fill:url(#radialffffffbfbfbf)"/>
<circle cx="402.198740" cy="108.516945" r="13.818182" opacity="0.663096" style="stroke:black;stroke-width:0.5;fill:url(#radialffffff666666)"/>
<circle cx="273.238139" cy="164.155771" r="5.636364" opacity="0.684279" style="stroke:black;stroke-width:0.5;fill:url(#radialffffffbfbfbf)"/>
<circle cx="69.054055" cy="68.111356" r="5.636364" opacity="0.684795" style="stroke:black;stroke-width:0.5;fill:url(#radialffffffbfbfbf)"/>
<circle cx="361.003763" cy="180.321921" r="13.818182" opacity="0.694530" style="stroke:black;stroke-width:0.5;fill:url(#radialffffff666666)"/>
<circle cx="317.965792" cy="109.348738" r="13.818182" opacity="0.700609" style="stroke:black;stroke-width:0.5;fill:url(#radialffffff666666)"/>
<circle cx="40.000000" cy="118.005914" r="5.636364" opacity="0.701152" style="stroke:black;stroke-width:0.5;fill:url(#radialffffffbfbfbf)"/>
<circle cx="192.557439" cy="160.844907" r="5.636364" opacity="0.701385" style="stroke:black;stroke-width:0.5;fill:url(#radialffffffbfbfbf)"/>
<circle cx="235.582362" cy="105.225653" r="14.027395" opacity="0.712440" style="stroke:black;stroke-width:0.5;fill:url(#radialffffff666666)"/>
<circle cx="109.169332" cy="159.487942" r="5.928837" opacity="0.725221" style="stroke:black;stroke-width:0.5;fill:url(#radialffffffbfbfbf)"/>
<circle cx="152.168159" cy="103.591423" r="14.729778" opacity="0.730058" style="stroke:black;stroke-width:0.5;fill:url(#radialffffff666666)"/>
<circle cx="70.153327" cy="101.559238" r="15.828051" opacity="0.756786" style="stroke:black;stroke-width:0.5;fill:url(#radialffffff666666)"/>
<circle cx="355.951026" cy="182.605275" r="8.751232" opacity="0.881090" style="stroke:black;stroke-width:0.5;fill:url(#radialffffffbfbfbf)"/>
<circle cx="318.474654" cy="108.314705" r="8.890652" opacity="0.888080" style="stroke:black;stroke-width:0.5;fill:url(#radialffffffbfbfbf)"/>
<circle cx="236.916493" cy="103.209777" r="9.074195" opacity="0.897201" style="stroke:black;stroke-width:0.5;fill:url(#radialffffffbfbfbf)"/>
<circle cx="153.870889" cy="101.520094" r="9.361000" opacity="0.911269" style="stroke:black;stroke-width:0.5;fill:url(#radialffffffbfbfbf)"/>
<circle cx="411.332158" cy="107.981988" r="23.471640" opacity="0.921576" style="stroke:black;stroke-width:0.5;fill:url(#radialffffff666666)"/>
<circle cx="71.030788" cy="100.228368" r="9.807141" opacity="0.932732" style="stroke:black;stroke-width:0.5;fill:url(#radialffffffbfbfbf)"/>
<circle cx="442.451018" cy="91.646217" r="10.191386" opacity="0.950828" style="stroke:black;stroke-width:0.5;fill:url(#radialffffffbfbfbf)"/>
<circle cx="413.984112" cy="140.911222" r="10.838536" opacity="0.980552" style="stroke:black;stroke-width:0.5;fill:url(#radialffffffbfbfbf)"/>
<circle cx="386.107615" cy="90.361015" r="11.272727" opacity="1.000000" style="stroke:black;stroke-width:0.5;fill:url(#radialffffffbfbfbf)"/>
</svg>
</g>
</svg>
