<?xml version="1.0"?>
<svg version="1.1" id="topsvg"
xmlns="http://www.w3.org/2000/svg" xmlns:xlink="http://www.w3.org/1999/xlink"
xmlns:cml="http://www.xml-cml.org/schema" x="0" y="0" width="200px" height="200px" viewBox="0 0 100 100">
<title>8680 - Open Babel Depiction</title>
<rect x="0" y="0" width="100" height="100" fill="white"/>
<defs>
<radialGradient id='radialffffff666666' cx='50%' cy='50%' r='50%' fx='30%' fy='30%'>
  <stop offset=' 0%' stop-color="rgb(255,255,255)"  stop-opacity='1.0'/>
  <stop offset='100%' stop-color="rgb(102,102,102)"  stop-opacity ='1.0'/>
</radialGradient>
<radialGradient id='radialffffffbfbfbf' cx='50%' cy='50%' r='50%' fx='30%' fy='30%'>
  <stop offset=' 0%' stop-color="rgb(255,255,255)"  stop-opacity='1.0'/>
  <stop offset='100%' stop-color="rgb(191,191,191)"  stop-opacity ='1.0'/>
</radialGradient>
</defs>
<g transform="translate(0,0)">
<svg width="100" height="100" x="0" y="0" viewBox="0 0 311.536 244.416"
font-family="sans-serif" stroke="rgb(0,0,0)" stroke-width="2"  stroke-linecap="round">
<line x1="207.9" y1="139.2" x2="238.1" y2="100.5" opacity="1.0" stroke="rgb(0,0,0)"  stroke-width="1.5"/>
<line x1="207.9" y1="139.2" x2="160.4" y2="127.4" opacity="0.5" stroke="rgb(0,0,0)"  stroke-width="1.6"/>
<line x1="207.9" y1="139.2" x2="218.3" y2="176.1" opacity="0.5" stroke="rgb(0,0,0)"  stroke-width="1.2"/>
<polygon points="207.936254 139.174191 218.245103 148.781287 211.354004 152.844876 " stroke-width="1.202183" fill="rgb(0,0,0)"  stroke="rgb(0,0,0)" />
<line x1="238.1" y1="100.5" x2="233.5" y2="64.9" opacity="0.4" stroke="rgb(0,0,0)"  stroke-width="1.8"/>
<line x1="238.1" y1="100.5" x2="234.7" y2="87.1" opacity="0.6" stroke="rgb(0,0,0)"  stroke-width="1.0"/>
<line x1="238.1" y1="100.5" x2="271.5" y2="112.1" opacity="0.3" stroke="rgb(0,0,0)"  stroke-width="1.4"/>
<line x1="218.3" y1="176.1" x2="212.6" y2="166.5" opacity="0.5" stroke="rgb(0,0,0)"  stroke-width="0.4"/>
<line x1="218.3" y1="176.1" x2="252.1" y2="185.9" opacity="0.1" stroke="rgb(0,0,0)"  stroke-width="0.9"/>
<line x1="218.3" y1="176.1" x2="198.3" y2="204.4" opacity="0.3" stroke="rgb(0,0,0)"  stroke-width="0.9"/>
<line x1="233.5" y1="64.9" x2="258.0" y2="40.0" opacity="0.3" stroke="rgb(0,0,0)"  stroke-width="2.1"/>
<line x1="233.5" y1="64.9" x2="202.0" y2="49.1" opacity="0.7" stroke="rgb(0,0,0)"  stroke-width="2.2"/>
<line x1="233.5" y1="64.9" x2="238.1" y2="77.6" opacity="0.7" stroke="rgb(0,0,0)"  stroke-width="2.6"/>
<line x1="147.3" y1="96.3" x2="169.1" y2="80.1" opacity="0.9" stroke="rgb(0,0,0)"  stroke-width="0.5"/>
<line x1="131.6" y1="148.2" x2="142.1" y2="172.7" opacity="0.2" stroke="rgb(0,0,0)"  stroke-width="2.5"/>
<line x1="103.7" y1="85.5" x2="92.7" y2="61.2" opacity="0.8" stroke="rgb(0,0,0)"  stroke-width="0.5"/>
<line x1="87.9" y1="137.5" x2="64.8" y2="153.5" opacity="0.2" stroke="rgb(0,0,0)"  stroke-width="2.4"/>
<line x1="74.0" y1="106.1" x2="40.0" y2="97.7" opacity="0.8" stroke="rgb(0,0,0)"  stroke-width="1.4"/>
<line x1="158.7" y1="125.0" x2="129.8" y2="145.8" opacity="0.6" stroke="rgb(0,0,0)"  stroke-width="1.9"/>
<line x1="162.2" y1="129.9" x2="133.3" y2="150.7" opacity="0.6" stroke="rgb(0,0,0)"  stroke-width="1.9" stroke-dasharray="5.0,5.0"/>
<line x1="132.3" y1="145.3" x2="88.7" y2="134.5" opacity="0.7" stroke="rgb(0,0,0)"  stroke-width="2.2"/>
<line x1="130.9" y1="151.2" x2="87.2" y2="140.4" opacity="0.7" stroke="rgb(0,0,0)"  stroke-width="2.2" stroke-dasharray="5.0,5.0"/>
<line x1="90.7" y1="136.2" x2="76.7" y2="104.9" opacity="0.6" stroke="rgb(0,0,0)"  stroke-width="1.8"/>
<line x1="85.2" y1="138.7" x2="71.2" y2="107.3" opacity="0.6" stroke="rgb(0,0,0)"  stroke-width="1.8" stroke-dasharray="5.0,5.0"/>
<line x1="75.7" y1="108.5" x2="105.4" y2="88.0" opacity="0.4" stroke="rgb(0,0,0)"  stroke-width="1.1"/>
<line x1="72.3" y1="103.6" x2="102.0" y2="83.0" opacity="0.4" stroke="rgb(0,0,0)"  stroke-width="1.1" stroke-dasharray="5.0,5.0"/>
<line x1="102.9" y1="88.4" x2="146.6" y2="99.2" opacity="0.3" stroke="rgb(0,0,0)"  stroke-width="0.8"/>
<line x1="104.4" y1="82.6" x2="148.0" y2="93.4" opacity="0.3" stroke="rgb(0,0,0)"  stroke-width="0.8" stroke-dasharray="5.0,5.0"/>
<line x1="144.5" y1="97.4" x2="157.6" y2="128.6" opacity="0.4" stroke="rgb(0,0,0)"  stroke-width="1.2"/>
<line x1="150.1" y1="95.1" x2="163.2" y2="126.3" opacity="0.4" stroke="rgb(0,0,0)"  stroke-width="1.2" stroke-dasharray="5.0,5.0"/>
<circle cx="212.573095" cy="166.482184" r="5.636364" opacity="0.200000" style="stroke:black;stroke-width:0.5;fill:url(#radialffffffbfbfbf)"/>
<circle cx="92.744471" cy="61.219114" r="5.636364" opacity="0.260303" style="stroke:black;stroke-width:0.5;fill:url(#radialffffffbfbfbf)"/>
<circle cx="169.108760" cy="80.147236" r="5.636364" opacity="0.303458" style="stroke:black;stroke-width:0.5;fill:url(#radialffffffbfbfbf)"/>
<circle cx="234.682793" cy="87.129925" r="5.636364" opacity="0.442477" style="stroke:black;stroke-width:0.5;fill:url(#radialffffffbfbfbf)"/>
<circle cx="103.663797" cy="85.493962" r="13.818182" opacity="0.503365" style="stroke:black;stroke-width:0.5;fill:url(#radialffffff666666)"/>
<circle cx="147.305603" cy="96.280990" r="13.818182" opacity="0.521212" style="stroke:black;stroke-width:0.5;fill:url(#radialffffff666666)"/>
<circle cx="218.316712" cy="176.052728" r="13.818182" opacity="0.522697" style="stroke:black;stroke-width:0.5;fill:url(#radialffffff666666)"/>
<circle cx="252.145969" cy="185.852371" r="5.636364" opacity="0.544967" style="stroke:black;stroke-width:0.5;fill:url(#radialffffffbfbfbf)"/>
<circle cx="198.281815" cy="204.415869" r="5.636364" opacity="0.572063" style="stroke:black;stroke-width:0.5;fill:url(#radialffffffbfbfbf)"/>
<circle cx="40.000000" cy="97.726575" r="5.636364" opacity="0.676342" style="stroke:black;stroke-width:0.5;fill:url(#radialffffffbfbfbf)"/>
<circle cx="238.099922" cy="100.466086" r="13.818182" opacity="0.678804" style="stroke:black;stroke-width:0.5;fill:url(#radialffffff666666)"/>
<circle cx="73.987368" cy="106.083860" r="13.818182" opacity="0.687018" style="stroke:black;stroke-width:0.5;fill:url(#radialffffff666666)"/>
<circle cx="271.535516" cy="112.114657" r="5.636364" opacity="0.689022" style="stroke:black;stroke-width:0.5;fill:url(#radialffffffbfbfbf)"/>
<circle cx="160.409439" cy="127.438498" r="14.045447" opacity="0.712898" style="stroke:black;stroke-width:0.5;fill:url(#radialffffff666666)"/>
<circle cx="207.936254" cy="139.174191" r="14.598726" opacity="0.726804" style="stroke:black;stroke-width:0.5;fill:url(#radialffffff666666)"/>
<circle cx="258.002522" cy="40.000000" r="7.781209" opacity="0.830824" style="stroke:black;stroke-width:0.5;fill:url(#radialffffffbfbfbf)"/>
<circle cx="87.946293" cy="137.457559" r="19.592034" opacity="0.841975" style="stroke:black;stroke-width:0.5;fill:url(#radialffffff666666)"/>
<circle cx="201.950631" cy="49.122025" r="8.150233" opacity="0.850297" style="stroke:black;stroke-width:0.5;fill:url(#radialffffffbfbfbf)"/>
<circle cx="131.588099" cy="148.238134" r="20.098117" opacity="0.852780" style="stroke:black;stroke-width:0.5;fill:url(#radialffffff666666)"/>
<circle cx="233.488895" cy="64.865343" r="20.295613" opacity="0.856960" style="stroke:black;stroke-width:0.5;fill:url(#radialffffff666666)"/>
<circle cx="214.799553" cy="150.813082" r="8.964398" opacity="0.891756" style="stroke:black;stroke-width:0.5;fill:url(#radialffffffbfbfbf)"/>
<circle cx="64.829849" cy="153.507419" r="9.908284" opacity="0.937529" style="stroke:black;stroke-width:0.5;fill:url(#radialffffffbfbfbf)"/>
<circle cx="142.149255" cy="172.745308" r="10.281751" opacity="0.955034" style="stroke:black;stroke-width:0.5;fill:url(#radialffffffbfbfbf)"/>
<circle cx="238.096695" cy="77.611009" r="11.272727" opacity="1.000000" style="stroke:black;stroke-width:0.5;fill:url(#radialffffffbfbfbf)"/>
</svg>
</g>
</svg>
