<?xml version="1.0"?>
<svg version="1.1" id="topsvg"
xmlns="http://www.w3.org/2000/svg" xmlns:xlink="http://www.w3.org/1999/xlink"
xmlns:cml="http://www.xml-cml.org/schema" x="0" y="0" width="1024px" height="1024px" viewBox="0 0 100 100">
<title>8723 - Open Babel Depiction</title>
<rect x="0" y="0" width="100" height="100" fill="white"/>
<defs>
<radialGradient id='radialffffff666666' cx='50%' cy='50%' r='50%' fx='30%' fy='30%'>
  <stop offset=' 0%' stop-color="rgb(255,255,255)"  stop-opacity='1.0'/>
  <stop offset='100%' stop-color="rgb(102,102,102)"  stop-opacity ='1.0'/>
</radialGradient>
<radialGradient id='radialffffffbfbfbf' cx='50%' cy='50%' r='50%' fx='30%' fy='30%'>
  <stop offset=' 0%' stop-color="rgb(255,255,255)"  stop-opacity='1.0'/>
  <stop offset='100%' stop-color="rgb(191,191,191)"  stop-opacity ='1.0'/>
</radialGradient>
<radialGradient id='radialffffffffcc' cx='50%' cy='50%' r='50%' fx='30%' fy='30%'>
  <stop offset=' 0%' stop-color="rgb(255,255,255)"  stop-opacity='1.0'/>
  <stop offset='100%' stop-color="rgb(255,12,12)"  stop-opacity ='1.0'/>
</radialGradient>
</defs>
<g transform="translate(0,0)">
<svg width="100" height="100" x="0" y="0" viewBox="0 0 259.396 221.785"
font-family="sans-serif" stroke="rgb(0,0,0)" stroke-width="2"  stroke-linecap="round">
<line x1="219.4" y1="70.0" x2="175.7" y2="71.9" opacity="1.0" stroke="rgb(0,0,0)"  stroke-width="1.6"/>
<line x1="219.4" y1="70.0" x2="217.1" y2="66.1" opacity="0.5" stroke="rgb(0,0,0)"  stroke-width="0.8"/>
<line x1="149.8" y1="110.2" x2="101.2" y2="112.3" opacity="0.3" stroke="rgb(0,0,0)"  stroke-width="1.4"/>
<line x1="149.8" y1="110.2" x2="175.7" y2="71.9" opacity="0.5" stroke="rgb(0,0,0)"  stroke-width="1.5"/>
<line x1="149.8" y1="110.2" x2="172.4" y2="154.4" opacity="0.5" stroke="rgb(0,0,0)"  stroke-width="1.3"/>
<line x1="149.1" y1="109.2" x2="150.7" y2="109.4" opacity="0.4" stroke="rgb(0,0,0)"  stroke-width="1.0"/>
<line x1="148.6" y1="108.4" x2="151.4" y2="108.8" opacity="0.4" stroke="rgb(0,0,0)"  stroke-width="1.0"/>
<line x1="148.0" y1="107.7" x2="152.1" y2="108.3" opacity="0.4" stroke="rgb(0,0,0)"  stroke-width="1.0"/>
<line x1="147.5" y1="106.9" x2="152.9" y2="107.7" opacity="0.4" stroke="rgb(0,0,0)"  stroke-width="1.0"/>
<line x1="147.0" y1="106.1" x2="153.6" y2="107.1" opacity="0.4" stroke="rgb(0,0,0)"  stroke-width="1.0"/>
<line x1="146.4" y1="105.4" x2="154.3" y2="106.5" opacity="0.4" stroke="rgb(0,0,0)"  stroke-width="1.0"/>
<line x1="101.2" y1="112.3" x2="75.0" y2="70.7" opacity="0.4" stroke="rgb(0,0,0)"  stroke-width="1.5"/>
<line x1="101.2" y1="112.3" x2="85.0" y2="140.4" opacity="0.5" stroke="rgb(0,0,0)"  stroke-width="1.4"/>
<line x1="101.2" y1="112.3" x2="99.7" y2="118.3" opacity="0.5" stroke="rgb(0,0,0)"  stroke-width="2.2"/>
<line x1="175.7" y1="71.9" x2="178.0" y2="75.9" opacity="0.7" stroke="rgb(0,0,0)"  stroke-width="2.4"/>
<line x1="175.7" y1="71.9" x2="160.2" y2="40.0" opacity="0.8" stroke="rgb(0,0,0)"  stroke-width="1.7"/>
<line x1="172.4" y1="154.4" x2="173.8" y2="160.5" opacity="0.6" stroke="rgb(0,0,0)"  stroke-width="2.1"/>
<line x1="172.4" y1="154.4" x2="206.2" y2="155.1" opacity="0.7" stroke="rgb(0,0,0)"  stroke-width="1.3"/>
<line x1="172.4" y1="154.4" x2="154.4" y2="181.8" opacity="0.4" stroke="rgb(0,0,0)"  stroke-width="1.2"/>
<line x1="75.0" y1="70.7" x2="86.3" y2="42.4" opacity="0.4" stroke="rgb(0,0,0)"  stroke-width="1.6"/>
<line x1="75.0" y1="70.7" x2="77.6" y2="62.3" opacity="0.5" stroke="rgb(0,0,0)"  stroke-width="0.7"/>
<line x1="75.0" y1="70.7" x2="40.0" y2="75.8" opacity="0.2" stroke="rgb(0,0,0)"  stroke-width="1.4"/>
<circle cx="150.382187" cy="105.926551" r="5.636364" opacity="0.200000" style="stroke:black;stroke-width:0.5;fill:url(#radialffffffbfbfbf)"/>
<circle cx="77.597239" cy="62.313754" r="5.636364" opacity="0.242618" style="stroke:black;stroke-width:0.5;fill:url(#radialffffffbfbfbf)"/>
<circle cx="217.098693" cy="66.131320" r="5.636364" opacity="0.292436" style="stroke:black;stroke-width:0.5;fill:url(#radialffffffbfbfbf)"/>
<circle cx="154.391457" cy="181.785384" r="5.636364" opacity="0.575642" style="stroke:black;stroke-width:0.5;fill:url(#radialffffffbfbfbf)"/>
<circle cx="206.184752" cy="155.065729" r="5.636364" opacity="0.598467" style="stroke:black;stroke-width:0.5;fill:url(#radialffffffbfbfbf)"/>
<circle cx="84.967950" cy="140.426769" r="5.636364" opacity="0.615817" style="stroke:black;stroke-width:0.5;fill:url(#radialffffffbfbfbf)"/>
<circle cx="149.774021" cy="110.153968" r="13.818182" opacity="0.622999" style="stroke:black;stroke-width:0.5;fill:url(#radialffffff666666)"/>
<circle cx="219.395843" cy="70.011686" r="12.000000" opacity="0.654343" style="stroke:black;stroke-width:0.5;fill:url(#radialffffffffcc)"/>
<circle cx="74.986090" cy="70.685957" r="13.818182" opacity="0.660864" style="stroke:black;stroke-width:0.5;fill:url(#radialffffff666666)"/>
<circle cx="172.372027" cy="154.368321" r="13.818182" opacity="0.704775" style="stroke:black;stroke-width:0.5;fill:url(#radialffffff666666)"/>
<circle cx="40.000000" cy="75.838845" r="5.857614" opacity="0.720852" style="stroke:black;stroke-width:0.5;fill:url(#radialffffffbfbfbf)"/>
<circle cx="160.208700" cy="40.000000" r="6.095513" opacity="0.735344" style="stroke:black;stroke-width:0.5;fill:url(#radialffffffbfbfbf)"/>
<circle cx="101.213262" cy="112.256108" r="15.255619" opacity="0.742975" style="stroke:black;stroke-width:0.5;fill:url(#radialffffff666666)"/>
<circle cx="175.743384" cy="71.935342" r="16.951234" opacity="0.783178" style="stroke:black;stroke-width:0.5;fill:url(#radialffffff666666)"/>
<circle cx="86.266914" cy="42.409529" r="7.289823" opacity="0.804163" style="stroke:black;stroke-width:0.5;fill:url(#radialffffffbfbfbf)"/>
<circle cx="173.803201" cy="160.519394" r="9.926772" opacity="0.938403" style="stroke:black;stroke-width:0.5;fill:url(#radialffffffbfbfbf)"/>
<circle cx="99.676320" cy="118.261751" r="10.558228" opacity="0.967790" style="stroke:black;stroke-width:0.5;fill:url(#radialffffffbfbfbf)"/>
<circle cx="177.961208" cy="75.871897" r="11.272727" opacity="1.000000" style="stroke:black;stroke-width:0.5;fill:url(#radialffffffbfbfbf)"/>
</svg>
</g>
</svg>
