<?xml version="1.0"?>
<svg version="1.1" id="topsvg"
xmlns="http://www.w3.org/2000/svg" xmlns:xlink="http://www.w3.org/1999/xlink"
xmlns:cml="http://www.xml-cml.org/schema" x="0" y="0" width="1024px" height="1024px" viewBox="0 0 100 100">
<title>8864 - Open Babel Depiction</title>
<rect x="0" y="0" width="100" height="100" fill="white"/>
<defs>
<radialGradient id='radialffffff666666' cx='50%' cy='50%' r='50%' fx='30%' fy='30%'>
  <stop offset=' 0%' stop-color="rgb(255,255,255)"  stop-opacity='1.0'/>
  <stop offset='100%' stop-color="rgb(102,102,102)"  stop-opacity ='1.0'/>
</radialGradient>
<radialGradient id='radialffffffbfbfbf' cx='50%' cy='50%' r='50%' fx='30%' fy='30%'>
  <stop offset=' 0%' stop-color="rgb(255,255,255)"  stop-opacity='1.0'/>
  <stop offset='100%' stop-color="rgb(191,191,191)"  stop-opacity ='1.0'/>
</radialGradient>
</defs>
<g transform="translate(0,0)">
<svg width="100" height="100" x="0" y="0" viewBox="0 0 335.234 247.717"
font-family="sans-serif" stroke="rgb(0,0,0)" stroke-width="2"  stroke-linecap="round">
<line x1="128.6" y1="109.9" x2="86.8" y2="86.9" opacity="1.0" stroke="rgb(0,0,0)"  stroke-width="1.0"/>
<line x1="206.6" y1="109.9" x2="248.4" y2="86.9" opacity="0.3" stroke="rgb(0,0,0)"  stroke-width="1.0"/>
<line x1="167.6" y1="88.4" x2="167.6" y2="54.8" opacity="0.3" stroke="rgb(0,0,0)"  stroke-width="0.7"/>
<line x1="86.8" y1="86.9" x2="70.6" y2="64.2" opacity="0.2" stroke="rgb(0,0,0)"  stroke-width="1.5"/>
<line x1="86.8" y1="86.9" x2="90.5" y2="63.2" opacity="0.5" stroke="rgb(0,0,0)"  stroke-width="0.4"/>
<line x1="86.8" y1="86.9" x2="62.2" y2="109.8" opacity="0.1" stroke="rgb(0,0,0)"  stroke-width="0.7"/>
<line x1="248.4" y1="86.9" x2="264.6" y2="64.2" opacity="0.2" stroke="rgb(0,0,0)"  stroke-width="1.5"/>
<line x1="248.4" y1="86.9" x2="273.0" y2="109.8" opacity="0.5" stroke="rgb(0,0,0)"  stroke-width="0.7"/>
<line x1="248.4" y1="86.9" x2="244.8" y2="63.2" opacity="0.2" stroke="rgb(0,0,0)"  stroke-width="0.4"/>
<line x1="128.6" y1="152.8" x2="98.4" y2="169.9" opacity="0.1" stroke="rgb(0,0,0)"  stroke-width="1.6"/>
<line x1="206.6" y1="152.8" x2="236.8" y2="169.9" opacity="0.5" stroke="rgb(0,0,0)"  stroke-width="1.6"/>
<line x1="167.6" y1="174.3" x2="167.6" y2="207.7" opacity="0.5" stroke="rgb(0,0,0)"  stroke-width="1.9"/>
<line x1="70.6" y1="64.2" x2="65.3" y2="87.2" opacity="0.6" stroke="rgb(0,0,0)"  stroke-width="2.6"/>
<line x1="70.6" y1="64.2" x2="40.0" y2="47.7" opacity="0.9" stroke="rgb(0,0,0)"  stroke-width="2.0"/>
<line x1="70.6" y1="64.2" x2="93.9" y2="40.0" opacity="0.7" stroke="rgb(0,0,0)"  stroke-width="2.3"/>
<line x1="264.6" y1="64.2" x2="241.4" y2="40.0" opacity="0.8" stroke="rgb(0,0,0)"  stroke-width="2.3"/>
<line x1="264.6" y1="64.2" x2="295.2" y2="47.7" opacity="0.8" stroke="rgb(0,0,0)"  stroke-width="2.0"/>
<line x1="264.6" y1="64.2" x2="270.0" y2="87.2" opacity="0.7" stroke="rgb(0,0,0)"  stroke-width="2.6"/>
<line x1="166.2" y1="85.7" x2="127.1" y2="107.2" opacity="0.3" stroke="rgb(0,0,0)"  stroke-width="1.0"/>
<line x1="169.1" y1="91.0" x2="130.0" y2="112.5" opacity="0.3" stroke="rgb(0,0,0)"  stroke-width="1.0" stroke-dasharray="5.0,5.0"/>
<line x1="125.6" y1="109.9" x2="125.6" y2="152.8" opacity="0.4" stroke="rgb(0,0,0)"  stroke-width="1.3"/>
<line x1="131.6" y1="109.9" x2="131.6" y2="152.8" opacity="0.4" stroke="rgb(0,0,0)"  stroke-width="1.3" stroke-dasharray="5.0,5.0"/>
<line x1="127.1" y1="155.4" x2="166.2" y2="176.9" opacity="0.5" stroke="rgb(0,0,0)"  stroke-width="1.6"/>
<line x1="130.0" y1="150.2" x2="169.1" y2="171.7" opacity="0.5" stroke="rgb(0,0,0)"  stroke-width="1.6" stroke-dasharray="5.0,5.0"/>
<line x1="169.1" y1="176.9" x2="208.1" y2="155.4" opacity="0.5" stroke="rgb(0,0,0)"  stroke-width="1.6"/>
<line x1="166.2" y1="171.7" x2="205.2" y2="150.2" opacity="0.5" stroke="rgb(0,0,0)"  stroke-width="1.6" stroke-dasharray="5.0,5.0"/>
<line x1="209.6" y1="152.8" x2="209.6" y2="109.9" opacity="0.4" stroke="rgb(0,0,0)"  stroke-width="1.3"/>
<line x1="203.6" y1="152.8" x2="203.6" y2="109.9" opacity="0.4" stroke="rgb(0,0,0)"  stroke-width="1.3" stroke-dasharray="5.0,5.0"/>
<line x1="208.1" y1="107.2" x2="169.1" y2="85.7" opacity="0.3" stroke="rgb(0,0,0)"  stroke-width="1.0"/>
<line x1="205.2" y1="112.5" x2="166.2" y2="91.0" opacity="0.3" stroke="rgb(0,0,0)"  stroke-width="1.0" stroke-dasharray="5.0,5.0"/>
<circle cx="244.767853" cy="63.160173" r="5.636364" opacity="0.200000" style="stroke:black;stroke-width:0.5;fill:url(#radialffffffbfbfbf)"/>
<circle cx="90.462553" cy="63.153711" r="5.636364" opacity="0.200000" style="stroke:black;stroke-width:0.5;fill:url(#radialffffffbfbfbf)"/>
<circle cx="62.242555" cy="109.790700" r="5.636364" opacity="0.398969" style="stroke:black;stroke-width:0.5;fill:url(#radialffffffbfbfbf)"/>
<circle cx="272.987852" cy="109.797162" r="5.636364" opacity="0.398969" style="stroke:black;stroke-width:0.5;fill:url(#radialffffffbfbfbf)"/>
<circle cx="167.613588" cy="54.846679" r="5.636364" opacity="0.414761" style="stroke:black;stroke-width:0.5;fill:url(#radialffffffbfbfbf)"/>
<circle cx="86.840545" cy="86.889011" r="13.818182" opacity="0.529552" style="stroke:black;stroke-width:0.5;fill:url(#radialffffff666666)"/>
<circle cx="248.389861" cy="86.892242" r="13.818182" opacity="0.529552" style="stroke:black;stroke-width:0.5;fill:url(#radialffffff666666)"/>
<circle cx="167.610357" cy="88.372063" r="13.818182" opacity="0.533993" style="stroke:black;stroke-width:0.5;fill:url(#radialffffff666666)"/>
<circle cx="128.579261" cy="109.855321" r="13.818182" opacity="0.598751" style="stroke:black;stroke-width:0.5;fill:url(#radialffffff666666)"/>
<circle cx="206.644683" cy="109.852090" r="13.818182" opacity="0.598780" style="stroke:black;stroke-width:0.5;fill:url(#radialffffff666666)"/>
<circle cx="128.582492" cy="152.808912" r="13.963121" opacity="0.710806" style="stroke:black;stroke-width:0.5;fill:url(#radialffffff666666)"/>
<circle cx="206.641452" cy="152.805681" r="13.964081" opacity="0.710830" style="stroke:black;stroke-width:0.5;fill:url(#radialffffff666666)"/>
<circle cx="98.394783" cy="169.881785" r="6.361464" opacity="0.751215" style="stroke:black;stroke-width:0.5;fill:url(#radialffffffbfbfbf)"/>
<circle cx="236.829161" cy="169.878554" r="6.362247" opacity="0.751261" style="stroke:black;stroke-width:0.5;fill:url(#radialffffffbfbfbf)"/>
<circle cx="167.613588" cy="174.282477" r="15.990351" opacity="0.760656" style="stroke:black;stroke-width:0.5;fill:url(#radialffffff666666)"/>
<circle cx="295.233637" cy="47.731905" r="7.287024" opacity="0.804008" style="stroke:black;stroke-width:0.5;fill:url(#radialffffffbfbfbf)"/>
<circle cx="40.000000" cy="47.725443" r="7.287416" opacity="0.804030" style="stroke:black;stroke-width:0.5;fill:url(#radialffffffbfbfbf)"/>
<circle cx="167.610357" cy="207.717392" r="7.814406" opacity="0.832594" style="stroke:black;stroke-width:0.5;fill:url(#radialffffffbfbfbf)"/>
<circle cx="264.622661" cy="64.168261" r="19.826922" opacity="0.847007" style="stroke:black;stroke-width:0.5;fill:url(#radialffffff666666)"/>
<circle cx="70.610977" cy="64.165030" r="19.827881" opacity="0.847028" style="stroke:black;stroke-width:0.5;fill:url(#radialffffff666666)"/>
<circle cx="241.372018" cy="40.000000" r="9.456061" opacity="0.915884" style="stroke:black;stroke-width:0.5;fill:url(#radialffffffbfbfbf)"/>
<circle cx="93.864850" cy="40.000000" r="9.456453" opacity="0.915903" style="stroke:black;stroke-width:0.5;fill:url(#radialffffffbfbfbf)"/>
<circle cx="65.257125" cy="87.241196" r="11.272727" opacity="1.000000" style="stroke:black;stroke-width:0.5;fill:url(#radialffffffbfbfbf)"/>
<circle cx="269.973281" cy="87.244427" r="11.272727" opacity="1.000000" style="stroke:black;stroke-width:0.5;fill:url(#radialffffffbfbfbf)"/>
</svg>
</g>
</svg>
