<?xml version="1.0"?>
<svg version="1.1" id="topsvg"
xmlns="http://www.w3.org/2000/svg" xmlns:xlink="http://www.w3.org/1999/xlink"
xmlns:cml="http://www.xml-cml.org/schema" x="0" y="0" width="1024px" height="1024px" viewBox="0 0 100 100">
<title>91373 - Open Babel Depiction</title>
<rect x="0" y="0" width="100" height="100" fill="white"/>
<defs>
<radialGradient id='radialffffff666666' cx='50%' cy='50%' r='50%' fx='30%' fy='30%'>
  <stop offset=' 0%' stop-color="rgb(255,255,255)"  stop-opacity='1.0'/>
  <stop offset='100%' stop-color="rgb(102,102,102)"  stop-opacity ='1.0'/>
</radialGradient>
<radialGradient id='radialffffffb2b20' cx='50%' cy='50%' r='50%' fx='30%' fy='30%'>
  <stop offset=' 0%' stop-color="rgb(255,255,255)"  stop-opacity='1.0'/>
  <stop offset='100%' stop-color="rgb(178,178,0)"  stop-opacity ='1.0'/>
</radialGradient>
<radialGradient id='radialffffffbfbfbf' cx='50%' cy='50%' r='50%' fx='30%' fy='30%'>
  <stop offset=' 0%' stop-color="rgb(255,255,255)"  stop-opacity='1.0'/>
  <stop offset='100%' stop-color="rgb(191,191,191)"  stop-opacity ='1.0'/>
</radialGradient>
</defs>
<g transform="translate(0,0)">
<svg width="100" height="100" x="0" y="0" viewBox="0 0 757.936 158.289"
font-family="sans-serif" stroke="rgb(0,0,0)" stroke-width="2"  stroke-linecap="round">
<line x1="689.8" y1="63.7" x2="641.7" y2="96.6" opacity="1.0" stroke="rgb(0,0,0)"  stroke-width="1.7"/>
<line x1="689.8" y1="63.7" x2="717.9" y2="96.2" opacity="0.6" stroke="rgb(0,0,0)"  stroke-width="1.7"/>
<line x1="354.2" y1="64.4" x2="395.7" y2="90.7" opacity="0.6" stroke="rgb(0,0,0)"  stroke-width="1.3"/>
<line x1="354.2" y1="64.4" x2="312.5" y2="90.5" opacity="0.4" stroke="rgb(0,0,0)"  stroke-width="1.3"/>
<line x1="354.2" y1="64.4" x2="354.1" y2="43.8" opacity="0.4" stroke="rgb(0,0,0)"  stroke-width="0.7"/>
<line x1="354.2" y1="64.4" x2="354.4" y2="42.9" opacity="0.2" stroke="rgb(0,0,0)"  stroke-width="2.0"/>
<line x1="395.7" y1="90.7" x2="437.4" y2="64.6" opacity="0.7" stroke="rgb(0,0,0)"  stroke-width="1.4"/>
<line x1="395.7" y1="90.7" x2="396.0" y2="111.5" opacity="0.5" stroke="rgb(0,0,0)"  stroke-width="0.7"/>
<line x1="395.7" y1="90.7" x2="395.2" y2="112.2" opacity="0.2" stroke="rgb(0,0,0)"  stroke-width="2.0"/>
<line x1="312.5" y1="90.5" x2="272.1" y2="62.6" opacity="0.7" stroke="rgb(0,0,0)"  stroke-width="1.4"/>
<line x1="312.5" y1="90.5" x2="311.5" y2="111.3" opacity="0.5" stroke="rgb(0,0,0)"  stroke-width="0.7"/>
<line x1="312.5" y1="90.5" x2="312.8" y2="111.7" opacity="0.2" stroke="rgb(0,0,0)"  stroke-width="2.0"/>
<line x1="437.4" y1="64.6" x2="477.8" y2="92.5" opacity="0.7" stroke="rgb(0,0,0)"  stroke-width="1.4"/>
<line x1="437.4" y1="64.6" x2="437.6" y2="44.3" opacity="0.5" stroke="rgb(0,0,0)"  stroke-width="2.0"/>
<line x1="437.4" y1="64.6" x2="438.0" y2="42.9" opacity="0.7" stroke="rgb(0,0,0)"  stroke-width="0.7"/>
<line x1="272.1" y1="62.6" x2="231.4" y2="90.2" opacity="0.2" stroke="rgb(0,0,0)"  stroke-width="1.4"/>
<line x1="272.1" y1="62.6" x2="271.6" y2="41.3" opacity="0.5" stroke="rgb(0,0,0)"  stroke-width="0.8"/>
<line x1="272.1" y1="62.6" x2="272.9" y2="42.1" opacity="0.3" stroke="rgb(0,0,0)"  stroke-width="2.1"/>
<line x1="477.8" y1="92.5" x2="519.5" y2="66.5" opacity="0.7" stroke="rgb(0,0,0)"  stroke-width="1.4"/>
<line x1="477.8" y1="92.5" x2="477.1" y2="114.0" opacity="0.5" stroke="rgb(0,0,0)"  stroke-width="2.0"/>
<line x1="477.8" y1="92.5" x2="477.5" y2="113.0" opacity="0.7" stroke="rgb(0,0,0)"  stroke-width="0.7"/>
<line x1="231.4" y1="90.2" x2="191.0" y2="62.4" opacity="0.2" stroke="rgb(0,0,0)"  stroke-width="1.5"/>
<line x1="231.4" y1="90.2" x2="230.4" y2="110.0" opacity="0.5" stroke="rgb(0,0,0)"  stroke-width="0.8"/>
<line x1="231.4" y1="90.2" x2="232.3" y2="112.0" opacity="0.3" stroke="rgb(0,0,0)"  stroke-width="2.1"/>
<line x1="519.5" y1="66.5" x2="559.9" y2="94.5" opacity="0.7" stroke="rgb(0,0,0)"  stroke-width="1.4"/>
<line x1="519.5" y1="66.5" x2="519.2" y2="44.9" opacity="0.5" stroke="rgb(0,0,0)"  stroke-width="2.0"/>
<line x1="519.5" y1="66.5" x2="520.9" y2="46.1" opacity="0.7" stroke="rgb(0,0,0)"  stroke-width="0.7"/>
<line x1="191.0" y1="62.4" x2="150.4" y2="90.0" opacity="0.2" stroke="rgb(0,0,0)"  stroke-width="1.5"/>
<line x1="191.0" y1="62.4" x2="191.7" y2="43.0" opacity="0.5" stroke="rgb(0,0,0)"  stroke-width="2.2"/>
<line x1="191.0" y1="62.4" x2="190.3" y2="40.0" opacity="0.7" stroke="rgb(0,0,0)"  stroke-width="0.9"/>
<line x1="559.9" y1="94.5" x2="601.7" y2="68.5" opacity="0.3" stroke="rgb(0,0,0)"  stroke-width="1.5"/>
<line x1="559.9" y1="94.5" x2="558.4" y2="114.8" opacity="0.5" stroke="rgb(0,0,0)"  stroke-width="2.2"/>
<line x1="559.9" y1="94.5" x2="560.3" y2="116.2" opacity="0.7" stroke="rgb(0,0,0)"  stroke-width="0.8"/>
<line x1="150.4" y1="90.0" x2="109.0" y2="63.6" opacity="0.3" stroke="rgb(0,0,0)"  stroke-width="1.6"/>
<line x1="150.4" y1="90.0" x2="150.2" y2="110.0" opacity="0.5" stroke="rgb(0,0,0)"  stroke-width="0.9"/>
<line x1="150.4" y1="90.0" x2="151.0" y2="111.9" opacity="0.3" stroke="rgb(0,0,0)"  stroke-width="2.2"/>
<line x1="601.7" y1="68.5" x2="641.7" y2="96.6" opacity="0.7" stroke="rgb(0,0,0)"  stroke-width="1.6"/>
<line x1="601.7" y1="68.5" x2="600.7" y2="46.5" opacity="0.5" stroke="rgb(0,0,0)"  stroke-width="2.2"/>
<line x1="601.7" y1="68.5" x2="603.0" y2="48.7" opacity="0.7" stroke="rgb(0,0,0)"  stroke-width="0.8"/>
<line x1="109.0" y1="63.6" x2="68.5" y2="91.0" opacity="0.3" stroke="rgb(0,0,0)"  stroke-width="1.6"/>
<line x1="109.0" y1="63.6" x2="109.5" y2="42.6" opacity="0.5" stroke="rgb(0,0,0)"  stroke-width="2.2"/>
<line x1="109.0" y1="63.6" x2="107.4" y2="42.8" opacity="0.7" stroke="rgb(0,0,0)"  stroke-width="0.9"/>
<line x1="641.7" y1="96.6" x2="641.0" y2="116.2" opacity="0.3" stroke="rgb(0,0,0)"  stroke-width="2.3"/>
<line x1="641.7" y1="96.6" x2="643.5" y2="118.3" opacity="0.8" stroke="rgb(0,0,0)"  stroke-width="1.0"/>
<line x1="68.5" y1="91.0" x2="66.3" y2="111.7" opacity="0.3" stroke="rgb(0,0,0)"  stroke-width="1.0"/>
<line x1="68.5" y1="91.0" x2="40.0" y2="70.5" opacity="0.3" stroke="rgb(0,0,0)"  stroke-width="1.7"/>
<line x1="68.5" y1="91.0" x2="68.4" y2="111.3" opacity="0.6" stroke="rgb(0,0,0)"  stroke-width="2.3"/>
<circle cx="354.117090" cy="43.774335" r="5.636364" opacity="0.200000" style="stroke:black;stroke-width:0.5;fill:url(#radialffffffbfbfbf)"/>
<circle cx="396.026328" cy="111.468442" r="5.636364" opacity="0.200000" style="stroke:black;stroke-width:0.5;fill:url(#radialffffffbfbfbf)"/>
<circle cx="477.505102" cy="113.012196" r="5.636364" opacity="0.200000" style="stroke:black;stroke-width:0.5;fill:url(#radialffffffbfbfbf)"/>
<circle cx="311.463255" cy="111.250198" r="5.636364" opacity="0.200000" style="stroke:black;stroke-width:0.5;fill:url(#radialffffffbfbfbf)"/>
<circle cx="520.913162" cy="46.107618" r="5.636364" opacity="0.200000" style="stroke:black;stroke-width:0.5;fill:url(#radialffffffbfbfbf)"/>
<circle cx="230.366408" cy="110.020972" r="5.636364" opacity="0.200000" style="stroke:black;stroke-width:0.5;fill:url(#radialffffffbfbfbf)"/>
<circle cx="438.035060" cy="42.901359" r="5.636364" opacity="0.200000" style="stroke:black;stroke-width:0.5;fill:url(#radialffffffbfbfbf)"/>
<circle cx="271.579192" cy="41.267740" r="5.636364" opacity="0.200000" style="stroke:black;stroke-width:0.5;fill:url(#radialffffffbfbfbf)"/>
<circle cx="603.037039" cy="48.659146" r="5.636364" opacity="0.242368" style="stroke:black;stroke-width:0.5;fill:url(#radialffffffbfbfbf)"/>
<circle cx="150.222773" cy="109.959992" r="5.636364" opacity="0.248816" style="stroke:black;stroke-width:0.5;fill:url(#radialffffffbfbfbf)"/>
<circle cx="560.261245" cy="116.189570" r="5.636364" opacity="0.259810" style="stroke:black;stroke-width:0.5;fill:url(#radialffffffbfbfbf)"/>
<circle cx="107.437350" cy="42.753724" r="5.636364" opacity="0.307846" style="stroke:black;stroke-width:0.5;fill:url(#radialffffffbfbfbf)"/>
<circle cx="190.337918" cy="40.000000" r="5.636364" opacity="0.313816" style="stroke:black;stroke-width:0.5;fill:url(#radialffffffbfbfbf)"/>
<circle cx="66.250242" cy="111.696314" r="5.636364" opacity="0.349125" style="stroke:black;stroke-width:0.5;fill:url(#radialffffffbfbfbf)"/>
<circle cx="643.521274" cy="118.288562" r="5.636364" opacity="0.353212" style="stroke:black;stroke-width:0.5;fill:url(#radialffffffbfbfbf)"/>
<circle cx="354.152394" cy="64.446521" r="13.818182" opacity="0.663061" style="stroke:black;stroke-width:0.5;fill:url(#radialffffff666666)"/>
<circle cx="395.740686" cy="90.703182" r="13.818182" opacity="0.666597" style="stroke:black;stroke-width:0.5;fill:url(#radialffffff666666)"/>
<circle cx="312.458190" cy="90.468890" r="13.818182" opacity="0.672068" style="stroke:black;stroke-width:0.5;fill:url(#radialffffff666666)"/>
<circle cx="477.800373" cy="92.529369" r="13.818182" opacity="0.673759" style="stroke:black;stroke-width:0.5;fill:url(#radialffffff666666)"/>
<circle cx="437.399585" cy="64.578109" r="13.818182" opacity="0.678407" style="stroke:black;stroke-width:0.5;fill:url(#radialffffff666666)"/>
<circle cx="519.539510" cy="66.490952" r="13.818182" opacity="0.681791" style="stroke:black;stroke-width:0.5;fill:url(#radialffffff666666)"/>
<circle cx="272.067031" cy="62.568982" r="13.818182" opacity="0.686349" style="stroke:black;stroke-width:0.5;fill:url(#radialffffff666666)"/>
<circle cx="231.428742" cy="90.151153" r="13.818182" opacity="0.692093" style="stroke:black;stroke-width:0.5;fill:url(#radialffffff666666)"/>
<circle cx="559.863271" cy="94.516030" r="13.818182" opacity="0.703757" style="stroke:black;stroke-width:0.5;fill:url(#radialffffff666666)"/>
<circle cx="601.656968" cy="68.522546" r="14.007603" opacity="0.711937" style="stroke:black;stroke-width:0.5;fill:url(#radialffffff666666)"/>
<circle cx="150.389665" cy="89.961794" r="14.060942" opacity="0.713291" style="stroke:black;stroke-width:0.5;fill:url(#radialffffff666666)"/>
<circle cx="191.008697" cy="62.353947" r="14.304386" opacity="0.719439" style="stroke:black;stroke-width:0.5;fill:url(#radialffffff666666)"/>
<circle cx="108.955428" cy="63.634525" r="14.673655" opacity="0.728666" style="stroke:black;stroke-width:0.5;fill:url(#radialffffff666666)"/>
<circle cx="641.711133" cy="96.615022" r="15.204308" opacity="0.741725" style="stroke:black;stroke-width:0.5;fill:url(#radialffffff666666)"/>
<circle cx="68.541802" cy="90.956730" r="15.410825" opacity="0.746745" style="stroke:black;stroke-width:0.5;fill:url(#radialffffff666666)"/>
<circle cx="689.830693" cy="63.666620" r="21.535022" opacity="0.751008" style="stroke:black;stroke-width:0.5;fill:url(#radialffffffb2b20)"/>
<circle cx="40.000000" cy="70.502788" r="6.447775" opacity="0.756294" style="stroke:black;stroke-width:0.5;fill:url(#radialffffffbfbfbf)"/>
<circle cx="717.936008" cy="96.172116" r="6.783050" opacity="0.775708" style="stroke:black;stroke-width:0.5;fill:url(#radialffffffbfbfbf)"/>
<circle cx="354.444456" cy="42.888522" r="9.797181" opacity="0.932258" style="stroke:black;stroke-width:0.5;fill:url(#radialffffffbfbfbf)"/>
<circle cx="395.240009" cy="112.152059" r="9.863567" opacity="0.935411" style="stroke:black;stroke-width:0.5;fill:url(#radialffffffbfbfbf)"/>
<circle cx="477.142432" cy="114.016760" r="9.963424" opacity="0.940134" style="stroke:black;stroke-width:0.5;fill:url(#radialffffffbfbfbf)"/>
<circle cx="312.782347" cy="111.683476" r="9.975697" opacity="0.940713" style="stroke:black;stroke-width:0.5;fill:url(#radialffffffbfbfbf)"/>
<circle cx="519.196097" cy="44.920115" r="10.076112" opacity="0.945436" style="stroke:black;stroke-width:0.5;fill:url(#radialffffffbfbfbf)"/>
<circle cx="232.330603" cy="112.049356" r="10.187685" opacity="0.950656" style="stroke:black;stroke-width:0.5;fill:url(#radialffffffbfbfbf)"/>
<circle cx="437.553640" cy="44.307107" r="10.189358" opacity="0.950734" style="stroke:black;stroke-width:0.5;fill:url(#radialffffffbfbfbf)"/>
<circle cx="272.862979" cy="42.102202" r="10.284753" opacity="0.955174" style="stroke:black;stroke-width:0.5;fill:url(#radialffffffbfbfbf)"/>
<circle cx="600.665242" cy="46.505592" r="10.491162" opacity="0.964711" style="stroke:black;stroke-width:0.5;fill:url(#radialffffffbfbfbf)"/>
<circle cx="151.021930" cy="111.946653" r="10.514592" opacity="0.965788" style="stroke:black;stroke-width:0.5;fill:url(#radialffffffbfbfbf)"/>
<circle cx="558.406172" cy="114.799870" r="10.579304" opacity="0.968755" style="stroke:black;stroke-width:0.5;fill:url(#radialffffffbfbfbf)"/>
<circle cx="109.520295" cy="42.570784" r="10.885571" opacity="0.982678" style="stroke:black;stroke-width:0.5;fill:url(#radialffffffbfbfbf)"/>
<circle cx="191.695523" cy="42.991225" r="10.941357" opacity="0.985192" style="stroke:black;stroke-width:0.5;fill:url(#radialffffffbfbfbf)"/>
<circle cx="68.384538" cy="111.291921" r="11.264917" opacity="0.999654" style="stroke:black;stroke-width:0.5;fill:url(#radialffffffbfbfbf)"/>
<circle cx="641.037145" cy="116.173523" r="11.272727" opacity="1.000000" style="stroke:black;stroke-width:0.5;fill:url(#radialffffffbfbfbf)"/>
</svg>
</g>
</svg>
