<?xml version="1.0"?>
<svg version="1.1" id="topsvg"
xmlns="http://www.w3.org/2000/svg" xmlns:xlink="http://www.w3.org/1999/xlink"
xmlns:cml="http://www.xml-cml.org/schema" x="0" y="0" width="1024px" height="1024px" viewBox="0 0 100 100">
<title>9253 - Open Babel Depiction</title>
<rect x="0" y="0" width="100" height="100" fill="white"/>
<defs>
<radialGradient id='radialffffff666666' cx='50%' cy='50%' r='50%' fx='30%' fy='30%'>
  <stop offset=' 0%' stop-color="rgb(255,255,255)"  stop-opacity='1.0'/>
  <stop offset='100%' stop-color="rgb(102,102,102)"  stop-opacity ='1.0'/>
</radialGradient>
<radialGradient id='radialffffffbfbfbf' cx='50%' cy='50%' r='50%' fx='30%' fy='30%'>
  <stop offset=' 0%' stop-color="rgb(255,255,255)"  stop-opacity='1.0'/>
  <stop offset='100%' stop-color="rgb(191,191,191)"  stop-opacity ='1.0'/>
</radialGradient>
</defs>
<g transform="translate(0,0)">
<svg width="100" height="100" x="0" y="0" viewBox="0 0 204.54 212.402"
font-family="sans-serif" stroke="rgb(0,0,0)" stroke-width="2"  stroke-linecap="round">
<line x1="66.9" y1="125.7" x2="63.1" y2="126.7" opacity="1.0" stroke="rgb(0,0,0)"  stroke-width="2.4"/>
<line x1="66.9" y1="125.7" x2="40.0" y2="143.3" opacity="0.8" stroke="rgb(0,0,0)"  stroke-width="1.5"/>
<line x1="69.6" y1="79.2" x2="65.2" y2="77.7" opacity="0.5" stroke="rgb(0,0,0)"  stroke-width="0.6"/>
<line x1="69.6" y1="79.2" x2="45.3" y2="58.5" opacity="0.2" stroke="rgb(0,0,0)"  stroke-width="1.5"/>
<line x1="110.6" y1="144.2" x2="119.4" y2="172.4" opacity="0.5" stroke="rgb(0,0,0)"  stroke-width="1.7"/>
<line x1="110.6" y1="144.2" x2="109.8" y2="154.4" opacity="0.6" stroke="rgb(0,0,0)"  stroke-width="0.7"/>
<line x1="115.5" y1="65.9" x2="127.6" y2="40.0" opacity="0.2" stroke="rgb(0,0,0)"  stroke-width="1.3"/>
<line x1="115.5" y1="65.9" x2="116.4" y2="54.1" opacity="0.4" stroke="rgb(0,0,0)"  stroke-width="2.2"/>
<line x1="142.5" y1="107.0" x2="162.4" y2="111.4" opacity="0.7" stroke="rgb(0,0,0)"  stroke-width="2.0"/>
<line x1="142.5" y1="107.0" x2="164.5" y2="105.5" opacity="0.7" stroke="rgb(0,0,0)"  stroke-width="1.0"/>
<line x1="69.6" y1="79.2" x2="66.9" y2="125.7" opacity="0.3" stroke="rgb(0,0,0)"  stroke-width="1.5"/>
<line x1="66.9" y1="125.7" x2="110.6" y2="144.2" opacity="0.5" stroke="rgb(0,0,0)"  stroke-width="1.5"/>
<line x1="110.6" y1="144.2" x2="142.5" y2="107.0" opacity="0.5" stroke="rgb(0,0,0)"  stroke-width="1.4"/>
<line x1="142.5" y1="107.0" x2="115.5" y2="65.9" opacity="0.5" stroke="rgb(0,0,0)"  stroke-width="1.6"/>
<line x1="115.5" y1="65.9" x2="69.6" y2="79.2" opacity="0.5" stroke="rgb(0,0,0)"  stroke-width="1.4"/>
<circle cx="65.187857" cy="77.705851" r="5.636364" opacity="0.200000" style="stroke:black;stroke-width:0.5;fill:url(#radialffffffbfbfbf)"/>
<circle cx="109.795731" cy="154.435917" r="5.636364" opacity="0.210880" style="stroke:black;stroke-width:0.5;fill:url(#radialffffffbfbfbf)"/>
<circle cx="164.540141" cy="105.456117" r="5.636364" opacity="0.424341" style="stroke:black;stroke-width:0.5;fill:url(#radialffffffbfbfbf)"/>
<circle cx="127.558098" cy="40.000000" r="5.636364" opacity="0.551931" style="stroke:black;stroke-width:0.5;fill:url(#radialffffffbfbfbf)"/>
<circle cx="69.634104" cy="79.192242" r="13.818182" opacity="0.639713" style="stroke:black;stroke-width:0.5;fill:url(#radialffffff666666)"/>
<circle cx="40.000000" cy="143.252444" r="5.636364" opacity="0.647524" style="stroke:black;stroke-width:0.5;fill:url(#radialffffffbfbfbf)"/>
<circle cx="110.568008" cy="144.244448" r="13.818182" opacity="0.663209" style="stroke:black;stroke-width:0.5;fill:url(#radialffffff666666)"/>
<circle cx="142.538330" cy="107.042677" r="13.889466" opacity="0.708928" style="stroke:black;stroke-width:0.5;fill:url(#radialffffff666666)"/>
<circle cx="115.469865" cy="65.911665" r="15.116384" opacity="0.739577" style="stroke:black;stroke-width:0.5;fill:url(#radialffffff666666)"/>
<circle cx="45.321924" cy="58.463556" r="6.598007" opacity="0.765054" style="stroke:black;stroke-width:0.5;fill:url(#radialffffffbfbfbf)"/>
<circle cx="66.935982" cy="125.674260" r="16.299596" opacity="0.767977" style="stroke:black;stroke-width:0.5;fill:url(#radialffffff666666)"/>
<circle cx="119.392644" cy="172.401855" r="7.515717" opacity="0.816527" style="stroke:black;stroke-width:0.5;fill:url(#radialffffffbfbfbf)"/>
<circle cx="162.355794" cy="111.404910" r="9.475509" opacity="0.916826" style="stroke:black;stroke-width:0.5;fill:url(#radialffffffbfbfbf)"/>
<circle cx="116.406937" cy="54.133635" r="10.554519" opacity="0.967620" style="stroke:black;stroke-width:0.5;fill:url(#radialffffffbfbfbf)"/>
<circle cx="63.087523" cy="126.695345" r="11.272727" opacity="1.000000" style="stroke:black;stroke-width:0.5;fill:url(#radialffffffbfbfbf)"/>
</svg>
</g>
</svg>
