<?xml version="1.0"?>
<svg version="1.1" id="topsvg"
xmlns="http://www.w3.org/2000/svg" xmlns:xlink="http://www.w3.org/1999/xlink"
xmlns:cml="http://www.xml-cml.org/schema" x="0" y="0" width="1024px" height="1024px" viewBox="0 0 100 100">
<title>93922 - Open Babel Depiction</title>
<rect x="0" y="0" width="100" height="100" fill="white"/>
<defs>
<radialGradient id='radialffffff666666' cx='50%' cy='50%' r='50%' fx='30%' fy='30%'>
  <stop offset=' 0%' stop-color="rgb(255,255,255)"  stop-opacity='1.0'/>
  <stop offset='100%' stop-color="rgb(102,102,102)"  stop-opacity ='1.0'/>
</radialGradient>
<radialGradient id='radialffffffbfbfbf' cx='50%' cy='50%' r='50%' fx='30%' fy='30%'>
  <stop offset=' 0%' stop-color="rgb(255,255,255)"  stop-opacity='1.0'/>
  <stop offset='100%' stop-color="rgb(191,191,191)"  stop-opacity ='1.0'/>
</radialGradient>
</defs>
<g transform="translate(0,0)">
<svg width="100" height="100" x="0" y="0" viewBox="0 0 236.084 218.682"
font-family="sans-serif" stroke="rgb(0,0,0)" stroke-width="2"  stroke-linecap="round">
<line x1="139.6" y1="111.0" x2="175.0" y2="105.2" opacity="1.0" stroke="rgb(0,0,0)"  stroke-width="1.1"/>
<line x1="139.6" y1="111.0" x2="159.6" y2="117.8" opacity="0.4" stroke="rgb(0,0,0)"  stroke-width="2.0"/>
<line x1="109.1" y1="148.3" x2="117.4" y2="178.7" opacity="0.7" stroke="rgb(0,0,0)"  stroke-width="1.4"/>
<line x1="109.1" y1="148.3" x2="110.1" y2="154.5" opacity="0.5" stroke="rgb(0,0,0)"  stroke-width="0.8"/>
<line x1="63.6" y1="133.5" x2="54.1" y2="145.4" opacity="0.3" stroke="rgb(0,0,0)"  stroke-width="1.8"/>
<line x1="63.6" y1="133.5" x2="40.0" y2="144.2" opacity="0.6" stroke="rgb(0,0,0)"  stroke-width="1.2"/>
<line x1="109.2" y1="73.2" x2="119.5" y2="40.0" opacity="0.4" stroke="rgb(0,0,0)"  stroke-width="1.5"/>
<line x1="175.0" y1="105.2" x2="195.1" y2="134.1" opacity="0.5" stroke="rgb(0,0,0)"  stroke-width="0.7"/>
<line x1="175.0" y1="105.2" x2="161.6" y2="98.9" opacity="0.2" stroke="rgb(0,0,0)"  stroke-width="0.4"/>
<line x1="175.0" y1="105.2" x2="196.1" y2="78.0" opacity="0.1" stroke="rgb(0,0,0)"  stroke-width="0.8"/>
<line x1="159.6" y1="117.8" x2="180.3" y2="146.4" opacity="0.3" stroke="rgb(0,0,0)"  stroke-width="2.5"/>
<line x1="159.6" y1="117.8" x2="179.3" y2="90.1" opacity="0.8" stroke="rgb(0,0,0)"  stroke-width="2.6"/>
<line x1="159.6" y1="117.8" x2="134.9" y2="122.4" opacity="0.9" stroke="rgb(0,0,0)"  stroke-width="2.7"/>
<line x1="67.9" y1="85.6" x2="40.9" y2="63.8" opacity="0.9" stroke="rgb(0,0,0)"  stroke-width="1.5"/>
<line x1="109.1" y1="148.3" x2="139.6" y2="111.0" opacity="0.5" stroke="rgb(0,0,0)"  stroke-width="1.3"/>
<line x1="139.6" y1="111.0" x2="109.2" y2="73.2" opacity="0.4" stroke="rgb(0,0,0)"  stroke-width="1.5"/>
<line x1="109.2" y1="73.2" x2="67.9" y2="85.6" opacity="0.5" stroke="rgb(0,0,0)"  stroke-width="1.5"/>
<line x1="105.5" y1="81.9" x2="75.8" y2="90.8" opacity="0.5" stroke="rgb(0,0,0)"  stroke-width="1.5"/>
<line x1="67.9" y1="85.6" x2="63.6" y2="133.5" opacity="0.5" stroke="rgb(0,0,0)"  stroke-width="1.5"/>
<line x1="63.6" y1="133.5" x2="109.1" y2="148.3" opacity="0.5" stroke="rgb(0,0,0)"  stroke-width="1.3"/>
<circle cx="161.563554" cy="98.948788" r="5.636364" opacity="0.200000" style="stroke:black;stroke-width:0.5;fill:url(#radialffffffbfbfbf)"/>
<circle cx="110.072356" cy="154.521527" r="5.636364" opacity="0.372585" style="stroke:black;stroke-width:0.5;fill:url(#radialffffffbfbfbf)"/>
<circle cx="195.133985" cy="134.136373" r="5.636364" opacity="0.469084" style="stroke:black;stroke-width:0.5;fill:url(#radialffffffbfbfbf)"/>
<circle cx="175.038759" cy="105.204788" r="13.818182" opacity="0.486648" style="stroke:black;stroke-width:0.5;fill:url(#radialffffff666666)"/>
<circle cx="196.084305" cy="78.022436" r="5.636364" opacity="0.544538" style="stroke:black;stroke-width:0.5;fill:url(#radialffffffbfbfbf)"/>
<circle cx="40.000000" cy="144.154993" r="5.636364" opacity="0.556839" style="stroke:black;stroke-width:0.5;fill:url(#radialffffffbfbfbf)"/>
<circle cx="109.057608" cy="148.317070" r="13.818182" opacity="0.629497" style="stroke:black;stroke-width:0.5;fill:url(#radialffffff666666)"/>
<circle cx="63.645232" cy="133.459875" r="13.818182" opacity="0.697299" style="stroke:black;stroke-width:0.5;fill:url(#radialffffff666666)"/>
<circle cx="139.606346" cy="110.977575" r="13.818182" opacity="0.697503" style="stroke:black;stroke-width:0.5;fill:url(#radialffffff666666)"/>
<circle cx="67.949051" cy="85.631433" r="13.818182" opacity="0.701130" style="stroke:black;stroke-width:0.5;fill:url(#radialffffff666666)"/>
<circle cx="109.186465" cy="73.238625" r="13.818182" opacity="0.701198" style="stroke:black;stroke-width:0.5;fill:url(#radialffffff666666)"/>
<circle cx="40.921326" cy="63.761203" r="5.668440" opacity="0.709116" style="stroke:black;stroke-width:0.5;fill:url(#radialffffffbfbfbf)"/>
<circle cx="119.478906" cy="40.000000" r="5.677029" opacity="0.709653" style="stroke:black;stroke-width:0.5;fill:url(#radialffffffbfbfbf)"/>
<circle cx="117.391425" cy="178.682187" r="5.796206" opacity="0.717063" style="stroke:black;stroke-width:0.5;fill:url(#radialffffffbfbfbf)"/>
<circle cx="54.113047" cy="145.414569" r="8.129291" opacity="0.849204" style="stroke:black;stroke-width:0.5;fill:url(#radialffffffbfbfbf)"/>
<circle cx="159.579158" cy="117.823096" r="22.564071" opacity="0.903583" style="stroke:black;stroke-width:0.5;fill:url(#radialffffff666666)"/>
<circle cx="180.331554" cy="146.377774" r="9.226044" opacity="0.904676" style="stroke:black;stroke-width:0.5;fill:url(#radialffffffbfbfbf)"/>
<circle cx="179.271707" cy="90.115651" r="10.001234" opacity="0.941916" style="stroke:black;stroke-width:0.5;fill:url(#radialffffffbfbfbf)"/>
<circle cx="134.883743" cy="122.397514" r="11.272727" opacity="1.000000" style="stroke:black;stroke-width:0.5;fill:url(#radialffffffbfbfbf)"/>
</svg>
</g>
</svg>
