<?xml version="1.0"?>
<svg version="1.1" id="topsvg"
xmlns="http://www.w3.org/2000/svg" xmlns:xlink="http://www.w3.org/1999/xlink"
xmlns:cml="http://www.xml-cml.org/schema" x="0" y="0" width="200px" height="200px" viewBox="0 0 100 100">
<title>9639 - Open Babel Depiction</title>
<rect x="0" y="0" width="100" height="100" fill="white"/>
<defs>
<radialGradient id='radialffffff666666' cx='50%' cy='50%' r='50%' fx='30%' fy='30%'>
  <stop offset=' 0%' stop-color="rgb(255,255,255)"  stop-opacity='1.0'/>
  <stop offset='100%' stop-color="rgb(102,102,102)"  stop-opacity ='1.0'/>
</radialGradient>
<radialGradient id='radialffffff7fb2ff' cx='50%' cy='50%' r='50%' fx='30%' fy='30%'>
  <stop offset=' 0%' stop-color="rgb(255,255,255)"  stop-opacity='1.0'/>
  <stop offset='100%' stop-color="rgb(127,178,255)"  stop-opacity ='1.0'/>
</radialGradient>
</defs>
<g transform="translate(0,0)">
<svg width="100" height="100" x="0" y="0" viewBox="0 0 264.943 185.735"
font-family="sans-serif" stroke="rgb(0,0,0)" stroke-width="4"  stroke-linecap="round">
<line x1="138.9" y1="142.7" x2="118.6" y2="109.6" opacity="1.0" stroke="rgb(0,0,0)"  stroke-width="0.9"/>
<line x1="98.0" y1="107.7" x2="118.6" y2="109.6" opacity="0.3" stroke="rgb(0,0,0)"  stroke-width="0.5"/>
<line x1="167.0" y1="78.2" x2="146.4" y2="76.2" opacity="0.2" stroke="rgb(0,0,0)"  stroke-width="0.5"/>
<line x1="126.0" y1="43.1" x2="146.4" y2="76.2" opacity="0.2" stroke="rgb(0,0,0)"  stroke-width="0.9"/>
<line x1="69.3" y1="145.7" x2="90.5" y2="113.6" opacity="0.3" stroke="rgb(0,0,0)"  stroke-width="1.8"/>
<line x1="109.7" y1="120.0" x2="90.5" y2="113.6" opacity="0.6" stroke="rgb(0,0,0)"  stroke-width="2.4"/>
<line x1="155.2" y1="65.6" x2="174.4" y2="72.1" opacity="0.8" stroke="rgb(0,0,0)"  stroke-width="2.4"/>
<line x1="195.6" y1="40.0" x2="174.4" y2="72.1" opacity="0.8" stroke="rgb(0,0,0)"  stroke-width="1.8"/>
<line x1="40.7" y1="74.9" x2="63.0" y2="80.9" opacity="0.6" stroke="rgb(0,0,0)"  stroke-width="1.7"/>
<line x1="40.0" y1="87.1" x2="63.0" y2="80.9" opacity="0.6" stroke="rgb(0,0,0)"  stroke-width="2.6"/>
<line x1="82.4" y1="48.1" x2="63.0" y2="80.9" opacity="0.9" stroke="rgb(0,0,0)"  stroke-width="2.2"/>
<line x1="224.9" y1="98.5" x2="201.9" y2="104.8" opacity="0.7" stroke="rgb(0,0,0)"  stroke-width="2.6"/>
<line x1="182.5" y1="137.6" x2="201.9" y2="104.8" opacity="0.9" stroke="rgb(0,0,0)"  stroke-width="2.2"/>
<line x1="224.2" y1="110.9" x2="201.9" y2="104.8" opacity="0.7" stroke="rgb(0,0,0)"  stroke-width="1.7"/>
<line x1="118.6" y1="109.6" x2="146.4" y2="76.2" opacity="0.6" stroke="rgb(0,0,0)"  stroke-width="1.0"/>
<line x1="118.6" y1="109.6" x2="90.5" y2="113.6" opacity="0.3" stroke="rgb(0,0,0)"  stroke-width="1.5"/>
<line x1="146.4" y1="76.2" x2="174.4" y2="72.1" opacity="0.5" stroke="rgb(0,0,0)"  stroke-width="1.5"/>
<line x1="90.5" y1="113.6" x2="63.0" y2="80.9" opacity="0.5" stroke="rgb(0,0,0)"  stroke-width="2.0"/>
<line x1="174.4" y1="72.1" x2="201.9" y2="104.8" opacity="0.7" stroke="rgb(0,0,0)"  stroke-width="2.0"/>
<circle cx="166.951732" cy="78.164439" r="10.363636" opacity="0.200000" style="stroke:black;stroke-width:0.5;fill:url(#radialffffff7fb2ff)"/>
<circle cx="97.977236" cy="107.682046" r="10.363636" opacity="0.200000" style="stroke:black;stroke-width:0.5;fill:url(#radialffffff7fb2ff)"/>
<circle cx="125.990798" cy="43.053841" r="10.363636" opacity="0.547159" style="stroke:black;stroke-width:0.5;fill:url(#radialffffff7fb2ff)"/>
<circle cx="138.941030" cy="142.732597" r="10.363636" opacity="0.547949" style="stroke:black;stroke-width:0.5;fill:url(#radialffffff7fb2ff)"/>
<circle cx="146.369756" cy="76.159998" r="13.818182" opacity="0.568885" style="stroke:black;stroke-width:0.5;fill:url(#radialffffff666666)"/>
<circle cx="118.559212" cy="109.623580" r="13.818182" opacity="0.569155" style="stroke:black;stroke-width:0.5;fill:url(#radialffffff666666)"/>
<circle cx="40.691975" cy="74.907580" r="10.363636" opacity="0.634136" style="stroke:black;stroke-width:0.5;fill:url(#radialffffff7fb2ff)"/>
<circle cx="224.248430" cy="110.855983" r="10.363636" opacity="0.634378" style="stroke:black;stroke-width:0.5;fill:url(#radialffffff7fb2ff)"/>
<circle cx="195.605800" cy="40.000000" r="12.055830" opacity="0.762654" style="stroke:black;stroke-width:0.5;fill:url(#radialffffff7fb2ff)"/>
<circle cx="69.320309" cy="145.734969" r="12.076096" opacity="0.763295" style="stroke:black;stroke-width:0.5;fill:url(#radialffffff7fb2ff)"/>
<circle cx="174.449084" cy="72.116804" r="17.841617" opacity="0.803483" style="stroke:black;stroke-width:0.5;fill:url(#radialffffff666666)"/>
<circle cx="90.485603" cy="113.606727" r="17.852425" opacity="0.803726" style="stroke:black;stroke-width:0.5;fill:url(#radialffffff666666)"/>
<circle cx="63.018186" cy="80.866574" r="19.443580" opacity="0.838779" style="stroke:black;stroke-width:0.5;fill:url(#radialffffff666666)"/>
<circle cx="201.922219" cy="104.842660" r="19.448984" opacity="0.838896" style="stroke:black;stroke-width:0.5;fill:url(#radialffffff666666)"/>
<circle cx="82.442105" cy="48.089248" r="15.923122" opacity="0.876482" style="stroke:black;stroke-width:0.5;fill:url(#radialffffff7fb2ff)"/>
<circle cx="182.501160" cy="137.605689" r="15.941651" opacity="0.876992" style="stroke:black;stroke-width:0.5;fill:url(#radialffffff7fb2ff)"/>
<circle cx="155.239621" cy="65.631680" r="20.077030" opacity="0.984189" style="stroke:black;stroke-width:0.5;fill:url(#radialffffff7fb2ff)"/>
<circle cx="109.692206" cy="120.028944" r="20.088032" opacity="0.984459" style="stroke:black;stroke-width:0.5;fill:url(#radialffffff7fb2ff)"/>
<circle cx="40.000000" cy="87.137243" r="20.727273" opacity="1.000000" style="stroke:black;stroke-width:0.5;fill:url(#radialffffff7fb2ff)"/>
<circle cx="224.943265" cy="98.511944" r="20.727273" opacity="1.000000" style="stroke:black;stroke-width:0.5;fill:url(#radialffffff7fb2ff)"/>
</svg>
</g>
</svg>
