<?xml version="1.0"?>
<svg version="1.1" id="topsvg"
xmlns="http://www.w3.org/2000/svg" xmlns:xlink="http://www.w3.org/1999/xlink"
xmlns:cml="http://www.xml-cml.org/schema" x="0" y="0" width="1024px" height="1024px" viewBox="0 0 100 100">
<title>10041 - Open Babel Depiction</title>
<rect x="0" y="0" width="100" height="100" fill="white"/>
<defs>
<radialGradient id='radialffffff666666' cx='50%' cy='50%' r='50%' fx='30%' fy='30%'>
  <stop offset=' 0%' stop-color="rgb(255,255,255)"  stop-opacity='1.0'/>
  <stop offset='100%' stop-color="rgb(102,102,102)"  stop-opacity ='1.0'/>
</radialGradient>
<radialGradient id='radialffffffbfbfbf' cx='50%' cy='50%' r='50%' fx='30%' fy='30%'>
  <stop offset=' 0%' stop-color="rgb(255,255,255)"  stop-opacity='1.0'/>
  <stop offset='100%' stop-color="rgb(191,191,191)"  stop-opacity ='1.0'/>
</radialGradient>
</defs>
<g transform="translate(0,0)">
<svg width="100" height="100" x="0" y="0" viewBox="0 0 208.603 213.267"
font-family="sans-serif" stroke="rgb(0,0,0)" stroke-width="2"  stroke-linecap="round">
<line x1="106.7" y1="107.5" x2="62.0" y2="95.1" opacity="1.0" stroke="rgb(0,0,0)"  stroke-width="1.8"/>
<line x1="106.7" y1="107.5" x2="136.4" y2="66.2" opacity="0.6" stroke="rgb(0,0,0)"  stroke-width="1.5"/>
<line x1="106.7" y1="107.5" x2="98.8" y2="125.4" opacity="0.5" stroke="rgb(0,0,0)"  stroke-width="1.0"/>
<line x1="106.7" y1="107.5" x2="129.4" y2="143.3" opacity="0.3" stroke="rgb(0,0,0)"  stroke-width="1.9"/>
<line x1="62.0" y1="95.1" x2="66.5" y2="82.2" opacity="0.6" stroke="rgb(0,0,0)"  stroke-width="2.4"/>
<line x1="62.0" y1="95.1" x2="44.9" y2="69.6" opacity="0.8" stroke="rgb(0,0,0)"  stroke-width="1.8"/>
<line x1="62.0" y1="95.1" x2="40.0" y2="124.0" opacity="0.6" stroke="rgb(0,0,0)"  stroke-width="2.1"/>
<line x1="136.4" y1="66.2" x2="168.6" y2="74.0" opacity="0.7" stroke="rgb(0,0,0)"  stroke-width="1.3"/>
<line x1="136.4" y1="66.2" x2="142.6" y2="52.7" opacity="0.4" stroke="rgb(0,0,0)"  stroke-width="1.9"/>
<line x1="136.4" y1="66.2" x2="121.0" y2="40.0" opacity="0.6" stroke="rgb(0,0,0)"  stroke-width="1.3"/>
<line x1="98.8" y1="125.4" x2="77.7" y2="154.9" opacity="0.4" stroke="rgb(0,0,0)"  stroke-width="0.5"/>
<line x1="98.8" y1="125.4" x2="82.6" y2="100.5" opacity="0.2" stroke="rgb(0,0,0)"  stroke-width="0.4"/>
<line x1="98.8" y1="125.4" x2="130.2" y2="134.5" opacity="0.1" stroke="rgb(0,0,0)"  stroke-width="0.4"/>
<line x1="129.4" y1="143.3" x2="135.5" y2="131.5" opacity="0.1" stroke="rgb(0,0,0)"  stroke-width="2.6"/>
<line x1="129.4" y1="143.3" x2="161.5" y2="152.8" opacity="0.9" stroke="rgb(0,0,0)"  stroke-width="2.1"/>
<line x1="129.4" y1="143.3" x2="109.0" y2="173.3" opacity="0.7" stroke="rgb(0,0,0)"  stroke-width="2.2"/>
<circle cx="82.591114" cy="100.509373" r="5.636364" opacity="0.200000" style="stroke:black;stroke-width:0.5;fill:url(#radialffffffbfbfbf)"/>
<circle cx="130.198412" cy="134.504633" r="5.636364" opacity="0.200000" style="stroke:black;stroke-width:0.5;fill:url(#radialffffffbfbfbf)"/>
<circle cx="98.840629" cy="125.371330" r="13.818182" opacity="0.401464" style="stroke:black;stroke-width:0.5;fill:url(#radialffffff666666)"/>
<circle cx="77.681093" cy="154.927666" r="5.636364" opacity="0.406422" style="stroke:black;stroke-width:0.5;fill:url(#radialffffffbfbfbf)"/>
<circle cx="120.992122" cy="40.000000" r="5.636364" opacity="0.593610" style="stroke:black;stroke-width:0.5;fill:url(#radialffffffbfbfbf)"/>
<circle cx="168.602738" cy="73.998577" r="5.636364" opacity="0.625092" style="stroke:black;stroke-width:0.5;fill:url(#radialffffffbfbfbf)"/>
<circle cx="136.395654" cy="66.205578" r="13.976104" opacity="0.711136" style="stroke:black;stroke-width:0.5;fill:url(#radialffffff666666)"/>
<circle cx="106.666805" cy="107.506153" r="14.453395" opacity="0.723177" style="stroke:black;stroke-width:0.5;fill:url(#radialffffff666666)"/>
<circle cx="44.906703" cy="69.592829" r="6.042124" opacity="0.732117" style="stroke:black;stroke-width:0.5;fill:url(#radialffffffbfbfbf)"/>
<circle cx="161.486525" cy="152.844225" r="7.102106" opacity="0.793741" style="stroke:black;stroke-width:0.5;fill:url(#radialffffffbfbfbf)"/>
<circle cx="61.988932" cy="95.141526" r="18.940074" opacity="0.827848" style="stroke:black;stroke-width:0.5;fill:url(#radialffffff666666)"/>
<circle cx="40.000000" cy="124.017757" r="7.904137" opacity="0.837361" style="stroke:black;stroke-width:0.5;fill:url(#radialffffffbfbfbf)"/>
<circle cx="129.438686" cy="143.306177" r="20.443154" opacity="0.860069" style="stroke:black;stroke-width:0.5;fill:url(#radialffffff666666)"/>
<circle cx="108.965889" cy="173.267258" r="8.531039" opacity="0.869934" style="stroke:black;stroke-width:0.5;fill:url(#radialffffffbfbfbf)"/>
<circle cx="142.589579" cy="52.659892" r="8.575325" opacity="0.872189" style="stroke:black;stroke-width:0.5;fill:url(#radialffffffbfbfbf)"/>
<circle cx="66.504160" cy="82.249403" r="10.646113" opacity="0.971809" style="stroke:black;stroke-width:0.5;fill:url(#radialffffffbfbfbf)"/>
<circle cx="135.476684" cy="131.505539" r="11.272727" opacity="1.000000" style="stroke:black;stroke-width:0.5;fill:url(#radialffffffbfbfbf)"/>
</svg>
</g>
</svg>
