<?xml version="1.0"?>
<svg version="1.1" id="topsvg"
xmlns="http://www.w3.org/2000/svg" xmlns:xlink="http://www.w3.org/1999/xlink"
xmlns:cml="http://www.xml-cml.org/schema" x="0" y="0" width="200px" height="200px" viewBox="0 0 100 100">
<title>10326 - Open Babel Depiction</title>
<rect x="0" y="0" width="100" height="100" fill="white"/>
<defs>
<radialGradient id='radialffffff666666' cx='50%' cy='50%' r='50%' fx='30%' fy='30%'>
  <stop offset=' 0%' stop-color="rgb(255,255,255)"  stop-opacity='1.0'/>
  <stop offset='100%' stop-color="rgb(102,102,102)"  stop-opacity ='1.0'/>
</radialGradient>
<radialGradient id='radialffffffbfbfbf' cx='50%' cy='50%' r='50%' fx='30%' fy='30%'>
  <stop offset=' 0%' stop-color="rgb(255,255,255)"  stop-opacity='1.0'/>
  <stop offset='100%' stop-color="rgb(191,191,191)"  stop-opacity ='1.0'/>
</radialGradient>
</defs>
<g transform="translate(0,0)">
<svg width="100" height="100" x="0" y="0" viewBox="0 0 286.668 237.759"
font-family="sans-serif" stroke="rgb(0,0,0)" stroke-width="4"  stroke-linecap="round">
<line x1="71.7" y1="118.9" x2="67.8" y2="118.9" opacity="1.0" stroke="rgb(0,0,0)"  stroke-width="0.6"/>
<line x1="71.7" y1="118.9" x2="40.0" y2="118.9" opacity="0.2" stroke="rgb(0,0,0)"  stroke-width="1.6"/>
<line x1="97.5" y1="157.8" x2="92.0" y2="184.3" opacity="0.5" stroke="rgb(0,0,0)"  stroke-width="1.4"/>
<line x1="97.5" y1="157.8" x2="90.6" y2="167.1" opacity="0.5" stroke="rgb(0,0,0)"  stroke-width="2.4"/>
<line x1="97.5" y1="80.0" x2="90.6" y2="70.7" opacity="0.8" stroke="rgb(0,0,0)"  stroke-width="2.4"/>
<line x1="97.5" y1="80.0" x2="92.0" y2="53.4" opacity="0.8" stroke="rgb(0,0,0)"  stroke-width="1.4"/>
<line x1="179.0" y1="163.5" x2="179.1" y2="197.8" opacity="0.5" stroke="rgb(0,0,0)"  stroke-width="1.6"/>
<line x1="179.0" y1="74.2" x2="179.1" y2="40.0" opacity="0.5" stroke="rgb(0,0,0)"  stroke-width="1.6"/>
<line x1="216.9" y1="141.0" x2="246.7" y2="158.0" opacity="0.5" stroke="rgb(0,0,0)"  stroke-width="1.5"/>
<line x1="216.9" y1="96.7" x2="246.7" y2="79.8" opacity="0.5" stroke="rgb(0,0,0)"  stroke-width="1.5"/>
<line x1="140.0" y1="143.5" x2="177.4" y2="166.1" opacity="0.5" stroke="rgb(0,0,0)"  stroke-width="1.6"/>
<line x1="143.1" y1="138.4" x2="180.5" y2="161.0" opacity="0.5" stroke="rgb(0,0,0)"  stroke-width="1.6" stroke-dasharray="5.0,5.0"/>
<line x1="180.5" y1="166.1" x2="218.4" y2="143.6" opacity="0.5" stroke="rgb(0,0,0)"  stroke-width="1.6"/>
<line x1="177.4" y1="160.9" x2="215.3" y2="138.5" opacity="0.5" stroke="rgb(0,0,0)"  stroke-width="1.6" stroke-dasharray="5.0,5.0"/>
<line x1="219.9" y1="141.0" x2="219.9" y2="96.7" opacity="0.5" stroke="rgb(0,0,0)"  stroke-width="1.6"/>
<line x1="213.9" y1="141.0" x2="213.9" y2="96.7" opacity="0.5" stroke="rgb(0,0,0)"  stroke-width="1.6" stroke-dasharray="5.0,5.0"/>
<line x1="218.4" y1="94.1" x2="180.5" y2="71.7" opacity="0.5" stroke="rgb(0,0,0)"  stroke-width="1.6"/>
<line x1="215.3" y1="99.3" x2="177.4" y2="76.8" opacity="0.5" stroke="rgb(0,0,0)"  stroke-width="1.6" stroke-dasharray="5.0,5.0"/>
<line x1="177.4" y1="71.7" x2="140.0" y2="94.2" opacity="0.5" stroke="rgb(0,0,0)"  stroke-width="1.6"/>
<line x1="180.5" y1="76.8" x2="143.1" y2="99.4" opacity="0.5" stroke="rgb(0,0,0)"  stroke-width="1.6" stroke-dasharray="5.0,5.0"/>
<line x1="138.5" y1="96.8" x2="138.5" y2="141.0" opacity="0.6" stroke="rgb(0,0,0)"  stroke-width="1.7"/>
<line x1="144.5" y1="96.8" x2="144.5" y2="141.0" opacity="0.6" stroke="rgb(0,0,0)"  stroke-width="1.7" stroke-dasharray="5.0,5.0"/>
<line x1="97.5" y1="157.8" x2="71.7" y2="118.9" opacity="0.6" stroke="rgb(0,0,0)"  stroke-width="1.5"/>
<line x1="71.7" y1="118.9" x2="97.5" y2="80.0" opacity="0.5" stroke="rgb(0,0,0)"  stroke-width="1.5"/>
<line x1="97.5" y1="80.0" x2="141.5" y2="96.8" opacity="0.5" stroke="rgb(0,0,0)"  stroke-width="1.7"/>
<line x1="141.5" y1="141.0" x2="97.5" y2="157.8" opacity="0.6" stroke="rgb(0,0,0)"  stroke-width="1.7"/>
<circle cx="67.813110" cy="118.881149" r="5.636364" opacity="0.200000" style="stroke:black;stroke-width:0.5;fill:url(#radialffffffbfbfbf)"/>
<circle cx="91.970837" cy="53.437795" r="5.636364" opacity="0.571158" style="stroke:black;stroke-width:0.5;fill:url(#radialffffffbfbfbf)"/>
<circle cx="91.970837" cy="184.321347" r="5.636364" opacity="0.571227" style="stroke:black;stroke-width:0.5;fill:url(#radialffffffbfbfbf)"/>
<circle cx="71.689458" cy="118.877992" r="13.818182" opacity="0.656300" style="stroke:black;stroke-width:0.5;fill:url(#radialffffff666666)"/>
<circle cx="246.668042" cy="157.966602" r="5.705048" opacity="0.711402" style="stroke:black;stroke-width:0.5;fill:url(#radialffffffbfbfbf)"/>
<circle cx="246.661729" cy="79.779913" r="5.706827" opacity="0.711513" style="stroke:black;stroke-width:0.5;fill:url(#radialffffffbfbfbf)"/>
<circle cx="216.853626" cy="141.037569" r="14.363672" opacity="0.720929" style="stroke:black;stroke-width:0.5;fill:url(#radialffffff666666)"/>
<circle cx="216.850469" cy="96.715259" r="14.366942" opacity="0.721011" style="stroke:black;stroke-width:0.5;fill:url(#radialffffff666666)"/>
<circle cx="178.964537" cy="74.236862" r="14.930415" opacity="0.735014" style="stroke:black;stroke-width:0.5;fill:url(#radialffffff666666)"/>
<circle cx="178.967694" cy="163.522279" r="14.931505" opacity="0.735041" style="stroke:black;stroke-width:0.5;fill:url(#radialffffff666666)"/>
<circle cx="179.059236" cy="197.759141" r="6.140718" opacity="0.738066" style="stroke:black;stroke-width:0.5;fill:url(#radialffffffbfbfbf)"/>
<circle cx="179.056080" cy="40.000000" r="6.140718" opacity="0.738066" style="stroke:black;stroke-width:0.5;fill:url(#radialffffffbfbfbf)"/>
<circle cx="141.548944" cy="140.974436" r="15.350023" opacity="0.745271" style="stroke:black;stroke-width:0.5;fill:url(#radialffffff666666)"/>
<circle cx="141.545787" cy="96.784705" r="15.350023" opacity="0.745271" style="stroke:black;stroke-width:0.5;fill:url(#radialffffff666666)"/>
<circle cx="97.523357" cy="79.962998" r="16.397409" opacity="0.770277" style="stroke:black;stroke-width:0.5;fill:url(#radialffffff666666)"/>
<circle cx="97.523357" cy="157.792987" r="16.398499" opacity="0.770303" style="stroke:black;stroke-width:0.5;fill:url(#radialffffff666666)"/>
<circle cx="40.000000" cy="118.877992" r="6.793778" opacity="0.776321" style="stroke:black;stroke-width:0.5;fill:url(#radialffffffbfbfbf)"/>
<circle cx="90.553508" cy="70.660395" r="11.271838" opacity="0.999961" style="stroke:black;stroke-width:0.5;fill:url(#radialffffffbfbfbf)"/>
<circle cx="90.559821" cy="167.092433" r="11.272727" opacity="1.000000" style="stroke:black;stroke-width:0.5;fill:url(#radialffffffbfbfbf)"/>
</svg>
</g>
</svg>
