<?xml version="1.0"?>
<svg version="1.1" id="topsvg"
xmlns="http://www.w3.org/2000/svg" xmlns:xlink="http://www.w3.org/1999/xlink"
xmlns:cml="http://www.xml-cml.org/schema" x="0" y="0" width="1024px" height="1024px" viewBox="0 0 100 100">
<title>10352 - Open Babel Depiction</title>
<rect x="0" y="0" width="100" height="100" fill="white"/>
<defs>
<radialGradient id='radialffffff666666' cx='50%' cy='50%' r='50%' fx='30%' fy='30%'>
  <stop offset=' 0%' stop-color="rgb(255,255,255)"  stop-opacity='1.0'/>
  <stop offset='100%' stop-color="rgb(102,102,102)"  stop-opacity ='1.0'/>
</radialGradient>
<radialGradient id='radialffffffbfbfbf' cx='50%' cy='50%' r='50%' fx='30%' fy='30%'>
  <stop offset=' 0%' stop-color="rgb(255,255,255)"  stop-opacity='1.0'/>
  <stop offset='100%' stop-color="rgb(191,191,191)"  stop-opacity ='1.0'/>
</radialGradient>
</defs>
<g transform="translate(0,0)">
<svg width="100" height="100" x="0" y="0" viewBox="0 0 206.376 213.538"
font-family="sans-serif" stroke="rgb(0,0,0)" stroke-width="2"  stroke-linecap="round">
<line x1="109.3" y1="148.1" x2="107.7" y2="148.2" opacity="1.0" stroke="rgb(0,0,0)"  stroke-width="1.0"/>
<line x1="110.3" y1="153.1" x2="107.4" y2="153.3" opacity="1.0" stroke="rgb(0,0,0)"  stroke-width="1.0"/>
<line x1="111.3" y1="158.1" x2="107.2" y2="158.4" opacity="1.0" stroke="rgb(0,0,0)"  stroke-width="1.0"/>
<line x1="112.3" y1="163.2" x2="106.9" y2="163.6" opacity="1.0" stroke="rgb(0,0,0)"  stroke-width="1.0"/>
<line x1="113.3" y1="168.2" x2="106.6" y2="168.7" opacity="1.0" stroke="rgb(0,0,0)"  stroke-width="1.0"/>
<line x1="114.3" y1="173.3" x2="106.3" y2="173.8" opacity="1.0" stroke="rgb(0,0,0)"  stroke-width="1.0"/>
<line x1="107.7" y1="65.4" x2="109.3" y2="65.5" opacity="1.0" stroke="rgb(0,0,0)"  stroke-width="1.0"/>
<line x1="107.4" y1="60.2" x2="110.3" y2="60.4" opacity="1.0" stroke="rgb(0,0,0)"  stroke-width="1.0"/>
<line x1="107.1" y1="55.1" x2="111.3" y2="55.4" opacity="1.0" stroke="rgb(0,0,0)"  stroke-width="1.0"/>
<line x1="106.9" y1="50.0" x2="112.3" y2="50.4" opacity="1.0" stroke="rgb(0,0,0)"  stroke-width="1.0"/>
<line x1="106.6" y1="44.9" x2="113.3" y2="45.3" opacity="1.0" stroke="rgb(0,0,0)"  stroke-width="1.0"/>
<line x1="106.3" y1="39.7" x2="114.2" y2="40.3" opacity="1.0" stroke="rgb(0,0,0)"  stroke-width="1.0"/>
<line x1="108.4" y1="106.8" x2="136.5" y2="106.8" opacity="1.0" stroke="rgb(0,0,0)"  stroke-width="0.4"/>
<line x1="108.4" y1="106.8" x2="80.5" y2="106.8" opacity="0.1" stroke="rgb(0,0,0)"  stroke-width="0.4"/>
<line x1="67.9" y1="131.1" x2="68.0" y2="143.8" opacity="0.1" stroke="rgb(0,0,0)"  stroke-width="2.6"/>
<line x1="67.9" y1="131.1" x2="40.0" y2="142.9" opacity="0.9" stroke="rgb(0,0,0)"  stroke-width="1.9"/>
<line x1="67.9" y1="82.4" x2="40.0" y2="70.7" opacity="0.6" stroke="rgb(0,0,0)"  stroke-width="1.9"/>
<line x1="67.9" y1="82.4" x2="68.0" y2="69.7" opacity="0.6" stroke="rgb(0,0,0)"  stroke-width="2.6"/>
<line x1="145.1" y1="127.8" x2="166.4" y2="147.9" opacity="0.9" stroke="rgb(0,0,0)"  stroke-width="2.4"/>
<line x1="145.1" y1="85.8" x2="166.4" y2="65.7" opacity="0.8" stroke="rgb(0,0,0)"  stroke-width="2.4"/>
<line x1="108.1" y1="71.8" x2="108.4" y2="106.8" opacity="0.8" stroke="rgb(0,0,0)"  stroke-width="1.0"/>
<line x1="108.4" y1="106.8" x2="108.1" y2="141.8" opacity="0.3" stroke="rgb(0,0,0)"  stroke-width="1.0"/>
<line x1="108.1" y1="141.8" x2="67.9" y2="131.1" opacity="0.3" stroke="rgb(0,0,0)"  stroke-width="1.8"/>
<line x1="67.9" y1="131.1" x2="67.9" y2="82.4" opacity="0.6" stroke="rgb(0,0,0)"  stroke-width="2.1"/>
<line x1="67.9" y1="82.4" x2="108.1" y2="71.8" opacity="0.7" stroke="rgb(0,0,0)"  stroke-width="1.8"/>
<line x1="108.1" y1="141.8" x2="145.1" y2="127.8" opacity="0.6" stroke="rgb(0,0,0)"  stroke-width="1.8"/>
<line x1="145.1" y1="127.8" x2="145.1" y2="85.8" opacity="0.6" stroke="rgb(0,0,0)"  stroke-width="1.8"/>
<line x1="137.9" y1="121.8" x2="137.9" y2="91.8" opacity="0.6" stroke="rgb(0,0,0)"  stroke-width="1.8"/>
<line x1="145.1" y1="85.8" x2="108.1" y2="71.8" opacity="0.6" stroke="rgb(0,0,0)"  stroke-width="1.8"/>
<circle cx="80.514629" cy="106.772371" r="5.636364" opacity="0.200000" style="stroke:black;stroke-width:0.5;fill:url(#radialffffffbfbfbf)"/>
<circle cx="136.501899" cy="106.769237" r="5.636364" opacity="0.200000" style="stroke:black;stroke-width:0.5;fill:url(#radialffffffbfbfbf)"/>
<circle cx="108.373529" cy="106.769237" r="13.818182" opacity="0.428449" style="stroke:black;stroke-width:0.5;fill:url(#radialffffff666666)"/>
<circle cx="110.256691" cy="40.000000" r="5.636364" opacity="0.609077" style="stroke:black;stroke-width:0.5;fill:url(#radialffffffbfbfbf)"/>
<circle cx="110.272358" cy="173.538475" r="5.636364" opacity="0.609101" style="stroke:black;stroke-width:0.5;fill:url(#radialffffffbfbfbf)"/>
<circle cx="108.107191" cy="141.759714" r="13.818182" opacity="0.695609" style="stroke:black;stroke-width:0.5;fill:url(#radialffffff666666)"/>
<circle cx="108.097791" cy="71.778760" r="13.818182" opacity="0.695609" style="stroke:black;stroke-width:0.5;fill:url(#radialffffff666666)"/>
<circle cx="40.000000" cy="70.688343" r="6.308374" opacity="0.748073" style="stroke:black;stroke-width:0.5;fill:url(#radialffffffbfbfbf)"/>
<circle cx="40.012534" cy="142.862665" r="6.308697" opacity="0.748093" style="stroke:black;stroke-width:0.5;fill:url(#radialffffffbfbfbf)"/>
<circle cx="67.855766" cy="131.118749" r="19.583279" opacity="0.841787" style="stroke:black;stroke-width:0.5;fill:url(#radialffffff666666)"/>
<circle cx="67.852633" cy="82.425992" r="19.583279" opacity="0.841787" style="stroke:black;stroke-width:0.5;fill:url(#radialffffff666666)"/>
<circle cx="145.077966" cy="127.781697" r="19.953790" opacity="0.849713" style="stroke:black;stroke-width:0.5;fill:url(#radialffffff666666)"/>
<circle cx="145.068566" cy="85.750511" r="19.953790" opacity="0.849713" style="stroke:black;stroke-width:0.5;fill:url(#radialffffff666666)"/>
<circle cx="166.375563" cy="147.869809" r="9.876392" opacity="0.936019" style="stroke:black;stroke-width:0.5;fill:url(#radialffffffbfbfbf)"/>
<circle cx="166.363030" cy="65.656132" r="9.876392" opacity="0.936019" style="stroke:black;stroke-width:0.5;fill:url(#radialffffffbfbfbf)"/>
<circle cx="67.990502" cy="143.837146" r="11.272727" opacity="1.000000" style="stroke:black;stroke-width:0.5;fill:url(#radialffffffbfbfbf)"/>
<circle cx="67.981101" cy="69.707595" r="11.272727" opacity="1.000000" style="stroke:black;stroke-width:0.5;fill:url(#radialffffffbfbfbf)"/>
</svg>
</g>
</svg>
