<?xml version="1.0"?>
<svg version="1.1" id="topsvg"
xmlns="http://www.w3.org/2000/svg" xmlns:xlink="http://www.w3.org/1999/xlink"
xmlns:cml="http://www.xml-cml.org/schema" x="0" y="0" width="200px" height="200px" viewBox="0 0 100 100">
<title>10942881 - Open Babel Depiction</title>
<rect x="0" y="0" width="100" height="100" fill="white"/>
<defs>
<radialGradient id='radialffffff666666' cx='50%' cy='50%' r='50%' fx='30%' fy='30%'>
  <stop offset=' 0%' stop-color="rgb(255,255,255)"  stop-opacity='1.0'/>
  <stop offset='100%' stop-color="rgb(102,102,102)"  stop-opacity ='1.0'/>
</radialGradient>
<radialGradient id='radialffffffbfbfbf' cx='50%' cy='50%' r='50%' fx='30%' fy='30%'>
  <stop offset=' 0%' stop-color="rgb(255,255,255)"  stop-opacity='1.0'/>
  <stop offset='100%' stop-color="rgb(191,191,191)"  stop-opacity ='1.0'/>
</radialGradient>
</defs>
<g transform="translate(0,0)">
<svg width="100" height="100" x="0" y="0" viewBox="0 0 407.612 253.591"
font-family="sans-serif" stroke="rgb(0,0,0)" stroke-width="4"  stroke-linecap="round">
<line x1="140.8" y1="126.4" x2="94.9" y2="137.7" opacity="1.0" stroke="rgb(0,0,0)"  stroke-width="2.2"/>
<line x1="171.5" y1="158.4" x2="161.7" y2="191.6" opacity="0.7" stroke="rgb(0,0,0)"  stroke-width="2.2"/>
<line x1="94.9" y1="137.7" x2="73.6" y2="144.7" opacity="0.7" stroke="rgb(0,0,0)"  stroke-width="1.5"/>
<line x1="94.9" y1="137.7" x2="91.4" y2="166.5" opacity="0.5" stroke="rgb(0,0,0)"  stroke-width="2.6"/>
<line x1="94.9" y1="137.7" x2="77.9" y2="112.5" opacity="0.9" stroke="rgb(0,0,0)"  stroke-width="2.6"/>
<line x1="195.9" y1="73.4" x2="204.6" y2="40.0" opacity="0.9" stroke="rgb(0,0,0)"  stroke-width="1.8"/>
<line x1="152.9" y1="84.0" x2="129.3" y2="58.7" opacity="0.6" stroke="rgb(0,0,0)"  stroke-width="2.0"/>
<line x1="270.6" y1="95.1" x2="280.4" y2="62.0" opacity="0.7" stroke="rgb(0,0,0)"  stroke-width="1.7"/>
<line x1="301.3" y1="127.2" x2="347.3" y2="115.9" opacity="0.6" stroke="rgb(0,0,0)"  stroke-width="1.6"/>
<line x1="246.2" y1="180.2" x2="237.5" y2="213.6" opacity="0.5" stroke="rgb(0,0,0)"  stroke-width="2.0"/>
<line x1="289.2" y1="169.6" x2="312.8" y2="194.9" opacity="0.7" stroke="rgb(0,0,0)"  stroke-width="1.8"/>
<line x1="73.6" y1="144.7" x2="75.2" y2="115.9" opacity="0.6" stroke="rgb(0,0,0)"  stroke-width="0.4"/>
<line x1="73.6" y1="144.7" x2="40.0" y2="152.9" opacity="0.1" stroke="rgb(0,0,0)"  stroke-width="0.8"/>
<line x1="73.6" y1="144.7" x2="88.9" y2="170.6" opacity="0.3" stroke="rgb(0,0,0)"  stroke-width="0.4"/>
<line x1="347.3" y1="115.9" x2="354.2" y2="85.8" opacity="0.1" stroke="rgb(0,0,0)"  stroke-width="1.8"/>
<line x1="347.3" y1="115.9" x2="367.6" y2="140.2" opacity="0.6" stroke="rgb(0,0,0)"  stroke-width="1.8"/>
<line x1="347.3" y1="115.9" x2="355.8" y2="112.9" opacity="0.6" stroke="rgb(0,0,0)"  stroke-width="0.9"/>
<line x1="214.2" y1="145.5" x2="170.8" y2="155.5" opacity="0.7" stroke="rgb(0,0,0)"  stroke-width="2.0"/>
<line x1="215.6" y1="151.3" x2="172.2" y2="161.4" opacity="0.7" stroke="rgb(0,0,0)"  stroke-width="2.0" stroke-dasharray="5.0,5.0"/>
<line x1="173.7" y1="156.4" x2="142.9" y2="124.3" opacity="0.7" stroke="rgb(0,0,0)"  stroke-width="2.1"/>
<line x1="169.4" y1="160.5" x2="138.6" y2="128.5" opacity="0.7" stroke="rgb(0,0,0)"  stroke-width="2.1" stroke-dasharray="5.0,5.0"/>
<line x1="143.7" y1="127.3" x2="155.8" y2="84.8" opacity="0.7" stroke="rgb(0,0,0)"  stroke-width="2.1"/>
<line x1="137.9" y1="125.6" x2="150.0" y2="83.2" opacity="0.7" stroke="rgb(0,0,0)"  stroke-width="2.1" stroke-dasharray="5.0,5.0"/>
<line x1="153.6" y1="86.9" x2="196.6" y2="76.3" opacity="0.6" stroke="rgb(0,0,0)"  stroke-width="1.9"/>
<line x1="152.2" y1="81.1" x2="195.1" y2="70.5" opacity="0.6" stroke="rgb(0,0,0)"  stroke-width="1.9" stroke-dasharray="5.0,5.0"/>
<line x1="193.7" y1="75.5" x2="225.1" y2="107.3" opacity="0.6" stroke="rgb(0,0,0)"  stroke-width="1.9"/>
<line x1="198.0" y1="71.3" x2="229.4" y2="103.1" opacity="0.6" stroke="rgb(0,0,0)"  stroke-width="1.9" stroke-dasharray="5.0,5.0"/>
<line x1="224.4" y1="104.4" x2="212.0" y2="147.5" opacity="0.6" stroke="rgb(0,0,0)"  stroke-width="1.9"/>
<line x1="230.1" y1="106.0" x2="217.8" y2="149.2" opacity="0.6" stroke="rgb(0,0,0)"  stroke-width="1.9" stroke-dasharray="5.0,5.0"/>
<line x1="217.8" y1="149.2" x2="230.1" y2="106.0" opacity="0.6" stroke="rgb(0,0,0)"  stroke-width="1.9"/>
<line x1="212.0" y1="147.5" x2="224.4" y2="104.4" opacity="0.6" stroke="rgb(0,0,0)"  stroke-width="1.9" stroke-dasharray="5.0,5.0"/>
<line x1="227.9" y1="108.1" x2="271.3" y2="98.1" opacity="0.6" stroke="rgb(0,0,0)"  stroke-width="1.8"/>
<line x1="226.6" y1="102.3" x2="269.9" y2="92.2" opacity="0.6" stroke="rgb(0,0,0)"  stroke-width="1.8" stroke-dasharray="5.0,5.0"/>
<line x1="268.4" y1="97.2" x2="299.2" y2="129.3" opacity="0.6" stroke="rgb(0,0,0)"  stroke-width="1.7"/>
<line x1="272.8" y1="93.1" x2="303.5" y2="125.1" opacity="0.6" stroke="rgb(0,0,0)"  stroke-width="1.7" stroke-dasharray="5.0,5.0"/>
<line x1="298.5" y1="126.3" x2="286.3" y2="168.8" opacity="0.6" stroke="rgb(0,0,0)"  stroke-width="1.8"/>
<line x1="304.2" y1="128.0" x2="292.1" y2="170.4" opacity="0.6" stroke="rgb(0,0,0)"  stroke-width="1.8" stroke-dasharray="5.0,5.0"/>
<line x1="288.5" y1="166.7" x2="245.5" y2="177.3" opacity="0.6" stroke="rgb(0,0,0)"  stroke-width="1.9"/>
<line x1="289.9" y1="172.5" x2="247.0" y2="183.1" opacity="0.6" stroke="rgb(0,0,0)"  stroke-width="1.9" stroke-dasharray="5.0,5.0"/>
<line x1="248.4" y1="178.1" x2="217.0" y2="146.3" opacity="0.7" stroke="rgb(0,0,0)"  stroke-width="2.0"/>
<line x1="244.1" y1="182.3" x2="212.7" y2="150.5" opacity="0.7" stroke="rgb(0,0,0)"  stroke-width="2.0" stroke-dasharray="5.0,5.0"/>
<circle cx="75.249499" cy="115.949656" r="5.636364" opacity="0.200000" style="stroke:black;stroke-width:0.5;fill:url(#radialffffffbfbfbf)"/>
<circle cx="88.855462" cy="170.596243" r="5.636364" opacity="0.200000" style="stroke:black;stroke-width:0.5;fill:url(#radialffffffbfbfbf)"/>
<circle cx="355.839074" cy="112.933180" r="5.636364" opacity="0.323393" style="stroke:black;stroke-width:0.5;fill:url(#radialffffffbfbfbf)"/>
<circle cx="73.569436" cy="144.663456" r="13.818182" opacity="0.489240" style="stroke:black;stroke-width:0.5;fill:url(#radialffffff666666)"/>
<circle cx="40.000000" cy="152.853762" r="5.636364" opacity="0.540724" style="stroke:black;stroke-width:0.5;fill:url(#radialffffffbfbfbf)"/>
<circle cx="347.260571" cy="115.908291" r="14.193641" opacity="0.716649" style="stroke:black;stroke-width:0.5;fill:url(#radialffffff666666)"/>
<circle cx="280.446257" cy="62.038096" r="6.051303" opacity="0.732673" style="stroke:black;stroke-width:0.5;fill:url(#radialffffffbfbfbf)"/>
<circle cx="301.335674" cy="127.175530" r="15.590649" opacity="0.751089" style="stroke:black;stroke-width:0.5;fill:url(#radialffffff666666)"/>
<circle cx="270.601343" cy="95.142969" r="15.753241" opacity="0.754996" style="stroke:black;stroke-width:0.5;fill:url(#radialffffff666666)"/>
<circle cx="204.633424" cy="40.000000" r="6.676111" opacity="0.769568" style="stroke:black;stroke-width:0.5;fill:url(#radialffffffbfbfbf)"/>
<circle cx="312.816103" cy="194.861695" r="6.767301" opacity="0.774807" style="stroke:black;stroke-width:0.5;fill:url(#radialffffffbfbfbf)"/>
<circle cx="289.180674" cy="169.619389" r="16.727723" opacity="0.777997" style="stroke:black;stroke-width:0.5;fill:url(#radialffffff666666)"/>
<circle cx="227.241087" cy="105.210618" r="17.063604" opacity="0.785769" style="stroke:black;stroke-width:0.5;fill:url(#radialffffff666666)"/>
<circle cx="195.867187" cy="73.391248" r="17.248659" opacity="0.790018" style="stroke:black;stroke-width:0.5;fill:url(#radialffffff666666)"/>
<circle cx="246.243615" cy="180.199329" r="18.034877" opacity="0.807823" style="stroke:black;stroke-width:0.5;fill:url(#radialffffff666666)"/>
<circle cx="214.876079" cy="148.373595" r="18.224211" opacity="0.812052" style="stroke:black;stroke-width:0.5;fill:url(#radialffffff666666)"/>
<circle cx="152.930129" cy="83.977552" r="18.561162" opacity="0.819525" style="stroke:black;stroke-width:0.5;fill:url(#radialffffff666666)"/>
<circle cx="129.281972" cy="58.747973" r="7.610705" opacity="0.821671" style="stroke:black;stroke-width:0.5;fill:url(#radialffffffbfbfbf)"/>
<circle cx="237.471015" cy="213.590577" r="7.711495" opacity="0.827094" style="stroke:black;stroke-width:0.5;fill:url(#radialffffffbfbfbf)"/>
<circle cx="367.612241" cy="140.170561" r="7.785669" opacity="0.831062" style="stroke:black;stroke-width:0.5;fill:url(#radialffffffbfbfbf)"/>
<circle cx="171.515823" cy="158.447607" r="19.534575" opacity="0.840740" style="stroke:black;stroke-width:0.5;fill:url(#radialffffff666666)"/>
<circle cx="354.244923" cy="85.784893" r="7.993357" opacity="0.842074" style="stroke:black;stroke-width:0.5;fill:url(#radialffffffbfbfbf)"/>
<circle cx="140.771947" cy="126.424593" r="19.702515" opacity="0.844346" style="stroke:black;stroke-width:0.5;fill:url(#radialffffff666666)"/>
<circle cx="161.699547" cy="191.568390" r="8.325395" opacity="0.859385" style="stroke:black;stroke-width:0.5;fill:url(#radialffffffbfbfbf)"/>
<circle cx="94.856595" cy="137.695014" r="21.102732" opacity="0.873834" style="stroke:black;stroke-width:0.5;fill:url(#radialffffff666666)"/>
<circle cx="77.941418" cy="112.544983" r="10.984321" opacity="0.987125" style="stroke:black;stroke-width:0.5;fill:url(#radialffffffbfbfbf)"/>
<circle cx="91.359646" cy="166.485181" r="11.272727" opacity="1.000000" style="stroke:black;stroke-width:0.5;fill:url(#radialffffffbfbfbf)"/>
</svg>
</g>
</svg>
