<?xml version="1.0"?>
<svg version="1.1" id="topsvg"
xmlns="http://www.w3.org/2000/svg" xmlns:xlink="http://www.w3.org/1999/xlink"
xmlns:cml="http://www.xml-cml.org/schema" x="0" y="0" width="200px" height="200px" viewBox="0 0 100 100">
<title>11095066 - Open Babel Depiction</title>
<rect x="0" y="0" width="100" height="100" fill="white"/>
<defs>
<radialGradient id='radialffffff666666' cx='50%' cy='50%' r='50%' fx='30%' fy='30%'>
  <stop offset=' 0%' stop-color="rgb(255,255,255)"  stop-opacity='1.0'/>
  <stop offset='100%' stop-color="rgb(102,102,102)"  stop-opacity ='1.0'/>
</radialGradient>
<radialGradient id='radialffffffbfbfbf' cx='50%' cy='50%' r='50%' fx='30%' fy='30%'>
  <stop offset=' 0%' stop-color="rgb(255,255,255)"  stop-opacity='1.0'/>
  <stop offset='100%' stop-color="rgb(191,191,191)"  stop-opacity ='1.0'/>
</radialGradient>
</defs>
<g transform="translate(0,0)">
<svg width="100" height="100" x="0" y="0" viewBox="0 0 392.97 251.313"
font-family="sans-serif" stroke="rgb(0,0,0)" stroke-width="4"  stroke-linecap="round">
<line x1="135.0" y1="136.0" x2="91.8" y2="155.0" opacity="1.0" stroke="rgb(0,0,0)"  stroke-width="0.8"/>
<line x1="170.9" y1="162.1" x2="167.1" y2="196.4" opacity="0.3" stroke="rgb(0,0,0)"  stroke-width="0.9"/>
<line x1="91.8" y1="155.0" x2="71.6" y2="166.7" opacity="0.3" stroke="rgb(0,0,0)"  stroke-width="1.5"/>
<line x1="91.8" y1="155.0" x2="71.0" y2="132.8" opacity="0.5" stroke="rgb(0,0,0)"  stroke-width="0.4"/>
<line x1="91.8" y1="155.0" x2="93.7" y2="183.5" opacity="0.1" stroke="rgb(0,0,0)"  stroke-width="0.4"/>
<line x1="248.2" y1="170.6" x2="245.1" y2="204.9" opacity="0.1" stroke="rgb(0,0,0)"  stroke-width="1.0"/>
<line x1="179.8" y1="74.3" x2="182.6" y2="40.0" opacity="0.3" stroke="rgb(0,0,0)"  stroke-width="1.3"/>
<line x1="139.5" y1="92.2" x2="111.8" y2="71.5" opacity="0.4" stroke="rgb(0,0,0)"  stroke-width="1.1"/>
<line x1="288.6" y1="152.7" x2="326.9" y2="180.6" opacity="0.4" stroke="rgb(0,0,0)"  stroke-width="1.3"/>
<line x1="257.1" y1="82.8" x2="261.4" y2="48.6" opacity="0.4" stroke="rgb(0,0,0)"  stroke-width="1.5"/>
<line x1="293.0" y1="108.9" x2="324.3" y2="94.6" opacity="0.5" stroke="rgb(0,0,0)"  stroke-width="1.5"/>
<line x1="71.6" y1="166.7" x2="90.9" y2="190.0" opacity="0.5" stroke="rgb(0,0,0)"  stroke-width="2.6"/>
<line x1="71.6" y1="166.7" x2="40.0" y2="180.5" opacity="0.9" stroke="rgb(0,0,0)"  stroke-width="2.2"/>
<line x1="71.6" y1="166.7" x2="67.9" y2="138.6" opacity="0.7" stroke="rgb(0,0,0)"  stroke-width="2.6"/>
<line x1="326.9" y1="180.6" x2="353.0" y2="166.2" opacity="0.9" stroke="rgb(0,0,0)"  stroke-width="1.6"/>
<line x1="326.9" y1="180.6" x2="320.0" y2="211.3" opacity="0.5" stroke="rgb(0,0,0)"  stroke-width="1.6"/>
<line x1="326.9" y1="180.6" x2="337.9" y2="186.3" opacity="0.5" stroke="rgb(0,0,0)"  stroke-width="0.7"/>
<line x1="210.6" y1="142.0" x2="169.7" y2="159.4" opacity="0.3" stroke="rgb(0,0,0)"  stroke-width="1.0"/>
<line x1="212.9" y1="147.5" x2="172.1" y2="164.9" opacity="0.3" stroke="rgb(0,0,0)"  stroke-width="1.0" stroke-dasharray="5.0,5.0"/>
<line x1="172.6" y1="159.7" x2="136.8" y2="133.6" opacity="0.3" stroke="rgb(0,0,0)"  stroke-width="0.9"/>
<line x1="169.1" y1="164.6" x2="133.2" y2="138.4" opacity="0.3" stroke="rgb(0,0,0)"  stroke-width="0.9" stroke-dasharray="5.0,5.0"/>
<line x1="138.0" y1="136.3" x2="142.5" y2="92.5" opacity="0.3" stroke="rgb(0,0,0)"  stroke-width="1.0"/>
<line x1="132.0" y1="135.7" x2="136.5" y2="91.9" opacity="0.3" stroke="rgb(0,0,0)"  stroke-width="1.0" stroke-dasharray="5.0,5.0"/>
<line x1="140.7" y1="94.9" x2="181.0" y2="77.1" opacity="0.4" stroke="rgb(0,0,0)"  stroke-width="1.2"/>
<line x1="138.3" y1="89.4" x2="178.6" y2="71.6" opacity="0.4" stroke="rgb(0,0,0)"  stroke-width="1.2" stroke-dasharray="5.0,5.0"/>
<line x1="178.1" y1="76.8" x2="214.5" y2="102.6" opacity="0.4" stroke="rgb(0,0,0)"  stroke-width="1.3"/>
<line x1="181.6" y1="71.9" x2="218.0" y2="97.7" opacity="0.4" stroke="rgb(0,0,0)"  stroke-width="1.3" stroke-dasharray="5.0,5.0"/>
<line x1="213.3" y1="99.9" x2="208.8" y2="144.4" opacity="0.4" stroke="rgb(0,0,0)"  stroke-width="1.2"/>
<line x1="219.3" y1="100.5" x2="214.7" y2="145.0" opacity="0.4" stroke="rgb(0,0,0)"  stroke-width="1.2" stroke-dasharray="5.0,5.0"/>
<line x1="214.7" y1="145.0" x2="219.3" y2="100.5" opacity="0.4" stroke="rgb(0,0,0)"  stroke-width="1.2"/>
<line x1="208.8" y1="144.4" x2="213.3" y2="99.9" opacity="0.4" stroke="rgb(0,0,0)"  stroke-width="1.2" stroke-dasharray="5.0,5.0"/>
<line x1="217.5" y1="102.9" x2="258.3" y2="85.5" opacity="0.5" stroke="rgb(0,0,0)"  stroke-width="1.4"/>
<line x1="215.1" y1="97.4" x2="256.0" y2="80.0" opacity="0.5" stroke="rgb(0,0,0)"  stroke-width="1.4" stroke-dasharray="5.0,5.0"/>
<line x1="255.4" y1="85.2" x2="291.3" y2="111.3" opacity="0.5" stroke="rgb(0,0,0)"  stroke-width="1.4"/>
<line x1="258.9" y1="80.3" x2="294.8" y2="106.5" opacity="0.5" stroke="rgb(0,0,0)"  stroke-width="1.4" stroke-dasharray="5.0,5.0"/>
<line x1="290.0" y1="108.6" x2="285.6" y2="152.4" opacity="0.5" stroke="rgb(0,0,0)"  stroke-width="1.4"/>
<line x1="296.0" y1="109.2" x2="291.5" y2="153.0" opacity="0.5" stroke="rgb(0,0,0)"  stroke-width="1.4" stroke-dasharray="5.0,5.0"/>
<line x1="287.3" y1="150.0" x2="247.0" y2="167.8" opacity="0.4" stroke="rgb(0,0,0)"  stroke-width="1.2"/>
<line x1="289.8" y1="155.5" x2="249.4" y2="173.3" opacity="0.4" stroke="rgb(0,0,0)"  stroke-width="1.2" stroke-dasharray="5.0,5.0"/>
<line x1="249.9" y1="168.1" x2="213.5" y2="142.3" opacity="0.4" stroke="rgb(0,0,0)"  stroke-width="1.1"/>
<line x1="246.5" y1="173.0" x2="210.0" y2="147.2" opacity="0.4" stroke="rgb(0,0,0)"  stroke-width="1.1" stroke-dasharray="5.0,5.0"/>
<circle cx="93.676307" cy="183.474105" r="5.636364" opacity="0.200000" style="stroke:black;stroke-width:0.5;fill:url(#radialffffffbfbfbf)"/>
<circle cx="70.985825" cy="132.788831" r="5.636364" opacity="0.200000" style="stroke:black;stroke-width:0.5;fill:url(#radialffffffbfbfbf)"/>
<circle cx="337.887752" cy="186.306040" r="5.636364" opacity="0.204624" style="stroke:black;stroke-width:0.5;fill:url(#radialffffffbfbfbf)"/>
<circle cx="91.830776" cy="155.017930" r="13.818182" opacity="0.492512" style="stroke:black;stroke-width:0.5;fill:url(#radialffffff666666)"/>
<circle cx="167.055245" cy="196.399184" r="5.636364" opacity="0.515727" style="stroke:black;stroke-width:0.5;fill:url(#radialffffffbfbfbf)"/>
<circle cx="135.000285" cy="135.996236" r="13.818182" opacity="0.552243" style="stroke:black;stroke-width:0.5;fill:url(#radialffffff666666)"/>
<circle cx="170.876767" cy="162.142315" r="13.818182" opacity="0.555356" style="stroke:black;stroke-width:0.5;fill:url(#radialffffff666666)"/>
<circle cx="245.067102" cy="204.879079" r="5.636364" opacity="0.572709" style="stroke:black;stroke-width:0.5;fill:url(#radialffffffbfbfbf)"/>
<circle cx="111.756144" cy="71.482209" r="5.636364" opacity="0.598740" style="stroke:black;stroke-width:0.5;fill:url(#radialffffffbfbfbf)"/>
<circle cx="139.467743" cy="92.174427" r="13.818182" opacity="0.599890" style="stroke:black;stroke-width:0.5;fill:url(#radialffffff666666)"/>
<circle cx="211.742545" cy="144.730687" r="13.818182" opacity="0.605768" style="stroke:black;stroke-width:0.5;fill:url(#radialffffff666666)"/>
<circle cx="248.201322" cy="170.564936" r="13.818182" opacity="0.609331" style="stroke:black;stroke-width:0.5;fill:url(#radialffffff666666)"/>
<circle cx="179.824409" cy="74.333236" r="13.818182" opacity="0.646841" style="stroke:black;stroke-width:0.5;fill:url(#radialffffff666666)"/>
<circle cx="216.283187" cy="100.167484" r="13.818182" opacity="0.650208" style="stroke:black;stroke-width:0.5;fill:url(#radialffffff666666)"/>
<circle cx="288.557988" cy="152.720562" r="13.818182" opacity="0.655606" style="stroke:black;stroke-width:0.5;fill:url(#radialffffff666666)"/>
<circle cx="326.941846" cy="180.635806" r="13.818182" opacity="0.658783" style="stroke:black;stroke-width:0.5;fill:url(#radialffffff666666)"/>
<circle cx="182.560885" cy="40.000000" r="5.636364" opacity="0.678887" style="stroke:black;stroke-width:0.5;fill:url(#radialffffffbfbfbf)"/>
<circle cx="257.148964" cy="82.752674" r="13.818182" opacity="0.693734" style="stroke:black;stroke-width:0.5;fill:url(#radialffffff666666)"/>
<circle cx="293.025446" cy="108.898753" r="13.818182" opacity="0.696215" style="stroke:black;stroke-width:0.5;fill:url(#radialffffff666666)"/>
<circle cx="261.387321" cy="48.581718" r="5.914036" opacity="0.724315" style="stroke:black;stroke-width:0.5;fill:url(#radialffffffbfbfbf)"/>
<circle cx="324.294464" cy="94.611800" r="5.973630" opacity="0.727955" style="stroke:black;stroke-width:0.5;fill:url(#radialffffffbfbfbf)"/>
<circle cx="319.954285" cy="211.312981" r="6.927131" opacity="0.783903" style="stroke:black;stroke-width:0.5;fill:url(#radialffffffbfbfbf)"/>
<circle cx="352.970193" cy="166.154753" r="7.349037" opacity="0.807422" style="stroke:black;stroke-width:0.5;fill:url(#radialffffffbfbfbf)"/>
<circle cx="40.000000" cy="180.521256" r="7.816719" opacity="0.832718" style="stroke:black;stroke-width:0.5;fill:url(#radialffffffbfbfbf)"/>
<circle cx="71.555394" cy="166.698867" r="20.863845" opacity="0.868874" style="stroke:black;stroke-width:0.5;fill:url(#radialffffff666666)"/>
<circle cx="90.930284" cy="189.997101" r="10.846502" opacity="0.980913" style="stroke:black;stroke-width:0.5;fill:url(#radialffffffbfbfbf)"/>
<circle cx="67.924789" cy="138.643618" r="11.272727" opacity="1.000000" style="stroke:black;stroke-width:0.5;fill:url(#radialffffffbfbfbf)"/>
</svg>
</g>
</svg>
