<?xml version="1.0"?>
<svg version="1.1" id="topsvg"
xmlns="http://www.w3.org/2000/svg" xmlns:xlink="http://www.w3.org/1999/xlink"
xmlns:cml="http://www.xml-cml.org/schema" x="0" y="0" width="1024px" height="1024px" viewBox="0 0 100 100">
<title>11117373 - Open Babel Depiction</title>
<rect x="0" y="0" width="100" height="100" fill="white"/>
<defs>
<radialGradient id='radialffffff666666' cx='50%' cy='50%' r='50%' fx='30%' fy='30%'>
  <stop offset=' 0%' stop-color="rgb(255,255,255)"  stop-opacity='1.0'/>
  <stop offset='100%' stop-color="rgb(102,102,102)"  stop-opacity ='1.0'/>
</radialGradient>
<radialGradient id='radialffffffbfbfbf' cx='50%' cy='50%' r='50%' fx='30%' fy='30%'>
  <stop offset=' 0%' stop-color="rgb(255,255,255)"  stop-opacity='1.0'/>
  <stop offset='100%' stop-color="rgb(191,191,191)"  stop-opacity ='1.0'/>
</radialGradient>
</defs>
<g transform="translate(0,0)">
<svg width="100" height="100" x="0" y="0" viewBox="0 0 585.499 272.088"
font-family="sans-serif" stroke="rgb(0,0,0)" stroke-width="2"  stroke-linecap="round">
<line x1="147.1" y1="164.2" x2="193.1" y2="177.5" opacity="1.0" stroke="rgb(0,0,0)"  stroke-width="1.5"/>
<line x1="147.1" y1="164.2" x2="130.7" y2="123.0" opacity="0.5" stroke="rgb(0,0,0)"  stroke-width="1.6"/>
<line x1="147.1" y1="164.2" x2="116.2" y2="202.8" opacity="0.5" stroke="rgb(0,0,0)"  stroke-width="1.4"/>
<line x1="146.7" y1="162.6" x2="148.3" y2="163.1" opacity="0.5" stroke="rgb(0,0,0)"  stroke-width="1.0"/>
<line x1="146.4" y1="161.4" x2="149.2" y2="162.2" opacity="0.5" stroke="rgb(0,0,0)"  stroke-width="1.0"/>
<line x1="146.1" y1="160.1" x2="150.1" y2="161.3" opacity="0.5" stroke="rgb(0,0,0)"  stroke-width="1.0"/>
<line x1="145.8" y1="158.9" x2="151.0" y2="160.4" opacity="0.5" stroke="rgb(0,0,0)"  stroke-width="1.0"/>
<line x1="145.5" y1="157.6" x2="152.0" y2="159.5" opacity="0.5" stroke="rgb(0,0,0)"  stroke-width="1.0"/>
<line x1="145.2" y1="156.4" x2="152.9" y2="158.6" opacity="0.5" stroke="rgb(0,0,0)"  stroke-width="1.0"/>
<line x1="193.1" y1="177.5" x2="229.6" y2="148.5" opacity="0.5" stroke="rgb(0,0,0)"  stroke-width="1.5"/>
<line x1="193.1" y1="177.5" x2="199.8" y2="211.0" opacity="0.5" stroke="rgb(0,0,0)"  stroke-width="1.6"/>
<line x1="193.1" y1="177.5" x2="194.0" y2="177.7" opacity="0.5" stroke="rgb(0,0,0)"  stroke-width="2.1"/>
<line x1="130.7" y1="123.0" x2="85.0" y2="106.7" opacity="0.7" stroke="rgb(0,0,0)"  stroke-width="1.7"/>
<line x1="130.7" y1="123.0" x2="154.0" y2="96.5" opacity="0.6" stroke="rgb(0,0,0)"  stroke-width="1.8"/>
<line x1="130.7" y1="123.0" x2="130.7" y2="129.5" opacity="0.6" stroke="rgb(0,0,0)"  stroke-width="2.3"/>
<line x1="229.6" y1="148.5" x2="274.0" y2="162.9" opacity="0.8" stroke="rgb(0,0,0)"  stroke-width="1.5"/>
<line x1="229.6" y1="148.5" x2="229.6" y2="149.8" opacity="0.5" stroke="rgb(0,0,0)"  stroke-width="0.9"/>
<line x1="229.6" y1="148.5" x2="224.0" y2="114.6" opacity="0.3" stroke="rgb(0,0,0)"  stroke-width="1.4"/>
<line x1="85.0" y1="106.7" x2="82.2" y2="94.9" opacity="0.5" stroke="rgb(0,0,0)"  stroke-width="1.0"/>
<line x1="85.0" y1="106.7" x2="72.9" y2="67.0" opacity="0.3" stroke="rgb(0,0,0)"  stroke-width="1.9"/>
<line x1="85.0" y1="106.7" x2="60.9" y2="132.1" opacity="0.6" stroke="rgb(0,0,0)"  stroke-width="1.7"/>
<line x1="274.0" y1="162.9" x2="311.7" y2="134.6" opacity="0.6" stroke="rgb(0,0,0)"  stroke-width="1.5"/>
<line x1="274.0" y1="162.9" x2="273.5" y2="162.3" opacity="0.5" stroke="rgb(0,0,0)"  stroke-width="2.1"/>
<line x1="274.0" y1="162.9" x2="279.9" y2="196.8" opacity="0.7" stroke="rgb(0,0,0)"  stroke-width="1.6"/>
<line x1="311.7" y1="134.6" x2="356.1" y2="149.5" opacity="0.5" stroke="rgb(0,0,0)"  stroke-width="1.5"/>
<line x1="311.7" y1="134.6" x2="306.1" y2="100.8" opacity="0.5" stroke="rgb(0,0,0)"  stroke-width="1.4"/>
<line x1="311.7" y1="134.6" x2="311.9" y2="134.8" opacity="0.5" stroke="rgb(0,0,0)"  stroke-width="0.9"/>
<line x1="116.2" y1="202.8" x2="84.3" y2="196.5" opacity="0.3" stroke="rgb(0,0,0)"  stroke-width="1.3"/>
<line x1="116.2" y1="202.8" x2="129.0" y2="232.1" opacity="0.4" stroke="rgb(0,0,0)"  stroke-width="1.3"/>
<line x1="116.2" y1="202.8" x2="111.5" y2="210.1" opacity="0.4" stroke="rgb(0,0,0)"  stroke-width="1.9"/>
<line x1="356.1" y1="149.5" x2="393.9" y2="121.5" opacity="0.6" stroke="rgb(0,0,0)"  stroke-width="1.5"/>
<line x1="356.1" y1="149.5" x2="356.1" y2="149.1" opacity="0.5" stroke="rgb(0,0,0)"  stroke-width="2.1"/>
<line x1="356.1" y1="149.5" x2="361.6" y2="183.4" opacity="0.7" stroke="rgb(0,0,0)"  stroke-width="1.6"/>
<line x1="393.9" y1="121.5" x2="439.3" y2="135.2" opacity="0.5" stroke="rgb(0,0,0)"  stroke-width="1.5"/>
<line x1="393.9" y1="121.5" x2="393.3" y2="121.3" opacity="0.5" stroke="rgb(0,0,0)"  stroke-width="0.9"/>
<line x1="393.9" y1="121.5" x2="388.2" y2="87.7" opacity="0.3" stroke="rgb(0,0,0)"  stroke-width="1.4"/>
<line x1="82.2" y1="94.9" x2="50.3" y2="81.2" opacity="0.5" stroke="rgb(0,0,0)"  stroke-width="0.4"/>
<line x1="82.2" y1="94.9" x2="86.7" y2="123.6" opacity="0.1" stroke="rgb(0,0,0)"  stroke-width="0.4"/>
<line x1="82.2" y1="94.9" x2="107.0" y2="70.9" opacity="0.1" stroke="rgb(0,0,0)"  stroke-width="0.4"/>
<line x1="72.9" y1="67.0" x2="40.0" y2="55.7" opacity="0.1" stroke="rgb(0,0,0)"  stroke-width="2.1"/>
<line x1="72.9" y1="67.0" x2="73.5" y2="75.1" opacity="0.7" stroke="rgb(0,0,0)"  stroke-width="2.6"/>
<line x1="72.9" y1="67.0" x2="95.4" y2="40.0" opacity="0.9" stroke="rgb(0,0,0)"  stroke-width="2.1"/>
<line x1="439.3" y1="135.2" x2="475.5" y2="104.9" opacity="0.7" stroke="rgb(0,0,0)"  stroke-width="1.5"/>
<line x1="439.3" y1="135.2" x2="445.7" y2="168.4" opacity="0.5" stroke="rgb(0,0,0)"  stroke-width="1.5"/>
<line x1="439.3" y1="135.2" x2="439.9" y2="136.6" opacity="0.5" stroke="rgb(0,0,0)"  stroke-width="2.1"/>
<line x1="475.5" y1="104.9" x2="520.1" y2="121.5" opacity="0.7" stroke="rgb(0,0,0)"  stroke-width="1.4"/>
<line x1="475.5" y1="104.9" x2="470.5" y2="72.2" opacity="0.5" stroke="rgb(0,0,0)"  stroke-width="1.4"/>
<line x1="475.5" y1="104.9" x2="474.2" y2="102.1" opacity="0.5" stroke="rgb(0,0,0)"  stroke-width="0.9"/>
<line x1="520.1" y1="121.5" x2="522.8" y2="123.9" opacity="0.3" stroke="rgb(0,0,0)"  stroke-width="2.0"/>
<line x1="520.1" y1="121.5" x2="545.5" y2="99.4" opacity="0.7" stroke="rgb(0,0,0)"  stroke-width="1.5"/>
<line x1="520.1" y1="121.5" x2="526.4" y2="153.7" opacity="0.5" stroke="rgb(0,0,0)"  stroke-width="1.4"/>
<circle cx="86.664412" cy="123.625645" r="5.636364" opacity="0.200000" style="stroke:black;stroke-width:0.5;fill:url(#radialffffffbfbfbf)"/>
<circle cx="106.968849" cy="70.895934" r="5.636364" opacity="0.298623" style="stroke:black;stroke-width:0.5;fill:url(#radialffffffbfbfbf)"/>
<circle cx="50.259598" cy="81.217356" r="5.636364" opacity="0.312024" style="stroke:black;stroke-width:0.5;fill:url(#radialffffffbfbfbf)"/>
<circle cx="229.605695" cy="149.822925" r="5.636364" opacity="0.393563" style="stroke:black;stroke-width:0.5;fill:url(#radialffffffbfbfbf)"/>
<circle cx="82.213054" cy="94.939121" r="13.818182" opacity="0.396263" style="stroke:black;stroke-width:0.5;fill:url(#radialffffff666666)"/>
<circle cx="474.192811" cy="102.091228" r="5.636364" opacity="0.400310" style="stroke:black;stroke-width:0.5;fill:url(#radialffffffbfbfbf)"/>
<circle cx="311.900489" cy="134.841894" r="5.636364" opacity="0.404132" style="stroke:black;stroke-width:0.5;fill:url(#radialffffffbfbfbf)"/>
<circle cx="393.267916" cy="121.344650" r="5.636364" opacity="0.405725" style="stroke:black;stroke-width:0.5;fill:url(#radialffffffbfbfbf)"/>
<circle cx="149.041985" cy="157.498913" r="5.636364" opacity="0.420079" style="stroke:black;stroke-width:0.5;fill:url(#radialffffffbfbfbf)"/>
<circle cx="129.030400" cy="232.088433" r="5.636364" opacity="0.608964" style="stroke:black;stroke-width:0.5;fill:url(#radialffffffbfbfbf)"/>
<circle cx="84.308576" cy="196.458051" r="5.636364" opacity="0.617034" style="stroke:black;stroke-width:0.5;fill:url(#radialffffffbfbfbf)"/>
<circle cx="229.550378" cy="148.518104" r="13.818182" opacity="0.653153" style="stroke:black;stroke-width:0.5;fill:url(#radialffffff666666)"/>
<circle cx="526.444197" cy="153.727624" r="5.636364" opacity="0.653172" style="stroke:black;stroke-width:0.5;fill:url(#radialffffffbfbfbf)"/>
<circle cx="475.468347" cy="104.889596" r="13.818182" opacity="0.656542" style="stroke:black;stroke-width:0.5;fill:url(#radialffffff666666)"/>
<circle cx="311.653191" cy="134.604359" r="13.818182" opacity="0.659820" style="stroke:black;stroke-width:0.5;fill:url(#radialffffff666666)"/>
<circle cx="393.860129" cy="121.452029" r="13.818182" opacity="0.660853" style="stroke:black;stroke-width:0.5;fill:url(#radialffffff666666)"/>
<circle cx="147.118920" cy="164.166187" r="13.818182" opacity="0.665769" style="stroke:black;stroke-width:0.5;fill:url(#radialffffff666666)"/>
<circle cx="545.499130" cy="99.361193" r="5.636364" opacity="0.666941" style="stroke:black;stroke-width:0.5;fill:url(#radialffffffbfbfbf)"/>
<circle cx="445.691760" cy="168.373501" r="5.636364" opacity="0.680432" style="stroke:black;stroke-width:0.5;fill:url(#radialffffffbfbfbf)"/>
<circle cx="199.812839" cy="210.973771" r="5.636364" opacity="0.694715" style="stroke:black;stroke-width:0.5;fill:url(#radialffffffbfbfbf)"/>
<circle cx="279.904731" cy="196.815982" r="5.636364" opacity="0.696960" style="stroke:black;stroke-width:0.5;fill:url(#radialffffffbfbfbf)"/>
<circle cx="361.646359" cy="183.377308" r="5.636364" opacity="0.698186" style="stroke:black;stroke-width:0.5;fill:url(#radialffffffbfbfbf)"/>
<circle cx="116.203463" cy="202.809695" r="13.818182" opacity="0.700757" style="stroke:black;stroke-width:0.5;fill:url(#radialffffff666666)"/>
<circle cx="223.979674" cy="114.573251" r="5.636364" opacity="0.705342" style="stroke:black;stroke-width:0.5;fill:url(#radialffffffbfbfbf)"/>
<circle cx="306.059709" cy="100.815693" r="5.770965" opacity="0.715500" style="stroke:black;stroke-width:0.5;fill:url(#radialffffffbfbfbf)"/>
<circle cx="388.195061" cy="87.712173" r="5.802554" opacity="0.717456" style="stroke:black;stroke-width:0.5;fill:url(#radialffffffbfbfbf)"/>
<circle cx="85.014676" cy="106.692266" r="14.505236" opacity="0.724473" style="stroke:black;stroke-width:0.5;fill:url(#radialffffff666666)"/>
<circle cx="520.131600" cy="121.543139" r="14.719748" opacity="0.729810" style="stroke:black;stroke-width:0.5;fill:url(#radialffffff666666)"/>
<circle cx="470.509378" cy="72.204008" r="6.007742" opacity="0.730031" style="stroke:black;stroke-width:0.5;fill:url(#radialffffffbfbfbf)"/>
<circle cx="439.340115" cy="135.219349" r="15.241977" opacity="0.742643" style="stroke:black;stroke-width:0.5;fill:url(#radialffffff666666)"/>
<circle cx="273.982604" cy="162.945968" r="15.446894" opacity="0.747619" style="stroke:black;stroke-width:0.5;fill:url(#radialffffff666666)"/>
<circle cx="193.054455" cy="177.484466" r="15.537359" opacity="0.749805" style="stroke:black;stroke-width:0.5;fill:url(#radialffffff666666)"/>
<circle cx="356.121209" cy="149.533326" r="15.555178" opacity="0.750235" style="stroke:black;stroke-width:0.5;fill:url(#radialffffff666666)"/>
<circle cx="60.906411" cy="132.053288" r="6.507851" opacity="0.759809" style="stroke:black;stroke-width:0.5;fill:url(#radialffffffbfbfbf)"/>
<circle cx="153.958652" cy="96.504254" r="6.593672" opacity="0.764802" style="stroke:black;stroke-width:0.5;fill:url(#radialffffffbfbfbf)"/>
<circle cx="130.657358" cy="123.036687" r="17.260305" opacity="0.790285" style="stroke:black;stroke-width:0.5;fill:url(#radialffffff666666)"/>
<circle cx="40.000000" cy="55.703399" r="7.615695" opacity="0.821940" style="stroke:black;stroke-width:0.5;fill:url(#radialffffffbfbfbf)"/>
<circle cx="95.440224" cy="40.000000" r="7.820883" opacity="0.832939" style="stroke:black;stroke-width:0.5;fill:url(#radialffffffbfbfbf)"/>
<circle cx="72.861299" cy="67.027028" r="20.327890" opacity="0.857641" style="stroke:black;stroke-width:0.5;fill:url(#radialffffff666666)"/>
<circle cx="111.537347" cy="210.072436" r="8.506052" opacity="0.868659" style="stroke:black;stroke-width:0.5;fill:url(#radialffffffbfbfbf)"/>
<circle cx="522.796557" cy="123.941275" r="9.048652" opacity="0.895937" style="stroke:black;stroke-width:0.5;fill:url(#radialffffffbfbfbf)"/>
<circle cx="439.896535" cy="136.550200" r="9.281515" opacity="0.907392" style="stroke:black;stroke-width:0.5;fill:url(#radialffffffbfbfbf)"/>
<circle cx="273.501024" cy="162.272408" r="9.366497" opacity="0.911537" style="stroke:black;stroke-width:0.5;fill:url(#radialffffffbfbfbf)"/>
<circle cx="194.001344" cy="177.673193" r="9.404516" opacity="0.913385" style="stroke:black;stroke-width:0.5;fill:url(#radialffffffbfbfbf)"/>
<circle cx="356.052877" cy="149.100555" r="9.410945" opacity="0.913697" style="stroke:black;stroke-width:0.5;fill:url(#radialffffffbfbfbf)"/>
<circle cx="130.709421" cy="129.482695" r="10.060333" opacity="0.944695" style="stroke:black;stroke-width:0.5;fill:url(#radialffffffbfbfbf)"/>
<circle cx="73.502321" cy="75.106502" r="11.272727" opacity="1.000000" style="stroke:black;stroke-width:0.5;fill:url(#radialffffffbfbfbf)"/>
</svg>
</g>
</svg>
