<?xml version="1.0"?>
<svg version="1.1" id="topsvg"
xmlns="http://www.w3.org/2000/svg" xmlns:xlink="http://www.w3.org/1999/xlink"
xmlns:cml="http://www.xml-cml.org/schema" x="0" y="0" width="1024px" height="1024px" viewBox="0 0 100 100">
<title>11249 - Open Babel Depiction</title>
<rect x="0" y="0" width="100" height="100" fill="white"/>
<defs>
<radialGradient id='radialffffff666666' cx='50%' cy='50%' r='50%' fx='30%' fy='30%'>
  <stop offset=' 0%' stop-color="rgb(255,255,255)"  stop-opacity='1.0'/>
  <stop offset='100%' stop-color="rgb(102,102,102)"  stop-opacity ='1.0'/>
</radialGradient>
<radialGradient id='radialffffffbfbfbf' cx='50%' cy='50%' r='50%' fx='30%' fy='30%'>
  <stop offset=' 0%' stop-color="rgb(255,255,255)"  stop-opacity='1.0'/>
  <stop offset='100%' stop-color="rgb(191,191,191)"  stop-opacity ='1.0'/>
</radialGradient>
</defs>
<g transform="translate(0,0)">
<svg width="100" height="100" x="0" y="0" viewBox="0 0 252.852 201.196"
font-family="sans-serif" stroke="rgb(0,0,0)" stroke-width="2"  stroke-linecap="round">
<line x1="97.6" y1="83.5" x2="146.3" y2="93.1" opacity="1.0" stroke="rgb(0,0,0)"  stroke-width="1.7"/>
<line x1="97.6" y1="83.5" x2="73.8" y2="123.2" opacity="0.6" stroke="rgb(0,0,0)"  stroke-width="2.0"/>
<line x1="97.6" y1="83.5" x2="73.8" y2="68.1" opacity="0.7" stroke="rgb(0,0,0)"  stroke-width="1.3"/>
<line x1="97.6" y1="83.5" x2="95.1" y2="56.3" opacity="0.4" stroke="rgb(0,0,0)"  stroke-width="2.1"/>
<line x1="146.3" y1="93.1" x2="158.2" y2="129.4" opacity="0.7" stroke="rgb(0,0,0)"  stroke-width="1.2"/>
<line x1="144.5" y1="90.7" x2="176.3" y2="67.3" opacity="0.4" stroke="rgb(0,0,0)"  stroke-width="1.8"/>
<line x1="148.1" y1="95.5" x2="179.8" y2="72.2" opacity="0.4" stroke="rgb(0,0,0)"  stroke-width="1.8"/>
<line x1="73.8" y1="123.2" x2="90.9" y2="134.6" opacity="0.6" stroke="rgb(0,0,0)"  stroke-width="2.6"/>
<line x1="73.8" y1="123.2" x2="71.5" y2="151.0" opacity="0.9" stroke="rgb(0,0,0)"  stroke-width="2.0"/>
<line x1="73.8" y1="123.2" x2="40.0" y2="114.1" opacity="0.7" stroke="rgb(0,0,0)"  stroke-width="2.4"/>
<line x1="73.8" y1="68.1" x2="40.0" y2="57.6" opacity="0.8" stroke="rgb(0,0,0)"  stroke-width="0.9"/>
<line x1="73.8" y1="68.1" x2="71.5" y2="94.6" opacity="0.3" stroke="rgb(0,0,0)"  stroke-width="0.5"/>
<line x1="73.8" y1="68.1" x2="90.9" y2="40.0" opacity="0.2" stroke="rgb(0,0,0)"  stroke-width="0.6"/>
<line x1="158.2" y1="129.4" x2="145.1" y2="122.4" opacity="0.2" stroke="rgb(0,0,0)"  stroke-width="0.4"/>
<line x1="158.2" y1="129.4" x2="194.1" y2="133.2" opacity="0.1" stroke="rgb(0,0,0)"  stroke-width="0.8"/>
<line x1="158.2" y1="129.4" x2="145.1" y2="161.2" opacity="0.3" stroke="rgb(0,0,0)"  stroke-width="0.9"/>
<line x1="178.0" y1="69.8" x2="170.0" y2="43.5" opacity="0.3" stroke="rgb(0,0,0)"  stroke-width="2.4"/>
<line x1="178.0" y1="69.8" x2="212.9" y2="76.3" opacity="0.8" stroke="rgb(0,0,0)"  stroke-width="2.0"/>
<circle cx="145.068163" cy="122.353404" r="5.636364" opacity="0.200000" style="stroke:black;stroke-width:0.5;fill:url(#radialffffffbfbfbf)"/>
<circle cx="71.544599" cy="94.563721" r="5.636364" opacity="0.232514" style="stroke:black;stroke-width:0.5;fill:url(#radialffffffbfbfbf)"/>
<circle cx="90.888204" cy="40.000000" r="5.636364" opacity="0.362510" style="stroke:black;stroke-width:0.5;fill:url(#radialffffffbfbfbf)"/>
<circle cx="194.113646" cy="133.201306" r="5.636364" opacity="0.489181" style="stroke:black;stroke-width:0.5;fill:url(#radialffffffbfbfbf)"/>
<circle cx="73.794240" cy="68.146980" r="13.818182" opacity="0.503670" style="stroke:black;stroke-width:0.5;fill:url(#radialffffff666666)"/>
<circle cx="158.225255" cy="129.386841" r="13.818182" opacity="0.516227" style="stroke:black;stroke-width:0.5;fill:url(#radialffffff666666)"/>
<circle cx="40.000000" cy="57.613366" r="5.636364" opacity="0.562692" style="stroke:black;stroke-width:0.5;fill:url(#radialffffffbfbfbf)"/>
<circle cx="145.084704" cy="161.196104" r="5.636364" opacity="0.597536" style="stroke:black;stroke-width:0.5;fill:url(#radialffffffbfbfbf)"/>
<circle cx="146.295540" cy="93.104762" r="14.490969" opacity="0.724116" style="stroke:black;stroke-width:0.5;fill:url(#radialffffff666666)"/>
<circle cx="71.547908" cy="151.013170" r="6.453012" opacity="0.756601" style="stroke:black;stroke-width:0.5;fill:url(#radialffffffbfbfbf)"/>
<circle cx="97.640436" cy="83.507397" r="16.379650" opacity="0.769860" style="stroke:black;stroke-width:0.5;fill:url(#radialffffff666666)"/>
<circle cx="212.851833" cy="76.348245" r="7.253535" opacity="0.802159" style="stroke:black;stroke-width:0.5;fill:url(#radialffffffbfbfbf)"/>
<circle cx="178.048562" cy="69.758120" r="19.078187" opacity="0.830860" style="stroke:black;stroke-width:0.5;fill:url(#radialffffff666666)"/>
<circle cx="73.800857" cy="123.157320" r="20.972040" opacity="0.871124" style="stroke:black;stroke-width:0.5;fill:url(#radialffffff666666)"/>
<circle cx="95.149289" cy="56.280123" r="8.863924" opacity="0.886745" style="stroke:black;stroke-width:0.5;fill:url(#radialffffffbfbfbf)"/>
<circle cx="40.006617" cy="114.099207" r="9.416997" opacity="0.913991" style="stroke:black;stroke-width:0.5;fill:url(#radialffffffbfbfbf)"/>
<circle cx="170.029254" cy="43.486944" r="9.887183" opacity="0.936530" style="stroke:black;stroke-width:0.5;fill:url(#radialffffffbfbfbf)"/>
<circle cx="90.901437" cy="134.594098" r="11.272727" opacity="1.000000" style="stroke:black;stroke-width:0.5;fill:url(#radialffffffbfbfbf)"/>
</svg>
</g>
</svg>
