<?xml version="1.0"?>
<svg version="1.1" id="topsvg"
xmlns="http://www.w3.org/2000/svg" xmlns:xlink="http://www.w3.org/1999/xlink"
xmlns:cml="http://www.xml-cml.org/schema" x="0" y="0" width="1024px" height="1024px" viewBox="0 0 100 100">
<title>11306 - Open Babel Depiction</title>
<rect x="0" y="0" width="100" height="100" fill="white"/>
<defs>
<radialGradient id='radialffffff666666' cx='50%' cy='50%' r='50%' fx='30%' fy='30%'>
  <stop offset=' 0%' stop-color="rgb(255,255,255)"  stop-opacity='1.0'/>
  <stop offset='100%' stop-color="rgb(102,102,102)"  stop-opacity ='1.0'/>
</radialGradient>
<radialGradient id='radialffffffbfbfbf' cx='50%' cy='50%' r='50%' fx='30%' fy='30%'>
  <stop offset=' 0%' stop-color="rgb(255,255,255)"  stop-opacity='1.0'/>
  <stop offset='100%' stop-color="rgb(191,191,191)"  stop-opacity ='1.0'/>
</radialGradient>
</defs>
<g transform="translate(0,0)">
<svg width="100" height="100" x="0" y="0" viewBox="0 0 319.388 266.777"
font-family="sans-serif" stroke="rgb(0,0,0)" stroke-width="2"  stroke-linecap="round">
<line x1="102.5" y1="147.6" x2="73.5" y2="185.4" opacity="1.0" stroke="rgb(0,0,0)"  stroke-width="1.5"/>
<line x1="216.9" y1="119.2" x2="245.9" y2="81.4" opacity="0.5" stroke="rgb(0,0,0)"  stroke-width="1.5"/>
<line x1="166.4" y1="192.0" x2="148.1" y2="221.2" opacity="0.5" stroke="rgb(0,0,0)"  stroke-width="1.5"/>
<line x1="153.0" y1="74.8" x2="171.3" y2="45.6" opacity="0.5" stroke="rgb(0,0,0)"  stroke-width="1.5"/>
<line x1="83.6" y1="107.5" x2="49.3" y2="104.0" opacity="0.5" stroke="rgb(0,0,0)"  stroke-width="1.5"/>
<line x1="235.8" y1="159.3" x2="270.1" y2="162.8" opacity="0.5" stroke="rgb(0,0,0)"  stroke-width="1.5"/>
<line x1="210.6" y1="195.6" x2="225.3" y2="226.8" opacity="0.5" stroke="rgb(0,0,0)"  stroke-width="1.5"/>
<line x1="108.8" y1="71.2" x2="94.1" y2="40.0" opacity="0.5" stroke="rgb(0,0,0)"  stroke-width="1.5"/>
<line x1="73.5" y1="185.4" x2="78.7" y2="204.7" opacity="0.5" stroke="rgb(0,0,0)"  stroke-width="2.2"/>
<line x1="73.5" y1="185.4" x2="78.7" y2="204.7" opacity="0.7" stroke="rgb(0,0,0)"  stroke-width="0.7"/>
<line x1="73.5" y1="185.4" x2="40.0" y2="176.0" opacity="0.2" stroke="rgb(0,0,0)"  stroke-width="1.5"/>
<line x1="245.9" y1="81.4" x2="240.7" y2="62.1" opacity="0.5" stroke="rgb(0,0,0)"  stroke-width="2.3"/>
<line x1="245.9" y1="81.4" x2="279.4" y2="90.7" opacity="0.8" stroke="rgb(0,0,0)"  stroke-width="1.5"/>
<line x1="245.9" y1="81.4" x2="240.7" y2="62.0" opacity="0.5" stroke="rgb(0,0,0)"  stroke-width="0.8"/>
<line x1="147.2" y1="148.9" x2="102.8" y2="144.6" opacity="0.5" stroke="rgb(0,0,0)"  stroke-width="1.5"/>
<line x1="146.6" y1="154.8" x2="102.2" y2="150.6" opacity="0.5" stroke="rgb(0,0,0)"  stroke-width="1.5" stroke-dasharray="5.0,5.0"/>
<line x1="105.2" y1="146.3" x2="86.3" y2="106.3" opacity="0.5" stroke="rgb(0,0,0)"  stroke-width="1.5"/>
<line x1="99.8" y1="148.9" x2="80.9" y2="108.8" opacity="0.5" stroke="rgb(0,0,0)"  stroke-width="1.5" stroke-dasharray="5.0,5.0"/>
<line x1="86.1" y1="109.2" x2="111.3" y2="72.9" opacity="0.5" stroke="rgb(0,0,0)"  stroke-width="1.5"/>
<line x1="81.1" y1="105.8" x2="106.3" y2="69.5" opacity="0.5" stroke="rgb(0,0,0)"  stroke-width="1.5" stroke-dasharray="5.0,5.0"/>
<line x1="108.5" y1="74.2" x2="152.7" y2="77.8" opacity="0.5" stroke="rgb(0,0,0)"  stroke-width="1.5"/>
<line x1="109.0" y1="68.2" x2="153.2" y2="71.8" opacity="0.5" stroke="rgb(0,0,0)"  stroke-width="1.5" stroke-dasharray="5.0,5.0"/>
<line x1="150.3" y1="76.1" x2="169.8" y2="116.2" opacity="0.5" stroke="rgb(0,0,0)"  stroke-width="1.5"/>
<line x1="155.7" y1="73.5" x2="175.2" y2="113.6" opacity="0.5" stroke="rgb(0,0,0)"  stroke-width="1.5" stroke-dasharray="5.0,5.0"/>
<line x1="170.0" y1="113.2" x2="144.4" y2="150.1" opacity="0.5" stroke="rgb(0,0,0)"  stroke-width="1.5"/>
<line x1="175.0" y1="116.6" x2="149.4" y2="153.6" opacity="0.5" stroke="rgb(0,0,0)"  stroke-width="1.5" stroke-dasharray="5.0,5.0"/>
<line x1="149.4" y1="153.6" x2="175.0" y2="116.6" opacity="0.5" stroke="rgb(0,0,0)"  stroke-width="1.5"/>
<line x1="144.4" y1="150.1" x2="170.0" y2="113.2" opacity="0.5" stroke="rgb(0,0,0)"  stroke-width="1.5" stroke-dasharray="5.0,5.0"/>
<line x1="172.2" y1="117.9" x2="216.6" y2="122.1" opacity="0.5" stroke="rgb(0,0,0)"  stroke-width="1.5"/>
<line x1="172.8" y1="111.9" x2="217.2" y2="116.2" opacity="0.5" stroke="rgb(0,0,0)"  stroke-width="1.5" stroke-dasharray="5.0,5.0"/>
<line x1="214.2" y1="120.4" x2="233.1" y2="160.5" opacity="0.5" stroke="rgb(0,0,0)"  stroke-width="1.5"/>
<line x1="219.6" y1="117.9" x2="238.5" y2="158.0" opacity="0.5" stroke="rgb(0,0,0)"  stroke-width="1.5" stroke-dasharray="5.0,5.0"/>
<line x1="233.3" y1="157.5" x2="208.1" y2="193.9" opacity="0.5" stroke="rgb(0,0,0)"  stroke-width="1.5"/>
<line x1="238.3" y1="161.0" x2="213.1" y2="197.3" opacity="0.5" stroke="rgb(0,0,0)"  stroke-width="1.5" stroke-dasharray="5.0,5.0"/>
<line x1="210.9" y1="192.6" x2="166.7" y2="189.0" opacity="0.5" stroke="rgb(0,0,0)"  stroke-width="1.5"/>
<line x1="210.4" y1="198.6" x2="166.2" y2="194.9" opacity="0.5" stroke="rgb(0,0,0)"  stroke-width="1.5" stroke-dasharray="5.0,5.0"/>
<line x1="169.1" y1="190.6" x2="149.6" y2="150.5" opacity="0.5" stroke="rgb(0,0,0)"  stroke-width="1.5"/>
<line x1="163.7" y1="193.3" x2="144.2" y2="153.2" opacity="0.5" stroke="rgb(0,0,0)"  stroke-width="1.5" stroke-dasharray="5.0,5.0"/>
<circle cx="78.683048" cy="204.705489" r="5.636364" opacity="0.200000" style="stroke:black;stroke-width:0.5;fill:url(#radialffffffbfbfbf)"/>
<circle cx="240.698288" cy="62.030185" r="5.636364" opacity="0.200000" style="stroke:black;stroke-width:0.5;fill:url(#radialffffffbfbfbf)"/>
<circle cx="171.317181" cy="45.577423" r="5.636364" opacity="0.706712" style="stroke:black;stroke-width:0.5;fill:url(#radialffffffbfbfbf)"/>
<circle cx="216.908483" cy="119.160654" r="13.818182" opacity="0.706752" style="stroke:black;stroke-width:0.5;fill:url(#radialffffff666666)"/>
<circle cx="152.958693" cy="74.817602" r="13.818182" opacity="0.706791" style="stroke:black;stroke-width:0.5;fill:url(#radialffffff666666)"/>
<circle cx="235.791045" cy="159.250763" r="13.818182" opacity="0.706791" style="stroke:black;stroke-width:0.5;fill:url(#radialffffff666666)"/>
<circle cx="270.129040" cy="162.789060" r="5.636364" opacity="0.706791" style="stroke:black;stroke-width:0.5;fill:url(#radialffffffbfbfbf)"/>
<circle cx="94.068604" cy="40.000000" r="5.636364" opacity="0.706791" style="stroke:black;stroke-width:0.5;fill:url(#radialffffffbfbfbf)"/>
<circle cx="172.508259" cy="114.917239" r="13.818182" opacity="0.706831" style="stroke:black;stroke-width:0.5;fill:url(#radialffffff666666)"/>
<circle cx="108.793509" cy="71.199900" r="13.818182" opacity="0.706831" style="stroke:black;stroke-width:0.5;fill:url(#radialffffff666666)"/>
<circle cx="210.606885" cy="195.577064" r="13.818182" opacity="0.706909" style="stroke:black;stroke-width:0.5;fill:url(#radialffffff666666)"/>
<circle cx="73.537590" cy="185.359200" r="13.818182" opacity="0.706909" style="stroke:black;stroke-width:0.5;fill:url(#radialffffff666666)"/>
<circle cx="146.892134" cy="151.856549" r="13.818182" opacity="0.706949" style="stroke:black;stroke-width:0.5;fill:url(#radialffffff666666)"/>
<circle cx="83.609348" cy="107.529377" r="13.818182" opacity="0.706949" style="stroke:black;stroke-width:0.5;fill:url(#radialffffff666666)"/>
<circle cx="225.328613" cy="226.776964" r="5.636364" opacity="0.706949" style="stroke:black;stroke-width:0.5;fill:url(#radialffffffbfbfbf)"/>
<circle cx="166.438524" cy="191.953010" r="13.818182" opacity="0.706988" style="stroke:black;stroke-width:0.5;fill:url(#radialffffff666666)"/>
<circle cx="49.271354" cy="103.987905" r="5.636364" opacity="0.706988" style="stroke:black;stroke-width:0.5;fill:url(#radialffffffbfbfbf)"/>
<circle cx="40.000000" cy="176.049732" r="5.636364" opacity="0.706988" style="stroke:black;stroke-width:0.5;fill:url(#radialffffffbfbfbf)"/>
<circle cx="102.491910" cy="147.613134" r="13.818182" opacity="0.707028" style="stroke:black;stroke-width:0.5;fill:url(#radialffffff666666)"/>
<circle cx="148.076860" cy="221.193189" r="5.636364" opacity="0.707067" style="stroke:black;stroke-width:0.5;fill:url(#radialffffffbfbfbf)"/>
<circle cx="279.387689" cy="90.714528" r="5.636364" opacity="0.707107" style="stroke:black;stroke-width:0.5;fill:url(#radialffffffbfbfbf)"/>
<circle cx="245.850099" cy="81.411412" r="13.821266" opacity="0.707186" style="stroke:black;stroke-width:0.5;fill:url(#radialffffff666666)"/>
<circle cx="78.686224" cy="204.727722" r="11.263291" opacity="0.999581" style="stroke:black;stroke-width:0.5;fill:url(#radialffffffbfbfbf)"/>
<circle cx="240.695112" cy="62.081004" r="11.272727" opacity="1.000000" style="stroke:black;stroke-width:0.5;fill:url(#radialffffffbfbfbf)"/>
</svg>
</g>
</svg>
