<?xml version="1.0"?>
<svg version="1.1" id="topsvg"
xmlns="http://www.w3.org/2000/svg" xmlns:xlink="http://www.w3.org/1999/xlink"
xmlns:cml="http://www.xml-cml.org/schema" x="0" y="0" width="1024px" height="1024px" viewBox="0 0 100 100">
<title>11317 - Open Babel Depiction</title>
<rect x="0" y="0" width="100" height="100" fill="white"/>
<defs>
<radialGradient id='radialffffff666666' cx='50%' cy='50%' r='50%' fx='30%' fy='30%'>
  <stop offset=' 0%' stop-color="rgb(255,255,255)"  stop-opacity='1.0'/>
  <stop offset='100%' stop-color="rgb(102,102,102)"  stop-opacity ='1.0'/>
</radialGradient>
<radialGradient id='radialffffffbfbfbf' cx='50%' cy='50%' r='50%' fx='30%' fy='30%'>
  <stop offset=' 0%' stop-color="rgb(255,255,255)"  stop-opacity='1.0'/>
  <stop offset='100%' stop-color="rgb(191,191,191)"  stop-opacity ='1.0'/>
</radialGradient>
</defs>
<g transform="translate(0,0)">
<svg width="100" height="100" x="0" y="0" viewBox="0 0 340.109 260.475"
font-family="sans-serif" stroke="rgb(0,0,0)" stroke-width="2"  stroke-linecap="round">
<line x1="136.9" y1="158.8" x2="122.7" y2="204.3" opacity="1.0" stroke="rgb(0,0,0)"  stroke-width="1.5"/>
<line x1="106.0" y1="127.1" x2="59.7" y2="137.9" opacity="0.5" stroke="rgb(0,0,0)"  stroke-width="1.5"/>
<line x1="160.8" y1="73.5" x2="169.4" y2="40.0" opacity="0.5" stroke="rgb(0,0,0)"  stroke-width="1.5"/>
<line x1="117.9" y1="84.5" x2="94.2" y2="59.4" opacity="0.5" stroke="rgb(0,0,0)"  stroke-width="1.5"/>
<line x1="211.9" y1="179.7" x2="204.2" y2="213.4" opacity="0.5" stroke="rgb(0,0,0)"  stroke-width="1.5"/>
<line x1="122.7" y1="204.3" x2="88.4" y2="209.2" opacity="0.5" stroke="rgb(0,0,0)"  stroke-width="1.5"/>
<line x1="122.7" y1="204.3" x2="134.7" y2="220.5" opacity="0.5" stroke="rgb(0,0,0)"  stroke-width="0.8"/>
<line x1="122.7" y1="204.3" x2="134.7" y2="220.5" opacity="0.3" stroke="rgb(0,0,0)"  stroke-width="2.2"/>
<line x1="235.7" y1="94.4" x2="245.8" y2="61.4" opacity="0.7" stroke="rgb(0,0,0)"  stroke-width="1.5"/>
<line x1="59.7" y1="137.9" x2="51.2" y2="155.8" opacity="0.5" stroke="rgb(0,0,0)"  stroke-width="2.2"/>
<line x1="59.7" y1="137.9" x2="51.1" y2="155.8" opacity="0.7" stroke="rgb(0,0,0)"  stroke-width="0.7"/>
<line x1="59.7" y1="137.9" x2="40.0" y2="109.2" opacity="0.2" stroke="rgb(0,0,0)"  stroke-width="1.5"/>
<line x1="254.8" y1="168.7" x2="278.9" y2="193.4" opacity="0.5" stroke="rgb(0,0,0)"  stroke-width="1.5"/>
<line x1="266.7" y1="126.1" x2="300.1" y2="117.6" opacity="0.5" stroke="rgb(0,0,0)"  stroke-width="1.5"/>
<line x1="183.2" y1="149.1" x2="195.3" y2="105.8" opacity="0.5" stroke="rgb(0,0,0)"  stroke-width="1.5"/>
<line x1="177.4" y1="147.4" x2="189.5" y2="104.2" opacity="0.5" stroke="rgb(0,0,0)"  stroke-width="1.5" stroke-dasharray="5.0,5.0"/>
<line x1="194.5" y1="102.8" x2="162.9" y2="71.4" opacity="0.5" stroke="rgb(0,0,0)"  stroke-width="1.5"/>
<line x1="190.3" y1="107.1" x2="158.7" y2="75.6" opacity="0.5" stroke="rgb(0,0,0)"  stroke-width="1.5" stroke-dasharray="5.0,5.0"/>
<line x1="160.0" y1="70.6" x2="117.1" y2="81.6" opacity="0.5" stroke="rgb(0,0,0)"  stroke-width="1.5"/>
<line x1="161.5" y1="76.4" x2="118.6" y2="87.4" opacity="0.5" stroke="rgb(0,0,0)"  stroke-width="1.5" stroke-dasharray="5.0,5.0"/>
<line x1="115.0" y1="83.7" x2="103.1" y2="126.3" opacity="0.5" stroke="rgb(0,0,0)"  stroke-width="1.5"/>
<line x1="120.8" y1="85.3" x2="108.9" y2="127.9" opacity="0.5" stroke="rgb(0,0,0)"  stroke-width="1.5" stroke-dasharray="5.0,5.0"/>
<line x1="103.8" y1="129.2" x2="134.8" y2="160.9" opacity="0.5" stroke="rgb(0,0,0)"  stroke-width="1.5"/>
<line x1="108.1" y1="125.0" x2="139.1" y2="156.7" opacity="0.5" stroke="rgb(0,0,0)"  stroke-width="1.5" stroke-dasharray="5.0,5.0"/>
<line x1="137.6" y1="161.7" x2="181.0" y2="151.2" opacity="0.5" stroke="rgb(0,0,0)"  stroke-width="1.5"/>
<line x1="136.2" y1="155.9" x2="179.6" y2="145.3" opacity="0.5" stroke="rgb(0,0,0)"  stroke-width="1.5" stroke-dasharray="5.0,5.0"/>
<line x1="183.2" y1="149.1" x2="195.3" y2="105.8" opacity="0.5" stroke="rgb(0,0,0)"  stroke-width="1.5"/>
<line x1="177.4" y1="147.4" x2="189.5" y2="104.2" opacity="0.5" stroke="rgb(0,0,0)"  stroke-width="1.5" stroke-dasharray="5.0,5.0"/>
<line x1="193.1" y1="107.9" x2="236.4" y2="97.3" opacity="0.5" stroke="rgb(0,0,0)"  stroke-width="1.5"/>
<line x1="191.7" y1="102.1" x2="235.0" y2="91.5" opacity="0.5" stroke="rgb(0,0,0)"  stroke-width="1.5" stroke-dasharray="5.0,5.0"/>
<line x1="233.6" y1="96.5" x2="264.5" y2="128.2" opacity="0.5" stroke="rgb(0,0,0)"  stroke-width="1.5"/>
<line x1="237.9" y1="92.3" x2="268.8" y2="124.0" opacity="0.5" stroke="rgb(0,0,0)"  stroke-width="1.5" stroke-dasharray="5.0,5.0"/>
<line x1="263.8" y1="125.3" x2="251.9" y2="167.9" opacity="0.5" stroke="rgb(0,0,0)"  stroke-width="1.5"/>
<line x1="269.6" y1="126.9" x2="257.7" y2="169.5" opacity="0.5" stroke="rgb(0,0,0)"  stroke-width="1.5" stroke-dasharray="5.0,5.0"/>
<line x1="254.0" y1="165.8" x2="211.1" y2="176.8" opacity="0.5" stroke="rgb(0,0,0)"  stroke-width="1.5"/>
<line x1="255.5" y1="171.6" x2="212.6" y2="182.7" opacity="0.5" stroke="rgb(0,0,0)"  stroke-width="1.5" stroke-dasharray="5.0,5.0"/>
<line x1="214.0" y1="177.6" x2="182.4" y2="146.1" opacity="0.5" stroke="rgb(0,0,0)"  stroke-width="1.5"/>
<line x1="209.8" y1="181.9" x2="178.2" y2="150.4" opacity="0.5" stroke="rgb(0,0,0)"  stroke-width="1.5" stroke-dasharray="5.0,5.0"/>
<circle cx="51.129822" cy="155.808588" r="5.636364" opacity="0.200000" style="stroke:black;stroke-width:0.5;fill:url(#radialffffffbfbfbf)"/>
<circle cx="134.717831" cy="220.459384" r="5.636364" opacity="0.200000" style="stroke:black;stroke-width:0.5;fill:url(#radialffffffbfbfbf)"/>
<circle cx="88.372161" cy="209.215215" r="5.636364" opacity="0.706024" style="stroke:black;stroke-width:0.5;fill:url(#radialffffffbfbfbf)"/>
<circle cx="122.679582" cy="204.260158" r="13.818182" opacity="0.706378" style="stroke:black;stroke-width:0.5;fill:url(#radialffffff666666)"/>
<circle cx="117.861106" cy="84.522463" r="13.818182" opacity="0.706536" style="stroke:black;stroke-width:0.5;fill:url(#radialffffff666666)"/>
<circle cx="105.962615" cy="127.097842" r="13.818182" opacity="0.706575" style="stroke:black;stroke-width:0.5;fill:url(#radialffffff666666)"/>
<circle cx="160.773175" cy="73.478402" r="13.818182" opacity="0.706575" style="stroke:black;stroke-width:0.5;fill:url(#radialffffff666666)"/>
<circle cx="169.352412" cy="40.000000" r="5.636364" opacity="0.706575" style="stroke:black;stroke-width:0.5;fill:url(#radialffffffbfbfbf)"/>
<circle cx="94.156238" cy="59.423190" r="5.636364" opacity="0.706575" style="stroke:black;stroke-width:0.5;fill:url(#radialffffffbfbfbf)"/>
<circle cx="136.928549" cy="158.791152" r="13.818182" opacity="0.706615" style="stroke:black;stroke-width:0.5;fill:url(#radialffffff666666)"/>
<circle cx="192.377548" cy="104.965251" r="13.818182" opacity="0.706615" style="stroke:black;stroke-width:0.5;fill:url(#radialffffff666666)"/>
<circle cx="180.272597" cy="148.255302" r="13.818182" opacity="0.706654" style="stroke:black;stroke-width:0.5;fill:url(#radialffffff666666)"/>
<circle cx="235.724773" cy="94.432578" r="13.818182" opacity="0.706654" style="stroke:black;stroke-width:0.5;fill:url(#radialffffff666666)"/>
<circle cx="245.758764" cy="61.360745" r="5.636364" opacity="0.706654" style="stroke:black;stroke-width:0.5;fill:url(#radialffffffbfbfbf)"/>
<circle cx="266.693883" cy="126.129064" r="13.818182" opacity="0.706694" style="stroke:black;stroke-width:0.5;fill:url(#radialffffff666666)"/>
<circle cx="211.873794" cy="179.745328" r="13.818182" opacity="0.706733" style="stroke:black;stroke-width:0.5;fill:url(#radialffffff666666)"/>
<circle cx="254.795392" cy="168.704443" r="13.818182" opacity="0.706733" style="stroke:black;stroke-width:0.5;fill:url(#radialffffff666666)"/>
<circle cx="300.108758" cy="117.559356" r="5.636364" opacity="0.706733" style="stroke:black;stroke-width:0.5;fill:url(#radialffffffbfbfbf)"/>
<circle cx="204.222042" cy="213.404780" r="5.636364" opacity="0.706772" style="stroke:black;stroke-width:0.5;fill:url(#radialffffffbfbfbf)"/>
<circle cx="278.935416" cy="193.352678" r="5.636364" opacity="0.706812" style="stroke:black;stroke-width:0.5;fill:url(#radialffffffbfbfbf)"/>
<circle cx="59.740822" cy="137.887797" r="13.818182" opacity="0.707048" style="stroke:black;stroke-width:0.5;fill:url(#radialffffff666666)"/>
<circle cx="40.000000" cy="109.202461" r="5.640441" opacity="0.707362" style="stroke:black;stroke-width:0.5;fill:url(#radialffffffbfbfbf)"/>
<circle cx="134.676539" cy="220.475266" r="11.227564" opacity="0.997995" style="stroke:black;stroke-width:0.5;fill:url(#radialffffffbfbfbf)"/>
<circle cx="51.180643" cy="155.824470" r="11.272727" opacity="1.000000" style="stroke:black;stroke-width:0.5;fill:url(#radialffffffbfbfbf)"/>
</svg>
</g>
</svg>
