<?xml version="1.0"?>
<svg version="1.1" id="topsvg"
xmlns="http://www.w3.org/2000/svg" xmlns:xlink="http://www.w3.org/1999/xlink"
xmlns:cml="http://www.xml-cml.org/schema" x="0" y="0" width="1024px" height="1024px" viewBox="0 0 100 100">
<title>11327 - Open Babel Depiction</title>
<rect x="0" y="0" width="100" height="100" fill="white"/>
<defs>
<radialGradient id='radialffffff666666' cx='50%' cy='50%' r='50%' fx='30%' fy='30%'>
  <stop offset=' 0%' stop-color="rgb(255,255,255)"  stop-opacity='1.0'/>
  <stop offset='100%' stop-color="rgb(102,102,102)"  stop-opacity ='1.0'/>
</radialGradient>
<radialGradient id='radialffffffbfbfbf' cx='50%' cy='50%' r='50%' fx='30%' fy='30%'>
  <stop offset=' 0%' stop-color="rgb(255,255,255)"  stop-opacity='1.0'/>
  <stop offset='100%' stop-color="rgb(191,191,191)"  stop-opacity ='1.0'/>
</radialGradient>
</defs>
<g transform="translate(0,0)">
<svg width="100" height="100" x="0" y="0" viewBox="0 0 335.763 272.531"
font-family="sans-serif" stroke="rgb(0,0,0)" stroke-width="2"  stroke-linecap="round">
<line x1="150.9" y1="102.2" x2="153.4" y2="54.7" opacity="1.0" stroke="rgb(0,0,0)"  stroke-width="1.4"/>
<line x1="106.2" y1="164.5" x2="63.0" y2="184.0" opacity="0.5" stroke="rgb(0,0,0)"  stroke-width="1.4"/>
<line x1="142.1" y1="190.4" x2="138.4" y2="224.7" opacity="0.5" stroke="rgb(0,0,0)"  stroke-width="1.4"/>
<line x1="110.5" y1="120.5" x2="82.3" y2="100.6" opacity="0.5" stroke="rgb(0,0,0)"  stroke-width="1.4"/>
<line x1="228.3" y1="109.9" x2="233.3" y2="75.8" opacity="0.5" stroke="rgb(0,0,0)"  stroke-width="1.4"/>
<line x1="219.6" y1="198.1" x2="216.9" y2="232.5" opacity="0.5" stroke="rgb(0,0,0)"  stroke-width="1.4"/>
<line x1="153.4" y1="54.7" x2="169.8" y2="43.3" opacity="0.5" stroke="rgb(0,0,0)"  stroke-width="2.1"/>
<line x1="153.4" y1="54.7" x2="169.9" y2="43.3" opacity="0.7" stroke="rgb(0,0,0)"  stroke-width="0.7"/>
<line x1="153.4" y1="54.7" x2="121.8" y2="40.0" opacity="0.2" stroke="rgb(0,0,0)"  stroke-width="1.4"/>
<line x1="63.0" y1="184.0" x2="52.1" y2="188.9" opacity="0.5" stroke="rgb(0,0,0)"  stroke-width="2.2"/>
<line x1="63.0" y1="184.0" x2="40.0" y2="163.7" opacity="0.7" stroke="rgb(0,0,0)"  stroke-width="1.0"/>
<line x1="63.0" y1="184.0" x2="63.0" y2="214.6" opacity="0.3" stroke="rgb(0,0,0)"  stroke-width="1.0"/>
<line x1="264.3" y1="135.8" x2="295.8" y2="121.6" opacity="0.3" stroke="rgb(0,0,0)"  stroke-width="1.4"/>
<line x1="259.9" y1="179.8" x2="288.0" y2="199.9" opacity="0.5" stroke="rgb(0,0,0)"  stroke-width="1.4"/>
<line x1="189.2" y1="125.3" x2="152.6" y2="99.7" opacity="0.5" stroke="rgb(0,0,0)"  stroke-width="1.4"/>
<line x1="185.7" y1="130.2" x2="149.2" y2="104.7" opacity="0.5" stroke="rgb(0,0,0)"  stroke-width="1.4" stroke-dasharray="5.0,5.0"/>
<line x1="149.7" y1="99.5" x2="109.3" y2="117.8" opacity="0.5" stroke="rgb(0,0,0)"  stroke-width="1.4"/>
<line x1="152.1" y1="104.9" x2="111.8" y2="123.2" opacity="0.5" stroke="rgb(0,0,0)"  stroke-width="1.4" stroke-dasharray="5.0,5.0"/>
<line x1="107.5" y1="120.2" x2="103.2" y2="164.2" opacity="0.5" stroke="rgb(0,0,0)"  stroke-width="1.4"/>
<line x1="113.5" y1="120.8" x2="109.1" y2="164.8" opacity="0.5" stroke="rgb(0,0,0)"  stroke-width="1.4" stroke-dasharray="5.0,5.0"/>
<line x1="104.4" y1="166.9" x2="140.4" y2="192.8" opacity="0.5" stroke="rgb(0,0,0)"  stroke-width="1.4"/>
<line x1="107.9" y1="162.0" x2="143.9" y2="187.9" opacity="0.5" stroke="rgb(0,0,0)"  stroke-width="1.4" stroke-dasharray="5.0,5.0"/>
<line x1="143.3" y1="193.1" x2="184.2" y2="175.3" opacity="0.5" stroke="rgb(0,0,0)"  stroke-width="1.4"/>
<line x1="140.9" y1="187.6" x2="181.8" y2="169.8" opacity="0.5" stroke="rgb(0,0,0)"  stroke-width="1.4" stroke-dasharray="5.0,5.0"/>
<line x1="186.0" y1="172.8" x2="190.4" y2="128.1" opacity="0.5" stroke="rgb(0,0,0)"  stroke-width="1.4"/>
<line x1="180.0" y1="172.2" x2="184.5" y2="127.5" opacity="0.5" stroke="rgb(0,0,0)"  stroke-width="1.4" stroke-dasharray="5.0,5.0"/>
<line x1="184.5" y1="127.5" x2="180.0" y2="172.2" opacity="0.5" stroke="rgb(0,0,0)"  stroke-width="1.4"/>
<line x1="190.4" y1="128.1" x2="186.0" y2="172.8" opacity="0.5" stroke="rgb(0,0,0)"  stroke-width="1.4" stroke-dasharray="5.0,5.0"/>
<line x1="181.3" y1="175.0" x2="217.8" y2="200.5" opacity="0.5" stroke="rgb(0,0,0)"  stroke-width="1.4"/>
<line x1="184.7" y1="170.0" x2="221.3" y2="195.6" opacity="0.5" stroke="rgb(0,0,0)"  stroke-width="1.4" stroke-dasharray="5.0,5.0"/>
<line x1="220.8" y1="200.8" x2="261.2" y2="182.5" opacity="0.5" stroke="rgb(0,0,0)"  stroke-width="1.4"/>
<line x1="218.3" y1="195.3" x2="258.7" y2="177.1" opacity="0.5" stroke="rgb(0,0,0)"  stroke-width="1.4" stroke-dasharray="5.0,5.0"/>
<line x1="262.9" y1="180.1" x2="267.3" y2="136.1" opacity="0.5" stroke="rgb(0,0,0)"  stroke-width="1.4"/>
<line x1="256.9" y1="179.5" x2="261.3" y2="135.5" opacity="0.5" stroke="rgb(0,0,0)"  stroke-width="1.4" stroke-dasharray="5.0,5.0"/>
<line x1="266.1" y1="133.4" x2="230.1" y2="107.5" opacity="0.5" stroke="rgb(0,0,0)"  stroke-width="1.4"/>
<line x1="262.6" y1="138.2" x2="226.6" y2="112.4" opacity="0.5" stroke="rgb(0,0,0)"  stroke-width="1.4" stroke-dasharray="5.0,5.0"/>
<line x1="227.1" y1="107.2" x2="186.3" y2="125.0" opacity="0.5" stroke="rgb(0,0,0)"  stroke-width="1.4"/>
<line x1="229.5" y1="112.7" x2="188.7" y2="130.5" opacity="0.5" stroke="rgb(0,0,0)"  stroke-width="1.4" stroke-dasharray="5.0,5.0"/>
<circle cx="169.858781" cy="43.297214" r="5.636364" opacity="0.200000" style="stroke:black;stroke-width:0.5;fill:url(#radialffffffbfbfbf)"/>
<circle cx="63.026499" cy="214.628470" r="5.636364" opacity="0.442172" style="stroke:black;stroke-width:0.5;fill:url(#radialffffffbfbfbf)"/>
<circle cx="40.000000" cy="163.667769" r="5.636364" opacity="0.442701" style="stroke:black;stroke-width:0.5;fill:url(#radialffffffbfbfbf)"/>
<circle cx="233.328566" cy="75.754762" r="5.636364" opacity="0.681982" style="stroke:black;stroke-width:0.5;fill:url(#radialffffffbfbfbf)"/>
<circle cx="150.898211" cy="102.205536" r="13.818182" opacity="0.682020" style="stroke:black;stroke-width:0.5;fill:url(#radialffffff666666)"/>
<circle cx="110.527984" cy="120.486333" r="13.818182" opacity="0.682020" style="stroke:black;stroke-width:0.5;fill:url(#radialffffff666666)"/>
<circle cx="187.459806" cy="127.770064" r="13.818182" opacity="0.682058" style="stroke:black;stroke-width:0.5;fill:url(#radialffffff666666)"/>
<circle cx="228.341450" cy="109.921271" r="13.818182" opacity="0.682058" style="stroke:black;stroke-width:0.5;fill:url(#radialffffff666666)"/>
<circle cx="264.315391" cy="135.803450" r="13.818182" opacity="0.682058" style="stroke:black;stroke-width:0.5;fill:url(#radialffffff666666)"/>
<circle cx="295.762810" cy="121.607640" r="5.636364" opacity="0.682058" style="stroke:black;stroke-width:0.5;fill:url(#radialffffffbfbfbf)"/>
<circle cx="106.150757" cy="164.477778" r="13.818182" opacity="0.682096" style="stroke:black;stroke-width:0.5;fill:url(#radialffffff666666)"/>
<circle cx="62.969322" cy="183.981530" r="13.818182" opacity="0.682096" style="stroke:black;stroke-width:0.5;fill:url(#radialffffff666666)"/>
<circle cx="183.003166" cy="172.504811" r="13.818182" opacity="0.682134" style="stroke:black;stroke-width:0.5;fill:url(#radialffffff666666)"/>
<circle cx="142.121522" cy="190.356780" r="13.818182" opacity="0.682134" style="stroke:black;stroke-width:0.5;fill:url(#radialffffff666666)"/>
<circle cx="219.561585" cy="198.072515" r="13.818182" opacity="0.682134" style="stroke:black;stroke-width:0.5;fill:url(#radialffffff666666)"/>
<circle cx="259.934988" cy="179.794894" r="13.818182" opacity="0.682134" style="stroke:black;stroke-width:0.5;fill:url(#radialffffff666666)"/>
<circle cx="121.810936" cy="40.000000" r="5.636364" opacity="0.682134" style="stroke:black;stroke-width:0.5;fill:url(#radialffffffbfbfbf)"/>
<circle cx="287.954956" cy="199.924419" r="5.636364" opacity="0.682134" style="stroke:black;stroke-width:0.5;fill:url(#radialffffffbfbfbf)"/>
<circle cx="216.899672" cy="232.531263" r="5.636364" opacity="0.682173" style="stroke:black;stroke-width:0.5;fill:url(#radialffffffbfbfbf)"/>
<circle cx="153.363180" cy="54.694521" r="13.818182" opacity="0.682249" style="stroke:black;stroke-width:0.5;fill:url(#radialffffff666666)"/>
<circle cx="82.311073" cy="100.550575" r="5.636364" opacity="0.682782" style="stroke:black;stroke-width:0.5;fill:url(#radialffffffbfbfbf)"/>
<circle cx="138.360538" cy="224.736115" r="5.636364" opacity="0.682935" style="stroke:black;stroke-width:0.5;fill:url(#radialffffffbfbfbf)"/>
<circle cx="169.833369" cy="43.319450" r="10.498775" opacity="0.965061" style="stroke:black;stroke-width:0.5;fill:url(#radialffffffbfbfbf)"/>
<circle cx="52.108844" cy="188.908293" r="11.272727" opacity="1.000000" style="stroke:black;stroke-width:0.5;fill:url(#radialffffffbfbfbf)"/>
</svg>
</g>
</svg>
