<?xml version="1.0"?>
<svg version="1.1" id="topsvg"
xmlns="http://www.w3.org/2000/svg" xmlns:xlink="http://www.w3.org/1999/xlink"
xmlns:cml="http://www.xml-cml.org/schema" x="0" y="0" width="200px" height="200px" viewBox="0 0 100 100">
<title>11357 - Open Babel Depiction</title>
<rect x="0" y="0" width="100" height="100" fill="white"/>
<defs>
<radialGradient id='radialffffff0ccff' cx='50%' cy='50%' r='50%' fx='30%' fy='30%'>
  <stop offset=' 0%' stop-color="rgb(255,255,255)"  stop-opacity='1.0'/>
  <stop offset='100%' stop-color="rgb(12,12,255)"  stop-opacity ='1.0'/>
</radialGradient>
<radialGradient id='radialffffff666666' cx='50%' cy='50%' r='50%' fx='30%' fy='30%'>
  <stop offset=' 0%' stop-color="rgb(255,255,255)"  stop-opacity='1.0'/>
  <stop offset='100%' stop-color="rgb(102,102,102)"  stop-opacity ='1.0'/>
</radialGradient>
<radialGradient id='radialffffffbfbfbf' cx='50%' cy='50%' r='50%' fx='30%' fy='30%'>
  <stop offset=' 0%' stop-color="rgb(255,255,255)"  stop-opacity='1.0'/>
  <stop offset='100%' stop-color="rgb(191,191,191)"  stop-opacity ='1.0'/>
</radialGradient>
</defs>
<g transform="translate(0,0)">
<svg width="100" height="100" x="0" y="0" viewBox="0 0 311.75 257.079"
font-family="sans-serif" stroke="rgb(0,0,0)" stroke-width="4"  stroke-linecap="round">
<line x1="170.4" y1="187.9" x2="144.8" y2="149.9" opacity="1.0" stroke="rgb(0,0,0)"  stroke-width="1.7"/>
<line x1="170.4" y1="187.9" x2="203.0" y2="186.5" opacity="0.6" stroke="rgb(0,0,0)"  stroke-width="1.8"/>
<line x1="170.4" y1="187.9" x2="156.1" y2="217.1" opacity="0.6" stroke="rgb(0,0,0)"  stroke-width="1.7"/>
<line x1="163.4" y1="109.2" x2="210.8" y2="104.4" opacity="0.6" stroke="rgb(0,0,0)"  stroke-width="2.1"/>
<line x1="210.8" y1="104.4" x2="237.4" y2="99.0" opacity="0.7" stroke="rgb(0,0,0)"  stroke-width="1.5"/>
<line x1="210.8" y1="104.4" x2="216.0" y2="75.6" opacity="0.5" stroke="rgb(0,0,0)"  stroke-width="2.6"/>
<line x1="210.8" y1="104.4" x2="223.5" y2="131.3" opacity="0.9" stroke="rgb(0,0,0)"  stroke-width="2.6"/>
<line x1="137.6" y1="72.0" x2="151.6" y2="40.0" opacity="0.9" stroke="rgb(0,0,0)"  stroke-width="2.0"/>
<line x1="237.4" y1="99.0" x2="234.3" y2="127.4" opacity="0.7" stroke="rgb(0,0,0)"  stroke-width="0.4"/>
<line x1="237.4" y1="99.0" x2="271.8" y2="94.8" opacity="0.1" stroke="rgb(0,0,0)"  stroke-width="0.9"/>
<line x1="237.4" y1="99.0" x2="226.8" y2="70.5" opacity="0.3" stroke="rgb(0,0,0)"  stroke-width="0.4"/>
<line x1="100.4" y1="153.5" x2="85.4" y2="185.1" opacity="0.1" stroke="rgb(0,0,0)"  stroke-width="1.3"/>
<line x1="93.2" y1="75.6" x2="73.1" y2="46.6" opacity="0.4" stroke="rgb(0,0,0)"  stroke-width="1.6"/>
<line x1="74.6" y1="116.4" x2="40.0" y2="119.1" opacity="0.5" stroke="rgb(0,0,0)"  stroke-width="1.2"/>
<line x1="144.5" y1="146.9" x2="100.1" y2="150.5" opacity="0.5" stroke="rgb(0,0,0)"  stroke-width="1.6"/>
<line x1="145.0" y1="152.9" x2="100.6" y2="156.5" opacity="0.5" stroke="rgb(0,0,0)"  stroke-width="1.6" stroke-dasharray="5.0,5.0"/>
<line x1="102.8" y1="151.8" x2="77.0" y2="114.6" opacity="0.5" stroke="rgb(0,0,0)"  stroke-width="1.4"/>
<line x1="97.9" y1="155.2" x2="72.1" y2="118.1" opacity="0.5" stroke="rgb(0,0,0)"  stroke-width="1.4" stroke-dasharray="5.0,5.0"/>
<line x1="77.3" y1="117.6" x2="95.9" y2="76.8" opacity="0.5" stroke="rgb(0,0,0)"  stroke-width="1.5"/>
<line x1="71.8" y1="115.1" x2="90.4" y2="74.3" opacity="0.5" stroke="rgb(0,0,0)"  stroke-width="1.5" stroke-dasharray="5.0,5.0"/>
<line x1="93.4" y1="78.6" x2="137.8" y2="75.0" opacity="0.6" stroke="rgb(0,0,0)"  stroke-width="1.7"/>
<line x1="92.9" y1="72.6" x2="137.3" y2="69.0" opacity="0.6" stroke="rgb(0,0,0)"  stroke-width="1.7" stroke-dasharray="5.0,5.0"/>
<line x1="135.1" y1="73.7" x2="160.9" y2="110.9" opacity="0.6" stroke="rgb(0,0,0)"  stroke-width="1.9"/>
<line x1="140.0" y1="70.3" x2="165.8" y2="107.5" opacity="0.6" stroke="rgb(0,0,0)"  stroke-width="1.9" stroke-dasharray="5.0,5.0"/>
<line x1="160.6" y1="107.9" x2="142.0" y2="148.7" opacity="0.6" stroke="rgb(0,0,0)"  stroke-width="1.8"/>
<line x1="166.1" y1="110.4" x2="147.5" y2="151.2" opacity="0.6" stroke="rgb(0,0,0)"  stroke-width="1.8" stroke-dasharray="5.0,5.0"/>
<circle cx="234.276053" cy="127.383974" r="5.636364" opacity="0.200000" style="stroke:black;stroke-width:0.5;fill:url(#radialffffffbfbfbf)"/>
<circle cx="226.836357" cy="70.459909" r="5.636364" opacity="0.200000" style="stroke:black;stroke-width:0.5;fill:url(#radialffffffbfbfbf)"/>
<circle cx="237.366189" cy="98.965762" r="13.818182" opacity="0.504497" style="stroke:black;stroke-width:0.5;fill:url(#radialffffff666666)"/>
<circle cx="271.750441" cy="94.840171" r="5.636364" opacity="0.591790" style="stroke:black;stroke-width:0.5;fill:url(#radialffffffbfbfbf)"/>
<circle cx="40.000000" cy="119.142530" r="5.636364" opacity="0.612029" style="stroke:black;stroke-width:0.5;fill:url(#radialffffffbfbfbf)"/>
<circle cx="85.433434" cy="185.090311" r="5.636364" opacity="0.639955" style="stroke:black;stroke-width:0.5;fill:url(#radialffffffbfbfbf)"/>
<circle cx="74.562778" cy="116.351021" r="13.818182" opacity="0.671622" style="stroke:black;stroke-width:0.5;fill:url(#radialffffff666666)"/>
<circle cx="100.355025" cy="153.523536" r="13.818182" opacity="0.686395" style="stroke:black;stroke-width:0.5;fill:url(#radialffffff666666)"/>
<circle cx="73.082629" cy="46.644441" r="5.786255" opacity="0.716447" style="stroke:black;stroke-width:0.5;fill:url(#radialffffffbfbfbf)"/>
<circle cx="156.094321" cy="217.079059" r="5.937469" opacity="0.725749" style="stroke:black;stroke-width:0.5;fill:url(#radialffffffbfbfbf)"/>
<circle cx="93.165266" cy="75.588496" r="14.624468" opacity="0.727444" style="stroke:black;stroke-width:0.5;fill:url(#radialffffff666666)"/>
<circle cx="144.753004" cy="149.936772" r="15.732300" opacity="0.754494" style="stroke:black;stroke-width:0.5;fill:url(#radialffffff666666)"/>
<circle cx="170.350494" cy="187.927264" r="15.183958" opacity="0.766884" style="stroke:black;stroke-width:0.5;fill:url(#radialffffff0ccff)"/>
<circle cx="202.998167" cy="186.544493" r="6.961581" opacity="0.785850" style="stroke:black;stroke-width:0.5;fill:url(#radialffffffbfbfbf)"/>
<circle cx="137.559999" cy="71.991993" r="17.336225" opacity="0.792021" style="stroke:black;stroke-width:0.5;fill:url(#radialffffff666666)"/>
<circle cx="163.355491" cy="109.167754" r="17.890682" opacity="0.804587" style="stroke:black;stroke-width:0.5;fill:url(#radialffffff666666)"/>
<circle cx="151.595447" cy="40.000000" r="7.737932" opacity="0.828510" style="stroke:black;stroke-width:0.5;fill:url(#radialffffffbfbfbf)"/>
<circle cx="210.811147" cy="104.357270" r="20.814278" opacity="0.867841" style="stroke:black;stroke-width:0.5;fill:url(#radialffffff666666)"/>
<circle cx="223.457332" cy="131.298579" r="11.132975" opacity="0.993782" style="stroke:black;stroke-width:0.5;fill:url(#radialffffffbfbfbf)"/>
<circle cx="216.024128" cy="75.646923" r="11.272727" opacity="1.000000" style="stroke:black;stroke-width:0.5;fill:url(#radialffffffbfbfbf)"/>
</svg>
</g>
</svg>
