<?xml version="1.0"?>
<svg version="1.1" id="topsvg"
xmlns="http://www.w3.org/2000/svg" xmlns:xlink="http://www.w3.org/1999/xlink"
xmlns:cml="http://www.xml-cml.org/schema" x="0" y="0" width="200px" height="200px" viewBox="0 0 100 100">
<title>11516 - Open Babel Depiction</title>
<rect x="0" y="0" width="100" height="100" fill="white"/>
<defs>
<radialGradient id='radialffffff666666' cx='50%' cy='50%' r='50%' fx='30%' fy='30%'>
  <stop offset=' 0%' stop-color="rgb(255,255,255)"  stop-opacity='1.0'/>
  <stop offset='100%' stop-color="rgb(102,102,102)"  stop-opacity ='1.0'/>
</radialGradient>
<radialGradient id='radialffffffbfbfbf' cx='50%' cy='50%' r='50%' fx='30%' fy='30%'>
  <stop offset=' 0%' stop-color="rgb(255,255,255)"  stop-opacity='1.0'/>
  <stop offset='100%' stop-color="rgb(191,191,191)"  stop-opacity ='1.0'/>
</radialGradient>
<radialGradient id='radialffffffffcc' cx='50%' cy='50%' r='50%' fx='30%' fy='30%'>
  <stop offset=' 0%' stop-color="rgb(255,255,255)"  stop-opacity='1.0'/>
  <stop offset='100%' stop-color="rgb(255,12,12)"  stop-opacity ='1.0'/>
</radialGradient>
</defs>
<g transform="translate(0,0)">
<svg width="100" height="100" x="0" y="0" viewBox="0 0 427.424 170.246"
font-family="sans-serif" stroke="rgb(0,0,0)" stroke-width="4"  stroke-linecap="round">
<line x1="190.5" y1="130.3" x2="189.9" y2="90.2" opacity="1.0" stroke="rgb(0,0,0)"  stroke-width="1.5"/>
<line x1="196.5" y1="130.2" x2="195.9" y2="90.1" opacity="1.0" stroke="rgb(0,0,0)"  stroke-width="1.5"/>
<line x1="276.3" y1="90.0" x2="234.4" y2="62.9" opacity="0.5" stroke="rgb(0,0,0)"  stroke-width="1.5"/>
<line x1="276.3" y1="90.0" x2="317.3" y2="61.6" opacity="0.5" stroke="rgb(0,0,0)"  stroke-width="1.5"/>
<line x1="276.3" y1="90.0" x2="276.7" y2="111.8" opacity="0.5" stroke="rgb(0,0,0)"  stroke-width="2.2"/>
<line x1="276.3" y1="90.0" x2="276.4" y2="111.1" opacity="0.7" stroke="rgb(0,0,0)"  stroke-width="0.8"/>
<line x1="234.4" y1="62.9" x2="192.9" y2="90.1" opacity="0.3" stroke="rgb(0,0,0)"  stroke-width="1.5"/>
<line x1="234.4" y1="62.9" x2="233.8" y2="42.5" opacity="0.5" stroke="rgb(0,0,0)"  stroke-width="2.3"/>
<line x1="234.4" y1="62.9" x2="233.6" y2="41.6" opacity="0.8" stroke="rgb(0,0,0)"  stroke-width="0.8"/>
<line x1="150.5" y1="64.3" x2="192.9" y2="90.1" opacity="0.3" stroke="rgb(0,0,0)"  stroke-width="1.5"/>
<line x1="150.5" y1="64.3" x2="110.3" y2="93.6" opacity="0.5" stroke="rgb(0,0,0)"  stroke-width="1.5"/>
<line x1="150.5" y1="64.3" x2="150.0" y2="44.4" opacity="0.5" stroke="rgb(0,0,0)"  stroke-width="2.3"/>
<line x1="150.5" y1="64.3" x2="150.7" y2="42.6" opacity="0.8" stroke="rgb(0,0,0)"  stroke-width="0.8"/>
<line x1="317.3" y1="61.6" x2="358.5" y2="89.2" opacity="0.3" stroke="rgb(0,0,0)"  stroke-width="1.5"/>
<line x1="317.3" y1="61.6" x2="317.2" y2="40.0" opacity="0.5" stroke="rgb(0,0,0)"  stroke-width="0.8"/>
<line x1="317.3" y1="61.6" x2="317.5" y2="40.7" opacity="0.3" stroke="rgb(0,0,0)"  stroke-width="2.2"/>
<line x1="110.3" y1="93.6" x2="68.4" y2="67.1" opacity="0.7" stroke="rgb(0,0,0)"  stroke-width="1.5"/>
<line x1="110.3" y1="93.6" x2="110.8" y2="113.5" opacity="0.5" stroke="rgb(0,0,0)"  stroke-width="0.7"/>
<line x1="110.3" y1="93.6" x2="110.6" y2="116.3" opacity="0.2" stroke="rgb(0,0,0)"  stroke-width="2.1"/>
<line x1="358.5" y1="89.2" x2="359.7" y2="109.7" opacity="0.7" stroke="rgb(0,0,0)"  stroke-width="0.8"/>
<line x1="358.5" y1="89.2" x2="360.1" y2="110.5" opacity="0.3" stroke="rgb(0,0,0)"  stroke-width="2.2"/>
<line x1="358.5" y1="89.2" x2="387.4" y2="68.3" opacity="0.7" stroke="rgb(0,0,0)"  stroke-width="1.5"/>
<line x1="68.4" y1="67.1" x2="40.0" y2="88.7" opacity="0.5" stroke="rgb(0,0,0)"  stroke-width="1.5"/>
<line x1="68.4" y1="67.1" x2="66.4" y2="47.7" opacity="0.5" stroke="rgb(0,0,0)"  stroke-width="2.3"/>
<line x1="68.4" y1="67.1" x2="66.5" y2="44.8" opacity="0.8" stroke="rgb(0,0,0)"  stroke-width="0.8"/>
<circle cx="110.771460" cy="113.527943" r="5.636364" opacity="0.200000" style="stroke:black;stroke-width:0.5;fill:url(#radialffffffbfbfbf)"/>
<circle cx="359.716067" cy="109.717799" r="5.636364" opacity="0.200000" style="stroke:black;stroke-width:0.5;fill:url(#radialffffffbfbfbf)"/>
<circle cx="276.382223" cy="111.061788" r="5.636364" opacity="0.200000" style="stroke:black;stroke-width:0.5;fill:url(#radialffffffbfbfbf)"/>
<circle cx="317.187948" cy="40.000000" r="5.636364" opacity="0.200000" style="stroke:black;stroke-width:0.5;fill:url(#radialffffffbfbfbf)"/>
<circle cx="233.599660" cy="41.585385" r="5.636364" opacity="0.211390" style="stroke:black;stroke-width:0.5;fill:url(#radialffffffbfbfbf)"/>
<circle cx="150.712726" cy="42.596639" r="5.636364" opacity="0.216518" style="stroke:black;stroke-width:0.5;fill:url(#radialffffffbfbfbf)"/>
<circle cx="66.517686" cy="44.801825" r="5.636364" opacity="0.226779" style="stroke:black;stroke-width:0.5;fill:url(#radialffffffbfbfbf)"/>
<circle cx="110.252785" cy="93.619290" r="13.818182" opacity="0.698196" style="stroke:black;stroke-width:0.5;fill:url(#radialffffff666666)"/>
<circle cx="40.000000" cy="88.670670" r="5.636364" opacity="0.699765" style="stroke:black;stroke-width:0.5;fill:url(#radialffffffbfbfbf)"/>
<circle cx="358.486251" cy="89.225229" r="13.818182" opacity="0.705554" style="stroke:black;stroke-width:0.5;fill:url(#radialffffff666666)"/>
<circle cx="387.424423" cy="68.315108" r="5.636364" opacity="0.706653" style="stroke:black;stroke-width:0.5;fill:url(#radialffffffbfbfbf)"/>
<circle cx="276.261525" cy="89.991824" r="13.973476" opacity="0.711069" style="stroke:black;stroke-width:0.5;fill:url(#radialffffff666666)"/>
<circle cx="317.308646" cy="61.559280" r="14.028198" opacity="0.712460" style="stroke:black;stroke-width:0.5;fill:url(#radialffffff666666)"/>
<circle cx="68.396661" cy="67.062458" r="14.051862" opacity="0.713061" style="stroke:black;stroke-width:0.5;fill:url(#radialffffff666666)"/>
<circle cx="192.868964" cy="90.132095" r="14.085879" opacity="0.713923" style="stroke:black;stroke-width:0.5;fill:url(#radialffffff666666)"/>
<circle cx="150.484379" cy="64.345121" r="14.153912" opacity="0.715645" style="stroke:black;stroke-width:0.5;fill:url(#radialffffff666666)"/>
<circle cx="234.411926" cy="62.939152" r="14.229340" opacity="0.717550" style="stroke:black;stroke-width:0.5;fill:url(#radialffffff666666)"/>
<circle cx="193.488765" cy="130.246253" r="12.444397" opacity="0.720081" style="stroke:black;stroke-width:0.5;fill:url(#radialffffffffcc)"/>
<circle cx="110.595307" cy="116.310522" r="10.608526" opacity="0.970092" style="stroke:black;stroke-width:0.5;fill:url(#radialffffffbfbfbf)"/>
<circle cx="360.055326" cy="110.455036" r="10.913781" opacity="0.983950" style="stroke:black;stroke-width:0.5;fill:url(#radialffffffbfbfbf)"/>
<circle cx="276.711696" cy="111.763142" r="10.954200" opacity="0.985771" style="stroke:black;stroke-width:0.5;fill:url(#radialffffffbfbfbf)"/>
<circle cx="317.523945" cy="40.730712" r="11.095969" opacity="0.992129" style="stroke:black;stroke-width:0.5;fill:url(#radialffffffbfbfbf)"/>
<circle cx="233.752980" cy="42.479203" r="11.223862" opacity="0.997830" style="stroke:black;stroke-width:0.5;fill:url(#radialffffffbfbfbf)"/>
<circle cx="149.952655" cy="44.394061" r="11.256439" opacity="0.999277" style="stroke:black;stroke-width:0.5;fill:url(#radialffffffbfbfbf)"/>
<circle cx="66.410037" cy="47.734461" r="11.272727" opacity="1.000000" style="stroke:black;stroke-width:0.5;fill:url(#radialffffffbfbfbf)"/>
</svg>
</g>
</svg>
