<?xml version="1.0"?>
<svg version="1.1" id="topsvg"
xmlns="http://www.w3.org/2000/svg" xmlns:xlink="http://www.w3.org/1999/xlink"
xmlns:cml="http://www.xml-cml.org/schema" x="0" y="0" width="1024px" height="1024px" viewBox="0 0 100 100">
<title>11605 - Open Babel Depiction</title>
<rect x="0" y="0" width="100" height="100" fill="white"/>
<defs>
<radialGradient id='radialffffff666666' cx='50%' cy='50%' r='50%' fx='30%' fy='30%'>
  <stop offset=' 0%' stop-color="rgb(255,255,255)"  stop-opacity='1.0'/>
  <stop offset='100%' stop-color="rgb(102,102,102)"  stop-opacity ='1.0'/>
</radialGradient>
<radialGradient id='radialffffffbfbfbf' cx='50%' cy='50%' r='50%' fx='30%' fy='30%'>
  <stop offset=' 0%' stop-color="rgb(255,255,255)"  stop-opacity='1.0'/>
  <stop offset='100%' stop-color="rgb(191,191,191)"  stop-opacity ='1.0'/>
</radialGradient>
</defs>
<g transform="translate(0,0)">
<svg width="100" height="100" x="0" y="0" viewBox="0 0 241.148 214.274"
font-family="sans-serif" stroke="rgb(0,0,0)" stroke-width="2"  stroke-linecap="round">
<line x1="95.1" y1="151.2" x2="80.4" y2="172.8" opacity="1.0" stroke="rgb(0,0,0)"  stroke-width="1.9"/>
<line x1="95.1" y1="151.2" x2="87.0" y2="164.4" opacity="0.6" stroke="rgb(0,0,0)"  stroke-width="0.7"/>
<line x1="144.4" y1="152.1" x2="158.3" y2="174.3" opacity="0.2" stroke="rgb(0,0,0)"  stroke-width="1.1"/>
<line x1="144.4" y1="152.1" x2="152.0" y2="165.6" opacity="0.4" stroke="rgb(0,0,0)"  stroke-width="2.3"/>
<line x1="74.9" y1="107.5" x2="40.0" y2="105.7" opacity="0.8" stroke="rgb(0,0,0)"  stroke-width="1.6"/>
<line x1="166.2" y1="109.2" x2="201.1" y2="108.7" opacity="0.5" stroke="rgb(0,0,0)"  stroke-width="1.4"/>
<line x1="98.1" y1="71.1" x2="82.5" y2="40.0" opacity="0.5" stroke="rgb(0,0,0)"  stroke-width="1.6"/>
<line x1="144.4" y1="72.0" x2="161.2" y2="41.5" opacity="0.5" stroke="rgb(0,0,0)"  stroke-width="1.4"/>
<line x1="144.4" y1="152.1" x2="95.1" y2="151.2" opacity="0.5" stroke="rgb(0,0,0)"  stroke-width="1.5"/>
<line x1="95.1" y1="151.2" x2="74.9" y2="107.5" opacity="0.5" stroke="rgb(0,0,0)"  stroke-width="1.5"/>
<line x1="74.9" y1="107.5" x2="98.1" y2="71.1" opacity="0.5" stroke="rgb(0,0,0)"  stroke-width="1.5"/>
<line x1="84.2" y1="106.3" x2="100.9" y2="80.1" opacity="0.5" stroke="rgb(0,0,0)"  stroke-width="1.5"/>
<line x1="98.1" y1="71.1" x2="144.4" y2="72.0" opacity="0.5" stroke="rgb(0,0,0)"  stroke-width="1.5"/>
<line x1="144.4" y1="72.0" x2="166.2" y2="109.2" opacity="0.5" stroke="rgb(0,0,0)"  stroke-width="1.5"/>
<line x1="141.2" y1="80.8" x2="157.0" y2="107.6" opacity="0.5" stroke="rgb(0,0,0)"  stroke-width="1.5"/>
<line x1="166.2" y1="109.2" x2="144.4" y2="152.1" opacity="0.5" stroke="rgb(0,0,0)"  stroke-width="1.5"/>
<circle cx="86.958097" cy="164.364100" r="5.636364" opacity="0.200000" style="stroke:black;stroke-width:0.5;fill:url(#radialffffffbfbfbf)"/>
<circle cx="158.253269" cy="174.274078" r="5.636364" opacity="0.446964" style="stroke:black;stroke-width:0.5;fill:url(#radialffffffbfbfbf)"/>
<circle cx="161.170241" cy="41.464925" r="5.636364" opacity="0.665583" style="stroke:black;stroke-width:0.5;fill:url(#radialffffffbfbfbf)"/>
<circle cx="95.119823" cy="151.221628" r="13.818182" opacity="0.676683" style="stroke:black;stroke-width:0.5;fill:url(#radialffffff666666)"/>
<circle cx="201.148211" cy="108.658307" r="5.636364" opacity="0.681332" style="stroke:black;stroke-width:0.5;fill:url(#radialffffffbfbfbf)"/>
<circle cx="144.373506" cy="71.980444" r="13.818182" opacity="0.691207" style="stroke:black;stroke-width:0.5;fill:url(#radialffffff666666)"/>
<circle cx="166.231477" cy="109.157348" r="13.818182" opacity="0.698953" style="stroke:black;stroke-width:0.5;fill:url(#radialffffff666666)"/>
<circle cx="74.878098" cy="107.457391" r="14.135030" opacity="0.715168" style="stroke:black;stroke-width:0.5;fill:url(#radialffffff666666)"/>
<circle cx="98.107626" cy="71.117587" r="14.431354" opacity="0.722625" style="stroke:black;stroke-width:0.5;fill:url(#radialffffff666666)"/>
<circle cx="40.000000" cy="105.654406" r="6.039783" opacity="0.731975" style="stroke:black;stroke-width:0.5;fill:url(#radialffffffbfbfbf)"/>
<circle cx="144.367066" cy="152.139219" r="14.981670" opacity="0.736274" style="stroke:black;stroke-width:0.5;fill:url(#radialffffff666666)"/>
<circle cx="82.460293" cy="40.000000" r="6.278905" opacity="0.746324" style="stroke:black;stroke-width:0.5;fill:url(#radialffffffbfbfbf)"/>
<circle cx="80.422277" cy="172.822031" r="9.020693" opacity="0.894552" style="stroke:black;stroke-width:0.5;fill:url(#radialffffffbfbfbf)"/>
<circle cx="152.036191" cy="165.574676" r="11.272727" opacity="1.000000" style="stroke:black;stroke-width:0.5;fill:url(#radialffffffbfbfbf)"/>
</svg>
</g>
</svg>
