<?xml version="1.0"?>
<svg version="1.1" id="topsvg"
xmlns="http://www.w3.org/2000/svg" xmlns:xlink="http://www.w3.org/1999/xlink"
xmlns:cml="http://www.xml-cml.org/schema" x="0" y="0" width="1024px" height="1024px" viewBox="0 0 100 100">
<title>11794 - Open Babel Depiction</title>
<rect x="0" y="0" width="100" height="100" fill="white"/>
<defs>
<radialGradient id='radialffffff666666' cx='50%' cy='50%' r='50%' fx='30%' fy='30%'>
  <stop offset=' 0%' stop-color="rgb(255,255,255)"  stop-opacity='1.0'/>
  <stop offset='100%' stop-color="rgb(102,102,102)"  stop-opacity ='1.0'/>
</radialGradient>
<radialGradient id='radialffffffbfbfbf' cx='50%' cy='50%' r='50%' fx='30%' fy='30%'>
  <stop offset=' 0%' stop-color="rgb(255,255,255)"  stop-opacity='1.0'/>
  <stop offset='100%' stop-color="rgb(191,191,191)"  stop-opacity ='1.0'/>
</radialGradient>
</defs>
<g transform="translate(0,0)">
<svg width="100" height="100" x="0" y="0" viewBox="0 0 335.774 304.421"
font-family="sans-serif" stroke="rgb(0,0,0)" stroke-width="2"  stroke-linecap="round">
<line x1="167.9" y1="170.0" x2="167.9" y2="217.9" opacity="1.0" stroke="rgb(0,0,0)"  stroke-width="1.5"/>
<line x1="128.8" y1="147.7" x2="86.8" y2="171.6" opacity="0.5" stroke="rgb(0,0,0)"  stroke-width="1.6"/>
<line x1="207.0" y1="147.7" x2="248.9" y2="171.6" opacity="0.5" stroke="rgb(0,0,0)"  stroke-width="1.6"/>
<line x1="128.8" y1="103.1" x2="87.4" y2="78.5" opacity="0.5" stroke="rgb(0,0,0)"  stroke-width="1.8"/>
<line x1="207.0" y1="103.1" x2="248.4" y2="78.5" opacity="0.6" stroke="rgb(0,0,0)"  stroke-width="1.8"/>
<line x1="167.9" y1="80.8" x2="167.9" y2="46.0" opacity="0.6" stroke="rgb(0,0,0)"  stroke-width="1.9"/>
<line x1="167.9" y1="217.9" x2="167.9" y2="229.2" opacity="0.6" stroke="rgb(0,0,0)"  stroke-width="0.9"/>
<line x1="167.9" y1="217.9" x2="195.4" y2="233.7" opacity="0.3" stroke="rgb(0,0,0)"  stroke-width="1.6"/>
<line x1="167.9" y1="217.9" x2="140.4" y2="233.7" opacity="0.5" stroke="rgb(0,0,0)"  stroke-width="1.6"/>
<line x1="86.8" y1="171.6" x2="70.7" y2="187.8" opacity="0.5" stroke="rgb(0,0,0)"  stroke-width="2.0"/>
<line x1="86.8" y1="171.6" x2="61.7" y2="151.5" opacity="0.7" stroke="rgb(0,0,0)"  stroke-width="1.4"/>
<line x1="86.8" y1="171.6" x2="88.9" y2="198.8" opacity="0.5" stroke="rgb(0,0,0)"  stroke-width="1.3"/>
<line x1="248.9" y1="171.6" x2="265.1" y2="187.8" opacity="0.4" stroke="rgb(0,0,0)"  stroke-width="2.0"/>
<line x1="248.9" y1="171.6" x2="246.9" y2="198.8" opacity="0.7" stroke="rgb(0,0,0)"  stroke-width="1.3"/>
<line x1="248.9" y1="171.6" x2="274.1" y2="151.5" opacity="0.4" stroke="rgb(0,0,0)"  stroke-width="1.4"/>
<line x1="87.4" y1="78.5" x2="71.4" y2="61.9" opacity="0.5" stroke="rgb(0,0,0)"  stroke-width="1.4"/>
<line x1="87.4" y1="78.5" x2="61.9" y2="97.0" opacity="0.5" stroke="rgb(0,0,0)"  stroke-width="2.0"/>
<line x1="87.4" y1="78.5" x2="92.5" y2="50.5" opacity="0.7" stroke="rgb(0,0,0)"  stroke-width="2.1"/>
<line x1="248.4" y1="78.5" x2="264.4" y2="61.9" opacity="0.7" stroke="rgb(0,0,0)"  stroke-width="1.4"/>
<line x1="248.4" y1="78.5" x2="243.3" y2="50.5" opacity="0.5" stroke="rgb(0,0,0)"  stroke-width="2.1"/>
<line x1="248.4" y1="78.5" x2="273.8" y2="97.0" opacity="0.7" stroke="rgb(0,0,0)"  stroke-width="2.0"/>
<line x1="167.9" y1="229.2" x2="139.4" y2="216.4" opacity="0.7" stroke="rgb(0,0,0)"  stroke-width="0.4"/>
<line x1="167.9" y1="229.2" x2="167.9" y2="264.4" opacity="0.1" stroke="rgb(0,0,0)"  stroke-width="0.4"/>
<line x1="167.9" y1="229.2" x2="196.4" y2="216.4" opacity="0.1" stroke="rgb(0,0,0)"  stroke-width="0.4"/>
<line x1="70.7" y1="187.8" x2="93.6" y2="210.0" opacity="0.1" stroke="rgb(0,0,0)"  stroke-width="2.7"/>
<line x1="70.7" y1="187.8" x2="40.0" y2="205.0" opacity="0.9" stroke="rgb(0,0,0)"  stroke-width="2.5"/>
<line x1="70.7" y1="187.8" x2="65.2" y2="161.2" opacity="0.8" stroke="rgb(0,0,0)"  stroke-width="2.8"/>
<line x1="265.1" y1="187.8" x2="270.6" y2="161.2" opacity="0.9" stroke="rgb(0,0,0)"  stroke-width="2.8"/>
<line x1="265.1" y1="187.8" x2="295.8" y2="205.0" opacity="0.9" stroke="rgb(0,0,0)"  stroke-width="2.5"/>
<line x1="265.1" y1="187.8" x2="242.1" y2="210.0" opacity="0.8" stroke="rgb(0,0,0)"  stroke-width="2.7"/>
<line x1="71.4" y1="61.9" x2="95.0" y2="40.0" opacity="0.9" stroke="rgb(0,0,0)"  stroke-width="0.8"/>
<line x1="71.4" y1="61.9" x2="41.1" y2="44.1" opacity="0.3" stroke="rgb(0,0,0)"  stroke-width="1.0"/>
<line x1="71.4" y1="61.9" x2="65.5" y2="88.3" opacity="0.3" stroke="rgb(0,0,0)"  stroke-width="0.7"/>
<line x1="264.4" y1="61.9" x2="270.3" y2="88.3" opacity="0.2" stroke="rgb(0,0,0)"  stroke-width="0.7"/>
<line x1="264.4" y1="61.9" x2="294.7" y2="44.0" opacity="0.2" stroke="rgb(0,0,0)"  stroke-width="1.0"/>
<line x1="264.4" y1="61.9" x2="240.7" y2="40.0" opacity="0.3" stroke="rgb(0,0,0)"  stroke-width="0.8"/>
<line x1="169.4" y1="172.6" x2="208.5" y2="150.3" opacity="0.5" stroke="rgb(0,0,0)"  stroke-width="1.6"/>
<line x1="166.4" y1="167.4" x2="205.5" y2="145.1" opacity="0.5" stroke="rgb(0,0,0)"  stroke-width="1.6" stroke-dasharray="5.0,5.0"/>
<line x1="210.0" y1="147.7" x2="210.0" y2="103.1" opacity="0.6" stroke="rgb(0,0,0)"  stroke-width="1.7"/>
<line x1="204.0" y1="147.7" x2="204.0" y2="103.1" opacity="0.6" stroke="rgb(0,0,0)"  stroke-width="1.7" stroke-dasharray="5.0,5.0"/>
<line x1="208.5" y1="100.5" x2="169.4" y2="78.2" opacity="0.6" stroke="rgb(0,0,0)"  stroke-width="1.8"/>
<line x1="205.5" y1="105.7" x2="166.4" y2="83.5" opacity="0.6" stroke="rgb(0,0,0)"  stroke-width="1.8" stroke-dasharray="5.0,5.0"/>
<line x1="166.4" y1="78.2" x2="127.3" y2="100.5" opacity="0.6" stroke="rgb(0,0,0)"  stroke-width="1.8"/>
<line x1="169.4" y1="83.5" x2="130.3" y2="105.7" opacity="0.6" stroke="rgb(0,0,0)"  stroke-width="1.8" stroke-dasharray="5.0,5.0"/>
<line x1="125.8" y1="103.1" x2="125.8" y2="147.7" opacity="0.6" stroke="rgb(0,0,0)"  stroke-width="1.7"/>
<line x1="131.8" y1="103.1" x2="131.8" y2="147.7" opacity="0.6" stroke="rgb(0,0,0)"  stroke-width="1.7" stroke-dasharray="5.0,5.0"/>
<line x1="127.3" y1="150.3" x2="166.4" y2="172.6" opacity="0.5" stroke="rgb(0,0,0)"  stroke-width="1.6"/>
<line x1="130.3" y1="145.1" x2="169.4" y2="167.4" opacity="0.5" stroke="rgb(0,0,0)"  stroke-width="1.6" stroke-dasharray="5.0,5.0"/>
<circle cx="196.380102" cy="216.422611" r="5.636364" opacity="0.200000" style="stroke:black;stroke-width:0.5;fill:url(#radialffffffbfbfbf)"/>
<circle cx="139.387552" cy="216.419376" r="5.636364" opacity="0.200000" style="stroke:black;stroke-width:0.5;fill:url(#radialffffffbfbfbf)"/>
<circle cx="167.883827" cy="264.421105" r="5.636364" opacity="0.301423" style="stroke:black;stroke-width:0.5;fill:url(#radialffffffbfbfbf)"/>
<circle cx="167.883827" cy="229.234288" r="13.818182" opacity="0.347089" style="stroke:black;stroke-width:0.5;fill:url(#radialffffff666666)"/>
<circle cx="65.510119" cy="88.283198" r="5.636364" opacity="0.378397" style="stroke:black;stroke-width:0.5;fill:url(#radialffffffbfbfbf)"/>
<circle cx="270.257535" cy="88.273492" r="5.636364" opacity="0.378459" style="stroke:black;stroke-width:0.5;fill:url(#radialffffffbfbfbf)"/>
<circle cx="240.748621" cy="40.000000" r="5.636364" opacity="0.449801" style="stroke:black;stroke-width:0.5;fill:url(#radialffffffbfbfbf)"/>
<circle cx="95.012563" cy="40.006471" r="5.636364" opacity="0.449801" style="stroke:black;stroke-width:0.5;fill:url(#radialffffffbfbfbf)"/>
<circle cx="71.378902" cy="61.935143" r="13.818182" opacity="0.555700" style="stroke:black;stroke-width:0.5;fill:url(#radialffffff666666)"/>
<circle cx="264.385517" cy="61.928673" r="13.818182" opacity="0.555742" style="stroke:black;stroke-width:0.5;fill:url(#radialffffff666666)"/>
<circle cx="41.090287" cy="44.053796" r="5.636364" opacity="0.582078" style="stroke:black;stroke-width:0.5;fill:url(#radialffffffbfbfbf)"/>
<circle cx="294.670897" cy="44.040855" r="5.636364" opacity="0.582138" style="stroke:black;stroke-width:0.5;fill:url(#radialffffffbfbfbf)"/>
<circle cx="246.856814" cy="198.780674" r="5.636364" opacity="0.597350" style="stroke:black;stroke-width:0.5;fill:url(#radialffffffbfbfbf)"/>
<circle cx="88.914076" cy="198.783909" r="5.636364" opacity="0.597389" style="stroke:black;stroke-width:0.5;fill:url(#radialffffffbfbfbf)"/>
<circle cx="274.075156" cy="151.526292" r="5.636364" opacity="0.642135" style="stroke:black;stroke-width:0.5;fill:url(#radialffffffbfbfbf)"/>
<circle cx="61.695733" cy="151.532763" r="5.636364" opacity="0.642153" style="stroke:black;stroke-width:0.5;fill:url(#radialffffffbfbfbf)"/>
<circle cx="167.887062" cy="217.859072" r="13.818182" opacity="0.683754" style="stroke:black;stroke-width:0.5;fill:url(#radialffffff666666)"/>
<circle cx="248.933858" cy="171.559096" r="14.361548" opacity="0.720875" style="stroke:black;stroke-width:0.5;fill:url(#radialffffff666666)"/>
<circle cx="86.837031" cy="171.562331" r="14.362195" opacity="0.720892" style="stroke:black;stroke-width:0.5;fill:url(#radialffffff666666)"/>
<circle cx="167.887062" cy="170.028812" r="14.409388" opacity="0.722075" style="stroke:black;stroke-width:0.5;fill:url(#radialffffff666666)"/>
<circle cx="128.801743" cy="147.728083" r="15.103060" opacity="0.739251" style="stroke:black;stroke-width:0.5;fill:url(#radialffffff666666)"/>
<circle cx="206.969147" cy="147.731319" r="15.103060" opacity="0.739251" style="stroke:black;stroke-width:0.5;fill:url(#radialffffff666666)"/>
<circle cx="195.370697" cy="233.718375" r="6.547564" opacity="0.762124" style="stroke:black;stroke-width:0.5;fill:url(#radialffffffbfbfbf)"/>
<circle cx="140.403428" cy="233.718375" r="6.547828" opacity="0.762139" style="stroke:black;stroke-width:0.5;fill:url(#radialffffffbfbfbf)"/>
<circle cx="128.798507" cy="103.139566" r="16.489759" opacity="0.772443" style="stroke:black;stroke-width:0.5;fill:url(#radialffffff666666)"/>
<circle cx="206.965912" cy="103.136331" r="16.489759" opacity="0.772443" style="stroke:black;stroke-width:0.5;fill:url(#radialffffff666666)"/>
<circle cx="167.880592" cy="80.845308" r="17.182786" opacity="0.788508" style="stroke:black;stroke-width:0.5;fill:url(#radialffffff666666)"/>
<circle cx="87.403204" cy="78.499735" r="17.255192" opacity="0.790168" style="stroke:black;stroke-width:0.5;fill:url(#radialffffff666666)"/>
<circle cx="248.354745" cy="78.493265" r="17.256484" opacity="0.790198" style="stroke:black;stroke-width:0.5;fill:url(#radialffffff666666)"/>
<circle cx="167.877357" cy="46.049958" r="7.437273" opacity="0.812255" style="stroke:black;stroke-width:0.5;fill:url(#radialffffffbfbfbf)"/>
<circle cx="61.948084" cy="97.028138" r="8.353880" opacity="0.860854" style="stroke:black;stroke-width:0.5;fill:url(#radialffffffbfbfbf)"/>
<circle cx="273.809864" cy="97.021667" r="8.354671" opacity="0.860895" style="stroke:black;stroke-width:0.5;fill:url(#radialffffffbfbfbf)"/>
<circle cx="92.472875" cy="50.537281" r="8.778166" opacity="0.882444" style="stroke:black;stroke-width:0.5;fill:url(#radialffffffbfbfbf)"/>
<circle cx="243.281838" cy="50.530810" r="8.778957" opacity="0.882484" style="stroke:black;stroke-width:0.5;fill:url(#radialffffffbfbfbf)"/>
<circle cx="295.774125" cy="204.989160" r="9.087745" opacity="0.897870" style="stroke:black;stroke-width:0.5;fill:url(#radialffffffbfbfbf)"/>
<circle cx="40.000000" cy="204.992396" r="9.088800" opacity="0.897922" style="stroke:black;stroke-width:0.5;fill:url(#radialffffffbfbfbf)"/>
<circle cx="265.097277" cy="187.758102" r="23.093550" opacity="0.914124" style="stroke:black;stroke-width:0.5;fill:url(#radialffffff666666)"/>
<circle cx="70.676848" cy="187.758102" r="23.095490" opacity="0.914162" style="stroke:black;stroke-width:0.5;fill:url(#radialffffff666666)"/>
<circle cx="242.133317" cy="209.994126" r="10.660953" opacity="0.972486" style="stroke:black;stroke-width:0.5;fill:url(#radialffffffbfbfbf)"/>
<circle cx="93.640808" cy="209.994126" r="10.661481" opacity="0.972510" style="stroke:black;stroke-width:0.5;fill:url(#radialffffffbfbfbf)"/>
<circle cx="270.581063" cy="161.160932" r="11.272200" opacity="0.999977" style="stroke:black;stroke-width:0.5;fill:url(#radialffffffbfbfbf)"/>
<circle cx="65.196297" cy="161.160932" r="11.272727" opacity="1.000000" style="stroke:black;stroke-width:0.5;fill:url(#radialffffffbfbfbf)"/>
</svg>
</g>
</svg>
