<?xml version="1.0"?>
<svg version="1.1" id="topsvg"
xmlns="http://www.w3.org/2000/svg" xmlns:xlink="http://www.w3.org/1999/xlink"
xmlns:cml="http://www.xml-cml.org/schema" x="0" y="0" width="200px" height="200px" viewBox="0 0 100 100">
<title>12101 - Open Babel Depiction</title>
<rect x="0" y="0" width="100" height="100" fill="white"/>
<defs>
<radialGradient id='radialffffff666666' cx='50%' cy='50%' r='50%' fx='30%' fy='30%'>
  <stop offset=' 0%' stop-color="rgb(255,255,255)"  stop-opacity='1.0'/>
  <stop offset='100%' stop-color="rgb(102,102,102)"  stop-opacity ='1.0'/>
</radialGradient>
<radialGradient id='radialffffffbfbfbf' cx='50%' cy='50%' r='50%' fx='30%' fy='30%'>
  <stop offset=' 0%' stop-color="rgb(255,255,255)"  stop-opacity='1.0'/>
  <stop offset='100%' stop-color="rgb(191,191,191)"  stop-opacity ='1.0'/>
</radialGradient>
<radialGradient id='radialffffffffcc' cx='50%' cy='50%' r='50%' fx='30%' fy='30%'>
  <stop offset=' 0%' stop-color="rgb(255,255,255)"  stop-opacity='1.0'/>
  <stop offset='100%' stop-color="rgb(255,12,12)"  stop-opacity ='1.0'/>
</radialGradient>
</defs>
<g transform="translate(0,0)">
<svg width="100" height="100" x="0" y="0" viewBox="0 0 317.646 234.212"
font-family="sans-serif" stroke="rgb(0,0,0)" stroke-width="4"  stroke-linecap="round">
<line x1="67.6" y1="54.6" x2="98.8" y2="85.5" opacity="1.0" stroke="rgb(0,0,0)"  stroke-width="1.5"/>
<line x1="67.6" y1="54.6" x2="40.0" y2="68.3" opacity="0.5" stroke="rgb(0,0,0)"  stroke-width="1.4"/>
<line x1="173.5" y1="105.5" x2="219.2" y2="93.1" opacity="0.5" stroke="rgb(0,0,0)"  stroke-width="2.1"/>
<line x1="219.2" y1="93.1" x2="244.3" y2="84.1" opacity="0.7" stroke="rgb(0,0,0)"  stroke-width="1.5"/>
<line x1="219.2" y1="93.1" x2="220.3" y2="64.4" opacity="0.5" stroke="rgb(0,0,0)"  stroke-width="2.6"/>
<line x1="219.2" y1="93.1" x2="235.5" y2="118.7" opacity="0.9" stroke="rgb(0,0,0)"  stroke-width="2.6"/>
<line x1="141.5" y1="73.8" x2="149.8" y2="40.0" opacity="0.9" stroke="rgb(0,0,0)"  stroke-width="1.9"/>
<line x1="162.6" y1="148.9" x2="187.1" y2="173.8" opacity="0.6" stroke="rgb(0,0,0)"  stroke-width="1.8"/>
<line x1="244.3" y1="84.1" x2="245.2" y2="112.7" opacity="0.6" stroke="rgb(0,0,0)"  stroke-width="0.4"/>
<line x1="244.3" y1="84.1" x2="277.6" y2="75.2" opacity="0.1" stroke="rgb(0,0,0)"  stroke-width="0.9"/>
<line x1="244.3" y1="84.1" x2="229.8" y2="57.7" opacity="0.3" stroke="rgb(0,0,0)"  stroke-width="0.4"/>
<line x1="119.8" y1="160.5" x2="111.3" y2="194.2" opacity="0.1" stroke="rgb(0,0,0)"  stroke-width="1.4"/>
<line x1="87.9" y1="128.8" x2="54.7" y2="138.3" opacity="0.5" stroke="rgb(0,0,0)"  stroke-width="1.3"/>
<line x1="140.8" y1="70.9" x2="98.0" y2="82.6" opacity="0.6" stroke="rgb(0,0,0)"  stroke-width="1.7"/>
<line x1="142.3" y1="76.7" x2="99.6" y2="88.4" opacity="0.6" stroke="rgb(0,0,0)"  stroke-width="1.7" stroke-dasharray="5.0,5.0"/>
<line x1="95.9" y1="84.7" x2="85.0" y2="128.1" opacity="0.5" stroke="rgb(0,0,0)"  stroke-width="1.5"/>
<line x1="101.7" y1="86.2" x2="90.8" y2="129.5" opacity="0.5" stroke="rgb(0,0,0)"  stroke-width="1.5" stroke-dasharray="5.0,5.0"/>
<line x1="85.8" y1="130.9" x2="117.7" y2="162.6" opacity="0.5" stroke="rgb(0,0,0)"  stroke-width="1.4"/>
<line x1="90.0" y1="126.7" x2="121.9" y2="158.4" opacity="0.5" stroke="rgb(0,0,0)"  stroke-width="1.4" stroke-dasharray="5.0,5.0"/>
<line x1="120.6" y1="163.4" x2="163.4" y2="151.7" opacity="0.5" stroke="rgb(0,0,0)"  stroke-width="1.6"/>
<line x1="119.0" y1="157.6" x2="161.8" y2="146.0" opacity="0.5" stroke="rgb(0,0,0)"  stroke-width="1.6" stroke-dasharray="5.0,5.0"/>
<line x1="165.5" y1="149.6" x2="176.4" y2="106.3" opacity="0.6" stroke="rgb(0,0,0)"  stroke-width="1.8"/>
<line x1="159.7" y1="148.1" x2="170.5" y2="104.8" opacity="0.6" stroke="rgb(0,0,0)"  stroke-width="1.8" stroke-dasharray="5.0,5.0"/>
<line x1="175.6" y1="103.4" x2="143.7" y2="71.7" opacity="0.6" stroke="rgb(0,0,0)"  stroke-width="1.9"/>
<line x1="171.3" y1="107.7" x2="139.4" y2="76.0" opacity="0.6" stroke="rgb(0,0,0)"  stroke-width="1.9" stroke-dasharray="5.0,5.0"/>
<circle cx="245.175278" cy="112.663151" r="5.636364" opacity="0.200000" style="stroke:black;stroke-width:0.5;fill:url(#radialffffffbfbfbf)"/>
<circle cx="229.772445" cy="57.675169" r="5.636364" opacity="0.200000" style="stroke:black;stroke-width:0.5;fill:url(#radialffffffbfbfbf)"/>
<circle cx="244.345745" cy="84.145963" r="13.818182" opacity="0.501456" style="stroke:black;stroke-width:0.5;fill:url(#radialffffff666666)"/>
<circle cx="277.646462" cy="75.172813" r="5.636364" opacity="0.586337" style="stroke:black;stroke-width:0.5;fill:url(#radialffffffbfbfbf)"/>
<circle cx="54.692727" cy="138.275362" r="5.636364" opacity="0.620453" style="stroke:black;stroke-width:0.5;fill:url(#radialffffffbfbfbf)"/>
<circle cx="111.336545" cy="194.212303" r="5.636364" opacity="0.657418" style="stroke:black;stroke-width:0.5;fill:url(#radialffffffbfbfbf)"/>
<circle cx="40.000000" cy="68.326751" r="5.636364" opacity="0.658216" style="stroke:black;stroke-width:0.5;fill:url(#radialffffffbfbfbf)"/>
<circle cx="87.899838" cy="128.788999" r="13.818182" opacity="0.677570" style="stroke:black;stroke-width:0.5;fill:url(#radialffffff666666)"/>
<circle cx="119.799710" cy="160.482295" r="13.818182" opacity="0.696833" style="stroke:black;stroke-width:0.5;fill:url(#radialffffff666666)"/>
<circle cx="67.636012" cy="54.550706" r="12.031724" opacity="0.708041" style="stroke:black;stroke-width:0.5;fill:url(#radialffffffffcc)"/>
<circle cx="98.767679" cy="85.466113" r="14.575652" opacity="0.726229" style="stroke:black;stroke-width:0.5;fill:url(#radialffffff666666)"/>
<circle cx="162.573879" cy="148.852705" r="16.036870" opacity="0.761762" style="stroke:black;stroke-width:0.5;fill:url(#radialffffff666666)"/>
<circle cx="187.140298" cy="173.845188" r="6.755222" opacity="0.774115" style="stroke:black;stroke-width:0.5;fill:url(#radialffffffbfbfbf)"/>
<circle cx="141.548303" cy="73.833295" r="17.194026" opacity="0.788766" style="stroke:black;stroke-width:0.5;fill:url(#radialffffff666666)"/>
<circle cx="173.451402" cy="105.529819" r="17.924635" opacity="0.805350" style="stroke:black;stroke-width:0.5;fill:url(#radialffffff666666)"/>
<circle cx="149.817803" cy="40.000000" r="7.600172" opacity="0.821102" style="stroke:black;stroke-width:0.5;fill:url(#radialffffffbfbfbf)"/>
<circle cx="219.188647" cy="93.099747" r="20.714917" opacity="0.865767" style="stroke:black;stroke-width:0.5;fill:url(#radialffffff666666)"/>
<circle cx="235.456517" cy="118.695819" r="10.933082" opacity="0.984820" style="stroke:black;stroke-width:0.5;fill:url(#radialffffffbfbfbf)"/>
<circle cx="220.260261" cy="64.446993" r="11.272727" opacity="1.000000" style="stroke:black;stroke-width:0.5;fill:url(#radialffffffbfbfbf)"/>
</svg>
</g>
</svg>
