<?xml version="1.0"?>
<svg version="1.1" id="topsvg"
xmlns="http://www.w3.org/2000/svg" xmlns:xlink="http://www.w3.org/1999/xlink"
xmlns:cml="http://www.xml-cml.org/schema" x="0" y="0" width="1024px" height="1024px" viewBox="0 0 100 100">
<title>12160 - Open Babel Depiction</title>
<rect x="0" y="0" width="100" height="100" fill="white"/>
<defs>
<radialGradient id='radialffffff666666' cx='50%' cy='50%' r='50%' fx='30%' fy='30%'>
  <stop offset=' 0%' stop-color="rgb(255,255,255)"  stop-opacity='1.0'/>
  <stop offset='100%' stop-color="rgb(102,102,102)"  stop-opacity ='1.0'/>
</radialGradient>
<radialGradient id='radialffffffbfbfbf' cx='50%' cy='50%' r='50%' fx='30%' fy='30%'>
  <stop offset=' 0%' stop-color="rgb(255,255,255)"  stop-opacity='1.0'/>
  <stop offset='100%' stop-color="rgb(191,191,191)"  stop-opacity ='1.0'/>
</radialGradient>
</defs>
<g transform="translate(0,0)">
<svg width="100" height="100" x="0" y="0" viewBox="0 0 339.583 219.362"
font-family="sans-serif" stroke="rgb(0,0,0)" stroke-width="2"  stroke-linecap="round">
<line x1="192.0" y1="109.7" x2="239.8" y2="109.7" opacity="1.0" stroke="rgb(0,0,0)"  stroke-width="2.2"/>
<line x1="239.8" y1="109.7" x2="264.8" y2="109.7" opacity="0.7" stroke="rgb(0,0,0)"  stroke-width="1.5"/>
<line x1="239.8" y1="109.7" x2="249.4" y2="81.4" opacity="0.5" stroke="rgb(0,0,0)"  stroke-width="2.6"/>
<line x1="239.8" y1="109.7" x2="249.4" y2="137.9" opacity="0.9" stroke="rgb(0,0,0)"  stroke-width="2.6"/>
<line x1="102.7" y1="109.7" x2="54.9" y2="109.7" opacity="0.9" stroke="rgb(0,0,0)"  stroke-width="1.5"/>
<line x1="169.7" y1="70.6" x2="186.7" y2="40.0" opacity="0.5" stroke="rgb(0,0,0)"  stroke-width="2.0"/>
<line x1="169.7" y1="148.7" x2="186.7" y2="179.4" opacity="0.7" stroke="rgb(0,0,0)"  stroke-width="2.0"/>
<line x1="125.0" y1="70.6" x2="108.0" y2="40.0" opacity="0.7" stroke="rgb(0,0,0)"  stroke-width="1.7"/>
<line x1="125.0" y1="148.7" x2="108.0" y2="179.4" opacity="0.6" stroke="rgb(0,0,0)"  stroke-width="1.7"/>
<line x1="264.8" y1="109.7" x2="257.1" y2="138.3" opacity="0.6" stroke="rgb(0,0,0)"  stroke-width="0.4"/>
<line x1="264.8" y1="109.7" x2="299.6" y2="109.7" opacity="0.1" stroke="rgb(0,0,0)"  stroke-width="0.8"/>
<line x1="264.8" y1="109.7" x2="257.1" y2="81.1" opacity="0.3" stroke="rgb(0,0,0)"  stroke-width="0.4"/>
<line x1="54.9" y1="109.7" x2="40.0" y2="138.2" opacity="0.1" stroke="rgb(0,0,0)"  stroke-width="1.6"/>
<line x1="54.9" y1="109.7" x2="40.0" y2="81.3" opacity="0.5" stroke="rgb(0,0,0)"  stroke-width="1.6"/>
<line x1="54.9" y1="109.7" x2="47.4" y2="109.6" opacity="0.5" stroke="rgb(0,0,0)"  stroke-width="0.7"/>
<line x1="125.0" y1="73.6" x2="169.7" y2="73.6" opacity="0.6" stroke="rgb(0,0,0)"  stroke-width="1.8"/>
<line x1="125.0" y1="67.6" x2="169.7" y2="67.6" opacity="0.6" stroke="rgb(0,0,0)"  stroke-width="1.8" stroke-dasharray="5.0,5.0"/>
<line x1="167.1" y1="72.1" x2="189.4" y2="111.2" opacity="0.7" stroke="rgb(0,0,0)"  stroke-width="2.0"/>
<line x1="172.3" y1="69.1" x2="194.6" y2="108.2" opacity="0.7" stroke="rgb(0,0,0)"  stroke-width="2.0" stroke-dasharray="5.0,5.0"/>
<line x1="189.4" y1="108.2" x2="167.1" y2="147.2" opacity="0.7" stroke="rgb(0,0,0)"  stroke-width="2.0"/>
<line x1="194.6" y1="111.2" x2="172.3" y2="150.2" opacity="0.7" stroke="rgb(0,0,0)"  stroke-width="2.0" stroke-dasharray="5.0,5.0"/>
<line x1="169.7" y1="145.7" x2="125.0" y2="145.7" opacity="0.6" stroke="rgb(0,0,0)"  stroke-width="1.8"/>
<line x1="169.7" y1="151.7" x2="125.0" y2="151.7" opacity="0.6" stroke="rgb(0,0,0)"  stroke-width="1.8" stroke-dasharray="5.0,5.0"/>
<line x1="127.6" y1="147.2" x2="105.3" y2="108.2" opacity="0.6" stroke="rgb(0,0,0)"  stroke-width="1.7"/>
<line x1="122.4" y1="150.2" x2="100.1" y2="111.2" opacity="0.6" stroke="rgb(0,0,0)"  stroke-width="1.7" stroke-dasharray="5.0,5.0"/>
<line x1="105.3" y1="111.2" x2="127.6" y2="72.1" opacity="0.6" stroke="rgb(0,0,0)"  stroke-width="1.7"/>
<line x1="100.1" y1="108.2" x2="122.4" y2="69.2" opacity="0.6" stroke="rgb(0,0,0)"  stroke-width="1.7" stroke-dasharray="5.0,5.0"/>
<circle cx="257.067785" cy="138.304299" r="5.636364" opacity="0.200000" style="stroke:black;stroke-width:0.5;fill:url(#radialffffffbfbfbf)"/>
<circle cx="257.071017" cy="81.063821" r="5.636364" opacity="0.200000" style="stroke:black;stroke-width:0.5;fill:url(#radialffffffbfbfbf)"/>
<circle cx="47.372418" cy="109.638810" r="5.636364" opacity="0.200000" style="stroke:black;stroke-width:0.5;fill:url(#radialffffffbfbfbf)"/>
<circle cx="264.763414" cy="109.684060" r="13.818182" opacity="0.488669" style="stroke:black;stroke-width:0.5;fill:url(#radialffffff666666)"/>
<circle cx="299.582819" cy="109.687292" r="5.636364" opacity="0.562261" style="stroke:black;stroke-width:0.5;fill:url(#radialffffffbfbfbf)"/>
<circle cx="54.922602" cy="109.690524" r="13.818182" opacity="0.673614" style="stroke:black;stroke-width:0.5;fill:url(#radialffffff666666)"/>
<circle cx="102.680101" cy="109.687292" r="14.755773" opacity="0.730702" style="stroke:black;stroke-width:0.5;fill:url(#radialffffff666666)"/>
<circle cx="107.974279" cy="40.016160" r="6.107334" opacity="0.736057" style="stroke:black;stroke-width:0.5;fill:url(#radialffffffbfbfbf)"/>
<circle cx="107.993672" cy="179.361655" r="6.107783" opacity="0.736084" style="stroke:black;stroke-width:0.5;fill:url(#radialffffffbfbfbf)"/>
<circle cx="125.010674" cy="70.640301" r="15.785912" opacity="0.755778" style="stroke:black;stroke-width:0.5;fill:url(#radialffffff666666)"/>
<circle cx="125.023603" cy="148.731051" r="15.787014" opacity="0.755805" style="stroke:black;stroke-width:0.5;fill:url(#radialffffff666666)"/>
<circle cx="40.016160" cy="138.175015" r="7.176454" opacity="0.797885" style="stroke:black;stroke-width:0.5;fill:url(#radialffffffbfbfbf)"/>
<circle cx="40.000000" cy="81.264211" r="7.189487" opacity="0.798609" style="stroke:black;stroke-width:0.5;fill:url(#radialffffffbfbfbf)"/>
<circle cx="169.684750" cy="70.637069" r="17.848393" opacity="0.803635" style="stroke:black;stroke-width:0.5;fill:url(#radialffffff666666)"/>
<circle cx="169.700911" cy="148.727819" r="17.849495" opacity="0.803660" style="stroke:black;stroke-width:0.5;fill:url(#radialffffff666666)"/>
<circle cx="186.724377" cy="40.000000" r="7.590351" opacity="0.820571" style="stroke:black;stroke-width:0.5;fill:url(#radialffffffbfbfbf)"/>
<circle cx="186.747002" cy="179.361655" r="7.591250" opacity="0.820620" style="stroke:black;stroke-width:0.5;fill:url(#radialffffffbfbfbf)"/>
<circle cx="192.031484" cy="109.677596" r="18.879634" opacity="0.826526" style="stroke:black;stroke-width:0.5;fill:url(#radialffffff666666)"/>
<circle cx="239.801911" cy="109.684060" r="21.085342" opacity="0.873474" style="stroke:black;stroke-width:0.5;fill:url(#radialffffff666666)"/>
<circle cx="249.359229" cy="81.448441" r="11.272278" opacity="0.999980" style="stroke:black;stroke-width:0.5;fill:url(#radialffffffbfbfbf)"/>
<circle cx="249.359229" cy="137.922911" r="11.272727" opacity="1.000000" style="stroke:black;stroke-width:0.5;fill:url(#radialffffffbfbfbf)"/>
</svg>
</g>
</svg>
