<?xml version="1.0"?>
<svg version="1.1" id="topsvg"
xmlns="http://www.w3.org/2000/svg" xmlns:xlink="http://www.w3.org/1999/xlink"
xmlns:cml="http://www.xml-cml.org/schema" x="0" y="0" width="1024px" height="1024px" viewBox="0 0 100 100">
<title>12243 - Open Babel Depiction</title>
<rect x="0" y="0" width="100" height="100" fill="white"/>
<defs>
<radialGradient id='radialffffff666666' cx='50%' cy='50%' r='50%' fx='30%' fy='30%'>
  <stop offset=' 0%' stop-color="rgb(255,255,255)"  stop-opacity='1.0'/>
  <stop offset='100%' stop-color="rgb(102,102,102)"  stop-opacity ='1.0'/>
</radialGradient>
<radialGradient id='radialffffffbfbfbf' cx='50%' cy='50%' r='50%' fx='30%' fy='30%'>
  <stop offset=' 0%' stop-color="rgb(255,255,255)"  stop-opacity='1.0'/>
  <stop offset='100%' stop-color="rgb(191,191,191)"  stop-opacity ='1.0'/>
</radialGradient>
</defs>
<g transform="translate(0,0)">
<svg width="100" height="100" x="0" y="0" viewBox="0 0 291.48 203.78"
font-family="sans-serif" stroke="rgb(0,0,0)" stroke-width="2"  stroke-linecap="round">
<line x1="191.5" y1="109.5" x2="146.6" y2="127.8" opacity="1.0" stroke="rgb(0,0,0)"  stroke-width="2.0"/>
<line x1="191.5" y1="109.5" x2="218.5" y2="99.9" opacity="0.7" stroke="rgb(0,0,0)"  stroke-width="1.5"/>
<line x1="191.5" y1="109.5" x2="209.0" y2="134.0" opacity="0.5" stroke="rgb(0,0,0)"  stroke-width="2.6"/>
<line x1="191.5" y1="109.5" x2="189.0" y2="79.7" opacity="0.9" stroke="rgb(0,0,0)"  stroke-width="2.6"/>
<line x1="110.4" y1="102.6" x2="148.2" y2="125.2" opacity="0.9" stroke="rgb(0,0,0)"  stroke-width="1.7"/>
<line x1="107.3" y1="107.7" x2="145.1" y2="130.4" opacity="0.9" stroke="rgb(0,0,0)"  stroke-width="1.7"/>
<line x1="108.9" y1="105.1" x2="64.9" y2="125.6" opacity="0.6" stroke="rgb(0,0,0)"  stroke-width="1.4"/>
<line x1="108.9" y1="105.1" x2="108.4" y2="55.3" opacity="0.5" stroke="rgb(0,0,0)"  stroke-width="1.6"/>
<line x1="146.6" y1="127.8" x2="145.3" y2="163.8" opacity="0.5" stroke="rgb(0,0,0)"  stroke-width="1.8"/>
<line x1="218.5" y1="99.9" x2="251.5" y2="87.7" opacity="0.6" stroke="rgb(0,0,0)"  stroke-width="0.9"/>
<line x1="218.5" y1="99.9" x2="222.8" y2="129.9" opacity="0.3" stroke="rgb(0,0,0)"  stroke-width="0.4"/>
<line x1="218.5" y1="99.9" x2="202.6" y2="74.7" opacity="0.1" stroke="rgb(0,0,0)"  stroke-width="0.4"/>
<line x1="64.9" y1="125.6" x2="40.0" y2="116.7" opacity="0.1" stroke="rgb(0,0,0)"  stroke-width="1.6"/>
<line x1="64.9" y1="125.6" x2="53.5" y2="114.0" opacity="0.5" stroke="rgb(0,0,0)"  stroke-width="0.6"/>
<line x1="64.9" y1="125.6" x2="66.9" y2="161.8" opacity="0.2" stroke="rgb(0,0,0)"  stroke-width="1.1"/>
<line x1="108.4" y1="55.3" x2="141.1" y2="40.0" opacity="0.4" stroke="rgb(0,0,0)"  stroke-width="1.7"/>
<line x1="108.4" y1="55.3" x2="88.3" y2="44.5" opacity="0.6" stroke="rgb(0,0,0)"  stroke-width="2.2"/>
<line x1="108.4" y1="55.3" x2="93.5" y2="41.6" opacity="0.7" stroke="rgb(0,0,0)"  stroke-width="1.1"/>
<circle cx="53.527488" cy="114.046420" r="5.636364" opacity="0.200000" style="stroke:black;stroke-width:0.5;fill:url(#radialffffffbfbfbf)"/>
<circle cx="202.631575" cy="74.650926" r="5.636364" opacity="0.200000" style="stroke:black;stroke-width:0.5;fill:url(#radialffffffbfbfbf)"/>
<circle cx="222.843234" cy="129.861646" r="5.636364" opacity="0.200000" style="stroke:black;stroke-width:0.5;fill:url(#radialffffffbfbfbf)"/>
<circle cx="93.513152" cy="41.584838" r="5.636364" opacity="0.440915" style="stroke:black;stroke-width:0.5;fill:url(#radialffffffbfbfbf)"/>
<circle cx="218.523058" cy="99.905553" r="13.818182" opacity="0.503682" style="stroke:black;stroke-width:0.5;fill:url(#radialffffff666666)"/>
<circle cx="251.479733" cy="87.740761" r="5.636364" opacity="0.602752" style="stroke:black;stroke-width:0.5;fill:url(#radialffffffbfbfbf)"/>
<circle cx="66.922354" cy="161.823652" r="5.636364" opacity="0.613108" style="stroke:black;stroke-width:0.5;fill:url(#radialffffffbfbfbf)"/>
<circle cx="64.886600" cy="125.597834" r="13.818182" opacity="0.624728" style="stroke:black;stroke-width:0.5;fill:url(#radialffffff666666)"/>
<circle cx="108.860883" cy="105.140824" r="14.560929" opacity="0.725862" style="stroke:black;stroke-width:0.5;fill:url(#radialffffff666666)"/>
<circle cx="108.390074" cy="55.288051" r="15.397827" opacity="0.746430" style="stroke:black;stroke-width:0.5;fill:url(#radialffffff666666)"/>
<circle cx="145.328737" cy="163.779833" r="6.538963" opacity="0.761623" style="stroke:black;stroke-width:0.5;fill:url(#radialffffffbfbfbf)"/>
<circle cx="141.054979" cy="40.000000" r="6.705155" opacity="0.771241" style="stroke:black;stroke-width:0.5;fill:url(#radialffffffbfbfbf)"/>
<circle cx="146.628437" cy="127.802682" r="16.980226" opacity="0.783847" style="stroke:black;stroke-width:0.5;fill:url(#radialffffff666666)"/>
<circle cx="40.000000" cy="116.702185" r="7.769679" opacity="0.830208" style="stroke:black;stroke-width:0.5;fill:url(#radialffffffbfbfbf)"/>
<circle cx="191.481344" cy="109.474262" r="20.779304" opacity="0.867112" style="stroke:black;stroke-width:0.5;fill:url(#radialffffff666666)"/>
<circle cx="88.340877" cy="44.542318" r="10.114776" opacity="0.947248" style="stroke:black;stroke-width:0.5;fill:url(#radialffffffbfbfbf)"/>
<circle cx="208.994137" cy="134.012728" r="11.230506" opacity="0.998126" style="stroke:black;stroke-width:0.5;fill:url(#radialffffffbfbfbf)"/>
<circle cx="189.031145" cy="79.727050" r="11.272727" opacity="1.000000" style="stroke:black;stroke-width:0.5;fill:url(#radialffffffbfbfbf)"/>
</svg>
</g>
</svg>
