<?xml version="1.0"?>
<svg version="1.1" id="topsvg"
xmlns="http://www.w3.org/2000/svg" xmlns:xlink="http://www.w3.org/1999/xlink"
xmlns:cml="http://www.xml-cml.org/schema" x="0" y="0" width="1024px" height="1024px" viewBox="0 0 100 100">
<title>12245 - Open Babel Depiction</title>
<rect x="0" y="0" width="100" height="100" fill="white"/>
<defs>
<radialGradient id='radialffffff1eef1e' cx='50%' cy='50%' r='50%' fx='30%' fy='30%'>
  <stop offset=' 0%' stop-color="rgb(255,255,255)"  stop-opacity='1.0'/>
  <stop offset='100%' stop-color="rgb(30,239,30)"  stop-opacity ='1.0'/>
</radialGradient>
<radialGradient id='radialffffff666666' cx='50%' cy='50%' r='50%' fx='30%' fy='30%'>
  <stop offset=' 0%' stop-color="rgb(255,255,255)"  stop-opacity='1.0'/>
  <stop offset='100%' stop-color="rgb(102,102,102)"  stop-opacity ='1.0'/>
</radialGradient>
<radialGradient id='radialffffffbfbfbf' cx='50%' cy='50%' r='50%' fx='30%' fy='30%'>
  <stop offset=' 0%' stop-color="rgb(255,255,255)"  stop-opacity='1.0'/>
  <stop offset='100%' stop-color="rgb(191,191,191)"  stop-opacity ='1.0'/>
</radialGradient>
</defs>
<g transform="translate(0,0)">
<svg width="100" height="100" x="0" y="0" viewBox="0 0 296.256 196.296"
font-family="sans-serif" stroke="rgb(0,0,0)" stroke-width="2"  stroke-linecap="round">
<line x1="203.2" y1="40.0" x2="189.9" y2="93.0" opacity="1.0" stroke="rgb(0,0,0)"  stroke-width="1.5"/>
<line x1="145.9" y1="106.8" x2="189.9" y2="93.0" opacity="0.5" stroke="rgb(0,0,0)"  stroke-width="1.5"/>
<line x1="145.9" y1="106.8" x2="109.0" y2="78.4" opacity="0.5" stroke="rgb(0,0,0)"  stroke-width="1.5"/>
<line x1="145.9" y1="106.8" x2="146.3" y2="107.1" opacity="0.5" stroke="rgb(0,0,0)"  stroke-width="2.4"/>
<line x1="145.9" y1="106.8" x2="139.7" y2="140.0" opacity="0.8" stroke="rgb(0,0,0)"  stroke-width="1.6"/>
<line x1="189.9" y1="93.0" x2="225.0" y2="123.7" opacity="0.5" stroke="rgb(0,0,0)"  stroke-width="1.5"/>
<line x1="189.1" y1="93.3" x2="190.4" y2="92.3" opacity="0.5" stroke="rgb(0,0,0)"  stroke-width="1.0"/>
<line x1="188.5" y1="93.5" x2="190.8" y2="91.8" opacity="0.5" stroke="rgb(0,0,0)"  stroke-width="1.0"/>
<line x1="187.8" y1="93.7" x2="191.2" y2="91.2" opacity="0.5" stroke="rgb(0,0,0)"  stroke-width="1.0"/>
<line x1="187.2" y1="93.9" x2="191.6" y2="90.7" opacity="0.5" stroke="rgb(0,0,0)"  stroke-width="1.0"/>
<line x1="186.6" y1="94.2" x2="192.0" y2="90.2" opacity="0.5" stroke="rgb(0,0,0)"  stroke-width="1.0"/>
<line x1="185.9" y1="94.4" x2="192.4" y2="89.7" opacity="0.5" stroke="rgb(0,0,0)"  stroke-width="1.0"/>
<line x1="109.0" y1="78.4" x2="65.9" y2="94.9" opacity="0.5" stroke="rgb(0,0,0)"  stroke-width="1.5"/>
<line x1="109.0" y1="78.4" x2="108.8" y2="77.4" opacity="0.5" stroke="rgb(0,0,0)"  stroke-width="0.7"/>
<line x1="109.0" y1="78.4" x2="113.0" y2="45.4" opacity="0.2" stroke="rgb(0,0,0)"  stroke-width="1.5"/>
<line x1="225.0" y1="123.7" x2="256.3" y2="114.1" opacity="0.5" stroke="rgb(0,0,0)"  stroke-width="1.5"/>
<line x1="225.0" y1="123.7" x2="227.4" y2="124.9" opacity="0.5" stroke="rgb(0,0,0)"  stroke-width="2.3"/>
<line x1="225.0" y1="123.7" x2="218.4" y2="156.3" opacity="0.8" stroke="rgb(0,0,0)"  stroke-width="1.5"/>
<line x1="65.9" y1="94.9" x2="40.0" y2="74.2" opacity="0.5" stroke="rgb(0,0,0)"  stroke-width="1.6"/>
<line x1="65.9" y1="94.9" x2="59.9" y2="127.5" opacity="0.5" stroke="rgb(0,0,0)"  stroke-width="1.6"/>
<line x1="65.9" y1="94.9" x2="64.7" y2="95.5" opacity="0.5" stroke="rgb(0,0,0)"  stroke-width="2.4"/>
<circle cx="189.165819" cy="92.024891" r="5.636364" opacity="0.200000" style="stroke:black;stroke-width:0.5;fill:url(#radialffffffbfbfbf)"/>
<circle cx="108.838361" cy="77.418149" r="5.636364" opacity="0.200000" style="stroke:black;stroke-width:0.5;fill:url(#radialffffffbfbfbf)"/>
<circle cx="189.868251" cy="92.977505" r="13.818182" opacity="0.633388" style="stroke:black;stroke-width:0.5;fill:url(#radialffffff666666)"/>
<circle cx="109.024393" cy="78.393215" r="13.818182" opacity="0.647295" style="stroke:black;stroke-width:0.5;fill:url(#radialffffff666666)"/>
<circle cx="256.256118" cy="114.130659" r="5.636364" opacity="0.649019" style="stroke:black;stroke-width:0.5;fill:url(#radialffffffbfbfbf)"/>
<circle cx="218.401755" cy="156.295839" r="5.636364" opacity="0.661298" style="stroke:black;stroke-width:0.5;fill:url(#radialffffffbfbfbf)"/>
<circle cx="59.860550" cy="127.483286" r="5.636364" opacity="0.681816" style="stroke:black;stroke-width:0.5;fill:url(#radialffffffbfbfbf)"/>
<circle cx="40.000000" cy="74.239563" r="5.636364" opacity="0.683588" style="stroke:black;stroke-width:0.5;fill:url(#radialffffffbfbfbf)"/>
<circle cx="139.713305" cy="139.979524" r="5.636364" opacity="0.693884" style="stroke:black;stroke-width:0.5;fill:url(#radialffffffbfbfbf)"/>
<circle cx="113.040125" cy="45.401351" r="6.186016" opacity="0.740783" style="stroke:black;stroke-width:0.5;fill:url(#radialffffffbfbfbf)"/>
<circle cx="224.980242" cy="123.724151" r="15.685285" opacity="0.753366" style="stroke:black;stroke-width:0.5;fill:url(#radialffffff666666)"/>
<circle cx="145.894068" cy="106.846532" r="16.518822" opacity="0.773124" style="stroke:black;stroke-width:0.5;fill:url(#radialffffff666666)"/>
<circle cx="65.906600" cy="94.946881" r="16.551232" opacity="0.773882" style="stroke:black;stroke-width:0.5;fill:url(#radialffffff666666)"/>
<circle cx="203.159938" cy="40.000000" r="22.371172" opacity="0.776624" style="stroke:black;stroke-width:0.5;fill:url(#radialffffff1eef1e)"/>
<circle cx="227.430736" cy="124.869212" r="10.910424" opacity="0.983799" style="stroke:black;stroke-width:0.5;fill:url(#radialffffffbfbfbf)"/>
<circle cx="64.684560" cy="95.450451" r="11.270249" opacity="0.999890" style="stroke:black;stroke-width:0.5;fill:url(#radialffffffbfbfbf)"/>
<circle cx="146.311037" cy="107.093506" r="11.272727" opacity="1.000000" style="stroke:black;stroke-width:0.5;fill:url(#radialffffffbfbfbf)"/>
</svg>
</g>
</svg>
