<?xml version="1.0"?>
<svg version="1.1" id="topsvg"
xmlns="http://www.w3.org/2000/svg" xmlns:xlink="http://www.w3.org/1999/xlink"
xmlns:cml="http://www.xml-cml.org/schema" x="0" y="0" width="1024px" height="1024px" viewBox="0 0 100 100">
<title>12309 - Open Babel Depiction</title>
<rect x="0" y="0" width="100" height="100" fill="white"/>
<defs>
<radialGradient id='radialffffff666666' cx='50%' cy='50%' r='50%' fx='30%' fy='30%'>
  <stop offset=' 0%' stop-color="rgb(255,255,255)"  stop-opacity='1.0'/>
  <stop offset='100%' stop-color="rgb(102,102,102)"  stop-opacity ='1.0'/>
</radialGradient>
<radialGradient id='radialffffffbfbfbf' cx='50%' cy='50%' r='50%' fx='30%' fy='30%'>
  <stop offset=' 0%' stop-color="rgb(255,255,255)"  stop-opacity='1.0'/>
  <stop offset='100%' stop-color="rgb(191,191,191)"  stop-opacity ='1.0'/>
</radialGradient>
</defs>
<g transform="translate(0,0)">
<svg width="100" height="100" x="0" y="0" viewBox="0 0 300.88 160.704"
font-family="sans-serif" stroke="rgb(0,0,0)" stroke-width="2"  stroke-linecap="round">
<line x1="110.9" y1="99.2" x2="144.3" y2="61.0" opacity="1.0" stroke="rgb(0,0,0)"  stroke-width="1.5"/>
<line x1="110.9" y1="99.2" x2="63.4" y2="82.1" opacity="0.5" stroke="rgb(0,0,0)"  stroke-width="1.5"/>
<line x1="110.9" y1="99.2" x2="115.7" y2="119.9" opacity="0.5" stroke="rgb(0,0,0)"  stroke-width="2.3"/>
<line x1="110.9" y1="99.2" x2="116.3" y2="120.7" opacity="0.8" stroke="rgb(0,0,0)"  stroke-width="0.8"/>
<line x1="144.3" y1="61.0" x2="190.2" y2="77.8" opacity="0.3" stroke="rgb(0,0,0)"  stroke-width="1.5"/>
<line x1="144.3" y1="61.0" x2="139.2" y2="40.0" opacity="0.5" stroke="rgb(0,0,0)"  stroke-width="2.2"/>
<line x1="144.3" y1="61.0" x2="139.0" y2="40.1" opacity="0.7" stroke="rgb(0,0,0)"  stroke-width="0.8"/>
<line x1="63.4" y1="82.1" x2="57.1" y2="62.4" opacity="0.3" stroke="rgb(0,0,0)"  stroke-width="0.7"/>
<line x1="63.4" y1="82.1" x2="40.0" y2="110.0" opacity="0.2" stroke="rgb(0,0,0)"  stroke-width="1.5"/>
<line x1="63.4" y1="82.1" x2="56.4" y2="61.4" opacity="0.5" stroke="rgb(0,0,0)"  stroke-width="2.2"/>
<line x1="190.2" y1="77.8" x2="227.6" y2="91.4" opacity="0.7" stroke="rgb(0,0,0)"  stroke-width="1.5"/>
<line x1="191.6" y1="73.9" x2="229.1" y2="87.5" opacity="0.7" stroke="rgb(0,0,0)"  stroke-width="1.5"/>
<line x1="188.7" y1="81.8" x2="226.2" y2="95.3" opacity="0.7" stroke="rgb(0,0,0)"  stroke-width="1.5"/>
<line x1="227.6" y1="91.4" x2="260.9" y2="103.5" opacity="0.5" stroke="rgb(0,0,0)"  stroke-width="1.5"/>
<circle cx="57.099854" cy="62.370288" r="5.636364" opacity="0.200000" style="stroke:black;stroke-width:0.5;fill:url(#radialffffffbfbfbf)"/>
<circle cx="138.979226" cy="40.059778" r="5.636364" opacity="0.200000" style="stroke:black;stroke-width:0.5;fill:url(#radialffffffbfbfbf)"/>
<circle cx="116.323332" cy="120.703737" r="5.636364" opacity="0.200000" style="stroke:black;stroke-width:0.5;fill:url(#radialffffffbfbfbf)"/>
<circle cx="260.880028" cy="103.461080" r="5.636364" opacity="0.703903" style="stroke:black;stroke-width:0.5;fill:url(#radialffffffbfbfbf)"/>
<circle cx="63.356627" cy="82.143551" r="13.818182" opacity="0.703982" style="stroke:black;stroke-width:0.5;fill:url(#radialffffff666666)"/>
<circle cx="40.000000" cy="109.996818" r="5.636364" opacity="0.706054" style="stroke:black;stroke-width:0.5;fill:url(#radialffffffbfbfbf)"/>
<circle cx="227.633449" cy="91.399191" r="13.818182" opacity="0.706093" style="stroke:black;stroke-width:0.5;fill:url(#radialffffff666666)"/>
<circle cx="190.152589" cy="77.806318" r="13.876069" opacity="0.708586" style="stroke:black;stroke-width:0.5;fill:url(#radialffffff666666)"/>
<circle cx="144.329365" cy="61.038565" r="13.985749" opacity="0.711381" style="stroke:black;stroke-width:0.5;fill:url(#radialffffff666666)"/>
<circle cx="110.886847" cy="99.176984" r="14.064962" opacity="0.713393" style="stroke:black;stroke-width:0.5;fill:url(#radialffffff666666)"/>
<circle cx="56.448937" cy="61.440407" r="11.026668" opacity="0.989026" style="stroke:black;stroke-width:0.5;fill:url(#radialffffffbfbfbf)"/>
<circle cx="139.208376" cy="40.000000" r="11.181387" opacity="0.995940" style="stroke:black;stroke-width:0.5;fill:url(#radialffffffbfbfbf)"/>
<circle cx="115.715588" cy="119.883449" r="11.272727" opacity="1.000000" style="stroke:black;stroke-width:0.5;fill:url(#radialffffffbfbfbf)"/>
</svg>
</g>
</svg>
