<?xml version="1.0"?>
<svg version="1.1" id="topsvg"
xmlns="http://www.w3.org/2000/svg" xmlns:xlink="http://www.w3.org/1999/xlink"
xmlns:cml="http://www.xml-cml.org/schema" x="0" y="0" width="1024px" height="1024px" viewBox="0 0 100 100">
<title>12350 - Open Babel Depiction</title>
<rect x="0" y="0" width="100" height="100" fill="white"/>
<defs>
<radialGradient id='radialffffff666666' cx='50%' cy='50%' r='50%' fx='30%' fy='30%'>
  <stop offset=' 0%' stop-color="rgb(255,255,255)"  stop-opacity='1.0'/>
  <stop offset='100%' stop-color="rgb(102,102,102)"  stop-opacity ='1.0'/>
</radialGradient>
<radialGradient id='radialffffffbfbfbf' cx='50%' cy='50%' r='50%' fx='30%' fy='30%'>
  <stop offset=' 0%' stop-color="rgb(255,255,255)"  stop-opacity='1.0'/>
  <stop offset='100%' stop-color="rgb(191,191,191)"  stop-opacity ='1.0'/>
</radialGradient>
</defs>
<g transform="translate(0,0)">
<svg width="100" height="100" x="0" y="0" viewBox="0 0 380.212 167.376"
font-family="sans-serif" stroke="rgb(0,0,0)" stroke-width="2"  stroke-linecap="round">
<line x1="148.4" y1="72.3" x2="193.3" y2="95.0" opacity="1.0" stroke="rgb(0,0,0)"  stroke-width="1.5"/>
<line x1="148.4" y1="72.3" x2="111.0" y2="105.7" opacity="0.5" stroke="rgb(0,0,0)"  stroke-width="1.5"/>
<line x1="148.4" y1="72.3" x2="145.8" y2="51.9" opacity="0.5" stroke="rgb(0,0,0)"  stroke-width="2.3"/>
<line x1="148.4" y1="72.3" x2="145.5" y2="50.2" opacity="0.8" stroke="rgb(0,0,0)"  stroke-width="0.8"/>
<line x1="193.3" y1="95.0" x2="230.8" y2="61.5" opacity="0.3" stroke="rgb(0,0,0)"  stroke-width="1.5"/>
<line x1="193.3" y1="95.0" x2="195.6" y2="116.1" opacity="0.5" stroke="rgb(0,0,0)"  stroke-width="0.7"/>
<line x1="193.3" y1="95.0" x2="196.4" y2="116.7" opacity="0.2" stroke="rgb(0,0,0)"  stroke-width="2.2"/>
<line x1="111.0" y1="105.7" x2="66.3" y2="83.2" opacity="0.7" stroke="rgb(0,0,0)"  stroke-width="1.5"/>
<line x1="111.0" y1="105.7" x2="113.2" y2="127.4" opacity="0.5" stroke="rgb(0,0,0)"  stroke-width="2.2"/>
<line x1="111.0" y1="105.7" x2="113.8" y2="126.5" opacity="0.7" stroke="rgb(0,0,0)"  stroke-width="0.7"/>
<line x1="230.8" y1="61.5" x2="273.8" y2="83.5" opacity="0.2" stroke="rgb(0,0,0)"  stroke-width="1.5"/>
<line x1="230.8" y1="61.5" x2="228.1" y2="40.0" opacity="0.5" stroke="rgb(0,0,0)"  stroke-width="2.2"/>
<line x1="230.8" y1="61.5" x2="228.2" y2="40.5" opacity="0.7" stroke="rgb(0,0,0)"  stroke-width="0.7"/>
<line x1="66.3" y1="83.2" x2="40.0" y2="107.8" opacity="0.2" stroke="rgb(0,0,0)"  stroke-width="1.5"/>
<line x1="66.3" y1="83.2" x2="62.6" y2="62.2" opacity="0.5" stroke="rgb(0,0,0)"  stroke-width="0.7"/>
<line x1="66.3" y1="83.2" x2="62.0" y2="62.9" opacity="0.2" stroke="rgb(0,0,0)"  stroke-width="2.2"/>
<line x1="273.8" y1="83.5" x2="309.0" y2="101.3" opacity="0.7" stroke="rgb(0,0,0)"  stroke-width="1.5"/>
<line x1="275.7" y1="79.7" x2="310.9" y2="97.6" opacity="0.7" stroke="rgb(0,0,0)"  stroke-width="1.5"/>
<line x1="271.9" y1="87.2" x2="307.1" y2="105.1" opacity="0.7" stroke="rgb(0,0,0)"  stroke-width="1.5"/>
<line x1="309.0" y1="101.3" x2="340.2" y2="117.2" opacity="0.5" stroke="rgb(0,0,0)"  stroke-width="1.5"/>
<circle cx="228.175618" cy="40.486573" r="5.636364" opacity="0.200000" style="stroke:black;stroke-width:0.5;fill:url(#radialffffffbfbfbf)"/>
<circle cx="113.761870" cy="126.537705" r="5.636364" opacity="0.200000" style="stroke:black;stroke-width:0.5;fill:url(#radialffffffbfbfbf)"/>
<circle cx="195.634390" cy="116.056655" r="5.636364" opacity="0.200000" style="stroke:black;stroke-width:0.5;fill:url(#radialffffffbfbfbf)"/>
<circle cx="62.599354" cy="62.171958" r="5.636364" opacity="0.200000" style="stroke:black;stroke-width:0.5;fill:url(#radialffffffbfbfbf)"/>
<circle cx="145.523924" cy="50.211462" r="5.636364" opacity="0.200000" style="stroke:black;stroke-width:0.5;fill:url(#radialffffffbfbfbf)"/>
<circle cx="40.000000" cy="107.752033" r="5.636364" opacity="0.692396" style="stroke:black;stroke-width:0.5;fill:url(#radialffffffbfbfbf)"/>
<circle cx="230.766292" cy="61.507851" r="13.818182" opacity="0.697367" style="stroke:black;stroke-width:0.5;fill:url(#radialffffff666666)"/>
<circle cx="66.324269" cy="83.222825" r="13.818182" opacity="0.699212" style="stroke:black;stroke-width:0.5;fill:url(#radialffffff666666)"/>
<circle cx="193.287003" cy="94.989349" r="13.818182" opacity="0.700348" style="stroke:black;stroke-width:0.5;fill:url(#radialffffff666666)"/>
<circle cx="273.778707" cy="83.492413" r="13.818182" opacity="0.701013" style="stroke:black;stroke-width:0.5;fill:url(#radialffffff666666)"/>
<circle cx="110.954211" cy="105.726837" r="13.818182" opacity="0.701326" style="stroke:black;stroke-width:0.5;fill:url(#radialffffff666666)"/>
<circle cx="308.986225" cy="101.331239" r="13.818182" opacity="0.704251" style="stroke:black;stroke-width:0.5;fill:url(#radialffffff666666)"/>
<circle cx="340.212390" cy="117.164595" r="5.636364" opacity="0.707087" style="stroke:black;stroke-width:0.5;fill:url(#radialffffffbfbfbf)"/>
<circle cx="148.430212" cy="72.265065" r="13.985615" opacity="0.711378" style="stroke:black;stroke-width:0.5;fill:url(#radialffffff666666)"/>
<circle cx="228.119728" cy="40.000000" r="10.896331" opacity="0.983163" style="stroke:black;stroke-width:0.5;fill:url(#radialffffffbfbfbf)"/>
<circle cx="196.403702" cy="116.661584" r="10.922907" opacity="0.984362" style="stroke:black;stroke-width:0.5;fill:url(#radialffffffbfbfbf)"/>
<circle cx="113.219407" cy="127.376057" r="10.944539" opacity="0.985336" style="stroke:black;stroke-width:0.5;fill:url(#radialffffffbfbfbf)"/>
<circle cx="62.014151" cy="62.895243" r="11.035394" opacity="0.989417" style="stroke:black;stroke-width:0.5;fill:url(#radialffffffbfbfbf)"/>
<circle cx="145.783648" cy="51.868441" r="11.272727" opacity="1.000000" style="stroke:black;stroke-width:0.5;fill:url(#radialffffffbfbfbf)"/>
</svg>
</g>
</svg>
