<?xml version="1.0"?>
<svg version="1.1" id="topsvg"
xmlns="http://www.w3.org/2000/svg" xmlns:xlink="http://www.w3.org/1999/xlink"
xmlns:cml="http://www.xml-cml.org/schema" x="0" y="0" width="1024px" height="1024px" viewBox="0 0 100 100">
<title>12386 - Open Babel Depiction</title>
<rect x="0" y="0" width="100" height="100" fill="white"/>
<defs>
<radialGradient id='radialffffff666666' cx='50%' cy='50%' r='50%' fx='30%' fy='30%'>
  <stop offset=' 0%' stop-color="rgb(255,255,255)"  stop-opacity='1.0'/>
  <stop offset='100%' stop-color="rgb(102,102,102)"  stop-opacity ='1.0'/>
</radialGradient>
<radialGradient id='radialffffffb2b20' cx='50%' cy='50%' r='50%' fx='30%' fy='30%'>
  <stop offset=' 0%' stop-color="rgb(255,255,255)"  stop-opacity='1.0'/>
  <stop offset='100%' stop-color="rgb(178,178,0)"  stop-opacity ='1.0'/>
</radialGradient>
<radialGradient id='radialffffffbfbfbf' cx='50%' cy='50%' r='50%' fx='30%' fy='30%'>
  <stop offset=' 0%' stop-color="rgb(255,255,255)"  stop-opacity='1.0'/>
  <stop offset='100%' stop-color="rgb(191,191,191)"  stop-opacity ='1.0'/>
</radialGradient>
</defs>
<g transform="translate(0,0)">
<svg width="100" height="100" x="0" y="0" viewBox="0 0 417.162 198.148"
font-family="sans-serif" stroke="rgb(0,0,0)" stroke-width="2"  stroke-linecap="round">
<line x1="218.6" y1="88.7" x2="198.6" y2="88.3" opacity="1.0" stroke="rgb(0,0,0)"  stroke-width="1.5"/>
<line x1="218.6" y1="88.7" x2="259.5" y2="128.0" opacity="0.5" stroke="rgb(0,0,0)"  stroke-width="0.8"/>
<line x1="198.6" y1="88.3" x2="157.8" y2="127.4" opacity="0.3" stroke="rgb(0,0,0)"  stroke-width="2.2"/>
<line x1="294.8" y1="116.9" x2="318.0" y2="76.6" opacity="0.7" stroke="rgb(0,0,0)"  stroke-width="1.4"/>
<line x1="294.8" y1="116.9" x2="259.5" y2="128.0" opacity="0.5" stroke="rgb(0,0,0)"  stroke-width="1.2"/>
<line x1="294.8" y1="116.9" x2="283.7" y2="115.2" opacity="0.4" stroke="rgb(0,0,0)"  stroke-width="1.9"/>
<line x1="294.8" y1="116.9" x2="317.3" y2="142.8" opacity="0.6" stroke="rgb(0,0,0)"  stroke-width="1.5"/>
<line x1="122.5" y1="116.9" x2="99.3" y2="76.5" opacity="0.5" stroke="rgb(0,0,0)"  stroke-width="1.6"/>
<line x1="122.5" y1="116.9" x2="157.8" y2="127.4" opacity="0.5" stroke="rgb(0,0,0)"  stroke-width="1.8"/>
<line x1="122.5" y1="116.9" x2="133.5" y2="115.8" opacity="0.6" stroke="rgb(0,0,0)"  stroke-width="1.1"/>
<line x1="122.5" y1="116.9" x2="100.0" y2="142.8" opacity="0.4" stroke="rgb(0,0,0)"  stroke-width="1.5"/>
<line x1="318.0" y1="76.6" x2="354.6" y2="68.8" opacity="0.5" stroke="rgb(0,0,0)"  stroke-width="1.6"/>
<line x1="318.0" y1="76.6" x2="329.5" y2="78.7" opacity="0.5" stroke="rgb(0,0,0)"  stroke-width="0.8"/>
<line x1="318.0" y1="76.6" x2="297.1" y2="49.6" opacity="0.3" stroke="rgb(0,0,0)"  stroke-width="1.3"/>
<line x1="99.3" y1="76.5" x2="62.5" y2="69.2" opacity="0.4" stroke="rgb(0,0,0)"  stroke-width="1.4"/>
<line x1="99.3" y1="76.5" x2="87.8" y2="77.9" opacity="0.5" stroke="rgb(0,0,0)"  stroke-width="2.1"/>
<line x1="99.3" y1="76.5" x2="120.1" y2="49.4" opacity="0.7" stroke="rgb(0,0,0)"  stroke-width="1.7"/>
<line x1="259.5" y1="128.0" x2="272.0" y2="131.4" opacity="0.6" stroke="rgb(0,0,0)"  stroke-width="0.4"/>
<line x1="259.5" y1="128.0" x2="245.7" y2="158.1" opacity="0.1" stroke="rgb(0,0,0)"  stroke-width="0.9"/>
<line x1="157.8" y1="127.4" x2="145.3" y2="130.3" opacity="0.3" stroke="rgb(0,0,0)"  stroke-width="2.6"/>
<line x1="157.8" y1="127.4" x2="171.6" y2="157.7" opacity="0.9" stroke="rgb(0,0,0)"  stroke-width="2.1"/>
<line x1="354.6" y1="68.8" x2="370.8" y2="40.0" opacity="0.7" stroke="rgb(0,0,0)"  stroke-width="1.9"/>
<line x1="354.6" y1="68.8" x2="377.2" y2="94.5" opacity="0.6" stroke="rgb(0,0,0)"  stroke-width="1.9"/>
<line x1="354.6" y1="68.8" x2="344.0" y2="65.6" opacity="0.6" stroke="rgb(0,0,0)"  stroke-width="2.4"/>
<line x1="62.5" y1="69.2" x2="46.3" y2="40.3" opacity="0.8" stroke="rgb(0,0,0)"  stroke-width="1.1"/>
<line x1="62.5" y1="69.2" x2="40.0" y2="94.9" opacity="0.4" stroke="rgb(0,0,0)"  stroke-width="1.0"/>
<line x1="62.5" y1="69.2" x2="73.0" y2="66.6" opacity="0.3" stroke="rgb(0,0,0)"  stroke-width="0.6"/>
<circle cx="272.034665" cy="131.412046" r="5.636364" opacity="0.200000" style="stroke:black;stroke-width:0.5;fill:url(#radialffffffbfbfbf)"/>
<circle cx="73.029957" cy="66.611458" r="5.636364" opacity="0.269335" style="stroke:black;stroke-width:0.5;fill:url(#radialffffffbfbfbf)"/>
<circle cx="329.535539" cy="78.695360" r="5.636364" opacity="0.386384" style="stroke:black;stroke-width:0.5;fill:url(#radialffffffbfbfbf)"/>
<circle cx="133.465091" cy="115.837656" r="5.636364" opacity="0.473520" style="stroke:black;stroke-width:0.5;fill:url(#radialffffffbfbfbf)"/>
<circle cx="218.552384" cy="88.716843" r="19.090909" opacity="0.495533" style="stroke:black;stroke-width:0.5;fill:url(#radialffffffb2b20)"/>
<circle cx="259.500781" cy="128.009054" r="13.818182" opacity="0.510032" style="stroke:black;stroke-width:0.5;fill:url(#radialffffff666666)"/>
<circle cx="245.688822" cy="158.148499" r="5.636364" opacity="0.574461" style="stroke:black;stroke-width:0.5;fill:url(#radialffffffbfbfbf)"/>
<circle cx="62.514743" cy="69.217606" r="13.818182" opacity="0.582316" style="stroke:black;stroke-width:0.5;fill:url(#radialffffff666666)"/>
<circle cx="40.000000" cy="94.894726" r="5.636364" opacity="0.596169" style="stroke:black;stroke-width:0.5;fill:url(#radialffffffbfbfbf)"/>
<circle cx="46.312253" cy="40.253115" r="5.636364" opacity="0.637976" style="stroke:black;stroke-width:0.5;fill:url(#radialffffffbfbfbf)"/>
<circle cx="317.957867" cy="76.623566" r="13.818182" opacity="0.643105" style="stroke:black;stroke-width:0.5;fill:url(#radialffffff666666)"/>
<circle cx="297.071185" cy="49.574625" r="5.636364" opacity="0.653263" style="stroke:black;stroke-width:0.5;fill:url(#radialffffffbfbfbf)"/>
<circle cx="122.453022" cy="116.865741" r="13.818182" opacity="0.700221" style="stroke:black;stroke-width:0.5;fill:url(#radialffffff666666)"/>
<circle cx="99.978902" cy="142.780351" r="5.636364" opacity="0.706825" style="stroke:black;stroke-width:0.5;fill:url(#radialffffffbfbfbf)"/>
<circle cx="317.267269" cy="142.764727" r="5.676151" opacity="0.709598" style="stroke:black;stroke-width:0.5;fill:url(#radialffffffbfbfbf)"/>
<circle cx="294.771275" cy="116.853241" r="14.048384" opacity="0.712972" style="stroke:black;stroke-width:0.5;fill:url(#radialffffff666666)"/>
<circle cx="120.121863" cy="49.415256" r="6.332716" opacity="0.749515" style="stroke:black;stroke-width:0.5;fill:url(#radialffffffbfbfbf)"/>
<circle cx="99.266430" cy="76.451698" r="16.016988" opacity="0.761290" style="stroke:black;stroke-width:0.5;fill:url(#radialffffff666666)"/>
<circle cx="370.818298" cy="40.000000" r="6.559867" opacity="0.762839" style="stroke:black;stroke-width:0.5;fill:url(#radialffffffbfbfbf)"/>
<circle cx="377.161799" cy="94.507241" r="7.236109" opacity="0.801195" style="stroke:black;stroke-width:0.5;fill:url(#radialffffffbfbfbf)"/>
<circle cx="354.615807" cy="68.820747" r="18.068593" opacity="0.808578" style="stroke:black;stroke-width:0.5;fill:url(#radialffffff666666)"/>
<circle cx="171.579223" cy="157.742265" r="7.592894" opacity="0.820709" style="stroke:black;stroke-width:0.5;fill:url(#radialffffffbfbfbf)"/>
<circle cx="157.826637" cy="127.437202" r="20.430209" opacity="0.859797" style="stroke:black;stroke-width:0.5;fill:url(#radialffffff666666)"/>
<circle cx="198.565667" cy="88.260610" r="28.517036" opacity="0.864219" style="stroke:black;stroke-width:0.5;fill:url(#radialffffffb2b20)"/>
<circle cx="283.652960" cy="115.231430" r="8.723726" opacity="0.879704" style="stroke:black;stroke-width:0.5;fill:url(#radialffffffbfbfbf)"/>
<circle cx="87.785629" cy="77.942264" r="9.518607" opacity="0.918908" style="stroke:black;stroke-width:0.5;fill:url(#radialffffffbfbfbf)"/>
<circle cx="344.003723" cy="65.630247" r="10.367309" opacity="0.959000" style="stroke:black;stroke-width:0.5;fill:url(#radialffffffbfbfbf)"/>
<circle cx="145.345875" cy="130.312089" r="11.272727" opacity="1.000000" style="stroke:black;stroke-width:0.5;fill:url(#radialffffffbfbfbf)"/>
</svg>
</g>
</svg>
