<?xml version="1.0"?>
<svg version="1.1" id="topsvg"
xmlns="http://www.w3.org/2000/svg" xmlns:xlink="http://www.w3.org/1999/xlink"
xmlns:cml="http://www.xml-cml.org/schema" x="0" y="0" width="1024px" height="1024px" viewBox="0 0 100 100">
<title>12389 - Open Babel Depiction</title>
<rect x="0" y="0" width="100" height="100" fill="white"/>
<defs>
<radialGradient id='radialffffff666666' cx='50%' cy='50%' r='50%' fx='30%' fy='30%'>
  <stop offset=' 0%' stop-color="rgb(255,255,255)"  stop-opacity='1.0'/>
  <stop offset='100%' stop-color="rgb(102,102,102)"  stop-opacity ='1.0'/>
</radialGradient>
<radialGradient id='radialffffffbfbfbf' cx='50%' cy='50%' r='50%' fx='30%' fy='30%'>
  <stop offset=' 0%' stop-color="rgb(255,255,255)"  stop-opacity='1.0'/>
  <stop offset='100%' stop-color="rgb(191,191,191)"  stop-opacity ='1.0'/>
</radialGradient>
</defs>
<g transform="translate(0,0)">
<svg width="100" height="100" x="0" y="0" viewBox="0 0 675.486 157.565"
font-family="sans-serif" stroke="rgb(0,0,0)" stroke-width="2"  stroke-linecap="round">
<line x1="359.2" y1="91.1" x2="317.6" y2="63.5" opacity="1.0" stroke="rgb(0,0,0)"  stroke-width="1.4"/>
<line x1="359.2" y1="91.1" x2="399.9" y2="62.3" opacity="0.5" stroke="rgb(0,0,0)"  stroke-width="1.3"/>
<line x1="359.2" y1="91.1" x2="358.7" y2="111.8" opacity="0.4" stroke="rgb(0,0,0)"  stroke-width="0.7"/>
<line x1="359.2" y1="91.1" x2="360.1" y2="112.9" opacity="0.2" stroke="rgb(0,0,0)"  stroke-width="2.0"/>
<line x1="317.6" y1="63.5" x2="275.8" y2="90.7" opacity="0.7" stroke="rgb(0,0,0)"  stroke-width="1.4"/>
<line x1="317.6" y1="63.5" x2="318.3" y2="43.0" opacity="0.5" stroke="rgb(0,0,0)"  stroke-width="2.1"/>
<line x1="317.6" y1="63.5" x2="317.0" y2="41.5" opacity="0.7" stroke="rgb(0,0,0)"  stroke-width="0.8"/>
<line x1="399.9" y1="62.3" x2="441.5" y2="89.9" opacity="0.3" stroke="rgb(0,0,0)"  stroke-width="1.3"/>
<line x1="399.9" y1="62.3" x2="399.4" y2="41.1" opacity="0.4" stroke="rgb(0,0,0)"  stroke-width="0.7"/>
<line x1="399.9" y1="62.3" x2="400.1" y2="41.1" opacity="0.2" stroke="rgb(0,0,0)"  stroke-width="2.0"/>
<line x1="275.8" y1="90.7" x2="234.2" y2="63.1" opacity="0.7" stroke="rgb(0,0,0)"  stroke-width="1.5"/>
<line x1="275.8" y1="90.7" x2="276.1" y2="112.5" opacity="0.5" stroke="rgb(0,0,0)"  stroke-width="2.1"/>
<line x1="275.8" y1="90.7" x2="275.4" y2="111.6" opacity="0.7" stroke="rgb(0,0,0)"  stroke-width="0.8"/>
<line x1="441.5" y1="89.9" x2="483.4" y2="62.7" opacity="0.3" stroke="rgb(0,0,0)"  stroke-width="1.3"/>
<line x1="441.5" y1="89.9" x2="441.4" y2="111.0" opacity="0.4" stroke="rgb(0,0,0)"  stroke-width="0.7"/>
<line x1="441.5" y1="89.9" x2="441.5" y2="111.5" opacity="0.2" stroke="rgb(0,0,0)"  stroke-width="2.0"/>
<line x1="234.2" y1="63.1" x2="193.5" y2="91.9" opacity="0.7" stroke="rgb(0,0,0)"  stroke-width="1.5"/>
<line x1="234.2" y1="63.1" x2="234.1" y2="42.4" opacity="0.5" stroke="rgb(0,0,0)"  stroke-width="2.2"/>
<line x1="234.2" y1="63.1" x2="233.7" y2="41.4" opacity="0.7" stroke="rgb(0,0,0)"  stroke-width="0.8"/>
<line x1="483.4" y1="62.7" x2="524.9" y2="90.3" opacity="0.3" stroke="rgb(0,0,0)"  stroke-width="1.4"/>
<line x1="483.4" y1="62.7" x2="484.2" y2="42.2" opacity="0.5" stroke="rgb(0,0,0)"  stroke-width="0.7"/>
<line x1="483.4" y1="62.7" x2="482.6" y2="40.6" opacity="0.2" stroke="rgb(0,0,0)"  stroke-width="2.0"/>
<line x1="193.5" y1="91.9" x2="150.8" y2="66.0" opacity="0.7" stroke="rgb(0,0,0)"  stroke-width="1.5"/>
<line x1="193.5" y1="91.9" x2="194.0" y2="113.4" opacity="0.5" stroke="rgb(0,0,0)"  stroke-width="2.1"/>
<line x1="193.5" y1="91.9" x2="194.2" y2="113.1" opacity="0.7" stroke="rgb(0,0,0)"  stroke-width="0.8"/>
<line x1="524.9" y1="90.3" x2="565.5" y2="61.5" opacity="0.3" stroke="rgb(0,0,0)"  stroke-width="1.5"/>
<line x1="524.9" y1="90.3" x2="526.7" y2="111.3" opacity="0.5" stroke="rgb(0,0,0)"  stroke-width="0.8"/>
<line x1="524.9" y1="90.3" x2="523.6" y2="111.7" opacity="0.3" stroke="rgb(0,0,0)"  stroke-width="2.1"/>
<line x1="150.8" y1="66.0" x2="110.1" y2="94.8" opacity="0.7" stroke="rgb(0,0,0)"  stroke-width="1.5"/>
<line x1="150.8" y1="66.0" x2="150.4" y2="44.1" opacity="0.5" stroke="rgb(0,0,0)"  stroke-width="0.8"/>
<line x1="150.8" y1="66.0" x2="149.9" y2="45.2" opacity="0.3" stroke="rgb(0,0,0)"  stroke-width="2.1"/>
<line x1="565.5" y1="61.5" x2="606.9" y2="88.7" opacity="0.7" stroke="rgb(0,0,0)"  stroke-width="1.6"/>
<line x1="565.5" y1="61.5" x2="563.5" y2="40.0" opacity="0.5" stroke="rgb(0,0,0)"  stroke-width="2.2"/>
<line x1="565.5" y1="61.5" x2="567.4" y2="40.6" opacity="0.7" stroke="rgb(0,0,0)"  stroke-width="0.9"/>
<line x1="110.1" y1="94.8" x2="68.7" y2="67.6" opacity="0.3" stroke="rgb(0,0,0)"  stroke-width="1.5"/>
<line x1="110.1" y1="94.8" x2="109.9" y2="114.3" opacity="0.5" stroke="rgb(0,0,0)"  stroke-width="0.8"/>
<line x1="110.1" y1="94.8" x2="110.7" y2="117.6" opacity="0.3" stroke="rgb(0,0,0)"  stroke-width="2.1"/>
<line x1="606.9" y1="88.7" x2="610.5" y2="109.9" opacity="0.7" stroke="rgb(0,0,0)"  stroke-width="1.0"/>
<line x1="606.9" y1="88.7" x2="606.5" y2="109.1" opacity="0.3" stroke="rgb(0,0,0)"  stroke-width="2.3"/>
<line x1="606.9" y1="88.7" x2="635.5" y2="67.5" opacity="0.8" stroke="rgb(0,0,0)"  stroke-width="1.7"/>
<line x1="68.7" y1="67.6" x2="67.6" y2="48.6" opacity="0.6" stroke="rgb(0,0,0)"  stroke-width="2.2"/>
<line x1="68.7" y1="67.6" x2="66.7" y2="45.0" opacity="0.7" stroke="rgb(0,0,0)"  stroke-width="0.9"/>
<line x1="68.7" y1="67.6" x2="40.0" y2="88.7" opacity="0.3" stroke="rgb(0,0,0)"  stroke-width="1.5"/>
<circle cx="484.153990" cy="42.167527" r="5.636364" opacity="0.200000" style="stroke:black;stroke-width:0.5;fill:url(#radialffffffbfbfbf)"/>
<circle cx="441.435781" cy="111.016659" r="5.636364" opacity="0.200000" style="stroke:black;stroke-width:0.5;fill:url(#radialffffffbfbfbf)"/>
<circle cx="399.369459" cy="41.095172" r="5.636364" opacity="0.200000" style="stroke:black;stroke-width:0.5;fill:url(#radialffffffbfbfbf)"/>
<circle cx="358.659065" cy="111.756552" r="5.636364" opacity="0.200000" style="stroke:black;stroke-width:0.5;fill:url(#radialffffffbfbfbf)"/>
<circle cx="109.856299" cy="114.269580" r="5.636364" opacity="0.200000" style="stroke:black;stroke-width:0.5;fill:url(#radialffffffbfbfbf)"/>
<circle cx="526.689670" cy="111.336084" r="5.636364" opacity="0.200000" style="stroke:black;stroke-width:0.5;fill:url(#radialffffffbfbfbf)"/>
<circle cx="275.357580" cy="111.626175" r="5.636364" opacity="0.211779" style="stroke:black;stroke-width:0.5;fill:url(#radialffffffbfbfbf)"/>
<circle cx="317.032768" cy="41.466748" r="5.636364" opacity="0.234609" style="stroke:black;stroke-width:0.5;fill:url(#radialffffffbfbfbf)"/>
<circle cx="194.197546" cy="113.112479" r="5.636364" opacity="0.241638" style="stroke:black;stroke-width:0.5;fill:url(#radialffffffbfbfbf)"/>
<circle cx="150.439575" cy="44.116672" r="5.636364" opacity="0.254634" style="stroke:black;stroke-width:0.5;fill:url(#radialffffffbfbfbf)"/>
<circle cx="233.659575" cy="41.378743" r="5.636364" opacity="0.261031" style="stroke:black;stroke-width:0.5;fill:url(#radialffffffbfbfbf)"/>
<circle cx="567.403324" cy="40.635591" r="5.636364" opacity="0.268836" style="stroke:black;stroke-width:0.5;fill:url(#radialffffffbfbfbf)"/>
<circle cx="66.688287" cy="45.003239" r="5.636364" opacity="0.308409" style="stroke:black;stroke-width:0.5;fill:url(#radialffffffbfbfbf)"/>
<circle cx="610.457255" cy="109.898672" r="5.636364" opacity="0.358463" style="stroke:black;stroke-width:0.5;fill:url(#radialffffffbfbfbf)"/>
<circle cx="441.507488" cy="89.905272" r="13.818182" opacity="0.662460" style="stroke:black;stroke-width:0.5;fill:url(#radialffffff666666)"/>
<circle cx="483.374984" cy="62.724810" r="13.818182" opacity="0.664612" style="stroke:black;stroke-width:0.5;fill:url(#radialffffff666666)"/>
<circle cx="399.949640" cy="62.320639" r="13.818182" opacity="0.667606" style="stroke:black;stroke-width:0.5;fill:url(#radialffffff666666)"/>
<circle cx="359.180575" cy="91.111265" r="13.818182" opacity="0.673735" style="stroke:black;stroke-width:0.5;fill:url(#radialffffff666666)"/>
<circle cx="524.903498" cy="90.286627" r="13.818182" opacity="0.686726" style="stroke:black;stroke-width:0.5;fill:url(#radialffffff666666)"/>
<circle cx="110.113795" cy="94.768355" r="13.818182" opacity="0.690052" style="stroke:black;stroke-width:0.5;fill:url(#radialffffff666666)"/>
<circle cx="317.642283" cy="63.542929" r="13.818182" opacity="0.692722" style="stroke:black;stroke-width:0.5;fill:url(#radialffffff666666)"/>
<circle cx="275.765009" cy="90.710354" r="13.818182" opacity="0.694957" style="stroke:black;stroke-width:0.5;fill:url(#radialffffff666666)"/>
<circle cx="150.801373" cy="66.007065" r="13.818182" opacity="0.701374" style="stroke:black;stroke-width:0.5;fill:url(#radialffffff666666)"/>
<circle cx="193.460912" cy="91.926125" r="13.818182" opacity="0.702461" style="stroke:black;stroke-width:0.5;fill:url(#radialffffff666666)"/>
<circle cx="234.203901" cy="63.099645" r="13.818182" opacity="0.704805" style="stroke:black;stroke-width:0.5;fill:url(#radialffffff666666)"/>
<circle cx="40.000000" cy="88.728615" r="5.636364" opacity="0.705852" style="stroke:black;stroke-width:0.5;fill:url(#radialffffffbfbfbf)"/>
<circle cx="565.532406" cy="61.512298" r="14.076694" opacity="0.713690" style="stroke:black;stroke-width:0.5;fill:url(#radialffffff666666)"/>
<circle cx="68.715659" cy="67.581374" r="14.131118" opacity="0.715069" style="stroke:black;stroke-width:0.5;fill:url(#radialffffff666666)"/>
<circle cx="606.852316" cy="88.676464" r="15.429124" opacity="0.747189" style="stroke:black;stroke-width:0.5;fill:url(#radialffffff666666)"/>
<circle cx="635.486488" cy="67.464034" r="6.582047" opacity="0.764128" style="stroke:black;stroke-width:0.5;fill:url(#radialffffffbfbfbf)"/>
<circle cx="482.648129" cy="40.632331" r="9.766515" opacity="0.930798" style="stroke:black;stroke-width:0.5;fill:url(#radialffffffbfbfbf)"/>
<circle cx="441.536823" cy="111.459943" r="9.805919" opacity="0.932674" style="stroke:black;stroke-width:0.5;fill:url(#radialffffffbfbfbf)"/>
<circle cx="400.066979" cy="41.127766" r="9.925239" opacity="0.938331" style="stroke:black;stroke-width:0.5;fill:url(#radialffffffbfbfbf)"/>
<circle cx="360.148629" cy="112.877799" r="9.941333" opacity="0.939091" style="stroke:black;stroke-width:0.5;fill:url(#radialffffffbfbfbf)"/>
<circle cx="110.707013" cy="117.564873" r="10.050664" opacity="0.944241" style="stroke:black;stroke-width:0.5;fill:url(#radialffffffbfbfbf)"/>
<circle cx="523.632316" cy="111.671807" r="10.188854" opacity="0.950710" style="stroke:black;stroke-width:0.5;fill:url(#radialffffffbfbfbf)"/>
<circle cx="276.126807" cy="112.457331" r="10.277650" opacity="0.954844" style="stroke:black;stroke-width:0.5;fill:url(#radialffffffbfbfbf)"/>
<circle cx="318.313728" cy="42.969349" r="10.388091" opacity="0.959961" style="stroke:black;stroke-width:0.5;fill:url(#radialffffffbfbfbf)"/>
<circle cx="194.028055" cy="113.383012" r="10.432490" opacity="0.962010" style="stroke:black;stroke-width:0.5;fill:url(#radialffffffbfbfbf)"/>
<circle cx="149.862655" cy="45.237919" r="10.500752" opacity="0.965152" style="stroke:black;stroke-width:0.5;fill:url(#radialffffffbfbfbf)"/>
<circle cx="234.132194" cy="42.431542" r="10.562910" opacity="0.968004" style="stroke:black;stroke-width:0.5;fill:url(#radialffffffbfbfbf)"/>
<circle cx="563.472441" cy="40.000000" r="10.587329" opacity="0.969123" style="stroke:black;stroke-width:0.5;fill:url(#radialffffffbfbfbf)"/>
<circle cx="67.558558" cy="48.582103" r="10.902002" opacity="0.983419" style="stroke:black;stroke-width:0.5;fill:url(#radialffffffbfbfbf)"/>
<circle cx="606.467702" cy="109.113147" r="11.272727" opacity="1.000000" style="stroke:black;stroke-width:0.5;fill:url(#radialffffffbfbfbf)"/>
</svg>
</g>
</svg>
