<?xml version="1.0"?>
<svg version="1.1" id="topsvg"
xmlns="http://www.w3.org/2000/svg" xmlns:xlink="http://www.w3.org/1999/xlink"
xmlns:cml="http://www.xml-cml.org/schema" x="0" y="0" width="200px" height="200px" viewBox="0 0 100 100">
<title>12391 - Open Babel Depiction</title>
<rect x="0" y="0" width="100" height="100" fill="white"/>
<defs>
<radialGradient id='radialffffff666666' cx='50%' cy='50%' r='50%' fx='30%' fy='30%'>
  <stop offset=' 0%' stop-color="rgb(255,255,255)"  stop-opacity='1.0'/>
  <stop offset='100%' stop-color="rgb(102,102,102)"  stop-opacity ='1.0'/>
</radialGradient>
<radialGradient id='radialffffffbfbfbf' cx='50%' cy='50%' r='50%' fx='30%' fy='30%'>
  <stop offset=' 0%' stop-color="rgb(255,255,255)"  stop-opacity='1.0'/>
  <stop offset='100%' stop-color="rgb(191,191,191)"  stop-opacity ='1.0'/>
</radialGradient>
</defs>
<g transform="translate(0,0)">
<svg width="100" height="100" x="0" y="0" viewBox="0 0 719.652 156.036"
font-family="sans-serif" stroke="rgb(0,0,0)" stroke-width="4"  stroke-linecap="round">
<line x1="359.8" y1="65.6" x2="318.6" y2="93.8" opacity="1.0" stroke="rgb(0,0,0)"  stroke-width="1.3"/>
<line x1="359.8" y1="65.6" x2="400.9" y2="93.8" opacity="0.4" stroke="rgb(0,0,0)"  stroke-width="1.3"/>
<line x1="359.8" y1="65.6" x2="360.0" y2="44.0" opacity="0.4" stroke="rgb(0,0,0)"  stroke-width="0.7"/>
<line x1="359.8" y1="65.6" x2="359.8" y2="44.8" opacity="0.2" stroke="rgb(0,0,0)"  stroke-width="2.0"/>
<line x1="318.6" y1="93.8" x2="277.5" y2="65.6" opacity="0.7" stroke="rgb(0,0,0)"  stroke-width="1.3"/>
<line x1="318.6" y1="93.8" x2="318.8" y2="115.8" opacity="0.4" stroke="rgb(0,0,0)"  stroke-width="1.9"/>
<line x1="318.6" y1="93.8" x2="318.3" y2="114.1" opacity="0.6" stroke="rgb(0,0,0)"  stroke-width="0.7"/>
<line x1="400.9" y1="93.8" x2="443.1" y2="67.2" opacity="0.2" stroke="rgb(0,0,0)"  stroke-width="1.3"/>
<line x1="400.9" y1="93.8" x2="401.1" y2="114.2" opacity="0.4" stroke="rgb(0,0,0)"  stroke-width="0.7"/>
<line x1="400.9" y1="93.8" x2="400.2" y2="115.9" opacity="0.2" stroke="rgb(0,0,0)"  stroke-width="1.9"/>
<line x1="277.5" y1="65.6" x2="235.3" y2="92.1" opacity="0.6" stroke="rgb(0,0,0)"  stroke-width="1.3"/>
<line x1="277.5" y1="65.6" x2="277.8" y2="43.1" opacity="0.4" stroke="rgb(0,0,0)"  stroke-width="0.7"/>
<line x1="277.5" y1="65.6" x2="277.9" y2="45.6" opacity="0.2" stroke="rgb(0,0,0)"  stroke-width="2.0"/>
<line x1="443.1" y1="67.2" x2="485.4" y2="93.8" opacity="0.7" stroke="rgb(0,0,0)"  stroke-width="1.4"/>
<line x1="443.1" y1="67.2" x2="442.5" y2="46.2" opacity="0.5" stroke="rgb(0,0,0)"  stroke-width="2.0"/>
<line x1="443.1" y1="67.2" x2="443.8" y2="45.4" opacity="0.7" stroke="rgb(0,0,0)"  stroke-width="0.8"/>
<line x1="235.3" y1="92.1" x2="193.1" y2="65.7" opacity="0.3" stroke="rgb(0,0,0)"  stroke-width="1.3"/>
<line x1="235.3" y1="92.1" x2="235.0" y2="112.0" opacity="0.4" stroke="rgb(0,0,0)"  stroke-width="0.7"/>
<line x1="235.3" y1="92.1" x2="235.6" y2="115.1" opacity="0.2" stroke="rgb(0,0,0)"  stroke-width="1.9"/>
<line x1="485.4" y1="93.8" x2="526.5" y2="65.5" opacity="0.6" stroke="rgb(0,0,0)"  stroke-width="1.4"/>
<line x1="485.4" y1="93.8" x2="485.9" y2="115.7" opacity="0.5" stroke="rgb(0,0,0)"  stroke-width="0.8"/>
<line x1="485.4" y1="93.8" x2="485.6" y2="114.4" opacity="0.3" stroke="rgb(0,0,0)"  stroke-width="2.0"/>
<line x1="193.1" y1="65.7" x2="150.9" y2="92.3" opacity="0.7" stroke="rgb(0,0,0)"  stroke-width="1.4"/>
<line x1="193.1" y1="65.7" x2="192.1" y2="43.6" opacity="0.5" stroke="rgb(0,0,0)"  stroke-width="0.8"/>
<line x1="193.1" y1="65.7" x2="194.1" y2="44.9" opacity="0.3" stroke="rgb(0,0,0)"  stroke-width="2.0"/>
<line x1="526.5" y1="65.5" x2="568.6" y2="92.0" opacity="0.7" stroke="rgb(0,0,0)"  stroke-width="1.5"/>
<line x1="526.5" y1="65.5" x2="525.2" y2="42.4" opacity="0.5" stroke="rgb(0,0,0)"  stroke-width="2.0"/>
<line x1="526.5" y1="65.5" x2="526.9" y2="46.1" opacity="0.7" stroke="rgb(0,0,0)"  stroke-width="0.7"/>
<line x1="150.9" y1="92.3" x2="110.0" y2="64.3" opacity="0.2" stroke="rgb(0,0,0)"  stroke-width="1.5"/>
<line x1="150.9" y1="92.3" x2="152.4" y2="115.4" opacity="0.5" stroke="rgb(0,0,0)"  stroke-width="2.0"/>
<line x1="150.9" y1="92.3" x2="148.8" y2="111.7" opacity="0.7" stroke="rgb(0,0,0)"  stroke-width="0.8"/>
<line x1="568.6" y1="92.0" x2="609.7" y2="63.8" opacity="0.3" stroke="rgb(0,0,0)"  stroke-width="1.5"/>
<line x1="568.6" y1="92.0" x2="568.3" y2="110.9" opacity="0.5" stroke="rgb(0,0,0)"  stroke-width="2.2"/>
<line x1="568.6" y1="92.0" x2="569.6" y2="115.5" opacity="0.7" stroke="rgb(0,0,0)"  stroke-width="0.9"/>
<line x1="110.0" y1="64.3" x2="68.9" y2="91.9" opacity="0.3" stroke="rgb(0,0,0)"  stroke-width="1.6"/>
<line x1="110.0" y1="64.3" x2="109.0" y2="40.0" opacity="0.5" stroke="rgb(0,0,0)"  stroke-width="1.1"/>
<line x1="110.0" y1="64.3" x2="110.8" y2="46.5" opacity="0.4" stroke="rgb(0,0,0)"  stroke-width="2.3"/>
<line x1="609.7" y1="63.8" x2="650.7" y2="91.5" opacity="0.8" stroke="rgb(0,0,0)"  stroke-width="1.5"/>
<line x1="609.7" y1="63.8" x2="610.4" y2="44.9" opacity="0.5" stroke="rgb(0,0,0)"  stroke-width="0.8"/>
<line x1="609.7" y1="63.8" x2="609.3" y2="40.5" opacity="0.3" stroke="rgb(0,0,0)"  stroke-width="2.1"/>
<line x1="68.9" y1="91.9" x2="68.4" y2="116.0" opacity="0.7" stroke="rgb(0,0,0)"  stroke-width="2.1"/>
<line x1="68.9" y1="91.9" x2="40.0" y2="71.3" opacity="0.7" stroke="rgb(0,0,0)"  stroke-width="1.6"/>
<line x1="68.9" y1="91.9" x2="66.6" y2="109.1" opacity="0.5" stroke="rgb(0,0,0)"  stroke-width="0.9"/>
<line x1="650.7" y1="91.5" x2="651.4" y2="110.1" opacity="0.3" stroke="rgb(0,0,0)"  stroke-width="2.3"/>
<line x1="650.7" y1="91.5" x2="652.5" y2="114.5" opacity="0.8" stroke="rgb(0,0,0)"  stroke-width="1.0"/>
<line x1="650.7" y1="91.5" x2="679.7" y2="70.8" opacity="0.3" stroke="rgb(0,0,0)"  stroke-width="1.6"/>
<circle cx="234.960863" cy="112.016913" r="5.636364" opacity="0.200000" style="stroke:black;stroke-width:0.5;fill:url(#radialffffffbfbfbf)"/>
<circle cx="318.330357" cy="114.075098" r="5.636364" opacity="0.200000" style="stroke:black;stroke-width:0.5;fill:url(#radialffffffbfbfbf)"/>
<circle cx="401.094119" cy="114.244442" r="5.636364" opacity="0.200000" style="stroke:black;stroke-width:0.5;fill:url(#radialffffffbfbfbf)"/>
<circle cx="526.936461" cy="46.125704" r="5.636364" opacity="0.200000" style="stroke:black;stroke-width:0.5;fill:url(#radialffffffbfbfbf)"/>
<circle cx="359.953227" cy="44.008900" r="5.636364" opacity="0.200000" style="stroke:black;stroke-width:0.5;fill:url(#radialffffffbfbfbf)"/>
<circle cx="148.803702" cy="111.736844" r="5.636364" opacity="0.204027" style="stroke:black;stroke-width:0.5;fill:url(#radialffffffbfbfbf)"/>
<circle cx="443.801444" cy="45.409247" r="5.636364" opacity="0.211042" style="stroke:black;stroke-width:0.5;fill:url(#radialffffffbfbfbf)"/>
<circle cx="610.406910" cy="44.888188" r="5.636364" opacity="0.212170" style="stroke:black;stroke-width:0.5;fill:url(#radialffffffbfbfbf)"/>
<circle cx="277.756118" cy="43.067737" r="5.636364" opacity="0.214074" style="stroke:black;stroke-width:0.5;fill:url(#radialffffffbfbfbf)"/>
<circle cx="192.080937" cy="43.644159" r="5.636364" opacity="0.226428" style="stroke:black;stroke-width:0.5;fill:url(#radialffffffbfbfbf)"/>
<circle cx="485.912808" cy="115.700151" r="5.636364" opacity="0.235421" style="stroke:black;stroke-width:0.5;fill:url(#radialffffffbfbfbf)"/>
<circle cx="66.577283" cy="109.147830" r="5.636364" opacity="0.246612" style="stroke:black;stroke-width:0.5;fill:url(#radialffffffbfbfbf)"/>
<circle cx="569.643787" cy="115.514524" r="5.636364" opacity="0.338481" style="stroke:black;stroke-width:0.5;fill:url(#radialffffffbfbfbf)"/>
<circle cx="652.534557" cy="114.452866" r="5.636364" opacity="0.363243" style="stroke:black;stroke-width:0.5;fill:url(#radialffffffbfbfbf)"/>
<circle cx="108.981743" cy="40.000000" r="5.636364" opacity="0.404115" style="stroke:black;stroke-width:0.5;fill:url(#radialffffffbfbfbf)"/>
<circle cx="318.642992" cy="93.770067" r="13.818182" opacity="0.658191" style="stroke:black;stroke-width:0.5;fill:url(#radialffffff666666)"/>
<circle cx="235.325605" cy="92.141756" r="13.818182" opacity="0.659749" style="stroke:black;stroke-width:0.5;fill:url(#radialffffff666666)"/>
<circle cx="400.905235" cy="93.753784" r="13.818182" opacity="0.661122" style="stroke:black;stroke-width:0.5;fill:url(#radialffffff666666)"/>
<circle cx="359.787140" cy="65.616580" r="13.818182" opacity="0.663321" style="stroke:black;stroke-width:0.5;fill:url(#radialffffff666666)"/>
<circle cx="277.547694" cy="65.623093" r="13.818182" opacity="0.672292" style="stroke:black;stroke-width:0.5;fill:url(#radialffffff666666)"/>
<circle cx="443.137094" cy="67.248147" r="13.818182" opacity="0.677632" style="stroke:black;stroke-width:0.5;fill:url(#radialffffff666666)"/>
<circle cx="526.451224" cy="65.502598" r="13.818182" opacity="0.678899" style="stroke:black;stroke-width:0.5;fill:url(#radialffffff666666)"/>
<circle cx="193.061179" cy="65.688225" r="13.818182" opacity="0.680654" style="stroke:black;stroke-width:0.5;fill:url(#radialffffff666666)"/>
<circle cx="485.404775" cy="93.776580" r="13.818182" opacity="0.684640" style="stroke:black;stroke-width:0.5;fill:url(#radialffffff666666)"/>
<circle cx="150.887940" cy="92.291561" r="13.818182" opacity="0.692716" style="stroke:black;stroke-width:0.5;fill:url(#radialffffff666666)"/>
<circle cx="609.696966" cy="63.815668" r="13.818182" opacity="0.698959" style="stroke:black;stroke-width:0.5;fill:url(#radialffffff666666)"/>
<circle cx="568.634234" cy="91.952872" r="14.041141" opacity="0.712789" style="stroke:black;stroke-width:0.5;fill:url(#radialffffff666666)"/>
<circle cx="679.652439" cy="70.791350" r="5.822018" opacity="0.718658" style="stroke:black;stroke-width:0.5;fill:url(#radialffffffbfbfbf)"/>
<circle cx="68.886227" cy="91.907280" r="14.286528" opacity="0.718990" style="stroke:black;stroke-width:0.5;fill:url(#radialffffff666666)"/>
<circle cx="650.668513" cy="91.509972" r="14.674397" opacity="0.728685" style="stroke:black;stroke-width:0.5;fill:url(#radialffffff666666)"/>
<circle cx="109.961985" cy="64.294391" r="15.100526" opacity="0.739189" style="stroke:black;stroke-width:0.5;fill:url(#radialffffff666666)"/>
<circle cx="40.000000" cy="71.305896" r="6.388668" opacity="0.752819" style="stroke:black;stroke-width:0.5;fill:url(#radialffffffbfbfbf)"/>
<circle cx="235.566595" cy="115.061854" r="9.438245" opacity="0.915021" style="stroke:black;stroke-width:0.5;fill:url(#radialffffffbfbfbf)"/>
<circle cx="318.802567" cy="115.836929" r="9.524346" opacity="0.919185" style="stroke:black;stroke-width:0.5;fill:url(#radialffffffbfbfbf)"/>
<circle cx="400.214831" cy="115.872752" r="9.562015" opacity="0.921001" style="stroke:black;stroke-width:0.5;fill:url(#radialffffffbfbfbf)"/>
<circle cx="525.155089" cy="42.374077" r="9.690090" opacity="0.927149" style="stroke:black;stroke-width:0.5;fill:url(#radialffffffbfbfbf)"/>
<circle cx="359.764343" cy="44.832825" r="9.759508" opacity="0.930464" style="stroke:black;stroke-width:0.5;fill:url(#radialffffffbfbfbf)"/>
<circle cx="152.363189" cy="115.394029" r="9.905341" opacity="0.937390" style="stroke:black;stroke-width:0.5;fill:url(#radialffffffbfbfbf)"/>
<circle cx="442.456460" cy="46.229916" r="9.951082" opacity="0.939552" style="stroke:black;stroke-width:0.5;fill:url(#radialffffffbfbfbf)"/>
<circle cx="609.263836" cy="40.530829" r="9.976913" opacity="0.940770" style="stroke:black;stroke-width:0.5;fill:url(#radialffffffbfbfbf)"/>
<circle cx="277.876612" cy="45.598131" r="9.983908" opacity="0.941100" style="stroke:black;stroke-width:0.5;fill:url(#radialffffffbfbfbf)"/>
<circle cx="194.139121" cy="44.888188" r="10.022115" opacity="0.942899" style="stroke:black;stroke-width:0.5;fill:url(#radialffffffbfbfbf)"/>
<circle cx="485.616456" cy="114.436582" r="10.098530" opacity="0.946487" style="stroke:black;stroke-width:0.5;fill:url(#radialffffffbfbfbf)"/>
<circle cx="68.427043" cy="116.035583" r="10.163643" opacity="0.949533" style="stroke:black;stroke-width:0.5;fill:url(#radialffffffbfbfbf)"/>
<circle cx="568.259723" cy="110.873839" r="10.735136" opacity="0.975864" style="stroke:black;stroke-width:0.5;fill:url(#radialffffffbfbfbf)"/>
<circle cx="651.391483" cy="110.115047" r="11.009044" opacity="0.988235" style="stroke:black;stroke-width:0.5;fill:url(#radialffffffbfbfbf)"/>
<circle cx="110.834760" cy="46.526268" r="11.272727" opacity="1.000000" style="stroke:black;stroke-width:0.5;fill:url(#radialffffffbfbfbf)"/>
</svg>
</g>
</svg>
