<?xml version="1.0"?>
<svg version="1.1" id="topsvg"
xmlns="http://www.w3.org/2000/svg" xmlns:xlink="http://www.w3.org/1999/xlink"
xmlns:cml="http://www.xml-cml.org/schema" x="0" y="0" width="1024px" height="1024px" viewBox="0 0 100 100">
<title>12396 - Open Babel Depiction</title>
<rect x="0" y="0" width="100" height="100" fill="white"/>
<defs>
<radialGradient id='radialffffff666666' cx='50%' cy='50%' r='50%' fx='30%' fy='30%'>
  <stop offset=' 0%' stop-color="rgb(255,255,255)"  stop-opacity='1.0'/>
  <stop offset='100%' stop-color="rgb(102,102,102)"  stop-opacity ='1.0'/>
</radialGradient>
<radialGradient id='radialffffffbfbfbf' cx='50%' cy='50%' r='50%' fx='30%' fy='30%'>
  <stop offset=' 0%' stop-color="rgb(255,255,255)"  stop-opacity='1.0'/>
  <stop offset='100%' stop-color="rgb(191,191,191)"  stop-opacity ='1.0'/>
</radialGradient>
</defs>
<g transform="translate(0,0)">
<svg width="100" height="100" x="0" y="0" viewBox="0 0 745.095 171.459"
font-family="sans-serif" stroke="rgb(0,0,0)" stroke-width="2"  stroke-linecap="round">
<line x1="388.4" y1="101.9" x2="429.1" y2="73.4" opacity="1.0" stroke="rgb(0,0,0)"  stroke-width="1.6"/>
<line x1="388.4" y1="101.9" x2="346.0" y2="76.3" opacity="0.5" stroke="rgb(0,0,0)"  stroke-width="1.6"/>
<line x1="388.4" y1="101.9" x2="388.6" y2="119.3" opacity="0.5" stroke="rgb(0,0,0)"  stroke-width="0.9"/>
<line x1="388.4" y1="101.9" x2="389.5" y2="126.6" opacity="0.3" stroke="rgb(0,0,0)"  stroke-width="2.1"/>
<line x1="429.1" y1="73.4" x2="470.5" y2="100.7" opacity="0.7" stroke="rgb(0,0,0)"  stroke-width="1.6"/>
<line x1="429.1" y1="73.4" x2="429.0" y2="55.9" opacity="0.5" stroke="rgb(0,0,0)"  stroke-width="2.3"/>
<line x1="429.1" y1="73.4" x2="428.4" y2="49.0" opacity="0.8" stroke="rgb(0,0,0)"  stroke-width="1.1"/>
<line x1="346.0" y1="76.3" x2="305.4" y2="104.8" opacity="0.4" stroke="rgb(0,0,0)"  stroke-width="1.7"/>
<line x1="346.0" y1="76.3" x2="346.0" y2="58.4" opacity="0.6" stroke="rgb(0,0,0)"  stroke-width="2.4"/>
<line x1="346.0" y1="76.3" x2="344.8" y2="51.9" opacity="0.8" stroke="rgb(0,0,0)"  stroke-width="1.2"/>
<line x1="470.5" y1="100.7" x2="511.1" y2="72.1" opacity="0.4" stroke="rgb(0,0,0)"  stroke-width="1.6"/>
<line x1="470.5" y1="100.7" x2="471.5" y2="124.6" opacity="0.5" stroke="rgb(0,0,0)"  stroke-width="2.1"/>
<line x1="470.5" y1="100.7" x2="470.0" y2="118.8" opacity="0.7" stroke="rgb(0,0,0)"  stroke-width="0.9"/>
<line x1="305.4" y1="104.8" x2="264.0" y2="77.3" opacity="0.3" stroke="rgb(0,0,0)"  stroke-width="1.7"/>
<line x1="305.4" y1="104.8" x2="305.6" y2="128.1" opacity="0.6" stroke="rgb(0,0,0)"  stroke-width="2.2"/>
<line x1="305.4" y1="104.8" x2="305.9" y2="123.7" opacity="0.7" stroke="rgb(0,0,0)"  stroke-width="1.0"/>
<line x1="511.1" y1="72.1" x2="552.4" y2="99.3" opacity="0.3" stroke="rgb(0,0,0)"  stroke-width="1.5"/>
<line x1="511.1" y1="72.1" x2="512.0" y2="54.5" opacity="0.5" stroke="rgb(0,0,0)"  stroke-width="2.2"/>
<line x1="511.1" y1="72.1" x2="509.9" y2="47.8" opacity="0.7" stroke="rgb(0,0,0)"  stroke-width="1.1"/>
<line x1="264.0" y1="77.3" x2="223.4" y2="105.8" opacity="0.4" stroke="rgb(0,0,0)"  stroke-width="1.6"/>
<line x1="264.0" y1="77.3" x2="263.0" y2="58.9" opacity="0.5" stroke="rgb(0,0,0)"  stroke-width="2.3"/>
<line x1="264.0" y1="77.3" x2="264.2" y2="53.6" opacity="0.8" stroke="rgb(0,0,0)"  stroke-width="1.1"/>
<line x1="552.4" y1="99.3" x2="594.1" y2="72.3" opacity="0.4" stroke="rgb(0,0,0)"  stroke-width="1.4"/>
<line x1="552.4" y1="99.3" x2="551.1" y2="117.5" opacity="0.5" stroke="rgb(0,0,0)"  stroke-width="0.8"/>
<line x1="552.4" y1="99.3" x2="553.7" y2="123.5" opacity="0.3" stroke="rgb(0,0,0)"  stroke-width="1.9"/>
<line x1="223.4" y1="105.8" x2="180.9" y2="79.8" opacity="0.6" stroke="rgb(0,0,0)"  stroke-width="1.6"/>
<line x1="223.4" y1="105.8" x2="223.1" y2="129.4" opacity="0.5" stroke="rgb(0,0,0)"  stroke-width="2.1"/>
<line x1="223.4" y1="105.8" x2="224.9" y2="124.5" opacity="0.7" stroke="rgb(0,0,0)"  stroke-width="0.9"/>
<line x1="594.1" y1="72.3" x2="635.5" y2="99.5" opacity="0.3" stroke="rgb(0,0,0)"  stroke-width="1.4"/>
<line x1="594.1" y1="72.3" x2="593.1" y2="48.5" opacity="0.5" stroke="rgb(0,0,0)"  stroke-width="0.9"/>
<line x1="594.1" y1="72.3" x2="595.3" y2="53.7" opacity="0.3" stroke="rgb(0,0,0)"  stroke-width="2.1"/>
<line x1="180.9" y1="79.8" x2="140.4" y2="108.0" opacity="0.7" stroke="rgb(0,0,0)"  stroke-width="1.5"/>
<line x1="180.9" y1="79.8" x2="178.7" y2="62.0" opacity="0.5" stroke="rgb(0,0,0)"  stroke-width="2.2"/>
<line x1="180.9" y1="79.8" x2="182.0" y2="55.2" opacity="0.7" stroke="rgb(0,0,0)"  stroke-width="1.1"/>
<line x1="635.5" y1="99.5" x2="675.9" y2="71.2" opacity="0.4" stroke="rgb(0,0,0)"  stroke-width="1.3"/>
<line x1="635.5" y1="99.5" x2="636.8" y2="123.3" opacity="0.4" stroke="rgb(0,0,0)"  stroke-width="1.8"/>
<line x1="635.5" y1="99.5" x2="635.0" y2="117.7" opacity="0.6" stroke="rgb(0,0,0)"  stroke-width="0.6"/>
<line x1="140.4" y1="108.0" x2="101.0" y2="81.1" opacity="0.2" stroke="rgb(0,0,0)"  stroke-width="1.3"/>
<line x1="140.4" y1="108.0" x2="138.2" y2="131.5" opacity="0.4" stroke="rgb(0,0,0)"  stroke-width="1.9"/>
<line x1="140.4" y1="108.0" x2="143.1" y2="126.6" opacity="0.6" stroke="rgb(0,0,0)"  stroke-width="0.7"/>
<line x1="675.9" y1="71.2" x2="677.9" y2="53.3" opacity="0.2" stroke="rgb(0,0,0)"  stroke-width="2.0"/>
<line x1="675.9" y1="71.2" x2="676.0" y2="47.6" opacity="0.7" stroke="rgb(0,0,0)"  stroke-width="0.8"/>
<line x1="675.9" y1="71.2" x2="705.1" y2="91.2" opacity="0.3" stroke="rgb(0,0,0)"  stroke-width="1.3"/>
<line x1="101.0" y1="81.1" x2="68.7" y2="59.3" opacity="0.4" stroke="rgb(0,0,0)"  stroke-width="1.3"/>
<line x1="98.6" y1="84.6" x2="66.3" y2="62.8" opacity="0.4" stroke="rgb(0,0,0)"  stroke-width="1.3"/>
<line x1="103.3" y1="77.6" x2="71.0" y2="55.8" opacity="0.4" stroke="rgb(0,0,0)"  stroke-width="1.3"/>
<line x1="68.7" y1="59.3" x2="40.0" y2="40.0" opacity="0.4" stroke="rgb(0,0,0)"  stroke-width="1.2"/>
<circle cx="634.956239" cy="117.708888" r="5.636364" opacity="0.200000" style="stroke:black;stroke-width:0.5;fill:url(#radialffffffbfbfbf)"/>
<circle cx="143.079242" cy="126.610596" r="5.636364" opacity="0.200000" style="stroke:black;stroke-width:0.5;fill:url(#radialffffffbfbfbf)"/>
<circle cx="551.067143" cy="117.471812" r="5.636364" opacity="0.207494" style="stroke:black;stroke-width:0.5;fill:url(#radialffffffbfbfbf)"/>
<circle cx="675.950860" cy="47.638386" r="5.636364" opacity="0.273277" style="stroke:black;stroke-width:0.5;fill:url(#radialffffffbfbfbf)"/>
<circle cx="470.026203" cy="118.787096" r="5.636364" opacity="0.290359" style="stroke:black;stroke-width:0.5;fill:url(#radialffffffbfbfbf)"/>
<circle cx="388.624779" cy="119.322952" r="5.636364" opacity="0.296719" style="stroke:black;stroke-width:0.5;fill:url(#radialffffffbfbfbf)"/>
<circle cx="224.860637" cy="124.486657" r="5.636364" opacity="0.312377" style="stroke:black;stroke-width:0.5;fill:url(#radialffffffbfbfbf)"/>
<circle cx="593.097752" cy="48.469775" r="5.636364" opacity="0.335232" style="stroke:black;stroke-width:0.5;fill:url(#radialffffffbfbfbf)"/>
<circle cx="305.895081" cy="123.690992" r="5.636364" opacity="0.351288" style="stroke:black;stroke-width:0.5;fill:url(#radialffffffbfbfbf)"/>
<circle cx="182.011629" cy="55.153363" r="5.636364" opacity="0.415042" style="stroke:black;stroke-width:0.5;fill:url(#radialffffffbfbfbf)"/>
<circle cx="509.858179" cy="47.810510" r="5.636364" opacity="0.418174" style="stroke:black;stroke-width:0.5;fill:url(#radialffffffbfbfbf)"/>
<circle cx="264.176242" cy="53.643223" r="5.636364" opacity="0.444459" style="stroke:black;stroke-width:0.5;fill:url(#radialffffffbfbfbf)"/>
<circle cx="428.375564" cy="48.982898" r="5.636364" opacity="0.450091" style="stroke:black;stroke-width:0.5;fill:url(#radialffffffbfbfbf)"/>
<circle cx="344.804735" cy="51.944721" r="5.636364" opacity="0.461443" style="stroke:black;stroke-width:0.5;fill:url(#radialffffffbfbfbf)"/>
<circle cx="40.000000" cy="40.000000" r="5.636364" opacity="0.632021" style="stroke:black;stroke-width:0.5;fill:url(#radialffffffbfbfbf)"/>
<circle cx="705.094940" cy="91.231098" r="5.636364" opacity="0.634862" style="stroke:black;stroke-width:0.5;fill:url(#radialffffffbfbfbf)"/>
<circle cx="68.660186" cy="59.329794" r="13.818182" opacity="0.642680" style="stroke:black;stroke-width:0.5;fill:url(#radialffffff666666)"/>
<circle cx="635.469361" cy="99.499521" r="13.818182" opacity="0.650853" style="stroke:black;stroke-width:0.5;fill:url(#radialffffff666666)"/>
<circle cx="100.973937" cy="81.121278" r="13.818182" opacity="0.654541" style="stroke:black;stroke-width:0.5;fill:url(#radialffffff666666)"/>
<circle cx="675.908641" cy="71.164096" r="13.818182" opacity="0.666258" style="stroke:black;stroke-width:0.5;fill:url(#radialffffff666666)"/>
<circle cx="140.448676" cy="107.959553" r="13.818182" opacity="0.668382" style="stroke:black;stroke-width:0.5;fill:url(#radialffffff666666)"/>
<circle cx="552.431140" cy="99.337140" r="13.818182" opacity="0.683720" style="stroke:black;stroke-width:0.5;fill:url(#radialffffff666666)"/>
<circle cx="594.140236" cy="72.265037" r="13.818182" opacity="0.692449" style="stroke:black;stroke-width:0.5;fill:url(#radialffffff666666)"/>
<circle cx="470.461384" cy="100.681652" r="14.073061" opacity="0.713598" style="stroke:black;stroke-width:0.5;fill:url(#radialffffff666666)"/>
<circle cx="223.363488" cy="105.764167" r="14.289397" opacity="0.719062" style="stroke:black;stroke-width:0.5;fill:url(#radialffffff666666)"/>
<circle cx="388.442913" cy="101.886517" r="14.327940" opacity="0.720031" style="stroke:black;stroke-width:0.5;fill:url(#radialffffff666666)"/>
<circle cx="180.936669" cy="79.815738" r="14.615146" opacity="0.727212" style="stroke:black;stroke-width:0.5;fill:url(#radialffffff666666)"/>
<circle cx="511.118253" cy="72.141628" r="14.778020" opacity="0.731253" style="stroke:black;stroke-width:0.5;fill:url(#radialffffff666666)"/>
<circle cx="305.388454" cy="104.806121" r="14.970733" opacity="0.736006" style="stroke:black;stroke-width:0.5;fill:url(#radialffffff666666)"/>
<circle cx="429.064058" cy="73.424435" r="15.511574" opacity="0.749182" style="stroke:black;stroke-width:0.5;fill:url(#radialffffff666666)"/>
<circle cx="263.971643" cy="77.331313" r="15.642122" opacity="0.752328" style="stroke:black;stroke-width:0.5;fill:url(#radialffffff666666)"/>
<circle cx="346.006352" cy="76.262849" r="15.844782" opacity="0.757186" style="stroke:black;stroke-width:0.5;fill:url(#radialffffff666666)"/>
<circle cx="636.849597" cy="123.294783" r="8.904379" opacity="0.888766" style="stroke:black;stroke-width:0.5;fill:url(#radialffffffbfbfbf)"/>
<circle cx="138.152613" cy="131.459282" r="9.195478" opacity="0.903177" style="stroke:black;stroke-width:0.5;fill:url(#radialffffffbfbfbf)"/>
<circle cx="553.687966" cy="123.473401" r="9.357256" opacity="0.911087" style="stroke:black;stroke-width:0.5;fill:url(#radialffffffbfbfbf)"/>
<circle cx="677.853961" cy="53.302224" r="9.794412" opacity="0.932126" style="stroke:black;stroke-width:0.5;fill:url(#radialffffffbfbfbf)"/>
<circle cx="389.475654" cy="126.597605" r="9.849690" opacity="0.934753" style="stroke:black;stroke-width:0.5;fill:url(#radialffffffbfbfbf)"/>
<circle cx="471.455153" cy="124.642542" r="9.852733" opacity="0.934897" style="stroke:black;stroke-width:0.5;fill:url(#radialffffffbfbfbf)"/>
<circle cx="223.093936" cy="129.371067" r="9.995239" opacity="0.941634" style="stroke:black;stroke-width:0.5;fill:url(#radialffffffbfbfbf)"/>
<circle cx="595.263910" cy="53.711423" r="10.151946" opacity="0.948987" style="stroke:black;stroke-width:0.5;fill:url(#radialffffffbfbfbf)"/>
<circle cx="305.606044" cy="128.062279" r="10.317781" opacity="0.956706" style="stroke:black;stroke-width:0.5;fill:url(#radialffffffbfbfbf)"/>
<circle cx="178.712054" cy="62.015570" r="10.773194" opacity="0.977592" style="stroke:black;stroke-width:0.5;fill:url(#radialffffffbfbfbf)"/>
<circle cx="512.014594" cy="54.490850" r="10.855857" opacity="0.981336" style="stroke:black;stroke-width:0.5;fill:url(#radialffffffbfbfbf)"/>
<circle cx="263.033082" cy="58.930337" r="11.139856" opacity="0.994089" style="stroke:black;stroke-width:0.5;fill:url(#radialffffffbfbfbf)"/>
<circle cx="429.038078" cy="55.913305" r="11.169778" opacity="0.995423" style="stroke:black;stroke-width:0.5;fill:url(#radialffffffbfbfbf)"/>
<circle cx="345.996609" cy="58.352262" r="11.272727" opacity="1.000000" style="stroke:black;stroke-width:0.5;fill:url(#radialffffffbfbfbf)"/>
</svg>
</g>
</svg>
