<?xml version="1.0"?>
<svg version="1.1" id="topsvg"
xmlns="http://www.w3.org/2000/svg" xmlns:xlink="http://www.w3.org/1999/xlink"
xmlns:cml="http://www.xml-cml.org/schema" x="0" y="0" width="1024px" height="1024px" viewBox="0 0 100 100">
<title>12532 - Open Babel Depiction</title>
<rect x="0" y="0" width="100" height="100" fill="white"/>
<defs>
<radialGradient id='radialffffff0ccff' cx='50%' cy='50%' r='50%' fx='30%' fy='30%'>
  <stop offset=' 0%' stop-color="rgb(255,255,255)"  stop-opacity='1.0'/>
  <stop offset='100%' stop-color="rgb(12,12,255)"  stop-opacity ='1.0'/>
</radialGradient>
<radialGradient id='radialffffff666666' cx='50%' cy='50%' r='50%' fx='30%' fy='30%'>
  <stop offset=' 0%' stop-color="rgb(255,255,255)"  stop-opacity='1.0'/>
  <stop offset='100%' stop-color="rgb(102,102,102)"  stop-opacity ='1.0'/>
</radialGradient>
<radialGradient id='radialffffffbfbfbf' cx='50%' cy='50%' r='50%' fx='30%' fy='30%'>
  <stop offset=' 0%' stop-color="rgb(255,255,255)"  stop-opacity='1.0'/>
  <stop offset='100%' stop-color="rgb(191,191,191)"  stop-opacity ='1.0'/>
</radialGradient>
</defs>
<g transform="translate(0,0)">
<svg width="100" height="100" x="0" y="0" viewBox="0 0 841.568 165.168"
font-family="sans-serif" stroke="rgb(0,0,0)" stroke-width="2"  stroke-linecap="round">
<line x1="801.6" y1="110.9" x2="770.4" y2="90.0" opacity="1.0" stroke="rgb(0,0,0)"  stroke-width="1.5"/>
<line x1="799.2" y1="114.4" x2="768.1" y2="93.5" opacity="1.0" stroke="rgb(0,0,0)"  stroke-width="1.5"/>
<line x1="803.9" y1="107.4" x2="772.8" y2="86.5" opacity="1.0" stroke="rgb(0,0,0)"  stroke-width="1.5"/>
<line x1="399.7" y1="71.0" x2="442.1" y2="96.8" opacity="0.5" stroke="rgb(0,0,0)"  stroke-width="1.3"/>
<line x1="399.7" y1="71.0" x2="358.0" y2="97.8" opacity="0.4" stroke="rgb(0,0,0)"  stroke-width="1.3"/>
<line x1="399.7" y1="71.0" x2="399.0" y2="51.5" opacity="0.4" stroke="rgb(0,0,0)"  stroke-width="0.6"/>
<line x1="399.7" y1="71.0" x2="399.7" y2="48.0" opacity="0.2" stroke="rgb(0,0,0)"  stroke-width="1.9"/>
<line x1="442.1" y1="96.8" x2="482.5" y2="68.1" opacity="0.6" stroke="rgb(0,0,0)"  stroke-width="1.3"/>
<line x1="442.1" y1="96.8" x2="443.1" y2="118.6" opacity="0.4" stroke="rgb(0,0,0)"  stroke-width="0.7"/>
<line x1="442.1" y1="96.8" x2="442.3" y2="117.2" opacity="0.2" stroke="rgb(0,0,0)"  stroke-width="2.0"/>
<line x1="358.0" y1="97.8" x2="315.7" y2="72.1" opacity="0.7" stroke="rgb(0,0,0)"  stroke-width="1.4"/>
<line x1="358.0" y1="97.8" x2="359.5" y2="118.3" opacity="0.5" stroke="rgb(0,0,0)"  stroke-width="2.0"/>
<line x1="358.0" y1="97.8" x2="357.4" y2="119.9" opacity="0.7" stroke="rgb(0,0,0)"  stroke-width="0.8"/>
<line x1="482.5" y1="68.1" x2="524.9" y2="93.9" opacity="0.3" stroke="rgb(0,0,0)"  stroke-width="1.4"/>
<line x1="482.5" y1="68.1" x2="482.4" y2="47.7" opacity="0.5" stroke="rgb(0,0,0)"  stroke-width="0.7"/>
<line x1="482.5" y1="68.1" x2="481.3" y2="46.3" opacity="0.2" stroke="rgb(0,0,0)"  stroke-width="2.0"/>
<line x1="315.7" y1="72.1" x2="275.2" y2="100.6" opacity="0.7" stroke="rgb(0,0,0)"  stroke-width="1.5"/>
<line x1="315.7" y1="72.1" x2="315.6" y2="51.0" opacity="0.5" stroke="rgb(0,0,0)"  stroke-width="2.1"/>
<line x1="315.7" y1="72.1" x2="314.5" y2="50.9" opacity="0.7" stroke="rgb(0,0,0)"  stroke-width="0.8"/>
<line x1="524.9" y1="93.9" x2="566.5" y2="67.0" opacity="0.3" stroke="rgb(0,0,0)"  stroke-width="1.4"/>
<line x1="524.9" y1="93.9" x2="524.4" y2="114.9" opacity="0.5" stroke="rgb(0,0,0)"  stroke-width="2.0"/>
<line x1="524.9" y1="93.9" x2="525.9" y2="115.5" opacity="0.7" stroke="rgb(0,0,0)"  stroke-width="0.8"/>
<line x1="275.2" y1="100.6" x2="232.9" y2="74.6" opacity="0.3" stroke="rgb(0,0,0)"  stroke-width="1.4"/>
<line x1="275.2" y1="100.6" x2="276.1" y2="123.0" opacity="0.5" stroke="rgb(0,0,0)"  stroke-width="0.9"/>
<line x1="275.2" y1="100.6" x2="275.4" y2="120.4" opacity="0.3" stroke="rgb(0,0,0)"  stroke-width="2.1"/>
<line x1="566.5" y1="67.0" x2="607.8" y2="94.4" opacity="0.7" stroke="rgb(0,0,0)"  stroke-width="1.4"/>
<line x1="566.5" y1="67.0" x2="566.7" y2="45.1" opacity="0.5" stroke="rgb(0,0,0)"  stroke-width="0.8"/>
<line x1="566.5" y1="67.0" x2="566.2" y2="46.6" opacity="0.3" stroke="rgb(0,0,0)"  stroke-width="2.1"/>
<line x1="232.9" y1="74.6" x2="192.2" y2="102.7" opacity="0.7" stroke="rgb(0,0,0)"  stroke-width="1.5"/>
<line x1="232.9" y1="74.6" x2="232.2" y2="55.9" opacity="0.5" stroke="rgb(0,0,0)"  stroke-width="0.7"/>
<line x1="232.9" y1="74.6" x2="232.7" y2="51.2" opacity="0.2" stroke="rgb(0,0,0)"  stroke-width="2.0"/>
<line x1="607.8" y1="94.4" x2="648.2" y2="66.0" opacity="0.7" stroke="rgb(0,0,0)"  stroke-width="1.5"/>
<line x1="607.8" y1="94.4" x2="607.1" y2="117.5" opacity="0.5" stroke="rgb(0,0,0)"  stroke-width="2.0"/>
<line x1="607.8" y1="94.4" x2="609.1" y2="113.3" opacity="0.7" stroke="rgb(0,0,0)"  stroke-width="0.8"/>
<line x1="192.2" y1="102.7" x2="151.3" y2="74.8" opacity="0.3" stroke="rgb(0,0,0)"  stroke-width="1.5"/>
<line x1="192.2" y1="102.7" x2="191.3" y2="125.2" opacity="0.5" stroke="rgb(0,0,0)"  stroke-width="0.9"/>
<line x1="192.2" y1="102.7" x2="193.3" y2="122.3" opacity="0.3" stroke="rgb(0,0,0)"  stroke-width="2.2"/>
<line x1="648.2" y1="66.0" x2="690.5" y2="91.9" opacity="0.7" stroke="rgb(0,0,0)"  stroke-width="1.6"/>
<line x1="648.2" y1="66.0" x2="646.9" y2="47.6" opacity="0.5" stroke="rgb(0,0,0)"  stroke-width="2.3"/>
<line x1="648.2" y1="66.0" x2="648.3" y2="42.3" opacity="0.8" stroke="rgb(0,0,0)"  stroke-width="1.0"/>
<line x1="151.3" y1="74.8" x2="109.6" y2="101.2" opacity="0.3" stroke="rgb(0,0,0)"  stroke-width="1.6"/>
<line x1="151.3" y1="74.8" x2="152.8" y2="51.8" opacity="0.5" stroke="rgb(0,0,0)"  stroke-width="2.1"/>
<line x1="151.3" y1="74.8" x2="150.1" y2="55.5" opacity="0.7" stroke="rgb(0,0,0)"  stroke-width="0.9"/>
<line x1="690.5" y1="91.9" x2="731.0" y2="63.5" opacity="0.3" stroke="rgb(0,0,0)"  stroke-width="1.6"/>
<line x1="690.5" y1="91.9" x2="690.5" y2="115.5" opacity="0.5" stroke="rgb(0,0,0)"  stroke-width="2.1"/>
<line x1="690.5" y1="91.9" x2="691.5" y2="110.7" opacity="0.7" stroke="rgb(0,0,0)"  stroke-width="0.9"/>
<line x1="109.6" y1="101.2" x2="68.7" y2="73.8" opacity="0.3" stroke="rgb(0,0,0)"  stroke-width="1.7"/>
<line x1="109.6" y1="101.2" x2="108.0" y2="124.5" opacity="0.6" stroke="rgb(0,0,0)"  stroke-width="1.1"/>
<line x1="109.6" y1="101.2" x2="110.3" y2="120.0" opacity="0.4" stroke="rgb(0,0,0)"  stroke-width="2.3"/>
<line x1="731.0" y1="63.5" x2="770.4" y2="90.0" opacity="0.8" stroke="rgb(0,0,0)"  stroke-width="1.6"/>
<line x1="731.0" y1="63.5" x2="731.1" y2="40.0" opacity="0.5" stroke="rgb(0,0,0)"  stroke-width="1.1"/>
<line x1="731.0" y1="63.5" x2="730.5" y2="45.1" opacity="0.4" stroke="rgb(0,0,0)"  stroke-width="2.3"/>
<line x1="68.7" y1="73.8" x2="68.5" y2="50.8" opacity="0.8" stroke="rgb(0,0,0)"  stroke-width="2.2"/>
<line x1="68.7" y1="73.8" x2="40.0" y2="94.3" opacity="0.7" stroke="rgb(0,0,0)"  stroke-width="1.7"/>
<line x1="68.7" y1="73.8" x2="66.3" y2="55.4" opacity="0.6" stroke="rgb(0,0,0)"  stroke-width="1.0"/>
<circle cx="398.963790" cy="51.533961" r="5.636364" opacity="0.200000" style="stroke:black;stroke-width:0.5;fill:url(#radialffffffbfbfbf)"/>
<circle cx="232.197084" cy="55.883468" r="5.636364" opacity="0.200000" style="stroke:black;stroke-width:0.5;fill:url(#radialffffffbfbfbf)"/>
<circle cx="482.410250" cy="47.705488" r="5.636364" opacity="0.200000" style="stroke:black;stroke-width:0.5;fill:url(#radialffffffbfbfbf)"/>
<circle cx="609.118772" cy="113.317027" r="5.636364" opacity="0.203821" style="stroke:black;stroke-width:0.5;fill:url(#radialffffffbfbfbf)"/>
<circle cx="443.119055" cy="118.614753" r="5.636364" opacity="0.207031" style="stroke:black;stroke-width:0.5;fill:url(#radialffffffbfbfbf)"/>
<circle cx="525.911794" cy="115.482072" r="5.636364" opacity="0.249346" style="stroke:black;stroke-width:0.5;fill:url(#radialffffffbfbfbf)"/>
<circle cx="357.358683" cy="119.906013" r="5.636364" opacity="0.251602" style="stroke:black;stroke-width:0.5;fill:url(#radialffffffbfbfbf)"/>
<circle cx="314.507623" cy="50.893185" r="5.636364" opacity="0.262594" style="stroke:black;stroke-width:0.5;fill:url(#radialffffffbfbfbf)"/>
<circle cx="691.510217" cy="110.721562" r="5.636364" opacity="0.271588" style="stroke:black;stroke-width:0.5;fill:url(#radialffffffbfbfbf)"/>
<circle cx="150.142207" cy="55.462757" r="5.636364" opacity="0.272972" style="stroke:black;stroke-width:0.5;fill:url(#radialffffffbfbfbf)"/>
<circle cx="566.743440" cy="45.110024" r="5.636364" opacity="0.281216" style="stroke:black;stroke-width:0.5;fill:url(#radialffffffbfbfbf)"/>
<circle cx="276.145229" cy="123.019276" r="5.636364" opacity="0.301817" style="stroke:black;stroke-width:0.5;fill:url(#radialffffffbfbfbf)"/>
<circle cx="191.265115" cy="125.168140" r="5.636364" opacity="0.323946" style="stroke:black;stroke-width:0.5;fill:url(#radialffffffbfbfbf)"/>
<circle cx="66.262091" cy="55.436867" r="5.636364" opacity="0.337336" style="stroke:black;stroke-width:0.5;fill:url(#radialffffffbfbfbf)"/>
<circle cx="648.296699" cy="42.307439" r="5.636364" opacity="0.385369" style="stroke:black;stroke-width:0.5;fill:url(#radialffffffbfbfbf)"/>
<circle cx="731.134745" cy="40.000000" r="5.636364" opacity="0.411952" style="stroke:black;stroke-width:0.5;fill:url(#radialffffffbfbfbf)"/>
<circle cx="108.016065" cy="124.543545" r="5.636364" opacity="0.417009" style="stroke:black;stroke-width:0.5;fill:url(#radialffffffbfbfbf)"/>
<circle cx="399.711362" cy="71.003183" r="13.818182" opacity="0.657310" style="stroke:black;stroke-width:0.5;fill:url(#radialffffff666666)"/>
<circle cx="442.067276" cy="96.757185" r="13.818182" opacity="0.670506" style="stroke:black;stroke-width:0.5;fill:url(#radialffffff666666)"/>
<circle cx="482.484683" cy="68.139111" r="13.818182" opacity="0.670963" style="stroke:black;stroke-width:0.5;fill:url(#radialffffff666666)"/>
<circle cx="232.938183" cy="74.637481" r="13.818182" opacity="0.680339" style="stroke:black;stroke-width:0.5;fill:url(#radialffffff666666)"/>
<circle cx="358.044766" cy="97.808963" r="13.818182" opacity="0.683998" style="stroke:black;stroke-width:0.5;fill:url(#radialffffff666666)"/>
<circle cx="524.860016" cy="93.906057" r="13.818182" opacity="0.687398" style="stroke:black;stroke-width:0.5;fill:url(#radialffffff666666)"/>
<circle cx="607.788677" cy="94.430328" r="13.818182" opacity="0.691634" style="stroke:black;stroke-width:0.5;fill:url(#radialffffff666666)"/>
<circle cx="315.653252" cy="72.103505" r="13.818182" opacity="0.694963" style="stroke:black;stroke-width:0.5;fill:url(#radialffffff666666)"/>
<circle cx="566.529848" cy="67.029080" r="13.818182" opacity="0.696824" style="stroke:black;stroke-width:0.5;fill:url(#radialffffff666666)"/>
<circle cx="275.154939" cy="100.595366" r="13.818182" opacity="0.700969" style="stroke:black;stroke-width:0.5;fill:url(#radialffffff666666)"/>
<circle cx="192.210097" cy="102.695686" r="13.938589" opacity="0.710181" style="stroke:black;stroke-width:0.5;fill:url(#radialffffff666666)"/>
<circle cx="801.568282" cy="110.918973" r="13.049546" opacity="0.710943" style="stroke:black;stroke-width:0.5;fill:url(#radialffffff0ccff)"/>
<circle cx="151.265183" cy="74.779876" r="14.033613" opacity="0.712598" style="stroke:black;stroke-width:0.5;fill:url(#radialffffff666666)"/>
<circle cx="690.484329" cy="91.876934" r="14.149464" opacity="0.715533" style="stroke:black;stroke-width:0.5;fill:url(#radialffffff666666)"/>
<circle cx="770.412996" cy="90.012860" r="14.579025" opacity="0.726313" style="stroke:black;stroke-width:0.5;fill:url(#radialffffff666666)"/>
<circle cx="648.209320" cy="66.042027" r="14.726117" opacity="0.729968" style="stroke:black;stroke-width:0.5;fill:url(#radialffffff666666)"/>
<circle cx="68.702216" cy="73.773405" r="15.296261" opacity="0.743964" style="stroke:black;stroke-width:0.5;fill:url(#radialffffff666666)"/>
<circle cx="730.963225" cy="63.527468" r="15.363949" opacity="0.745609" style="stroke:black;stroke-width:0.5;fill:url(#radialffffff666666)"/>
<circle cx="109.550043" cy="101.207016" r="15.543583" opacity="0.749955" style="stroke:black;stroke-width:0.5;fill:url(#radialffffff666666)"/>
<circle cx="40.000000" cy="94.342950" r="6.696417" opacity="0.770738" style="stroke:black;stroke-width:0.5;fill:url(#radialffffffbfbfbf)"/>
<circle cx="399.714598" cy="47.974096" r="9.306597" opacity="0.908617" style="stroke:black;stroke-width:0.5;fill:url(#radialffffffbfbfbf)"/>
<circle cx="232.747245" cy="51.161793" r="9.589597" opacity="0.922329" style="stroke:black;stroke-width:0.5;fill:url(#radialffffffbfbfbf)"/>
<circle cx="481.300219" cy="46.271834" r="9.658090" opacity="0.925617" style="stroke:black;stroke-width:0.5;fill:url(#radialffffffbfbfbf)"/>
<circle cx="607.076704" cy="117.546794" r="9.808351" opacity="0.932789" style="stroke:black;stroke-width:0.5;fill:url(#radialffffffbfbfbf)"/>
<circle cx="442.309994" cy="117.213461" r="9.827465" opacity="0.933698" style="stroke:black;stroke-width:0.5;fill:url(#radialffffffbfbfbf)"/>
<circle cx="524.374580" cy="114.918966" r="10.023919" opacity="0.942984" style="stroke:black;stroke-width:0.5;fill:url(#radialffffffbfbfbf)"/>
<circle cx="359.475184" cy="118.300838" r="10.027104" opacity="0.943134" style="stroke:black;stroke-width:0.5;fill:url(#radialffffffbfbfbf)"/>
<circle cx="315.556165" cy="50.954674" r="10.121084" opacity="0.947543" style="stroke:black;stroke-width:0.5;fill:url(#radialffffffbfbfbf)"/>
<circle cx="690.549054" cy="115.488545" r="10.127986" opacity="0.947866" style="stroke:black;stroke-width:0.5;fill:url(#radialffffffbfbfbf)"/>
<circle cx="152.825051" cy="51.828459" r="10.161436" opacity="0.949430" style="stroke:black;stroke-width:0.5;fill:url(#radialffffffbfbfbf)"/>
<circle cx="566.245059" cy="46.595458" r="10.236301" opacity="0.952921" style="stroke:black;stroke-width:0.5;fill:url(#radialffffffbfbfbf)"/>
<circle cx="275.397657" cy="120.443229" r="10.367447" opacity="0.959006" style="stroke:black;stroke-width:0.5;fill:url(#radialffffffbfbfbf)"/>
<circle cx="193.329836" cy="122.271705" r="10.537884" opacity="0.966857" style="stroke:black;stroke-width:0.5;fill:url(#radialffffffbfbfbf)"/>
<circle cx="68.511278" cy="50.821988" r="10.665314" opacity="0.972685" style="stroke:black;stroke-width:0.5;fill:url(#radialffffffbfbfbf)"/>
<circle cx="646.879225" cy="47.640764" r="10.983356" opacity="0.987082" style="stroke:black;stroke-width:0.5;fill:url(#radialffffffbfbfbf)"/>
<circle cx="730.461607" cy="45.106787" r="11.238746" opacity="0.998492" style="stroke:black;stroke-width:0.5;fill:url(#radialffffffbfbfbf)"/>
<circle cx="110.262016" cy="120.041935" r="11.272727" opacity="1.000000" style="stroke:black;stroke-width:0.5;fill:url(#radialffffffbfbfbf)"/>
</svg>
</g>
</svg>
