<?xml version="1.0"?>
<svg version="1.1" id="topsvg"
xmlns="http://www.w3.org/2000/svg" xmlns:xlink="http://www.w3.org/1999/xlink"
xmlns:cml="http://www.xml-cml.org/schema" x="0" y="0" width="200px" height="200px" viewBox="0 0 100 100">
<title>12585 - Open Babel Depiction</title>
<rect x="0" y="0" width="100" height="100" fill="white"/>
<defs>
<radialGradient id='radialffffff666666' cx='50%' cy='50%' r='50%' fx='30%' fy='30%'>
  <stop offset=' 0%' stop-color="rgb(255,255,255)"  stop-opacity='1.0'/>
  <stop offset='100%' stop-color="rgb(102,102,102)"  stop-opacity ='1.0'/>
</radialGradient>
<radialGradient id='radialffffffbfbfbf' cx='50%' cy='50%' r='50%' fx='30%' fy='30%'>
  <stop offset=' 0%' stop-color="rgb(255,255,255)"  stop-opacity='1.0'/>
  <stop offset='100%' stop-color="rgb(191,191,191)"  stop-opacity ='1.0'/>
</radialGradient>
</defs>
<g transform="translate(0,0)">
<svg width="100" height="100" x="0" y="0" viewBox="0 0 291.852 179.163"
font-family="sans-serif" stroke="rgb(0,0,0)" stroke-width="4"  stroke-linecap="round">
<line x1="189.9" y1="68.7" x2="143.3" y2="74.5" opacity="1.0" stroke="rgb(0,0,0)"  stroke-width="1.6"/>
<line x1="189.9" y1="68.7" x2="217.9" y2="110.3" opacity="0.5" stroke="rgb(0,0,0)"  stroke-width="1.5"/>
<line x1="189.9" y1="68.7" x2="205.3" y2="40.0" opacity="0.5" stroke="rgb(0,0,0)"  stroke-width="1.6"/>
<line x1="189.9" y1="68.7" x2="189.4" y2="61.0" opacity="0.5" stroke="rgb(0,0,0)"  stroke-width="0.8"/>
<line x1="144.6" y1="77.2" x2="110.9" y2="93.4" opacity="0.3" stroke="rgb(0,0,0)"  stroke-width="1.5"/>
<line x1="142.0" y1="71.8" x2="108.3" y2="88.0" opacity="0.3" stroke="rgb(0,0,0)"  stroke-width="1.5"/>
<line x1="143.3" y1="74.5" x2="137.5" y2="65.3" opacity="0.5" stroke="rgb(0,0,0)"  stroke-width="2.4"/>
<line x1="217.9" y1="110.3" x2="251.9" y2="105.1" opacity="0.8" stroke="rgb(0,0,0)"  stroke-width="1.4"/>
<line x1="217.9" y1="110.3" x2="203.9" y2="139.2" opacity="0.5" stroke="rgb(0,0,0)"  stroke-width="1.3"/>
<line x1="217.9" y1="110.3" x2="219.8" y2="118.4" opacity="0.4" stroke="rgb(0,0,0)"  stroke-width="2.2"/>
<line x1="109.6" y1="90.7" x2="63.1" y2="96.4" opacity="0.7" stroke="rgb(0,0,0)"  stroke-width="1.4"/>
<line x1="109.6" y1="90.7" x2="115.5" y2="100.3" opacity="0.5" stroke="rgb(0,0,0)"  stroke-width="0.6"/>
<line x1="63.1" y1="96.4" x2="40.0" y2="76.6" opacity="0.2" stroke="rgb(0,0,0)"  stroke-width="1.3"/>
<line x1="63.1" y1="96.4" x2="59.8" y2="85.9" opacity="0.4" stroke="rgb(0,0,0)"  stroke-width="2.2"/>
<line x1="63.1" y1="96.4" x2="53.2" y2="131.4" opacity="0.7" stroke="rgb(0,0,0)"  stroke-width="1.6"/>
<circle cx="115.518233" cy="100.251816" r="5.636364" opacity="0.200000" style="stroke:black;stroke-width:0.5;fill:url(#radialffffffbfbfbf)"/>
<circle cx="189.358728" cy="60.973396" r="5.636364" opacity="0.252850" style="stroke:black;stroke-width:0.5;fill:url(#radialffffffbfbfbf)"/>
<circle cx="40.000000" cy="76.563353" r="5.636364" opacity="0.579282" style="stroke:black;stroke-width:0.5;fill:url(#radialffffffbfbfbf)"/>
<circle cx="203.891344" cy="139.163335" r="5.636364" opacity="0.584857" style="stroke:black;stroke-width:0.5;fill:url(#radialffffffbfbfbf)"/>
<circle cx="109.561095" cy="90.712390" r="13.818182" opacity="0.606966" style="stroke:black;stroke-width:0.5;fill:url(#radialffffff666666)"/>
<circle cx="251.851976" cy="105.081567" r="5.636364" opacity="0.630931" style="stroke:black;stroke-width:0.5;fill:url(#radialffffffbfbfbf)"/>
<circle cx="189.899073" cy="68.694994" r="13.818182" opacity="0.667911" style="stroke:black;stroke-width:0.5;fill:url(#radialffffff666666)"/>
<circle cx="53.228449" cy="131.418389" r="5.929587" opacity="0.725267" style="stroke:black;stroke-width:0.5;fill:url(#radialffffffbfbfbf)"/>
<circle cx="217.856930" cy="110.298233" r="14.624756" opacity="0.727451" style="stroke:black;stroke-width:0.5;fill:url(#radialffffff666666)"/>
<circle cx="63.124770" cy="96.366001" r="15.219955" opacity="0.742106" style="stroke:black;stroke-width:0.5;fill:url(#radialffffff666666)"/>
<circle cx="205.268890" cy="40.000000" r="7.032542" opacity="0.789845" style="stroke:black;stroke-width:0.5;fill:url(#radialffffffbfbfbf)"/>
<circle cx="143.292639" cy="74.532056" r="17.422389" opacity="0.793987" style="stroke:black;stroke-width:0.5;fill:url(#radialffffff666666)"/>
<circle cx="219.838195" cy="118.423422" r="10.251369" opacity="0.953622" style="stroke:black;stroke-width:0.5;fill:url(#radialffffffbfbfbf)"/>
<circle cx="59.775964" cy="85.865961" r="10.402904" opacity="0.960645" style="stroke:black;stroke-width:0.5;fill:url(#radialffffffbfbfbf)"/>
<circle cx="137.455578" cy="65.296157" r="11.272727" opacity="1.000000" style="stroke:black;stroke-width:0.5;fill:url(#radialffffffbfbfbf)"/>
</svg>
</g>
</svg>
