<?xml version="1.0"?>
<svg version="1.1" id="topsvg"
xmlns="http://www.w3.org/2000/svg" xmlns:xlink="http://www.w3.org/1999/xlink"
xmlns:cml="http://www.xml-cml.org/schema" x="0" y="0" width="1024px" height="1024px" viewBox="0 0 100 100">
<title>12784 - Open Babel Depiction</title>
<rect x="0" y="0" width="100" height="100" fill="white"/>
<defs>
<radialGradient id='radialffffff666666' cx='50%' cy='50%' r='50%' fx='30%' fy='30%'>
  <stop offset=' 0%' stop-color="rgb(255,255,255)"  stop-opacity='1.0'/>
  <stop offset='100%' stop-color="rgb(102,102,102)"  stop-opacity ='1.0'/>
</radialGradient>
<radialGradient id='radialffffffbfbfbf' cx='50%' cy='50%' r='50%' fx='30%' fy='30%'>
  <stop offset=' 0%' stop-color="rgb(255,255,255)"  stop-opacity='1.0'/>
  <stop offset='100%' stop-color="rgb(191,191,191)"  stop-opacity ='1.0'/>
</radialGradient>
</defs>
<g transform="translate(0,0)">
<svg width="100" height="100" x="0" y="0" viewBox="0 0 297.543 269.514"
font-family="sans-serif" stroke="rgb(0,0,0)" stroke-width="2"  stroke-linecap="round">
<line x1="148.8" y1="102.0" x2="148.8" y2="53.5" opacity="1.0" stroke="rgb(0,0,0)"  stroke-width="1.5"/>
<line x1="109.7" y1="124.6" x2="67.7" y2="100.4" opacity="0.5" stroke="rgb(0,0,0)"  stroke-width="1.5"/>
<line x1="187.9" y1="124.6" x2="229.9" y2="100.4" opacity="0.5" stroke="rgb(0,0,0)"  stroke-width="1.5"/>
<line x1="109.7" y1="169.7" x2="68.2" y2="194.7" opacity="0.5" stroke="rgb(0,0,0)"  stroke-width="1.5"/>
<line x1="187.9" y1="169.7" x2="229.3" y2="194.7" opacity="0.5" stroke="rgb(0,0,0)"  stroke-width="1.5"/>
<line x1="148.8" y1="192.3" x2="148.8" y2="227.5" opacity="0.5" stroke="rgb(0,0,0)"  stroke-width="1.5"/>
<line x1="148.8" y1="53.5" x2="176.7" y2="40.0" opacity="0.5" stroke="rgb(0,0,0)"  stroke-width="1.1"/>
<line x1="148.8" y1="53.5" x2="120.8" y2="40.0" opacity="0.4" stroke="rgb(0,0,0)"  stroke-width="1.1"/>
<line x1="148.8" y1="53.5" x2="148.8" y2="41.3" opacity="0.4" stroke="rgb(0,0,0)"  stroke-width="2.2"/>
<line x1="67.7" y1="100.4" x2="68.5" y2="73.2" opacity="0.7" stroke="rgb(0,0,0)"  stroke-width="2.0"/>
<line x1="67.7" y1="100.4" x2="60.6" y2="88.2" opacity="0.7" stroke="rgb(0,0,0)"  stroke-width="0.7"/>
<line x1="67.7" y1="100.4" x2="40.0" y2="119.9" opacity="0.2" stroke="rgb(0,0,0)"  stroke-width="1.7"/>
<line x1="229.9" y1="100.4" x2="236.9" y2="88.2" opacity="0.6" stroke="rgb(0,0,0)"  stroke-width="0.7"/>
<line x1="229.9" y1="100.4" x2="229.0" y2="73.3" opacity="0.2" stroke="rgb(0,0,0)"  stroke-width="2.0"/>
<line x1="229.9" y1="100.4" x2="257.5" y2="119.9" opacity="0.7" stroke="rgb(0,0,0)"  stroke-width="1.7"/>
<line x1="68.2" y1="194.7" x2="50.9" y2="190.2" opacity="0.6" stroke="rgb(0,0,0)"  stroke-width="2.2"/>
<line x1="68.2" y1="194.7" x2="47.6" y2="185.0" opacity="0.7" stroke="rgb(0,0,0)"  stroke-width="0.9"/>
<line x1="68.2" y1="194.7" x2="74.0" y2="229.5" opacity="0.3" stroke="rgb(0,0,0)"  stroke-width="1.4"/>
<line x1="229.3" y1="194.7" x2="250.0" y2="185.0" opacity="0.5" stroke="rgb(0,0,0)"  stroke-width="0.9"/>
<line x1="229.3" y1="194.7" x2="246.6" y2="190.2" opacity="0.3" stroke="rgb(0,0,0)"  stroke-width="2.2"/>
<line x1="229.3" y1="194.7" x2="223.5" y2="229.5" opacity="0.7" stroke="rgb(0,0,0)"  stroke-width="1.4"/>
<line x1="147.3" y1="104.6" x2="186.4" y2="127.2" opacity="0.5" stroke="rgb(0,0,0)"  stroke-width="1.5"/>
<line x1="150.3" y1="99.4" x2="189.4" y2="122.0" opacity="0.5" stroke="rgb(0,0,0)"  stroke-width="1.5" stroke-dasharray="5.0,5.0"/>
<line x1="184.9" y1="124.6" x2="184.9" y2="169.7" opacity="0.5" stroke="rgb(0,0,0)"  stroke-width="1.5"/>
<line x1="190.9" y1="124.6" x2="190.9" y2="169.7" opacity="0.5" stroke="rgb(0,0,0)"  stroke-width="1.5" stroke-dasharray="5.0,5.0"/>
<line x1="186.4" y1="167.1" x2="147.3" y2="189.7" opacity="0.5" stroke="rgb(0,0,0)"  stroke-width="1.5"/>
<line x1="189.4" y1="172.3" x2="150.3" y2="194.9" opacity="0.5" stroke="rgb(0,0,0)"  stroke-width="1.5" stroke-dasharray="5.0,5.0"/>
<line x1="150.3" y1="189.7" x2="111.2" y2="167.1" opacity="0.5" stroke="rgb(0,0,0)"  stroke-width="1.5"/>
<line x1="147.3" y1="194.9" x2="108.2" y2="172.3" opacity="0.5" stroke="rgb(0,0,0)"  stroke-width="1.5" stroke-dasharray="5.0,5.0"/>
<line x1="112.7" y1="169.7" x2="112.7" y2="124.6" opacity="0.5" stroke="rgb(0,0,0)"  stroke-width="1.5"/>
<line x1="106.7" y1="169.7" x2="106.7" y2="124.6" opacity="0.5" stroke="rgb(0,0,0)"  stroke-width="1.5" stroke-dasharray="5.0,5.0"/>
<line x1="111.2" y1="127.2" x2="150.3" y2="104.6" opacity="0.5" stroke="rgb(0,0,0)"  stroke-width="1.5"/>
<line x1="108.2" y1="122.0" x2="147.3" y2="99.4" opacity="0.5" stroke="rgb(0,0,0)"  stroke-width="1.5" stroke-dasharray="5.0,5.0"/>
<circle cx="60.647659" cy="88.182187" r="5.636364" opacity="0.200000" style="stroke:black;stroke-width:0.5;fill:url(#radialffffffbfbfbf)"/>
<circle cx="236.895840" cy="88.188663" r="5.636364" opacity="0.200000" style="stroke:black;stroke-width:0.5;fill:url(#radialffffffbfbfbf)"/>
<circle cx="249.970209" cy="184.996621" r="5.636364" opacity="0.286523" style="stroke:black;stroke-width:0.5;fill:url(#radialffffffbfbfbf)"/>
<circle cx="47.550626" cy="184.973956" r="5.636364" opacity="0.286695" style="stroke:black;stroke-width:0.5;fill:url(#radialffffffbfbfbf)"/>
<circle cx="120.838967" cy="40.000000" r="5.636364" opacity="0.484334" style="stroke:black;stroke-width:0.5;fill:url(#radialffffffbfbfbf)"/>
<circle cx="176.720721" cy="40.000000" r="5.636364" opacity="0.484537" style="stroke:black;stroke-width:0.5;fill:url(#radialffffffbfbfbf)"/>
<circle cx="223.513878" cy="229.513582" r="5.636364" opacity="0.662241" style="stroke:black;stroke-width:0.5;fill:url(#radialffffffbfbfbf)"/>
<circle cx="74.000481" cy="229.497393" r="5.636364" opacity="0.662279" style="stroke:black;stroke-width:0.5;fill:url(#radialffffffbfbfbf)"/>
<circle cx="148.771750" cy="101.978592" r="13.818182" opacity="0.702991" style="stroke:black;stroke-width:0.5;fill:url(#radialffffff666666)"/>
<circle cx="109.658731" cy="124.562475" r="13.818182" opacity="0.702991" style="stroke:black;stroke-width:0.5;fill:url(#radialffffff666666)"/>
<circle cx="67.660804" cy="100.421195" r="13.818182" opacity="0.702991" style="stroke:black;stroke-width:0.5;fill:url(#radialffffff666666)"/>
<circle cx="229.299885" cy="194.693930" r="13.818182" opacity="0.702991" style="stroke:black;stroke-width:0.5;fill:url(#radialffffff666666)"/>
<circle cx="187.888006" cy="124.562475" r="13.818182" opacity="0.703026" style="stroke:black;stroke-width:0.5;fill:url(#radialffffff666666)"/>
<circle cx="109.652256" cy="169.723765" r="13.818182" opacity="0.703026" style="stroke:black;stroke-width:0.5;fill:url(#radialffffff666666)"/>
<circle cx="187.878292" cy="169.730240" r="13.818182" opacity="0.703026" style="stroke:black;stroke-width:0.5;fill:url(#radialffffff666666)"/>
<circle cx="148.762036" cy="192.304409" r="13.818182" opacity="0.703026" style="stroke:black;stroke-width:0.5;fill:url(#radialffffff666666)"/>
<circle cx="229.882695" cy="100.430908" r="13.818182" opacity="0.703026" style="stroke:black;stroke-width:0.5;fill:url(#radialffffff666666)"/>
<circle cx="148.774987" cy="53.530903" r="13.818182" opacity="0.703061" style="stroke:black;stroke-width:0.5;fill:url(#radialffffff666666)"/>
<circle cx="68.224187" cy="194.677741" r="13.818182" opacity="0.703061" style="stroke:black;stroke-width:0.5;fill:url(#radialffffff666666)"/>
<circle cx="148.762036" cy="227.515839" r="5.636364" opacity="0.703725" style="stroke:black;stroke-width:0.5;fill:url(#radialffffffbfbfbf)"/>
<circle cx="40.000000" cy="119.893520" r="7.350284" opacity="0.807491" style="stroke:black;stroke-width:0.5;fill:url(#radialffffffbfbfbf)"/>
<circle cx="257.543499" cy="119.912947" r="7.350284" opacity="0.807491" style="stroke:black;stroke-width:0.5;fill:url(#radialffffffbfbfbf)"/>
<circle cx="68.547970" cy="73.242828" r="9.472861" opacity="0.916698" style="stroke:black;stroke-width:0.5;fill:url(#radialffffffbfbfbf)"/>
<circle cx="229.005242" cy="73.255779" r="9.474525" opacity="0.916778" style="stroke:black;stroke-width:0.5;fill:url(#radialffffffbfbfbf)"/>
<circle cx="246.619052" cy="190.193343" r="10.811394" opacity="0.979324" style="stroke:black;stroke-width:0.5;fill:url(#radialffffffbfbfbf)"/>
<circle cx="50.908258" cy="190.173916" r="10.813057" opacity="0.979399" style="stroke:black;stroke-width:0.5;fill:url(#radialffffffbfbfbf)"/>
<circle cx="148.768512" cy="41.343701" r="11.272727" opacity="1.000000" style="stroke:black;stroke-width:0.5;fill:url(#radialffffffbfbfbf)"/>
</svg>
</g>
</svg>
