<?xml version="1.0"?>
<svg version="1.1" id="topsvg"
xmlns="http://www.w3.org/2000/svg" xmlns:xlink="http://www.w3.org/1999/xlink"
xmlns:cml="http://www.xml-cml.org/schema" x="0" y="0" width="200px" height="200px" viewBox="0 0 100 100">
<title>13058 - Open Babel Depiction</title>
<rect x="0" y="0" width="100" height="100" fill="white"/>
<defs>
<radialGradient id='radialffffff666666' cx='50%' cy='50%' r='50%' fx='30%' fy='30%'>
  <stop offset=' 0%' stop-color="rgb(255,255,255)"  stop-opacity='1.0'/>
  <stop offset='100%' stop-color="rgb(102,102,102)"  stop-opacity ='1.0'/>
</radialGradient>
<radialGradient id='radialffffffbfbfbf' cx='50%' cy='50%' r='50%' fx='30%' fy='30%'>
  <stop offset=' 0%' stop-color="rgb(255,255,255)"  stop-opacity='1.0'/>
  <stop offset='100%' stop-color="rgb(191,191,191)"  stop-opacity ='1.0'/>
</radialGradient>
</defs>
<g transform="translate(0,0)">
<svg width="100" height="100" x="0" y="0" viewBox="0 0 370.271 251.407"
font-family="sans-serif" stroke="rgb(0,0,0)" stroke-width="4"  stroke-linecap="round">
<line x1="205.6" y1="67.2" x2="199.5" y2="64.4" opacity="1.0" stroke="rgb(0,0,0)"  stroke-width="2.4"/>
<line x1="205.6" y1="67.2" x2="224.0" y2="40.0" opacity="0.8" stroke="rgb(0,0,0)"  stroke-width="1.7"/>
<line x1="164.6" y1="67.2" x2="170.8" y2="64.4" opacity="0.6" stroke="rgb(0,0,0)"  stroke-width="0.6"/>
<line x1="164.6" y1="67.2" x2="146.2" y2="40.0" opacity="0.2" stroke="rgb(0,0,0)"  stroke-width="1.3"/>
<line x1="273.6" y1="105.9" x2="290.0" y2="76.6" opacity="0.4" stroke="rgb(0,0,0)"  stroke-width="1.8"/>
<line x1="96.7" y1="105.9" x2="80.2" y2="76.6" opacity="0.6" stroke="rgb(0,0,0)"  stroke-width="1.2"/>
<line x1="232.2" y1="181.3" x2="217.5" y2="211.4" opacity="0.4" stroke="rgb(0,0,0)"  stroke-width="1.2"/>
<line x1="138.1" y1="181.3" x2="152.8" y2="211.4" opacity="0.4" stroke="rgb(0,0,0)"  stroke-width="1.8"/>
<line x1="296.4" y1="142.3" x2="330.3" y2="141.4" opacity="0.6" stroke="rgb(0,0,0)"  stroke-width="1.5"/>
<line x1="73.8" y1="142.3" x2="40.0" y2="141.4" opacity="0.5" stroke="rgb(0,0,0)"  stroke-width="1.5"/>
<line x1="275.7" y1="179.9" x2="293.4" y2="208.4" opacity="0.5" stroke="rgb(0,0,0)"  stroke-width="1.2"/>
<line x1="94.5" y1="179.9" x2="76.8" y2="208.4" opacity="0.4" stroke="rgb(0,0,0)"  stroke-width="1.8"/>
<line x1="293.8" y1="140.9" x2="273.1" y2="178.5" opacity="0.5" stroke="rgb(0,0,0)"  stroke-width="1.4"/>
<line x1="299.1" y1="143.8" x2="278.4" y2="181.4" opacity="0.5" stroke="rgb(0,0,0)"  stroke-width="1.4" stroke-dasharray="5.0,5.0"/>
<line x1="275.6" y1="176.9" x2="232.1" y2="178.3" opacity="0.4" stroke="rgb(0,0,0)"  stroke-width="1.3"/>
<line x1="275.8" y1="182.9" x2="232.2" y2="184.3" opacity="0.4" stroke="rgb(0,0,0)"  stroke-width="1.3" stroke-dasharray="5.0,5.0"/>
<line x1="234.7" y1="179.6" x2="210.8" y2="143.4" opacity="0.5" stroke="rgb(0,0,0)"  stroke-width="1.4"/>
<line x1="229.6" y1="182.9" x2="205.8" y2="146.7" opacity="0.5" stroke="rgb(0,0,0)"  stroke-width="1.4" stroke-dasharray="5.0,5.0"/>
<line x1="210.9" y1="146.5" x2="232.5" y2="108.4" opacity="0.5" stroke="rgb(0,0,0)"  stroke-width="1.6"/>
<line x1="205.7" y1="143.6" x2="227.3" y2="105.4" opacity="0.5" stroke="rgb(0,0,0)"  stroke-width="1.6" stroke-dasharray="5.0,5.0"/>
<line x1="230.0" y1="109.9" x2="273.7" y2="108.9" opacity="0.6" stroke="rgb(0,0,0)"  stroke-width="1.7"/>
<line x1="229.8" y1="103.9" x2="273.5" y2="102.9" opacity="0.6" stroke="rgb(0,0,0)"  stroke-width="1.7" stroke-dasharray="5.0,5.0"/>
<line x1="271.1" y1="107.5" x2="293.9" y2="143.9" opacity="0.5" stroke="rgb(0,0,0)"  stroke-width="1.6"/>
<line x1="276.2" y1="104.3" x2="299.0" y2="140.7" opacity="0.5" stroke="rgb(0,0,0)"  stroke-width="1.6" stroke-dasharray="5.0,5.0"/>
<line x1="140.4" y1="103.9" x2="96.7" y2="102.9" opacity="0.4" stroke="rgb(0,0,0)"  stroke-width="1.3"/>
<line x1="140.3" y1="109.9" x2="96.6" y2="108.9" opacity="0.4" stroke="rgb(0,0,0)"  stroke-width="1.3" stroke-dasharray="5.0,5.0"/>
<line x1="94.1" y1="104.3" x2="71.3" y2="140.7" opacity="0.5" stroke="rgb(0,0,0)"  stroke-width="1.4"/>
<line x1="99.2" y1="107.5" x2="76.4" y2="143.9" opacity="0.5" stroke="rgb(0,0,0)"  stroke-width="1.4" stroke-dasharray="5.0,5.0"/>
<line x1="71.2" y1="143.8" x2="91.9" y2="181.4" opacity="0.5" stroke="rgb(0,0,0)"  stroke-width="1.6"/>
<line x1="76.5" y1="140.9" x2="97.2" y2="178.5" opacity="0.5" stroke="rgb(0,0,0)"  stroke-width="1.6" stroke-dasharray="5.0,5.0"/>
<line x1="94.5" y1="182.9" x2="138.0" y2="184.3" opacity="0.6" stroke="rgb(0,0,0)"  stroke-width="1.7"/>
<line x1="94.6" y1="176.9" x2="138.2" y2="178.3" opacity="0.6" stroke="rgb(0,0,0)"  stroke-width="1.7" stroke-dasharray="5.0,5.0"/>
<line x1="140.6" y1="182.9" x2="164.5" y2="146.7" opacity="0.5" stroke="rgb(0,0,0)"  stroke-width="1.6"/>
<line x1="135.6" y1="179.6" x2="159.5" y2="143.4" opacity="0.5" stroke="rgb(0,0,0)"  stroke-width="1.6" stroke-dasharray="5.0,5.0"/>
<line x1="164.6" y1="143.6" x2="143.0" y2="105.4" opacity="0.5" stroke="rgb(0,0,0)"  stroke-width="1.4"/>
<line x1="159.4" y1="146.5" x2="137.8" y2="108.4" opacity="0.5" stroke="rgb(0,0,0)"  stroke-width="1.4" stroke-dasharray="5.0,5.0"/>
<line x1="164.6" y1="67.2" x2="205.6" y2="67.2" opacity="0.5" stroke="rgb(0,0,0)"  stroke-width="1.5"/>
<line x1="205.6" y1="67.2" x2="229.9" y2="106.9" opacity="0.5" stroke="rgb(0,0,0)"  stroke-width="1.8"/>
<line x1="208.3" y1="145.0" x2="162.0" y2="145.0" opacity="0.6" stroke="rgb(0,0,0)"  stroke-width="1.5"/>
<line x1="140.4" y1="106.9" x2="164.6" y2="67.2" opacity="0.5" stroke="rgb(0,0,0)"  stroke-width="1.2"/>
<circle cx="170.778824" cy="64.426515" r="5.636364" opacity="0.200000" style="stroke:black;stroke-width:0.5;fill:url(#radialffffffbfbfbf)"/>
<circle cx="164.636338" cy="67.226490" r="13.818182" opacity="0.605783" style="stroke:black;stroke-width:0.5;fill:url(#radialffffff666666)"/>
<circle cx="217.461716" cy="211.406535" r="5.636364" opacity="0.612028" style="stroke:black;stroke-width:0.5;fill:url(#radialffffffbfbfbf)"/>
<circle cx="293.447696" cy="208.422596" r="5.636364" opacity="0.614613" style="stroke:black;stroke-width:0.5;fill:url(#radialffffffbfbfbf)"/>
<circle cx="80.222369" cy="76.630418" r="5.636364" opacity="0.624276" style="stroke:black;stroke-width:0.5;fill:url(#radialffffffbfbfbf)"/>
<circle cx="275.728027" cy="179.942664" r="13.818182" opacity="0.655301" style="stroke:black;stroke-width:0.5;fill:url(#radialffffff666666)"/>
<circle cx="232.153794" cy="181.295882" r="13.818182" opacity="0.655951" style="stroke:black;stroke-width:0.5;fill:url(#radialffffff666666)"/>
<circle cx="96.654298" cy="105.892971" r="13.818182" opacity="0.664552" style="stroke:black;stroke-width:0.5;fill:url(#radialffffff666666)"/>
<circle cx="140.378196" cy="106.928151" r="13.818182" opacity="0.667598" style="stroke:black;stroke-width:0.5;fill:url(#radialffffff666666)"/>
<circle cx="146.233825" cy="40.000000" r="5.636364" opacity="0.685618" style="stroke:black;stroke-width:0.5;fill:url(#radialffffffbfbfbf)"/>
<circle cx="296.428516" cy="142.330072" r="13.818182" opacity="0.703492" style="stroke:black;stroke-width:0.5;fill:url(#radialffffff666666)"/>
<circle cx="330.271430" cy="141.385314" r="5.636364" opacity="0.704340" style="stroke:black;stroke-width:0.5;fill:url(#radialffffffbfbfbf)"/>
<circle cx="208.266695" cy="145.033390" r="13.818182" opacity="0.704703" style="stroke:black;stroke-width:0.5;fill:url(#radialffffff666666)"/>
<circle cx="162.001617" cy="145.033390" r="13.909137" opacity="0.709430" style="stroke:black;stroke-width:0.5;fill:url(#radialffffff666666)"/>
<circle cx="40.000000" cy="141.385314" r="5.682307" opacity="0.709983" style="stroke:black;stroke-width:0.5;fill:url(#radialffffffbfbfbf)"/>
<circle cx="73.839796" cy="142.330072" r="13.960977" opacity="0.710751" style="stroke:black;stroke-width:0.5;fill:url(#radialffffff666666)"/>
<circle cx="224.028252" cy="40.003118" r="5.974111" opacity="0.727985" style="stroke:black;stroke-width:0.5;fill:url(#radialffffffbfbfbf)"/>
<circle cx="229.886998" cy="106.928151" r="15.316357" opacity="0.744453" style="stroke:black;stroke-width:0.5;fill:url(#radialffffff666666)"/>
<circle cx="273.617132" cy="105.889853" r="15.430405" opacity="0.747220" style="stroke:black;stroke-width:0.5;fill:url(#radialffffff666666)"/>
<circle cx="138.114518" cy="181.295882" r="15.742388" opacity="0.754736" style="stroke:black;stroke-width:0.5;fill:url(#radialffffff666666)"/>
<circle cx="94.543403" cy="179.945782" r="15.769721" opacity="0.755391" style="stroke:black;stroke-width:0.5;fill:url(#radialffffff666666)"/>
<circle cx="290.042825" cy="76.630418" r="6.879512" opacity="0.781204" style="stroke:black;stroke-width:0.5;fill:url(#radialffffffbfbfbf)"/>
<circle cx="76.823735" cy="208.422596" r="7.015226" opacity="0.788872" style="stroke:black;stroke-width:0.5;fill:url(#radialffffffbfbfbf)"/>
<circle cx="152.809714" cy="211.406535" r="7.049059" opacity="0.790772" style="stroke:black;stroke-width:0.5;fill:url(#radialffffffbfbfbf)"/>
<circle cx="205.628856" cy="67.226490" r="17.494579" opacity="0.795630" style="stroke:black;stroke-width:0.5;fill:url(#radialffffff666666)"/>
<circle cx="199.486370" cy="64.429633" r="11.272727" opacity="1.000000" style="stroke:black;stroke-width:0.5;fill:url(#radialffffffbfbfbf)"/>
</svg>
</g>
</svg>
