<?xml version="1.0"?>
<svg version="1.1" id="topsvg"
xmlns="http://www.w3.org/2000/svg" xmlns:xlink="http://www.w3.org/1999/xlink"
xmlns:cml="http://www.xml-cml.org/schema" x="0" y="0" width="1024px" height="1024px" viewBox="0 0 100 100">
<title>13187 - Open Babel Depiction</title>
<rect x="0" y="0" width="100" height="100" fill="white"/>
<defs>
<radialGradient id='radialffffff666666' cx='50%' cy='50%' r='50%' fx='30%' fy='30%'>
  <stop offset=' 0%' stop-color="rgb(255,255,255)"  stop-opacity='1.0'/>
  <stop offset='100%' stop-color="rgb(102,102,102)"  stop-opacity ='1.0'/>
</radialGradient>
<radialGradient id='radialffffffbfbfbf' cx='50%' cy='50%' r='50%' fx='30%' fy='30%'>
  <stop offset=' 0%' stop-color="rgb(255,255,255)"  stop-opacity='1.0'/>
  <stop offset='100%' stop-color="rgb(191,191,191)"  stop-opacity ='1.0'/>
</radialGradient>
<radialGradient id='radialffffffffcc' cx='50%' cy='50%' r='50%' fx='30%' fy='30%'>
  <stop offset=' 0%' stop-color="rgb(255,255,255)"  stop-opacity='1.0'/>
  <stop offset='100%' stop-color="rgb(255,12,12)"  stop-opacity ='1.0'/>
</radialGradient>
</defs>
<g transform="translate(0,0)">
<svg width="100" height="100" x="0" y="0" viewBox="0 0 466.716 167.752"
font-family="sans-serif" stroke="rgb(0,0,0)" stroke-width="2"  stroke-linecap="round">
<line x1="112.0" y1="40.0" x2="112.6" y2="80.1" opacity="1.0" stroke="rgb(0,0,0)"  stroke-width="1.4"/>
<line x1="106.0" y1="40.0" x2="106.6" y2="80.2" opacity="1.0" stroke="rgb(0,0,0)"  stroke-width="1.4"/>
<line x1="274.3" y1="70.4" x2="235.0" y2="101.0" opacity="0.5" stroke="rgb(0,0,0)"  stroke-width="1.5"/>
<line x1="274.3" y1="70.4" x2="317.1" y2="95.8" opacity="0.5" stroke="rgb(0,0,0)"  stroke-width="1.5"/>
<line x1="274.3" y1="70.4" x2="273.1" y2="51.1" opacity="0.5" stroke="rgb(0,0,0)"  stroke-width="2.3"/>
<line x1="274.3" y1="70.4" x2="272.8" y2="47.4" opacity="0.8" stroke="rgb(0,0,0)"  stroke-width="0.9"/>
<line x1="235.0" y1="101.0" x2="192.1" y2="75.4" opacity="0.3" stroke="rgb(0,0,0)"  stroke-width="1.5"/>
<line x1="235.0" y1="101.0" x2="236.5" y2="120.7" opacity="0.5" stroke="rgb(0,0,0)"  stroke-width="0.7"/>
<line x1="235.0" y1="101.0" x2="236.0" y2="123.6" opacity="0.2" stroke="rgb(0,0,0)"  stroke-width="2.1"/>
<line x1="317.1" y1="95.8" x2="356.4" y2="65.2" opacity="0.7" stroke="rgb(0,0,0)"  stroke-width="1.5"/>
<line x1="317.1" y1="95.8" x2="318.1" y2="115.6" opacity="0.5" stroke="rgb(0,0,0)"  stroke-width="0.7"/>
<line x1="317.1" y1="95.8" x2="318.9" y2="118.3" opacity="0.2" stroke="rgb(0,0,0)"  stroke-width="2.1"/>
<line x1="192.1" y1="75.4" x2="152.2" y2="105.1" opacity="0.7" stroke="rgb(0,0,0)"  stroke-width="1.5"/>
<line x1="192.1" y1="75.4" x2="191.0" y2="55.0" opacity="0.5" stroke="rgb(0,0,0)"  stroke-width="2.2"/>
<line x1="192.1" y1="75.4" x2="191.1" y2="53.2" opacity="0.7" stroke="rgb(0,0,0)"  stroke-width="0.8"/>
<line x1="356.4" y1="65.2" x2="399.1" y2="90.3" opacity="0.3" stroke="rgb(0,0,0)"  stroke-width="1.5"/>
<line x1="356.4" y1="65.2" x2="355.4" y2="44.9" opacity="0.5" stroke="rgb(0,0,0)"  stroke-width="2.2"/>
<line x1="356.4" y1="65.2" x2="355.2" y2="43.2" opacity="0.7" stroke="rgb(0,0,0)"  stroke-width="0.8"/>
<line x1="152.2" y1="105.1" x2="109.6" y2="80.1" opacity="0.3" stroke="rgb(0,0,0)"  stroke-width="1.4"/>
<line x1="152.2" y1="105.1" x2="152.8" y2="125.4" opacity="0.5" stroke="rgb(0,0,0)"  stroke-width="0.7"/>
<line x1="152.2" y1="105.1" x2="152.5" y2="126.5" opacity="0.2" stroke="rgb(0,0,0)"  stroke-width="2.1"/>
<line x1="399.1" y1="90.3" x2="401.6" y2="110.3" opacity="0.7" stroke="rgb(0,0,0)"  stroke-width="0.7"/>
<line x1="399.1" y1="90.3" x2="401.8" y2="111.9" opacity="0.2" stroke="rgb(0,0,0)"  stroke-width="2.1"/>
<line x1="399.1" y1="90.3" x2="426.7" y2="67.8" opacity="0.7" stroke="rgb(0,0,0)"  stroke-width="1.5"/>
<line x1="109.6" y1="80.1" x2="68.0" y2="106.2" opacity="0.5" stroke="rgb(0,0,0)"  stroke-width="1.5"/>
<line x1="68.0" y1="106.2" x2="40.0" y2="84.2" opacity="0.5" stroke="rgb(0,0,0)"  stroke-width="1.5"/>
<line x1="68.0" y1="106.2" x2="66.9" y2="125.2" opacity="0.5" stroke="rgb(0,0,0)"  stroke-width="2.2"/>
<line x1="68.0" y1="106.2" x2="66.6" y2="127.8" opacity="0.7" stroke="rgb(0,0,0)"  stroke-width="0.8"/>
<circle cx="236.458995" cy="120.739028" r="5.636364" opacity="0.200000" style="stroke:black;stroke-width:0.5;fill:url(#radialffffffbfbfbf)"/>
<circle cx="318.074665" cy="115.619310" r="5.636364" opacity="0.200000" style="stroke:black;stroke-width:0.5;fill:url(#radialffffffbfbfbf)"/>
<circle cx="152.790223" cy="125.356877" r="5.636364" opacity="0.200000" style="stroke:black;stroke-width:0.5;fill:url(#radialffffffbfbfbf)"/>
<circle cx="401.635893" cy="110.255176" r="5.636364" opacity="0.200000" style="stroke:black;stroke-width:0.5;fill:url(#radialffffffbfbfbf)"/>
<circle cx="355.212988" cy="43.174160" r="5.636364" opacity="0.200532" style="stroke:black;stroke-width:0.5;fill:url(#radialffffffbfbfbf)"/>
<circle cx="191.108265" cy="53.172438" r="5.636364" opacity="0.205472" style="stroke:black;stroke-width:0.5;fill:url(#radialffffffbfbfbf)"/>
<circle cx="66.589293" cy="127.752162" r="5.636364" opacity="0.218419" style="stroke:black;stroke-width:0.5;fill:url(#radialffffffbfbfbf)"/>
<circle cx="272.847773" cy="47.407460" r="5.636364" opacity="0.265528" style="stroke:black;stroke-width:0.5;fill:url(#radialffffffbfbfbf)"/>
<circle cx="109.000502" cy="40.000000" r="12.000000" opacity="0.690779" style="stroke:black;stroke-width:0.5;fill:url(#radialffffffffcc)"/>
<circle cx="152.213399" cy="105.089833" r="13.818182" opacity="0.693029" style="stroke:black;stroke-width:0.5;fill:url(#radialffffff666666)"/>
<circle cx="234.956646" cy="101.003184" r="13.818182" opacity="0.694208" style="stroke:black;stroke-width:0.5;fill:url(#radialffffff666666)"/>
<circle cx="317.136104" cy="95.818288" r="13.818182" opacity="0.694436" style="stroke:black;stroke-width:0.5;fill:url(#radialffffff666666)"/>
<circle cx="399.077663" cy="90.343351" r="13.818182" opacity="0.694816" style="stroke:black;stroke-width:0.5;fill:url(#radialffffff666666)"/>
<circle cx="109.603397" cy="80.116950" r="13.818182" opacity="0.695803" style="stroke:black;stroke-width:0.5;fill:url(#radialffffff666666)"/>
<circle cx="40.000000" cy="84.180787" r="5.636364" opacity="0.701355" style="stroke:black;stroke-width:0.5;fill:url(#radialffffffbfbfbf)"/>
<circle cx="426.716319" cy="67.804859" r="5.636364" opacity="0.701431" style="stroke:black;stroke-width:0.5;fill:url(#radialffffffbfbfbf)"/>
<circle cx="192.112004" cy="75.440441" r="13.818182" opacity="0.703647" style="stroke:black;stroke-width:0.5;fill:url(#radialffffff666666)"/>
<circle cx="356.402484" cy="65.187970" r="13.818182" opacity="0.703909" style="stroke:black;stroke-width:0.5;fill:url(#radialffffff666666)"/>
<circle cx="68.026464" cy="106.175044" r="13.980800" opacity="0.711255" style="stroke:black;stroke-width:0.5;fill:url(#radialffffff666666)"/>
<circle cx="274.288203" cy="70.415231" r="14.174775" opacity="0.716173" style="stroke:black;stroke-width:0.5;fill:url(#radialffffff666666)"/>
<circle cx="235.973420" cy="123.564487" r="10.489246" opacity="0.964623" style="stroke:black;stroke-width:0.5;fill:url(#radialffffffbfbfbf)"/>
<circle cx="318.876352" cy="118.343743" r="10.492816" opacity="0.964787" style="stroke:black;stroke-width:0.5;fill:url(#radialffffffbfbfbf)"/>
<circle cx="401.759731" cy="111.868327" r="10.612390" opacity="0.970269" style="stroke:black;stroke-width:0.5;fill:url(#radialffffffbfbfbf)"/>
<circle cx="152.487146" cy="126.546372" r="10.623693" opacity="0.970785" style="stroke:black;stroke-width:0.5;fill:url(#radialffffffbfbfbf)"/>
<circle cx="191.017016" cy="54.984382" r="10.933040" opacity="0.984818" style="stroke:black;stroke-width:0.5;fill:url(#radialffffffbfbfbf)"/>
<circle cx="355.356380" cy="44.888337" r="10.948508" opacity="0.985514" style="stroke:black;stroke-width:0.5;fill:url(#radialffffffbfbfbf)"/>
<circle cx="66.882593" cy="125.220004" r="11.190631" opacity="0.996352" style="stroke:black;stroke-width:0.5;fill:url(#radialffffffbfbfbf)"/>
<circle cx="273.069378" cy="51.145408" r="11.272727" opacity="1.000000" style="stroke:black;stroke-width:0.5;fill:url(#radialffffffbfbfbf)"/>
</svg>
</g>
</svg>
