<?xml version="1.0"?>
<svg version="1.1" id="topsvg"
xmlns="http://www.w3.org/2000/svg" xmlns:xlink="http://www.w3.org/1999/xlink"
xmlns:cml="http://www.xml-cml.org/schema" x="0" y="0" width="1024px" height="1024px" viewBox="0 0 100 100">
<title>13193 - Open Babel Depiction</title>
<rect x="0" y="0" width="100" height="100" fill="white"/>
<defs>
<radialGradient id='radialffffff1eef1e' cx='50%' cy='50%' r='50%' fx='30%' fy='30%'>
  <stop offset=' 0%' stop-color="rgb(255,255,255)"  stop-opacity='1.0'/>
  <stop offset='100%' stop-color="rgb(30,239,30)"  stop-opacity ='1.0'/>
</radialGradient>
<radialGradient id='radialffffff666666' cx='50%' cy='50%' r='50%' fx='30%' fy='30%'>
  <stop offset=' 0%' stop-color="rgb(255,255,255)"  stop-opacity='1.0'/>
  <stop offset='100%' stop-color="rgb(102,102,102)"  stop-opacity ='1.0'/>
</radialGradient>
<radialGradient id='radialffffffbfbfbf' cx='50%' cy='50%' r='50%' fx='30%' fy='30%'>
  <stop offset=' 0%' stop-color="rgb(255,255,255)"  stop-opacity='1.0'/>
  <stop offset='100%' stop-color="rgb(191,191,191)"  stop-opacity ='1.0'/>
</radialGradient>
</defs>
<g transform="translate(0,0)">
<svg width="100" height="100" x="0" y="0" viewBox="0 0 627.289 183.553"
font-family="sans-serif" stroke="rgb(0,0,0)" stroke-width="2"  stroke-linecap="round">
<line x1="59.0" y1="141.6" x2="67.5" y2="92.5" opacity="1.0" stroke="rgb(0,0,0)"  stroke-width="1.4"/>
<line x1="313.7" y1="105.2" x2="273.7" y2="78.6" opacity="0.5" stroke="rgb(0,0,0)"  stroke-width="1.5"/>
<line x1="313.7" y1="105.2" x2="354.8" y2="81.3" opacity="0.5" stroke="rgb(0,0,0)"  stroke-width="1.4"/>
<line x1="313.7" y1="105.2" x2="312.2" y2="136.1" opacity="0.5" stroke="rgb(0,0,0)"  stroke-width="1.4"/>
<line x1="313.7" y1="105.2" x2="314.3" y2="112.2" opacity="0.5" stroke="rgb(0,0,0)"  stroke-width="2.2"/>
<line x1="273.7" y1="78.6" x2="231.5" y2="101.3" opacity="0.7" stroke="rgb(0,0,0)"  stroke-width="1.5"/>
<line x1="273.7" y1="78.6" x2="273.5" y2="71.2" opacity="0.5" stroke="rgb(0,0,0)"  stroke-width="0.7"/>
<line x1="273.7" y1="78.6" x2="275.3" y2="47.7" opacity="0.2" stroke="rgb(0,0,0)"  stroke-width="1.6"/>
<line x1="354.8" y1="81.3" x2="395.0" y2="107.2" opacity="0.5" stroke="rgb(0,0,0)"  stroke-width="1.4"/>
<line x1="354.8" y1="81.3" x2="354.5" y2="74.9" opacity="0.5" stroke="rgb(0,0,0)"  stroke-width="0.7"/>
<line x1="354.8" y1="81.3" x2="355.9" y2="50.0" opacity="0.2" stroke="rgb(0,0,0)"  stroke-width="1.5"/>
<line x1="231.5" y1="101.3" x2="191.4" y2="75.0" opacity="0.5" stroke="rgb(0,0,0)"  stroke-width="1.5"/>
<line x1="231.5" y1="101.3" x2="230.1" y2="132.3" opacity="0.5" stroke="rgb(0,0,0)"  stroke-width="1.4"/>
<line x1="231.5" y1="101.3" x2="231.4" y2="108.2" opacity="0.5" stroke="rgb(0,0,0)"  stroke-width="2.3"/>
<line x1="395.0" y1="107.2" x2="436.1" y2="83.9" opacity="0.8" stroke="rgb(0,0,0)"  stroke-width="1.4"/>
<line x1="395.0" y1="107.2" x2="395.6" y2="112.9" opacity="0.5" stroke="rgb(0,0,0)"  stroke-width="2.2"/>
<line x1="395.0" y1="107.2" x2="393.6" y2="138.8" opacity="0.7" stroke="rgb(0,0,0)"  stroke-width="1.4"/>
<line x1="191.4" y1="75.0" x2="149.3" y2="97.9" opacity="0.5" stroke="rgb(0,0,0)"  stroke-width="1.5"/>
<line x1="191.4" y1="75.0" x2="192.8" y2="44.1" opacity="0.5" stroke="rgb(0,0,0)"  stroke-width="1.6"/>
<line x1="191.4" y1="75.0" x2="191.7" y2="67.7" opacity="0.5" stroke="rgb(0,0,0)"  stroke-width="0.7"/>
<line x1="436.1" y1="83.9" x2="476.2" y2="109.4" opacity="0.2" stroke="rgb(0,0,0)"  stroke-width="1.4"/>
<line x1="436.1" y1="83.9" x2="435.9" y2="78.8" opacity="0.5" stroke="rgb(0,0,0)"  stroke-width="0.6"/>
<line x1="436.1" y1="83.9" x2="437.2" y2="52.0" opacity="0.2" stroke="rgb(0,0,0)"  stroke-width="1.4"/>
<line x1="149.3" y1="97.9" x2="109.3" y2="70.6" opacity="0.5" stroke="rgb(0,0,0)"  stroke-width="1.5"/>
<line x1="149.3" y1="97.9" x2="149.8" y2="106.6" opacity="0.5" stroke="rgb(0,0,0)"  stroke-width="2.3"/>
<line x1="149.3" y1="97.9" x2="147.9" y2="128.1" opacity="0.8" stroke="rgb(0,0,0)"  stroke-width="1.4"/>
<line x1="476.2" y1="109.4" x2="518.3" y2="87.0" opacity="0.5" stroke="rgb(0,0,0)"  stroke-width="1.4"/>
<line x1="476.2" y1="109.4" x2="475.8" y2="115.1" opacity="0.5" stroke="rgb(0,0,0)"  stroke-width="2.2"/>
<line x1="476.2" y1="109.4" x2="475.2" y2="141.1" opacity="0.7" stroke="rgb(0,0,0)"  stroke-width="1.3"/>
<line x1="109.3" y1="70.6" x2="67.5" y2="92.5" opacity="0.4" stroke="rgb(0,0,0)"  stroke-width="1.6"/>
<line x1="109.3" y1="70.6" x2="112.0" y2="40.0" opacity="0.5" stroke="rgb(0,0,0)"  stroke-width="1.7"/>
<line x1="109.3" y1="70.6" x2="108.0" y2="62.6" opacity="0.6" stroke="rgb(0,0,0)"  stroke-width="0.8"/>
<line x1="518.3" y1="87.0" x2="558.2" y2="111.9" opacity="0.3" stroke="rgb(0,0,0)"  stroke-width="1.4"/>
<line x1="518.3" y1="87.0" x2="519.2" y2="81.8" opacity="0.5" stroke="rgb(0,0,0)"  stroke-width="0.6"/>
<line x1="518.3" y1="87.0" x2="519.3" y2="55.1" opacity="0.2" stroke="rgb(0,0,0)"  stroke-width="1.4"/>
<line x1="67.5" y1="92.5" x2="40.0" y2="71.5" opacity="0.5" stroke="rgb(0,0,0)"  stroke-width="1.7"/>
<line x1="67.5" y1="92.5" x2="67.6" y2="99.8" opacity="0.6" stroke="rgb(0,0,0)"  stroke-width="2.4"/>
<line x1="558.2" y1="111.9" x2="559.0" y2="116.6" opacity="0.8" stroke="rgb(0,0,0)"  stroke-width="2.2"/>
<line x1="558.2" y1="111.9" x2="587.3" y2="94.4" opacity="0.7" stroke="rgb(0,0,0)"  stroke-width="1.5"/>
<line x1="558.2" y1="111.9" x2="559.0" y2="143.6" opacity="0.5" stroke="rgb(0,0,0)"  stroke-width="1.4"/>
<circle cx="435.884204" cy="78.805743" r="5.636364" opacity="0.200000" style="stroke:black;stroke-width:0.5;fill:url(#radialffffffbfbfbf)"/>
<circle cx="519.183211" cy="81.816783" r="5.636364" opacity="0.200000" style="stroke:black;stroke-width:0.5;fill:url(#radialffffffbfbfbf)"/>
<circle cx="354.531437" cy="74.926134" r="5.636364" opacity="0.200000" style="stroke:black;stroke-width:0.5;fill:url(#radialffffffbfbfbf)"/>
<circle cx="273.464975" cy="71.181635" r="5.636364" opacity="0.223310" style="stroke:black;stroke-width:0.5;fill:url(#radialffffffbfbfbf)"/>
<circle cx="191.655405" cy="67.749178" r="5.636364" opacity="0.231053" style="stroke:black;stroke-width:0.5;fill:url(#radialffffffbfbfbf)"/>
<circle cx="107.996103" cy="62.560282" r="5.636364" opacity="0.287106" style="stroke:black;stroke-width:0.5;fill:url(#radialffffffbfbfbf)"/>
<circle cx="58.979846" cy="141.590431" r="18.545455" opacity="0.549352" style="stroke:black;stroke-width:0.5;fill:url(#radialffffff1eef1e)"/>
<circle cx="475.166052" cy="141.146495" r="5.636364" opacity="0.599358" style="stroke:black;stroke-width:0.5;fill:url(#radialffffffbfbfbf)"/>
<circle cx="147.889166" cy="128.076137" r="5.636364" opacity="0.602614" style="stroke:black;stroke-width:0.5;fill:url(#radialffffffbfbfbf)"/>
<circle cx="312.232115" cy="136.070191" r="5.636364" opacity="0.603685" style="stroke:black;stroke-width:0.5;fill:url(#radialffffffbfbfbf)"/>
<circle cx="393.633137" cy="138.823877" r="5.636364" opacity="0.606119" style="stroke:black;stroke-width:0.5;fill:url(#radialffffffbfbfbf)"/>
<circle cx="558.982983" cy="143.552754" r="5.636364" opacity="0.611661" style="stroke:black;stroke-width:0.5;fill:url(#radialffffffbfbfbf)"/>
<circle cx="230.075117" cy="132.348211" r="5.636364" opacity="0.616659" style="stroke:black;stroke-width:0.5;fill:url(#radialffffffbfbfbf)"/>
<circle cx="436.080437" cy="83.853095" r="13.818182" opacity="0.624182" style="stroke:black;stroke-width:0.5;fill:url(#radialffffff666666)"/>
<circle cx="518.288906" cy="86.983162" r="13.818182" opacity="0.630164" style="stroke:black;stroke-width:0.5;fill:url(#radialffffff666666)"/>
<circle cx="354.846695" cy="81.263472" r="13.818182" opacity="0.641485" style="stroke:black;stroke-width:0.5;fill:url(#radialffffff666666)"/>
<circle cx="273.654774" cy="78.596643" r="13.818182" opacity="0.659532" style="stroke:black;stroke-width:0.5;fill:url(#radialffffff666666)"/>
<circle cx="191.436654" cy="75.006557" r="13.818182" opacity="0.662384" style="stroke:black;stroke-width:0.5;fill:url(#radialffffff666666)"/>
<circle cx="587.288689" cy="94.401386" r="5.636364" opacity="0.663927" style="stroke:black;stroke-width:0.5;fill:url(#radialffffffbfbfbf)"/>
<circle cx="109.279655" cy="70.554335" r="13.818182" opacity="0.682459" style="stroke:black;stroke-width:0.5;fill:url(#radialffffff666666)"/>
<circle cx="476.172949" cy="109.430851" r="14.692298" opacity="0.729129" style="stroke:black;stroke-width:0.5;fill:url(#radialffffff666666)"/>
<circle cx="40.000000" cy="71.529063" r="6.093683" opacity="0.735234" style="stroke:black;stroke-width:0.5;fill:url(#radialffffffbfbfbf)"/>
<circle cx="394.968160" cy="107.233692" r="14.984001" opacity="0.736332" style="stroke:black;stroke-width:0.5;fill:url(#radialffffff666666)"/>
<circle cx="558.227006" cy="111.895014" r="15.088181" opacity="0.738887" style="stroke:black;stroke-width:0.5;fill:url(#radialffffff666666)"/>
<circle cx="313.721551" cy="105.158777" r="15.296540" opacity="0.743971" style="stroke:black;stroke-width:0.5;fill:url(#radialffffff666666)"/>
<circle cx="437.183841" cy="52.005557" r="6.296037" opacity="0.747342" style="stroke:black;stroke-width:0.5;fill:url(#radialffffffbfbfbf)"/>
<circle cx="519.257200" cy="55.103454" r="6.372527" opacity="0.751868" style="stroke:black;stroke-width:0.5;fill:url(#radialffffffbfbfbf)"/>
<circle cx="149.282094" cy="97.907832" r="15.644797" opacity="0.752393" style="stroke:black;stroke-width:0.5;fill:url(#radialffffff666666)"/>
<circle cx="231.506648" cy="101.269517" r="15.647774" opacity="0.752464" style="stroke:black;stroke-width:0.5;fill:url(#radialffffff666666)"/>
<circle cx="355.911497" cy="49.978895" r="6.686985" opacity="0.770195" style="stroke:black;stroke-width:0.5;fill:url(#radialffffffbfbfbf)"/>
<circle cx="67.459655" cy="92.490534" r="17.014015" opacity="0.784626" style="stroke:black;stroke-width:0.5;fill:url(#radialffffff666666)"/>
<circle cx="275.260018" cy="47.733483" r="7.047175" opacity="0.790666" style="stroke:black;stroke-width:0.5;fill:url(#radialffffffbfbfbf)"/>
<circle cx="192.784545" cy="44.079058" r="7.077528" opacity="0.792367" style="stroke:black;stroke-width:0.5;fill:url(#radialffffffbfbfbf)"/>
<circle cx="111.965786" cy="40.000000" r="7.444193" opacity="0.812633" style="stroke:black;stroke-width:0.5;fill:url(#radialffffffbfbfbf)"/>
<circle cx="475.774051" cy="115.070117" r="10.376300" opacity="0.959416" style="stroke:black;stroke-width:0.5;fill:url(#radialffffffbfbfbf)"/>
<circle cx="395.560074" cy="112.905128" r="10.492856" opacity="0.964789" style="stroke:black;stroke-width:0.5;fill:url(#radialffffffbfbfbf)"/>
<circle cx="559.037670" cy="116.553118" r="10.544253" opacity="0.967149" style="stroke:black;stroke-width:0.5;fill:url(#radialffffffbfbfbf)"/>
<circle cx="314.268428" cy="112.226357" r="10.587152" opacity="0.969114" style="stroke:black;stroke-width:0.5;fill:url(#radialffffffbfbfbf)"/>
<circle cx="149.812886" cy="106.587091" r="10.684687" opacity="0.973568" style="stroke:black;stroke-width:0.5;fill:url(#radialffffffbfbfbf)"/>
<circle cx="231.377971" cy="108.234155" r="10.734466" opacity="0.975834" style="stroke:black;stroke-width:0.5;fill:url(#radialffffffbfbfbf)"/>
<circle cx="67.597983" cy="99.763997" r="11.272727" opacity="1.000000" style="stroke:black;stroke-width:0.5;fill:url(#radialffffffbfbfbf)"/>
</svg>
</g>
</svg>
