<?xml version="1.0"?>
<svg version="1.1" id="topsvg"
xmlns="http://www.w3.org/2000/svg" xmlns:xlink="http://www.w3.org/1999/xlink"
xmlns:cml="http://www.xml-cml.org/schema" x="0" y="0" width="1024px" height="1024px" viewBox="0 0 100 100">
<title>13379 - Open Babel Depiction</title>
<rect x="0" y="0" width="100" height="100" fill="white"/>
<defs>
<radialGradient id='radialffffff666666' cx='50%' cy='50%' r='50%' fx='30%' fy='30%'>
  <stop offset=' 0%' stop-color="rgb(255,255,255)"  stop-opacity='1.0'/>
  <stop offset='100%' stop-color="rgb(102,102,102)"  stop-opacity ='1.0'/>
</radialGradient>
<radialGradient id='radialffffffbfbfbf' cx='50%' cy='50%' r='50%' fx='30%' fy='30%'>
  <stop offset=' 0%' stop-color="rgb(255,255,255)"  stop-opacity='1.0'/>
  <stop offset='100%' stop-color="rgb(191,191,191)"  stop-opacity ='1.0'/>
</radialGradient>
</defs>
<g transform="translate(0,0)">
<svg width="100" height="100" x="0" y="0" viewBox="0 0 441.906 217.413"
font-family="sans-serif" stroke="rgb(0,0,0)" stroke-width="2"  stroke-linecap="round">
<line x1="277.1" y1="109.2" x2="315.0" y2="118.2" opacity="1.0" stroke="rgb(0,0,0)"  stroke-width="1.8"/>
<line x1="277.1" y1="109.2" x2="232.8" y2="114.8" opacity="0.6" stroke="rgb(0,0,0)"  stroke-width="1.7"/>
<line x1="277.1" y1="109.2" x2="278.4" y2="131.4" opacity="0.6" stroke="rgb(0,0,0)"  stroke-width="1.1"/>
<line x1="277.1" y1="109.2" x2="278.9" y2="75.7" opacity="0.4" stroke="rgb(0,0,0)"  stroke-width="1.3"/>
<line x1="315.0" y1="118.2" x2="360.4" y2="110.8" opacity="0.4" stroke="rgb(0,0,0)"  stroke-width="2.0"/>
<line x1="315.0" y1="118.2" x2="312.7" y2="151.9" opacity="0.7" stroke="rgb(0,0,0)"  stroke-width="2.4"/>
<line x1="315.0" y1="118.2" x2="311.8" y2="96.7" opacity="0.8" stroke="rgb(0,0,0)"  stroke-width="2.6"/>
<line x1="232.8" y1="114.8" x2="193.6" y2="105.0" opacity="0.9" stroke="rgb(0,0,0)"  stroke-width="1.6"/>
<line x1="232.8" y1="114.8" x2="231.3" y2="93.2" opacity="0.5" stroke="rgb(0,0,0)"  stroke-width="2.4"/>
<line x1="232.8" y1="114.8" x2="230.1" y2="148.4" opacity="0.8" stroke="rgb(0,0,0)"  stroke-width="2.2"/>
<line x1="360.4" y1="110.8" x2="366.0" y2="64.3" opacity="0.7" stroke="rgb(0,0,0)"  stroke-width="1.5"/>
<line x1="360.4" y1="110.8" x2="368.0" y2="143.9" opacity="0.5" stroke="rgb(0,0,0)"  stroke-width="1.2"/>
<line x1="360.4" y1="110.8" x2="385.0" y2="116.3" opacity="0.4" stroke="rgb(0,0,0)"  stroke-width="2.0"/>
<line x1="193.6" y1="105.0" x2="148.4" y2="112.8" opacity="0.7" stroke="rgb(0,0,0)"  stroke-width="1.5"/>
<line x1="193.6" y1="105.0" x2="195.7" y2="70.9" opacity="0.5" stroke="rgb(0,0,0)"  stroke-width="1.1"/>
<line x1="193.6" y1="105.0" x2="196.4" y2="125.3" opacity="0.4" stroke="rgb(0,0,0)"  stroke-width="0.9"/>
<line x1="148.4" y1="112.8" x2="110.7" y2="104.4" opacity="0.3" stroke="rgb(0,0,0)"  stroke-width="1.4"/>
<line x1="148.4" y1="112.8" x2="146.5" y2="146.6" opacity="0.5" stroke="rgb(0,0,0)"  stroke-width="1.9"/>
<line x1="148.4" y1="112.8" x2="144.9" y2="91.5" opacity="0.6" stroke="rgb(0,0,0)"  stroke-width="2.2"/>
<line x1="110.7" y1="104.4" x2="66.6" y2="109.7" opacity="0.7" stroke="rgb(0,0,0)"  stroke-width="1.2"/>
<line x1="110.7" y1="104.4" x2="113.1" y2="71.2" opacity="0.4" stroke="rgb(0,0,0)"  stroke-width="0.8"/>
<line x1="110.7" y1="104.4" x2="112.8" y2="127.2" opacity="0.3" stroke="rgb(0,0,0)"  stroke-width="0.6"/>
<line x1="366.0" y1="64.3" x2="400.1" y2="58.8" opacity="0.2" stroke="rgb(0,0,0)"  stroke-width="1.1"/>
<line x1="366.0" y1="64.3" x2="357.7" y2="40.0" opacity="0.4" stroke="rgb(0,0,0)"  stroke-width="1.6"/>
<line x1="366.0" y1="64.3" x2="345.8" y2="58.2" opacity="0.5" stroke="rgb(0,0,0)"  stroke-width="0.9"/>
<line x1="368.0" y1="143.9" x2="401.9" y2="142.0" opacity="0.3" stroke="rgb(0,0,0)"  stroke-width="0.6"/>
<line x1="368.0" y1="143.9" x2="346.9" y2="138.0" opacity="0.2" stroke="rgb(0,0,0)"  stroke-width="0.4"/>
<line x1="368.0" y1="143.9" x2="362.4" y2="177.4" opacity="0.1" stroke="rgb(0,0,0)"  stroke-width="0.9"/>
<line x1="66.6" y1="109.7" x2="40.0" y2="103.7" opacity="0.3" stroke="rgb(0,0,0)"  stroke-width="1.2"/>
<line x1="66.6" y1="109.7" x2="62.7" y2="142.8" opacity="0.4" stroke="rgb(0,0,0)"  stroke-width="1.7"/>
<line x1="66.6" y1="109.7" x2="63.1" y2="86.5" opacity="0.6" stroke="rgb(0,0,0)"  stroke-width="1.9"/>
<circle cx="346.850487" cy="138.044093" r="5.636364" opacity="0.200000" style="stroke:black;stroke-width:0.5;fill:url(#radialffffffbfbfbf)"/>
<circle cx="112.777865" cy="127.207761" r="5.636364" opacity="0.267020" style="stroke:black;stroke-width:0.5;fill:url(#radialffffffbfbfbf)"/>
<circle cx="401.905991" cy="141.994396" r="5.636364" opacity="0.383158" style="stroke:black;stroke-width:0.5;fill:url(#radialffffffbfbfbf)"/>
<circle cx="196.398607" cy="125.296430" r="5.636364" opacity="0.394250" style="stroke:black;stroke-width:0.5;fill:url(#radialffffffbfbfbf)"/>
<circle cx="345.799909" cy="58.187102" r="5.636364" opacity="0.401021" style="stroke:black;stroke-width:0.5;fill:url(#radialffffffbfbfbf)"/>
<circle cx="113.147694" cy="71.239138" r="5.636364" opacity="0.442972" style="stroke:black;stroke-width:0.5;fill:url(#radialffffffbfbfbf)"/>
<circle cx="278.428755" cy="131.423163" r="5.636364" opacity="0.477396" style="stroke:black;stroke-width:0.5;fill:url(#radialffffffbfbfbf)"/>
<circle cx="368.002771" cy="143.928637" r="13.818182" opacity="0.497696" style="stroke:black;stroke-width:0.5;fill:url(#radialffffff666666)"/>
<circle cx="40.000000" cy="103.679404" r="5.636364" opacity="0.553324" style="stroke:black;stroke-width:0.5;fill:url(#radialffffffbfbfbf)"/>
<circle cx="110.666891" cy="104.438700" r="13.818182" opacity="0.559604" style="stroke:black;stroke-width:0.5;fill:url(#radialffffff666666)"/>
<circle cx="195.672039" cy="70.898764" r="5.636364" opacity="0.563837" style="stroke:black;stroke-width:0.5;fill:url(#radialffffffbfbfbf)"/>
<circle cx="400.119027" cy="58.792575" r="5.636364" opacity="0.574656" style="stroke:black;stroke-width:0.5;fill:url(#radialffffffbfbfbf)"/>
<circle cx="362.432418" cy="177.412935" r="5.636364" opacity="0.590198" style="stroke:black;stroke-width:0.5;fill:url(#radialffffffbfbfbf)"/>
<circle cx="278.880406" cy="75.696729" r="5.636364" opacity="0.601925" style="stroke:black;stroke-width:0.5;fill:url(#radialffffffbfbfbf)"/>
<circle cx="193.616704" cy="105.037628" r="13.818182" opacity="0.643377" style="stroke:black;stroke-width:0.5;fill:url(#radialffffff666666)"/>
<circle cx="366.006346" cy="64.304017" r="13.818182" opacity="0.643488" style="stroke:black;stroke-width:0.5;fill:url(#radialffffff666666)"/>
<circle cx="277.057441" cy="109.154845" r="13.818182" opacity="0.688042" style="stroke:black;stroke-width:0.5;fill:url(#radialffffff666666)"/>
<circle cx="66.558995" cy="109.685043" r="14.091703" opacity="0.714071" style="stroke:black;stroke-width:0.5;fill:url(#radialffffff666666)"/>
<circle cx="360.399993" cy="110.761803" r="15.740749" opacity="0.754696" style="stroke:black;stroke-width:0.5;fill:url(#radialffffff666666)"/>
<circle cx="148.418956" cy="112.781138" r="16.337668" opacity="0.768873" style="stroke:black;stroke-width:0.5;fill:url(#radialffffff666666)"/>
<circle cx="62.657785" cy="142.835513" r="7.032497" opacity="0.789842" style="stroke:black;stroke-width:0.5;fill:url(#radialffffffbfbfbf)"/>
<circle cx="357.690091" cy="40.000000" r="7.132925" opacity="0.795462" style="stroke:black;stroke-width:0.5;fill:url(#radialffffffbfbfbf)"/>
<circle cx="232.834996" cy="114.790654" r="18.616090" opacity="0.820737" style="stroke:black;stroke-width:0.5;fill:url(#radialffffff666666)"/>
<circle cx="146.540353" cy="146.586173" r="7.842052" opacity="0.834066" style="stroke:black;stroke-width:0.5;fill:url(#radialffffffbfbfbf)"/>
<circle cx="63.076707" cy="86.470878" r="8.418459" opacity="0.864175" style="stroke:black;stroke-width:0.5;fill:url(#radialffffffbfbfbf)"/>
<circle cx="314.986238" cy="118.174757" r="20.714804" opacity="0.865765" style="stroke:black;stroke-width:0.5;fill:url(#radialffffff666666)"/>
<circle cx="230.118549" cy="148.441866" r="8.799179" opacity="0.883500" style="stroke:black;stroke-width:0.5;fill:url(#radialffffffbfbfbf)"/>
<circle cx="385.044384" cy="116.263426" r="8.939002" opacity="0.890492" style="stroke:black;stroke-width:0.5;fill:url(#radialffffffbfbfbf)"/>
<circle cx="144.874484" cy="91.481576" r="9.494421" opacity="0.917740" style="stroke:black;stroke-width:0.5;fill:url(#radialffffffbfbfbf)"/>
<circle cx="312.711623" cy="151.855425" r="9.658463" opacity="0.925634" style="stroke:black;stroke-width:0.5;fill:url(#radialffffffbfbfbf)"/>
<circle cx="231.286948" cy="93.212902" r="10.420225" opacity="0.961444" style="stroke:black;stroke-width:0.5;fill:url(#radialffffffbfbfbf)"/>
<circle cx="311.798504" cy="96.695191" r="11.272727" opacity="1.000000" style="stroke:black;stroke-width:0.5;fill:url(#radialffffffbfbfbf)"/>
</svg>
</g>
</svg>
