<?xml version="1.0"?>
<svg version="1.1" id="topsvg"
xmlns="http://www.w3.org/2000/svg" xmlns:xlink="http://www.w3.org/1999/xlink"
xmlns:cml="http://www.xml-cml.org/schema" x="0" y="0" width="1024px" height="1024px" viewBox="0 0 100 100">
<title>13436 - Open Babel Depiction</title>
<rect x="0" y="0" width="100" height="100" fill="white"/>
<defs>
<radialGradient id='radialffffff666666' cx='50%' cy='50%' r='50%' fx='30%' fy='30%'>
  <stop offset=' 0%' stop-color="rgb(255,255,255)"  stop-opacity='1.0'/>
  <stop offset='100%' stop-color="rgb(102,102,102)"  stop-opacity ='1.0'/>
</radialGradient>
<radialGradient id='radialffffffb2b20' cx='50%' cy='50%' r='50%' fx='30%' fy='30%'>
  <stop offset=' 0%' stop-color="rgb(255,255,255)"  stop-opacity='1.0'/>
  <stop offset='100%' stop-color="rgb(178,178,0)"  stop-opacity ='1.0'/>
</radialGradient>
<radialGradient id='radialffffffbfbfbf' cx='50%' cy='50%' r='50%' fx='30%' fy='30%'>
  <stop offset=' 0%' stop-color="rgb(255,255,255)"  stop-opacity='1.0'/>
  <stop offset='100%' stop-color="rgb(191,191,191)"  stop-opacity ='1.0'/>
</radialGradient>
</defs>
<g transform="translate(0,0)">
<svg width="100" height="100" x="0" y="0" viewBox="0 0 361.483 219.7"
font-family="sans-serif" stroke="rgb(0,0,0)" stroke-width="2"  stroke-linecap="round">
<line x1="194.1" y1="178.7" x2="158.5" y2="175.8" opacity="1.0" stroke="rgb(0,0,0)"  stroke-width="1.5"/>
<line x1="194.1" y1="178.7" x2="230.1" y2="140.1" opacity="0.5" stroke="rgb(0,0,0)"  stroke-width="2.0"/>
<line x1="158.5" y1="175.8" x2="121.2" y2="140.3" opacity="0.7" stroke="rgb(0,0,0)"  stroke-width="1.0"/>
<line x1="222.6" y1="100.8" x2="195.1" y2="93.1" opacity="0.3" stroke="rgb(0,0,0)"  stroke-width="2.4"/>
<line x1="96.8" y1="148.3" x2="99.8" y2="176.0" opacity="0.8" stroke="rgb(0,0,0)"  stroke-width="2.3"/>
<line x1="265.6" y1="149.2" x2="272.0" y2="179.7" opacity="0.8" stroke="rgb(0,0,0)"  stroke-width="1.2"/>
<line x1="116.3" y1="104.6" x2="135.1" y2="97.9" opacity="0.4" stroke="rgb(0,0,0)"  stroke-width="0.4"/>
<line x1="250.8" y1="70.6" x2="245.0" y2="40.0" opacity="0.1" stroke="rgb(0,0,0)"  stroke-width="2.1"/>
<line x1="67.6" y1="120.5" x2="48.6" y2="126.7" opacity="0.7" stroke="rgb(0,0,0)"  stroke-width="2.7"/>
<line x1="293.8" y1="119.0" x2="321.5" y2="126.1" opacity="0.9" stroke="rgb(0,0,0)"  stroke-width="1.0"/>
<line x1="87.1" y1="76.8" x2="83.4" y2="49.0" opacity="0.3" stroke="rgb(0,0,0)"  stroke-width="0.7"/>
<line x1="286.3" y1="79.7" x2="308.2" y2="56.2" opacity="0.2" stroke="rgb(0,0,0)"  stroke-width="1.4"/>
<line x1="62.8" y1="84.8" x2="40.0" y2="63.1" opacity="0.5" stroke="rgb(0,0,0)"  stroke-width="1.9"/>
<line x1="229.3" y1="143.0" x2="264.9" y2="152.1" opacity="0.5" stroke="rgb(0,0,0)"  stroke-width="1.6"/>
<line x1="230.8" y1="137.2" x2="266.4" y2="146.3" opacity="0.5" stroke="rgb(0,0,0)"  stroke-width="1.6" stroke-dasharray="5.0,5.0"/>
<line x1="267.8" y1="151.3" x2="296.0" y2="121.1" opacity="0.4" stroke="rgb(0,0,0)"  stroke-width="1.2"/>
<line x1="263.4" y1="147.2" x2="291.6" y2="117.0" opacity="0.4" stroke="rgb(0,0,0)"  stroke-width="1.2" stroke-dasharray="5.0,5.0"/>
<line x1="296.7" y1="118.5" x2="289.3" y2="79.2" opacity="0.4" stroke="rgb(0,0,0)"  stroke-width="1.3"/>
<line x1="290.8" y1="119.6" x2="283.4" y2="80.3" opacity="0.4" stroke="rgb(0,0,0)"  stroke-width="1.3" stroke-dasharray="5.0,5.0"/>
<line x1="287.1" y1="76.8" x2="251.5" y2="67.7" opacity="0.6" stroke="rgb(0,0,0)"  stroke-width="1.7"/>
<line x1="285.6" y1="82.6" x2="250.0" y2="73.5" opacity="0.6" stroke="rgb(0,0,0)"  stroke-width="1.7" stroke-dasharray="5.0,5.0"/>
<line x1="248.6" y1="68.6" x2="220.4" y2="98.8" opacity="0.7" stroke="rgb(0,0,0)"  stroke-width="2.1"/>
<line x1="252.9" y1="72.7" x2="224.8" y2="102.9" opacity="0.7" stroke="rgb(0,0,0)"  stroke-width="2.1" stroke-dasharray="5.0,5.0"/>
<line x1="219.7" y1="101.4" x2="227.1" y2="140.7" opacity="0.7" stroke="rgb(0,0,0)"  stroke-width="2.0"/>
<line x1="225.6" y1="100.3" x2="233.0" y2="139.5" opacity="0.7" stroke="rgb(0,0,0)"  stroke-width="2.0" stroke-dasharray="5.0,5.0"/>
<line x1="124.2" y1="139.9" x2="119.3" y2="104.2" opacity="0.3" stroke="rgb(0,0,0)"  stroke-width="0.9"/>
<line x1="118.2" y1="140.7" x2="113.4" y2="105.0" opacity="0.3" stroke="rgb(0,0,0)"  stroke-width="0.9" stroke-dasharray="5.0,5.0"/>
<line x1="118.4" y1="102.4" x2="89.2" y2="74.6" opacity="0.3" stroke="rgb(0,0,0)"  stroke-width="0.8"/>
<line x1="114.3" y1="106.8" x2="85.1" y2="79.0" opacity="0.3" stroke="rgb(0,0,0)"  stroke-width="0.8" stroke-dasharray="5.0,5.0"/>
<line x1="86.2" y1="74.0" x2="61.8" y2="81.9" opacity="0.5" stroke="rgb(0,0,0)"  stroke-width="1.4"/>
<line x1="88.1" y1="79.7" x2="63.7" y2="87.6" opacity="0.5" stroke="rgb(0,0,0)"  stroke-width="1.4" stroke-dasharray="5.0,5.0"/>
<line x1="59.8" y1="85.2" x2="64.6" y2="120.9" opacity="0.7" stroke="rgb(0,0,0)"  stroke-width="2.1"/>
<line x1="65.7" y1="84.4" x2="70.6" y2="120.1" opacity="0.7" stroke="rgb(0,0,0)"  stroke-width="2.1" stroke-dasharray="5.0,5.0"/>
<line x1="65.5" y1="122.7" x2="94.7" y2="150.4" opacity="0.7" stroke="rgb(0,0,0)"  stroke-width="2.2"/>
<line x1="69.7" y1="118.3" x2="98.9" y2="146.1" opacity="0.7" stroke="rgb(0,0,0)"  stroke-width="2.2" stroke-dasharray="5.0,5.0"/>
<line x1="97.7" y1="151.1" x2="122.1" y2="143.2" opacity="0.5" stroke="rgb(0,0,0)"  stroke-width="1.6"/>
<line x1="95.9" y1="145.4" x2="120.2" y2="137.5" opacity="0.5" stroke="rgb(0,0,0)"  stroke-width="1.6" stroke-dasharray="5.0,5.0"/>
<circle cx="135.097868" cy="97.877939" r="5.636364" opacity="0.200000" style="stroke:black;stroke-width:0.5;fill:url(#radialffffffbfbfbf)"/>
<circle cx="83.383625" cy="49.001764" r="5.636364" opacity="0.420675" style="stroke:black;stroke-width:0.5;fill:url(#radialffffffbfbfbf)"/>
<circle cx="116.347956" cy="104.604432" r="13.818182" opacity="0.468493" style="stroke:black;stroke-width:0.5;fill:url(#radialffffff666666)"/>
<circle cx="321.483430" cy="126.117172" r="5.636364" opacity="0.500299" style="stroke:black;stroke-width:0.5;fill:url(#radialffffffbfbfbf)"/>
<circle cx="158.521715" cy="175.802934" r="19.090909" opacity="0.524289" style="stroke:black;stroke-width:0.5;fill:url(#radialffffffb2b20)"/>
<circle cx="87.136617" cy="76.822660" r="13.818182" opacity="0.564395" style="stroke:black;stroke-width:0.5;fill:url(#radialffffff666666)"/>
<circle cx="271.966207" cy="179.700388" r="5.636364" opacity="0.602405" style="stroke:black;stroke-width:0.5;fill:url(#radialffffffbfbfbf)"/>
<circle cx="293.776899" cy="119.032534" r="13.818182" opacity="0.619768" style="stroke:black;stroke-width:0.5;fill:url(#radialffffff666666)"/>
<circle cx="121.178391" cy="140.319553" r="13.818182" opacity="0.633593" style="stroke:black;stroke-width:0.5;fill:url(#radialffffff666666)"/>
<circle cx="308.247136" cy="56.200767" r="5.636364" opacity="0.664332" style="stroke:black;stroke-width:0.5;fill:url(#radialffffffbfbfbf)"/>
<circle cx="265.633973" cy="149.237048" r="13.818182" opacity="0.669730" style="stroke:black;stroke-width:0.5;fill:url(#radialffffff666666)"/>
<circle cx="286.334117" cy="79.717912" r="13.818182" opacity="0.701081" style="stroke:black;stroke-width:0.5;fill:url(#radialffffff666666)"/>
<circle cx="62.752702" cy="84.762029" r="16.569442" opacity="0.774308" style="stroke:black;stroke-width:0.5;fill:url(#radialffffff666666)"/>
<circle cx="230.078362" cy="140.099851" r="17.144657" opacity="0.787633" style="stroke:black;stroke-width:0.5;fill:url(#radialffffff666666)"/>
<circle cx="250.754428" cy="70.610811" r="18.333764" opacity="0.814489" style="stroke:black;stroke-width:0.5;fill:url(#radialffffff666666)"/>
<circle cx="40.000000" cy="63.134924" r="7.627398" opacity="0.822572" style="stroke:black;stroke-width:0.5;fill:url(#radialffffffbfbfbf)"/>
<circle cx="96.797486" cy="148.255913" r="18.861162" opacity="0.826121" style="stroke:black;stroke-width:0.5;fill:url(#radialffffff666666)"/>
<circle cx="194.107423" cy="178.734301" r="26.835403" opacity="0.838351" style="stroke:black;stroke-width:0.5;fill:url(#radialffffffb2b20)"/>
<circle cx="222.614512" cy="100.815325" r="20.114964" opacity="0.853138" style="stroke:black;stroke-width:0.5;fill:url(#radialffffff666666)"/>
<circle cx="244.963926" cy="40.000000" r="8.421345" opacity="0.864323" style="stroke:black;stroke-width:0.5;fill:url(#radialffffffbfbfbf)"/>
<circle cx="67.583137" cy="120.477150" r="21.598710" opacity="0.884043" style="stroke:black;stroke-width:0.5;fill:url(#radialffffff666666)"/>
<circle cx="99.752930" cy="176.004578" r="9.321419" opacity="0.909340" style="stroke:black;stroke-width:0.5;fill:url(#radialffffffbfbfbf)"/>
<circle cx="195.079529" cy="93.131773" r="9.722121" opacity="0.928680" style="stroke:black;stroke-width:0.5;fill:url(#radialffffffbfbfbf)"/>
<circle cx="48.550321" cy="126.679970" r="11.272727" opacity="1.000000" style="stroke:black;stroke-width:0.5;fill:url(#radialffffffbfbfbf)"/>
</svg>
</g>
</svg>
