<?xml version="1.0"?>
<svg version="1.1" id="topsvg"
xmlns="http://www.w3.org/2000/svg" xmlns:xlink="http://www.w3.org/1999/xlink"
xmlns:cml="http://www.xml-cml.org/schema" x="0" y="0" width="1024px" height="1024px" viewBox="0 0 100 100">
<title>137210 - Open Babel Depiction</title>
<rect x="0" y="0" width="100" height="100" fill="white"/>
<defs>
<radialGradient id='radialffffff666666' cx='50%' cy='50%' r='50%' fx='30%' fy='30%'>
  <stop offset=' 0%' stop-color="rgb(255,255,255)"  stop-opacity='1.0'/>
  <stop offset='100%' stop-color="rgb(102,102,102)"  stop-opacity ='1.0'/>
</radialGradient>
<radialGradient id='radialffffffbfbfbf' cx='50%' cy='50%' r='50%' fx='30%' fy='30%'>
  <stop offset=' 0%' stop-color="rgb(255,255,255)"  stop-opacity='1.0'/>
  <stop offset='100%' stop-color="rgb(191,191,191)"  stop-opacity ='1.0'/>
</radialGradient>
</defs>
<g transform="translate(0,0)">
<svg width="100" height="100" x="0" y="0" viewBox="0 0 536.925 204.729"
font-family="sans-serif" stroke="rgb(0,0,0)" stroke-width="2"  stroke-linecap="round">
<line x1="395.0" y1="110.5" x2="353.0" y2="131.2" opacity="1.0" stroke="rgb(0,0,0)"  stroke-width="1.4"/>
<line x1="395.0" y1="110.5" x2="394.9" y2="106.7" opacity="0.5" stroke="rgb(0,0,0)"  stroke-width="0.6"/>
<line x1="403.3" y1="66.8" x2="384.3" y2="40.8" opacity="0.2" stroke="rgb(0,0,0)"  stroke-width="1.6"/>
<line x1="403.3" y1="66.8" x2="396.0" y2="67.8" opacity="0.5" stroke="rgb(0,0,0)"  stroke-width="2.4"/>
<line x1="434.8" y1="136.2" x2="432.3" y2="147.1" opacity="0.8" stroke="rgb(0,0,0)"  stroke-width="2.2"/>
<line x1="434.8" y1="136.2" x2="439.8" y2="164.7" opacity="0.7" stroke="rgb(0,0,0)"  stroke-width="1.3"/>
<line x1="451.5" y1="59.3" x2="457.2" y2="40.0" opacity="0.4" stroke="rgb(0,0,0)"  stroke-width="1.2"/>
<line x1="451.5" y1="59.3" x2="465.6" y2="41.7" opacity="0.4" stroke="rgb(0,0,0)"  stroke-width="2.1"/>
<line x1="471.7" y1="104.0" x2="496.9" y2="110.0" opacity="0.7" stroke="rgb(0,0,0)"  stroke-width="1.9"/>
<line x1="471.7" y1="104.0" x2="486.7" y2="106.5" opacity="0.6" stroke="rgb(0,0,0)"  stroke-width="0.9"/>
<line x1="353.0" y1="131.2" x2="314.1" y2="103.4" opacity="0.3" stroke="rgb(0,0,0)"  stroke-width="1.4"/>
<line x1="353.0" y1="131.2" x2="349.9" y2="163.1" opacity="0.5" stroke="rgb(0,0,0)"  stroke-width="1.4"/>
<line x1="353.0" y1="131.2" x2="353.2" y2="136.5" opacity="0.5" stroke="rgb(0,0,0)"  stroke-width="2.2"/>
<line x1="314.1" y1="103.4" x2="271.8" y2="124.8" opacity="0.7" stroke="rgb(0,0,0)"  stroke-width="1.5"/>
<line x1="314.1" y1="103.4" x2="313.9" y2="97.8" opacity="0.5" stroke="rgb(0,0,0)"  stroke-width="0.7"/>
<line x1="314.1" y1="103.4" x2="316.2" y2="71.7" opacity="0.2" stroke="rgb(0,0,0)"  stroke-width="1.5"/>
<line x1="271.8" y1="124.8" x2="232.8" y2="97.5" opacity="0.5" stroke="rgb(0,0,0)"  stroke-width="1.5"/>
<line x1="271.8" y1="124.8" x2="271.7" y2="129.7" opacity="0.5" stroke="rgb(0,0,0)"  stroke-width="2.3"/>
<line x1="271.8" y1="124.8" x2="269.3" y2="156.8" opacity="0.8" stroke="rgb(0,0,0)"  stroke-width="1.4"/>
<line x1="232.8" y1="97.5" x2="190.5" y2="118.5" opacity="0.5" stroke="rgb(0,0,0)"  stroke-width="1.5"/>
<line x1="232.8" y1="97.5" x2="232.5" y2="93.3" opacity="0.5" stroke="rgb(0,0,0)"  stroke-width="0.7"/>
<line x1="232.8" y1="97.5" x2="235.6" y2="65.3" opacity="0.2" stroke="rgb(0,0,0)"  stroke-width="1.5"/>
<line x1="190.5" y1="118.5" x2="151.6" y2="90.6" opacity="0.5" stroke="rgb(0,0,0)"  stroke-width="1.5"/>
<line x1="190.5" y1="118.5" x2="191.0" y2="123.3" opacity="0.5" stroke="rgb(0,0,0)"  stroke-width="2.3"/>
<line x1="190.5" y1="118.5" x2="187.3" y2="150.5" opacity="0.8" stroke="rgb(0,0,0)"  stroke-width="1.5"/>
<line x1="151.6" y1="90.6" x2="108.5" y2="109.7" opacity="0.5" stroke="rgb(0,0,0)"  stroke-width="1.6"/>
<line x1="151.6" y1="90.6" x2="155.4" y2="58.5" opacity="0.5" stroke="rgb(0,0,0)"  stroke-width="1.6"/>
<line x1="151.6" y1="90.6" x2="150.9" y2="86.2" opacity="0.5" stroke="rgb(0,0,0)"  stroke-width="0.8"/>
<line x1="108.5" y1="109.7" x2="69.8" y2="81.6" opacity="0.3" stroke="rgb(0,0,0)"  stroke-width="1.6"/>
<line x1="108.5" y1="109.7" x2="109.2" y2="114.5" opacity="0.5" stroke="rgb(0,0,0)"  stroke-width="2.4"/>
<line x1="108.5" y1="109.7" x2="104.2" y2="141.6" opacity="0.8" stroke="rgb(0,0,0)"  stroke-width="1.6"/>
<line x1="69.8" y1="81.6" x2="72.5" y2="49.9" opacity="0.5" stroke="rgb(0,0,0)"  stroke-width="1.7"/>
<line x1="69.8" y1="81.6" x2="40.0" y2="96.8" opacity="0.6" stroke="rgb(0,0,0)"  stroke-width="1.6"/>
<line x1="69.8" y1="81.6" x2="67.4" y2="77.0" opacity="0.5" stroke="rgb(0,0,0)"  stroke-width="0.9"/>
<line x1="403.3" y1="66.8" x2="395.0" y2="110.5" opacity="0.3" stroke="rgb(0,0,0)"  stroke-width="1.5"/>
<line x1="395.0" y1="110.5" x2="434.8" y2="136.2" opacity="0.5" stroke="rgb(0,0,0)"  stroke-width="1.4"/>
<line x1="434.8" y1="136.2" x2="471.7" y2="104.0" opacity="0.5" stroke="rgb(0,0,0)"  stroke-width="1.5"/>
<line x1="471.7" y1="104.0" x2="451.5" y2="59.3" opacity="0.5" stroke="rgb(0,0,0)"  stroke-width="1.6"/>
<line x1="451.5" y1="59.3" x2="403.3" y2="66.8" opacity="0.5" stroke="rgb(0,0,0)"  stroke-width="1.7"/>
<circle cx="394.944839" cy="106.663669" r="5.636364" opacity="0.200000" style="stroke:black;stroke-width:0.5;fill:url(#radialffffffbfbfbf)"/>
<circle cx="313.885017" cy="97.813682" r="5.636364" opacity="0.200000" style="stroke:black;stroke-width:0.5;fill:url(#radialffffffbfbfbf)"/>
<circle cx="232.486425" cy="93.283830" r="5.636364" opacity="0.200000" style="stroke:black;stroke-width:0.5;fill:url(#radialffffffbfbfbf)"/>
<circle cx="150.945872" cy="86.195451" r="5.636364" opacity="0.240543" style="stroke:black;stroke-width:0.5;fill:url(#radialffffffbfbfbf)"/>
<circle cx="67.404956" cy="77.026051" r="5.636364" opacity="0.312609" style="stroke:black;stroke-width:0.5;fill:url(#radialffffffbfbfbf)"/>
<circle cx="486.719501" cy="106.528161" r="5.636364" opacity="0.368481" style="stroke:black;stroke-width:0.5;fill:url(#radialffffffbfbfbf)"/>
<circle cx="457.162543" cy="40.000000" r="5.636364" opacity="0.475818" style="stroke:black;stroke-width:0.5;fill:url(#radialffffffbfbfbf)"/>
<circle cx="439.785206" cy="164.729010" r="5.636364" opacity="0.557190" style="stroke:black;stroke-width:0.5;fill:url(#radialffffffbfbfbf)"/>
<circle cx="349.927020" cy="163.054513" r="5.636364" opacity="0.616471" style="stroke:black;stroke-width:0.5;fill:url(#radialffffffbfbfbf)"/>
<circle cx="395.015819" cy="110.496621" r="13.818182" opacity="0.622687" style="stroke:black;stroke-width:0.5;fill:url(#radialffffff666666)"/>
<circle cx="269.325346" cy="156.817901" r="5.636364" opacity="0.630392" style="stroke:black;stroke-width:0.5;fill:url(#radialffffffbfbfbf)"/>
<circle cx="314.094733" cy="103.369525" r="13.818182" opacity="0.642468" style="stroke:black;stroke-width:0.5;fill:url(#radialffffff666666)"/>
<circle cx="187.297607" cy="150.468366" r="5.636364" opacity="0.643958" style="stroke:black;stroke-width:0.5;fill:url(#radialffffffbfbfbf)"/>
<circle cx="232.789706" cy="97.549118" r="13.818182" opacity="0.646708" style="stroke:black;stroke-width:0.5;fill:url(#radialffffff666666)"/>
<circle cx="151.626640" cy="90.634964" r="13.818182" opacity="0.666468" style="stroke:black;stroke-width:0.5;fill:url(#radialffffff666666)"/>
<circle cx="104.189028" cy="141.563530" r="5.636364" opacity="0.666655" style="stroke:black;stroke-width:0.5;fill:url(#radialffffffbfbfbf)"/>
<circle cx="384.297752" cy="40.767881" r="5.636364" opacity="0.678477" style="stroke:black;stroke-width:0.5;fill:url(#radialffffffbfbfbf)"/>
<circle cx="69.847334" cy="81.633336" r="13.818182" opacity="0.694277" style="stroke:black;stroke-width:0.5;fill:url(#radialffffff666666)"/>
<circle cx="471.742599" cy="103.979313" r="13.818182" opacity="0.697974" style="stroke:black;stroke-width:0.5;fill:url(#radialffffff666666)"/>
<circle cx="434.819792" cy="136.233533" r="14.739852" opacity="0.730308" style="stroke:black;stroke-width:0.5;fill:url(#radialffffff666666)"/>
<circle cx="352.979185" cy="131.174554" r="15.085171" opacity="0.738813" style="stroke:black;stroke-width:0.5;fill:url(#radialffffff666666)"/>
<circle cx="451.519587" cy="59.284133" r="15.106754" opacity="0.739342" style="stroke:black;stroke-width:0.5;fill:url(#radialffffff666666)"/>
<circle cx="271.780628" cy="124.841150" r="15.530555" opacity="0.749641" style="stroke:black;stroke-width:0.5;fill:url(#radialffffff666666)"/>
<circle cx="235.567627" cy="65.343293" r="6.500495" opacity="0.759379" style="stroke:black;stroke-width:0.5;fill:url(#radialffffffbfbfbf)"/>
<circle cx="190.511092" cy="118.517426" r="15.975939" opacity="0.760314" style="stroke:black;stroke-width:0.5;fill:url(#radialffffff666666)"/>
<circle cx="316.208018" cy="71.731545" r="6.592131" opacity="0.764713" style="stroke:black;stroke-width:0.5;fill:url(#radialffffffbfbfbf)"/>
<circle cx="155.437006" cy="58.464630" r="6.777802" opacity="0.775407" style="stroke:black;stroke-width:0.5;fill:url(#radialffffffbfbfbf)"/>
<circle cx="40.000000" cy="96.794142" r="6.826220" opacity="0.778172" style="stroke:black;stroke-width:0.5;fill:url(#radialffffffbfbfbf)"/>
<circle cx="108.509164" cy="109.667438" r="16.747022" opacity="0.778446" style="stroke:black;stroke-width:0.5;fill:url(#radialffffff666666)"/>
<circle cx="403.320547" cy="66.779037" r="17.109019" opacity="0.786814" style="stroke:black;stroke-width:0.5;fill:url(#radialffffff666666)"/>
<circle cx="72.470389" cy="49.872753" r="7.320810" opacity="0.805870" style="stroke:black;stroke-width:0.5;fill:url(#radialffffffbfbfbf)"/>
<circle cx="496.924573" cy="110.032020" r="8.469251" opacity="0.866778" style="stroke:black;stroke-width:0.5;fill:url(#radialffffffbfbfbf)"/>
<circle cx="465.593100" cy="41.709987" r="9.537261" opacity="0.919808" style="stroke:black;stroke-width:0.5;fill:url(#radialffffffbfbfbf)"/>
<circle cx="432.251586" cy="147.109694" r="10.177507" opacity="0.950181" style="stroke:black;stroke-width:0.5;fill:url(#radialffffffbfbfbf)"/>
<circle cx="353.221164" cy="136.459381" r="10.494829" opacity="0.964880" style="stroke:black;stroke-width:0.5;fill:url(#radialffffffbfbfbf)"/>
<circle cx="271.706421" cy="129.687188" r="10.682501" opacity="0.973469" style="stroke:black;stroke-width:0.5;fill:url(#radialffffffbfbfbf)"/>
<circle cx="191.046672" cy="123.289257" r="10.864571" opacity="0.981729" style="stroke:black;stroke-width:0.5;fill:url(#radialffffffbfbfbf)"/>
<circle cx="109.202838" cy="114.529608" r="11.176290" opacity="0.995713" style="stroke:black;stroke-width:0.5;fill:url(#radialffffffbfbfbf)"/>
<circle cx="396.038585" cy="67.763086" r="11.272727" opacity="1.000000" style="stroke:black;stroke-width:0.5;fill:url(#radialffffffbfbfbf)"/>
</svg>
</g>
</svg>
