<?xml version="1.0"?>
<svg version="1.1" id="topsvg"
xmlns="http://www.w3.org/2000/svg" xmlns:xlink="http://www.w3.org/1999/xlink"
xmlns:cml="http://www.xml-cml.org/schema" x="0" y="0" width="200px" height="200px" viewBox="0 0 100 100">
<title>137855 - Open Babel Depiction</title>
<rect x="0" y="0" width="100" height="100" fill="white"/>
<defs>
<radialGradient id='radialffffff666666' cx='50%' cy='50%' r='50%' fx='30%' fy='30%'>
  <stop offset=' 0%' stop-color="rgb(255,255,255)"  stop-opacity='1.0'/>
  <stop offset='100%' stop-color="rgb(102,102,102)"  stop-opacity ='1.0'/>
</radialGradient>
<radialGradient id='radialffffffbfbfbf' cx='50%' cy='50%' r='50%' fx='30%' fy='30%'>
  <stop offset=' 0%' stop-color="rgb(255,255,255)"  stop-opacity='1.0'/>
  <stop offset='100%' stop-color="rgb(191,191,191)"  stop-opacity ='1.0'/>
</radialGradient>
</defs>
<g transform="translate(0,0)">
<svg width="100" height="100" x="0" y="0" viewBox="0 0 388.467 286.885"
font-family="sans-serif" stroke="rgb(0,0,0)" stroke-width="4"  stroke-linecap="round">
<line x1="193.6" y1="99.9" x2="193.1" y2="149.6" opacity="1.0" stroke="rgb(0,0,0)"  stroke-width="2.1"/>
<line x1="193.6" y1="99.9" x2="235.0" y2="84.3" opacity="0.7" stroke="rgb(0,0,0)"  stroke-width="1.6"/>
<line x1="193.6" y1="99.9" x2="152.8" y2="83.2" opacity="0.5" stroke="rgb(0,0,0)"  stroke-width="1.6"/>
<line x1="193.6" y1="99.9" x2="193.9" y2="83.7" opacity="0.5" stroke="rgb(0,0,0)"  stroke-width="2.5"/>
<line x1="193.1" y1="149.6" x2="193.2" y2="178.5" opacity="0.8" stroke="rgb(0,0,0)"  stroke-width="1.6"/>
<line x1="193.1" y1="149.6" x2="164.7" y2="158.0" opacity="0.5" stroke="rgb(0,0,0)"  stroke-width="2.6"/>
<line x1="193.1" y1="149.6" x2="221.5" y2="158.1" opacity="0.9" stroke="rgb(0,0,0)"  stroke-width="2.6"/>
<line x1="235.0" y1="84.3" x2="278.9" y2="94.4" opacity="0.9" stroke="rgb(0,0,0)"  stroke-width="1.5"/>
<line x1="235.0" y1="84.3" x2="235.1" y2="97.8" opacity="0.5" stroke="rgb(0,0,0)"  stroke-width="0.6"/>
<line x1="235.0" y1="84.3" x2="232.8" y2="48.7" opacity="0.2" stroke="rgb(0,0,0)"  stroke-width="1.1"/>
<line x1="152.8" y1="83.2" x2="109.5" y2="93.4" opacity="0.4" stroke="rgb(0,0,0)"  stroke-width="1.5"/>
<line x1="152.8" y1="83.2" x2="155.3" y2="47.6" opacity="0.5" stroke="rgb(0,0,0)"  stroke-width="1.1"/>
<line x1="152.8" y1="83.2" x2="152.2" y2="96.9" opacity="0.4" stroke="rgb(0,0,0)"  stroke-width="0.6"/>
<line x1="193.2" y1="178.5" x2="195.0" y2="226.8" opacity="0.2" stroke="rgb(0,0,0)"  stroke-width="1.1"/>
<line x1="193.2" y1="178.5" x2="163.7" y2="172.5" opacity="0.4" stroke="rgb(0,0,0)"  stroke-width="0.6"/>
<line x1="193.2" y1="178.5" x2="221.4" y2="170.9" opacity="0.2" stroke="rgb(0,0,0)"  stroke-width="0.6"/>
<line x1="278.9" y1="94.4" x2="318.1" y2="75.7" opacity="0.2" stroke="rgb(0,0,0)"  stroke-width="1.5"/>
<line x1="278.9" y1="94.4" x2="283.4" y2="129.8" opacity="0.5" stroke="rgb(0,0,0)"  stroke-width="1.9"/>
<line x1="278.9" y1="94.4" x2="278.8" y2="81.4" opacity="0.6" stroke="rgb(0,0,0)"  stroke-width="2.4"/>
<line x1="109.5" y1="93.4" x2="70.6" y2="76.8" opacity="0.8" stroke="rgb(0,0,0)"  stroke-width="1.5"/>
<line x1="109.5" y1="93.4" x2="109.2" y2="78.5" opacity="0.5" stroke="rgb(0,0,0)"  stroke-width="2.4"/>
<line x1="109.5" y1="93.4" x2="105.4" y2="128.8" opacity="0.8" stroke="rgb(0,0,0)"  stroke-width="2.0"/>
<line x1="195.0" y1="226.8" x2="195.0" y2="246.9" opacity="0.7" stroke="rgb(0,0,0)"  stroke-width="0.8"/>
<line x1="195.0" y1="226.8" x2="166.8" y2="236.1" opacity="0.3" stroke="rgb(0,0,0)"  stroke-width="1.6"/>
<line x1="195.0" y1="226.8" x2="224.8" y2="234.3" opacity="0.5" stroke="rgb(0,0,0)"  stroke-width="1.6"/>
<line x1="318.1" y1="75.7" x2="319.9" y2="88.9" opacity="0.5" stroke="rgb(0,0,0)"  stroke-width="0.5"/>
<line x1="318.1" y1="75.7" x2="315.9" y2="40.0" opacity="0.2" stroke="rgb(0,0,0)"  stroke-width="1.0"/>
<line x1="318.1" y1="75.7" x2="348.5" y2="83.9" opacity="0.3" stroke="rgb(0,0,0)"  stroke-width="1.4"/>
<line x1="70.6" y1="76.8" x2="69.4" y2="92.1" opacity="0.5" stroke="rgb(0,0,0)"  stroke-width="0.5"/>
<line x1="70.6" y1="76.8" x2="72.4" y2="41.3" opacity="0.2" stroke="rgb(0,0,0)"  stroke-width="1.0"/>
<line x1="70.6" y1="76.8" x2="40.0" y2="84.3" opacity="0.3" stroke="rgb(0,0,0)"  stroke-width="1.3"/>
<circle cx="319.912620" cy="88.896377" r="5.636364" opacity="0.200000" style="stroke:black;stroke-width:0.5;fill:url(#radialffffffbfbfbf)"/>
<circle cx="69.440552" cy="92.050138" r="5.636364" opacity="0.200000" style="stroke:black;stroke-width:0.5;fill:url(#radialffffffbfbfbf)"/>
<circle cx="235.137308" cy="97.794955" r="5.636364" opacity="0.200000" style="stroke:black;stroke-width:0.5;fill:url(#radialffffffbfbfbf)"/>
<circle cx="152.216956" cy="96.947627" r="5.636364" opacity="0.200000" style="stroke:black;stroke-width:0.5;fill:url(#radialffffffbfbfbf)"/>
<circle cx="221.439386" cy="170.887612" r="5.636364" opacity="0.288077" style="stroke:black;stroke-width:0.5;fill:url(#radialffffffbfbfbf)"/>
<circle cx="163.716405" cy="172.533195" r="5.636364" opacity="0.309326" style="stroke:black;stroke-width:0.5;fill:url(#radialffffffbfbfbf)"/>
<circle cx="194.972660" cy="246.885393" r="5.636364" opacity="0.339985" style="stroke:black;stroke-width:0.5;fill:url(#radialffffffbfbfbf)"/>
<circle cx="72.375120" cy="41.256270" r="5.636364" opacity="0.550128" style="stroke:black;stroke-width:0.5;fill:url(#radialffffffbfbfbf)"/>
<circle cx="193.189673" cy="178.471033" r="13.818182" opacity="0.553429" style="stroke:black;stroke-width:0.5;fill:url(#radialffffff666666)"/>
<circle cx="315.878816" cy="40.000000" r="5.636364" opacity="0.578971" style="stroke:black;stroke-width:0.5;fill:url(#radialffffffbfbfbf)"/>
<circle cx="155.311829" cy="47.609593" r="5.636364" opacity="0.584986" style="stroke:black;stroke-width:0.5;fill:url(#radialffffffbfbfbf)"/>
<circle cx="232.811246" cy="48.653213" r="5.636364" opacity="0.585046" style="stroke:black;stroke-width:0.5;fill:url(#radialffffffbfbfbf)"/>
<circle cx="70.601948" cy="76.755707" r="13.818182" opacity="0.591598" style="stroke:black;stroke-width:0.5;fill:url(#radialffffff666666)"/>
<circle cx="318.070745" cy="75.672829" r="13.818182" opacity="0.599229" style="stroke:black;stroke-width:0.5;fill:url(#radialffffff666666)"/>
<circle cx="152.753488" cy="83.216991" r="13.818182" opacity="0.620535" style="stroke:black;stroke-width:0.5;fill:url(#radialffffff666666)"/>
<circle cx="234.996632" cy="84.299869" r="13.818182" opacity="0.621247" style="stroke:black;stroke-width:0.5;fill:url(#radialffffff666666)"/>
<circle cx="195.034819" cy="226.758904" r="13.818182" opacity="0.660102" style="stroke:black;stroke-width:0.5;fill:url(#radialffffff666666)"/>
<circle cx="40.000000" cy="84.335856" r="6.014034" opacity="0.730413" style="stroke:black;stroke-width:0.5;fill:url(#radialffffffbfbfbf)"/>
<circle cx="348.466586" cy="83.946543" r="6.121257" opacity="0.736895" style="stroke:black;stroke-width:0.5;fill:url(#radialffffffbfbfbf)"/>
<circle cx="278.943175" cy="94.376200" r="17.203712" opacity="0.788988" style="stroke:black;stroke-width:0.5;fill:url(#radialffffff666666)"/>
<circle cx="109.464524" cy="93.440541" r="17.511532" opacity="0.796016" style="stroke:black;stroke-width:0.5;fill:url(#radialffffff666666)"/>
<circle cx="224.779625" cy="234.286708" r="7.162393" opacity="0.797103" style="stroke:black;stroke-width:0.5;fill:url(#radialffffffbfbfbf)"/>
<circle cx="283.399007" cy="129.842922" r="7.327412" opacity="0.806233" style="stroke:black;stroke-width:0.5;fill:url(#radialffffffbfbfbf)"/>
<circle cx="166.752391" cy="236.141669" r="7.332195" opacity="0.806497" style="stroke:black;stroke-width:0.5;fill:url(#radialffffffbfbfbf)"/>
<circle cx="193.641145" cy="99.872380" r="18.044109" opacity="0.808030" style="stroke:black;stroke-width:0.5;fill:url(#radialffffff666666)"/>
<circle cx="105.391462" cy="128.756772" r="7.661835" opacity="0.824426" style="stroke:black;stroke-width:0.5;fill:url(#radialffffffbfbfbf)"/>
<circle cx="193.052269" cy="149.629171" r="20.694292" opacity="0.865336" style="stroke:black;stroke-width:0.5;fill:url(#radialffffff666666)"/>
<circle cx="221.481916" cy="158.053376" r="10.905221" opacity="0.983564" style="stroke:black;stroke-width:0.5;fill:url(#radialffffffbfbfbf)"/>
<circle cx="164.678237" cy="157.968317" r="10.912395" opacity="0.983888" style="stroke:black;stroke-width:0.5;fill:url(#radialffffffbfbfbf)"/>
<circle cx="278.786141" cy="81.388202" r="11.090170" opacity="0.991870" style="stroke:black;stroke-width:0.5;fill:url(#radialffffffbfbfbf)"/>
<circle cx="109.173357" cy="78.545237" r="11.115680" opacity="0.993010" style="stroke:black;stroke-width:0.5;fill:url(#radialffffffbfbfbf)"/>
<circle cx="193.853795" cy="83.707721" r="11.272727" opacity="1.000000" style="stroke:black;stroke-width:0.5;fill:url(#radialffffffbfbfbf)"/>
</svg>
</g>
</svg>
