<?xml version="1.0"?>
<svg version="1.1" id="topsvg"
xmlns="http://www.w3.org/2000/svg" xmlns:xlink="http://www.w3.org/1999/xlink"
xmlns:cml="http://www.xml-cml.org/schema" x="0" y="0" width="1024px" height="1024px" viewBox="0 0 100 100">
<title>13845 - Open Babel Depiction</title>
<rect x="0" y="0" width="100" height="100" fill="white"/>
<defs>
<radialGradient id='radialffffff666666' cx='50%' cy='50%' r='50%' fx='30%' fy='30%'>
  <stop offset=' 0%' stop-color="rgb(255,255,255)"  stop-opacity='1.0'/>
  <stop offset='100%' stop-color="rgb(102,102,102)"  stop-opacity ='1.0'/>
</radialGradient>
<radialGradient id='radialffffffbfbfbf' cx='50%' cy='50%' r='50%' fx='30%' fy='30%'>
  <stop offset=' 0%' stop-color="rgb(255,255,255)"  stop-opacity='1.0'/>
  <stop offset='100%' stop-color="rgb(191,191,191)"  stop-opacity ='1.0'/>
</radialGradient>
</defs>
<g transform="translate(0,0)">
<svg width="100" height="100" x="0" y="0" viewBox="0 0 521.883 223.558"
font-family="sans-serif" stroke="rgb(0,0,0)" stroke-width="2"  stroke-linecap="round">
<line x1="401.6" y1="87.9" x2="355.7" y2="75.5" opacity="1.0" stroke="rgb(0,0,0)"  stroke-width="1.9"/>
<line x1="401.6" y1="87.9" x2="411.5" y2="136.7" opacity="0.6" stroke="rgb(0,0,0)"  stroke-width="1.8"/>
<line x1="401.6" y1="87.9" x2="408.1" y2="74.3" opacity="0.6" stroke="rgb(0,0,0)"  stroke-width="1.1"/>
<polygon points="401.622571 87.916917 422.513777 65.994641 427.525434 72.230288 " stroke-width="1.138889" fill="rgb(0,0,0)"  stroke="rgb(0,0,0)" />
<line x1="355.7" y1="75.5" x2="317.6" y2="97.7" opacity="0.4" stroke="rgb(0,0,0)"  stroke-width="1.8"/>
<line x1="355.7" y1="75.5" x2="351.8" y2="40.0" opacity="0.6" stroke="rgb(0,0,0)"  stroke-width="2.1"/>
<line x1="355.7" y1="75.5" x2="353.9" y2="83.4" opacity="0.7" stroke="rgb(0,0,0)"  stroke-width="2.6"/>
<line x1="317.6" y1="97.7" x2="273.8" y2="84.6" opacity="0.9" stroke="rgb(0,0,0)"  stroke-width="1.8"/>
<line x1="317.6" y1="97.7" x2="320.8" y2="133.3" opacity="0.6" stroke="rgb(0,0,0)"  stroke-width="1.6"/>
<line x1="317.6" y1="97.7" x2="317.8" y2="88.6" opacity="0.5" stroke="rgb(0,0,0)"  stroke-width="1.1"/>
<line x1="273.8" y1="84.6" x2="235.6" y2="105.7" opacity="0.4" stroke="rgb(0,0,0)"  stroke-width="1.8"/>
<line x1="273.8" y1="84.6" x2="270.2" y2="49.0" opacity="0.6" stroke="rgb(0,0,0)"  stroke-width="2.0"/>
<line x1="273.8" y1="84.6" x2="273.0" y2="94.5" opacity="0.7" stroke="rgb(0,0,0)"  stroke-width="2.5"/>
<line x1="235.6" y1="105.7" x2="191.0" y2="94.5" opacity="0.8" stroke="rgb(0,0,0)"  stroke-width="1.7"/>
<line x1="235.6" y1="105.7" x2="236.3" y2="95.4" opacity="0.6" stroke="rgb(0,0,0)"  stroke-width="1.0"/>
<line x1="235.6" y1="105.7" x2="239.8" y2="141.3" opacity="0.3" stroke="rgb(0,0,0)"  stroke-width="1.5"/>
<line x1="411.5" y1="136.7" x2="457.5" y2="149.7" opacity="0.5" stroke="rgb(0,0,0)"  stroke-width="1.7"/>
<line x1="411.5" y1="136.7" x2="388.5" y2="157.1" opacity="0.6" stroke="rgb(0,0,0)"  stroke-width="1.7"/>
<line x1="411.5" y1="136.7" x2="407.0" y2="144.6" opacity="0.6" stroke="rgb(0,0,0)"  stroke-width="2.3"/>
<line x1="191.0" y1="94.5" x2="152.8" y2="116.3" opacity="0.8" stroke="rgb(0,0,0)"  stroke-width="1.6"/>
<line x1="191.0" y1="94.5" x2="190.4" y2="104.3" opacity="0.5" stroke="rgb(0,0,0)"  stroke-width="2.4"/>
<line x1="191.0" y1="94.5" x2="186.7" y2="59.0" opacity="0.8" stroke="rgb(0,0,0)"  stroke-width="1.9"/>
<line x1="408.1" y1="74.3" x2="442.6" y2="75.7" opacity="0.6" stroke="rgb(0,0,0)"  stroke-width="0.4"/>
<line x1="408.1" y1="74.3" x2="389.9" y2="95.4" opacity="0.1" stroke="rgb(0,0,0)"  stroke-width="0.4"/>
<line x1="408.1" y1="74.3" x2="397.2" y2="40.6" opacity="0.1" stroke="rgb(0,0,0)"  stroke-width="0.5"/>
<line x1="152.8" y1="116.3" x2="109.1" y2="102.1" opacity="0.2" stroke="rgb(0,0,0)"  stroke-width="1.6"/>
<line x1="152.8" y1="116.3" x2="154.0" y2="107.5" opacity="0.5" stroke="rgb(0,0,0)"  stroke-width="0.9"/>
<line x1="152.8" y1="116.3" x2="156.1" y2="151.8" opacity="0.3" stroke="rgb(0,0,0)"  stroke-width="1.4"/>
<line x1="109.1" y1="102.1" x2="71.0" y2="122.6" opacity="0.5" stroke="rgb(0,0,0)"  stroke-width="1.5"/>
<line x1="109.1" y1="102.1" x2="107.4" y2="111.5" opacity="0.5" stroke="rgb(0,0,0)"  stroke-width="2.3"/>
<line x1="109.1" y1="102.1" x2="106.0" y2="66.5" opacity="0.8" stroke="rgb(0,0,0)"  stroke-width="1.8"/>
<line x1="457.5" y1="149.7" x2="462.1" y2="147.3" opacity="0.6" stroke="rgb(0,0,0)"  stroke-width="1.1"/>
<line x1="457.5" y1="149.7" x2="481.9" y2="129.0" opacity="0.4" stroke="rgb(0,0,0)"  stroke-width="1.8"/>
<line x1="457.5" y1="149.7" x2="463.9" y2="183.6" opacity="0.6" stroke="rgb(0,0,0)"  stroke-width="1.7"/>
<line x1="71.0" y1="122.6" x2="71.0" y2="113.0" opacity="0.6" stroke="rgb(0,0,0)"  stroke-width="0.8"/>
<line x1="71.0" y1="122.6" x2="72.4" y2="158.3" opacity="0.3" stroke="rgb(0,0,0)"  stroke-width="1.2"/>
<line x1="71.0" y1="122.6" x2="40.0" y2="112.1" opacity="0.4" stroke="rgb(0,0,0)"  stroke-width="1.4"/>
<circle cx="389.881621" cy="95.391694" r="5.636364" opacity="0.200000" style="stroke:black;stroke-width:0.5;fill:url(#radialffffffbfbfbf)"/>
<circle cx="442.567381" cy="75.650447" r="5.636364" opacity="0.328344" style="stroke:black;stroke-width:0.5;fill:url(#radialffffffbfbfbf)"/>
<circle cx="71.038281" cy="112.994959" r="5.636364" opacity="0.354671" style="stroke:black;stroke-width:0.5;fill:url(#radialffffffbfbfbf)"/>
<circle cx="397.212779" cy="40.600594" r="5.636364" opacity="0.376012" style="stroke:black;stroke-width:0.5;fill:url(#radialffffffbfbfbf)"/>
<circle cx="153.982202" cy="107.547185" r="5.636364" opacity="0.405213" style="stroke:black;stroke-width:0.5;fill:url(#radialffffffbfbfbf)"/>
<circle cx="408.078952" cy="74.269735" r="13.818182" opacity="0.428676" style="stroke:black;stroke-width:0.5;fill:url(#radialffffff666666)"/>
<circle cx="236.292889" cy="95.417807" r="5.636364" opacity="0.450353" style="stroke:black;stroke-width:0.5;fill:url(#radialffffffbfbfbf)"/>
<circle cx="462.112782" cy="147.310392" r="5.636364" opacity="0.483101" style="stroke:black;stroke-width:0.5;fill:url(#radialffffffbfbfbf)"/>
<circle cx="317.803873" cy="88.602377" r="5.636364" opacity="0.483518" style="stroke:black;stroke-width:0.5;fill:url(#radialffffffbfbfbf)"/>
<circle cx="70.966471" cy="122.643625" r="13.818182" opacity="0.639293" style="stroke:black;stroke-width:0.5;fill:url(#radialffffff666666)"/>
<circle cx="72.441842" cy="158.303864" r="5.636364" opacity="0.649869" style="stroke:black;stroke-width:0.5;fill:url(#radialffffffbfbfbf)"/>
<circle cx="152.846297" cy="116.265583" r="13.818182" opacity="0.670480" style="stroke:black;stroke-width:0.5;fill:url(#radialffffff666666)"/>
<circle cx="156.120184" cy="151.847484" r="5.636364" opacity="0.683012" style="stroke:black;stroke-width:0.5;fill:url(#radialffffffbfbfbf)"/>
<circle cx="388.527022" cy="157.066772" r="5.636364" opacity="0.695067" style="stroke:black;stroke-width:0.5;fill:url(#radialffffffbfbfbf)"/>
<circle cx="235.617221" cy="105.719291" r="13.818182" opacity="0.696244" style="stroke:black;stroke-width:0.5;fill:url(#radialffffff666666)"/>
<circle cx="239.759358" cy="141.291400" r="5.636364" opacity="0.697284" style="stroke:black;stroke-width:0.5;fill:url(#radialffffffbfbfbf)"/>
<circle cx="317.624347" cy="97.702674" r="14.320324" opacity="0.719840" style="stroke:black;stroke-width:0.5;fill:url(#radialffffff666666)"/>
<circle cx="457.529993" cy="149.654012" r="14.479051" opacity="0.723818" style="stroke:black;stroke-width:0.5;fill:url(#radialffffff666666)"/>
<circle cx="40.000000" cy="112.143031" r="5.941326" opacity="0.725984" style="stroke:black;stroke-width:0.5;fill:url(#radialffffffbfbfbf)"/>
<circle cx="320.839481" cy="133.251934" r="6.000322" opacity="0.729580" style="stroke:black;stroke-width:0.5;fill:url(#radialffffffbfbfbf)"/>
<circle cx="401.622571" cy="87.916917" r="15.904631" opacity="0.758615" style="stroke:black;stroke-width:0.5;fill:url(#radialffffff666666)"/>
<circle cx="106.013060" cy="66.504452" r="6.723398" opacity="0.772289" style="stroke:black;stroke-width:0.5;fill:url(#radialffffffbfbfbf)"/>
<circle cx="463.878658" cy="183.558168" r="6.774225" opacity="0.775203" style="stroke:black;stroke-width:0.5;fill:url(#radialffffffbfbfbf)"/>
<circle cx="109.055197" cy="102.125523" r="16.819168" opacity="0.780121" style="stroke:black;stroke-width:0.5;fill:url(#radialffffff666666)"/>
<circle cx="411.454026" cy="136.705346" r="17.530474" opacity="0.796446" style="stroke:black;stroke-width:0.5;fill:url(#radialffffff666666)"/>
<circle cx="186.678643" cy="58.980713" r="7.211702" opacity="0.799842" style="stroke:black;stroke-width:0.5;fill:url(#radialffffffbfbfbf)"/>
<circle cx="190.987248" cy="94.526709" r="17.837545" opacity="0.803391" style="stroke:black;stroke-width:0.5;fill:url(#radialffffff666666)"/>
<circle cx="481.883407" cy="129.037987" r="7.395345" opacity="0.809962" style="stroke:black;stroke-width:0.5;fill:url(#radialffffffbfbfbf)"/>
<circle cx="270.232950" cy="49.008903" r="7.638286" opacity="0.823158" style="stroke:black;stroke-width:0.5;fill:url(#radialffffffbfbfbf)"/>
<circle cx="273.807134" cy="84.613652" r="18.923418" opacity="0.827483" style="stroke:black;stroke-width:0.5;fill:url(#radialffffff666666)"/>
<circle cx="351.796159" cy="40.000000" r="7.809525" opacity="0.832334" style="stroke:black;stroke-width:0.5;fill:url(#radialffffffbfbfbf)"/>
<circle cx="355.703281" cy="75.536204" r="19.701479" opacity="0.844324" style="stroke:black;stroke-width:0.5;fill:url(#radialffffff666666)"/>
<circle cx="425.019605" cy="69.112464" r="8.305695" opacity="0.858368" style="stroke:black;stroke-width:0.5;fill:url(#radialffffffbfbfbf)"/>
<circle cx="107.432941" cy="111.477155" r="10.058020" opacity="0.944587" style="stroke:black;stroke-width:0.5;fill:url(#radialffffffbfbfbf)"/>
<circle cx="406.978952" cy="144.607721" r="10.359957" opacity="0.958660" style="stroke:black;stroke-width:0.5;fill:url(#radialffffffbfbfbf)"/>
<circle cx="190.445409" cy="104.318995" r="10.467965" opacity="0.963644" style="stroke:black;stroke-width:0.5;fill:url(#radialffffffbfbfbf)"/>
<circle cx="273.033544" cy="94.500596" r="10.906954" opacity="0.983642" style="stroke:black;stroke-width:0.5;fill:url(#radialffffffbfbfbf)"/>
<circle cx="353.852539" cy="83.366768" r="11.272727" opacity="1.000000" style="stroke:black;stroke-width:0.5;fill:url(#radialffffffbfbfbf)"/>
</svg>
</g>
</svg>
