<?xml version="1.0"?>
<svg version="1.1" id="topsvg"
xmlns="http://www.w3.org/2000/svg" xmlns:xlink="http://www.w3.org/1999/xlink"
xmlns:cml="http://www.xml-cml.org/schema" x="0" y="0" width="200px" height="200px" viewBox="0 0 100 100">
<title>138541 - Open Babel Depiction</title>
<rect x="0" y="0" width="100" height="100" fill="white"/>
<defs>
<radialGradient id='radialffffff666666' cx='50%' cy='50%' r='50%' fx='30%' fy='30%'>
  <stop offset=' 0%' stop-color="rgb(255,255,255)"  stop-opacity='1.0'/>
  <stop offset='100%' stop-color="rgb(102,102,102)"  stop-opacity ='1.0'/>
</radialGradient>
<radialGradient id='radialffffffbfbfbf' cx='50%' cy='50%' r='50%' fx='30%' fy='30%'>
  <stop offset=' 0%' stop-color="rgb(255,255,255)"  stop-opacity='1.0'/>
  <stop offset='100%' stop-color="rgb(191,191,191)"  stop-opacity ='1.0'/>
</radialGradient>
</defs>
<g transform="translate(0,0)">
<svg width="100" height="100" x="0" y="0" viewBox="0 0 495.743 205.993"
font-family="sans-serif" stroke="rgb(0,0,0)" stroke-width="4"  stroke-linecap="round">
<line x1="353.4" y1="110.0" x2="310.8" y2="128.9" opacity="1.0" stroke="rgb(0,0,0)"  stroke-width="1.6"/>
<line x1="353.4" y1="110.0" x2="352.5" y2="105.4" opacity="0.5" stroke="rgb(0,0,0)"  stroke-width="2.4"/>
<line x1="392.3" y1="137.9" x2="390.0" y2="149.6" opacity="0.8" stroke="rgb(0,0,0)"  stroke-width="0.9"/>
<line x1="392.3" y1="137.9" x2="395.4" y2="166.0" opacity="0.3" stroke="rgb(0,0,0)"  stroke-width="1.8"/>
<line x1="364.4" y1="67.2" x2="346.1" y2="40.0" opacity="0.6" stroke="rgb(0,0,0)"  stroke-width="1.4"/>
<line x1="364.4" y1="67.2" x2="358.4" y2="68.7" opacity="0.5" stroke="rgb(0,0,0)"  stroke-width="0.6"/>
<line x1="430.6" y1="107.3" x2="455.7" y2="114.9" opacity="0.2" stroke="rgb(0,0,0)"  stroke-width="1.2"/>
<line x1="430.6" y1="107.3" x2="445.2" y2="110.2" opacity="0.4" stroke="rgb(0,0,0)"  stroke-width="2.1"/>
<line x1="412.7" y1="61.8" x2="418.0" y2="42.7" opacity="0.7" stroke="rgb(0,0,0)"  stroke-width="1.9"/>
<line x1="412.7" y1="61.8" x2="428.5" y2="44.9" opacity="0.6" stroke="rgb(0,0,0)"  stroke-width="1.0"/>
<line x1="310.8" y1="128.9" x2="272.7" y2="100.6" opacity="0.3" stroke="rgb(0,0,0)"  stroke-width="1.6"/>
<line x1="310.8" y1="128.9" x2="311.1" y2="132.9" opacity="0.5" stroke="rgb(0,0,0)"  stroke-width="0.8"/>
<line x1="310.8" y1="128.9" x2="306.8" y2="161.2" opacity="0.3" stroke="rgb(0,0,0)"  stroke-width="1.6"/>
<line x1="272.7" y1="100.6" x2="230.0" y2="119.2" opacity="0.5" stroke="rgb(0,0,0)"  stroke-width="1.5"/>
<line x1="272.7" y1="100.6" x2="271.7" y2="97.7" opacity="0.5" stroke="rgb(0,0,0)"  stroke-width="2.4"/>
<line x1="272.7" y1="100.6" x2="276.5" y2="68.0" opacity="0.8" stroke="rgb(0,0,0)"  stroke-width="1.6"/>
<line x1="230.0" y1="119.2" x2="191.7" y2="91.5" opacity="0.5" stroke="rgb(0,0,0)"  stroke-width="1.5"/>
<line x1="230.0" y1="119.2" x2="230.5" y2="121.4" opacity="0.5" stroke="rgb(0,0,0)"  stroke-width="0.7"/>
<line x1="230.0" y1="119.2" x2="225.9" y2="152.1" opacity="0.2" stroke="rgb(0,0,0)"  stroke-width="1.5"/>
<line x1="191.7" y1="91.5" x2="147.9" y2="109.9" opacity="0.5" stroke="rgb(0,0,0)"  stroke-width="1.5"/>
<line x1="191.7" y1="91.5" x2="195.3" y2="58.9" opacity="0.5" stroke="rgb(0,0,0)"  stroke-width="1.5"/>
<line x1="191.7" y1="91.5" x2="192.3" y2="88.2" opacity="0.5" stroke="rgb(0,0,0)"  stroke-width="2.3"/>
<line x1="147.9" y1="109.9" x2="109.6" y2="83.4" opacity="0.8" stroke="rgb(0,0,0)"  stroke-width="1.5"/>
<line x1="147.9" y1="109.9" x2="145.1" y2="143.0" opacity="0.5" stroke="rgb(0,0,0)"  stroke-width="1.5"/>
<line x1="147.9" y1="109.9" x2="146.7" y2="111.8" opacity="0.5" stroke="rgb(0,0,0)"  stroke-width="0.7"/>
<line x1="109.6" y1="83.4" x2="67.0" y2="102.8" opacity="0.2" stroke="rgb(0,0,0)"  stroke-width="1.6"/>
<line x1="109.6" y1="83.4" x2="112.1" y2="50.2" opacity="0.5" stroke="rgb(0,0,0)"  stroke-width="1.6"/>
<line x1="109.6" y1="83.4" x2="110.3" y2="81.9" opacity="0.5" stroke="rgb(0,0,0)"  stroke-width="2.4"/>
<line x1="67.0" y1="102.8" x2="64.9" y2="103.8" opacity="0.8" stroke="rgb(0,0,0)"  stroke-width="0.8"/>
<line x1="67.0" y1="102.8" x2="63.1" y2="135.6" opacity="0.3" stroke="rgb(0,0,0)"  stroke-width="1.5"/>
<line x1="67.0" y1="102.8" x2="40.0" y2="83.4" opacity="0.5" stroke="rgb(0,0,0)"  stroke-width="1.5"/>
<line x1="392.3" y1="137.9" x2="353.4" y2="110.0" opacity="0.5" stroke="rgb(0,0,0)"  stroke-width="1.7"/>
<line x1="353.4" y1="110.0" x2="364.4" y2="67.2" opacity="0.6" stroke="rgb(0,0,0)"  stroke-width="1.5"/>
<line x1="364.4" y1="67.2" x2="412.7" y2="61.8" opacity="0.5" stroke="rgb(0,0,0)"  stroke-width="1.3"/>
<line x1="412.7" y1="61.8" x2="430.6" y2="107.3" opacity="0.4" stroke="rgb(0,0,0)"  stroke-width="1.5"/>
<line x1="430.6" y1="107.3" x2="392.3" y2="137.9" opacity="0.5" stroke="rgb(0,0,0)"  stroke-width="1.5"/>
<circle cx="358.431255" cy="68.694273" r="5.636364" opacity="0.200000" style="stroke:black;stroke-width:0.5;fill:url(#radialffffffbfbfbf)"/>
<circle cx="230.525071" cy="121.371965" r="5.636364" opacity="0.200000" style="stroke:black;stroke-width:0.5;fill:url(#radialffffffbfbfbf)"/>
<circle cx="146.694427" cy="111.843775" r="5.636364" opacity="0.200000" style="stroke:black;stroke-width:0.5;fill:url(#radialffffffbfbfbf)"/>
<circle cx="64.928816" cy="103.770788" r="5.636364" opacity="0.241333" style="stroke:black;stroke-width:0.5;fill:url(#radialffffffbfbfbf)"/>
<circle cx="311.100062" cy="132.942601" r="5.636364" opacity="0.258784" style="stroke:black;stroke-width:0.5;fill:url(#radialffffffbfbfbf)"/>
<circle cx="390.039160" cy="149.608059" r="5.636364" opacity="0.358741" style="stroke:black;stroke-width:0.5;fill:url(#radialffffffbfbfbf)"/>
<circle cx="428.503619" cy="44.910906" r="5.636364" opacity="0.424020" style="stroke:black;stroke-width:0.5;fill:url(#radialffffffbfbfbf)"/>
<circle cx="455.742690" cy="114.889698" r="5.636364" opacity="0.529666" style="stroke:black;stroke-width:0.5;fill:url(#radialffffffbfbfbf)"/>
<circle cx="364.448889" cy="67.190672" r="13.818182" opacity="0.616496" style="stroke:black;stroke-width:0.5;fill:url(#radialffffff666666)"/>
<circle cx="229.983000" cy="119.226267" r="13.818182" opacity="0.644925" style="stroke:black;stroke-width:0.5;fill:url(#radialffffff666666)"/>
<circle cx="147.930220" cy="109.875541" r="13.818182" opacity="0.651305" style="stroke:black;stroke-width:0.5;fill:url(#radialffffff666666)"/>
<circle cx="195.258186" cy="58.859556" r="5.636364" opacity="0.652735" style="stroke:black;stroke-width:0.5;fill:url(#radialffffffbfbfbf)"/>
<circle cx="66.964809" cy="102.757632" r="13.818182" opacity="0.665337" style="stroke:black;stroke-width:0.5;fill:url(#radialffffff666666)"/>
<circle cx="310.848386" cy="128.922240" r="13.818182" opacity="0.671261" style="stroke:black;stroke-width:0.5;fill:url(#radialffffff666666)"/>
<circle cx="276.465594" cy="67.952152" r="5.636364" opacity="0.671994" style="stroke:black;stroke-width:0.5;fill:url(#radialffffffbfbfbf)"/>
<circle cx="412.651268" cy="61.789321" r="13.818182" opacity="0.686065" style="stroke:black;stroke-width:0.5;fill:url(#radialffffff666666)"/>
<circle cx="112.079318" cy="50.196099" r="5.636364" opacity="0.686578" style="stroke:black;stroke-width:0.5;fill:url(#radialffffffbfbfbf)"/>
<circle cx="392.281657" cy="137.888999" r="13.818182" opacity="0.701536" style="stroke:black;stroke-width:0.5;fill:url(#radialffffff666666)"/>
<circle cx="346.118498" cy="40.000000" r="5.892237" opacity="0.722979" style="stroke:black;stroke-width:0.5;fill:url(#radialffffffbfbfbf)"/>
<circle cx="430.636411" cy="107.329743" r="14.887029" opacity="0.733945" style="stroke:black;stroke-width:0.5;fill:url(#radialffffff666666)"/>
<circle cx="225.923920" cy="152.115138" r="6.215154" opacity="0.742526" style="stroke:black;stroke-width:0.5;fill:url(#radialffffffbfbfbf)"/>
<circle cx="145.084347" cy="143.003181" r="6.276643" opacity="0.746190" style="stroke:black;stroke-width:0.5;fill:url(#radialffffffbfbfbf)"/>
<circle cx="191.741177" cy="91.451578" r="15.799294" opacity="0.756099" style="stroke:black;stroke-width:0.5;fill:url(#radialffffff666666)"/>
<circle cx="40.000000" cy="83.359232" r="6.463490" opacity="0.757215" style="stroke:black;stroke-width:0.5;fill:url(#radialffffffbfbfbf)"/>
<circle cx="63.128365" cy="135.649729" r="6.501574" opacity="0.759442" style="stroke:black;stroke-width:0.5;fill:url(#radialffffffbfbfbf)"/>
<circle cx="272.690456" cy="100.582894" r="16.420762" opacity="0.770826" style="stroke:black;stroke-width:0.5;fill:url(#radialffffff666666)"/>
<circle cx="109.630318" cy="83.381818" r="16.637643" opacity="0.775899" style="stroke:black;stroke-width:0.5;fill:url(#radialffffff666666)"/>
<circle cx="306.776400" cy="161.223867" r="6.787994" opacity="0.775990" style="stroke:black;stroke-width:0.5;fill:url(#radialffffffbfbfbf)"/>
<circle cx="353.391285" cy="109.959433" r="17.043202" opacity="0.785299" style="stroke:black;stroke-width:0.5;fill:url(#radialffffff666666)"/>
<circle cx="395.356619" cy="165.992802" r="8.149084" opacity="0.850237" style="stroke:black;stroke-width:0.5;fill:url(#radialffffffbfbfbf)"/>
<circle cx="418.030032" cy="42.716809" r="8.908374" opacity="0.888965" style="stroke:black;stroke-width:0.5;fill:url(#radialffffffbfbfbf)"/>
<circle cx="445.165851" cy="110.165936" r="10.021524" opacity="0.942871" style="stroke:black;stroke-width:0.5;fill:url(#radialffffffbfbfbf)"/>
<circle cx="192.338101" cy="88.157206" r="10.777641" opacity="0.977794" style="stroke:black;stroke-width:0.5;fill:url(#radialffffffbfbfbf)"/>
<circle cx="271.722472" cy="97.682169" r="11.033118" opacity="0.989315" style="stroke:black;stroke-width:0.5;fill:url(#radialffffffbfbfbf)"/>
<circle cx="110.282094" cy="81.868536" r="11.129517" opacity="0.993628" style="stroke:black;stroke-width:0.5;fill:url(#radialffffffbfbfbf)"/>
<circle cx="352.513646" cy="105.377642" r="11.272727" opacity="1.000000" style="stroke:black;stroke-width:0.5;fill:url(#radialffffffbfbfbf)"/>
</svg>
</g>
</svg>
