<?xml version="1.0"?>
<svg version="1.1" id="topsvg"
xmlns="http://www.w3.org/2000/svg" xmlns:xlink="http://www.w3.org/1999/xlink"
xmlns:cml="http://www.xml-cml.org/schema" x="0" y="0" width="200px" height="200px" viewBox="0 0 100 100">
<title>138839 - Open Babel Depiction</title>
<rect x="0" y="0" width="100" height="100" fill="white"/>
<defs>
<radialGradient id='radialffffff666666' cx='50%' cy='50%' r='50%' fx='30%' fy='30%'>
  <stop offset=' 0%' stop-color="rgb(255,255,255)"  stop-opacity='1.0'/>
  <stop offset='100%' stop-color="rgb(102,102,102)"  stop-opacity ='1.0'/>
</radialGradient>
<radialGradient id='radialffffffbfbfbf' cx='50%' cy='50%' r='50%' fx='30%' fy='30%'>
  <stop offset=' 0%' stop-color="rgb(255,255,255)"  stop-opacity='1.0'/>
  <stop offset='100%' stop-color="rgb(191,191,191)"  stop-opacity ='1.0'/>
</radialGradient>
</defs>
<g transform="translate(0,0)">
<svg width="100" height="100" x="0" y="0" viewBox="0 0 866.535 208.034"
font-family="sans-serif" stroke="rgb(0,0,0)" stroke-width="4"  stroke-linecap="round">
<line x1="141.2" y1="113.1" x2="182.5" y2="136.4" opacity="1.0" stroke="rgb(0,0,0)"  stroke-width="1.3"/>
<line x1="141.2" y1="113.1" x2="141.3" y2="106.5" opacity="0.4" stroke="rgb(0,0,0)"  stroke-width="0.6"/>
<line x1="134.6" y1="71.1" x2="141.6" y2="75.2" opacity="0.2" stroke="rgb(0,0,0)"  stroke-width="2.5"/>
<line x1="134.6" y1="71.1" x2="154.6" y2="44.7" opacity="0.8" stroke="rgb(0,0,0)"  stroke-width="1.7"/>
<line x1="100.6" y1="138.4" x2="94.4" y2="164.8" opacity="0.6" stroke="rgb(0,0,0)"  stroke-width="1.1"/>
<line x1="100.6" y1="138.4" x2="102.9" y2="152.3" opacity="0.4" stroke="rgb(0,0,0)"  stroke-width="2.0"/>
<line x1="86.8" y1="61.2" x2="73.3" y2="44.8" opacity="0.7" stroke="rgb(0,0,0)"  stroke-width="2.2"/>
<line x1="86.8" y1="61.2" x2="82.1" y2="40.0" opacity="0.7" stroke="rgb(0,0,0)"  stroke-width="1.3"/>
<line x1="64.8" y1="104.6" x2="49.1" y2="104.3" opacity="0.4" stroke="rgb(0,0,0)"  stroke-width="1.0"/>
<line x1="64.8" y1="104.6" x2="40.0" y2="111.5" opacity="0.3" stroke="rgb(0,0,0)"  stroke-width="1.8"/>
<line x1="182.5" y1="136.4" x2="222.4" y2="110.5" opacity="0.6" stroke="rgb(0,0,0)"  stroke-width="1.3"/>
<line x1="182.5" y1="136.4" x2="183.5" y2="168.0" opacity="0.4" stroke="rgb(0,0,0)"  stroke-width="1.3"/>
<line x1="182.5" y1="136.4" x2="183.1" y2="142.5" opacity="0.4" stroke="rgb(0,0,0)"  stroke-width="2.1"/>
<line x1="222.4" y1="110.5" x2="264.8" y2="131.2" opacity="0.7" stroke="rgb(0,0,0)"  stroke-width="1.3"/>
<line x1="222.4" y1="110.5" x2="220.9" y2="78.1" opacity="0.4" stroke="rgb(0,0,0)"  stroke-width="1.3"/>
<line x1="222.4" y1="110.5" x2="222.9" y2="106.3" opacity="0.4" stroke="rgb(0,0,0)"  stroke-width="0.6"/>
<line x1="264.8" y1="131.2" x2="305.9" y2="105.8" opacity="0.2" stroke="rgb(0,0,0)"  stroke-width="1.4"/>
<line x1="264.8" y1="131.2" x2="263.6" y2="136.6" opacity="0.5" stroke="rgb(0,0,0)"  stroke-width="2.1"/>
<line x1="264.8" y1="131.2" x2="267.2" y2="163.3" opacity="0.7" stroke="rgb(0,0,0)"  stroke-width="1.3"/>
<line x1="305.9" y1="105.8" x2="347.3" y2="129.3" opacity="0.4" stroke="rgb(0,0,0)"  stroke-width="1.4"/>
<line x1="305.9" y1="105.8" x2="304.5" y2="74.6" opacity="0.5" stroke="rgb(0,0,0)"  stroke-width="1.5"/>
<line x1="305.9" y1="105.8" x2="306.5" y2="98.9" opacity="0.5" stroke="rgb(0,0,0)"  stroke-width="0.7"/>
<line x1="347.3" y1="129.3" x2="387.2" y2="102.1" opacity="0.2" stroke="rgb(0,0,0)"  stroke-width="1.5"/>
<line x1="347.3" y1="129.3" x2="346.6" y2="136.8" opacity="0.5" stroke="rgb(0,0,0)"  stroke-width="2.2"/>
<line x1="347.3" y1="129.3" x2="349.1" y2="160.1" opacity="0.7" stroke="rgb(0,0,0)"  stroke-width="1.4"/>
<line x1="387.2" y1="102.1" x2="428.7" y2="126.0" opacity="0.5" stroke="rgb(0,0,0)"  stroke-width="1.5"/>
<line x1="387.2" y1="102.1" x2="387.4" y2="94.0" opacity="0.5" stroke="rgb(0,0,0)"  stroke-width="0.8"/>
<line x1="387.2" y1="102.1" x2="385.6" y2="71.6" opacity="0.3" stroke="rgb(0,0,0)"  stroke-width="1.6"/>
<line x1="428.7" y1="126.0" x2="468.6" y2="99.2" opacity="0.5" stroke="rgb(0,0,0)"  stroke-width="1.5"/>
<line x1="428.7" y1="126.0" x2="429.9" y2="156.7" opacity="0.5" stroke="rgb(0,0,0)"  stroke-width="1.4"/>
<line x1="428.7" y1="126.0" x2="428.8" y2="133.5" opacity="0.5" stroke="rgb(0,0,0)"  stroke-width="2.2"/>
<line x1="468.6" y1="99.2" x2="510.1" y2="123.6" opacity="0.7" stroke="rgb(0,0,0)"  stroke-width="1.5"/>
<line x1="468.6" y1="99.2" x2="468.2" y2="91.2" opacity="0.5" stroke="rgb(0,0,0)"  stroke-width="0.8"/>
<line x1="468.6" y1="99.2" x2="467.9" y2="68.6" opacity="0.3" stroke="rgb(0,0,0)"  stroke-width="1.6"/>
<line x1="510.1" y1="123.6" x2="551.1" y2="98.6" opacity="0.5" stroke="rgb(0,0,0)"  stroke-width="1.5"/>
<line x1="510.1" y1="123.6" x2="510.3" y2="154.4" opacity="0.5" stroke="rgb(0,0,0)"  stroke-width="1.4"/>
<line x1="510.1" y1="123.6" x2="510.6" y2="131.2" opacity="0.5" stroke="rgb(0,0,0)"  stroke-width="2.2"/>
<line x1="551.1" y1="98.6" x2="592.6" y2="123.3" opacity="0.7" stroke="rgb(0,0,0)"  stroke-width="1.5"/>
<line x1="551.1" y1="98.6" x2="550.5" y2="90.4" opacity="0.5" stroke="rgb(0,0,0)"  stroke-width="0.8"/>
<line x1="551.1" y1="98.6" x2="551.2" y2="68.0" opacity="0.3" stroke="rgb(0,0,0)"  stroke-width="1.6"/>
<line x1="592.6" y1="123.3" x2="632.5" y2="96.0" opacity="0.5" stroke="rgb(0,0,0)"  stroke-width="1.5"/>
<line x1="592.6" y1="123.3" x2="593.5" y2="153.1" opacity="0.5" stroke="rgb(0,0,0)"  stroke-width="1.3"/>
<line x1="592.6" y1="123.3" x2="592.8" y2="132.6" opacity="0.4" stroke="rgb(0,0,0)"  stroke-width="2.2"/>
<line x1="632.5" y1="96.0" x2="674.0" y2="120.2" opacity="0.7" stroke="rgb(0,0,0)"  stroke-width="1.5"/>
<line x1="632.5" y1="96.0" x2="631.3" y2="65.8" opacity="0.5" stroke="rgb(0,0,0)"  stroke-width="1.6"/>
<line x1="632.5" y1="96.0" x2="632.7" y2="87.3" opacity="0.5" stroke="rgb(0,0,0)"  stroke-width="0.8"/>
<line x1="674.0" y1="120.2" x2="715.1" y2="94.6" opacity="0.3" stroke="rgb(0,0,0)"  stroke-width="1.5"/>
<line x1="674.0" y1="120.2" x2="674.9" y2="150.7" opacity="0.5" stroke="rgb(0,0,0)"  stroke-width="1.4"/>
<line x1="674.0" y1="120.2" x2="673.8" y2="128.6" opacity="0.5" stroke="rgb(0,0,0)"  stroke-width="2.2"/>
<line x1="715.1" y1="94.6" x2="757.6" y2="117.1" opacity="0.7" stroke="rgb(0,0,0)"  stroke-width="1.5"/>
<line x1="715.1" y1="94.6" x2="715.2" y2="86.5" opacity="0.5" stroke="rgb(0,0,0)"  stroke-width="0.8"/>
<line x1="715.1" y1="94.6" x2="713.6" y2="63.9" opacity="0.3" stroke="rgb(0,0,0)"  stroke-width="1.6"/>
<line x1="757.6" y1="117.1" x2="797.2" y2="89.6" opacity="0.5" stroke="rgb(0,0,0)"  stroke-width="1.6"/>
<line x1="757.6" y1="117.1" x2="757.4" y2="126.0" opacity="0.5" stroke="rgb(0,0,0)"  stroke-width="2.2"/>
<line x1="757.6" y1="117.1" x2="760.0" y2="147.2" opacity="0.7" stroke="rgb(0,0,0)"  stroke-width="1.4"/>
<line x1="797.2" y1="89.6" x2="796.4" y2="59.8" opacity="0.5" stroke="rgb(0,0,0)"  stroke-width="1.7"/>
<line x1="797.2" y1="89.6" x2="799.0" y2="81.0" opacity="0.6" stroke="rgb(0,0,0)"  stroke-width="0.9"/>
<line x1="797.2" y1="89.6" x2="826.5" y2="107.2" opacity="0.3" stroke="rgb(0,0,0)"  stroke-width="1.5"/>
<line x1="134.6" y1="71.1" x2="141.2" y2="113.1" opacity="0.5" stroke="rgb(0,0,0)"  stroke-width="1.5"/>
<line x1="141.2" y1="113.1" x2="100.6" y2="138.4" opacity="0.5" stroke="rgb(0,0,0)"  stroke-width="1.3"/>
<line x1="100.6" y1="138.4" x2="64.8" y2="104.6" opacity="0.4" stroke="rgb(0,0,0)"  stroke-width="1.5"/>
<line x1="64.8" y1="104.6" x2="86.8" y2="61.2" opacity="0.5" stroke="rgb(0,0,0)"  stroke-width="1.6"/>
<line x1="86.8" y1="61.2" x2="134.6" y2="71.1" opacity="0.5" stroke="rgb(0,0,0)"  stroke-width="1.8"/>
<circle cx="222.853215" cy="106.317664" r="5.636364" opacity="0.200000" style="stroke:black;stroke-width:0.5;fill:url(#radialffffffbfbfbf)"/>
<circle cx="141.332178" cy="106.488561" r="5.636364" opacity="0.200000" style="stroke:black;stroke-width:0.5;fill:url(#radialffffffbfbfbf)"/>
<circle cx="306.521750" cy="98.933629" r="5.636364" opacity="0.214176" style="stroke:black;stroke-width:0.5;fill:url(#radialffffffbfbfbf)"/>
<circle cx="550.462539" cy="90.424254" r="5.636364" opacity="0.265346" style="stroke:black;stroke-width:0.5;fill:url(#radialffffffbfbfbf)"/>
<circle cx="632.734878" cy="87.273947" r="5.636364" opacity="0.269678" style="stroke:black;stroke-width:0.5;fill:url(#radialffffffbfbfbf)"/>
<circle cx="387.426913" cy="94.022762" r="5.636364" opacity="0.272256" style="stroke:black;stroke-width:0.5;fill:url(#radialffffffbfbfbf)"/>
<circle cx="468.228894" cy="91.162657" r="5.636364" opacity="0.280092" style="stroke:black;stroke-width:0.5;fill:url(#radialffffffbfbfbf)"/>
<circle cx="715.249052" cy="86.474279" r="5.636364" opacity="0.288483" style="stroke:black;stroke-width:0.5;fill:url(#radialffffffbfbfbf)"/>
<circle cx="799.036892" cy="80.966885" r="5.636364" opacity="0.330389" style="stroke:black;stroke-width:0.5;fill:url(#radialffffffbfbfbf)"/>
<circle cx="49.060759" cy="104.257228" r="5.636364" opacity="0.388245" style="stroke:black;stroke-width:0.5;fill:url(#radialffffffbfbfbf)"/>
<circle cx="94.425820" cy="164.790193" r="5.636364" opacity="0.506072" style="stroke:black;stroke-width:0.5;fill:url(#radialffffffbfbfbf)"/>
<circle cx="82.056755" cy="40.000000" r="5.636364" opacity="0.526469" style="stroke:black;stroke-width:0.5;fill:url(#radialffffffbfbfbf)"/>
<circle cx="593.499534" cy="153.146634" r="5.636364" opacity="0.582726" style="stroke:black;stroke-width:0.5;fill:url(#radialffffffbfbfbf)"/>
<circle cx="183.505014" cy="168.034010" r="5.636364" opacity="0.583223" style="stroke:black;stroke-width:0.5;fill:url(#radialffffffbfbfbf)"/>
<circle cx="349.133114" cy="160.111488" r="5.636364" opacity="0.602678" style="stroke:black;stroke-width:0.5;fill:url(#radialffffffbfbfbf)"/>
<circle cx="674.949633" cy="150.737955" r="5.636364" opacity="0.602848" style="stroke:black;stroke-width:0.5;fill:url(#radialffffffbfbfbf)"/>
<circle cx="267.218691" cy="163.252122" r="5.636364" opacity="0.605161" style="stroke:black;stroke-width:0.5;fill:url(#radialffffffbfbfbf)"/>
<circle cx="760.027260" cy="147.152345" r="5.636364" opacity="0.608811" style="stroke:black;stroke-width:0.5;fill:url(#radialffffffbfbfbf)"/>
<circle cx="222.369545" cy="110.506250" r="13.818182" opacity="0.609230" style="stroke:black;stroke-width:0.5;fill:url(#radialffffff666666)"/>
<circle cx="510.275976" cy="154.423524" r="5.636364" opacity="0.610878" style="stroke:black;stroke-width:0.5;fill:url(#radialffffffbfbfbf)"/>
<circle cx="141.245117" cy="113.147090" r="13.818182" opacity="0.613606" style="stroke:black;stroke-width:0.5;fill:url(#radialffffff666666)"/>
<circle cx="429.899625" cy="156.741918" r="5.636364" opacity="0.614300" style="stroke:black;stroke-width:0.5;fill:url(#radialffffffbfbfbf)"/>
<circle cx="305.857509" cy="105.798524" r="13.818182" opacity="0.642315" style="stroke:black;stroke-width:0.5;fill:url(#radialffffff666666)"/>
<circle cx="551.113882" cy="98.575713" r="13.818182" opacity="0.658920" style="stroke:black;stroke-width:0.5;fill:url(#radialffffff666666)"/>
<circle cx="632.534961" cy="95.976790" r="13.818182" opacity="0.659514" style="stroke:black;stroke-width:0.5;fill:url(#radialffffff666666)"/>
<circle cx="387.165731" cy="102.074262" r="13.818182" opacity="0.661887" style="stroke:black;stroke-width:0.5;fill:url(#radialffffff666666)"/>
<circle cx="468.596484" cy="99.152893" r="13.818182" opacity="0.665225" style="stroke:black;stroke-width:0.5;fill:url(#radialffffff666666)"/>
<circle cx="715.055584" cy="94.635411" r="13.818182" opacity="0.668700" style="stroke:black;stroke-width:0.5;fill:url(#radialffffff666666)"/>
<circle cx="797.179598" cy="89.582667" r="13.818182" opacity="0.685809" style="stroke:black;stroke-width:0.5;fill:url(#radialffffff666666)"/>
<circle cx="64.834864" cy="104.618368" r="13.818182" opacity="0.696435" style="stroke:black;stroke-width:0.5;fill:url(#radialffffff666666)"/>
<circle cx="100.565210" cy="138.417258" r="13.818182" opacity="0.703761" style="stroke:black;stroke-width:0.5;fill:url(#radialffffff666666)"/>
<circle cx="182.492531" cy="136.437433" r="14.034334" opacity="0.712616" style="stroke:black;stroke-width:0.5;fill:url(#radialffffff666666)"/>
<circle cx="154.636339" cy="44.704501" r="5.724915" opacity="0.712640" style="stroke:black;stroke-width:0.5;fill:url(#radialffffffbfbfbf)"/>
<circle cx="220.915309" cy="78.148698" r="5.865522" opacity="0.721338" style="stroke:black;stroke-width:0.5;fill:url(#radialffffffbfbfbf)"/>
<circle cx="264.826135" cy="131.226691" r="14.464754" opacity="0.723461" style="stroke:black;stroke-width:0.5;fill:url(#radialffffff666666)"/>
<circle cx="592.625702" cy="123.307394" r="14.919662" opacity="0.734749" style="stroke:black;stroke-width:0.5;fill:url(#radialffffff666666)"/>
<circle cx="347.327411" cy="129.333927" r="15.096727" opacity="0.739096" style="stroke:black;stroke-width:0.5;fill:url(#radialffffff666666)"/>
<circle cx="674.020986" cy="120.247372" r="15.274735" opacity="0.743441" style="stroke:black;stroke-width:0.5;fill:url(#radialffffff666666)"/>
<circle cx="510.114753" cy="123.562127" r="15.364210" opacity="0.745615" style="stroke:black;stroke-width:0.5;fill:url(#radialffffff666666)"/>
<circle cx="826.535168" cy="107.217291" r="6.316922" opacity="0.748580" style="stroke:black;stroke-width:0.5;fill:url(#radialffffffbfbfbf)"/>
<circle cx="428.716245" cy="125.967581" r="15.509253" opacity="0.749126" style="stroke:black;stroke-width:0.5;fill:url(#radialffffff666666)"/>
<circle cx="757.576663" cy="117.061596" r="15.615680" opacity="0.751692" style="stroke:black;stroke-width:0.5;fill:url(#radialffffff666666)"/>
<circle cx="86.787052" cy="61.220234" r="15.801223" opacity="0.756145" style="stroke:black;stroke-width:0.5;fill:url(#radialffffff666666)"/>
<circle cx="304.487109" cy="74.566313" r="6.622338" opacity="0.766463" style="stroke:black;stroke-width:0.5;fill:url(#radialffffffbfbfbf)"/>
<circle cx="551.168698" cy="67.959375" r="7.006893" opacity="0.788403" style="stroke:black;stroke-width:0.5;fill:url(#radialffffffbfbfbf)"/>
<circle cx="385.611537" cy="71.574005" r="7.063367" opacity="0.791574" style="stroke:black;stroke-width:0.5;fill:url(#radialffffffbfbfbf)"/>
<circle cx="631.261296" cy="65.828001" r="7.099479" opacity="0.793595" style="stroke:black;stroke-width:0.5;fill:url(#radialffffffbfbfbf)"/>
<circle cx="467.867754" cy="68.620391" r="7.111004" opacity="0.794239" style="stroke:black;stroke-width:0.5;fill:url(#radialffffffbfbfbf)"/>
<circle cx="713.614246" cy="63.896543" r="7.123297" opacity="0.794925" style="stroke:black;stroke-width:0.5;fill:url(#radialffffffbfbfbf)"/>
<circle cx="134.580139" cy="71.067763" r="17.584123" opacity="0.797664" style="stroke:black;stroke-width:0.5;fill:url(#radialffffff666666)"/>
<circle cx="796.367031" cy="59.788569" r="7.554337" opacity="0.818622" style="stroke:black;stroke-width:0.5;fill:url(#radialffffffbfbfbf)"/>
<circle cx="40.000000" cy="111.534855" r="8.340351" opacity="0.860157" style="stroke:black;stroke-width:0.5;fill:url(#radialffffffbfbfbf)"/>
<circle cx="102.925522" cy="152.317946" r="9.448300" opacity="0.915508" style="stroke:black;stroke-width:0.5;fill:url(#radialffffffbfbfbf)"/>
<circle cx="73.328117" cy="44.794786" r="9.804810" opacity="0.932621" style="stroke:black;stroke-width:0.5;fill:url(#radialffffffbfbfbf)"/>
<circle cx="183.098731" cy="142.525232" r="9.875882" opacity="0.935995" style="stroke:black;stroke-width:0.5;fill:url(#radialffffffbfbfbf)"/>
<circle cx="263.613734" cy="136.576085" r="10.065662" opacity="0.944945" style="stroke:black;stroke-width:0.5;fill:url(#radialffffffbfbfbf)"/>
<circle cx="592.838517" cy="132.587417" r="10.150948" opacity="0.948940" style="stroke:black;stroke-width:0.5;fill:url(#radialffffffbfbfbf)"/>
<circle cx="346.621252" cy="136.817921" r="10.274651" opacity="0.954705" style="stroke:black;stroke-width:0.5;fill:url(#radialffffffbfbfbf)"/>
<circle cx="673.792048" cy="128.611646" r="10.324978" opacity="0.957040" style="stroke:black;stroke-width:0.5;fill:url(#radialffffffbfbfbf)"/>
<circle cx="510.556505" cy="131.220242" r="10.381451" opacity="0.959654" style="stroke:black;stroke-width:0.5;fill:url(#radialffffffbfbfbf)"/>
<circle cx="428.800081" cy="133.503166" r="10.442534" opacity="0.962473" style="stroke:black;stroke-width:0.5;fill:url(#radialffffffbfbfbf)"/>
<circle cx="757.399317" cy="125.967581" r="10.445991" opacity="0.962632" style="stroke:black;stroke-width:0.5;fill:url(#radialffffffbfbfbf)"/>
<circle cx="141.615931" cy="75.207982" r="11.272727" opacity="1.000000" style="stroke:black;stroke-width:0.5;fill:url(#radialffffffbfbfbf)"/>
</svg>
</g>
</svg>
