<?xml version="1.0"?>
<svg version="1.1" id="topsvg"
xmlns="http://www.w3.org/2000/svg" xmlns:xlink="http://www.w3.org/1999/xlink"
xmlns:cml="http://www.xml-cml.org/schema" x="0" y="0" width="200px" height="200px" viewBox="0 0 100 100">
<title>139988 - Open Babel Depiction</title>
<rect x="0" y="0" width="100" height="100" fill="white"/>
<defs>
<radialGradient id='radialffffff666666' cx='50%' cy='50%' r='50%' fx='30%' fy='30%'>
  <stop offset=' 0%' stop-color="rgb(255,255,255)"  stop-opacity='1.0'/>
  <stop offset='100%' stop-color="rgb(102,102,102)"  stop-opacity ='1.0'/>
</radialGradient>
<radialGradient id='radialffffffbfbfbf' cx='50%' cy='50%' r='50%' fx='30%' fy='30%'>
  <stop offset=' 0%' stop-color="rgb(255,255,255)"  stop-opacity='1.0'/>
  <stop offset='100%' stop-color="rgb(191,191,191)"  stop-opacity ='1.0'/>
</radialGradient>
</defs>
<g transform="translate(0,0)">
<svg width="100" height="100" x="0" y="0" viewBox="0 0 368.751 259.531"
font-family="sans-serif" stroke="rgb(0,0,0)" stroke-width="4"  stroke-linecap="round">
<line x1="217.5" y1="99.9" x2="172.8" y2="116.6" opacity="1.0" stroke="rgb(0,0,0)"  stroke-width="1.6"/>
<line x1="217.5" y1="99.9" x2="249.9" y2="136.3" opacity="0.5" stroke="rgb(0,0,0)"  stroke-width="1.9"/>
<line x1="217.5" y1="99.9" x2="237.6" y2="68.9" opacity="0.6" stroke="rgb(0,0,0)"  stroke-width="1.3"/>
<polygon points="217.463432 99.886099 207.445088 81.690913 215.064928 79.254105 " stroke-width="1.328603" fill="rgb(0,0,0)"  stroke="rgb(0,0,0)" />
<line x1="172.8" y1="116.6" x2="148.9" y2="145.7" opacity="0.4" stroke="rgb(0,0,0)"  stroke-width="1.8"/>
<line x1="172.8" y1="116.6" x2="177.7" y2="134.2" opacity="0.6" stroke="rgb(0,0,0)"  stroke-width="0.9"/>
<line x1="172.8" y1="116.6" x2="152.8" y2="87.9" opacity="0.3" stroke="rgb(0,0,0)"  stroke-width="1.2"/>
<line x1="148.9" y1="145.7" x2="103.2" y2="160.2" opacity="0.4" stroke="rgb(0,0,0)"  stroke-width="2.0"/>
<line x1="148.9" y1="145.7" x2="168.2" y2="175.0" opacity="0.7" stroke="rgb(0,0,0)"  stroke-width="2.3"/>
<line x1="148.9" y1="145.7" x2="145.4" y2="127.8" opacity="0.8" stroke="rgb(0,0,0)"  stroke-width="2.6"/>
<line x1="249.9" y1="136.3" x2="267.1" y2="164.2" opacity="0.9" stroke="rgb(0,0,0)"  stroke-width="1.6"/>
<line x1="249.9" y1="136.3" x2="235.4" y2="157.4" opacity="0.5" stroke="rgb(0,0,0)"  stroke-width="2.4"/>
<line x1="249.9" y1="136.3" x2="278.0" y2="120.5" opacity="0.8" stroke="rgb(0,0,0)"  stroke-width="2.3"/>
<line x1="103.2" y1="160.2" x2="73.5" y2="121.3" opacity="0.8" stroke="rgb(0,0,0)"  stroke-width="1.7"/>
<line x1="103.2" y1="160.2" x2="107.6" y2="189.8" opacity="0.6" stroke="rgb(0,0,0)"  stroke-width="1.3"/>
<line x1="103.2" y1="160.2" x2="88.1" y2="179.1" opacity="0.4" stroke="rgb(0,0,0)"  stroke-width="2.1"/>
<line x1="237.6" y1="68.9" x2="241.0" y2="84.5" opacity="0.7" stroke="rgb(0,0,0)"  stroke-width="0.5"/>
<line x1="237.6" y1="68.9" x2="216.9" y2="40.0" opacity="0.2" stroke="rgb(0,0,0)"  stroke-width="0.8"/>
<line x1="237.6" y1="68.9" x2="269.9" y2="57.6" opacity="0.3" stroke="rgb(0,0,0)"  stroke-width="1.0"/>
<line x1="267.1" y1="164.2" x2="300.6" y2="197.4" opacity="0.3" stroke="rgb(0,0,0)"  stroke-width="1.3"/>
<line x1="267.1" y1="164.2" x2="240.1" y2="181.5" opacity="0.4" stroke="rgb(0,0,0)"  stroke-width="0.9"/>
<line x1="267.1" y1="164.2" x2="282.8" y2="143.7" opacity="0.3" stroke="rgb(0,0,0)"  stroke-width="0.8"/>
<line x1="73.5" y1="121.3" x2="72.6" y2="98.0" opacity="0.3" stroke="rgb(0,0,0)"  stroke-width="1.9"/>
<line x1="73.5" y1="121.3" x2="83.9" y2="104.0" opacity="0.6" stroke="rgb(0,0,0)"  stroke-width="1.1"/>
<line x1="73.5" y1="121.3" x2="40.0" y2="132.7" opacity="0.4" stroke="rgb(0,0,0)"  stroke-width="1.4"/>
<line x1="107.6" y1="189.8" x2="75.7" y2="204.1" opacity="0.5" stroke="rgb(0,0,0)"  stroke-width="0.6"/>
<line x1="107.6" y1="189.8" x2="130.2" y2="216.8" opacity="0.2" stroke="rgb(0,0,0)"  stroke-width="0.8"/>
<line x1="107.6" y1="189.8" x2="118.9" y2="172.0" opacity="0.3" stroke="rgb(0,0,0)"  stroke-width="0.4"/>
<line x1="300.6" y1="197.4" x2="328.8" y2="181.1" opacity="0.1" stroke="rgb(0,0,0)"  stroke-width="1.7"/>
<line x1="300.6" y1="197.4" x2="312.5" y2="217.2" opacity="0.6" stroke="rgb(0,0,0)"  stroke-width="1.2"/>
<line x1="300.6" y1="197.4" x2="286.2" y2="219.5" opacity="0.4" stroke="rgb(0,0,0)"  stroke-width="1.9"/>
<circle cx="118.920248" cy="172.025492" r="5.636364" opacity="0.200000" style="stroke:black;stroke-width:0.5;fill:url(#radialffffffbfbfbf)"/>
<circle cx="240.962543" cy="84.518779" r="5.636364" opacity="0.200000" style="stroke:black;stroke-width:0.5;fill:url(#radialffffffbfbfbf)"/>
<circle cx="282.756550" cy="143.698334" r="5.636364" opacity="0.401827" style="stroke:black;stroke-width:0.5;fill:url(#radialffffffbfbfbf)"/>
<circle cx="75.739322" cy="204.101256" r="5.636364" opacity="0.423395" style="stroke:black;stroke-width:0.5;fill:url(#radialffffffbfbfbf)"/>
<circle cx="177.733447" cy="134.245044" r="5.636364" opacity="0.423863" style="stroke:black;stroke-width:0.5;fill:url(#radialffffffbfbfbf)"/>
<circle cx="240.059738" cy="181.547473" r="5.636364" opacity="0.489252" style="stroke:black;stroke-width:0.5;fill:url(#radialffffffbfbfbf)"/>
<circle cx="83.867843" cy="103.981434" r="5.636364" opacity="0.498619" style="stroke:black;stroke-width:0.5;fill:url(#radialffffffbfbfbf)"/>
<circle cx="107.550132" cy="189.767583" r="13.818182" opacity="0.500318" style="stroke:black;stroke-width:0.5;fill:url(#radialffffff666666)"/>
<circle cx="216.936795" cy="40.000000" r="5.636364" opacity="0.508982" style="stroke:black;stroke-width:0.5;fill:url(#radialffffffbfbfbf)"/>
<circle cx="312.460814" cy="217.178852" r="5.636364" opacity="0.526526" style="stroke:black;stroke-width:0.5;fill:url(#radialffffffbfbfbf)"/>
<circle cx="237.626088" cy="68.948655" r="13.818182" opacity="0.544258" style="stroke:black;stroke-width:0.5;fill:url(#radialffffff666666)"/>
<circle cx="130.208588" cy="216.783056" r="5.636364" opacity="0.552155" style="stroke:black;stroke-width:0.5;fill:url(#radialffffffbfbfbf)"/>
<circle cx="267.117734" cy="164.204449" r="13.818182" opacity="0.613455" style="stroke:black;stroke-width:0.5;fill:url(#radialffffff666666)"/>
<circle cx="152.778726" cy="87.865047" r="5.636364" opacity="0.616055" style="stroke:black;stroke-width:0.5;fill:url(#radialffffffbfbfbf)"/>
<circle cx="269.937366" cy="57.637418" r="5.636364" opacity="0.622407" style="stroke:black;stroke-width:0.5;fill:url(#radialffffffbfbfbf)"/>
<circle cx="172.833438" cy="116.561832" r="13.818182" opacity="0.667701" style="stroke:black;stroke-width:0.5;fill:url(#radialffffff666666)"/>
<circle cx="40.000000" cy="132.681490" r="5.636364" opacity="0.674825" style="stroke:black;stroke-width:0.5;fill:url(#radialffffffbfbfbf)"/>
<circle cx="73.528103" cy="121.340813" r="13.935878" opacity="0.710112" style="stroke:black;stroke-width:0.5;fill:url(#radialffffff666666)"/>
<circle cx="300.593501" cy="197.425075" r="14.212719" opacity="0.717130" style="stroke:black;stroke-width:0.5;fill:url(#radialffffff666666)"/>
<circle cx="217.463432" cy="99.886099" r="16.292152" opacity="0.767801" style="stroke:black;stroke-width:0.5;fill:url(#radialffffff666666)"/>
<circle cx="103.193114" cy="160.151637" r="16.514250" opacity="0.773017" style="stroke:black;stroke-width:0.5;fill:url(#radialffffff666666)"/>
<circle cx="328.750565" cy="181.135323" r="7.256984" opacity="0.802349" style="stroke:black;stroke-width:0.5;fill:url(#radialffffffbfbfbf)"/>
<circle cx="249.856486" cy="136.279628" r="19.442974" opacity="0.838766" style="stroke:black;stroke-width:0.5;fill:url(#radialffffff666666)"/>
<circle cx="286.184594" cy="219.530725" r="8.157488" opacity="0.850675" style="stroke:black;stroke-width:0.5;fill:url(#radialffffffbfbfbf)"/>
<circle cx="148.879652" cy="145.654412" r="20.235959" opacity="0.855700" style="stroke:black;stroke-width:0.5;fill:url(#radialffffff666666)"/>
<circle cx="72.641653" cy="98.011796" r="8.332931" opacity="0.859774" style="stroke:black;stroke-width:0.5;fill:url(#radialffffffbfbfbf)"/>
<circle cx="168.159129" cy="175.018489" r="8.944432" opacity="0.890762" style="stroke:black;stroke-width:0.5;fill:url(#radialffffffbfbfbf)"/>
<circle cx="88.067851" cy="179.058216" r="9.318924" opacity="0.909219" style="stroke:black;stroke-width:0.5;fill:url(#radialffffffbfbfbf)"/>
<circle cx="277.977569" cy="120.539410" r="9.483522" opacity="0.917213" style="stroke:black;stroke-width:0.5;fill:url(#radialffffffbfbfbf)"/>
<circle cx="211.255008" cy="80.472509" r="9.532646" opacity="0.919586" style="stroke:black;stroke-width:0.5;fill:url(#radialffffffbfbfbf)"/>
<circle cx="235.424682" cy="157.371258" r="10.379560" opacity="0.959566" style="stroke:black;stroke-width:0.5;fill:url(#radialffffffbfbfbf)"/>
<circle cx="145.431982" cy="127.820733" r="11.272727" opacity="1.000000" style="stroke:black;stroke-width:0.5;fill:url(#radialffffffbfbfbf)"/>
</svg>
</g>
</svg>
