<?xml version="1.0"?>
<svg version="1.1" id="topsvg"
xmlns="http://www.w3.org/2000/svg" xmlns:xlink="http://www.w3.org/1999/xlink"
xmlns:cml="http://www.xml-cml.org/schema" x="0" y="0" width="200px" height="200px" viewBox="0 0 100 100">
<title>139990 - Open Babel Depiction</title>
<rect x="0" y="0" width="100" height="100" fill="white"/>
<defs>
<radialGradient id='radialffffff666666' cx='50%' cy='50%' r='50%' fx='30%' fy='30%'>
  <stop offset=' 0%' stop-color="rgb(255,255,255)"  stop-opacity='1.0'/>
  <stop offset='100%' stop-color="rgb(102,102,102)"  stop-opacity ='1.0'/>
</radialGradient>
<radialGradient id='radialffffffbfbfbf' cx='50%' cy='50%' r='50%' fx='30%' fy='30%'>
  <stop offset=' 0%' stop-color="rgb(255,255,255)"  stop-opacity='1.0'/>
  <stop offset='100%' stop-color="rgb(191,191,191)"  stop-opacity ='1.0'/>
</radialGradient>
</defs>
<g transform="translate(0,0)">
<svg width="100" height="100" x="0" y="0" viewBox="0 0 354.211 259.597"
font-family="sans-serif" stroke="rgb(0,0,0)" stroke-width="4"  stroke-linecap="round">
<line x1="204.7" y1="96.7" x2="162.8" y2="115.7" opacity="1.0" stroke="rgb(0,0,0)"  stroke-width="1.2"/>
<line x1="204.7" y1="96.7" x2="238.1" y2="131.8" opacity="0.4" stroke="rgb(0,0,0)"  stroke-width="1.7"/>
<line x1="204.7" y1="96.7" x2="194.8" y2="66.6" opacity="0.6" stroke="rgb(0,0,0)"  stroke-width="1.9"/>
<line x1="207.4" y1="92.2" x2="208.7" y2="93.2" opacity="0.6" stroke="rgb(0,0,0)"  stroke-width="1.0"/>
<line x1="209.6" y1="88.5" x2="211.8" y2="90.4" opacity="0.6" stroke="rgb(0,0,0)"  stroke-width="1.0"/>
<line x1="211.7" y1="84.9" x2="215.0" y2="87.6" opacity="0.6" stroke="rgb(0,0,0)"  stroke-width="1.0"/>
<line x1="213.9" y1="81.3" x2="218.1" y2="84.7" opacity="0.6" stroke="rgb(0,0,0)"  stroke-width="1.0"/>
<line x1="216.1" y1="77.7" x2="221.3" y2="81.9" opacity="0.6" stroke="rgb(0,0,0)"  stroke-width="1.0"/>
<line x1="218.2" y1="74.0" x2="224.4" y2="79.1" opacity="0.6" stroke="rgb(0,0,0)"  stroke-width="1.0"/>
<line x1="162.8" y1="115.7" x2="135.2" y2="144.1" opacity="0.6" stroke="rgb(0,0,0)"  stroke-width="1.4"/>
<line x1="162.8" y1="115.7" x2="135.2" y2="79.2" opacity="0.5" stroke="rgb(0,0,0)"  stroke-width="0.8"/>
<line x1="165.5" y1="119.5" x2="164.1" y2="120.2" opacity="0.3" stroke="rgb(0,0,0)"  stroke-width="1.0"/>
<line x1="167.8" y1="122.5" x2="165.2" y2="123.8" opacity="0.3" stroke="rgb(0,0,0)"  stroke-width="1.0"/>
<line x1="170.0" y1="125.5" x2="166.2" y2="127.4" opacity="0.3" stroke="rgb(0,0,0)"  stroke-width="1.0"/>
<line x1="172.2" y1="128.5" x2="167.3" y2="131.0" opacity="0.3" stroke="rgb(0,0,0)"  stroke-width="1.0"/>
<line x1="174.4" y1="131.6" x2="168.4" y2="134.5" opacity="0.3" stroke="rgb(0,0,0)"  stroke-width="1.0"/>
<line x1="176.6" y1="134.6" x2="169.4" y2="138.1" opacity="0.3" stroke="rgb(0,0,0)"  stroke-width="1.0"/>
<line x1="238.1" y1="131.8" x2="251.3" y2="163.8" opacity="0.3" stroke="rgb(0,0,0)"  stroke-width="1.4"/>
<line x1="238.1" y1="131.8" x2="225.0" y2="150.1" opacity="0.5" stroke="rgb(0,0,0)"  stroke-width="2.1"/>
<line x1="238.1" y1="131.8" x2="267.6" y2="115.2" opacity="0.7" stroke="rgb(0,0,0)"  stroke-width="2.0"/>
<line x1="135.2" y1="144.1" x2="95.4" y2="165.2" opacity="0.7" stroke="rgb(0,0,0)"  stroke-width="1.5"/>
<line x1="135.2" y1="144.1" x2="155.5" y2="170.1" opacity="0.5" stroke="rgb(0,0,0)"  stroke-width="1.9"/>
<line x1="135.2" y1="144.1" x2="123.7" y2="124.1" opacity="0.6" stroke="rgb(0,0,0)"  stroke-width="2.0"/>
<line x1="194.8" y1="66.6" x2="225.0" y2="51.6" opacity="0.7" stroke="rgb(0,0,0)"  stroke-width="2.5"/>
<line x1="194.8" y1="66.6" x2="172.8" y2="40.0" opacity="0.8" stroke="rgb(0,0,0)"  stroke-width="2.3"/>
<line x1="194.8" y1="66.6" x2="180.1" y2="84.6" opacity="0.8" stroke="rgb(0,0,0)"  stroke-width="2.7"/>
<line x1="135.2" y1="79.2" x2="155.9" y2="56.2" opacity="0.9" stroke="rgb(0,0,0)"  stroke-width="0.4"/>
<line x1="135.2" y1="79.2" x2="111.7" y2="92.4" opacity="0.1" stroke="rgb(0,0,0)"  stroke-width="0.4"/>
<line x1="135.2" y1="79.2" x2="117.0" y2="60.7" opacity="0.1" stroke="rgb(0,0,0)"  stroke-width="0.8"/>
<line x1="251.3" y1="163.8" x2="284.4" y2="197.0" opacity="0.3" stroke="rgb(0,0,0)"  stroke-width="1.2"/>
<line x1="251.3" y1="163.8" x2="265.1" y2="145.8" opacity="0.4" stroke="rgb(0,0,0)"  stroke-width="0.7"/>
<line x1="251.3" y1="163.8" x2="222.9" y2="182.0" opacity="0.2" stroke="rgb(0,0,0)"  stroke-width="0.9"/>
<line x1="95.4" y1="165.2" x2="68.1" y2="190.9" opacity="0.3" stroke="rgb(0,0,0)"  stroke-width="1.6"/>
<line x1="95.4" y1="165.2" x2="106.2" y2="187.0" opacity="0.5" stroke="rgb(0,0,0)"  stroke-width="0.9"/>
<line x1="95.4" y1="165.2" x2="74.3" y2="140.3" opacity="0.3" stroke="rgb(0,0,0)"  stroke-width="1.0"/>
<line x1="284.4" y1="197.0" x2="271.0" y2="216.2" opacity="0.3" stroke="rgb(0,0,0)"  stroke-width="1.7"/>
<line x1="284.4" y1="197.0" x2="293.4" y2="219.6" opacity="0.6" stroke="rgb(0,0,0)"  stroke-width="1.1"/>
<line x1="284.4" y1="197.0" x2="314.2" y2="180.8" opacity="0.4" stroke="rgb(0,0,0)"  stroke-width="1.5"/>
<line x1="68.1" y1="190.9" x2="55.8" y2="169.6" opacity="0.5" stroke="rgb(0,0,0)"  stroke-width="2.2"/>
<line x1="68.1" y1="190.9" x2="87.4" y2="217.0" opacity="0.7" stroke="rgb(0,0,0)"  stroke-width="2.1"/>
<line x1="68.1" y1="190.9" x2="40.0" y2="205.8" opacity="0.7" stroke="rgb(0,0,0)"  stroke-width="1.8"/>
<circle cx="111.660961" cy="92.418424" r="5.636364" opacity="0.200000" style="stroke:black;stroke-width:0.5;fill:url(#radialffffffbfbfbf)"/>
<circle cx="155.925990" cy="56.244677" r="5.636364" opacity="0.200503" style="stroke:black;stroke-width:0.5;fill:url(#radialffffffbfbfbf)"/>
<circle cx="173.030467" cy="136.359801" r="5.636364" opacity="0.355405" style="stroke:black;stroke-width:0.5;fill:url(#radialffffffbfbfbf)"/>
<circle cx="265.094534" cy="145.840494" r="5.636364" opacity="0.357208" style="stroke:black;stroke-width:0.5;fill:url(#radialffffffbfbfbf)"/>
<circle cx="135.225387" cy="79.165069" r="13.818182" opacity="0.420938" style="stroke:black;stroke-width:0.5;fill:url(#radialffffff666666)"/>
<circle cx="106.237351" cy="186.967086" r="5.636364" opacity="0.453409" style="stroke:black;stroke-width:0.5;fill:url(#radialffffffbfbfbf)"/>
<circle cx="222.872758" cy="181.965203" r="5.636364" opacity="0.497579" style="stroke:black;stroke-width:0.5;fill:url(#radialffffffbfbfbf)"/>
<circle cx="293.405844" cy="219.597016" r="5.636364" opacity="0.513440" style="stroke:black;stroke-width:0.5;fill:url(#radialffffffbfbfbf)"/>
<circle cx="74.264532" cy="140.328615" r="5.636364" opacity="0.541979" style="stroke:black;stroke-width:0.5;fill:url(#radialffffffbfbfbf)"/>
<circle cx="221.313348" cy="76.575859" r="5.636364" opacity="0.559013" style="stroke:black;stroke-width:0.5;fill:url(#radialffffffbfbfbf)"/>
<circle cx="162.774973" cy="115.704967" r="13.818182" opacity="0.577621" style="stroke:black;stroke-width:0.5;fill:url(#radialffffff666666)"/>
<circle cx="251.275607" cy="163.765542" r="13.818182" opacity="0.580906" style="stroke:black;stroke-width:0.5;fill:url(#radialffffff666666)"/>
<circle cx="117.042072" cy="60.684257" r="5.636364" opacity="0.602987" style="stroke:black;stroke-width:0.5;fill:url(#radialffffffbfbfbf)"/>
<circle cx="95.426092" cy="165.184377" r="13.818182" opacity="0.635935" style="stroke:black;stroke-width:0.5;fill:url(#radialffffff666666)"/>
<circle cx="284.405725" cy="197.006813" r="13.818182" opacity="0.679731" style="stroke:black;stroke-width:0.5;fill:url(#radialffffff666666)"/>
<circle cx="204.722135" cy="96.684736" r="13.818182" opacity="0.706731" style="stroke:black;stroke-width:0.5;fill:url(#radialffffff666666)"/>
<circle cx="40.000000" cy="205.781358" r="5.952644" opacity="0.726675" style="stroke:black;stroke-width:0.5;fill:url(#radialffffffbfbfbf)"/>
<circle cx="314.211061" cy="180.820982" r="6.180488" opacity="0.740452" style="stroke:black;stroke-width:0.5;fill:url(#radialffffffbfbfbf)"/>
<circle cx="135.192695" cy="144.098008" r="15.773575" opacity="0.755483" style="stroke:black;stroke-width:0.5;fill:url(#radialffffff666666)"/>
<circle cx="238.071290" cy="131.756761" r="16.868896" opacity="0.781273" style="stroke:black;stroke-width:0.5;fill:url(#radialffffff666666)"/>
<circle cx="68.115158" cy="190.857439" r="18.007920" opacity="0.807219" style="stroke:black;stroke-width:0.5;fill:url(#radialffffff666666)"/>
<circle cx="270.962756" cy="216.200312" r="7.513016" opacity="0.816381" style="stroke:black;stroke-width:0.5;fill:url(#radialffffffbfbfbf)"/>
<circle cx="155.510801" cy="170.130683" r="7.616075" opacity="0.821961" style="stroke:black;stroke-width:0.5;fill:url(#radialffffffbfbfbf)"/>
<circle cx="267.582398" cy="115.204779" r="7.902970" opacity="0.837299" style="stroke:black;stroke-width:0.5;fill:url(#radialffffffbfbfbf)"/>
<circle cx="172.782008" cy="40.000000" r="8.169531" opacity="0.851303" style="stroke:black;stroke-width:0.5;fill:url(#radialffffffbfbfbf)"/>
<circle cx="87.374042" cy="217.004536" r="8.626613" opacity="0.874794" style="stroke:black;stroke-width:0.5;fill:url(#radialffffffbfbfbf)"/>
<circle cx="123.707980" cy="124.103554" r="8.772010" opacity="0.882135" style="stroke:black;stroke-width:0.5;fill:url(#radialffffffbfbfbf)"/>
<circle cx="194.819715" cy="66.624401" r="21.944656" opacity="0.891095" style="stroke:black;stroke-width:0.5;fill:url(#radialffffff666666)"/>
<circle cx="224.971588" cy="150.106806" r="9.256666" opacity="0.906177" style="stroke:black;stroke-width:0.5;fill:url(#radialffffffbfbfbf)"/>
<circle cx="55.822950" cy="169.555303" r="9.560830" opacity="0.920944" style="stroke:black;stroke-width:0.5;fill:url(#radialffffffbfbfbf)"/>
<circle cx="224.997741" cy="51.599137" r="9.983652" opacity="0.941088" style="stroke:black;stroke-width:0.5;fill:url(#radialffffffbfbfbf)"/>
<circle cx="180.121372" cy="84.559257" r="11.272727" opacity="1.000000" style="stroke:black;stroke-width:0.5;fill:url(#radialffffffbfbfbf)"/>
</svg>
</g>
</svg>
