<?xml version="1.0"?>
<svg version="1.1" id="topsvg"
xmlns="http://www.w3.org/2000/svg" xmlns:xlink="http://www.w3.org/1999/xlink"
xmlns:cml="http://www.xml-cml.org/schema" x="0" y="0" width="200px" height="200px" viewBox="0 0 100 100">
<title>140213 - Open Babel Depiction</title>
<rect x="0" y="0" width="100" height="100" fill="white"/>
<defs>
<radialGradient id='radialffffff666666' cx='50%' cy='50%' r='50%' fx='30%' fy='30%'>
  <stop offset=' 0%' stop-color="rgb(255,255,255)"  stop-opacity='1.0'/>
  <stop offset='100%' stop-color="rgb(102,102,102)"  stop-opacity ='1.0'/>
</radialGradient>
<radialGradient id='radialffffffbfbfbf' cx='50%' cy='50%' r='50%' fx='30%' fy='30%'>
  <stop offset=' 0%' stop-color="rgb(255,255,255)"  stop-opacity='1.0'/>
  <stop offset='100%' stop-color="rgb(191,191,191)"  stop-opacity ='1.0'/>
</radialGradient>
</defs>
<g transform="translate(0,0)">
<svg width="100" height="100" x="0" y="0" viewBox="0 0 354.086 274.491"
font-family="sans-serif" stroke="rgb(0,0,0)" stroke-width="4"  stroke-linecap="round">
<line x1="116.7" y1="139.5" x2="164.4" y2="133.9" opacity="1.0" stroke="rgb(0,0,0)"  stroke-width="1.3"/>
<line x1="116.7" y1="139.5" x2="110.2" y2="187.7" opacity="0.4" stroke="rgb(0,0,0)"  stroke-width="1.6"/>
<line x1="116.7" y1="139.5" x2="106.2" y2="107.8" opacity="0.5" stroke="rgb(0,0,0)"  stroke-width="1.9"/>
<line x1="116.7" y1="139.5" x2="85.9" y2="130.0" opacity="0.6" stroke="rgb(0,0,0)"  stroke-width="1.0"/>
<line x1="164.4" y1="133.9" x2="200.9" y2="144.4" opacity="0.3" stroke="rgb(0,0,0)"  stroke-width="1.5"/>
<line x1="164.4" y1="133.9" x2="169.2" y2="100.7" opacity="0.5" stroke="rgb(0,0,0)"  stroke-width="0.9"/>
<line x1="164.4" y1="133.9" x2="168.7" y2="155.4" opacity="0.3" stroke="rgb(0,0,0)"  stroke-width="0.7"/>
<line x1="110.2" y1="187.7" x2="64.5" y2="199.8" opacity="0.2" stroke="rgb(0,0,0)"  stroke-width="2.0"/>
<line x1="110.2" y1="187.7" x2="119.3" y2="210.0" opacity="0.7" stroke="rgb(0,0,0)"  stroke-width="1.5"/>
<line x1="110.2" y1="187.7" x2="132.3" y2="194.8" opacity="0.5" stroke="rgb(0,0,0)"  stroke-width="2.1"/>
<line x1="106.2" y1="107.8" x2="111.1" y2="59.2" opacity="0.7" stroke="rgb(0,0,0)"  stroke-width="2.2"/>
<line x1="106.2" y1="107.8" x2="72.3" y2="112.6" opacity="0.7" stroke="rgb(0,0,0)"  stroke-width="2.5"/>
<line x1="106.2" y1="107.8" x2="126.6" y2="115.7" opacity="0.8" stroke="rgb(0,0,0)"  stroke-width="2.7"/>
<line x1="85.9" y1="130.0" x2="51.7" y2="128.5" opacity="0.9" stroke="rgb(0,0,0)"  stroke-width="0.7"/>
<line x1="85.9" y1="130.0" x2="93.7" y2="98.9" opacity="0.2" stroke="rgb(0,0,0)"  stroke-width="0.4"/>
<line x1="85.9" y1="130.0" x2="88.6" y2="155.5" opacity="0.1" stroke="rgb(0,0,0)"  stroke-width="0.4"/>
<line x1="200.9" y1="144.4" x2="245.9" y2="140.6" opacity="0.1" stroke="rgb(0,0,0)"  stroke-width="1.6"/>
<line x1="200.9" y1="144.4" x2="199.1" y2="122.0" opacity="0.5" stroke="rgb(0,0,0)"  stroke-width="2.1"/>
<line x1="200.9" y1="144.4" x2="197.4" y2="177.6" opacity="0.7" stroke="rgb(0,0,0)"  stroke-width="2.0"/>
<line x1="245.9" y1="140.6" x2="282.2" y2="152.2" opacity="0.7" stroke="rgb(0,0,0)"  stroke-width="1.7"/>
<line x1="245.9" y1="140.6" x2="250.9" y2="107.2" opacity="0.6" stroke="rgb(0,0,0)"  stroke-width="1.2"/>
<line x1="245.9" y1="140.6" x2="247.8" y2="162.4" opacity="0.4" stroke="rgb(0,0,0)"  stroke-width="1.0"/>
<line x1="64.5" y1="199.8" x2="63.6" y2="234.5" opacity="0.3" stroke="rgb(0,0,0)"  stroke-width="2.3"/>
<line x1="64.5" y1="199.8" x2="54.9" y2="181.4" opacity="0.8" stroke="rgb(0,0,0)"  stroke-width="2.5"/>
<line x1="64.5" y1="199.8" x2="40.0" y2="194.7" opacity="0.8" stroke="rgb(0,0,0)"  stroke-width="1.9"/>
<line x1="111.1" y1="59.2" x2="89.6" y2="48.9" opacity="0.6" stroke="rgb(0,0,0)"  stroke-width="1.8"/>
<line x1="111.1" y1="59.2" x2="102.4" y2="40.0" opacity="0.6" stroke="rgb(0,0,0)"  stroke-width="2.4"/>
<line x1="111.1" y1="59.2" x2="144.8" y2="50.9" opacity="0.8" stroke="rgb(0,0,0)"  stroke-width="2.0"/>
<line x1="282.2" y1="152.2" x2="278.8" y2="185.9" opacity="0.7" stroke="rgb(0,0,0)"  stroke-width="2.2"/>
<line x1="282.2" y1="152.2" x2="281.9" y2="130.4" opacity="0.7" stroke="rgb(0,0,0)"  stroke-width="2.4"/>
<line x1="282.2" y1="152.2" x2="314.1" y2="149.2" opacity="0.8" stroke="rgb(0,0,0)"  stroke-width="1.9"/>
<circle cx="88.571378" cy="155.475030" r="5.636364" opacity="0.200000" style="stroke:black;stroke-width:0.5;fill:url(#radialffffffbfbfbf)"/>
<circle cx="93.690172" cy="98.884099" r="5.636364" opacity="0.266423" style="stroke:black;stroke-width:0.5;fill:url(#radialffffffbfbfbf)"/>
<circle cx="168.708109" cy="155.435830" r="5.636364" opacity="0.374480" style="stroke:black;stroke-width:0.5;fill:url(#radialffffffbfbfbf)"/>
<circle cx="85.866616" cy="130.031324" r="13.818182" opacity="0.438107" style="stroke:black;stroke-width:0.5;fill:url(#radialffffff666666)"/>
<circle cx="247.799521" cy="162.380665" r="5.636364" opacity="0.477695" style="stroke:black;stroke-width:0.5;fill:url(#radialffffffbfbfbf)"/>
<circle cx="169.162169" cy="100.661140" r="5.636364" opacity="0.512952" style="stroke:black;stroke-width:0.5;fill:url(#radialffffffbfbfbf)"/>
<circle cx="51.658568" cy="128.460079" r="5.636364" opacity="0.520823" style="stroke:black;stroke-width:0.5;fill:url(#radialffffffbfbfbf)"/>
<circle cx="250.889744" cy="107.191114" r="5.636364" opacity="0.595026" style="stroke:black;stroke-width:0.5;fill:url(#radialffffffbfbfbf)"/>
<circle cx="164.438636" cy="133.944735" r="13.818182" opacity="0.598592" style="stroke:black;stroke-width:0.5;fill:url(#radialffffff666666)"/>
<circle cx="119.333142" cy="209.955724" r="5.636364" opacity="0.636245" style="stroke:black;stroke-width:0.5;fill:url(#radialffffffbfbfbf)"/>
<circle cx="245.895081" cy="140.585774" r="13.818182" opacity="0.667434" style="stroke:black;stroke-width:0.5;fill:url(#radialffffff666666)"/>
<circle cx="116.716579" cy="139.517589" r="13.818182" opacity="0.699757" style="stroke:black;stroke-width:0.5;fill:url(#radialffffff666666)"/>
<circle cx="89.561164" cy="48.875408" r="5.663459" opacity="0.708804" style="stroke:black;stroke-width:0.5;fill:url(#radialffffffbfbfbf)"/>
<circle cx="40.000000" cy="194.697340" r="5.995657" opacity="0.729296" style="stroke:black;stroke-width:0.5;fill:url(#radialffffffbfbfbf)"/>
<circle cx="314.085781" cy="149.170452" r="6.391642" opacity="0.752994" style="stroke:black;stroke-width:0.5;fill:url(#radialffffffbfbfbf)"/>
<circle cx="110.235604" cy="187.651240" r="16.812928" opacity="0.779976" style="stroke:black;stroke-width:0.5;fill:url(#radialffffff666666)"/>
<circle cx="200.874520" cy="144.375054" r="16.850986" opacity="0.780858" style="stroke:black;stroke-width:0.5;fill:url(#radialffffff666666)"/>
<circle cx="144.757248" cy="50.868046" r="7.214658" opacity="0.800006" style="stroke:black;stroke-width:0.5;fill:url(#radialffffffbfbfbf)"/>
<circle cx="282.232966" cy="152.211676" r="19.047917" opacity="0.830201" style="stroke:black;stroke-width:0.5;fill:url(#radialffffff666666)"/>
<circle cx="111.107792" cy="59.217528" r="19.507370" opacity="0.840154" style="stroke:black;stroke-width:0.5;fill:url(#radialffffff666666)"/>
<circle cx="197.421702" cy="177.639049" r="7.962034" opacity="0.840422" style="stroke:black;stroke-width:0.5;fill:url(#radialffffffbfbfbf)"/>
<circle cx="64.470253" cy="199.809601" r="20.101061" opacity="0.852843" style="stroke:black;stroke-width:0.5;fill:url(#radialffffff666666)"/>
<circle cx="278.822615" cy="185.854599" r="8.774890" opacity="0.882280" style="stroke:black;stroke-width:0.5;fill:url(#radialffffffbfbfbf)"/>
<circle cx="106.175195" cy="107.762773" r="21.638567" opacity="0.884858" style="stroke:black;stroke-width:0.5;fill:url(#radialffffff666666)"/>
<circle cx="63.620932" cy="234.491310" r="8.957782" opacity="0.891427" style="stroke:black;stroke-width:0.5;fill:url(#radialffffffbfbfbf)"/>
<circle cx="132.295092" cy="194.756140" r="9.214340" opacity="0.904102" style="stroke:black;stroke-width:0.5;fill:url(#radialffffffbfbfbf)"/>
<circle cx="199.084412" cy="122.034637" r="9.283489" opacity="0.907488" style="stroke:black;stroke-width:0.5;fill:url(#radialffffffbfbfbf)"/>
<circle cx="72.316675" cy="112.567971" r="9.745236" opacity="0.929783" style="stroke:black;stroke-width:0.5;fill:url(#radialffffffbfbfbf)"/>
<circle cx="281.886704" cy="130.426585" r="10.219402" opacity="0.952134" style="stroke:black;stroke-width:0.5;fill:url(#radialffffffbfbfbf)"/>
<circle cx="102.421848" cy="40.000000" r="10.454509" opacity="0.963024" style="stroke:black;stroke-width:0.5;fill:url(#radialffffffbfbfbf)"/>
<circle cx="54.876189" cy="181.372796" r="10.707962" opacity="0.974628" style="stroke:black;stroke-width:0.5;fill:url(#radialffffffbfbfbf)"/>
<circle cx="126.634039" cy="115.694127" r="11.272727" opacity="1.000000" style="stroke:black;stroke-width:0.5;fill:url(#radialffffffbfbfbf)"/>
</svg>
</g>
</svg>
