<?xml version="1.0"?>
<svg version="1.1" id="topsvg"
xmlns="http://www.w3.org/2000/svg" xmlns:xlink="http://www.w3.org/1999/xlink"
xmlns:cml="http://www.xml-cml.org/schema" x="0" y="0" width="1024px" height="1024px" viewBox="0 0 100 100">
<title>14115 - Open Babel Depiction</title>
<rect x="0" y="0" width="100" height="100" fill="white"/>
<defs>
<radialGradient id='radialffffff666666' cx='50%' cy='50%' r='50%' fx='30%' fy='30%'>
  <stop offset=' 0%' stop-color="rgb(255,255,255)"  stop-opacity='1.0'/>
  <stop offset='100%' stop-color="rgb(102,102,102)"  stop-opacity ='1.0'/>
</radialGradient>
<radialGradient id='radialffffffbfbfbf' cx='50%' cy='50%' r='50%' fx='30%' fy='30%'>
  <stop offset=' 0%' stop-color="rgb(255,255,255)"  stop-opacity='1.0'/>
  <stop offset='100%' stop-color="rgb(191,191,191)"  stop-opacity ='1.0'/>
</radialGradient>
</defs>
<g transform="translate(0,0)">
<svg width="100" height="100" x="0" y="0" viewBox="0 0 505.065 218.964"
font-family="sans-serif" stroke="rgb(0,0,0)" stroke-width="2"  stroke-linecap="round">
<line x1="279.5" y1="111.1" x2="315.2" y2="109.2" opacity="1.0" stroke="rgb(0,0,0)"  stroke-width="1.5"/>
<line x1="279.5" y1="111.1" x2="234.7" y2="108.6" opacity="0.5" stroke="rgb(0,0,0)"  stroke-width="1.7"/>
<line x1="279.5" y1="111.1" x2="282.3" y2="141.0" opacity="0.6" stroke="rgb(0,0,0)"  stroke-width="2.3"/>
<line x1="279.5" y1="111.1" x2="283.3" y2="84.2" opacity="0.8" stroke="rgb(0,0,0)"  stroke-width="2.4"/>
<line x1="315.2" y1="109.2" x2="359.9" y2="110.6" opacity="0.8" stroke="rgb(0,0,0)"  stroke-width="1.3"/>
<line x1="315.2" y1="109.2" x2="311.6" y2="136.4" opacity="0.4" stroke="rgb(0,0,0)"  stroke-width="0.7"/>
<line x1="315.2" y1="109.2" x2="311.9" y2="79.5" opacity="0.2" stroke="rgb(0,0,0)"  stroke-width="0.8"/>
<line x1="234.7" y1="108.6" x2="197.9" y2="109.4" opacity="0.3" stroke="rgb(0,0,0)"  stroke-width="1.9"/>
<line x1="234.7" y1="108.6" x2="232.3" y2="79.1" opacity="0.6" stroke="rgb(0,0,0)"  stroke-width="1.1"/>
<line x1="234.7" y1="108.6" x2="230.9" y2="135.8" opacity="0.4" stroke="rgb(0,0,0)"  stroke-width="1.1"/>
<line x1="359.9" y1="110.6" x2="395.5" y2="107.6" opacity="0.4" stroke="rgb(0,0,0)"  stroke-width="1.2"/>
<line x1="359.9" y1="110.6" x2="363.2" y2="83.8" opacity="0.4" stroke="rgb(0,0,0)"  stroke-width="2.0"/>
<line x1="359.9" y1="110.6" x2="363.4" y2="140.6" opacity="0.7" stroke="rgb(0,0,0)"  stroke-width="1.9"/>
<line x1="197.9" y1="109.4" x2="153.6" y2="109.5" opacity="0.6" stroke="rgb(0,0,0)"  stroke-width="2.1"/>
<line x1="197.9" y1="109.4" x2="201.0" y2="81.6" opacity="0.7" stroke="rgb(0,0,0)"  stroke-width="2.7"/>
<line x1="197.9" y1="109.4" x2="201.3" y2="137.9" opacity="0.9" stroke="rgb(0,0,0)"  stroke-width="2.7"/>
<line x1="395.5" y1="107.6" x2="440.1" y2="110.0" opacity="0.9" stroke="rgb(0,0,0)"  stroke-width="1.0"/>
<line x1="395.5" y1="107.6" x2="392.6" y2="77.3" opacity="0.3" stroke="rgb(0,0,0)"  stroke-width="0.4"/>
<line x1="395.5" y1="107.6" x2="392.1" y2="134.0" opacity="0.1" stroke="rgb(0,0,0)"  stroke-width="0.4"/>
<line x1="440.1" y1="110.0" x2="444.4" y2="140.5" opacity="0.1" stroke="rgb(0,0,0)"  stroke-width="1.5"/>
<line x1="440.1" y1="110.0" x2="444.9" y2="83.5" opacity="0.5" stroke="rgb(0,0,0)"  stroke-width="1.6"/>
<line x1="440.1" y1="110.0" x2="465.1" y2="107.8" opacity="0.5" stroke="rgb(0,0,0)"  stroke-width="0.9"/>
<line x1="133.2" y1="70.5" x2="148.7" y2="40.0" opacity="0.3" stroke="rgb(0,0,0)"  stroke-width="1.7"/>
<line x1="133.8" y1="148.5" x2="149.8" y2="179.0" opacity="0.6" stroke="rgb(0,0,0)"  stroke-width="1.6"/>
<line x1="92.2" y1="70.6" x2="76.0" y2="40.3" opacity="0.5" stroke="rgb(0,0,0)"  stroke-width="0.9"/>
<line x1="92.8" y1="148.5" x2="77.0" y2="178.9" opacity="0.3" stroke="rgb(0,0,0)"  stroke-width="0.9"/>
<line x1="72.0" y1="109.6" x2="40.0" y2="109.7" opacity="0.3" stroke="rgb(0,0,0)"  stroke-width="0.5"/>
<line x1="150.9" y1="108.1" x2="131.1" y2="147.1" opacity="0.6" stroke="rgb(0,0,0)"  stroke-width="1.7"/>
<line x1="156.2" y1="110.8" x2="136.5" y2="149.8" opacity="0.6" stroke="rgb(0,0,0)"  stroke-width="1.7" stroke-dasharray="5.0,5.0"/>
<line x1="133.8" y1="145.5" x2="92.8" y2="145.5" opacity="0.4" stroke="rgb(0,0,0)"  stroke-width="1.3"/>
<line x1="133.8" y1="151.5" x2="92.8" y2="151.5" opacity="0.4" stroke="rgb(0,0,0)"  stroke-width="1.3" stroke-dasharray="5.0,5.0"/>
<line x1="95.4" y1="147.1" x2="74.6" y2="108.2" opacity="0.3" stroke="rgb(0,0,0)"  stroke-width="0.9"/>
<line x1="90.1" y1="150.0" x2="69.3" y2="111.0" opacity="0.3" stroke="rgb(0,0,0)"  stroke-width="0.9" stroke-dasharray="5.0,5.0"/>
<line x1="74.6" y1="111.0" x2="94.8" y2="72.0" opacity="0.3" stroke="rgb(0,0,0)"  stroke-width="0.9"/>
<line x1="69.3" y1="108.2" x2="89.5" y2="69.2" opacity="0.3" stroke="rgb(0,0,0)"  stroke-width="0.9" stroke-dasharray="5.0,5.0"/>
<line x1="92.2" y1="73.6" x2="133.2" y2="73.5" opacity="0.4" stroke="rgb(0,0,0)"  stroke-width="1.3"/>
<line x1="92.2" y1="67.6" x2="133.2" y2="67.5" opacity="0.4" stroke="rgb(0,0,0)"  stroke-width="1.3" stroke-dasharray="5.0,5.0"/>
<line x1="130.6" y1="71.9" x2="150.9" y2="110.9" opacity="0.6" stroke="rgb(0,0,0)"  stroke-width="1.7"/>
<line x1="135.9" y1="69.1" x2="156.2" y2="108.1" opacity="0.6" stroke="rgb(0,0,0)"  stroke-width="1.7" stroke-dasharray="5.0,5.0"/>
<circle cx="392.117799" cy="133.957014" r="5.636364" opacity="0.200000" style="stroke:black;stroke-width:0.5;fill:url(#radialffffffbfbfbf)"/>
<circle cx="392.592068" cy="77.276950" r="5.636364" opacity="0.227677" style="stroke:black;stroke-width:0.5;fill:url(#radialffffffbfbfbf)"/>
<circle cx="40.000000" cy="109.659566" r="5.636364" opacity="0.335186" style="stroke:black;stroke-width:0.5;fill:url(#radialffffffbfbfbf)"/>
<circle cx="311.627462" cy="136.392889" r="5.636364" opacity="0.367060" style="stroke:black;stroke-width:0.5;fill:url(#radialffffffbfbfbf)"/>
<circle cx="311.850078" cy="79.545056" r="5.636364" opacity="0.409104" style="stroke:black;stroke-width:0.5;fill:url(#radialffffffbfbfbf)"/>
<circle cx="465.064989" cy="107.817335" r="5.636364" opacity="0.426072" style="stroke:black;stroke-width:0.5;fill:url(#radialffffffbfbfbf)"/>
<circle cx="395.540929" cy="107.617303" r="13.818182" opacity="0.472687" style="stroke:black;stroke-width:0.5;fill:url(#radialffffff666666)"/>
<circle cx="71.953515" cy="109.607945" r="13.818182" opacity="0.500015" style="stroke:black;stroke-width:0.5;fill:url(#radialffffff666666)"/>
<circle cx="77.041428" cy="178.912615" r="5.636364" opacity="0.510162" style="stroke:black;stroke-width:0.5;fill:url(#radialffffffbfbfbf)"/>
<circle cx="230.908057" cy="135.750850" r="5.636364" opacity="0.510616" style="stroke:black;stroke-width:0.5;fill:url(#radialffffffbfbfbf)"/>
<circle cx="75.957383" cy="40.293596" r="5.636364" opacity="0.527654" style="stroke:black;stroke-width:0.5;fill:url(#radialffffffbfbfbf)"/>
<circle cx="232.327639" cy="79.135313" r="5.636364" opacity="0.538313" style="stroke:black;stroke-width:0.5;fill:url(#radialffffffbfbfbf)"/>
<circle cx="92.779438" cy="148.543226" r="13.818182" opacity="0.577252" style="stroke:black;stroke-width:0.5;fill:url(#radialffffff666666)"/>
<circle cx="92.166436" cy="70.608138" r="13.818182" opacity="0.586011" style="stroke:black;stroke-width:0.5;fill:url(#radialffffff666666)"/>
<circle cx="315.150608" cy="109.227239" r="13.818182" opacity="0.590812" style="stroke:black;stroke-width:0.5;fill:url(#radialffffff666666)"/>
<circle cx="440.060976" cy="110.011235" r="13.818182" opacity="0.647459" style="stroke:black;stroke-width:0.5;fill:url(#radialffffff666666)"/>
<circle cx="234.705440" cy="108.640048" r="13.818182" opacity="0.689734" style="stroke:black;stroke-width:0.5;fill:url(#radialffffff666666)"/>
<circle cx="133.821508" cy="148.478699" r="14.091218" opacity="0.714059" style="stroke:black;stroke-width:0.5;fill:url(#radialffffff666666)"/>
<circle cx="133.211733" cy="70.537159" r="14.371080" opacity="0.721115" style="stroke:black;stroke-width:0.5;fill:url(#radialffffff666666)"/>
<circle cx="359.883593" cy="110.562937" r="15.148379" opacity="0.740359" style="stroke:black;stroke-width:0.5;fill:url(#radialffffff666666)"/>
<circle cx="149.804718" cy="178.964237" r="6.458065" opacity="0.756897" style="stroke:black;stroke-width:0.5;fill:url(#radialffffffbfbfbf)"/>
<circle cx="444.429419" cy="140.496773" r="6.589969" opacity="0.764587" style="stroke:black;stroke-width:0.5;fill:url(#radialffffffbfbfbf)"/>
<circle cx="148.720673" cy="40.000000" r="6.662359" opacity="0.768775" style="stroke:black;stroke-width:0.5;fill:url(#radialffffffbfbfbf)"/>
<circle cx="153.553707" cy="109.472439" r="16.615948" opacity="0.775393" style="stroke:black;stroke-width:0.5;fill:url(#radialffffff666666)"/>
<circle cx="444.932726" cy="83.513435" r="7.188930" opacity="0.798579" style="stroke:black;stroke-width:0.5;fill:url(#radialffffffbfbfbf)"/>
<circle cx="279.464236" cy="111.075922" r="18.654332" opacity="0.821579" style="stroke:black;stroke-width:0.5;fill:url(#radialffffff666666)"/>
<circle cx="363.432550" cy="140.561299" r="8.167594" opacity="0.851202" style="stroke:black;stroke-width:0.5;fill:url(#radialffffffbfbfbf)"/>
<circle cx="363.161539" cy="83.797351" r="8.651357" opacity="0.876047" style="stroke:black;stroke-width:0.5;fill:url(#radialffffffbfbfbf)"/>
<circle cx="197.928570" cy="109.391781" r="21.890662" opacity="0.889998" style="stroke:black;stroke-width:0.5;fill:url(#radialffffff666666)"/>
<circle cx="282.261459" cy="141.032343" r="9.617143" opacity="0.923652" style="stroke:black;stroke-width:0.5;fill:url(#radialffffffbfbfbf)"/>
<circle cx="283.306788" cy="84.226452" r="10.060535" opacity="0.944705" style="stroke:black;stroke-width:0.5;fill:url(#radialffffffbfbfbf)"/>
<circle cx="201.287174" cy="137.873771" r="11.172842" opacity="0.995560" style="stroke:black;stroke-width:0.5;fill:url(#radialffffffbfbfbf)"/>
<circle cx="200.958089" cy="81.571188" r="11.272727" opacity="1.000000" style="stroke:black;stroke-width:0.5;fill:url(#radialffffffbfbfbf)"/>
</svg>
</g>
</svg>
