<?xml version="1.0"?>
<svg version="1.1" id="topsvg"
xmlns="http://www.w3.org/2000/svg" xmlns:xlink="http://www.w3.org/1999/xlink"
xmlns:cml="http://www.xml-cml.org/schema" x="0" y="0" width="1024px" height="1024px" viewBox="0 0 100 100">
<title>141274 - Open Babel Depiction</title>
<rect x="0" y="0" width="100" height="100" fill="white"/>
<defs>
<radialGradient id='radialffffff666666' cx='50%' cy='50%' r='50%' fx='30%' fy='30%'>
  <stop offset=' 0%' stop-color="rgb(255,255,255)"  stop-opacity='1.0'/>
  <stop offset='100%' stop-color="rgb(102,102,102)"  stop-opacity ='1.0'/>
</radialGradient>
<radialGradient id='radialffffffbfbfbf' cx='50%' cy='50%' r='50%' fx='30%' fy='30%'>
  <stop offset=' 0%' stop-color="rgb(255,255,255)"  stop-opacity='1.0'/>
  <stop offset='100%' stop-color="rgb(191,191,191)"  stop-opacity ='1.0'/>
</radialGradient>
</defs>
<g transform="translate(0,0)">
<svg width="100" height="100" x="0" y="0" viewBox="0 0 787.505 169.462"
font-family="sans-serif" stroke="rgb(0,0,0)" stroke-width="2"  stroke-linecap="round">
<line x1="357.7" y1="73.6" x2="399.3" y2="100.7" opacity="1.0" stroke="rgb(0,0,0)"  stroke-width="1.6"/>
<line x1="357.7" y1="73.6" x2="316.2" y2="100.9" opacity="0.5" stroke="rgb(0,0,0)"  stroke-width="1.6"/>
<line x1="357.7" y1="73.6" x2="357.6" y2="53.1" opacity="0.5" stroke="rgb(0,0,0)"  stroke-width="2.3"/>
<line x1="357.7" y1="73.6" x2="357.9" y2="51.5" opacity="0.8" stroke="rgb(0,0,0)"  stroke-width="1.0"/>
<line x1="399.3" y1="100.7" x2="440.8" y2="73.3" opacity="0.3" stroke="rgb(0,0,0)"  stroke-width="1.6"/>
<line x1="399.3" y1="100.7" x2="399.4" y2="122.4" opacity="0.5" stroke="rgb(0,0,0)"  stroke-width="2.3"/>
<line x1="399.3" y1="100.7" x2="399.2" y2="121.5" opacity="0.8" stroke="rgb(0,0,0)"  stroke-width="0.9"/>
<line x1="316.2" y1="100.9" x2="275.7" y2="72.1" opacity="0.3" stroke="rgb(0,0,0)"  stroke-width="1.6"/>
<line x1="316.2" y1="100.9" x2="315.5" y2="122.7" opacity="0.5" stroke="rgb(0,0,0)"  stroke-width="2.2"/>
<line x1="316.2" y1="100.9" x2="316.2" y2="121.3" opacity="0.7" stroke="rgb(0,0,0)"  stroke-width="0.9"/>
<line x1="440.8" y1="73.3" x2="481.3" y2="102.2" opacity="0.3" stroke="rgb(0,0,0)"  stroke-width="1.6"/>
<line x1="440.8" y1="73.3" x2="441.5" y2="52.8" opacity="0.5" stroke="rgb(0,0,0)"  stroke-width="2.3"/>
<line x1="440.8" y1="73.3" x2="440.9" y2="51.7" opacity="0.8" stroke="rgb(0,0,0)"  stroke-width="1.0"/>
<line x1="275.7" y1="72.1" x2="233.2" y2="97.8" opacity="0.3" stroke="rgb(0,0,0)"  stroke-width="1.5"/>
<line x1="275.7" y1="72.1" x2="275.8" y2="51.9" opacity="0.5" stroke="rgb(0,0,0)"  stroke-width="2.3"/>
<line x1="275.7" y1="72.1" x2="277.1" y2="49.8" opacity="0.8" stroke="rgb(0,0,0)"  stroke-width="0.9"/>
<line x1="481.3" y1="102.2" x2="523.8" y2="76.5" opacity="0.3" stroke="rgb(0,0,0)"  stroke-width="1.6"/>
<line x1="481.3" y1="102.2" x2="481.2" y2="123.5" opacity="0.5" stroke="rgb(0,0,0)"  stroke-width="2.2"/>
<line x1="481.3" y1="102.2" x2="480.0" y2="123.2" opacity="0.7" stroke="rgb(0,0,0)"  stroke-width="0.9"/>
<line x1="233.2" y1="97.8" x2="192.8" y2="68.9" opacity="0.3" stroke="rgb(0,0,0)"  stroke-width="1.5"/>
<line x1="233.2" y1="97.8" x2="233.3" y2="118.3" opacity="0.5" stroke="rgb(0,0,0)"  stroke-width="0.8"/>
<line x1="233.2" y1="97.8" x2="231.5" y2="119.6" opacity="0.3" stroke="rgb(0,0,0)"  stroke-width="2.2"/>
<line x1="523.8" y1="76.5" x2="564.3" y2="105.2" opacity="0.7" stroke="rgb(0,0,0)"  stroke-width="1.5"/>
<line x1="523.8" y1="76.5" x2="523.7" y2="54.7" opacity="0.5" stroke="rgb(0,0,0)"  stroke-width="0.9"/>
<line x1="523.8" y1="76.5" x2="525.3" y2="55.8" opacity="0.3" stroke="rgb(0,0,0)"  stroke-width="2.2"/>
<line x1="192.8" y1="68.9" x2="150.2" y2="94.6" opacity="0.7" stroke="rgb(0,0,0)"  stroke-width="1.5"/>
<line x1="192.8" y1="68.9" x2="193.3" y2="47.4" opacity="0.5" stroke="rgb(0,0,0)"  stroke-width="2.1"/>
<line x1="192.8" y1="68.9" x2="193.9" y2="47.9" opacity="0.7" stroke="rgb(0,0,0)"  stroke-width="0.8"/>
<line x1="564.3" y1="105.2" x2="605.8" y2="78.0" opacity="0.3" stroke="rgb(0,0,0)"  stroke-width="1.5"/>
<line x1="564.3" y1="105.2" x2="563.9" y2="128.0" opacity="0.5" stroke="rgb(0,0,0)"  stroke-width="2.1"/>
<line x1="564.3" y1="105.2" x2="563.7" y2="124.6" opacity="0.7" stroke="rgb(0,0,0)"  stroke-width="0.8"/>
<line x1="150.2" y1="94.6" x2="109.8" y2="65.8" opacity="0.3" stroke="rgb(0,0,0)"  stroke-width="1.4"/>
<line x1="150.2" y1="94.6" x2="149.0" y2="115.1" opacity="0.5" stroke="rgb(0,0,0)"  stroke-width="2.1"/>
<line x1="150.2" y1="94.6" x2="150.0" y2="116.6" opacity="0.7" stroke="rgb(0,0,0)"  stroke-width="0.8"/>
<line x1="605.8" y1="78.0" x2="646.3" y2="106.7" opacity="0.3" stroke="rgb(0,0,0)"  stroke-width="1.5"/>
<line x1="605.8" y1="78.0" x2="606.6" y2="59.0" opacity="0.5" stroke="rgb(0,0,0)"  stroke-width="2.2"/>
<line x1="605.8" y1="78.0" x2="605.8" y2="54.6" opacity="0.7" stroke="rgb(0,0,0)"  stroke-width="0.9"/>
<line x1="109.8" y1="65.8" x2="68.5" y2="92.8" opacity="0.3" stroke="rgb(0,0,0)"  stroke-width="1.4"/>
<line x1="109.8" y1="65.8" x2="109.4" y2="44.1" opacity="0.5" stroke="rgb(0,0,0)"  stroke-width="2.1"/>
<line x1="109.8" y1="65.8" x2="110.7" y2="45.3" opacity="0.7" stroke="rgb(0,0,0)"  stroke-width="0.7"/>
<line x1="646.3" y1="106.7" x2="686.0" y2="80.3" opacity="0.2" stroke="rgb(0,0,0)"  stroke-width="1.4"/>
<line x1="646.3" y1="106.7" x2="646.8" y2="129.5" opacity="0.5" stroke="rgb(0,0,0)"  stroke-width="2.0"/>
<line x1="646.3" y1="106.7" x2="645.2" y2="126.1" opacity="0.7" stroke="rgb(0,0,0)"  stroke-width="0.7"/>
<line x1="68.5" y1="92.8" x2="67.5" y2="114.1" opacity="0.2" stroke="rgb(0,0,0)"  stroke-width="0.7"/>
<line x1="68.5" y1="92.8" x2="40.0" y2="71.6" opacity="0.2" stroke="rgb(0,0,0)"  stroke-width="1.4"/>
<line x1="68.5" y1="92.8" x2="66.2" y2="113.0" opacity="0.5" stroke="rgb(0,0,0)"  stroke-width="2.1"/>
<line x1="686.0" y1="80.3" x2="718.6" y2="59.0" opacity="0.7" stroke="rgb(0,0,0)"  stroke-width="1.4"/>
<line x1="683.7" y1="76.8" x2="716.3" y2="55.5" opacity="0.7" stroke="rgb(0,0,0)"  stroke-width="1.4"/>
<line x1="688.3" y1="83.8" x2="720.9" y2="62.5" opacity="0.7" stroke="rgb(0,0,0)"  stroke-width="1.4"/>
<line x1="718.6" y1="59.0" x2="747.5" y2="40.0" opacity="0.5" stroke="rgb(0,0,0)"  stroke-width="1.4"/>
<circle cx="645.231651" cy="126.076813" r="5.636364" opacity="0.200000" style="stroke:black;stroke-width:0.5;fill:url(#radialffffffbfbfbf)"/>
<circle cx="110.740730" cy="45.300280" r="5.636364" opacity="0.200000" style="stroke:black;stroke-width:0.5;fill:url(#radialffffffbfbfbf)"/>
<circle cx="67.501087" cy="114.106554" r="5.636364" opacity="0.200000" style="stroke:black;stroke-width:0.5;fill:url(#radialffffffbfbfbf)"/>
<circle cx="563.682634" cy="124.638954" r="5.636364" opacity="0.200000" style="stroke:black;stroke-width:0.5;fill:url(#radialffffffbfbfbf)"/>
<circle cx="193.899630" cy="47.935815" r="5.636364" opacity="0.201941" style="stroke:black;stroke-width:0.5;fill:url(#radialffffffbfbfbf)"/>
<circle cx="233.296325" cy="118.348725" r="5.636364" opacity="0.216118" style="stroke:black;stroke-width:0.5;fill:url(#radialffffffbfbfbf)"/>
<circle cx="150.033561" cy="116.557081" r="5.636364" opacity="0.226533" style="stroke:black;stroke-width:0.5;fill:url(#radialffffffbfbfbf)"/>
<circle cx="523.747147" cy="54.654480" r="5.636364" opacity="0.269338" style="stroke:black;stroke-width:0.5;fill:url(#radialffffffbfbfbf)"/>
<circle cx="316.166355" cy="121.338045" r="5.636364" opacity="0.271959" style="stroke:black;stroke-width:0.5;fill:url(#radialffffffbfbfbf)"/>
<circle cx="479.997925" cy="123.243289" r="5.636364" opacity="0.278493" style="stroke:black;stroke-width:0.5;fill:url(#radialffffffbfbfbf)"/>
<circle cx="399.179198" cy="121.523051" r="5.636364" opacity="0.292597" style="stroke:black;stroke-width:0.5;fill:url(#radialffffffbfbfbf)"/>
<circle cx="605.753813" cy="54.638251" r="5.636364" opacity="0.299780" style="stroke:black;stroke-width:0.5;fill:url(#radialffffffbfbfbf)"/>
<circle cx="277.084496" cy="49.798865" r="5.636364" opacity="0.314300" style="stroke:black;stroke-width:0.5;fill:url(#radialffffffbfbfbf)"/>
<circle cx="440.922557" cy="51.694372" r="5.636364" opacity="0.314702" style="stroke:black;stroke-width:0.5;fill:url(#radialffffffbfbfbf)"/>
<circle cx="357.906469" cy="51.538577" r="5.636364" opacity="0.328871" style="stroke:black;stroke-width:0.5;fill:url(#radialffffffbfbfbf)"/>
<circle cx="40.000000" cy="71.649133" r="5.636364" opacity="0.664713" style="stroke:black;stroke-width:0.5;fill:url(#radialffffffbfbfbf)"/>
<circle cx="68.504019" cy="92.821043" r="13.818182" opacity="0.677097" style="stroke:black;stroke-width:0.5;fill:url(#radialffffff666666)"/>
<circle cx="646.254057" cy="106.654353" r="13.818182" opacity="0.681980" style="stroke:black;stroke-width:0.5;fill:url(#radialffffff666666)"/>
<circle cx="109.831925" cy="65.813307" r="13.818182" opacity="0.682128" style="stroke:black;stroke-width:0.5;fill:url(#radialffffff666666)"/>
<circle cx="686.024011" cy="80.337958" r="13.818182" opacity="0.686127" style="stroke:black;stroke-width:0.5;fill:url(#radialffffff666666)"/>
<circle cx="718.604669" cy="58.964812" r="13.818182" opacity="0.689478" style="stroke:black;stroke-width:0.5;fill:url(#radialffffff666666)"/>
<circle cx="747.504667" cy="40.000000" r="5.636364" opacity="0.692484" style="stroke:black;stroke-width:0.5;fill:url(#radialffffffbfbfbf)"/>
<circle cx="564.279849" cy="105.242459" r="13.818182" opacity="0.695768" style="stroke:black;stroke-width:0.5;fill:url(#radialffffff666666)"/>
<circle cx="150.238043" cy="94.599704" r="13.818182" opacity="0.699218" style="stroke:black;stroke-width:0.5;fill:url(#radialffffff666666)"/>
<circle cx="192.792835" cy="68.867541" r="13.818182" opacity="0.699978" style="stroke:black;stroke-width:0.5;fill:url(#radialffffff666666)"/>
<circle cx="233.202199" cy="97.777276" r="13.825182" opacity="0.707286" style="stroke:black;stroke-width:0.5;fill:url(#radialffffff666666)"/>
<circle cx="605.818727" cy="78.036734" r="14.072985" opacity="0.713596" style="stroke:black;stroke-width:0.5;fill:url(#radialffffff666666)"/>
<circle cx="523.834782" cy="76.462554" r="14.147186" opacity="0.715475" style="stroke:black;stroke-width:0.5;fill:url(#radialffffff666666)"/>
<circle cx="481.292972" cy="102.162260" r="14.509791" opacity="0.724586" style="stroke:black;stroke-width:0.5;fill:url(#radialffffff666666)"/>
<circle cx="316.221533" cy="100.909407" r="14.613392" opacity="0.727169" style="stroke:black;stroke-width:0.5;fill:url(#radialffffff666666)"/>
<circle cx="275.737517" cy="72.077570" r="14.700193" opacity="0.729325" style="stroke:black;stroke-width:0.5;fill:url(#radialffffff666666)"/>
<circle cx="399.331747" cy="100.714663" r="14.831795" opacity="0.732582" style="stroke:black;stroke-width:0.5;fill:url(#radialffffff666666)"/>
<circle cx="440.815448" cy="73.346651" r="14.919996" opacity="0.734757" style="stroke:black;stroke-width:0.5;fill:url(#radialffffff666666)"/>
<circle cx="357.698742" cy="73.554378" r="15.062798" opacity="0.738265" style="stroke:black;stroke-width:0.5;fill:url(#radialffffff666666)"/>
<circle cx="646.809077" cy="129.462112" r="10.046661" opacity="0.944053" style="stroke:black;stroke-width:0.5;fill:url(#radialffffffbfbfbf)"/>
<circle cx="109.426208" cy="44.148046" r="10.208842" opacity="0.951642" style="stroke:black;stroke-width:0.5;fill:url(#radialffffffbfbfbf)"/>
<circle cx="563.909835" cy="128.004778" r="10.271088" opacity="0.954539" style="stroke:black;stroke-width:0.5;fill:url(#radialffffffbfbfbf)"/>
<circle cx="66.170337" cy="112.996513" r="10.296785" opacity="0.955732" style="stroke:black;stroke-width:0.5;fill:url(#radialffffffbfbfbf)"/>
<circle cx="193.292678" cy="47.377549" r="10.516644" opacity="0.965882" style="stroke:black;stroke-width:0.5;fill:url(#radialffffffbfbfbf)"/>
<circle cx="231.530647" cy="119.627544" r="10.577176" opacity="0.968658" style="stroke:black;stroke-width:0.5;fill:url(#radialffffffbfbfbf)"/>
<circle cx="149.001419" cy="115.096502" r="10.630285" opacity="0.971087" style="stroke:black;stroke-width:0.5;fill:url(#radialffffffbfbfbf)"/>
<circle cx="525.347293" cy="55.813206" r="10.868417" opacity="0.981903" style="stroke:black;stroke-width:0.5;fill:url(#radialffffffbfbfbf)"/>
<circle cx="315.523700" cy="122.685023" r="10.911246" opacity="0.983836" style="stroke:black;stroke-width:0.5;fill:url(#radialffffffbfbfbf)"/>
<circle cx="481.176126" cy="123.541897" r="10.928949" opacity="0.984634" style="stroke:black;stroke-width:0.5;fill:url(#radialffffffbfbfbf)"/>
<circle cx="399.399907" cy="122.386416" r="11.020890" opacity="0.988767" style="stroke:black;stroke-width:0.5;fill:url(#radialffffffbfbfbf)"/>
<circle cx="606.565246" cy="59.032973" r="11.040877" opacity="0.989663" style="stroke:black;stroke-width:0.5;fill:url(#radialffffffbfbfbf)"/>
<circle cx="275.786203" cy="51.941048" r="11.163084" opacity="0.995125" style="stroke:black;stroke-width:0.5;fill:url(#radialffffffbfbfbf)"/>
<circle cx="441.454857" cy="52.791430" r="11.195634" opacity="0.996575" style="stroke:black;stroke-width:0.5;fill:url(#radialffffffbfbfbf)"/>
<circle cx="357.572159" cy="53.103020" r="11.272727" opacity="1.000000" style="stroke:black;stroke-width:0.5;fill:url(#radialffffffbfbfbf)"/>
</svg>
</g>
</svg>
