<?xml version="1.0"?>
<svg version="1.1" id="topsvg"
xmlns="http://www.w3.org/2000/svg" xmlns:xlink="http://www.w3.org/1999/xlink"
xmlns:cml="http://www.xml-cml.org/schema" x="0" y="0" width="1024px" height="1024px" viewBox="0 0 100 100">
<title>14263 - Open Babel Depiction</title>
<rect x="0" y="0" width="100" height="100" fill="white"/>
<defs>
<radialGradient id='radialffffff666666' cx='50%' cy='50%' r='50%' fx='30%' fy='30%'>
  <stop offset=' 0%' stop-color="rgb(255,255,255)"  stop-opacity='1.0'/>
  <stop offset='100%' stop-color="rgb(102,102,102)"  stop-opacity ='1.0'/>
</radialGradient>
<radialGradient id='radialffffffbfbfbf' cx='50%' cy='50%' r='50%' fx='30%' fy='30%'>
  <stop offset=' 0%' stop-color="rgb(255,255,255)"  stop-opacity='1.0'/>
  <stop offset='100%' stop-color="rgb(191,191,191)"  stop-opacity ='1.0'/>
</radialGradient>
</defs>
<g transform="translate(0,0)">
<svg width="100" height="100" x="0" y="0" viewBox="0 0 237.025 216.875"
font-family="sans-serif" stroke="rgb(0,0,0)" stroke-width="2"  stroke-linecap="round">
<line x1="102.6" y1="105.9" x2="59.1" y2="106.7" opacity="1.0" stroke="rgb(0,0,0)"  stroke-width="1.5"/>
<line x1="101.4" y1="106.6" x2="101.7" y2="105.0" opacity="0.5" stroke="rgb(0,0,0)"  stroke-width="1.0"/>
<line x1="100.5" y1="107.1" x2="101.0" y2="104.2" opacity="0.5" stroke="rgb(0,0,0)"  stroke-width="1.0"/>
<line x1="99.6" y1="107.6" x2="100.2" y2="103.5" opacity="0.5" stroke="rgb(0,0,0)"  stroke-width="1.0"/>
<line x1="98.7" y1="108.1" x2="99.5" y2="102.7" opacity="0.5" stroke="rgb(0,0,0)"  stroke-width="1.0"/>
<line x1="97.8" y1="108.6" x2="98.8" y2="102.0" opacity="0.5" stroke="rgb(0,0,0)"  stroke-width="1.0"/>
<line x1="96.9" y1="109.1" x2="98.1" y2="101.2" opacity="0.5" stroke="rgb(0,0,0)"  stroke-width="1.0"/>
<line x1="130.6" y1="67.6" x2="121.6" y2="56.5" opacity="0.5" stroke="rgb(0,0,0)"  stroke-width="2.1"/>
<line x1="130.6" y1="67.6" x2="127.0" y2="40.0" opacity="0.7" stroke="rgb(0,0,0)"  stroke-width="1.2"/>
<line x1="177.0" y1="84.3" x2="195.0" y2="70.9" opacity="0.4" stroke="rgb(0,0,0)"  stroke-width="2.0"/>
<line x1="177.0" y1="84.3" x2="194.1" y2="76.6" opacity="0.7" stroke="rgb(0,0,0)"  stroke-width="1.1"/>
<line x1="130.5" y1="143.8" x2="119.5" y2="176.9" opacity="0.4" stroke="rgb(0,0,0)"  stroke-width="1.5"/>
<line x1="171.2" y1="131.9" x2="197.0" y2="154.1" opacity="0.5" stroke="rgb(0,0,0)"  stroke-width="1.9"/>
<line x1="59.1" y1="106.7" x2="62.8" y2="108.7" opacity="0.6" stroke="rgb(0,0,0)"  stroke-width="2.4"/>
<line x1="59.1" y1="106.7" x2="40.7" y2="77.5" opacity="0.8" stroke="rgb(0,0,0)"  stroke-width="1.7"/>
<line x1="59.1" y1="106.7" x2="40.0" y2="134.5" opacity="0.6" stroke="rgb(0,0,0)"  stroke-width="1.7"/>
<line x1="130.6" y1="67.6" x2="102.6" y2="105.9" opacity="0.6" stroke="rgb(0,0,0)"  stroke-width="1.4"/>
<line x1="102.6" y1="105.9" x2="130.5" y2="143.8" opacity="0.5" stroke="rgb(0,0,0)"  stroke-width="1.3"/>
<line x1="130.5" y1="143.8" x2="171.2" y2="131.9" opacity="0.4" stroke="rgb(0,0,0)"  stroke-width="1.3"/>
<line x1="134.2" y1="135.2" x2="163.4" y2="126.7" opacity="0.4" stroke="rgb(0,0,0)"  stroke-width="1.3"/>
<line x1="171.2" y1="131.9" x2="177.0" y2="84.3" opacity="0.4" stroke="rgb(0,0,0)"  stroke-width="1.7"/>
<line x1="177.0" y1="84.3" x2="130.6" y2="67.6" opacity="0.6" stroke="rgb(0,0,0)"  stroke-width="1.6"/>
<circle cx="97.482027" cy="105.176192" r="5.636364" opacity="0.200000" style="stroke:black;stroke-width:0.5;fill:url(#radialffffffbfbfbf)"/>
<circle cx="194.122031" cy="76.580352" r="5.636364" opacity="0.463197" style="stroke:black;stroke-width:0.5;fill:url(#radialffffffbfbfbf)"/>
<circle cx="127.016652" cy="40.000000" r="5.636364" opacity="0.543565" style="stroke:black;stroke-width:0.5;fill:url(#radialffffffbfbfbf)"/>
<circle cx="102.575984" cy="105.947222" r="13.818182" opacity="0.613721" style="stroke:black;stroke-width:0.5;fill:url(#radialffffff666666)"/>
<circle cx="119.499921" cy="176.875488" r="5.636364" opacity="0.703600" style="stroke:black;stroke-width:0.5;fill:url(#radialffffffbfbfbf)"/>
<circle cx="130.513707" cy="143.795417" r="13.818182" opacity="0.703798" style="stroke:black;stroke-width:0.5;fill:url(#radialffffff666666)"/>
<circle cx="40.000000" cy="134.526932" r="5.753556" opacity="0.714420" style="stroke:black;stroke-width:0.5;fill:url(#radialffffffbfbfbf)"/>
<circle cx="130.623393" cy="67.640925" r="14.624470" opacity="0.727444" style="stroke:black;stroke-width:0.5;fill:url(#radialffffff666666)"/>
<circle cx="177.043243" cy="84.313229" r="14.829760" opacity="0.732532" style="stroke:black;stroke-width:0.5;fill:url(#radialffffff666666)"/>
<circle cx="40.716186" cy="77.454615" r="6.120979" opacity="0.736879" style="stroke:black;stroke-width:0.5;fill:url(#radialffffffbfbfbf)"/>
<circle cx="171.178257" cy="131.884785" r="16.058618" opacity="0.762278" style="stroke:black;stroke-width:0.5;fill:url(#radialffffff666666)"/>
<circle cx="59.127340" cy="106.692443" r="17.198262" opacity="0.788863" style="stroke:black;stroke-width:0.5;fill:url(#radialffffff666666)"/>
<circle cx="197.025490" cy="154.054304" r="7.449023" opacity="0.812896" style="stroke:black;stroke-width:0.5;fill:url(#radialffffffbfbfbf)"/>
<circle cx="194.970486" cy="70.850860" r="9.354223" opacity="0.910939" style="stroke:black;stroke-width:0.5;fill:url(#radialffffffbfbfbf)"/>
<circle cx="121.609767" cy="56.549714" r="9.897336" opacity="0.937011" style="stroke:black;stroke-width:0.5;fill:url(#radialffffffbfbfbf)"/>
<circle cx="62.811506" cy="108.721638" r="11.272727" opacity="1.000000" style="stroke:black;stroke-width:0.5;fill:url(#radialffffffbfbfbf)"/>
</svg>
</g>
</svg>
