<?xml version="1.0"?>
<svg version="1.1" id="topsvg"
xmlns="http://www.w3.org/2000/svg" xmlns:xlink="http://www.w3.org/1999/xlink"
xmlns:cml="http://www.xml-cml.org/schema" x="0" y="0" width="200px" height="200px" viewBox="0 0 100 100">
<title>142982 - Open Babel Depiction</title>
<rect x="0" y="0" width="100" height="100" fill="white"/>
<defs>
<radialGradient id='radialffffff666666' cx='50%' cy='50%' r='50%' fx='30%' fy='30%'>
  <stop offset=' 0%' stop-color="rgb(255,255,255)"  stop-opacity='1.0'/>
  <stop offset='100%' stop-color="rgb(102,102,102)"  stop-opacity ='1.0'/>
</radialGradient>
<radialGradient id='radialffffffbfbfbf' cx='50%' cy='50%' r='50%' fx='30%' fy='30%'>
  <stop offset=' 0%' stop-color="rgb(255,255,255)"  stop-opacity='1.0'/>
  <stop offset='100%' stop-color="rgb(191,191,191)"  stop-opacity ='1.0'/>
</radialGradient>
</defs>
<g transform="translate(0,0)">
<svg width="100" height="100" x="0" y="0" viewBox="0 0 317.391 251.95"
font-family="sans-serif" stroke="rgb(0,0,0)" stroke-width="4"  stroke-linecap="round">
<line x1="206.9" y1="114.6" x2="163.4" y2="88.4" opacity="1.0" stroke="rgb(0,0,0)"  stroke-width="1.4"/>
<line x1="206.9" y1="114.6" x2="246.5" y2="84.1" opacity="0.5" stroke="rgb(0,0,0)"  stroke-width="1.4"/>
<line x1="206.9" y1="114.6" x2="207.8" y2="148.3" opacity="0.5" stroke="rgb(0,0,0)"  stroke-width="1.1"/>
<line x1="206.9" y1="114.6" x2="210.8" y2="139.2" opacity="0.4" stroke="rgb(0,0,0)"  stroke-width="1.9"/>
<line x1="122.4" y1="114.0" x2="163.4" y2="88.4" opacity="0.6" stroke="rgb(0,0,0)"  stroke-width="1.2"/>
<line x1="122.4" y1="114.0" x2="114.2" y2="154.0" opacity="0.4" stroke="rgb(0,0,0)"  stroke-width="1.4"/>
<line x1="122.4" y1="114.0" x2="82.3" y2="83.5" opacity="0.5" stroke="rgb(0,0,0)"  stroke-width="1.0"/>
<line x1="122.4" y1="114.0" x2="127.9" y2="126.1" opacity="0.3" stroke="rgb(0,0,0)"  stroke-width="0.7"/>
<line x1="163.4" y1="88.4" x2="168.2" y2="61.5" opacity="0.2" stroke="rgb(0,0,0)"  stroke-width="1.2"/>
<line x1="163.4" y1="88.4" x2="157.4" y2="72.8" opacity="0.4" stroke="rgb(0,0,0)"  stroke-width="1.7"/>
<line x1="114.2" y1="154.0" x2="75.5" y2="182.5" opacity="0.6" stroke="rgb(0,0,0)"  stroke-width="1.6"/>
<line x1="114.2" y1="154.0" x2="110.3" y2="143.7" opacity="0.5" stroke="rgb(0,0,0)"  stroke-width="2.1"/>
<line x1="114.2" y1="154.0" x2="141.2" y2="176.8" opacity="0.7" stroke="rgb(0,0,0)"  stroke-width="1.7"/>
<line x1="82.3" y1="83.5" x2="69.7" y2="62.3" opacity="0.6" stroke="rgb(0,0,0)"  stroke-width="1.5"/>
<line x1="82.3" y1="83.5" x2="54.1" y2="101.4" opacity="0.5" stroke="rgb(0,0,0)"  stroke-width="0.9"/>
<line x1="82.3" y1="83.5" x2="89.3" y2="57.5" opacity="0.3" stroke="rgb(0,0,0)"  stroke-width="0.8"/>
<line x1="246.5" y1="84.1" x2="277.4" y2="102.2" opacity="0.3" stroke="rgb(0,0,0)"  stroke-width="1.4"/>
<line x1="246.5" y1="84.1" x2="245.7" y2="67.2" opacity="0.5" stroke="rgb(0,0,0)"  stroke-width="1.0"/>
<line x1="246.5" y1="84.1" x2="246.9" y2="59.2" opacity="0.3" stroke="rgb(0,0,0)"  stroke-width="1.6"/>
<line x1="207.8" y1="148.3" x2="184.9" y2="175.4" opacity="0.5" stroke="rgb(0,0,0)"  stroke-width="0.7"/>
<line x1="207.8" y1="148.3" x2="202.9" y2="132.4" opacity="0.2" stroke="rgb(0,0,0)"  stroke-width="0.4"/>
<line x1="207.8" y1="148.3" x2="240.2" y2="163.7" opacity="0.1" stroke="rgb(0,0,0)"  stroke-width="0.7"/>
<line x1="210.8" y1="139.2" x2="189.9" y2="167.6" opacity="0.2" stroke="rgb(0,0,0)"  stroke-width="2.5"/>
<line x1="210.8" y1="139.2" x2="204.6" y2="117.2" opacity="0.8" stroke="rgb(0,0,0)"  stroke-width="2.7"/>
<line x1="210.8" y1="139.2" x2="244.3" y2="151.6" opacity="0.9" stroke="rgb(0,0,0)"  stroke-width="2.5"/>
<line x1="75.5" y1="182.5" x2="74.5" y2="211.9" opacity="0.8" stroke="rgb(0,0,0)"  stroke-width="1.7"/>
<line x1="75.5" y1="182.5" x2="44.5" y2="165.3" opacity="0.6" stroke="rgb(0,0,0)"  stroke-width="1.5"/>
<line x1="75.5" y1="182.5" x2="77.9" y2="192.7" opacity="0.5" stroke="rgb(0,0,0)"  stroke-width="1.1"/>
<line x1="69.7" y1="62.3" x2="95.0" y2="40.0" opacity="0.4" stroke="rgb(0,0,0)"  stroke-width="2.1"/>
<line x1="69.7" y1="62.3" x2="62.8" y2="86.5" opacity="0.7" stroke="rgb(0,0,0)"  stroke-width="2.2"/>
<line x1="69.7" y1="62.3" x2="40.0" y2="42.9" opacity="0.7" stroke="rgb(0,0,0)"  stroke-width="1.9"/>
<circle cx="202.878894" cy="132.386048" r="5.636364" opacity="0.200000" style="stroke:black;stroke-width:0.5;fill:url(#radialffffffbfbfbf)"/>
<circle cx="127.932252" cy="126.082766" r="5.636364" opacity="0.347021" style="stroke:black;stroke-width:0.5;fill:url(#radialffffffbfbfbf)"/>
<circle cx="89.262974" cy="57.543971" r="5.636364" opacity="0.406871" style="stroke:black;stroke-width:0.5;fill:url(#radialffffffbfbfbf)"/>
<circle cx="240.247650" cy="163.690061" r="5.636364" opacity="0.463982" style="stroke:black;stroke-width:0.5;fill:url(#radialffffffbfbfbf)"/>
<circle cx="207.848977" cy="148.341945" r="13.818182" opacity="0.475518" style="stroke:black;stroke-width:0.5;fill:url(#radialffffff666666)"/>
<circle cx="245.701345" cy="67.209657" r="5.636364" opacity="0.478863" style="stroke:black;stroke-width:0.5;fill:url(#radialffffffbfbfbf)"/>
<circle cx="77.881776" cy="192.696920" r="5.636364" opacity="0.484933" style="stroke:black;stroke-width:0.5;fill:url(#radialffffffbfbfbf)"/>
<circle cx="54.135820" cy="101.395729" r="5.636364" opacity="0.491971" style="stroke:black;stroke-width:0.5;fill:url(#radialffffffbfbfbf)"/>
<circle cx="184.919932" cy="175.414361" r="5.636364" opacity="0.493154" style="stroke:black;stroke-width:0.5;fill:url(#radialffffffbfbfbf)"/>
<circle cx="168.183069" cy="61.501086" r="5.636364" opacity="0.548762" style="stroke:black;stroke-width:0.5;fill:url(#radialffffffbfbfbf)"/>
<circle cx="82.260417" cy="83.482515" r="13.818182" opacity="0.578694" style="stroke:black;stroke-width:0.5;fill:url(#radialffffff666666)"/>
<circle cx="122.360922" cy="114.034970" r="13.818182" opacity="0.598317" style="stroke:black;stroke-width:0.5;fill:url(#radialffffff666666)"/>
<circle cx="246.528058" cy="84.090296" r="13.818182" opacity="0.674145" style="stroke:black;stroke-width:0.5;fill:url(#radialffffff666666)"/>
<circle cx="277.390939" cy="102.153822" r="5.636364" opacity="0.683586" style="stroke:black;stroke-width:0.5;fill:url(#radialffffffbfbfbf)"/>
<circle cx="163.399240" cy="88.393781" r="13.818182" opacity="0.683654" style="stroke:black;stroke-width:0.5;fill:url(#radialffffff666666)"/>
<circle cx="75.453918" cy="182.505144" r="13.818182" opacity="0.692141" style="stroke:black;stroke-width:0.5;fill:url(#radialffffff666666)"/>
<circle cx="206.871952" cy="114.583933" r="13.818182" opacity="0.702253" style="stroke:black;stroke-width:0.5;fill:url(#radialffffff666666)"/>
<circle cx="44.450529" cy="165.333685" r="5.769696" opacity="0.715421" style="stroke:black;stroke-width:0.5;fill:url(#radialffffffbfbfbf)"/>
<circle cx="141.162935" cy="176.842320" r="6.378167" opacity="0.752200" style="stroke:black;stroke-width:0.5;fill:url(#radialffffffbfbfbf)"/>
<circle cx="114.155872" cy="153.994966" r="15.784295" opacity="0.755740" style="stroke:black;stroke-width:0.5;fill:url(#radialffffff666666)"/>
<circle cx="40.000000" cy="42.895131" r="6.893633" opacity="0.782005" style="stroke:black;stroke-width:0.5;fill:url(#radialffffffbfbfbf)"/>
<circle cx="74.473625" cy="211.949868" r="7.033665" opacity="0.789908" style="stroke:black;stroke-width:0.5;fill:url(#radialffffffbfbfbf)"/>
<circle cx="246.923443" cy="59.167989" r="7.189986" opacity="0.798637" style="stroke:black;stroke-width:0.5;fill:url(#radialffffffbfbfbf)"/>
<circle cx="69.742079" cy="62.314729" r="17.781646" opacity="0.802131" style="stroke:black;stroke-width:0.5;fill:url(#radialffffff666666)"/>
<circle cx="157.380243" cy="72.839804" r="7.816584" opacity="0.832710" style="stroke:black;stroke-width:0.5;fill:url(#radialffffffbfbfbf)"/>
<circle cx="94.958474" cy="40.000000" r="8.210671" opacity="0.853444" style="stroke:black;stroke-width:0.5;fill:url(#radialffffffbfbfbf)"/>
<circle cx="210.842138" cy="139.228491" r="22.205319" opacity="0.896372" style="stroke:black;stroke-width:0.5;fill:url(#radialffffff666666)"/>
<circle cx="110.332731" cy="143.669217" r="9.177761" opacity="0.902306" style="stroke:black;stroke-width:0.5;fill:url(#radialffffffbfbfbf)"/>
<circle cx="62.837551" cy="86.531225" r="9.289681" opacity="0.907791" style="stroke:black;stroke-width:0.5;fill:url(#radialffffffbfbfbf)"/>
<circle cx="189.883480" cy="167.627569" r="9.377169" opacity="0.912056" style="stroke:black;stroke-width:0.5;fill:url(#radialffffffbfbfbf)"/>
<circle cx="244.250512" cy="151.603052" r="9.389780" opacity="0.912669" style="stroke:black;stroke-width:0.5;fill:url(#radialffffffbfbfbf)"/>
<circle cx="204.614012" cy="117.207850" r="11.272727" opacity="1.000000" style="stroke:black;stroke-width:0.5;fill:url(#radialffffffbfbfbf)"/>
</svg>
</g>
</svg>
