<?xml version="1.0"?>
<svg version="1.1" id="topsvg"
xmlns="http://www.w3.org/2000/svg" xmlns:xlink="http://www.w3.org/1999/xlink"
xmlns:cml="http://www.xml-cml.org/schema" x="0" y="0" width="1024px" height="1024px" viewBox="0 0 100 100">
<title>14315 - Open Babel Depiction</title>
<rect x="0" y="0" width="100" height="100" fill="white"/>
<defs>
<radialGradient id='radialffffff666666' cx='50%' cy='50%' r='50%' fx='30%' fy='30%'>
  <stop offset=' 0%' stop-color="rgb(255,255,255)"  stop-opacity='1.0'/>
  <stop offset='100%' stop-color="rgb(102,102,102)"  stop-opacity ='1.0'/>
</radialGradient>
<radialGradient id='radialffffffbfbfbf' cx='50%' cy='50%' r='50%' fx='30%' fy='30%'>
  <stop offset=' 0%' stop-color="rgb(255,255,255)"  stop-opacity='1.0'/>
  <stop offset='100%' stop-color="rgb(191,191,191)"  stop-opacity ='1.0'/>
</radialGradient>
</defs>
<g transform="translate(0,0)">
<svg width="100" height="100" x="0" y="0" viewBox="0 0 314.62 270.834"
font-family="sans-serif" stroke="rgb(0,0,0)" stroke-width="2"  stroke-linecap="round">
<line x1="108.4" y1="147.2" x2="78.5" y2="183.4" opacity="1.0" stroke="rgb(0,0,0)"  stroke-width="2.1"/>
<line x1="78.5" y1="183.4" x2="62.3" y2="202.5" opacity="0.7" stroke="rgb(0,0,0)"  stroke-width="1.5"/>
<line x1="78.5" y1="183.4" x2="92.2" y2="208.0" opacity="0.5" stroke="rgb(0,0,0)"  stroke-width="2.6"/>
<line x1="78.5" y1="183.4" x2="51.0" y2="172.1" opacity="0.9" stroke="rgb(0,0,0)"  stroke-width="2.6"/>
<line x1="90.9" y1="106.6" x2="56.8" y2="101.7" opacity="0.9" stroke="rgb(0,0,0)"  stroke-width="1.9"/>
<line x1="170.6" y1="193.8" x2="151.9" y2="222.4" opacity="0.6" stroke="rgb(0,0,0)"  stroke-width="2.0"/>
<line x1="160.8" y1="77.0" x2="180.6" y2="49.2" opacity="0.7" stroke="rgb(0,0,0)"  stroke-width="1.4"/>
<line x1="223.0" y1="123.7" x2="244.0" y2="96.8" opacity="0.5" stroke="rgb(0,0,0)"  stroke-width="1.3"/>
<line x1="117.0" y1="71.6" x2="103.3" y2="40.0" opacity="0.4" stroke="rgb(0,0,0)"  stroke-width="1.6"/>
<line x1="62.3" y1="202.5" x2="45.8" y2="178.7" opacity="0.5" stroke="rgb(0,0,0)"  stroke-width="0.4"/>
<line x1="62.3" y1="202.5" x2="40.0" y2="228.3" opacity="0.1" stroke="rgb(0,0,0)"  stroke-width="0.8"/>
<line x1="62.3" y1="202.5" x2="88.3" y2="215.4" opacity="0.3" stroke="rgb(0,0,0)"  stroke-width="0.4"/>
<line x1="214.4" y1="199.3" x2="228.1" y2="230.8" opacity="0.1" stroke="rgb(0,0,0)"  stroke-width="1.8"/>
<line x1="240.5" y1="164.2" x2="274.6" y2="168.5" opacity="0.6" stroke="rgb(0,0,0)"  stroke-width="1.5"/>
<line x1="111.2" y1="146.0" x2="93.6" y2="105.4" opacity="0.6" stroke="rgb(0,0,0)"  stroke-width="1.9"/>
<line x1="105.7" y1="148.3" x2="88.1" y2="107.8" opacity="0.6" stroke="rgb(0,0,0)"  stroke-width="1.9" stroke-dasharray="5.0,5.0"/>
<line x1="93.3" y1="108.4" x2="119.4" y2="73.4" opacity="0.6" stroke="rgb(0,0,0)"  stroke-width="1.8"/>
<line x1="88.5" y1="104.8" x2="114.6" y2="69.8" opacity="0.6" stroke="rgb(0,0,0)"  stroke-width="1.8" stroke-dasharray="5.0,5.0"/>
<line x1="116.6" y1="74.6" x2="160.4" y2="80.0" opacity="0.5" stroke="rgb(0,0,0)"  stroke-width="1.6"/>
<line x1="117.4" y1="68.6" x2="161.2" y2="74.0" opacity="0.5" stroke="rgb(0,0,0)"  stroke-width="1.6" stroke-dasharray="5.0,5.0"/>
<line x1="158.1" y1="78.2" x2="176.3" y2="118.8" opacity="0.5" stroke="rgb(0,0,0)"  stroke-width="1.5"/>
<line x1="163.5" y1="75.8" x2="181.7" y2="116.4" opacity="0.5" stroke="rgb(0,0,0)"  stroke-width="1.5" stroke-dasharray="5.0,5.0"/>
<line x1="176.6" y1="115.8" x2="150.0" y2="151.4" opacity="0.6" stroke="rgb(0,0,0)"  stroke-width="1.7"/>
<line x1="181.4" y1="119.4" x2="154.8" y2="155.0" opacity="0.6" stroke="rgb(0,0,0)"  stroke-width="1.7" stroke-dasharray="5.0,5.0"/>
<line x1="152.8" y1="150.2" x2="108.8" y2="144.2" opacity="0.6" stroke="rgb(0,0,0)"  stroke-width="1.9"/>
<line x1="152.0" y1="156.2" x2="108.0" y2="150.1" opacity="0.6" stroke="rgb(0,0,0)"  stroke-width="1.9" stroke-dasharray="5.0,5.0"/>
<line x1="149.7" y1="154.4" x2="167.9" y2="195.0" opacity="0.6" stroke="rgb(0,0,0)"  stroke-width="1.9"/>
<line x1="155.2" y1="152.0" x2="173.4" y2="192.6" opacity="0.6" stroke="rgb(0,0,0)"  stroke-width="1.9" stroke-dasharray="5.0,5.0"/>
<line x1="170.3" y1="196.8" x2="214.0" y2="202.2" opacity="0.6" stroke="rgb(0,0,0)"  stroke-width="1.9"/>
<line x1="171.0" y1="190.8" x2="214.8" y2="196.3" opacity="0.6" stroke="rgb(0,0,0)"  stroke-width="1.9" stroke-dasharray="5.0,5.0"/>
<line x1="216.8" y1="201.1" x2="242.9" y2="166.0" opacity="0.6" stroke="rgb(0,0,0)"  stroke-width="1.7"/>
<line x1="212.0" y1="197.5" x2="238.1" y2="162.5" opacity="0.6" stroke="rgb(0,0,0)"  stroke-width="1.7" stroke-dasharray="5.0,5.0"/>
<line x1="243.3" y1="163.1" x2="225.7" y2="122.5" opacity="0.5" stroke="rgb(0,0,0)"  stroke-width="1.5"/>
<line x1="237.8" y1="165.4" x2="220.2" y2="124.9" opacity="0.5" stroke="rgb(0,0,0)"  stroke-width="1.5" stroke-dasharray="5.0,5.0"/>
<line x1="223.4" y1="120.7" x2="179.4" y2="114.6" opacity="0.5" stroke="rgb(0,0,0)"  stroke-width="1.5"/>
<line x1="222.6" y1="126.6" x2="178.6" y2="120.6" opacity="0.5" stroke="rgb(0,0,0)"  stroke-width="1.5" stroke-dasharray="5.0,5.0"/>
<line x1="176.6" y1="115.8" x2="150.0" y2="151.4" opacity="0.6" stroke="rgb(0,0,0)"  stroke-width="1.7"/>
<line x1="181.4" y1="119.4" x2="154.8" y2="155.0" opacity="0.6" stroke="rgb(0,0,0)"  stroke-width="1.7" stroke-dasharray="5.0,5.0"/>
<circle cx="45.815356" cy="178.670222" r="5.636364" opacity="0.200000" style="stroke:black;stroke-width:0.5;fill:url(#radialffffffbfbfbf)"/>
<circle cx="88.338563" cy="215.397118" r="5.636364" opacity="0.200000" style="stroke:black;stroke-width:0.5;fill:url(#radialffffffbfbfbf)"/>
<circle cx="62.321827" cy="202.458585" r="13.818182" opacity="0.487537" style="stroke:black;stroke-width:0.5;fill:url(#radialffffff666666)"/>
<circle cx="40.000000" cy="228.253119" r="5.636364" opacity="0.565206" style="stroke:black;stroke-width:0.5;fill:url(#radialffffffbfbfbf)"/>
<circle cx="244.029495" cy="96.775909" r="5.636364" opacity="0.645952" style="stroke:black;stroke-width:0.5;fill:url(#radialffffffbfbfbf)"/>
<circle cx="180.609732" cy="49.199183" r="5.636364" opacity="0.657798" style="stroke:black;stroke-width:0.5;fill:url(#radialffffffbfbfbf)"/>
<circle cx="274.620429" cy="168.502871" r="5.636364" opacity="0.690475" style="stroke:black;stroke-width:0.5;fill:url(#radialffffffbfbfbf)"/>
<circle cx="222.996443" cy="123.675107" r="13.818182" opacity="0.693732" style="stroke:black;stroke-width:0.5;fill:url(#radialffffff666666)"/>
<circle cx="160.795619" cy="77.012585" r="13.818182" opacity="0.704580" style="stroke:black;stroke-width:0.5;fill:url(#radialffffff666666)"/>
<circle cx="240.544091" cy="164.249281" r="14.226574" opacity="0.717480" style="stroke:black;stroke-width:0.5;fill:url(#radialffffff666666)"/>
<circle cx="103.340405" cy="40.000000" r="5.844921" opacity="0.720070" style="stroke:black;stroke-width:0.5;fill:url(#radialffffffbfbfbf)"/>
<circle cx="179.000351" cy="117.618502" r="14.624134" opacity="0.727436" style="stroke:black;stroke-width:0.5;fill:url(#radialffffff666666)"/>
<circle cx="117.015381" cy="71.578147" r="15.058525" opacity="0.738160" style="stroke:black;stroke-width:0.5;fill:url(#radialffffff666666)"/>
<circle cx="214.413078" cy="199.255695" r="16.480857" opacity="0.772235" style="stroke:black;stroke-width:0.5;fill:url(#radialffffff666666)"/>
<circle cx="152.431283" cy="153.215340" r="16.917415" opacity="0.782396" style="stroke:black;stroke-width:0.5;fill:url(#radialffffff666666)"/>
<circle cx="228.107100" cy="230.833842" r="6.999501" opacity="0.787987" style="stroke:black;stroke-width:0.5;fill:url(#radialffffffbfbfbf)"/>
<circle cx="90.890718" cy="106.584562" r="17.313892" opacity="0.791511" style="stroke:black;stroke-width:0.5;fill:url(#radialffffff666666)"/>
<circle cx="170.639189" cy="193.821257" r="17.818695" opacity="0.802967" style="stroke:black;stroke-width:0.5;fill:url(#radialffffff666666)"/>
<circle cx="108.432016" cy="147.155561" r="18.240087" opacity="0.812406" style="stroke:black;stroke-width:0.5;fill:url(#radialffffff666666)"/>
<circle cx="56.849297" cy="101.737373" r="7.463896" opacity="0.813707" style="stroke:black;stroke-width:0.5;fill:url(#radialffffffbfbfbf)"/>
<circle cx="151.897997" cy="222.364753" r="7.913709" opacity="0.837868" style="stroke:black;stroke-width:0.5;fill:url(#radialffffffbfbfbf)"/>
<circle cx="78.536259" cy="183.419006" r="20.681775" opacity="0.865074" style="stroke:black;stroke-width:0.5;fill:url(#radialffffff666666)"/>
<circle cx="51.040289" cy="172.064459" r="10.972704" opacity="0.986603" style="stroke:black;stroke-width:0.5;fill:url(#radialffffffbfbfbf)"/>
<circle cx="92.249327" cy="207.994601" r="11.272727" opacity="1.000000" style="stroke:black;stroke-width:0.5;fill:url(#radialffffffbfbfbf)"/>
</svg>
</g>
</svg>
