<?xml version="1.0"?>
<svg version="1.1" id="topsvg"
xmlns="http://www.w3.org/2000/svg" xmlns:xlink="http://www.w3.org/1999/xlink"
xmlns:cml="http://www.xml-cml.org/schema" x="0" y="0" width="1024px" height="1024px" viewBox="0 0 100 100">
<title>14475151 - Open Babel Depiction</title>
<rect x="0" y="0" width="100" height="100" fill="white"/>
<defs>
<radialGradient id='radialffffff666666' cx='50%' cy='50%' r='50%' fx='30%' fy='30%'>
  <stop offset=' 0%' stop-color="rgb(255,255,255)"  stop-opacity='1.0'/>
  <stop offset='100%' stop-color="rgb(102,102,102)"  stop-opacity ='1.0'/>
</radialGradient>
<radialGradient id='radialffffffb2b20' cx='50%' cy='50%' r='50%' fx='30%' fy='30%'>
  <stop offset=' 0%' stop-color="rgb(255,255,255)"  stop-opacity='1.0'/>
  <stop offset='100%' stop-color="rgb(178,178,0)"  stop-opacity ='1.0'/>
</radialGradient>
<radialGradient id='radialffffffbfbfbf' cx='50%' cy='50%' r='50%' fx='30%' fy='30%'>
  <stop offset=' 0%' stop-color="rgb(255,255,255)"  stop-opacity='1.0'/>
  <stop offset='100%' stop-color="rgb(191,191,191)"  stop-opacity ='1.0'/>
</radialGradient>
</defs>
<g transform="translate(0,0)">
<svg width="100" height="100" x="0" y="0" viewBox="0 0 545.047 193.47"
font-family="sans-serif" stroke="rgb(0,0,0)" stroke-width="2"  stroke-linecap="round">
<line x1="446.7" y1="153.5" x2="437.1" y2="100.9" opacity="1.0" stroke="rgb(0,0,0)"  stroke-width="1.4"/>
<line x1="446.7" y1="153.5" x2="445.8" y2="140.6" opacity="0.5" stroke="rgb(0,0,0)"  stroke-width="2.4"/>
<line x1="271.7" y1="108.7" x2="312.3" y2="83.6" opacity="0.8" stroke="rgb(0,0,0)"  stroke-width="1.4"/>
<line x1="271.7" y1="108.7" x2="229.3" y2="88.8" opacity="0.5" stroke="rgb(0,0,0)"  stroke-width="1.4"/>
<line x1="271.7" y1="108.7" x2="274.1" y2="141.0" opacity="0.5" stroke="rgb(0,0,0)"  stroke-width="1.4"/>
<line x1="271.7" y1="108.7" x2="270.9" y2="112.7" opacity="0.5" stroke="rgb(0,0,0)"  stroke-width="0.7"/>
<line x1="312.3" y1="83.6" x2="353.7" y2="106.4" opacity="0.2" stroke="rgb(0,0,0)"  stroke-width="1.3"/>
<line x1="312.3" y1="83.6" x2="312.7" y2="78.0" opacity="0.4" stroke="rgb(0,0,0)"  stroke-width="2.1"/>
<line x1="312.3" y1="83.6" x2="311.0" y2="52.0" opacity="0.7" stroke="rgb(0,0,0)"  stroke-width="1.3"/>
<line x1="229.3" y1="88.8" x2="189.9" y2="114.2" opacity="0.4" stroke="rgb(0,0,0)"  stroke-width="1.4"/>
<line x1="229.3" y1="88.8" x2="227.3" y2="56.1" opacity="0.5" stroke="rgb(0,0,0)"  stroke-width="1.4"/>
<line x1="229.3" y1="88.8" x2="229.5" y2="85.9" opacity="0.5" stroke="rgb(0,0,0)"  stroke-width="2.1"/>
<line x1="353.7" y1="106.4" x2="394.4" y2="81.3" opacity="0.7" stroke="rgb(0,0,0)"  stroke-width="1.3"/>
<line x1="353.7" y1="106.4" x2="354.3" y2="138.0" opacity="0.4" stroke="rgb(0,0,0)"  stroke-width="1.4"/>
<line x1="353.7" y1="106.4" x2="353.3" y2="112.0" opacity="0.5" stroke="rgb(0,0,0)"  stroke-width="0.6"/>
<line x1="189.9" y1="114.2" x2="148.5" y2="91.5" opacity="0.2" stroke="rgb(0,0,0)"  stroke-width="1.4"/>
<line x1="189.9" y1="114.2" x2="190.5" y2="118.3" opacity="0.5" stroke="rgb(0,0,0)"  stroke-width="0.7"/>
<line x1="189.9" y1="114.2" x2="190.9" y2="146.3" opacity="0.2" stroke="rgb(0,0,0)"  stroke-width="1.4"/>
<line x1="394.4" y1="81.3" x2="437.1" y2="100.9" opacity="0.5" stroke="rgb(0,0,0)"  stroke-width="1.3"/>
<line x1="394.4" y1="81.3" x2="391.6" y2="49.2" opacity="0.4" stroke="rgb(0,0,0)"  stroke-width="1.3"/>
<line x1="394.4" y1="81.3" x2="395.0" y2="76.3" opacity="0.4" stroke="rgb(0,0,0)"  stroke-width="2.0"/>
<line x1="148.5" y1="91.5" x2="109.0" y2="116.2" opacity="0.7" stroke="rgb(0,0,0)"  stroke-width="1.4"/>
<line x1="148.5" y1="91.5" x2="147.6" y2="87.9" opacity="0.5" stroke="rgb(0,0,0)"  stroke-width="2.1"/>
<line x1="148.5" y1="91.5" x2="147.9" y2="59.1" opacity="0.7" stroke="rgb(0,0,0)"  stroke-width="1.4"/>
<line x1="437.1" y1="100.9" x2="474.5" y2="71.4" opacity="0.5" stroke="rgb(0,0,0)"  stroke-width="1.2"/>
<line x1="437.8" y1="101.9" x2="436.2" y2="101.6" opacity="0.4" stroke="rgb(0,0,0)"  stroke-width="1.0"/>
<line x1="438.3" y1="102.7" x2="435.5" y2="102.2" opacity="0.4" stroke="rgb(0,0,0)"  stroke-width="1.0"/>
<line x1="438.8" y1="103.5" x2="434.7" y2="102.8" opacity="0.4" stroke="rgb(0,0,0)"  stroke-width="1.0"/>
<line x1="439.3" y1="104.2" x2="434.0" y2="103.4" opacity="0.4" stroke="rgb(0,0,0)"  stroke-width="1.0"/>
<line x1="439.9" y1="105.0" x2="433.2" y2="104.0" opacity="0.4" stroke="rgb(0,0,0)"  stroke-width="1.0"/>
<line x1="440.4" y1="105.8" x2="432.5" y2="104.6" opacity="0.4" stroke="rgb(0,0,0)"  stroke-width="1.0"/>
<line x1="109.0" y1="116.2" x2="67.8" y2="94.3" opacity="0.4" stroke="rgb(0,0,0)"  stroke-width="1.3"/>
<line x1="109.0" y1="116.2" x2="109.4" y2="119.1" opacity="0.4" stroke="rgb(0,0,0)"  stroke-width="0.6"/>
<line x1="109.0" y1="116.2" x2="109.7" y2="148.8" opacity="0.2" stroke="rgb(0,0,0)"  stroke-width="1.3"/>
<line x1="474.5" y1="71.4" x2="505.0" y2="84.5" opacity="0.4" stroke="rgb(0,0,0)"  stroke-width="1.2"/>
<line x1="474.5" y1="71.4" x2="470.4" y2="40.0" opacity="0.4" stroke="rgb(0,0,0)"  stroke-width="1.2"/>
<line x1="474.5" y1="71.4" x2="476.8" y2="66.2" opacity="0.4" stroke="rgb(0,0,0)"  stroke-width="1.9"/>
<line x1="67.8" y1="94.3" x2="65.9" y2="91.9" opacity="0.6" stroke="rgb(0,0,0)"  stroke-width="2.1"/>
<line x1="67.8" y1="94.3" x2="65.7" y2="61.9" opacity="0.7" stroke="rgb(0,0,0)"  stroke-width="1.3"/>
<line x1="67.8" y1="94.3" x2="40.0" y2="112.5" opacity="0.4" stroke="rgb(0,0,0)"  stroke-width="1.4"/>
<circle cx="436.437778" cy="105.206786" r="5.636364" opacity="0.200000" style="stroke:black;stroke-width:0.5;fill:url(#radialffffffbfbfbf)"/>
<circle cx="109.416983" cy="119.090183" r="5.636364" opacity="0.200000" style="stroke:black;stroke-width:0.5;fill:url(#radialffffffbfbfbf)"/>
<circle cx="353.316829" cy="111.989881" r="5.636364" opacity="0.200000" style="stroke:black;stroke-width:0.5;fill:url(#radialffffffbfbfbf)"/>
<circle cx="270.871946" cy="112.691581" r="5.636364" opacity="0.205519" style="stroke:black;stroke-width:0.5;fill:url(#radialffffffbfbfbf)"/>
<circle cx="190.506529" cy="118.343626" r="5.636364" opacity="0.220158" style="stroke:black;stroke-width:0.5;fill:url(#radialffffffbfbfbf)"/>
<circle cx="470.372478" cy="40.000000" r="5.636364" opacity="0.559991" style="stroke:black;stroke-width:0.5;fill:url(#radialffffffbfbfbf)"/>
<circle cx="437.120253" cy="100.878037" r="13.818182" opacity="0.590860" style="stroke:black;stroke-width:0.5;fill:url(#radialffffff666666)"/>
<circle cx="505.047326" cy="84.453784" r="5.636364" opacity="0.593382" style="stroke:black;stroke-width:0.5;fill:url(#radialffffffbfbfbf)"/>
<circle cx="391.621931" cy="49.198992" r="5.636364" opacity="0.595328" style="stroke:black;stroke-width:0.5;fill:url(#radialffffffbfbfbf)"/>
<circle cx="311.048246" cy="51.967340" r="5.636364" opacity="0.597052" style="stroke:black;stroke-width:0.5;fill:url(#radialffffffbfbfbf)"/>
<circle cx="109.029286" cy="116.232119" r="13.818182" opacity="0.614470" style="stroke:black;stroke-width:0.5;fill:url(#radialffffff666666)"/>
<circle cx="353.701322" cy="106.408326" r="13.818182" opacity="0.616062" style="stroke:black;stroke-width:0.5;fill:url(#radialffffff666666)"/>
<circle cx="65.677715" cy="61.941726" r="5.636364" opacity="0.618300" style="stroke:black;stroke-width:0.5;fill:url(#radialffffffbfbfbf)"/>
<circle cx="147.933556" cy="59.099683" r="5.636364" opacity="0.625942" style="stroke:black;stroke-width:0.5;fill:url(#radialffffffbfbfbf)"/>
<circle cx="271.749871" cy="108.660814" r="13.818182" opacity="0.626352" style="stroke:black;stroke-width:0.5;fill:url(#radialffffff666666)"/>
<circle cx="189.894544" cy="114.229552" r="13.818182" opacity="0.631103" style="stroke:black;stroke-width:0.5;fill:url(#radialffffff666666)"/>
<circle cx="40.000000" cy="112.531375" r="5.636364" opacity="0.635920" style="stroke:black;stroke-width:0.5;fill:url(#radialffffffbfbfbf)"/>
<circle cx="227.251230" cy="56.103843" r="5.636364" opacity="0.641402" style="stroke:black;stroke-width:0.5;fill:url(#radialffffffbfbfbf)"/>
<circle cx="474.460919" cy="71.416271" r="13.818182" opacity="0.682125" style="stroke:black;stroke-width:0.5;fill:url(#radialffffff666666)"/>
<circle cx="394.367851" cy="81.284922" r="13.818182" opacity="0.704775" style="stroke:black;stroke-width:0.5;fill:url(#radialffffff666666)"/>
<circle cx="109.657291" cy="148.817889" r="5.736842" opacity="0.713382" style="stroke:black;stroke-width:0.5;fill:url(#radialffffffbfbfbf)"/>
<circle cx="312.301052" cy="83.572654" r="14.093809" opacity="0.714124" style="stroke:black;stroke-width:0.5;fill:url(#radialffffff666666)"/>
<circle cx="67.798834" cy="94.296801" r="14.269571" opacity="0.718563" style="stroke:black;stroke-width:0.5;fill:url(#radialffffff666666)"/>
<circle cx="274.130523" cy="140.993460" r="5.961695" opacity="0.727228" style="stroke:black;stroke-width:0.5;fill:url(#radialffffffbfbfbf)"/>
<circle cx="148.481458" cy="91.461166" r="14.621983" opacity="0.727382" style="stroke:black;stroke-width:0.5;fill:url(#radialffffff666666)"/>
<circle cx="354.300490" cy="137.962374" r="6.016370" opacity="0.730555" style="stroke:black;stroke-width:0.5;fill:url(#radialffffffbfbfbf)"/>
<circle cx="229.349920" cy="88.776124" r="14.915807" opacity="0.734654" style="stroke:black;stroke-width:0.5;fill:url(#radialffffff666666)"/>
<circle cx="190.891021" cy="146.328298" r="6.100373" opacity="0.735637" style="stroke:black;stroke-width:0.5;fill:url(#radialffffffbfbfbf)"/>
<circle cx="446.690922" cy="153.470253" r="22.492357" opacity="0.767519" style="stroke:black;stroke-width:0.5;fill:url(#radialffffffb2b20)"/>
<circle cx="476.777488" cy="66.212801" r="9.161060" opacity="0.901485" style="stroke:black;stroke-width:0.5;fill:url(#radialffffffbfbfbf)"/>
<circle cx="394.976631" cy="76.331372" r="9.536540" opacity="0.919774" style="stroke:black;stroke-width:0.5;fill:url(#radialffffffbfbfbf)"/>
<circle cx="312.672729" cy="78.035957" r="9.670872" opacity="0.926229" style="stroke:black;stroke-width:0.5;fill:url(#radialffffffbfbfbf)"/>
<circle cx="65.930840" cy="91.925762" r="9.769359" opacity="0.930933" style="stroke:black;stroke-width:0.5;fill:url(#radialffffffbfbfbf)"/>
<circle cx="147.565084" cy="87.927036" r="9.914554" opacity="0.937826" style="stroke:black;stroke-width:0.5;fill:url(#radialffffffbfbfbf)"/>
<circle cx="229.513330" cy="85.937285" r="10.042732" opacity="0.943868" style="stroke:black;stroke-width:0.5;fill:url(#radialffffffbfbfbf)"/>
<circle cx="445.761730" cy="140.589742" r="11.272727" opacity="1.000000" style="stroke:black;stroke-width:0.5;fill:url(#radialffffffbfbfbf)"/>
</svg>
</g>
</svg>
