<?xml version="1.0"?>
<svg version="1.1" id="topsvg"
xmlns="http://www.w3.org/2000/svg" xmlns:xlink="http://www.w3.org/1999/xlink"
xmlns:cml="http://www.xml-cml.org/schema" x="0" y="0" width="200px" height="200px" viewBox="0 0 100 100">
<title>15077 - Open Babel Depiction</title>
<rect x="0" y="0" width="100" height="100" fill="white"/>
<defs>
<radialGradient id='radialffffff666666' cx='50%' cy='50%' r='50%' fx='30%' fy='30%'>
  <stop offset=' 0%' stop-color="rgb(255,255,255)"  stop-opacity='1.0'/>
  <stop offset='100%' stop-color="rgb(102,102,102)"  stop-opacity ='1.0'/>
</radialGradient>
<radialGradient id='radialffffffb2b20' cx='50%' cy='50%' r='50%' fx='30%' fy='30%'>
  <stop offset=' 0%' stop-color="rgb(255,255,255)"  stop-opacity='1.0'/>
  <stop offset='100%' stop-color="rgb(178,178,0)"  stop-opacity ='1.0'/>
</radialGradient>
<radialGradient id='radialffffffbfbfbf' cx='50%' cy='50%' r='50%' fx='30%' fy='30%'>
  <stop offset=' 0%' stop-color="rgb(255,255,255)"  stop-opacity='1.0'/>
  <stop offset='100%' stop-color="rgb(191,191,191)"  stop-opacity ='1.0'/>
</radialGradient>
</defs>
<g transform="translate(0,0)">
<svg width="100" height="100" x="0" y="0" viewBox="0 0 482.634 158.816"
font-family="sans-serif" stroke="rgb(0,0,0)" stroke-width="4"  stroke-linecap="round">
<line x1="40.0" y1="65.0" x2="88.5" y2="97.1" opacity="1.0" stroke="rgb(0,0,0)"  stroke-width="1.3"/>
<line x1="40.0" y1="65.0" x2="44.3" y2="46.6" opacity="0.4" stroke="rgb(0,0,0)"  stroke-width="2.1"/>
<line x1="251.3" y1="93.9" x2="210.0" y2="67.6" opacity="0.7" stroke="rgb(0,0,0)"  stroke-width="1.6"/>
<line x1="251.3" y1="93.9" x2="290.8" y2="64.9" opacity="0.5" stroke="rgb(0,0,0)"  stroke-width="1.6"/>
<line x1="251.3" y1="93.9" x2="252.5" y2="115.0" opacity="0.5" stroke="rgb(0,0,0)"  stroke-width="2.2"/>
<line x1="251.3" y1="93.9" x2="251.7" y2="114.4" opacity="0.7" stroke="rgb(0,0,0)"  stroke-width="1.0"/>
<line x1="210.0" y1="67.6" x2="170.4" y2="96.5" opacity="0.3" stroke="rgb(0,0,0)"  stroke-width="1.6"/>
<line x1="210.0" y1="67.6" x2="209.4" y2="47.4" opacity="0.5" stroke="rgb(0,0,0)"  stroke-width="2.3"/>
<line x1="210.0" y1="67.6" x2="209.3" y2="46.0" opacity="0.8" stroke="rgb(0,0,0)"  stroke-width="1.0"/>
<line x1="290.8" y1="64.9" x2="333.1" y2="89.5" opacity="0.3" stroke="rgb(0,0,0)"  stroke-width="1.5"/>
<line x1="290.8" y1="64.9" x2="290.6" y2="44.6" opacity="0.5" stroke="rgb(0,0,0)"  stroke-width="2.2"/>
<line x1="290.8" y1="64.9" x2="289.1" y2="43.2" opacity="0.7" stroke="rgb(0,0,0)"  stroke-width="1.0"/>
<line x1="170.4" y1="96.5" x2="129.1" y2="70.0" opacity="0.3" stroke="rgb(0,0,0)"  stroke-width="1.6"/>
<line x1="170.4" y1="96.5" x2="170.5" y2="117.5" opacity="0.5" stroke="rgb(0,0,0)"  stroke-width="2.2"/>
<line x1="170.4" y1="96.5" x2="171.5" y2="117.1" opacity="0.7" stroke="rgb(0,0,0)"  stroke-width="1.0"/>
<line x1="333.1" y1="89.5" x2="373.7" y2="62.1" opacity="0.3" stroke="rgb(0,0,0)"  stroke-width="1.5"/>
<line x1="333.1" y1="89.5" x2="334.9" y2="111.1" opacity="0.5" stroke="rgb(0,0,0)"  stroke-width="2.1"/>
<line x1="333.1" y1="89.5" x2="332.8" y2="110.1" opacity="0.7" stroke="rgb(0,0,0)"  stroke-width="0.9"/>
<line x1="129.1" y1="70.0" x2="88.5" y2="97.1" opacity="0.3" stroke="rgb(0,0,0)"  stroke-width="1.5"/>
<line x1="129.1" y1="70.0" x2="127.6" y2="50.7" opacity="0.5" stroke="rgb(0,0,0)"  stroke-width="2.2"/>
<line x1="129.1" y1="70.0" x2="130.6" y2="47.5" opacity="0.7" stroke="rgb(0,0,0)"  stroke-width="1.0"/>
<line x1="373.7" y1="62.1" x2="414.7" y2="88.1" opacity="0.3" stroke="rgb(0,0,0)"  stroke-width="1.4"/>
<line x1="373.7" y1="62.1" x2="375.2" y2="42.4" opacity="0.5" stroke="rgb(0,0,0)"  stroke-width="2.1"/>
<line x1="373.7" y1="62.1" x2="372.0" y2="40.0" opacity="0.7" stroke="rgb(0,0,0)"  stroke-width="0.9"/>
<line x1="88.5" y1="97.1" x2="85.8" y2="118.8" opacity="0.3" stroke="rgb(0,0,0)"  stroke-width="2.0"/>
<line x1="88.5" y1="97.1" x2="89.9" y2="116.7" opacity="0.7" stroke="rgb(0,0,0)"  stroke-width="0.8"/>
<line x1="414.7" y1="88.1" x2="414.9" y2="107.3" opacity="0.3" stroke="rgb(0,0,0)"  stroke-width="0.6"/>
<line x1="414.7" y1="88.1" x2="442.6" y2="66.9" opacity="0.2" stroke="rgb(0,0,0)"  stroke-width="1.3"/>
<line x1="414.7" y1="88.1" x2="418.1" y2="109.9" opacity="0.4" stroke="rgb(0,0,0)"  stroke-width="1.9"/>
<circle cx="414.901998" cy="107.265304" r="5.636364" opacity="0.200000" style="stroke:black;stroke-width:0.5;fill:url(#radialffffffbfbfbf)"/>
<circle cx="89.940606" cy="116.660991" r="5.636364" opacity="0.200580" style="stroke:black;stroke-width:0.5;fill:url(#radialffffffbfbfbf)"/>
<circle cx="332.784206" cy="110.141012" r="5.636364" opacity="0.286644" style="stroke:black;stroke-width:0.5;fill:url(#radialffffffbfbfbf)"/>
<circle cx="371.996949" cy="40.000000" r="5.636364" opacity="0.290489" style="stroke:black;stroke-width:0.5;fill:url(#radialffffffbfbfbf)"/>
<circle cx="251.665548" cy="114.387325" r="5.636364" opacity="0.338325" style="stroke:black;stroke-width:0.5;fill:url(#radialffffffbfbfbf)"/>
<circle cx="171.472367" cy="117.112522" r="5.636364" opacity="0.343244" style="stroke:black;stroke-width:0.5;fill:url(#radialffffffbfbfbf)"/>
<circle cx="289.078571" cy="43.227966" r="5.636364" opacity="0.349583" style="stroke:black;stroke-width:0.5;fill:url(#radialffffffbfbfbf)"/>
<circle cx="130.591202" cy="47.506302" r="5.636364" opacity="0.359637" style="stroke:black;stroke-width:0.5;fill:url(#radialffffffbfbfbf)"/>
<circle cx="209.272874" cy="46.017211" r="5.636364" opacity="0.371584" style="stroke:black;stroke-width:0.5;fill:url(#radialffffffbfbfbf)"/>
<circle cx="442.634325" cy="66.931741" r="5.636364" opacity="0.651224" style="stroke:black;stroke-width:0.5;fill:url(#radialffffffbfbfbf)"/>
<circle cx="40.000000" cy="65.023142" r="19.090909" opacity="0.656855" style="stroke:black;stroke-width:0.5;fill:url(#radialffffffb2b20)"/>
<circle cx="414.745083" cy="88.144089" r="13.818182" opacity="0.658184" style="stroke:black;stroke-width:0.5;fill:url(#radialffffff666666)"/>
<circle cx="88.505954" cy="97.059424" r="13.818182" opacity="0.684421" style="stroke:black;stroke-width:0.5;fill:url(#radialffffff666666)"/>
<circle cx="373.748633" cy="62.115410" r="13.818182" opacity="0.696899" style="stroke:black;stroke-width:0.5;fill:url(#radialffffff666666)"/>
<circle cx="333.146072" cy="89.543515" r="13.876255" opacity="0.708591" style="stroke:black;stroke-width:0.5;fill:url(#radialffffff666666)"/>
<circle cx="129.111718" cy="70.012399" r="14.564000" opacity="0.725939" style="stroke:black;stroke-width:0.5;fill:url(#radialffffff666666)"/>
<circle cx="290.798231" cy="64.850215" r="14.638386" opacity="0.727790" style="stroke:black;stroke-width:0.5;fill:url(#radialffffff666666)"/>
<circle cx="251.322897" cy="93.866683" r="14.778022" opacity="0.731253" style="stroke:black;stroke-width:0.5;fill:url(#radialffffff666666)"/>
<circle cx="170.418795" cy="96.486204" r="14.832833" opacity="0.732608" style="stroke:black;stroke-width:0.5;fill:url(#radialffffff666666)"/>
<circle cx="209.980593" cy="67.556198" r="15.119937" opacity="0.739664" style="stroke:black;stroke-width:0.5;fill:url(#radialffffff666666)"/>
<circle cx="418.142773" cy="109.881622" r="9.419756" opacity="0.914124" style="stroke:black;stroke-width:0.5;fill:url(#radialffffffbfbfbf)"/>
<circle cx="85.844804" cy="118.816171" r="9.829103" opacity="0.933775" style="stroke:black;stroke-width:0.5;fill:url(#radialffffffbfbfbf)"/>
<circle cx="334.872137" cy="111.072895" r="10.268258" opacity="0.954408" style="stroke:black;stroke-width:0.5;fill:url(#radialffffffbfbfbf)"/>
<circle cx="375.183284" cy="42.414570" r="10.300197" opacity="0.955891" style="stroke:black;stroke-width:0.5;fill:url(#radialffffffbfbfbf)"/>
<circle cx="252.494956" cy="115.005378" r="10.685057" opacity="0.973585" style="stroke:black;stroke-width:0.5;fill:url(#radialffffffbfbfbf)"/>
<circle cx="170.466830" cy="117.519220" r="10.723916" opacity="0.975354" style="stroke:black;stroke-width:0.5;fill:url(#radialffffffbfbfbf)"/>
<circle cx="290.644519" cy="44.620987" r="10.744144" opacity="0.976273" style="stroke:black;stroke-width:0.5;fill:url(#radialffffffbfbfbf)"/>
<circle cx="127.558579" cy="50.692638" r="10.814408" opacity="0.979460" style="stroke:black;stroke-width:0.5;fill:url(#radialffffffbfbfbf)"/>
<circle cx="209.356136" cy="47.429446" r="10.950147" opacity="0.985588" style="stroke:black;stroke-width:0.5;fill:url(#radialffffffbfbfbf)"/>
<circle cx="44.262324" cy="46.593633" r="11.272727" opacity="1.000000" style="stroke:black;stroke-width:0.5;fill:url(#radialffffffbfbfbf)"/>
</svg>
</g>
</svg>
