<?xml version="1.0"?>
<svg version="1.1" id="topsvg"
xmlns="http://www.w3.org/2000/svg" xmlns:xlink="http://www.w3.org/1999/xlink"
xmlns:cml="http://www.xml-cml.org/schema" x="0" y="0" width="200px" height="200px" viewBox="0 0 100 100">
<title>15264 - Open Babel Depiction</title>
<rect x="0" y="0" width="100" height="100" fill="white"/>
<defs>
<radialGradient id='radialffffff666666' cx='50%' cy='50%' r='50%' fx='30%' fy='30%'>
  <stop offset=' 0%' stop-color="rgb(255,255,255)"  stop-opacity='1.0'/>
  <stop offset='100%' stop-color="rgb(102,102,102)"  stop-opacity ='1.0'/>
</radialGradient>
<radialGradient id='radialffffffbfbfbf' cx='50%' cy='50%' r='50%' fx='30%' fy='30%'>
  <stop offset=' 0%' stop-color="rgb(255,255,255)"  stop-opacity='1.0'/>
  <stop offset='100%' stop-color="rgb(191,191,191)"  stop-opacity ='1.0'/>
</radialGradient>
</defs>
<g transform="translate(0,0)">
<svg width="100" height="100" x="0" y="0" viewBox="0 0 843.606 205.22"
font-family="sans-serif" stroke="rgb(0,0,0)" stroke-width="4"  stroke-linecap="round">
<line x1="358.1" y1="98.0" x2="399.2" y2="124.8" opacity="1.0" stroke="rgb(0,0,0)"  stroke-width="1.5"/>
<line x1="358.1" y1="98.0" x2="316.1" y2="123.4" opacity="0.5" stroke="rgb(0,0,0)"  stroke-width="1.5"/>
<line x1="358.1" y1="98.0" x2="358.6" y2="69.2" opacity="0.5" stroke="rgb(0,0,0)"  stroke-width="1.3"/>
<line x1="358.1" y1="98.0" x2="358.0" y2="86.2" opacity="0.4" stroke="rgb(0,0,0)"  stroke-width="2.1"/>
<line x1="399.2" y1="124.8" x2="441.2" y2="98.7" opacity="0.7" stroke="rgb(0,0,0)"  stroke-width="1.5"/>
<line x1="399.2" y1="124.8" x2="399.5" y2="152.7" opacity="0.5" stroke="rgb(0,0,0)"  stroke-width="1.7"/>
<line x1="399.2" y1="124.8" x2="398.6" y2="138.0" opacity="0.6" stroke="rgb(0,0,0)"  stroke-width="0.8"/>
<line x1="316.1" y1="123.4" x2="273.8" y2="98.9" opacity="0.3" stroke="rgb(0,0,0)"  stroke-width="1.5"/>
<line x1="316.1" y1="123.4" x2="316.0" y2="134.2" opacity="0.5" stroke="rgb(0,0,0)"  stroke-width="0.8"/>
<line x1="316.1" y1="123.4" x2="316.6" y2="152.9" opacity="0.3" stroke="rgb(0,0,0)"  stroke-width="1.6"/>
<line x1="441.2" y1="98.7" x2="483.5" y2="124.0" opacity="0.5" stroke="rgb(0,0,0)"  stroke-width="1.4"/>
<line x1="441.2" y1="98.7" x2="440.8" y2="70.9" opacity="0.5" stroke="rgb(0,0,0)"  stroke-width="1.2"/>
<line x1="441.2" y1="98.7" x2="441.3" y2="85.0" opacity="0.4" stroke="rgb(0,0,0)"  stroke-width="2.1"/>
<line x1="273.8" y1="98.9" x2="233.1" y2="126.7" opacity="0.7" stroke="rgb(0,0,0)"  stroke-width="1.5"/>
<line x1="273.8" y1="98.9" x2="272.2" y2="70.3" opacity="0.5" stroke="rgb(0,0,0)"  stroke-width="1.3"/>
<line x1="273.8" y1="98.9" x2="274.5" y2="86.8" opacity="0.4" stroke="rgb(0,0,0)"  stroke-width="2.1"/>
<line x1="483.5" y1="124.0" x2="525.4" y2="98.5" opacity="0.7" stroke="rgb(0,0,0)"  stroke-width="1.5"/>
<line x1="483.5" y1="124.0" x2="484.0" y2="136.4" opacity="0.5" stroke="rgb(0,0,0)"  stroke-width="0.8"/>
<line x1="483.5" y1="124.0" x2="483.2" y2="152.6" opacity="0.3" stroke="rgb(0,0,0)"  stroke-width="1.7"/>
<line x1="233.1" y1="126.7" x2="191.8" y2="100.8" opacity="0.6" stroke="rgb(0,0,0)"  stroke-width="1.6"/>
<line x1="233.1" y1="126.7" x2="231.9" y2="138.4" opacity="0.5" stroke="rgb(0,0,0)"  stroke-width="0.9"/>
<line x1="233.1" y1="126.7" x2="234.8" y2="155.3" opacity="0.3" stroke="rgb(0,0,0)"  stroke-width="1.7"/>
<line x1="525.4" y1="98.5" x2="567.7" y2="123.2" opacity="0.6" stroke="rgb(0,0,0)"  stroke-width="1.5"/>
<line x1="525.4" y1="98.5" x2="525.3" y2="87.4" opacity="0.5" stroke="rgb(0,0,0)"  stroke-width="2.1"/>
<line x1="525.4" y1="98.5" x2="525.1" y2="69.2" opacity="0.7" stroke="rgb(0,0,0)"  stroke-width="1.3"/>
<line x1="191.8" y1="100.8" x2="151.2" y2="129.0" opacity="0.4" stroke="rgb(0,0,0)"  stroke-width="1.6"/>
<line x1="191.8" y1="100.8" x2="190.3" y2="72.7" opacity="0.5" stroke="rgb(0,0,0)"  stroke-width="1.4"/>
<line x1="191.8" y1="100.8" x2="193.4" y2="88.4" opacity="0.5" stroke="rgb(0,0,0)"  stroke-width="2.3"/>
<line x1="567.7" y1="123.2" x2="608.5" y2="96.7" opacity="0.8" stroke="rgb(0,0,0)"  stroke-width="1.5"/>
<line x1="567.7" y1="123.2" x2="568.5" y2="133.4" opacity="0.5" stroke="rgb(0,0,0)"  stroke-width="0.8"/>
<line x1="567.7" y1="123.2" x2="567.8" y2="153.0" opacity="0.3" stroke="rgb(0,0,0)"  stroke-width="1.6"/>
<line x1="151.2" y1="129.0" x2="108.8" y2="105.4" opacity="0.5" stroke="rgb(0,0,0)"  stroke-width="1.8"/>
<line x1="151.2" y1="129.0" x2="149.3" y2="140.5" opacity="0.6" stroke="rgb(0,0,0)"  stroke-width="1.0"/>
<line x1="151.2" y1="129.0" x2="154.5" y2="158.0" opacity="0.3" stroke="rgb(0,0,0)"  stroke-width="1.9"/>
<line x1="608.5" y1="96.7" x2="649.6" y2="123.9" opacity="0.6" stroke="rgb(0,0,0)"  stroke-width="1.5"/>
<line x1="608.5" y1="96.7" x2="607.1" y2="85.2" opacity="0.5" stroke="rgb(0,0,0)"  stroke-width="2.2"/>
<line x1="608.5" y1="96.7" x2="609.6" y2="67.9" opacity="0.7" stroke="rgb(0,0,0)"  stroke-width="1.3"/>
<line x1="108.8" y1="105.4" x2="100.9" y2="65.1" opacity="0.4" stroke="rgb(0,0,0)"  stroke-width="1.5"/>
<line x1="108.8" y1="105.4" x2="70.3" y2="136.6" opacity="0.5" stroke="rgb(0,0,0)"  stroke-width="1.9"/>
<line x1="108.8" y1="105.4" x2="110.7" y2="95.2" opacity="0.6" stroke="rgb(0,0,0)"  stroke-width="2.5"/>
<line x1="649.6" y1="123.9" x2="691.6" y2="98.8" opacity="0.8" stroke="rgb(0,0,0)"  stroke-width="1.6"/>
<line x1="649.6" y1="123.9" x2="650.6" y2="135.9" opacity="0.5" stroke="rgb(0,0,0)"  stroke-width="0.9"/>
<line x1="649.6" y1="123.9" x2="648.4" y2="152.5" opacity="0.3" stroke="rgb(0,0,0)"  stroke-width="1.8"/>
<line x1="691.6" y1="98.8" x2="733.9" y2="123.5" opacity="0.6" stroke="rgb(0,0,0)"  stroke-width="1.6"/>
<line x1="691.6" y1="98.8" x2="691.2" y2="88.2" opacity="0.5" stroke="rgb(0,0,0)"  stroke-width="2.3"/>
<line x1="691.6" y1="98.8" x2="691.7" y2="69.1" opacity="0.8" stroke="rgb(0,0,0)"  stroke-width="1.4"/>
<line x1="100.9" y1="65.1" x2="101.7" y2="72.9" opacity="0.5" stroke="rgb(0,0,0)"  stroke-width="0.5"/>
<line x1="100.9" y1="65.1" x2="69.2" y2="50.7" opacity="0.2" stroke="rgb(0,0,0)"  stroke-width="1.2"/>
<line x1="100.9" y1="65.1" x2="125.3" y2="40.0" opacity="0.4" stroke="rgb(0,0,0)"  stroke-width="1.2"/>
<line x1="70.3" y1="136.6" x2="66.5" y2="147.7" opacity="0.4" stroke="rgb(0,0,0)"  stroke-width="1.3"/>
<line x1="70.3" y1="136.6" x2="74.8" y2="165.2" opacity="0.4" stroke="rgb(0,0,0)"  stroke-width="2.1"/>
<line x1="70.3" y1="136.6" x2="40.0" y2="120.8" opacity="0.7" stroke="rgb(0,0,0)"  stroke-width="2.0"/>
<line x1="733.9" y1="123.5" x2="774.5" y2="97.8" opacity="0.7" stroke="rgb(0,0,0)"  stroke-width="1.6"/>
<line x1="733.9" y1="123.5" x2="733.8" y2="153.7" opacity="0.5" stroke="rgb(0,0,0)"  stroke-width="1.8"/>
<line x1="733.9" y1="123.5" x2="735.3" y2="132.9" opacity="0.6" stroke="rgb(0,0,0)"  stroke-width="0.9"/>
<line x1="774.5" y1="97.8" x2="776.2" y2="67.9" opacity="0.3" stroke="rgb(0,0,0)"  stroke-width="1.5"/>
<line x1="774.5" y1="97.8" x2="803.6" y2="117.0" opacity="0.5" stroke="rgb(0,0,0)"  stroke-width="1.7"/>
<line x1="774.5" y1="97.8" x2="774.8" y2="89.0" opacity="0.6" stroke="rgb(0,0,0)"  stroke-width="2.4"/>
<circle cx="101.653391" cy="72.947858" r="5.636364" opacity="0.200000" style="stroke:black;stroke-width:0.5;fill:url(#radialffffffbfbfbf)"/>
<circle cx="568.504040" cy="133.399365" r="5.636364" opacity="0.297285" style="stroke:black;stroke-width:0.5;fill:url(#radialffffffbfbfbf)"/>
<circle cx="316.001246" cy="134.162723" r="5.636364" opacity="0.304381" style="stroke:black;stroke-width:0.5;fill:url(#radialffffffbfbfbf)"/>
<circle cx="484.008360" cy="136.417068" r="5.636364" opacity="0.316881" style="stroke:black;stroke-width:0.5;fill:url(#radialffffffbfbfbf)"/>
<circle cx="398.619388" cy="137.973020" r="5.636364" opacity="0.332059" style="stroke:black;stroke-width:0.5;fill:url(#radialffffffbfbfbf)"/>
<circle cx="231.898615" cy="138.424538" r="5.636364" opacity="0.352345" style="stroke:black;stroke-width:0.5;fill:url(#radialffffffbfbfbf)"/>
<circle cx="735.260545" cy="132.889376" r="5.636364" opacity="0.364814" style="stroke:black;stroke-width:0.5;fill:url(#radialffffffbfbfbf)"/>
<circle cx="650.573213" cy="135.929817" r="5.636364" opacity="0.366881" style="stroke:black;stroke-width:0.5;fill:url(#radialffffffbfbfbf)"/>
<circle cx="149.293466" cy="140.542453" r="5.636364" opacity="0.416327" style="stroke:black;stroke-width:0.5;fill:url(#radialffffffbfbfbf)"/>
<circle cx="66.477175" cy="147.724520" r="5.636364" opacity="0.503659" style="stroke:black;stroke-width:0.5;fill:url(#radialffffffbfbfbf)"/>
<circle cx="440.847738" cy="70.920897" r="5.636364" opacity="0.533322" style="stroke:black;stroke-width:0.5;fill:url(#radialffffffbfbfbf)"/>
<circle cx="358.606403" cy="69.163548" r="5.636364" opacity="0.562496" style="stroke:black;stroke-width:0.5;fill:url(#radialffffffbfbfbf)"/>
<circle cx="272.168219" cy="70.267982" r="5.636364" opacity="0.565357" style="stroke:black;stroke-width:0.5;fill:url(#radialffffffbfbfbf)"/>
<circle cx="525.057564" cy="69.170045" r="5.636364" opacity="0.567642" style="stroke:black;stroke-width:0.5;fill:url(#radialffffffbfbfbf)"/>
<circle cx="609.640949" cy="67.945423" r="5.636364" opacity="0.575465" style="stroke:black;stroke-width:0.5;fill:url(#radialffffffbfbfbf)"/>
<circle cx="190.316684" cy="72.720474" r="5.636364" opacity="0.593581" style="stroke:black;stroke-width:0.5;fill:url(#radialffffffbfbfbf)"/>
<circle cx="100.925764" cy="65.051156" r="13.818182" opacity="0.599105" style="stroke:black;stroke-width:0.5;fill:url(#radialffffff666666)"/>
<circle cx="691.742606" cy="69.105078" r="5.636364" opacity="0.610307" style="stroke:black;stroke-width:0.5;fill:url(#radialffffffbfbfbf)"/>
<circle cx="776.235037" cy="67.851221" r="5.636364" opacity="0.638070" style="stroke:black;stroke-width:0.5;fill:url(#radialffffffbfbfbf)"/>
<circle cx="125.349992" cy="40.000000" r="5.636364" opacity="0.650798" style="stroke:black;stroke-width:0.5;fill:url(#radialffffffbfbfbf)"/>
<circle cx="69.196031" cy="50.690269" r="5.636364" opacity="0.659113" style="stroke:black;stroke-width:0.5;fill:url(#radialffffffbfbfbf)"/>
<circle cx="567.727688" cy="123.222332" r="13.818182" opacity="0.664548" style="stroke:black;stroke-width:0.5;fill:url(#radialffffff666666)"/>
<circle cx="316.140924" cy="123.352266" r="13.818182" opacity="0.666493" style="stroke:black;stroke-width:0.5;fill:url(#radialffffff666666)"/>
<circle cx="483.472385" cy="124.001933" r="13.818182" opacity="0.667904" style="stroke:black;stroke-width:0.5;fill:url(#radialffffff666666)"/>
<circle cx="399.239820" cy="124.781533" r="13.818182" opacity="0.672843" style="stroke:black;stroke-width:0.5;fill:url(#radialffffff666666)"/>
<circle cx="233.084257" cy="126.652574" r="13.818182" opacity="0.686935" style="stroke:black;stroke-width:0.5;fill:url(#radialffffff666666)"/>
<circle cx="649.647438" cy="123.894738" r="13.818182" opacity="0.693995" style="stroke:black;stroke-width:0.5;fill:url(#radialffffff666666)"/>
<circle cx="733.883251" cy="123.524428" r="13.818182" opacity="0.698846" style="stroke:black;stroke-width:0.5;fill:url(#radialffffff666666)"/>
<circle cx="441.169323" cy="98.664923" r="14.259944" opacity="0.718321" style="stroke:black;stroke-width:0.5;fill:url(#radialffffff666666)"/>
<circle cx="151.190493" cy="129.040100" r="14.427172" opacity="0.722520" style="stroke:black;stroke-width:0.5;fill:url(#radialffffff666666)"/>
<circle cx="525.418130" cy="98.521996" r="14.689163" opacity="0.729051" style="stroke:black;stroke-width:0.5;fill:url(#radialffffff666666)"/>
<circle cx="358.099663" cy="97.976276" r="14.735616" opacity="0.730203" style="stroke:black;stroke-width:0.5;fill:url(#radialffffff666666)"/>
<circle cx="803.605505" cy="116.985530" r="6.032180" opacity="0.731514" style="stroke:black;stroke-width:0.5;fill:url(#radialffffffbfbfbf)"/>
<circle cx="273.789138" cy="98.876065" r="14.890767" opacity="0.734037" style="stroke:black;stroke-width:0.5;fill:url(#radialffffff666666)"/>
<circle cx="608.517025" cy="96.709425" r="15.150900" opacity="0.740421" style="stroke:black;stroke-width:0.5;fill:url(#radialffffff666666)"/>
<circle cx="691.612673" cy="98.791608" r="15.941519" opacity="0.759494" style="stroke:black;stroke-width:0.5;fill:url(#radialffffff666666)"/>
<circle cx="191.823911" cy="100.825065" r="15.961958" opacity="0.759981" style="stroke:black;stroke-width:0.5;fill:url(#radialffffff666666)"/>
<circle cx="70.297217" cy="136.602223" r="16.616007" opacity="0.775395" style="stroke:black;stroke-width:0.5;fill:url(#radialffffff666666)"/>
<circle cx="774.480937" cy="97.761886" r="16.726564" opacity="0.777970" style="stroke:black;stroke-width:0.5;fill:url(#radialffffff666666)"/>
<circle cx="567.786158" cy="152.980326" r="7.265674" opacity="0.802830" style="stroke:black;stroke-width:0.5;fill:url(#radialffffffbfbfbf)"/>
<circle cx="108.783485" cy="105.424707" r="17.885085" opacity="0.804461" style="stroke:black;stroke-width:0.5;fill:url(#radialffffff666666)"/>
<circle cx="316.615181" cy="152.918607" r="7.331233" opacity="0.806444" style="stroke:black;stroke-width:0.5;fill:url(#radialffffffbfbfbf)"/>
<circle cx="483.219015" cy="152.571036" r="7.515025" opacity="0.816490" style="stroke:black;stroke-width:0.5;fill:url(#radialffffffbfbfbf)"/>
<circle cx="399.460707" cy="152.652244" r="7.691996" opacity="0.826048" style="stroke:black;stroke-width:0.5;fill:url(#radialffffffbfbfbf)"/>
<circle cx="733.808539" cy="153.698208" r="7.712839" opacity="0.827166" style="stroke:black;stroke-width:0.5;fill:url(#radialffffffbfbfbf)"/>
<circle cx="234.828613" cy="155.280147" r="7.784082" opacity="0.830977" style="stroke:black;stroke-width:0.5;fill:url(#radialffffffbfbfbf)"/>
<circle cx="648.432561" cy="152.538552" r="7.898147" opacity="0.837044" style="stroke:black;stroke-width:0.5;fill:url(#radialffffffbfbfbf)"/>
<circle cx="40.000000" cy="120.789330" r="7.929600" opacity="0.838709" style="stroke:black;stroke-width:0.5;fill:url(#radialffffffbfbfbf)"/>
<circle cx="154.474560" cy="158.028238" r="8.275964" opacity="0.856830" style="stroke:black;stroke-width:0.5;fill:url(#radialffffffbfbfbf)"/>
<circle cx="74.770174" cy="165.220051" r="9.186968" opacity="0.902759" style="stroke:black;stroke-width:0.5;fill:url(#radialffffffbfbfbf)"/>
<circle cx="441.331740" cy="85.002428" r="9.657249" opacity="0.925576" style="stroke:black;stroke-width:0.5;fill:url(#radialffffffbfbfbf)"/>
<circle cx="357.992467" cy="86.240043" r="9.935022" opacity="0.938793" style="stroke:black;stroke-width:0.5;fill:url(#radialffffffbfbfbf)"/>
<circle cx="525.340170" cy="87.370463" r="9.941464" opacity="0.939097" style="stroke:black;stroke-width:0.5;fill:url(#radialffffffbfbfbf)"/>
<circle cx="274.503772" cy="86.808502" r="9.985044" opacity="0.941154" style="stroke:black;stroke-width:0.5;fill:url(#radialffffffbfbfbf)"/>
<circle cx="607.136483" cy="85.158348" r="10.107446" opacity="0.946905" style="stroke:black;stroke-width:0.5;fill:url(#radialffffffbfbfbf)"/>
<circle cx="193.363622" cy="88.419676" r="10.401513" opacity="0.960580" style="stroke:black;stroke-width:0.5;fill:url(#radialffffffbfbfbf)"/>
<circle cx="691.196886" cy="88.166305" r="10.471999" opacity="0.963830" style="stroke:black;stroke-width:0.5;fill:url(#radialffffffbfbfbf)"/>
<circle cx="774.757045" cy="88.988134" r="10.842236" opacity="0.980720" style="stroke:black;stroke-width:0.5;fill:url(#radialffffffbfbfbf)"/>
<circle cx="110.738983" cy="95.215192" r="11.272727" opacity="1.000000" style="stroke:black;stroke-width:0.5;fill:url(#radialffffffbfbfbf)"/>
</svg>
</g>
</svg>
