<?xml version="1.0"?>
<svg version="1.1" id="topsvg"
xmlns="http://www.w3.org/2000/svg" xmlns:xlink="http://www.w3.org/1999/xlink"
xmlns:cml="http://www.xml-cml.org/schema" x="0" y="0" width="1024px" height="1024px" viewBox="0 0 100 100">
<title>15712 - Open Babel Depiction</title>
<rect x="0" y="0" width="100" height="100" fill="white"/>
<defs>
<radialGradient id='radialffffff666666' cx='50%' cy='50%' r='50%' fx='30%' fy='30%'>
  <stop offset=' 0%' stop-color="rgb(255,255,255)"  stop-opacity='1.0'/>
  <stop offset='100%' stop-color="rgb(102,102,102)"  stop-opacity ='1.0'/>
</radialGradient>
<radialGradient id='radialffffffbfbfbf' cx='50%' cy='50%' r='50%' fx='30%' fy='30%'>
  <stop offset=' 0%' stop-color="rgb(255,255,255)"  stop-opacity='1.0'/>
  <stop offset='100%' stop-color="rgb(191,191,191)"  stop-opacity ='1.0'/>
</radialGradient>
</defs>
<g transform="translate(0,0)">
<svg width="100" height="100" x="0" y="0" viewBox="0 0 552.685 236.334"
font-family="sans-serif" stroke="rgb(0,0,0)" stroke-width="2"  stroke-linecap="round">
<line x1="395.0" y1="135.2" x2="352.4" y2="154.7" opacity="1.0" stroke="rgb(0,0,0)"  stroke-width="1.5"/>
<line x1="395.0" y1="135.2" x2="393.8" y2="131.6" opacity="0.5" stroke="rgb(0,0,0)"  stroke-width="0.6"/>
<line x1="401.8" y1="90.4" x2="400.2" y2="92.4" opacity="0.2" stroke="rgb(0,0,0)"  stroke-width="2.4"/>
<line x1="401.8" y1="90.4" x2="376.7" y2="67.8" opacity="0.8" stroke="rgb(0,0,0)"  stroke-width="1.7"/>
<line x1="432.8" y1="165.2" x2="428.6" y2="196.3" opacity="0.6" stroke="rgb(0,0,0)"  stroke-width="1.3"/>
<line x1="432.8" y1="165.2" x2="433.3" y2="171.9" opacity="0.4" stroke="rgb(0,0,0)"  stroke-width="2.1"/>
<line x1="352.4" y1="154.7" x2="314.0" y2="127.2" opacity="0.7" stroke="rgb(0,0,0)"  stroke-width="1.5"/>
<line x1="352.4" y1="154.7" x2="352.4" y2="158.3" opacity="0.5" stroke="rgb(0,0,0)"  stroke-width="2.3"/>
<line x1="352.4" y1="154.7" x2="348.9" y2="187.2" opacity="0.8" stroke="rgb(0,0,0)"  stroke-width="1.5"/>
<line x1="445.0" y1="71.0" x2="449.7" y2="40.0" opacity="0.5" stroke="rgb(0,0,0)"  stroke-width="1.7"/>
<line x1="445.0" y1="71.0" x2="444.7" y2="64.3" opacity="0.6" stroke="rgb(0,0,0)"  stroke-width="0.9"/>
<line x1="476.0" y1="145.7" x2="477.5" y2="143.4" opacity="0.3" stroke="rgb(0,0,0)"  stroke-width="0.6"/>
<line x1="476.0" y1="145.7" x2="502.3" y2="167.0" opacity="0.2" stroke="rgb(0,0,0)"  stroke-width="1.3"/>
<line x1="482.5" y1="101.0" x2="512.7" y2="87.1" opacity="0.4" stroke="rgb(0,0,0)"  stroke-width="1.6"/>
<line x1="482.5" y1="101.0" x2="485.6" y2="104.0" opacity="0.5" stroke="rgb(0,0,0)"  stroke-width="2.3"/>
<line x1="314.0" y1="127.2" x2="271.3" y2="147.4" opacity="0.8" stroke="rgb(0,0,0)"  stroke-width="1.5"/>
<line x1="314.0" y1="127.2" x2="315.7" y2="94.9" opacity="0.5" stroke="rgb(0,0,0)"  stroke-width="1.5"/>
<line x1="314.0" y1="127.2" x2="314.1" y2="123.3" opacity="0.5" stroke="rgb(0,0,0)"  stroke-width="0.7"/>
<line x1="271.3" y1="147.4" x2="232.8" y2="120.4" opacity="0.2" stroke="rgb(0,0,0)"  stroke-width="1.5"/>
<line x1="271.3" y1="147.4" x2="270.9" y2="150.3" opacity="0.5" stroke="rgb(0,0,0)"  stroke-width="2.3"/>
<line x1="271.3" y1="147.4" x2="268.6" y2="180.0" opacity="0.8" stroke="rgb(0,0,0)"  stroke-width="1.5"/>
<line x1="232.8" y1="120.4" x2="190.2" y2="140.0" opacity="0.5" stroke="rgb(0,0,0)"  stroke-width="1.5"/>
<line x1="232.8" y1="120.4" x2="232.8" y2="118.0" opacity="0.5" stroke="rgb(0,0,0)"  stroke-width="0.7"/>
<line x1="232.8" y1="120.4" x2="235.8" y2="87.5" opacity="0.2" stroke="rgb(0,0,0)"  stroke-width="1.4"/>
<line x1="190.2" y1="140.0" x2="151.7" y2="112.4" opacity="0.5" stroke="rgb(0,0,0)"  stroke-width="1.5"/>
<line x1="190.2" y1="140.0" x2="186.7" y2="172.7" opacity="0.5" stroke="rgb(0,0,0)"  stroke-width="1.5"/>
<line x1="190.2" y1="140.0" x2="190.4" y2="142.9" opacity="0.5" stroke="rgb(0,0,0)"  stroke-width="2.3"/>
<line x1="151.7" y1="112.4" x2="108.3" y2="130.1" opacity="0.8" stroke="rgb(0,0,0)"  stroke-width="1.5"/>
<line x1="151.7" y1="112.4" x2="151.4" y2="109.8" opacity="0.5" stroke="rgb(0,0,0)"  stroke-width="0.7"/>
<line x1="151.7" y1="112.4" x2="155.8" y2="79.6" opacity="0.2" stroke="rgb(0,0,0)"  stroke-width="1.5"/>
<line x1="108.3" y1="130.1" x2="70.1" y2="102.3" opacity="0.5" stroke="rgb(0,0,0)"  stroke-width="1.6"/>
<line x1="108.3" y1="130.1" x2="108.7" y2="133.1" opacity="0.5" stroke="rgb(0,0,0)"  stroke-width="2.3"/>
<line x1="108.3" y1="130.1" x2="103.7" y2="162.7" opacity="0.8" stroke="rgb(0,0,0)"  stroke-width="1.6"/>
<line x1="70.1" y1="102.3" x2="68.0" y2="99.5" opacity="0.5" stroke="rgb(0,0,0)"  stroke-width="0.8"/>
<line x1="70.1" y1="102.3" x2="40.0" y2="116.5" opacity="0.3" stroke="rgb(0,0,0)"  stroke-width="1.5"/>
<line x1="70.1" y1="102.3" x2="73.0" y2="69.8" opacity="0.5" stroke="rgb(0,0,0)"  stroke-width="1.6"/>
<line x1="401.8" y1="90.4" x2="395.0" y2="135.2" opacity="0.5" stroke="rgb(0,0,0)"  stroke-width="1.5"/>
<line x1="395.0" y1="135.2" x2="432.8" y2="165.2" opacity="0.5" stroke="rgb(0,0,0)"  stroke-width="1.4"/>
<line x1="432.8" y1="165.2" x2="476.0" y2="145.7" opacity="0.5" stroke="rgb(0,0,0)"  stroke-width="1.4"/>
<line x1="476.0" y1="145.7" x2="482.5" y2="101.0" opacity="0.5" stroke="rgb(0,0,0)"  stroke-width="1.5"/>
<line x1="482.5" y1="101.0" x2="445.0" y2="71.0" opacity="0.5" stroke="rgb(0,0,0)"  stroke-width="1.6"/>
<line x1="445.0" y1="71.0" x2="401.8" y2="90.4" opacity="0.5" stroke="rgb(0,0,0)"  stroke-width="1.6"/>
<circle cx="477.473584" cy="143.375762" r="5.636364" opacity="0.200000" style="stroke:black;stroke-width:0.5;fill:url(#radialffffffbfbfbf)"/>
<circle cx="393.795968" cy="131.635551" r="5.636364" opacity="0.200000" style="stroke:black;stroke-width:0.5;fill:url(#radialffffffbfbfbf)"/>
<circle cx="232.809016" cy="118.002591" r="5.636364" opacity="0.200000" style="stroke:black;stroke-width:0.5;fill:url(#radialffffffbfbfbf)"/>
<circle cx="314.100542" cy="123.300357" r="5.636364" opacity="0.202638" style="stroke:black;stroke-width:0.5;fill:url(#radialffffffbfbfbf)"/>
<circle cx="151.398185" cy="109.847965" r="5.636364" opacity="0.218146" style="stroke:black;stroke-width:0.5;fill:url(#radialffffffbfbfbf)"/>
<circle cx="67.997871" cy="99.536184" r="5.636364" opacity="0.270754" style="stroke:black;stroke-width:0.5;fill:url(#radialffffffbfbfbf)"/>
<circle cx="444.742226" cy="64.341348" r="5.636364" opacity="0.320263" style="stroke:black;stroke-width:0.5;fill:url(#radialffffffbfbfbf)"/>
<circle cx="428.610319" cy="196.334075" r="5.636364" opacity="0.589330" style="stroke:black;stroke-width:0.5;fill:url(#radialffffffbfbfbf)"/>
<circle cx="475.977441" cy="145.674792" r="13.818182" opacity="0.616137" style="stroke:black;stroke-width:0.5;fill:url(#radialffffff666666)"/>
<circle cx="395.005135" cy="135.214687" r="13.818182" opacity="0.637049" style="stroke:black;stroke-width:0.5;fill:url(#radialffffff666666)"/>
<circle cx="232.779996" cy="120.375783" r="13.818182" opacity="0.643203" style="stroke:black;stroke-width:0.5;fill:url(#radialffffff666666)"/>
<circle cx="313.955442" cy="127.153570" r="13.818182" opacity="0.647640" style="stroke:black;stroke-width:0.5;fill:url(#radialffffff666666)"/>
<circle cx="348.850405" cy="187.195993" r="5.636364" opacity="0.650554" style="stroke:black;stroke-width:0.5;fill:url(#radialffffffbfbfbf)"/>
<circle cx="151.736752" cy="112.404951" r="13.818182" opacity="0.653748" style="stroke:black;stroke-width:0.5;fill:url(#radialffffff666666)"/>
<circle cx="268.584253" cy="180.037721" r="5.636364" opacity="0.656371" style="stroke:black;stroke-width:0.5;fill:url(#radialffffffbfbfbf)"/>
<circle cx="186.680081" cy="172.676309" r="5.636364" opacity="0.660667" style="stroke:black;stroke-width:0.5;fill:url(#radialffffffbfbfbf)"/>
<circle cx="70.100210" cy="102.289862" r="13.818182" opacity="0.671867" style="stroke:black;stroke-width:0.5;fill:url(#radialffffff666666)"/>
<circle cx="103.718292" cy="162.674076" r="5.636364" opacity="0.672642" style="stroke:black;stroke-width:0.5;fill:url(#radialffffffbfbfbf)"/>
<circle cx="512.684543" cy="87.086595" r="5.636364" opacity="0.679930" style="stroke:black;stroke-width:0.5;fill:url(#radialffffffbfbfbf)"/>
<circle cx="445.025977" cy="70.977260" r="13.818182" opacity="0.690366" style="stroke:black;stroke-width:0.5;fill:url(#radialffffff666666)"/>
<circle cx="502.285702" cy="167.017405" r="5.636364" opacity="0.698389" style="stroke:black;stroke-width:0.5;fill:url(#radialffffffbfbfbf)"/>
<circle cx="376.712849" cy="67.839873" r="5.743183" opacity="0.713776" style="stroke:black;stroke-width:0.5;fill:url(#radialffffffbfbfbf)"/>
<circle cx="432.798875" cy="165.243960" r="14.451295" opacity="0.723124" style="stroke:black;stroke-width:0.5;fill:url(#radialffffff666666)"/>
<circle cx="235.814201" cy="87.496100" r="6.200978" opacity="0.741678" style="stroke:black;stroke-width:0.5;fill:url(#radialffffffbfbfbf)"/>
<circle cx="155.815677" cy="79.583308" r="6.342230" opacity="0.750078" style="stroke:black;stroke-width:0.5;fill:url(#radialffffffbfbfbf)"/>
<circle cx="352.384398" cy="154.703243" r="15.728074" opacity="0.754392" style="stroke:black;stroke-width:0.5;fill:url(#radialffffff666666)"/>
<circle cx="315.683746" cy="94.905879" r="6.452570" opacity="0.756575" style="stroke:black;stroke-width:0.5;fill:url(#radialffffffbfbfbf)"/>
<circle cx="271.305686" cy="147.361178" r="15.848941" opacity="0.757286" style="stroke:black;stroke-width:0.5;fill:url(#radialffffff666666)"/>
<circle cx="190.162484" cy="140.032011" r="15.970768" opacity="0.760191" style="stroke:black;stroke-width:0.5;fill:url(#radialffffff666666)"/>
<circle cx="40.000000" cy="116.470978" r="6.514783" opacity="0.760213" style="stroke:black;stroke-width:0.5;fill:url(#radialffffffbfbfbf)"/>
<circle cx="482.490824" cy="101.035552" r="16.325695" opacity="0.768591" style="stroke:black;stroke-width:0.5;fill:url(#radialffffff666666)"/>
<circle cx="108.303455" cy="130.110388" r="16.366943" opacity="0.769562" style="stroke:black;stroke-width:0.5;fill:url(#radialffffff666666)"/>
<circle cx="72.976417" cy="69.810010" r="6.727639" opacity="0.772533" style="stroke:black;stroke-width:0.5;fill:url(#radialffffffbfbfbf)"/>
<circle cx="401.799044" cy="90.420673" r="17.136272" opacity="0.787440" style="stroke:black;stroke-width:0.5;fill:url(#radialffffff666666)"/>
<circle cx="449.678854" cy="40.000000" r="7.356814" opacity="0.807849" style="stroke:black;stroke-width:0.5;fill:url(#radialffffffbfbfbf)"/>
<circle cx="433.282542" cy="171.889544" r="10.112196" opacity="0.947127" style="stroke:black;stroke-width:0.5;fill:url(#radialffffffbfbfbf)"/>
<circle cx="352.397296" cy="158.259808" r="10.686984" opacity="0.973673" style="stroke:black;stroke-width:0.5;fill:url(#radialffffffbfbfbf)"/>
<circle cx="270.880059" cy="150.337342" r="10.741371" opacity="0.976147" style="stroke:black;stroke-width:0.5;fill:url(#radialffffffbfbfbf)"/>
<circle cx="190.352726" cy="142.917890" r="10.791455" opacity="0.978420" style="stroke:black;stroke-width:0.5;fill:url(#radialffffffbfbfbf)"/>
<circle cx="485.644332" cy="103.963350" r="10.919794" opacity="0.984221" style="stroke:black;stroke-width:0.5;fill:url(#radialffffffbfbfbf)"/>
<circle cx="108.651695" cy="133.093001" r="10.951097" opacity="0.985631" style="stroke:black;stroke-width:0.5;fill:url(#radialffffffbfbfbf)"/>
<circle cx="400.241637" cy="92.429504" r="11.272727" opacity="1.000000" style="stroke:black;stroke-width:0.5;fill:url(#radialffffffbfbfbf)"/>
</svg>
</g>
</svg>
