<?xml version="1.0"?>
<svg version="1.1" id="topsvg"
xmlns="http://www.w3.org/2000/svg" xmlns:xlink="http://www.w3.org/1999/xlink"
xmlns:cml="http://www.xml-cml.org/schema" x="0" y="0" width="200px" height="200px" viewBox="0 0 100 100">
<title>15742 - Open Babel Depiction</title>
<rect x="0" y="0" width="100" height="100" fill="white"/>
<defs>
<radialGradient id='radialffffff666666' cx='50%' cy='50%' r='50%' fx='30%' fy='30%'>
  <stop offset=' 0%' stop-color="rgb(255,255,255)"  stop-opacity='1.0'/>
  <stop offset='100%' stop-color="rgb(102,102,102)"  stop-opacity ='1.0'/>
</radialGradient>
<radialGradient id='radialffffffbfbfbf' cx='50%' cy='50%' r='50%' fx='30%' fy='30%'>
  <stop offset=' 0%' stop-color="rgb(255,255,255)"  stop-opacity='1.0'/>
  <stop offset='100%' stop-color="rgb(191,191,191)"  stop-opacity ='1.0'/>
</radialGradient>
</defs>
<g transform="translate(0,0)">
<svg width="100" height="100" x="0" y="0" viewBox="0 0 372.085 287.746"
font-family="sans-serif" stroke="rgb(0,0,0)" stroke-width="4"  stroke-linecap="round">
<line x1="234.1" y1="146.8" x2="214.6" y2="188.5" opacity="1.0" stroke="rgb(0,0,0)"  stroke-width="1.1"/>
<line x1="209.1" y1="111.7" x2="163.1" y2="114.3" opacity="0.4" stroke="rgb(0,0,0)"  stroke-width="1.5"/>
<line x1="214.6" y1="188.5" x2="207.5" y2="217.4" opacity="0.5" stroke="rgb(0,0,0)"  stroke-width="1.4"/>
<line x1="214.6" y1="188.5" x2="184.7" y2="184.4" opacity="0.5" stroke="rgb(0,0,0)"  stroke-width="0.8"/>
<line x1="214.6" y1="188.5" x2="235.5" y2="204.9" opacity="0.3" stroke="rgb(0,0,0)"  stroke-width="0.7"/>
<line x1="278.4" y1="143.5" x2="298.3" y2="170.5" opacity="0.2" stroke="rgb(0,0,0)"  stroke-width="1.2"/>
<line x1="228.4" y1="73.3" x2="209.5" y2="45.5" opacity="0.4" stroke="rgb(0,0,0)"  stroke-width="1.8"/>
<line x1="207.5" y1="217.4" x2="237.6" y2="224.2" opacity="0.6" stroke="rgb(0,0,0)"  stroke-width="2.0"/>
<line x1="207.5" y1="217.4" x2="193.9" y2="247.7" opacity="0.7" stroke="rgb(0,0,0)"  stroke-width="1.7"/>
<line x1="207.5" y1="217.4" x2="185.9" y2="203.4" opacity="0.6" stroke="rgb(0,0,0)"  stroke-width="2.1"/>
<line x1="297.6" y1="105.0" x2="332.1" y2="102.4" opacity="0.7" stroke="rgb(0,0,0)"  stroke-width="1.5"/>
<line x1="272.7" y1="69.9" x2="287.7" y2="40.0" opacity="0.5" stroke="rgb(0,0,0)"  stroke-width="1.9"/>
<line x1="140.5" y1="104.8" x2="156.8" y2="95.4" opacity="0.6" stroke="rgb(0,0,0)"  stroke-width="0.4"/>
<line x1="141.4" y1="126.4" x2="158.6" y2="133.7" opacity="0.1" stroke="rgb(0,0,0)"  stroke-width="2.7"/>
<line x1="96.2" y1="107.3" x2="78.5" y2="99.9" opacity="0.9" stroke="rgb(0,0,0)"  stroke-width="0.4"/>
<line x1="97.1" y1="128.9" x2="80.3" y2="138.3" opacity="0.1" stroke="rgb(0,0,0)"  stroke-width="2.7"/>
<line x1="74.5" y1="119.4" x2="40.0" y2="121.4" opacity="0.9" stroke="rgb(0,0,0)"  stroke-width="1.5"/>
<line x1="234.3" y1="149.8" x2="278.6" y2="146.5" opacity="0.4" stroke="rgb(0,0,0)"  stroke-width="1.3"/>
<line x1="233.9" y1="143.8" x2="278.1" y2="140.5" opacity="0.4" stroke="rgb(0,0,0)"  stroke-width="1.3" stroke-dasharray="5.0,5.0"/>
<line x1="281.0" y1="144.8" x2="300.3" y2="106.4" opacity="0.5" stroke="rgb(0,0,0)"  stroke-width="1.4"/>
<line x1="275.7" y1="142.1" x2="294.9" y2="103.7" opacity="0.5" stroke="rgb(0,0,0)"  stroke-width="1.4" stroke-dasharray="5.0,5.0"/>
<line x1="300.1" y1="103.3" x2="275.1" y2="68.2" opacity="0.5" stroke="rgb(0,0,0)"  stroke-width="1.6"/>
<line x1="295.2" y1="106.8" x2="270.2" y2="71.7" opacity="0.5" stroke="rgb(0,0,0)"  stroke-width="1.6" stroke-dasharray="5.0,5.0"/>
<line x1="272.4" y1="66.9" x2="228.2" y2="70.3" opacity="0.6" stroke="rgb(0,0,0)"  stroke-width="1.8"/>
<line x1="272.9" y1="72.9" x2="228.6" y2="76.2" opacity="0.6" stroke="rgb(0,0,0)"  stroke-width="1.8" stroke-dasharray="5.0,5.0"/>
<line x1="225.7" y1="71.9" x2="206.4" y2="110.3" opacity="0.5" stroke="rgb(0,0,0)"  stroke-width="1.6"/>
<line x1="231.1" y1="74.6" x2="211.7" y2="113.0" opacity="0.5" stroke="rgb(0,0,0)"  stroke-width="1.6" stroke-dasharray="5.0,5.0"/>
<line x1="206.6" y1="113.4" x2="231.7" y2="148.5" opacity="0.5" stroke="rgb(0,0,0)"  stroke-width="1.4"/>
<line x1="211.5" y1="109.9" x2="236.6" y2="145.1" opacity="0.5" stroke="rgb(0,0,0)"  stroke-width="1.4" stroke-dasharray="5.0,5.0"/>
<line x1="161.6" y1="111.7" x2="140.0" y2="123.8" opacity="0.6" stroke="rgb(0,0,0)"  stroke-width="1.9"/>
<line x1="164.6" y1="116.9" x2="142.9" y2="129.0" opacity="0.6" stroke="rgb(0,0,0)"  stroke-width="1.9" stroke-dasharray="5.0,5.0"/>
<line x1="141.3" y1="123.4" x2="97.0" y2="125.9" opacity="0.8" stroke="rgb(0,0,0)"  stroke-width="2.3"/>
<line x1="141.6" y1="129.4" x2="97.3" y2="131.9" opacity="0.8" stroke="rgb(0,0,0)"  stroke-width="2.3" stroke-dasharray="5.0,5.0"/>
<line x1="98.3" y1="126.1" x2="75.7" y2="116.6" opacity="0.6" stroke="rgb(0,0,0)"  stroke-width="1.9"/>
<line x1="96.0" y1="131.7" x2="73.3" y2="122.2" opacity="0.6" stroke="rgb(0,0,0)"  stroke-width="1.9" stroke-dasharray="5.0,5.0"/>
<line x1="76.0" y1="122.0" x2="97.6" y2="109.9" opacity="0.4" stroke="rgb(0,0,0)"  stroke-width="1.1"/>
<line x1="73.0" y1="116.8" x2="94.7" y2="104.7" opacity="0.4" stroke="rgb(0,0,0)"  stroke-width="1.1" stroke-dasharray="5.0,5.0"/>
<line x1="96.3" y1="110.3" x2="140.6" y2="107.8" opacity="0.2" stroke="rgb(0,0,0)"  stroke-width="0.7"/>
<line x1="96.0" y1="104.3" x2="140.3" y2="101.8" opacity="0.2" stroke="rgb(0,0,0)"  stroke-width="0.7" stroke-dasharray="5.0,5.0"/>
<line x1="139.3" y1="107.6" x2="161.9" y2="117.1" opacity="0.4" stroke="rgb(0,0,0)"  stroke-width="1.1"/>
<line x1="141.6" y1="102.0" x2="164.3" y2="111.5" opacity="0.4" stroke="rgb(0,0,0)"  stroke-width="1.1" stroke-dasharray="5.0,5.0"/>
<circle cx="156.839787" cy="95.354706" r="5.636364" opacity="0.200000" style="stroke:black;stroke-width:0.5;fill:url(#radialffffffbfbfbf)"/>
<circle cx="78.516059" cy="99.913516" r="5.636364" opacity="0.200000" style="stroke:black;stroke-width:0.5;fill:url(#radialffffffbfbfbf)"/>
<circle cx="235.513459" cy="204.941118" r="5.636364" opacity="0.397845" style="stroke:black;stroke-width:0.5;fill:url(#radialffffffbfbfbf)"/>
<circle cx="184.679387" cy="184.364438" r="5.636364" opacity="0.445008" style="stroke:black;stroke-width:0.5;fill:url(#radialffffffbfbfbf)"/>
<circle cx="96.150033" cy="107.322776" r="13.818182" opacity="0.467477" style="stroke:black;stroke-width:0.5;fill:url(#radialffffff666666)"/>
<circle cx="140.452885" cy="104.790457" r="13.818182" opacity="0.468688" style="stroke:black;stroke-width:0.5;fill:url(#radialffffff666666)"/>
<circle cx="214.580472" cy="188.496953" r="13.818182" opacity="0.574390" style="stroke:black;stroke-width:0.5;fill:url(#radialffffff666666)"/>
<circle cx="298.261518" cy="170.548030" r="5.636364" opacity="0.601328" style="stroke:black;stroke-width:0.5;fill:url(#radialffffffbfbfbf)"/>
<circle cx="234.113685" cy="146.793226" r="13.818182" opacity="0.648439" style="stroke:black;stroke-width:0.5;fill:url(#radialffffff666666)"/>
<circle cx="278.362455" cy="143.462400" r="13.818182" opacity="0.650519" style="stroke:black;stroke-width:0.5;fill:url(#radialffffff666666)"/>
<circle cx="40.000000" cy="121.352330" r="5.636364" opacity="0.704766" style="stroke:black;stroke-width:0.5;fill:url(#radialffffffbfbfbf)"/>
<circle cx="74.491708" cy="119.386284" r="13.818182" opacity="0.705382" style="stroke:black;stroke-width:0.5;fill:url(#radialffffff666666)"/>
<circle cx="163.100595" cy="114.312103" r="13.818182" opacity="0.707004" style="stroke:black;stroke-width:0.5;fill:url(#radialffffff666666)"/>
<circle cx="209.057727" cy="111.690707" r="13.844846" opacity="0.707789" style="stroke:black;stroke-width:0.5;fill:url(#radialffffff666666)"/>
<circle cx="297.631620" cy="105.029055" r="13.996167" opacity="0.711646" style="stroke:black;stroke-width:0.5;fill:url(#radialffffff666666)"/>
<circle cx="332.085152" cy="102.436291" r="5.735066" opacity="0.713271" style="stroke:black;stroke-width:0.5;fill:url(#radialffffffbfbfbf)"/>
<circle cx="193.933803" cy="247.745576" r="6.106219" opacity="0.735990" style="stroke:black;stroke-width:0.5;fill:url(#radialffffffbfbfbf)"/>
<circle cx="228.403242" cy="73.250999" r="16.145321" opacity="0.764334" style="stroke:black;stroke-width:0.5;fill:url(#radialffffff666666)"/>
<circle cx="272.655194" cy="69.923354" r="16.220648" opacity="0.766114" style="stroke:black;stroke-width:0.5;fill:url(#radialffffff666666)"/>
<circle cx="207.543426" cy="217.392746" r="17.135905" opacity="0.787432" style="stroke:black;stroke-width:0.5;fill:url(#radialffffff666666)"/>
<circle cx="209.458571" cy="45.532289" r="7.300979" opacity="0.804778" style="stroke:black;stroke-width:0.5;fill:url(#radialffffffbfbfbf)"/>
<circle cx="287.664591" cy="40.000000" r="7.347204" opacity="0.807322" style="stroke:black;stroke-width:0.5;fill:url(#radialffffffbfbfbf)"/>
<circle cx="237.606758" cy="224.184832" r="8.379907" opacity="0.862194" style="stroke:black;stroke-width:0.5;fill:url(#radialffffffbfbfbf)"/>
<circle cx="97.136237" cy="128.914292" r="21.494875" opacity="0.881916" style="stroke:black;stroke-width:0.5;fill:url(#radialffffff666666)"/>
<circle cx="141.442271" cy="126.378792" r="21.527539" opacity="0.882585" style="stroke:black;stroke-width:0.5;fill:url(#radialffffff666666)"/>
<circle cx="185.881920" cy="203.433180" r="8.982453" opacity="0.892654" style="stroke:black;stroke-width:0.5;fill:url(#radialffffffbfbfbf)"/>
<circle cx="80.265777" cy="138.257785" r="11.217802" opacity="0.997561" style="stroke:black;stroke-width:0.5;fill:url(#radialffffffbfbfbf)"/>
<circle cx="158.560873" cy="133.708519" r="11.272727" opacity="1.000000" style="stroke:black;stroke-width:0.5;fill:url(#radialffffffbfbfbf)"/>
</svg>
</g>
</svg>
