<?xml version="1.0"?>
<svg version="1.1" id="topsvg"
xmlns="http://www.w3.org/2000/svg" xmlns:xlink="http://www.w3.org/1999/xlink"
xmlns:cml="http://www.xml-cml.org/schema" x="0" y="0" width="200px" height="200px" viewBox="0 0 100 100">
<title>16269 - Open Babel Depiction</title>
<rect x="0" y="0" width="100" height="100" fill="white"/>
<defs>
<radialGradient id='radialffffff666666' cx='50%' cy='50%' r='50%' fx='30%' fy='30%'>
  <stop offset=' 0%' stop-color="rgb(255,255,255)"  stop-opacity='1.0'/>
  <stop offset='100%' stop-color="rgb(102,102,102)"  stop-opacity ='1.0'/>
</radialGradient>
<radialGradient id='radialffffffbfbfbf' cx='50%' cy='50%' r='50%' fx='30%' fy='30%'>
  <stop offset=' 0%' stop-color="rgb(255,255,255)"  stop-opacity='1.0'/>
  <stop offset='100%' stop-color="rgb(191,191,191)"  stop-opacity ='1.0'/>
</radialGradient>
</defs>
<g transform="translate(0,0)">
<svg width="100" height="100" x="0" y="0" viewBox="0 0 373.277 208.841"
font-family="sans-serif" stroke="rgb(0,0,0)" stroke-width="4"  stroke-linecap="round">
<line x1="230.8" y1="98.2" x2="187.5" y2="81.7" opacity="1.0" stroke="rgb(0,0,0)"  stroke-width="1.5"/>
<line x1="230.8" y1="98.2" x2="230.2" y2="100.9" opacity="0.5" stroke="rgb(0,0,0)"  stroke-width="2.4"/>
<line x1="243.4" y1="141.7" x2="237.0" y2="142.5" opacity="0.8" stroke="rgb(0,0,0)"  stroke-width="0.6"/>
<line x1="243.4" y1="141.7" x2="226.4" y2="168.8" opacity="0.2" stroke="rgb(0,0,0)"  stroke-width="1.4"/>
<line x1="268.6" y1="69.5" x2="270.5" y2="40.0" opacity="0.5" stroke="rgb(0,0,0)"  stroke-width="1.7"/>
<line x1="268.6" y1="69.5" x2="266.0" y2="59.9" opacity="0.6" stroke="rgb(0,0,0)"  stroke-width="0.8"/>
<line x1="291.9" y1="144.7" x2="308.2" y2="161.9" opacity="0.3" stroke="rgb(0,0,0)"  stroke-width="1.0"/>
<line x1="291.9" y1="144.7" x2="298.5" y2="162.5" opacity="0.3" stroke="rgb(0,0,0)"  stroke-width="1.9"/>
<line x1="308.1" y1="98.2" x2="321.9" y2="93.4" opacity="0.6" stroke="rgb(0,0,0)"  stroke-width="2.1"/>
<line x1="308.1" y1="98.2" x2="333.3" y2="90.8" opacity="0.7" stroke="rgb(0,0,0)"  stroke-width="1.2"/>
<line x1="187.5" y1="81.7" x2="151.2" y2="112.5" opacity="0.4" stroke="rgb(0,0,0)"  stroke-width="1.5"/>
<line x1="187.5" y1="81.7" x2="188.2" y2="77.6" opacity="0.5" stroke="rgb(0,0,0)"  stroke-width="0.7"/>
<line x1="187.5" y1="81.7" x2="181.3" y2="49.7" opacity="0.2" stroke="rgb(0,0,0)"  stroke-width="1.5"/>
<line x1="151.2" y1="112.5" x2="107.7" y2="95.1" opacity="0.5" stroke="rgb(0,0,0)"  stroke-width="1.4"/>
<line x1="151.2" y1="112.5" x2="156.4" y2="144.4" opacity="0.5" stroke="rgb(0,0,0)"  stroke-width="1.4"/>
<line x1="151.2" y1="112.5" x2="150.6" y2="116.9" opacity="0.5" stroke="rgb(0,0,0)"  stroke-width="2.3"/>
<line x1="107.7" y1="95.1" x2="70.9" y2="124.8" opacity="0.8" stroke="rgb(0,0,0)"  stroke-width="1.4"/>
<line x1="107.7" y1="95.1" x2="107.8" y2="91.6" opacity="0.5" stroke="rgb(0,0,0)"  stroke-width="0.6"/>
<line x1="107.7" y1="95.1" x2="102.0" y2="63.0" opacity="0.2" stroke="rgb(0,0,0)"  stroke-width="1.4"/>
<line x1="70.9" y1="124.8" x2="69.2" y2="128.2" opacity="0.5" stroke="rgb(0,0,0)"  stroke-width="2.2"/>
<line x1="70.9" y1="124.8" x2="74.9" y2="157.0" opacity="0.7" stroke="rgb(0,0,0)"  stroke-width="1.4"/>
<line x1="70.9" y1="124.8" x2="40.0" y2="111.8" opacity="0.5" stroke="rgb(0,0,0)"  stroke-width="1.4"/>
<line x1="243.4" y1="141.7" x2="230.8" y2="98.2" opacity="0.5" stroke="rgb(0,0,0)"  stroke-width="1.5"/>
<line x1="230.8" y1="98.2" x2="268.6" y2="69.5" opacity="0.5" stroke="rgb(0,0,0)"  stroke-width="1.6"/>
<line x1="268.6" y1="69.5" x2="308.1" y2="98.2" opacity="0.5" stroke="rgb(0,0,0)"  stroke-width="1.5"/>
<line x1="308.1" y1="98.2" x2="291.9" y2="144.7" opacity="0.5" stroke="rgb(0,0,0)"  stroke-width="1.5"/>
<line x1="291.9" y1="144.7" x2="243.4" y2="141.7" opacity="0.5" stroke="rgb(0,0,0)"  stroke-width="1.3"/>
<circle cx="107.795070" cy="91.604335" r="5.636364" opacity="0.200000" style="stroke:black;stroke-width:0.5;fill:url(#radialffffffbfbfbf)"/>
<circle cx="236.991582" cy="142.482122" r="5.636364" opacity="0.200000" style="stroke:black;stroke-width:0.5;fill:url(#radialffffffbfbfbf)"/>
<circle cx="188.157819" cy="77.631996" r="5.636364" opacity="0.200000" style="stroke:black;stroke-width:0.5;fill:url(#radialffffffbfbfbf)"/>
<circle cx="265.959887" cy="59.949414" r="5.636364" opacity="0.280633" style="stroke:black;stroke-width:0.5;fill:url(#radialffffffbfbfbf)"/>
<circle cx="308.212733" cy="161.885817" r="5.636364" opacity="0.430700" style="stroke:black;stroke-width:0.5;fill:url(#radialffffffbfbfbf)"/>
<circle cx="333.277050" cy="90.784142" r="5.636364" opacity="0.513288" style="stroke:black;stroke-width:0.5;fill:url(#radialffffffbfbfbf)"/>
<circle cx="74.938922" cy="157.032471" r="5.636364" opacity="0.618581" style="stroke:black;stroke-width:0.5;fill:url(#radialffffffbfbfbf)"/>
<circle cx="243.423960" cy="141.703907" r="13.818182" opacity="0.624262" style="stroke:black;stroke-width:0.5;fill:url(#radialffffff666666)"/>
<circle cx="107.675593" cy="95.136977" r="13.818182" opacity="0.626883" style="stroke:black;stroke-width:0.5;fill:url(#radialffffff666666)"/>
<circle cx="156.402795" cy="144.380836" r="5.636364" opacity="0.634111" style="stroke:black;stroke-width:0.5;fill:url(#radialffffffbfbfbf)"/>
<circle cx="40.000000" cy="111.802390" r="5.636364" opacity="0.642941" style="stroke:black;stroke-width:0.5;fill:url(#radialffffffbfbfbf)"/>
<circle cx="187.479707" cy="81.732960" r="13.818182" opacity="0.652811" style="stroke:black;stroke-width:0.5;fill:url(#radialffffff666666)"/>
<circle cx="268.578692" cy="69.478504" r="13.818182" opacity="0.676978" style="stroke:black;stroke-width:0.5;fill:url(#radialffffff666666)"/>
<circle cx="291.941270" cy="144.732808" r="13.818182" opacity="0.691874" style="stroke:black;stroke-width:0.5;fill:url(#radialffffff666666)"/>
<circle cx="308.070652" cy="98.249834" r="14.567411" opacity="0.726024" style="stroke:black;stroke-width:0.5;fill:url(#radialffffff666666)"/>
<circle cx="70.854103" cy="124.844747" r="14.900955" opacity="0.734288" style="stroke:black;stroke-width:0.5;fill:url(#radialffffff666666)"/>
<circle cx="101.992368" cy="63.010606" r="6.158027" opacity="0.739105" style="stroke:black;stroke-width:0.5;fill:url(#radialffffffbfbfbf)"/>
<circle cx="226.367824" cy="168.841310" r="6.264431" opacity="0.745463" style="stroke:black;stroke-width:0.5;fill:url(#radialffffffbfbfbf)"/>
<circle cx="151.242685" cy="112.512793" r="15.578000" opacity="0.750785" style="stroke:black;stroke-width:0.5;fill:url(#radialffffff666666)"/>
<circle cx="181.299199" cy="49.726066" r="6.548310" opacity="0.762167" style="stroke:black;stroke-width:0.5;fill:url(#radialffffffbfbfbf)"/>
<circle cx="230.794928" cy="98.188481" r="16.729971" opacity="0.778049" style="stroke:black;stroke-width:0.5;fill:url(#radialffffff666666)"/>
<circle cx="270.519384" cy="40.000000" r="7.605040" opacity="0.821365" style="stroke:black;stroke-width:0.5;fill:url(#radialffffffbfbfbf)"/>
<circle cx="298.473750" cy="162.512263" r="9.156832" opacity="0.901277" style="stroke:black;stroke-width:0.5;fill:url(#radialffffffbfbfbf)"/>
<circle cx="321.939660" cy="93.364198" r="9.991819" opacity="0.941473" style="stroke:black;stroke-width:0.5;fill:url(#radialffffffbfbfbf)"/>
<circle cx="69.155594" cy="128.183642" r="10.498253" opacity="0.965037" style="stroke:black;stroke-width:0.5;fill:url(#radialffffffbfbfbf)"/>
<circle cx="150.619467" cy="116.891460" r="10.774010" opacity="0.977629" style="stroke:black;stroke-width:0.5;fill:url(#radialffffffbfbfbf)"/>
<circle cx="230.152336" cy="100.875097" r="11.272727" opacity="1.000000" style="stroke:black;stroke-width:0.5;fill:url(#radialffffffbfbfbf)"/>
</svg>
</g>
</svg>
