<?xml version="1.0"?>
<svg version="1.1" id="topsvg"
xmlns="http://www.w3.org/2000/svg" xmlns:xlink="http://www.w3.org/1999/xlink"
xmlns:cml="http://www.xml-cml.org/schema" x="0" y="0" width="200px" height="200px" viewBox="0 0 100 100">
<title>16319 - Open Babel Depiction</title>
<rect x="0" y="0" width="100" height="100" fill="white"/>
<defs>
<radialGradient id='radialffffff666666' cx='50%' cy='50%' r='50%' fx='30%' fy='30%'>
  <stop offset=' 0%' stop-color="rgb(255,255,255)"  stop-opacity='1.0'/>
  <stop offset='100%' stop-color="rgb(102,102,102)"  stop-opacity ='1.0'/>
</radialGradient>
<radialGradient id='radialffffffbfbfbf' cx='50%' cy='50%' r='50%' fx='30%' fy='30%'>
  <stop offset=' 0%' stop-color="rgb(255,255,255)"  stop-opacity='1.0'/>
  <stop offset='100%' stop-color="rgb(191,191,191)"  stop-opacity ='1.0'/>
</radialGradient>
</defs>
<g transform="translate(0,0)">
<svg width="100" height="100" x="0" y="0" viewBox="0 0 363.485 260.756"
font-family="sans-serif" stroke="rgb(0,0,0)" stroke-width="4"  stroke-linecap="round">
<line x1="278.5" y1="108.5" x2="232.6" y2="106.6" opacity="1.0" stroke="rgb(0,0,0)"  stroke-width="1.0"/>
<line x1="278.5" y1="108.5" x2="290.1" y2="152.9" opacity="0.3" stroke="rgb(0,0,0)"  stroke-width="1.5"/>
<line x1="278.5" y1="108.5" x2="284.9" y2="71.9" opacity="0.5" stroke="rgb(0,0,0)"  stroke-width="1.7"/>
<line x1="283.0" y1="106.5" x2="283.4" y2="108.0" opacity="0.6" stroke="rgb(0,0,0)"  stroke-width="1.0"/>
<line x1="286.7" y1="104.9" x2="287.4" y2="107.7" opacity="0.6" stroke="rgb(0,0,0)"  stroke-width="1.0"/>
<line x1="290.3" y1="103.3" x2="291.3" y2="107.3" opacity="0.6" stroke="rgb(0,0,0)"  stroke-width="1.0"/>
<line x1="293.9" y1="101.7" x2="295.2" y2="107.0" opacity="0.6" stroke="rgb(0,0,0)"  stroke-width="1.0"/>
<line x1="297.5" y1="100.1" x2="299.2" y2="106.7" opacity="0.6" stroke="rgb(0,0,0)"  stroke-width="1.0"/>
<line x1="301.1" y1="98.6" x2="303.1" y2="106.3" opacity="0.6" stroke="rgb(0,0,0)"  stroke-width="1.0"/>
<line x1="232.6" y1="106.6" x2="194.4" y2="113.8" opacity="0.6" stroke="rgb(0,0,0)"  stroke-width="1.1"/>
<line x1="232.6" y1="106.6" x2="228.6" y2="74.5" opacity="0.4" stroke="rgb(0,0,0)"  stroke-width="0.5"/>
<line x1="232.6" y1="106.6" x2="230.7" y2="130.6" opacity="0.2" stroke="rgb(0,0,0)"  stroke-width="0.4"/>
<line x1="194.4" y1="113.8" x2="150.6" y2="113.7" opacity="0.1" stroke="rgb(0,0,0)"  stroke-width="1.2"/>
<line x1="194.4" y1="113.8" x2="198.9" y2="145.1" opacity="0.4" stroke="rgb(0,0,0)"  stroke-width="1.8"/>
<line x1="194.4" y1="113.8" x2="194.0" y2="88.1" opacity="0.6" stroke="rgb(0,0,0)"  stroke-width="1.9"/>
<line x1="150.6" y1="113.7" x2="110.9" y2="121.6" opacity="0.6" stroke="rgb(0,0,0)"  stroke-width="1.3"/>
<line x1="150.6" y1="113.7" x2="146.6" y2="82.2" opacity="0.4" stroke="rgb(0,0,0)"  stroke-width="0.7"/>
<line x1="150.6" y1="113.7" x2="151.4" y2="138.9" opacity="0.2" stroke="rgb(0,0,0)"  stroke-width="0.6"/>
<line x1="110.9" y1="121.6" x2="113.6" y2="165.3" opacity="0.2" stroke="rgb(0,0,0)"  stroke-width="2.0"/>
<line x1="110.9" y1="121.6" x2="68.7" y2="119.9" opacity="0.7" stroke="rgb(0,0,0)"  stroke-width="1.3"/>
<line x1="110.9" y1="121.6" x2="109.5" y2="95.3" opacity="0.4" stroke="rgb(0,0,0)"  stroke-width="2.0"/>
<line x1="290.1" y1="152.9" x2="288.0" y2="191.0" opacity="0.7" stroke="rgb(0,0,0)"  stroke-width="1.4"/>
<line x1="290.1" y1="152.9" x2="268.8" y2="159.7" opacity="0.5" stroke="rgb(0,0,0)"  stroke-width="2.2"/>
<line x1="290.1" y1="152.9" x2="323.5" y2="151.2" opacity="0.7" stroke="rgb(0,0,0)"  stroke-width="2.0"/>
<line x1="284.9" y1="71.9" x2="264.6" y2="77.0" opacity="0.7" stroke="rgb(0,0,0)"  stroke-width="2.6"/>
<line x1="284.9" y1="71.9" x2="276.6" y2="40.0" opacity="0.9" stroke="rgb(0,0,0)"  stroke-width="2.0"/>
<line x1="284.9" y1="71.9" x2="319.0" y2="70.5" opacity="0.7" stroke="rgb(0,0,0)"  stroke-width="2.3"/>
<line x1="113.6" y1="165.3" x2="140.3" y2="165.4" opacity="0.8" stroke="rgb(0,0,0)"  stroke-width="2.7"/>
<line x1="113.6" y1="165.3" x2="118.7" y2="192.5" opacity="0.9" stroke="rgb(0,0,0)"  stroke-width="2.1"/>
<line x1="113.6" y1="165.3" x2="83.4" y2="171.6" opacity="0.7" stroke="rgb(0,0,0)"  stroke-width="2.6"/>
<line x1="68.7" y1="119.9" x2="65.6" y2="88.4" opacity="0.9" stroke="rgb(0,0,0)"  stroke-width="0.8"/>
<line x1="68.7" y1="119.9" x2="40.0" y2="123.9" opacity="0.3" stroke="rgb(0,0,0)"  stroke-width="1.3"/>
<line x1="68.7" y1="119.9" x2="68.0" y2="145.8" opacity="0.4" stroke="rgb(0,0,0)"  stroke-width="0.7"/>
<line x1="288.0" y1="191.0" x2="254.5" y2="197.5" opacity="0.2" stroke="rgb(0,0,0)"  stroke-width="0.8"/>
<line x1="288.0" y1="191.0" x2="308.0" y2="184.6" opacity="0.3" stroke="rgb(0,0,0)"  stroke-width="0.6"/>
<line x1="288.0" y1="191.0" x2="300.4" y2="220.8" opacity="0.2" stroke="rgb(0,0,0)"  stroke-width="1.2"/>
<circle cx="230.735489" cy="130.633292" r="5.636364" opacity="0.200000" style="stroke:black;stroke-width:0.5;fill:url(#radialffffffbfbfbf)"/>
<circle cx="308.037085" cy="184.604419" r="5.636364" opacity="0.254039" style="stroke:black;stroke-width:0.5;fill:url(#radialffffffbfbfbf)"/>
<circle cx="151.370032" cy="138.927988" r="5.636364" opacity="0.271656" style="stroke:black;stroke-width:0.5;fill:url(#radialffffffbfbfbf)"/>
<circle cx="228.576775" cy="74.545970" r="5.636364" opacity="0.311579" style="stroke:black;stroke-width:0.5;fill:url(#radialffffffbfbfbf)"/>
<circle cx="68.014224" cy="145.816249" r="5.636364" opacity="0.329178" style="stroke:black;stroke-width:0.5;fill:url(#radialffffffbfbfbf)"/>
<circle cx="146.611048" cy="82.232301" r="5.636364" opacity="0.391113" style="stroke:black;stroke-width:0.5;fill:url(#radialffffffbfbfbf)"/>
<circle cx="65.623284" cy="88.430428" r="5.636364" opacity="0.423705" style="stroke:black;stroke-width:0.5;fill:url(#radialffffffbfbfbf)"/>
<circle cx="302.100621" cy="102.439175" r="5.636364" opacity="0.432880" style="stroke:black;stroke-width:0.5;fill:url(#radialffffffbfbfbf)"/>
<circle cx="254.461722" cy="197.540351" r="5.636364" opacity="0.479075" style="stroke:black;stroke-width:0.5;fill:url(#radialffffffbfbfbf)"/>
<circle cx="232.616187" cy="106.602877" r="13.818182" opacity="0.487058" style="stroke:black;stroke-width:0.5;fill:url(#radialffffff666666)"/>
<circle cx="150.607940" cy="113.742988" r="13.818182" opacity="0.549833" style="stroke:black;stroke-width:0.5;fill:url(#radialffffff666666)"/>
<circle cx="288.026458" cy="190.998793" r="13.818182" opacity="0.568717" style="stroke:black;stroke-width:0.5;fill:url(#radialffffff666666)"/>
<circle cx="68.720712" cy="119.921490" r="13.818182" opacity="0.573984" style="stroke:black;stroke-width:0.5;fill:url(#radialffffff666666)"/>
<circle cx="278.531386" cy="108.450867" r="13.818182" opacity="0.650904" style="stroke:black;stroke-width:0.5;fill:url(#radialffffff666666)"/>
<circle cx="300.380191" cy="220.756342" r="5.636364" opacity="0.680483" style="stroke:black;stroke-width:0.5;fill:url(#radialffffffbfbfbf)"/>
<circle cx="40.000000" cy="123.902028" r="5.831493" opacity="0.719243" style="stroke:black;stroke-width:0.5;fill:url(#radialffffffbfbfbf)"/>
<circle cx="194.416757" cy="113.756071" r="14.381341" opacity="0.721372" style="stroke:black;stroke-width:0.5;fill:url(#radialffffff666666)"/>
<circle cx="110.897410" cy="121.641920" r="15.753107" opacity="0.754993" style="stroke:black;stroke-width:0.5;fill:url(#radialffffff666666)"/>
<circle cx="118.701489" cy="192.522976" r="6.583030" opacity="0.764185" style="stroke:black;stroke-width:0.5;fill:url(#radialffffffbfbfbf)"/>
<circle cx="276.568918" cy="40.000000" r="6.756259" opacity="0.774174" style="stroke:black;stroke-width:0.5;fill:url(#radialffffffbfbfbf)"/>
<circle cx="290.070695" cy="152.884403" r="16.826944" opacity="0.780301" style="stroke:black;stroke-width:0.5;fill:url(#radialffffff666666)"/>
<circle cx="198.900995" cy="145.086865" r="7.541718" opacity="0.817938" style="stroke:black;stroke-width:0.5;fill:url(#radialffffffbfbfbf)"/>
<circle cx="284.860344" cy="71.893368" r="20.026655" opacity="0.851263" style="stroke:black;stroke-width:0.5;fill:url(#radialffffff666666)"/>
<circle cx="323.484975" cy="151.157431" r="8.174036" opacity="0.851538" style="stroke:black;stroke-width:0.5;fill:url(#radialffffffbfbfbf)"/>
<circle cx="193.971931" cy="88.126245" r="8.386127" opacity="0.862514" style="stroke:black;stroke-width:0.5;fill:url(#radialffffffbfbfbf)"/>
<circle cx="113.615428" cy="165.293739" r="21.746409" opacity="0.887061" style="stroke:black;stroke-width:0.5;fill:url(#radialffffff666666)"/>
<circle cx="109.520412" cy="95.335043" r="8.880126" opacity="0.887555" style="stroke:black;stroke-width:0.5;fill:url(#radialffffffbfbfbf)"/>
<circle cx="319.023632" cy="70.473850" r="9.247002" opacity="0.905703" style="stroke:black;stroke-width:0.5;fill:url(#radialffffffbfbfbf)"/>
<circle cx="268.804089" cy="159.749768" r="9.685344" opacity="0.926922" style="stroke:black;stroke-width:0.5;fill:url(#radialffffffbfbfbf)"/>
<circle cx="83.380345" cy="171.606343" r="10.699688" opacity="0.974251" style="stroke:black;stroke-width:0.5;fill:url(#radialffffffbfbfbf)"/>
<circle cx="264.620762" cy="76.976159" r="11.097852" opacity="0.992213" style="stroke:black;stroke-width:0.5;fill:url(#radialffffffbfbfbf)"/>
<circle cx="140.278820" cy="165.401675" r="11.272727" opacity="1.000000" style="stroke:black;stroke-width:0.5;fill:url(#radialffffffbfbfbf)"/>
</svg>
</g>
</svg>
