<?xml version="1.0"?>
<svg version="1.1" id="topsvg"
xmlns="http://www.w3.org/2000/svg" xmlns:xlink="http://www.w3.org/1999/xlink"
xmlns:cml="http://www.xml-cml.org/schema" x="0" y="0" width="200px" height="200px" viewBox="0 0 100 100">
<title>16629 - Open Babel Depiction</title>
<rect x="0" y="0" width="100" height="100" fill="white"/>
<defs>
<radialGradient id='radialffffff666666' cx='50%' cy='50%' r='50%' fx='30%' fy='30%'>
  <stop offset=' 0%' stop-color="rgb(255,255,255)"  stop-opacity='1.0'/>
  <stop offset='100%' stop-color="rgb(102,102,102)"  stop-opacity ='1.0'/>
</radialGradient>
<radialGradient id='radialffffffbfbfbf' cx='50%' cy='50%' r='50%' fx='30%' fy='30%'>
  <stop offset=' 0%' stop-color="rgb(255,255,255)"  stop-opacity='1.0'/>
  <stop offset='100%' stop-color="rgb(191,191,191)"  stop-opacity ='1.0'/>
</radialGradient>
</defs>
<g transform="translate(0,0)">
<svg width="100" height="100" x="0" y="0" viewBox="0 0 279.487 241.269"
font-family="sans-serif" stroke="rgb(0,0,0)" stroke-width="4"  stroke-linecap="round">
<line x1="92.9" y1="92.1" x2="74.4" y2="75.1" opacity="1.0" stroke="rgb(0,0,0)"  stroke-width="1.7"/>
<line x1="88.7" y1="89.6" x2="89.7" y2="88.4" opacity="0.6" stroke="rgb(0,0,0)"  stroke-width="1.0"/>
<line x1="85.4" y1="87.6" x2="87.2" y2="85.4" opacity="0.6" stroke="rgb(0,0,0)"  stroke-width="1.0"/>
<line x1="82.0" y1="85.6" x2="84.7" y2="82.4" opacity="0.6" stroke="rgb(0,0,0)"  stroke-width="1.0"/>
<line x1="78.7" y1="83.6" x2="82.2" y2="79.4" opacity="0.6" stroke="rgb(0,0,0)"  stroke-width="1.0"/>
<line x1="75.4" y1="81.6" x2="79.7" y2="76.4" opacity="0.6" stroke="rgb(0,0,0)"  stroke-width="1.0"/>
<line x1="72.0" y1="79.6" x2="77.2" y2="73.5" opacity="0.6" stroke="rgb(0,0,0)"  stroke-width="1.0"/>
<line x1="170.9" y1="105.6" x2="217.8" y2="93.7" opacity="0.6" stroke="rgb(0,0,0)"  stroke-width="1.6"/>
<polygon points="170.860575 105.575273 160.928146 99.754170 167.119272 94.687617 " stroke-width="1.601008" fill="rgb(0,0,0)"  stroke="rgb(0,0,0)" />
<line x1="140.5" y1="79.8" x2="149.6" y2="85.3" opacity="0.5" stroke="rgb(0,0,0)"  stroke-width="0.5"/>
<line x1="140.5" y1="79.8" x2="144.7" y2="45.1" opacity="0.2" stroke="rgb(0,0,0)"  stroke-width="1.0"/>
<line x1="86.7" y1="140.9" x2="92.8" y2="150.2" opacity="0.3" stroke="rgb(0,0,0)"  stroke-width="0.5"/>
<line x1="86.7" y1="140.9" x2="53.2" y2="149.7" opacity="0.2" stroke="rgb(0,0,0)"  stroke-width="1.0"/>
<line x1="163.9" y1="154.1" x2="184.1" y2="172.0" opacity="0.3" stroke="rgb(0,0,0)"  stroke-width="1.9"/>
<line x1="163.9" y1="154.1" x2="174.0" y2="163.9" opacity="0.6" stroke="rgb(0,0,0)"  stroke-width="1.1"/>
<line x1="116.8" y1="166.8" x2="107.9" y2="162.1" opacity="0.4" stroke="rgb(0,0,0)"  stroke-width="2.2"/>
<line x1="116.8" y1="166.8" x2="112.9" y2="201.3" opacity="0.7" stroke="rgb(0,0,0)"  stroke-width="1.7"/>
<line x1="74.4" y1="75.1" x2="90.4" y2="88.9" opacity="0.6" stroke="rgb(0,0,0)"  stroke-width="2.6"/>
<line x1="74.4" y1="75.1" x2="77.8" y2="40.0" opacity="0.9" stroke="rgb(0,0,0)"  stroke-width="2.3"/>
<line x1="74.4" y1="75.1" x2="40.0" y2="82.6" opacity="0.8" stroke="rgb(0,0,0)"  stroke-width="2.3"/>
<line x1="217.8" y1="93.7" x2="223.2" y2="59.2" opacity="0.8" stroke="rgb(0,0,0)"  stroke-width="1.5"/>
<line x1="217.8" y1="93.7" x2="239.5" y2="111.3" opacity="0.5" stroke="rgb(0,0,0)"  stroke-width="1.8"/>
<line x1="217.8" y1="93.7" x2="226.9" y2="101.3" opacity="0.6" stroke="rgb(0,0,0)"  stroke-width="1.0"/>
<line x1="170.9" y1="105.6" x2="140.5" y2="79.8" opacity="0.3" stroke="rgb(0,0,0)"  stroke-width="1.3"/>
<line x1="140.5" y1="79.8" x2="92.9" y2="92.1" opacity="0.4" stroke="rgb(0,0,0)"  stroke-width="1.0"/>
<line x1="92.9" y1="92.1" x2="86.7" y2="140.9" opacity="0.3" stroke="rgb(0,0,0)"  stroke-width="1.0"/>
<line x1="86.7" y1="140.9" x2="116.8" y2="166.8" opacity="0.3" stroke="rgb(0,0,0)"  stroke-width="1.3"/>
<line x1="116.8" y1="166.8" x2="163.9" y2="154.1" opacity="0.4" stroke="rgb(0,0,0)"  stroke-width="1.7"/>
<line x1="163.9" y1="154.1" x2="170.9" y2="105.6" opacity="0.6" stroke="rgb(0,0,0)"  stroke-width="1.6"/>
<circle cx="149.621829" cy="85.293430" r="5.636364" opacity="0.200000" style="stroke:black;stroke-width:0.5;fill:url(#radialffffffbfbfbf)"/>
<circle cx="92.842335" cy="150.163107" r="5.636364" opacity="0.200000" style="stroke:black;stroke-width:0.5;fill:url(#radialffffffbfbfbf)"/>
<circle cx="74.628951" cy="76.513760" r="5.636364" opacity="0.347284" style="stroke:black;stroke-width:0.5;fill:url(#radialffffffbfbfbf)"/>
<circle cx="226.905476" cy="101.328812" r="5.636364" opacity="0.436559" style="stroke:black;stroke-width:0.5;fill:url(#radialffffffbfbfbf)"/>
<circle cx="173.998703" cy="163.936718" r="5.636364" opacity="0.475762" style="stroke:black;stroke-width:0.5;fill:url(#radialffffffbfbfbf)"/>
<circle cx="140.516747" cy="79.751767" r="13.818182" opacity="0.554153" style="stroke:black;stroke-width:0.5;fill:url(#radialffffff666666)"/>
<circle cx="86.727174" cy="140.945260" r="13.818182" opacity="0.563439" style="stroke:black;stroke-width:0.5;fill:url(#radialffffff666666)"/>
<circle cx="92.877776" cy="92.072302" r="13.818182" opacity="0.597700" style="stroke:black;stroke-width:0.5;fill:url(#radialffffff666666)"/>
<circle cx="144.705214" cy="45.142148" r="5.636364" opacity="0.600196" style="stroke:black;stroke-width:0.5;fill:url(#radialffffffbfbfbf)"/>
<circle cx="53.200113" cy="149.728151" r="5.636364" opacity="0.616080" style="stroke:black;stroke-width:0.5;fill:url(#radialffffffbfbfbf)"/>
<circle cx="217.810060" cy="93.696138" r="13.818182" opacity="0.702124" style="stroke:black;stroke-width:0.5;fill:url(#radialffffff666666)"/>
<circle cx="112.879314" cy="201.268840" r="5.871494" opacity="0.721705" style="stroke:black;stroke-width:0.5;fill:url(#radialffffffbfbfbf)"/>
<circle cx="163.862614" cy="154.148594" r="14.412456" opacity="0.722152" style="stroke:black;stroke-width:0.5;fill:url(#radialffffff666666)"/>
<circle cx="223.171297" cy="59.202507" r="6.083988" opacity="0.734649" style="stroke:black;stroke-width:0.5;fill:url(#radialffffffbfbfbf)"/>
<circle cx="170.860575" cy="105.575273" r="15.873227" opacity="0.757866" style="stroke:black;stroke-width:0.5;fill:url(#radialffffff666666)"/>
<circle cx="116.819694" cy="166.823538" r="16.084686" opacity="0.762897" style="stroke:black;stroke-width:0.5;fill:url(#radialffffff666666)"/>
<circle cx="239.486984" cy="111.313472" r="7.768403" opacity="0.830140" style="stroke:black;stroke-width:0.5;fill:url(#radialffffffbfbfbf)"/>
<circle cx="184.070353" cy="172.039789" r="8.217184" opacity="0.853782" style="stroke:black;stroke-width:0.5;fill:url(#radialffffffbfbfbf)"/>
<circle cx="74.390530" cy="75.080016" r="20.550449" opacity="0.862323" style="stroke:black;stroke-width:0.5;fill:url(#radialffffff666666)"/>
<circle cx="77.763857" cy="40.000000" r="8.568476" opacity="0.871841" style="stroke:black;stroke-width:0.5;fill:url(#radialffffffbfbfbf)"/>
<circle cx="40.000000" cy="82.619256" r="8.629282" opacity="0.874929" style="stroke:black;stroke-width:0.5;fill:url(#radialffffffbfbfbf)"/>
<circle cx="164.023709" cy="97.220893" r="9.927046" opacity="0.938416" style="stroke:black;stroke-width:0.5;fill:url(#radialffffffbfbfbf)"/>
<circle cx="107.936923" cy="162.074461" r="10.033127" opacity="0.943417" style="stroke:black;stroke-width:0.5;fill:url(#radialffffffbfbfbf)"/>
<circle cx="90.409803" cy="88.905177" r="11.272727" opacity="1.000000" style="stroke:black;stroke-width:0.5;fill:url(#radialffffffbfbfbf)"/>
</svg>
</g>
</svg>
