<?xml version="1.0"?>
<svg version="1.1" id="topsvg"
xmlns="http://www.w3.org/2000/svg" xmlns:xlink="http://www.w3.org/1999/xlink"
xmlns:cml="http://www.xml-cml.org/schema" x="0" y="0" width="200px" height="200px" viewBox="0 0 100 100">
<title>18313 - Open Babel Depiction</title>
<rect x="0" y="0" width="100" height="100" fill="white"/>
<defs>
<radialGradient id='radialffffff666666' cx='50%' cy='50%' r='50%' fx='30%' fy='30%'>
  <stop offset=' 0%' stop-color="rgb(255,255,255)"  stop-opacity='1.0'/>
  <stop offset='100%' stop-color="rgb(102,102,102)"  stop-opacity ='1.0'/>
</radialGradient>
<radialGradient id='radialffffffbfbfbf' cx='50%' cy='50%' r='50%' fx='30%' fy='30%'>
  <stop offset=' 0%' stop-color="rgb(255,255,255)"  stop-opacity='1.0'/>
  <stop offset='100%' stop-color="rgb(191,191,191)"  stop-opacity ='1.0'/>
</radialGradient>
</defs>
<g transform="translate(0,0)">
<svg width="100" height="100" x="0" y="0" viewBox="0 0 316.117 263.646"
font-family="sans-serif" stroke="rgb(0,0,0)" stroke-width="4"  stroke-linecap="round">
<line x1="189.3" y1="144.4" x2="140.1" y2="149.9" opacity="1.0" stroke="rgb(0,0,0)"  stroke-width="1.6"/>
<line x1="189.3" y1="144.4" x2="207.0" y2="189.1" opacity="0.5" stroke="rgb(0,0,0)"  stroke-width="1.3"/>
<line x1="189.3" y1="144.4" x2="196.4" y2="108.4" opacity="0.4" stroke="rgb(0,0,0)"  stroke-width="1.1"/>
<line x1="189.3" y1="144.4" x2="214.0" y2="131.9" opacity="0.4" stroke="rgb(0,0,0)"  stroke-width="2.0"/>
<line x1="140.1" y1="149.9" x2="108.9" y2="160.9" opacity="0.7" stroke="rgb(0,0,0)"  stroke-width="1.4"/>
<line x1="140.1" y1="149.9" x2="137.2" y2="175.8" opacity="0.5" stroke="rgb(0,0,0)"  stroke-width="2.1"/>
<line x1="140.1" y1="149.9" x2="128.5" y2="119.9" opacity="0.7" stroke="rgb(0,0,0)"  stroke-width="2.0"/>
<line x1="207.0" y1="189.1" x2="255.6" y2="190.6" opacity="0.7" stroke="rgb(0,0,0)"  stroke-width="1.0"/>
<line x1="207.0" y1="189.1" x2="189.0" y2="198.5" opacity="0.3" stroke="rgb(0,0,0)"  stroke-width="0.8"/>
<line x1="207.0" y1="189.1" x2="200.5" y2="214.6" opacity="0.3" stroke="rgb(0,0,0)"  stroke-width="1.4"/>
<line x1="196.4" y1="108.4" x2="180.6" y2="62.7" opacity="0.5" stroke="rgb(0,0,0)"  stroke-width="0.8"/>
<line x1="196.4" y1="108.4" x2="231.4" y2="105.4" opacity="0.3" stroke="rgb(0,0,0)"  stroke-width="0.6"/>
<line x1="196.4" y1="108.4" x2="180.9" y2="118.1" opacity="0.2" stroke="rgb(0,0,0)"  stroke-width="0.4"/>
<line x1="214.0" y1="131.9" x2="248.0" y2="122.9" opacity="0.1" stroke="rgb(0,0,0)"  stroke-width="2.4"/>
<line x1="214.0" y1="131.9" x2="198.6" y2="104.0" opacity="0.8" stroke="rgb(0,0,0)"  stroke-width="2.7"/>
<line x1="214.0" y1="131.9" x2="214.2" y2="159.1" opacity="0.9" stroke="rgb(0,0,0)"  stroke-width="2.7"/>
<line x1="108.9" y1="160.9" x2="61.8" y2="163.5" opacity="0.9" stroke="rgb(0,0,0)"  stroke-width="1.1"/>
<line x1="108.9" y1="160.9" x2="110.8" y2="135.9" opacity="0.4" stroke="rgb(0,0,0)"  stroke-width="0.6"/>
<line x1="108.9" y1="160.9" x2="117.6" y2="192.2" opacity="0.2" stroke="rgb(0,0,0)"  stroke-width="0.8"/>
<line x1="255.6" y1="190.6" x2="276.1" y2="182.5" opacity="0.3" stroke="rgb(0,0,0)"  stroke-width="1.2"/>
<line x1="255.6" y1="190.6" x2="264.4" y2="223.6" opacity="0.4" stroke="rgb(0,0,0)"  stroke-width="0.7"/>
<line x1="255.6" y1="190.6" x2="263.6" y2="168.4" opacity="0.2" stroke="rgb(0,0,0)"  stroke-width="0.5"/>
<line x1="180.6" y1="62.7" x2="197.3" y2="50.1" opacity="0.2" stroke="rgb(0,0,0)"  stroke-width="1.3"/>
<line x1="180.6" y1="62.7" x2="187.3" y2="40.0" opacity="0.4" stroke="rgb(0,0,0)"  stroke-width="0.7"/>
<line x1="180.6" y1="62.7" x2="145.3" y2="62.0" opacity="0.2" stroke="rgb(0,0,0)"  stroke-width="1.0"/>
<line x1="61.8" y1="163.5" x2="58.0" y2="188.9" opacity="0.3" stroke="rgb(0,0,0)"  stroke-width="1.6"/>
<line x1="61.8" y1="163.5" x2="51.1" y2="132.3" opacity="0.5" stroke="rgb(0,0,0)"  stroke-width="1.4"/>
<line x1="61.8" y1="163.5" x2="40.0" y2="171.4" opacity="0.5" stroke="rgb(0,0,0)"  stroke-width="1.0"/>
<circle cx="180.867298" cy="118.134211" r="5.636364" opacity="0.200000" style="stroke:black;stroke-width:0.5;fill:url(#radialffffffbfbfbf)"/>
<circle cx="263.640165" cy="168.413584" r="5.636364" opacity="0.280252" style="stroke:black;stroke-width:0.5;fill:url(#radialffffffbfbfbf)"/>
<circle cx="110.849100" cy="135.890648" r="5.636364" opacity="0.339600" style="stroke:black;stroke-width:0.5;fill:url(#radialffffffbfbfbf)"/>
<circle cx="187.265896" cy="40.000000" r="5.636364" opacity="0.349584" style="stroke:black;stroke-width:0.5;fill:url(#radialffffffbfbfbf)"/>
<circle cx="189.016024" cy="198.502698" r="5.636364" opacity="0.381031" style="stroke:black;stroke-width:0.5;fill:url(#radialffffffbfbfbf)"/>
<circle cx="231.369117" cy="105.405711" r="5.636364" opacity="0.423631" style="stroke:black;stroke-width:0.5;fill:url(#radialffffffbfbfbf)"/>
<circle cx="117.640250" cy="192.244764" r="5.636364" opacity="0.443734" style="stroke:black;stroke-width:0.5;fill:url(#radialffffffbfbfbf)"/>
<circle cx="264.369658" cy="223.645655" r="5.636364" opacity="0.450043" style="stroke:black;stroke-width:0.5;fill:url(#radialffffffbfbfbf)"/>
<circle cx="40.000000" cy="171.426421" r="5.636364" opacity="0.471287" style="stroke:black;stroke-width:0.5;fill:url(#radialffffffbfbfbf)"/>
<circle cx="196.356747" cy="108.385836" r="13.818182" opacity="0.483925" style="stroke:black;stroke-width:0.5;fill:url(#radialffffff666666)"/>
<circle cx="255.553593" cy="190.553519" r="13.818182" opacity="0.531714" style="stroke:black;stroke-width:0.5;fill:url(#radialffffff666666)"/>
<circle cx="108.938680" cy="160.853686" r="13.818182" opacity="0.556413" style="stroke:black;stroke-width:0.5;fill:url(#radialffffff666666)"/>
<circle cx="180.553256" cy="62.656795" r="13.818182" opacity="0.571585" style="stroke:black;stroke-width:0.5;fill:url(#radialffffff666666)"/>
<circle cx="207.004721" cy="189.055279" r="13.818182" opacity="0.607892" style="stroke:black;stroke-width:0.5;fill:url(#radialffffff666666)"/>
<circle cx="145.292269" cy="62.009084" r="5.636364" opacity="0.609952" style="stroke:black;stroke-width:0.5;fill:url(#radialffffffbfbfbf)"/>
<circle cx="61.767010" cy="163.480514" r="13.818182" opacity="0.655282" style="stroke:black;stroke-width:0.5;fill:url(#radialffffff666666)"/>
<circle cx="276.116777" cy="182.529101" r="5.636364" opacity="0.704564" style="stroke:black;stroke-width:0.5;fill:url(#radialffffffbfbfbf)"/>
<circle cx="189.290810" cy="144.448283" r="13.864518" opacity="0.708291" style="stroke:black;stroke-width:0.5;fill:url(#radialffffff666666)"/>
<circle cx="51.135393" cy="132.256271" r="6.034111" opacity="0.731631" style="stroke:black;stroke-width:0.5;fill:url(#radialffffffbfbfbf)"/>
<circle cx="197.334855" cy="50.072231" r="6.162633" opacity="0.739382" style="stroke:black;stroke-width:0.5;fill:url(#radialffffffbfbfbf)"/>
<circle cx="200.530883" cy="214.630044" r="6.251395" opacity="0.744687" style="stroke:black;stroke-width:0.5;fill:url(#radialffffffbfbfbf)"/>
<circle cx="140.058242" cy="149.911298" r="16.484066" opacity="0.772310" style="stroke:black;stroke-width:0.5;fill:url(#radialffffff666666)"/>
<circle cx="57.982154" cy="188.855731" r="6.978568" opacity="0.786808" style="stroke:black;stroke-width:0.5;fill:url(#radialffffffbfbfbf)"/>
<circle cx="128.455058" cy="119.936679" r="8.094389" opacity="0.847379" style="stroke:black;stroke-width:0.5;fill:url(#radialffffffbfbfbf)"/>
<circle cx="248.003509" cy="122.893905" r="8.705920" opacity="0.878806" style="stroke:black;stroke-width:0.5;fill:url(#radialffffffbfbfbf)"/>
<circle cx="137.231868" cy="175.754307" r="8.849003" opacity="0.885998" style="stroke:black;stroke-width:0.5;fill:url(#radialffffffbfbfbf)"/>
<circle cx="213.972519" cy="131.863719" r="22.743933" opacity="0.907178" style="stroke:black;stroke-width:0.5;fill:url(#radialffffff666666)"/>
<circle cx="198.646633" cy="103.999067" r="10.690877" opacity="0.973850" style="stroke:black;stroke-width:0.5;fill:url(#radialffffffbfbfbf)"/>
<circle cx="214.175338" cy="159.106830" r="11.272727" opacity="1.000000" style="stroke:black;stroke-width:0.5;fill:url(#radialffffffbfbfbf)"/>
</svg>
</g>
</svg>
