<?xml version="1.0"?>
<svg version="1.1" id="topsvg"
xmlns="http://www.w3.org/2000/svg" xmlns:xlink="http://www.w3.org/1999/xlink"
xmlns:cml="http://www.xml-cml.org/schema" x="0" y="0" width="1024px" height="1024px" viewBox="0 0 100 100">
<title>18312 - Open Babel Depiction</title>
<rect x="0" y="0" width="100" height="100" fill="white"/>
<defs>
<radialGradient id='radialffffff666666' cx='50%' cy='50%' r='50%' fx='30%' fy='30%'>
  <stop offset=' 0%' stop-color="rgb(255,255,255)"  stop-opacity='1.0'/>
  <stop offset='100%' stop-color="rgb(102,102,102)"  stop-opacity ='1.0'/>
</radialGradient>
<radialGradient id='radialffffffbfbfbf' cx='50%' cy='50%' r='50%' fx='30%' fy='30%'>
  <stop offset=' 0%' stop-color="rgb(255,255,255)"  stop-opacity='1.0'/>
  <stop offset='100%' stop-color="rgb(191,191,191)"  stop-opacity ='1.0'/>
</radialGradient>
</defs>
<g transform="translate(0,0)">
<svg width="100" height="100" x="0" y="0" viewBox="0 0 307.639 248.24"
font-family="sans-serif" stroke="rgb(0,0,0)" stroke-width="2"  stroke-linecap="round">
<line x1="135.7" y1="101.5" x2="170.7" y2="71.7" opacity="1.0" stroke="rgb(0,0,0)"  stroke-width="1.6"/>
<line x1="135.7" y1="101.5" x2="128.7" y2="145.4" opacity="0.5" stroke="rgb(0,0,0)"  stroke-width="1.6"/>
<line x1="135.7" y1="101.5" x2="91.6" y2="77.2" opacity="0.5" stroke="rgb(0,0,0)"  stroke-width="2.0"/>
<line x1="135.7" y1="101.5" x2="146.2" y2="109.2" opacity="0.7" stroke="rgb(0,0,0)"  stroke-width="2.3"/>
<line x1="170.7" y1="71.7" x2="217.8" y2="89.9" opacity="0.8" stroke="rgb(0,0,0)"  stroke-width="1.4"/>
<line x1="170.7" y1="71.7" x2="161.1" y2="64.1" opacity="0.5" stroke="rgb(0,0,0)"  stroke-width="1.0"/>
<line x1="170.7" y1="71.7" x2="171.2" y2="40.3" opacity="0.3" stroke="rgb(0,0,0)"  stroke-width="1.6"/>
<line x1="217.8" y1="89.9" x2="232.6" y2="100.9" opacity="0.5" stroke="rgb(0,0,0)"  stroke-width="1.9"/>
<line x1="217.8" y1="89.9" x2="222.0" y2="130.5" opacity="0.6" stroke="rgb(0,0,0)"  stroke-width="1.0"/>
<line x1="217.8" y1="89.9" x2="239.1" y2="64.1" opacity="0.3" stroke="rgb(0,0,0)"  stroke-width="1.2"/>
<line x1="128.7" y1="145.4" x2="95.2" y2="176.1" opacity="0.4" stroke="rgb(0,0,0)"  stroke-width="1.6"/>
<line x1="128.7" y1="145.4" x2="158.5" y2="164.6" opacity="0.5" stroke="rgb(0,0,0)"  stroke-width="1.3"/>
<line x1="128.7" y1="145.4" x2="120.8" y2="140.0" opacity="0.4" stroke="rgb(0,0,0)"  stroke-width="0.9"/>
<line x1="91.6" y1="77.2" x2="71.1" y2="63.1" opacity="0.3" stroke="rgb(0,0,0)"  stroke-width="1.5"/>
<line x1="91.6" y1="77.2" x2="96.9" y2="47.8" opacity="0.5" stroke="rgb(0,0,0)"  stroke-width="2.3"/>
<line x1="91.6" y1="77.2" x2="68.1" y2="97.1" opacity="0.8" stroke="rgb(0,0,0)"  stroke-width="2.2"/>
<line x1="232.6" y1="100.9" x2="227.7" y2="72.9" opacity="0.7" stroke="rgb(0,0,0)"  stroke-width="2.7"/>
<line x1="232.6" y1="100.9" x2="267.6" y2="108.7" opacity="0.9" stroke="rgb(0,0,0)"  stroke-width="2.5"/>
<line x1="232.6" y1="100.9" x2="215.4" y2="129.2" opacity="0.8" stroke="rgb(0,0,0)"  stroke-width="2.6"/>
<line x1="222.0" y1="130.5" x2="254.7" y2="130.3" opacity="0.9" stroke="rgb(0,0,0)"  stroke-width="0.5"/>
<line x1="222.0" y1="130.5" x2="198.8" y2="130.6" opacity="0.2" stroke="rgb(0,0,0)"  stroke-width="0.4"/>
<line x1="222.0" y1="130.5" x2="220.8" y2="161.4" opacity="0.1" stroke="rgb(0,0,0)"  stroke-width="0.9"/>
<line x1="95.2" y1="176.1" x2="101.7" y2="180.7" opacity="0.3" stroke="rgb(0,0,0)"  stroke-width="2.2"/>
<line x1="95.2" y1="176.1" x2="96.6" y2="208.2" opacity="0.7" stroke="rgb(0,0,0)"  stroke-width="1.6"/>
<line x1="95.2" y1="176.1" x2="61.8" y2="163.7" opacity="0.5" stroke="rgb(0,0,0)"  stroke-width="1.7"/>
<line x1="71.1" y1="63.1" x2="64.1" y2="91.0" opacity="0.6" stroke="rgb(0,0,0)"  stroke-width="0.7"/>
<line x1="71.1" y1="63.1" x2="92.0" y2="40.0" opacity="0.2" stroke="rgb(0,0,0)"  stroke-width="0.8"/>
<line x1="71.1" y1="63.1" x2="40.0" y2="46.4" opacity="0.3" stroke="rgb(0,0,0)"  stroke-width="1.1"/>
<circle cx="198.785362" cy="130.626382" r="5.636364" opacity="0.200000" style="stroke:black;stroke-width:0.5;fill:url(#radialffffffbfbfbf)"/>
<circle cx="254.685226" cy="130.308601" r="5.636364" opacity="0.314923" style="stroke:black;stroke-width:0.5;fill:url(#radialffffffbfbfbf)"/>
<circle cx="64.062856" cy="90.982459" r="5.636364" opacity="0.393490" style="stroke:black;stroke-width:0.5;fill:url(#radialffffffbfbfbf)"/>
<circle cx="120.807950" cy="140.025474" r="5.636364" opacity="0.397269" style="stroke:black;stroke-width:0.5;fill:url(#radialffffffbfbfbf)"/>
<circle cx="91.978389" cy="40.000000" r="5.636364" opacity="0.427314" style="stroke:black;stroke-width:0.5;fill:url(#radialffffffbfbfbf)"/>
<circle cx="161.133299" cy="64.095616" r="5.636364" opacity="0.433225" style="stroke:black;stroke-width:0.5;fill:url(#radialffffffbfbfbf)"/>
<circle cx="221.953846" cy="130.544480" r="13.818182" opacity="0.467679" style="stroke:black;stroke-width:0.5;fill:url(#radialffffff666666)"/>
<circle cx="71.132650" cy="63.050545" r="13.818182" opacity="0.570138" style="stroke:black;stroke-width:0.5;fill:url(#radialffffff666666)"/>
<circle cx="239.081226" cy="64.102169" r="5.636364" opacity="0.587039" style="stroke:black;stroke-width:0.5;fill:url(#radialffffffbfbfbf)"/>
<circle cx="220.800663" cy="161.421595" r="5.636364" opacity="0.602946" style="stroke:black;stroke-width:0.5;fill:url(#radialffffffbfbfbf)"/>
<circle cx="40.000000" cy="46.362160" r="5.636364" opacity="0.613057" style="stroke:black;stroke-width:0.5;fill:url(#radialffffffbfbfbf)"/>
<circle cx="128.736080" cy="145.358943" r="13.818182" opacity="0.659195" style="stroke:black;stroke-width:0.5;fill:url(#radialffffff666666)"/>
<circle cx="158.532087" cy="164.648540" r="5.636364" opacity="0.667003" style="stroke:black;stroke-width:0.5;fill:url(#radialffffffbfbfbf)"/>
<circle cx="217.812872" cy="89.881693" r="13.818182" opacity="0.671215" style="stroke:black;stroke-width:0.5;fill:url(#radialffffff666666)"/>
<circle cx="170.656883" cy="71.689585" r="13.818182" opacity="0.676913" style="stroke:black;stroke-width:0.5;fill:url(#radialffffff666666)"/>
<circle cx="96.640260" cy="208.240148" r="5.636364" opacity="0.687405" style="stroke:black;stroke-width:0.5;fill:url(#radialffffffbfbfbf)"/>
<circle cx="61.838393" cy="163.747616" r="6.395287" opacity="0.753209" style="stroke:black;stroke-width:0.5;fill:url(#radialffffffbfbfbf)"/>
<circle cx="171.203989" cy="40.291572" r="6.749037" opacity="0.773760" style="stroke:black;stroke-width:0.5;fill:url(#radialffffffbfbfbf)"/>
<circle cx="95.244647" cy="176.072254" r="16.561966" opacity="0.774133" style="stroke:black;stroke-width:0.5;fill:url(#radialffffff666666)"/>
<circle cx="135.678107" cy="101.501972" r="17.392274" opacity="0.793301" style="stroke:black;stroke-width:0.5;fill:url(#radialffffff666666)"/>
<circle cx="91.552498" cy="77.157373" r="18.559487" opacity="0.819488" style="stroke:black;stroke-width:0.5;fill:url(#radialffffff666666)"/>
<circle cx="68.105546" cy="97.144777" r="9.229723" opacity="0.904857" style="stroke:black;stroke-width:0.5;fill:url(#radialffffffbfbfbf)"/>
<circle cx="232.601127" cy="100.863136" r="22.776236" opacity="0.907822" style="stroke:black;stroke-width:0.5;fill:url(#radialffffff666666)"/>
<circle cx="267.638873" cy="108.689706" r="9.307152" opacity="0.908644" style="stroke:black;stroke-width:0.5;fill:url(#radialffffffbfbfbf)"/>
<circle cx="96.938384" cy="47.770877" r="9.375419" opacity="0.911971" style="stroke:black;stroke-width:0.5;fill:url(#radialffffffbfbfbf)"/>
<circle cx="101.675605" cy="180.675156" r="9.910626" opacity="0.937640" style="stroke:black;stroke-width:0.5;fill:url(#radialffffffbfbfbf)"/>
<circle cx="146.246762" cy="109.236813" r="10.112769" opacity="0.947154" style="stroke:black;stroke-width:0.5;fill:url(#radialffffffbfbfbf)"/>
<circle cx="215.431158" cy="129.217664" r="10.522375" opacity="0.966145" style="stroke:black;stroke-width:0.5;fill:url(#radialffffffbfbfbf)"/>
<circle cx="227.690273" cy="72.934498" r="11.272727" opacity="1.000000" style="stroke:black;stroke-width:0.5;fill:url(#radialffffffbfbfbf)"/>
</svg>
</g>
</svg>
