<?xml version="1.0"?>
<svg version="1.1" id="topsvg"
xmlns="http://www.w3.org/2000/svg" xmlns:xlink="http://www.w3.org/1999/xlink"
xmlns:cml="http://www.xml-cml.org/schema" x="0" y="0" width="200px" height="200px" viewBox="0 0 100 100">
<title>18676411 - Open Babel Depiction</title>
<rect x="0" y="0" width="100" height="100" fill="white"/>
<defs>
<radialGradient id='radialffffff666666' cx='50%' cy='50%' r='50%' fx='30%' fy='30%'>
  <stop offset=' 0%' stop-color="rgb(255,255,255)"  stop-opacity='1.0'/>
  <stop offset='100%' stop-color="rgb(102,102,102)"  stop-opacity ='1.0'/>
</radialGradient>
<radialGradient id='radialffffffbfbfbf' cx='50%' cy='50%' r='50%' fx='30%' fy='30%'>
  <stop offset=' 0%' stop-color="rgb(255,255,255)"  stop-opacity='1.0'/>
  <stop offset='100%' stop-color="rgb(191,191,191)"  stop-opacity ='1.0'/>
</radialGradient>
</defs>
<g transform="translate(0,0)">
<svg width="100" height="100" x="0" y="0" viewBox="0 0 635.173 192.764"
font-family="sans-serif" stroke="rgb(0,0,0)" stroke-width="4"  stroke-linecap="round">
<line x1="108.4" y1="96.4" x2="153.1" y2="73.0" opacity="1.0" stroke="rgb(0,0,0)"  stroke-width="1.5"/>
<line x1="108.4" y1="96.4" x2="72.4" y2="61.4" opacity="0.5" stroke="rgb(0,0,0)"  stroke-width="1.5"/>
<line x1="108.4" y1="96.4" x2="101.3" y2="125.7" opacity="0.5" stroke="rgb(0,0,0)"  stroke-width="1.9"/>
<line x1="108.4" y1="96.4" x2="104.3" y2="123.9" opacity="0.6" stroke="rgb(0,0,0)"  stroke-width="1.1"/>
<line x1="153.1" y1="73.0" x2="193.1" y2="102.7" opacity="0.4" stroke="rgb(0,0,0)"  stroke-width="1.5"/>
<line x1="153.1" y1="73.0" x2="154.4" y2="53.1" opacity="0.5" stroke="rgb(0,0,0)"  stroke-width="1.9"/>
<line x1="153.1" y1="73.0" x2="155.3" y2="50.1" opacity="0.6" stroke="rgb(0,0,0)"  stroke-width="1.3"/>
<line x1="193.1" y1="102.7" x2="235.2" y2="76.0" opacity="0.4" stroke="rgb(0,0,0)"  stroke-width="1.5"/>
<line x1="193.1" y1="102.7" x2="193.0" y2="124.5" opacity="0.5" stroke="rgb(0,0,0)"  stroke-width="1.8"/>
<line x1="193.1" y1="102.7" x2="192.7" y2="123.0" opacity="0.6" stroke="rgb(0,0,0)"  stroke-width="1.2"/>
<line x1="235.2" y1="76.0" x2="275.3" y2="105.4" opacity="0.4" stroke="rgb(0,0,0)"  stroke-width="1.5"/>
<line x1="235.2" y1="76.0" x2="235.5" y2="53.6" opacity="0.5" stroke="rgb(0,0,0)"  stroke-width="1.2"/>
<line x1="235.2" y1="76.0" x2="236.6" y2="56.0" opacity="0.4" stroke="rgb(0,0,0)"  stroke-width="1.8"/>
<line x1="275.3" y1="105.4" x2="318.4" y2="80.4" opacity="0.6" stroke="rgb(0,0,0)"  stroke-width="1.5"/>
<line x1="275.3" y1="105.4" x2="273.9" y2="125.3" opacity="0.5" stroke="rgb(0,0,0)"  stroke-width="1.2"/>
<line x1="275.3" y1="105.4" x2="274.7" y2="128.1" opacity="0.4" stroke="rgb(0,0,0)"  stroke-width="1.8"/>
<line x1="318.4" y1="80.4" x2="359.7" y2="108.3" opacity="0.6" stroke="rgb(0,0,0)"  stroke-width="1.5"/>
<line x1="318.4" y1="80.4" x2="318.8" y2="59.1" opacity="0.5" stroke="rgb(0,0,0)"  stroke-width="1.8"/>
<line x1="318.4" y1="80.4" x2="319.5" y2="59.0" opacity="0.6" stroke="rgb(0,0,0)"  stroke-width="1.2"/>
<line x1="359.7" y1="108.3" x2="401.7" y2="81.6" opacity="0.4" stroke="rgb(0,0,0)"  stroke-width="1.5"/>
<line x1="359.7" y1="108.3" x2="359.1" y2="130.5" opacity="0.5" stroke="rgb(0,0,0)"  stroke-width="1.2"/>
<line x1="359.7" y1="108.3" x2="359.4" y2="128.7" opacity="0.4" stroke="rgb(0,0,0)"  stroke-width="1.8"/>
<line x1="72.4" y1="61.4" x2="75.8" y2="40.0" opacity="0.6" stroke="rgb(0,0,0)"  stroke-width="1.2"/>
<line x1="72.4" y1="61.4" x2="73.8" y2="41.0" opacity="0.4" stroke="rgb(0,0,0)"  stroke-width="1.8"/>
<line x1="72.4" y1="61.4" x2="40.0" y2="76.1" opacity="0.6" stroke="rgb(0,0,0)"  stroke-width="1.5"/>
<line x1="101.3" y1="125.7" x2="124.4" y2="152.8" opacity="0.5" stroke="rgb(0,0,0)"  stroke-width="2.4"/>
<line x1="101.3" y1="125.7" x2="105.0" y2="107.2" opacity="0.8" stroke="rgb(0,0,0)"  stroke-width="2.7"/>
<line x1="101.3" y1="125.7" x2="68.5" y2="139.8" opacity="0.9" stroke="rgb(0,0,0)"  stroke-width="2.4"/>
<line x1="104.3" y1="123.9" x2="126.7" y2="151.7" opacity="0.8" stroke="rgb(0,0,0)"  stroke-width="0.6"/>
<line x1="104.3" y1="123.9" x2="71.4" y2="137.1" opacity="0.2" stroke="rgb(0,0,0)"  stroke-width="0.6"/>
<line x1="104.3" y1="123.9" x2="111.3" y2="104.5" opacity="0.2" stroke="rgb(0,0,0)"  stroke-width="0.4"/>
<line x1="401.7" y1="81.6" x2="441.9" y2="111.1" opacity="0.1" stroke="rgb(0,0,0)"  stroke-width="1.5"/>
<line x1="401.7" y1="81.6" x2="402.4" y2="59.4" opacity="0.5" stroke="rgb(0,0,0)"  stroke-width="1.8"/>
<line x1="401.7" y1="81.6" x2="402.3" y2="61.5" opacity="0.6" stroke="rgb(0,0,0)"  stroke-width="1.2"/>
<line x1="441.9" y1="111.1" x2="483.9" y2="84.3" opacity="0.4" stroke="rgb(0,0,0)"  stroke-width="1.5"/>
<line x1="441.9" y1="111.1" x2="441.5" y2="132.8" opacity="0.5" stroke="rgb(0,0,0)"  stroke-width="1.2"/>
<line x1="441.9" y1="111.1" x2="440.9" y2="131.7" opacity="0.4" stroke="rgb(0,0,0)"  stroke-width="1.8"/>
<line x1="483.9" y1="84.3" x2="525.0" y2="112.3" opacity="0.6" stroke="rgb(0,0,0)"  stroke-width="1.5"/>
<line x1="483.9" y1="84.3" x2="484.2" y2="63.1" opacity="0.5" stroke="rgb(0,0,0)"  stroke-width="1.2"/>
<line x1="483.9" y1="84.3" x2="484.3" y2="63.0" opacity="0.4" stroke="rgb(0,0,0)"  stroke-width="1.8"/>
<line x1="525.0" y1="112.3" x2="566.9" y2="85.9" opacity="0.6" stroke="rgb(0,0,0)"  stroke-width="1.5"/>
<line x1="525.0" y1="112.3" x2="525.1" y2="133.1" opacity="0.5" stroke="rgb(0,0,0)"  stroke-width="1.8"/>
<line x1="525.0" y1="112.3" x2="524.6" y2="134.0" opacity="0.6" stroke="rgb(0,0,0)"  stroke-width="1.2"/>
<line x1="566.9" y1="85.9" x2="569.1" y2="64.6" opacity="0.4" stroke="rgb(0,0,0)"  stroke-width="1.8"/>
<line x1="566.9" y1="85.9" x2="568.5" y2="65.6" opacity="0.6" stroke="rgb(0,0,0)"  stroke-width="1.2"/>
<line x1="566.9" y1="85.9" x2="595.2" y2="107.5" opacity="0.4" stroke="rgb(0,0,0)"  stroke-width="1.5"/>
<circle cx="111.255583" cy="104.475224" r="5.636364" opacity="0.200000" style="stroke:black;stroke-width:0.5;fill:url(#radialffffffbfbfbf)"/>
<circle cx="71.367293" cy="137.117901" r="5.636364" opacity="0.426352" style="stroke:black;stroke-width:0.5;fill:url(#radialffffffbfbfbf)"/>
<circle cx="104.325562" cy="123.934593" r="13.818182" opacity="0.454216" style="stroke:black;stroke-width:0.5;fill:url(#radialffffff666666)"/>
<circle cx="126.651292" cy="151.687213" r="5.636364" opacity="0.456271" style="stroke:black;stroke-width:0.5;fill:url(#radialffffffbfbfbf)"/>
<circle cx="273.925627" cy="125.252273" r="5.636364" opacity="0.533790" style="stroke:black;stroke-width:0.5;fill:url(#radialffffffbfbfbf)"/>
<circle cx="402.290440" cy="61.473305" r="5.636364" opacity="0.537263" style="stroke:black;stroke-width:0.5;fill:url(#radialffffffbfbfbf)"/>
<circle cx="568.474298" cy="65.598782" r="5.636364" opacity="0.539623" style="stroke:black;stroke-width:0.5;fill:url(#radialffffffbfbfbf)"/>
<circle cx="75.759559" cy="40.000000" r="5.636364" opacity="0.543909" style="stroke:black;stroke-width:0.5;fill:url(#radialffffffbfbfbf)"/>
<circle cx="319.517357" cy="58.958325" r="5.636364" opacity="0.546177" style="stroke:black;stroke-width:0.5;fill:url(#radialffffffbfbfbf)"/>
<circle cx="484.246887" cy="63.132606" r="5.636364" opacity="0.548540" style="stroke:black;stroke-width:0.5;fill:url(#radialffffffbfbfbf)"/>
<circle cx="192.694718" cy="123.039872" r="5.636364" opacity="0.549634" style="stroke:black;stroke-width:0.5;fill:url(#radialffffffbfbfbf)"/>
<circle cx="524.590671" cy="133.991258" r="5.636364" opacity="0.551166" style="stroke:black;stroke-width:0.5;fill:url(#radialffffffbfbfbf)"/>
<circle cx="441.488982" cy="132.774437" r="5.636364" opacity="0.551187" style="stroke:black;stroke-width:0.5;fill:url(#radialffffffbfbfbf)"/>
<circle cx="359.138858" cy="130.454670" r="5.636364" opacity="0.553926" style="stroke:black;stroke-width:0.5;fill:url(#radialffffffbfbfbf)"/>
<circle cx="235.462383" cy="53.619281" r="5.636364" opacity="0.559858" style="stroke:black;stroke-width:0.5;fill:url(#radialffffffbfbfbf)"/>
<circle cx="155.347435" cy="50.147763" r="5.636364" opacity="0.567625" style="stroke:black;stroke-width:0.5;fill:url(#radialffffffbfbfbf)"/>
<circle cx="40.000000" cy="76.123955" r="5.636364" opacity="0.698246" style="stroke:black;stroke-width:0.5;fill:url(#radialffffffbfbfbf)"/>
<circle cx="275.298617" cy="105.428509" r="13.818182" opacity="0.703865" style="stroke:black;stroke-width:0.5;fill:url(#radialffffff666666)"/>
<circle cx="72.437704" cy="61.375699" r="13.818182" opacity="0.705045" style="stroke:black;stroke-width:0.5;fill:url(#radialffffff666666)"/>
<circle cx="401.698298" cy="81.599648" r="13.818182" opacity="0.705553" style="stroke:black;stroke-width:0.5;fill:url(#radialffffff666666)"/>
<circle cx="566.880068" cy="85.891055" r="13.818182" opacity="0.706191" style="stroke:black;stroke-width:0.5;fill:url(#radialffffff666666)"/>
<circle cx="595.172774" cy="107.510769" r="5.636364" opacity="0.706567" style="stroke:black;stroke-width:0.5;fill:url(#radialffffffbfbfbf)"/>
<circle cx="318.407903" cy="80.428377" r="13.839252" opacity="0.707646" style="stroke:black;stroke-width:0.5;fill:url(#radialffffff666666)"/>
<circle cx="108.353433" cy="96.380439" r="13.857768" opacity="0.708119" style="stroke:black;stroke-width:0.5;fill:url(#radialffffff666666)"/>
<circle cx="483.853210" cy="84.339121" r="13.950349" opacity="0.710480" style="stroke:black;stroke-width:0.5;fill:url(#radialffffff666666)"/>
<circle cx="525.039659" cy="112.296713" r="13.952903" opacity="0.710545" style="stroke:black;stroke-width:0.5;fill:url(#radialffffff666666)"/>
<circle cx="441.850124" cy="111.076639" r="13.954180" opacity="0.710578" style="stroke:black;stroke-width:0.5;fill:url(#radialffffff666666)"/>
<circle cx="359.708226" cy="108.311137" r="13.972696" opacity="0.711049" style="stroke:black;stroke-width:0.5;fill:url(#radialffffff666666)"/>
<circle cx="193.143705" cy="102.695543" r="14.088263" opacity="0.713984" style="stroke:black;stroke-width:0.5;fill:url(#radialffffff666666)"/>
<circle cx="235.234636" cy="75.961278" r="14.120826" opacity="0.714808" style="stroke:black;stroke-width:0.5;fill:url(#radialffffff666666)"/>
<circle cx="153.053696" cy="72.987551" r="14.281086" opacity="0.718853" style="stroke:black;stroke-width:0.5;fill:url(#radialffffff666666)"/>
<circle cx="274.677193" cy="128.099113" r="7.791474" opacity="0.831372" style="stroke:black;stroke-width:0.5;fill:url(#radialffffffbfbfbf)"/>
<circle cx="402.378286" cy="59.423580" r="7.848250" opacity="0.834395" style="stroke:black;stroke-width:0.5;fill:url(#radialffffffbfbfbf)"/>
<circle cx="569.056680" cy="64.642244" r="7.902681" opacity="0.837284" style="stroke:black;stroke-width:0.5;fill:url(#radialffffffbfbfbf)"/>
<circle cx="318.759285" cy="59.091720" r="7.936798" opacity="0.839089" style="stroke:black;stroke-width:0.5;fill:url(#radialffffffbfbfbf)"/>
<circle cx="73.830216" cy="41.002088" r="7.943048" opacity="0.839420" style="stroke:black;stroke-width:0.5;fill:url(#radialffffffbfbfbf)"/>
<circle cx="484.250140" cy="62.960168" r="7.978207" opacity="0.841275" style="stroke:black;stroke-width:0.5;fill:url(#radialffffffbfbfbf)"/>
<circle cx="192.981029" cy="124.474680" r="8.004511" opacity="0.842661" style="stroke:black;stroke-width:0.5;fill:url(#radialffffffbfbfbf)"/>
<circle cx="525.147025" cy="133.125819" r="8.009981" opacity="0.842949" style="stroke:black;stroke-width:0.5;fill:url(#radialffffffbfbfbf)"/>
<circle cx="440.948896" cy="131.707279" r="8.021179" opacity="0.843538" style="stroke:black;stroke-width:0.5;fill:url(#radialffffffbfbfbf)"/>
<circle cx="359.373112" cy="128.730298" r="8.042275" opacity="0.844646" style="stroke:black;stroke-width:0.5;fill:url(#radialffffffbfbfbf)"/>
<circle cx="236.636908" cy="56.030147" r="8.125875" opacity="0.849025" style="stroke:black;stroke-width:0.5;fill:url(#radialffffffbfbfbf)"/>
<circle cx="154.384390" cy="53.056420" r="8.196974" opacity="0.852731" style="stroke:black;stroke-width:0.5;fill:url(#radialffffffbfbfbf)"/>
<circle cx="68.504185" cy="139.759768" r="8.842335" opacity="0.885664" style="stroke:black;stroke-width:0.5;fill:url(#radialffffffbfbfbf)"/>
<circle cx="101.263989" cy="125.668725" r="21.693945" opacity="0.885990" style="stroke:black;stroke-width:0.5;fill:url(#radialffffff666666)"/>
<circle cx="124.377074" cy="152.764132" r="8.907705" opacity="0.888932" style="stroke:black;stroke-width:0.5;fill:url(#radialffffffbfbfbf)"/>
<circle cx="105.025071" cy="107.237472" r="11.272727" opacity="1.000000" style="stroke:black;stroke-width:0.5;fill:url(#radialffffffbfbfbf)"/>
</svg>
</g>
</svg>
