<?xml version="1.0"?>
<svg version="1.1" id="topsvg"
xmlns="http://www.w3.org/2000/svg" xmlns:xlink="http://www.w3.org/1999/xlink"
xmlns:cml="http://www.xml-cml.org/schema" x="0" y="0" width="200px" height="200px" viewBox="0 0 100 100">
<title>20283 - Open Babel Depiction</title>
<rect x="0" y="0" width="100" height="100" fill="white"/>
<defs>
<radialGradient id='radialffffff666666' cx='50%' cy='50%' r='50%' fx='30%' fy='30%'>
  <stop offset=' 0%' stop-color="rgb(255,255,255)"  stop-opacity='1.0'/>
  <stop offset='100%' stop-color="rgb(102,102,102)"  stop-opacity ='1.0'/>
</radialGradient>
<radialGradient id='radialffffffbfbfbf' cx='50%' cy='50%' r='50%' fx='30%' fy='30%'>
  <stop offset=' 0%' stop-color="rgb(255,255,255)"  stop-opacity='1.0'/>
  <stop offset='100%' stop-color="rgb(191,191,191)"  stop-opacity ='1.0'/>
</radialGradient>
</defs>
<g transform="translate(0,0)">
<svg width="100" height="100" x="0" y="0" viewBox="0 0 473.141 235.796"
font-family="sans-serif" stroke="rgb(0,0,0)" stroke-width="4"  stroke-linecap="round">
<line x1="159.4" y1="133.5" x2="202.5" y2="151.2" opacity="1.0" stroke="rgb(0,0,0)"  stroke-width="1.5"/>
<line x1="159.4" y1="133.5" x2="160.9" y2="130.2" opacity="0.5" stroke="rgb(0,0,0)"  stroke-width="2.3"/>
<line x1="150.8" y1="88.7" x2="152.0" y2="90.3" opacity="0.8" stroke="rgb(0,0,0)"  stroke-width="0.6"/>
<line x1="150.8" y1="88.7" x2="175.1" y2="65.4" opacity="0.2" stroke="rgb(0,0,0)"  stroke-width="1.3"/>
<line x1="122.5" y1="164.7" x2="128.0" y2="195.8" opacity="0.4" stroke="rgb(0,0,0)"  stroke-width="1.7"/>
<line x1="122.5" y1="164.7" x2="121.9" y2="171.0" opacity="0.6" stroke="rgb(0,0,0)"  stroke-width="0.9"/>
<line x1="202.5" y1="151.2" x2="240.1" y2="122.5" opacity="0.3" stroke="rgb(0,0,0)"  stroke-width="1.5"/>
<line x1="202.5" y1="151.2" x2="202.2" y2="154.4" opacity="0.5" stroke="rgb(0,0,0)"  stroke-width="0.7"/>
<line x1="202.5" y1="151.2" x2="207.3" y2="183.7" opacity="0.2" stroke="rgb(0,0,0)"  stroke-width="1.5"/>
<line x1="107.0" y1="71.0" x2="107.5" y2="64.7" opacity="0.5" stroke="rgb(0,0,0)"  stroke-width="2.1"/>
<line x1="107.0" y1="71.0" x2="101.1" y2="40.0" opacity="0.7" stroke="rgb(0,0,0)"  stroke-width="1.3"/>
<line x1="78.9" y1="146.8" x2="53.2" y2="169.0" opacity="0.4" stroke="rgb(0,0,0)"  stroke-width="1.7"/>
<line x1="78.9" y1="146.8" x2="77.7" y2="145.0" opacity="0.6" stroke="rgb(0,0,0)"  stroke-width="2.4"/>
<line x1="70.5" y1="102.2" x2="40.0" y2="89.5" opacity="0.8" stroke="rgb(0,0,0)"  stroke-width="1.5"/>
<line x1="70.5" y1="102.2" x2="67.1" y2="104.9" opacity="0.5" stroke="rgb(0,0,0)"  stroke-width="0.7"/>
<line x1="240.1" y1="122.5" x2="283.3" y2="141.0" opacity="0.2" stroke="rgb(0,0,0)"  stroke-width="1.4"/>
<line x1="240.1" y1="122.5" x2="237.0" y2="90.1" opacity="0.5" stroke="rgb(0,0,0)"  stroke-width="1.5"/>
<line x1="240.1" y1="122.5" x2="240.2" y2="119.1" opacity="0.5" stroke="rgb(0,0,0)"  stroke-width="2.3"/>
<line x1="283.3" y1="141.0" x2="320.9" y2="112.8" opacity="0.8" stroke="rgb(0,0,0)"  stroke-width="1.4"/>
<line x1="283.3" y1="141.0" x2="283.6" y2="143.5" opacity="0.5" stroke="rgb(0,0,0)"  stroke-width="0.6"/>
<line x1="283.3" y1="141.0" x2="287.3" y2="173.7" opacity="0.2" stroke="rgb(0,0,0)"  stroke-width="1.4"/>
<line x1="320.9" y1="112.8" x2="365.0" y2="130.3" opacity="0.5" stroke="rgb(0,0,0)"  stroke-width="1.5"/>
<line x1="320.9" y1="112.8" x2="320.1" y2="109.8" opacity="0.5" stroke="rgb(0,0,0)"  stroke-width="2.3"/>
<line x1="320.9" y1="112.8" x2="316.9" y2="80.1" opacity="0.8" stroke="rgb(0,0,0)"  stroke-width="1.5"/>
<line x1="365.0" y1="130.3" x2="402.5" y2="101.9" opacity="0.5" stroke="rgb(0,0,0)"  stroke-width="1.5"/>
<line x1="365.0" y1="130.3" x2="369.5" y2="162.6" opacity="0.5" stroke="rgb(0,0,0)"  stroke-width="1.5"/>
<line x1="365.0" y1="130.3" x2="365.9" y2="133.7" opacity="0.5" stroke="rgb(0,0,0)"  stroke-width="0.7"/>
<line x1="402.5" y1="101.9" x2="433.1" y2="116.0" opacity="0.2" stroke="rgb(0,0,0)"  stroke-width="1.5"/>
<line x1="402.5" y1="101.9" x2="403.4" y2="98.7" opacity="0.5" stroke="rgb(0,0,0)"  stroke-width="2.3"/>
<line x1="402.5" y1="101.9" x2="399.8" y2="69.7" opacity="0.8" stroke="rgb(0,0,0)"  stroke-width="1.5"/>
<line x1="150.8" y1="88.7" x2="159.4" y2="133.5" opacity="0.5" stroke="rgb(0,0,0)"  stroke-width="1.4"/>
<line x1="159.4" y1="133.5" x2="122.5" y2="164.7" opacity="0.5" stroke="rgb(0,0,0)"  stroke-width="1.6"/>
<line x1="122.5" y1="164.7" x2="78.9" y2="146.8" opacity="0.5" stroke="rgb(0,0,0)"  stroke-width="1.6"/>
<line x1="78.9" y1="146.8" x2="70.5" y2="102.2" opacity="0.5" stroke="rgb(0,0,0)"  stroke-width="1.6"/>
<line x1="70.5" y1="102.2" x2="107.0" y2="71.0" opacity="0.5" stroke="rgb(0,0,0)"  stroke-width="1.4"/>
<line x1="107.0" y1="71.0" x2="150.8" y2="88.7" opacity="0.5" stroke="rgb(0,0,0)"  stroke-width="1.4"/>
<circle cx="151.952482" cy="90.273330" r="5.636364" opacity="0.200000" style="stroke:black;stroke-width:0.5;fill:url(#radialffffffbfbfbf)"/>
<circle cx="283.575735" cy="143.471478" r="5.636364" opacity="0.200000" style="stroke:black;stroke-width:0.5;fill:url(#radialffffffbfbfbf)"/>
<circle cx="202.183891" cy="154.387143" r="5.636364" opacity="0.200000" style="stroke:black;stroke-width:0.5;fill:url(#radialffffffbfbfbf)"/>
<circle cx="365.925320" cy="133.719935" r="5.636364" opacity="0.200000" style="stroke:black;stroke-width:0.5;fill:url(#radialffffffbfbfbf)"/>
<circle cx="67.052147" cy="104.884521" r="5.636364" opacity="0.201444" style="stroke:black;stroke-width:0.5;fill:url(#radialffffffbfbfbf)"/>
<circle cx="121.882001" cy="170.971860" r="5.636364" opacity="0.311399" style="stroke:black;stroke-width:0.5;fill:url(#radialffffffbfbfbf)"/>
<circle cx="101.069681" cy="40.000000" r="5.636364" opacity="0.599043" style="stroke:black;stroke-width:0.5;fill:url(#radialffffffbfbfbf)"/>
<circle cx="150.756113" cy="88.709343" r="13.818182" opacity="0.615647" style="stroke:black;stroke-width:0.5;fill:url(#radialffffff666666)"/>
<circle cx="283.282286" cy="140.972323" r="13.818182" opacity="0.634111" style="stroke:black;stroke-width:0.5;fill:url(#radialffffff666666)"/>
<circle cx="237.026953" cy="90.147566" r="5.636364" opacity="0.644742" style="stroke:black;stroke-width:0.5;fill:url(#radialffffffbfbfbf)"/>
<circle cx="202.487015" cy="151.233371" r="13.818182" opacity="0.644769" style="stroke:black;stroke-width:0.5;fill:url(#radialffffff666666)"/>
<circle cx="399.820315" cy="69.654493" r="5.636364" opacity="0.645252" style="stroke:black;stroke-width:0.5;fill:url(#radialffffffbfbfbf)"/>
<circle cx="365.035299" cy="130.275938" r="13.818182" opacity="0.645252" style="stroke:black;stroke-width:0.5;fill:url(#radialffffff666666)"/>
<circle cx="70.528391" cy="102.233804" r="13.818182" opacity="0.645895" style="stroke:black;stroke-width:0.5;fill:url(#radialffffff666666)"/>
<circle cx="316.941877" cy="80.147720" r="5.636364" opacity="0.649367" style="stroke:black;stroke-width:0.5;fill:url(#radialffffffbfbfbf)"/>
<circle cx="433.141311" cy="115.983995" r="5.636364" opacity="0.673684" style="stroke:black;stroke-width:0.5;fill:url(#radialffffffbfbfbf)"/>
<circle cx="122.549517" cy="164.693337" r="13.818182" opacity="0.685999" style="stroke:black;stroke-width:0.5;fill:url(#radialffffff666666)"/>
<circle cx="175.144643" cy="65.359170" r="5.636364" opacity="0.699210" style="stroke:black;stroke-width:0.5;fill:url(#radialffffffbfbfbf)"/>
<circle cx="53.208439" cy="168.988660" r="5.796255" opacity="0.717066" style="stroke:black;stroke-width:0.5;fill:url(#radialffffffbfbfbf)"/>
<circle cx="107.022508" cy="70.973402" r="14.644232" opacity="0.727935" style="stroke:black;stroke-width:0.5;fill:url(#radialffffff666666)"/>
<circle cx="287.332530" cy="173.680622" r="6.084059" opacity="0.734653" style="stroke:black;stroke-width:0.5;fill:url(#radialffffffbfbfbf)"/>
<circle cx="40.000000" cy="89.509072" r="6.207683" opacity="0.742079" style="stroke:black;stroke-width:0.5;fill:url(#radialffffffbfbfbf)"/>
<circle cx="207.340213" cy="183.735288" r="6.273589" opacity="0.746008" style="stroke:black;stroke-width:0.5;fill:url(#radialffffffbfbfbf)"/>
<circle cx="369.469284" cy="162.626294" r="6.334426" opacity="0.749616" style="stroke:black;stroke-width:0.5;fill:url(#radialffffffbfbfbf)"/>
<circle cx="320.940525" cy="112.775402" r="15.531472" opacity="0.749663" style="stroke:black;stroke-width:0.5;fill:url(#radialffffff666666)"/>
<circle cx="240.071085" cy="122.485023" r="15.576408" opacity="0.750746" style="stroke:black;stroke-width:0.5;fill:url(#radialffffff666666)"/>
<circle cx="402.522628" cy="101.933905" r="15.664367" opacity="0.752863" style="stroke:black;stroke-width:0.5;fill:url(#radialffffff666666)"/>
<circle cx="159.385454" cy="133.452284" r="16.199770" opacity="0.765621" style="stroke:black;stroke-width:0.5;fill:url(#radialffffff666666)"/>
<circle cx="78.864283" cy="146.828408" r="17.168276" opacity="0.788175" style="stroke:black;stroke-width:0.5;fill:url(#radialffffff666666)"/>
<circle cx="128.041210" cy="195.795728" r="7.227867" opacity="0.800738" style="stroke:black;stroke-width:0.5;fill:url(#radialffffffbfbfbf)"/>
<circle cx="107.493316" cy="64.714227" r="10.183516" opacity="0.950461" style="stroke:black;stroke-width:0.5;fill:url(#radialffffffbfbfbf)"/>
<circle cx="320.114998" cy="109.805438" r="10.597674" opacity="0.969596" style="stroke:black;stroke-width:0.5;fill:url(#radialffffffbfbfbf)"/>
<circle cx="240.196849" cy="119.057149" r="10.610543" opacity="0.970184" style="stroke:black;stroke-width:0.5;fill:url(#radialffffffbfbfbf)"/>
<circle cx="403.393301" cy="98.709188" r="10.638622" opacity="0.971467" style="stroke:black;stroke-width:0.5;fill:url(#radialffffffbfbfbf)"/>
<circle cx="160.891397" cy="130.217893" r="10.871439" opacity="0.982040" style="stroke:black;stroke-width:0.5;fill:url(#radialffffffbfbfbf)"/>
<circle cx="77.716284" cy="144.970971" r="11.272727" opacity="1.000000" style="stroke:black;stroke-width:0.5;fill:url(#radialffffffbfbfbf)"/>
</svg>
</g>
</svg>
