<?xml version="1.0"?>
<svg version="1.1" id="topsvg"
xmlns="http://www.w3.org/2000/svg" xmlns:xlink="http://www.w3.org/1999/xlink"
xmlns:cml="http://www.xml-cml.org/schema" x="0" y="0" width="200px" height="200px" viewBox="0 0 100 100">
<title>20492 - Open Babel Depiction</title>
<rect x="0" y="0" width="100" height="100" fill="white"/>
<defs>
<radialGradient id='radialffffff666666' cx='50%' cy='50%' r='50%' fx='30%' fy='30%'>
  <stop offset=' 0%' stop-color="rgb(255,255,255)"  stop-opacity='1.0'/>
  <stop offset='100%' stop-color="rgb(102,102,102)"  stop-opacity ='1.0'/>
</radialGradient>
<radialGradient id='radialffffffbfbfbf' cx='50%' cy='50%' r='50%' fx='30%' fy='30%'>
  <stop offset=' 0%' stop-color="rgb(255,255,255)"  stop-opacity='1.0'/>
  <stop offset='100%' stop-color="rgb(191,191,191)"  stop-opacity ='1.0'/>
</radialGradient>
</defs>
<g transform="translate(0,0)">
<svg width="100" height="100" x="0" y="0" viewBox="0 0 398.498 256.452"
font-family="sans-serif" stroke="rgb(0,0,0)" stroke-width="4"  stroke-linecap="round">
<line x1="208.9" y1="115.5" x2="163.0" y2="119.3" opacity="1.0" stroke="rgb(0,0,0)"  stroke-width="1.5"/>
<line x1="278.5" y1="148.2" x2="305.0" y2="187.7" opacity="0.5" stroke="rgb(0,0,0)"  stroke-width="1.5"/>
<line x1="297.4" y1="108.0" x2="344.7" y2="103.2" opacity="0.5" stroke="rgb(0,0,0)"  stroke-width="1.5"/>
<line x1="234.2" y1="151.9" x2="219.5" y2="183.3" opacity="0.5" stroke="rgb(0,0,0)"  stroke-width="1.5"/>
<line x1="227.8" y1="75.3" x2="208.5" y2="46.5" opacity="0.5" stroke="rgb(0,0,0)"  stroke-width="1.5"/>
<line x1="272.0" y1="71.6" x2="286.2" y2="40.0" opacity="0.5" stroke="rgb(0,0,0)"  stroke-width="1.5"/>
<line x1="305.0" y1="187.7" x2="325.1" y2="188.9" opacity="0.5" stroke="rgb(0,0,0)"  stroke-width="1.2"/>
<line x1="305.0" y1="187.7" x2="325.1" y2="188.9" opacity="0.4" stroke="rgb(0,0,0)"  stroke-width="1.8"/>
<line x1="305.0" y1="187.7" x2="285.3" y2="216.5" opacity="0.6" stroke="rgb(0,0,0)"  stroke-width="1.5"/>
<line x1="344.7" y1="103.2" x2="358.5" y2="117.8" opacity="0.5" stroke="rgb(0,0,0)"  stroke-width="1.2"/>
<line x1="344.7" y1="103.2" x2="354.2" y2="69.7" opacity="0.4" stroke="rgb(0,0,0)"  stroke-width="1.5"/>
<line x1="344.7" y1="103.2" x2="358.5" y2="117.8" opacity="0.5" stroke="rgb(0,0,0)"  stroke-width="1.8"/>
<line x1="140.8" y1="121.1" x2="157.6" y2="119.7" opacity="0.6" stroke="rgb(0,0,0)"  stroke-width="2.7"/>
<line x1="140.8" y1="121.2" x2="157.6" y2="119.8" opacity="0.9" stroke="rgb(0,0,0)"  stroke-width="0.4"/>
<line x1="96.6" y1="124.8" x2="79.4" y2="126.2" opacity="0.1" stroke="rgb(0,0,0)"  stroke-width="2.7"/>
<line x1="96.6" y1="124.8" x2="79.3" y2="126.3" opacity="0.9" stroke="rgb(0,0,0)"  stroke-width="0.4"/>
<line x1="74.5" y1="126.6" x2="40.0" y2="129.4" opacity="0.1" stroke="rgb(0,0,0)"  stroke-width="1.5"/>
<line x1="236.7" y1="150.2" x2="211.3" y2="113.8" opacity="0.5" stroke="rgb(0,0,0)"  stroke-width="1.5"/>
<line x1="231.8" y1="153.6" x2="206.4" y2="117.2" opacity="0.5" stroke="rgb(0,0,0)"  stroke-width="1.5" stroke-dasharray="5.0,5.0"/>
<line x1="211.6" y1="116.7" x2="230.5" y2="76.6" opacity="0.5" stroke="rgb(0,0,0)"  stroke-width="1.5"/>
<line x1="206.2" y1="114.2" x2="225.0" y2="74.0" opacity="0.5" stroke="rgb(0,0,0)"  stroke-width="1.5" stroke-dasharray="5.0,5.0"/>
<line x1="228.0" y1="78.3" x2="272.3" y2="74.5" opacity="0.5" stroke="rgb(0,0,0)"  stroke-width="1.5"/>
<line x1="227.5" y1="72.3" x2="271.8" y2="68.6" opacity="0.5" stroke="rgb(0,0,0)"  stroke-width="1.5" stroke-dasharray="5.0,5.0"/>
<line x1="269.5" y1="73.3" x2="294.9" y2="109.7" opacity="0.5" stroke="rgb(0,0,0)"  stroke-width="1.5"/>
<line x1="274.5" y1="69.8" x2="299.8" y2="106.3" opacity="0.5" stroke="rgb(0,0,0)"  stroke-width="1.5" stroke-dasharray="5.0,5.0"/>
<line x1="294.6" y1="106.7" x2="275.8" y2="146.9" opacity="0.5" stroke="rgb(0,0,0)"  stroke-width="1.5"/>
<line x1="300.1" y1="109.3" x2="281.2" y2="149.5" opacity="0.5" stroke="rgb(0,0,0)"  stroke-width="1.5" stroke-dasharray="5.0,5.0"/>
<line x1="278.2" y1="145.2" x2="234.0" y2="148.9" opacity="0.5" stroke="rgb(0,0,0)"  stroke-width="1.5"/>
<line x1="278.7" y1="151.2" x2="234.5" y2="154.9" opacity="0.5" stroke="rgb(0,0,0)"  stroke-width="1.5" stroke-dasharray="5.0,5.0"/>
<line x1="162.7" y1="116.3" x2="140.6" y2="118.2" opacity="0.4" stroke="rgb(0,0,0)"  stroke-width="1.1"/>
<line x1="163.2" y1="122.3" x2="141.1" y2="124.2" opacity="0.4" stroke="rgb(0,0,0)"  stroke-width="1.1" stroke-dasharray="5.0,5.0"/>
<line x1="140.6" y1="118.2" x2="96.3" y2="121.8" opacity="0.2" stroke="rgb(0,0,0)"  stroke-width="0.7"/>
<line x1="141.1" y1="124.2" x2="96.8" y2="127.8" opacity="0.2" stroke="rgb(0,0,0)"  stroke-width="0.7" stroke-dasharray="5.0,5.0"/>
<line x1="96.3" y1="121.8" x2="74.2" y2="123.6" opacity="0.4" stroke="rgb(0,0,0)"  stroke-width="1.1"/>
<line x1="96.8" y1="127.8" x2="74.7" y2="129.6" opacity="0.4" stroke="rgb(0,0,0)"  stroke-width="1.1" stroke-dasharray="5.0,5.0"/>
<line x1="74.7" y1="129.6" x2="96.8" y2="127.8" opacity="0.6" stroke="rgb(0,0,0)"  stroke-width="1.9"/>
<line x1="74.2" y1="123.6" x2="96.3" y2="121.8" opacity="0.6" stroke="rgb(0,0,0)"  stroke-width="1.9" stroke-dasharray="5.0,5.0"/>
<line x1="96.8" y1="127.8" x2="141.1" y2="124.1" opacity="0.8" stroke="rgb(0,0,0)"  stroke-width="2.3"/>
<line x1="96.3" y1="121.8" x2="140.6" y2="118.1" opacity="0.8" stroke="rgb(0,0,0)"  stroke-width="2.3" stroke-dasharray="5.0,5.0"/>
<line x1="141.1" y1="124.1" x2="163.2" y2="122.3" opacity="0.6" stroke="rgb(0,0,0)"  stroke-width="1.9"/>
<line x1="140.6" y1="118.1" x2="162.7" y2="116.3" opacity="0.6" stroke="rgb(0,0,0)"  stroke-width="1.9" stroke-dasharray="5.0,5.0"/>
<circle cx="157.587207" cy="119.802802" r="5.636364" opacity="0.200000" style="stroke:black;stroke-width:0.5;fill:url(#radialffffffbfbfbf)"/>
<circle cx="79.347480" cy="126.255662" r="5.636364" opacity="0.200000" style="stroke:black;stroke-width:0.5;fill:url(#radialffffffbfbfbf)"/>
<circle cx="140.839060" cy="121.171687" r="13.818182" opacity="0.469287" style="stroke:black;stroke-width:0.5;fill:url(#radialffffff666666)"/>
<circle cx="96.582695" cy="124.816741" r="13.818182" opacity="0.469361" style="stroke:black;stroke-width:0.5;fill:url(#radialffffff666666)"/>
<circle cx="358.498115" cy="117.832245" r="5.636364" opacity="0.541344" style="stroke:black;stroke-width:0.5;fill:url(#radialffffffbfbfbf)"/>
<circle cx="325.119609" cy="188.944220" r="5.636364" opacity="0.541665" style="stroke:black;stroke-width:0.5;fill:url(#radialffffffbfbfbf)"/>
<circle cx="208.455604" cy="46.541996" r="5.636364" opacity="0.706935" style="stroke:black;stroke-width:0.5;fill:url(#radialffffffbfbfbf)"/>
<circle cx="227.756880" cy="75.285394" r="13.818182" opacity="0.706984" style="stroke:black;stroke-width:0.5;fill:url(#radialffffff666666)"/>
<circle cx="208.866269" cy="115.470122" r="13.818182" opacity="0.707000" style="stroke:black;stroke-width:0.5;fill:url(#radialffffff666666)"/>
<circle cx="286.195528" cy="40.000000" r="5.636364" opacity="0.707017" style="stroke:black;stroke-width:0.5;fill:url(#radialffffffbfbfbf)"/>
<circle cx="272.003694" cy="71.551204" r="13.818182" opacity="0.707033" style="stroke:black;stroke-width:0.5;fill:url(#radialffffff666666)"/>
<circle cx="234.228840" cy="151.923844" r="13.818182" opacity="0.707082" style="stroke:black;stroke-width:0.5;fill:url(#radialffffff666666)"/>
<circle cx="162.967243" cy="119.318917" r="13.818182" opacity="0.707099" style="stroke:black;stroke-width:0.5;fill:url(#radialffffff666666)"/>
<circle cx="297.363082" cy="108.001742" r="13.818502" opacity="0.707115" style="stroke:black;stroke-width:0.5;fill:url(#radialffffff666666)"/>
<circle cx="278.472471" cy="148.186470" r="13.819142" opacity="0.707131" style="stroke:black;stroke-width:0.5;fill:url(#radialffffff666666)"/>
<circle cx="219.479902" cy="183.271306" r="5.636755" opacity="0.707131" style="stroke:black;stroke-width:0.5;fill:url(#radialffffffbfbfbf)"/>
<circle cx="344.666011" cy="103.207461" r="13.820422" opacity="0.707164" style="stroke:black;stroke-width:0.5;fill:url(#radialffffff666666)"/>
<circle cx="74.454513" cy="126.612208" r="13.820422" opacity="0.707164" style="stroke:black;stroke-width:0.5;fill:url(#radialffffff666666)"/>
<circle cx="285.329629" cy="216.452438" r="5.637539" opacity="0.707180" style="stroke:black;stroke-width:0.5;fill:url(#radialffffffbfbfbf)"/>
<circle cx="354.248205" cy="69.669783" r="5.637800" opacity="0.707197" style="stroke:black;stroke-width:0.5;fill:url(#radialffffffbfbfbf)"/>
<circle cx="40.000000" cy="129.445482" r="5.637800" opacity="0.707197" style="stroke:black;stroke-width:0.5;fill:url(#radialffffffbfbfbf)"/>
<circle cx="305.000186" cy="187.651738" r="13.825543" opacity="0.707295" style="stroke:black;stroke-width:0.5;fill:url(#radialffffff666666)"/>
<circle cx="358.488565" cy="117.838612" r="7.971043" opacity="0.840898" style="stroke:black;stroke-width:0.5;fill:url(#radialffffffbfbfbf)"/>
<circle cx="325.055940" cy="188.941036" r="7.974698" opacity="0.841090" style="stroke:black;stroke-width:0.5;fill:url(#radialffffffbfbfbf)"/>
<circle cx="140.842244" cy="121.117568" r="21.551281" opacity="0.883072" style="stroke:black;stroke-width:0.5;fill:url(#radialffffff666666)"/>
<circle cx="96.585879" cy="124.762622" r="21.551921" opacity="0.883085" style="stroke:black;stroke-width:0.5;fill:url(#radialffffff666666)"/>
<circle cx="79.357031" cy="126.156974" r="11.246878" opacity="0.998853" style="stroke:black;stroke-width:0.5;fill:url(#radialffffffbfbfbf)"/>
<circle cx="157.596757" cy="119.704115" r="11.272727" opacity="1.000000" style="stroke:black;stroke-width:0.5;fill:url(#radialffffffbfbfbf)"/>
</svg>
</g>
</svg>
