<?xml version="1.0"?>
<svg version="1.1" id="topsvg"
xmlns="http://www.w3.org/2000/svg" xmlns:xlink="http://www.w3.org/1999/xlink"
xmlns:cml="http://www.xml-cml.org/schema" x="0" y="0" width="1024px" height="1024px" viewBox="0 0 100 100">
<title>21278178 - Open Babel Depiction</title>
<rect x="0" y="0" width="100" height="100" fill="white"/>
<defs>
<radialGradient id='radialffffff666666' cx='50%' cy='50%' r='50%' fx='30%' fy='30%'>
  <stop offset=' 0%' stop-color="rgb(255,255,255)"  stop-opacity='1.0'/>
  <stop offset='100%' stop-color="rgb(102,102,102)"  stop-opacity ='1.0'/>
</radialGradient>
<radialGradient id='radialffffff7fb2ff' cx='50%' cy='50%' r='50%' fx='30%' fy='30%'>
  <stop offset=' 0%' stop-color="rgb(255,255,255)"  stop-opacity='1.0'/>
  <stop offset='100%' stop-color="rgb(127,178,255)"  stop-opacity ='1.0'/>
</radialGradient>
<radialGradient id='radialffffffbfbfbf' cx='50%' cy='50%' r='50%' fx='30%' fy='30%'>
  <stop offset=' 0%' stop-color="rgb(255,255,255)"  stop-opacity='1.0'/>
  <stop offset='100%' stop-color="rgb(191,191,191)"  stop-opacity ='1.0'/>
</radialGradient>
</defs>
<g transform="translate(0,0)">
<svg width="100" height="100" x="0" y="0" viewBox="0 0 468.387 163.989"
font-family="sans-serif" stroke="rgb(0,0,0)" stroke-width="2"  stroke-linecap="round">
<line x1="398.0" y1="53.5" x2="393.8" y2="76.6" opacity="1.0" stroke="rgb(0,0,0)"  stroke-width="2.2"/>
<line x1="428.4" y1="102.5" x2="393.8" y2="76.6" opacity="0.7" stroke="rgb(0,0,0)"  stroke-width="1.4"/>
<line x1="394.6" y1="49.0" x2="393.8" y2="76.6" opacity="0.5" stroke="rgb(0,0,0)"  stroke-width="0.7"/>
<line x1="231.1" y1="68.6" x2="270.6" y2="97.7" opacity="0.2" stroke="rgb(0,0,0)"  stroke-width="1.6"/>
<line x1="231.1" y1="68.6" x2="189.6" y2="94.8" opacity="0.5" stroke="rgb(0,0,0)"  stroke-width="1.5"/>
<line x1="231.1" y1="68.6" x2="231.1" y2="48.6" opacity="0.5" stroke="rgb(0,0,0)"  stroke-width="2.2"/>
<line x1="231.1" y1="68.6" x2="232.7" y2="46.8" opacity="0.7" stroke="rgb(0,0,0)"  stroke-width="1.0"/>
<line x1="270.6" y1="97.7" x2="313.1" y2="73.1" opacity="0.3" stroke="rgb(0,0,0)"  stroke-width="1.6"/>
<line x1="270.6" y1="97.7" x2="269.5" y2="118.8" opacity="0.5" stroke="rgb(0,0,0)"  stroke-width="1.0"/>
<line x1="270.6" y1="97.7" x2="269.5" y2="118.7" opacity="0.3" stroke="rgb(0,0,0)"  stroke-width="2.2"/>
<line x1="189.6" y1="94.8" x2="150.0" y2="65.7" opacity="0.7" stroke="rgb(0,0,0)"  stroke-width="1.5"/>
<line x1="189.6" y1="94.8" x2="188.3" y2="117.1" opacity="0.5" stroke="rgb(0,0,0)"  stroke-width="2.1"/>
<line x1="189.6" y1="94.8" x2="189.4" y2="114.1" opacity="0.7" stroke="rgb(0,0,0)"  stroke-width="0.8"/>
<line x1="313.1" y1="73.1" x2="352.5" y2="102.2" opacity="0.3" stroke="rgb(0,0,0)"  stroke-width="1.5"/>
<line x1="313.1" y1="73.1" x2="314.9" y2="53.1" opacity="0.5" stroke="rgb(0,0,0)"  stroke-width="2.2"/>
<line x1="313.1" y1="73.1" x2="313.4" y2="51.2" opacity="0.7" stroke="rgb(0,0,0)"  stroke-width="1.0"/>
<line x1="150.0" y1="65.7" x2="108.7" y2="91.8" opacity="0.3" stroke="rgb(0,0,0)"  stroke-width="1.4"/>
<line x1="150.0" y1="65.7" x2="151.6" y2="42.8" opacity="0.5" stroke="rgb(0,0,0)"  stroke-width="0.9"/>
<line x1="150.0" y1="65.7" x2="149.9" y2="46.9" opacity="0.3" stroke="rgb(0,0,0)"  stroke-width="2.1"/>
<line x1="352.5" y1="102.2" x2="393.8" y2="76.6" opacity="0.7" stroke="rgb(0,0,0)"  stroke-width="1.4"/>
<line x1="352.5" y1="102.2" x2="350.8" y2="122.2" opacity="0.5" stroke="rgb(0,0,0)"  stroke-width="0.8"/>
<line x1="352.5" y1="102.2" x2="352.8" y2="124.0" opacity="0.3" stroke="rgb(0,0,0)"  stroke-width="2.1"/>
<line x1="108.7" y1="91.8" x2="69.2" y2="63.1" opacity="0.7" stroke="rgb(0,0,0)"  stroke-width="1.4"/>
<line x1="108.7" y1="91.8" x2="107.1" y2="115.1" opacity="0.5" stroke="rgb(0,0,0)"  stroke-width="1.9"/>
<line x1="108.7" y1="91.8" x2="108.3" y2="110.0" opacity="0.6" stroke="rgb(0,0,0)"  stroke-width="0.7"/>
<line x1="69.2" y1="63.1" x2="69.2" y2="40.0" opacity="0.2" stroke="rgb(0,0,0)"  stroke-width="0.9"/>
<line x1="69.2" y1="63.1" x2="40.0" y2="82.4" opacity="0.3" stroke="rgb(0,0,0)"  stroke-width="1.4"/>
<line x1="69.2" y1="63.1" x2="68.1" y2="45.3" opacity="0.5" stroke="rgb(0,0,0)"  stroke-width="2.1"/>
<circle cx="394.563650" cy="48.962768" r="10.363636" opacity="0.200000" style="stroke:black;stroke-width:0.5;fill:url(#radialffffff7fb2ff)"/>
<circle cx="108.307013" cy="110.001371" r="5.636364" opacity="0.200000" style="stroke:black;stroke-width:0.5;fill:url(#radialffffffbfbfbf)"/>
<circle cx="189.443653" cy="114.128159" r="5.636364" opacity="0.259366" style="stroke:black;stroke-width:0.5;fill:url(#radialffffffbfbfbf)"/>
<circle cx="350.818409" cy="122.218077" r="5.636364" opacity="0.272685" style="stroke:black;stroke-width:0.5;fill:url(#radialffffffbfbfbf)"/>
<circle cx="69.227674" cy="40.000000" r="5.636364" opacity="0.318598" style="stroke:black;stroke-width:0.5;fill:url(#radialffffffbfbfbf)"/>
<circle cx="151.628664" cy="42.836766" r="5.636364" opacity="0.342472" style="stroke:black;stroke-width:0.5;fill:url(#radialffffffbfbfbf)"/>
<circle cx="269.479602" cy="118.778016" r="5.636364" opacity="0.344147" style="stroke:black;stroke-width:0.5;fill:url(#radialffffffbfbfbf)"/>
<circle cx="232.672243" cy="46.780641" r="5.636364" opacity="0.352078" style="stroke:black;stroke-width:0.5;fill:url(#radialffffffbfbfbf)"/>
<circle cx="313.391711" cy="51.164150" r="5.636364" opacity="0.354228" style="stroke:black;stroke-width:0.5;fill:url(#radialffffffbfbfbf)"/>
<circle cx="428.386628" cy="102.495494" r="10.363636" opacity="0.656789" style="stroke:black;stroke-width:0.5;fill:url(#radialffffff7fb2ff)"/>
<circle cx="40.000000" cy="82.439173" r="5.636364" opacity="0.668145" style="stroke:black;stroke-width:0.5;fill:url(#radialffffffbfbfbf)"/>
<circle cx="108.650377" cy="91.812695" r="13.818182" opacity="0.673734" style="stroke:black;stroke-width:0.5;fill:url(#radialffffff666666)"/>
<circle cx="393.787069" cy="76.640490" r="13.818182" opacity="0.691097" style="stroke:black;stroke-width:0.5;fill:url(#radialffffff666666)"/>
<circle cx="69.234092" cy="63.117717" r="13.818182" opacity="0.693390" style="stroke:black;stroke-width:0.5;fill:url(#radialffffff666666)"/>
<circle cx="352.503140" cy="102.248400" r="13.818182" opacity="0.699074" style="stroke:black;stroke-width:0.5;fill:url(#radialffffff666666)"/>
<circle cx="189.597685" cy="94.768195" r="13.818182" opacity="0.699106" style="stroke:black;stroke-width:0.5;fill:url(#radialffffff666666)"/>
<circle cx="150.049831" cy="65.707389" r="13.823904" opacity="0.707253" style="stroke:black;stroke-width:0.5;fill:url(#radialffffff666666)"/>
<circle cx="231.077364" cy="68.550573" r="14.363076" opacity="0.720914" style="stroke:black;stroke-width:0.5;fill:url(#radialffffff666666)"/>
<circle cx="313.080437" cy="73.113787" r="14.375792" opacity="0.721233" style="stroke:black;stroke-width:0.5;fill:url(#radialffffff666666)"/>
<circle cx="270.557829" cy="97.749366" r="14.455905" opacity="0.723240" style="stroke:black;stroke-width:0.5;fill:url(#radialffffff666666)"/>
<circle cx="107.145351" cy="115.145416" r="9.365498" opacity="0.911488" style="stroke:black;stroke-width:0.5;fill:url(#radialffffffbfbfbf)"/>
<circle cx="188.314081" cy="117.118958" r="9.899750" opacity="0.937125" style="stroke:black;stroke-width:0.5;fill:url(#radialffffffbfbfbf)"/>
<circle cx="352.801578" cy="123.989451" r="9.975998" opacity="0.940727" style="stroke:black;stroke-width:0.5;fill:url(#radialffffffbfbfbf)"/>
<circle cx="68.066012" cy="45.285241" r="10.308479" opacity="0.956275" style="stroke:black;stroke-width:0.5;fill:url(#radialffffffbfbfbf)"/>
<circle cx="149.892589" cy="46.902583" r="10.448007" opacity="0.962725" style="stroke:black;stroke-width:0.5;fill:url(#radialffffffbfbfbf)"/>
<circle cx="269.466765" cy="118.668910" r="10.469274" opacity="0.963704" style="stroke:black;stroke-width:0.5;fill:url(#radialffffffbfbfbf)"/>
<circle cx="314.867856" cy="53.118438" r="10.537741" opacity="0.966850" style="stroke:black;stroke-width:0.5;fill:url(#radialffffffbfbfbf)"/>
<circle cx="231.112663" cy="48.603359" r="10.544484" opacity="0.967160" style="stroke:black;stroke-width:0.5;fill:url(#radialffffffbfbfbf)"/>
<circle cx="398.000501" cy="53.503519" r="20.727273" opacity="1.000000" style="stroke:black;stroke-width:0.5;fill:url(#radialffffff7fb2ff)"/>
</svg>
</g>
</svg>
