<?xml version="1.0"?>
<svg version="1.1" id="topsvg"
xmlns="http://www.w3.org/2000/svg" xmlns:xlink="http://www.w3.org/1999/xlink"
xmlns:cml="http://www.xml-cml.org/schema" x="0" y="0" width="200px" height="200px" viewBox="0 0 100 100">
<title>21432609 - Open Babel Depiction</title>
<rect x="0" y="0" width="100" height="100" fill="white"/>
<defs>
<radialGradient id='radialffffff666666' cx='50%' cy='50%' r='50%' fx='30%' fy='30%'>
  <stop offset=' 0%' stop-color="rgb(255,255,255)"  stop-opacity='1.0'/>
  <stop offset='100%' stop-color="rgb(102,102,102)"  stop-opacity ='1.0'/>
</radialGradient>
<radialGradient id='radialffffffbfbfbf' cx='50%' cy='50%' r='50%' fx='30%' fy='30%'>
  <stop offset=' 0%' stop-color="rgb(255,255,255)"  stop-opacity='1.0'/>
  <stop offset='100%' stop-color="rgb(191,191,191)"  stop-opacity ='1.0'/>
</radialGradient>
</defs>
<g transform="translate(0,0)">
<svg width="100" height="100" x="0" y="0" viewBox="0 0 628.231 216.858"
font-family="sans-serif" stroke="rgb(0,0,0)" stroke-width="4"  stroke-linecap="round">
<line x1="145.4" y1="92.5" x2="187.4" y2="119.6" opacity="1.0" stroke="rgb(0,0,0)"  stroke-width="1.7"/>
<line x1="145.4" y1="92.5" x2="106.3" y2="122.9" opacity="0.6" stroke="rgb(0,0,0)"  stroke-width="1.9"/>
<line x1="145.4" y1="92.5" x2="137.2" y2="63.1" opacity="0.6" stroke="rgb(0,0,0)"  stroke-width="1.3"/>
<polygon points="145.383060 92.536971 146.007071 70.450986 153.830837 72.120918 " stroke-width="1.250762" fill="rgb(0,0,0)"  stroke="rgb(0,0,0)" />
<line x1="187.4" y1="119.6" x2="229.1" y2="93.5" opacity="0.4" stroke="rgb(0,0,0)"  stroke-width="1.7"/>
<line x1="187.4" y1="119.6" x2="187.2" y2="147.2" opacity="0.6" stroke="rgb(0,0,0)"  stroke-width="1.9"/>
<line x1="187.4" y1="119.6" x2="188.5" y2="133.4" opacity="0.6" stroke="rgb(0,0,0)"  stroke-width="1.2"/>
<line x1="106.3" y1="122.9" x2="96.3" y2="154.4" opacity="0.4" stroke="rgb(0,0,0)"  stroke-width="1.5"/>
<line x1="106.3" y1="122.9" x2="64.8" y2="98.6" opacity="0.5" stroke="rgb(0,0,0)"  stroke-width="2.2"/>
<line x1="106.3" y1="122.9" x2="115.6" y2="142.6" opacity="0.7" stroke="rgb(0,0,0)"  stroke-width="2.4"/>
<line x1="229.1" y1="93.5" x2="269.7" y2="121.2" opacity="0.8" stroke="rgb(0,0,0)"  stroke-width="1.7"/>
<line x1="229.1" y1="93.5" x2="229.4" y2="81.9" opacity="0.6" stroke="rgb(0,0,0)"  stroke-width="2.2"/>
<line x1="229.1" y1="93.5" x2="230.0" y2="64.8" opacity="0.7" stroke="rgb(0,0,0)"  stroke-width="1.5"/>
<line x1="269.7" y1="121.2" x2="311.3" y2="94.8" opacity="0.5" stroke="rgb(0,0,0)"  stroke-width="1.7"/>
<line x1="269.7" y1="121.2" x2="269.1" y2="133.5" opacity="0.6" stroke="rgb(0,0,0)"  stroke-width="1.2"/>
<line x1="269.7" y1="121.2" x2="269.6" y2="149.6" opacity="0.4" stroke="rgb(0,0,0)"  stroke-width="1.9"/>
<line x1="311.3" y1="94.8" x2="353.0" y2="121.2" opacity="0.6" stroke="rgb(0,0,0)"  stroke-width="1.7"/>
<line x1="311.3" y1="94.8" x2="311.5" y2="81.7" opacity="0.6" stroke="rgb(0,0,0)"  stroke-width="2.2"/>
<line x1="311.3" y1="94.8" x2="311.3" y2="66.8" opacity="0.7" stroke="rgb(0,0,0)"  stroke-width="1.5"/>
<line x1="353.0" y1="121.2" x2="394.6" y2="94.2" opacity="0.5" stroke="rgb(0,0,0)"  stroke-width="1.7"/>
<line x1="353.0" y1="121.2" x2="352.1" y2="135.6" opacity="0.6" stroke="rgb(0,0,0)"  stroke-width="1.2"/>
<line x1="353.0" y1="121.2" x2="353.7" y2="148.3" opacity="0.4" stroke="rgb(0,0,0)"  stroke-width="1.9"/>
<line x1="137.2" y1="63.1" x2="107.5" y2="43.8" opacity="0.6" stroke="rgb(0,0,0)"  stroke-width="0.8"/>
<line x1="137.2" y1="63.1" x2="164.0" y2="40.0" opacity="0.3" stroke="rgb(0,0,0)"  stroke-width="0.7"/>
<line x1="137.2" y1="63.1" x2="134.3" y2="81.8" opacity="0.2" stroke="rgb(0,0,0)"  stroke-width="0.4"/>
<line x1="394.6" y1="94.2" x2="435.1" y2="122.4" opacity="0.1" stroke="rgb(0,0,0)"  stroke-width="1.6"/>
<line x1="394.6" y1="94.2" x2="394.3" y2="67.5" opacity="0.5" stroke="rgb(0,0,0)"  stroke-width="1.4"/>
<line x1="394.6" y1="94.2" x2="395.7" y2="79.7" opacity="0.5" stroke="rgb(0,0,0)"  stroke-width="2.1"/>
<line x1="96.3" y1="154.4" x2="70.3" y2="176.9" opacity="0.7" stroke="rgb(0,0,0)"  stroke-width="1.2"/>
<line x1="96.3" y1="154.4" x2="124.5" y2="174.2" opacity="0.4" stroke="rgb(0,0,0)"  stroke-width="1.0"/>
<line x1="96.3" y1="154.4" x2="85.3" y2="137.2" opacity="0.3" stroke="rgb(0,0,0)"  stroke-width="0.7"/>
<line x1="64.8" y1="98.6" x2="71.4" y2="75.4" opacity="0.2" stroke="rgb(0,0,0)"  stroke-width="2.7"/>
<line x1="64.8" y1="98.6" x2="40.0" y2="121.5" opacity="0.9" stroke="rgb(0,0,0)"  stroke-width="2.5"/>
<line x1="64.8" y1="98.6" x2="50.8" y2="80.7" opacity="0.8" stroke="rgb(0,0,0)"  stroke-width="2.0"/>
<line x1="435.1" y1="122.4" x2="477.8" y2="97.3" opacity="0.7" stroke="rgb(0,0,0)"  stroke-width="1.6"/>
<line x1="435.1" y1="122.4" x2="434.7" y2="149.4" opacity="0.5" stroke="rgb(0,0,0)"  stroke-width="1.8"/>
<line x1="435.1" y1="122.4" x2="433.9" y2="136.9" opacity="0.6" stroke="rgb(0,0,0)"  stroke-width="1.1"/>
<line x1="477.8" y1="97.3" x2="518.3" y2="125.9" opacity="0.4" stroke="rgb(0,0,0)"  stroke-width="1.6"/>
<line x1="477.8" y1="97.3" x2="478.2" y2="81.6" opacity="0.5" stroke="rgb(0,0,0)"  stroke-width="2.1"/>
<line x1="477.8" y1="97.3" x2="479.0" y2="71.0" opacity="0.7" stroke="rgb(0,0,0)"  stroke-width="1.4"/>
<line x1="518.3" y1="125.9" x2="559.7" y2="99.9" opacity="0.5" stroke="rgb(0,0,0)"  stroke-width="1.6"/>
<line x1="518.3" y1="125.9" x2="516.8" y2="152.7" opacity="0.5" stroke="rgb(0,0,0)"  stroke-width="1.8"/>
<line x1="518.3" y1="125.9" x2="519.1" y2="140.3" opacity="0.6" stroke="rgb(0,0,0)"  stroke-width="1.1"/>
<line x1="559.7" y1="99.9" x2="560.2" y2="86.1" opacity="0.4" stroke="rgb(0,0,0)"  stroke-width="2.2"/>
<line x1="559.7" y1="99.9" x2="588.2" y2="120.9" opacity="0.7" stroke="rgb(0,0,0)"  stroke-width="1.7"/>
<line x1="559.7" y1="99.9" x2="562.6" y2="73.2" opacity="0.6" stroke="rgb(0,0,0)"  stroke-width="1.4"/>
<circle cx="134.316651" cy="81.799203" r="5.636364" opacity="0.200000" style="stroke:black;stroke-width:0.5;fill:url(#radialffffffbfbfbf)"/>
<circle cx="85.284097" cy="137.245134" r="5.636364" opacity="0.340074" style="stroke:black;stroke-width:0.5;fill:url(#radialffffffbfbfbf)"/>
<circle cx="163.975669" cy="40.000000" r="5.636364" opacity="0.464803" style="stroke:black;stroke-width:0.5;fill:url(#radialffffffbfbfbf)"/>
<circle cx="433.932923" cy="136.864431" r="5.636364" opacity="0.490013" style="stroke:black;stroke-width:0.5;fill:url(#radialffffffbfbfbf)"/>
<circle cx="519.141995" cy="140.251709" r="5.636364" opacity="0.493608" style="stroke:black;stroke-width:0.5;fill:url(#radialffffffbfbfbf)"/>
<circle cx="269.056119" cy="133.486915" r="5.636364" opacity="0.501697" style="stroke:black;stroke-width:0.5;fill:url(#radialffffffbfbfbf)"/>
<circle cx="137.189818" cy="63.079694" r="13.818182" opacity="0.502049" style="stroke:black;stroke-width:0.5;fill:url(#radialffffff666666)"/>
<circle cx="188.529365" cy="133.402314" r="5.636364" opacity="0.508215" style="stroke:black;stroke-width:0.5;fill:url(#radialffffffbfbfbf)"/>
<circle cx="352.127399" cy="135.640976" r="5.636364" opacity="0.508696" style="stroke:black;stroke-width:0.5;fill:url(#radialffffffbfbfbf)"/>
<circle cx="107.530800" cy="43.829804" r="5.636364" opacity="0.534839" style="stroke:black;stroke-width:0.5;fill:url(#radialffffffbfbfbf)"/>
<circle cx="124.532267" cy="174.248134" r="5.636364" opacity="0.536869" style="stroke:black;stroke-width:0.5;fill:url(#radialffffffbfbfbf)"/>
<circle cx="478.959965" cy="71.045166" r="5.636364" opacity="0.594312" style="stroke:black;stroke-width:0.5;fill:url(#radialffffffbfbfbf)"/>
<circle cx="96.282175" cy="154.373501" r="13.818182" opacity="0.599915" style="stroke:black;stroke-width:0.5;fill:url(#radialffffff666666)"/>
<circle cx="394.349605" cy="67.469163" r="5.636364" opacity="0.612100" style="stroke:black;stroke-width:0.5;fill:url(#radialffffffbfbfbf)"/>
<circle cx="562.551863" cy="73.225258" r="5.636364" opacity="0.620091" style="stroke:black;stroke-width:0.5;fill:url(#radialffffffbfbfbf)"/>
<circle cx="311.333641" cy="66.808628" r="5.636364" opacity="0.637480" style="stroke:black;stroke-width:0.5;fill:url(#radialffffffbfbfbf)"/>
<circle cx="229.960881" cy="64.794483" r="5.636364" opacity="0.653617" style="stroke:black;stroke-width:0.5;fill:url(#radialffffffbfbfbf)"/>
<circle cx="70.273999" cy="176.857737" r="5.636364" opacity="0.662688" style="stroke:black;stroke-width:0.5;fill:url(#radialffffffbfbfbf)"/>
<circle cx="435.084793" cy="122.387967" r="14.169218" opacity="0.716032" style="stroke:black;stroke-width:0.5;fill:url(#radialffffff666666)"/>
<circle cx="518.260196" cy="125.863099" r="14.269191" opacity="0.718554" style="stroke:black;stroke-width:0.5;fill:url(#radialffffff666666)"/>
<circle cx="352.973405" cy="121.210066" r="14.691637" opacity="0.729113" style="stroke:black;stroke-width:0.5;fill:url(#radialffffff666666)"/>
<circle cx="269.684116" cy="121.197051" r="14.693892" opacity="0.729169" style="stroke:black;stroke-width:0.5;fill:url(#radialffffff666666)"/>
<circle cx="187.419796" cy="119.599401" r="14.738241" opacity="0.730268" style="stroke:black;stroke-width:0.5;fill:url(#radialffffff666666)"/>
<circle cx="588.231399" cy="120.881426" r="6.205120" opacity="0.741926" style="stroke:black;stroke-width:0.5;fill:url(#radialffffffbfbfbf)"/>
<circle cx="50.776815" cy="80.689634" r="6.215545" opacity="0.742549" style="stroke:black;stroke-width:0.5;fill:url(#radialffffffbfbfbf)"/>
<circle cx="477.817857" cy="97.264843" r="15.351614" opacity="0.745309" style="stroke:black;stroke-width:0.5;fill:url(#radialffffff666666)"/>
<circle cx="394.587137" cy="94.245253" r="15.801121" opacity="0.756142" style="stroke:black;stroke-width:0.5;fill:url(#radialffffff666666)"/>
<circle cx="559.688458" cy="99.890716" r="16.041659" opacity="0.761876" style="stroke:black;stroke-width:0.5;fill:url(#radialffffff666666)"/>
<circle cx="145.383060" cy="92.536971" r="16.078491" opacity="0.762750" style="stroke:black;stroke-width:0.5;fill:url(#radialffffff666666)"/>
<circle cx="311.314118" cy="94.821188" r="16.344587" opacity="0.769036" style="stroke:black;stroke-width:0.5;fill:url(#radialffffff666666)"/>
<circle cx="229.124637" cy="93.532655" r="16.675328" opacity="0.776778" style="stroke:black;stroke-width:0.5;fill:url(#radialffffff666666)"/>
<circle cx="106.278061" cy="122.895571" r="18.582346" opacity="0.819992" style="stroke:black;stroke-width:0.5;fill:url(#radialffffff666666)"/>
<circle cx="434.694329" cy="149.443889" r="7.974552" opacity="0.841083" style="stroke:black;stroke-width:0.5;fill:url(#radialffffffbfbfbf)"/>
<circle cx="516.835002" cy="152.749820" r="8.024529" opacity="0.843714" style="stroke:black;stroke-width:0.5;fill:url(#radialffffffbfbfbf)"/>
<circle cx="269.641816" cy="149.557774" r="8.033727" opacity="0.844197" style="stroke:black;stroke-width:0.5;fill:url(#radialffffffbfbfbf)"/>
<circle cx="187.192025" cy="147.156419" r="8.152077" opacity="0.850393" style="stroke:black;stroke-width:0.5;fill:url(#radialffffffbfbfbf)"/>
<circle cx="353.653463" cy="148.314796" r="8.180592" opacity="0.851879" style="stroke:black;stroke-width:0.5;fill:url(#radialffffffbfbfbf)"/>
<circle cx="64.752183" cy="98.602183" r="21.571788" opacity="0.883492" style="stroke:black;stroke-width:0.5;fill:url(#radialffffff666666)"/>
<circle cx="149.918954" cy="71.285952" r="9.233482" opacity="0.905041" style="stroke:black;stroke-width:0.5;fill:url(#radialffffffbfbfbf)"/>
<circle cx="478.218082" cy="81.639764" r="9.286831" opacity="0.907652" style="stroke:black;stroke-width:0.5;fill:url(#radialffffffbfbfbf)"/>
<circle cx="395.660914" cy="79.661411" r="9.511574" opacity="0.918569" style="stroke:black;stroke-width:0.5;fill:url(#radialffffffbfbfbf)"/>
<circle cx="560.205824" cy="86.055264" r="9.636057" opacity="0.924560" style="stroke:black;stroke-width:0.5;fill:url(#radialffffffbfbfbf)"/>
<circle cx="311.476811" cy="81.698333" r="9.795186" opacity="0.932163" style="stroke:black;stroke-width:0.5;fill:url(#radialffffffbfbfbf)"/>
<circle cx="40.000000" cy="121.450853" r="9.897900" opacity="0.937038" style="stroke:black;stroke-width:0.5;fill:url(#radialffffffbfbfbf)"/>
<circle cx="229.368677" cy="81.893565" r="9.979764" opacity="0.940905" style="stroke:black;stroke-width:0.5;fill:url(#radialffffffbfbfbf)"/>
<circle cx="115.610158" cy="142.614018" r="10.248352" opacity="0.953482" style="stroke:black;stroke-width:0.5;fill:url(#radialffffffbfbfbf)"/>
<circle cx="71.364045" cy="75.447651" r="11.272727" opacity="1.000000" style="stroke:black;stroke-width:0.5;fill:url(#radialffffffbfbfbf)"/>
</svg>
</g>
</svg>
