<?xml version="1.0"?>
<svg version="1.1" id="topsvg"
xmlns="http://www.w3.org/2000/svg" xmlns:xlink="http://www.w3.org/1999/xlink"
xmlns:cml="http://www.xml-cml.org/schema" x="0" y="0" width="200px" height="200px" viewBox="0 0 100 100">
<title>22327 - Open Babel Depiction</title>
<rect x="0" y="0" width="100" height="100" fill="white"/>
<defs>
<radialGradient id='radialffffff666666' cx='50%' cy='50%' r='50%' fx='30%' fy='30%'>
  <stop offset=' 0%' stop-color="rgb(255,255,255)"  stop-opacity='1.0'/>
  <stop offset='100%' stop-color="rgb(102,102,102)"  stop-opacity ='1.0'/>
</radialGradient>
<radialGradient id='radialffffffbfbfbf' cx='50%' cy='50%' r='50%' fx='30%' fy='30%'>
  <stop offset=' 0%' stop-color="rgb(255,255,255)"  stop-opacity='1.0'/>
  <stop offset='100%' stop-color="rgb(191,191,191)"  stop-opacity ='1.0'/>
</radialGradient>
</defs>
<g transform="translate(0,0)">
<svg width="100" height="100" x="0" y="0" viewBox="0 0 758.617 233.406"
font-family="sans-serif" stroke="rgb(0,0,0)" stroke-width="4"  stroke-linecap="round">
<line x1="158.8" y1="132.3" x2="200.8" y2="152.0" opacity="1.0" stroke="rgb(0,0,0)"  stroke-width="1.5"/>
<line x1="158.8" y1="132.3" x2="161.9" y2="126.2" opacity="0.5" stroke="rgb(0,0,0)"  stroke-width="0.8"/>
<line x1="121.1" y1="163.7" x2="126.9" y2="193.4" opacity="0.3" stroke="rgb(0,0,0)"  stroke-width="1.2"/>
<line x1="121.1" y1="163.7" x2="118.6" y2="172.8" opacity="0.4" stroke="rgb(0,0,0)"  stroke-width="2.0"/>
<line x1="149.7" y1="89.2" x2="148.9" y2="93.9" opacity="0.7" stroke="rgb(0,0,0)"  stroke-width="2.5"/>
<line x1="149.7" y1="89.2" x2="175.4" y2="65.8" opacity="0.8" stroke="rgb(0,0,0)"  stroke-width="1.9"/>
<line x1="200.8" y1="152.0" x2="240.1" y2="128.6" opacity="0.6" stroke="rgb(0,0,0)"  stroke-width="1.5"/>
<line x1="200.8" y1="152.0" x2="201.7" y2="151.5" opacity="0.5" stroke="rgb(0,0,0)"  stroke-width="2.3"/>
<line x1="200.8" y1="152.0" x2="202.7" y2="186.0" opacity="0.8" stroke="rgb(0,0,0)"  stroke-width="1.6"/>
<line x1="78.4" y1="144.0" x2="79.1" y2="139.1" opacity="0.5" stroke="rgb(0,0,0)"  stroke-width="0.5"/>
<line x1="78.4" y1="144.0" x2="52.0" y2="166.4" opacity="0.2" stroke="rgb(0,0,0)"  stroke-width="1.1"/>
<line x1="107.0" y1="69.6" x2="100.7" y2="40.0" opacity="0.4" stroke="rgb(0,0,0)"  stroke-width="1.8"/>
<line x1="107.0" y1="69.6" x2="109.4" y2="60.4" opacity="0.6" stroke="rgb(0,0,0)"  stroke-width="1.0"/>
<line x1="69.7" y1="101.0" x2="64.4" y2="106.5" opacity="0.3" stroke="rgb(0,0,0)"  stroke-width="2.2"/>
<line x1="69.7" y1="101.0" x2="40.0" y2="86.8" opacity="0.7" stroke="rgb(0,0,0)"  stroke-width="1.5"/>
<line x1="240.1" y1="128.6" x2="283.0" y2="145.7" opacity="0.5" stroke="rgb(0,0,0)"  stroke-width="1.5"/>
<line x1="240.1" y1="128.6" x2="239.9" y2="131.5" opacity="0.5" stroke="rgb(0,0,0)"  stroke-width="0.7"/>
<line x1="240.1" y1="128.6" x2="238.4" y2="94.1" opacity="0.2" stroke="rgb(0,0,0)"  stroke-width="1.3"/>
<line x1="283.0" y1="145.7" x2="322.4" y2="122.8" opacity="0.4" stroke="rgb(0,0,0)"  stroke-width="1.5"/>
<line x1="283.0" y1="145.7" x2="283.4" y2="142.3" opacity="0.5" stroke="rgb(0,0,0)"  stroke-width="2.3"/>
<line x1="283.0" y1="145.7" x2="285.2" y2="180.3" opacity="0.8" stroke="rgb(0,0,0)"  stroke-width="1.6"/>
<line x1="322.4" y1="122.8" x2="364.3" y2="141.9" opacity="0.5" stroke="rgb(0,0,0)"  stroke-width="1.4"/>
<line x1="322.4" y1="122.8" x2="320.9" y2="88.3" opacity="0.5" stroke="rgb(0,0,0)"  stroke-width="1.3"/>
<line x1="322.4" y1="122.8" x2="322.0" y2="125.9" opacity="0.4" stroke="rgb(0,0,0)"  stroke-width="0.7"/>
<line x1="364.3" y1="141.9" x2="404.9" y2="120.4" opacity="0.2" stroke="rgb(0,0,0)"  stroke-width="1.4"/>
<line x1="364.3" y1="141.9" x2="364.5" y2="138.9" opacity="0.5" stroke="rgb(0,0,0)"  stroke-width="2.2"/>
<line x1="364.3" y1="141.9" x2="365.4" y2="176.5" opacity="0.7" stroke="rgb(0,0,0)"  stroke-width="1.6"/>
<line x1="404.9" y1="120.4" x2="446.8" y2="140.0" opacity="0.5" stroke="rgb(0,0,0)"  stroke-width="1.4"/>
<line x1="404.9" y1="120.4" x2="404.4" y2="123.0" opacity="0.5" stroke="rgb(0,0,0)"  stroke-width="0.6"/>
<line x1="404.9" y1="120.4" x2="404.0" y2="85.9" opacity="0.2" stroke="rgb(0,0,0)"  stroke-width="1.3"/>
<line x1="446.8" y1="140.0" x2="486.2" y2="116.9" opacity="0.4" stroke="rgb(0,0,0)"  stroke-width="1.4"/>
<line x1="446.8" y1="140.0" x2="447.3" y2="137.7" opacity="0.5" stroke="rgb(0,0,0)"  stroke-width="2.2"/>
<line x1="446.8" y1="140.0" x2="448.1" y2="174.3" opacity="0.7" stroke="rgb(0,0,0)"  stroke-width="1.6"/>
<line x1="486.2" y1="116.9" x2="528.1" y2="135.6" opacity="0.5" stroke="rgb(0,0,0)"  stroke-width="1.4"/>
<line x1="486.2" y1="116.9" x2="484.5" y2="82.4" opacity="0.5" stroke="rgb(0,0,0)"  stroke-width="1.2"/>
<line x1="486.2" y1="116.9" x2="486.1" y2="119.8" opacity="0.4" stroke="rgb(0,0,0)"  stroke-width="0.6"/>
<line x1="528.1" y1="135.6" x2="568.6" y2="113.2" opacity="0.2" stroke="rgb(0,0,0)"  stroke-width="1.4"/>
<line x1="528.1" y1="135.6" x2="529.9" y2="170.1" opacity="0.5" stroke="rgb(0,0,0)"  stroke-width="1.5"/>
<line x1="528.1" y1="135.6" x2="527.6" y2="133.1" opacity="0.5" stroke="rgb(0,0,0)"  stroke-width="2.2"/>
<line x1="568.6" y1="113.2" x2="610.4" y2="130.3" opacity="0.7" stroke="rgb(0,0,0)"  stroke-width="1.4"/>
<line x1="568.6" y1="113.2" x2="566.1" y2="78.5" opacity="0.5" stroke="rgb(0,0,0)"  stroke-width="1.2"/>
<line x1="568.6" y1="113.2" x2="569.9" y2="116.8" opacity="0.4" stroke="rgb(0,0,0)"  stroke-width="0.6"/>
<line x1="610.4" y1="130.3" x2="649.6" y2="105.2" opacity="0.2" stroke="rgb(0,0,0)"  stroke-width="1.5"/>
<line x1="610.4" y1="130.3" x2="608.6" y2="127.7" opacity="0.5" stroke="rgb(0,0,0)"  stroke-width="2.3"/>
<line x1="610.4" y1="130.3" x2="614.0" y2="164.6" opacity="0.8" stroke="rgb(0,0,0)"  stroke-width="1.6"/>
<line x1="649.6" y1="105.2" x2="691.1" y2="121.3" opacity="0.5" stroke="rgb(0,0,0)"  stroke-width="1.6"/>
<line x1="649.6" y1="105.2" x2="651.9" y2="108.4" opacity="0.5" stroke="rgb(0,0,0)"  stroke-width="0.7"/>
<line x1="649.6" y1="105.2" x2="645.7" y2="70.8" opacity="0.2" stroke="rgb(0,0,0)"  stroke-width="1.4"/>
<line x1="691.1" y1="121.3" x2="696.4" y2="155.4" opacity="0.5" stroke="rgb(0,0,0)"  stroke-width="1.7"/>
<line x1="691.1" y1="121.3" x2="690.1" y2="117.5" opacity="0.6" stroke="rgb(0,0,0)"  stroke-width="2.4"/>
<line x1="691.1" y1="121.3" x2="718.6" y2="103.0" opacity="0.8" stroke="rgb(0,0,0)"  stroke-width="1.7"/>
<line x1="121.1" y1="163.7" x2="158.8" y2="132.3" opacity="0.6" stroke="rgb(0,0,0)"  stroke-width="1.4"/>
<line x1="158.8" y1="132.3" x2="149.7" y2="89.2" opacity="0.5" stroke="rgb(0,0,0)"  stroke-width="1.6"/>
<line x1="149.7" y1="89.2" x2="107.0" y2="69.6" opacity="0.5" stroke="rgb(0,0,0)"  stroke-width="1.7"/>
<line x1="107.0" y1="69.6" x2="69.7" y2="101.0" opacity="0.6" stroke="rgb(0,0,0)"  stroke-width="1.6"/>
<line x1="69.7" y1="101.0" x2="78.4" y2="144.0" opacity="0.5" stroke="rgb(0,0,0)"  stroke-width="1.4"/>
<line x1="78.4" y1="144.0" x2="121.1" y2="163.7" opacity="0.5" stroke="rgb(0,0,0)"  stroke-width="1.3"/>
<circle cx="79.104264" cy="139.141929" r="5.636364" opacity="0.200000" style="stroke:black;stroke-width:0.5;fill:url(#radialffffffbfbfbf)"/>
<circle cx="486.148351" cy="119.762254" r="5.636364" opacity="0.200000" style="stroke:black;stroke-width:0.5;fill:url(#radialffffffbfbfbf)"/>
<circle cx="569.949650" cy="116.809529" r="5.636364" opacity="0.200000" style="stroke:black;stroke-width:0.5;fill:url(#radialffffffbfbfbf)"/>
<circle cx="404.390751" cy="122.969636" r="5.636364" opacity="0.200000" style="stroke:black;stroke-width:0.5;fill:url(#radialffffffbfbfbf)"/>
<circle cx="321.952993" cy="125.861114" r="5.636364" opacity="0.212830" style="stroke:black;stroke-width:0.5;fill:url(#radialffffffbfbfbf)"/>
<circle cx="239.898831" cy="131.540919" r="5.636364" opacity="0.248893" style="stroke:black;stroke-width:0.5;fill:url(#radialffffffbfbfbf)"/>
<circle cx="651.932894" cy="108.389751" r="5.636364" opacity="0.260846" style="stroke:black;stroke-width:0.5;fill:url(#radialffffffbfbfbf)"/>
<circle cx="161.867596" cy="126.244710" r="5.636364" opacity="0.292930" style="stroke:black;stroke-width:0.5;fill:url(#radialffffffbfbfbf)"/>
<circle cx="109.385812" cy="60.446653" r="5.636364" opacity="0.413148" style="stroke:black;stroke-width:0.5;fill:url(#radialffffffbfbfbf)"/>
<circle cx="126.928092" cy="193.406308" r="5.636364" opacity="0.558087" style="stroke:black;stroke-width:0.5;fill:url(#radialffffffbfbfbf)"/>
<circle cx="78.414435" cy="143.964283" r="13.818182" opacity="0.588712" style="stroke:black;stroke-width:0.5;fill:url(#radialffffff666666)"/>
<circle cx="486.209598" cy="116.854658" r="13.818182" opacity="0.610315" style="stroke:black;stroke-width:0.5;fill:url(#radialffffff666666)"/>
<circle cx="568.621568" cy="113.154082" r="13.818182" opacity="0.617873" style="stroke:black;stroke-width:0.5;fill:url(#radialffffff666666)"/>
<circle cx="404.861382" cy="120.413401" r="13.818182" opacity="0.623295" style="stroke:black;stroke-width:0.5;fill:url(#radialffffff666666)"/>
<circle cx="322.372048" cy="122.827802" r="13.818182" opacity="0.627503" style="stroke:black;stroke-width:0.5;fill:url(#radialffffff666666)"/>
<circle cx="240.063229" cy="128.633323" r="13.818182" opacity="0.640908" style="stroke:black;stroke-width:0.5;fill:url(#radialffffff666666)"/>
<circle cx="52.013980" cy="166.438517" r="5.636364" opacity="0.643069" style="stroke:black;stroke-width:0.5;fill:url(#radialffffffbfbfbf)"/>
<circle cx="649.550729" cy="105.227498" r="13.818182" opacity="0.644605" style="stroke:black;stroke-width:0.5;fill:url(#radialffffff666666)"/>
<circle cx="158.789154" cy="132.272653" r="13.818182" opacity="0.655669" style="stroke:black;stroke-width:0.5;fill:url(#radialffffff666666)"/>
<circle cx="40.000000" cy="86.776191" r="5.636364" opacity="0.663336" style="stroke:black;stroke-width:0.5;fill:url(#radialffffffbfbfbf)"/>
<circle cx="566.078227" cy="78.488576" r="5.636364" opacity="0.668270" style="stroke:black;stroke-width:0.5;fill:url(#radialffffffbfbfbf)"/>
<circle cx="484.504367" cy="82.379339" r="5.636364" opacity="0.669439" style="stroke:black;stroke-width:0.5;fill:url(#radialffffffbfbfbf)"/>
<circle cx="404.042613" cy="85.912293" r="5.636364" opacity="0.681926" style="stroke:black;stroke-width:0.5;fill:url(#radialffffffbfbfbf)"/>
<circle cx="320.853780" cy="88.333141" r="5.636364" opacity="0.684447" style="stroke:black;stroke-width:0.5;fill:url(#radialffffffbfbfbf)"/>
<circle cx="529.875112" cy="170.052059" r="5.636364" opacity="0.688698" style="stroke:black;stroke-width:0.5;fill:url(#radialffffffbfbfbf)"/>
<circle cx="448.088501" cy="174.313524" r="5.636364" opacity="0.689878" style="stroke:black;stroke-width:0.5;fill:url(#radialffffffbfbfbf)"/>
<circle cx="238.412798" cy="94.148333" r="5.636364" opacity="0.695244" style="stroke:black;stroke-width:0.5;fill:url(#radialffffffbfbfbf)"/>
<circle cx="645.688977" cy="70.842437" r="5.636364" opacity="0.697512" style="stroke:black;stroke-width:0.5;fill:url(#radialffffffbfbfbf)"/>
<circle cx="121.074218" cy="163.672755" r="13.818182" opacity="0.701115" style="stroke:black;stroke-width:0.5;fill:url(#radialffffff666666)"/>
<circle cx="202.664196" cy="185.998708" r="5.636364" opacity="0.704700" style="stroke:black;stroke-width:0.5;fill:url(#radialffffffbfbfbf)"/>
<circle cx="365.376745" cy="176.463598" r="5.636364" opacity="0.704949" style="stroke:black;stroke-width:0.5;fill:url(#radialffffffbfbfbf)"/>
<circle cx="718.617414" cy="102.954932" r="5.636364" opacity="0.705289" style="stroke:black;stroke-width:0.5;fill:url(#radialffffffbfbfbf)"/>
<circle cx="613.995537" cy="164.597899" r="5.651646" opacity="0.708065" style="stroke:black;stroke-width:0.5;fill:url(#radialffffffbfbfbf)"/>
<circle cx="107.035881" cy="69.604613" r="14.036371" opacity="0.712668" style="stroke:black;stroke-width:0.5;fill:url(#radialffffff666666)"/>
<circle cx="285.205107" cy="180.338244" r="5.788649" opacity="0.716596" style="stroke:black;stroke-width:0.5;fill:url(#radialffffffbfbfbf)"/>
<circle cx="696.433295" cy="155.365799" r="6.153272" opacity="0.738820" style="stroke:black;stroke-width:0.5;fill:url(#radialffffffbfbfbf)"/>
<circle cx="528.121529" cy="135.596080" r="15.229136" opacity="0.742330" style="stroke:black;stroke-width:0.5;fill:url(#radialffffff666666)"/>
<circle cx="446.805548" cy="139.967145" r="15.410740" opacity="0.746743" style="stroke:black;stroke-width:0.5;fill:url(#radialffffff666666)"/>
<circle cx="69.669083" cy="101.011162" r="15.670803" opacity="0.753018" style="stroke:black;stroke-width:0.5;fill:url(#radialffffff666666)"/>
<circle cx="364.319438" cy="141.869009" r="15.726342" opacity="0.754351" style="stroke:black;stroke-width:0.5;fill:url(#radialffffff666666)"/>
<circle cx="610.407783" cy="130.299872" r="15.976708" opacity="0.760332" style="stroke:black;stroke-width:0.5;fill:url(#radialffffff666666)"/>
<circle cx="283.013127" cy="145.727537" r="16.090431" opacity="0.763033" style="stroke:black;stroke-width:0.5;fill:url(#radialffffff666666)"/>
<circle cx="175.383726" cy="65.836343" r="6.631164" opacity="0.766974" style="stroke:black;stroke-width:0.5;fill:url(#radialffffffbfbfbf)"/>
<circle cx="200.775226" cy="152.039148" r="16.383112" opacity="0.769942" style="stroke:black;stroke-width:0.5;fill:url(#radialffffff666666)"/>
<circle cx="691.059723" cy="121.274075" r="17.094540" opacity="0.786481" style="stroke:black;stroke-width:0.5;fill:url(#radialffffff666666)"/>
<circle cx="149.747240" cy="89.184145" r="18.049281" opacity="0.808145" style="stroke:black;stroke-width:0.5;fill:url(#radialffffff666666)"/>
<circle cx="100.669471" cy="40.000000" r="7.754877" opacity="0.829417" style="stroke:black;stroke-width:0.5;fill:url(#radialffffffbfbfbf)"/>
<circle cx="118.582454" cy="172.837162" r="9.343537" opacity="0.910419" style="stroke:black;stroke-width:0.5;fill:url(#radialffffffbfbfbf)"/>
<circle cx="527.647675" cy="133.101092" r="10.147217" opacity="0.948766" style="stroke:black;stroke-width:0.5;fill:url(#radialffffffbfbfbf)"/>
<circle cx="447.301967" cy="137.665567" r="10.220572" opacity="0.952189" style="stroke:black;stroke-width:0.5;fill:url(#radialffffffbfbfbf)"/>
<circle cx="64.359980" cy="106.533015" r="10.242867" opacity="0.953227" style="stroke:black;stroke-width:0.5;fill:url(#radialffffffbfbfbf)"/>
<circle cx="364.548306" cy="138.855038" r="10.345350" opacity="0.957984" style="stroke:black;stroke-width:0.5;fill:url(#radialffffffbfbfbf)"/>
<circle cx="608.641306" cy="127.695285" r="10.444955" opacity="0.962584" style="stroke:black;stroke-width:0.5;fill:url(#radialffffffbfbfbf)"/>
<circle cx="283.445076" cy="142.336416" r="10.489544" opacity="0.964637" style="stroke:black;stroke-width:0.5;fill:url(#radialffffffbfbfbf)"/>
<circle cx="201.713264" cy="151.549176" r="10.625109" opacity="0.970850" style="stroke:black;stroke-width:0.5;fill:url(#radialffffffbfbfbf)"/>
<circle cx="690.115238" cy="117.505805" r="10.885451" opacity="0.982672" style="stroke:black;stroke-width:0.5;fill:url(#radialffffffbfbfbf)"/>
<circle cx="148.860778" cy="93.854994" r="11.272727" opacity="1.000000" style="stroke:black;stroke-width:0.5;fill:url(#radialffffffbfbfbf)"/>
</svg>
</g>
</svg>
