<?xml version="1.0"?>
<svg version="1.1" id="topsvg"
xmlns="http://www.w3.org/2000/svg" xmlns:xlink="http://www.w3.org/1999/xlink"
xmlns:cml="http://www.xml-cml.org/schema" x="0" y="0" width="1024px" height="1024px" viewBox="0 0 100 100">
<title>22386 - Open Babel Depiction</title>
<rect x="0" y="0" width="100" height="100" fill="white"/>
<defs>
<radialGradient id='radialffffff666666' cx='50%' cy='50%' r='50%' fx='30%' fy='30%'>
  <stop offset=' 0%' stop-color="rgb(255,255,255)"  stop-opacity='1.0'/>
  <stop offset='100%' stop-color="rgb(102,102,102)"  stop-opacity ='1.0'/>
</radialGradient>
<radialGradient id='radialffffffbfbfbf' cx='50%' cy='50%' r='50%' fx='30%' fy='30%'>
  <stop offset=' 0%' stop-color="rgb(255,255,255)"  stop-opacity='1.0'/>
  <stop offset='100%' stop-color="rgb(191,191,191)"  stop-opacity ='1.0'/>
</radialGradient>
<radialGradient id='radialffffffffcc' cx='50%' cy='50%' r='50%' fx='30%' fy='30%'>
  <stop offset=' 0%' stop-color="rgb(255,255,255)"  stop-opacity='1.0'/>
  <stop offset='100%' stop-color="rgb(255,12,12)"  stop-opacity ='1.0'/>
</radialGradient>
</defs>
<g transform="translate(0,0)">
<svg width="100" height="100" x="0" y="0" viewBox="0 0 304.245 187.595"
font-family="sans-serif" stroke="rgb(0,0,0)" stroke-width="2"  stroke-linecap="round">
<line x1="202.1" y1="41.6" x2="194.6" y2="84.4" opacity="1.0" stroke="rgb(0,0,0)"  stroke-width="1.5"/>
<line x1="202.1" y1="41.6" x2="202.1" y2="44.4" opacity="0.5" stroke="rgb(0,0,0)"  stroke-width="2.4"/>
<line x1="150.0" y1="102.6" x2="194.6" y2="84.4" opacity="0.8" stroke="rgb(0,0,0)"  stroke-width="1.5"/>
<line x1="150.0" y1="102.6" x2="111.3" y2="73.3" opacity="0.5" stroke="rgb(0,0,0)"  stroke-width="1.5"/>
<line x1="150.0" y1="102.6" x2="150.0" y2="104.7" opacity="0.5" stroke="rgb(0,0,0)"  stroke-width="2.4"/>
<line x1="150.0" y1="102.6" x2="145.3" y2="136.1" opacity="0.8" stroke="rgb(0,0,0)"  stroke-width="1.5"/>
<line x1="194.6" y1="84.4" x2="232.7" y2="114.6" opacity="0.5" stroke="rgb(0,0,0)"  stroke-width="1.4"/>
<line x1="193.7" y1="83.8" x2="195.3" y2="83.6" opacity="0.5" stroke="rgb(0,0,0)"  stroke-width="1.0"/>
<line x1="193.0" y1="83.3" x2="195.9" y2="83.0" opacity="0.5" stroke="rgb(0,0,0)"  stroke-width="1.0"/>
<line x1="192.4" y1="82.8" x2="196.5" y2="82.4" opacity="0.5" stroke="rgb(0,0,0)"  stroke-width="1.0"/>
<line x1="191.7" y1="82.3" x2="197.1" y2="81.8" opacity="0.5" stroke="rgb(0,0,0)"  stroke-width="1.0"/>
<line x1="191.0" y1="81.8" x2="197.7" y2="81.2" opacity="0.5" stroke="rgb(0,0,0)"  stroke-width="1.0"/>
<line x1="190.3" y1="81.3" x2="198.3" y2="80.6" opacity="0.5" stroke="rgb(0,0,0)"  stroke-width="1.0"/>
<line x1="111.3" y1="73.3" x2="67.2" y2="92.5" opacity="0.5" stroke="rgb(0,0,0)"  stroke-width="1.5"/>
<line x1="111.3" y1="73.3" x2="111.2" y2="69.9" opacity="0.5" stroke="rgb(0,0,0)"  stroke-width="0.7"/>
<line x1="111.3" y1="73.3" x2="114.9" y2="40.0" opacity="0.2" stroke="rgb(0,0,0)"  stroke-width="1.5"/>
<line x1="232.7" y1="114.6" x2="234.8" y2="117.7" opacity="0.5" stroke="rgb(0,0,0)"  stroke-width="2.3"/>
<line x1="232.7" y1="114.6" x2="228.9" y2="147.6" opacity="0.8" stroke="rgb(0,0,0)"  stroke-width="1.4"/>
<line x1="232.7" y1="114.6" x2="264.2" y2="100.6" opacity="0.5" stroke="rgb(0,0,0)"  stroke-width="1.5"/>
<line x1="67.2" y1="92.5" x2="40.0" y2="71.1" opacity="0.5" stroke="rgb(0,0,0)"  stroke-width="1.6"/>
<line x1="67.2" y1="92.5" x2="65.8" y2="95.4" opacity="0.5" stroke="rgb(0,0,0)"  stroke-width="2.4"/>
<line x1="67.2" y1="92.5" x2="61.9" y2="125.4" opacity="0.8" stroke="rgb(0,0,0)"  stroke-width="1.5"/>
<circle cx="194.276770" cy="80.932057" r="5.636364" opacity="0.200000" style="stroke:black;stroke-width:0.5;fill:url(#radialffffffbfbfbf)"/>
<circle cx="111.172090" cy="69.932373" r="5.636364" opacity="0.200000" style="stroke:black;stroke-width:0.5;fill:url(#radialffffffbfbfbf)"/>
<circle cx="228.939834" cy="147.595104" r="5.636364" opacity="0.629668" style="stroke:black;stroke-width:0.5;fill:url(#radialffffffbfbfbf)"/>
<circle cx="194.587738" cy="84.412258" r="13.818182" opacity="0.638122" style="stroke:black;stroke-width:0.5;fill:url(#radialffffff666666)"/>
<circle cx="111.277952" cy="73.293479" r="13.818182" opacity="0.651816" style="stroke:black;stroke-width:0.5;fill:url(#radialffffff666666)"/>
<circle cx="61.913355" cy="125.364164" r="5.636364" opacity="0.657208" style="stroke:black;stroke-width:0.5;fill:url(#radialffffffbfbfbf)"/>
<circle cx="264.244684" cy="100.648784" r="5.636364" opacity="0.657690" style="stroke:black;stroke-width:0.5;fill:url(#radialffffffbfbfbf)"/>
<circle cx="145.309154" cy="136.148816" r="5.636364" opacity="0.664525" style="stroke:black;stroke-width:0.5;fill:url(#radialffffffbfbfbf)"/>
<circle cx="40.000000" cy="71.120008" r="5.636364" opacity="0.687696" style="stroke:black;stroke-width:0.5;fill:url(#radialffffffbfbfbf)"/>
<circle cx="232.678073" cy="114.553046" r="15.418899" opacity="0.746941" style="stroke:black;stroke-width:0.5;fill:url(#radialffffff666666)"/>
<circle cx="114.880555" cy="40.000000" r="6.557445" opacity="0.762698" style="stroke:black;stroke-width:0.5;fill:url(#radialffffffbfbfbf)"/>
<circle cx="150.033229" cy="102.567525" r="16.229062" opacity="0.766313" style="stroke:black;stroke-width:0.5;fill:url(#radialffffff666666)"/>
<circle cx="67.226285" cy="92.500747" r="16.382838" opacity="0.769935" style="stroke:black;stroke-width:0.5;fill:url(#radialffffff666666)"/>
<circle cx="202.077448" cy="41.591232" r="14.712973" opacity="0.782969" style="stroke:black;stroke-width:0.5;fill:url(#radialffffffffcc)"/>
<circle cx="234.798613" cy="117.679272" r="10.876595" opacity="0.982272" style="stroke:black;stroke-width:0.5;fill:url(#radialffffffbfbfbf)"/>
<circle cx="202.064215" cy="44.360175" r="10.989415" opacity="0.987354" style="stroke:black;stroke-width:0.5;fill:url(#radialffffffbfbfbf)"/>
<circle cx="150.026613" cy="104.737689" r="11.231472" opacity="0.998168" style="stroke:black;stroke-width:0.5;fill:url(#radialffffffbfbfbf)"/>
<circle cx="65.843468" cy="95.378860" r="11.272727" opacity="1.000000" style="stroke:black;stroke-width:0.5;fill:url(#radialffffffbfbfbf)"/>
</svg>
</g>
</svg>
