<?xml version="1.0"?>
<svg version="1.1" id="topsvg"
xmlns="http://www.w3.org/2000/svg" xmlns:xlink="http://www.w3.org/1999/xlink"
xmlns:cml="http://www.xml-cml.org/schema" x="0" y="0" width="200px" height="200px" viewBox="0 0 100 100">
<title>23217 - Open Babel Depiction</title>
<rect x="0" y="0" width="100" height="100" fill="white"/>
<defs>
<radialGradient id='radialffffff666666' cx='50%' cy='50%' r='50%' fx='30%' fy='30%'>
  <stop offset=' 0%' stop-color="rgb(255,255,255)"  stop-opacity='1.0'/>
  <stop offset='100%' stop-color="rgb(102,102,102)"  stop-opacity ='1.0'/>
</radialGradient>
<radialGradient id='radialffffffbfbfbf' cx='50%' cy='50%' r='50%' fx='30%' fy='30%'>
  <stop offset=' 0%' stop-color="rgb(255,255,255)"  stop-opacity='1.0'/>
  <stop offset='100%' stop-color="rgb(191,191,191)"  stop-opacity ='1.0'/>
</radialGradient>
</defs>
<g transform="translate(0,0)">
<svg width="100" height="100" x="0" y="0" viewBox="0 0 789.678 161.371"
font-family="sans-serif" stroke="rgb(0,0,0)" stroke-width="4"  stroke-linecap="round">
<line x1="359.7" y1="93.0" x2="400.7" y2="64.7" opacity="1.0" stroke="rgb(0,0,0)"  stroke-width="1.9"/>
<line x1="359.7" y1="93.0" x2="317.6" y2="66.5" opacity="0.6" stroke="rgb(0,0,0)"  stroke-width="1.8"/>
<line x1="359.7" y1="93.0" x2="359.3" y2="113.3" opacity="0.6" stroke="rgb(0,0,0)"  stroke-width="2.4"/>
<line x1="359.7" y1="93.0" x2="360.8" y2="115.2" opacity="0.8" stroke="rgb(0,0,0)"  stroke-width="1.4"/>
<line x1="400.7" y1="64.7" x2="442.8" y2="91.3" opacity="0.5" stroke="rgb(0,0,0)"  stroke-width="1.9"/>
<line x1="400.7" y1="64.7" x2="400.4" y2="43.5" opacity="0.6" stroke="rgb(0,0,0)"  stroke-width="2.4"/>
<line x1="400.7" y1="64.7" x2="400.1" y2="43.5" opacity="0.8" stroke="rgb(0,0,0)"  stroke-width="1.4"/>
<line x1="317.6" y1="66.5" x2="275.5" y2="93.1" opacity="0.5" stroke="rgb(0,0,0)"  stroke-width="1.7"/>
<line x1="317.6" y1="66.5" x2="319.1" y2="44.7" opacity="0.6" stroke="rgb(0,0,0)"  stroke-width="1.3"/>
<line x1="317.6" y1="66.5" x2="315.8" y2="45.5" opacity="0.4" stroke="rgb(0,0,0)"  stroke-width="2.3"/>
<line x1="442.8" y1="91.3" x2="483.8" y2="63.0" opacity="0.8" stroke="rgb(0,0,0)"  stroke-width="1.8"/>
<line x1="442.8" y1="91.3" x2="444.3" y2="111.5" opacity="0.6" stroke="rgb(0,0,0)"  stroke-width="2.4"/>
<line x1="442.8" y1="91.3" x2="442.3" y2="113.5" opacity="0.8" stroke="rgb(0,0,0)"  stroke-width="1.4"/>
<line x1="275.5" y1="93.1" x2="233.3" y2="66.7" opacity="0.5" stroke="rgb(0,0,0)"  stroke-width="1.7"/>
<line x1="275.5" y1="93.1" x2="274.6" y2="116.0" opacity="0.6" stroke="rgb(0,0,0)"  stroke-width="2.2"/>
<line x1="275.5" y1="93.1" x2="276.8" y2="112.9" opacity="0.7" stroke="rgb(0,0,0)"  stroke-width="1.2"/>
<line x1="483.8" y1="63.0" x2="525.9" y2="89.5" opacity="0.4" stroke="rgb(0,0,0)"  stroke-width="1.7"/>
<line x1="483.8" y1="63.0" x2="485.0" y2="41.5" opacity="0.6" stroke="rgb(0,0,0)"  stroke-width="2.3"/>
<line x1="483.8" y1="63.0" x2="481.6" y2="42.1" opacity="0.8" stroke="rgb(0,0,0)"  stroke-width="1.2"/>
<line x1="233.3" y1="66.7" x2="192.5" y2="94.9" opacity="0.4" stroke="rgb(0,0,0)"  stroke-width="1.6"/>
<line x1="233.3" y1="66.7" x2="234.3" y2="43.1" opacity="0.5" stroke="rgb(0,0,0)"  stroke-width="1.2"/>
<line x1="233.3" y1="66.7" x2="231.3" y2="48.0" opacity="0.4" stroke="rgb(0,0,0)"  stroke-width="2.2"/>
<line x1="525.9" y1="89.5" x2="566.6" y2="61.4" opacity="0.7" stroke="rgb(0,0,0)"  stroke-width="1.6"/>
<line x1="525.9" y1="89.5" x2="528.8" y2="109.5" opacity="0.5" stroke="rgb(0,0,0)"  stroke-width="2.2"/>
<line x1="525.9" y1="89.5" x2="523.8" y2="112.1" opacity="0.7" stroke="rgb(0,0,0)"  stroke-width="1.2"/>
<line x1="192.5" y1="94.9" x2="150.3" y2="68.5" opacity="0.4" stroke="rgb(0,0,0)"  stroke-width="1.5"/>
<line x1="192.5" y1="94.9" x2="191.6" y2="118.8" opacity="0.5" stroke="rgb(0,0,0)"  stroke-width="2.0"/>
<line x1="192.5" y1="94.9" x2="194.6" y2="113.4" opacity="0.7" stroke="rgb(0,0,0)"  stroke-width="1.0"/>
<line x1="566.6" y1="61.4" x2="607.4" y2="89.6" opacity="0.3" stroke="rgb(0,0,0)"  stroke-width="1.4"/>
<line x1="566.6" y1="61.4" x2="563.3" y2="40.6" opacity="0.5" stroke="rgb(0,0,0)"  stroke-width="1.0"/>
<line x1="566.6" y1="61.4" x2="569.8" y2="40.0" opacity="0.3" stroke="rgb(0,0,0)"  stroke-width="2.0"/>
<line x1="150.3" y1="68.5" x2="109.7" y2="96.3" opacity="0.7" stroke="rgb(0,0,0)"  stroke-width="1.4"/>
<line x1="150.3" y1="68.5" x2="152.0" y2="43.6" opacity="0.5" stroke="rgb(0,0,0)"  stroke-width="1.1"/>
<line x1="150.3" y1="68.5" x2="147.5" y2="51.3" opacity="0.4" stroke="rgb(0,0,0)"  stroke-width="2.1"/>
<line x1="607.4" y1="89.6" x2="648.3" y2="61.5" opacity="0.7" stroke="rgb(0,0,0)"  stroke-width="1.3"/>
<line x1="607.4" y1="89.6" x2="610.3" y2="111.0" opacity="0.4" stroke="rgb(0,0,0)"  stroke-width="1.8"/>
<line x1="607.4" y1="89.6" x2="604.3" y2="110.5" opacity="0.6" stroke="rgb(0,0,0)"  stroke-width="0.8"/>
<line x1="109.7" y1="96.3" x2="68.6" y2="68.8" opacity="0.3" stroke="rgb(0,0,0)"  stroke-width="1.3"/>
<line x1="109.7" y1="96.3" x2="107.6" y2="121.4" opacity="0.4" stroke="rgb(0,0,0)"  stroke-width="1.7"/>
<line x1="109.7" y1="96.3" x2="112.0" y2="113.1" opacity="0.6" stroke="rgb(0,0,0)"  stroke-width="0.7"/>
<line x1="648.3" y1="61.5" x2="688.2" y2="89.0" opacity="0.2" stroke="rgb(0,0,0)"  stroke-width="1.1"/>
<line x1="648.3" y1="61.5" x2="645.5" y2="40.0" opacity="0.4" stroke="rgb(0,0,0)"  stroke-width="0.7"/>
<line x1="648.3" y1="61.5" x2="651.3" y2="40.5" opacity="0.2" stroke="rgb(0,0,0)"  stroke-width="1.7"/>
<line x1="68.6" y1="68.8" x2="69.3" y2="44.1" opacity="0.6" stroke="rgb(0,0,0)"  stroke-width="0.8"/>
<line x1="68.6" y1="68.8" x2="64.9" y2="52.4" opacity="0.3" stroke="rgb(0,0,0)"  stroke-width="1.8"/>
<line x1="68.6" y1="68.8" x2="40.0" y2="89.3" opacity="0.6" stroke="rgb(0,0,0)"  stroke-width="1.2"/>
<line x1="688.2" y1="86.0" x2="721.6" y2="86.2" opacity="0.4" stroke="rgb(0,0,0)"  stroke-width="1.5"/>
<line x1="688.2" y1="92.0" x2="721.6" y2="92.2" opacity="0.4" stroke="rgb(0,0,0)"  stroke-width="1.5"/>
<line x1="688.2" y1="89.0" x2="689.9" y2="109.7" opacity="0.5" stroke="rgb(0,0,0)"  stroke-width="0.5"/>
<line x1="721.6" y1="89.2" x2="749.7" y2="109.7" opacity="0.2" stroke="rgb(0,0,0)"  stroke-width="1.9"/>
<line x1="721.6" y1="89.2" x2="721.7" y2="69.0" opacity="0.6" stroke="rgb(0,0,0)"  stroke-width="2.5"/>
<circle cx="689.892455" cy="109.700533" r="5.636364" opacity="0.200000" style="stroke:black;stroke-width:0.5;fill:url(#radialffffffbfbfbf)"/>
<circle cx="111.989208" cy="113.120541" r="5.636364" opacity="0.234446" style="stroke:black;stroke-width:0.5;fill:url(#radialffffffbfbfbf)"/>
<circle cx="645.497377" cy="40.026008" r="5.636364" opacity="0.259949" style="stroke:black;stroke-width:0.5;fill:url(#radialffffffbfbfbf)"/>
<circle cx="604.275233" cy="110.526277" r="5.636364" opacity="0.330752" style="stroke:black;stroke-width:0.5;fill:url(#radialffffffbfbfbf)"/>
<circle cx="69.330141" cy="44.073450" r="5.636364" opacity="0.364135" style="stroke:black;stroke-width:0.5;fill:url(#radialffffffbfbfbf)"/>
<circle cx="194.622051" cy="113.390370" r="5.636364" opacity="0.384240" style="stroke:black;stroke-width:0.5;fill:url(#radialffffffbfbfbf)"/>
<circle cx="563.280656" cy="40.578670" r="5.636364" opacity="0.402824" style="stroke:black;stroke-width:0.5;fill:url(#radialffffffbfbfbf)"/>
<circle cx="152.011748" cy="43.592308" r="5.636364" opacity="0.456795" style="stroke:black;stroke-width:0.5;fill:url(#radialffffffbfbfbf)"/>
<circle cx="276.796509" cy="112.905978" r="5.636364" opacity="0.460201" style="stroke:black;stroke-width:0.5;fill:url(#radialffffffbfbfbf)"/>
<circle cx="523.771767" cy="112.067231" r="5.636364" opacity="0.483964" style="stroke:black;stroke-width:0.5;fill:url(#radialffffffbfbfbf)"/>
<circle cx="234.345503" cy="43.133923" r="5.636364" opacity="0.496052" style="stroke:black;stroke-width:0.5;fill:url(#radialffffffbfbfbf)"/>
<circle cx="481.616598" cy="42.077362" r="5.636364" opacity="0.497776" style="stroke:black;stroke-width:0.5;fill:url(#radialffffffbfbfbf)"/>
<circle cx="319.075214" cy="44.743147" r="5.636364" opacity="0.513261" style="stroke:black;stroke-width:0.5;fill:url(#radialffffffbfbfbf)"/>
<circle cx="400.131343" cy="43.465521" r="5.636364" opacity="0.532850" style="stroke:black;stroke-width:0.5;fill:url(#radialffffffbfbfbf)"/>
<circle cx="442.325523" cy="113.520409" r="5.636364" opacity="0.536980" style="stroke:black;stroke-width:0.5;fill:url(#radialffffffbfbfbf)"/>
<circle cx="360.840268" cy="115.162142" r="5.636364" opacity="0.541220" style="stroke:black;stroke-width:0.5;fill:url(#radialffffffbfbfbf)"/>
<circle cx="688.208459" cy="89.021191" r="13.818182" opacity="0.578932" style="stroke:black;stroke-width:0.5;fill:url(#radialffffff666666)"/>
<circle cx="40.000000" cy="89.281268" r="5.636364" opacity="0.609196" style="stroke:black;stroke-width:0.5;fill:url(#radialffffffbfbfbf)"/>
<circle cx="648.312706" cy="61.508336" r="13.818182" opacity="0.631877" style="stroke:black;stroke-width:0.5;fill:url(#radialffffff666666)"/>
<circle cx="109.710286" cy="96.335846" r="13.818182" opacity="0.649827" style="stroke:black;stroke-width:0.5;fill:url(#radialffffff666666)"/>
<circle cx="68.634436" cy="68.816489" r="13.818182" opacity="0.657403" style="stroke:black;stroke-width:0.5;fill:url(#radialffffff666666)"/>
<circle cx="607.425411" cy="89.560850" r="13.818182" opacity="0.667552" style="stroke:black;stroke-width:0.5;fill:url(#radialffffff666666)"/>
<circle cx="566.609637" cy="61.443317" r="13.818182" opacity="0.706204" style="stroke:black;stroke-width:0.5;fill:url(#radialffffff666666)"/>
<circle cx="192.541438" cy="94.908676" r="13.934504" opacity="0.710077" style="stroke:black;stroke-width:0.5;fill:url(#radialffffff666666)"/>
<circle cx="150.295242" cy="68.533656" r="14.005035" opacity="0.711872" style="stroke:black;stroke-width:0.5;fill:url(#radialffffff666666)"/>
<circle cx="525.858882" cy="89.541345" r="15.404065" opacity="0.746581" style="stroke:black;stroke-width:0.5;fill:url(#radialffffff666666)"/>
<circle cx="233.285691" cy="66.732625" r="15.449330" opacity="0.747678" style="stroke:black;stroke-width:0.5;fill:url(#radialffffff666666)"/>
<circle cx="275.548141" cy="93.114147" r="15.455647" opacity="0.747830" style="stroke:black;stroke-width:0.5;fill:url(#radialffffff666666)"/>
<circle cx="483.758979" cy="63.033035" r="16.167267" opacity="0.764853" style="stroke:black;stroke-width:0.5;fill:url(#radialffffff666666)"/>
<circle cx="749.677568" cy="109.707035" r="6.671833" opacity="0.769322" style="stroke:black;stroke-width:0.5;fill:url(#radialffffffbfbfbf)"/>
<circle cx="317.579774" cy="66.524564" r="16.416756" opacity="0.770732" style="stroke:black;stroke-width:0.5;fill:url(#radialffffff666666)"/>
<circle cx="442.848927" cy="91.283858" r="16.995737" opacity="0.784205" style="stroke:black;stroke-width:0.5;fill:url(#radialffffff666666)"/>
<circle cx="400.690508" cy="64.720282" r="17.118902" opacity="0.787041" style="stroke:black;stroke-width:0.5;fill:url(#radialffffff666666)"/>
<circle cx="359.731692" cy="92.977607" r="17.128377" opacity="0.787259" style="stroke:black;stroke-width:0.5;fill:url(#radialffffff666666)"/>
<circle cx="721.634807" cy="89.173986" r="18.268444" opacity="0.813037" style="stroke:black;stroke-width:0.5;fill:url(#radialffffff666666)"/>
<circle cx="107.610168" cy="121.371472" r="8.097831" opacity="0.847559" style="stroke:black;stroke-width:0.5;fill:url(#radialffffffbfbfbf)"/>
<circle cx="651.267827" cy="40.513651" r="8.287621" opacity="0.857433" style="stroke:black;stroke-width:0.5;fill:url(#radialffffffbfbfbf)"/>
<circle cx="610.305760" cy="111.046430" r="8.766389" opacity="0.881852" style="stroke:black;stroke-width:0.5;fill:url(#radialffffffbfbfbf)"/>
<circle cx="64.918591" cy="52.402404" r="9.013287" opacity="0.894184" style="stroke:black;stroke-width:0.5;fill:url(#radialffffffbfbfbf)"/>
<circle cx="191.566151" cy="118.754451" r="9.183325" opacity="0.902580" style="stroke:black;stroke-width:0.5;fill:url(#radialffffffbfbfbf)"/>
<circle cx="569.756564" cy="40.000000" r="9.360232" opacity="0.911232" style="stroke:black;stroke-width:0.5;fill:url(#radialffffffbfbfbf)"/>
<circle cx="147.512423" cy="51.313333" r="9.821825" opacity="0.933430" style="stroke:black;stroke-width:0.5;fill:url(#radialffffffbfbfbf)"/>
<circle cx="274.641124" cy="116.023646" r="9.914143" opacity="0.937806" style="stroke:black;stroke-width:0.5;fill:url(#radialffffffbfbfbf)"/>
<circle cx="528.765238" cy="109.518480" r="10.166194" opacity="0.949652" style="stroke:black;stroke-width:0.5;fill:url(#radialffffffbfbfbf)"/>
<circle cx="231.266846" cy="47.971348" r="10.298016" opacity="0.955790" style="stroke:black;stroke-width:0.5;fill:url(#radialffffffbfbfbf)"/>
<circle cx="485.004096" cy="41.472684" r="10.341814" opacity="0.957820" style="stroke:black;stroke-width:0.5;fill:url(#radialffffffbfbfbf)"/>
<circle cx="315.817755" cy="45.539632" r="10.499399" opacity="0.965090" style="stroke:black;stroke-width:0.5;fill:url(#radialffffffbfbfbf)"/>
<circle cx="400.401173" cy="43.462270" r="10.763902" opacity="0.977171" style="stroke:black;stroke-width:0.5;fill:url(#radialffffffbfbfbf)"/>
<circle cx="444.282600" cy="111.524321" r="10.804694" opacity="0.979020" style="stroke:black;stroke-width:0.5;fill:url(#radialffffffbfbfbf)"/>
<circle cx="359.348079" cy="113.286340" r="10.856650" opacity="0.981371" style="stroke:black;stroke-width:0.5;fill:url(#radialffffffbfbfbf)"/>
<circle cx="721.660814" cy="69.031052" r="11.272727" opacity="1.000000" style="stroke:black;stroke-width:0.5;fill:url(#radialffffffbfbfbf)"/>
</svg>
</g>
</svg>
