<?xml version="1.0"?>
<svg version="1.1" id="topsvg"
xmlns="http://www.w3.org/2000/svg" xmlns:xlink="http://www.w3.org/1999/xlink"
xmlns:cml="http://www.xml-cml.org/schema" x="0" y="0" width="200px" height="200px" viewBox="0 0 100 100">
<title>23531 - Open Babel Depiction</title>
<rect x="0" y="0" width="100" height="100" fill="white"/>
<defs>
<radialGradient id='radialffffff666666' cx='50%' cy='50%' r='50%' fx='30%' fy='30%'>
  <stop offset=' 0%' stop-color="rgb(255,255,255)"  stop-opacity='1.0'/>
  <stop offset='100%' stop-color="rgb(102,102,102)"  stop-opacity ='1.0'/>
</radialGradient>
<radialGradient id='radialffffffbfbfbf' cx='50%' cy='50%' r='50%' fx='30%' fy='30%'>
  <stop offset=' 0%' stop-color="rgb(255,255,255)"  stop-opacity='1.0'/>
  <stop offset='100%' stop-color="rgb(191,191,191)"  stop-opacity ='1.0'/>
</radialGradient>
</defs>
<g transform="translate(0,0)">
<svg width="100" height="100" x="0" y="0" viewBox="0 0 400.429 240.905"
font-family="sans-serif" stroke="rgb(0,0,0)" stroke-width="4"  stroke-linecap="round">
<line x1="128.0" y1="107.2" x2="110.9" y2="154.7" opacity="1.0" stroke="rgb(0,0,0)"  stroke-width="1.3"/>
<line x1="128.0" y1="107.2" x2="174.5" y2="99.5" opacity="0.4" stroke="rgb(0,0,0)"  stroke-width="1.5"/>
<line x1="128.0" y1="107.2" x2="96.2" y2="73.0" opacity="0.5" stroke="rgb(0,0,0)"  stroke-width="1.5"/>
<line x1="127.7" y1="105.8" x2="129.2" y2="106.3" opacity="0.5" stroke="rgb(0,0,0)"  stroke-width="1.0"/>
<line x1="127.3" y1="104.6" x2="130.1" y2="105.5" opacity="0.5" stroke="rgb(0,0,0)"  stroke-width="1.0"/>
<line x1="127.0" y1="103.5" x2="131.0" y2="104.8" opacity="0.5" stroke="rgb(0,0,0)"  stroke-width="1.0"/>
<line x1="126.7" y1="102.4" x2="131.9" y2="104.1" opacity="0.5" stroke="rgb(0,0,0)"  stroke-width="1.0"/>
<line x1="126.4" y1="101.3" x2="132.8" y2="103.3" opacity="0.5" stroke="rgb(0,0,0)"  stroke-width="1.0"/>
<line x1="126.1" y1="100.1" x2="133.7" y2="102.6" opacity="0.5" stroke="rgb(0,0,0)"  stroke-width="1.0"/>
<line x1="110.9" y1="154.7" x2="106.6" y2="166.8" opacity="0.5" stroke="rgb(0,0,0)"  stroke-width="2.0"/>
<line x1="110.9" y1="154.7" x2="66.4" y2="161.7" opacity="0.7" stroke="rgb(0,0,0)"  stroke-width="1.1"/>
<line x1="110.9" y1="154.7" x2="133.9" y2="177.4" opacity="0.4" stroke="rgb(0,0,0)"  stroke-width="1.2"/>
<line x1="174.5" y1="99.5" x2="209.9" y2="129.8" opacity="0.4" stroke="rgb(0,0,0)"  stroke-width="1.5"/>
<line x1="174.5" y1="99.5" x2="174.0" y2="102.0" opacity="0.5" stroke="rgb(0,0,0)"  stroke-width="2.1"/>
<line x1="174.5" y1="99.5" x2="183.9" y2="65.6" opacity="0.7" stroke="rgb(0,0,0)"  stroke-width="1.6"/>
<line x1="209.9" y1="129.8" x2="255.1" y2="117.8" opacity="0.5" stroke="rgb(0,0,0)"  stroke-width="1.5"/>
<line x1="209.9" y1="129.8" x2="202.8" y2="163.9" opacity="0.5" stroke="rgb(0,0,0)"  stroke-width="1.3"/>
<line x1="209.9" y1="129.8" x2="210.2" y2="127.7" opacity="0.4" stroke="rgb(0,0,0)"  stroke-width="0.8"/>
<line x1="96.2" y1="73.0" x2="92.8" y2="75.8" opacity="0.3" stroke="rgb(0,0,0)"  stroke-width="2.1"/>
<line x1="96.2" y1="73.0" x2="63.8" y2="75.4" opacity="0.7" stroke="rgb(0,0,0)"  stroke-width="1.5"/>
<line x1="96.2" y1="73.0" x2="108.3" y2="40.0" opacity="0.5" stroke="rgb(0,0,0)"  stroke-width="1.6"/>
<line x1="255.1" y1="117.8" x2="290.7" y2="147.1" opacity="0.5" stroke="rgb(0,0,0)"  stroke-width="1.4"/>
<line x1="255.1" y1="117.8" x2="262.4" y2="83.5" opacity="0.5" stroke="rgb(0,0,0)"  stroke-width="1.6"/>
<line x1="255.1" y1="117.8" x2="254.8" y2="120.8" opacity="0.5" stroke="rgb(0,0,0)"  stroke-width="2.1"/>
<line x1="106.6" y1="166.8" x2="137.8" y2="164.1" opacity="0.7" stroke="rgb(0,0,0)"  stroke-width="2.8"/>
<line x1="106.6" y1="166.8" x2="95.9" y2="200.9" opacity="0.9" stroke="rgb(0,0,0)"  stroke-width="2.6"/>
<line x1="106.6" y1="166.8" x2="82.5" y2="146.6" opacity="0.9" stroke="rgb(0,0,0)"  stroke-width="2.8"/>
<line x1="66.4" y1="161.7" x2="57.9" y2="196.4" opacity="0.9" stroke="rgb(0,0,0)"  stroke-width="0.8"/>
<line x1="66.4" y1="161.7" x2="40.0" y2="144.2" opacity="0.3" stroke="rgb(0,0,0)"  stroke-width="1.0"/>
<line x1="66.4" y1="161.7" x2="67.4" y2="151.0" opacity="0.3" stroke="rgb(0,0,0)"  stroke-width="0.4"/>
<line x1="290.7" y1="147.1" x2="335.4" y2="136.0" opacity="0.1" stroke="rgb(0,0,0)"  stroke-width="1.4"/>
<line x1="290.7" y1="147.1" x2="283.3" y2="181.5" opacity="0.5" stroke="rgb(0,0,0)"  stroke-width="1.3"/>
<line x1="290.7" y1="147.1" x2="291.6" y2="143.5" opacity="0.4" stroke="rgb(0,0,0)"  stroke-width="0.8"/>
<line x1="335.4" y1="136.0" x2="335.9" y2="140.3" opacity="0.3" stroke="rgb(0,0,0)"  stroke-width="2.1"/>
<line x1="335.4" y1="136.0" x2="360.4" y2="157.3" opacity="0.7" stroke="rgb(0,0,0)"  stroke-width="1.5"/>
<line x1="335.4" y1="136.0" x2="344.3" y2="102.1" opacity="0.5" stroke="rgb(0,0,0)"  stroke-width="1.6"/>
<circle cx="67.431559" cy="150.978474" r="5.636364" opacity="0.200000" style="stroke:black;stroke-width:0.5;fill:url(#radialffffffbfbfbf)"/>
<circle cx="291.598724" cy="143.527160" r="5.636364" opacity="0.331290" style="stroke:black;stroke-width:0.5;fill:url(#radialffffffbfbfbf)"/>
<circle cx="210.209715" cy="127.676362" r="5.636364" opacity="0.342901" style="stroke:black;stroke-width:0.5;fill:url(#radialffffffbfbfbf)"/>
<circle cx="129.919276" cy="101.372799" r="5.636364" opacity="0.345355" style="stroke:black;stroke-width:0.5;fill:url(#radialffffffbfbfbf)"/>
<circle cx="66.434345" cy="161.656837" r="13.818182" opacity="0.529161" style="stroke:black;stroke-width:0.5;fill:url(#radialffffff666666)"/>
<circle cx="57.851765" cy="196.441623" r="5.636364" opacity="0.530603" style="stroke:black;stroke-width:0.5;fill:url(#radialffffffbfbfbf)"/>
<circle cx="133.868897" cy="177.419357" r="5.636364" opacity="0.579552" style="stroke:black;stroke-width:0.5;fill:url(#radialffffffbfbfbf)"/>
<circle cx="290.722484" cy="147.104052" r="13.818182" opacity="0.634111" style="stroke:black;stroke-width:0.5;fill:url(#radialffffff666666)"/>
<circle cx="128.042552" cy="107.166449" r="13.818182" opacity="0.640065" style="stroke:black;stroke-width:0.5;fill:url(#radialffffff666666)"/>
<circle cx="209.944881" cy="129.847346" r="13.818182" opacity="0.641069" style="stroke:black;stroke-width:0.5;fill:url(#radialffffff666666)"/>
<circle cx="40.000000" cy="144.158184" r="5.636364" opacity="0.645030" style="stroke:black;stroke-width:0.5;fill:url(#radialffffffbfbfbf)"/>
<circle cx="360.429376" cy="157.285443" r="5.636364" opacity="0.662701" style="stroke:black;stroke-width:0.5;fill:url(#radialffffffbfbfbf)"/>
<circle cx="63.818701" cy="75.360227" r="5.636364" opacity="0.663550" style="stroke:black;stroke-width:0.5;fill:url(#radialffffffbfbfbf)"/>
<circle cx="283.326753" cy="181.463796" r="5.636364" opacity="0.678096" style="stroke:black;stroke-width:0.5;fill:url(#radialffffffbfbfbf)"/>
<circle cx="110.880663" cy="154.659991" r="13.818182" opacity="0.679912" style="stroke:black;stroke-width:0.5;fill:url(#radialffffff666666)"/>
<circle cx="202.830331" cy="163.853977" r="5.636364" opacity="0.694290" style="stroke:black;stroke-width:0.5;fill:url(#radialffffffbfbfbf)"/>
<circle cx="344.287588" cy="102.062675" r="5.636364" opacity="0.703629" style="stroke:black;stroke-width:0.5;fill:url(#radialffffffbfbfbf)"/>
<circle cx="262.378720" cy="83.530843" r="5.636364" opacity="0.704258" style="stroke:black;stroke-width:0.5;fill:url(#radialffffffbfbfbf)"/>
<circle cx="183.919231" cy="65.620226" r="5.651776" opacity="0.708073" style="stroke:black;stroke-width:0.5;fill:url(#radialffffffbfbfbf)"/>
<circle cx="108.327141" cy="40.000000" r="5.701941" opacity="0.711208" style="stroke:black;stroke-width:0.5;fill:url(#radialffffffbfbfbf)"/>
<circle cx="335.420557" cy="135.954873" r="15.342916" opacity="0.745098" style="stroke:black;stroke-width:0.5;fill:url(#radialffffff666666)"/>
<circle cx="255.054919" cy="117.785961" r="15.448121" opacity="0.747648" style="stroke:black;stroke-width:0.5;fill:url(#radialffffff666666)"/>
<circle cx="174.525802" cy="99.509154" r="15.508874" opacity="0.749117" style="stroke:black;stroke-width:0.5;fill:url(#radialffffff666666)"/>
<circle cx="96.246139" cy="73.035574" r="15.534063" opacity="0.749725" style="stroke:black;stroke-width:0.5;fill:url(#radialffffff666666)"/>
<circle cx="335.930608" cy="140.287032" r="9.541716" opacity="0.920023" style="stroke:black;stroke-width:0.5;fill:url(#radialffffffbfbfbf)"/>
<circle cx="254.835858" cy="120.790681" r="9.603970" opacity="0.923020" style="stroke:black;stroke-width:0.5;fill:url(#radialffffffbfbfbf)"/>
<circle cx="92.809837" cy="75.808156" r="9.616964" opacity="0.923644" style="stroke:black;stroke-width:0.5;fill:url(#radialffffffbfbfbf)"/>
<circle cx="174.045178" cy="101.990745" r="9.631772" opacity="0.924355" style="stroke:black;stroke-width:0.5;fill:url(#radialffffffbfbfbf)"/>
<circle cx="106.561582" cy="166.848889" r="23.753403" opacity="0.927091" style="stroke:black;stroke-width:0.5;fill:url(#radialffffff666666)"/>
<circle cx="95.873409" cy="200.904564" r="9.985650" opacity="0.941182" style="stroke:black;stroke-width:0.5;fill:url(#radialffffffbfbfbf)"/>
<circle cx="82.500933" cy="146.587462" r="11.263359" opacity="0.999584" style="stroke:black;stroke-width:0.5;fill:url(#radialffffffbfbfbf)"/>
<circle cx="137.828327" cy="164.125350" r="11.272727" opacity="1.000000" style="stroke:black;stroke-width:0.5;fill:url(#radialffffffbfbfbf)"/>
</svg>
</g>
</svg>
