<?xml version="1.0"?>
<svg version="1.1" id="topsvg"
xmlns="http://www.w3.org/2000/svg" xmlns:xlink="http://www.w3.org/1999/xlink"
xmlns:cml="http://www.xml-cml.org/schema" x="0" y="0" width="200px" height="200px" viewBox="0 0 100 100">
<title>26056 - Open Babel Depiction</title>
<rect x="0" y="0" width="100" height="100" fill="white"/>
<defs>
<radialGradient id='radialffffff666666' cx='50%' cy='50%' r='50%' fx='30%' fy='30%'>
  <stop offset=' 0%' stop-color="rgb(255,255,255)"  stop-opacity='1.0'/>
  <stop offset='100%' stop-color="rgb(102,102,102)"  stop-opacity ='1.0'/>
</radialGradient>
<radialGradient id='radialffffffbfbfbf' cx='50%' cy='50%' r='50%' fx='30%' fy='30%'>
  <stop offset=' 0%' stop-color="rgb(255,255,255)"  stop-opacity='1.0'/>
  <stop offset='100%' stop-color="rgb(191,191,191)"  stop-opacity ='1.0'/>
</radialGradient>
</defs>
<g transform="translate(0,0)">
<svg width="100" height="100" x="0" y="0" viewBox="0 0 351.257 248.51"
font-family="sans-serif" stroke="rgb(0,0,0)" stroke-width="4"  stroke-linecap="round">
<line x1="215.9" y1="149.6" x2="168.5" y2="150.7" opacity="1.0" stroke="rgb(0,0,0)"  stroke-width="1.6"/>
<line x1="215.9" y1="149.6" x2="232.2" y2="103.1" opacity="0.5" stroke="rgb(0,0,0)"  stroke-width="2.0"/>
<line x1="215.9" y1="149.6" x2="245.9" y2="174.3" opacity="0.7" stroke="rgb(0,0,0)"  stroke-width="1.4"/>
<line x1="215.9" y1="149.6" x2="216.1" y2="168.2" opacity="0.5" stroke="rgb(0,0,0)"  stroke-width="2.2"/>
<line x1="168.5" y1="150.7" x2="134.2" y2="135.0" opacity="0.7" stroke="rgb(0,0,0)"  stroke-width="1.8"/>
<line x1="168.5" y1="150.7" x2="166.8" y2="131.7" opacity="0.6" stroke="rgb(0,0,0)"  stroke-width="1.0"/>
<line x1="168.5" y1="150.7" x2="161.2" y2="184.6" opacity="0.3" stroke="rgb(0,0,0)"  stroke-width="1.2"/>
<line x1="134.2" y1="135.0" x2="86.9" y2="138.7" opacity="0.4" stroke="rgb(0,0,0)"  stroke-width="2.0"/>
<line x1="134.2" y1="135.0" x2="140.4" y2="100.8" opacity="0.7" stroke="rgb(0,0,0)"  stroke-width="2.3"/>
<line x1="134.2" y1="135.0" x2="137.1" y2="154.3" opacity="0.8" stroke="rgb(0,0,0)"  stroke-width="2.6"/>
<line x1="86.9" y1="138.7" x2="75.1" y2="185.4" opacity="0.9" stroke="rgb(0,0,0)"  stroke-width="1.6"/>
<line x1="86.9" y1="138.7" x2="80.5" y2="107.8" opacity="0.5" stroke="rgb(0,0,0)"  stroke-width="1.3"/>
<line x1="86.9" y1="138.7" x2="64.9" y2="128.4" opacity="0.4" stroke="rgb(0,0,0)"  stroke-width="2.1"/>
<line x1="232.2" y1="103.1" x2="234.5" y2="71.8" opacity="0.7" stroke="rgb(0,0,0)"  stroke-width="1.6"/>
<line x1="232.2" y1="103.1" x2="264.7" y2="105.2" opacity="0.5" stroke="rgb(0,0,0)"  stroke-width="2.3"/>
<line x1="232.2" y1="103.1" x2="211.1" y2="88.7" opacity="0.8" stroke="rgb(0,0,0)"  stroke-width="2.4"/>
<line x1="245.9" y1="174.3" x2="293.0" y2="178.8" opacity="0.8" stroke="rgb(0,0,0)"  stroke-width="1.2"/>
<line x1="245.9" y1="174.3" x2="232.9" y2="207.4" opacity="0.4" stroke="rgb(0,0,0)"  stroke-width="0.9"/>
<line x1="245.9" y1="174.3" x2="245.6" y2="158.5" opacity="0.3" stroke="rgb(0,0,0)"  stroke-width="0.6"/>
<line x1="75.1" y1="185.4" x2="40.0" y2="187.8" opacity="0.2" stroke="rgb(0,0,0)"  stroke-width="1.3"/>
<line x1="75.1" y1="185.4" x2="92.2" y2="195.9" opacity="0.4" stroke="rgb(0,0,0)"  stroke-width="1.0"/>
<line x1="75.1" y1="185.4" x2="82.7" y2="208.5" opacity="0.3" stroke="rgb(0,0,0)"  stroke-width="1.8"/>
<line x1="80.5" y1="107.8" x2="45.8" y2="106.6" opacity="0.6" stroke="rgb(0,0,0)"  stroke-width="0.6"/>
<line x1="80.5" y1="107.8" x2="98.6" y2="118.4" opacity="0.2" stroke="rgb(0,0,0)"  stroke-width="0.4"/>
<line x1="80.5" y1="107.8" x2="90.6" y2="74.5" opacity="0.1" stroke="rgb(0,0,0)"  stroke-width="0.9"/>
<line x1="234.5" y1="71.8" x2="256.6" y2="83.7" opacity="0.3" stroke="rgb(0,0,0)"  stroke-width="0.8"/>
<line x1="234.5" y1="71.8" x2="202.3" y2="66.3" opacity="0.3" stroke="rgb(0,0,0)"  stroke-width="0.9"/>
<line x1="234.5" y1="71.8" x2="246.9" y2="40.0" opacity="0.3" stroke="rgb(0,0,0)"  stroke-width="1.2"/>
<line x1="293.0" y1="178.8" x2="311.3" y2="200.1" opacity="0.4" stroke="rgb(0,0,0)"  stroke-width="1.1"/>
<line x1="293.0" y1="178.8" x2="309.8" y2="147.2" opacity="0.4" stroke="rgb(0,0,0)"  stroke-width="1.4"/>
<line x1="293.0" y1="178.8" x2="294.5" y2="193.1" opacity="0.5" stroke="rgb(0,0,0)"  stroke-width="1.8"/>
<circle cx="98.623775" cy="118.383055" r="5.636364" opacity="0.200000" style="stroke:black;stroke-width:0.5;fill:url(#radialffffffbfbfbf)"/>
<circle cx="245.552759" cy="158.451029" r="5.636364" opacity="0.216456" style="stroke:black;stroke-width:0.5;fill:url(#radialffffffbfbfbf)"/>
<circle cx="256.593363" cy="83.707841" r="5.636364" opacity="0.383307" style="stroke:black;stroke-width:0.5;fill:url(#radialffffffbfbfbf)"/>
<circle cx="45.834253" cy="106.616440" r="5.636364" opacity="0.415634" style="stroke:black;stroke-width:0.5;fill:url(#radialffffffbfbfbf)"/>
<circle cx="166.757644" cy="131.706343" r="5.636364" opacity="0.434713" style="stroke:black;stroke-width:0.5;fill:url(#radialffffffbfbfbf)"/>
<circle cx="92.223757" cy="195.938719" r="5.636364" opacity="0.465213" style="stroke:black;stroke-width:0.5;fill:url(#radialffffffbfbfbf)"/>
<circle cx="202.273331" cy="66.254137" r="5.636364" opacity="0.492391" style="stroke:black;stroke-width:0.5;fill:url(#radialffffffbfbfbf)"/>
<circle cx="80.473493" cy="107.846081" r="13.818182" opacity="0.501851" style="stroke:black;stroke-width:0.5;fill:url(#radialffffff666666)"/>
<circle cx="311.256780" cy="200.137811" r="5.636364" opacity="0.517653" style="stroke:black;stroke-width:0.5;fill:url(#radialffffffbfbfbf)"/>
<circle cx="232.926050" cy="207.371761" r="5.636364" opacity="0.532106" style="stroke:black;stroke-width:0.5;fill:url(#radialffffffbfbfbf)"/>
<circle cx="90.631111" cy="74.488806" r="5.636364" opacity="0.568206" style="stroke:black;stroke-width:0.5;fill:url(#radialffffffbfbfbf)"/>
<circle cx="245.948468" cy="174.292464" r="13.818182" opacity="0.571149" style="stroke:black;stroke-width:0.5;fill:url(#radialffffff666666)"/>
<circle cx="234.512156" cy="71.764628" r="13.818182" opacity="0.606776" style="stroke:black;stroke-width:0.5;fill:url(#radialffffff666666)"/>
<circle cx="161.230801" cy="184.646300" r="5.636364" opacity="0.611975" style="stroke:black;stroke-width:0.5;fill:url(#radialffffffbfbfbf)"/>
<circle cx="40.000000" cy="187.789079" r="5.636364" opacity="0.644471" style="stroke:black;stroke-width:0.5;fill:url(#radialffffffbfbfbf)"/>
<circle cx="168.520347" cy="150.710179" r="13.818182" opacity="0.672349" style="stroke:black;stroke-width:0.5;fill:url(#radialffffff666666)"/>
<circle cx="293.028010" cy="178.785885" r="13.818182" opacity="0.679035" style="stroke:black;stroke-width:0.5;fill:url(#radialffffff666666)"/>
<circle cx="246.900132" cy="40.000000" r="5.636364" opacity="0.680769" style="stroke:black;stroke-width:0.5;fill:url(#radialffffffbfbfbf)"/>
<circle cx="309.772054" cy="147.184772" r="5.636364" opacity="0.682811" style="stroke:black;stroke-width:0.5;fill:url(#radialffffffbfbfbf)"/>
<circle cx="75.119978" cy="185.418096" r="13.818182" opacity="0.688344" style="stroke:black;stroke-width:0.5;fill:url(#radialffffff666666)"/>
<circle cx="86.916026" cy="138.681938" r="16.299919" opacity="0.767984" style="stroke:black;stroke-width:0.5;fill:url(#radialffffff666666)"/>
<circle cx="215.884407" cy="149.627702" r="16.765563" opacity="0.778877" style="stroke:black;stroke-width:0.5;fill:url(#radialffffff666666)"/>
<circle cx="82.694041" cy="208.509833" r="7.917013" opacity="0.838043" style="stroke:black;stroke-width:0.5;fill:url(#radialffffffbfbfbf)"/>
<circle cx="232.190228" cy="103.146629" r="19.436149" opacity="0.838619" style="stroke:black;stroke-width:0.5;fill:url(#radialffffff666666)"/>
<circle cx="134.168895" cy="134.950501" r="20.409841" opacity="0.859368" style="stroke:black;stroke-width:0.5;fill:url(#radialffffff666666)"/>
<circle cx="294.476762" cy="193.116432" r="8.406742" opacity="0.863574" style="stroke:black;stroke-width:0.5;fill:url(#radialffffffbfbfbf)"/>
<circle cx="140.395586" cy="100.841053" r="9.210038" opacity="0.903891" style="stroke:black;stroke-width:0.5;fill:url(#radialffffffbfbfbf)"/>
<circle cx="64.867521" cy="128.449103" r="9.232778" opacity="0.905007" style="stroke:black;stroke-width:0.5;fill:url(#radialffffffbfbfbf)"/>
<circle cx="264.651434" cy="105.151336" r="9.404776" opacity="0.913397" style="stroke:black;stroke-width:0.5;fill:url(#radialffffffbfbfbf)"/>
<circle cx="216.093707" cy="168.248910" r="9.849984" opacity="0.934767" style="stroke:black;stroke-width:0.5;fill:url(#radialffffffbfbfbf)"/>
<circle cx="211.139171" cy="88.744135" r="10.393842" opacity="0.960226" style="stroke:black;stroke-width:0.5;fill:url(#radialffffffbfbfbf)"/>
<circle cx="137.099102" cy="154.268288" r="11.272727" opacity="1.000000" style="stroke:black;stroke-width:0.5;fill:url(#radialffffffbfbfbf)"/>
</svg>
</g>
</svg>
