<?xml version="1.0"?>
<svg version="1.1" id="topsvg"
xmlns="http://www.w3.org/2000/svg" xmlns:xlink="http://www.w3.org/1999/xlink"
xmlns:cml="http://www.xml-cml.org/schema" x="0" y="0" width="1024px" height="1024px" viewBox="0 0 100 100">
<title>26375 - Open Babel Depiction</title>
<rect x="0" y="0" width="100" height="100" fill="white"/>
<defs>
<radialGradient id='radialffffff666666' cx='50%' cy='50%' r='50%' fx='30%' fy='30%'>
  <stop offset=' 0%' stop-color="rgb(255,255,255)"  stop-opacity='1.0'/>
  <stop offset='100%' stop-color="rgb(102,102,102)"  stop-opacity ='1.0'/>
</radialGradient>
<radialGradient id='radialffffffbfbfbf' cx='50%' cy='50%' r='50%' fx='30%' fy='30%'>
  <stop offset=' 0%' stop-color="rgb(255,255,255)"  stop-opacity='1.0'/>
  <stop offset='100%' stop-color="rgb(191,191,191)"  stop-opacity ='1.0'/>
</radialGradient>
</defs>
<g transform="translate(0,0)">
<svg width="100" height="100" x="0" y="0" viewBox="0 0 359.86 245.949"
font-family="sans-serif" stroke="rgb(0,0,0)" stroke-width="2"  stroke-linecap="round">
<line x1="127.5" y1="138.9" x2="111.2" y2="90.9" opacity="1.0" stroke="rgb(0,0,0)"  stroke-width="1.3"/>
<line x1="127.5" y1="138.9" x2="174.1" y2="146.9" opacity="0.4" stroke="rgb(0,0,0)"  stroke-width="1.4"/>
<line x1="127.5" y1="138.9" x2="96.3" y2="172.7" opacity="0.5" stroke="rgb(0,0,0)"  stroke-width="1.4"/>
<line x1="128.5" y1="140.2" x2="126.9" y2="140.4" opacity="0.5" stroke="rgb(0,0,0)"  stroke-width="1.0"/>
<line x1="129.3" y1="141.2" x2="126.5" y2="141.6" opacity="0.5" stroke="rgb(0,0,0)"  stroke-width="1.0"/>
<line x1="130.1" y1="142.2" x2="126.0" y2="142.8" opacity="0.5" stroke="rgb(0,0,0)"  stroke-width="1.0"/>
<line x1="130.9" y1="143.2" x2="125.6" y2="144.1" opacity="0.5" stroke="rgb(0,0,0)"  stroke-width="1.0"/>
<line x1="131.8" y1="144.2" x2="125.1" y2="145.3" opacity="0.5" stroke="rgb(0,0,0)"  stroke-width="1.0"/>
<line x1="132.6" y1="145.2" x2="124.7" y2="146.5" opacity="0.5" stroke="rgb(0,0,0)"  stroke-width="1.0"/>
<line x1="111.2" y1="90.9" x2="65.5" y2="84.3" opacity="0.5" stroke="rgb(0,0,0)"  stroke-width="1.1"/>
<line x1="111.2" y1="90.9" x2="111.4" y2="74.3" opacity="0.4" stroke="rgb(0,0,0)"  stroke-width="1.9"/>
<line x1="111.2" y1="90.9" x2="133.1" y2="69.7" opacity="0.6" stroke="rgb(0,0,0)"  stroke-width="1.1"/>
<line x1="174.1" y1="146.9" x2="208.6" y2="114.9" opacity="0.4" stroke="rgb(0,0,0)"  stroke-width="1.4"/>
<line x1="174.1" y1="146.9" x2="184.2" y2="180.4" opacity="0.5" stroke="rgb(0,0,0)"  stroke-width="1.5"/>
<line x1="174.1" y1="146.9" x2="173.6" y2="145.4" opacity="0.5" stroke="rgb(0,0,0)"  stroke-width="2.1"/>
<line x1="208.6" y1="114.9" x2="253.7" y2="124.4" opacity="0.7" stroke="rgb(0,0,0)"  stroke-width="1.4"/>
<line x1="208.6" y1="114.9" x2="210.1" y2="117.2" opacity="0.5" stroke="rgb(0,0,0)"  stroke-width="0.8"/>
<line x1="208.6" y1="114.9" x2="199.8" y2="81.1" opacity="0.3" stroke="rgb(0,0,0)"  stroke-width="1.3"/>
<line x1="96.3" y1="172.7" x2="108.8" y2="205.9" opacity="0.4" stroke="rgb(0,0,0)"  stroke-width="1.6"/>
<line x1="96.3" y1="172.7" x2="63.8" y2="171.4" opacity="0.5" stroke="rgb(0,0,0)"  stroke-width="1.5"/>
<line x1="96.3" y1="172.7" x2="92.7" y2="167.7" opacity="0.5" stroke="rgb(0,0,0)"  stroke-width="2.1"/>
<line x1="65.5" y1="84.3" x2="40.0" y2="100.5" opacity="0.7" stroke="rgb(0,0,0)"  stroke-width="1.1"/>
<line x1="65.5" y1="84.3" x2="57.3" y2="49.4" opacity="0.4" stroke="rgb(0,0,0)"  stroke-width="0.8"/>
<line x1="65.5" y1="84.3" x2="64.1" y2="97.1" opacity="0.3" stroke="rgb(0,0,0)"  stroke-width="0.4"/>
<line x1="111.4" y1="74.3" x2="144.1" y2="75.7" opacity="0.1" stroke="rgb(0,0,0)"  stroke-width="2.7"/>
<line x1="111.4" y1="74.3" x2="89.2" y2="93.2" opacity="0.9" stroke="rgb(0,0,0)"  stroke-width="2.7"/>
<line x1="111.4" y1="74.3" x2="100.8" y2="40.0" opacity="0.9" stroke="rgb(0,0,0)"  stroke-width="2.5"/>
<line x1="253.7" y1="124.4" x2="287.8" y2="92.1" opacity="0.8" stroke="rgb(0,0,0)"  stroke-width="1.5"/>
<line x1="253.7" y1="124.4" x2="252.1" y2="122.6" opacity="0.5" stroke="rgb(0,0,0)"  stroke-width="2.1"/>
<line x1="253.7" y1="124.4" x2="263.9" y2="157.7" opacity="0.7" stroke="rgb(0,0,0)"  stroke-width="1.6"/>
<line x1="287.8" y1="92.1" x2="291.0" y2="93.6" opacity="0.5" stroke="rgb(0,0,0)"  stroke-width="0.8"/>
<line x1="287.8" y1="92.1" x2="319.9" y2="99.5" opacity="0.3" stroke="rgb(0,0,0)"  stroke-width="1.5"/>
<line x1="287.8" y1="92.1" x2="279.2" y2="58.5" opacity="0.5" stroke="rgb(0,0,0)"  stroke-width="1.4"/>
<circle cx="64.148646" cy="97.061944" r="5.636364" opacity="0.200000" style="stroke:black;stroke-width:0.5;fill:url(#radialffffffbfbfbf)"/>
<circle cx="128.622550" cy="145.843977" r="5.636364" opacity="0.326505" style="stroke:black;stroke-width:0.5;fill:url(#radialffffffbfbfbf)"/>
<circle cx="210.055859" cy="117.165618" r="5.636364" opacity="0.327659" style="stroke:black;stroke-width:0.5;fill:url(#radialffffffbfbfbf)"/>
<circle cx="290.961847" cy="93.639275" r="5.636364" opacity="0.367088" style="stroke:black;stroke-width:0.5;fill:url(#radialffffffbfbfbf)"/>
<circle cx="57.349163" cy="49.409882" r="5.636364" opacity="0.514550" style="stroke:black;stroke-width:0.5;fill:url(#radialffffffbfbfbf)"/>
<circle cx="65.494786" cy="84.334202" r="13.818182" opacity="0.525130" style="stroke:black;stroke-width:0.5;fill:url(#radialffffff666666)"/>
<circle cx="133.116236" cy="69.716623" r="5.636364" opacity="0.532067" style="stroke:black;stroke-width:0.5;fill:url(#radialffffffbfbfbf)"/>
<circle cx="127.466376" cy="138.893831" r="13.818182" opacity="0.630256" style="stroke:black;stroke-width:0.5;fill:url(#radialffffff666666)"/>
<circle cx="208.562331" cy="114.895848" r="13.818182" opacity="0.634137" style="stroke:black;stroke-width:0.5;fill:url(#radialffffff666666)"/>
<circle cx="287.847055" cy="92.057314" r="13.818182" opacity="0.654598" style="stroke:black;stroke-width:0.5;fill:url(#radialffffff666666)"/>
<circle cx="40.000000" cy="100.507539" r="5.636364" opacity="0.659460" style="stroke:black;stroke-width:0.5;fill:url(#radialffffffbfbfbf)"/>
<circle cx="111.155477" cy="90.888039" r="13.818182" opacity="0.662845" style="stroke:black;stroke-width:0.5;fill:url(#radialffffff666666)"/>
<circle cx="63.798191" cy="171.410820" r="5.636364" opacity="0.665058" style="stroke:black;stroke-width:0.5;fill:url(#radialffffffbfbfbf)"/>
<circle cx="199.797679" cy="81.124427" r="5.636364" opacity="0.685461" style="stroke:black;stroke-width:0.5;fill:url(#radialffffffbfbfbf)"/>
<circle cx="184.181140" cy="180.385089" r="5.636364" opacity="0.690282" style="stroke:black;stroke-width:0.5;fill:url(#radialffffffbfbfbf)"/>
<circle cx="263.921128" cy="157.723421" r="5.636364" opacity="0.701998" style="stroke:black;stroke-width:0.5;fill:url(#radialffffffbfbfbf)"/>
<circle cx="279.161010" cy="58.479135" r="5.672531" opacity="0.709372" style="stroke:black;stroke-width:0.5;fill:url(#radialffffffbfbfbf)"/>
<circle cx="108.797275" cy="205.948657" r="5.904429" opacity="0.723726" style="stroke:black;stroke-width:0.5;fill:url(#radialffffffbfbfbf)"/>
<circle cx="174.116202" cy="146.905168" r="15.085625" opacity="0.738824" style="stroke:black;stroke-width:0.5;fill:url(#radialffffff666666)"/>
<circle cx="319.859650" cy="99.515129" r="6.157906" opacity="0.739098" style="stroke:black;stroke-width:0.5;fill:url(#radialffffffbfbfbf)"/>
<circle cx="253.695701" cy="124.390887" r="15.566225" opacity="0.750501" style="stroke:black;stroke-width:0.5;fill:url(#radialffffff666666)"/>
<circle cx="96.321730" cy="172.681629" r="15.628814" opacity="0.752008" style="stroke:black;stroke-width:0.5;fill:url(#radialffffff666666)"/>
<circle cx="111.388022" cy="74.256163" r="22.904130" opacity="0.910367" style="stroke:black;stroke-width:0.5;fill:url(#radialffffff666666)"/>
<circle cx="100.759736" cy="40.000000" r="9.459791" opacity="0.916065" style="stroke:black;stroke-width:0.5;fill:url(#radialffffffbfbfbf)"/>
<circle cx="173.621634" cy="145.391988" r="9.485017" opacity="0.917286" style="stroke:black;stroke-width:0.5;fill:url(#radialffffffbfbfbf)"/>
<circle cx="92.718921" cy="167.749056" r="9.652178" opacity="0.925333" style="stroke:black;stroke-width:0.5;fill:url(#radialffffffbfbfbf)"/>
<circle cx="252.094089" cy="122.615685" r="9.673757" opacity="0.926367" style="stroke:black;stroke-width:0.5;fill:url(#radialffffffbfbfbf)"/>
<circle cx="144.127730" cy="75.654708" r="10.683713" opacity="0.973524" style="stroke:black;stroke-width:0.5;fill:url(#radialffffffbfbfbf)"/>
<circle cx="89.165241" cy="93.190562" r="11.272727" opacity="1.000000" style="stroke:black;stroke-width:0.5;fill:url(#radialffffffbfbfbf)"/>
</svg>
</g>
</svg>
