<?xml version="1.0"?>
<svg version="1.1" id="topsvg"
xmlns="http://www.w3.org/2000/svg" xmlns:xlink="http://www.w3.org/1999/xlink"
xmlns:cml="http://www.xml-cml.org/schema" x="0" y="0" width="1024px" height="1024px" viewBox="0 0 100 100">
<title>28026 - Open Babel Depiction</title>
<rect x="0" y="0" width="100" height="100" fill="white"/>
<defs>
<radialGradient id='radialffffff666666' cx='50%' cy='50%' r='50%' fx='30%' fy='30%'>
  <stop offset=' 0%' stop-color="rgb(255,255,255)"  stop-opacity='1.0'/>
  <stop offset='100%' stop-color="rgb(102,102,102)"  stop-opacity ='1.0'/>
</radialGradient>
<radialGradient id='radialffffffbfbfbf' cx='50%' cy='50%' r='50%' fx='30%' fy='30%'>
  <stop offset=' 0%' stop-color="rgb(255,255,255)"  stop-opacity='1.0'/>
  <stop offset='100%' stop-color="rgb(191,191,191)"  stop-opacity ='1.0'/>
</radialGradient>
</defs>
<g transform="translate(0,0)">
<svg width="100" height="100" x="0" y="0" viewBox="0 0 288.843 259.967"
font-family="sans-serif" stroke="rgb(0,0,0)" stroke-width="2"  stroke-linecap="round">
<line x1="187.3" y1="111.0" x2="137.9" y2="112.3" opacity="1.0" stroke="rgb(0,0,0)"  stroke-width="1.2"/>
<line x1="187.3" y1="111.0" x2="209.6" y2="70.0" opacity="0.4" stroke="rgb(0,0,0)"  stroke-width="1.1"/>
<line x1="187.3" y1="111.0" x2="191.3" y2="106.9" opacity="0.4" stroke="rgb(0,0,0)"  stroke-width="2.0"/>
<line x1="187.3" y1="111.0" x2="214.0" y2="151.0" opacity="0.7" stroke="rgb(0,0,0)"  stroke-width="1.2"/>
<line x1="137.9" y1="112.3" x2="121.0" y2="159.5" opacity="0.4" stroke="rgb(0,0,0)"  stroke-width="0.9"/>
<line x1="137.9" y1="112.3" x2="105.4" y2="84.8" opacity="0.3" stroke="rgb(0,0,0)"  stroke-width="1.3"/>
<line x1="137.9" y1="112.3" x2="137.2" y2="97.5" opacity="0.4" stroke="rgb(0,0,0)"  stroke-width="0.6"/>
<line x1="121.0" y1="159.5" x2="119.2" y2="187.6" opacity="0.2" stroke="rgb(0,0,0)"  stroke-width="1.3"/>
<line x1="121.0" y1="159.5" x2="141.0" y2="176.0" opacity="0.4" stroke="rgb(0,0,0)"  stroke-width="0.5"/>
<line x1="121.0" y1="159.5" x2="88.2" y2="158.3" opacity="0.2" stroke="rgb(0,0,0)"  stroke-width="0.6"/>
<line x1="105.4" y1="84.8" x2="58.5" y2="82.4" opacity="0.2" stroke="rgb(0,0,0)"  stroke-width="1.5"/>
<line x1="105.4" y1="84.8" x2="117.9" y2="51.2" opacity="0.5" stroke="rgb(0,0,0)"  stroke-width="1.7"/>
<line x1="105.4" y1="84.8" x2="104.6" y2="96.9" opacity="0.6" stroke="rgb(0,0,0)"  stroke-width="2.1"/>
<line x1="209.6" y1="70.0" x2="192.6" y2="40.0" opacity="0.7" stroke="rgb(0,0,0)"  stroke-width="1.0"/>
<line x1="209.6" y1="70.0" x2="243.6" y2="67.1" opacity="0.3" stroke="rgb(0,0,0)"  stroke-width="1.0"/>
<line x1="209.6" y1="70.0" x2="209.7" y2="71.4" opacity="0.3" stroke="rgb(0,0,0)"  stroke-width="0.4"/>
<line x1="191.3" y1="106.9" x2="225.7" y2="108.1" opacity="0.1" stroke="rgb(0,0,0)"  stroke-width="2.7"/>
<line x1="191.3" y1="106.9" x2="174.4" y2="133.3" opacity="0.9" stroke="rgb(0,0,0)"  stroke-width="2.8"/>
<line x1="191.3" y1="106.9" x2="178.2" y2="75.8" opacity="0.9" stroke="rgb(0,0,0)"  stroke-width="2.7"/>
<line x1="214.0" y1="151.0" x2="211.5" y2="155.7" opacity="0.9" stroke="rgb(0,0,0)"  stroke-width="0.6"/>
<line x1="214.0" y1="151.0" x2="205.3" y2="181.5" opacity="0.2" stroke="rgb(0,0,0)"  stroke-width="1.2"/>
<line x1="214.0" y1="151.0" x2="248.8" y2="146.0" opacity="0.4" stroke="rgb(0,0,0)"  stroke-width="1.1"/>
<line x1="119.2" y1="187.6" x2="150.5" y2="192.8" opacity="0.4" stroke="rgb(0,0,0)"  stroke-width="2.0"/>
<line x1="119.2" y1="187.6" x2="106.5" y2="220.0" opacity="0.7" stroke="rgb(0,0,0)"  stroke-width="1.7"/>
<line x1="119.2" y1="187.6" x2="96.7" y2="173.6" opacity="0.6" stroke="rgb(0,0,0)"  stroke-width="2.1"/>
<line x1="58.5" y1="82.4" x2="57.2" y2="72.1" opacity="0.7" stroke="rgb(0,0,0)"  stroke-width="0.9"/>
<line x1="58.5" y1="82.4" x2="40.0" y2="58.7" opacity="0.3" stroke="rgb(0,0,0)"  stroke-width="1.5"/>
<line x1="58.5" y1="82.4" x2="41.9" y2="113.9" opacity="0.5" stroke="rgb(0,0,0)"  stroke-width="1.3"/>
<circle cx="209.717235" cy="71.422218" r="5.636364" opacity="0.200000" style="stroke:black;stroke-width:0.5;fill:url(#radialffffffbfbfbf)"/>
<circle cx="211.521381" cy="155.658208" r="5.636364" opacity="0.205070" style="stroke:black;stroke-width:0.5;fill:url(#radialffffffbfbfbf)"/>
<circle cx="137.182049" cy="97.530047" r="5.636364" opacity="0.248923" style="stroke:black;stroke-width:0.5;fill:url(#radialffffffbfbfbf)"/>
<circle cx="140.957029" cy="176.049639" r="5.636364" opacity="0.252216" style="stroke:black;stroke-width:0.5;fill:url(#radialffffffbfbfbf)"/>
<circle cx="57.227638" cy="72.053015" r="5.636364" opacity="0.379956" style="stroke:black;stroke-width:0.5;fill:url(#radialffffffbfbfbf)"/>
<circle cx="88.244576" cy="158.325207" r="5.636364" opacity="0.384344" style="stroke:black;stroke-width:0.5;fill:url(#radialffffffbfbfbf)"/>
<circle cx="121.036245" cy="159.514898" r="13.818182" opacity="0.514773" style="stroke:black;stroke-width:0.5;fill:url(#radialffffff666666)"/>
<circle cx="209.609378" cy="69.993935" r="13.818182" opacity="0.539859" style="stroke:black;stroke-width:0.5;fill:url(#radialffffff666666)"/>
<circle cx="137.861872" cy="112.306399" r="13.818182" opacity="0.573658" style="stroke:black;stroke-width:0.5;fill:url(#radialffffff666666)"/>
<circle cx="214.015156" cy="151.007302" r="13.818182" opacity="0.574933" style="stroke:black;stroke-width:0.5;fill:url(#radialffffff666666)"/>
<circle cx="192.620332" cy="40.000000" r="5.636364" opacity="0.608489" style="stroke:black;stroke-width:0.5;fill:url(#radialffffffbfbfbf)"/>
<circle cx="243.636495" cy="67.104686" r="5.636364" opacity="0.616118" style="stroke:black;stroke-width:0.5;fill:url(#radialffffffbfbfbf)"/>
<circle cx="248.843027" cy="146.042630" r="5.636364" opacity="0.622863" style="stroke:black;stroke-width:0.5;fill:url(#radialffffffbfbfbf)"/>
<circle cx="58.479428" cy="82.371295" r="13.818182" opacity="0.650435" style="stroke:black;stroke-width:0.5;fill:url(#radialffffff666666)"/>
<circle cx="41.912003" cy="113.901369" r="5.636364" opacity="0.669093" style="stroke:black;stroke-width:0.5;fill:url(#radialffffffbfbfbf)"/>
<circle cx="187.325554" cy="110.992510" r="13.818182" opacity="0.672446" style="stroke:black;stroke-width:0.5;fill:url(#radialffffff666666)"/>
<circle cx="205.340872" cy="181.540520" r="5.636364" opacity="0.679475" style="stroke:black;stroke-width:0.5;fill:url(#radialffffffbfbfbf)"/>
<circle cx="106.455996" cy="219.966878" r="5.983058" opacity="0.728529" style="stroke:black;stroke-width:0.5;fill:url(#radialffffffbfbfbf)"/>
<circle cx="105.406846" cy="84.770287" r="15.319127" opacity="0.744520" style="stroke:black;stroke-width:0.5;fill:url(#radialffffff666666)"/>
<circle cx="117.892063" cy="51.204011" r="6.404911" opacity="0.753776" style="stroke:black;stroke-width:0.5;fill:url(#radialffffffbfbfbf)"/>
<circle cx="40.000000" cy="58.659189" r="6.551029" opacity="0.762325" style="stroke:black;stroke-width:0.5;fill:url(#radialffffffbfbfbf)"/>
<circle cx="119.215757" cy="187.590293" r="16.575492" opacity="0.774449" style="stroke:black;stroke-width:0.5;fill:url(#radialffffff666666)"/>
<circle cx="150.468019" cy="192.793556" r="8.240543" opacity="0.854995" style="stroke:black;stroke-width:0.5;fill:url(#radialffffffbfbfbf)"/>
<circle cx="96.735831" cy="173.568938" r="8.967535" opacity="0.891912" style="stroke:black;stroke-width:0.5;fill:url(#radialffffffbfbfbf)"/>
<circle cx="104.606093" cy="96.905786" r="9.341383" opacity="0.910314" style="stroke:black;stroke-width:0.5;fill:url(#radialffffffbfbfbf)"/>
<circle cx="191.322785" cy="106.893960" r="23.772378" opacity="0.927461" style="stroke:black;stroke-width:0.5;fill:url(#radialffffff666666)"/>
<circle cx="225.676740" cy="108.070577" r="10.630046" opacity="0.971076" style="stroke:black;stroke-width:0.5;fill:url(#radialffffffbfbfbf)"/>
<circle cx="178.206771" cy="75.801848" r="10.794467" opacity="0.978557" style="stroke:black;stroke-width:0.5;fill:url(#radialffffffbfbfbf)"/>
<circle cx="174.428522" cy="133.266528" r="11.272727" opacity="1.000000" style="stroke:black;stroke-width:0.5;fill:url(#radialffffffbfbfbf)"/>
</svg>
</g>
</svg>
