<?xml version="1.0"?>
<svg version="1.1" id="topsvg"
xmlns="http://www.w3.org/2000/svg" xmlns:xlink="http://www.w3.org/1999/xlink"
xmlns:cml="http://www.xml-cml.org/schema" x="0" y="0" width="200px" height="200px" viewBox="0 0 100 100">
<title>28024 - Open Babel Depiction</title>
<rect x="0" y="0" width="100" height="100" fill="white"/>
<defs>
<radialGradient id='radialffffff666666' cx='50%' cy='50%' r='50%' fx='30%' fy='30%'>
  <stop offset=' 0%' stop-color="rgb(255,255,255)"  stop-opacity='1.0'/>
  <stop offset='100%' stop-color="rgb(102,102,102)"  stop-opacity ='1.0'/>
</radialGradient>
<radialGradient id='radialffffffbfbfbf' cx='50%' cy='50%' r='50%' fx='30%' fy='30%'>
  <stop offset=' 0%' stop-color="rgb(255,255,255)"  stop-opacity='1.0'/>
  <stop offset='100%' stop-color="rgb(191,191,191)"  stop-opacity ='1.0'/>
</radialGradient>
</defs>
<g transform="translate(0,0)">
<svg width="100" height="100" x="0" y="0" viewBox="0 0 319.575 239.115"
font-family="sans-serif" stroke="rgb(0,0,0)" stroke-width="4"  stroke-linecap="round">
<line x1="123.2" y1="133.0" x2="171.9" y2="143.0" opacity="1.0" stroke="rgb(0,0,0)"  stroke-width="1.3"/>
<line x1="123.2" y1="133.0" x2="109.5" y2="85.3" opacity="0.4" stroke="rgb(0,0,0)"  stroke-width="1.3"/>
<line x1="123.2" y1="133.0" x2="113.5" y2="142.5" opacity="0.4" stroke="rgb(0,0,0)"  stroke-width="2.0"/>
<line x1="123.2" y1="133.0" x2="94.6" y2="165.2" opacity="0.7" stroke="rgb(0,0,0)"  stroke-width="1.1"/>
<line x1="171.9" y1="143.0" x2="208.8" y2="115.4" opacity="0.4" stroke="rgb(0,0,0)"  stroke-width="1.4"/>
<line x1="171.9" y1="143.0" x2="178.7" y2="177.4" opacity="0.5" stroke="rgb(0,0,0)"  stroke-width="1.2"/>
<line x1="171.9" y1="143.0" x2="175.5" y2="140.5" opacity="0.4" stroke="rgb(0,0,0)"  stroke-width="0.7"/>
<line x1="208.8" y1="115.4" x2="199.9" y2="66.8" opacity="0.2" stroke="rgb(0,0,0)"  stroke-width="1.5"/>
<line x1="208.8" y1="115.4" x2="254.7" y2="126.8" opacity="0.5" stroke="rgb(0,0,0)"  stroke-width="1.4"/>
<line x1="208.8" y1="115.4" x2="208.2" y2="120.5" opacity="0.5" stroke="rgb(0,0,0)"  stroke-width="2.0"/>
<line x1="109.5" y1="85.3" x2="61.4" y2="74.6" opacity="0.7" stroke="rgb(0,0,0)"  stroke-width="1.3"/>
<line x1="109.5" y1="85.3" x2="117.6" y2="77.0" opacity="0.4" stroke="rgb(0,0,0)"  stroke-width="0.8"/>
<line x1="109.5" y1="85.3" x2="125.1" y2="62.3" opacity="0.3" stroke="rgb(0,0,0)"  stroke-width="1.4"/>
<line x1="113.5" y1="142.5" x2="78.5" y2="142.1" opacity="0.5" stroke="rgb(0,0,0)"  stroke-width="2.6"/>
<line x1="113.5" y1="142.5" x2="125.7" y2="174.9" opacity="0.9" stroke="rgb(0,0,0)"  stroke-width="2.6"/>
<line x1="113.5" y1="142.5" x2="129.6" y2="118.6" opacity="0.9" stroke="rgb(0,0,0)"  stroke-width="2.8"/>
<line x1="94.6" y1="165.2" x2="96.8" y2="158.2" opacity="0.9" stroke="rgb(0,0,0)"  stroke-width="0.4"/>
<line x1="94.6" y1="165.2" x2="60.0" y2="163.8" opacity="0.1" stroke="rgb(0,0,0)"  stroke-width="0.9"/>
<line x1="94.6" y1="165.2" x2="105.2" y2="199.1" opacity="0.3" stroke="rgb(0,0,0)"  stroke-width="0.9"/>
<line x1="199.9" y1="66.8" x2="231.1" y2="48.8" opacity="0.3" stroke="rgb(0,0,0)"  stroke-width="1.4"/>
<line x1="199.9" y1="66.8" x2="182.3" y2="51.3" opacity="0.5" stroke="rgb(0,0,0)"  stroke-width="1.7"/>
<line x1="199.9" y1="66.8" x2="185.8" y2="60.4" opacity="0.6" stroke="rgb(0,0,0)"  stroke-width="1.0"/>
<line x1="254.7" y1="126.8" x2="261.7" y2="161.4" opacity="0.3" stroke="rgb(0,0,0)"  stroke-width="1.3"/>
<line x1="254.7" y1="126.8" x2="258.1" y2="120.7" opacity="0.4" stroke="rgb(0,0,0)"  stroke-width="0.9"/>
<line x1="254.7" y1="126.8" x2="279.6" y2="107.6" opacity="0.3" stroke="rgb(0,0,0)"  stroke-width="1.5"/>
<line x1="61.4" y1="74.6" x2="40.0" y2="93.6" opacity="0.5" stroke="rgb(0,0,0)"  stroke-width="1.1"/>
<line x1="61.4" y1="74.6" x2="51.3" y2="79.8" opacity="0.4" stroke="rgb(0,0,0)"  stroke-width="1.7"/>
<line x1="61.4" y1="74.6" x2="55.5" y2="40.0" opacity="0.6" stroke="rgb(0,0,0)"  stroke-width="1.3"/>
<circle cx="96.839740" cy="158.249822" r="5.636364" opacity="0.200000" style="stroke:black;stroke-width:0.5;fill:url(#radialffffffbfbfbf)"/>
<circle cx="175.539912" cy="140.508259" r="5.636364" opacity="0.333014" style="stroke:black;stroke-width:0.5;fill:url(#radialffffffbfbfbf)"/>
<circle cx="117.640193" cy="76.997848" r="5.636364" opacity="0.366301" style="stroke:black;stroke-width:0.5;fill:url(#radialffffffbfbfbf)"/>
<circle cx="258.054699" cy="120.718712" r="5.636364" opacity="0.390875" style="stroke:black;stroke-width:0.5;fill:url(#radialffffffbfbfbf)"/>
<circle cx="185.819091" cy="60.388239" r="5.636364" opacity="0.476408" style="stroke:black;stroke-width:0.5;fill:url(#radialffffffbfbfbf)"/>
<circle cx="94.585649" cy="165.234560" r="13.818182" opacity="0.516202" style="stroke:black;stroke-width:0.5;fill:url(#radialffffff666666)"/>
<circle cx="40.000000" cy="93.630359" r="5.636364" opacity="0.534596" style="stroke:black;stroke-width:0.5;fill:url(#radialffffffbfbfbf)"/>
<circle cx="105.241055" cy="199.114631" r="5.636364" opacity="0.551972" style="stroke:black;stroke-width:0.5;fill:url(#radialffffffbfbfbf)"/>
<circle cx="60.038184" cy="163.765638" r="5.636364" opacity="0.580854" style="stroke:black;stroke-width:0.5;fill:url(#radialffffffbfbfbf)"/>
<circle cx="171.934674" cy="142.978272" r="13.818182" opacity="0.618149" style="stroke:black;stroke-width:0.5;fill:url(#radialffffff666666)"/>
<circle cx="55.477657" cy="40.000000" r="5.636364" opacity="0.625699" style="stroke:black;stroke-width:0.5;fill:url(#radialffffffbfbfbf)"/>
<circle cx="109.520230" cy="85.268302" r="13.818182" opacity="0.625897" style="stroke:black;stroke-width:0.5;fill:url(#radialffffff666666)"/>
<circle cx="254.688284" cy="126.793962" r="13.818182" opacity="0.647858" style="stroke:black;stroke-width:0.5;fill:url(#radialffffff666666)"/>
<circle cx="178.700220" cy="177.417776" r="5.636364" opacity="0.664460" style="stroke:black;stroke-width:0.5;fill:url(#radialffffffbfbfbf)"/>
<circle cx="61.379515" cy="74.567094" r="13.818182" opacity="0.669674" style="stroke:black;stroke-width:0.5;fill:url(#radialffffff666666)"/>
<circle cx="261.718824" cy="161.423216" r="5.636364" opacity="0.681569" style="stroke:black;stroke-width:0.5;fill:url(#radialffffffbfbfbf)"/>
<circle cx="123.227983" cy="133.049147" r="13.818182" opacity="0.684806" style="stroke:black;stroke-width:0.5;fill:url(#radialffffff666666)"/>
<circle cx="231.123380" cy="48.839702" r="5.636364" opacity="0.685929" style="stroke:black;stroke-width:0.5;fill:url(#radialffffffbfbfbf)"/>
<circle cx="199.948873" cy="66.771014" r="13.818182" opacity="0.686509" style="stroke:black;stroke-width:0.5;fill:url(#radialffffff666666)"/>
<circle cx="208.788575" cy="115.356658" r="14.961658" opacity="0.735782" style="stroke:black;stroke-width:0.5;fill:url(#radialffffff666666)"/>
<circle cx="279.574891" cy="107.550763" r="6.199118" opacity="0.741567" style="stroke:black;stroke-width:0.5;fill:url(#radialffffffbfbfbf)"/>
<circle cx="125.102576" cy="62.256288" r="6.295734" opacity="0.747324" style="stroke:black;stroke-width:0.5;fill:url(#radialffffffbfbfbf)"/>
<circle cx="182.285828" cy="51.303171" r="7.615875" opacity="0.821950" style="stroke:black;stroke-width:0.5;fill:url(#radialffffffbfbfbf)"/>
<circle cx="51.332615" cy="79.772115" r="7.959773" opacity="0.840303" style="stroke:black;stroke-width:0.5;fill:url(#radialffffffbfbfbf)"/>
<circle cx="208.170254" cy="120.466803" r="9.142691" opacity="0.900580" style="stroke:black;stroke-width:0.5;fill:url(#radialffffffbfbfbf)"/>
<circle cx="113.488608" cy="142.503898" r="23.168875" opacity="0.915613" style="stroke:black;stroke-width:0.5;fill:url(#radialffffff666666)"/>
<circle cx="78.456955" cy="142.101499" r="10.085328" opacity="0.945868" style="stroke:black;stroke-width:0.5;fill:url(#radialffffffbfbfbf)"/>
<circle cx="125.681639" cy="174.941220" r="10.243555" opacity="0.953259" style="stroke:black;stroke-width:0.5;fill:url(#radialffffffbfbfbf)"/>
<circle cx="129.568228" cy="118.572582" r="11.272727" opacity="1.000000" style="stroke:black;stroke-width:0.5;fill:url(#radialffffffbfbfbf)"/>
</svg>
</g>
</svg>
