<?xml version="1.0"?>
<svg version="1.1" id="topsvg"
xmlns="http://www.w3.org/2000/svg" xmlns:xlink="http://www.w3.org/1999/xlink"
xmlns:cml="http://www.xml-cml.org/schema" x="0" y="0" width="200px" height="200px" viewBox="0 0 100 100">
<title>28459 - Open Babel Depiction</title>
<rect x="0" y="0" width="100" height="100" fill="white"/>
<defs>
<radialGradient id='radialffffff666666' cx='50%' cy='50%' r='50%' fx='30%' fy='30%'>
  <stop offset=' 0%' stop-color="rgb(255,255,255)"  stop-opacity='1.0'/>
  <stop offset='100%' stop-color="rgb(102,102,102)"  stop-opacity ='1.0'/>
</radialGradient>
<radialGradient id='radialffffffbfbfbf' cx='50%' cy='50%' r='50%' fx='30%' fy='30%'>
  <stop offset=' 0%' stop-color="rgb(255,255,255)"  stop-opacity='1.0'/>
  <stop offset='100%' stop-color="rgb(191,191,191)"  stop-opacity ='1.0'/>
</radialGradient>
</defs>
<g transform="translate(0,0)">
<svg width="100" height="100" x="0" y="0" viewBox="0 0 510.822 196.059"
font-family="sans-serif" stroke="rgb(0,0,0)" stroke-width="4"  stroke-linecap="round">
<line x1="402.4" y1="97.6" x2="357.6" y2="74.0" opacity="1.0" stroke="rgb(0,0,0)"  stroke-width="1.5"/>
<line x1="402.4" y1="97.6" x2="410.4" y2="123.7" opacity="0.5" stroke="rgb(0,0,0)"  stroke-width="1.9"/>
<line x1="402.4" y1="97.6" x2="405.6" y2="128.4" opacity="0.6" stroke="rgb(0,0,0)"  stroke-width="1.1"/>
<line x1="402.4" y1="97.6" x2="438.3" y2="62.6" opacity="0.4" stroke="rgb(0,0,0)"  stroke-width="1.4"/>
<line x1="357.6" y1="74.0" x2="317.5" y2="103.8" opacity="0.5" stroke="rgb(0,0,0)"  stroke-width="1.5"/>
<line x1="357.6" y1="74.0" x2="357.0" y2="51.4" opacity="0.5" stroke="rgb(0,0,0)"  stroke-width="1.8"/>
<line x1="357.6" y1="74.0" x2="354.5" y2="53.8" opacity="0.6" stroke="rgb(0,0,0)"  stroke-width="1.2"/>
<line x1="317.5" y1="103.8" x2="275.3" y2="77.1" opacity="0.4" stroke="rgb(0,0,0)"  stroke-width="1.6"/>
<line x1="317.5" y1="103.8" x2="318.5" y2="122.8" opacity="0.5" stroke="rgb(0,0,0)"  stroke-width="1.9"/>
<line x1="317.5" y1="103.8" x2="317.2" y2="126.9" opacity="0.6" stroke="rgb(0,0,0)"  stroke-width="1.3"/>
<line x1="275.3" y1="77.1" x2="235.0" y2="106.6" opacity="0.4" stroke="rgb(0,0,0)"  stroke-width="1.6"/>
<line x1="275.3" y1="77.1" x2="274.7" y2="54.3" opacity="0.5" stroke="rgb(0,0,0)"  stroke-width="1.8"/>
<line x1="275.3" y1="77.1" x2="274.3" y2="57.4" opacity="0.6" stroke="rgb(0,0,0)"  stroke-width="1.2"/>
<line x1="235.0" y1="106.6" x2="192.9" y2="79.9" opacity="0.4" stroke="rgb(0,0,0)"  stroke-width="1.6"/>
<line x1="235.0" y1="106.6" x2="235.5" y2="125.8" opacity="0.5" stroke="rgb(0,0,0)"  stroke-width="1.9"/>
<line x1="235.0" y1="106.6" x2="235.9" y2="129.7" opacity="0.6" stroke="rgb(0,0,0)"  stroke-width="1.3"/>
<line x1="410.4" y1="123.7" x2="443.3" y2="137.7" opacity="0.4" stroke="rgb(0,0,0)"  stroke-width="2.4"/>
<line x1="410.4" y1="123.7" x2="407.1" y2="102.9" opacity="0.8" stroke="rgb(0,0,0)"  stroke-width="2.7"/>
<line x1="410.4" y1="123.7" x2="387.4" y2="150.8" opacity="0.9" stroke="rgb(0,0,0)"  stroke-width="2.4"/>
<line x1="405.6" y1="128.4" x2="383.2" y2="156.1" opacity="0.8" stroke="rgb(0,0,0)"  stroke-width="0.7"/>
<line x1="405.6" y1="128.4" x2="398.2" y2="111.2" opacity="0.2" stroke="rgb(0,0,0)"  stroke-width="0.4"/>
<line x1="405.6" y1="128.4" x2="438.6" y2="142.0" opacity="0.1" stroke="rgb(0,0,0)"  stroke-width="0.6"/>
<line x1="438.3" y1="62.6" x2="470.8" y2="77.5" opacity="0.2" stroke="rgb(0,0,0)"  stroke-width="1.4"/>
<line x1="438.3" y1="62.6" x2="434.3" y2="43.5" opacity="0.5" stroke="rgb(0,0,0)"  stroke-width="1.1"/>
<line x1="438.3" y1="62.6" x2="437.5" y2="40.0" opacity="0.4" stroke="rgb(0,0,0)"  stroke-width="1.7"/>
<line x1="192.9" y1="79.9" x2="151.6" y2="107.9" opacity="0.6" stroke="rgb(0,0,0)"  stroke-width="1.6"/>
<line x1="192.9" y1="79.9" x2="192.0" y2="56.9" opacity="0.5" stroke="rgb(0,0,0)"  stroke-width="1.8"/>
<line x1="192.9" y1="79.9" x2="193.1" y2="60.4" opacity="0.6" stroke="rgb(0,0,0)"  stroke-width="1.2"/>
<line x1="151.6" y1="107.9" x2="109.6" y2="81.5" opacity="0.4" stroke="rgb(0,0,0)"  stroke-width="1.5"/>
<line x1="151.6" y1="107.9" x2="150.6" y2="126.5" opacity="0.5" stroke="rgb(0,0,0)"  stroke-width="1.9"/>
<line x1="151.6" y1="107.9" x2="153.3" y2="131.9" opacity="0.6" stroke="rgb(0,0,0)"  stroke-width="1.3"/>
<line x1="109.6" y1="81.5" x2="69.7" y2="110.9" opacity="0.4" stroke="rgb(0,0,0)"  stroke-width="1.4"/>
<line x1="109.6" y1="81.5" x2="106.6" y2="58.6" opacity="0.5" stroke="rgb(0,0,0)"  stroke-width="1.8"/>
<line x1="109.6" y1="81.5" x2="110.8" y2="62.0" opacity="0.6" stroke="rgb(0,0,0)"  stroke-width="1.1"/>
<line x1="69.7" y1="110.9" x2="67.1" y2="130.2" opacity="0.4" stroke="rgb(0,0,0)"  stroke-width="1.8"/>
<line x1="69.7" y1="110.9" x2="40.0" y2="91.4" opacity="0.6" stroke="rgb(0,0,0)"  stroke-width="1.4"/>
<line x1="69.7" y1="110.9" x2="71.2" y2="133.4" opacity="0.5" stroke="rgb(0,0,0)"  stroke-width="1.1"/>
<circle cx="398.177495" cy="111.245417" r="5.636364" opacity="0.200000" style="stroke:black;stroke-width:0.5;fill:url(#radialffffffbfbfbf)"/>
<circle cx="438.591429" cy="141.956223" r="5.636364" opacity="0.441338" style="stroke:black;stroke-width:0.5;fill:url(#radialffffffbfbfbf)"/>
<circle cx="405.636673" cy="128.417506" r="13.818182" opacity="0.464954" style="stroke:black;stroke-width:0.5;fill:url(#radialffffff666666)"/>
<circle cx="383.213479" cy="156.059189" r="5.636364" opacity="0.486308" style="stroke:black;stroke-width:0.5;fill:url(#radialffffffbfbfbf)"/>
<circle cx="434.331838" cy="43.493126" r="5.636364" opacity="0.504405" style="stroke:black;stroke-width:0.5;fill:url(#radialffffffbfbfbf)"/>
<circle cx="110.762707" cy="62.012238" r="5.636364" opacity="0.523735" style="stroke:black;stroke-width:0.5;fill:url(#radialffffffbfbfbf)"/>
<circle cx="71.248963" cy="133.362025" r="5.636364" opacity="0.530000" style="stroke:black;stroke-width:0.5;fill:url(#radialffffffbfbfbf)"/>
<circle cx="354.475914" cy="53.773549" r="5.636364" opacity="0.544231" style="stroke:black;stroke-width:0.5;fill:url(#radialffffffbfbfbf)"/>
<circle cx="193.071320" cy="60.352106" r="5.636364" opacity="0.548893" style="stroke:black;stroke-width:0.5;fill:url(#radialffffffbfbfbf)"/>
<circle cx="274.349282" cy="57.449322" r="5.636364" opacity="0.552636" style="stroke:black;stroke-width:0.5;fill:url(#radialffffffbfbfbf)"/>
<circle cx="153.312959" cy="131.884540" r="5.636364" opacity="0.575931" style="stroke:black;stroke-width:0.5;fill:url(#radialffffffbfbfbf)"/>
<circle cx="317.176766" cy="126.858483" r="5.636364" opacity="0.576433" style="stroke:black;stroke-width:0.5;fill:url(#radialffffffbfbfbf)"/>
<circle cx="235.928158" cy="129.744960" r="5.636364" opacity="0.579879" style="stroke:black;stroke-width:0.5;fill:url(#radialffffffbfbfbf)"/>
<circle cx="40.000000" cy="91.376021" r="5.636364" opacity="0.674447" style="stroke:black;stroke-width:0.5;fill:url(#radialffffffbfbfbf)"/>
<circle cx="470.822120" cy="77.485057" r="5.636364" opacity="0.678572" style="stroke:black;stroke-width:0.5;fill:url(#radialffffffbfbfbf)"/>
<circle cx="438.314197" cy="62.644979" r="13.818182" opacity="0.683267" style="stroke:black;stroke-width:0.5;fill:url(#radialffffff666666)"/>
<circle cx="69.689939" cy="110.925785" r="13.818182" opacity="0.691238" style="stroke:black;stroke-width:0.5;fill:url(#radialffffff666666)"/>
<circle cx="109.582024" cy="81.454370" r="13.818182" opacity="0.697991" style="stroke:black;stroke-width:0.5;fill:url(#radialffffff666666)"/>
<circle cx="402.397948" cy="97.582761" r="13.818182" opacity="0.704366" style="stroke:black;stroke-width:0.5;fill:url(#radialffffff666666)"/>
<circle cx="357.597223" cy="74.044116" r="13.951972" opacity="0.710522" style="stroke:black;stroke-width:0.5;fill:url(#radialffffff666666)"/>
<circle cx="192.927812" cy="79.927962" r="14.206750" opacity="0.716980" style="stroke:black;stroke-width:0.5;fill:url(#radialffffff666666)"/>
<circle cx="275.259256" cy="77.083885" r="14.307253" opacity="0.719511" style="stroke:black;stroke-width:0.5;fill:url(#radialffffff666666)"/>
<circle cx="151.587596" cy="107.931677" r="14.375108" opacity="0.721216" style="stroke:black;stroke-width:0.5;fill:url(#radialffffff666666)"/>
<circle cx="317.476829" cy="103.779717" r="14.533224" opacity="0.725171" style="stroke:black;stroke-width:0.5;fill:url(#radialffffff666666)"/>
<circle cx="235.044277" cy="106.617270" r="14.645250" opacity="0.727961" style="stroke:black;stroke-width:0.5;fill:url(#radialffffff666666)"/>
<circle cx="437.518377" cy="40.000000" r="7.475898" opacity="0.814361" style="stroke:black;stroke-width:0.5;fill:url(#radialffffffbfbfbf)"/>
<circle cx="106.604224" cy="58.620220" r="7.680871" opacity="0.825450" style="stroke:black;stroke-width:0.5;fill:url(#radialffffffbfbfbf)"/>
<circle cx="67.057864" cy="130.227670" r="7.781660" opacity="0.830848" style="stroke:black;stroke-width:0.5;fill:url(#radialffffffbfbfbf)"/>
<circle cx="357.042758" cy="51.408921" r="7.913521" opacity="0.837858" style="stroke:black;stroke-width:0.5;fill:url(#radialffffffbfbfbf)"/>
<circle cx="191.995007" cy="56.891596" r="7.985327" opacity="0.841651" style="stroke:black;stroke-width:0.5;fill:url(#radialffffffbfbfbf)"/>
<circle cx="274.668914" cy="54.344321" r="8.045905" opacity="0.844837" style="stroke:black;stroke-width:0.5;fill:url(#radialffffffbfbfbf)"/>
<circle cx="150.615653" cy="126.499712" r="8.311195" opacity="0.858652" style="stroke:black;stroke-width:0.5;fill:url(#radialffffffbfbfbf)"/>
<circle cx="318.461819" cy="122.846770" r="8.345662" opacity="0.860431" style="stroke:black;stroke-width:0.5;fill:url(#radialffffffbfbfbf)"/>
<circle cx="235.455233" cy="125.831093" r="8.388745" opacity="0.862649" style="stroke:black;stroke-width:0.5;fill:url(#radialffffffbfbfbf)"/>
<circle cx="410.372451" cy="123.671943" r="21.969795" opacity="0.891605" style="stroke:black;stroke-width:0.5;fill:url(#radialffffff666666)"/>
<circle cx="443.275023" cy="137.654231" r="8.994525" opacity="0.893253" style="stroke:black;stroke-width:0.5;fill:url(#radialffffffbfbfbf)"/>
<circle cx="387.358916" cy="150.778731" r="9.225870" opacity="0.904668" style="stroke:black;stroke-width:0.5;fill:url(#radialffffffbfbfbf)"/>
<circle cx="407.071757" cy="102.869743" r="11.272727" opacity="1.000000" style="stroke:black;stroke-width:0.5;fill:url(#radialffffffbfbfbf)"/>
</svg>
</g>
</svg>
