<?xml version="1.0"?>
<svg version="1.1" id="topsvg"
xmlns="http://www.w3.org/2000/svg" xmlns:xlink="http://www.w3.org/1999/xlink"
xmlns:cml="http://www.xml-cml.org/schema" x="0" y="0" width="200px" height="200px" viewBox="0 0 100 100">
<title>28455 - Open Babel Depiction</title>
<rect x="0" y="0" width="100" height="100" fill="white"/>
<defs>
<radialGradient id='radialffffff666666' cx='50%' cy='50%' r='50%' fx='30%' fy='30%'>
  <stop offset=' 0%' stop-color="rgb(255,255,255)"  stop-opacity='1.0'/>
  <stop offset='100%' stop-color="rgb(102,102,102)"  stop-opacity ='1.0'/>
</radialGradient>
<radialGradient id='radialffffffbfbfbf' cx='50%' cy='50%' r='50%' fx='30%' fy='30%'>
  <stop offset=' 0%' stop-color="rgb(255,255,255)"  stop-opacity='1.0'/>
  <stop offset='100%' stop-color="rgb(191,191,191)"  stop-opacity ='1.0'/>
</radialGradient>
</defs>
<g transform="translate(0,0)">
<svg width="100" height="100" x="0" y="0" viewBox="0 0 436.59 240.349"
font-family="sans-serif" stroke="rgb(0,0,0)" stroke-width="4"  stroke-linecap="round">
<line x1="266.6" y1="143.3" x2="219.0" y2="136.9" opacity="1.0" stroke="rgb(0,0,0)"  stroke-width="1.0"/>
<line x1="266.6" y1="143.3" x2="290.3" y2="99.1" opacity="0.3" stroke="rgb(0,0,0)"  stroke-width="1.3"/>
<line x1="266.6" y1="143.3" x2="268.6" y2="171.3" opacity="0.4" stroke="rgb(0,0,0)"  stroke-width="1.7"/>
<line x1="270.6" y1="146.3" x2="269.4" y2="147.4" opacity="0.6" stroke="rgb(0,0,0)"  stroke-width="1.0"/>
<line x1="273.8" y1="148.8" x2="271.7" y2="150.8" opacity="0.6" stroke="rgb(0,0,0)"  stroke-width="1.0"/>
<line x1="277.0" y1="151.2" x2="273.9" y2="154.1" opacity="0.6" stroke="rgb(0,0,0)"  stroke-width="1.0"/>
<line x1="280.2" y1="153.7" x2="276.2" y2="157.4" opacity="0.6" stroke="rgb(0,0,0)"  stroke-width="1.0"/>
<line x1="283.3" y1="156.2" x2="278.4" y2="160.8" opacity="0.6" stroke="rgb(0,0,0)"  stroke-width="1.0"/>
<line x1="286.5" y1="158.6" x2="280.7" y2="164.1" opacity="0.6" stroke="rgb(0,0,0)"  stroke-width="1.0"/>
<line x1="219.0" y1="136.9" x2="187.9" y2="116.3" opacity="0.6" stroke="rgb(0,0,0)"  stroke-width="1.2"/>
<line x1="219.0" y1="136.9" x2="219.2" y2="117.1" opacity="0.4" stroke="rgb(0,0,0)"  stroke-width="0.4"/>
<line x1="219.0" y1="136.9" x2="206.0" y2="169.1" opacity="0.1" stroke="rgb(0,0,0)"  stroke-width="0.7"/>
<line x1="290.3" y1="99.1" x2="339.3" y2="104.0" opacity="0.2" stroke="rgb(0,0,0)"  stroke-width="1.5"/>
<line x1="290.3" y1="99.1" x2="275.2" y2="80.4" opacity="0.5" stroke="rgb(0,0,0)"  stroke-width="1.7"/>
<line x1="290.3" y1="99.1" x2="286.2" y2="79.6" opacity="0.6" stroke="rgb(0,0,0)"  stroke-width="0.9"/>
<line x1="187.9" y1="116.3" x2="141.3" y2="113.3" opacity="0.3" stroke="rgb(0,0,0)"  stroke-width="1.4"/>
<line x1="187.9" y1="116.3" x2="199.2" y2="83.4" opacity="0.5" stroke="rgb(0,0,0)"  stroke-width="1.8"/>
<line x1="187.9" y1="116.3" x2="187.2" y2="135.8" opacity="0.6" stroke="rgb(0,0,0)"  stroke-width="2.0"/>
<line x1="141.3" y1="113.3" x2="108.4" y2="93.9" opacity="0.7" stroke="rgb(0,0,0)"  stroke-width="1.6"/>
<line x1="141.3" y1="113.3" x2="141.5" y2="93.3" opacity="0.5" stroke="rgb(0,0,0)"  stroke-width="0.8"/>
<line x1="141.3" y1="113.3" x2="130.2" y2="146.1" opacity="0.3" stroke="rgb(0,0,0)"  stroke-width="1.0"/>
<line x1="268.6" y1="171.3" x2="302.0" y2="182.8" opacity="0.3" stroke="rgb(0,0,0)"  stroke-width="2.3"/>
<line x1="268.6" y1="171.3" x2="258.0" y2="153.0" opacity="0.8" stroke="rgb(0,0,0)"  stroke-width="2.6"/>
<line x1="268.6" y1="171.3" x2="247.9" y2="200.3" opacity="0.9" stroke="rgb(0,0,0)"  stroke-width="2.2"/>
<line x1="339.3" y1="104.0" x2="361.7" y2="59.7" opacity="0.7" stroke="rgb(0,0,0)"  stroke-width="1.6"/>
<line x1="339.3" y1="104.0" x2="344.4" y2="121.5" opacity="0.5" stroke="rgb(0,0,0)"  stroke-width="2.0"/>
<line x1="339.3" y1="104.0" x2="354.8" y2="123.2" opacity="0.7" stroke="rgb(0,0,0)"  stroke-width="1.2"/>
<line x1="108.4" y1="93.9" x2="62.0" y2="91.6" opacity="0.4" stroke="rgb(0,0,0)"  stroke-width="1.8"/>
<line x1="108.4" y1="93.9" x2="119.0" y2="60.8" opacity="0.6" stroke="rgb(0,0,0)"  stroke-width="2.1"/>
<line x1="108.4" y1="93.9" x2="108.4" y2="113.5" opacity="0.7" stroke="rgb(0,0,0)"  stroke-width="2.4"/>
<line x1="361.7" y1="59.7" x2="347.5" y2="40.0" opacity="0.8" stroke="rgb(0,0,0)"  stroke-width="2.0"/>
<line x1="361.7" y1="59.7" x2="396.6" y2="63.9" opacity="0.7" stroke="rgb(0,0,0)"  stroke-width="1.7"/>
<line x1="361.7" y1="59.7" x2="358.4" y2="41.4" opacity="0.6" stroke="rgb(0,0,0)"  stroke-width="1.3"/>
<line x1="62.0" y1="91.6" x2="49.9" y2="124.3" opacity="0.4" stroke="rgb(0,0,0)"  stroke-width="1.4"/>
<line x1="62.0" y1="91.6" x2="40.0" y2="77.5" opacity="0.5" stroke="rgb(0,0,0)"  stroke-width="1.9"/>
<line x1="62.0" y1="91.6" x2="60.5" y2="71.3" opacity="0.6" stroke="rgb(0,0,0)"  stroke-width="1.2"/>
<circle cx="219.163942" cy="117.107082" r="5.636364" opacity="0.200000" style="stroke:black;stroke-width:0.5;fill:url(#radialffffffbfbfbf)"/>
<circle cx="141.549684" cy="93.325445" r="5.636364" opacity="0.362331" style="stroke:black;stroke-width:0.5;fill:url(#radialffffffbfbfbf)"/>
<circle cx="283.607989" cy="161.358989" r="5.636364" opacity="0.412244" style="stroke:black;stroke-width:0.5;fill:url(#radialffffffbfbfbf)"/>
<circle cx="206.032996" cy="169.090966" r="5.636364" opacity="0.420265" style="stroke:black;stroke-width:0.5;fill:url(#radialffffffbfbfbf)"/>
<circle cx="286.163501" cy="79.625154" r="5.636364" opacity="0.431644" style="stroke:black;stroke-width:0.5;fill:url(#radialffffffbfbfbf)"/>
<circle cx="219.029785" cy="136.945836" r="13.818182" opacity="0.507718" style="stroke:black;stroke-width:0.5;fill:url(#radialffffff666666)"/>
<circle cx="60.525895" cy="71.251846" r="5.636364" opacity="0.511450" style="stroke:black;stroke-width:0.5;fill:url(#radialffffffbfbfbf)"/>
<circle cx="358.447505" cy="41.426636" r="5.636364" opacity="0.536852" style="stroke:black;stroke-width:0.5;fill:url(#radialffffffbfbfbf)"/>
<circle cx="354.818744" cy="123.248817" r="5.636364" opacity="0.548766" style="stroke:black;stroke-width:0.5;fill:url(#radialffffffbfbfbf)"/>
<circle cx="130.244571" cy="146.071728" r="5.636364" opacity="0.553113" style="stroke:black;stroke-width:0.5;fill:url(#radialffffffbfbfbf)"/>
<circle cx="141.310820" cy="113.278723" r="13.818182" opacity="0.623070" style="stroke:black;stroke-width:0.5;fill:url(#radialffffff666666)"/>
<circle cx="266.625780" cy="143.251177" r="13.818182" opacity="0.627576" style="stroke:black;stroke-width:0.5;fill:url(#radialffffff666666)"/>
<circle cx="49.921013" cy="124.308978" r="5.636364" opacity="0.665557" style="stroke:black;stroke-width:0.5;fill:url(#radialffffffbfbfbf)"/>
<circle cx="290.309254" cy="99.087617" r="13.818182" opacity="0.666129" style="stroke:black;stroke-width:0.5;fill:url(#radialffffff666666)"/>
<circle cx="61.995069" cy="91.637041" r="14.229363" opacity="0.717550" style="stroke:black;stroke-width:0.5;fill:url(#radialffffff666666)"/>
<circle cx="339.276259" cy="104.018674" r="14.503484" opacity="0.724429" style="stroke:black;stroke-width:0.5;fill:url(#radialffffff666666)"/>
<circle cx="187.889191" cy="116.256336" r="15.085212" opacity="0.738814" style="stroke:black;stroke-width:0.5;fill:url(#radialffffff666666)"/>
<circle cx="361.680341" cy="59.675149" r="15.260431" opacity="0.743093" style="stroke:black;stroke-width:0.5;fill:url(#radialffffff666666)"/>
<circle cx="396.590397" cy="63.883072" r="6.883454" opacity="0.781428" style="stroke:black;stroke-width:0.5;fill:url(#radialffffffbfbfbf)"/>
<circle cx="199.227024" cy="83.407704" r="7.007019" opacity="0.788410" style="stroke:black;stroke-width:0.5;fill:url(#radialffffffbfbfbf)"/>
<circle cx="108.445828" cy="93.884975" r="18.444750" opacity="0.816951" style="stroke:black;stroke-width:0.5;fill:url(#radialffffff666666)"/>
<circle cx="275.169238" cy="80.443180" r="7.590540" opacity="0.820582" style="stroke:black;stroke-width:0.5;fill:url(#radialffffffbfbfbf)"/>
<circle cx="247.889724" cy="200.349355" r="8.153097" opacity="0.850446" style="stroke:black;stroke-width:0.5;fill:url(#radialffffffbfbfbf)"/>
<circle cx="40.000000" cy="77.524465" r="8.181050" opacity="0.851903" style="stroke:black;stroke-width:0.5;fill:url(#radialffffffbfbfbf)"/>
<circle cx="118.962364" cy="60.843289" r="8.417698" opacity="0.864136" style="stroke:black;stroke-width:0.5;fill:url(#radialffffffbfbfbf)"/>
<circle cx="268.608674" cy="171.286546" r="20.755308" opacity="0.866611" style="stroke:black;stroke-width:0.5;fill:url(#radialffffff666666)"/>
<circle cx="347.512140" cy="40.000000" r="8.784265" opacity="0.882751" style="stroke:black;stroke-width:0.5;fill:url(#radialffffffbfbfbf)"/>
<circle cx="344.423276" cy="121.488427" r="8.911007" opacity="0.889096" style="stroke:black;stroke-width:0.5;fill:url(#radialffffffbfbfbf)"/>
<circle cx="301.957937" cy="182.843610" r="9.057761" opacity="0.896388" style="stroke:black;stroke-width:0.5;fill:url(#radialffffffbfbfbf)"/>
<circle cx="187.166057" cy="135.754791" r="9.071102" opacity="0.897048" style="stroke:black;stroke-width:0.5;fill:url(#radialffffffbfbfbf)"/>
<circle cx="108.390203" cy="113.517586" r="10.438899" opacity="0.962305" style="stroke:black;stroke-width:0.5;fill:url(#radialffffffbfbfbf)"/>
<circle cx="257.951438" cy="153.021673" r="11.272727" opacity="1.000000" style="stroke:black;stroke-width:0.5;fill:url(#radialffffffbfbfbf)"/>
</svg>
</g>
</svg>
