<?xml version="1.0"?>
<svg version="1.1" id="topsvg"
xmlns="http://www.w3.org/2000/svg" xmlns:xlink="http://www.w3.org/1999/xlink"
xmlns:cml="http://www.xml-cml.org/schema" x="0" y="0" width="1024px" height="1024px" viewBox="0 0 100 100">
<title>28476 - Open Babel Depiction</title>
<rect x="0" y="0" width="100" height="100" fill="white"/>
<defs>
<radialGradient id='radialffffff666666' cx='50%' cy='50%' r='50%' fx='30%' fy='30%'>
  <stop offset=' 0%' stop-color="rgb(255,255,255)"  stop-opacity='1.0'/>
  <stop offset='100%' stop-color="rgb(102,102,102)"  stop-opacity ='1.0'/>
</radialGradient>
<radialGradient id='radialffffffbfbfbf' cx='50%' cy='50%' r='50%' fx='30%' fy='30%'>
  <stop offset=' 0%' stop-color="rgb(255,255,255)"  stop-opacity='1.0'/>
  <stop offset='100%' stop-color="rgb(191,191,191)"  stop-opacity ='1.0'/>
</radialGradient>
</defs>
<g transform="translate(0,0)">
<svg width="100" height="100" x="0" y="0" viewBox="0 0 493.778 272.597"
font-family="sans-serif" stroke="rgb(0,0,0)" stroke-width="2"  stroke-linecap="round">
<line x1="325.6" y1="163.5" x2="307.2" y2="170.6" opacity="1.0" stroke="rgb(0,0,0)"  stroke-width="1.3"/>
<line x1="325.6" y1="163.5" x2="374.6" y2="151.3" opacity="0.4" stroke="rgb(0,0,0)"  stroke-width="1.7"/>
<line x1="325.6" y1="163.5" x2="319.9" y2="204.1" opacity="0.6" stroke="rgb(0,0,0)"  stroke-width="2.0"/>
<polygon points="325.625180 163.462589 304.600543 138.996568 311.267703 134.575145 " stroke-width="2.033820" fill="rgb(0,0,0)"  stroke="rgb(0,0,0)" />
<line x1="307.2" y1="170.6" x2="258.2" y2="180.1" opacity="0.7" stroke="rgb(0,0,0)"  stroke-width="0.7"/>
<line x1="307.2" y1="170.6" x2="313.2" y2="141.5" opacity="0.2" stroke="rgb(0,0,0)"  stroke-width="0.6"/>
<line x1="307.2" y1="170.6" x2="324.9" y2="197.4" opacity="0.2" stroke="rgb(0,0,0)"  stroke-width="0.6"/>
<line x1="374.6" y1="151.3" x2="386.7" y2="109.7" opacity="0.2" stroke="rgb(0,0,0)"  stroke-width="1.5"/>
<line x1="374.6" y1="151.3" x2="392.9" y2="178.8" opacity="0.5" stroke="rgb(0,0,0)"  stroke-width="1.6"/>
<line x1="374.6" y1="151.3" x2="386.0" y2="147.6" opacity="0.5" stroke="rgb(0,0,0)"  stroke-width="2.1"/>
<line x1="258.2" y1="180.1" x2="228.2" y2="145.5" opacity="0.7" stroke="rgb(0,0,0)"  stroke-width="0.9"/>
<line x1="258.2" y1="180.1" x2="249.9" y2="183.9" opacity="0.3" stroke="rgb(0,0,0)"  stroke-width="0.4"/>
<line x1="258.2" y1="180.1" x2="251.3" y2="211.7" opacity="0.1" stroke="rgb(0,0,0)"  stroke-width="0.9"/>
<line x1="386.7" y1="109.7" x2="436.0" y2="102.2" opacity="0.3" stroke="rgb(0,0,0)"  stroke-width="1.2"/>
<line x1="386.7" y1="109.7" x2="362.7" y2="69.4" opacity="0.4" stroke="rgb(0,0,0)"  stroke-width="1.4"/>
<line x1="386.7" y1="109.7" x2="378.6" y2="114.1" opacity="0.5" stroke="rgb(0,0,0)"  stroke-width="0.8"/>
<line x1="228.2" y1="145.5" x2="179.8" y2="155.3" opacity="0.3" stroke="rgb(0,0,0)"  stroke-width="1.1"/>
<line x1="228.2" y1="145.5" x2="235.8" y2="113.7" opacity="0.4" stroke="rgb(0,0,0)"  stroke-width="1.0"/>
<line x1="228.2" y1="145.5" x2="234.8" y2="142.8" opacity="0.3" stroke="rgb(0,0,0)"  stroke-width="1.5"/>
<line x1="319.9" y1="204.1" x2="285.4" y2="211.7" opacity="0.5" stroke="rgb(0,0,0)"  stroke-width="2.4"/>
<line x1="319.9" y1="204.1" x2="334.3" y2="199.1" opacity="0.8" stroke="rgb(0,0,0)"  stroke-width="2.7"/>
<line x1="319.9" y1="204.1" x2="335.6" y2="232.6" opacity="0.9" stroke="rgb(0,0,0)"  stroke-width="2.2"/>
<line x1="179.8" y1="155.3" x2="151.3" y2="121.4" opacity="0.7" stroke="rgb(0,0,0)"  stroke-width="1.2"/>
<line x1="179.8" y1="155.3" x2="172.4" y2="187.8" opacity="0.4" stroke="rgb(0,0,0)"  stroke-width="1.1"/>
<line x1="179.8" y1="155.3" x2="172.1" y2="155.9" opacity="0.4" stroke="rgb(0,0,0)"  stroke-width="0.6"/>
<line x1="151.3" y1="121.4" x2="102.9" y2="131.9" opacity="0.2" stroke="rgb(0,0,0)"  stroke-width="1.4"/>
<line x1="151.3" y1="121.4" x2="159.6" y2="120.4" opacity="0.5" stroke="rgb(0,0,0)"  stroke-width="1.8"/>
<line x1="151.3" y1="121.4" x2="158.1" y2="88.9" opacity="0.6" stroke="rgb(0,0,0)"  stroke-width="1.3"/>
<line x1="436.0" y1="102.2" x2="445.5" y2="73.6" opacity="0.4" stroke="rgb(0,0,0)"  stroke-width="1.0"/>
<line x1="436.0" y1="102.2" x2="453.8" y2="130.3" opacity="0.3" stroke="rgb(0,0,0)"  stroke-width="1.1"/>
<line x1="436.0" y1="102.2" x2="446.5" y2="96.9" opacity="0.4" stroke="rgb(0,0,0)"  stroke-width="1.6"/>
<line x1="362.7" y1="69.4" x2="373.9" y2="40.0" opacity="0.5" stroke="rgb(0,0,0)"  stroke-width="1.4"/>
<line x1="362.7" y1="69.4" x2="368.1" y2="64.7" opacity="0.5" stroke="rgb(0,0,0)"  stroke-width="1.9"/>
<line x1="362.7" y1="69.4" x2="327.6" y2="71.9" opacity="0.6" stroke="rgb(0,0,0)"  stroke-width="1.5"/>
<line x1="102.9" y1="131.9" x2="74.5" y2="98.8" opacity="0.5" stroke="rgb(0,0,0)"  stroke-width="1.6"/>
<line x1="102.9" y1="131.9" x2="96.0" y2="164.5" opacity="0.5" stroke="rgb(0,0,0)"  stroke-width="1.5"/>
<line x1="102.9" y1="131.9" x2="94.2" y2="132.2" opacity="0.5" stroke="rgb(0,0,0)"  stroke-width="1.0"/>
<line x1="74.5" y1="98.8" x2="79.8" y2="66.0" opacity="0.3" stroke="rgb(0,0,0)"  stroke-width="1.7"/>
<line x1="74.5" y1="98.8" x2="40.0" y2="106.9" opacity="0.6" stroke="rgb(0,0,0)"  stroke-width="1.8"/>
<line x1="74.5" y1="98.8" x2="81.6" y2="98.6" opacity="0.6" stroke="rgb(0,0,0)"  stroke-width="2.2"/>
<circle cx="249.858046" cy="183.923985" r="5.636364" opacity="0.200000" style="stroke:black;stroke-width:0.5;fill:url(#radialffffffbfbfbf)"/>
<circle cx="172.125601" cy="155.904453" r="5.636364" opacity="0.301511" style="stroke:black;stroke-width:0.5;fill:url(#radialffffffbfbfbf)"/>
<circle cx="313.207544" cy="141.521506" r="5.636364" opacity="0.349222" style="stroke:black;stroke-width:0.5;fill:url(#radialffffffbfbfbf)"/>
<circle cx="324.930966" cy="197.378053" r="5.636364" opacity="0.387071" style="stroke:black;stroke-width:0.5;fill:url(#radialffffffbfbfbf)"/>
<circle cx="378.603834" cy="114.091894" r="5.636364" opacity="0.395741" style="stroke:black;stroke-width:0.5;fill:url(#radialffffffbfbfbf)"/>
<circle cx="94.217158" cy="132.164280" r="5.636364" opacity="0.463835" style="stroke:black;stroke-width:0.5;fill:url(#radialffffffbfbfbf)"/>
<circle cx="258.195136" cy="180.130250" r="13.818182" opacity="0.489150" style="stroke:black;stroke-width:0.5;fill:url(#radialffffff666666)"/>
<circle cx="307.230131" cy="170.610063" r="13.818182" opacity="0.509027" style="stroke:black;stroke-width:0.5;fill:url(#radialffffff666666)"/>
<circle cx="235.849910" cy="113.674713" r="5.636364" opacity="0.525697" style="stroke:black;stroke-width:0.5;fill:url(#radialffffffbfbfbf)"/>
<circle cx="445.466773" cy="73.573246" r="5.636364" opacity="0.530351" style="stroke:black;stroke-width:0.5;fill:url(#radialffffffbfbfbf)"/>
<circle cx="453.777789" cy="130.273931" r="5.636364" opacity="0.569367" style="stroke:black;stroke-width:0.5;fill:url(#radialffffffbfbfbf)"/>
<circle cx="179.758699" cy="155.288460" r="13.818182" opacity="0.576530" style="stroke:black;stroke-width:0.5;fill:url(#radialffffff666666)"/>
<circle cx="251.298622" cy="211.731667" r="5.636364" opacity="0.586802" style="stroke:black;stroke-width:0.5;fill:url(#radialffffffbfbfbf)"/>
<circle cx="228.229849" cy="145.471683" r="13.818182" opacity="0.613458" style="stroke:black;stroke-width:0.5;fill:url(#radialffffff666666)"/>
<circle cx="373.930109" cy="40.000000" r="5.636364" opacity="0.628418" style="stroke:black;stroke-width:0.5;fill:url(#radialffffffbfbfbf)"/>
<circle cx="386.663890" cy="109.695203" r="13.818182" opacity="0.628776" style="stroke:black;stroke-width:0.5;fill:url(#radialffffff666666)"/>
<circle cx="158.101169" cy="88.940478" r="5.636364" opacity="0.631407" style="stroke:black;stroke-width:0.5;fill:url(#radialffffffbfbfbf)"/>
<circle cx="435.959623" cy="102.176178" r="13.818182" opacity="0.643118" style="stroke:black;stroke-width:0.5;fill:url(#radialffffff666666)"/>
<circle cx="172.435227" cy="187.779644" r="5.636364" opacity="0.649762" style="stroke:black;stroke-width:0.5;fill:url(#radialffffffbfbfbf)"/>
<circle cx="102.873652" cy="131.867691" r="13.818182" opacity="0.674467" style="stroke:black;stroke-width:0.5;fill:url(#radialffffff666666)"/>
<circle cx="327.554639" cy="71.894747" r="5.636364" opacity="0.687906" style="stroke:black;stroke-width:0.5;fill:url(#radialffffffbfbfbf)"/>
<circle cx="392.918337" cy="178.784192" r="5.636364" opacity="0.690262" style="stroke:black;stroke-width:0.5;fill:url(#radialffffffbfbfbf)"/>
<circle cx="151.289395" cy="121.382774" r="13.818182" opacity="0.700877" style="stroke:black;stroke-width:0.5;fill:url(#radialffffff666666)"/>
<circle cx="362.692312" cy="69.378627" r="14.142824" opacity="0.715365" style="stroke:black;stroke-width:0.5;fill:url(#radialffffff666666)"/>
<circle cx="79.791841" cy="65.959703" r="5.973895" opacity="0.727971" style="stroke:black;stroke-width:0.5;fill:url(#radialffffffbfbfbf)"/>
<circle cx="96.032545" cy="164.479466" r="6.133510" opacity="0.737633" style="stroke:black;stroke-width:0.5;fill:url(#radialffffffbfbfbf)"/>
<circle cx="374.565658" cy="151.292654" r="15.799685" opacity="0.756108" style="stroke:black;stroke-width:0.5;fill:url(#radialffffff666666)"/>
<circle cx="325.625180" cy="163.462589" r="16.005936" opacity="0.761027" style="stroke:black;stroke-width:0.5;fill:url(#radialffffff666666)"/>
<circle cx="40.000000" cy="106.934642" r="6.642095" opacity="0.767605" style="stroke:black;stroke-width:0.5;fill:url(#radialffffffbfbfbf)"/>
<circle cx="74.485828" cy="98.841994" r="17.090155" opacity="0.786380" style="stroke:black;stroke-width:0.5;fill:url(#radialffffff666666)"/>
<circle cx="234.816736" cy="142.825195" r="6.972509" opacity="0.786466" style="stroke:black;stroke-width:0.5;fill:url(#radialffffffbfbfbf)"/>
<circle cx="446.512983" cy="96.915794" r="7.290470" opacity="0.804198" style="stroke:black;stroke-width:0.5;fill:url(#radialffffffbfbfbf)"/>
<circle cx="335.595140" cy="232.597206" r="7.603601" opacity="0.821287" style="stroke:black;stroke-width:0.5;fill:url(#radialffffffbfbfbf)"/>
<circle cx="307.934123" cy="136.785857" r="7.760929" opacity="0.829741" style="stroke:black;stroke-width:0.5;fill:url(#radialffffffbfbfbf)"/>
<circle cx="159.551522" cy="120.382192" r="8.248672" opacity="0.855416" style="stroke:black;stroke-width:0.5;fill:url(#radialffffffbfbfbf)"/>
<circle cx="368.148249" cy="64.727717" r="8.495720" opacity="0.868132" style="stroke:black;stroke-width:0.5;fill:url(#radialffffffbfbfbf)"/>
<circle cx="319.934578" cy="204.124643" r="21.465663" opacity="0.881316" style="stroke:black;stroke-width:0.5;fill:url(#radialffffff666666)"/>
<circle cx="386.041378" cy="147.648844" r="9.074962" opacity="0.897239" style="stroke:black;stroke-width:0.5;fill:url(#radialffffffbfbfbf)"/>
<circle cx="285.445491" cy="211.721889" r="9.142062" opacity="0.900549" style="stroke:black;stroke-width:0.5;fill:url(#radialffffffbfbfbf)"/>
<circle cx="81.590932" cy="98.555183" r="9.697412" opacity="0.927499" style="stroke:black;stroke-width:0.5;fill:url(#radialffffffbfbfbf)"/>
<circle cx="334.340340" cy="199.102182" r="11.272727" opacity="1.000000" style="stroke:black;stroke-width:0.5;fill:url(#radialffffffbfbfbf)"/>
</svg>
</g>
</svg>
