<?xml version="1.0"?>
<svg version="1.1" id="topsvg"
xmlns="http://www.w3.org/2000/svg" xmlns:xlink="http://www.w3.org/1999/xlink"
xmlns:cml="http://www.xml-cml.org/schema" x="0" y="0" width="1024px" height="1024px" viewBox="0 0 100 100">
<title>30140 - Open Babel Depiction</title>
<rect x="0" y="0" width="100" height="100" fill="white"/>
<defs>
<radialGradient id='radialffffff1eef1e' cx='50%' cy='50%' r='50%' fx='30%' fy='30%'>
  <stop offset=' 0%' stop-color="rgb(255,255,255)"  stop-opacity='1.0'/>
  <stop offset='100%' stop-color="rgb(30,239,30)"  stop-opacity ='1.0'/>
</radialGradient>
<radialGradient id='radialffffff666666' cx='50%' cy='50%' r='50%' fx='30%' fy='30%'>
  <stop offset=' 0%' stop-color="rgb(255,255,255)"  stop-opacity='1.0'/>
  <stop offset='100%' stop-color="rgb(102,102,102)"  stop-opacity ='1.0'/>
</radialGradient>
<radialGradient id='radialffffffbfbfbf' cx='50%' cy='50%' r='50%' fx='30%' fy='30%'>
  <stop offset=' 0%' stop-color="rgb(255,255,255)"  stop-opacity='1.0'/>
  <stop offset='100%' stop-color="rgb(191,191,191)"  stop-opacity ='1.0'/>
</radialGradient>
</defs>
<g transform="translate(0,0)">
<svg width="100" height="100" x="0" y="0" viewBox="0 0 430.005 181.809"
font-family="sans-serif" stroke="rgb(0,0,0)" stroke-width="2"  stroke-linecap="round">
<line x1="75.0" y1="141.8" x2="82.8" y2="91.1" opacity="1.0" stroke="rgb(0,0,0)"  stroke-width="1.5"/>
<line x1="40.0" y1="57.9" x2="82.8" y2="91.1" opacity="0.5" stroke="rgb(0,0,0)"  stroke-width="1.6"/>
<line x1="203.7" y1="75.3" x2="243.4" y2="99.4" opacity="0.5" stroke="rgb(0,0,0)"  stroke-width="1.6"/>
<line x1="203.7" y1="75.3" x2="162.9" y2="97.5" opacity="0.5" stroke="rgb(0,0,0)"  stroke-width="1.6"/>
<line x1="203.7" y1="75.3" x2="204.6" y2="43.9" opacity="0.5" stroke="rgb(0,0,0)"  stroke-width="1.6"/>
<line x1="203.7" y1="75.3" x2="203.9" y2="70.6" opacity="0.5" stroke="rgb(0,0,0)"  stroke-width="0.8"/>
<line x1="243.4" y1="99.4" x2="284.1" y2="78.3" opacity="0.3" stroke="rgb(0,0,0)"  stroke-width="1.5"/>
<line x1="243.4" y1="99.4" x2="243.9" y2="102.8" opacity="0.5" stroke="rgb(0,0,0)"  stroke-width="2.4"/>
<line x1="243.4" y1="99.4" x2="241.8" y2="131.2" opacity="0.8" stroke="rgb(0,0,0)"  stroke-width="1.6"/>
<line x1="162.9" y1="97.5" x2="124.3" y2="71.4" opacity="0.5" stroke="rgb(0,0,0)"  stroke-width="1.6"/>
<line x1="162.9" y1="97.5" x2="162.1" y2="128.4" opacity="0.5" stroke="rgb(0,0,0)"  stroke-width="1.5"/>
<line x1="162.9" y1="97.5" x2="162.7" y2="102.8" opacity="0.5" stroke="rgb(0,0,0)"  stroke-width="2.4"/>
<line x1="284.1" y1="78.3" x2="322.5" y2="104.8" opacity="0.8" stroke="rgb(0,0,0)"  stroke-width="1.5"/>
<line x1="284.1" y1="78.3" x2="286.7" y2="47.1" opacity="0.5" stroke="rgb(0,0,0)"  stroke-width="1.5"/>
<line x1="284.1" y1="78.3" x2="283.1" y2="73.9" opacity="0.5" stroke="rgb(0,0,0)"  stroke-width="0.7"/>
<line x1="124.3" y1="71.4" x2="82.8" y2="91.1" opacity="0.2" stroke="rgb(0,0,0)"  stroke-width="1.6"/>
<line x1="124.3" y1="71.4" x2="124.3" y2="66.9" opacity="0.5" stroke="rgb(0,0,0)"  stroke-width="0.8"/>
<line x1="124.3" y1="71.4" x2="127.2" y2="40.0" opacity="0.3" stroke="rgb(0,0,0)"  stroke-width="1.6"/>
<line x1="322.5" y1="104.8" x2="363.0" y2="84.7" opacity="0.5" stroke="rgb(0,0,0)"  stroke-width="1.4"/>
<line x1="322.5" y1="104.8" x2="319.6" y2="136.3" opacity="0.5" stroke="rgb(0,0,0)"  stroke-width="1.5"/>
<line x1="322.5" y1="104.8" x2="324.0" y2="108.7" opacity="0.5" stroke="rgb(0,0,0)"  stroke-width="2.3"/>
<line x1="82.8" y1="91.1" x2="82.0" y2="94.6" opacity="0.8" stroke="rgb(0,0,0)"  stroke-width="2.4"/>
<line x1="363.0" y1="84.7" x2="362.8" y2="81.4" opacity="0.8" stroke="rgb(0,0,0)"  stroke-width="0.6"/>
<line x1="363.0" y1="84.7" x2="390.0" y2="104.1" opacity="0.2" stroke="rgb(0,0,0)"  stroke-width="1.3"/>
<line x1="363.0" y1="84.7" x2="367.3" y2="53.5" opacity="0.4" stroke="rgb(0,0,0)"  stroke-width="1.4"/>
<circle cx="362.831294" cy="81.359773" r="5.636364" opacity="0.200000" style="stroke:black;stroke-width:0.5;fill:url(#radialffffffbfbfbf)"/>
<circle cx="283.097899" cy="73.903824" r="5.636364" opacity="0.208120" style="stroke:black;stroke-width:0.5;fill:url(#radialffffffbfbfbf)"/>
<circle cx="203.892581" cy="70.641060" r="5.636364" opacity="0.250983" style="stroke:black;stroke-width:0.5;fill:url(#radialffffffbfbfbf)"/>
<circle cx="124.306922" cy="66.919372" r="5.636364" opacity="0.252964" style="stroke:black;stroke-width:0.5;fill:url(#radialffffffbfbfbf)"/>
<circle cx="75.013415" cy="141.808915" r="18.545455" opacity="0.597608" style="stroke:black;stroke-width:0.5;fill:url(#radialffffff1eef1e)"/>
<circle cx="362.975887" cy="84.682260" r="13.818182" opacity="0.623217" style="stroke:black;stroke-width:0.5;fill:url(#radialffffff666666)"/>
<circle cx="319.626393" cy="136.289249" r="5.636364" opacity="0.638559" style="stroke:black;stroke-width:0.5;fill:url(#radialffffffbfbfbf)"/>
<circle cx="162.058167" cy="128.449815" r="5.636364" opacity="0.649052" style="stroke:black;stroke-width:0.5;fill:url(#radialffffffbfbfbf)"/>
<circle cx="284.075471" cy="78.332759" r="13.818182" opacity="0.656452" style="stroke:black;stroke-width:0.5;fill:url(#radialffffff666666)"/>
<circle cx="241.769559" cy="131.219078" r="5.636364" opacity="0.668693" style="stroke:black;stroke-width:0.5;fill:url(#radialffffffbfbfbf)"/>
<circle cx="40.000000" cy="57.904337" r="18.545455" opacity="0.668799" style="stroke:black;stroke-width:0.5;fill:url(#radialffffff1eef1e)"/>
<circle cx="203.691409" cy="75.302600" r="13.818182" opacity="0.671220" style="stroke:black;stroke-width:0.5;fill:url(#radialffffff666666)"/>
<circle cx="124.341499" cy="71.382883" r="13.818182" opacity="0.672388" style="stroke:black;stroke-width:0.5;fill:url(#radialffffff666666)"/>
<circle cx="390.005275" cy="104.095390" r="5.636364" opacity="0.698164" style="stroke:black;stroke-width:0.5;fill:url(#radialffffffbfbfbf)"/>
<circle cx="367.301092" cy="53.491119" r="6.151756" opacity="0.738729" style="stroke:black;stroke-width:0.5;fill:url(#radialffffffbfbfbf)"/>
<circle cx="322.467952" cy="104.808923" r="15.570393" opacity="0.750601" style="stroke:black;stroke-width:0.5;fill:url(#radialffffff666666)"/>
<circle cx="286.652991" cy="47.050461" r="6.678200" opacity="0.769689" style="stroke:black;stroke-width:0.5;fill:url(#radialffffffbfbfbf)"/>
<circle cx="162.897433" cy="97.541573" r="16.391080" opacity="0.770129" style="stroke:black;stroke-width:0.5;fill:url(#radialffffff666666)"/>
<circle cx="243.353791" cy="99.374127" r="16.479750" opacity="0.772209" style="stroke:black;stroke-width:0.5;fill:url(#radialffffff666666)"/>
<circle cx="127.217634" cy="40.000000" r="6.893198" opacity="0.781980" style="stroke:black;stroke-width:0.5;fill:url(#radialffffffbfbfbf)"/>
<circle cx="82.805699" cy="91.100915" r="16.920142" opacity="0.782459" style="stroke:black;stroke-width:0.5;fill:url(#radialffffff666666)"/>
<circle cx="204.562108" cy="43.948007" r="6.910076" opacity="0.782937" style="stroke:black;stroke-width:0.5;fill:url(#radialffffffbfbfbf)"/>
<circle cx="324.023894" cy="108.684634" r="10.723779" opacity="0.975348" style="stroke:black;stroke-width:0.5;fill:url(#radialffffffbfbfbf)"/>
<circle cx="162.733980" cy="102.812916" r="11.040851" opacity="0.989662" style="stroke:black;stroke-width:0.5;fill:url(#radialffffffbfbfbf)"/>
<circle cx="243.894441" cy="102.806630" r="11.108364" opacity="0.992683" style="stroke:black;stroke-width:0.5;fill:url(#radialffffffbfbfbf)"/>
<circle cx="81.960147" cy="94.640290" r="11.272727" opacity="1.000000" style="stroke:black;stroke-width:0.5;fill:url(#radialffffffbfbfbf)"/>
</svg>
</g>
</svg>
