<?xml version="1.0"?>
<svg version="1.1" id="topsvg"
xmlns="http://www.w3.org/2000/svg" xmlns:xlink="http://www.w3.org/1999/xlink"
xmlns:cml="http://www.xml-cml.org/schema" x="0" y="0" width="1024px" height="1024px" viewBox="0 0 100 100">
<title>31238 - Open Babel Depiction</title>
<rect x="0" y="0" width="100" height="100" fill="white"/>
<defs>
<radialGradient id='radialffffff666666' cx='50%' cy='50%' r='50%' fx='30%' fy='30%'>
  <stop offset=' 0%' stop-color="rgb(255,255,255)"  stop-opacity='1.0'/>
  <stop offset='100%' stop-color="rgb(102,102,102)"  stop-opacity ='1.0'/>
</radialGradient>
<radialGradient id='radialffffffbfbfbf' cx='50%' cy='50%' r='50%' fx='30%' fy='30%'>
  <stop offset=' 0%' stop-color="rgb(255,255,255)"  stop-opacity='1.0'/>
  <stop offset='100%' stop-color="rgb(191,191,191)"  stop-opacity ='1.0'/>
</radialGradient>
</defs>
<g transform="translate(0,0)">
<svg width="100" height="100" x="0" y="0" viewBox="0 0 748.072 209.442"
font-family="sans-serif" stroke="rgb(0,0,0)" stroke-width="2"  stroke-linecap="round">
<line x1="355.0" y1="107.8" x2="312.2" y2="126.0" opacity="1.0" stroke="rgb(0,0,0)"  stroke-width="1.4"/>
<line x1="355.0" y1="107.8" x2="393.3" y2="129.3" opacity="0.5" stroke="rgb(0,0,0)"  stroke-width="1.3"/>
<line x1="355.0" y1="107.8" x2="357.3" y2="112.5" opacity="0.4" stroke="rgb(0,0,0)"  stroke-width="2.0"/>
<line x1="355.0" y1="107.8" x2="356.0" y2="72.9" opacity="0.7" stroke="rgb(0,0,0)"  stroke-width="1.5"/>
<line x1="312.2" y1="126.0" x2="272.6" y2="104.0" opacity="0.5" stroke="rgb(0,0,0)"  stroke-width="1.5"/>
<line x1="312.2" y1="126.0" x2="310.8" y2="160.7" opacity="0.5" stroke="rgb(0,0,0)"  stroke-width="1.3"/>
<line x1="312.2" y1="126.0" x2="310.8" y2="122.6" opacity="0.4" stroke="rgb(0,0,0)"  stroke-width="0.8"/>
<line x1="393.3" y1="129.3" x2="436.1" y2="110.3" opacity="0.3" stroke="rgb(0,0,0)"  stroke-width="1.3"/>
<line x1="393.3" y1="129.3" x2="390.5" y2="125.2" opacity="0.4" stroke="rgb(0,0,0)"  stroke-width="0.7"/>
<line x1="393.3" y1="129.3" x2="392.7" y2="164.1" opacity="0.2" stroke="rgb(0,0,0)"  stroke-width="1.2"/>
<line x1="272.6" y1="104.0" x2="229.8" y2="120.6" opacity="0.4" stroke="rgb(0,0,0)"  stroke-width="1.5"/>
<line x1="272.6" y1="104.0" x2="274.9" y2="69.1" opacity="0.5" stroke="rgb(0,0,0)"  stroke-width="1.6"/>
<line x1="272.6" y1="104.0" x2="273.1" y2="108.5" opacity="0.5" stroke="rgb(0,0,0)"  stroke-width="2.1"/>
<line x1="436.1" y1="110.3" x2="474.5" y2="132.6" opacity="0.7" stroke="rgb(0,0,0)"  stroke-width="1.2"/>
<line x1="436.1" y1="110.3" x2="438.7" y2="113.7" opacity="0.4" stroke="rgb(0,0,0)"  stroke-width="1.9"/>
<line x1="436.1" y1="110.3" x2="436.9" y2="75.7" opacity="0.6" stroke="rgb(0,0,0)"  stroke-width="1.4"/>
<line x1="229.8" y1="120.6" x2="191.6" y2="95.8" opacity="0.5" stroke="rgb(0,0,0)"  stroke-width="1.5"/>
<line x1="229.8" y1="120.6" x2="226.6" y2="155.1" opacity="0.5" stroke="rgb(0,0,0)"  stroke-width="1.3"/>
<line x1="229.8" y1="120.6" x2="229.8" y2="117.1" opacity="0.4" stroke="rgb(0,0,0)"  stroke-width="0.9"/>
<line x1="474.5" y1="132.6" x2="517.3" y2="112.7" opacity="0.3" stroke="rgb(0,0,0)"  stroke-width="1.1"/>
<line x1="474.5" y1="132.6" x2="471.7" y2="129.8" opacity="0.4" stroke="rgb(0,0,0)"  stroke-width="0.5"/>
<line x1="474.5" y1="132.6" x2="474.1" y2="167.0" opacity="0.2" stroke="rgb(0,0,0)"  stroke-width="1.0"/>
<line x1="191.6" y1="95.8" x2="148.8" y2="111.6" opacity="0.3" stroke="rgb(0,0,0)"  stroke-width="1.5"/>
<line x1="191.6" y1="95.8" x2="195.3" y2="61.3" opacity="0.5" stroke="rgb(0,0,0)"  stroke-width="1.6"/>
<line x1="191.6" y1="95.8" x2="191.1" y2="99.9" opacity="0.5" stroke="rgb(0,0,0)"  stroke-width="2.1"/>
<line x1="517.3" y1="112.7" x2="556.7" y2="134.6" opacity="0.7" stroke="rgb(0,0,0)"  stroke-width="1.0"/>
<line x1="517.3" y1="112.7" x2="517.6" y2="78.2" opacity="0.3" stroke="rgb(0,0,0)"  stroke-width="1.2"/>
<line x1="517.3" y1="112.7" x2="519.6" y2="114.8" opacity="0.4" stroke="rgb(0,0,0)"  stroke-width="1.7"/>
<line x1="148.8" y1="111.6" x2="109.4" y2="88.4" opacity="0.6" stroke="rgb(0,0,0)"  stroke-width="1.5"/>
<line x1="148.8" y1="111.6" x2="149.4" y2="107.2" opacity="0.5" stroke="rgb(0,0,0)"  stroke-width="0.9"/>
<line x1="148.8" y1="111.6" x2="145.6" y2="146.4" opacity="0.3" stroke="rgb(0,0,0)"  stroke-width="1.3"/>
<line x1="556.7" y1="134.6" x2="599.2" y2="117.2" opacity="0.4" stroke="rgb(0,0,0)"  stroke-width="1.0"/>
<line x1="556.7" y1="134.6" x2="555.5" y2="169.4" opacity="0.3" stroke="rgb(0,0,0)"  stroke-width="0.9"/>
<line x1="556.7" y1="134.6" x2="555.2" y2="131.5" opacity="0.3" stroke="rgb(0,0,0)"  stroke-width="0.4"/>
<line x1="109.4" y1="88.4" x2="67.0" y2="103.4" opacity="0.1" stroke="rgb(0,0,0)"  stroke-width="1.5"/>
<line x1="109.4" y1="88.4" x2="108.4" y2="93.4" opacity="0.5" stroke="rgb(0,0,0)"  stroke-width="2.1"/>
<line x1="109.4" y1="88.4" x2="112.8" y2="53.6" opacity="0.7" stroke="rgb(0,0,0)"  stroke-width="1.6"/>
<line x1="67.0" y1="103.4" x2="66.4" y2="97.8" opacity="0.5" stroke="rgb(0,0,0)"  stroke-width="0.8"/>
<line x1="67.0" y1="103.4" x2="62.0" y2="137.9" opacity="0.3" stroke="rgb(0,0,0)"  stroke-width="1.3"/>
<line x1="67.0" y1="103.4" x2="40.0" y2="85.8" opacity="0.4" stroke="rgb(0,0,0)"  stroke-width="1.4"/>
<line x1="618.3" y1="82.9" x2="603.1" y2="68.5" opacity="0.5" stroke="rgb(0,0,0)"  stroke-width="0.4"/>
<line x1="618.5" y1="135.6" x2="603.5" y2="162.4" opacity="0.1" stroke="rgb(0,0,0)"  stroke-width="2.2"/>
<line x1="657.7" y1="66.8" x2="672.9" y2="40.0" opacity="0.7" stroke="rgb(0,0,0)"  stroke-width="0.8"/>
<line x1="657.9" y1="119.5" x2="673.3" y2="133.6" opacity="0.3" stroke="rgb(0,0,0)"  stroke-width="2.7"/>
<line x1="677.4" y1="85.1" x2="708.1" y2="72.5" opacity="0.9" stroke="rgb(0,0,0)"  stroke-width="2.0"/>
<line x1="597.2" y1="119.3" x2="616.5" y2="137.8" opacity="0.5" stroke="rgb(0,0,0)"  stroke-width="1.6"/>
<line x1="601.3" y1="115.0" x2="620.6" y2="133.4" opacity="0.5" stroke="rgb(0,0,0)"  stroke-width="1.6" stroke-dasharray="5.0,5.0"/>
<line x1="619.7" y1="138.4" x2="659.0" y2="122.2" opacity="0.7" stroke="rgb(0,0,0)"  stroke-width="2.2"/>
<line x1="617.4" y1="132.8" x2="656.7" y2="116.7" opacity="0.7" stroke="rgb(0,0,0)"  stroke-width="2.2" stroke-dasharray="5.0,5.0"/>
<line x1="660.5" y1="120.9" x2="680.1" y2="86.5" opacity="0.7" stroke="rgb(0,0,0)"  stroke-width="2.1"/>
<line x1="655.3" y1="118.0" x2="674.8" y2="83.6" opacity="0.7" stroke="rgb(0,0,0)"  stroke-width="2.1" stroke-dasharray="5.0,5.0"/>
<line x1="679.5" y1="82.8" x2="659.7" y2="64.6" opacity="0.5" stroke="rgb(0,0,0)"  stroke-width="1.4"/>
<line x1="675.4" y1="87.3" x2="655.6" y2="69.0" opacity="0.5" stroke="rgb(0,0,0)"  stroke-width="1.4" stroke-dasharray="5.0,5.0"/>
<line x1="656.5" y1="64.0" x2="617.2" y2="80.2" opacity="0.3" stroke="rgb(0,0,0)"  stroke-width="0.9"/>
<line x1="658.8" y1="69.6" x2="619.5" y2="85.7" opacity="0.3" stroke="rgb(0,0,0)"  stroke-width="0.9" stroke-dasharray="5.0,5.0"/>
<line x1="615.7" y1="81.5" x2="596.6" y2="115.7" opacity="0.3" stroke="rgb(0,0,0)"  stroke-width="0.9"/>
<line x1="620.9" y1="84.4" x2="601.8" y2="118.6" opacity="0.3" stroke="rgb(0,0,0)"  stroke-width="0.9" stroke-dasharray="5.0,5.0"/>
<circle cx="555.173725" cy="131.506540" r="5.636364" opacity="0.200000" style="stroke:black;stroke-width:0.5;fill:url(#radialffffffbfbfbf)"/>
<circle cx="603.143957" cy="68.470636" r="5.636364" opacity="0.200000" style="stroke:black;stroke-width:0.5;fill:url(#radialffffffbfbfbf)"/>
<circle cx="471.680497" cy="129.774890" r="5.636364" opacity="0.209487" style="stroke:black;stroke-width:0.5;fill:url(#radialffffffbfbfbf)"/>
<circle cx="390.492910" cy="125.173282" r="5.636364" opacity="0.304822" style="stroke:black;stroke-width:0.5;fill:url(#radialffffffbfbfbf)"/>
<circle cx="310.804796" cy="122.574196" r="5.636364" opacity="0.372145" style="stroke:black;stroke-width:0.5;fill:url(#radialffffffbfbfbf)"/>
<circle cx="66.355251" cy="97.792586" r="5.636364" opacity="0.384662" style="stroke:black;stroke-width:0.5;fill:url(#radialffffffbfbfbf)"/>
<circle cx="229.797791" cy="117.085803" r="5.636364" opacity="0.388425" style="stroke:black;stroke-width:0.5;fill:url(#radialffffffbfbfbf)"/>
<circle cx="149.368002" cy="107.173159" r="5.636364" opacity="0.390054" style="stroke:black;stroke-width:0.5;fill:url(#radialffffffbfbfbf)"/>
<circle cx="672.893629" cy="40.000000" r="5.636364" opacity="0.461044" style="stroke:black;stroke-width:0.5;fill:url(#radialffffffbfbfbf)"/>
<circle cx="618.328941" cy="82.942968" r="13.818182" opacity="0.477261" style="stroke:black;stroke-width:0.5;fill:url(#radialffffff666666)"/>
<circle cx="556.705444" cy="134.624798" r="13.818182" opacity="0.521237" style="stroke:black;stroke-width:0.5;fill:url(#radialffffff666666)"/>
<circle cx="474.492411" cy="132.567457" r="13.818182" opacity="0.561094" style="stroke:black;stroke-width:0.5;fill:url(#radialffffff666666)"/>
<circle cx="555.460720" cy="169.441590" r="5.636364" opacity="0.566167" style="stroke:black;stroke-width:0.5;fill:url(#radialffffffbfbfbf)"/>
<circle cx="657.669949" cy="66.797031" r="13.818182" opacity="0.583789" style="stroke:black;stroke-width:0.5;fill:url(#radialffffff666666)"/>
<circle cx="393.320948" cy="129.323436" r="13.818182" opacity="0.602381" style="stroke:black;stroke-width:0.5;fill:url(#radialffffff666666)"/>
<circle cx="517.632084" cy="78.244619" r="5.636364" opacity="0.605202" style="stroke:black;stroke-width:0.5;fill:url(#radialffffffbfbfbf)"/>
<circle cx="474.140922" cy="167.048883" r="5.636364" opacity="0.612471" style="stroke:black;stroke-width:0.5;fill:url(#radialffffffbfbfbf)"/>
<circle cx="599.229204" cy="117.156746" r="13.818182" opacity="0.627649" style="stroke:black;stroke-width:0.5;fill:url(#radialffffff666666)"/>
<circle cx="312.172057" cy="126.021371" r="13.818182" opacity="0.640161" style="stroke:black;stroke-width:0.5;fill:url(#radialffffff666666)"/>
<circle cx="392.740507" cy="164.088634" r="5.636364" opacity="0.642449" style="stroke:black;stroke-width:0.5;fill:url(#radialffffffbfbfbf)"/>
<circle cx="66.958265" cy="103.406741" r="13.818182" opacity="0.645460" style="stroke:black;stroke-width:0.5;fill:url(#radialffffff666666)"/>
<circle cx="229.830038" cy="120.571674" r="13.818182" opacity="0.649799" style="stroke:black;stroke-width:0.5;fill:url(#radialffffff666666)"/>
<circle cx="148.842381" cy="111.613533" r="13.818182" opacity="0.650200" style="stroke:black;stroke-width:0.5;fill:url(#radialffffff666666)"/>
<circle cx="436.924973" cy="75.658432" r="5.636364" opacity="0.652910" style="stroke:black;stroke-width:0.5;fill:url(#radialffffffbfbfbf)"/>
<circle cx="517.293493" cy="112.719596" r="13.818182" opacity="0.654070" style="stroke:black;stroke-width:0.5;fill:url(#radialffffff666666)"/>
<circle cx="61.963246" cy="137.868819" r="5.636364" opacity="0.678971" style="stroke:black;stroke-width:0.5;fill:url(#radialffffffbfbfbf)"/>
<circle cx="310.769325" cy="160.686604" r="5.636364" opacity="0.680489" style="stroke:black;stroke-width:0.5;fill:url(#radialffffffbfbfbf)"/>
<circle cx="145.566113" cy="146.352933" r="5.636364" opacity="0.683933" style="stroke:black;stroke-width:0.5;fill:url(#radialffffffbfbfbf)"/>
<circle cx="226.569893" cy="155.059550" r="5.636364" opacity="0.690590" style="stroke:black;stroke-width:0.5;fill:url(#radialffffffbfbfbf)"/>
<circle cx="436.141378" cy="110.281743" r="13.818182" opacity="0.693948" style="stroke:black;stroke-width:0.5;fill:url(#radialffffff666666)"/>
<circle cx="355.956664" cy="72.914235" r="5.636364" opacity="0.700314" style="stroke:black;stroke-width:0.5;fill:url(#radialffffffbfbfbf)"/>
<circle cx="274.907739" cy="69.138143" r="5.827377" opacity="0.718989" style="stroke:black;stroke-width:0.5;fill:url(#radialffffffbfbfbf)"/>
<circle cx="195.255096" cy="61.273166" r="5.852042" opacity="0.720509" style="stroke:black;stroke-width:0.5;fill:url(#radialffffffbfbfbf)"/>
<circle cx="112.751843" cy="53.637141" r="5.915947" opacity="0.724432" style="stroke:black;stroke-width:0.5;fill:url(#radialffffffbfbfbf)"/>
<circle cx="40.000000" cy="85.806477" r="5.952664" opacity="0.726677" style="stroke:black;stroke-width:0.5;fill:url(#radialffffffbfbfbf)"/>
<circle cx="355.008611" cy="107.772948" r="14.808704" opacity="0.732012" style="stroke:black;stroke-width:0.5;fill:url(#radialffffff666666)"/>
<circle cx="272.627895" cy="103.964609" r="15.525398" opacity="0.749516" style="stroke:black;stroke-width:0.5;fill:url(#radialffffff666666)"/>
<circle cx="109.449778" cy="88.434585" r="15.643588" opacity="0.752364" style="stroke:black;stroke-width:0.5;fill:url(#radialffffff666666)"/>
<circle cx="191.575744" cy="95.838434" r="15.730168" opacity="0.754443" style="stroke:black;stroke-width:0.5;fill:url(#radialffffff666666)"/>
<circle cx="677.446867" cy="85.051904" r="17.097591" opacity="0.786551" style="stroke:black;stroke-width:0.5;fill:url(#radialffffff666666)"/>
<circle cx="618.544994" cy="135.601874" r="18.529605" opacity="0.818828" style="stroke:black;stroke-width:0.5;fill:url(#radialffffff666666)"/>
<circle cx="519.557214" cy="114.844655" r="7.887181" opacity="0.836462" style="stroke:black;stroke-width:0.5;fill:url(#radialffffffbfbfbf)"/>
<circle cx="708.071585" cy="72.472455" r="7.966782" opacity="0.840673" style="stroke:black;stroke-width:0.5;fill:url(#radialffffffbfbfbf)"/>
<circle cx="438.740464" cy="113.728919" r="8.479701" opacity="0.867313" style="stroke:black;stroke-width:0.5;fill:url(#radialffffffbfbfbf)"/>
<circle cx="657.882778" cy="119.452713" r="21.654062" opacity="0.885175" style="stroke:black;stroke-width:0.5;fill:url(#radialffffff666666)"/>
<circle cx="603.534142" cy="162.356984" r="9.027655" opacity="0.894897" style="stroke:black;stroke-width:0.5;fill:url(#radialffffffbfbfbf)"/>
<circle cx="357.330375" cy="112.532565" r="9.079228" opacity="0.897449" style="stroke:black;stroke-width:0.5;fill:url(#radialffffffbfbfbf)"/>
<circle cx="273.098697" cy="108.492050" r="9.381934" opacity="0.912287" style="stroke:black;stroke-width:0.5;fill:url(#radialffffffbfbfbf)"/>
<circle cx="108.414658" cy="93.358661" r="9.422855" opacity="0.914275" style="stroke:black;stroke-width:0.5;fill:url(#radialffffffbfbfbf)"/>
<circle cx="191.143638" cy="99.888623" r="9.469663" opacity="0.916543" style="stroke:black;stroke-width:0.5;fill:url(#radialffffffbfbfbf)"/>
<circle cx="673.274141" cy="133.647722" r="11.272727" opacity="1.000000" style="stroke:black;stroke-width:0.5;fill:url(#radialffffffbfbfbf)"/>
</svg>
</g>
</svg>
