<?xml version="1.0"?>
<svg version="1.1" id="topsvg"
xmlns="http://www.w3.org/2000/svg" xmlns:xlink="http://www.w3.org/1999/xlink"
xmlns:cml="http://www.xml-cml.org/schema" x="0" y="0" width="200px" height="200px" viewBox="0 0 100 100">
<title>31285 - Open Babel Depiction</title>
<rect x="0" y="0" width="100" height="100" fill="white"/>
<defs>
<radialGradient id='radialffffff666666' cx='50%' cy='50%' r='50%' fx='30%' fy='30%'>
  <stop offset=' 0%' stop-color="rgb(255,255,255)"  stop-opacity='1.0'/>
  <stop offset='100%' stop-color="rgb(102,102,102)"  stop-opacity ='1.0'/>
</radialGradient>
<radialGradient id='radialffffffbfbfbf' cx='50%' cy='50%' r='50%' fx='30%' fy='30%'>
  <stop offset=' 0%' stop-color="rgb(255,255,255)"  stop-opacity='1.0'/>
  <stop offset='100%' stop-color="rgb(191,191,191)"  stop-opacity ='1.0'/>
</radialGradient>
</defs>
<g transform="translate(0,0)">
<svg width="100" height="100" x="0" y="0" viewBox="0 0 460.676 169.445"
font-family="sans-serif" stroke="rgb(0,0,0)" stroke-width="4"  stroke-linecap="round">
<line x1="192.9" y1="70.1" x2="233.0" y2="100.0" opacity="1.0" stroke="rgb(0,0,0)"  stroke-width="1.8"/>
<line x1="192.9" y1="70.1" x2="150.5" y2="95.9" opacity="0.6" stroke="rgb(0,0,0)"  stroke-width="1.7"/>
<line x1="192.9" y1="70.1" x2="191.9" y2="54.0" opacity="0.6" stroke="rgb(0,0,0)"  stroke-width="2.3"/>
<line x1="192.9" y1="70.1" x2="195.7" y2="44.1" opacity="0.8" stroke="rgb(0,0,0)"  stroke-width="1.4"/>
<line x1="233.0" y1="100.0" x2="276.5" y2="75.7" opacity="0.5" stroke="rgb(0,0,0)"  stroke-width="1.9"/>
<line x1="233.0" y1="100.0" x2="230.4" y2="125.9" opacity="0.6" stroke="rgb(0,0,0)"  stroke-width="2.1"/>
<line x1="233.0" y1="100.0" x2="233.5" y2="116.4" opacity="0.7" stroke="rgb(0,0,0)"  stroke-width="1.2"/>
<line x1="150.5" y1="95.9" x2="110.4" y2="65.8" opacity="0.4" stroke="rgb(0,0,0)"  stroke-width="1.6"/>
<line x1="150.5" y1="95.9" x2="147.3" y2="121.4" opacity="0.5" stroke="rgb(0,0,0)"  stroke-width="2.0"/>
<line x1="150.5" y1="95.9" x2="151.9" y2="112.5" opacity="0.7" stroke="rgb(0,0,0)"  stroke-width="1.1"/>
<line x1="276.5" y1="75.7" x2="317.9" y2="103.7" opacity="0.4" stroke="rgb(0,0,0)"  stroke-width="1.9"/>
<line x1="276.5" y1="75.7" x2="276.5" y2="60.4" opacity="0.6" stroke="rgb(0,0,0)"  stroke-width="2.5"/>
<line x1="276.5" y1="75.7" x2="278.0" y2="48.6" opacity="0.8" stroke="rgb(0,0,0)"  stroke-width="1.6"/>
<line x1="110.4" y1="65.8" x2="68.3" y2="91.2" opacity="0.5" stroke="rgb(0,0,0)"  stroke-width="1.5"/>
<line x1="110.4" y1="65.8" x2="113.6" y2="40.0" opacity="0.5" stroke="rgb(0,0,0)"  stroke-width="1.2"/>
<line x1="110.4" y1="65.8" x2="108.3" y2="49.7" opacity="0.4" stroke="rgb(0,0,0)"  stroke-width="2.2"/>
<line x1="317.9" y1="103.7" x2="359.5" y2="77.8" opacity="0.7" stroke="rgb(0,0,0)"  stroke-width="1.9"/>
<line x1="317.9" y1="103.7" x2="317.0" y2="120.4" opacity="0.6" stroke="rgb(0,0,0)"  stroke-width="1.3"/>
<line x1="317.9" y1="103.7" x2="317.7" y2="129.4" opacity="0.4" stroke="rgb(0,0,0)"  stroke-width="2.2"/>
<line x1="68.3" y1="91.2" x2="68.9" y2="106.9" opacity="0.7" stroke="rgb(0,0,0)"  stroke-width="0.9"/>
<line x1="68.3" y1="91.2" x2="40.0" y2="69.1" opacity="0.3" stroke="rgb(0,0,0)"  stroke-width="1.4"/>
<line x1="68.3" y1="91.2" x2="63.5" y2="116.7" opacity="0.5" stroke="rgb(0,0,0)"  stroke-width="1.8"/>
<line x1="359.4" y1="74.8" x2="391.1" y2="73.7" opacity="0.6" stroke="rgb(0,0,0)"  stroke-width="1.5"/>
<line x1="359.6" y1="80.8" x2="391.3" y2="79.7" opacity="0.6" stroke="rgb(0,0,0)"  stroke-width="1.5"/>
<line x1="359.5" y1="77.8" x2="364.0" y2="59.4" opacity="0.5" stroke="rgb(0,0,0)"  stroke-width="2.4"/>
<line x1="391.2" y1="76.7" x2="420.7" y2="57.6" opacity="0.8" stroke="rgb(0,0,0)"  stroke-width="1.1"/>
<line x1="391.2" y1="76.7" x2="388.5" y2="94.7" opacity="0.4" stroke="rgb(0,0,0)"  stroke-width="0.5"/>
<circle cx="388.478293" cy="94.748648" r="5.636364" opacity="0.200000" style="stroke:black;stroke-width:0.5;fill:url(#radialffffffbfbfbf)"/>
<circle cx="68.879453" cy="106.865098" r="5.636364" opacity="0.336517" style="stroke:black;stroke-width:0.5;fill:url(#radialffffffbfbfbf)"/>
<circle cx="151.920586" cy="112.547861" r="5.636364" opacity="0.439907" style="stroke:black;stroke-width:0.5;fill:url(#radialffffffbfbfbf)"/>
<circle cx="233.502499" cy="116.368068" r="5.636364" opacity="0.492230" style="stroke:black;stroke-width:0.5;fill:url(#radialffffffbfbfbf)"/>
<circle cx="317.005992" cy="120.430932" r="5.636364" opacity="0.508923" style="stroke:black;stroke-width:0.5;fill:url(#radialffffffbfbfbf)"/>
<circle cx="113.610305" cy="40.000000" r="5.636364" opacity="0.531768" style="stroke:black;stroke-width:0.5;fill:url(#radialffffffbfbfbf)"/>
<circle cx="391.229498" cy="76.736290" r="13.818182" opacity="0.570558" style="stroke:black;stroke-width:0.5;fill:url(#radialffffff666666)"/>
<circle cx="195.654578" cy="44.115330" r="5.636364" opacity="0.589634" style="stroke:black;stroke-width:0.5;fill:url(#radialffffffbfbfbf)"/>
<circle cx="420.676243" cy="57.566394" r="5.636364" opacity="0.619701" style="stroke:black;stroke-width:0.5;fill:url(#radialffffffbfbfbf)"/>
<circle cx="278.036602" cy="48.607762" r="5.636364" opacity="0.631853" style="stroke:black;stroke-width:0.5;fill:url(#radialffffffbfbfbf)"/>
<circle cx="68.259694" cy="91.213727" r="13.818182" opacity="0.676454" style="stroke:black;stroke-width:0.5;fill:url(#radialffffff666666)"/>
<circle cx="40.000000" cy="69.118831" r="5.636364" opacity="0.685286" style="stroke:black;stroke-width:0.5;fill:url(#radialffffffbfbfbf)"/>
<circle cx="150.458086" cy="95.876675" r="14.729345" opacity="0.730048" style="stroke:black;stroke-width:0.5;fill:url(#radialffffff666666)"/>
<circle cx="110.350832" cy="65.842962" r="15.114874" opacity="0.739540" style="stroke:black;stroke-width:0.5;fill:url(#radialffffff666666)"/>
<circle cx="233.027023" cy="100.005122" r="16.135223" opacity="0.764094" style="stroke:black;stroke-width:0.5;fill:url(#radialffffff666666)"/>
<circle cx="317.920874" cy="103.723675" r="16.541043" opacity="0.773644" style="stroke:black;stroke-width:0.5;fill:url(#radialffffff666666)"/>
<circle cx="192.850906" cy="70.053388" r="16.900484" opacity="0.782004" style="stroke:black;stroke-width:0.5;fill:url(#radialffffff666666)"/>
<circle cx="359.493908" cy="77.828247" r="17.911170" opacity="0.805048" style="stroke:black;stroke-width:0.5;fill:url(#radialffffff666666)"/>
<circle cx="276.544590" cy="75.660730" r="18.024220" opacity="0.807584" style="stroke:black;stroke-width:0.5;fill:url(#radialffffff666666)"/>
<circle cx="63.462301" cy="116.715658" r="8.139049" opacity="0.849713" style="stroke:black;stroke-width:0.5;fill:url(#radialffffffbfbfbf)"/>
<circle cx="147.306826" cy="121.372047" r="9.033316" opacity="0.895177" style="stroke:black;stroke-width:0.5;fill:url(#radialffffffbfbfbf)"/>
<circle cx="230.351238" cy="125.884154" r="9.566960" opacity="0.921239" style="stroke:black;stroke-width:0.5;fill:url(#radialffffffbfbfbf)"/>
<circle cx="317.740521" cy="129.445309" r="9.767569" opacity="0.930848" style="stroke:black;stroke-width:0.5;fill:url(#radialffffffbfbfbf)"/>
<circle cx="108.255457" cy="49.673485" r="10.015473" opacity="0.942587" style="stroke:black;stroke-width:0.5;fill:url(#radialffffffbfbfbf)"/>
<circle cx="191.857325" cy="53.995402" r="10.758790" opacity="0.976938" style="stroke:black;stroke-width:0.5;fill:url(#radialffffffbfbfbf)"/>
<circle cx="364.028969" cy="59.412554" r="10.932993" opacity="0.984816" style="stroke:black;stroke-width:0.5;fill:url(#radialffffffbfbfbf)"/>
<circle cx="276.531474" cy="60.422531" r="11.272727" opacity="1.000000" style="stroke:black;stroke-width:0.5;fill:url(#radialffffffbfbfbf)"/>
</svg>
</g>
</svg>
