<?xml version="1.0"?>
<svg version="1.1" id="topsvg"
xmlns="http://www.w3.org/2000/svg" xmlns:xlink="http://www.w3.org/1999/xlink"
xmlns:cml="http://www.xml-cml.org/schema" x="0" y="0" width="1024px" height="1024px" viewBox="0 0 100 100">
<title>31423 - Open Babel Depiction</title>
<rect x="0" y="0" width="100" height="100" fill="white"/>
<defs>
<radialGradient id='radialffffff666666' cx='50%' cy='50%' r='50%' fx='30%' fy='30%'>
  <stop offset=' 0%' stop-color="rgb(255,255,255)"  stop-opacity='1.0'/>
  <stop offset='100%' stop-color="rgb(102,102,102)"  stop-opacity ='1.0'/>
</radialGradient>
<radialGradient id='radialffffffbfbfbf' cx='50%' cy='50%' r='50%' fx='30%' fy='30%'>
  <stop offset=' 0%' stop-color="rgb(255,255,255)"  stop-opacity='1.0'/>
  <stop offset='100%' stop-color="rgb(191,191,191)"  stop-opacity ='1.0'/>
</radialGradient>
</defs>
<g transform="translate(0,0)">
<svg width="100" height="100" x="0" y="0" viewBox="0 0 364.253 289.137"
font-family="sans-serif" stroke="rgb(0,0,0)" stroke-width="2"  stroke-linecap="round">
<line x1="160.5" y1="69.5" x2="144.4" y2="40.0" opacity="1.0" stroke="rgb(0,0,0)"  stroke-width="3.0"/>
<line x1="203.7" y1="69.5" x2="219.8" y2="40.0" opacity="1.0" stroke="rgb(0,0,0)"  stroke-width="3.0"/>
<line x1="160.6" y1="219.6" x2="144.4" y2="249.1" opacity="1.0" stroke="rgb(0,0,0)"  stroke-width="3.0"/>
<line x1="203.7" y1="219.6" x2="219.8" y2="249.1" opacity="1.0" stroke="rgb(0,0,0)"  stroke-width="3.0"/>
<line x1="95.0" y1="107.2" x2="77.6" y2="78.5" opacity="1.0" stroke="rgb(0,0,0)"  stroke-width="3.0"/>
<line x1="269.2" y1="107.2" x2="286.7" y2="78.5" opacity="1.0" stroke="rgb(0,0,0)"  stroke-width="3.0"/>
<line x1="95.0" y1="181.9" x2="77.6" y2="210.6" opacity="1.0" stroke="rgb(0,0,0)"  stroke-width="3.0"/>
<line x1="269.2" y1="181.9" x2="286.7" y2="210.6" opacity="1.0" stroke="rgb(0,0,0)"  stroke-width="3.0"/>
<line x1="73.6" y1="144.6" x2="40.0" y2="144.6" opacity="1.0" stroke="rgb(0,0,0)"  stroke-width="3.0"/>
<line x1="290.7" y1="144.6" x2="324.3" y2="144.6" opacity="1.0" stroke="rgb(0,0,0)"  stroke-width="3.0"/>
<line x1="162.8" y1="143.1" x2="141.0" y2="105.2" opacity="1.0" stroke="rgb(0,0,0)"  stroke-width="3.0"/>
<line x1="157.6" y1="146.1" x2="135.8" y2="108.2" opacity="1.0" stroke="rgb(0,0,0)"  stroke-width="3.0" stroke-dasharray="5.0,5.0"/>
<line x1="141.0" y1="108.2" x2="163.1" y2="71.0" opacity="1.0" stroke="rgb(0,0,0)"  stroke-width="3.0"/>
<line x1="135.8" y1="105.2" x2="158.0" y2="68.0" opacity="1.0" stroke="rgb(0,0,0)"  stroke-width="3.0" stroke-dasharray="5.0,5.0"/>
<line x1="160.5" y1="72.5" x2="203.7" y2="72.5" opacity="1.0" stroke="rgb(0,0,0)"  stroke-width="3.0"/>
<line x1="160.5" y1="66.5" x2="203.7" y2="66.5" opacity="1.0" stroke="rgb(0,0,0)"  stroke-width="3.0" stroke-dasharray="5.0,5.0"/>
<line x1="201.1" y1="71.0" x2="223.3" y2="108.2" opacity="1.0" stroke="rgb(0,0,0)"  stroke-width="3.0"/>
<line x1="206.3" y1="68.0" x2="228.4" y2="105.2" opacity="1.0" stroke="rgb(0,0,0)"  stroke-width="3.0" stroke-dasharray="5.0,5.0"/>
<line x1="223.3" y1="105.2" x2="201.4" y2="143.1" opacity="1.0" stroke="rgb(0,0,0)"  stroke-width="3.0"/>
<line x1="228.5" y1="108.2" x2="206.6" y2="146.1" opacity="1.0" stroke="rgb(0,0,0)"  stroke-width="3.0" stroke-dasharray="5.0,5.0"/>
<line x1="204.0" y1="141.6" x2="160.2" y2="141.6" opacity="1.0" stroke="rgb(0,0,0)"  stroke-width="3.0"/>
<line x1="204.0" y1="147.6" x2="160.2" y2="147.6" opacity="1.0" stroke="rgb(0,0,0)"  stroke-width="3.0" stroke-dasharray="5.0,5.0"/>
<line x1="162.8" y1="143.1" x2="141.0" y2="105.2" opacity="1.0" stroke="rgb(0,0,0)"  stroke-width="3.0"/>
<line x1="157.6" y1="146.1" x2="135.8" y2="108.2" opacity="1.0" stroke="rgb(0,0,0)"  stroke-width="3.0" stroke-dasharray="5.0,5.0"/>
<line x1="138.3" y1="103.7" x2="95.0" y2="104.2" opacity="1.0" stroke="rgb(0,0,0)"  stroke-width="3.0"/>
<line x1="138.4" y1="109.7" x2="95.1" y2="110.2" opacity="1.0" stroke="rgb(0,0,0)"  stroke-width="3.0" stroke-dasharray="5.0,5.0"/>
<line x1="92.4" y1="105.7" x2="71.0" y2="143.1" opacity="1.0" stroke="rgb(0,0,0)"  stroke-width="3.0"/>
<line x1="97.6" y1="108.7" x2="76.2" y2="146.1" opacity="1.0" stroke="rgb(0,0,0)"  stroke-width="3.0" stroke-dasharray="5.0,5.0"/>
<line x1="71.0" y1="146.1" x2="92.4" y2="183.4" opacity="1.0" stroke="rgb(0,0,0)"  stroke-width="3.0"/>
<line x1="76.2" y1="143.1" x2="97.6" y2="180.4" opacity="1.0" stroke="rgb(0,0,0)"  stroke-width="3.0" stroke-dasharray="5.0,5.0"/>
<line x1="95.0" y1="184.9" x2="138.3" y2="185.4" opacity="1.0" stroke="rgb(0,0,0)"  stroke-width="3.0"/>
<line x1="95.1" y1="178.9" x2="138.4" y2="179.4" opacity="1.0" stroke="rgb(0,0,0)"  stroke-width="3.0" stroke-dasharray="5.0,5.0"/>
<line x1="141.0" y1="183.9" x2="162.8" y2="146.1" opacity="1.0" stroke="rgb(0,0,0)"  stroke-width="3.0"/>
<line x1="135.8" y1="180.9" x2="157.6" y2="143.1" opacity="1.0" stroke="rgb(0,0,0)"  stroke-width="3.0" stroke-dasharray="5.0,5.0"/>
<line x1="157.6" y1="143.1" x2="135.8" y2="180.9" opacity="1.0" stroke="rgb(0,0,0)"  stroke-width="3.0"/>
<line x1="162.8" y1="146.1" x2="141.0" y2="183.9" opacity="1.0" stroke="rgb(0,0,0)"  stroke-width="3.0" stroke-dasharray="5.0,5.0"/>
<line x1="135.8" y1="184.0" x2="158.0" y2="221.2" opacity="1.0" stroke="rgb(0,0,0)"  stroke-width="3.0"/>
<line x1="141.0" y1="180.9" x2="163.1" y2="218.1" opacity="1.0" stroke="rgb(0,0,0)"  stroke-width="3.0" stroke-dasharray="5.0,5.0"/>
<line x1="160.6" y1="222.6" x2="203.7" y2="222.6" opacity="1.0" stroke="rgb(0,0,0)"  stroke-width="3.0"/>
<line x1="160.6" y1="216.6" x2="203.7" y2="216.6" opacity="1.0" stroke="rgb(0,0,0)"  stroke-width="3.0" stroke-dasharray="5.0,5.0"/>
<line x1="206.3" y1="221.2" x2="228.4" y2="184.0" opacity="1.0" stroke="rgb(0,0,0)"  stroke-width="3.0"/>
<line x1="201.1" y1="218.1" x2="223.3" y2="180.9" opacity="1.0" stroke="rgb(0,0,0)"  stroke-width="3.0" stroke-dasharray="5.0,5.0"/>
<line x1="228.5" y1="180.9" x2="206.6" y2="143.1" opacity="1.0" stroke="rgb(0,0,0)"  stroke-width="3.0"/>
<line x1="223.3" y1="183.9" x2="201.4" y2="146.1" opacity="1.0" stroke="rgb(0,0,0)"  stroke-width="3.0" stroke-dasharray="5.0,5.0"/>
<line x1="204.0" y1="141.6" x2="160.2" y2="141.6" opacity="1.0" stroke="rgb(0,0,0)"  stroke-width="3.0"/>
<line x1="204.0" y1="147.6" x2="160.2" y2="147.6" opacity="1.0" stroke="rgb(0,0,0)"  stroke-width="3.0" stroke-dasharray="5.0,5.0"/>
<line x1="269.2" y1="104.2" x2="225.9" y2="103.7" opacity="1.0" stroke="rgb(0,0,0)"  stroke-width="3.0"/>
<line x1="269.2" y1="110.2" x2="225.8" y2="109.7" opacity="1.0" stroke="rgb(0,0,0)"  stroke-width="3.0" stroke-dasharray="5.0,5.0"/>
<line x1="223.3" y1="105.2" x2="201.4" y2="143.1" opacity="1.0" stroke="rgb(0,0,0)"  stroke-width="3.0"/>
<line x1="228.5" y1="108.2" x2="206.6" y2="146.1" opacity="1.0" stroke="rgb(0,0,0)"  stroke-width="3.0" stroke-dasharray="5.0,5.0"/>
<line x1="201.4" y1="146.1" x2="223.3" y2="183.9" opacity="1.0" stroke="rgb(0,0,0)"  stroke-width="3.0"/>
<line x1="206.6" y1="143.1" x2="228.5" y2="180.9" opacity="1.0" stroke="rgb(0,0,0)"  stroke-width="3.0" stroke-dasharray="5.0,5.0"/>
<line x1="225.9" y1="185.4" x2="269.2" y2="184.9" opacity="1.0" stroke="rgb(0,0,0)"  stroke-width="3.0"/>
<line x1="225.8" y1="179.4" x2="269.2" y2="178.9" opacity="1.0" stroke="rgb(0,0,0)"  stroke-width="3.0" stroke-dasharray="5.0,5.0"/>
<line x1="271.8" y1="183.4" x2="293.3" y2="146.1" opacity="1.0" stroke="rgb(0,0,0)"  stroke-width="3.0"/>
<line x1="266.6" y1="180.4" x2="288.1" y2="143.1" opacity="1.0" stroke="rgb(0,0,0)"  stroke-width="3.0" stroke-dasharray="5.0,5.0"/>
<line x1="293.3" y1="143.1" x2="271.8" y2="105.7" opacity="1.0" stroke="rgb(0,0,0)"  stroke-width="3.0"/>
<line x1="288.1" y1="146.1" x2="266.6" y2="108.7" opacity="1.0" stroke="rgb(0,0,0)"  stroke-width="3.0" stroke-dasharray="5.0,5.0"/>
<circle cx="269.208973" cy="107.223342" r="27.636364" opacity="1.000000" style="stroke:black;stroke-width:0.5;fill:url(#radialffffff666666)"/>
<circle cx="286.666893" cy="78.488392" r="11.272727" opacity="1.000000" style="stroke:black;stroke-width:0.5;fill:url(#radialffffffbfbfbf)"/>
<circle cx="77.585982" cy="210.648147" r="11.272727" opacity="1.000000" style="stroke:black;stroke-width:0.5;fill:url(#radialffffffbfbfbf)"/>
<circle cx="160.230640" cy="144.568269" r="27.636364" opacity="1.000000" style="stroke:black;stroke-width:0.5;fill:url(#radialffffff666666)"/>
<circle cx="204.022234" cy="144.568269" r="27.636364" opacity="1.000000" style="stroke:black;stroke-width:0.5;fill:url(#radialffffff666666)"/>
<circle cx="138.384290" cy="106.710328" r="27.636364" opacity="1.000000" style="stroke:black;stroke-width:0.5;fill:url(#radialffffff666666)"/>
<circle cx="225.868584" cy="106.707238" r="27.636364" opacity="1.000000" style="stroke:black;stroke-width:0.5;fill:url(#radialffffff666666)"/>
<circle cx="138.384290" cy="182.429301" r="27.636364" opacity="1.000000" style="stroke:black;stroke-width:0.5;fill:url(#radialffffff666666)"/>
<circle cx="225.868584" cy="182.426210" r="27.636364" opacity="1.000000" style="stroke:black;stroke-width:0.5;fill:url(#radialffffff666666)"/>
<circle cx="160.548956" cy="69.501380" r="27.636364" opacity="1.000000" style="stroke:black;stroke-width:0.5;fill:url(#radialffffff666666)"/>
<circle cx="203.700828" cy="69.501380" r="27.636364" opacity="1.000000" style="stroke:black;stroke-width:0.5;fill:url(#radialffffff666666)"/>
<circle cx="160.552047" cy="219.635158" r="27.636364" opacity="1.000000" style="stroke:black;stroke-width:0.5;fill:url(#radialffffff666666)"/>
<circle cx="203.703919" cy="219.635158" r="27.636364" opacity="1.000000" style="stroke:black;stroke-width:0.5;fill:url(#radialffffff666666)"/>
<circle cx="95.043901" cy="107.226432" r="27.636364" opacity="1.000000" style="stroke:black;stroke-width:0.5;fill:url(#radialffffff666666)"/>
<circle cx="95.043901" cy="181.913197" r="27.636364" opacity="1.000000" style="stroke:black;stroke-width:0.5;fill:url(#radialffffff666666)"/>
<circle cx="269.208973" cy="181.910106" r="27.636364" opacity="1.000000" style="stroke:black;stroke-width:0.5;fill:url(#radialffffff666666)"/>
<circle cx="73.571495" cy="144.568269" r="27.636364" opacity="1.000000" style="stroke:black;stroke-width:0.5;fill:url(#radialffffff666666)"/>
<circle cx="290.681380" cy="144.568269" r="27.636364" opacity="1.000000" style="stroke:black;stroke-width:0.5;fill:url(#radialffffff666666)"/>
<circle cx="144.407566" cy="40.000000" r="11.272727" opacity="1.000000" style="stroke:black;stroke-width:0.5;fill:url(#radialffffffbfbfbf)"/>
<circle cx="219.839128" cy="40.000000" r="11.272727" opacity="1.000000" style="stroke:black;stroke-width:0.5;fill:url(#radialffffffbfbfbf)"/>
<circle cx="144.413747" cy="249.136538" r="11.272727" opacity="1.000000" style="stroke:black;stroke-width:0.5;fill:url(#radialffffffbfbfbf)"/>
<circle cx="219.845309" cy="249.136538" r="11.272727" opacity="1.000000" style="stroke:black;stroke-width:0.5;fill:url(#radialffffffbfbfbf)"/>
<circle cx="40.000000" cy="144.568269" r="11.272727" opacity="1.000000" style="stroke:black;stroke-width:0.5;fill:url(#radialffffffbfbfbf)"/>
<circle cx="324.252875" cy="144.565179" r="11.272727" opacity="1.000000" style="stroke:black;stroke-width:0.5;fill:url(#radialffffffbfbfbf)"/>
<circle cx="77.579801" cy="78.494573" r="11.272727" opacity="1.000000" style="stroke:black;stroke-width:0.5;fill:url(#radialffffffbfbfbf)"/>
<circle cx="286.669983" cy="210.641966" r="11.272727" opacity="1.000000" style="stroke:black;stroke-width:0.5;fill:url(#radialffffffbfbfbf)"/>
</svg>
</g>
</svg>
