<?xml version="1.0"?>
<svg version="1.1" id="topsvg"
xmlns="http://www.w3.org/2000/svg" xmlns:xlink="http://www.w3.org/1999/xlink"
xmlns:cml="http://www.xml-cml.org/schema" x="0" y="0" width="200px" height="200px" viewBox="0 0 100 100">
<title>39149 - Open Babel Depiction</title>
<rect x="0" y="0" width="100" height="100" fill="white"/>
<defs>
<radialGradient id='radialffffff666666' cx='50%' cy='50%' r='50%' fx='30%' fy='30%'>
  <stop offset=' 0%' stop-color="rgb(255,255,255)"  stop-opacity='1.0'/>
  <stop offset='100%' stop-color="rgb(102,102,102)"  stop-opacity ='1.0'/>
</radialGradient>
<radialGradient id='radialffffffbfbfbf' cx='50%' cy='50%' r='50%' fx='30%' fy='30%'>
  <stop offset=' 0%' stop-color="rgb(255,255,255)"  stop-opacity='1.0'/>
  <stop offset='100%' stop-color="rgb(191,191,191)"  stop-opacity ='1.0'/>
</radialGradient>
</defs>
<g transform="translate(0,0)">
<svg width="100" height="100" x="0" y="0" viewBox="0 0 337.315 310.792"
font-family="sans-serif" stroke="rgb(0,0,0)" stroke-width="4"  stroke-linecap="round">
<line x1="168.7" y1="164.8" x2="168.7" y2="213.0" opacity="1.0" stroke="rgb(0,0,0)"  stroke-width="1.5"/>
<line x1="129.6" y1="142.3" x2="87.3" y2="165.6" opacity="0.5" stroke="rgb(0,0,0)"  stroke-width="1.6"/>
<line x1="207.7" y1="142.3" x2="250.0" y2="165.6" opacity="0.5" stroke="rgb(0,0,0)"  stroke-width="1.6"/>
<line x1="168.7" y1="213.0" x2="168.7" y2="235.7" opacity="0.5" stroke="rgb(0,0,0)"  stroke-width="2.0"/>
<line x1="168.7" y1="213.0" x2="141.1" y2="224.4" opacity="0.7" stroke="rgb(0,0,0)"  stroke-width="1.3"/>
<line x1="168.7" y1="213.0" x2="196.2" y2="224.4" opacity="0.4" stroke="rgb(0,0,0)"  stroke-width="1.3"/>
<line x1="87.3" y1="165.6" x2="71.0" y2="170.4" opacity="0.4" stroke="rgb(0,0,0)"  stroke-width="1.0"/>
<line x1="87.3" y1="165.6" x2="88.3" y2="197.2" opacity="0.3" stroke="rgb(0,0,0)"  stroke-width="1.8"/>
<line x1="87.3" y1="165.6" x2="63.1" y2="147.4" opacity="0.6" stroke="rgb(0,0,0)"  stroke-width="1.8"/>
<line x1="250.0" y1="165.6" x2="266.3" y2="170.4" opacity="0.6" stroke="rgb(0,0,0)"  stroke-width="1.0"/>
<line x1="250.0" y1="165.6" x2="274.2" y2="147.4" opacity="0.3" stroke="rgb(0,0,0)"  stroke-width="1.8"/>
<line x1="250.0" y1="165.6" x2="249.0" y2="197.2" opacity="0.6" stroke="rgb(0,0,0)"  stroke-width="1.8"/>
<line x1="129.6" y1="97.4" x2="99.4" y2="79.5" opacity="0.6" stroke="rgb(0,0,0)"  stroke-width="1.8"/>
<line x1="207.7" y1="97.4" x2="237.9" y2="79.5" opacity="0.6" stroke="rgb(0,0,0)"  stroke-width="1.8"/>
<line x1="168.7" y1="75.0" x2="168.7" y2="40.0" opacity="0.6" stroke="rgb(0,0,0)"  stroke-width="1.8"/>
<line x1="168.7" y1="235.7" x2="197.2" y2="227.3" opacity="0.6" stroke="rgb(0,0,0)"  stroke-width="2.8"/>
<line x1="168.7" y1="235.7" x2="168.7" y2="270.8" opacity="0.9" stroke="rgb(0,0,0)"  stroke-width="2.5"/>
<line x1="168.7" y1="235.7" x2="140.2" y2="227.3" opacity="0.8" stroke="rgb(0,0,0)"  stroke-width="2.8"/>
<line x1="71.0" y1="170.4" x2="66.0" y2="138.8" opacity="0.9" stroke="rgb(0,0,0)"  stroke-width="0.4"/>
<line x1="71.0" y1="170.4" x2="40.0" y2="187.6" opacity="0.1" stroke="rgb(0,0,0)"  stroke-width="0.5"/>
<line x1="71.0" y1="170.4" x2="93.6" y2="188.5" opacity="0.2" stroke="rgb(0,0,0)"  stroke-width="0.4"/>
<line x1="266.3" y1="170.4" x2="243.7" y2="188.5" opacity="0.1" stroke="rgb(0,0,0)"  stroke-width="0.4"/>
<line x1="266.3" y1="170.4" x2="297.3" y2="187.6" opacity="0.1" stroke="rgb(0,0,0)"  stroke-width="0.5"/>
<line x1="266.3" y1="170.4" x2="271.3" y2="138.8" opacity="0.2" stroke="rgb(0,0,0)"  stroke-width="0.4"/>
<line x1="170.1" y1="167.4" x2="209.2" y2="144.9" opacity="0.5" stroke="rgb(0,0,0)"  stroke-width="1.6"/>
<line x1="167.2" y1="162.2" x2="206.2" y2="139.7" opacity="0.5" stroke="rgb(0,0,0)"  stroke-width="1.6" stroke-dasharray="5.0,5.0"/>
<line x1="210.7" y1="142.3" x2="210.7" y2="97.4" opacity="0.6" stroke="rgb(0,0,0)"  stroke-width="1.7"/>
<line x1="204.7" y1="142.3" x2="204.7" y2="97.4" opacity="0.6" stroke="rgb(0,0,0)"  stroke-width="1.7" stroke-dasharray="5.0,5.0"/>
<line x1="209.2" y1="94.8" x2="170.1" y2="72.4" opacity="0.6" stroke="rgb(0,0,0)"  stroke-width="1.8"/>
<line x1="206.2" y1="100.0" x2="167.2" y2="77.6" opacity="0.6" stroke="rgb(0,0,0)"  stroke-width="1.8" stroke-dasharray="5.0,5.0"/>
<line x1="167.2" y1="72.4" x2="128.1" y2="94.8" opacity="0.6" stroke="rgb(0,0,0)"  stroke-width="1.8"/>
<line x1="170.1" y1="77.6" x2="131.1" y2="100.0" opacity="0.6" stroke="rgb(0,0,0)"  stroke-width="1.8" stroke-dasharray="5.0,5.0"/>
<line x1="126.6" y1="97.4" x2="126.6" y2="142.3" opacity="0.6" stroke="rgb(0,0,0)"  stroke-width="1.7"/>
<line x1="132.6" y1="97.4" x2="132.6" y2="142.3" opacity="0.6" stroke="rgb(0,0,0)"  stroke-width="1.7" stroke-dasharray="5.0,5.0"/>
<line x1="128.1" y1="144.9" x2="167.2" y2="167.4" opacity="0.5" stroke="rgb(0,0,0)"  stroke-width="1.6"/>
<line x1="131.1" y1="139.7" x2="170.1" y2="162.2" opacity="0.5" stroke="rgb(0,0,0)"  stroke-width="1.6" stroke-dasharray="5.0,5.0"/>
<circle cx="243.684724" cy="188.509401" r="5.636364" opacity="0.200000" style="stroke:black;stroke-width:0.5;fill:url(#radialffffffbfbfbf)"/>
<circle cx="93.633065" cy="188.515867" r="5.636364" opacity="0.200000" style="stroke:black;stroke-width:0.5;fill:url(#radialffffffbfbfbf)"/>
<circle cx="65.985589" cy="138.791795" r="5.636364" opacity="0.204095" style="stroke:black;stroke-width:0.5;fill:url(#radialffffffbfbfbf)"/>
<circle cx="271.325733" cy="138.782096" r="5.636364" opacity="0.204158" style="stroke:black;stroke-width:0.5;fill:url(#radialffffffbfbfbf)"/>
<circle cx="40.000000" cy="187.574993" r="5.636364" opacity="0.400494" style="stroke:black;stroke-width:0.5;fill:url(#radialffffffbfbfbf)"/>
<circle cx="297.314555" cy="187.565293" r="5.636364" opacity="0.400526" style="stroke:black;stroke-width:0.5;fill:url(#radialffffffbfbfbf)"/>
<circle cx="70.974485" cy="170.448495" r="13.818182" opacity="0.402681" style="stroke:black;stroke-width:0.5;fill:url(#radialffffff666666)"/>
<circle cx="266.340070" cy="170.442029" r="13.818182" opacity="0.402681" style="stroke:black;stroke-width:0.5;fill:url(#radialffffff666666)"/>
<circle cx="141.074466" cy="224.382252" r="5.636364" opacity="0.587643" style="stroke:black;stroke-width:0.5;fill:url(#radialffffffbfbfbf)"/>
<circle cx="196.230389" cy="224.382252" r="5.636364" opacity="0.587665" style="stroke:black;stroke-width:0.5;fill:url(#radialffffffbfbfbf)"/>
<circle cx="168.654044" cy="212.952732" r="13.818182" opacity="0.704995" style="stroke:black;stroke-width:0.5;fill:url(#radialffffff666666)"/>
<circle cx="87.328238" cy="165.614794" r="14.697096" opacity="0.729248" style="stroke:black;stroke-width:0.5;fill:url(#radialffffff666666)"/>
<circle cx="249.979851" cy="165.614794" r="14.697809" opacity="0.729266" style="stroke:black;stroke-width:0.5;fill:url(#radialffffff666666)"/>
<circle cx="168.654044" cy="164.793550" r="14.714224" opacity="0.729673" style="stroke:black;stroke-width:0.5;fill:url(#radialffffff666666)"/>
<circle cx="129.596447" cy="142.335432" r="15.170275" opacity="0.740894" style="stroke:black;stroke-width:0.5;fill:url(#radialffffff666666)"/>
<circle cx="207.714875" cy="142.338665" r="15.170275" opacity="0.740894" style="stroke:black;stroke-width:0.5;fill:url(#radialffffff666666)"/>
<circle cx="129.593214" cy="97.425661" r="16.080948" opacity="0.762808" style="stroke:black;stroke-width:0.5;fill:url(#radialffffff666666)"/>
<circle cx="207.711642" cy="97.425661" r="16.081662" opacity="0.762825" style="stroke:black;stroke-width:0.5;fill:url(#radialffffff666666)"/>
<circle cx="99.423806" cy="79.474686" r="6.700232" opacity="0.770957" style="stroke:black;stroke-width:0.5;fill:url(#radialffffffbfbfbf)"/>
<circle cx="237.881049" cy="79.474686" r="6.701106" opacity="0.771008" style="stroke:black;stroke-width:0.5;fill:url(#radialffffffbfbfbf)"/>
<circle cx="168.650811" cy="74.974009" r="16.536998" opacity="0.773549" style="stroke:black;stroke-width:0.5;fill:url(#radialffffff666666)"/>
<circle cx="168.650811" cy="40.000000" r="7.030935" opacity="0.789754" style="stroke:black;stroke-width:0.5;fill:url(#radialffffffbfbfbf)"/>
<circle cx="248.964612" cy="197.158331" r="7.430632" opacity="0.811892" style="stroke:black;stroke-width:0.5;fill:url(#radialffffffbfbfbf)"/>
<circle cx="88.343476" cy="197.155097" r="7.430923" opacity="0.811908" style="stroke:black;stroke-width:0.5;fill:url(#radialffffffbfbfbf)"/>
<circle cx="63.108001" cy="147.405159" r="7.663230" opacity="0.824501" style="stroke:black;stroke-width:0.5;fill:url(#radialffffffbfbfbf)"/>
<circle cx="274.200088" cy="147.408393" r="7.663813" opacity="0.824533" style="stroke:black;stroke-width:0.5;fill:url(#radialffffffbfbfbf)"/>
<circle cx="168.650811" cy="270.792248" r="9.126359" opacity="0.899776" style="stroke:black;stroke-width:0.5;fill:url(#radialffffffbfbfbf)"/>
<circle cx="168.650811" cy="235.695376" r="23.392027" opacity="0.920012" style="stroke:black;stroke-width:0.5;fill:url(#radialffffff666666)"/>
<circle cx="197.151864" cy="227.311572" r="11.272727" opacity="1.000000" style="stroke:black;stroke-width:0.5;fill:url(#radialffffffbfbfbf)"/>
<circle cx="140.156225" cy="227.308339" r="11.272727" opacity="1.000000" style="stroke:black;stroke-width:0.5;fill:url(#radialffffffbfbfbf)"/>
</svg>
</g>
</svg>
