<?xml version="1.0"?>
<svg version="1.1" id="topsvg"
xmlns="http://www.w3.org/2000/svg" xmlns:xlink="http://www.w3.org/1999/xlink"
xmlns:cml="http://www.xml-cml.org/schema" x="0" y="0" width="1024px" height="1024px" viewBox="0 0 100 100">
<title>43928 - Open Babel Depiction</title>
<rect x="0" y="0" width="100" height="100" fill="white"/>
<defs>
<radialGradient id='radialffffff666666' cx='50%' cy='50%' r='50%' fx='30%' fy='30%'>
  <stop offset=' 0%' stop-color="rgb(255,255,255)"  stop-opacity='1.0'/>
  <stop offset='100%' stop-color="rgb(102,102,102)"  stop-opacity ='1.0'/>
</radialGradient>
<radialGradient id='radialffffff7fb2ff' cx='50%' cy='50%' r='50%' fx='30%' fy='30%'>
  <stop offset=' 0%' stop-color="rgb(255,255,255)"  stop-opacity='1.0'/>
  <stop offset='100%' stop-color="rgb(127,178,255)"  stop-opacity ='1.0'/>
</radialGradient>
<radialGradient id='radialffffffbfbfbf' cx='50%' cy='50%' r='50%' fx='30%' fy='30%'>
  <stop offset=' 0%' stop-color="rgb(255,255,255)"  stop-opacity='1.0'/>
  <stop offset='100%' stop-color="rgb(191,191,191)"  stop-opacity ='1.0'/>
</radialGradient>
</defs>
<g transform="translate(0,0)">
<svg width="100" height="100" x="0" y="0" viewBox="0 0 470.292 177.247"
font-family="sans-serif" stroke="rgb(0,0,0)" stroke-width="2"  stroke-linecap="round">
<line x1="430.3" y1="71.4" x2="395.8" y2="95.6" opacity="1.0" stroke="rgb(0,0,0)"  stroke-width="1.6"/>
<line x1="397.8" y1="132.6" x2="395.8" y2="95.6" opacity="0.5" stroke="rgb(0,0,0)"  stroke-width="1.4"/>
<line x1="231.7" y1="98.1" x2="272.1" y2="72.3" opacity="0.5" stroke="rgb(0,0,0)"  stroke-width="1.6"/>
<line x1="231.7" y1="98.1" x2="190.5" y2="75.2" opacity="0.5" stroke="rgb(0,0,0)"  stroke-width="1.6"/>
<line x1="231.7" y1="98.1" x2="231.0" y2="102.7" opacity="0.5" stroke="rgb(0,0,0)"  stroke-width="2.4"/>
<line x1="231.7" y1="98.1" x2="233.2" y2="130.3" opacity="0.8" stroke="rgb(0,0,0)"  stroke-width="1.5"/>
<line x1="272.1" y1="72.3" x2="313.3" y2="96.0" opacity="0.5" stroke="rgb(0,0,0)"  stroke-width="1.6"/>
<line x1="272.1" y1="72.3" x2="271.1" y2="40.4" opacity="0.5" stroke="rgb(0,0,0)"  stroke-width="1.6"/>
<line x1="272.1" y1="72.3" x2="272.5" y2="67.1" opacity="0.5" stroke="rgb(0,0,0)"  stroke-width="0.8"/>
<line x1="190.5" y1="75.2" x2="150.2" y2="101.4" opacity="0.3" stroke="rgb(0,0,0)"  stroke-width="1.5"/>
<line x1="190.5" y1="75.2" x2="188.6" y2="43.2" opacity="0.5" stroke="rgb(0,0,0)"  stroke-width="1.6"/>
<line x1="190.5" y1="75.2" x2="191.6" y2="70.0" opacity="0.5" stroke="rgb(0,0,0)"  stroke-width="0.7"/>
<line x1="313.3" y1="96.0" x2="354.6" y2="71.3" opacity="0.2" stroke="rgb(0,0,0)"  stroke-width="1.6"/>
<line x1="313.3" y1="96.0" x2="314.1" y2="127.8" opacity="0.5" stroke="rgb(0,0,0)"  stroke-width="1.6"/>
<line x1="313.3" y1="96.0" x2="312.7" y2="101.7" opacity="0.5" stroke="rgb(0,0,0)"  stroke-width="2.4"/>
<line x1="150.2" y1="101.4" x2="109.1" y2="79.0" opacity="0.8" stroke="rgb(0,0,0)"  stroke-width="1.4"/>
<line x1="150.2" y1="101.4" x2="148.7" y2="106.0" opacity="0.5" stroke="rgb(0,0,0)"  stroke-width="2.3"/>
<line x1="150.2" y1="101.4" x2="152.5" y2="133.6" opacity="0.8" stroke="rgb(0,0,0)"  stroke-width="1.4"/>
<line x1="354.6" y1="71.3" x2="395.8" y2="95.6" opacity="0.5" stroke="rgb(0,0,0)"  stroke-width="1.6"/>
<line x1="354.6" y1="71.3" x2="354.9" y2="40.0" opacity="0.5" stroke="rgb(0,0,0)"  stroke-width="1.7"/>
<line x1="354.6" y1="71.3" x2="354.6" y2="64.3" opacity="0.6" stroke="rgb(0,0,0)"  stroke-width="0.9"/>
<line x1="109.1" y1="79.0" x2="69.1" y2="105.5" opacity="0.3" stroke="rgb(0,0,0)"  stroke-width="1.3"/>
<line x1="109.1" y1="79.0" x2="106.2" y2="47.1" opacity="0.4" stroke="rgb(0,0,0)"  stroke-width="1.4"/>
<line x1="109.1" y1="79.0" x2="110.7" y2="73.9" opacity="0.5" stroke="rgb(0,0,0)"  stroke-width="0.6"/>
<line x1="395.8" y1="95.6" x2="398.6" y2="103.4" opacity="0.2" stroke="rgb(0,0,0)"  stroke-width="2.4"/>
<line x1="69.1" y1="105.5" x2="65.9" y2="110.5" opacity="0.8" stroke="rgb(0,0,0)"  stroke-width="2.1"/>
<line x1="69.1" y1="105.5" x2="40.0" y2="88.9" opacity="0.7" stroke="rgb(0,0,0)"  stroke-width="1.3"/>
<line x1="69.1" y1="105.5" x2="70.4" y2="137.2" opacity="0.4" stroke="rgb(0,0,0)"  stroke-width="1.3"/>
<circle cx="110.655112" cy="73.862105" r="5.636364" opacity="0.200000" style="stroke:black;stroke-width:0.5;fill:url(#radialffffffbfbfbf)"/>
<circle cx="191.569999" cy="70.049023" r="5.636364" opacity="0.209736" style="stroke:black;stroke-width:0.5;fill:url(#radialffffffbfbfbf)"/>
<circle cx="272.462266" cy="67.108426" r="5.636364" opacity="0.259318" style="stroke:black;stroke-width:0.5;fill:url(#radialffffffbfbfbf)"/>
<circle cx="354.563086" cy="64.297086" r="5.636364" opacity="0.306830" style="stroke:black;stroke-width:0.5;fill:url(#radialffffffbfbfbf)"/>
<circle cx="70.398017" cy="137.246510" r="5.636364" opacity="0.577361" style="stroke:black;stroke-width:0.5;fill:url(#radialffffffbfbfbf)"/>
<circle cx="397.789861" cy="132.644961" r="10.363636" opacity="0.584406" style="stroke:black;stroke-width:0.5;fill:url(#radialffffff7fb2ff)"/>
<circle cx="40.000000" cy="88.910852" r="5.636364" opacity="0.617174" style="stroke:black;stroke-width:0.5;fill:url(#radialffffffbfbfbf)"/>
<circle cx="109.062019" cy="79.019459" r="13.818182" opacity="0.625041" style="stroke:black;stroke-width:0.5;fill:url(#radialffffff666666)"/>
<circle cx="152.460060" cy="133.604694" r="5.636364" opacity="0.632980" style="stroke:black;stroke-width:0.5;fill:url(#radialffffffbfbfbf)"/>
<circle cx="233.223070" cy="130.308640" r="5.636364" opacity="0.658744" style="stroke:black;stroke-width:0.5;fill:url(#radialffffffbfbfbf)"/>
<circle cx="190.471315" cy="75.164369" r="13.818182" opacity="0.659647" style="stroke:black;stroke-width:0.5;fill:url(#radialffffff666666)"/>
<circle cx="314.086254" cy="127.807517" r="5.636364" opacity="0.660275" style="stroke:black;stroke-width:0.5;fill:url(#radialffffffbfbfbf)"/>
<circle cx="272.051875" cy="72.346566" r="13.818182" opacity="0.676992" style="stroke:black;stroke-width:0.5;fill:url(#radialffffff666666)"/>
<circle cx="430.291536" cy="71.351287" r="10.363636" opacity="0.683881" style="stroke:black;stroke-width:0.5;fill:url(#radialffffff7fb2ff)"/>
<circle cx="354.601864" cy="71.341593" r="13.818182" opacity="0.694112" style="stroke:black;stroke-width:0.5;fill:url(#radialffffff666666)"/>
<circle cx="69.060207" cy="105.542997" r="14.036411" opacity="0.712669" style="stroke:black;stroke-width:0.5;fill:url(#radialffffff666666)"/>
<circle cx="106.237754" cy="47.138218" r="6.313524" opacity="0.748379" style="stroke:black;stroke-width:0.5;fill:url(#radialffffffbfbfbf)"/>
<circle cx="150.233608" cy="101.422930" r="15.599887" opacity="0.751312" style="stroke:black;stroke-width:0.5;fill:url(#radialffffff666666)"/>
<circle cx="231.739846" cy="98.104257" r="16.534585" opacity="0.773493" style="stroke:black;stroke-width:0.5;fill:url(#radialffffff666666)"/>
<circle cx="395.783146" cy="95.622522" r="16.637222" opacity="0.775890" style="stroke:black;stroke-width:0.5;fill:url(#radialffffff666666)"/>
<circle cx="188.610014" cy="43.186185" r="6.813062" opacity="0.777422" style="stroke:black;stroke-width:0.5;fill:url(#radialffffffbfbfbf)"/>
<circle cx="313.320407" cy="95.971516" r="16.851466" opacity="0.780869" style="stroke:black;stroke-width:0.5;fill:url(#radialffffff666666)"/>
<circle cx="271.059828" cy="40.423317" r="7.097176" opacity="0.793466" style="stroke:black;stroke-width:0.5;fill:url(#radialffffffbfbfbf)"/>
<circle cx="354.937932" cy="40.000000" r="7.507700" opacity="0.816092" style="stroke:black;stroke-width:0.5;fill:url(#radialffffffbfbfbf)"/>
<circle cx="65.938650" cy="110.487078" r="10.113507" opacity="0.947188" style="stroke:black;stroke-width:0.5;fill:url(#radialffffffbfbfbf)"/>
<circle cx="148.734227" cy="106.047100" r="10.778880" opacity="0.977850" style="stroke:black;stroke-width:0.5;fill:url(#radialffffffbfbfbf)"/>
<circle cx="398.584792" cy="103.397331" r="11.107299" opacity="0.992635" style="stroke:black;stroke-width:0.5;fill:url(#radialffffffbfbfbf)"/>
<circle cx="230.996618" cy="102.705806" r="11.163796" opacity="0.995157" style="stroke:black;stroke-width:0.5;fill:url(#radialffffffbfbfbf)"/>
<circle cx="312.667659" cy="101.720221" r="11.272727" opacity="1.000000" style="stroke:black;stroke-width:0.5;fill:url(#radialffffffbfbfbf)"/>
</svg>
</g>
</svg>
