<?xml version="1.0"?>
<svg version="1.1" id="topsvg"
xmlns="http://www.w3.org/2000/svg" xmlns:xlink="http://www.w3.org/1999/xlink"
xmlns:cml="http://www.xml-cml.org/schema" x="0" y="0" width="1024px" height="1024px" viewBox="0 0 100 100">
<title>51806 - Open Babel Depiction</title>
<rect x="0" y="0" width="100" height="100" fill="white"/>
<defs>
<radialGradient id='radialffffff666666' cx='50%' cy='50%' r='50%' fx='30%' fy='30%'>
  <stop offset=' 0%' stop-color="rgb(255,255,255)"  stop-opacity='1.0'/>
  <stop offset='100%' stop-color="rgb(102,102,102)"  stop-opacity ='1.0'/>
</radialGradient>
<radialGradient id='radialffffffbfbfbf' cx='50%' cy='50%' r='50%' fx='30%' fy='30%'>
  <stop offset=' 0%' stop-color="rgb(255,255,255)"  stop-opacity='1.0'/>
  <stop offset='100%' stop-color="rgb(191,191,191)"  stop-opacity ='1.0'/>
</radialGradient>
</defs>
<g transform="translate(0,0)">
<svg width="100" height="100" x="0" y="0" viewBox="0 0 383.724 247.189"
font-family="sans-serif" stroke="rgb(0,0,0)" stroke-width="2"  stroke-linecap="round">
<line x1="236.6" y1="151.5" x2="192.6" y2="160.6" opacity="1.0" stroke="rgb(0,0,0)"  stroke-width="1.5"/>
<line x1="236.6" y1="151.5" x2="275.0" y2="172.1" opacity="0.5" stroke="rgb(0,0,0)"  stroke-width="1.5"/>
<line x1="236.6" y1="151.5" x2="244.9" y2="102.5" opacity="0.5" stroke="rgb(0,0,0)"  stroke-width="2.1"/>
<line x1="236.6" y1="151.5" x2="234.9" y2="168.1" opacity="0.7" stroke="rgb(0,0,0)"  stroke-width="2.4"/>
<line x1="192.6" y1="160.6" x2="151.8" y2="143.1" opacity="0.8" stroke="rgb(0,0,0)"  stroke-width="1.5"/>
<line x1="192.6" y1="160.6" x2="193.7" y2="147.1" opacity="0.5" stroke="rgb(0,0,0)"  stroke-width="0.6"/>
<line x1="192.6" y1="160.6" x2="189.1" y2="196.2" opacity="0.2" stroke="rgb(0,0,0)"  stroke-width="1.1"/>
<line x1="275.0" y1="172.1" x2="319.1" y2="167.8" opacity="0.4" stroke="rgb(0,0,0)"  stroke-width="1.5"/>
<line x1="275.0" y1="172.1" x2="268.3" y2="207.2" opacity="0.5" stroke="rgb(0,0,0)"  stroke-width="1.0"/>
<line x1="275.0" y1="172.1" x2="277.3" y2="158.3" opacity="0.3" stroke="rgb(0,0,0)"  stroke-width="0.5"/>
<line x1="244.9" y1="102.5" x2="248.5" y2="74.3" opacity="0.2" stroke="rgb(0,0,0)"  stroke-width="1.6"/>
<line x1="244.9" y1="102.5" x2="274.7" y2="98.6" opacity="0.5" stroke="rgb(0,0,0)"  stroke-width="2.5"/>
<line x1="244.9" y1="102.5" x2="218.5" y2="89.6" opacity="0.8" stroke="rgb(0,0,0)"  stroke-width="2.6"/>
<line x1="151.8" y1="143.1" x2="110.1" y2="155.2" opacity="0.9" stroke="rgb(0,0,0)"  stroke-width="1.5"/>
<line x1="151.8" y1="143.1" x2="150.3" y2="156.5" opacity="0.5" stroke="rgb(0,0,0)"  stroke-width="2.5"/>
<line x1="151.8" y1="143.1" x2="153.5" y2="107.4" opacity="0.8" stroke="rgb(0,0,0)"  stroke-width="2.0"/>
<line x1="110.1" y1="155.2" x2="69.4" y2="136.9" opacity="0.7" stroke="rgb(0,0,0)"  stroke-width="1.5"/>
<line x1="110.1" y1="155.2" x2="107.2" y2="190.9" opacity="0.5" stroke="rgb(0,0,0)"  stroke-width="1.1"/>
<line x1="110.1" y1="155.2" x2="111.8" y2="142.4" opacity="0.4" stroke="rgb(0,0,0)"  stroke-width="0.6"/>
<line x1="319.1" y1="167.8" x2="330.9" y2="134.0" opacity="0.2" stroke="rgb(0,0,0)"  stroke-width="1.8"/>
<line x1="319.1" y1="167.8" x2="343.7" y2="187.6" opacity="0.6" stroke="rgb(0,0,0)"  stroke-width="1.6"/>
<line x1="319.1" y1="167.8" x2="317.2" y2="179.4" opacity="0.5" stroke="rgb(0,0,0)"  stroke-width="2.4"/>
<line x1="248.5" y1="74.3" x2="218.6" y2="75.6" opacity="0.8" stroke="rgb(0,0,0)"  stroke-width="0.6"/>
<line x1="248.5" y1="74.3" x2="276.3" y2="83.8" opacity="0.2" stroke="rgb(0,0,0)"  stroke-width="0.6"/>
<line x1="248.5" y1="74.3" x2="253.5" y2="40.0" opacity="0.2" stroke="rgb(0,0,0)"  stroke-width="1.0"/>
<line x1="69.4" y1="136.9" x2="70.8" y2="101.1" opacity="0.3" stroke="rgb(0,0,0)"  stroke-width="1.9"/>
<line x1="69.4" y1="136.9" x2="40.0" y2="146.0" opacity="0.6" stroke="rgb(0,0,0)"  stroke-width="1.5"/>
<line x1="69.4" y1="136.9" x2="66.2" y2="149.8" opacity="0.5" stroke="rgb(0,0,0)"  stroke-width="2.4"/>
<circle cx="277.314174" cy="158.301527" r="5.636364" opacity="0.200000" style="stroke:black;stroke-width:0.5;fill:url(#radialffffffbfbfbf)"/>
<circle cx="111.777239" cy="142.358676" r="5.636364" opacity="0.200000" style="stroke:black;stroke-width:0.5;fill:url(#radialffffffbfbfbf)"/>
<circle cx="193.746106" cy="147.139892" r="5.636364" opacity="0.200000" style="stroke:black;stroke-width:0.5;fill:url(#radialffffffbfbfbf)"/>
<circle cx="276.268795" cy="83.840383" r="5.636364" opacity="0.272405" style="stroke:black;stroke-width:0.5;fill:url(#radialffffffbfbfbf)"/>
<circle cx="218.628751" cy="75.631371" r="5.636364" opacity="0.285682" style="stroke:black;stroke-width:0.5;fill:url(#radialffffffbfbfbf)"/>
<circle cx="248.469574" cy="74.264841" r="13.818182" opacity="0.544745" style="stroke:black;stroke-width:0.5;fill:url(#radialffffff666666)"/>
<circle cx="268.262960" cy="207.188568" r="5.636364" opacity="0.558852" style="stroke:black;stroke-width:0.5;fill:url(#radialffffffbfbfbf)"/>
<circle cx="107.153321" cy="190.885241" r="5.636364" opacity="0.582938" style="stroke:black;stroke-width:0.5;fill:url(#radialffffffbfbfbf)"/>
<circle cx="189.056647" cy="196.161292" r="5.636364" opacity="0.583824" style="stroke:black;stroke-width:0.5;fill:url(#radialffffffbfbfbf)"/>
<circle cx="275.030069" cy="172.127403" r="13.818182" opacity="0.599508" style="stroke:black;stroke-width:0.5;fill:url(#radialffffff666666)"/>
<circle cx="110.050234" cy="155.162112" r="13.818182" opacity="0.604774" style="stroke:black;stroke-width:0.5;fill:url(#radialffffff666666)"/>
<circle cx="192.592584" cy="160.556138" r="13.818182" opacity="0.618605" style="stroke:black;stroke-width:0.5;fill:url(#radialffffff666666)"/>
<circle cx="253.499847" cy="40.000000" r="5.636364" opacity="0.631824" style="stroke:black;stroke-width:0.5;fill:url(#radialffffffbfbfbf)"/>
<circle cx="40.000000" cy="145.963431" r="5.636364" opacity="0.639168" style="stroke:black;stroke-width:0.5;fill:url(#radialffffffbfbfbf)"/>
<circle cx="343.723604" cy="187.611467" r="5.636364" opacity="0.651724" style="stroke:black;stroke-width:0.5;fill:url(#radialffffffbfbfbf)"/>
<circle cx="69.424637" cy="136.876170" r="16.813573" opacity="0.779991" style="stroke:black;stroke-width:0.5;fill:url(#radialffffff666666)"/>
<circle cx="330.854626" cy="133.969426" r="6.874231" opacity="0.780904" style="stroke:black;stroke-width:0.5;fill:url(#radialffffffbfbfbf)"/>
<circle cx="319.099846" cy="167.824636" r="16.853939" opacity="0.780927" style="stroke:black;stroke-width:0.5;fill:url(#radialffffff666666)"/>
<circle cx="70.778059" cy="101.077669" r="7.085462" opacity="0.792811" style="stroke:black;stroke-width:0.5;fill:url(#radialffffffbfbfbf)"/>
<circle cx="151.783473" cy="143.092735" r="17.630722" opacity="0.798720" style="stroke:black;stroke-width:0.5;fill:url(#radialffffff666666)"/>
<circle cx="236.573881" cy="151.511478" r="17.650412" opacity="0.799166" style="stroke:black;stroke-width:0.5;fill:url(#radialffffff666666)"/>
<circle cx="153.500648" cy="107.356498" r="7.539648" opacity="0.817826" style="stroke:black;stroke-width:0.5;fill:url(#radialffffffbfbfbf)"/>
<circle cx="244.861542" cy="102.529403" r="20.510433" opacity="0.861484" style="stroke:black;stroke-width:0.5;fill:url(#radialffffff666666)"/>
<circle cx="274.689256" cy="98.564171" r="10.767139" opacity="0.977317" style="stroke:black;stroke-width:0.5;fill:url(#radialffffffbfbfbf)"/>
<circle cx="218.497669" cy="89.601438" r="10.900062" opacity="0.983332" style="stroke:black;stroke-width:0.5;fill:url(#radialffffffbfbfbf)"/>
<circle cx="66.170526" cy="149.774641" r="10.941023" opacity="0.985177" style="stroke:black;stroke-width:0.5;fill:url(#radialffffffbfbfbf)"/>
<circle cx="317.189325" cy="179.363131" r="11.029370" opacity="0.989147" style="stroke:black;stroke-width:0.5;fill:url(#radialffffffbfbfbf)"/>
<circle cx="234.905862" cy="168.086800" r="11.112497" opacity="0.992868" style="stroke:black;stroke-width:0.5;fill:url(#radialffffffbfbfbf)"/>
<circle cx="150.348125" cy="156.495872" r="11.272727" opacity="1.000000" style="stroke:black;stroke-width:0.5;fill:url(#radialffffffbfbfbf)"/>
</svg>
</g>
</svg>
