<?xml version="1.0"?>
<svg version="1.1" id="topsvg"
xmlns="http://www.w3.org/2000/svg" xmlns:xlink="http://www.w3.org/1999/xlink"
xmlns:cml="http://www.xml-cml.org/schema" x="0" y="0" width="200px" height="200px" viewBox="0 0 100 100">
<title>518457 - Open Babel Depiction</title>
<rect x="0" y="0" width="100" height="100" fill="white"/>
<defs>
<radialGradient id='radialffffff666666' cx='50%' cy='50%' r='50%' fx='30%' fy='30%'>
  <stop offset=' 0%' stop-color="rgb(255,255,255)"  stop-opacity='1.0'/>
  <stop offset='100%' stop-color="rgb(102,102,102)"  stop-opacity ='1.0'/>
</radialGradient>
<radialGradient id='radialffffffbfbfbf' cx='50%' cy='50%' r='50%' fx='30%' fy='30%'>
  <stop offset=' 0%' stop-color="rgb(255,255,255)"  stop-opacity='1.0'/>
  <stop offset='100%' stop-color="rgb(191,191,191)"  stop-opacity ='1.0'/>
</radialGradient>
</defs>
<g transform="translate(0,0)">
<svg width="100" height="100" x="0" y="0" viewBox="0 0 359.618 221.552"
font-family="sans-serif" stroke="rgb(0,0,0)" stroke-width="4"  stroke-linecap="round">
<line x1="110.6" y1="111.2" x2="152.4" y2="112.3" opacity="1.0" stroke="rgb(0,0,0)"  stroke-width="1.8"/>
<line x1="110.6" y1="111.2" x2="107.9" y2="68.7" opacity="0.6" stroke="rgb(0,0,0)"  stroke-width="1.1"/>
<line x1="110.6" y1="111.2" x2="109.1" y2="150.5" opacity="0.4" stroke="rgb(0,0,0)"  stroke-width="1.0"/>
<line x1="110.6" y1="111.2" x2="70.6" y2="113.6" opacity="0.3" stroke="rgb(0,0,0)"  stroke-width="1.8"/>
<line x1="152.4" y1="112.3" x2="196.0" y2="111.3" opacity="0.6" stroke="rgb(0,0,0)"  stroke-width="1.9"/>
<line x1="152.4" y1="112.3" x2="151.6" y2="84.5" opacity="0.6" stroke="rgb(0,0,0)"  stroke-width="2.5"/>
<line x1="152.4" y1="112.3" x2="151.7" y2="141.9" opacity="0.8" stroke="rgb(0,0,0)"  stroke-width="2.5"/>
<line x1="196.0" y1="111.3" x2="234.7" y2="114.6" opacity="0.8" stroke="rgb(0,0,0)"  stroke-width="2.0"/>
<line x1="196.0" y1="111.3" x2="197.1" y2="138.5" opacity="0.7" stroke="rgb(0,0,0)"  stroke-width="1.3"/>
<line x1="196.0" y1="111.3" x2="197.9" y2="80.9" opacity="0.4" stroke="rgb(0,0,0)"  stroke-width="1.3"/>
<line x1="234.7" y1="114.6" x2="279.5" y2="111.5" opacity="0.4" stroke="rgb(0,0,0)"  stroke-width="2.1"/>
<line x1="234.7" y1="114.6" x2="232.7" y2="145.3" opacity="0.7" stroke="rgb(0,0,0)"  stroke-width="2.6"/>
<line x1="234.7" y1="114.6" x2="232.3" y2="88.2" opacity="0.9" stroke="rgb(0,0,0)"  stroke-width="2.7"/>
<line x1="279.5" y1="111.5" x2="284.8" y2="69.2" opacity="0.9" stroke="rgb(0,0,0)"  stroke-width="1.4"/>
<line x1="279.5" y1="111.5" x2="286.0" y2="150.9" opacity="0.5" stroke="rgb(0,0,0)"  stroke-width="1.4"/>
<line x1="279.5" y1="111.5" x2="304.8" y2="112.3" opacity="0.5" stroke="rgb(0,0,0)"  stroke-width="2.1"/>
<line x1="107.9" y1="68.7" x2="110.3" y2="40.0" opacity="0.7" stroke="rgb(0,0,0)"  stroke-width="1.0"/>
<line x1="107.9" y1="68.7" x2="76.8" y2="66.6" opacity="0.3" stroke="rgb(0,0,0)"  stroke-width="0.5"/>
<line x1="107.9" y1="68.7" x2="134.1" y2="66.6" opacity="0.2" stroke="rgb(0,0,0)"  stroke-width="0.5"/>
<line x1="109.1" y1="150.5" x2="134.7" y2="148.7" opacity="0.2" stroke="rgb(0,0,0)"  stroke-width="0.4"/>
<line x1="109.1" y1="150.5" x2="113.0" y2="181.3" opacity="0.1" stroke="rgb(0,0,0)"  stroke-width="0.9"/>
<line x1="109.1" y1="150.5" x2="77.7" y2="151.9" opacity="0.3" stroke="rgb(0,0,0)"  stroke-width="0.4"/>
<line x1="70.6" y1="113.6" x2="40.0" y2="112.8" opacity="0.1" stroke="rgb(0,0,0)"  stroke-width="2.0"/>
<line x1="70.6" y1="113.6" x2="70.8" y2="143.7" opacity="0.7" stroke="rgb(0,0,0)"  stroke-width="2.5"/>
<line x1="70.6" y1="113.6" x2="70.1" y2="86.0" opacity="0.8" stroke="rgb(0,0,0)"  stroke-width="2.5"/>
<line x1="284.8" y1="69.2" x2="263.9" y2="68.5" opacity="0.8" stroke="rgb(0,0,0)"  stroke-width="0.7"/>
<line x1="284.8" y1="69.2" x2="318.6" y2="65.8" opacity="0.2" stroke="rgb(0,0,0)"  stroke-width="1.0"/>
<line x1="284.8" y1="69.2" x2="277.1" y2="40.7" opacity="0.3" stroke="rgb(0,0,0)"  stroke-width="1.4"/>
<line x1="286.0" y1="150.9" x2="264.3" y2="150.2" opacity="0.5" stroke="rgb(0,0,0)"  stroke-width="0.6"/>
<line x1="286.0" y1="150.9" x2="319.6" y2="151.4" opacity="0.2" stroke="rgb(0,0,0)"  stroke-width="0.8"/>
<line x1="286.0" y1="150.9" x2="280.6" y2="181.6" opacity="0.3" stroke="rgb(0,0,0)"  stroke-width="1.2"/>
<circle cx="134.706904" cy="148.726180" r="5.636364" opacity="0.200000" style="stroke:black;stroke-width:0.5;fill:url(#radialffffffbfbfbf)"/>
<circle cx="134.053325" cy="66.607212" r="5.636364" opacity="0.212909" style="stroke:black;stroke-width:0.5;fill:url(#radialffffffbfbfbf)"/>
<circle cx="77.747471" cy="151.882968" r="5.636364" opacity="0.255462" style="stroke:black;stroke-width:0.5;fill:url(#radialffffffbfbfbf)"/>
<circle cx="264.285531" cy="150.157518" r="5.636364" opacity="0.302267" style="stroke:black;stroke-width:0.5;fill:url(#radialffffffbfbfbf)"/>
<circle cx="76.829192" cy="66.567997" r="5.636364" opacity="0.320289" style="stroke:black;stroke-width:0.5;fill:url(#radialffffffbfbfbf)"/>
<circle cx="263.896651" cy="68.456841" r="5.636364" opacity="0.345320" style="stroke:black;stroke-width:0.5;fill:url(#radialffffffbfbfbf)"/>
<circle cx="109.073525" cy="150.500647" r="13.818182" opacity="0.463356" style="stroke:black;stroke-width:0.5;fill:url(#radialffffff666666)"/>
<circle cx="319.617552" cy="151.431998" r="5.636364" opacity="0.478383" style="stroke:black;stroke-width:0.5;fill:url(#radialffffffbfbfbf)"/>
<circle cx="107.903618" cy="68.711737" r="13.818182" opacity="0.505181" style="stroke:black;stroke-width:0.5;fill:url(#radialffffff666666)"/>
<circle cx="318.594700" cy="65.826185" r="5.636364" opacity="0.522221" style="stroke:black;stroke-width:0.5;fill:url(#radialffffffbfbfbf)"/>
<circle cx="197.149868" cy="138.500932" r="5.636364" opacity="0.564804" style="stroke:black;stroke-width:0.5;fill:url(#radialffffffbfbfbf)"/>
<circle cx="286.043185" cy="150.879723" r="13.818182" opacity="0.579803" style="stroke:black;stroke-width:0.5;fill:url(#radialffffff666666)"/>
<circle cx="197.901484" cy="80.920598" r="5.636364" opacity="0.597781" style="stroke:black;stroke-width:0.5;fill:url(#radialffffffbfbfbf)"/>
<circle cx="112.998269" cy="181.346321" r="5.636364" opacity="0.606536" style="stroke:black;stroke-width:0.5;fill:url(#radialffffffbfbfbf)"/>
<circle cx="284.768705" cy="69.218261" r="13.818182" opacity="0.608021" style="stroke:black;stroke-width:0.5;fill:url(#radialffffff666666)"/>
<circle cx="110.295719" cy="40.000000" r="5.636364" opacity="0.662259" style="stroke:black;stroke-width:0.5;fill:url(#radialffffffbfbfbf)"/>
<circle cx="110.622508" cy="111.236873" r="13.818182" opacity="0.696330" style="stroke:black;stroke-width:0.5;fill:url(#radialffffff666666)"/>
<circle cx="280.605405" cy="181.552199" r="5.636364" opacity="0.698654" style="stroke:black;stroke-width:0.5;fill:url(#radialffffffbfbfbf)"/>
<circle cx="195.983229" cy="111.312034" r="14.331986" opacity="0.720133" style="stroke:black;stroke-width:0.5;fill:url(#radialffffff666666)"/>
<circle cx="277.147971" cy="40.673187" r="6.130040" opacity="0.737424" style="stroke:black;stroke-width:0.5;fill:url(#radialffffffbfbfbf)"/>
<circle cx="40.000000" cy="112.825070" r="6.620380" opacity="0.766350" style="stroke:black;stroke-width:0.5;fill:url(#radialffffffbfbfbf)"/>
<circle cx="279.517196" cy="111.452554" r="16.463554" opacity="0.771829" style="stroke:black;stroke-width:0.5;fill:url(#radialffffff666666)"/>
<circle cx="152.415635" cy="112.279332" r="20.250670" opacity="0.856011" style="stroke:black;stroke-width:0.5;fill:url(#radialffffff666666)"/>
<circle cx="70.587510" cy="113.566883" r="20.668257" opacity="0.864792" style="stroke:black;stroke-width:0.5;fill:url(#radialffffff666666)"/>
<circle cx="234.714337" cy="114.579931" r="21.878950" opacity="0.889760" style="stroke:black;stroke-width:0.5;fill:url(#radialffffff666666)"/>
<circle cx="304.778034" cy="112.295671" r="9.188069" opacity="0.902813" style="stroke:black;stroke-width:0.5;fill:url(#radialffffffbfbfbf)"/>
<circle cx="151.664019" cy="141.860329" r="10.237389" opacity="0.952972" style="stroke:black;stroke-width:0.5;fill:url(#radialffffffbfbfbf)"/>
<circle cx="70.786852" cy="143.709959" r="10.310797" opacity="0.956383" style="stroke:black;stroke-width:0.5;fill:url(#radialffffffbfbfbf)"/>
<circle cx="151.637875" cy="84.541427" r="10.474773" opacity="0.963957" style="stroke:black;stroke-width:0.5;fill:url(#radialffffffbfbfbf)"/>
<circle cx="70.080986" cy="85.956426" r="10.647648" opacity="0.971879" style="stroke:black;stroke-width:0.5;fill:url(#radialffffffbfbfbf)"/>
<circle cx="232.720920" cy="145.334103" r="10.706755" opacity="0.974573" style="stroke:black;stroke-width:0.5;fill:url(#radialffffffbfbfbf)"/>
<circle cx="232.338576" cy="88.168792" r="11.272727" opacity="1.000000" style="stroke:black;stroke-width:0.5;fill:url(#radialffffffbfbfbf)"/>
</svg>
</g>
</svg>
