<?xml version="1.0"?>
<svg version="1.1" id="topsvg"
xmlns="http://www.w3.org/2000/svg" xmlns:xlink="http://www.w3.org/1999/xlink"
xmlns:cml="http://www.xml-cml.org/schema" x="0" y="0" width="1024px" height="1024px" viewBox="0 0 100 100">
<title>519754 - Open Babel Depiction</title>
<rect x="0" y="0" width="100" height="100" fill="white"/>
<defs>
<radialGradient id='radialffffff666666' cx='50%' cy='50%' r='50%' fx='30%' fy='30%'>
  <stop offset=' 0%' stop-color="rgb(255,255,255)"  stop-opacity='1.0'/>
  <stop offset='100%' stop-color="rgb(102,102,102)"  stop-opacity ='1.0'/>
</radialGradient>
<radialGradient id='radialffffffbfbfbf' cx='50%' cy='50%' r='50%' fx='30%' fy='30%'>
  <stop offset=' 0%' stop-color="rgb(255,255,255)"  stop-opacity='1.0'/>
  <stop offset='100%' stop-color="rgb(191,191,191)"  stop-opacity ='1.0'/>
</radialGradient>
</defs>
<g transform="translate(0,0)">
<svg width="100" height="100" x="0" y="0" viewBox="0 0 405.722 253.967"
font-family="sans-serif" stroke="rgb(0,0,0)" stroke-width="2"  stroke-linecap="round">
<line x1="127.2" y1="132.4" x2="173.1" y2="123.2" opacity="1.0" stroke="rgb(0,0,0)"  stroke-width="2.1"/>
<line x1="127.2" y1="132.4" x2="103.0" y2="140.8" opacity="0.7" stroke="rgb(0,0,0)"  stroke-width="1.5"/>
<line x1="127.2" y1="132.4" x2="124.1" y2="159.9" opacity="0.5" stroke="rgb(0,0,0)"  stroke-width="2.6"/>
<line x1="127.2" y1="132.4" x2="112.5" y2="105.8" opacity="0.9" stroke="rgb(0,0,0)"  stroke-width="2.6"/>
<line x1="103.0" y1="140.8" x2="56.4" y2="151.2" opacity="0.9" stroke="rgb(0,0,0)"  stroke-width="0.9"/>
<line x1="103.0" y1="140.8" x2="105.0" y2="112.8" opacity="0.3" stroke="rgb(0,0,0)"  stroke-width="0.4"/>
<line x1="103.0" y1="140.8" x2="117.7" y2="167.2" opacity="0.1" stroke="rgb(0,0,0)"  stroke-width="0.5"/>
<line x1="202.6" y1="156.3" x2="191.8" y2="188.8" opacity="0.2" stroke="rgb(0,0,0)"  stroke-width="2.0"/>
<line x1="186.5" y1="81.5" x2="163.9" y2="55.4" opacity="0.7" stroke="rgb(0,0,0)"  stroke-width="1.8"/>
<line x1="229.4" y1="72.8" x2="239.2" y2="40.0" opacity="0.6" stroke="rgb(0,0,0)"  stroke-width="1.4"/>
<line x1="276.0" y1="181.1" x2="266.2" y2="214.0" opacity="0.5" stroke="rgb(0,0,0)"  stroke-width="1.8"/>
<line x1="56.4" y1="151.2" x2="53.3" y2="179.7" opacity="0.6" stroke="rgb(0,0,0)"  stroke-width="1.4"/>
<line x1="56.4" y1="151.2" x2="40.4" y2="124.9" opacity="0.5" stroke="rgb(0,0,0)"  stroke-width="1.4"/>
<line x1="56.4" y1="151.2" x2="40.0" y2="156.9" opacity="0.5" stroke="rgb(0,0,0)"  stroke-width="0.5"/>
<line x1="302.9" y1="97.6" x2="314.1" y2="65.3" opacity="0.2" stroke="rgb(0,0,0)"  stroke-width="1.1"/>
<line x1="318.9" y1="172.5" x2="341.8" y2="198.3" opacity="0.4" stroke="rgb(0,0,0)"  stroke-width="1.4"/>
<line x1="332.3" y1="130.8" x2="365.7" y2="124.1" opacity="0.5" stroke="rgb(0,0,0)"  stroke-width="1.1"/>
<line x1="204.8" y1="154.3" x2="175.4" y2="121.2" opacity="0.7" stroke="rgb(0,0,0)"  stroke-width="2.0"/>
<line x1="200.3" y1="158.3" x2="170.9" y2="125.2" opacity="0.7" stroke="rgb(0,0,0)"  stroke-width="2.0" stroke-dasharray="5.0,5.0"/>
<line x1="176.0" y1="124.1" x2="189.4" y2="82.4" opacity="0.6" stroke="rgb(0,0,0)"  stroke-width="1.9"/>
<line x1="170.3" y1="122.3" x2="183.7" y2="80.6" opacity="0.6" stroke="rgb(0,0,0)"  stroke-width="1.9" stroke-dasharray="5.0,5.0"/>
<line x1="187.1" y1="84.4" x2="230.0" y2="75.8" opacity="0.5" stroke="rgb(0,0,0)"  stroke-width="1.6"/>
<line x1="185.9" y1="78.6" x2="228.8" y2="69.9" opacity="0.5" stroke="rgb(0,0,0)"  stroke-width="1.6" stroke-dasharray="5.0,5.0"/>
<line x1="227.2" y1="74.8" x2="257.3" y2="107.8" opacity="0.5" stroke="rgb(0,0,0)"  stroke-width="1.5"/>
<line x1="231.7" y1="70.8" x2="261.7" y2="103.8" opacity="0.5" stroke="rgb(0,0,0)"  stroke-width="1.5" stroke-dasharray="5.0,5.0"/>
<line x1="256.7" y1="104.9" x2="243.0" y2="147.2" opacity="0.5" stroke="rgb(0,0,0)"  stroke-width="1.6"/>
<line x1="262.4" y1="106.7" x2="248.7" y2="149.1" opacity="0.5" stroke="rgb(0,0,0)"  stroke-width="1.6" stroke-dasharray="5.0,5.0"/>
<line x1="245.3" y1="145.2" x2="202.0" y2="153.4" opacity="0.6" stroke="rgb(0,0,0)"  stroke-width="1.8"/>
<line x1="246.4" y1="151.1" x2="203.1" y2="159.3" opacity="0.6" stroke="rgb(0,0,0)"  stroke-width="1.8" stroke-dasharray="5.0,5.0"/>
<line x1="243.7" y1="150.2" x2="273.8" y2="183.2" opacity="0.6" stroke="rgb(0,0,0)"  stroke-width="1.7"/>
<line x1="248.1" y1="146.1" x2="278.2" y2="179.1" opacity="0.6" stroke="rgb(0,0,0)"  stroke-width="1.7" stroke-dasharray="5.0,5.0"/>
<line x1="276.6" y1="184.1" x2="319.5" y2="175.4" opacity="0.5" stroke="rgb(0,0,0)"  stroke-width="1.6"/>
<line x1="275.4" y1="178.2" x2="318.3" y2="169.5" opacity="0.5" stroke="rgb(0,0,0)"  stroke-width="1.6" stroke-dasharray="5.0,5.0"/>
<line x1="321.8" y1="173.4" x2="335.2" y2="131.7" opacity="0.4" stroke="rgb(0,0,0)"  stroke-width="1.3"/>
<line x1="316.0" y1="171.6" x2="329.4" y2="129.9" opacity="0.4" stroke="rgb(0,0,0)"  stroke-width="1.3" stroke-dasharray="5.0,5.0"/>
<line x1="334.5" y1="128.8" x2="305.1" y2="95.6" opacity="0.4" stroke="rgb(0,0,0)"  stroke-width="1.2"/>
<line x1="330.1" y1="132.8" x2="300.6" y2="99.6" opacity="0.4" stroke="rgb(0,0,0)"  stroke-width="1.2" stroke-dasharray="5.0,5.0"/>
<line x1="302.3" y1="94.7" x2="259.0" y2="102.8" opacity="0.5" stroke="rgb(0,0,0)"  stroke-width="1.4"/>
<line x1="303.4" y1="100.6" x2="260.1" y2="108.7" opacity="0.5" stroke="rgb(0,0,0)"  stroke-width="1.4" stroke-dasharray="5.0,5.0"/>
<line x1="256.7" y1="104.9" x2="243.0" y2="147.2" opacity="0.5" stroke="rgb(0,0,0)"  stroke-width="1.6"/>
<line x1="262.4" y1="106.7" x2="248.7" y2="149.1" opacity="0.5" stroke="rgb(0,0,0)"  stroke-width="1.6" stroke-dasharray="5.0,5.0"/>
<circle cx="40.000000" cy="156.936292" r="5.636364" opacity="0.200000" style="stroke:black;stroke-width:0.5;fill:url(#radialffffffbfbfbf)"/>
<circle cx="104.969552" cy="112.822106" r="5.636364" opacity="0.200000" style="stroke:black;stroke-width:0.5;fill:url(#radialffffffbfbfbf)"/>
<circle cx="117.686239" cy="167.214554" r="5.636364" opacity="0.237743" style="stroke:black;stroke-width:0.5;fill:url(#radialffffffbfbfbf)"/>
<circle cx="102.960316" cy="140.751129" r="13.818182" opacity="0.510240" style="stroke:black;stroke-width:0.5;fill:url(#radialffffff666666)"/>
<circle cx="365.722033" cy="124.060478" r="5.636364" opacity="0.579672" style="stroke:black;stroke-width:0.5;fill:url(#radialffffffbfbfbf)"/>
<circle cx="314.050956" cy="65.306206" r="5.636364" opacity="0.590593" style="stroke:black;stroke-width:0.5;fill:url(#radialffffffbfbfbf)"/>
<circle cx="56.449034" cy="151.185170" r="13.818182" opacity="0.595838" style="stroke:black;stroke-width:0.5;fill:url(#radialffffff666666)"/>
<circle cx="332.305759" cy="130.797143" r="13.818182" opacity="0.633255" style="stroke:black;stroke-width:0.5;fill:url(#radialffffff666666)"/>
<circle cx="302.853913" cy="97.638382" r="13.818182" opacity="0.639293" style="stroke:black;stroke-width:0.5;fill:url(#radialffffff666666)"/>
<circle cx="239.197359" cy="40.000000" r="5.636364" opacity="0.665604" style="stroke:black;stroke-width:0.5;fill:url(#radialffffffbfbfbf)"/>
<circle cx="341.846453" cy="198.265524" r="5.636364" opacity="0.685768" style="stroke:black;stroke-width:0.5;fill:url(#radialffffffbfbfbf)"/>
<circle cx="318.899192" cy="172.469725" r="13.818182" opacity="0.690208" style="stroke:black;stroke-width:0.5;fill:url(#radialffffff666666)"/>
<circle cx="259.531341" cy="105.792958" r="13.818182" opacity="0.701599" style="stroke:black;stroke-width:0.5;fill:url(#radialffffff666666)"/>
<circle cx="229.437302" cy="72.815410" r="13.854436" opacity="0.708034" style="stroke:black;stroke-width:0.5;fill:url(#radialffffff666666)"/>
<circle cx="40.429188" cy="124.899779" r="6.159438" opacity="0.739190" style="stroke:black;stroke-width:0.5;fill:url(#radialffffffbfbfbf)"/>
<circle cx="275.980375" cy="181.148863" r="15.473463" opacity="0.748261" style="stroke:black;stroke-width:0.5;fill:url(#radialffffff666666)"/>
<circle cx="245.892694" cy="148.168137" r="15.728281" opacity="0.754397" style="stroke:black;stroke-width:0.5;fill:url(#radialffffff666666)"/>
<circle cx="186.521664" cy="81.504086" r="16.167480" opacity="0.764858" style="stroke:black;stroke-width:0.5;fill:url(#radialffffff666666)"/>
<circle cx="53.311192" cy="179.724594" r="6.615333" opacity="0.766057" style="stroke:black;stroke-width:0.5;fill:url(#radialffffffbfbfbf)"/>
<circle cx="163.870065" cy="55.412624" r="6.645332" opacity="0.767792" style="stroke:black;stroke-width:0.5;fill:url(#radialffffffbfbfbf)"/>
<circle cx="266.220318" cy="213.967452" r="6.965599" opacity="0.786076" style="stroke:black;stroke-width:0.5;fill:url(#radialffffffbfbfbf)"/>
<circle cx="202.573301" cy="156.325891" r="18.037181" opacity="0.807874" style="stroke:black;stroke-width:0.5;fill:url(#radialffffff666666)"/>
<circle cx="173.111917" cy="123.176668" r="18.254709" opacity="0.812731" style="stroke:black;stroke-width:0.5;fill:url(#radialffffff666666)"/>
<circle cx="191.776834" cy="188.836100" r="8.018509" opacity="0.843397" style="stroke:black;stroke-width:0.5;fill:url(#radialffffffbfbfbf)"/>
<circle cx="127.214216" cy="132.393087" r="20.720022" opacity="0.865874" style="stroke:black;stroke-width:0.5;fill:url(#radialffffff666666)"/>
<circle cx="112.491472" cy="105.767524" r="10.724301" opacity="0.975371" style="stroke:black;stroke-width:0.5;fill:url(#radialffffffbfbfbf)"/>
<circle cx="124.117703" cy="159.927893" r="11.272727" opacity="1.000000" style="stroke:black;stroke-width:0.5;fill:url(#radialffffffbfbfbf)"/>
</svg>
</g>
</svg>
