<?xml version="1.0"?>
<svg version="1.1" id="topsvg"
xmlns="http://www.w3.org/2000/svg" xmlns:xlink="http://www.w3.org/1999/xlink"
xmlns:cml="http://www.xml-cml.org/schema" x="0" y="0" width="1024px" height="1024px" viewBox="0 0 100 100">
<title>520397 - Open Babel Depiction</title>
<rect x="0" y="0" width="100" height="100" fill="white"/>
<defs>
<radialGradient id='radialffffff666666' cx='50%' cy='50%' r='50%' fx='30%' fy='30%'>
  <stop offset=' 0%' stop-color="rgb(255,255,255)"  stop-opacity='1.0'/>
  <stop offset='100%' stop-color="rgb(102,102,102)"  stop-opacity ='1.0'/>
</radialGradient>
<radialGradient id='radialffffffbfbfbf' cx='50%' cy='50%' r='50%' fx='30%' fy='30%'>
  <stop offset=' 0%' stop-color="rgb(255,255,255)"  stop-opacity='1.0'/>
  <stop offset='100%' stop-color="rgb(191,191,191)"  stop-opacity ='1.0'/>
</radialGradient>
</defs>
<g transform="translate(0,0)">
<svg width="100" height="100" x="0" y="0" viewBox="0 0 442.871 243.225"
font-family="sans-serif" stroke="rgb(0,0,0)" stroke-width="2"  stroke-linecap="round">
<line x1="125.2" y1="106.5" x2="170.4" y2="95.0" opacity="1.0" stroke="rgb(0,0,0)"  stroke-width="1.6"/>
<line x1="125.2" y1="106.5" x2="111.3" y2="154.8" opacity="0.5" stroke="rgb(0,0,0)"  stroke-width="1.7"/>
<line x1="125.2" y1="106.5" x2="91.6" y2="73.5" opacity="0.6" stroke="rgb(0,0,0)"  stroke-width="1.6"/>
<polygon points="125.165490 106.480025 123.636883 99.827210 131.004621 102.944330 " stroke-width="1.620371" fill="rgb(0,0,0)"  stroke="rgb(0,0,0)" />
<line x1="170.4" y1="95.0" x2="208.9" y2="123.0" opacity="0.5" stroke="rgb(0,0,0)"  stroke-width="1.6"/>
<line x1="170.4" y1="95.0" x2="169.0" y2="96.2" opacity="0.5" stroke="rgb(0,0,0)"  stroke-width="0.9"/>
<line x1="170.4" y1="95.0" x2="177.7" y2="60.9" opacity="0.3" stroke="rgb(0,0,0)"  stroke-width="1.5"/>
<line x1="111.3" y1="154.8" x2="66.8" y2="164.8" opacity="0.5" stroke="rgb(0,0,0)"  stroke-width="1.9"/>
<line x1="111.3" y1="154.8" x2="111.0" y2="168.8" opacity="0.6" stroke="rgb(0,0,0)"  stroke-width="1.1"/>
<line x1="111.3" y1="154.8" x2="135.1" y2="175.5" opacity="0.4" stroke="rgb(0,0,0)"  stroke-width="1.9"/>
<line x1="208.9" y1="123.0" x2="253.1" y2="107.9" opacity="0.6" stroke="rgb(0,0,0)"  stroke-width="1.5"/>
<line x1="208.9" y1="123.0" x2="203.8" y2="157.0" opacity="0.5" stroke="rgb(0,0,0)"  stroke-width="1.6"/>
<line x1="208.9" y1="123.0" x2="209.9" y2="122.4" opacity="0.5" stroke="rgb(0,0,0)"  stroke-width="2.2"/>
<line x1="253.1" y1="107.9" x2="290.2" y2="136.9" opacity="0.7" stroke="rgb(0,0,0)"  stroke-width="1.5"/>
<line x1="253.1" y1="107.9" x2="252.3" y2="108.6" opacity="0.5" stroke="rgb(0,0,0)"  stroke-width="0.9"/>
<line x1="253.1" y1="107.9" x2="258.9" y2="74.0" opacity="0.3" stroke="rgb(0,0,0)"  stroke-width="1.4"/>
<line x1="91.6" y1="73.5" x2="102.4" y2="40.0" opacity="0.5" stroke="rgb(0,0,0)"  stroke-width="1.5"/>
<line x1="91.6" y1="73.5" x2="87.0" y2="76.6" opacity="0.5" stroke="rgb(0,0,0)"  stroke-width="1.0"/>
<line x1="91.6" y1="73.5" x2="59.9" y2="77.4" opacity="0.3" stroke="rgb(0,0,0)"  stroke-width="1.6"/>
<line x1="290.2" y1="136.9" x2="334.5" y2="121.3" opacity="0.5" stroke="rgb(0,0,0)"  stroke-width="1.5"/>
<line x1="290.2" y1="136.9" x2="284.6" y2="170.7" opacity="0.5" stroke="rgb(0,0,0)"  stroke-width="1.6"/>
<line x1="290.2" y1="136.9" x2="290.4" y2="136.6" opacity="0.5" stroke="rgb(0,0,0)"  stroke-width="2.2"/>
<line x1="66.8" y1="164.8" x2="40.0" y2="149.2" opacity="0.7" stroke="rgb(0,0,0)"  stroke-width="1.9"/>
<line x1="66.8" y1="164.8" x2="60.6" y2="200.0" opacity="0.6" stroke="rgb(0,0,0)"  stroke-width="2.2"/>
<line x1="66.8" y1="164.8" x2="65.7" y2="153.9" opacity="0.7" stroke="rgb(0,0,0)"  stroke-width="2.6"/>
<line x1="111.0" y1="168.8" x2="87.7" y2="149.7" opacity="0.9" stroke="rgb(0,0,0)"  stroke-width="0.4"/>
<line x1="111.0" y1="168.8" x2="143.3" y2="165.4" opacity="0.1" stroke="rgb(0,0,0)"  stroke-width="0.4"/>
<line x1="111.0" y1="168.8" x2="101.7" y2="203.2" opacity="0.1" stroke="rgb(0,0,0)"  stroke-width="0.4"/>
<line x1="334.5" y1="121.3" x2="371.5" y2="149.3" opacity="0.1" stroke="rgb(0,0,0)"  stroke-width="1.5"/>
<line x1="334.5" y1="121.3" x2="334.7" y2="122.3" opacity="0.5" stroke="rgb(0,0,0)"  stroke-width="0.9"/>
<line x1="334.5" y1="121.3" x2="340.0" y2="87.3" opacity="0.3" stroke="rgb(0,0,0)"  stroke-width="1.4"/>
<line x1="371.5" y1="149.3" x2="367.6" y2="183.4" opacity="0.5" stroke="rgb(0,0,0)"  stroke-width="1.6"/>
<line x1="371.5" y1="149.3" x2="372.8" y2="148.2" opacity="0.5" stroke="rgb(0,0,0)"  stroke-width="2.2"/>
<line x1="371.5" y1="149.3" x2="402.9" y2="137.7" opacity="0.7" stroke="rgb(0,0,0)"  stroke-width="1.6"/>
<circle cx="87.735780" cy="149.696287" r="5.636364" opacity="0.200000" style="stroke:black;stroke-width:0.5;fill:url(#radialffffffbfbfbf)"/>
<circle cx="143.289282" cy="165.439493" r="5.636364" opacity="0.200000" style="stroke:black;stroke-width:0.5;fill:url(#radialffffffbfbfbf)"/>
<circle cx="101.686201" cy="203.225149" r="5.636364" opacity="0.365981" style="stroke:black;stroke-width:0.5;fill:url(#radialffffffbfbfbf)"/>
<circle cx="334.722233" cy="122.285277" r="5.636364" opacity="0.370059" style="stroke:black;stroke-width:0.5;fill:url(#radialffffffbfbfbf)"/>
<circle cx="252.322662" cy="108.648349" r="5.636364" opacity="0.373948" style="stroke:black;stroke-width:0.5;fill:url(#radialffffffbfbfbf)"/>
<circle cx="111.025668" cy="168.803008" r="13.818182" opacity="0.397193" style="stroke:black;stroke-width:0.5;fill:url(#radialffffff666666)"/>
<circle cx="168.985878" cy="96.154363" r="5.636364" opacity="0.399379" style="stroke:black;stroke-width:0.5;fill:url(#radialffffffbfbfbf)"/>
<circle cx="87.014094" cy="76.632917" r="5.636364" opacity="0.423317" style="stroke:black;stroke-width:0.5;fill:url(#radialffffffbfbfbf)"/>
<circle cx="334.454459" cy="121.308878" r="13.818182" opacity="0.656143" style="stroke:black;stroke-width:0.5;fill:url(#radialffffff666666)"/>
<circle cx="253.067207" cy="107.907070" r="13.818182" opacity="0.658446" style="stroke:black;stroke-width:0.5;fill:url(#radialffffff666666)"/>
<circle cx="170.432516" cy="95.027748" r="13.818182" opacity="0.673135" style="stroke:black;stroke-width:0.5;fill:url(#radialffffff666666)"/>
<circle cx="91.605454" cy="73.494725" r="13.818182" opacity="0.684718" style="stroke:black;stroke-width:0.5;fill:url(#radialffffff666666)"/>
<circle cx="402.870954" cy="137.666008" r="5.636364" opacity="0.685363" style="stroke:black;stroke-width:0.5;fill:url(#radialffffffbfbfbf)"/>
<circle cx="284.605869" cy="170.742743" r="5.636364" opacity="0.697300" style="stroke:black;stroke-width:0.5;fill:url(#radialffffffbfbfbf)"/>
<circle cx="367.583442" cy="183.445725" r="5.636364" opacity="0.701132" style="stroke:black;stroke-width:0.5;fill:url(#radialffffffbfbfbf)"/>
<circle cx="203.763964" cy="157.020911" r="5.651768" opacity="0.708072" style="stroke:black;stroke-width:0.5;fill:url(#radialffffffbfbfbf)"/>
<circle cx="339.956907" cy="87.294931" r="5.752045" opacity="0.714326" style="stroke:black;stroke-width:0.5;fill:url(#radialffffffbfbfbf)"/>
<circle cx="258.948459" cy="73.958433" r="5.790706" opacity="0.716723" style="stroke:black;stroke-width:0.5;fill:url(#radialffffffbfbfbf)"/>
<circle cx="177.714688" cy="60.883179" r="5.873163" opacity="0.721808" style="stroke:black;stroke-width:0.5;fill:url(#radialffffffbfbfbf)"/>
<circle cx="102.371966" cy="40.000000" r="5.890983" opacity="0.722902" style="stroke:black;stroke-width:0.5;fill:url(#radialffffffbfbfbf)"/>
<circle cx="111.313036" cy="154.803604" r="15.242874" opacity="0.742665" style="stroke:black;stroke-width:0.5;fill:url(#radialffffff666666)"/>
<circle cx="290.206284" cy="136.885542" r="15.763435" opacity="0.755240" style="stroke:black;stroke-width:0.5;fill:url(#radialffffff666666)"/>
<circle cx="371.541287" cy="149.346873" r="15.844888" opacity="0.757189" style="stroke:black;stroke-width:0.5;fill:url(#radialffffff666666)"/>
<circle cx="40.000000" cy="149.160737" r="6.481773" opacity="0.758285" style="stroke:black;stroke-width:0.5;fill:url(#radialffffffbfbfbf)"/>
<circle cx="208.943123" cy="122.967777" r="16.055186" opacity="0.762197" style="stroke:black;stroke-width:0.5;fill:url(#radialffffff666666)"/>
<circle cx="59.854532" cy="77.400321" r="6.754817" opacity="0.774091" style="stroke:black;stroke-width:0.5;fill:url(#radialffffffbfbfbf)"/>
<circle cx="125.165490" cy="106.480025" r="16.897116" opacity="0.781926" style="stroke:black;stroke-width:0.5;fill:url(#radialffffff666666)"/>
<circle cx="135.102553" cy="175.533302" r="7.789303" opacity="0.831256" style="stroke:black;stroke-width:0.5;fill:url(#radialffffffbfbfbf)"/>
<circle cx="60.592545" cy="200.034708" r="8.102518" opacity="0.847804" style="stroke:black;stroke-width:0.5;fill:url(#radialffffffbfbfbf)"/>
<circle cx="66.787290" cy="164.796180" r="19.919034" opacity="0.848973" style="stroke:black;stroke-width:0.5;fill:url(#radialffffff666666)"/>
<circle cx="290.425076" cy="136.614502" r="9.742896" opacity="0.929672" style="stroke:black;stroke-width:0.5;fill:url(#radialffffffbfbfbf)"/>
<circle cx="372.840975" cy="148.161479" r="9.765549" opacity="0.930752" style="stroke:black;stroke-width:0.5;fill:url(#radialffffffbfbfbf)"/>
<circle cx="209.926053" cy="122.383244" r="9.860389" opacity="0.935260" style="stroke:black;stroke-width:0.5;fill:url(#radialffffffbfbfbf)"/>
<circle cx="127.320752" cy="101.385770" r="10.172094" opacity="0.949928" style="stroke:black;stroke-width:0.5;fill:url(#radialffffffbfbfbf)"/>
<circle cx="65.722721" cy="153.885985" r="11.272727" opacity="1.000000" style="stroke:black;stroke-width:0.5;fill:url(#radialffffffbfbfbf)"/>
</svg>
</g>
</svg>
