<?xml version="1.0"?>
<svg version="1.1" id="topsvg"
xmlns="http://www.w3.org/2000/svg" xmlns:xlink="http://www.w3.org/1999/xlink"
xmlns:cml="http://www.xml-cml.org/schema" x="0" y="0" width="1024px" height="1024px" viewBox="0 0 100 100">
<title>520991 - Open Babel Depiction</title>
<rect x="0" y="0" width="100" height="100" fill="white"/>
<defs>
<radialGradient id='radialffffff666666' cx='50%' cy='50%' r='50%' fx='30%' fy='30%'>
  <stop offset=' 0%' stop-color="rgb(255,255,255)"  stop-opacity='1.0'/>
  <stop offset='100%' stop-color="rgb(102,102,102)"  stop-opacity ='1.0'/>
</radialGradient>
<radialGradient id='radialffffffbfbfbf' cx='50%' cy='50%' r='50%' fx='30%' fy='30%'>
  <stop offset=' 0%' stop-color="rgb(255,255,255)"  stop-opacity='1.0'/>
  <stop offset='100%' stop-color="rgb(191,191,191)"  stop-opacity ='1.0'/>
</radialGradient>
</defs>
<g transform="translate(0,0)">
<svg width="100" height="100" x="0" y="0" viewBox="0 0 343.34 257.97"
font-family="sans-serif" stroke="rgb(0,0,0)" stroke-width="2"  stroke-linecap="round">
<line x1="236.3" y1="150.0" x2="191.4" y2="144.1" opacity="1.0" stroke="rgb(0,0,0)"  stroke-width="1.2"/>
<line x1="236.3" y1="150.0" x2="251.3" y2="108.5" opacity="0.4" stroke="rgb(0,0,0)"  stroke-width="1.8"/>
<line x1="236.3" y1="150.0" x2="234.1" y2="188.3" opacity="0.6" stroke="rgb(0,0,0)"  stroke-width="1.9"/>
<line x1="236.3" y1="150.0" x2="270.5" y2="162.1" opacity="0.6" stroke="rgb(0,0,0)"  stroke-width="1.1"/>
<line x1="191.4" y1="144.1" x2="152.1" y2="136.6" opacity="0.4" stroke="rgb(0,0,0)"  stroke-width="1.3"/>
<line x1="191.4" y1="144.1" x2="193.3" y2="117.3" opacity="0.4" stroke="rgb(0,0,0)"  stroke-width="0.6"/>
<line x1="191.4" y1="144.1" x2="184.8" y2="173.7" opacity="0.2" stroke="rgb(0,0,0)"  stroke-width="0.7"/>
<line x1="251.3" y1="108.5" x2="255.5" y2="66.9" opacity="0.2" stroke="rgb(0,0,0)"  stroke-width="1.8"/>
<line x1="251.3" y1="108.5" x2="283.2" y2="115.0" opacity="0.6" stroke="rgb(0,0,0)"  stroke-width="2.3"/>
<line x1="251.3" y1="108.5" x2="228.7" y2="102.0" opacity="0.8" stroke="rgb(0,0,0)"  stroke-width="2.5"/>
<line x1="152.1" y1="136.6" x2="109.4" y2="134.1" opacity="0.8" stroke="rgb(0,0,0)"  stroke-width="1.4"/>
<line x1="152.1" y1="136.6" x2="156.5" y2="106.2" opacity="0.5" stroke="rgb(0,0,0)"  stroke-width="1.9"/>
<line x1="152.1" y1="136.6" x2="149.3" y2="163.3" opacity="0.6" stroke="rgb(0,0,0)"  stroke-width="2.0"/>
<line x1="234.1" y1="188.3" x2="213.4" y2="180.6" opacity="0.7" stroke="rgb(0,0,0)"  stroke-width="2.7"/>
<line x1="234.1" y1="188.3" x2="266.7" y2="196.2" opacity="0.9" stroke="rgb(0,0,0)"  stroke-width="2.5"/>
<line x1="234.1" y1="188.3" x2="221.1" y2="218.0" opacity="0.8" stroke="rgb(0,0,0)"  stroke-width="2.1"/>
<line x1="270.5" y1="162.1" x2="262.7" y2="193.6" opacity="0.7" stroke="rgb(0,0,0)"  stroke-width="0.5"/>
<line x1="270.5" y1="162.1" x2="303.3" y2="164.8" opacity="0.2" stroke="rgb(0,0,0)"  stroke-width="0.8"/>
<line x1="270.5" y1="162.1" x2="271.7" y2="137.7" opacity="0.3" stroke="rgb(0,0,0)"  stroke-width="0.4"/>
<line x1="109.4" y1="134.1" x2="70.1" y2="127.9" opacity="0.1" stroke="rgb(0,0,0)"  stroke-width="1.4"/>
<line x1="109.4" y1="134.1" x2="105.0" y2="164.1" opacity="0.5" stroke="rgb(0,0,0)"  stroke-width="0.8"/>
<line x1="109.4" y1="134.1" x2="111.1" y2="106.8" opacity="0.3" stroke="rgb(0,0,0)"  stroke-width="0.8"/>
<line x1="255.5" y1="66.9" x2="224.1" y2="57.1" opacity="0.3" stroke="rgb(0,0,0)"  stroke-width="1.3"/>
<line x1="255.5" y1="66.9" x2="266.8" y2="40.0" opacity="0.4" stroke="rgb(0,0,0)"  stroke-width="1.7"/>
<line x1="255.5" y1="66.9" x2="279.3" y2="70.7" opacity="0.6" stroke="rgb(0,0,0)"  stroke-width="1.1"/>
<line x1="70.1" y1="127.9" x2="72.9" y2="97.6" opacity="0.4" stroke="rgb(0,0,0)"  stroke-width="2.0"/>
<line x1="70.1" y1="127.9" x2="40.0" y2="126.1" opacity="0.7" stroke="rgb(0,0,0)"  stroke-width="1.5"/>
<line x1="70.1" y1="127.9" x2="66.9" y2="155.2" opacity="0.5" stroke="rgb(0,0,0)"  stroke-width="2.0"/>
<circle cx="271.744728" cy="137.663896" r="5.636364" opacity="0.200000" style="stroke:black;stroke-width:0.5;fill:url(#radialffffffbfbfbf)"/>
<circle cx="262.691228" cy="193.605101" r="5.636364" opacity="0.299080" style="stroke:black;stroke-width:0.5;fill:url(#radialffffffbfbfbf)"/>
<circle cx="193.267968" cy="117.301704" r="5.636364" opacity="0.343693" style="stroke:black;stroke-width:0.5;fill:url(#radialffffffbfbfbf)"/>
<circle cx="184.767628" cy="173.684782" r="5.636364" opacity="0.392348" style="stroke:black;stroke-width:0.5;fill:url(#radialffffffbfbfbf)"/>
<circle cx="111.056556" cy="106.834208" r="5.636364" opacity="0.394792" style="stroke:black;stroke-width:0.5;fill:url(#radialffffffbfbfbf)"/>
<circle cx="105.037255" cy="164.146857" r="5.636364" opacity="0.436183" style="stroke:black;stroke-width:0.5;fill:url(#radialffffffbfbfbf)"/>
<circle cx="270.491116" cy="162.078234" r="13.818182" opacity="0.462559" style="stroke:black;stroke-width:0.5;fill:url(#radialffffff666666)"/>
<circle cx="279.256580" cy="70.656212" r="5.636364" opacity="0.519079" style="stroke:black;stroke-width:0.5;fill:url(#radialffffffbfbfbf)"/>
<circle cx="191.392459" cy="144.121798" r="13.818182" opacity="0.558918" style="stroke:black;stroke-width:0.5;fill:url(#radialffffff666666)"/>
<circle cx="303.340331" cy="164.752388" r="5.636364" opacity="0.574016" style="stroke:black;stroke-width:0.5;fill:url(#radialffffffbfbfbf)"/>
<circle cx="109.446172" cy="134.076537" r="13.818182" opacity="0.588272" style="stroke:black;stroke-width:0.5;fill:url(#radialffffff666666)"/>
<circle cx="224.084563" cy="57.059596" r="5.636364" opacity="0.609513" style="stroke:black;stroke-width:0.5;fill:url(#radialffffffbfbfbf)"/>
<circle cx="40.000000" cy="126.080261" r="5.636364" opacity="0.656462" style="stroke:black;stroke-width:0.5;fill:url(#radialffffffbfbfbf)"/>
<circle cx="255.509963" cy="66.911742" r="13.818182" opacity="0.697057" style="stroke:black;stroke-width:0.5;fill:url(#radialffffff666666)"/>
<circle cx="236.309734" cy="149.987262" r="13.858065" opacity="0.708127" style="stroke:black;stroke-width:0.5;fill:url(#radialffffff666666)"/>
<circle cx="152.082070" cy="136.570668" r="15.473350" opacity="0.748259" style="stroke:black;stroke-width:0.5;fill:url(#radialffffff666666)"/>
<circle cx="70.067047" cy="127.867394" r="16.285793" opacity="0.767651" style="stroke:black;stroke-width:0.5;fill:url(#radialffffff666666)"/>
<circle cx="221.132193" cy="217.970341" r="7.248432" opacity="0.801877" style="stroke:black;stroke-width:0.5;fill:url(#radialffffffbfbfbf)"/>
<circle cx="266.828475" cy="40.000000" r="7.392436" opacity="0.809803" style="stroke:black;stroke-width:0.5;fill:url(#radialffffffbfbfbf)"/>
<circle cx="251.339985" cy="108.529694" r="19.562155" opacity="0.841333" style="stroke:black;stroke-width:0.5;fill:url(#radialffffff666666)"/>
<circle cx="156.487714" cy="106.169761" r="8.013644" opacity="0.843142" style="stroke:black;stroke-width:0.5;fill:url(#radialffffffbfbfbf)"/>
<circle cx="72.931043" cy="97.561408" r="8.382694" opacity="0.862338" style="stroke:black;stroke-width:0.5;fill:url(#radialffffffbfbfbf)"/>
<circle cx="149.267171" cy="163.286022" r="8.494463" opacity="0.868067" style="stroke:black;stroke-width:0.5;fill:url(#radialffffffbfbfbf)"/>
<circle cx="234.084000" cy="188.328802" r="21.266070" opacity="0.877209" style="stroke:black;stroke-width:0.5;fill:url(#radialffffff666666)"/>
<circle cx="66.882284" cy="155.191551" r="8.755961" opacity="0.881328" style="stroke:black;stroke-width:0.5;fill:url(#radialffffffbfbfbf)"/>
<circle cx="283.213804" cy="114.984322" r="9.388015" opacity="0.912583" style="stroke:black;stroke-width:0.5;fill:url(#radialffffffbfbfbf)"/>
<circle cx="266.687730" cy="196.181061" r="9.850155" opacity="0.934775" style="stroke:black;stroke-width:0.5;fill:url(#radialffffffbfbfbf)"/>
<circle cx="228.660411" cy="101.989964" r="10.470158" opacity="0.963745" style="stroke:black;stroke-width:0.5;fill:url(#radialffffffbfbfbf)"/>
<circle cx="213.404314" cy="180.614015" r="11.272727" opacity="1.000000" style="stroke:black;stroke-width:0.5;fill:url(#radialffffffbfbfbf)"/>
</svg>
</g>
</svg>
