<?xml version="1.0"?>
<svg version="1.1" id="topsvg"
xmlns="http://www.w3.org/2000/svg" xmlns:xlink="http://www.w3.org/1999/xlink"
xmlns:cml="http://www.xml-cml.org/schema" x="0" y="0" width="200px" height="200px" viewBox="0 0 100 100">
<title>521347 - Open Babel Depiction</title>
<rect x="0" y="0" width="100" height="100" fill="white"/>
<defs>
<radialGradient id='radialffffff666666' cx='50%' cy='50%' r='50%' fx='30%' fy='30%'>
  <stop offset=' 0%' stop-color="rgb(255,255,255)"  stop-opacity='1.0'/>
  <stop offset='100%' stop-color="rgb(102,102,102)"  stop-opacity ='1.0'/>
</radialGradient>
<radialGradient id='radialffffffbfbfbf' cx='50%' cy='50%' r='50%' fx='30%' fy='30%'>
  <stop offset=' 0%' stop-color="rgb(255,255,255)"  stop-opacity='1.0'/>
  <stop offset='100%' stop-color="rgb(191,191,191)"  stop-opacity ='1.0'/>
</radialGradient>
</defs>
<g transform="translate(0,0)">
<svg width="100" height="100" x="0" y="0" viewBox="0 0 318.257 234.733"
font-family="sans-serif" stroke="rgb(0,0,0)" stroke-width="4"  stroke-linecap="round">
<line x1="128.9" y1="129.3" x2="167.2" y2="97.7" opacity="1.0" stroke="rgb(0,0,0)"  stroke-width="1.6"/>
<line x1="128.9" y1="129.3" x2="85.5" y2="110.0" opacity="0.5" stroke="rgb(0,0,0)"  stroke-width="1.7"/>
<line x1="128.9" y1="129.3" x2="123.8" y2="134.6" opacity="0.6" stroke="rgb(0,0,0)"  stroke-width="1.0"/>
<line x1="128.9" y1="129.3" x2="134.1" y2="174.8" opacity="0.3" stroke="rgb(0,0,0)"  stroke-width="1.7"/>
<line x1="167.2" y1="97.7" x2="216.0" y2="107.1" opacity="0.6" stroke="rgb(0,0,0)"  stroke-width="1.6"/>
<line x1="167.2" y1="97.7" x2="159.9" y2="66.7" opacity="0.5" stroke="rgb(0,0,0)"  stroke-width="1.6"/>
<line x1="167.2" y1="97.7" x2="164.9" y2="89.7" opacity="0.5" stroke="rgb(0,0,0)"  stroke-width="2.1"/>
<line x1="216.0" y1="107.1" x2="243.8" y2="65.9" opacity="0.7" stroke="rgb(0,0,0)"  stroke-width="1.5"/>
<line x1="216.0" y1="107.1" x2="234.9" y2="133.6" opacity="0.5" stroke="rgb(0,0,0)"  stroke-width="1.9"/>
<line x1="216.0" y1="107.1" x2="220.9" y2="135.8" opacity="0.6" stroke="rgb(0,0,0)"  stroke-width="1.1"/>
<line x1="85.5" y1="110.0" x2="71.7" y2="65.6" opacity="0.4" stroke="rgb(0,0,0)"  stroke-width="1.7"/>
<line x1="85.5" y1="110.0" x2="58.7" y2="132.9" opacity="0.6" stroke="rgb(0,0,0)"  stroke-width="1.8"/>
<line x1="85.5" y1="110.0" x2="88.1" y2="107.5" opacity="0.6" stroke="rgb(0,0,0)"  stroke-width="2.3"/>
<line x1="123.8" y1="134.6" x2="90.4" y2="144.7" opacity="0.8" stroke="rgb(0,0,0)"  stroke-width="0.4"/>
<line x1="123.8" y1="134.6" x2="129.9" y2="104.0" opacity="0.1" stroke="rgb(0,0,0)"  stroke-width="0.4"/>
<line x1="123.8" y1="134.6" x2="144.6" y2="159.9" opacity="0.1" stroke="rgb(0,0,0)"  stroke-width="0.4"/>
<line x1="134.1" y1="174.8" x2="105.0" y2="194.7" opacity="0.1" stroke="rgb(0,0,0)"  stroke-width="1.9"/>
<line x1="134.1" y1="174.8" x2="161.5" y2="193.1" opacity="0.6" stroke="rgb(0,0,0)"  stroke-width="1.8"/>
<line x1="134.1" y1="174.8" x2="138.9" y2="172.4" opacity="0.6" stroke="rgb(0,0,0)"  stroke-width="2.3"/>
<line x1="243.8" y1="65.9" x2="241.7" y2="45.4" opacity="0.8" stroke="rgb(0,0,0)"  stroke-width="1.7"/>
<line x1="243.8" y1="65.9" x2="232.6" y2="46.4" opacity="0.6" stroke="rgb(0,0,0)"  stroke-width="1.1"/>
<line x1="243.8" y1="65.9" x2="278.3" y2="73.7" opacity="0.4" stroke="rgb(0,0,0)"  stroke-width="1.3"/>
<line x1="234.9" y1="133.6" x2="232.6" y2="115.2" opacity="0.4" stroke="rgb(0,0,0)"  stroke-width="2.7"/>
<line x1="234.9" y1="133.6" x2="269.5" y2="140.9" opacity="0.9" stroke="rgb(0,0,0)"  stroke-width="2.3"/>
<line x1="234.9" y1="133.6" x2="218.4" y2="164.8" opacity="0.8" stroke="rgb(0,0,0)"  stroke-width="2.4"/>
<line x1="220.9" y1="135.8" x2="207.8" y2="168.6" opacity="0.8" stroke="rgb(0,0,0)"  stroke-width="0.7"/>
<line x1="220.9" y1="135.8" x2="206.9" y2="119.9" opacity="0.2" stroke="rgb(0,0,0)"  stroke-width="0.4"/>
<line x1="220.9" y1="135.8" x2="255.7" y2="140.4" opacity="0.1" stroke="rgb(0,0,0)"  stroke-width="0.5"/>
<line x1="71.7" y1="65.6" x2="40.0" y2="56.5" opacity="0.2" stroke="rgb(0,0,0)"  stroke-width="1.7"/>
<line x1="71.7" y1="65.6" x2="94.8" y2="40.0" opacity="0.6" stroke="rgb(0,0,0)"  stroke-width="1.6"/>
<line x1="71.7" y1="65.6" x2="68.3" y2="65.9" opacity="0.5" stroke="rgb(0,0,0)"  stroke-width="1.1"/>
<circle cx="206.891446" cy="119.913508" r="5.636364" opacity="0.200000" style="stroke:black;stroke-width:0.5;fill:url(#radialffffffbfbfbf)"/>
<circle cx="129.870897" cy="103.964726" r="5.636364" opacity="0.200000" style="stroke:black;stroke-width:0.5;fill:url(#radialffffffbfbfbf)"/>
<circle cx="144.639013" cy="159.915924" r="5.636364" opacity="0.200000" style="stroke:black;stroke-width:0.5;fill:url(#radialffffffbfbfbf)"/>
<circle cx="90.429461" cy="144.730335" r="5.636364" opacity="0.284009" style="stroke:black;stroke-width:0.5;fill:url(#radialffffffbfbfbf)"/>
<circle cx="123.771874" cy="134.587040" r="13.818182" opacity="0.373327" style="stroke:black;stroke-width:0.5;fill:url(#radialffffff666666)"/>
<circle cx="255.670584" cy="140.366435" r="5.636364" opacity="0.391287" style="stroke:black;stroke-width:0.5;fill:url(#radialffffffbfbfbf)"/>
<circle cx="220.938768" cy="135.764445" r="13.818182" opacity="0.454643" style="stroke:black;stroke-width:0.5;fill:url(#radialffffff666666)"/>
<circle cx="207.824238" cy="168.588278" r="5.636364" opacity="0.483373" style="stroke:black;stroke-width:0.5;fill:url(#radialffffffbfbfbf)"/>
<circle cx="68.349041" cy="65.896386" r="5.636364" opacity="0.500082" style="stroke:black;stroke-width:0.5;fill:url(#radialffffffbfbfbf)"/>
<circle cx="232.624757" cy="46.353421" r="5.636364" opacity="0.515477" style="stroke:black;stroke-width:0.5;fill:url(#radialffffffbfbfbf)"/>
<circle cx="278.256538" cy="73.704440" r="5.636364" opacity="0.653231" style="stroke:black;stroke-width:0.5;fill:url(#radialffffffbfbfbf)"/>
<circle cx="159.886570" cy="66.747640" r="5.636364" opacity="0.679477" style="stroke:black;stroke-width:0.5;fill:url(#radialffffffbfbfbf)"/>
<circle cx="243.801950" cy="65.886602" r="13.818182" opacity="0.682269" style="stroke:black;stroke-width:0.5;fill:url(#radialffffff666666)"/>
<circle cx="128.876137" cy="129.280564" r="13.818182" opacity="0.705362" style="stroke:black;stroke-width:0.5;fill:url(#radialffffff666666)"/>
<circle cx="215.991058" cy="107.118606" r="13.859703" opacity="0.708168" style="stroke:black;stroke-width:0.5;fill:url(#radialffffff666666)"/>
<circle cx="71.714919" cy="65.599589" r="13.972589" opacity="0.711046" style="stroke:black;stroke-width:0.5;fill:url(#radialffffff666666)"/>
<circle cx="161.481448" cy="193.134399" r="6.166154" opacity="0.739593" style="stroke:black;stroke-width:0.5;fill:url(#radialffffffbfbfbf)"/>
<circle cx="94.809669" cy="40.000000" r="6.438194" opacity="0.755731" style="stroke:black;stroke-width:0.5;fill:url(#radialffffffbfbfbf)"/>
<circle cx="167.172782" cy="97.660228" r="16.062931" opacity="0.762381" style="stroke:black;stroke-width:0.5;fill:url(#radialffffff666666)"/>
<circle cx="58.652573" cy="132.936716" r="6.625288" opacity="0.766634" style="stroke:black;stroke-width:0.5;fill:url(#radialffffffbfbfbf)"/>
<circle cx="40.000000" cy="56.522808" r="6.812117" opacity="0.777368" style="stroke:black;stroke-width:0.5;fill:url(#radialffffffbfbfbf)"/>
<circle cx="104.959487" cy="194.732539" r="6.815028" opacity="0.777534" style="stroke:black;stroke-width:0.5;fill:url(#radialffffffbfbfbf)"/>
<circle cx="85.452398" cy="110.011565" r="17.491525" opacity="0.795561" style="stroke:black;stroke-width:0.5;fill:url(#radialffffff666666)"/>
<circle cx="134.140213" cy="174.791669" r="17.804233" opacity="0.802641" style="stroke:black;stroke-width:0.5;fill:url(#radialffffff666666)"/>
<circle cx="241.685231" cy="45.404321" r="7.617122" opacity="0.822017" style="stroke:black;stroke-width:0.5;fill:url(#radialffffffbfbfbf)"/>
<circle cx="269.525477" cy="140.937199" r="8.358088" opacity="0.861071" style="stroke:black;stroke-width:0.5;fill:url(#radialffffffbfbfbf)"/>
<circle cx="234.920860" cy="133.618372" r="21.552834" opacity="0.883104" style="stroke:black;stroke-width:0.5;fill:url(#radialffffff666666)"/>
<circle cx="218.362176" cy="164.798403" r="9.177648" opacity="0.902301" style="stroke:black;stroke-width:0.5;fill:url(#radialffffffbfbfbf)"/>
<circle cx="164.935387" cy="89.692360" r="9.383531" opacity="0.912365" style="stroke:black;stroke-width:0.5;fill:url(#radialffffffbfbfbf)"/>
<circle cx="88.100744" cy="107.523033" r="10.025524" opacity="0.943059" style="stroke:black;stroke-width:0.5;fill:url(#radialffffffbfbfbf)"/>
<circle cx="138.879187" cy="172.440120" r="10.130053" opacity="0.947963" style="stroke:black;stroke-width:0.5;fill:url(#radialffffffbfbfbf)"/>
<circle cx="232.621496" cy="115.249550" r="11.272727" opacity="1.000000" style="stroke:black;stroke-width:0.5;fill:url(#radialffffffbfbfbf)"/>
</svg>
</g>
</svg>
