<?xml version="1.0"?>
<svg version="1.1" id="topsvg"
xmlns="http://www.w3.org/2000/svg" xmlns:xlink="http://www.w3.org/1999/xlink"
xmlns:cml="http://www.xml-cml.org/schema" x="0" y="0" width="200px" height="200px" viewBox="0 0 100 100">
<title>521427 - Open Babel Depiction</title>
<rect x="0" y="0" width="100" height="100" fill="white"/>
<defs>
<radialGradient id='radialffffff666666' cx='50%' cy='50%' r='50%' fx='30%' fy='30%'>
  <stop offset=' 0%' stop-color="rgb(255,255,255)"  stop-opacity='1.0'/>
  <stop offset='100%' stop-color="rgb(102,102,102)"  stop-opacity ='1.0'/>
</radialGradient>
<radialGradient id='radialffffffbfbfbf' cx='50%' cy='50%' r='50%' fx='30%' fy='30%'>
  <stop offset=' 0%' stop-color="rgb(255,255,255)"  stop-opacity='1.0'/>
  <stop offset='100%' stop-color="rgb(191,191,191)"  stop-opacity ='1.0'/>
</radialGradient>
</defs>
<g transform="translate(0,0)">
<svg width="100" height="100" x="0" y="0" viewBox="0 0 319.322 241.665"
font-family="sans-serif" stroke="rgb(0,0,0)" stroke-width="4"  stroke-linecap="round">
<line x1="187.1" y1="136.2" x2="212.0" y2="106.4" opacity="1.0" stroke="rgb(0,0,0)"  stroke-width="1.2"/>
<line x1="187.1" y1="136.2" x2="141.1" y2="117.5" opacity="0.4" stroke="rgb(0,0,0)"  stroke-width="1.7"/>
<line x1="187.1" y1="136.2" x2="212.7" y2="140.3" opacity="0.6" stroke="rgb(0,0,0)"  stroke-width="2.1"/>
<line x1="187.1" y1="136.2" x2="182.4" y2="183.1" opacity="0.7" stroke="rgb(0,0,0)"  stroke-width="1.4"/>
<line x1="212.0" y1="106.4" x2="219.7" y2="59.7" opacity="0.5" stroke="rgb(0,0,0)"  stroke-width="1.0"/>
<line x1="212.0" y1="106.4" x2="256.0" y2="125.1" opacity="0.3" stroke="rgb(0,0,0)"  stroke-width="0.7"/>
<line x1="212.0" y1="106.4" x2="191.6" y2="103.9" opacity="0.2" stroke="rgb(0,0,0)"  stroke-width="0.6"/>
<line x1="141.1" y1="117.5" x2="106.3" y2="110.8" opacity="0.2" stroke="rgb(0,0,0)"  stroke-width="1.5"/>
<line x1="141.1" y1="117.5" x2="145.5" y2="86.3" opacity="0.5" stroke="rgb(0,0,0)"  stroke-width="2.0"/>
<line x1="141.1" y1="117.5" x2="126.8" y2="139.3" opacity="0.7" stroke="rgb(0,0,0)"  stroke-width="2.1"/>
<line x1="106.3" y1="110.8" x2="94.9" y2="152.0" opacity="0.7" stroke="rgb(0,0,0)"  stroke-width="0.8"/>
<line x1="106.3" y1="110.8" x2="64.6" y2="92.6" opacity="0.3" stroke="rgb(0,0,0)"  stroke-width="1.3"/>
<line x1="106.3" y1="110.8" x2="118.1" y2="86.1" opacity="0.4" stroke="rgb(0,0,0)"  stroke-width="0.8"/>
<line x1="212.7" y1="140.3" x2="245.6" y2="153.3" opacity="0.3" stroke="rgb(0,0,0)"  stroke-width="2.5"/>
<line x1="212.7" y1="140.3" x2="196.0" y2="162.6" opacity="0.8" stroke="rgb(0,0,0)"  stroke-width="2.8"/>
<line x1="212.7" y1="140.3" x2="215.7" y2="108.9" opacity="0.9" stroke="rgb(0,0,0)"  stroke-width="2.7"/>
<line x1="182.4" y1="183.1" x2="175.6" y2="183.8" opacity="0.9" stroke="rgb(0,0,0)"  stroke-width="0.8"/>
<line x1="182.4" y1="183.1" x2="157.5" y2="201.7" opacity="0.3" stroke="rgb(0,0,0)"  stroke-width="1.4"/>
<line x1="182.4" y1="183.1" x2="213.0" y2="201.3" opacity="0.5" stroke="rgb(0,0,0)"  stroke-width="1.2"/>
<line x1="219.7" y1="59.7" x2="235.2" y2="40.0" opacity="0.4" stroke="rgb(0,0,0)"  stroke-width="0.9"/>
<line x1="219.7" y1="59.7" x2="189.0" y2="43.4" opacity="0.3" stroke="rgb(0,0,0)"  stroke-width="1.3"/>
<line x1="219.7" y1="59.7" x2="241.1" y2="58.9" opacity="0.4" stroke="rgb(0,0,0)"  stroke-width="1.5"/>
<line x1="256.0" y1="125.1" x2="252.3" y2="157.3" opacity="0.5" stroke="rgb(0,0,0)"  stroke-width="0.4"/>
<line x1="256.0" y1="125.1" x2="270.7" y2="103.9" opacity="0.1" stroke="rgb(0,0,0)"  stroke-width="0.4"/>
<line x1="256.0" y1="125.1" x2="279.3" y2="127.7" opacity="0.1" stroke="rgb(0,0,0)"  stroke-width="0.8"/>
<line x1="94.9" y1="152.0" x2="119.2" y2="158.9" opacity="0.3" stroke="rgb(0,0,0)"  stroke-width="0.4"/>
<line x1="94.9" y1="152.0" x2="90.8" y2="180.3" opacity="0.1" stroke="rgb(0,0,0)"  stroke-width="0.8"/>
<line x1="94.9" y1="152.0" x2="64.2" y2="147.7" opacity="0.3" stroke="rgb(0,0,0)"  stroke-width="0.4"/>
<line x1="64.6" y1="92.6" x2="50.4" y2="116.1" opacity="0.1" stroke="rgb(0,0,0)"  stroke-width="1.8"/>
<line x1="64.6" y1="92.6" x2="40.0" y2="85.2" opacity="0.6" stroke="rgb(0,0,0)"  stroke-width="1.3"/>
<line x1="64.6" y1="92.6" x2="71.4" y2="62.4" opacity="0.4" stroke="rgb(0,0,0)"  stroke-width="1.7"/>
<circle cx="119.190009" cy="158.923634" r="5.636364" opacity="0.200000" style="stroke:black;stroke-width:0.5;fill:url(#radialffffffbfbfbf)"/>
<circle cx="270.674863" cy="103.873221" r="5.636364" opacity="0.200000" style="stroke:black;stroke-width:0.5;fill:url(#radialffffffbfbfbf)"/>
<circle cx="64.162428" cy="147.654575" r="5.636364" opacity="0.229474" style="stroke:black;stroke-width:0.5;fill:url(#radialffffffbfbfbf)"/>
<circle cx="252.337772" cy="157.286277" r="5.636364" opacity="0.276837" style="stroke:black;stroke-width:0.5;fill:url(#radialffffffbfbfbf)"/>
<circle cx="191.634890" cy="103.944978" r="5.636364" opacity="0.285319" style="stroke:black;stroke-width:0.5;fill:url(#radialffffffbfbfbf)"/>
<circle cx="175.626630" cy="183.846030" r="5.636364" opacity="0.389988" style="stroke:black;stroke-width:0.5;fill:url(#radialffffffbfbfbf)"/>
<circle cx="94.939516" cy="151.992592" r="13.818182" opacity="0.423058" style="stroke:black;stroke-width:0.5;fill:url(#radialffffff666666)"/>
<circle cx="256.016932" cy="125.093626" r="13.818182" opacity="0.427815" style="stroke:black;stroke-width:0.5;fill:url(#radialffffff666666)"/>
<circle cx="118.116920" cy="86.142801" r="5.636364" opacity="0.442723" style="stroke:black;stroke-width:0.5;fill:url(#radialffffffbfbfbf)"/>
<circle cx="235.174881" cy="40.000000" r="5.636364" opacity="0.474914" style="stroke:black;stroke-width:0.5;fill:url(#radialffffffbfbfbf)"/>
<circle cx="212.004000" cy="106.423845" r="13.818182" opacity="0.539245" style="stroke:black;stroke-width:0.5;fill:url(#radialffffff666666)"/>
<circle cx="90.761321" cy="180.284290" r="5.636364" opacity="0.575366" style="stroke:black;stroke-width:0.5;fill:url(#radialffffffbfbfbf)"/>
<circle cx="40.000000" cy="85.196917" r="5.636364" opacity="0.577605" style="stroke:black;stroke-width:0.5;fill:url(#radialffffffbfbfbf)"/>
<circle cx="106.286855" cy="110.755338" r="13.818182" opacity="0.600565" style="stroke:black;stroke-width:0.5;fill:url(#radialffffff666666)"/>
<circle cx="279.321541" cy="127.709482" r="5.636364" opacity="0.612225" style="stroke:black;stroke-width:0.5;fill:url(#radialffffffbfbfbf)"/>
<circle cx="182.436990" cy="183.069753" r="13.818182" opacity="0.633290" style="stroke:black;stroke-width:0.5;fill:url(#radialffffff666666)"/>
<circle cx="219.655870" cy="59.677636" r="13.818182" opacity="0.638265" style="stroke:black;stroke-width:0.5;fill:url(#radialffffff666666)"/>
<circle cx="212.979238" cy="201.276378" r="5.636364" opacity="0.655967" style="stroke:black;stroke-width:0.5;fill:url(#radialffffffbfbfbf)"/>
<circle cx="189.048389" cy="43.379087" r="5.636364" opacity="0.683115" style="stroke:black;stroke-width:0.5;fill:url(#radialffffffbfbfbf)"/>
<circle cx="64.586444" cy="92.646564" r="14.112582" opacity="0.714600" style="stroke:black;stroke-width:0.5;fill:url(#radialffffff666666)"/>
<circle cx="157.472192" cy="201.664516" r="5.927922" opacity="0.725165" style="stroke:black;stroke-width:0.5;fill:url(#radialffffffbfbfbf)"/>
<circle cx="187.075080" cy="136.180031" r="14.635818" opacity="0.727726" style="stroke:black;stroke-width:0.5;fill:url(#radialffffff666666)"/>
<circle cx="241.081759" cy="58.855696" r="6.885451" opacity="0.781541" style="stroke:black;stroke-width:0.5;fill:url(#radialffffffbfbfbf)"/>
<circle cx="141.085578" cy="117.490680" r="17.045017" opacity="0.785341" style="stroke:black;stroke-width:0.5;fill:url(#radialffffff666666)"/>
<circle cx="71.413113" cy="62.414174" r="7.184613" opacity="0.798339" style="stroke:black;stroke-width:0.5;fill:url(#radialffffffbfbfbf)"/>
<circle cx="50.401455" cy="116.062070" r="7.602025" opacity="0.821202" style="stroke:black;stroke-width:0.5;fill:url(#radialffffffbfbfbf)"/>
<circle cx="145.527968" cy="86.331977" r="8.325940" opacity="0.859413" style="stroke:black;stroke-width:0.5;fill:url(#radialffffffbfbfbf)"/>
<circle cx="126.763599" cy="139.291661" r="8.935014" opacity="0.890293" style="stroke:black;stroke-width:0.5;fill:url(#radialffffffbfbfbf)"/>
<circle cx="245.589383" cy="153.271165" r="9.060080" opacity="0.896503" style="stroke:black;stroke-width:0.5;fill:url(#radialffffffbfbfbf)"/>
<circle cx="212.695473" cy="140.338656" r="23.197216" opacity="0.916173" style="stroke:black;stroke-width:0.5;fill:url(#radialffffff666666)"/>
<circle cx="215.683160" cy="108.905973" r="10.802091" opacity="0.978902" style="stroke:black;stroke-width:0.5;fill:url(#radialffffffbfbfbf)"/>
<circle cx="196.028356" cy="162.579962" r="11.272727" opacity="1.000000" style="stroke:black;stroke-width:0.5;fill:url(#radialffffffbfbfbf)"/>
</svg>
</g>
</svg>
