<?xml version="1.0"?>
<svg version="1.1" id="topsvg"
xmlns="http://www.w3.org/2000/svg" xmlns:xlink="http://www.w3.org/1999/xlink"
xmlns:cml="http://www.xml-cml.org/schema" x="0" y="0" width="1024px" height="1024px" viewBox="0 0 100 100">
<title>521431 - Open Babel Depiction</title>
<rect x="0" y="0" width="100" height="100" fill="white"/>
<defs>
<radialGradient id='radialffffff666666' cx='50%' cy='50%' r='50%' fx='30%' fy='30%'>
  <stop offset=' 0%' stop-color="rgb(255,255,255)"  stop-opacity='1.0'/>
  <stop offset='100%' stop-color="rgb(102,102,102)"  stop-opacity ='1.0'/>
</radialGradient>
<radialGradient id='radialffffffbfbfbf' cx='50%' cy='50%' r='50%' fx='30%' fy='30%'>
  <stop offset=' 0%' stop-color="rgb(255,255,255)"  stop-opacity='1.0'/>
  <stop offset='100%' stop-color="rgb(191,191,191)"  stop-opacity ='1.0'/>
</radialGradient>
</defs>
<g transform="translate(0,0)">
<svg width="100" height="100" x="0" y="0" viewBox="0 0 287.573 251.942"
font-family="sans-serif" stroke="rgb(0,0,0)" stroke-width="2"  stroke-linecap="round">
<line x1="133.7" y1="145.8" x2="184.0" y2="143.4" opacity="1.0" stroke="rgb(0,0,0)"  stroke-width="1.5"/>
<line x1="133.7" y1="145.8" x2="104.7" y2="165.5" opacity="0.5" stroke="rgb(0,0,0)"  stroke-width="1.7"/>
<line x1="133.7" y1="145.8" x2="114.7" y2="100.9" opacity="0.6" stroke="rgb(0,0,0)"  stroke-width="1.2"/>
<line x1="133.7" y1="145.8" x2="129.7" y2="176.2" opacity="0.4" stroke="rgb(0,0,0)"  stroke-width="0.9"/>
<line x1="184.0" y1="143.4" x2="213.9" y2="125.2" opacity="0.3" stroke="rgb(0,0,0)"  stroke-width="1.3"/>
<line x1="184.0" y1="143.4" x2="202.0" y2="189.0" opacity="0.4" stroke="rgb(0,0,0)"  stroke-width="1.8"/>
<line x1="184.0" y1="143.4" x2="191.0" y2="114.9" opacity="0.6" stroke="rgb(0,0,0)"  stroke-width="2.1"/>
<line x1="104.7" y1="165.5" x2="56.2" y2="170.3" opacity="0.7" stroke="rgb(0,0,0)"  stroke-width="2.0"/>
<line x1="104.7" y1="165.5" x2="107.4" y2="145.9" opacity="0.7" stroke="rgb(0,0,0)"  stroke-width="2.4"/>
<line x1="104.7" y1="165.5" x2="116.6" y2="198.0" opacity="0.8" stroke="rgb(0,0,0)"  stroke-width="2.2"/>
<line x1="114.7" y1="100.9" x2="113.8" y2="63.4" opacity="0.7" stroke="rgb(0,0,0)"  stroke-width="1.4"/>
<line x1="114.7" y1="100.9" x2="132.4" y2="90.0" opacity="0.5" stroke="rgb(0,0,0)"  stroke-width="0.7"/>
<line x1="114.7" y1="100.9" x2="81.3" y2="105.9" opacity="0.2" stroke="rgb(0,0,0)"  stroke-width="0.9"/>
<line x1="129.7" y1="176.2" x2="137.4" y2="210.0" opacity="0.3" stroke="rgb(0,0,0)"  stroke-width="0.6"/>
<line x1="129.7" y1="176.2" x2="96.6" y2="176.1" opacity="0.2" stroke="rgb(0,0,0)"  stroke-width="0.4"/>
<line x1="129.7" y1="176.2" x2="150.8" y2="165.9" opacity="0.1" stroke="rgb(0,0,0)"  stroke-width="0.4"/>
<line x1="213.9" y1="125.2" x2="247.6" y2="122.4" opacity="0.1" stroke="rgb(0,0,0)"  stroke-width="1.0"/>
<line x1="213.9" y1="125.2" x2="214.9" y2="146.3" opacity="0.3" stroke="rgb(0,0,0)"  stroke-width="0.6"/>
<line x1="213.9" y1="125.2" x2="204.0" y2="92.6" opacity="0.2" stroke="rgb(0,0,0)"  stroke-width="0.8"/>
<line x1="202.0" y1="189.0" x2="185.3" y2="203.2" opacity="0.3" stroke="rgb(0,0,0)"  stroke-width="2.2"/>
<line x1="202.0" y1="189.0" x2="199.9" y2="211.9" opacity="0.7" stroke="rgb(0,0,0)"  stroke-width="1.6"/>
<line x1="202.0" y1="189.0" x2="236.6" y2="187.1" opacity="0.5" stroke="rgb(0,0,0)"  stroke-width="2.0"/>
<line x1="191.0" y1="114.9" x2="169.0" y2="123.2" opacity="0.7" stroke="rgb(0,0,0)"  stroke-width="2.7"/>
<line x1="191.0" y1="114.9" x2="188.7" y2="80.2" opacity="0.9" stroke="rgb(0,0,0)"  stroke-width="2.4"/>
<line x1="191.0" y1="114.9" x2="224.1" y2="119.6" opacity="0.8" stroke="rgb(0,0,0)"  stroke-width="2.6"/>
<line x1="56.2" y1="170.3" x2="50.1" y2="191.2" opacity="0.9" stroke="rgb(0,0,0)"  stroke-width="1.6"/>
<line x1="56.2" y1="170.3" x2="40.0" y2="185.3" opacity="0.5" stroke="rgb(0,0,0)"  stroke-width="2.2"/>
<line x1="56.2" y1="170.3" x2="40.6" y2="138.8" opacity="0.7" stroke="rgb(0,0,0)"  stroke-width="1.8"/>
<line x1="113.8" y1="63.4" x2="88.7" y2="40.0" opacity="0.6" stroke="rgb(0,0,0)"  stroke-width="1.6"/>
<line x1="113.8" y1="63.4" x2="144.3" y2="45.2" opacity="0.5" stroke="rgb(0,0,0)"  stroke-width="1.7"/>
<line x1="113.8" y1="63.4" x2="105.9" y2="73.7" opacity="0.6" stroke="rgb(0,0,0)"  stroke-width="2.0"/>
<circle cx="150.839753" cy="165.886640" r="5.636364" opacity="0.200000" style="stroke:black;stroke-width:0.5;fill:url(#radialffffffbfbfbf)"/>
<circle cx="96.599993" cy="176.050287" r="5.636364" opacity="0.299857" style="stroke:black;stroke-width:0.5;fill:url(#radialffffffbfbfbf)"/>
<circle cx="214.920868" cy="146.334152" r="5.636364" opacity="0.343038" style="stroke:black;stroke-width:0.5;fill:url(#radialffffffbfbfbf)"/>
<circle cx="132.377855" cy="89.962043" r="5.636364" opacity="0.387170" style="stroke:black;stroke-width:0.5;fill:url(#radialffffffbfbfbf)"/>
<circle cx="129.727884" cy="176.173996" r="13.818182" opacity="0.421961" style="stroke:black;stroke-width:0.5;fill:url(#radialffffff666666)"/>
<circle cx="137.381547" cy="210.034373" r="5.636364" opacity="0.480596" style="stroke:black;stroke-width:0.5;fill:url(#radialffffffbfbfbf)"/>
<circle cx="203.979157" cy="92.641314" r="5.636364" opacity="0.489465" style="stroke:black;stroke-width:0.5;fill:url(#radialffffffbfbfbf)"/>
<circle cx="81.286156" cy="105.917212" r="5.636364" opacity="0.516375" style="stroke:black;stroke-width:0.5;fill:url(#radialffffffbfbfbf)"/>
<circle cx="213.931198" cy="125.235305" r="13.818182" opacity="0.555361" style="stroke:black;stroke-width:0.5;fill:url(#radialffffff666666)"/>
<circle cx="114.739597" cy="100.949331" r="13.818182" opacity="0.585988" style="stroke:black;stroke-width:0.5;fill:url(#radialffffff666666)"/>
<circle cx="247.573457" cy="122.425815" r="5.636364" opacity="0.621331" style="stroke:black;stroke-width:0.5;fill:url(#radialffffffbfbfbf)"/>
<circle cx="50.105049" cy="191.220882" r="5.636364" opacity="0.666286" style="stroke:black;stroke-width:0.5;fill:url(#radialffffffbfbfbf)"/>
<circle cx="133.667030" cy="145.777462" r="13.818182" opacity="0.668947" style="stroke:black;stroke-width:0.5;fill:url(#radialffffff666666)"/>
<circle cx="199.919558" cy="211.942092" r="5.636364" opacity="0.669563" style="stroke:black;stroke-width:0.5;fill:url(#radialffffffbfbfbf)"/>
<circle cx="88.682635" cy="40.000000" r="5.636364" opacity="0.701105" style="stroke:black;stroke-width:0.5;fill:url(#radialffffffbfbfbf)"/>
<circle cx="183.961134" cy="143.358631" r="15.184308" opacity="0.741237" style="stroke:black;stroke-width:0.5;fill:url(#radialffffff666666)"/>
<circle cx="144.338535" cy="45.231576" r="6.272507" opacity="0.745944" style="stroke:black;stroke-width:0.5;fill:url(#radialffffffbfbfbf)"/>
<circle cx="113.759694" cy="63.358159" r="15.418484" opacity="0.746931" style="stroke:black;stroke-width:0.5;fill:url(#radialffffff666666)"/>
<circle cx="40.563200" cy="138.774898" r="6.707107" opacity="0.771353" style="stroke:black;stroke-width:0.5;fill:url(#radialffffffbfbfbf)"/>
<circle cx="202.048650" cy="189.046213" r="17.390115" opacity="0.793251" style="stroke:black;stroke-width:0.5;fill:url(#radialffffff666666)"/>
<circle cx="56.212353" cy="170.275043" r="17.439825" opacity="0.794384" style="stroke:black;stroke-width:0.5;fill:url(#radialffffff666666)"/>
<circle cx="236.628492" cy="187.135239" r="7.751710" opacity="0.829248" style="stroke:black;stroke-width:0.5;fill:url(#radialffffffbfbfbf)"/>
<circle cx="104.748490" cy="165.463425" r="19.206027" opacity="0.833640" style="stroke:black;stroke-width:0.5;fill:url(#radialffffff666666)"/>
<circle cx="116.585461" cy="198.037883" r="8.464317" opacity="0.866526" style="stroke:black;stroke-width:0.5;fill:url(#radialffffffbfbfbf)"/>
<circle cx="105.910701" cy="73.668303" r="8.773350" opacity="0.882202" style="stroke:black;stroke-width:0.5;fill:url(#radialffffffbfbfbf)"/>
<circle cx="188.743452" cy="80.195566" r="8.778236" opacity="0.882448" style="stroke:black;stroke-width:0.5;fill:url(#radialffffffbfbfbf)"/>
<circle cx="185.299141" cy="203.210861" r="9.198422" opacity="0.903321" style="stroke:black;stroke-width:0.5;fill:url(#radialffffffbfbfbf)"/>
<circle cx="40.000000" cy="185.295886" r="9.215034" opacity="0.904136" style="stroke:black;stroke-width:0.5;fill:url(#radialffffffbfbfbf)"/>
<circle cx="191.012531" cy="114.947948" r="22.734239" opacity="0.906984" style="stroke:black;stroke-width:0.5;fill:url(#radialffffff666666)"/>
<circle cx="107.408228" cy="145.907682" r="10.056629" opacity="0.944521" style="stroke:black;stroke-width:0.5;fill:url(#radialffffffbfbfbf)"/>
<circle cx="224.081823" cy="119.632602" r="10.231055" opacity="0.952677" style="stroke:black;stroke-width:0.5;fill:url(#radialffffffbfbfbf)"/>
<circle cx="168.979357" cy="123.190855" r="11.272727" opacity="1.000000" style="stroke:black;stroke-width:0.5;fill:url(#radialffffffbfbfbf)"/>
</svg>
</g>
</svg>
