<?xml version="1.0"?>
<svg version="1.1" id="topsvg"
xmlns="http://www.w3.org/2000/svg" xmlns:xlink="http://www.w3.org/1999/xlink"
xmlns:cml="http://www.xml-cml.org/schema" x="0" y="0" width="1024px" height="1024px" viewBox="0 0 100 100">
<title>521433 - Open Babel Depiction</title>
<rect x="0" y="0" width="100" height="100" fill="white"/>
<defs>
<radialGradient id='radialffffff666666' cx='50%' cy='50%' r='50%' fx='30%' fy='30%'>
  <stop offset=' 0%' stop-color="rgb(255,255,255)"  stop-opacity='1.0'/>
  <stop offset='100%' stop-color="rgb(102,102,102)"  stop-opacity ='1.0'/>
</radialGradient>
<radialGradient id='radialffffffbfbfbf' cx='50%' cy='50%' r='50%' fx='30%' fy='30%'>
  <stop offset=' 0%' stop-color="rgb(255,255,255)"  stop-opacity='1.0'/>
  <stop offset='100%' stop-color="rgb(191,191,191)"  stop-opacity ='1.0'/>
</radialGradient>
</defs>
<g transform="translate(0,0)">
<svg width="100" height="100" x="0" y="0" viewBox="0 0 296.494 262.576"
font-family="sans-serif" stroke="rgb(0,0,0)" stroke-width="2"  stroke-linecap="round">
<line x1="146.6" y1="150.9" x2="106.5" y2="177.9" opacity="1.0" stroke="rgb(0,0,0)"  stroke-width="1.5"/>
<line x1="146.6" y1="150.9" x2="188.8" y2="157.1" opacity="0.5" stroke="rgb(0,0,0)"  stroke-width="1.4"/>
<line x1="146.6" y1="150.9" x2="135.7" y2="101.4" opacity="0.5" stroke="rgb(0,0,0)"  stroke-width="1.7"/>
<line x1="146.6" y1="150.9" x2="155.9" y2="168.7" opacity="0.6" stroke="rgb(0,0,0)"  stroke-width="2.1"/>
<line x1="106.5" y1="177.9" x2="91.5" y2="165.8" opacity="0.7" stroke="rgb(0,0,0)"  stroke-width="0.9"/>
<line x1="106.5" y1="177.9" x2="66.3" y2="178.5" opacity="0.3" stroke="rgb(0,0,0)"  stroke-width="1.6"/>
<line x1="106.5" y1="177.9" x2="116.9" y2="212.1" opacity="0.5" stroke="rgb(0,0,0)"  stroke-width="1.3"/>
<line x1="188.8" y1="157.1" x2="229.7" y2="133.4" opacity="0.4" stroke="rgb(0,0,0)"  stroke-width="1.3"/>
<line x1="188.8" y1="157.1" x2="201.2" y2="205.0" opacity="0.4" stroke="rgb(0,0,0)"  stroke-width="1.0"/>
<line x1="188.8" y1="157.1" x2="182.2" y2="143.3" opacity="0.3" stroke="rgb(0,0,0)"  stroke-width="0.8"/>
<line x1="135.7" y1="101.4" x2="125.0" y2="74.7" opacity="0.3" stroke="rgb(0,0,0)"  stroke-width="1.4"/>
<line x1="135.7" y1="101.4" x2="163.1" y2="85.6" opacity="0.5" stroke="rgb(0,0,0)"  stroke-width="2.0"/>
<line x1="135.7" y1="101.4" x2="108.4" y2="98.0" opacity="0.7" stroke="rgb(0,0,0)"  stroke-width="2.0"/>
<line x1="155.9" y1="168.7" x2="129.6" y2="160.8" opacity="0.7" stroke="rgb(0,0,0)"  stroke-width="2.8"/>
<line x1="155.9" y1="168.7" x2="160.0" y2="204.1" opacity="0.9" stroke="rgb(0,0,0)"  stroke-width="2.6"/>
<line x1="155.9" y1="168.7" x2="185.3" y2="154.3" opacity="0.9" stroke="rgb(0,0,0)"  stroke-width="2.7"/>
<line x1="91.5" y1="165.8" x2="118.6" y2="159.4" opacity="0.9" stroke="rgb(0,0,0)"  stroke-width="0.4"/>
<line x1="91.5" y1="165.8" x2="69.3" y2="138.0" opacity="0.1" stroke="rgb(0,0,0)"  stroke-width="0.4"/>
<line x1="91.5" y1="165.8" x2="73.1" y2="193.0" opacity="0.1" stroke="rgb(0,0,0)"  stroke-width="0.4"/>
<line x1="66.3" y1="178.5" x2="53.7" y2="145.7" opacity="0.1" stroke="rgb(0,0,0)"  stroke-width="1.9"/>
<line x1="66.3" y1="178.5" x2="40.0" y2="197.4" opacity="0.6" stroke="rgb(0,0,0)"  stroke-width="1.7"/>
<line x1="66.3" y1="178.5" x2="73.1" y2="194.0" opacity="0.6" stroke="rgb(0,0,0)"  stroke-width="2.2"/>
<line x1="229.7" y1="133.4" x2="256.5" y2="137.0" opacity="0.7" stroke="rgb(0,0,0)"  stroke-width="1.2"/>
<line x1="229.7" y1="133.4" x2="241.2" y2="146.5" opacity="0.4" stroke="rgb(0,0,0)"  stroke-width="1.7"/>
<line x1="229.7" y1="133.4" x2="224.3" y2="98.4" opacity="0.6" stroke="rgb(0,0,0)"  stroke-width="1.5"/>
<line x1="201.2" y1="205.0" x2="176.0" y2="222.6" opacity="0.5" stroke="rgb(0,0,0)"  stroke-width="0.8"/>
<line x1="201.2" y1="205.0" x2="230.8" y2="207.2" opacity="0.3" stroke="rgb(0,0,0)"  stroke-width="0.8"/>
<line x1="201.2" y1="205.0" x2="207.7" y2="222.3" opacity="0.3" stroke="rgb(0,0,0)"  stroke-width="1.3"/>
<line x1="125.0" y1="74.7" x2="146.5" y2="81.6" opacity="0.4" stroke="rgb(0,0,0)"  stroke-width="0.8"/>
<line x1="125.0" y1="74.7" x2="91.1" y2="78.8" opacity="0.3" stroke="rgb(0,0,0)"  stroke-width="0.9"/>
<line x1="125.0" y1="74.7" x2="128.7" y2="40.0" opacity="0.3" stroke="rgb(0,0,0)"  stroke-width="1.1"/>
<circle cx="118.574219" cy="159.386029" r="5.636364" opacity="0.200000" style="stroke:black;stroke-width:0.5;fill:url(#radialffffffbfbfbf)"/>
<circle cx="73.093827" cy="193.049990" r="5.636364" opacity="0.227957" style="stroke:black;stroke-width:0.5;fill:url(#radialffffffbfbfbf)"/>
<circle cx="69.282075" cy="137.968544" r="5.636364" opacity="0.373564" style="stroke:black;stroke-width:0.5;fill:url(#radialffffffbfbfbf)"/>
<circle cx="91.458653" cy="165.758497" r="13.818182" opacity="0.375925" style="stroke:black;stroke-width:0.5;fill:url(#radialffffff666666)"/>
<circle cx="182.246768" cy="143.272418" r="5.636364" opacity="0.404444" style="stroke:black;stroke-width:0.5;fill:url(#radialffffffbfbfbf)"/>
<circle cx="146.484715" cy="81.642577" r="5.636364" opacity="0.407163" style="stroke:black;stroke-width:0.5;fill:url(#radialffffffbfbfbf)"/>
<circle cx="230.844978" cy="207.192568" r="5.636364" opacity="0.439948" style="stroke:black;stroke-width:0.5;fill:url(#radialffffffbfbfbf)"/>
<circle cx="175.962264" cy="222.576408" r="5.636364" opacity="0.453693" style="stroke:black;stroke-width:0.5;fill:url(#radialffffffbfbfbf)"/>
<circle cx="91.142636" cy="78.831002" r="5.636364" opacity="0.526720" style="stroke:black;stroke-width:0.5;fill:url(#radialffffffbfbfbf)"/>
<circle cx="201.230596" cy="205.026059" r="13.818182" opacity="0.566098" style="stroke:black;stroke-width:0.5;fill:url(#radialffffff666666)"/>
<circle cx="256.494486" cy="136.978140" r="5.636364" opacity="0.572371" style="stroke:black;stroke-width:0.5;fill:url(#radialffffffbfbfbf)"/>
<circle cx="124.989039" cy="74.686944" r="13.818182" opacity="0.584197" style="stroke:black;stroke-width:0.5;fill:url(#radialffffff666666)"/>
<circle cx="188.844031" cy="157.050110" r="13.818182" opacity="0.607999" style="stroke:black;stroke-width:0.5;fill:url(#radialffffff666666)"/>
<circle cx="128.654186" cy="40.000000" r="5.636364" opacity="0.624702" style="stroke:black;stroke-width:0.5;fill:url(#radialffffffbfbfbf)"/>
<circle cx="116.860560" cy="212.095719" r="5.636364" opacity="0.652558" style="stroke:black;stroke-width:0.5;fill:url(#radialffffffbfbfbf)"/>
<circle cx="106.523218" cy="177.913751" r="13.818182" opacity="0.660659" style="stroke:black;stroke-width:0.5;fill:url(#radialffffff666666)"/>
<circle cx="229.724258" cy="133.352089" r="13.818182" opacity="0.690626" style="stroke:black;stroke-width:0.5;fill:url(#radialffffff666666)"/>
<circle cx="224.290067" cy="98.362159" r="5.642348" opacity="0.707482" style="stroke:black;stroke-width:0.5;fill:url(#radialffffffbfbfbf)"/>
<circle cx="207.700801" cy="222.260391" r="5.810149" opacity="0.717925" style="stroke:black;stroke-width:0.5;fill:url(#radialffffffbfbfbf)"/>
<circle cx="40.000000" cy="197.428618" r="5.995787" opacity="0.729304" style="stroke:black;stroke-width:0.5;fill:url(#radialffffffbfbfbf)"/>
<circle cx="146.615031" cy="150.879632" r="15.375399" opacity="0.745887" style="stroke:black;stroke-width:0.5;fill:url(#radialffffff666666)"/>
<circle cx="135.720587" cy="101.437624" r="16.553165" opacity="0.773927" style="stroke:black;stroke-width:0.5;fill:url(#radialffffff666666)"/>
<circle cx="66.330410" cy="178.506690" r="17.347165" opacity="0.792271" style="stroke:black;stroke-width:0.5;fill:url(#radialffffff666666)"/>
<circle cx="53.719050" cy="145.709333" r="7.502948" opacity="0.815833" style="stroke:black;stroke-width:0.5;fill:url(#radialffffffbfbfbf)"/>
<circle cx="241.205125" cy="146.517294" r="7.613485" opacity="0.821821" style="stroke:black;stroke-width:0.5;fill:url(#radialffffffbfbfbf)"/>
<circle cx="163.087013" cy="85.594419" r="7.951200" opacity="0.839850" style="stroke:black;stroke-width:0.5;fill:url(#radialffffffbfbfbf)"/>
<circle cx="108.399773" cy="98.013563" r="8.394290" opacity="0.862934" style="stroke:black;stroke-width:0.5;fill:url(#radialffffffbfbfbf)"/>
<circle cx="73.139438" cy="193.981752" r="9.333977" opacity="0.909953" style="stroke:black;stroke-width:0.5;fill:url(#radialffffffbfbfbf)"/>
<circle cx="155.948937" cy="168.706903" r="23.619186" opacity="0.924468" style="stroke:black;stroke-width:0.5;fill:url(#radialffffff666666)"/>
<circle cx="159.952905" cy="204.139908" r="9.640713" opacity="0.924784" style="stroke:black;stroke-width:0.5;fill:url(#radialffffffbfbfbf)"/>
<circle cx="185.335265" cy="154.336272" r="10.653153" opacity="0.972131" style="stroke:black;stroke-width:0.5;fill:url(#radialffffffbfbfbf)"/>
<circle cx="129.602237" cy="160.822767" r="11.272727" opacity="1.000000" style="stroke:black;stroke-width:0.5;fill:url(#radialffffffbfbfbf)"/>
</svg>
</g>
</svg>
