<?xml version="1.0"?>
<svg version="1.1" id="topsvg"
xmlns="http://www.w3.org/2000/svg" xmlns:xlink="http://www.w3.org/1999/xlink"
xmlns:cml="http://www.xml-cml.org/schema" x="0" y="0" width="200px" height="200px" viewBox="0 0 100 100">
<title>521432 - Open Babel Depiction</title>
<rect x="0" y="0" width="100" height="100" fill="white"/>
<defs>
<radialGradient id='radialffffff666666' cx='50%' cy='50%' r='50%' fx='30%' fy='30%'>
  <stop offset=' 0%' stop-color="rgb(255,255,255)"  stop-opacity='1.0'/>
  <stop offset='100%' stop-color="rgb(102,102,102)"  stop-opacity ='1.0'/>
</radialGradient>
<radialGradient id='radialffffffbfbfbf' cx='50%' cy='50%' r='50%' fx='30%' fy='30%'>
  <stop offset=' 0%' stop-color="rgb(255,255,255)"  stop-opacity='1.0'/>
  <stop offset='100%' stop-color="rgb(191,191,191)"  stop-opacity ='1.0'/>
</radialGradient>
</defs>
<g transform="translate(0,0)">
<svg width="100" height="100" x="0" y="0" viewBox="0 0 297.924 282.591"
font-family="sans-serif" stroke="rgb(0,0,0)" stroke-width="4"  stroke-linecap="round">
<line x1="153.6" y1="141.2" x2="192.9" y2="173.6" opacity="1.0" stroke="rgb(0,0,0)"  stroke-width="1.3"/>
<line x1="153.6" y1="141.2" x2="107.6" y2="163.6" opacity="0.4" stroke="rgb(0,0,0)"  stroke-width="1.2"/>
<line x1="153.6" y1="141.2" x2="157.6" y2="97.2" opacity="0.4" stroke="rgb(0,0,0)"  stroke-width="1.5"/>
<line x1="153.4" y1="139.3" x2="154.9" y2="139.8" opacity="0.5" stroke="rgb(0,0,0)"  stroke-width="1.0"/>
<line x1="153.2" y1="137.8" x2="155.9" y2="138.7" opacity="0.5" stroke="rgb(0,0,0)"  stroke-width="1.0"/>
<line x1="153.0" y1="136.3" x2="157.0" y2="137.6" opacity="0.5" stroke="rgb(0,0,0)"  stroke-width="1.0"/>
<line x1="152.8" y1="134.8" x2="158.0" y2="136.5" opacity="0.5" stroke="rgb(0,0,0)"  stroke-width="1.0"/>
<line x1="152.6" y1="133.3" x2="159.0" y2="135.4" opacity="0.5" stroke="rgb(0,0,0)"  stroke-width="1.0"/>
<line x1="152.5" y1="131.8" x2="160.1" y2="134.3" opacity="0.5" stroke="rgb(0,0,0)"  stroke-width="1.0"/>
<line x1="192.9" y1="173.6" x2="233.0" y2="163.5" opacity="0.5" stroke="rgb(0,0,0)"  stroke-width="1.1"/>
<line x1="192.9" y1="173.6" x2="179.7" y2="221.2" opacity="0.4" stroke="rgb(0,0,0)"  stroke-width="1.3"/>
<line x1="192.9" y1="173.6" x2="207.7" y2="171.6" opacity="0.4" stroke="rgb(0,0,0)"  stroke-width="2.0"/>
<line x1="107.6" y1="163.6" x2="70.7" y2="133.1" opacity="0.7" stroke="rgb(0,0,0)"  stroke-width="1.1"/>
<line x1="107.6" y1="163.6" x2="97.0" y2="182.5" opacity="0.4" stroke="rgb(0,0,0)"  stroke-width="1.8"/>
<line x1="107.6" y1="163.6" x2="106.4" y2="190.7" opacity="0.6" stroke="rgb(0,0,0)"  stroke-width="1.0"/>
<line x1="157.6" y1="97.2" x2="200.9" y2="73.7" opacity="0.3" stroke="rgb(0,0,0)"  stroke-width="1.7"/>
<line x1="157.6" y1="97.2" x2="151.3" y2="101.8" opacity="0.6" stroke="rgb(0,0,0)"  stroke-width="2.1"/>
<line x1="157.6" y1="97.2" x2="132.1" y2="75.1" opacity="0.7" stroke="rgb(0,0,0)"  stroke-width="1.6"/>
<line x1="233.0" y1="163.5" x2="257.9" y2="188.9" opacity="0.5" stroke="rgb(0,0,0)"  stroke-width="0.8"/>
<line x1="233.0" y1="163.5" x2="249.2" y2="132.9" opacity="0.3" stroke="rgb(0,0,0)"  stroke-width="0.9"/>
<line x1="233.0" y1="163.5" x2="223.8" y2="162.6" opacity="0.3" stroke="rgb(0,0,0)"  stroke-width="0.4"/>
<line x1="179.7" y1="221.2" x2="156.0" y2="236.1" opacity="0.1" stroke="rgb(0,0,0)"  stroke-width="1.4"/>
<line x1="179.7" y1="221.2" x2="167.8" y2="224.1" opacity="0.5" stroke="rgb(0,0,0)"  stroke-width="0.8"/>
<line x1="179.7" y1="221.2" x2="208.3" y2="242.6" opacity="0.3" stroke="rgb(0,0,0)"  stroke-width="1.2"/>
<line x1="207.7" y1="171.6" x2="180.4" y2="171.5" opacity="0.4" stroke="rgb(0,0,0)"  stroke-width="2.7"/>
<line x1="207.7" y1="171.6" x2="227.5" y2="200.3" opacity="0.9" stroke="rgb(0,0,0)"  stroke-width="2.6"/>
<line x1="207.7" y1="171.6" x2="228.3" y2="143.7" opacity="0.9" stroke="rgb(0,0,0)"  stroke-width="2.6"/>
<line x1="70.7" y1="133.1" x2="77.8" y2="118.8" opacity="0.9" stroke="rgb(0,0,0)"  stroke-width="0.6"/>
<line x1="70.7" y1="133.1" x2="65.3" y2="106.6" opacity="0.2" stroke="rgb(0,0,0)"  stroke-width="1.2"/>
<line x1="70.7" y1="133.1" x2="40.0" y2="151.2" opacity="0.4" stroke="rgb(0,0,0)"  stroke-width="0.9"/>
<line x1="97.0" y1="182.5" x2="93.4" y2="156.2" opacity="0.3" stroke="rgb(0,0,0)"  stroke-width="2.6"/>
<line x1="97.0" y1="182.5" x2="65.7" y2="199.8" opacity="0.9" stroke="rgb(0,0,0)"  stroke-width="2.3"/>
<line x1="97.0" y1="182.5" x2="120.6" y2="205.3" opacity="0.8" stroke="rgb(0,0,0)"  stroke-width="2.4"/>
<line x1="200.9" y1="73.7" x2="228.0" y2="86.9" opacity="0.8" stroke="rgb(0,0,0)"  stroke-width="1.8"/>
<line x1="200.9" y1="73.7" x2="209.8" y2="71.6" opacity="0.6" stroke="rgb(0,0,0)"  stroke-width="1.2"/>
<line x1="200.9" y1="73.7" x2="197.2" y2="40.0" opacity="0.4" stroke="rgb(0,0,0)"  stroke-width="1.7"/>
<circle cx="223.813093" cy="162.588805" r="5.636364" opacity="0.200000" style="stroke:black;stroke-width:0.5;fill:url(#radialffffffbfbfbf)"/>
<circle cx="77.806177" cy="118.837603" r="5.636364" opacity="0.288005" style="stroke:black;stroke-width:0.5;fill:url(#radialffffffbfbfbf)"/>
<circle cx="156.272013" cy="133.007175" r="5.636364" opacity="0.371093" style="stroke:black;stroke-width:0.5;fill:url(#radialffffffbfbfbf)"/>
<circle cx="167.783771" cy="224.054416" r="5.636364" opacity="0.379541" style="stroke:black;stroke-width:0.5;fill:url(#radialffffffbfbfbf)"/>
<circle cx="106.350771" cy="190.712713" r="5.636364" opacity="0.506859" style="stroke:black;stroke-width:0.5;fill:url(#radialffffffbfbfbf)"/>
<circle cx="232.967060" cy="163.521485" r="13.818182" opacity="0.507218" style="stroke:black;stroke-width:0.5;fill:url(#radialffffff666666)"/>
<circle cx="209.780489" cy="71.551347" r="5.636364" opacity="0.530606" style="stroke:black;stroke-width:0.5;fill:url(#radialffffffbfbfbf)"/>
<circle cx="257.924420" cy="188.912574" r="5.636364" opacity="0.532753" style="stroke:black;stroke-width:0.5;fill:url(#radialffffffbfbfbf)"/>
<circle cx="40.000000" cy="151.158575" r="5.636364" opacity="0.547640" style="stroke:black;stroke-width:0.5;fill:url(#radialffffffbfbfbf)"/>
<circle cx="249.223749" cy="132.922386" r="5.636364" opacity="0.561593" style="stroke:black;stroke-width:0.5;fill:url(#radialffffffbfbfbf)"/>
<circle cx="70.703455" cy="133.098486" r="13.818182" opacity="0.566589" style="stroke:black;stroke-width:0.5;fill:url(#radialffffff666666)"/>
<circle cx="179.660774" cy="221.210718" r="13.818182" opacity="0.627972" style="stroke:black;stroke-width:0.5;fill:url(#radialffffff666666)"/>
<circle cx="153.575066" cy="141.241506" r="13.818182" opacity="0.630250" style="stroke:black;stroke-width:0.5;fill:url(#radialffffff666666)"/>
<circle cx="208.332551" cy="242.590628" r="5.636364" opacity="0.639720" style="stroke:black;stroke-width:0.5;fill:url(#radialffffffbfbfbf)"/>
<circle cx="107.593258" cy="163.596491" r="13.818182" opacity="0.656015" style="stroke:black;stroke-width:0.5;fill:url(#radialffffff666666)"/>
<circle cx="192.904187" cy="173.627700" r="13.818182" opacity="0.688029" style="stroke:black;stroke-width:0.5;fill:url(#radialffffff666666)"/>
<circle cx="65.325867" cy="106.598616" r="5.636364" opacity="0.703274" style="stroke:black;stroke-width:0.5;fill:url(#radialffffffbfbfbf)"/>
<circle cx="132.084278" cy="75.119014" r="5.636364" opacity="0.703533" style="stroke:black;stroke-width:0.5;fill:url(#radialffffffbfbfbf)"/>
<circle cx="200.913500" cy="73.658031" r="14.885458" opacity="0.733906" style="stroke:black;stroke-width:0.5;fill:url(#radialffffff666666)"/>
<circle cx="155.994818" cy="236.065125" r="6.276838" opacity="0.746201" style="stroke:black;stroke-width:0.5;fill:url(#radialffffffbfbfbf)"/>
<circle cx="157.563417" cy="97.235937" r="16.110861" opacity="0.763517" style="stroke:black;stroke-width:0.5;fill:url(#radialffffff666666)"/>
<circle cx="197.150166" cy="40.000000" r="7.039326" opacity="0.790226" style="stroke:black;stroke-width:0.5;fill:url(#radialffffffbfbfbf)"/>
<circle cx="228.000372" cy="86.875355" r="7.637212" opacity="0.823101" style="stroke:black;stroke-width:0.5;fill:url(#radialffffffbfbfbf)"/>
<circle cx="65.691112" cy="199.798197" r="8.534177" opacity="0.870094" style="stroke:black;stroke-width:0.5;fill:url(#radialffffffbfbfbf)"/>
<circle cx="96.975047" cy="182.520777" r="21.166907" opacity="0.875162" style="stroke:black;stroke-width:0.5;fill:url(#radialffffff666666)"/>
<circle cx="207.725982" cy="171.556888" r="22.939545" opacity="0.911070" style="stroke:black;stroke-width:0.5;fill:url(#radialffffff666666)"/>
<circle cx="151.279237" cy="101.798246" r="9.500160" opacity="0.918018" style="stroke:black;stroke-width:0.5;fill:url(#radialffffffbfbfbf)"/>
<circle cx="120.611653" cy="205.250791" r="9.758705" opacity="0.930425" style="stroke:black;stroke-width:0.5;fill:url(#radialffffffbfbfbf)"/>
<circle cx="228.326484" cy="143.729741" r="10.018072" opacity="0.942709" style="stroke:black;stroke-width:0.5;fill:url(#radialffffffbfbfbf)"/>
<circle cx="227.504682" cy="200.297148" r="10.030397" opacity="0.943289" style="stroke:black;stroke-width:0.5;fill:url(#radialffffffbfbfbf)"/>
<circle cx="93.361725" cy="156.187224" r="10.640607" opacity="0.971558" style="stroke:black;stroke-width:0.5;fill:url(#radialffffffbfbfbf)"/>
<circle cx="180.361915" cy="171.459054" r="11.272727" opacity="1.000000" style="stroke:black;stroke-width:0.5;fill:url(#radialffffffbfbfbf)"/>
</svg>
</g>
</svg>
