<?xml version="1.0"?>
<svg version="1.1" id="topsvg"
xmlns="http://www.w3.org/2000/svg" xmlns:xlink="http://www.w3.org/1999/xlink"
xmlns:cml="http://www.xml-cml.org/schema" x="0" y="0" width="1024px" height="1024px" viewBox="0 0 100 100">
<title>521422 - Open Babel Depiction</title>
<rect x="0" y="0" width="100" height="100" fill="white"/>
<defs>
<radialGradient id='radialffffff666666' cx='50%' cy='50%' r='50%' fx='30%' fy='30%'>
  <stop offset=' 0%' stop-color="rgb(255,255,255)"  stop-opacity='1.0'/>
  <stop offset='100%' stop-color="rgb(102,102,102)"  stop-opacity ='1.0'/>
</radialGradient>
<radialGradient id='radialffffffbfbfbf' cx='50%' cy='50%' r='50%' fx='30%' fy='30%'>
  <stop offset=' 0%' stop-color="rgb(255,255,255)"  stop-opacity='1.0'/>
  <stop offset='100%' stop-color="rgb(191,191,191)"  stop-opacity ='1.0'/>
</radialGradient>
</defs>
<g transform="translate(0,0)">
<svg width="100" height="100" x="0" y="0" viewBox="0 0 304.353 244.687"
font-family="sans-serif" stroke="rgb(0,0,0)" stroke-width="2"  stroke-linecap="round">
<line x1="184.4" y1="105.6" x2="141.5" y2="107.1" opacity="1.0" stroke="rgb(0,0,0)"  stroke-width="1.4"/>
<line x1="184.4" y1="105.6" x2="223.1" y2="131.3" opacity="0.5" stroke="rgb(0,0,0)"  stroke-width="1.5"/>
<line x1="184.4" y1="105.6" x2="176.7" y2="125.5" opacity="0.5" stroke="rgb(0,0,0)"  stroke-width="2.1"/>
<line x1="184.4" y1="105.6" x2="199.3" y2="57.7" opacity="0.7" stroke="rgb(0,0,0)"  stroke-width="1.8"/>
<line x1="141.5" y1="107.1" x2="126.0" y2="154.5" opacity="0.6" stroke="rgb(0,0,0)"  stroke-width="1.1"/>
<line x1="141.5" y1="107.1" x2="103.5" y2="79.8" opacity="0.4" stroke="rgb(0,0,0)"  stroke-width="1.4"/>
<line x1="141.5" y1="107.1" x2="149.1" y2="92.2" opacity="0.5" stroke="rgb(0,0,0)"  stroke-width="0.9"/>
<line x1="223.1" y1="131.3" x2="236.5" y2="117.0" opacity="0.3" stroke="rgb(0,0,0)"  stroke-width="0.9"/>
<line x1="223.1" y1="131.3" x2="215.5" y2="166.3" opacity="0.3" stroke="rgb(0,0,0)"  stroke-width="1.3"/>
<line x1="223.1" y1="131.3" x2="251.9" y2="128.5" opacity="0.4" stroke="rgb(0,0,0)"  stroke-width="1.5"/>
<line x1="126.0" y1="154.5" x2="112.8" y2="180.2" opacity="0.5" stroke="rgb(0,0,0)"  stroke-width="1.4"/>
<line x1="126.0" y1="154.5" x2="151.4" y2="172.5" opacity="0.5" stroke="rgb(0,0,0)"  stroke-width="0.8"/>
<line x1="126.0" y1="154.5" x2="98.4" y2="153.7" opacity="0.3" stroke="rgb(0,0,0)"  stroke-width="0.8"/>
<line x1="103.5" y1="79.8" x2="63.0" y2="79.5" opacity="0.3" stroke="rgb(0,0,0)"  stroke-width="1.3"/>
<line x1="103.5" y1="79.8" x2="114.0" y2="45.8" opacity="0.4" stroke="rgb(0,0,0)"  stroke-width="1.6"/>
<line x1="103.5" y1="79.8" x2="94.0" y2="90.6" opacity="0.5" stroke="rgb(0,0,0)"  stroke-width="1.9"/>
<line x1="176.7" y1="125.5" x2="146.0" y2="115.7" opacity="0.6" stroke="rgb(0,0,0)"  stroke-width="2.7"/>
<line x1="176.7" y1="125.5" x2="180.1" y2="160.9" opacity="0.9" stroke="rgb(0,0,0)"  stroke-width="2.6"/>
<line x1="176.7" y1="125.5" x2="202.2" y2="113.9" opacity="0.9" stroke="rgb(0,0,0)"  stroke-width="2.8"/>
<line x1="199.3" y1="57.7" x2="232.1" y2="56.0" opacity="0.9" stroke="rgb(0,0,0)"  stroke-width="2.0"/>
<line x1="199.3" y1="57.7" x2="200.0" y2="40.0" opacity="0.7" stroke="rgb(0,0,0)"  stroke-width="1.5"/>
<line x1="199.3" y1="57.7" x2="177.6" y2="40.0" opacity="0.5" stroke="rgb(0,0,0)"  stroke-width="2.0"/>
<line x1="236.5" y1="117.0" x2="264.4" y2="136.4" opacity="0.7" stroke="rgb(0,0,0)"  stroke-width="0.4"/>
<line x1="236.5" y1="117.0" x2="246.3" y2="82.7" opacity="0.1" stroke="rgb(0,0,0)"  stroke-width="0.4"/>
<line x1="236.5" y1="117.0" x2="210.2" y2="121.9" opacity="0.1" stroke="rgb(0,0,0)"  stroke-width="0.4"/>
<line x1="112.8" y1="180.2" x2="97.3" y2="161.0" opacity="0.1" stroke="rgb(0,0,0)"  stroke-width="2.0"/>
<line x1="112.8" y1="180.2" x2="88.7" y2="204.7" opacity="0.7" stroke="rgb(0,0,0)"  stroke-width="1.7"/>
<line x1="112.8" y1="180.2" x2="139.9" y2="199.3" opacity="0.6" stroke="rgb(0,0,0)"  stroke-width="1.9"/>
<line x1="63.0" y1="79.5" x2="46.0" y2="110.8" opacity="0.6" stroke="rgb(0,0,0)"  stroke-width="1.0"/>
<line x1="63.0" y1="79.5" x2="71.3" y2="71.6" opacity="0.3" stroke="rgb(0,0,0)"  stroke-width="0.7"/>
<line x1="63.0" y1="79.5" x2="40.0" y2="54.8" opacity="0.2" stroke="rgb(0,0,0)"  stroke-width="1.1"/>
<circle cx="210.151070" cy="121.881818" r="5.636364" opacity="0.200000" style="stroke:black;stroke-width:0.5;fill:url(#radialffffffbfbfbf)"/>
<circle cx="264.352919" cy="136.437861" r="5.636364" opacity="0.281584" style="stroke:black;stroke-width:0.5;fill:url(#radialffffffbfbfbf)"/>
<circle cx="71.301038" cy="71.594638" r="5.636364" opacity="0.342290" style="stroke:black;stroke-width:0.5;fill:url(#radialffffffbfbfbf)"/>
<circle cx="246.316083" cy="82.748181" r="5.636364" opacity="0.379434" style="stroke:black;stroke-width:0.5;fill:url(#radialffffffbfbfbf)"/>
<circle cx="236.460905" cy="117.021104" r="13.818182" opacity="0.385922" style="stroke:black;stroke-width:0.5;fill:url(#radialffffff666666)"/>
<circle cx="98.446002" cy="153.665665" r="5.636364" opacity="0.430805" style="stroke:black;stroke-width:0.5;fill:url(#radialffffffbfbfbf)"/>
<circle cx="149.095289" cy="92.234728" r="5.636364" opacity="0.434614" style="stroke:black;stroke-width:0.5;fill:url(#radialffffffbfbfbf)"/>
<circle cx="151.356010" cy="172.531105" r="5.636364" opacity="0.467131" style="stroke:black;stroke-width:0.5;fill:url(#radialffffffbfbfbf)"/>
<circle cx="126.024842" cy="154.451861" r="13.818182" opacity="0.573734" style="stroke:black;stroke-width:0.5;fill:url(#radialffffff666666)"/>
<circle cx="63.034562" cy="79.528366" r="13.818182" opacity="0.575115" style="stroke:black;stroke-width:0.5;fill:url(#radialffffff666666)"/>
<circle cx="45.966607" cy="110.848977" r="5.636364" opacity="0.579096" style="stroke:black;stroke-width:0.5;fill:url(#radialffffffbfbfbf)"/>
<circle cx="141.451899" cy="107.097420" r="13.818182" opacity="0.623739" style="stroke:black;stroke-width:0.5;fill:url(#radialffffff666666)"/>
<circle cx="40.000000" cy="54.836594" r="5.636364" opacity="0.636071" style="stroke:black;stroke-width:0.5;fill:url(#radialffffffbfbfbf)"/>
<circle cx="199.959883" cy="40.013049" r="5.636364" opacity="0.643175" style="stroke:black;stroke-width:0.5;fill:url(#radialffffffbfbfbf)"/>
<circle cx="215.540264" cy="166.296995" r="5.636364" opacity="0.656838" style="stroke:black;stroke-width:0.5;fill:url(#radialffffffbfbfbf)"/>
<circle cx="223.118410" cy="131.348791" r="13.818182" opacity="0.661604" style="stroke:black;stroke-width:0.5;fill:url(#radialffffff666666)"/>
<circle cx="103.473089" cy="79.818704" r="14.201712" opacity="0.716853" style="stroke:black;stroke-width:0.5;fill:url(#radialffffff666666)"/>
<circle cx="88.656068" cy="204.686845" r="5.886180" opacity="0.722607" style="stroke:black;stroke-width:0.5;fill:url(#radialffffffbfbfbf)"/>
<circle cx="114.019859" cy="45.836118" r="6.028334" opacity="0.731281" style="stroke:black;stroke-width:0.5;fill:url(#radialffffffbfbfbf)"/>
<circle cx="184.428435" cy="105.613108" r="15.760888" opacity="0.755179" style="stroke:black;stroke-width:0.5;fill:url(#radialffffff666666)"/>
<circle cx="251.874913" cy="128.523706" r="6.443881" opacity="0.756065" style="stroke:black;stroke-width:0.5;fill:url(#radialffffffbfbfbf)"/>
<circle cx="112.835671" cy="180.184282" r="16.155522" opacity="0.764575" style="stroke:black;stroke-width:0.5;fill:url(#radialffffff666666)"/>
<circle cx="199.336798" cy="57.707351" r="16.848552" opacity="0.780802" style="stroke:black;stroke-width:0.5;fill:url(#radialffffff666666)"/>
<circle cx="139.879507" cy="199.340060" r="7.514455" opacity="0.816459" style="stroke:black;stroke-width:0.5;fill:url(#radialffffffbfbfbf)"/>
<circle cx="232.125410" cy="56.030568" r="7.882384" opacity="0.836208" style="stroke:black;stroke-width:0.5;fill:url(#radialffffffbfbfbf)"/>
<circle cx="94.002853" cy="90.632976" r="8.113967" opacity="0.848403" style="stroke:black;stroke-width:0.5;fill:url(#radialffffffbfbfbf)"/>
<circle cx="97.265077" cy="160.995882" r="8.410587" opacity="0.863771" style="stroke:black;stroke-width:0.5;fill:url(#radialffffffbfbfbf)"/>
<circle cx="177.649534" cy="40.000000" r="8.453094" opacity="0.865951" style="stroke:black;stroke-width:0.5;fill:url(#radialffffffbfbfbf)"/>
<circle cx="176.700227" cy="125.502886" r="23.739563" opacity="0.926821" style="stroke:black;stroke-width:0.5;fill:url(#radialffffff666666)"/>
<circle cx="180.148398" cy="160.865393" r="9.755017" opacity="0.930250" style="stroke:black;stroke-width:0.5;fill:url(#radialffffffbfbfbf)"/>
<circle cx="145.989652" cy="115.650970" r="10.755210" opacity="0.976776" style="stroke:black;stroke-width:0.5;fill:url(#radialffffffbfbfbf)"/>
<circle cx="202.236915" cy="113.869796" r="11.272727" opacity="1.000000" style="stroke:black;stroke-width:0.5;fill:url(#radialffffffbfbfbf)"/>
</svg>
</g>
</svg>
