<?xml version="1.0"?>
<svg version="1.1" id="topsvg"
xmlns="http://www.w3.org/2000/svg" xmlns:xlink="http://www.w3.org/1999/xlink"
xmlns:cml="http://www.xml-cml.org/schema" x="0" y="0" width="200px" height="200px" viewBox="0 0 100 100">
<title>521428 - Open Babel Depiction</title>
<rect x="0" y="0" width="100" height="100" fill="white"/>
<defs>
<radialGradient id='radialffffff666666' cx='50%' cy='50%' r='50%' fx='30%' fy='30%'>
  <stop offset=' 0%' stop-color="rgb(255,255,255)"  stop-opacity='1.0'/>
  <stop offset='100%' stop-color="rgb(102,102,102)"  stop-opacity ='1.0'/>
</radialGradient>
<radialGradient id='radialffffffbfbfbf' cx='50%' cy='50%' r='50%' fx='30%' fy='30%'>
  <stop offset=' 0%' stop-color="rgb(255,255,255)"  stop-opacity='1.0'/>
  <stop offset='100%' stop-color="rgb(191,191,191)"  stop-opacity ='1.0'/>
</radialGradient>
</defs>
<g transform="translate(0,0)">
<svg width="100" height="100" x="0" y="0" viewBox="0 0 289.62 248.842"
font-family="sans-serif" stroke="rgb(0,0,0)" stroke-width="4"  stroke-linecap="round">
<line x1="106.8" y1="100.3" x2="152.2" y2="104.3" opacity="1.0" stroke="rgb(0,0,0)"  stroke-width="1.9"/>
<line x1="106.8" y1="100.3" x2="87.9" y2="145.7" opacity="0.6" stroke="rgb(0,0,0)"  stroke-width="1.4"/>
<line x1="106.8" y1="100.3" x2="110.1" y2="72.9" opacity="0.5" stroke="rgb(0,0,0)"  stroke-width="1.1"/>
<line x1="106.8" y1="100.3" x2="73.0" y2="77.6" opacity="0.4" stroke="rgb(0,0,0)"  stroke-width="1.9"/>
<line x1="152.2" y1="104.3" x2="187.1" y2="133.0" opacity="0.6" stroke="rgb(0,0,0)"  stroke-width="1.9"/>
<line x1="152.2" y1="104.3" x2="171.2" y2="59.9" opacity="0.6" stroke="rgb(0,0,0)"  stroke-width="2.3"/>
<polygon points="152.160520 104.258937 148.857829 122.742490 141.463116 119.689913 " stroke-width="2.295355" fill="rgb(0,0,0)"  stroke="rgb(0,0,0)" />
<line x1="187.1" y1="133.0" x2="228.4" y2="137.1" opacity="0.8" stroke="rgb(0,0,0)"  stroke-width="1.9"/>
<line x1="187.1" y1="133.0" x2="200.5" y2="116.8" opacity="0.6" stroke="rgb(0,0,0)"  stroke-width="1.1"/>
<line x1="187.1" y1="133.0" x2="174.3" y2="166.1" opacity="0.4" stroke="rgb(0,0,0)"  stroke-width="1.6"/>
<line x1="87.9" y1="145.7" x2="81.8" y2="178.7" opacity="0.5" stroke="rgb(0,0,0)"  stroke-width="1.7"/>
<line x1="87.9" y1="145.7" x2="56.2" y2="140.9" opacity="0.6" stroke="rgb(0,0,0)"  stroke-width="1.1"/>
<line x1="87.9" y1="145.7" x2="108.8" y2="160.6" opacity="0.4" stroke="rgb(0,0,0)"  stroke-width="1.0"/>
<line x1="110.1" y1="72.9" x2="128.3" y2="42.6" opacity="0.3" stroke="rgb(0,0,0)"  stroke-width="0.7"/>
<line x1="110.1" y1="72.9" x2="124.1" y2="90.4" opacity="0.2" stroke="rgb(0,0,0)"  stroke-width="0.4"/>
<line x1="110.1" y1="72.9" x2="77.4" y2="63.2" opacity="0.1" stroke="rgb(0,0,0)"  stroke-width="0.5"/>
<line x1="73.0" y1="77.6" x2="72.5" y2="92.1" opacity="0.2" stroke="rgb(0,0,0)"  stroke-width="2.6"/>
<line x1="73.0" y1="77.6" x2="79.8" y2="42.8" opacity="0.9" stroke="rgb(0,0,0)"  stroke-width="2.3"/>
<line x1="73.0" y1="77.6" x2="40.0" y2="80.3" opacity="0.8" stroke="rgb(0,0,0)"  stroke-width="2.1"/>
<line x1="171.2" y1="59.9" x2="147.1" y2="40.0" opacity="0.7" stroke="rgb(0,0,0)"  stroke-width="2.6"/>
<line x1="171.2" y1="59.9" x2="183.4" y2="41.0" opacity="0.9" stroke="rgb(0,0,0)"  stroke-width="2.1"/>
<line x1="171.2" y1="59.9" x2="198.1" y2="64.1" opacity="0.7" stroke="rgb(0,0,0)"  stroke-width="2.7"/>
<line x1="228.4" y1="137.1" x2="249.6" y2="162.7" opacity="0.9" stroke="rgb(0,0,0)"  stroke-width="2.1"/>
<line x1="228.4" y1="137.1" x2="220.3" y2="146.0" opacity="0.7" stroke="rgb(0,0,0)"  stroke-width="2.6"/>
<line x1="228.4" y1="137.1" x2="247.5" y2="106.9" opacity="0.9" stroke="rgb(0,0,0)"  stroke-width="2.2"/>
<line x1="200.5" y1="116.8" x2="203.9" y2="81.4" opacity="0.7" stroke="rgb(0,0,0)"  stroke-width="0.5"/>
<line x1="200.5" y1="116.8" x2="232.0" y2="130.8" opacity="0.2" stroke="rgb(0,0,0)"  stroke-width="0.5"/>
<line x1="200.5" y1="116.8" x2="177.5" y2="127.9" opacity="0.2" stroke="rgb(0,0,0)"  stroke-width="0.4"/>
<line x1="81.8" y1="178.7" x2="112.6" y2="187.1" opacity="0.1" stroke="rgb(0,0,0)"  stroke-width="2.3"/>
<line x1="81.8" y1="178.7" x2="67.9" y2="208.8" opacity="0.8" stroke="rgb(0,0,0)"  stroke-width="2.0"/>
<line x1="81.8" y1="178.7" x2="59.3" y2="166.5" opacity="0.7" stroke="rgb(0,0,0)"  stroke-width="2.4"/>
<circle cx="124.091862" cy="90.376216" r="5.636364" opacity="0.200000" style="stroke:black;stroke-width:0.5;fill:url(#radialffffffbfbfbf)"/>
<circle cx="177.542621" cy="127.929335" r="5.636364" opacity="0.200000" style="stroke:black;stroke-width:0.5;fill:url(#radialffffffbfbfbf)"/>
<circle cx="232.000839" cy="130.824557" r="5.636364" opacity="0.341000" style="stroke:black;stroke-width:0.5;fill:url(#radialffffffbfbfbf)"/>
<circle cx="77.370538" cy="63.207424" r="5.636364" opacity="0.354590" style="stroke:black;stroke-width:0.5;fill:url(#radialffffffbfbfbf)"/>
<circle cx="203.863712" cy="81.403635" r="5.636364" opacity="0.418715" style="stroke:black;stroke-width:0.5;fill:url(#radialffffffbfbfbf)"/>
<circle cx="200.508776" cy="116.821202" r="13.818182" opacity="0.434027" style="stroke:black;stroke-width:0.5;fill:url(#radialffffff666666)"/>
<circle cx="110.072204" cy="72.854904" r="13.818182" opacity="0.456478" style="stroke:black;stroke-width:0.5;fill:url(#radialffffff666666)"/>
<circle cx="108.774571" cy="160.582095" r="5.636364" opacity="0.484850" style="stroke:black;stroke-width:0.5;fill:url(#radialffffffbfbfbf)"/>
<circle cx="128.291238" cy="42.601788" r="5.636364" opacity="0.495176" style="stroke:black;stroke-width:0.5;fill:url(#radialffffffbfbfbf)"/>
<circle cx="56.184553" cy="140.892628" r="5.636364" opacity="0.551356" style="stroke:black;stroke-width:0.5;fill:url(#radialffffffbfbfbf)"/>
<circle cx="87.940708" cy="145.698436" r="13.818182" opacity="0.651173" style="stroke:black;stroke-width:0.5;fill:url(#radialffffff666666)"/>
<circle cx="174.288756" cy="166.128011" r="5.690064" opacity="0.710467" style="stroke:black;stroke-width:0.5;fill:url(#radialffffffbfbfbf)"/>
<circle cx="106.828121" cy="100.317131" r="14.553533" opacity="0.725678" style="stroke:black;stroke-width:0.5;fill:url(#radialffffff666666)"/>
<circle cx="187.095550" cy="132.966631" r="14.704286" opacity="0.729426" style="stroke:black;stroke-width:0.5;fill:url(#radialffffff666666)"/>
<circle cx="67.934983" cy="208.842321" r="6.785228" opacity="0.775832" style="stroke:black;stroke-width:0.5;fill:url(#radialffffffbfbfbf)"/>
<circle cx="183.424356" cy="40.961814" r="6.869814" opacity="0.780653" style="stroke:black;stroke-width:0.5;fill:url(#radialffffffbfbfbf)"/>
<circle cx="249.619962" cy="162.717648" r="7.291908" opacity="0.804278" style="stroke:black;stroke-width:0.5;fill:url(#radialffffffbfbfbf)"/>
<circle cx="40.000000" cy="80.255979" r="7.340322" opacity="0.806943" style="stroke:black;stroke-width:0.5;fill:url(#radialffffffbfbfbf)"/>
<circle cx="81.794881" cy="178.673974" r="19.386520" opacity="0.837548" style="stroke:black;stroke-width:0.5;fill:url(#radialffffff666666)"/>
<circle cx="152.160520" cy="104.258937" r="19.677113" opacity="0.843801" style="stroke:black;stroke-width:0.5;fill:url(#radialffffff666666)"/>
<circle cx="228.388332" cy="137.055154" r="20.588457" opacity="0.863121" style="stroke:black;stroke-width:0.5;fill:url(#radialffffff666666)"/>
<circle cx="247.481149" cy="106.899849" r="8.434373" opacity="0.864992" style="stroke:black;stroke-width:0.5;fill:url(#radialffffffbfbfbf)"/>
<circle cx="73.011403" cy="77.647671" r="20.811517" opacity="0.867784" style="stroke:black;stroke-width:0.5;fill:url(#radialffffff666666)"/>
<circle cx="79.806046" cy="42.790890" r="8.801932" opacity="0.883638" style="stroke:black;stroke-width:0.5;fill:url(#radialffffffbfbfbf)"/>
<circle cx="171.214212" cy="59.924215" r="22.613059" opacity="0.904564" style="stroke:black;stroke-width:0.5;fill:url(#radialffffff666666)"/>
<circle cx="112.605524" cy="187.115112" r="9.254354" opacity="0.906063" style="stroke:black;stroke-width:0.5;fill:url(#radialffffffbfbfbf)"/>
<circle cx="59.314523" cy="166.545340" r="10.030373" opacity="0.943287" style="stroke:black;stroke-width:0.5;fill:url(#radialffffffbfbfbf)"/>
<circle cx="145.160472" cy="121.216202" r="10.656420" opacity="0.972280" style="stroke:black;stroke-width:0.5;fill:url(#radialffffffbfbfbf)"/>
<circle cx="147.100402" cy="40.000000" r="10.681740" opacity="0.973434" style="stroke:black;stroke-width:0.5;fill:url(#radialffffffbfbfbf)"/>
<circle cx="198.125434" cy="64.058384" r="11.192315" opacity="0.996427" style="stroke:black;stroke-width:0.5;fill:url(#radialffffffbfbfbf)"/>
<circle cx="220.279753" cy="146.011433" r="11.265215" opacity="0.999667" style="stroke:black;stroke-width:0.5;fill:url(#radialffffffbfbfbf)"/>
<circle cx="72.541907" cy="92.149865" r="11.272727" opacity="1.000000" style="stroke:black;stroke-width:0.5;fill:url(#radialffffffbfbfbf)"/>
</svg>
</g>
</svg>
