<?xml version="1.0"?>
<svg version="1.1" id="topsvg"
xmlns="http://www.w3.org/2000/svg" xmlns:xlink="http://www.w3.org/1999/xlink"
xmlns:cml="http://www.xml-cml.org/schema" x="0" y="0" width="200px" height="200px" viewBox="0 0 100 100">
<title>521430 - Open Babel Depiction</title>
<rect x="0" y="0" width="100" height="100" fill="white"/>
<defs>
<radialGradient id='radialffffff666666' cx='50%' cy='50%' r='50%' fx='30%' fy='30%'>
  <stop offset=' 0%' stop-color="rgb(255,255,255)"  stop-opacity='1.0'/>
  <stop offset='100%' stop-color="rgb(102,102,102)"  stop-opacity ='1.0'/>
</radialGradient>
<radialGradient id='radialffffffbfbfbf' cx='50%' cy='50%' r='50%' fx='30%' fy='30%'>
  <stop offset=' 0%' stop-color="rgb(255,255,255)"  stop-opacity='1.0'/>
  <stop offset='100%' stop-color="rgb(191,191,191)"  stop-opacity ='1.0'/>
</radialGradient>
</defs>
<g transform="translate(0,0)">
<svg width="100" height="100" x="0" y="0" viewBox="0 0 272.929 281.892"
font-family="sans-serif" stroke="rgb(0,0,0)" stroke-width="4"  stroke-linecap="round">
<line x1="138.7" y1="142.2" x2="96.2" y2="163.7" opacity="1.0" stroke="rgb(0,0,0)"  stroke-width="1.7"/>
<line x1="138.7" y1="142.2" x2="128.5" y2="106.2" opacity="0.6" stroke="rgb(0,0,0)"  stroke-width="1.0"/>
<line x1="138.7" y1="142.2" x2="164.1" y2="179.8" opacity="0.3" stroke="rgb(0,0,0)"  stroke-width="1.1"/>
<line x1="138.7" y1="142.2" x2="168.5" y2="121.8" opacity="0.4" stroke="rgb(0,0,0)"  stroke-width="1.9"/>
<line x1="96.2" y1="163.7" x2="65.0" y2="132.7" opacity="0.6" stroke="rgb(0,0,0)"  stroke-width="2.2"/>
<line x1="96.2" y1="163.7" x2="69.6" y2="191.1" opacity="0.7" stroke="rgb(0,0,0)"  stroke-width="1.5"/>
<line x1="96.2" y1="163.7" x2="107.6" y2="186.2" opacity="0.5" stroke="rgb(0,0,0)"  stroke-width="2.2"/>
<line x1="128.5" y1="106.2" x2="103.9" y2="65.7" opacity="0.7" stroke="rgb(0,0,0)"  stroke-width="0.8"/>
<line x1="128.5" y1="106.2" x2="159.1" y2="95.6" opacity="0.3" stroke="rgb(0,0,0)"  stroke-width="0.4"/>
<line x1="128.5" y1="106.2" x2="109.9" y2="120.8" opacity="0.1" stroke="rgb(0,0,0)"  stroke-width="0.4"/>
<line x1="164.1" y1="179.8" x2="177.8" y2="219.1" opacity="0.1" stroke="rgb(0,0,0)"  stroke-width="1.2"/>
<line x1="164.1" y1="179.8" x2="193.5" y2="166.2" opacity="0.4" stroke="rgb(0,0,0)"  stroke-width="0.7"/>
<line x1="164.1" y1="179.8" x2="144.9" y2="191.4" opacity="0.2" stroke="rgb(0,0,0)"  stroke-width="0.5"/>
<line x1="168.5" y1="121.8" x2="212.3" y2="104.0" opacity="0.2" stroke="rgb(0,0,0)"  stroke-width="2.1"/>
<line x1="168.5" y1="121.8" x2="151.5" y2="95.5" opacity="0.7" stroke="rgb(0,0,0)"  stroke-width="2.5"/>
<line x1="168.5" y1="121.8" x2="174.9" y2="146.4" opacity="0.8" stroke="rgb(0,0,0)"  stroke-width="2.6"/>
<line x1="65.0" y1="132.7" x2="82.1" y2="108.1" opacity="0.9" stroke="rgb(0,0,0)"  stroke-width="2.7"/>
<line x1="65.0" y1="132.7" x2="42.2" y2="116.7" opacity="0.9" stroke="rgb(0,0,0)"  stroke-width="2.2"/>
<line x1="65.0" y1="132.7" x2="44.9" y2="151.5" opacity="0.7" stroke="rgb(0,0,0)"  stroke-width="2.7"/>
<line x1="69.6" y1="191.1" x2="59.2" y2="171.8" opacity="0.9" stroke="rgb(0,0,0)"  stroke-width="0.8"/>
<line x1="69.6" y1="191.1" x2="87.2" y2="219.8" opacity="0.3" stroke="rgb(0,0,0)"  stroke-width="1.0"/>
<line x1="69.6" y1="191.1" x2="40.0" y2="203.6" opacity="0.3" stroke="rgb(0,0,0)"  stroke-width="1.3"/>
<line x1="103.9" y1="65.7" x2="68.9" y2="71.3" opacity="0.4" stroke="rgb(0,0,0)"  stroke-width="1.0"/>
<line x1="103.9" y1="65.7" x2="108.2" y2="40.0" opacity="0.3" stroke="rgb(0,0,0)"  stroke-width="0.7"/>
<line x1="103.9" y1="65.7" x2="115.7" y2="52.5" opacity="0.2" stroke="rgb(0,0,0)"  stroke-width="1.3"/>
<line x1="177.8" y1="219.1" x2="199.1" y2="209.6" opacity="0.4" stroke="rgb(0,0,0)"  stroke-width="1.8"/>
<line x1="177.8" y1="219.1" x2="150.0" y2="237.0" opacity="0.6" stroke="rgb(0,0,0)"  stroke-width="1.7"/>
<line x1="177.8" y1="219.1" x2="196.2" y2="241.9" opacity="0.6" stroke="rgb(0,0,0)"  stroke-width="1.3"/>
<line x1="212.3" y1="104.0" x2="208.6" y2="77.4" opacity="0.4" stroke="rgb(0,0,0)"  stroke-width="1.6"/>
<line x1="212.3" y1="104.0" x2="230.2" y2="90.8" opacity="0.5" stroke="rgb(0,0,0)"  stroke-width="2.2"/>
<line x1="212.3" y1="104.0" x2="232.9" y2="129.3" opacity="0.7" stroke="rgb(0,0,0)"  stroke-width="1.7"/>
<circle cx="109.891411" cy="120.816733" r="5.636364" opacity="0.200000" style="stroke:black;stroke-width:0.5;fill:url(#radialffffffbfbfbf)"/>
<circle cx="144.923515" cy="191.392811" r="5.636364" opacity="0.269841" style="stroke:black;stroke-width:0.5;fill:url(#radialffffffbfbfbf)"/>
<circle cx="159.053728" cy="95.575360" r="5.636364" opacity="0.299559" style="stroke:black;stroke-width:0.5;fill:url(#radialffffffbfbfbf)"/>
<circle cx="108.205827" cy="40.000000" r="5.636364" opacity="0.363860" style="stroke:black;stroke-width:0.5;fill:url(#radialffffffbfbfbf)"/>
<circle cx="59.177183" cy="171.808088" r="5.636364" opacity="0.410131" style="stroke:black;stroke-width:0.5;fill:url(#radialffffffbfbfbf)"/>
<circle cx="193.512017" cy="166.229686" r="5.636364" opacity="0.414328" style="stroke:black;stroke-width:0.5;fill:url(#radialffffffbfbfbf)"/>
<circle cx="128.507820" cy="106.203993" r="13.818182" opacity="0.456000" style="stroke:black;stroke-width:0.5;fill:url(#radialffffff666666)"/>
<circle cx="164.064835" cy="179.766521" r="13.818182" opacity="0.537384" style="stroke:black;stroke-width:0.5;fill:url(#radialffffff666666)"/>
<circle cx="87.183305" cy="219.754306" r="5.636364" opacity="0.542855" style="stroke:black;stroke-width:0.5;fill:url(#radialffffffbfbfbf)"/>
<circle cx="103.947854" cy="65.684776" r="13.818182" opacity="0.567622" style="stroke:black;stroke-width:0.5;fill:url(#radialffffff666666)"/>
<circle cx="68.899448" cy="71.269698" r="5.636364" opacity="0.580731" style="stroke:black;stroke-width:0.5;fill:url(#radialffffffbfbfbf)"/>
<circle cx="196.198518" cy="241.891858" r="5.636364" opacity="0.584264" style="stroke:black;stroke-width:0.5;fill:url(#radialffffffbfbfbf)"/>
<circle cx="69.561292" cy="191.141766" r="13.818182" opacity="0.621324" style="stroke:black;stroke-width:0.5;fill:url(#radialffffff666666)"/>
<circle cx="208.604023" cy="77.428437" r="5.636364" opacity="0.674625" style="stroke:black;stroke-width:0.5;fill:url(#radialffffffbfbfbf)"/>
<circle cx="138.706091" cy="142.217452" r="13.818182" opacity="0.691030" style="stroke:black;stroke-width:0.5;fill:url(#radialffffff666666)"/>
<circle cx="177.816851" cy="219.102243" r="13.818182" opacity="0.706982" style="stroke:black;stroke-width:0.5;fill:url(#radialffffff666666)"/>
<circle cx="40.000000" cy="203.592916" r="5.730602" opacity="0.712994" style="stroke:black;stroke-width:0.5;fill:url(#radialffffffbfbfbf)"/>
<circle cx="232.929247" cy="129.326160" r="5.928474" opacity="0.725199" style="stroke:black;stroke-width:0.5;fill:url(#radialffffffbfbfbf)"/>
<circle cx="115.704556" cy="52.513096" r="6.329058" opacity="0.749299" style="stroke:black;stroke-width:0.5;fill:url(#radialffffffbfbfbf)"/>
<circle cx="150.045473" cy="237.017684" r="6.792847" opacity="0.776268" style="stroke:black;stroke-width:0.5;fill:url(#radialffffffbfbfbf)"/>
<circle cx="212.327305" cy="104.013060" r="17.591536" opacity="0.797832" style="stroke:black;stroke-width:0.5;fill:url(#radialffffff666666)"/>
<circle cx="96.246985" cy="163.686638" r="17.599214" opacity="0.798006" style="stroke:black;stroke-width:0.5;fill:url(#radialffffff666666)"/>
<circle cx="42.161590" cy="116.695692" r="7.345181" opacity="0.807210" style="stroke:black;stroke-width:0.5;fill:url(#radialffffffbfbfbf)"/>
<circle cx="199.096939" cy="209.572337" r="7.989190" opacity="0.841854" style="stroke:black;stroke-width:0.5;fill:url(#radialffffffbfbfbf)"/>
<circle cx="168.511907" cy="121.817650" r="20.909798" opacity="0.869830" style="stroke:black;stroke-width:0.5;fill:url(#radialffffff666666)"/>
<circle cx="65.029452" cy="132.681026" r="22.740636" opacity="0.907112" style="stroke:black;stroke-width:0.5;fill:url(#radialffffff666666)"/>
<circle cx="107.632012" cy="186.231729" r="9.396786" opacity="0.913009" style="stroke:black;stroke-width:0.5;fill:url(#radialffffffbfbfbf)"/>
<circle cx="230.171019" cy="90.753352" r="9.618289" opacity="0.923707" style="stroke:black;stroke-width:0.5;fill:url(#radialffffffbfbfbf)"/>
<circle cx="151.499574" cy="95.493852" r="10.016026" opacity="0.942613" style="stroke:black;stroke-width:0.5;fill:url(#radialffffffbfbfbf)"/>
<circle cx="174.915170" cy="146.397178" r="10.728081" opacity="0.975543" style="stroke:black;stroke-width:0.5;fill:url(#radialffffffbfbfbf)"/>
<circle cx="82.129814" cy="108.114539" r="10.958125" opacity="0.985947" style="stroke:black;stroke-width:0.5;fill:url(#radialffffffbfbfbf)"/>
<circle cx="44.942640" cy="151.476752" r="11.272727" opacity="1.000000" style="stroke:black;stroke-width:0.5;fill:url(#radialffffffbfbfbf)"/>
</svg>
</g>
</svg>
