<?xml version="1.0"?>
<svg version="1.1" id="topsvg"
xmlns="http://www.w3.org/2000/svg" xmlns:xlink="http://www.w3.org/1999/xlink"
xmlns:cml="http://www.xml-cml.org/schema" x="0" y="0" width="1024px" height="1024px" viewBox="0 0 100 100">
<title>53423723 - Open Babel Depiction</title>
<rect x="0" y="0" width="100" height="100" fill="white"/>
<defs>
<radialGradient id='radialffffff666666' cx='50%' cy='50%' r='50%' fx='30%' fy='30%'>
  <stop offset=' 0%' stop-color="rgb(255,255,255)"  stop-opacity='1.0'/>
  <stop offset='100%' stop-color="rgb(102,102,102)"  stop-opacity ='1.0'/>
</radialGradient>
<radialGradient id='radialffffffbfbfbf' cx='50%' cy='50%' r='50%' fx='30%' fy='30%'>
  <stop offset=' 0%' stop-color="rgb(255,255,255)"  stop-opacity='1.0'/>
  <stop offset='100%' stop-color="rgb(191,191,191)"  stop-opacity ='1.0'/>
</radialGradient>
</defs>
<g transform="translate(0,0)">
<svg width="100" height="100" x="0" y="0" viewBox="0 0 643.329 266.356"
font-family="sans-serif" stroke="rgb(0,0,0)" stroke-width="2"  stroke-linecap="round">
<line x1="483.9" y1="105.3" x2="442.8" y2="127.7" opacity="1.0" stroke="rgb(0,0,0)"  stroke-width="1.4"/>
<line x1="483.9" y1="105.3" x2="526.0" y2="125.2" opacity="0.5" stroke="rgb(0,0,0)"  stroke-width="1.4"/>
<line x1="483.9" y1="105.3" x2="481.1" y2="56.4" opacity="0.5" stroke="rgb(0,0,0)"  stroke-width="1.5"/>
<polygon points="483.930704 105.266711 488.163135 108.760019 480.179561 109.272408 " stroke-width="1.527512" fill="rgb(0,0,0)"  stroke="rgb(0,0,0)" />
<line x1="442.8" y1="127.7" x2="399.3" y2="113.5" opacity="0.5" stroke="rgb(0,0,0)"  stroke-width="1.4"/>
<line x1="442.8" y1="127.7" x2="445.3" y2="162.8" opacity="0.5" stroke="rgb(0,0,0)"  stroke-width="1.3"/>
<line x1="442.8" y1="127.7" x2="441.6" y2="123.1" opacity="0.4" stroke="rgb(0,0,0)"  stroke-width="0.8"/>
<line x1="526.0" y1="125.2" x2="532.9" y2="174.2" opacity="0.3" stroke="rgb(0,0,0)"  stroke-width="1.3"/>
<line x1="526.0" y1="125.2" x2="526.3" y2="120.0" opacity="0.4" stroke="rgb(0,0,0)"  stroke-width="0.7"/>
<line x1="526.0" y1="125.2" x2="554.0" y2="107.1" opacity="0.2" stroke="rgb(0,0,0)"  stroke-width="1.3"/>
<line x1="399.3" y1="113.5" x2="360.2" y2="138.3" opacity="0.4" stroke="rgb(0,0,0)"  stroke-width="1.5"/>
<line x1="399.3" y1="113.5" x2="400.5" y2="117.8" opacity="0.5" stroke="rgb(0,0,0)"  stroke-width="2.1"/>
<line x1="399.3" y1="113.5" x2="394.1" y2="78.7" opacity="0.7" stroke="rgb(0,0,0)"  stroke-width="1.6"/>
<line x1="360.2" y1="138.3" x2="316.7" y2="123.9" opacity="0.5" stroke="rgb(0,0,0)"  stroke-width="1.5"/>
<line x1="360.2" y1="138.3" x2="364.6" y2="173.2" opacity="0.5" stroke="rgb(0,0,0)"  stroke-width="1.3"/>
<line x1="360.2" y1="138.3" x2="359.1" y2="133.9" opacity="0.4" stroke="rgb(0,0,0)"  stroke-width="0.8"/>
<line x1="532.9" y1="174.2" x2="574.5" y2="191.5" opacity="0.3" stroke="rgb(0,0,0)"  stroke-width="1.1"/>
<line x1="532.9" y1="174.2" x2="534.6" y2="182.3" opacity="0.4" stroke="rgb(0,0,0)"  stroke-width="2.0"/>
<line x1="532.9" y1="174.2" x2="506.0" y2="192.9" opacity="0.7" stroke="rgb(0,0,0)"  stroke-width="1.2"/>
<line x1="316.7" y1="123.9" x2="276.3" y2="147.2" opacity="0.4" stroke="rgb(0,0,0)"  stroke-width="1.5"/>
<line x1="316.7" y1="123.9" x2="317.8" y2="128.5" opacity="0.5" stroke="rgb(0,0,0)"  stroke-width="2.1"/>
<line x1="316.7" y1="123.9" x2="312.8" y2="88.9" opacity="0.7" stroke="rgb(0,0,0)"  stroke-width="1.6"/>
<line x1="276.3" y1="147.2" x2="232.5" y2="131.5" opacity="0.5" stroke="rgb(0,0,0)"  stroke-width="1.5"/>
<line x1="276.3" y1="147.2" x2="279.5" y2="182.1" opacity="0.5" stroke="rgb(0,0,0)"  stroke-width="1.4"/>
<line x1="276.3" y1="147.2" x2="276.0" y2="143.6" opacity="0.5" stroke="rgb(0,0,0)"  stroke-width="0.8"/>
<line x1="481.1" y1="56.4" x2="511.0" y2="40.0" opacity="0.3" stroke="rgb(0,0,0)"  stroke-width="1.5"/>
<line x1="481.1" y1="56.4" x2="454.3" y2="41.1" opacity="0.5" stroke="rgb(0,0,0)"  stroke-width="1.6"/>
<line x1="481.1" y1="56.4" x2="476.8" y2="50.0" opacity="0.5" stroke="rgb(0,0,0)"  stroke-width="1.0"/>
<line x1="232.5" y1="131.5" x2="193.2" y2="154.0" opacity="0.3" stroke="rgb(0,0,0)"  stroke-width="1.5"/>
<line x1="232.5" y1="131.5" x2="229.9" y2="96.3" opacity="0.5" stroke="rgb(0,0,0)"  stroke-width="1.6"/>
<line x1="232.5" y1="131.5" x2="231.9" y2="136.5" opacity="0.5" stroke="rgb(0,0,0)"  stroke-width="2.1"/>
<line x1="193.2" y1="154.0" x2="150.6" y2="136.5" opacity="0.7" stroke="rgb(0,0,0)"  stroke-width="1.4"/>
<line x1="193.2" y1="154.0" x2="193.6" y2="148.9" opacity="0.5" stroke="rgb(0,0,0)"  stroke-width="0.8"/>
<line x1="193.2" y1="154.0" x2="195.3" y2="189.2" opacity="0.3" stroke="rgb(0,0,0)"  stroke-width="1.3"/>
<line x1="574.5" y1="191.5" x2="578.3" y2="226.4" opacity="0.4" stroke="rgb(0,0,0)"  stroke-width="0.9"/>
<line x1="574.5" y1="191.5" x2="573.6" y2="186.5" opacity="0.3" stroke="rgb(0,0,0)"  stroke-width="0.4"/>
<line x1="574.5" y1="191.5" x2="603.3" y2="174.8" opacity="0.1" stroke="rgb(0,0,0)"  stroke-width="1.0"/>
<line x1="534.6" y1="182.3" x2="503.2" y2="175.9" opacity="0.3" stroke="rgb(0,0,0)"  stroke-width="2.8"/>
<line x1="534.6" y1="182.3" x2="542.7" y2="216.3" opacity="0.9" stroke="rgb(0,0,0)"  stroke-width="2.7"/>
<line x1="534.6" y1="182.3" x2="559.2" y2="161.9" opacity="0.9" stroke="rgb(0,0,0)"  stroke-width="2.8"/>
<line x1="150.6" y1="136.5" x2="110.2" y2="158.5" opacity="0.9" stroke="rgb(0,0,0)"  stroke-width="1.4"/>
<line x1="150.6" y1="136.5" x2="148.7" y2="101.4" opacity="0.5" stroke="rgb(0,0,0)"  stroke-width="1.6"/>
<line x1="150.6" y1="136.5" x2="150.8" y2="140.8" opacity="0.5" stroke="rgb(0,0,0)"  stroke-width="2.1"/>
<line x1="110.2" y1="158.5" x2="67.8" y2="140.6" opacity="0.7" stroke="rgb(0,0,0)"  stroke-width="1.4"/>
<line x1="110.2" y1="158.5" x2="111.7" y2="193.5" opacity="0.5" stroke="rgb(0,0,0)"  stroke-width="1.3"/>
<line x1="110.2" y1="158.5" x2="110.0" y2="154.7" opacity="0.4" stroke="rgb(0,0,0)"  stroke-width="0.8"/>
<line x1="67.8" y1="140.6" x2="66.3" y2="145.0" opacity="0.3" stroke="rgb(0,0,0)"  stroke-width="2.1"/>
<line x1="67.8" y1="140.6" x2="64.6" y2="105.9" opacity="0.7" stroke="rgb(0,0,0)"  stroke-width="1.6"/>
<line x1="67.8" y1="140.6" x2="40.0" y2="157.5" opacity="0.5" stroke="rgb(0,0,0)"  stroke-width="1.5"/>
<circle cx="573.629343" cy="186.497262" r="5.636364" opacity="0.200000" style="stroke:black;stroke-width:0.5;fill:url(#radialffffffbfbfbf)"/>
<circle cx="526.310164" cy="119.985053" r="5.636364" opacity="0.318665" style="stroke:black;stroke-width:0.5;fill:url(#radialffffffbfbfbf)"/>
<circle cx="441.645550" cy="123.100425" r="5.636364" opacity="0.323716" style="stroke:black;stroke-width:0.5;fill:url(#radialffffffbfbfbf)"/>
<circle cx="193.596277" cy="148.940449" r="5.636364" opacity="0.330844" style="stroke:black;stroke-width:0.5;fill:url(#radialffffffbfbfbf)"/>
<circle cx="110.001555" cy="154.650880" r="5.636364" opacity="0.330925" style="stroke:black;stroke-width:0.5;fill:url(#radialffffffbfbfbf)"/>
<circle cx="359.088201" cy="133.932683" r="5.636364" opacity="0.341728" style="stroke:black;stroke-width:0.5;fill:url(#radialffffffbfbfbf)"/>
<circle cx="275.961761" cy="143.597489" r="5.636364" opacity="0.361666" style="stroke:black;stroke-width:0.5;fill:url(#radialffffffbfbfbf)"/>
<circle cx="476.756894" cy="50.019269" r="5.636364" opacity="0.428861" style="stroke:black;stroke-width:0.5;fill:url(#radialffffffbfbfbf)"/>
<circle cx="574.507370" cy="191.459744" r="13.818182" opacity="0.539139" style="stroke:black;stroke-width:0.5;fill:url(#radialffffff666666)"/>
<circle cx="578.295896" cy="226.356459" r="5.636364" opacity="0.583265" style="stroke:black;stroke-width:0.5;fill:url(#radialffffffbfbfbf)"/>
<circle cx="505.998462" cy="192.936131" r="5.636364" opacity="0.592999" style="stroke:black;stroke-width:0.5;fill:url(#radialffffffbfbfbf)"/>
<circle cx="525.994725" cy="125.249966" r="13.818182" opacity="0.626744" style="stroke:black;stroke-width:0.5;fill:url(#radialffffff666666)"/>
<circle cx="603.329436" cy="174.848764" r="5.636364" opacity="0.629008" style="stroke:black;stroke-width:0.5;fill:url(#radialffffffbfbfbf)"/>
<circle cx="442.842269" cy="127.731207" r="13.818182" opacity="0.629711" style="stroke:black;stroke-width:0.5;fill:url(#radialffffff666666)"/>
<circle cx="193.215799" cy="154.013497" r="13.818182" opacity="0.632812" style="stroke:black;stroke-width:0.5;fill:url(#radialffffff666666)"/>
<circle cx="110.164153" cy="158.514201" r="13.818182" opacity="0.633870" style="stroke:black;stroke-width:0.5;fill:url(#radialffffff666666)"/>
<circle cx="360.206873" cy="138.283797" r="13.818182" opacity="0.639199" style="stroke:black;stroke-width:0.5;fill:url(#radialffffff666666)"/>
<circle cx="276.270696" cy="147.164882" r="13.818182" opacity="0.650839" style="stroke:black;stroke-width:0.5;fill:url(#radialffffff666666)"/>
<circle cx="40.000000" cy="157.502843" r="5.636364" opacity="0.657317" style="stroke:black;stroke-width:0.5;fill:url(#radialffffffbfbfbf)"/>
<circle cx="445.251966" cy="162.845803" r="5.636364" opacity="0.664054" style="stroke:black;stroke-width:0.5;fill:url(#radialffffffbfbfbf)"/>
<circle cx="195.300301" cy="189.157360" r="5.636364" opacity="0.668641" style="stroke:black;stroke-width:0.5;fill:url(#radialffffffbfbfbf)"/>
<circle cx="111.660052" cy="193.527986" r="5.636364" opacity="0.675286" style="stroke:black;stroke-width:0.5;fill:url(#radialffffffbfbfbf)"/>
<circle cx="364.600263" cy="173.180512" r="5.636364" opacity="0.676357" style="stroke:black;stroke-width:0.5;fill:url(#radialffffffbfbfbf)"/>
<circle cx="532.944150" cy="174.162602" r="13.818182" opacity="0.681963" style="stroke:black;stroke-width:0.5;fill:url(#radialffffff666666)"/>
<circle cx="481.095000" cy="56.367083" r="13.818182" opacity="0.686040" style="stroke:black;stroke-width:0.5;fill:url(#radialffffff666666)"/>
<circle cx="279.460863" cy="182.103873" r="5.636364" opacity="0.690851" style="stroke:black;stroke-width:0.5;fill:url(#radialffffffbfbfbf)"/>
<circle cx="64.594526" cy="105.884582" r="5.636364" opacity="0.702169" style="stroke:black;stroke-width:0.5;fill:url(#radialffffffbfbfbf)"/>
<circle cx="553.968031" cy="107.139836" r="5.636364" opacity="0.706282" style="stroke:black;stroke-width:0.5;fill:url(#radialffffffbfbfbf)"/>
<circle cx="148.660781" cy="101.374122" r="5.711177" opacity="0.711784" style="stroke:black;stroke-width:0.5;fill:url(#radialffffffbfbfbf)"/>
<circle cx="394.108491" cy="78.721013" r="5.746543" opacity="0.713985" style="stroke:black;stroke-width:0.5;fill:url(#radialffffffbfbfbf)"/>
<circle cx="312.786884" cy="88.876864" r="5.907655" opacity="0.723924" style="stroke:black;stroke-width:0.5;fill:url(#radialffffffbfbfbf)"/>
<circle cx="229.888081" cy="96.278311" r="5.936371" opacity="0.725681" style="stroke:black;stroke-width:0.5;fill:url(#radialffffffbfbfbf)"/>
<circle cx="483.930704" cy="105.266711" r="15.136158" opacity="0.740061" style="stroke:black;stroke-width:0.5;fill:url(#radialffffff666666)"/>
<circle cx="67.778189" cy="140.618699" r="15.243611" opacity="0.742683" style="stroke:black;stroke-width:0.5;fill:url(#radialffffff666666)"/>
<circle cx="510.986958" cy="40.000000" r="6.271896" opacity="0.745907" style="stroke:black;stroke-width:0.5;fill:url(#radialffffffbfbfbf)"/>
<circle cx="150.631465" cy="136.478962" r="15.383672" opacity="0.746087" style="stroke:black;stroke-width:0.5;fill:url(#radialffffff666666)"/>
<circle cx="399.262837" cy="113.451878" r="15.457037" opacity="0.747864" style="stroke:black;stroke-width:0.5;fill:url(#radialffffff666666)"/>
<circle cx="316.666465" cy="123.926421" r="15.731229" opacity="0.754468" style="stroke:black;stroke-width:0.5;fill:url(#radialffffff666666)"/>
<circle cx="232.489643" cy="131.461198" r="15.767541" opacity="0.755338" style="stroke:black;stroke-width:0.5;fill:url(#radialffffff666666)"/>
<circle cx="454.269634" cy="41.105664" r="6.949596" opacity="0.785173" style="stroke:black;stroke-width:0.5;fill:url(#radialffffffbfbfbf)"/>
<circle cx="484.171348" cy="109.016213" r="9.468752" opacity="0.916499" style="stroke:black;stroke-width:0.5;fill:url(#radialffffffbfbfbf)"/>
<circle cx="66.253022" cy="144.999081" r="9.498073" opacity="0.917917" style="stroke:black;stroke-width:0.5;fill:url(#radialffffffbfbfbf)"/>
<circle cx="150.797315" cy="140.807313" r="9.566992" opacity="0.921241" style="stroke:black;stroke-width:0.5;fill:url(#radialffffffbfbfbf)"/>
<circle cx="400.501831" cy="117.832260" r="9.592987" opacity="0.922492" style="stroke:black;stroke-width:0.5;fill:url(#radialffffffbfbfbf)"/>
<circle cx="317.807901" cy="128.479156" r="9.704527" opacity="0.927839" style="stroke:black;stroke-width:0.5;fill:url(#radialffffffbfbfbf)"/>
<circle cx="231.940063" cy="136.547253" r="9.713293" opacity="0.928258" style="stroke:black;stroke-width:0.5;fill:url(#radialffffffbfbfbf)"/>
<circle cx="534.602646" cy="182.250211" r="24.048890" opacity="0.932840" style="stroke:black;stroke-width:0.5;fill:url(#radialffffff666666)"/>
<circle cx="542.667491" cy="216.278654" r="10.444797" opacity="0.962577" style="stroke:black;stroke-width:0.5;fill:url(#radialffffffbfbfbf)"/>
<circle cx="503.179018" cy="175.873130" r="11.241895" opacity="0.998632" style="stroke:black;stroke-width:0.5;fill:url(#radialffffffbfbfbf)"/>
<circle cx="559.216684" cy="161.876721" r="11.272727" opacity="1.000000" style="stroke:black;stroke-width:0.5;fill:url(#radialffffffbfbfbf)"/>
</svg>
</g>
</svg>
