<?xml version="1.0"?>
<svg version="1.1" id="topsvg"
xmlns="http://www.w3.org/2000/svg" xmlns:xlink="http://www.w3.org/1999/xlink"
xmlns:cml="http://www.xml-cml.org/schema" x="0" y="0" width="1024px" height="1024px" viewBox="0 0 100 100">
<title>534581 - Open Babel Depiction</title>
<rect x="0" y="0" width="100" height="100" fill="white"/>
<defs>
<radialGradient id='radialffffff666666' cx='50%' cy='50%' r='50%' fx='30%' fy='30%'>
  <stop offset=' 0%' stop-color="rgb(255,255,255)"  stop-opacity='1.0'/>
  <stop offset='100%' stop-color="rgb(102,102,102)"  stop-opacity ='1.0'/>
</radialGradient>
<radialGradient id='radialffffffb2b20' cx='50%' cy='50%' r='50%' fx='30%' fy='30%'>
  <stop offset=' 0%' stop-color="rgb(255,255,255)"  stop-opacity='1.0'/>
  <stop offset='100%' stop-color="rgb(178,178,0)"  stop-opacity ='1.0'/>
</radialGradient>
<radialGradient id='radialffffffbfbfbf' cx='50%' cy='50%' r='50%' fx='30%' fy='30%'>
  <stop offset=' 0%' stop-color="rgb(255,255,255)"  stop-opacity='1.0'/>
  <stop offset='100%' stop-color="rgb(191,191,191)"  stop-opacity ='1.0'/>
</radialGradient>
</defs>
<g transform="translate(0,0)">
<svg width="100" height="100" x="0" y="0" viewBox="0 0 840.307 156.33"
font-family="sans-serif" stroke="rgb(0,0,0)" stroke-width="2"  stroke-linecap="round">
<line x1="68.2" y1="94.3" x2="116.3" y2="61.3" opacity="1.0" stroke="rgb(0,0,0)"  stroke-width="1.7"/>
<line x1="68.2" y1="94.3" x2="40.0" y2="61.7" opacity="0.6" stroke="rgb(0,0,0)"  stroke-width="1.8"/>
<line x1="444.5" y1="66.3" x2="402.8" y2="92.3" opacity="0.6" stroke="rgb(0,0,0)"  stroke-width="1.3"/>
<line x1="444.5" y1="66.3" x2="485.0" y2="94.3" opacity="0.4" stroke="rgb(0,0,0)"  stroke-width="1.4"/>
<line x1="444.5" y1="66.3" x2="445.5" y2="45.0" opacity="0.5" stroke="rgb(0,0,0)"  stroke-width="0.7"/>
<line x1="444.5" y1="66.3" x2="444.4" y2="45.6" opacity="0.2" stroke="rgb(0,0,0)"  stroke-width="2.0"/>
<line x1="402.8" y1="92.3" x2="362.4" y2="64.4" opacity="0.7" stroke="rgb(0,0,0)"  stroke-width="1.3"/>
<line x1="402.8" y1="92.3" x2="402.6" y2="114.6" opacity="0.4" stroke="rgb(0,0,0)"  stroke-width="1.9"/>
<line x1="402.8" y1="92.3" x2="402.2" y2="112.0" opacity="0.6" stroke="rgb(0,0,0)"  stroke-width="0.7"/>
<line x1="485.0" y1="94.3" x2="525.5" y2="66.7" opacity="0.2" stroke="rgb(0,0,0)"  stroke-width="1.4"/>
<line x1="485.0" y1="94.3" x2="486.2" y2="113.9" opacity="0.5" stroke="rgb(0,0,0)"  stroke-width="0.7"/>
<line x1="485.0" y1="94.3" x2="483.6" y2="116.3" opacity="0.2" stroke="rgb(0,0,0)"  stroke-width="2.0"/>
<line x1="362.4" y1="64.4" x2="321.7" y2="92.0" opacity="0.7" stroke="rgb(0,0,0)"  stroke-width="1.4"/>
<line x1="362.4" y1="64.4" x2="363.0" y2="44.5" opacity="0.5" stroke="rgb(0,0,0)"  stroke-width="2.0"/>
<line x1="362.4" y1="64.4" x2="362.1" y2="42.5" opacity="0.7" stroke="rgb(0,0,0)"  stroke-width="0.8"/>
<line x1="525.5" y1="66.7" x2="567.1" y2="93.0" opacity="0.3" stroke="rgb(0,0,0)"  stroke-width="1.6"/>
<line x1="525.5" y1="66.7" x2="523.7" y2="46.5" opacity="0.5" stroke="rgb(0,0,0)"  stroke-width="2.2"/>
<line x1="525.5" y1="66.7" x2="526.9" y2="44.8" opacity="0.7" stroke="rgb(0,0,0)"  stroke-width="0.9"/>
<line x1="321.7" y1="92.0" x2="281.3" y2="64.0" opacity="0.3" stroke="rgb(0,0,0)"  stroke-width="1.4"/>
<line x1="321.7" y1="92.0" x2="321.8" y2="113.3" opacity="0.5" stroke="rgb(0,0,0)"  stroke-width="2.0"/>
<line x1="321.7" y1="92.0" x2="321.3" y2="112.4" opacity="0.7" stroke="rgb(0,0,0)"  stroke-width="0.7"/>
<line x1="567.1" y1="93.0" x2="608.8" y2="67.1" opacity="0.2" stroke="rgb(0,0,0)"  stroke-width="1.6"/>
<line x1="567.1" y1="93.0" x2="568.3" y2="113.6" opacity="0.5" stroke="rgb(0,0,0)"  stroke-width="1.0"/>
<line x1="567.1" y1="93.0" x2="565.6" y2="114.6" opacity="0.3" stroke="rgb(0,0,0)"  stroke-width="2.2"/>
<line x1="281.3" y1="64.0" x2="239.6" y2="90.0" opacity="0.7" stroke="rgb(0,0,0)"  stroke-width="1.5"/>
<line x1="281.3" y1="64.0" x2="282.8" y2="42.2" opacity="0.5" stroke="rgb(0,0,0)"  stroke-width="2.0"/>
<line x1="281.3" y1="64.0" x2="280.5" y2="43.8" opacity="0.7" stroke="rgb(0,0,0)"  stroke-width="0.8"/>
<line x1="608.8" y1="67.1" x2="649.2" y2="95.1" opacity="0.3" stroke="rgb(0,0,0)"  stroke-width="1.7"/>
<line x1="608.8" y1="67.1" x2="608.4" y2="47.3" opacity="0.6" stroke="rgb(0,0,0)"  stroke-width="2.4"/>
<line x1="608.8" y1="67.1" x2="609.9" y2="44.9" opacity="0.8" stroke="rgb(0,0,0)"  stroke-width="1.1"/>
<line x1="239.6" y1="90.0" x2="198.1" y2="63.6" opacity="0.4" stroke="rgb(0,0,0)"  stroke-width="1.6"/>
<line x1="239.6" y1="90.0" x2="237.8" y2="111.2" opacity="0.5" stroke="rgb(0,0,0)"  stroke-width="0.9"/>
<line x1="239.6" y1="90.0" x2="241.1" y2="111.0" opacity="0.3" stroke="rgb(0,0,0)"  stroke-width="2.1"/>
<line x1="649.2" y1="95.1" x2="689.9" y2="67.4" opacity="0.7" stroke="rgb(0,0,0)"  stroke-width="1.7"/>
<line x1="649.2" y1="95.1" x2="649.0" y2="115.9" opacity="0.6" stroke="rgb(0,0,0)"  stroke-width="1.1"/>
<line x1="649.2" y1="95.1" x2="649.4" y2="116.0" opacity="0.4" stroke="rgb(0,0,0)"  stroke-width="2.3"/>
<line x1="198.1" y1="63.6" x2="156.3" y2="89.6" opacity="0.8" stroke="rgb(0,0,0)"  stroke-width="1.6"/>
<line x1="198.1" y1="63.6" x2="199.3" y2="43.5" opacity="0.5" stroke="rgb(0,0,0)"  stroke-width="2.3"/>
<line x1="198.1" y1="63.6" x2="197.4" y2="41.6" opacity="0.8" stroke="rgb(0,0,0)"  stroke-width="1.0"/>
<line x1="689.9" y1="67.4" x2="731.3" y2="93.8" opacity="0.3" stroke="rgb(0,0,0)"  stroke-width="1.6"/>
<line x1="689.9" y1="67.4" x2="690.2" y2="46.6" opacity="0.5" stroke="rgb(0,0,0)"  stroke-width="2.3"/>
<line x1="689.9" y1="67.4" x2="689.1" y2="46.1" opacity="0.8" stroke="rgb(0,0,0)"  stroke-width="1.0"/>
<line x1="156.3" y1="89.6" x2="116.3" y2="61.3" opacity="0.3" stroke="rgb(0,0,0)"  stroke-width="1.7"/>
<line x1="156.3" y1="89.6" x2="156.9" y2="111.2" opacity="0.6" stroke="rgb(0,0,0)"  stroke-width="2.3"/>
<line x1="156.3" y1="89.6" x2="155.5" y2="109.8" opacity="0.8" stroke="rgb(0,0,0)"  stroke-width="1.0"/>
<line x1="731.3" y1="93.8" x2="771.8" y2="66.5" opacity="0.3" stroke="rgb(0,0,0)"  stroke-width="1.6"/>
<line x1="731.3" y1="93.8" x2="730.6" y2="115.5" opacity="0.5" stroke="rgb(0,0,0)"  stroke-width="1.0"/>
<line x1="731.3" y1="93.8" x2="733.1" y2="114.0" opacity="0.3" stroke="rgb(0,0,0)"  stroke-width="2.3"/>
<line x1="116.3" y1="61.3" x2="115.1" y2="40.0" opacity="0.8" stroke="rgb(0,0,0)"  stroke-width="1.1"/>
<line x1="116.3" y1="61.3" x2="116.4" y2="41.4" opacity="0.4" stroke="rgb(0,0,0)"  stroke-width="2.4"/>
<line x1="771.8" y1="66.5" x2="774.2" y2="45.0" opacity="0.8" stroke="rgb(0,0,0)"  stroke-width="2.1"/>
<line x1="771.8" y1="66.5" x2="771.7" y2="46.8" opacity="0.7" stroke="rgb(0,0,0)"  stroke-width="0.9"/>
<line x1="771.8" y1="66.5" x2="800.3" y2="86.9" opacity="0.3" stroke="rgb(0,0,0)"  stroke-width="1.5"/>
<circle cx="402.191514" cy="111.982352" r="5.636364" opacity="0.200000" style="stroke:black;stroke-width:0.5;fill:url(#radialffffffbfbfbf)"/>
<circle cx="486.237284" cy="113.928169" r="5.636364" opacity="0.200000" style="stroke:black;stroke-width:0.5;fill:url(#radialffffffbfbfbf)"/>
<circle cx="321.279599" cy="112.393350" r="5.636364" opacity="0.200000" style="stroke:black;stroke-width:0.5;fill:url(#radialffffffbfbfbf)"/>
<circle cx="445.526059" cy="44.992977" r="5.636364" opacity="0.200000" style="stroke:black;stroke-width:0.5;fill:url(#radialffffffbfbfbf)"/>
<circle cx="280.497734" cy="43.817781" r="5.636364" opacity="0.200000" style="stroke:black;stroke-width:0.5;fill:url(#radialffffffbfbfbf)"/>
<circle cx="362.109628" cy="42.465985" r="5.636364" opacity="0.223180" style="stroke:black;stroke-width:0.5;fill:url(#radialffffffbfbfbf)"/>
<circle cx="771.681443" cy="46.819989" r="5.636364" opacity="0.261622" style="stroke:black;stroke-width:0.5;fill:url(#radialffffffbfbfbf)"/>
<circle cx="237.843903" cy="111.198888" r="5.636364" opacity="0.296629" style="stroke:black;stroke-width:0.5;fill:url(#radialffffffbfbfbf)"/>
<circle cx="526.929243" cy="44.819587" r="5.636364" opacity="0.310831" style="stroke:black;stroke-width:0.5;fill:url(#radialffffffbfbfbf)"/>
<circle cx="568.321183" cy="113.584600" r="5.636364" opacity="0.327046" style="stroke:black;stroke-width:0.5;fill:url(#radialffffffbfbfbf)"/>
<circle cx="155.471021" cy="109.824616" r="5.636364" opacity="0.343397" style="stroke:black;stroke-width:0.5;fill:url(#radialffffffbfbfbf)"/>
<circle cx="730.581697" cy="115.504729" r="5.636364" opacity="0.360529" style="stroke:black;stroke-width:0.5;fill:url(#radialffffffbfbfbf)"/>
<circle cx="197.383130" cy="41.554084" r="5.636364" opacity="0.363688" style="stroke:black;stroke-width:0.5;fill:url(#radialffffffbfbfbf)"/>
<circle cx="689.122328" cy="46.136064" r="5.636364" opacity="0.375488" style="stroke:black;stroke-width:0.5;fill:url(#radialffffffbfbfbf)"/>
<circle cx="648.992279" cy="115.899672" r="5.636364" opacity="0.377514" style="stroke:black;stroke-width:0.5;fill:url(#radialffffffbfbfbf)"/>
<circle cx="115.071255" cy="40.000000" r="5.636364" opacity="0.394553" style="stroke:black;stroke-width:0.5;fill:url(#radialffffffbfbfbf)"/>
<circle cx="609.902567" cy="44.887017" r="5.636364" opacity="0.402388" style="stroke:black;stroke-width:0.5;fill:url(#radialffffffbfbfbf)"/>
<circle cx="402.798377" cy="92.280162" r="13.818182" opacity="0.658341" style="stroke:black;stroke-width:0.5;fill:url(#radialffffff666666)"/>
<circle cx="444.540307" cy="66.287783" r="13.818182" opacity="0.668828" style="stroke:black;stroke-width:0.5;fill:url(#radialffffff666666)"/>
<circle cx="321.687386" cy="91.955859" r="13.818182" opacity="0.674187" style="stroke:black;stroke-width:0.5;fill:url(#radialffffff666666)"/>
<circle cx="484.959338" cy="94.261298" r="13.818182" opacity="0.676446" style="stroke:black;stroke-width:0.5;fill:url(#radialffffff666666)"/>
<circle cx="362.388978" cy="64.370865" r="13.818182" opacity="0.677502" style="stroke:black;stroke-width:0.5;fill:url(#radialffffff666666)"/>
<circle cx="281.294041" cy="64.001610" r="13.818182" opacity="0.682059" style="stroke:black;stroke-width:0.5;fill:url(#radialffffff666666)"/>
<circle cx="800.306774" cy="86.937195" r="5.636364" opacity="0.700912" style="stroke:black;stroke-width:0.5;fill:url(#radialffffffbfbfbf)"/>
<circle cx="771.752083" cy="66.467594" r="13.845845" opacity="0.707814" style="stroke:black;stroke-width:0.5;fill:url(#radialffffff666666)"/>
<circle cx="239.619541" cy="89.968301" r="13.945957" opacity="0.710369" style="stroke:black;stroke-width:0.5;fill:url(#radialffffff666666)"/>
<circle cx="525.513229" cy="66.685937" r="13.984158" opacity="0.711341" style="stroke:black;stroke-width:0.5;fill:url(#radialffffff666666)"/>
<circle cx="567.052871" cy="92.973720" r="14.671774" opacity="0.728620" style="stroke:black;stroke-width:0.5;fill:url(#radialffffff666666)"/>
<circle cx="198.134485" cy="63.613089" r="14.923373" opacity="0.734840" style="stroke:black;stroke-width:0.5;fill:url(#radialffffff666666)"/>
<circle cx="731.345895" cy="93.766816" r="14.951036" opacity="0.735521" style="stroke:black;stroke-width:0.5;fill:url(#radialffffff666666)"/>
<circle cx="156.312282" cy="89.566936" r="15.084080" opacity="0.738787" style="stroke:black;stroke-width:0.5;fill:url(#radialffffff666666)"/>
<circle cx="689.899370" cy="67.405182" r="15.414715" opacity="0.746840" style="stroke:black;stroke-width:0.5;fill:url(#radialffffff666666)"/>
<circle cx="649.245941" cy="95.054394" r="15.580692" opacity="0.750850" style="stroke:black;stroke-width:0.5;fill:url(#radialffffff666666)"/>
<circle cx="608.817277" cy="67.109778" r="15.679487" opacity="0.753226" style="stroke:black;stroke-width:0.5;fill:url(#radialffffff666666)"/>
<circle cx="116.294615" cy="61.330126" r="15.750620" opacity="0.754933" style="stroke:black;stroke-width:0.5;fill:url(#radialffffff666666)"/>
<circle cx="68.153326" cy="94.261298" r="21.935436" opacity="0.757957" style="stroke:black;stroke-width:0.5;fill:url(#radialffffffb2b20)"/>
<circle cx="40.000000" cy="61.712225" r="6.720114" opacity="0.772100" style="stroke:black;stroke-width:0.5;fill:url(#radialffffffbfbfbf)"/>
<circle cx="402.570402" cy="114.554297" r="9.452864" opacity="0.915730" style="stroke:black;stroke-width:0.5;fill:url(#radialffffffbfbfbf)"/>
<circle cx="483.562589" cy="116.329935" r="9.743011" opacity="0.929677" style="stroke:black;stroke-width:0.5;fill:url(#radialffffffbfbfbf)"/>
<circle cx="321.764448" cy="113.305250" r="9.809637" opacity="0.932850" style="stroke:black;stroke-width:0.5;fill:url(#radialffffffbfbfbf)"/>
<circle cx="444.373339" cy="45.567731" r="9.810712" opacity="0.932901" style="stroke:black;stroke-width:0.5;fill:url(#radialffffffbfbfbf)"/>
<circle cx="282.755009" cy="42.186635" r="9.866054" opacity="0.935529" style="stroke:black;stroke-width:0.5;fill:url(#radialffffffbfbfbf)"/>
<circle cx="363.015107" cy="44.514550" r="10.039068" opacity="0.943696" style="stroke:black;stroke-width:0.5;fill:url(#radialffffffbfbfbf)"/>
<circle cx="774.246966" cy="45.044352" r="10.291065" opacity="0.955467" style="stroke:black;stroke-width:0.5;fill:url(#radialffffffbfbfbf)"/>
<circle cx="241.064454" cy="110.986968" r="10.414109" opacity="0.961162" style="stroke:black;stroke-width:0.5;fill:url(#radialffffffbfbfbf)"/>
<circle cx="523.689427" cy="46.543850" r="10.530167" opacity="0.966503" style="stroke:black;stroke-width:0.5;fill:url(#radialffffffbfbfbf)"/>
<circle cx="565.604747" cy="114.631359" r="10.629032" opacity="0.971029" style="stroke:black;stroke-width:0.5;fill:url(#radialffffffbfbfbf)"/>
<circle cx="156.870981" cy="111.214943" r="10.805269" opacity="0.979046" style="stroke:black;stroke-width:0.5;fill:url(#radialffffffbfbfbf)"/>
<circle cx="733.079791" cy="113.973121" r="10.913805" opacity="0.983951" style="stroke:black;stroke-width:0.5;fill:url(#radialffffffbfbfbf)"/>
<circle cx="199.293626" cy="43.454947" r="10.919178" opacity="0.984193" style="stroke:black;stroke-width:0.5;fill:url(#radialffffffbfbfbf)"/>
<circle cx="690.204407" cy="46.649811" r="11.050282" opacity="0.990084" style="stroke:black;stroke-width:0.5;fill:url(#radialffffffbfbfbf)"/>
<circle cx="649.351902" cy="115.989578" r="11.091117" opacity="0.991912" style="stroke:black;stroke-width:0.5;fill:url(#radialffffffbfbfbf)"/>
<circle cx="116.403786" cy="41.396749" r="11.268429" opacity="0.999809" style="stroke:black;stroke-width:0.5;fill:url(#radialffffffbfbfbf)"/>
<circle cx="608.412701" cy="47.343369" r="11.272727" opacity="1.000000" style="stroke:black;stroke-width:0.5;fill:url(#radialffffffbfbfbf)"/>
</svg>
</g>
</svg>
