<?xml version="1.0"?>
<svg version="1.1" id="topsvg"
xmlns="http://www.w3.org/2000/svg" xmlns:xlink="http://www.w3.org/1999/xlink"
xmlns:cml="http://www.xml-cml.org/schema" x="0" y="0" width="1024px" height="1024px" viewBox="0 0 100 100">
<title>643835 - Open Babel Depiction</title>
<rect x="0" y="0" width="100" height="100" fill="white"/>
<defs>
<radialGradient id='radialffffff666666' cx='50%' cy='50%' r='50%' fx='30%' fy='30%'>
  <stop offset=' 0%' stop-color="rgb(255,255,255)"  stop-opacity='1.0'/>
  <stop offset='100%' stop-color="rgb(102,102,102)"  stop-opacity ='1.0'/>
</radialGradient>
<radialGradient id='radialffffffbfbfbf' cx='50%' cy='50%' r='50%' fx='30%' fy='30%'>
  <stop offset=' 0%' stop-color="rgb(255,255,255)"  stop-opacity='1.0'/>
  <stop offset='100%' stop-color="rgb(191,191,191)"  stop-opacity ='1.0'/>
</radialGradient>
</defs>
<g transform="translate(0,0)">
<svg width="100" height="100" x="0" y="0" viewBox="0 0 285.329 206.158"
font-family="sans-serif" stroke="rgb(0,0,0)" stroke-width="2"  stroke-linecap="round">
<line x1="180.0" y1="107.0" x2="147.8" y2="91.5" opacity="1.0" stroke="rgb(0,0,0)"  stroke-width="1.5"/>
<line x1="180.0" y1="107.0" x2="222.7" y2="124.8" opacity="0.5" stroke="rgb(0,0,0)"  stroke-width="1.8"/>
<line x1="180.0" y1="107.0" x2="187.9" y2="79.4" opacity="0.6" stroke="rgb(0,0,0)"  stroke-width="2.6"/>
<line x1="180.0" y1="107.0" x2="164.7" y2="133.0" opacity="0.9" stroke="rgb(0,0,0)"  stroke-width="2.6"/>
<line x1="147.8" y1="91.5" x2="105.3" y2="74.7" opacity="0.9" stroke="rgb(0,0,0)"  stroke-width="1.2"/>
<line x1="147.8" y1="91.5" x2="141.9" y2="117.8" opacity="0.4" stroke="rgb(0,0,0)"  stroke-width="0.4"/>
<line x1="147.8" y1="91.5" x2="162.9" y2="64.2" opacity="0.1" stroke="rgb(0,0,0)"  stroke-width="0.5"/>
<line x1="222.7" y1="124.8" x2="245.3" y2="135.6" opacity="0.2" stroke="rgb(0,0,0)"  stroke-width="1.9"/>
<line x1="222.7" y1="124.8" x2="216.1" y2="153.3" opacity="0.6" stroke="rgb(0,0,0)"  stroke-width="1.1"/>
<line x1="222.7" y1="124.8" x2="239.5" y2="99.4" opacity="0.4" stroke="rgb(0,0,0)"  stroke-width="1.1"/>
<line x1="107.1" y1="77.1" x2="71.2" y2="102.5" opacity="0.4" stroke="rgb(0,0,0)"  stroke-width="1.7"/>
<line x1="103.6" y1="72.2" x2="67.7" y2="97.6" opacity="0.4" stroke="rgb(0,0,0)"  stroke-width="1.7"/>
<line x1="105.3" y1="74.7" x2="104.2" y2="40.0" opacity="0.6" stroke="rgb(0,0,0)"  stroke-width="1.8"/>
<line x1="69.4" y1="100.1" x2="67.2" y2="148.2" opacity="0.6" stroke="rgb(0,0,0)"  stroke-width="1.6"/>
<line x1="69.4" y1="100.1" x2="40.0" y2="85.1" opacity="0.5" stroke="rgb(0,0,0)"  stroke-width="2.1"/>
<line x1="67.2" y1="148.2" x2="51.8" y2="166.2" opacity="0.7" stroke="rgb(0,0,0)"  stroke-width="1.9"/>
<line x1="67.2" y1="148.2" x2="46.4" y2="152.9" opacity="0.6" stroke="rgb(0,0,0)"  stroke-width="0.9"/>
<line x1="67.2" y1="148.2" x2="99.3" y2="163.8" opacity="0.3" stroke="rgb(0,0,0)"  stroke-width="1.3"/>
<circle cx="141.911837" cy="117.768366" r="5.636364" opacity="0.200000" style="stroke:black;stroke-width:0.5;fill:url(#radialffffffbfbfbf)"/>
<circle cx="162.865796" cy="64.226358" r="5.636364" opacity="0.257628" style="stroke:black;stroke-width:0.5;fill:url(#radialffffffbfbfbf)"/>
<circle cx="46.355813" cy="152.899403" r="5.636364" opacity="0.349214" style="stroke:black;stroke-width:0.5;fill:url(#radialffffffbfbfbf)"/>
<circle cx="216.069623" cy="153.310525" r="5.636364" opacity="0.476705" style="stroke:black;stroke-width:0.5;fill:url(#radialffffffbfbfbf)"/>
<circle cx="239.526785" cy="99.370657" r="5.636364" opacity="0.500040" style="stroke:black;stroke-width:0.5;fill:url(#radialffffffbfbfbf)"/>
<circle cx="147.793533" cy="91.459874" r="13.818182" opacity="0.542718" style="stroke:black;stroke-width:0.5;fill:url(#radialffffff666666)"/>
<circle cx="99.284454" cy="163.787505" r="5.636364" opacity="0.636409" style="stroke:black;stroke-width:0.5;fill:url(#radialffffffbfbfbf)"/>
<circle cx="67.180468" cy="148.151607" r="13.818182" opacity="0.690598" style="stroke:black;stroke-width:0.5;fill:url(#radialffffff666666)"/>
<circle cx="222.703939" cy="124.843643" r="13.818182" opacity="0.698313" style="stroke:black;stroke-width:0.5;fill:url(#radialffffff666666)"/>
<circle cx="105.341872" cy="74.683445" r="14.774143" opacity="0.731157" style="stroke:black;stroke-width:0.5;fill:url(#radialffffff666666)"/>
<circle cx="69.448270" cy="100.050335" r="17.006566" opacity="0.784455" style="stroke:black;stroke-width:0.5;fill:url(#radialffffff666666)"/>
<circle cx="104.154923" cy="40.000000" r="7.348533" opacity="0.807395" style="stroke:black;stroke-width:0.5;fill:url(#radialffffffbfbfbf)"/>
<circle cx="180.000300" cy="106.966467" r="20.162790" opacity="0.854151" style="stroke:black;stroke-width:0.5;fill:url(#radialffffff666666)"/>
<circle cx="40.000000" cy="85.074221" r="8.895141" opacity="0.888305" style="stroke:black;stroke-width:0.5;fill:url(#radialffffffbfbfbf)"/>
<circle cx="245.328910" cy="135.599125" r="9.079250" opacity="0.897450" style="stroke:black;stroke-width:0.5;fill:url(#radialffffffbfbfbf)"/>
<circle cx="51.809811" cy="166.158087" r="9.133985" opacity="0.900152" style="stroke:black;stroke-width:0.5;fill:url(#radialffffffbfbfbf)"/>
<circle cx="164.745684" cy="133.016350" r="10.989100" opacity="0.987340" style="stroke:black;stroke-width:0.5;fill:url(#radialffffffbfbfbf)"/>
<circle cx="187.930975" cy="79.391455" r="11.272727" opacity="1.000000" style="stroke:black;stroke-width:0.5;fill:url(#radialffffffbfbfbf)"/>
</svg>
</g>
</svg>
