<?xml version="1.0"?>
<svg version="1.1" id="topsvg"
xmlns="http://www.w3.org/2000/svg" xmlns:xlink="http://www.w3.org/1999/xlink"
xmlns:cml="http://www.xml-cml.org/schema" x="0" y="0" width="1024px" height="1024px" viewBox="0 0 100 100">
<title>66060 - Open Babel Depiction</title>
<rect x="0" y="0" width="100" height="100" fill="white"/>
<defs>
<radialGradient id='radialffffff666666' cx='50%' cy='50%' r='50%' fx='30%' fy='30%'>
  <stop offset=' 0%' stop-color="rgb(255,255,255)"  stop-opacity='1.0'/>
  <stop offset='100%' stop-color="rgb(102,102,102)"  stop-opacity ='1.0'/>
</radialGradient>
<radialGradient id='radialffffffb2b20' cx='50%' cy='50%' r='50%' fx='30%' fy='30%'>
  <stop offset=' 0%' stop-color="rgb(255,255,255)"  stop-opacity='1.0'/>
  <stop offset='100%' stop-color="rgb(178,178,0)"  stop-opacity ='1.0'/>
</radialGradient>
<radialGradient id='radialffffffbfbfbf' cx='50%' cy='50%' r='50%' fx='30%' fy='30%'>
  <stop offset=' 0%' stop-color="rgb(255,255,255)"  stop-opacity='1.0'/>
  <stop offset='100%' stop-color="rgb(191,191,191)"  stop-opacity ='1.0'/>
</radialGradient>
</defs>
<g transform="translate(0,0)">
<svg width="100" height="100" x="0" y="0" viewBox="0 0 334.273 207.684"
font-family="sans-serif" stroke="rgb(0,0,0)" stroke-width="2"  stroke-linecap="round">
<line x1="146.1" y1="69.5" x2="188.9" y2="79.9" opacity="1.0" stroke="rgb(0,0,0)"  stroke-width="1.6"/>
<line x1="146.1" y1="69.5" x2="102.5" y2="102.1" opacity="0.5" stroke="rgb(0,0,0)"  stroke-width="1.2"/>
<line x1="188.9" y1="79.9" x2="232.1" y2="102.0" opacity="0.4" stroke="rgb(0,0,0)"  stroke-width="1.8"/>
<line x1="102.5" y1="102.1" x2="88.4" y2="86.7" opacity="0.6" stroke="rgb(0,0,0)"  stroke-width="1.9"/>
<line x1="102.5" y1="102.1" x2="66.8" y2="98.0" opacity="0.6" stroke="rgb(0,0,0)"  stroke-width="1.1"/>
<line x1="102.5" y1="102.1" x2="117.3" y2="147.4" opacity="0.4" stroke="rgb(0,0,0)"  stroke-width="1.5"/>
<line x1="232.1" y1="102.0" x2="246.7" y2="70.2" opacity="0.5" stroke="rgb(0,0,0)"  stroke-width="1.1"/>
<line x1="232.1" y1="102.0" x2="267.4" y2="111.7" opacity="0.4" stroke="rgb(0,0,0)"  stroke-width="1.8"/>
<line x1="232.1" y1="102.0" x2="217.3" y2="142.1" opacity="0.6" stroke="rgb(0,0,0)"  stroke-width="1.2"/>
<line x1="88.4" y1="86.7" x2="80.9" y2="53.3" opacity="0.4" stroke="rgb(0,0,0)"  stroke-width="2.4"/>
<line x1="88.4" y1="86.7" x2="59.9" y2="103.1" opacity="0.8" stroke="rgb(0,0,0)"  stroke-width="2.5"/>
<line x1="88.4" y1="86.7" x2="111.3" y2="92.4" opacity="0.8" stroke="rgb(0,0,0)"  stroke-width="2.7"/>
<line x1="66.8" y1="98.0" x2="76.2" y2="108.6" opacity="0.9" stroke="rgb(0,0,0)"  stroke-width="0.4"/>
<line x1="66.8" y1="98.0" x2="55.8" y2="65.7" opacity="0.1" stroke="rgb(0,0,0)"  stroke-width="0.7"/>
<line x1="66.8" y1="98.0" x2="40.0" y2="117.1" opacity="0.2" stroke="rgb(0,0,0)"  stroke-width="0.8"/>
<line x1="117.3" y1="147.4" x2="140.1" y2="153.0" opacity="0.3" stroke="rgb(0,0,0)"  stroke-width="1.8"/>
<line x1="117.3" y1="147.4" x2="90.7" y2="167.7" opacity="0.6" stroke="rgb(0,0,0)"  stroke-width="1.6"/>
<line x1="117.3" y1="147.4" x2="129.5" y2="158.8" opacity="0.5" stroke="rgb(0,0,0)"  stroke-width="1.2"/>
<line x1="246.7" y1="70.2" x2="254.3" y2="40.0" opacity="0.4" stroke="rgb(0,0,0)"  stroke-width="0.9"/>
<line x1="246.7" y1="70.2" x2="275.2" y2="81.4" opacity="0.3" stroke="rgb(0,0,0)"  stroke-width="0.5"/>
<line x1="246.7" y1="70.2" x2="224.2" y2="65.0" opacity="0.2" stroke="rgb(0,0,0)"  stroke-width="0.4"/>
<line x1="267.4" y1="111.7" x2="257.7" y2="134.2" opacity="0.1" stroke="rgb(0,0,0)"  stroke-width="2.4"/>
<line x1="267.4" y1="111.7" x2="278.4" y2="83.5" opacity="0.8" stroke="rgb(0,0,0)"  stroke-width="2.3"/>
<line x1="267.4" y1="111.7" x2="294.3" y2="125.2" opacity="0.8" stroke="rgb(0,0,0)"  stroke-width="2.0"/>
<line x1="217.3" y1="142.1" x2="194.6" y2="136.9" opacity="0.7" stroke="rgb(0,0,0)"  stroke-width="0.7"/>
<line x1="217.3" y1="142.1" x2="244.0" y2="157.4" opacity="0.2" stroke="rgb(0,0,0)"  stroke-width="0.8"/>
<line x1="217.3" y1="142.1" x2="205.0" y2="164.9" opacity="0.3" stroke="rgb(0,0,0)"  stroke-width="1.2"/>
<circle cx="76.178087" cy="108.602315" r="5.636364" opacity="0.200000" style="stroke:black;stroke-width:0.5;fill:url(#radialffffffbfbfbf)"/>
<circle cx="224.163750" cy="64.982039" r="5.636364" opacity="0.200000" style="stroke:black;stroke-width:0.5;fill:url(#radialffffffbfbfbf)"/>
<circle cx="275.248058" cy="81.351734" r="5.636364" opacity="0.335412" style="stroke:black;stroke-width:0.5;fill:url(#radialffffffbfbfbf)"/>
<circle cx="194.644628" cy="136.898235" r="5.636364" opacity="0.351675" style="stroke:black;stroke-width:0.5;fill:url(#radialffffffbfbfbf)"/>
<circle cx="243.978383" cy="157.405600" r="5.636364" opacity="0.445283" style="stroke:black;stroke-width:0.5;fill:url(#radialffffffbfbfbf)"/>
<circle cx="55.801780" cy="65.743421" r="5.636364" opacity="0.467818" style="stroke:black;stroke-width:0.5;fill:url(#radialffffffbfbfbf)"/>
<circle cx="246.683782" cy="70.211854" r="13.818182" opacity="0.479038" style="stroke:black;stroke-width:0.5;fill:url(#radialffffff666666)"/>
<circle cx="66.795000" cy="98.036591" r="13.818182" opacity="0.488754" style="stroke:black;stroke-width:0.5;fill:url(#radialffffff666666)"/>
<circle cx="129.484130" cy="158.766101" r="5.636364" opacity="0.521393" style="stroke:black;stroke-width:0.5;fill:url(#radialffffffbfbfbf)"/>
<circle cx="40.000000" cy="117.083602" r="5.636364" opacity="0.558119" style="stroke:black;stroke-width:0.5;fill:url(#radialffffffbfbfbf)"/>
<circle cx="217.330042" cy="142.134291" r="13.818182" opacity="0.561069" style="stroke:black;stroke-width:0.5;fill:url(#radialffffff666666)"/>
<circle cx="254.285112" cy="40.000000" r="5.636364" opacity="0.581363" style="stroke:black;stroke-width:0.5;fill:url(#radialffffffbfbfbf)"/>
<circle cx="146.084736" cy="69.531604" r="19.090909" opacity="0.586505" style="stroke:black;stroke-width:0.5;fill:url(#radialffffffb2b20)"/>
<circle cx="232.098964" cy="102.043204" r="13.818182" opacity="0.691963" style="stroke:black;stroke-width:0.5;fill:url(#radialffffff666666)"/>
<circle cx="102.470701" cy="102.074408" r="13.818182" opacity="0.693293" style="stroke:black;stroke-width:0.5;fill:url(#radialffffff666666)"/>
<circle cx="204.979441" cy="164.916438" r="5.636364" opacity="0.696770" style="stroke:black;stroke-width:0.5;fill:url(#radialffffffbfbfbf)"/>
<circle cx="117.261466" cy="147.435875" r="13.831737" opacity="0.707454" style="stroke:black;stroke-width:0.5;fill:url(#radialffffff666666)"/>
<circle cx="90.675533" cy="167.684245" r="6.295681" opacity="0.747320" style="stroke:black;stroke-width:0.5;fill:url(#radialffffffbfbfbf)"/>
<circle cx="294.273225" cy="125.221643" r="6.649817" opacity="0.768051" style="stroke:black;stroke-width:0.5;fill:url(#radialffffffbfbfbf)"/>
<circle cx="140.087299" cy="153.046381" r="7.777764" opacity="0.830640" style="stroke:black;stroke-width:0.5;fill:url(#radialffffffbfbfbf)"/>
<circle cx="188.899944" cy="79.947548" r="26.728643" opacity="0.836681" style="stroke:black;stroke-width:0.5;fill:url(#radialffffffb2b20)"/>
<circle cx="267.384613" cy="111.685285" r="19.748478" opacity="0.845330" style="stroke:black;stroke-width:0.5;fill:url(#radialffffff666666)"/>
<circle cx="80.921117" cy="53.274244" r="9.113931" opacity="0.899163" style="stroke:black;stroke-width:0.5;fill:url(#radialffffffbfbfbf)"/>
<circle cx="88.428835" cy="86.656439" r="22.394084" opacity="0.900173" style="stroke:black;stroke-width:0.5;fill:url(#radialffffff666666)"/>
<circle cx="278.415278" cy="83.482978" r="9.432194" opacity="0.914728" style="stroke:black;stroke-width:0.5;fill:url(#radialffffffbfbfbf)"/>
<circle cx="59.948811" cy="103.072941" r="9.962993" opacity="0.940114" style="stroke:black;stroke-width:0.5;fill:url(#radialffffffbfbfbf)"/>
<circle cx="257.661401" cy="134.227160" r="10.115381" opacity="0.947276" style="stroke:black;stroke-width:0.5;fill:url(#radialffffffbfbfbf)"/>
<circle cx="111.260908" cy="92.388641" r="11.272727" opacity="1.000000" style="stroke:black;stroke-width:0.5;fill:url(#radialffffffbfbfbf)"/>
</svg>
</g>
</svg>
