<?xml version="1.0"?>
<svg version="1.1" id="topsvg"
xmlns="http://www.w3.org/2000/svg" xmlns:xlink="http://www.w3.org/1999/xlink"
xmlns:cml="http://www.xml-cml.org/schema" x="0" y="0" width="1024px" height="1024px" viewBox="0 0 100 100">
<title>6629 - Open Babel Depiction</title>
<rect x="0" y="0" width="100" height="100" fill="white"/>
<defs>
<radialGradient id='radialffffff666666' cx='50%' cy='50%' r='50%' fx='30%' fy='30%'>
  <stop offset=' 0%' stop-color="rgb(255,255,255)"  stop-opacity='1.0'/>
  <stop offset='100%' stop-color="rgb(102,102,102)"  stop-opacity ='1.0'/>
</radialGradient>
<radialGradient id='radialffffffbfbfbf' cx='50%' cy='50%' r='50%' fx='30%' fy='30%'>
  <stop offset=' 0%' stop-color="rgb(255,255,255)"  stop-opacity='1.0'/>
  <stop offset='100%' stop-color="rgb(191,191,191)"  stop-opacity ='1.0'/>
</radialGradient>
<radialGradient id='radialffffffffcc' cx='50%' cy='50%' r='50%' fx='30%' fy='30%'>
  <stop offset=' 0%' stop-color="rgb(255,255,255)"  stop-opacity='1.0'/>
  <stop offset='100%' stop-color="rgb(255,12,12)"  stop-opacity ='1.0'/>
</radialGradient>
</defs>
<g transform="translate(0,0)">
<svg width="100" height="100" x="0" y="0" viewBox="0 0 305.671 217.528"
font-family="sans-serif" stroke="rgb(0,0,0)" stroke-width="2"  stroke-linecap="round">
<line x1="230.6" y1="143.6" x2="217.9" y2="157.7" opacity="1.0" stroke="rgb(0,0,0)"  stroke-width="2.1"/>
<line x1="230.6" y1="143.6" x2="210.1" y2="102.5" opacity="0.7" stroke="rgb(0,0,0)"  stroke-width="1.6"/>
<line x1="217.9" y1="157.7" x2="246.0" y2="154.8" opacity="0.5" stroke="rgb(0,0,0)"  stroke-width="2.7"/>
<line x1="210.1" y1="102.5" x2="162.8" y2="107.0" opacity="0.9" stroke="rgb(0,0,0)"  stroke-width="1.6"/>
<line x1="210.1" y1="102.5" x2="230.9" y2="73.9" opacity="0.5" stroke="rgb(0,0,0)"  stroke-width="1.9"/>
<line x1="210.1" y1="102.5" x2="222.8" y2="85.5" opacity="0.6" stroke="rgb(0,0,0)"  stroke-width="1.0"/>
<line x1="230.9" y1="73.9" x2="219.9" y2="81.8" opacity="0.3" stroke="rgb(0,0,0)"  stroke-width="2.6"/>
<line x1="230.9" y1="73.9" x2="265.7" y2="77.7" opacity="0.9" stroke="rgb(0,0,0)"  stroke-width="2.3"/>
<line x1="230.9" y1="73.9" x2="224.0" y2="40.0" opacity="0.8" stroke="rgb(0,0,0)"  stroke-width="2.2"/>
<line x1="222.8" y1="85.5" x2="257.6" y2="83.6" opacity="0.7" stroke="rgb(0,0,0)"  stroke-width="0.5"/>
<line x1="222.8" y1="85.5" x2="209.3" y2="53.8" opacity="0.2" stroke="rgb(0,0,0)"  stroke-width="0.5"/>
<line x1="222.8" y1="85.5" x2="211.8" y2="107.1" opacity="0.2" stroke="rgb(0,0,0)"  stroke-width="0.4"/>
<line x1="138.5" y1="73.8" x2="152.8" y2="44.1" opacity="0.1" stroke="rgb(0,0,0)"  stroke-width="2.1"/>
<line x1="142.9" y1="144.3" x2="161.0" y2="170.4" opacity="0.7" stroke="rgb(0,0,0)"  stroke-width="1.2"/>
<line x1="94.3" y1="78.0" x2="75.4" y2="52.2" opacity="0.4" stroke="rgb(0,0,0)"  stroke-width="2.2"/>
<line x1="98.7" y1="148.5" x2="83.2" y2="177.5" opacity="0.7" stroke="rgb(0,0,0)"  stroke-width="1.3"/>
<line x1="74.4" y1="115.4" x2="40.0" y2="118.6" opacity="0.4" stroke="rgb(0,0,0)"  stroke-width="1.8"/>
<line x1="160.2" y1="105.6" x2="140.3" y2="142.9" opacity="0.5" stroke="rgb(0,0,0)"  stroke-width="1.5"/>
<line x1="165.5" y1="108.4" x2="145.6" y2="145.7" opacity="0.5" stroke="rgb(0,0,0)"  stroke-width="1.5" stroke-dasharray="5.0,5.0"/>
<line x1="142.6" y1="141.3" x2="98.4" y2="145.5" opacity="0.4" stroke="rgb(0,0,0)"  stroke-width="1.3"/>
<line x1="143.2" y1="147.3" x2="99.0" y2="151.5" opacity="0.4" stroke="rgb(0,0,0)"  stroke-width="1.3" stroke-dasharray="5.0,5.0"/>
<line x1="101.1" y1="146.7" x2="76.8" y2="113.6" opacity="0.5" stroke="rgb(0,0,0)"  stroke-width="1.6"/>
<line x1="96.3" y1="150.3" x2="72.0" y2="117.1" opacity="0.5" stroke="rgb(0,0,0)"  stroke-width="1.6" stroke-dasharray="5.0,5.0"/>
<line x1="77.1" y1="116.8" x2="97.0" y2="79.4" opacity="0.6" stroke="rgb(0,0,0)"  stroke-width="1.9"/>
<line x1="71.8" y1="113.9" x2="91.7" y2="76.6" opacity="0.6" stroke="rgb(0,0,0)"  stroke-width="1.9" stroke-dasharray="5.0,5.0"/>
<line x1="94.6" y1="81.0" x2="138.8" y2="76.8" opacity="0.7" stroke="rgb(0,0,0)"  stroke-width="2.0"/>
<line x1="94.0" y1="75.0" x2="138.2" y2="70.9" opacity="0.7" stroke="rgb(0,0,0)"  stroke-width="2.0" stroke-dasharray="5.0,5.0"/>
<line x1="136.1" y1="75.6" x2="160.4" y2="108.8" opacity="0.6" stroke="rgb(0,0,0)"  stroke-width="1.8"/>
<line x1="140.9" y1="72.1" x2="165.2" y2="105.2" opacity="0.6" stroke="rgb(0,0,0)"  stroke-width="1.8" stroke-dasharray="5.0,5.0"/>
<circle cx="211.815329" cy="107.103046" r="5.636364" opacity="0.200000" style="stroke:black;stroke-width:0.5;fill:url(#radialffffffbfbfbf)"/>
<circle cx="209.287835" cy="53.846964" r="5.636364" opacity="0.374714" style="stroke:black;stroke-width:0.5;fill:url(#radialffffffbfbfbf)"/>
<circle cx="257.591051" cy="83.592886" r="5.636364" opacity="0.402958" style="stroke:black;stroke-width:0.5;fill:url(#radialffffffbfbfbf)"/>
<circle cx="222.799715" cy="85.510845" r="13.818182" opacity="0.429973" style="stroke:black;stroke-width:0.5;fill:url(#radialffffff666666)"/>
<circle cx="161.003767" cy="170.446765" r="5.636364" opacity="0.577101" style="stroke:black;stroke-width:0.5;fill:url(#radialffffffbfbfbf)"/>
<circle cx="83.197167" cy="177.528216" r="5.636364" opacity="0.615579" style="stroke:black;stroke-width:0.5;fill:url(#radialffffffbfbfbf)"/>
<circle cx="142.918783" cy="144.332520" r="13.818182" opacity="0.659452" style="stroke:black;stroke-width:0.5;fill:url(#radialffffff666666)"/>
<circle cx="98.716362" cy="148.513097" r="13.818182" opacity="0.677248" style="stroke:black;stroke-width:0.5;fill:url(#radialffffff666666)"/>
<circle cx="210.076081" cy="102.513986" r="14.115236" opacity="0.714667" style="stroke:black;stroke-width:0.5;fill:url(#radialffffff666666)"/>
<circle cx="162.819606" cy="106.997734" r="14.819771" opacity="0.732285" style="stroke:black;stroke-width:0.5;fill:url(#radialffffff666666)"/>
<circle cx="230.586438" cy="143.572995" r="13.113188" opacity="0.739177" style="stroke:black;stroke-width:0.5;fill:url(#radialffffffffcc)"/>
<circle cx="74.421147" cy="115.358888" r="16.134558" opacity="0.764079" style="stroke:black;stroke-width:0.5;fill:url(#radialffffff666666)"/>
<circle cx="40.000000" cy="118.598037" r="6.785868" opacity="0.775869" style="stroke:black;stroke-width:0.5;fill:url(#radialffffffbfbfbf)"/>
<circle cx="138.514816" cy="73.843525" r="18.277868" opacity="0.813247" style="stroke:black;stroke-width:0.5;fill:url(#radialffffff666666)"/>
<circle cx="94.318778" cy="78.030485" r="18.935907" opacity="0.827757" style="stroke:black;stroke-width:0.5;fill:url(#radialffffff666666)"/>
<circle cx="224.047505" cy="40.000000" r="8.160584" opacity="0.850837" style="stroke:black;stroke-width:0.5;fill:url(#radialffffffbfbfbf)"/>
<circle cx="152.795795" cy="44.142282" r="8.333905" opacity="0.859824" style="stroke:black;stroke-width:0.5;fill:url(#radialffffffbfbfbf)"/>
<circle cx="265.671372" cy="77.682635" r="8.601526" opacity="0.873521" style="stroke:black;stroke-width:0.5;fill:url(#radialffffffbfbfbf)"/>
<circle cx="230.876845" cy="73.859482" r="21.106340" opacity="0.873909" style="stroke:black;stroke-width:0.5;fill:url(#radialffffff666666)"/>
<circle cx="75.372149" cy="52.177925" r="8.813041" opacity="0.884196" style="stroke:black;stroke-width:0.5;fill:url(#radialffffffbfbfbf)"/>
<circle cx="217.897909" cy="157.659306" r="20.511263" opacity="0.924465" style="stroke:black;stroke-width:0.5;fill:url(#radialffffffffcc)"/>
<circle cx="245.958835" cy="154.847788" r="10.702453" opacity="0.974377" style="stroke:black;stroke-width:0.5;fill:url(#radialffffffbfbfbf)"/>
<circle cx="219.914798" cy="81.757900" r="11.272727" opacity="1.000000" style="stroke:black;stroke-width:0.5;fill:url(#radialffffffbfbfbf)"/>
</svg>
</g>
</svg>
