<?xml version="1.0"?>
<svg version="1.1" id="topsvg"
xmlns="http://www.w3.org/2000/svg" xmlns:xlink="http://www.w3.org/1999/xlink"
xmlns:cml="http://www.xml-cml.org/schema" x="0" y="0" width="200px" height="200px" viewBox="0 0 100 100">
<title>6908 - Open Babel Depiction</title>
<rect x="0" y="0" width="100" height="100" fill="white"/>
<defs>
<radialGradient id='radialffffff666666' cx='50%' cy='50%' r='50%' fx='30%' fy='30%'>
  <stop offset=' 0%' stop-color="rgb(255,255,255)"  stop-opacity='1.0'/>
  <stop offset='100%' stop-color="rgb(102,102,102)"  stop-opacity ='1.0'/>
</radialGradient>
<radialGradient id='radialffffffbfbfbf' cx='50%' cy='50%' r='50%' fx='30%' fy='30%'>
  <stop offset=' 0%' stop-color="rgb(255,255,255)"  stop-opacity='1.0'/>
  <stop offset='100%' stop-color="rgb(191,191,191)"  stop-opacity ='1.0'/>
</radialGradient>
</defs>
<g transform="translate(0,0)">
<svg width="100" height="100" x="0" y="0" viewBox="0 0 298.481 297.859"
font-family="sans-serif" stroke="rgb(0,0,0)" stroke-width="4"  stroke-linecap="round">
<line x1="194.2" y1="153.0" x2="242.5" y2="157.3" opacity="1.0" stroke="rgb(0,0,0)"  stroke-width="1.5"/>
<line x1="175.2" y1="112.0" x2="203.1" y2="72.3" opacity="0.5" stroke="rgb(0,0,0)"  stroke-width="1.5"/>
<line x1="168.2" y1="189.9" x2="188.6" y2="233.9" opacity="0.5" stroke="rgb(0,0,0)"  stroke-width="1.5"/>
<line x1="130.2" y1="108.0" x2="109.8" y2="64.0" opacity="0.5" stroke="rgb(0,0,0)"  stroke-width="1.5"/>
<line x1="123.2" y1="185.9" x2="95.4" y2="225.5" opacity="0.5" stroke="rgb(0,0,0)"  stroke-width="1.5"/>
<line x1="104.2" y1="144.9" x2="56.0" y2="140.6" opacity="0.5" stroke="rgb(0,0,0)"  stroke-width="1.5"/>
<line x1="242.5" y1="157.3" x2="258.5" y2="130.8" opacity="0.5" stroke="rgb(0,0,0)"  stroke-width="1.1"/>
<line x1="242.5" y1="157.3" x2="254.8" y2="158.4" opacity="0.4" stroke="rgb(0,0,0)"  stroke-width="2.2"/>
<line x1="242.5" y1="157.3" x2="253.5" y2="186.2" opacity="0.7" stroke="rgb(0,0,0)"  stroke-width="1.1"/>
<line x1="203.1" y1="72.3" x2="210.2" y2="62.3" opacity="0.4" stroke="rgb(0,0,0)"  stroke-width="0.7"/>
<line x1="203.1" y1="72.3" x2="188.2" y2="45.3" opacity="0.2" stroke="rgb(0,0,0)"  stroke-width="1.9"/>
<line x1="203.1" y1="72.3" x2="233.6" y2="77.2" opacity="0.6" stroke="rgb(0,0,0)"  stroke-width="1.9"/>
<line x1="188.6" y1="233.9" x2="219.5" y2="234.5" opacity="0.6" stroke="rgb(0,0,0)"  stroke-width="1.9"/>
<line x1="188.6" y1="233.9" x2="169.1" y2="257.9" opacity="0.6" stroke="rgb(0,0,0)"  stroke-width="1.9"/>
<line x1="188.6" y1="233.9" x2="193.8" y2="245.1" opacity="0.6" stroke="rgb(0,0,0)"  stroke-width="0.7"/>
<line x1="109.8" y1="64.0" x2="129.3" y2="40.0" opacity="0.2" stroke="rgb(0,0,0)"  stroke-width="1.1"/>
<line x1="109.8" y1="64.0" x2="78.9" y2="63.4" opacity="0.4" stroke="rgb(0,0,0)"  stroke-width="1.1"/>
<line x1="109.8" y1="64.0" x2="104.6" y2="52.8" opacity="0.4" stroke="rgb(0,0,0)"  stroke-width="2.2"/>
<line x1="95.4" y1="225.5" x2="88.2" y2="235.6" opacity="0.7" stroke="rgb(0,0,0)"  stroke-width="2.3"/>
<line x1="95.4" y1="225.5" x2="64.9" y2="220.7" opacity="0.8" stroke="rgb(0,0,0)"  stroke-width="1.1"/>
<line x1="95.4" y1="225.5" x2="110.3" y2="252.6" opacity="0.4" stroke="rgb(0,0,0)"  stroke-width="1.1"/>
<line x1="56.0" y1="140.6" x2="45.0" y2="111.7" opacity="0.4" stroke="rgb(0,0,0)"  stroke-width="1.9"/>
<line x1="56.0" y1="140.6" x2="43.7" y2="139.5" opacity="0.6" stroke="rgb(0,0,0)"  stroke-width="0.7"/>
<line x1="56.0" y1="140.6" x2="40.0" y2="167.1" opacity="0.2" stroke="rgb(0,0,0)"  stroke-width="1.9"/>
<line x1="191.8" y1="151.2" x2="165.8" y2="188.2" opacity="0.5" stroke="rgb(0,0,0)"  stroke-width="1.5"/>
<line x1="196.7" y1="154.7" x2="170.7" y2="191.7" opacity="0.5" stroke="rgb(0,0,0)"  stroke-width="1.5" stroke-dasharray="5.0,5.0"/>
<line x1="168.5" y1="186.9" x2="123.5" y2="182.9" opacity="0.5" stroke="rgb(0,0,0)"  stroke-width="1.5"/>
<line x1="168.0" y1="192.9" x2="123.0" y2="188.9" opacity="0.5" stroke="rgb(0,0,0)"  stroke-width="1.5" stroke-dasharray="5.0,5.0"/>
<line x1="126.0" y1="184.6" x2="107.0" y2="143.7" opacity="0.5" stroke="rgb(0,0,0)"  stroke-width="1.5"/>
<line x1="120.5" y1="187.2" x2="101.5" y2="146.2" opacity="0.5" stroke="rgb(0,0,0)"  stroke-width="1.5" stroke-dasharray="5.0,5.0"/>
<line x1="106.7" y1="146.6" x2="132.7" y2="109.7" opacity="0.5" stroke="rgb(0,0,0)"  stroke-width="1.5"/>
<line x1="101.8" y1="143.2" x2="127.8" y2="106.2" opacity="0.5" stroke="rgb(0,0,0)"  stroke-width="1.5" stroke-dasharray="5.0,5.0"/>
<line x1="130.0" y1="110.9" x2="175.0" y2="115.0" opacity="0.5" stroke="rgb(0,0,0)"  stroke-width="1.5"/>
<line x1="130.5" y1="105.0" x2="175.5" y2="109.0" opacity="0.5" stroke="rgb(0,0,0)"  stroke-width="1.5" stroke-dasharray="5.0,5.0"/>
<line x1="172.5" y1="113.3" x2="191.5" y2="154.2" opacity="0.5" stroke="rgb(0,0,0)"  stroke-width="1.5"/>
<line x1="177.9" y1="110.7" x2="197.0" y2="151.7" opacity="0.5" stroke="rgb(0,0,0)"  stroke-width="1.5" stroke-dasharray="5.0,5.0"/>
<circle cx="210.231810" cy="62.254281" r="5.636364" opacity="0.200000" style="stroke:black;stroke-width:0.5;fill:url(#radialffffffbfbfbf)"/>
<circle cx="193.830168" cy="245.104732" r="5.636364" opacity="0.200000" style="stroke:black;stroke-width:0.5;fill:url(#radialffffffbfbfbf)"/>
<circle cx="43.656685" cy="139.494872" r="5.636364" opacity="0.200000" style="stroke:black;stroke-width:0.5;fill:url(#radialffffffbfbfbf)"/>
<circle cx="64.861572" cy="220.651257" r="5.636364" opacity="0.488055" style="stroke:black;stroke-width:0.5;fill:url(#radialffffffbfbfbf)"/>
<circle cx="253.532274" cy="186.163761" r="5.636364" opacity="0.488354" style="stroke:black;stroke-width:0.5;fill:url(#radialffffffbfbfbf)"/>
<circle cx="258.481268" cy="130.837370" r="5.636364" opacity="0.488404" style="stroke:black;stroke-width:0.5;fill:url(#radialffffffbfbfbf)"/>
<circle cx="129.318340" cy="40.000000" r="5.636364" opacity="0.488554" style="stroke:black;stroke-width:0.5;fill:url(#radialffffffbfbfbf)"/>
<circle cx="78.921510" cy="63.374931" r="5.636364" opacity="0.488603" style="stroke:black;stroke-width:0.5;fill:url(#radialffffffbfbfbf)"/>
<circle cx="110.286735" cy="252.622151" r="5.636364" opacity="0.489201" style="stroke:black;stroke-width:0.5;fill:url(#radialffffffbfbfbf)"/>
<circle cx="130.225224" cy="107.961226" r="13.818182" opacity="0.706676" style="stroke:black;stroke-width:0.5;fill:url(#radialffffff666666)"/>
<circle cx="104.236524" cy="144.913503" r="13.818182" opacity="0.706710" style="stroke:black;stroke-width:0.5;fill:url(#radialffffff666666)"/>
<circle cx="168.246328" cy="189.930568" r="13.818182" opacity="0.706745" style="stroke:black;stroke-width:0.5;fill:url(#radialffffff666666)"/>
<circle cx="123.248696" cy="185.898174" r="13.818182" opacity="0.706745" style="stroke:black;stroke-width:0.5;fill:url(#radialffffff666666)"/>
<circle cx="194.231788" cy="152.975052" r="13.818182" opacity="0.706814" style="stroke:black;stroke-width:0.5;fill:url(#radialffffff666666)"/>
<circle cx="175.219617" cy="111.990381" r="13.818182" opacity="0.706814" style="stroke:black;stroke-width:0.5;fill:url(#radialffffff666666)"/>
<circle cx="188.638258" cy="233.888522" r="13.818182" opacity="0.706952" style="stroke:black;stroke-width:0.5;fill:url(#radialffffff666666)"/>
<circle cx="55.967633" cy="140.596088" r="13.818182" opacity="0.706952" style="stroke:black;stroke-width:0.5;fill:url(#radialffffff666666)"/>
<circle cx="203.106294" cy="72.346603" r="13.818182" opacity="0.706986" style="stroke:black;stroke-width:0.5;fill:url(#radialffffff666666)"/>
<circle cx="242.503919" cy="157.292467" r="13.818182" opacity="0.707021" style="stroke:black;stroke-width:0.5;fill:url(#radialffffff666666)"/>
<circle cx="109.826815" cy="63.983838" r="13.818182" opacity="0.707090" style="stroke:black;stroke-width:0.5;fill:url(#radialffffff666666)"/>
<circle cx="95.358780" cy="225.535474" r="13.818855" opacity="0.707124" style="stroke:black;stroke-width:0.5;fill:url(#radialffffff666666)"/>
<circle cx="188.175100" cy="45.282598" r="8.578806" opacity="0.872366" style="stroke:black;stroke-width:0.5;fill:url(#radialffffffbfbfbf)"/>
<circle cx="219.537086" cy="234.487713" r="8.580454" opacity="0.872450" style="stroke:black;stroke-width:0.5;fill:url(#radialffffffbfbfbf)"/>
<circle cx="44.952233" cy="111.728033" r="8.581552" opacity="0.872506" style="stroke:black;stroke-width:0.5;fill:url(#radialffffffbfbfbf)"/>
<circle cx="40.000000" cy="167.051185" r="8.581552" opacity="0.872506" style="stroke:black;stroke-width:0.5;fill:url(#radialffffffbfbfbf)"/>
<circle cx="169.149973" cy="257.859405" r="8.583200" opacity="0.872590" style="stroke:black;stroke-width:0.5;fill:url(#radialffffffbfbfbf)"/>
<circle cx="233.606741" cy="77.243775" r="8.584848" opacity="0.872674" style="stroke:black;stroke-width:0.5;fill:url(#radialffffffbfbfbf)"/>
<circle cx="254.788955" cy="158.393683" r="11.270530" opacity="0.999903" style="stroke:black;stroke-width:0.5;fill:url(#radialffffffbfbfbf)"/>
<circle cx="104.644622" cy="52.809734" r="11.272727" opacity="1.000000" style="stroke:black;stroke-width:0.5;fill:url(#radialffffffbfbfbf)"/>
<circle cx="88.233264" cy="235.585691" r="11.272727" opacity="1.000000" style="stroke:black;stroke-width:0.5;fill:url(#radialffffffbfbfbf)"/>
</svg>
</g>
</svg>
