<?xml version="1.0"?>
<svg version="1.1" id="topsvg"
xmlns="http://www.w3.org/2000/svg" xmlns:xlink="http://www.w3.org/1999/xlink"
xmlns:cml="http://www.xml-cml.org/schema" x="0" y="0" width="200px" height="200px" viewBox="0 0 100 100">
<title>69424 - Open Babel Depiction</title>
<rect x="0" y="0" width="100" height="100" fill="white"/>
<defs>
<radialGradient id='radialffffff0ccff' cx='50%' cy='50%' r='50%' fx='30%' fy='30%'>
  <stop offset=' 0%' stop-color="rgb(255,255,255)"  stop-opacity='1.0'/>
  <stop offset='100%' stop-color="rgb(12,12,255)"  stop-opacity ='1.0'/>
</radialGradient>
<radialGradient id='radialffffff666666' cx='50%' cy='50%' r='50%' fx='30%' fy='30%'>
  <stop offset=' 0%' stop-color="rgb(255,255,255)"  stop-opacity='1.0'/>
  <stop offset='100%' stop-color="rgb(102,102,102)"  stop-opacity ='1.0'/>
</radialGradient>
<radialGradient id='radialffffffbfbfbf' cx='50%' cy='50%' r='50%' fx='30%' fy='30%'>
  <stop offset=' 0%' stop-color="rgb(255,255,255)"  stop-opacity='1.0'/>
  <stop offset='100%' stop-color="rgb(191,191,191)"  stop-opacity ='1.0'/>
</radialGradient>
</defs>
<g transform="translate(0,0)">
<svg width="100" height="100" x="0" y="0" viewBox="0 0 760.454 169.359"
font-family="sans-serif" stroke="rgb(0,0,0)" stroke-width="4"  stroke-linecap="round">
<line x1="720.5" y1="58.4" x2="689.2" y2="79.1" opacity="1.0" stroke="rgb(0,0,0)"  stroke-width="1.2"/>
<line x1="722.8" y1="61.9" x2="691.5" y2="82.6" opacity="1.0" stroke="rgb(0,0,0)"  stroke-width="1.2"/>
<line x1="718.1" y1="54.9" x2="686.8" y2="75.6" opacity="1.0" stroke="rgb(0,0,0)"  stroke-width="1.2"/>
<line x1="359.4" y1="73.7" x2="400.6" y2="101.3" opacity="0.4" stroke="rgb(0,0,0)"  stroke-width="1.6"/>
<line x1="359.4" y1="73.7" x2="316.6" y2="98.5" opacity="0.5" stroke="rgb(0,0,0)"  stroke-width="1.5"/>
<line x1="359.4" y1="73.7" x2="360.8" y2="51.0" opacity="0.5" stroke="rgb(0,0,0)"  stroke-width="1.0"/>
<line x1="359.4" y1="73.7" x2="359.2" y2="53.8" opacity="0.3" stroke="rgb(0,0,0)"  stroke-width="2.2"/>
<line x1="400.6" y1="101.3" x2="442.1" y2="74.8" opacity="0.7" stroke="rgb(0,0,0)"  stroke-width="1.7"/>
<line x1="400.6" y1="101.3" x2="398.7" y2="125.0" opacity="0.6" stroke="rgb(0,0,0)"  stroke-width="2.1"/>
<line x1="400.6" y1="101.3" x2="401.9" y2="119.8" opacity="0.7" stroke="rgb(0,0,0)"  stroke-width="1.0"/>
<line x1="316.6" y1="98.5" x2="275.4" y2="71.0" opacity="0.3" stroke="rgb(0,0,0)"  stroke-width="1.5"/>
<line x1="316.6" y1="98.5" x2="315.8" y2="122.2" opacity="0.5" stroke="rgb(0,0,0)"  stroke-width="2.0"/>
<line x1="316.6" y1="98.5" x2="316.1" y2="117.3" opacity="0.7" stroke="rgb(0,0,0)"  stroke-width="0.9"/>
<line x1="442.1" y1="74.8" x2="483.4" y2="102.3" opacity="0.3" stroke="rgb(0,0,0)"  stroke-width="1.7"/>
<line x1="442.1" y1="74.8" x2="441.5" y2="57.5" opacity="0.6" stroke="rgb(0,0,0)"  stroke-width="2.4"/>
<line x1="442.1" y1="74.8" x2="443.3" y2="50.1" opacity="0.8" stroke="rgb(0,0,0)"  stroke-width="1.3"/>
<line x1="275.4" y1="71.0" x2="233.7" y2="97.5" opacity="0.4" stroke="rgb(0,0,0)"  stroke-width="1.5"/>
<line x1="275.4" y1="71.0" x2="276.2" y2="46.7" opacity="0.5" stroke="rgb(0,0,0)"  stroke-width="1.1"/>
<line x1="275.4" y1="71.0" x2="275.1" y2="53.2" opacity="0.4" stroke="rgb(0,0,0)"  stroke-width="2.2"/>
<line x1="483.4" y1="102.3" x2="526.2" y2="77.3" opacity="0.7" stroke="rgb(0,0,0)"  stroke-width="1.7"/>
<line x1="483.4" y1="102.3" x2="482.9" y2="126.1" opacity="0.6" stroke="rgb(0,0,0)"  stroke-width="2.2"/>
<line x1="483.4" y1="102.3" x2="482.8" y2="120.9" opacity="0.7" stroke="rgb(0,0,0)"  stroke-width="1.1"/>
<line x1="233.7" y1="97.5" x2="192.5" y2="69.9" opacity="0.4" stroke="rgb(0,0,0)"  stroke-width="1.5"/>
<line x1="233.7" y1="97.5" x2="232.8" y2="122.1" opacity="0.5" stroke="rgb(0,0,0)"  stroke-width="1.9"/>
<line x1="233.7" y1="97.5" x2="233.9" y2="114.9" opacity="0.6" stroke="rgb(0,0,0)"  stroke-width="0.8"/>
<line x1="526.2" y1="77.3" x2="567.4" y2="104.6" opacity="0.3" stroke="rgb(0,0,0)"  stroke-width="1.7"/>
<line x1="526.2" y1="77.3" x2="527.5" y2="59.5" opacity="0.6" stroke="rgb(0,0,0)"  stroke-width="2.4"/>
<line x1="526.2" y1="77.3" x2="526.1" y2="52.9" opacity="0.8" stroke="rgb(0,0,0)"  stroke-width="1.2"/>
<line x1="192.5" y1="69.9" x2="149.7" y2="94.1" opacity="0.4" stroke="rgb(0,0,0)"  stroke-width="1.4"/>
<line x1="192.5" y1="69.9" x2="194.5" y2="44.0" opacity="0.5" stroke="rgb(0,0,0)"  stroke-width="1.1"/>
<line x1="192.5" y1="69.9" x2="191.8" y2="53.8" opacity="0.4" stroke="rgb(0,0,0)"  stroke-width="2.2"/>
<line x1="567.4" y1="104.6" x2="609.1" y2="77.8" opacity="0.7" stroke="rgb(0,0,0)"  stroke-width="1.6"/>
<line x1="567.4" y1="104.6" x2="568.4" y2="128.4" opacity="0.5" stroke="rgb(0,0,0)"  stroke-width="2.1"/>
<line x1="567.4" y1="104.6" x2="565.7" y2="123.0" opacity="0.7" stroke="rgb(0,0,0)"  stroke-width="1.0"/>
<line x1="149.7" y1="94.1" x2="109.7" y2="65.4" opacity="0.3" stroke="rgb(0,0,0)"  stroke-width="1.4"/>
<line x1="149.7" y1="94.1" x2="149.6" y2="109.1" opacity="0.5" stroke="rgb(0,0,0)"  stroke-width="0.6"/>
<line x1="149.7" y1="94.1" x2="148.0" y2="120.7" opacity="0.2" stroke="rgb(0,0,0)"  stroke-width="1.7"/>
<line x1="609.1" y1="77.8" x2="649.6" y2="105.4" opacity="0.6" stroke="rgb(0,0,0)"  stroke-width="1.5"/>
<line x1="609.1" y1="77.8" x2="611.7" y2="60.5" opacity="0.5" stroke="rgb(0,0,0)"  stroke-width="2.2"/>
<line x1="609.1" y1="77.8" x2="607.2" y2="52.8" opacity="0.7" stroke="rgb(0,0,0)"  stroke-width="1.1"/>
<line x1="109.7" y1="65.4" x2="68.3" y2="91.7" opacity="0.4" stroke="rgb(0,0,0)"  stroke-width="1.4"/>
<line x1="109.7" y1="65.4" x2="110.3" y2="49.3" opacity="0.5" stroke="rgb(0,0,0)"  stroke-width="2.1"/>
<line x1="109.7" y1="65.4" x2="110.0" y2="40.0" opacity="0.7" stroke="rgb(0,0,0)"  stroke-width="1.0"/>
<line x1="649.6" y1="105.4" x2="689.2" y2="79.1" opacity="0.3" stroke="rgb(0,0,0)"  stroke-width="1.3"/>
<line x1="649.6" y1="105.4" x2="646.3" y2="123.6" opacity="0.4" stroke="rgb(0,0,0)"  stroke-width="0.7"/>
<line x1="649.6" y1="105.4" x2="652.4" y2="129.4" opacity="0.2" stroke="rgb(0,0,0)"  stroke-width="1.8"/>
<line x1="68.3" y1="91.7" x2="66.2" y2="107.6" opacity="0.6" stroke="rgb(0,0,0)"  stroke-width="0.7"/>
<line x1="68.3" y1="91.7" x2="40.0" y2="70.6" opacity="0.2" stroke="rgb(0,0,0)"  stroke-width="1.4"/>
<line x1="68.3" y1="91.7" x2="66.5" y2="116.6" opacity="0.5" stroke="rgb(0,0,0)"  stroke-width="1.8"/>
<circle cx="149.632318" cy="109.071890" r="5.636364" opacity="0.200000" style="stroke:black;stroke-width:0.5;fill:url(#radialffffffbfbfbf)"/>
<circle cx="66.241554" cy="107.575888" r="5.636364" opacity="0.200000" style="stroke:black;stroke-width:0.5;fill:url(#radialffffffbfbfbf)"/>
<circle cx="646.330800" cy="123.598002" r="5.636364" opacity="0.201204" style="stroke:black;stroke-width:0.5;fill:url(#radialffffffbfbfbf)"/>
<circle cx="233.890892" cy="114.932849" r="5.636364" opacity="0.258875" style="stroke:black;stroke-width:0.5;fill:url(#radialffffffbfbfbf)"/>
<circle cx="316.102988" cy="117.332280" r="5.636364" opacity="0.314998" style="stroke:black;stroke-width:0.5;fill:url(#radialffffffbfbfbf)"/>
<circle cx="401.906135" cy="119.819140" r="5.636364" opacity="0.355823" style="stroke:black;stroke-width:0.5;fill:url(#radialffffffbfbfbf)"/>
<circle cx="565.734516" cy="122.986001" r="5.636364" opacity="0.357677" style="stroke:black;stroke-width:0.5;fill:url(#radialffffffbfbfbf)"/>
<circle cx="482.761467" cy="120.877999" r="5.636364" opacity="0.398787" style="stroke:black;stroke-width:0.5;fill:url(#radialffffffbfbfbf)"/>
<circle cx="110.049796" cy="40.000000" r="5.636364" opacity="0.404469" style="stroke:black;stroke-width:0.5;fill:url(#radialffffffbfbfbf)"/>
<circle cx="360.804944" cy="50.954489" r="5.636364" opacity="0.407987" style="stroke:black;stroke-width:0.5;fill:url(#radialffffffbfbfbf)"/>
<circle cx="276.235513" cy="46.719055" r="5.636364" opacity="0.431662" style="stroke:black;stroke-width:0.5;fill:url(#radialffffffbfbfbf)"/>
<circle cx="194.531799" cy="44.047624" r="5.636364" opacity="0.436673" style="stroke:black;stroke-width:0.5;fill:url(#radialffffffbfbfbf)"/>
<circle cx="607.214564" cy="52.839063" r="5.636364" opacity="0.449431" style="stroke:black;stroke-width:0.5;fill:url(#radialffffffbfbfbf)"/>
<circle cx="526.083994" cy="52.852015" r="5.636364" opacity="0.495005" style="stroke:black;stroke-width:0.5;fill:url(#radialffffffbfbfbf)"/>
<circle cx="443.250183" cy="50.099631" r="5.636364" opacity="0.505621" style="stroke:black;stroke-width:0.5;fill:url(#radialffffffbfbfbf)"/>
<circle cx="720.454124" cy="58.379450" r="12.909091" opacity="0.631112" style="stroke:black;stroke-width:0.5;fill:url(#radialffffff0ccff)"/>
<circle cx="689.170850" cy="79.145379" r="13.818182" opacity="0.645811" style="stroke:black;stroke-width:0.5;fill:url(#radialffffff666666)"/>
<circle cx="149.729461" cy="94.141015" r="13.818182" opacity="0.651631" style="stroke:black;stroke-width:0.5;fill:url(#radialffffff666666)"/>
<circle cx="68.255652" cy="91.676822" r="13.818182" opacity="0.661893" style="stroke:black;stroke-width:0.5;fill:url(#radialffffff666666)"/>
<circle cx="649.555947" cy="105.445219" r="13.818182" opacity="0.663438" style="stroke:black;stroke-width:0.5;fill:url(#radialffffff666666)"/>
<circle cx="233.680416" cy="97.521591" r="13.818182" opacity="0.689049" style="stroke:black;stroke-width:0.5;fill:url(#radialffffff666666)"/>
<circle cx="40.000000" cy="70.570893" r="5.636364" opacity="0.696040" style="stroke:black;stroke-width:0.5;fill:url(#radialffffffbfbfbf)"/>
<circle cx="109.735700" cy="65.412601" r="13.818182" opacity="0.699952" style="stroke:black;stroke-width:0.5;fill:url(#radialffffff666666)"/>
<circle cx="316.556321" cy="98.548068" r="13.818182" opacity="0.704659" style="stroke:black;stroke-width:0.5;fill:url(#radialffffff666666)"/>
<circle cx="192.520939" cy="69.926511" r="14.107018" opacity="0.714459" style="stroke:black;stroke-width:0.5;fill:url(#radialffffff666666)"/>
<circle cx="400.578514" cy="101.326357" r="14.527895" opacity="0.725038" style="stroke:black;stroke-width:0.5;fill:url(#radialffffff666666)"/>
<circle cx="359.406086" cy="73.650325" r="14.540863" opacity="0.725362" style="stroke:black;stroke-width:0.5;fill:url(#radialffffff666666)"/>
<circle cx="275.351512" cy="71.027465" r="14.573873" opacity="0.726185" style="stroke:black;stroke-width:0.5;fill:url(#radialffffff666666)"/>
<circle cx="567.363280" cy="104.613027" r="14.588020" opacity="0.726537" style="stroke:black;stroke-width:0.5;fill:url(#radialffffff666666)"/>
<circle cx="609.086185" cy="77.769187" r="14.782543" opacity="0.731365" style="stroke:black;stroke-width:0.5;fill:url(#radialffffff666666)"/>
<circle cx="483.379944" cy="102.301025" r="15.422699" opacity="0.747033" style="stroke:black;stroke-width:0.5;fill:url(#radialffffff666666)"/>
<circle cx="526.197327" cy="77.312615" r="16.157169" opacity="0.764614" style="stroke:black;stroke-width:0.5;fill:url(#radialffffff666666)"/>
<circle cx="442.139515" cy="74.819279" r="16.342261" opacity="0.768981" style="stroke:black;stroke-width:0.5;fill:url(#radialffffff666666)"/>
<circle cx="148.045649" cy="120.693427" r="8.283594" opacity="0.857225" style="stroke:black;stroke-width:0.5;fill:url(#radialffffffbfbfbf)"/>
<circle cx="66.549174" cy="116.610184" r="8.671662" opacity="0.877075" style="stroke:black;stroke-width:0.5;fill:url(#radialffffffbfbfbf)"/>
<circle cx="652.373093" cy="129.358580" r="8.834679" opacity="0.885280" style="stroke:black;stroke-width:0.5;fill:url(#radialffffffbfbfbf)"/>
<circle cx="232.822319" cy="122.121429" r="9.153501" opacity="0.901113" style="stroke:black;stroke-width:0.5;fill:url(#radialffffffbfbfbf)"/>
<circle cx="315.830987" cy="122.218572" r="9.531951" opacity="0.919552" style="stroke:black;stroke-width:0.5;fill:url(#radialffffffbfbfbf)"/>
<circle cx="398.716607" cy="125.022765" r="9.845002" opacity="0.934530" style="stroke:black;stroke-width:0.5;fill:url(#radialffffffbfbfbf)"/>
<circle cx="568.370328" cy="128.419531" r="9.861352" opacity="0.935306" style="stroke:black;stroke-width:0.5;fill:url(#radialffffffbfbfbf)"/>
<circle cx="482.878039" cy="126.149624" r="10.201332" opacity="0.951292" style="stroke:black;stroke-width:0.5;fill:url(#radialffffffbfbfbf)"/>
<circle cx="110.318558" cy="49.309535" r="10.218644" opacity="0.952099" style="stroke:black;stroke-width:0.5;fill:url(#radialffffffbfbfbf)"/>
<circle cx="359.198847" cy="53.787826" r="10.308087" opacity="0.956257" style="stroke:black;stroke-width:0.5;fill:url(#radialffffffbfbfbf)"/>
<circle cx="191.840938" cy="53.849349" r="10.459564" opacity="0.963257" style="stroke:black;stroke-width:0.5;fill:url(#radialffffffbfbfbf)"/>
<circle cx="275.063321" cy="53.237349" r="10.509575" opacity="0.965557" style="stroke:black;stroke-width:0.5;fill:url(#radialffffffbfbfbf)"/>
<circle cx="611.670188" cy="60.548976" r="10.630275" opacity="0.971086" style="stroke:black;stroke-width:0.5;fill:url(#radialffffffbfbfbf)"/>
<circle cx="527.460186" cy="59.451261" r="11.148180" opacity="0.994460" style="stroke:black;stroke-width:0.5;fill:url(#radialffffffbfbfbf)"/>
<circle cx="441.521038" cy="57.544020" r="11.272727" opacity="1.000000" style="stroke:black;stroke-width:0.5;fill:url(#radialffffffbfbfbf)"/>
</svg>
</g>
</svg>
