<?xml version="1.0"?>
<svg version="1.1" id="topsvg"
xmlns="http://www.w3.org/2000/svg" xmlns:xlink="http://www.w3.org/1999/xlink"
xmlns:cml="http://www.xml-cml.org/schema" x="0" y="0" width="1024px" height="1024px" viewBox="0 0 100 100">
<title>69825 - Open Babel Depiction</title>
<rect x="0" y="0" width="100" height="100" fill="white"/>
<defs>
<radialGradient id='radialffffff666666' cx='50%' cy='50%' r='50%' fx='30%' fy='30%'>
  <stop offset=' 0%' stop-color="rgb(255,255,255)"  stop-opacity='1.0'/>
  <stop offset='100%' stop-color="rgb(102,102,102)"  stop-opacity ='1.0'/>
</radialGradient>
<radialGradient id='radialffffffbfbfbf' cx='50%' cy='50%' r='50%' fx='30%' fy='30%'>
  <stop offset=' 0%' stop-color="rgb(255,255,255)"  stop-opacity='1.0'/>
  <stop offset='100%' stop-color="rgb(191,191,191)"  stop-opacity ='1.0'/>
</radialGradient>
</defs>
<g transform="translate(0,0)">
<svg width="100" height="100" x="0" y="0" viewBox="0 0 631.84 248.095"
font-family="sans-serif" stroke="rgb(0,0,0)" stroke-width="2"  stroke-linecap="round">
<line x1="316.4" y1="106.6" x2="356.0" y2="83.5" opacity="1.0" stroke="rgb(0,0,0)"  stroke-width="1.5"/>
<line x1="316.4" y1="106.6" x2="274.1" y2="89.9" opacity="0.5" stroke="rgb(0,0,0)"  stroke-width="1.5"/>
<line x1="316.4" y1="106.6" x2="315.7" y2="101.5" opacity="0.5" stroke="rgb(0,0,0)"  stroke-width="2.4"/>
<line x1="316.4" y1="106.6" x2="319.2" y2="141.7" opacity="0.8" stroke="rgb(0,0,0)"  stroke-width="1.8"/>
<line x1="356.0" y1="83.5" x2="398.3" y2="101.1" opacity="0.6" stroke="rgb(0,0,0)"  stroke-width="1.5"/>
<line x1="356.0" y1="83.5" x2="356.3" y2="88.0" opacity="0.5" stroke="rgb(0,0,0)"  stroke-width="0.7"/>
<line x1="356.0" y1="83.5" x2="353.7" y2="48.5" opacity="0.2" stroke="rgb(0,0,0)"  stroke-width="1.3"/>
<line x1="274.1" y1="89.9" x2="234.7" y2="113.7" opacity="0.4" stroke="rgb(0,0,0)"  stroke-width="1.5"/>
<line x1="274.1" y1="89.9" x2="270.9" y2="54.9" opacity="0.5" stroke="rgb(0,0,0)"  stroke-width="1.3"/>
<line x1="274.1" y1="89.9" x2="275.0" y2="94.4" opacity="0.4" stroke="rgb(0,0,0)"  stroke-width="0.6"/>
<line x1="398.3" y1="101.1" x2="438.9" y2="78.4" opacity="0.2" stroke="rgb(0,0,0)"  stroke-width="1.6"/>
<line x1="398.3" y1="101.1" x2="397.5" y2="97.5" opacity="0.5" stroke="rgb(0,0,0)"  stroke-width="2.4"/>
<line x1="398.3" y1="101.1" x2="400.6" y2="136.0" opacity="0.8" stroke="rgb(0,0,0)"  stroke-width="1.7"/>
<line x1="234.7" y1="113.7" x2="191.4" y2="98.9" opacity="0.6" stroke="rgb(0,0,0)"  stroke-width="1.5"/>
<line x1="234.7" y1="113.7" x2="233.7" y2="108.8" opacity="0.5" stroke="rgb(0,0,0)"  stroke-width="2.4"/>
<line x1="234.7" y1="113.7" x2="238.5" y2="148.7" opacity="0.8" stroke="rgb(0,0,0)"  stroke-width="1.7"/>
<line x1="438.9" y1="78.4" x2="481.3" y2="97.6" opacity="0.6" stroke="rgb(0,0,0)"  stroke-width="1.6"/>
<line x1="438.9" y1="78.4" x2="439.0" y2="80.6" opacity="0.5" stroke="rgb(0,0,0)"  stroke-width="0.7"/>
<line x1="438.9" y1="78.4" x2="437.4" y2="43.7" opacity="0.2" stroke="rgb(0,0,0)"  stroke-width="1.4"/>
<line x1="191.4" y1="98.9" x2="152.1" y2="123.4" opacity="0.5" stroke="rgb(0,0,0)"  stroke-width="1.5"/>
<line x1="191.4" y1="98.9" x2="187.2" y2="64.0" opacity="0.5" stroke="rgb(0,0,0)"  stroke-width="1.3"/>
<line x1="191.4" y1="98.9" x2="192.5" y2="103.5" opacity="0.4" stroke="rgb(0,0,0)"  stroke-width="0.6"/>
<line x1="481.3" y1="97.6" x2="522.1" y2="74.6" opacity="0.2" stroke="rgb(0,0,0)"  stroke-width="1.6"/>
<line x1="481.3" y1="97.6" x2="482.5" y2="132.2" opacity="0.5" stroke="rgb(0,0,0)"  stroke-width="1.7"/>
<line x1="481.3" y1="97.6" x2="481.2" y2="95.7" opacity="0.6" stroke="rgb(0,0,0)"  stroke-width="2.4"/>
<line x1="152.1" y1="123.4" x2="108.9" y2="108.6" opacity="0.8" stroke="rgb(0,0,0)"  stroke-width="1.5"/>
<line x1="152.1" y1="123.4" x2="150.9" y2="119.0" opacity="0.5" stroke="rgb(0,0,0)"  stroke-width="2.3"/>
<line x1="152.1" y1="123.4" x2="156.3" y2="158.2" opacity="0.8" stroke="rgb(0,0,0)"  stroke-width="1.7"/>
<line x1="522.1" y1="74.6" x2="565.3" y2="92.2" opacity="0.6" stroke="rgb(0,0,0)"  stroke-width="1.6"/>
<line x1="522.1" y1="74.6" x2="522.0" y2="76.5" opacity="0.5" stroke="rgb(0,0,0)"  stroke-width="0.7"/>
<line x1="522.1" y1="74.6" x2="520.1" y2="40.0" opacity="0.2" stroke="rgb(0,0,0)"  stroke-width="1.4"/>
<line x1="108.9" y1="108.6" x2="69.9" y2="134.2" opacity="0.5" stroke="rgb(0,0,0)"  stroke-width="1.4"/>
<line x1="108.9" y1="108.6" x2="110.4" y2="111.7" opacity="0.5" stroke="rgb(0,0,0)"  stroke-width="0.6"/>
<line x1="108.9" y1="108.6" x2="103.8" y2="74.1" opacity="0.2" stroke="rgb(0,0,0)"  stroke-width="1.3"/>
<line x1="565.3" y1="92.2" x2="572.5" y2="137.8" opacity="0.4" stroke="rgb(0,0,0)"  stroke-width="1.7"/>
<line x1="565.3" y1="92.2" x2="566.2" y2="89.0" opacity="0.6" stroke="rgb(0,0,0)"  stroke-width="2.4"/>
<line x1="565.3" y1="92.2" x2="591.8" y2="72.2" opacity="0.8" stroke="rgb(0,0,0)"  stroke-width="1.6"/>
<line x1="69.9" y1="134.2" x2="66.5" y2="131.1" opacity="0.5" stroke="rgb(0,0,0)"  stroke-width="2.2"/>
<line x1="69.9" y1="134.2" x2="40.0" y2="122.3" opacity="0.7" stroke="rgb(0,0,0)"  stroke-width="1.4"/>
<line x1="69.9" y1="134.2" x2="73.2" y2="168.8" opacity="0.5" stroke="rgb(0,0,0)"  stroke-width="1.5"/>
<line x1="572.5" y1="137.8" x2="578.6" y2="175.0" opacity="0.5" stroke="rgb(0,0,0)"  stroke-width="1.3"/>
<line x1="576.7" y1="137.1" x2="582.7" y2="174.4" opacity="0.5" stroke="rgb(0,0,0)"  stroke-width="1.3"/>
<line x1="568.4" y1="138.5" x2="574.4" y2="175.7" opacity="0.5" stroke="rgb(0,0,0)"  stroke-width="1.3"/>
<line x1="578.6" y1="175.0" x2="583.9" y2="208.1" opacity="0.4" stroke="rgb(0,0,0)"  stroke-width="1.0"/>
<circle cx="110.445342" cy="111.657228" r="5.636364" opacity="0.200000" style="stroke:black;stroke-width:0.5;fill:url(#radialffffffbfbfbf)"/>
<circle cx="192.489701" cy="103.459940" r="5.636364" opacity="0.200000" style="stroke:black;stroke-width:0.5;fill:url(#radialffffffbfbfbf)"/>
<circle cx="274.975927" cy="94.385416" r="5.636364" opacity="0.200000" style="stroke:black;stroke-width:0.5;fill:url(#radialffffffbfbfbf)"/>
<circle cx="356.331492" cy="87.991336" r="5.636364" opacity="0.200000" style="stroke:black;stroke-width:0.5;fill:url(#radialffffffbfbfbf)"/>
<circle cx="439.045150" cy="80.603055" r="5.636364" opacity="0.220258" style="stroke:black;stroke-width:0.5;fill:url(#radialffffffbfbfbf)"/>
<circle cx="521.999236" cy="76.476795" r="5.636364" opacity="0.224490" style="stroke:black;stroke-width:0.5;fill:url(#radialffffffbfbfbf)"/>
<circle cx="583.906142" cy="208.094764" r="5.636364" opacity="0.535011" style="stroke:black;stroke-width:0.5;fill:url(#radialffffffbfbfbf)"/>
<circle cx="578.561498" cy="175.048939" r="13.818182" opacity="0.616488" style="stroke:black;stroke-width:0.5;fill:url(#radialffffff666666)"/>
<circle cx="108.853320" cy="108.619391" r="13.818182" opacity="0.616743" style="stroke:black;stroke-width:0.5;fill:url(#radialffffff666666)"/>
<circle cx="40.000000" cy="122.288035" r="5.636364" opacity="0.626887" style="stroke:black;stroke-width:0.5;fill:url(#radialffffffbfbfbf)"/>
<circle cx="191.372037" cy="98.943797" r="13.818182" opacity="0.628913" style="stroke:black;stroke-width:0.5;fill:url(#radialffffff666666)"/>
<circle cx="274.092192" cy="89.853027" r="13.818182" opacity="0.636871" style="stroke:black;stroke-width:0.5;fill:url(#radialffffff666666)"/>
<circle cx="355.970851" cy="83.546671" r="13.818182" opacity="0.642103" style="stroke:black;stroke-width:0.5;fill:url(#radialffffff666666)"/>
<circle cx="438.941181" cy="78.396968" r="13.818182" opacity="0.655824" style="stroke:black;stroke-width:0.5;fill:url(#radialffffff666666)"/>
<circle cx="522.077212" cy="74.608606" r="13.818182" opacity="0.657655" style="stroke:black;stroke-width:0.5;fill:url(#radialffffff666666)"/>
<circle cx="103.807586" cy="74.088762" r="5.636364" opacity="0.676232" style="stroke:black;stroke-width:0.5;fill:url(#radialffffffbfbfbf)"/>
<circle cx="187.213286" cy="64.026534" r="5.636364" opacity="0.676489" style="stroke:black;stroke-width:0.5;fill:url(#radialffffffbfbfbf)"/>
<circle cx="270.885406" cy="54.890278" r="5.636364" opacity="0.685954" style="stroke:black;stroke-width:0.5;fill:url(#radialffffffbfbfbf)"/>
<circle cx="73.224521" cy="168.768575" r="5.636364" opacity="0.686335" style="stroke:black;stroke-width:0.5;fill:url(#radialffffffbfbfbf)"/>
<circle cx="353.664044" cy="48.531938" r="5.636364" opacity="0.691823" style="stroke:black;stroke-width:0.5;fill:url(#radialffffffbfbfbf)"/>
<circle cx="591.840259" cy="72.220573" r="5.636364" opacity="0.692024" style="stroke:black;stroke-width:0.5;fill:url(#radialffffffbfbfbf)"/>
<circle cx="572.518313" cy="137.795628" r="13.818182" opacity="0.697017" style="stroke:black;stroke-width:0.5;fill:url(#radialffffff666666)"/>
<circle cx="437.414140" cy="43.739627" r="5.835747" opacity="0.719505" style="stroke:black;stroke-width:0.5;fill:url(#radialffffffbfbfbf)"/>
<circle cx="520.056319" cy="40.000000" r="5.880535" opacity="0.722261" style="stroke:black;stroke-width:0.5;fill:url(#radialffffffbfbfbf)"/>
<circle cx="482.526841" cy="132.168318" r="5.947716" opacity="0.726375" style="stroke:black;stroke-width:0.5;fill:url(#radialffffffbfbfbf)"/>
<circle cx="156.308568" cy="158.244986" r="5.959895" opacity="0.727118" style="stroke:black;stroke-width:0.5;fill:url(#radialffffffbfbfbf)"/>
<circle cx="400.599447" cy="136.021661" r="6.162225" opacity="0.739357" style="stroke:black;stroke-width:0.5;fill:url(#radialffffffbfbfbf)"/>
<circle cx="238.482887" cy="148.699353" r="6.180690" opacity="0.740464" style="stroke:black;stroke-width:0.5;fill:url(#radialffffffbfbfbf)"/>
<circle cx="69.874777" cy="134.247693" r="15.344332" opacity="0.745133" style="stroke:black;stroke-width:0.5;fill:url(#radialffffff666666)"/>
<circle cx="319.169154" cy="141.661967" r="6.325268" opacity="0.749074" style="stroke:black;stroke-width:0.5;fill:url(#radialffffffbfbfbf)"/>
<circle cx="152.081587" cy="123.350466" r="16.359518" opacity="0.769387" style="stroke:black;stroke-width:0.5;fill:url(#radialffffff666666)"/>
<circle cx="234.675031" cy="113.674872" r="16.762124" opacity="0.778797" style="stroke:black;stroke-width:0.5;fill:url(#radialffffff666666)"/>
<circle cx="565.298981" cy="92.205321" r="17.038555" opacity="0.785192" style="stroke:black;stroke-width:0.5;fill:url(#radialffffff666666)"/>
<circle cx="481.344196" cy="97.588954" r="17.086714" opacity="0.786301" style="stroke:black;stroke-width:0.5;fill:url(#radialffffff666666)"/>
<circle cx="398.299138" cy="101.101149" r="17.116573" opacity="0.786988" style="stroke:black;stroke-width:0.5;fill:url(#radialffffff666666)"/>
<circle cx="316.413981" cy="106.569256" r="17.155100" opacity="0.787873" style="stroke:black;stroke-width:0.5;fill:url(#radialffffff666666)"/>
<circle cx="66.499041" cy="131.089642" r="10.522731" opacity="0.966162" style="stroke:black;stroke-width:0.5;fill:url(#radialffffffbfbfbf)"/>
<circle cx="150.902191" cy="118.961035" r="10.947035" opacity="0.985448" style="stroke:black;stroke-width:0.5;fill:url(#radialffffffbfbfbf)"/>
<circle cx="233.667833" cy="108.801336" r="11.105363" opacity="0.992549" style="stroke:black;stroke-width:0.5;fill:url(#radialffffffbfbfbf)"/>
<circle cx="566.182715" cy="89.011530" r="11.237762" opacity="0.998448" style="stroke:black;stroke-width:0.5;fill:url(#radialffffffbfbfbf)"/>
<circle cx="315.747931" cy="101.530020" r="11.262513" opacity="0.999547" style="stroke:black;stroke-width:0.5;fill:url(#radialffffffbfbfbf)"/>
<circle cx="397.519372" cy="97.533720" r="11.269191" opacity="0.999843" style="stroke:black;stroke-width:0.5;fill:url(#radialffffffbfbfbf)"/>
<circle cx="481.207737" cy="95.678527" r="11.272727" opacity="1.000000" style="stroke:black;stroke-width:0.5;fill:url(#radialffffffbfbfbf)"/>
</svg>
</g>
</svg>
