<?xml version="1.0"?>
<svg version="1.1" id="topsvg"
xmlns="http://www.w3.org/2000/svg" xmlns:xlink="http://www.w3.org/1999/xlink"
xmlns:cml="http://www.xml-cml.org/schema" x="0" y="0" width="200px" height="200px" viewBox="0 0 100 100">
<title>69829 - Open Babel Depiction</title>
<rect x="0" y="0" width="100" height="100" fill="white"/>
<defs>
<radialGradient id='radialffffff666666' cx='50%' cy='50%' r='50%' fx='30%' fy='30%'>
  <stop offset=' 0%' stop-color="rgb(255,255,255)"  stop-opacity='1.0'/>
  <stop offset='100%' stop-color="rgb(102,102,102)"  stop-opacity ='1.0'/>
</radialGradient>
<radialGradient id='radialffffffbfbfbf' cx='50%' cy='50%' r='50%' fx='30%' fy='30%'>
  <stop offset=' 0%' stop-color="rgb(255,255,255)"  stop-opacity='1.0'/>
  <stop offset='100%' stop-color="rgb(191,191,191)"  stop-opacity ='1.0'/>
</radialGradient>
</defs>
<g transform="translate(0,0)">
<svg width="100" height="100" x="0" y="0" viewBox="0 0 251.397 225.965"
font-family="sans-serif" stroke="rgb(0,0,0)" stroke-width="4"  stroke-linecap="round">
<line x1="181.6" y1="113.0" x2="211.4" y2="113.0" opacity="1.0" stroke="rgb(0,0,0)"  stroke-width="1.7"/>
<line x1="181.6" y1="113.0" x2="191.1" y2="113.0" opacity="0.6" stroke="rgb(0,0,0)"  stroke-width="0.7"/>
<line x1="153.4" y1="152.4" x2="159.4" y2="165.0" opacity="0.2" stroke="rgb(0,0,0)"  stroke-width="2.4"/>
<line x1="153.4" y1="152.4" x2="159.5" y2="178.1" opacity="0.8" stroke="rgb(0,0,0)"  stroke-width="1.3"/>
<line x1="153.5" y1="73.6" x2="159.5" y2="48.0" opacity="0.4" stroke="rgb(0,0,0)"  stroke-width="1.3"/>
<line x1="153.5" y1="73.6" x2="159.4" y2="61.0" opacity="0.4" stroke="rgb(0,0,0)"  stroke-width="2.4"/>
<line x1="108.4" y1="134.7" x2="71.1" y2="165.1" opacity="0.8" stroke="rgb(0,0,0)"  stroke-width="1.6"/>
<line x1="108.4" y1="91.3" x2="71.2" y2="60.8" opacity="0.5" stroke="rgb(0,0,0)"  stroke-width="1.6"/>
<line x1="71.1" y1="165.1" x2="73.7" y2="186.0" opacity="0.5" stroke="rgb(0,0,0)"  stroke-width="1.0"/>
<line x1="71.1" y1="165.1" x2="40.0" y2="148.5" opacity="0.3" stroke="rgb(0,0,0)"  stroke-width="1.5"/>
<line x1="71.1" y1="165.1" x2="70.9" y2="185.6" opacity="0.5" stroke="rgb(0,0,0)"  stroke-width="2.1"/>
<line x1="71.2" y1="60.8" x2="70.9" y2="40.3" opacity="0.7" stroke="rgb(0,0,0)"  stroke-width="2.1"/>
<line x1="71.2" y1="60.8" x2="40.0" y2="77.4" opacity="0.7" stroke="rgb(0,0,0)"  stroke-width="1.5"/>
<line x1="71.2" y1="60.8" x2="73.7" y2="40.0" opacity="0.5" stroke="rgb(0,0,0)"  stroke-width="1.0"/>
<line x1="153.4" y1="152.4" x2="181.6" y2="113.0" opacity="0.3" stroke="rgb(0,0,0)"  stroke-width="1.5"/>
<line x1="181.6" y1="113.0" x2="153.5" y2="73.6" opacity="0.5" stroke="rgb(0,0,0)"  stroke-width="1.5"/>
<line x1="153.5" y1="73.6" x2="108.4" y2="91.3" opacity="0.5" stroke="rgb(0,0,0)"  stroke-width="1.7"/>
<line x1="108.4" y1="105.6" x2="108.4" y2="120.4" opacity="0.6" stroke="rgb(0,0,0)"  stroke-width="1.7"/>
<line x1="115.6" y1="107.3" x2="115.6" y2="118.7" opacity="0.6" stroke="rgb(0,0,0)"  stroke-width="1.7"/>
<line x1="108.4" y1="134.7" x2="153.4" y2="152.4" opacity="0.6" stroke="rgb(0,0,0)"  stroke-width="1.7"/>
<circle cx="191.121730" cy="113.037374" r="5.636364" opacity="0.200000" style="stroke:black;stroke-width:0.5;fill:url(#radialffffffbfbfbf)"/>
<circle cx="73.676728" cy="185.964820" r="5.636364" opacity="0.366560" style="stroke:black;stroke-width:0.5;fill:url(#radialffffffbfbfbf)"/>
<circle cx="73.728459" cy="40.000000" r="5.636364" opacity="0.366676" style="stroke:black;stroke-width:0.5;fill:url(#radialffffffbfbfbf)"/>
<circle cx="159.511000" cy="47.966538" r="5.636364" opacity="0.512298" style="stroke:black;stroke-width:0.5;fill:url(#radialffffffbfbfbf)"/>
<circle cx="159.475435" cy="178.069412" r="5.636364" opacity="0.512795" style="stroke:black;stroke-width:0.5;fill:url(#radialffffffbfbfbf)"/>
<circle cx="181.603269" cy="113.021208" r="13.818182" opacity="0.670100" style="stroke:black;stroke-width:0.5;fill:url(#radialffffff666666)"/>
<circle cx="40.000000" cy="148.505279" r="5.636364" opacity="0.697754" style="stroke:black;stroke-width:0.5;fill:url(#radialffffffbfbfbf)"/>
<circle cx="40.032332" cy="77.423975" r="5.636364" opacity="0.698028" style="stroke:black;stroke-width:0.5;fill:url(#radialffffffbfbfbf)"/>
<circle cx="71.141920" cy="165.110855" r="14.049903" opacity="0.713011" style="stroke:black;stroke-width:0.5;fill:url(#radialffffff666666)"/>
<circle cx="71.187185" cy="60.847498" r="14.054596" opacity="0.713130" style="stroke:black;stroke-width:0.5;fill:url(#radialffffff666666)"/>
<circle cx="108.401004" cy="134.696398" r="14.649443" opacity="0.728065" style="stroke:black;stroke-width:0.5;fill:url(#radialffffff666666)"/>
<circle cx="108.417170" cy="91.297520" r="14.651790" opacity="0.728123" style="stroke:black;stroke-width:0.5;fill:url(#radialffffff666666)"/>
<circle cx="153.458500" cy="73.618531" r="15.819193" opacity="0.756575" style="stroke:black;stroke-width:0.5;fill:url(#radialffffff666666)"/>
<circle cx="153.429402" cy="152.398019" r="15.827406" opacity="0.756771" style="stroke:black;stroke-width:0.5;fill:url(#radialffffff666666)"/>
<circle cx="211.396957" cy="113.027674" r="7.890191" opacity="0.836622" style="stroke:black;stroke-width:0.5;fill:url(#radialffffffbfbfbf)"/>
<circle cx="70.854168" cy="185.638269" r="9.998773" opacity="0.941800" style="stroke:black;stroke-width:0.5;fill:url(#radialffffffbfbfbf)"/>
<circle cx="70.931764" cy="40.313618" r="10.000208" opacity="0.941868" style="stroke:black;stroke-width:0.5;fill:url(#radialffffffbfbfbf)"/>
<circle cx="159.410771" cy="60.963892" r="11.267942" opacity="0.999788" style="stroke:black;stroke-width:0.5;fill:url(#radialffffffbfbfbf)"/>
<circle cx="159.365507" cy="165.033259" r="11.272727" opacity="1.000000" style="stroke:black;stroke-width:0.5;fill:url(#radialffffffbfbfbf)"/>
</svg>
</g>
</svg>
