<?xml version="1.0"?>
<svg version="1.1" id="topsvg"
xmlns="http://www.w3.org/2000/svg" xmlns:xlink="http://www.w3.org/1999/xlink"
xmlns:cml="http://www.xml-cml.org/schema" x="0" y="0" width="200px" height="200px" viewBox="0 0 100 100">
<title>7044 - Open Babel Depiction</title>
<rect x="0" y="0" width="100" height="100" fill="white"/>
<defs>
<radialGradient id='radialffffff666666' cx='50%' cy='50%' r='50%' fx='30%' fy='30%'>
  <stop offset=' 0%' stop-color="rgb(255,255,255)"  stop-opacity='1.0'/>
  <stop offset='100%' stop-color="rgb(102,102,102)"  stop-opacity ='1.0'/>
</radialGradient>
<radialGradient id='radialffffffbfbfbf' cx='50%' cy='50%' r='50%' fx='30%' fy='30%'>
  <stop offset=' 0%' stop-color="rgb(255,255,255)"  stop-opacity='1.0'/>
  <stop offset='100%' stop-color="rgb(191,191,191)"  stop-opacity ='1.0'/>
</radialGradient>
</defs>
<g transform="translate(0,0)">
<svg width="100" height="100" x="0" y="0" viewBox="0 0 296.337 237.049"
font-family="sans-serif" stroke="rgb(0,0,0)" stroke-width="4"  stroke-linecap="round">
<line x1="147.4" y1="141.3" x2="149.0" y2="141.3" opacity="1.0" stroke="rgb(0,0,0)"  stroke-width="1.0"/>
<line x1="146.7" y1="141.1" x2="149.6" y2="141.2" opacity="1.0" stroke="rgb(0,0,0)"  stroke-width="1.0"/>
<line x1="146.1" y1="141.0" x2="150.3" y2="141.0" opacity="1.0" stroke="rgb(0,0,0)"  stroke-width="1.0"/>
<line x1="145.5" y1="140.8" x2="150.9" y2="140.9" opacity="1.0" stroke="rgb(0,0,0)"  stroke-width="1.0"/>
<line x1="144.8" y1="140.7" x2="151.5" y2="140.7" opacity="1.0" stroke="rgb(0,0,0)"  stroke-width="1.0"/>
<line x1="144.2" y1="140.5" x2="152.2" y2="140.6" opacity="1.0" stroke="rgb(0,0,0)"  stroke-width="1.0"/>
<polygon points="148.170038 95.562544 152.173186 96.487544 144.173232 96.514571 " stroke-width="4.000000" fill="rgb(0,0,0)"  stroke="rgb(0,0,0)" />
<line x1="188.3" y1="165.0" x2="188.7" y2="197.0" opacity="1.0" stroke="rgb(0,0,0)"  stroke-width="1.5"/>
<line x1="188.3" y1="165.0" x2="188.3" y2="168.6" opacity="0.5" stroke="rgb(0,0,0)"  stroke-width="2.3"/>
<line x1="108.1" y1="165.0" x2="108.1" y2="168.7" opacity="0.8" stroke="rgb(0,0,0)"  stroke-width="2.3"/>
<line x1="108.1" y1="165.0" x2="107.6" y2="197.0" opacity="0.8" stroke="rgb(0,0,0)"  stroke-width="1.5"/>
<line x1="188.3" y1="72.0" x2="188.7" y2="40.0" opacity="0.5" stroke="rgb(0,0,0)"  stroke-width="1.5"/>
<line x1="188.3" y1="72.0" x2="188.3" y2="68.4" opacity="0.5" stroke="rgb(0,0,0)"  stroke-width="0.7"/>
<line x1="108.1" y1="72.0" x2="108.1" y2="68.4" opacity="0.2" stroke="rgb(0,0,0)"  stroke-width="0.7"/>
<line x1="108.1" y1="72.0" x2="107.6" y2="40.0" opacity="0.2" stroke="rgb(0,0,0)"  stroke-width="1.5"/>
<line x1="228.3" y1="141.5" x2="230.8" y2="141.9" opacity="0.5" stroke="rgb(0,0,0)"  stroke-width="0.6"/>
<line x1="228.3" y1="141.5" x2="256.3" y2="157.9" opacity="0.2" stroke="rgb(0,0,0)"  stroke-width="1.4"/>
<line x1="68.0" y1="141.5" x2="40.0" y2="157.9" opacity="0.5" stroke="rgb(0,0,0)"  stroke-width="1.4"/>
<line x1="68.0" y1="141.5" x2="65.5" y2="141.9" opacity="0.5" stroke="rgb(0,0,0)"  stroke-width="0.6"/>
<line x1="228.4" y1="95.6" x2="230.8" y2="95.1" opacity="0.2" stroke="rgb(0,0,0)"  stroke-width="2.4"/>
<line x1="228.4" y1="95.6" x2="256.3" y2="79.1" opacity="0.8" stroke="rgb(0,0,0)"  stroke-width="1.6"/>
<line x1="68.0" y1="95.6" x2="40.0" y2="79.1" opacity="0.5" stroke="rgb(0,0,0)"  stroke-width="1.6"/>
<line x1="68.0" y1="95.6" x2="65.5" y2="95.1" opacity="0.5" stroke="rgb(0,0,0)"  stroke-width="2.4"/>
<line x1="148.2" y1="95.6" x2="148.2" y2="141.5" opacity="0.8" stroke="rgb(0,0,0)"  stroke-width="1.5"/>
<line x1="148.2" y1="141.5" x2="188.3" y2="165.0" opacity="0.5" stroke="rgb(0,0,0)"  stroke-width="1.5"/>
<line x1="188.3" y1="165.0" x2="228.3" y2="141.5" opacity="0.5" stroke="rgb(0,0,0)"  stroke-width="1.5"/>
<line x1="228.3" y1="141.5" x2="228.4" y2="95.6" opacity="0.5" stroke="rgb(0,0,0)"  stroke-width="1.5"/>
<line x1="228.4" y1="95.6" x2="188.3" y2="72.0" opacity="0.5" stroke="rgb(0,0,0)"  stroke-width="1.5"/>
<line x1="188.3" y1="72.0" x2="148.2" y2="95.6" opacity="0.5" stroke="rgb(0,0,0)"  stroke-width="1.5"/>
<line x1="108.1" y1="165.0" x2="148.2" y2="141.5" opacity="0.5" stroke="rgb(0,0,0)"  stroke-width="1.5"/>
<line x1="148.2" y1="95.6" x2="108.1" y2="72.0" opacity="0.5" stroke="rgb(0,0,0)"  stroke-width="1.5"/>
<line x1="108.1" y1="72.0" x2="68.0" y2="95.6" opacity="0.5" stroke="rgb(0,0,0)"  stroke-width="1.5"/>
<line x1="68.0" y1="95.6" x2="68.0" y2="141.5" opacity="0.5" stroke="rgb(0,0,0)"  stroke-width="1.5"/>
<line x1="68.0" y1="141.5" x2="108.1" y2="165.0" opacity="0.5" stroke="rgb(0,0,0)"  stroke-width="1.5"/>
<circle cx="148.176379" cy="140.541444" r="5.636364" opacity="0.200000" style="stroke:black;stroke-width:0.5;fill:url(#radialffffffbfbfbf)"/>
<circle cx="230.809969" cy="141.946044" r="5.636364" opacity="0.200000" style="stroke:black;stroke-width:0.5;fill:url(#radialffffffbfbfbf)"/>
<circle cx="65.517425" cy="141.946044" r="5.636364" opacity="0.200000" style="stroke:black;stroke-width:0.5;fill:url(#radialffffffbfbfbf)"/>
<circle cx="188.266131" cy="68.402720" r="5.636364" opacity="0.200000" style="stroke:black;stroke-width:0.5;fill:url(#radialffffffbfbfbf)"/>
<circle cx="108.070775" cy="68.405891" r="5.636364" opacity="0.200000" style="stroke:black;stroke-width:0.5;fill:url(#radialffffffbfbfbf)"/>
<circle cx="148.170038" cy="141.483128" r="13.818182" opacity="0.634880" style="stroke:black;stroke-width:0.5;fill:url(#radialffffff666666)"/>
<circle cx="228.349541" cy="141.454592" r="13.818182" opacity="0.640915" style="stroke:black;stroke-width:0.5;fill:url(#radialffffff666666)"/>
<circle cx="67.987364" cy="141.451422" r="13.818182" opacity="0.640944" style="stroke:black;stroke-width:0.5;fill:url(#radialffffff666666)"/>
<circle cx="107.642736" cy="197.045672" r="5.636364" opacity="0.641544" style="stroke:black;stroke-width:0.5;fill:url(#radialffffffbfbfbf)"/>
<circle cx="188.700510" cy="197.048843" r="5.636364" opacity="0.641687" style="stroke:black;stroke-width:0.5;fill:url(#radialffffffbfbfbf)"/>
<circle cx="188.285155" cy="72.029949" r="13.818182" opacity="0.657297" style="stroke:black;stroke-width:0.5;fill:url(#radialffffff666666)"/>
<circle cx="108.054921" cy="72.033119" r="13.818182" opacity="0.657297" style="stroke:black;stroke-width:0.5;fill:url(#radialffffff666666)"/>
<circle cx="256.336905" cy="79.125873" r="5.636364" opacity="0.668141" style="stroke:black;stroke-width:0.5;fill:url(#radialffffffbfbfbf)"/>
<circle cx="40.003171" cy="79.119531" r="5.636364" opacity="0.668141" style="stroke:black;stroke-width:0.5;fill:url(#radialffffffbfbfbf)"/>
<circle cx="256.336905" cy="157.929312" r="6.240444" opacity="0.744035" style="stroke:black;stroke-width:0.5;fill:url(#radialffffffbfbfbf)"/>
<circle cx="40.000000" cy="157.926141" r="6.241684" opacity="0.744109" style="stroke:black;stroke-width:0.5;fill:url(#radialffffffbfbfbf)"/>
<circle cx="108.051751" cy="165.018894" r="15.693336" opacity="0.753559" style="stroke:black;stroke-width:0.5;fill:url(#radialffffff666666)"/>
<circle cx="188.285155" cy="165.015724" r="15.695363" opacity="0.753608" style="stroke:black;stroke-width:0.5;fill:url(#radialffffff666666)"/>
<circle cx="188.700510" cy="40.000000" r="6.630214" opacity="0.766919" style="stroke:black;stroke-width:0.5;fill:url(#radialffffffbfbfbf)"/>
<circle cx="107.642736" cy="40.003171" r="6.630214" opacity="0.766919" style="stroke:black;stroke-width:0.5;fill:url(#radialffffffbfbfbf)"/>
<circle cx="228.352712" cy="95.600592" r="16.283091" opacity="0.767588" style="stroke:black;stroke-width:0.5;fill:url(#radialffffff666666)"/>
<circle cx="67.990535" cy="95.597421" r="16.283091" opacity="0.767588" style="stroke:black;stroke-width:0.5;fill:url(#radialffffff666666)"/>
<circle cx="148.170038" cy="95.562544" r="16.496902" opacity="0.772611" style="stroke:black;stroke-width:0.5;fill:url(#radialffffff666666)"/>
<circle cx="108.070775" cy="168.652464" r="10.911891" opacity="0.983865" style="stroke:black;stroke-width:0.5;fill:url(#radialffffffbfbfbf)"/>
<circle cx="188.269301" cy="168.642952" r="10.913544" opacity="0.983940" style="stroke:black;stroke-width:0.5;fill:url(#radialffffffbfbfbf)"/>
<circle cx="65.530107" cy="95.102799" r="11.164022" opacity="0.995167" style="stroke:black;stroke-width:0.5;fill:url(#radialffffffbfbfbf)"/>
<circle cx="230.809969" cy="95.102799" r="11.164435" opacity="0.995185" style="stroke:black;stroke-width:0.5;fill:url(#radialffffffbfbfbf)"/>
<circle cx="148.173209" cy="96.501058" r="11.272727" opacity="1.000000" style="stroke:black;stroke-width:0.5;fill:url(#radialffffffbfbfbf)"/>
</svg>
</g>
</svg>
