<?xml version="1.0"?>
<svg version="1.1" id="topsvg"
xmlns="http://www.w3.org/2000/svg" xmlns:xlink="http://www.w3.org/1999/xlink"
xmlns:cml="http://www.xml-cml.org/schema" x="0" y="0" width="1024px" height="1024px" viewBox="0 0 100 100">
<title>7248 - Open Babel Depiction</title>
<rect x="0" y="0" width="100" height="100" fill="white"/>
<defs>
<radialGradient id='radialffffff0ccff' cx='50%' cy='50%' r='50%' fx='30%' fy='30%'>
  <stop offset=' 0%' stop-color="rgb(255,255,255)"  stop-opacity='1.0'/>
  <stop offset='100%' stop-color="rgb(12,12,255)"  stop-opacity ='1.0'/>
</radialGradient>
<radialGradient id='radialffffff666666' cx='50%' cy='50%' r='50%' fx='30%' fy='30%'>
  <stop offset=' 0%' stop-color="rgb(255,255,255)"  stop-opacity='1.0'/>
  <stop offset='100%' stop-color="rgb(102,102,102)"  stop-opacity ='1.0'/>
</radialGradient>
<radialGradient id='radialffffffbfbfbf' cx='50%' cy='50%' r='50%' fx='30%' fy='30%'>
  <stop offset=' 0%' stop-color="rgb(255,255,255)"  stop-opacity='1.0'/>
  <stop offset='100%' stop-color="rgb(191,191,191)"  stop-opacity ='1.0'/>
</radialGradient>
</defs>
<g transform="translate(0,0)">
<svg width="100" height="100" x="0" y="0" viewBox="0 0 298.56 258.283"
font-family="sans-serif" stroke="rgb(0,0,0)" stroke-width="2"  stroke-linecap="round">
<line x1="236.0" y1="138.3" x2="191.4" y2="127.8" opacity="1.0" stroke="rgb(0,0,0)"  stroke-width="1.5"/>
<line x1="236.0" y1="138.3" x2="245.5" y2="169.8" opacity="0.5" stroke="rgb(0,0,0)"  stroke-width="1.5"/>
<line x1="236.0" y1="138.3" x2="258.6" y2="114.4" opacity="0.5" stroke="rgb(0,0,0)"  stroke-width="1.5"/>
<line x1="116.2" y1="150.4" x2="83.6" y2="186.3" opacity="0.5" stroke="rgb(0,0,0)"  stroke-width="1.5"/>
<line x1="103.2" y1="107.0" x2="56.2" y2="95.0" opacity="0.5" stroke="rgb(0,0,0)"  stroke-width="1.5"/>
<line x1="160.4" y1="160.8" x2="170.7" y2="194.6" opacity="0.5" stroke="rgb(0,0,0)"  stroke-width="1.5"/>
<line x1="134.3" y1="74.0" x2="124.7" y2="40.0" opacity="0.5" stroke="rgb(0,0,0)"  stroke-width="1.5"/>
<line x1="178.4" y1="84.4" x2="202.3" y2="58.4" opacity="0.5" stroke="rgb(0,0,0)"  stroke-width="1.5"/>
<line x1="83.6" y1="186.3" x2="99.1" y2="218.3" opacity="0.5" stroke="rgb(0,0,0)"  stroke-width="1.5"/>
<line x1="83.6" y1="186.3" x2="63.1" y2="184.6" opacity="0.5" stroke="rgb(0,0,0)"  stroke-width="2.3"/>
<line x1="83.6" y1="186.3" x2="63.1" y2="184.6" opacity="0.8" stroke="rgb(0,0,0)"  stroke-width="0.8"/>
<line x1="56.2" y1="95.0" x2="40.0" y2="107.7" opacity="0.3" stroke="rgb(0,0,0)"  stroke-width="2.2"/>
<line x1="56.2" y1="95.0" x2="51.5" y2="59.7" opacity="0.7" stroke="rgb(0,0,0)"  stroke-width="1.5"/>
<line x1="56.2" y1="95.0" x2="40.0" y2="107.7" opacity="0.5" stroke="rgb(0,0,0)"  stroke-width="0.8"/>
<line x1="162.5" y1="162.9" x2="193.6" y2="129.9" opacity="0.5" stroke="rgb(0,0,0)"  stroke-width="1.5"/>
<line x1="158.2" y1="158.7" x2="189.2" y2="125.7" opacity="0.5" stroke="rgb(0,0,0)"  stroke-width="1.5" stroke-dasharray="5.0,5.0"/>
<line x1="194.3" y1="126.9" x2="181.3" y2="83.5" opacity="0.5" stroke="rgb(0,0,0)"  stroke-width="1.5"/>
<line x1="188.6" y1="128.7" x2="175.5" y2="85.3" opacity="0.5" stroke="rgb(0,0,0)"  stroke-width="1.5" stroke-dasharray="5.0,5.0"/>
<line x1="179.1" y1="81.5" x2="135.0" y2="71.1" opacity="0.5" stroke="rgb(0,0,0)"  stroke-width="1.5"/>
<line x1="177.7" y1="87.3" x2="133.6" y2="76.9" opacity="0.5" stroke="rgb(0,0,0)"  stroke-width="1.5" stroke-dasharray="5.0,5.0"/>
<line x1="132.1" y1="71.9" x2="101.0" y2="104.9" opacity="0.5" stroke="rgb(0,0,0)"  stroke-width="1.5"/>
<line x1="136.5" y1="76.0" x2="105.4" y2="109.0" opacity="0.5" stroke="rgb(0,0,0)"  stroke-width="1.5" stroke-dasharray="5.0,5.0"/>
<line x1="100.3" y1="107.8" x2="113.4" y2="151.2" opacity="0.5" stroke="rgb(0,0,0)"  stroke-width="1.5"/>
<line x1="106.1" y1="106.1" x2="119.1" y2="149.5" opacity="0.5" stroke="rgb(0,0,0)"  stroke-width="1.5" stroke-dasharray="5.0,5.0"/>
<line x1="115.6" y1="153.3" x2="159.7" y2="163.7" opacity="0.5" stroke="rgb(0,0,0)"  stroke-width="1.5"/>
<line x1="116.9" y1="147.5" x2="161.0" y2="157.9" opacity="0.5" stroke="rgb(0,0,0)"  stroke-width="1.5" stroke-dasharray="5.0,5.0"/>
<circle cx="40.025994" cy="107.717447" r="5.636364" opacity="0.200000" style="stroke:black;stroke-width:0.5;fill:url(#radialffffffbfbfbf)"/>
<circle cx="63.098859" cy="184.562014" r="5.636364" opacity="0.200000" style="stroke:black;stroke-width:0.5;fill:url(#radialffffffbfbfbf)"/>
<circle cx="245.511290" cy="169.777964" r="5.636364" opacity="0.706889" style="stroke:black;stroke-width:0.5;fill:url(#radialffffffbfbfbf)"/>
<circle cx="258.560245" cy="114.407636" r="5.636364" opacity="0.706889" style="stroke:black;stroke-width:0.5;fill:url(#radialffffffbfbfbf)"/>
<circle cx="236.023504" cy="138.318806" r="12.911257" opacity="0.707166" style="stroke:black;stroke-width:0.5;fill:url(#radialffffff0ccff)"/>
<circle cx="56.171476" cy="95.032407" r="13.820500" opacity="0.707166" style="stroke:black;stroke-width:0.5;fill:url(#radialffffff666666)"/>
<circle cx="191.427662" cy="127.801010" r="13.823591" opacity="0.707245" style="stroke:black;stroke-width:0.5;fill:url(#radialffffff666666)"/>
<circle cx="83.569082" cy="186.258118" r="13.825137" opacity="0.707285" style="stroke:black;stroke-width:0.5;fill:url(#radialffffff666666)"/>
<circle cx="51.531559" cy="59.735894" r="5.639201" opacity="0.707285" style="stroke:black;stroke-width:0.5;fill:url(#radialffffffbfbfbf)"/>
<circle cx="116.246706" cy="150.383240" r="13.826682" opacity="0.707324" style="stroke:black;stroke-width:0.5;fill:url(#radialffffff666666)"/>
<circle cx="103.204250" cy="106.976620" r="13.826682" opacity="0.707324" style="stroke:black;stroke-width:0.5;fill:url(#radialffffff666666)"/>
<circle cx="160.358412" cy="160.793811" r="13.826682" opacity="0.707324" style="stroke:black;stroke-width:0.5;fill:url(#radialffffff666666)"/>
<circle cx="134.276749" cy="73.983819" r="13.826682" opacity="0.707324" style="stroke:black;stroke-width:0.5;fill:url(#radialffffff666666)"/>
<circle cx="178.388455" cy="84.394390" r="13.826682" opacity="0.707324" style="stroke:black;stroke-width:0.5;fill:url(#radialffffff666666)"/>
<circle cx="170.678004" cy="194.595672" r="5.639831" opacity="0.707324" style="stroke:black;stroke-width:0.5;fill:url(#radialffffffbfbfbf)"/>
<circle cx="124.684987" cy="40.000000" r="5.639831" opacity="0.707324" style="stroke:black;stroke-width:0.5;fill:url(#radialffffffbfbfbf)"/>
<circle cx="202.293126" cy="58.390708" r="5.639831" opacity="0.707324" style="stroke:black;stroke-width:0.5;fill:url(#radialffffffbfbfbf)"/>
<circle cx="99.119953" cy="218.282644" r="5.640461" opacity="0.707364" style="stroke:black;stroke-width:0.5;fill:url(#radialffffffbfbfbf)"/>
<circle cx="40.000000" cy="107.733693" r="11.269575" opacity="0.999860" style="stroke:black;stroke-width:0.5;fill:url(#radialffffffbfbfbf)"/>
<circle cx="63.082613" cy="184.555515" r="11.272727" opacity="1.000000" style="stroke:black;stroke-width:0.5;fill:url(#radialffffffbfbfbf)"/>
</svg>
</g>
</svg>
