<?xml version="1.0"?>
<svg version="1.1" id="topsvg"
xmlns="http://www.w3.org/2000/svg" xmlns:xlink="http://www.w3.org/1999/xlink"
xmlns:cml="http://www.xml-cml.org/schema" x="0" y="0" width="200px" height="200px" viewBox="0 0 100 100">
<title>73751 - Open Babel Depiction</title>
<rect x="0" y="0" width="100" height="100" fill="white"/>
<defs>
<radialGradient id='radialffffff666666' cx='50%' cy='50%' r='50%' fx='30%' fy='30%'>
  <stop offset=' 0%' stop-color="rgb(255,255,255)"  stop-opacity='1.0'/>
  <stop offset='100%' stop-color="rgb(102,102,102)"  stop-opacity ='1.0'/>
</radialGradient>
<radialGradient id='radialffffffbfbfbf' cx='50%' cy='50%' r='50%' fx='30%' fy='30%'>
  <stop offset=' 0%' stop-color="rgb(255,255,255)"  stop-opacity='1.0'/>
  <stop offset='100%' stop-color="rgb(191,191,191)"  stop-opacity ='1.0'/>
</radialGradient>
<radialGradient id='radialffffffffcc' cx='50%' cy='50%' r='50%' fx='30%' fy='30%'>
  <stop offset=' 0%' stop-color="rgb(255,255,255)"  stop-opacity='1.0'/>
  <stop offset='100%' stop-color="rgb(255,12,12)"  stop-opacity ='1.0'/>
</radialGradient>
</defs>
<g transform="translate(0,0)">
<svg width="100" height="100" x="0" y="0" viewBox="0 0 633.486 167.288"
font-family="sans-serif" stroke="rgb(0,0,0)" stroke-width="4"  stroke-linecap="round">
<line x1="154.3" y1="40.0" x2="154.3" y2="79.9" opacity="1.0" stroke="rgb(0,0,0)"  stroke-width="1.5"/>
<line x1="148.3" y1="40.0" x2="148.3" y2="79.9" opacity="1.0" stroke="rgb(0,0,0)"  stroke-width="1.5"/>
<line x1="358.0" y1="102.5" x2="315.5" y2="76.6" opacity="0.5" stroke="rgb(0,0,0)"  stroke-width="1.6"/>
<line x1="358.0" y1="102.5" x2="398.4" y2="73.6" opacity="0.5" stroke="rgb(0,0,0)"  stroke-width="1.6"/>
<line x1="358.0" y1="102.5" x2="359.2" y2="123.9" opacity="0.5" stroke="rgb(0,0,0)"  stroke-width="2.3"/>
<line x1="358.0" y1="102.5" x2="358.2" y2="123.5" opacity="0.8" stroke="rgb(0,0,0)"  stroke-width="0.9"/>
<line x1="315.5" y1="76.6" x2="274.9" y2="105.3" opacity="0.3" stroke="rgb(0,0,0)"  stroke-width="1.6"/>
<line x1="315.5" y1="76.6" x2="314.5" y2="56.6" opacity="0.5" stroke="rgb(0,0,0)"  stroke-width="2.3"/>
<line x1="315.5" y1="76.6" x2="315.1" y2="54.2" opacity="0.8" stroke="rgb(0,0,0)"  stroke-width="1.0"/>
<line x1="398.4" y1="73.6" x2="441.0" y2="99.4" opacity="0.3" stroke="rgb(0,0,0)"  stroke-width="1.5"/>
<line x1="398.4" y1="73.6" x2="396.6" y2="51.5" opacity="0.5" stroke="rgb(0,0,0)"  stroke-width="0.9"/>
<line x1="398.4" y1="73.6" x2="398.8" y2="53.4" opacity="0.3" stroke="rgb(0,0,0)"  stroke-width="2.3"/>
<line x1="274.9" y1="105.3" x2="233.6" y2="77.8" opacity="0.8" stroke="rgb(0,0,0)"  stroke-width="1.5"/>
<line x1="274.9" y1="105.3" x2="274.3" y2="126.6" opacity="0.5" stroke="rgb(0,0,0)"  stroke-width="2.2"/>
<line x1="274.9" y1="105.3" x2="276.3" y2="126.2" opacity="0.7" stroke="rgb(0,0,0)"  stroke-width="0.9"/>
<line x1="441.0" y1="99.4" x2="481.4" y2="70.6" opacity="0.3" stroke="rgb(0,0,0)"  stroke-width="1.5"/>
<line x1="441.0" y1="99.4" x2="440.8" y2="119.2" opacity="0.5" stroke="rgb(0,0,0)"  stroke-width="0.8"/>
<line x1="441.0" y1="99.4" x2="442.6" y2="122.0" opacity="0.3" stroke="rgb(0,0,0)"  stroke-width="2.1"/>
<line x1="233.6" y1="77.8" x2="193.0" y2="106.3" opacity="0.7" stroke="rgb(0,0,0)"  stroke-width="1.5"/>
<line x1="233.6" y1="77.8" x2="234.0" y2="56.9" opacity="0.5" stroke="rgb(0,0,0)"  stroke-width="0.8"/>
<line x1="233.6" y1="77.8" x2="232.5" y2="56.3" opacity="0.3" stroke="rgb(0,0,0)"  stroke-width="2.1"/>
<line x1="481.4" y1="70.6" x2="523.9" y2="96.3" opacity="0.7" stroke="rgb(0,0,0)"  stroke-width="1.4"/>
<line x1="481.4" y1="70.6" x2="481.6" y2="50.7" opacity="0.5" stroke="rgb(0,0,0)"  stroke-width="2.1"/>
<line x1="481.4" y1="70.6" x2="479.8" y2="48.0" opacity="0.7" stroke="rgb(0,0,0)"  stroke-width="0.8"/>
<line x1="193.0" y1="106.3" x2="151.3" y2="79.9" opacity="0.3" stroke="rgb(0,0,0)"  stroke-width="1.5"/>
<line x1="193.0" y1="106.3" x2="192.4" y2="127.3" opacity="0.5" stroke="rgb(0,0,0)"  stroke-width="2.1"/>
<line x1="193.0" y1="106.3" x2="193.2" y2="126.8" opacity="0.7" stroke="rgb(0,0,0)"  stroke-width="0.8"/>
<line x1="523.9" y1="96.3" x2="564.3" y2="67.9" opacity="0.3" stroke="rgb(0,0,0)"  stroke-width="1.3"/>
<line x1="523.9" y1="96.3" x2="523.6" y2="116.6" opacity="0.4" stroke="rgb(0,0,0)"  stroke-width="0.7"/>
<line x1="523.9" y1="96.3" x2="525.9" y2="118.4" opacity="0.2" stroke="rgb(0,0,0)"  stroke-width="2.0"/>
<line x1="151.3" y1="79.9" x2="109.5" y2="106.2" opacity="0.7" stroke="rgb(0,0,0)"  stroke-width="1.4"/>
<line x1="564.3" y1="67.9" x2="563.9" y2="46.3" opacity="0.5" stroke="rgb(0,0,0)"  stroke-width="0.7"/>
<line x1="564.3" y1="67.9" x2="566.3" y2="48.0" opacity="0.2" stroke="rgb(0,0,0)"  stroke-width="2.0"/>
<line x1="564.3" y1="67.9" x2="593.5" y2="88.0" opacity="0.7" stroke="rgb(0,0,0)"  stroke-width="1.3"/>
<line x1="109.5" y1="106.2" x2="69.2" y2="77.8" opacity="0.4" stroke="rgb(0,0,0)"  stroke-width="1.3"/>
<line x1="109.5" y1="106.2" x2="108.5" y2="127.3" opacity="0.4" stroke="rgb(0,0,0)"  stroke-width="2.0"/>
<line x1="109.5" y1="106.2" x2="110.5" y2="126.5" opacity="0.7" stroke="rgb(0,0,0)"  stroke-width="0.7"/>
<line x1="69.2" y1="77.8" x2="69.4" y2="56.5" opacity="0.2" stroke="rgb(0,0,0)"  stroke-width="0.7"/>
<line x1="69.2" y1="77.8" x2="40.0" y2="98.0" opacity="0.2" stroke="rgb(0,0,0)"  stroke-width="1.3"/>
<line x1="69.2" y1="77.8" x2="67.2" y2="57.3" opacity="0.4" stroke="rgb(0,0,0)"  stroke-width="2.0"/>
<circle cx="523.574309" cy="116.611488" r="5.636364" opacity="0.200000" style="stroke:black;stroke-width:0.5;fill:url(#radialffffffbfbfbf)"/>
<circle cx="69.424005" cy="56.516917" r="5.636364" opacity="0.200000" style="stroke:black;stroke-width:0.5;fill:url(#radialffffffbfbfbf)"/>
<circle cx="563.921944" cy="46.275000" r="5.636364" opacity="0.200000" style="stroke:black;stroke-width:0.5;fill:url(#radialffffffbfbfbf)"/>
<circle cx="110.518278" cy="126.522288" r="5.636364" opacity="0.200000" style="stroke:black;stroke-width:0.5;fill:url(#radialffffffbfbfbf)"/>
<circle cx="440.759239" cy="119.182518" r="5.636364" opacity="0.200000" style="stroke:black;stroke-width:0.5;fill:url(#radialffffffbfbfbf)"/>
<circle cx="193.193760" cy="126.807958" r="5.636364" opacity="0.202573" style="stroke:black;stroke-width:0.5;fill:url(#radialffffffbfbfbf)"/>
<circle cx="234.025086" cy="56.861020" r="5.636364" opacity="0.237223" style="stroke:black;stroke-width:0.5;fill:url(#radialffffffbfbfbf)"/>
<circle cx="479.795389" cy="48.021482" r="5.636364" opacity="0.257071" style="stroke:black;stroke-width:0.5;fill:url(#radialffffffbfbfbf)"/>
<circle cx="276.349687" cy="126.184678" r="5.636364" opacity="0.282455" style="stroke:black;stroke-width:0.5;fill:url(#radialffffffbfbfbf)"/>
<circle cx="358.239577" cy="123.474059" r="5.636364" opacity="0.310025" style="stroke:black;stroke-width:0.5;fill:url(#radialffffffbfbfbf)"/>
<circle cx="396.597261" cy="51.456014" r="5.636364" opacity="0.317250" style="stroke:black;stroke-width:0.5;fill:url(#radialffffffbfbfbf)"/>
<circle cx="315.113152" cy="54.221819" r="5.636364" opacity="0.351717" style="stroke:black;stroke-width:0.5;fill:url(#radialffffffbfbfbf)"/>
<circle cx="593.485539" cy="88.038000" r="5.636364" opacity="0.638646" style="stroke:black;stroke-width:0.5;fill:url(#radialffffffbfbfbf)"/>
<circle cx="40.000000" cy="97.965031" r="5.636364" opacity="0.645201" style="stroke:black;stroke-width:0.5;fill:url(#radialffffffbfbfbf)"/>
<circle cx="564.256308" cy="67.920992" r="13.818182" opacity="0.660157" style="stroke:black;stroke-width:0.5;fill:url(#radialffffff666666)"/>
<circle cx="69.242215" cy="77.841530" r="13.818182" opacity="0.661551" style="stroke:black;stroke-width:0.5;fill:url(#radialffffff666666)"/>
<circle cx="523.882703" cy="96.325675" r="13.818182" opacity="0.669855" style="stroke:black;stroke-width:0.5;fill:url(#radialffffff666666)"/>
<circle cx="109.544403" cy="106.181288" r="13.818182" opacity="0.674485" style="stroke:black;stroke-width:0.5;fill:url(#radialffffff666666)"/>
<circle cx="151.271694" cy="79.909391" r="13.818182" opacity="0.694995" style="stroke:black;stroke-width:0.5;fill:url(#radialffffff666666)"/>
<circle cx="440.950767" cy="99.390134" r="13.818182" opacity="0.697141" style="stroke:black;stroke-width:0.5;fill:url(#radialffffff666666)"/>
<circle cx="192.998985" cy="106.294907" r="13.818182" opacity="0.697748" style="stroke:black;stroke-width:0.5;fill:url(#radialffffff666666)"/>
<circle cx="481.447730" cy="70.573178" r="13.818182" opacity="0.698675" style="stroke:black;stroke-width:0.5;fill:url(#radialffffff666666)"/>
<circle cx="233.560872" cy="77.809068" r="13.818182" opacity="0.705732" style="stroke:black;stroke-width:0.5;fill:url(#radialffffff666666)"/>
<circle cx="151.271694" cy="40.000000" r="12.029880" opacity="0.707987" style="stroke:black;stroke-width:0.5;fill:url(#radialffffffffcc)"/>
<circle cx="274.918091" cy="105.269092" r="14.403115" opacity="0.721918" style="stroke:black;stroke-width:0.5;fill:url(#radialffffff666666)"/>
<circle cx="398.441130" cy="73.640883" r="14.564143" opacity="0.725942" style="stroke:black;stroke-width:0.5;fill:url(#radialffffff666666)"/>
<circle cx="357.953907" cy="102.451348" r="14.842159" opacity="0.732838" style="stroke:black;stroke-width:0.5;fill:url(#radialffffff666666)"/>
<circle cx="315.457254" cy="76.614448" r="15.162840" opacity="0.740713" style="stroke:black;stroke-width:0.5;fill:url(#radialffffff666666)"/>
<circle cx="525.937579" cy="118.416403" r="9.872057" opacity="0.935814" style="stroke:black;stroke-width:0.5;fill:url(#radialffffffbfbfbf)"/>
<circle cx="67.239279" cy="57.334972" r="9.942792" opacity="0.939160" style="stroke:black;stroke-width:0.5;fill:url(#radialffffffbfbfbf)"/>
<circle cx="566.320923" cy="47.995513" r="9.988265" opacity="0.941305" style="stroke:black;stroke-width:0.5;fill:url(#radialffffffbfbfbf)"/>
<circle cx="108.469894" cy="127.268925" r="10.072474" opacity="0.945265" style="stroke:black;stroke-width:0.5;fill:url(#radialffffffbfbfbf)"/>
<circle cx="442.625832" cy="121.984031" r="10.230225" opacity="0.952638" style="stroke:black;stroke-width:0.5;fill:url(#radialffffffbfbfbf)"/>
<circle cx="192.382197" cy="127.288403" r="10.452535" opacity="0.962934" style="stroke:black;stroke-width:0.5;fill:url(#radialffffffbfbfbf)"/>
<circle cx="232.531811" cy="56.257217" r="10.515411" opacity="0.965825" style="stroke:black;stroke-width:0.5;fill:url(#radialffffffbfbfbf)"/>
<circle cx="481.623027" cy="50.722362" r="10.615339" opacity="0.970404" style="stroke:black;stroke-width:0.5;fill:url(#radialffffffbfbfbf)"/>
<circle cx="274.252610" cy="126.596951" r="10.802843" opacity="0.978937" style="stroke:black;stroke-width:0.5;fill:url(#radialffffffbfbfbf)"/>
<circle cx="359.177743" cy="123.866856" r="10.968453" opacity="0.986412" style="stroke:black;stroke-width:0.5;fill:url(#radialffffffbfbfbf)"/>
<circle cx="398.807956" cy="53.407010" r="11.007751" opacity="0.988177" style="stroke:black;stroke-width:0.5;fill:url(#radialffffffbfbfbf)"/>
<circle cx="314.496365" cy="56.572104" r="11.272727" opacity="1.000000" style="stroke:black;stroke-width:0.5;fill:url(#radialffffffbfbfbf)"/>
</svg>
</g>
</svg>
