<?xml version="1.0"?>
<svg version="1.1" id="topsvg"
xmlns="http://www.w3.org/2000/svg" xmlns:xlink="http://www.w3.org/1999/xlink"
xmlns:cml="http://www.xml-cml.org/schema" x="0" y="0" width="200px" height="200px" viewBox="0 0 100 100">
<title>7529 - Open Babel Depiction</title>
<rect x="0" y="0" width="100" height="100" fill="white"/>
<defs>
<radialGradient id='radialffffff666666' cx='50%' cy='50%' r='50%' fx='30%' fy='30%'>
  <stop offset=' 0%' stop-color="rgb(255,255,255)"  stop-opacity='1.0'/>
  <stop offset='100%' stop-color="rgb(102,102,102)"  stop-opacity ='1.0'/>
</radialGradient>
<radialGradient id='radialffffffbfbfbf' cx='50%' cy='50%' r='50%' fx='30%' fy='30%'>
  <stop offset=' 0%' stop-color="rgb(255,255,255)"  stop-opacity='1.0'/>
  <stop offset='100%' stop-color="rgb(191,191,191)"  stop-opacity ='1.0'/>
</radialGradient>
</defs>
<g transform="translate(0,0)">
<svg width="100" height="100" x="0" y="0" viewBox="0 0 334.372 243.538"
font-family="sans-serif" stroke="rgb(0,0,0)" stroke-width="4"  stroke-linecap="round">
<line x1="107.3" y1="145.9" x2="68.2" y2="174.0" opacity="1.0" stroke="rgb(0,0,0)"  stroke-width="1.7"/>
<line x1="184.7" y1="138.2" x2="227.4" y2="157.4" opacity="0.6" stroke="rgb(0,0,0)"  stroke-width="2.1"/>
<line x1="148.2" y1="164.4" x2="151.5" y2="199.4" opacity="0.7" stroke="rgb(0,0,0)"  stroke-width="2.0"/>
<line x1="102.9" y1="101.1" x2="71.2" y2="86.3" opacity="0.7" stroke="rgb(0,0,0)"  stroke-width="1.7"/>
<line x1="180.3" y1="93.4" x2="208.0" y2="72.0" opacity="0.6" stroke="rgb(0,0,0)"  stroke-width="2.0"/>
<line x1="139.4" y1="74.9" x2="135.9" y2="40.0" opacity="0.7" stroke="rgb(0,0,0)"  stroke-width="1.8"/>
<line x1="68.2" y1="174.0" x2="40.0" y2="157.5" opacity="0.6" stroke="rgb(0,0,0)"  stroke-width="2.0"/>
<line x1="68.2" y1="174.0" x2="61.3" y2="182.7" opacity="0.7" stroke="rgb(0,0,0)"  stroke-width="0.9"/>
<line x1="68.2" y1="174.0" x2="72.9" y2="203.5" opacity="0.3" stroke="rgb(0,0,0)"  stroke-width="2.2"/>
<line x1="226.2" y1="154.7" x2="263.1" y2="138.2" opacity="0.7" stroke="rgb(0,0,0)"  stroke-width="1.8"/>
<line x1="228.6" y1="160.2" x2="265.5" y2="143.7" opacity="0.7" stroke="rgb(0,0,0)"  stroke-width="1.8"/>
<line x1="227.4" y1="157.4" x2="229.2" y2="188.6" opacity="0.6" stroke="rgb(0,0,0)"  stroke-width="2.6"/>
<line x1="264.3" y1="141.0" x2="294.4" y2="158.5" opacity="0.9" stroke="rgb(0,0,0)"  stroke-width="1.5"/>
<line x1="264.3" y1="141.0" x2="265.5" y2="110.6" opacity="0.5" stroke="rgb(0,0,0)"  stroke-width="0.9"/>
<line x1="149.5" y1="161.7" x2="108.5" y2="143.2" opacity="0.6" stroke="rgb(0,0,0)"  stroke-width="1.9"/>
<line x1="147.0" y1="167.2" x2="106.1" y2="148.6" opacity="0.6" stroke="rgb(0,0,0)"  stroke-width="1.9" stroke-dasharray="5.0,5.0"/>
<line x1="110.3" y1="145.6" x2="105.9" y2="100.8" opacity="0.6" stroke="rgb(0,0,0)"  stroke-width="1.8"/>
<line x1="104.3" y1="146.2" x2="99.9" y2="101.4" opacity="0.6" stroke="rgb(0,0,0)"  stroke-width="1.8" stroke-dasharray="5.0,5.0"/>
<line x1="104.6" y1="103.6" x2="141.1" y2="77.3" opacity="0.6" stroke="rgb(0,0,0)"  stroke-width="1.8"/>
<line x1="101.1" y1="98.7" x2="137.6" y2="72.4" opacity="0.6" stroke="rgb(0,0,0)"  stroke-width="1.8" stroke-dasharray="5.0,5.0"/>
<line x1="138.2" y1="77.6" x2="179.1" y2="96.1" opacity="0.6" stroke="rgb(0,0,0)"  stroke-width="1.9"/>
<line x1="140.6" y1="72.1" x2="181.5" y2="90.7" opacity="0.6" stroke="rgb(0,0,0)"  stroke-width="1.9" stroke-dasharray="5.0,5.0"/>
<line x1="177.3" y1="93.7" x2="181.7" y2="138.5" opacity="0.7" stroke="rgb(0,0,0)"  stroke-width="2.0"/>
<line x1="183.3" y1="93.1" x2="187.7" y2="137.9" opacity="0.7" stroke="rgb(0,0,0)"  stroke-width="2.0" stroke-dasharray="5.0,5.0"/>
<line x1="183.0" y1="135.7" x2="146.5" y2="162.0" opacity="0.7" stroke="rgb(0,0,0)"  stroke-width="2.0"/>
<line x1="186.5" y1="140.6" x2="150.0" y2="166.9" opacity="0.7" stroke="rgb(0,0,0)"  stroke-width="2.0" stroke-dasharray="5.0,5.0"/>
<circle cx="61.282329" cy="182.742606" r="5.636364" opacity="0.200000" style="stroke:black;stroke-width:0.5;fill:url(#radialffffffbfbfbf)"/>
<circle cx="265.500406" cy="110.619517" r="5.636364" opacity="0.400518" style="stroke:black;stroke-width:0.5;fill:url(#radialffffffbfbfbf)"/>
<circle cx="264.319489" cy="140.968453" r="13.818182" opacity="0.673795" style="stroke:black;stroke-width:0.5;fill:url(#radialffffff666666)"/>
<circle cx="294.371582" cy="158.530569" r="5.847169" opacity="0.720209" style="stroke:black;stroke-width:0.5;fill:url(#radialffffffbfbfbf)"/>
<circle cx="71.178160" cy="86.304230" r="6.138297" opacity="0.737920" style="stroke:black;stroke-width:0.5;fill:url(#radialffffffbfbfbf)"/>
<circle cx="68.248452" cy="173.956708" r="15.661361" opacity="0.752791" style="stroke:black;stroke-width:0.5;fill:url(#radialffffff666666)"/>
<circle cx="102.879021" cy="101.127004" r="16.089901" opacity="0.763021" style="stroke:black;stroke-width:0.5;fill:url(#radialffffff666666)"/>
<circle cx="107.296169" cy="145.901849" r="16.565220" opacity="0.774209" style="stroke:black;stroke-width:0.5;fill:url(#radialffffff666666)"/>
<circle cx="135.928581" cy="40.000000" r="6.770407" opacity="0.774984" style="stroke:black;stroke-width:0.5;fill:url(#radialffffffbfbfbf)"/>
<circle cx="139.387443" cy="74.866108" r="16.927367" opacity="0.782626" style="stroke:black;stroke-width:0.5;fill:url(#radialffffff666666)"/>
<circle cx="148.218513" cy="164.419024" r="17.879513" opacity="0.804336" style="stroke:black;stroke-width:0.5;fill:url(#radialffffff666666)"/>
<circle cx="151.480555" cy="199.369022" r="7.422828" opacity="0.811466" style="stroke:black;stroke-width:0.5;fill:url(#radialffffffbfbfbf)"/>
<circle cx="180.309786" cy="93.383282" r="18.243169" opacity="0.812474" style="stroke:black;stroke-width:0.5;fill:url(#radialffffff666666)"/>
<circle cx="184.723708" cy="138.158127" r="18.718487" opacity="0.822991" style="stroke:black;stroke-width:0.5;fill:url(#radialffffff666666)"/>
<circle cx="208.041990" cy="71.984798" r="7.784737" opacity="0.831012" style="stroke:black;stroke-width:0.5;fill:url(#radialffffffbfbfbf)"/>
<circle cx="227.414201" cy="157.443221" r="20.094647" opacity="0.852707" style="stroke:black;stroke-width:0.5;fill:url(#radialffffff666666)"/>
<circle cx="40.000000" cy="157.536791" r="8.957864" opacity="0.891431" style="stroke:black;stroke-width:0.5;fill:url(#radialffffffbfbfbf)"/>
<circle cx="72.917271" cy="203.537725" r="9.969116" opacity="0.940403" style="stroke:black;stroke-width:0.5;fill:url(#radialffffffbfbfbf)"/>
<circle cx="229.159765" cy="188.576209" r="11.272727" opacity="1.000000" style="stroke:black;stroke-width:0.5;fill:url(#radialffffffbfbfbf)"/>
</svg>
</g>
</svg>
