<?xml version="1.0"?>
<svg version="1.1" id="topsvg"
xmlns="http://www.w3.org/2000/svg" xmlns:xlink="http://www.w3.org/1999/xlink"
xmlns:cml="http://www.xml-cml.org/schema" x="0" y="0" width="200px" height="200px" viewBox="0 0 100 100">
<title>7602 - Open Babel Depiction</title>
<rect x="0" y="0" width="100" height="100" fill="white"/>
<defs>
<radialGradient id='radialffffff666666' cx='50%' cy='50%' r='50%' fx='30%' fy='30%'>
  <stop offset=' 0%' stop-color="rgb(255,255,255)"  stop-opacity='1.0'/>
  <stop offset='100%' stop-color="rgb(102,102,102)"  stop-opacity ='1.0'/>
</radialGradient>
<radialGradient id='radialffffffbfbfbf' cx='50%' cy='50%' r='50%' fx='30%' fy='30%'>
  <stop offset=' 0%' stop-color="rgb(255,255,255)"  stop-opacity='1.0'/>
  <stop offset='100%' stop-color="rgb(191,191,191)"  stop-opacity ='1.0'/>
</radialGradient>
</defs>
<g transform="translate(0,0)">
<svg width="100" height="100" x="0" y="0" viewBox="0 0 332.257 317.622"
font-family="sans-serif" stroke="rgb(0,0,0)" stroke-width="4"  stroke-linecap="round">
<line x1="148.3" y1="176.6" x2="141.0" y2="224.2" opacity="1.0" stroke="rgb(0,0,0)"  stroke-width="2.3"/>
<line x1="197.0" y1="115.6" x2="241.9" y2="98.0" opacity="0.8" stroke="rgb(0,0,0)"  stroke-width="2.3"/>
<line x1="119.8" y1="103.8" x2="82.2" y2="73.7" opacity="0.8" stroke="rgb(0,0,0)"  stroke-width="2.3"/>
<line x1="190.3" y1="160.2" x2="217.7" y2="182.1" opacity="0.8" stroke="rgb(0,0,0)"  stroke-width="2.3"/>
<line x1="113.1" y1="148.4" x2="80.3" y2="161.2" opacity="0.8" stroke="rgb(0,0,0)"  stroke-width="2.3"/>
<line x1="161.8" y1="87.4" x2="167.1" y2="52.7" opacity="0.8" stroke="rgb(0,0,0)"  stroke-width="2.3"/>
<line x1="141.0" y1="224.2" x2="138.2" y2="242.7" opacity="0.8" stroke="rgb(0,0,0)"  stroke-width="1.5"/>
<line x1="141.0" y1="224.2" x2="167.1" y2="240.5" opacity="0.5" stroke="rgb(0,0,0)"  stroke-width="2.7"/>
<line x1="141.0" y1="224.2" x2="111.2" y2="232.0" opacity="0.9" stroke="rgb(0,0,0)"  stroke-width="2.7"/>
<line x1="241.9" y1="98.0" x2="259.3" y2="91.2" opacity="0.9" stroke="rgb(0,0,0)"  stroke-width="1.5"/>
<line x1="241.9" y1="98.0" x2="243.0" y2="67.3" opacity="0.5" stroke="rgb(0,0,0)"  stroke-width="2.7"/>
<line x1="241.9" y1="98.0" x2="263.5" y2="119.9" opacity="0.9" stroke="rgb(0,0,0)"  stroke-width="2.7"/>
<line x1="82.2" y1="73.7" x2="67.6" y2="62.1" opacity="0.9" stroke="rgb(0,0,0)"  stroke-width="1.5"/>
<line x1="82.2" y1="73.7" x2="55.1" y2="88.2" opacity="0.5" stroke="rgb(0,0,0)"  stroke-width="2.7"/>
<line x1="82.2" y1="73.7" x2="90.4" y2="44.1" opacity="0.9" stroke="rgb(0,0,0)"  stroke-width="2.7"/>
<line x1="138.2" y1="242.7" x2="111.5" y2="228.1" opacity="0.9" stroke="rgb(0,0,0)"  stroke-width="0.4"/>
<line x1="138.2" y1="242.7" x2="132.9" y2="277.6" opacity="0.1" stroke="rgb(0,0,0)"  stroke-width="0.7"/>
<line x1="138.2" y1="242.7" x2="168.1" y2="236.7" opacity="0.2" stroke="rgb(0,0,0)"  stroke-width="0.4"/>
<line x1="259.3" y1="91.2" x2="260.1" y2="121.7" opacity="0.1" stroke="rgb(0,0,0)"  stroke-width="0.4"/>
<line x1="259.3" y1="91.2" x2="292.3" y2="78.4" opacity="0.1" stroke="rgb(0,0,0)"  stroke-width="0.7"/>
<line x1="259.3" y1="91.2" x2="239.2" y2="68.3" opacity="0.2" stroke="rgb(0,0,0)"  stroke-width="0.4"/>
<line x1="67.6" y1="62.1" x2="93.6" y2="46.2" opacity="0.1" stroke="rgb(0,0,0)"  stroke-width="0.4"/>
<line x1="67.6" y1="62.1" x2="40.0" y2="40.0" opacity="0.1" stroke="rgb(0,0,0)"  stroke-width="0.7"/>
<line x1="67.6" y1="62.1" x2="57.8" y2="90.9" opacity="0.2" stroke="rgb(0,0,0)"  stroke-width="0.4"/>
<line x1="189.2" y1="157.4" x2="147.2" y2="173.8" opacity="0.8" stroke="rgb(0,0,0)"  stroke-width="2.3"/>
<line x1="191.4" y1="162.9" x2="149.4" y2="179.4" opacity="0.8" stroke="rgb(0,0,0)"  stroke-width="2.3" stroke-dasharray="5.0,5.0"/>
<line x1="150.1" y1="174.2" x2="114.9" y2="146.1" opacity="0.8" stroke="rgb(0,0,0)"  stroke-width="2.3"/>
<line x1="146.4" y1="178.9" x2="111.2" y2="150.8" opacity="0.8" stroke="rgb(0,0,0)"  stroke-width="2.3" stroke-dasharray="5.0,5.0"/>
<line x1="116.0" y1="148.9" x2="122.8" y2="104.3" opacity="0.8" stroke="rgb(0,0,0)"  stroke-width="2.3"/>
<line x1="110.1" y1="148.0" x2="116.9" y2="103.4" opacity="0.8" stroke="rgb(0,0,0)"  stroke-width="2.3" stroke-dasharray="5.0,5.0"/>
<line x1="120.9" y1="106.6" x2="162.9" y2="90.2" opacity="0.8" stroke="rgb(0,0,0)"  stroke-width="2.3"/>
<line x1="118.8" y1="101.0" x2="160.7" y2="84.6" opacity="0.8" stroke="rgb(0,0,0)"  stroke-width="2.3" stroke-dasharray="5.0,5.0"/>
<line x1="160.0" y1="89.8" x2="195.2" y2="117.9" opacity="0.8" stroke="rgb(0,0,0)"  stroke-width="2.3"/>
<line x1="163.7" y1="85.1" x2="198.9" y2="113.2" opacity="0.8" stroke="rgb(0,0,0)"  stroke-width="2.3" stroke-dasharray="5.0,5.0"/>
<line x1="194.1" y1="115.1" x2="187.3" y2="159.7" opacity="0.8" stroke="rgb(0,0,0)"  stroke-width="2.3"/>
<line x1="200.0" y1="116.0" x2="193.2" y2="160.6" opacity="0.8" stroke="rgb(0,0,0)"  stroke-width="2.3" stroke-dasharray="5.0,5.0"/>
<circle cx="111.500771" cy="228.102427" r="5.636364" opacity="0.200000" style="stroke:black;stroke-width:0.5;fill:url(#radialffffffbfbfbf)"/>
<circle cx="260.084171" cy="121.665762" r="5.636364" opacity="0.200000" style="stroke:black;stroke-width:0.5;fill:url(#radialffffffbfbfbf)"/>
<circle cx="93.591641" cy="46.202422" r="5.636364" opacity="0.200000" style="stroke:black;stroke-width:0.5;fill:url(#radialffffffbfbfbf)"/>
<circle cx="57.838024" cy="90.915453" r="5.636364" opacity="0.200000" style="stroke:black;stroke-width:0.5;fill:url(#radialffffffbfbfbf)"/>
<circle cx="239.243516" cy="68.345618" r="5.636364" opacity="0.200000" style="stroke:black;stroke-width:0.5;fill:url(#radialffffffbfbfbf)"/>
<circle cx="168.098277" cy="236.719237" r="5.636364" opacity="0.200000" style="stroke:black;stroke-width:0.5;fill:url(#radialffffffbfbfbf)"/>
<circle cx="138.230334" cy="242.669554" r="13.818182" opacity="0.471016" style="stroke:black;stroke-width:0.5;fill:url(#radialffffff666666)"/>
<circle cx="67.611929" cy="62.078554" r="13.818182" opacity="0.471100" style="stroke:black;stroke-width:0.5;fill:url(#radialffffff666666)"/>
<circle cx="259.327857" cy="91.232200" r="13.818182" opacity="0.471143" style="stroke:black;stroke-width:0.5;fill:url(#radialffffff666666)"/>
<circle cx="132.910278" cy="277.621608" r="5.636364" opacity="0.487004" style="stroke:black;stroke-width:0.5;fill:url(#radialffffffbfbfbf)"/>
<circle cx="292.256609" cy="78.361932" r="5.636364" opacity="0.487289" style="stroke:black;stroke-width:0.5;fill:url(#radialffffffbfbfbf)"/>
<circle cx="40.000000" cy="40.000000" r="5.636364" opacity="0.487289" style="stroke:black;stroke-width:0.5;fill:url(#radialffffffbfbfbf)"/>
<circle cx="167.122179" cy="52.673109" r="8.811166" opacity="0.884102" style="stroke:black;stroke-width:0.5;fill:url(#radialffffffbfbfbf)"/>
<circle cx="217.714421" cy="182.106248" r="8.812955" opacity="0.884191" style="stroke:black;stroke-width:0.5;fill:url(#radialffffffbfbfbf)"/>
<circle cx="80.320591" cy="161.204183" r="8.812955" opacity="0.884191" style="stroke:black;stroke-width:0.5;fill:url(#radialffffffbfbfbf)"/>
<circle cx="141.016414" cy="224.230358" r="21.638853" opacity="0.884864" style="stroke:black;stroke-width:0.5;fill:url(#radialffffff666666)"/>
<circle cx="82.191984" cy="73.730316" r="21.639949" opacity="0.884887" style="stroke:black;stroke-width:0.5;fill:url(#radialffffff666666)"/>
<circle cx="241.945561" cy="98.032563" r="21.641046" opacity="0.884909" style="stroke:black;stroke-width:0.5;fill:url(#radialffffff666666)"/>
<circle cx="161.837677" cy="87.424773" r="21.644336" opacity="0.884976" style="stroke:black;stroke-width:0.5;fill:url(#radialffffff666666)"/>
<circle cx="197.045067" cy="115.579696" r="21.645433" opacity="0.884999" style="stroke:black;stroke-width:0.5;fill:url(#radialffffff666666)"/>
<circle cx="119.846083" cy="103.837435" r="21.645433" opacity="0.884999" style="stroke:black;stroke-width:0.5;fill:url(#radialffffff666666)"/>
<circle cx="190.260865" cy="160.150514" r="21.647626" opacity="0.885044" style="stroke:black;stroke-width:0.5;fill:url(#radialffffff666666)"/>
<circle cx="113.058649" cy="148.408253" r="21.647626" opacity="0.885044" style="stroke:black;stroke-width:0.5;fill:url(#radialffffff666666)"/>
<circle cx="148.272504" cy="176.569641" r="21.648722" opacity="0.885066" style="stroke:black;stroke-width:0.5;fill:url(#radialffffff666666)"/>
<circle cx="111.248667" cy="231.974497" r="11.269149" opacity="0.999841" style="stroke:black;stroke-width:0.5;fill:url(#radialffffffbfbfbf)"/>
<circle cx="263.529602" cy="119.936583" r="11.271385" opacity="0.999940" style="stroke:black;stroke-width:0.5;fill:url(#radialffffffbfbfbf)"/>
<circle cx="90.365994" cy="44.088621" r="11.271385" opacity="0.999940" style="stroke:black;stroke-width:0.5;fill:url(#radialffffffbfbfbf)"/>
<circle cx="242.957212" cy="67.298414" r="11.272280" opacity="0.999980" style="stroke:black;stroke-width:0.5;fill:url(#radialffffffbfbfbf)"/>
<circle cx="55.071336" cy="88.223104" r="11.272280" opacity="0.999980" style="stroke:black;stroke-width:0.5;fill:url(#radialffffffbfbfbf)"/>
<circle cx="167.118947" cy="240.478182" r="11.272727" opacity="1.000000" style="stroke:black;stroke-width:0.5;fill:url(#radialffffffbfbfbf)"/>
</svg>
</g>
</svg>
