<?xml version="1.0"?>
<svg version="1.1" id="topsvg"
xmlns="http://www.w3.org/2000/svg" xmlns:xlink="http://www.w3.org/1999/xlink"
xmlns:cml="http://www.xml-cml.org/schema" x="0" y="0" width="1024px" height="1024px" viewBox="0 0 100 100">
<title>77653 - Open Babel Depiction</title>
<rect x="0" y="0" width="100" height="100" fill="white"/>
<defs>
<radialGradient id='radialffffff666666' cx='50%' cy='50%' r='50%' fx='30%' fy='30%'>
  <stop offset=' 0%' stop-color="rgb(255,255,255)"  stop-opacity='1.0'/>
  <stop offset='100%' stop-color="rgb(102,102,102)"  stop-opacity ='1.0'/>
</radialGradient>
<radialGradient id='radialffffffbfbfbf' cx='50%' cy='50%' r='50%' fx='30%' fy='30%'>
  <stop offset=' 0%' stop-color="rgb(255,255,255)"  stop-opacity='1.0'/>
  <stop offset='100%' stop-color="rgb(191,191,191)"  stop-opacity ='1.0'/>
</radialGradient>
</defs>
<g transform="translate(0,0)">
<svg width="100" height="100" x="0" y="0" viewBox="0 0 354.177 258.77"
font-family="sans-serif" stroke="rgb(0,0,0)" stroke-width="2"  stroke-linecap="round">
<line x1="179.8" y1="106.2" x2="130.8" y2="111.7" opacity="1.0" stroke="rgb(0,0,0)"  stroke-width="1.3"/>
<line x1="179.8" y1="106.2" x2="207.0" y2="148.7" opacity="0.4" stroke="rgb(0,0,0)"  stroke-width="1.4"/>
<line x1="179.8" y1="106.2" x2="199.0" y2="69.5" opacity="0.5" stroke="rgb(0,0,0)"  stroke-width="1.1"/>
<line x1="179.8" y1="106.2" x2="184.6" y2="91.4" opacity="0.4" stroke="rgb(0,0,0)"  stroke-width="2.0"/>
<line x1="130.8" y1="111.7" x2="105.2" y2="148.8" opacity="0.7" stroke="rgb(0,0,0)"  stroke-width="1.4"/>
<line x1="130.8" y1="111.7" x2="113.5" y2="80.8" opacity="0.5" stroke="rgb(0,0,0)"  stroke-width="1.2"/>
<line x1="130.8" y1="111.7" x2="128.8" y2="117.0" opacity="0.4" stroke="rgb(0,0,0)"  stroke-width="0.7"/>
<line x1="207.0" y1="148.7" x2="255.9" y2="145.1" opacity="0.2" stroke="rgb(0,0,0)"  stroke-width="1.4"/>
<line x1="207.0" y1="148.7" x2="197.5" y2="173.2" opacity="0.5" stroke="rgb(0,0,0)"  stroke-width="1.5"/>
<line x1="207.0" y1="148.7" x2="203.3" y2="160.9" opacity="0.5" stroke="rgb(0,0,0)"  stroke-width="0.9"/>
<line x1="105.2" y1="148.8" x2="128.2" y2="192.7" opacity="0.3" stroke="rgb(0,0,0)"  stroke-width="1.6"/>
<line x1="105.2" y1="148.8" x2="58.2" y2="152.4" opacity="0.5" stroke="rgb(0,0,0)"  stroke-width="1.5"/>
<line x1="105.2" y1="148.8" x2="103.7" y2="142.4" opacity="0.5" stroke="rgb(0,0,0)"  stroke-width="2.0"/>
<line x1="199.0" y1="69.5" x2="178.8" y2="40.0" opacity="0.7" stroke="rgb(0,0,0)"  stroke-width="0.8"/>
<line x1="199.0" y1="69.5" x2="231.9" y2="60.0" opacity="0.3" stroke="rgb(0,0,0)"  stroke-width="0.9"/>
<line x1="199.0" y1="69.5" x2="200.4" y2="79.7" opacity="0.3" stroke="rgb(0,0,0)"  stroke-width="0.4"/>
<line x1="184.6" y1="91.4" x2="163.1" y2="63.6" opacity="0.1" stroke="rgb(0,0,0)"  stroke-width="2.6"/>
<line x1="184.6" y1="91.4" x2="217.9" y2="80.8" opacity="0.9" stroke="rgb(0,0,0)"  stroke-width="2.6"/>
<line x1="184.6" y1="91.4" x2="175.8" y2="117.7" opacity="0.9" stroke="rgb(0,0,0)"  stroke-width="2.7"/>
<line x1="255.9" y1="145.1" x2="279.3" y2="188.0" opacity="0.9" stroke="rgb(0,0,0)"  stroke-width="1.4"/>
<line x1="255.9" y1="145.1" x2="261.1" y2="136.2" opacity="0.5" stroke="rgb(0,0,0)"  stroke-width="1.9"/>
<line x1="255.9" y1="145.1" x2="271.2" y2="119.8" opacity="0.6" stroke="rgb(0,0,0)"  stroke-width="1.3"/>
<line x1="128.2" y1="192.7" x2="103.5" y2="218.8" opacity="0.4" stroke="rgb(0,0,0)"  stroke-width="1.5"/>
<line x1="128.2" y1="192.7" x2="144.7" y2="195.6" opacity="0.5" stroke="rgb(0,0,0)"  stroke-width="1.1"/>
<line x1="128.2" y1="192.7" x2="147.8" y2="202.6" opacity="0.4" stroke="rgb(0,0,0)"  stroke-width="1.8"/>
<line x1="58.2" y1="152.4" x2="57.6" y2="160.4" opacity="0.6" stroke="rgb(0,0,0)"  stroke-width="0.9"/>
<line x1="58.2" y1="152.4" x2="40.0" y2="177.6" opacity="0.3" stroke="rgb(0,0,0)"  stroke-width="1.5"/>
<line x1="58.2" y1="152.4" x2="40.9" y2="121.4" opacity="0.5" stroke="rgb(0,0,0)"  stroke-width="1.3"/>
<line x1="279.3" y1="188.0" x2="314.2" y2="184.8" opacity="0.4" stroke="rgb(0,0,0)"  stroke-width="1.4"/>
<line x1="279.3" y1="188.0" x2="276.2" y2="197.6" opacity="0.5" stroke="rgb(0,0,0)"  stroke-width="0.9"/>
<line x1="279.3" y1="188.0" x2="266.1" y2="214.3" opacity="0.3" stroke="rgb(0,0,0)"  stroke-width="1.5"/>
<circle cx="200.385894" cy="79.727297" r="5.636364" opacity="0.200000" style="stroke:black;stroke-width:0.5;fill:url(#radialffffffbfbfbf)"/>
<circle cx="128.837555" cy="116.978172" r="5.636364" opacity="0.336374" style="stroke:black;stroke-width:0.5;fill:url(#radialffffffbfbfbf)"/>
<circle cx="57.560380" cy="160.449506" r="5.636364" opacity="0.401532" style="stroke:black;stroke-width:0.5;fill:url(#radialffffffbfbfbf)"/>
<circle cx="203.316436" cy="160.942830" r="5.636364" opacity="0.421721" style="stroke:black;stroke-width:0.5;fill:url(#radialffffffbfbfbf)"/>
<circle cx="276.161793" cy="197.582767" r="5.636364" opacity="0.427783" style="stroke:black;stroke-width:0.5;fill:url(#radialffffffbfbfbf)"/>
<circle cx="198.984331" cy="69.514507" r="13.818182" opacity="0.506059" style="stroke:black;stroke-width:0.5;fill:url(#radialffffff666666)"/>
<circle cx="144.676201" cy="195.563732" r="5.636364" opacity="0.506637" style="stroke:black;stroke-width:0.5;fill:url(#radialffffffbfbfbf)"/>
<circle cx="178.758040" cy="40.000000" r="5.636364" opacity="0.518470" style="stroke:black;stroke-width:0.5;fill:url(#radialffffffbfbfbf)"/>
<circle cx="231.948840" cy="59.964927" r="5.636364" opacity="0.575473" style="stroke:black;stroke-width:0.5;fill:url(#radialffffffbfbfbf)"/>
<circle cx="271.235085" cy="119.843373" r="5.636364" opacity="0.595544" style="stroke:black;stroke-width:0.5;fill:url(#radialffffffbfbfbf)"/>
<circle cx="130.758579" cy="111.698624" r="13.818182" opacity="0.614940" style="stroke:black;stroke-width:0.5;fill:url(#radialffffff666666)"/>
<circle cx="58.220324" cy="152.383166" r="13.818182" opacity="0.649341" style="stroke:black;stroke-width:0.5;fill:url(#radialffffff666666)"/>
<circle cx="113.508568" cy="80.841360" r="5.636364" opacity="0.651498" style="stroke:black;stroke-width:0.5;fill:url(#radialffffffbfbfbf)"/>
<circle cx="207.008199" cy="148.688135" r="13.818182" opacity="0.653892" style="stroke:black;stroke-width:0.5;fill:url(#radialffffff666666)"/>
<circle cx="279.340630" cy="188.007051" r="13.818182" opacity="0.662826" style="stroke:black;stroke-width:0.5;fill:url(#radialffffff666666)"/>
<circle cx="40.937643" cy="121.375618" r="5.636364" opacity="0.674542" style="stroke:black;stroke-width:0.5;fill:url(#radialffffffbfbfbf)"/>
<circle cx="179.780626" cy="106.151177" r="13.818182" opacity="0.687426" style="stroke:black;stroke-width:0.5;fill:url(#radialffffff666666)"/>
<circle cx="103.508136" cy="218.769570" r="5.636364" opacity="0.696211" style="stroke:black;stroke-width:0.5;fill:url(#radialffffffbfbfbf)"/>
<circle cx="128.213549" cy="192.682196" r="13.818182" opacity="0.701345" style="stroke:black;stroke-width:0.5;fill:url(#radialffffff666666)"/>
<circle cx="314.177157" cy="184.789010" r="5.636364" opacity="0.703308" style="stroke:black;stroke-width:0.5;fill:url(#radialffffffbfbfbf)"/>
<circle cx="255.850559" cy="145.055178" r="13.960164" opacity="0.710730" style="stroke:black;stroke-width:0.5;fill:url(#radialffffff666666)"/>
<circle cx="105.177597" cy="148.838419" r="15.157405" opacity="0.740580" style="stroke:black;stroke-width:0.5;fill:url(#radialffffff666666)"/>
<circle cx="40.000000" cy="177.585170" r="6.243153" opacity="0.744196" style="stroke:black;stroke-width:0.5;fill:url(#radialffffffbfbfbf)"/>
<circle cx="266.105821" cy="214.316584" r="6.661620" opacity="0.768733" style="stroke:black;stroke-width:0.5;fill:url(#radialffffffbfbfbf)"/>
<circle cx="197.468421" cy="173.239997" r="6.797532" opacity="0.776535" style="stroke:black;stroke-width:0.5;fill:url(#radialffffffbfbfbf)"/>
<circle cx="147.841970" cy="202.555214" r="7.911516" opacity="0.837752" style="stroke:black;stroke-width:0.5;fill:url(#radialffffffbfbfbf)"/>
<circle cx="261.123574" cy="136.201480" r="8.578146" opacity="0.872333" style="stroke:black;stroke-width:0.5;fill:url(#radialffffffbfbfbf)"/>
<circle cx="103.684556" cy="142.369665" r="9.146555" opacity="0.900771" style="stroke:black;stroke-width:0.5;fill:url(#radialffffffbfbfbf)"/>
<circle cx="184.622390" cy="91.446196" r="22.948576" opacity="0.911250" style="stroke:black;stroke-width:0.5;fill:url(#radialffffff666666)"/>
<circle cx="163.102348" cy="63.646890" r="9.939193" opacity="0.938990" style="stroke:black;stroke-width:0.5;fill:url(#radialffffffbfbfbf)"/>
<circle cx="217.871132" cy="80.828292" r="10.019529" opacity="0.942777" style="stroke:black;stroke-width:0.5;fill:url(#radialffffffbfbfbf)"/>
<circle cx="175.781760" cy="117.654451" r="11.272727" opacity="1.000000" style="stroke:black;stroke-width:0.5;fill:url(#radialffffffbfbfbf)"/>
</svg>
</g>
</svg>
