<?xml version="1.0"?>
<svg version="1.1" id="topsvg"
xmlns="http://www.w3.org/2000/svg" xmlns:xlink="http://www.w3.org/1999/xlink"
xmlns:cml="http://www.xml-cml.org/schema" x="0" y="0" width="200px" height="200px" viewBox="0 0 100 100">
<title>78849 - Open Babel Depiction</title>
<rect x="0" y="0" width="100" height="100" fill="white"/>
<defs>
<radialGradient id='radialffffff666666' cx='50%' cy='50%' r='50%' fx='30%' fy='30%'>
  <stop offset=' 0%' stop-color="rgb(255,255,255)"  stop-opacity='1.0'/>
  <stop offset='100%' stop-color="rgb(102,102,102)"  stop-opacity ='1.0'/>
</radialGradient>
<radialGradient id='radialffffffbfbfbf' cx='50%' cy='50%' r='50%' fx='30%' fy='30%'>
  <stop offset=' 0%' stop-color="rgb(255,255,255)"  stop-opacity='1.0'/>
  <stop offset='100%' stop-color="rgb(191,191,191)"  stop-opacity ='1.0'/>
</radialGradient>
</defs>
<g transform="translate(0,0)">
<svg width="100" height="100" x="0" y="0" viewBox="0 0 310.913 226.72"
font-family="sans-serif" stroke="rgb(0,0,0)" stroke-width="4"  stroke-linecap="round">
<line x1="181.3" y1="111.3" x2="129.7" y2="111.3" opacity="1.0" stroke="rgb(0,0,0)"  stroke-width="1.5"/>
<line x1="181.3" y1="111.3" x2="204.1" y2="152.5" opacity="0.5" stroke="rgb(0,0,0)"  stroke-width="1.4"/>
<line x1="181.3" y1="111.3" x2="188.7" y2="111.4" opacity="0.5" stroke="rgb(0,0,0)"  stroke-width="2.1"/>
<line x1="181.3" y1="111.3" x2="204.0" y2="70.0" opacity="0.7" stroke="rgb(0,0,0)"  stroke-width="1.4"/>
<line x1="129.7" y1="111.3" x2="106.8" y2="152.5" opacity="0.5" stroke="rgb(0,0,0)"  stroke-width="1.6"/>
<line x1="129.7" y1="111.3" x2="122.2" y2="111.3" opacity="0.5" stroke="rgb(0,0,0)"  stroke-width="0.9"/>
<line x1="129.7" y1="111.3" x2="107.0" y2="70.0" opacity="0.3" stroke="rgb(0,0,0)"  stroke-width="1.6"/>
<line x1="204.1" y1="152.5" x2="253.2" y2="156.3" opacity="0.5" stroke="rgb(0,0,0)"  stroke-width="1.3"/>
<line x1="204.1" y1="152.5" x2="198.6" y2="153.7" opacity="0.4" stroke="rgb(0,0,0)"  stroke-width="0.8"/>
<line x1="204.1" y1="152.5" x2="189.7" y2="182.1" opacity="0.3" stroke="rgb(0,0,0)"  stroke-width="1.3"/>
<line x1="106.8" y1="152.5" x2="57.7" y2="156.3" opacity="0.4" stroke="rgb(0,0,0)"  stroke-width="1.7"/>
<line x1="106.8" y1="152.5" x2="112.3" y2="153.7" opacity="0.6" stroke="rgb(0,0,0)"  stroke-width="2.2"/>
<line x1="106.8" y1="152.5" x2="121.2" y2="182.1" opacity="0.7" stroke="rgb(0,0,0)"  stroke-width="1.7"/>
<line x1="188.7" y1="111.4" x2="171.5" y2="84.7" opacity="0.6" stroke="rgb(0,0,0)"  stroke-width="2.8"/>
<line x1="188.7" y1="111.4" x2="178.5" y2="142.0" opacity="0.9" stroke="rgb(0,0,0)"  stroke-width="2.8"/>
<line x1="188.7" y1="111.4" x2="223.2" y2="107.0" opacity="0.9" stroke="rgb(0,0,0)"  stroke-width="2.7"/>
<line x1="204.0" y1="70.0" x2="189.3" y2="40.0" opacity="0.9" stroke="rgb(0,0,0)"  stroke-width="1.4"/>
<line x1="204.0" y1="70.0" x2="203.6" y2="69.0" opacity="0.5" stroke="rgb(0,0,0)"  stroke-width="0.9"/>
<line x1="204.0" y1="70.0" x2="238.2" y2="68.5" opacity="0.3" stroke="rgb(0,0,0)"  stroke-width="1.3"/>
<line x1="122.2" y1="111.3" x2="132.4" y2="141.9" opacity="0.4" stroke="rgb(0,0,0)"  stroke-width="0.4"/>
<line x1="122.2" y1="111.3" x2="139.4" y2="84.6" opacity="0.1" stroke="rgb(0,0,0)"  stroke-width="0.4"/>
<line x1="122.2" y1="111.3" x2="87.7" y2="106.9" opacity="0.1" stroke="rgb(0,0,0)"  stroke-width="0.4"/>
<line x1="107.0" y1="70.0" x2="107.3" y2="69.0" opacity="0.1" stroke="rgb(0,0,0)"  stroke-width="2.1"/>
<line x1="107.0" y1="70.0" x2="121.6" y2="40.0" opacity="0.7" stroke="rgb(0,0,0)"  stroke-width="1.6"/>
<line x1="107.0" y1="70.0" x2="72.7" y2="68.5" opacity="0.5" stroke="rgb(0,0,0)"  stroke-width="1.7"/>
<line x1="253.2" y1="156.3" x2="261.9" y2="157.0" opacity="0.6" stroke="rgb(0,0,0)"  stroke-width="1.7"/>
<line x1="253.2" y1="156.3" x2="270.9" y2="129.7" opacity="0.6" stroke="rgb(0,0,0)"  stroke-width="1.2"/>
<line x1="253.2" y1="156.3" x2="265.0" y2="186.7" opacity="0.4" stroke="rgb(0,0,0)"  stroke-width="1.2"/>
<line x1="57.7" y1="156.3" x2="40.0" y2="129.7" opacity="0.4" stroke="rgb(0,0,0)"  stroke-width="1.8"/>
<line x1="57.7" y1="156.3" x2="49.0" y2="157.0" opacity="0.6" stroke="rgb(0,0,0)"  stroke-width="1.3"/>
<line x1="57.7" y1="156.3" x2="46.0" y2="186.7" opacity="0.4" stroke="rgb(0,0,0)"  stroke-width="1.8"/>
<circle cx="139.375719" cy="84.645505" r="5.636364" opacity="0.200000" style="stroke:black;stroke-width:0.5;fill:url(#radialffffffbfbfbf)"/>
<circle cx="132.399757" cy="141.937586" r="5.636364" opacity="0.200000" style="stroke:black;stroke-width:0.5;fill:url(#radialffffffbfbfbf)"/>
<circle cx="87.682637" cy="106.943844" r="5.636364" opacity="0.237666" style="stroke:black;stroke-width:0.5;fill:url(#radialffffffbfbfbf)"/>
<circle cx="122.168563" cy="111.309109" r="13.818182" opacity="0.335299" style="stroke:black;stroke-width:0.5;fill:url(#radialffffff666666)"/>
<circle cx="198.572110" cy="153.701994" r="5.636364" opacity="0.395447" style="stroke:black;stroke-width:0.5;fill:url(#radialffffffbfbfbf)"/>
<circle cx="203.620975" cy="68.961798" r="5.636364" opacity="0.407074" style="stroke:black;stroke-width:0.5;fill:url(#radialffffffbfbfbf)"/>
<circle cx="48.990950" cy="156.989778" r="5.636364" opacity="0.556765" style="stroke:black;stroke-width:0.5;fill:url(#radialffffffbfbfbf)"/>
<circle cx="270.913128" cy="129.727211" r="5.636364" opacity="0.582297" style="stroke:black;stroke-width:0.5;fill:url(#radialffffffbfbfbf)"/>
<circle cx="264.952799" cy="186.703535" r="5.636364" opacity="0.590120" style="stroke:black;stroke-width:0.5;fill:url(#radialffffffbfbfbf)"/>
<circle cx="204.132046" cy="152.497558" r="13.818182" opacity="0.633893" style="stroke:black;stroke-width:0.5;fill:url(#radialffffff666666)"/>
<circle cx="203.962774" cy="69.983941" r="13.818182" opacity="0.643332" style="stroke:black;stroke-width:0.5;fill:url(#radialffffff666666)"/>
<circle cx="253.246985" cy="156.280138" r="13.818182" opacity="0.670191" style="stroke:black;stroke-width:0.5;fill:url(#radialffffff666666)"/>
<circle cx="129.655596" cy="111.328641" r="13.818182" opacity="0.678725" style="stroke:black;stroke-width:0.5;fill:url(#radialffffff666666)"/>
<circle cx="238.168751" cy="68.525597" r="5.636364" opacity="0.695493" style="stroke:black;stroke-width:0.5;fill:url(#radialffffffbfbfbf)"/>
<circle cx="189.688583" cy="182.068085" r="5.636364" opacity="0.705202" style="stroke:black;stroke-width:0.5;fill:url(#radialffffffbfbfbf)"/>
<circle cx="189.278423" cy="40.000000" r="5.636364" opacity="0.706810" style="stroke:black;stroke-width:0.5;fill:url(#radialffffffbfbfbf)"/>
<circle cx="121.634705" cy="40.000000" r="5.644169" opacity="0.707596" style="stroke:black;stroke-width:0.5;fill:url(#radialffffffbfbfbf)"/>
<circle cx="121.221291" cy="182.071340" r="5.661572" opacity="0.708686" style="stroke:black;stroke-width:0.5;fill:url(#radialffffffbfbfbf)"/>
<circle cx="72.741122" cy="68.528852" r="5.821014" opacity="0.718596" style="stroke:black;stroke-width:0.5;fill:url(#radialffffffbfbfbf)"/>
<circle cx="181.257532" cy="111.331896" r="14.900183" opacity="0.734269" style="stroke:black;stroke-width:0.5;fill:url(#radialffffff666666)"/>
<circle cx="57.666143" cy="156.283393" r="15.216407" opacity="0.742020" style="stroke:black;stroke-width:0.5;fill:url(#radialffffff666666)"/>
<circle cx="106.950354" cy="69.993707" r="16.200843" opacity="0.765647" style="stroke:black;stroke-width:0.5;fill:url(#radialffffff666666)"/>
<circle cx="106.784337" cy="152.507324" r="16.523342" opacity="0.773230" style="stroke:black;stroke-width:0.5;fill:url(#radialffffff666666)"/>
<circle cx="45.963585" cy="186.719811" r="7.342743" opacity="0.807076" style="stroke:black;stroke-width:0.5;fill:url(#radialffffffbfbfbf)"/>
<circle cx="40.000000" cy="129.743488" r="7.449464" opacity="0.812920" style="stroke:black;stroke-width:0.5;fill:url(#radialffffffbfbfbf)"/>
<circle cx="261.912412" cy="157.009310" r="7.775768" opacity="0.830534" style="stroke:black;stroke-width:0.5;fill:url(#radialffffffbfbfbf)"/>
<circle cx="107.292153" cy="69.004116" r="9.405755" opacity="0.913445" style="stroke:black;stroke-width:0.5;fill:url(#radialffffffbfbfbf)"/>
<circle cx="112.347528" cy="153.731291" r="9.506333" opacity="0.918316" style="stroke:black;stroke-width:0.5;fill:url(#radialffffffbfbfbf)"/>
<circle cx="188.741310" cy="111.351428" r="24.524943" opacity="0.942027" style="stroke:black;stroke-width:0.5;fill:url(#radialffffff666666)"/>
<circle cx="223.223981" cy="106.982906" r="10.634450" opacity="0.971277" style="stroke:black;stroke-width:0.5;fill:url(#radialffffffbfbfbf)"/>
<circle cx="178.519882" cy="141.996180" r="11.182386" opacity="0.995985" style="stroke:black;stroke-width:0.5;fill:url(#radialffffffbfbfbf)"/>
<circle cx="171.530899" cy="84.710610" r="11.272727" opacity="1.000000" style="stroke:black;stroke-width:0.5;fill:url(#radialffffffbfbfbf)"/>
</svg>
</g>
</svg>
