<?xml version="1.0"?>
<svg version="1.1" id="topsvg"
xmlns="http://www.w3.org/2000/svg" xmlns:xlink="http://www.w3.org/1999/xlink"
xmlns:cml="http://www.xml-cml.org/schema" x="0" y="0" width="200px" height="200px" viewBox="0 0 100 100">
<title>7907 - Open Babel Depiction</title>
<rect x="0" y="0" width="100" height="100" fill="white"/>
<defs>
<radialGradient id='radialffffff666666' cx='50%' cy='50%' r='50%' fx='30%' fy='30%'>
  <stop offset=' 0%' stop-color="rgb(255,255,255)"  stop-opacity='1.0'/>
  <stop offset='100%' stop-color="rgb(102,102,102)"  stop-opacity ='1.0'/>
</radialGradient>
<radialGradient id='radialffffffbfbfbf' cx='50%' cy='50%' r='50%' fx='30%' fy='30%'>
  <stop offset=' 0%' stop-color="rgb(255,255,255)"  stop-opacity='1.0'/>
  <stop offset='100%' stop-color="rgb(191,191,191)"  stop-opacity ='1.0'/>
</radialGradient>
</defs>
<g transform="translate(0,0)">
<svg width="100" height="100" x="0" y="0" viewBox="0 0 283.654 209.57"
font-family="sans-serif" stroke="rgb(0,0,0)" stroke-width="4"  stroke-linecap="round">
<line x1="138.8" y1="85.3" x2="90.4" y2="97.5" opacity="1.0" stroke="rgb(0,0,0)"  stroke-width="1.0"/>
<line x1="138.8" y1="85.3" x2="172.9" y2="102.3" opacity="0.3" stroke="rgb(0,0,0)"  stroke-width="1.3"/>
<line x1="138.8" y1="85.3" x2="141.4" y2="49.3" opacity="0.4" stroke="rgb(0,0,0)"  stroke-width="0.8"/>
<line x1="138.8" y1="85.3" x2="147.4" y2="97.8" opacity="0.3" stroke="rgb(0,0,0)"  stroke-width="0.4"/>
<line x1="90.4" y1="97.5" x2="83.4" y2="147.3" opacity="0.1" stroke="rgb(0,0,0)"  stroke-width="1.2"/>
<line x1="90.4" y1="97.5" x2="75.3" y2="75.6" opacity="0.4" stroke="rgb(0,0,0)"  stroke-width="1.7"/>
<line x1="90.4" y1="97.5" x2="70.4" y2="84.7" opacity="0.6" stroke="rgb(0,0,0)"  stroke-width="0.8"/>
<line x1="172.9" y1="102.3" x2="171.7" y2="152.4" opacity="0.3" stroke="rgb(0,0,0)"  stroke-width="1.8"/>
<line x1="172.9" y1="102.3" x2="219.1" y2="87.7" opacity="0.6" stroke="rgb(0,0,0)"  stroke-width="1.6"/>
<line x1="172.9" y1="102.3" x2="166.5" y2="87.6" opacity="0.5" stroke="rgb(0,0,0)"  stroke-width="2.2"/>
<line x1="83.4" y1="147.3" x2="48.6" y2="153.8" opacity="0.7" stroke="rgb(0,0,0)"  stroke-width="1.1"/>
<line x1="83.4" y1="147.3" x2="101.8" y2="165.6" opacity="0.4" stroke="rgb(0,0,0)"  stroke-width="0.9"/>
<line x1="83.4" y1="147.3" x2="87.4" y2="160.9" opacity="0.3" stroke="rgb(0,0,0)"  stroke-width="1.6"/>
<line x1="75.3" y1="75.6" x2="40.0" y2="81.1" opacity="0.5" stroke="rgb(0,0,0)"  stroke-width="2.3"/>
<line x1="75.3" y1="75.6" x2="92.5" y2="88.7" opacity="0.8" stroke="rgb(0,0,0)"  stroke-width="2.6"/>
<line x1="75.3" y1="75.6" x2="80.7" y2="40.0" opacity="0.9" stroke="rgb(0,0,0)"  stroke-width="2.2"/>
<line x1="171.7" y1="152.4" x2="148.0" y2="163.4" opacity="0.7" stroke="rgb(0,0,0)"  stroke-width="2.2"/>
<line x1="171.7" y1="152.4" x2="168.0" y2="169.6" opacity="0.7" stroke="rgb(0,0,0)"  stroke-width="1.5"/>
<line x1="171.7" y1="152.4" x2="203.3" y2="163.8" opacity="0.5" stroke="rgb(0,0,0)"  stroke-width="2.1"/>
<line x1="219.1" y1="87.7" x2="243.7" y2="97.6" opacity="0.7" stroke="rgb(0,0,0)"  stroke-width="1.7"/>
<line x1="219.1" y1="87.7" x2="228.4" y2="102.1" opacity="0.6" stroke="rgb(0,0,0)"  stroke-width="1.0"/>
<line x1="219.1" y1="87.7" x2="220.7" y2="51.8" opacity="0.3" stroke="rgb(0,0,0)"  stroke-width="1.3"/>
<circle cx="147.353067" cy="97.773841" r="5.636364" opacity="0.200000" style="stroke:black;stroke-width:0.5;fill:url(#radialffffffbfbfbf)"/>
<circle cx="70.388224" cy="84.680237" r="5.636364" opacity="0.362637" style="stroke:black;stroke-width:0.5;fill:url(#radialffffffbfbfbf)"/>
<circle cx="101.767439" cy="165.645263" r="5.636364" opacity="0.422518" style="stroke:black;stroke-width:0.5;fill:url(#radialffffffbfbfbf)"/>
<circle cx="228.420156" cy="102.132888" r="5.636364" opacity="0.426740" style="stroke:black;stroke-width:0.5;fill:url(#radialffffffbfbfbf)"/>
<circle cx="141.370900" cy="49.267914" r="5.636364" opacity="0.519123" style="stroke:black;stroke-width:0.5;fill:url(#radialffffffbfbfbf)"/>
<circle cx="138.756789" cy="85.262979" r="13.818182" opacity="0.537001" style="stroke:black;stroke-width:0.5;fill:url(#radialffffff666666)"/>
<circle cx="48.606156" cy="153.806038" r="5.636364" opacity="0.575092" style="stroke:black;stroke-width:0.5;fill:url(#radialffffffbfbfbf)"/>
<circle cx="167.995988" cy="169.569723" r="5.636364" opacity="0.591036" style="stroke:black;stroke-width:0.5;fill:url(#radialffffffbfbfbf)"/>
<circle cx="90.389140" cy="97.549962" r="13.818182" opacity="0.608560" style="stroke:black;stroke-width:0.5;fill:url(#radialffffff666666)"/>
<circle cx="83.399519" cy="147.306975" r="13.818182" opacity="0.630175" style="stroke:black;stroke-width:0.5;fill:url(#radialffffff666666)"/>
<circle cx="220.719392" cy="51.789841" r="5.636364" opacity="0.657744" style="stroke:black;stroke-width:0.5;fill:url(#radialffffffbfbfbf)"/>
<circle cx="219.083103" cy="87.669674" r="13.818182" opacity="0.678582" style="stroke:black;stroke-width:0.5;fill:url(#radialffffff666666)"/>
<circle cx="172.875224" cy="102.327136" r="16.098837" opacity="0.763232" style="stroke:black;stroke-width:0.5;fill:url(#radialffffff666666)"/>
<circle cx="171.729493" cy="152.416674" r="17.274325" opacity="0.790606" style="stroke:black;stroke-width:0.5;fill:url(#radialffffff666666)"/>
<circle cx="243.653776" cy="97.556547" r="7.613589" opacity="0.821827" style="stroke:black;stroke-width:0.5;fill:url(#radialffffffbfbfbf)"/>
<circle cx="87.419457" cy="160.940521" r="7.738755" opacity="0.828554" style="stroke:black;stroke-width:0.5;fill:url(#radialffffffbfbfbf)"/>
<circle cx="80.683346" cy="40.000000" r="8.301022" opacity="0.858126" style="stroke:black;stroke-width:0.5;fill:url(#radialffffffbfbfbf)"/>
<circle cx="203.332587" cy="163.831189" r="8.371428" opacity="0.861758" style="stroke:black;stroke-width:0.5;fill:url(#radialffffffbfbfbf)"/>
<circle cx="75.293798" cy="75.626324" r="20.632179" opacity="0.864037" style="stroke:black;stroke-width:0.5;fill:url(#radialffffff666666)"/>
<circle cx="40.000000" cy="81.134395" r="8.913812" opacity="0.889236" style="stroke:black;stroke-width:0.5;fill:url(#radialffffffbfbfbf)"/>
<circle cx="147.978610" cy="163.380139" r="9.474124" opacity="0.916759" style="stroke:black;stroke-width:0.5;fill:url(#radialffffffbfbfbf)"/>
<circle cx="166.461762" cy="87.587366" r="9.766177" opacity="0.930782" style="stroke:black;stroke-width:0.5;fill:url(#radialffffffbfbfbf)"/>
<circle cx="92.463309" cy="88.700174" r="11.272727" opacity="1.000000" style="stroke:black;stroke-width:0.5;fill:url(#radialffffffbfbfbf)"/>
</svg>
</g>
</svg>
