<?xml version="1.0"?>
<svg version="1.1" id="topsvg"
xmlns="http://www.w3.org/2000/svg" xmlns:xlink="http://www.w3.org/1999/xlink"
xmlns:cml="http://www.xml-cml.org/schema" x="0" y="0" width="200px" height="200px" viewBox="0 0 100 100">
<title>7947 - Open Babel Depiction</title>
<rect x="0" y="0" width="100" height="100" fill="white"/>
<defs>
<radialGradient id='radialffffff666666' cx='50%' cy='50%' r='50%' fx='30%' fy='30%'>
  <stop offset=' 0%' stop-color="rgb(255,255,255)"  stop-opacity='1.0'/>
  <stop offset='100%' stop-color="rgb(102,102,102)"  stop-opacity ='1.0'/>
</radialGradient>
<radialGradient id='radialffffffbfbfbf' cx='50%' cy='50%' r='50%' fx='30%' fy='30%'>
  <stop offset=' 0%' stop-color="rgb(255,255,255)"  stop-opacity='1.0'/>
  <stop offset='100%' stop-color="rgb(191,191,191)"  stop-opacity ='1.0'/>
</radialGradient>
</defs>
<g transform="translate(0,0)">
<svg width="100" height="100" x="0" y="0" viewBox="0 0 291.929 270.227"
font-family="sans-serif" stroke="rgb(0,0,0)" stroke-width="4"  stroke-linecap="round">
<line x1="141.4" y1="167.5" x2="138.4" y2="215.7" opacity="1.0" stroke="rgb(0,0,0)"  stroke-width="1.0"/>
<line x1="184.6" y1="102.4" x2="227.8" y2="80.9" opacity="0.3" stroke="rgb(0,0,0)"  stroke-width="1.0"/>
<line x1="106.6" y1="97.5" x2="66.4" y2="70.9" opacity="0.3" stroke="rgb(0,0,0)"  stroke-width="1.0"/>
<line x1="181.8" y1="147.4" x2="211.1" y2="166.9" opacity="0.3" stroke="rgb(0,0,0)"  stroke-width="1.0"/>
<line x1="103.8" y1="142.6" x2="72.3" y2="158.3" opacity="0.3" stroke="rgb(0,0,0)"  stroke-width="1.0"/>
<line x1="147.0" y1="77.4" x2="149.2" y2="42.3" opacity="0.3" stroke="rgb(0,0,0)"  stroke-width="1.0"/>
<line x1="138.4" y1="215.7" x2="109.2" y2="226.7" opacity="0.3" stroke="rgb(0,0,0)"  stroke-width="0.5"/>
<line x1="138.4" y1="215.7" x2="166.0" y2="230.2" opacity="0.2" stroke="rgb(0,0,0)"  stroke-width="0.5"/>
<line x1="138.4" y1="215.7" x2="137.7" y2="227.8" opacity="0.2" stroke="rgb(0,0,0)"  stroke-width="2.0"/>
<line x1="227.8" y1="80.9" x2="238.7" y2="75.5" opacity="0.7" stroke="rgb(0,0,0)"  stroke-width="2.0"/>
<line x1="227.8" y1="80.9" x2="251.9" y2="100.7" opacity="0.7" stroke="rgb(0,0,0)"  stroke-width="0.5"/>
<line x1="227.8" y1="80.9" x2="226.6" y2="49.7" opacity="0.2" stroke="rgb(0,0,0)"  stroke-width="0.5"/>
<line x1="66.4" y1="70.9" x2="40.0" y2="87.5" opacity="0.2" stroke="rgb(0,0,0)"  stroke-width="0.5"/>
<line x1="66.4" y1="70.9" x2="56.1" y2="64.3" opacity="0.2" stroke="rgb(0,0,0)"  stroke-width="2.0"/>
<line x1="66.4" y1="70.9" x2="71.5" y2="40.0" opacity="0.7" stroke="rgb(0,0,0)"  stroke-width="0.5"/>
<line x1="180.5" y1="144.7" x2="140.1" y2="164.8" opacity="0.3" stroke="rgb(0,0,0)"  stroke-width="1.0"/>
<line x1="183.1" y1="150.1" x2="142.7" y2="170.2" opacity="0.3" stroke="rgb(0,0,0)"  stroke-width="1.0" stroke-dasharray="5.0,5.0"/>
<line x1="143.1" y1="165.0" x2="105.4" y2="140.1" opacity="0.3" stroke="rgb(0,0,0)"  stroke-width="1.0"/>
<line x1="139.7" y1="170.0" x2="102.1" y2="145.1" opacity="0.3" stroke="rgb(0,0,0)"  stroke-width="1.0" stroke-dasharray="5.0,5.0"/>
<line x1="106.8" y1="142.8" x2="109.6" y2="97.7" opacity="0.3" stroke="rgb(0,0,0)"  stroke-width="1.0"/>
<line x1="100.8" y1="142.4" x2="103.6" y2="97.4" opacity="0.3" stroke="rgb(0,0,0)"  stroke-width="1.0" stroke-dasharray="5.0,5.0"/>
<line x1="107.9" y1="100.2" x2="148.3" y2="80.1" opacity="0.3" stroke="rgb(0,0,0)"  stroke-width="1.0"/>
<line x1="105.2" y1="94.9" x2="145.6" y2="74.7" opacity="0.3" stroke="rgb(0,0,0)"  stroke-width="1.0" stroke-dasharray="5.0,5.0"/>
<line x1="145.3" y1="79.9" x2="182.9" y2="104.9" opacity="0.3" stroke="rgb(0,0,0)"  stroke-width="1.0"/>
<line x1="148.6" y1="74.9" x2="186.3" y2="99.9" opacity="0.3" stroke="rgb(0,0,0)"  stroke-width="1.0" stroke-dasharray="5.0,5.0"/>
<line x1="181.6" y1="102.2" x2="178.8" y2="147.2" opacity="0.3" stroke="rgb(0,0,0)"  stroke-width="1.0"/>
<line x1="187.6" y1="102.6" x2="184.8" y2="147.6" opacity="0.3" stroke="rgb(0,0,0)"  stroke-width="1.0" stroke-dasharray="5.0,5.0"/>
<circle cx="40.000000" cy="87.485686" r="5.636364" opacity="0.200000" style="stroke:black;stroke-width:0.5;fill:url(#radialffffffbfbfbf)"/>
<circle cx="251.928657" cy="100.670762" r="5.636364" opacity="0.200000" style="stroke:black;stroke-width:0.5;fill:url(#radialffffffbfbfbf)"/>
<circle cx="166.036382" cy="230.227478" r="5.636364" opacity="0.200000" style="stroke:black;stroke-width:0.5;fill:url(#radialffffffbfbfbf)"/>
<circle cx="109.177158" cy="226.700672" r="5.636364" opacity="0.200000" style="stroke:black;stroke-width:0.5;fill:url(#radialffffffbfbfbf)"/>
<circle cx="226.564777" cy="49.661506" r="5.636364" opacity="0.200000" style="stroke:black;stroke-width:0.5;fill:url(#radialffffffbfbfbf)"/>
<circle cx="71.462988" cy="40.000000" r="5.636364" opacity="0.200000" style="stroke:black;stroke-width:0.5;fill:url(#radialffffffbfbfbf)"/>
<circle cx="141.394041" cy="167.527994" r="13.818182" opacity="0.580006" style="stroke:black;stroke-width:0.5;fill:url(#radialffffff666666)"/>
<circle cx="181.800232" cy="147.425202" r="13.818182" opacity="0.580117" style="stroke:black;stroke-width:0.5;fill:url(#radialffffff666666)"/>
<circle cx="103.780175" cy="142.584743" r="13.818182" opacity="0.580172" style="stroke:black;stroke-width:0.5;fill:url(#radialffffff666666)"/>
<circle cx="184.592556" cy="102.379160" r="13.818182" opacity="0.580228" style="stroke:black;stroke-width:0.5;fill:url(#radialffffff666666)"/>
<circle cx="106.575735" cy="97.538700" r="13.818182" opacity="0.580283" style="stroke:black;stroke-width:0.5;fill:url(#radialffffff666666)"/>
<circle cx="146.981925" cy="77.432673" r="13.818182" opacity="0.580283" style="stroke:black;stroke-width:0.5;fill:url(#radialffffff666666)"/>
<circle cx="66.350738" cy="70.880580" r="13.818182" opacity="0.580394" style="stroke:black;stroke-width:0.5;fill:url(#radialffffff666666)"/>
<circle cx="227.800777" cy="80.888295" r="13.818182" opacity="0.580450" style="stroke:black;stroke-width:0.5;fill:url(#radialffffff666666)"/>
<circle cx="138.404346" cy="215.680214" r="13.818182" opacity="0.580617" style="stroke:black;stroke-width:0.5;fill:url(#radialffffff666666)"/>
<circle cx="211.127723" cy="166.867931" r="5.636364" opacity="0.582280" style="stroke:black;stroke-width:0.5;fill:url(#radialffffffbfbfbf)"/>
<circle cx="72.275124" cy="158.254760" r="5.636364" opacity="0.582390" style="stroke:black;stroke-width:0.5;fill:url(#radialffffffbfbfbf)"/>
<circle cx="149.162720" cy="42.313455" r="5.636364" opacity="0.582501" style="stroke:black;stroke-width:0.5;fill:url(#radialffffffbfbfbf)"/>
<circle cx="56.135944" cy="64.302602" r="11.269093" opacity="0.999839" style="stroke:black;stroke-width:0.5;fill:url(#radialffffffbfbfbf)"/>
<circle cx="238.695047" cy="75.530139" r="11.269820" opacity="0.999871" style="stroke:black;stroke-width:0.5;fill:url(#radialffffffbfbfbf)"/>
<circle cx="137.666628" cy="227.787834" r="11.272727" opacity="1.000000" style="stroke:black;stroke-width:0.5;fill:url(#radialffffffbfbfbf)"/>
</svg>
</g>
</svg>
