<?xml version="1.0"?>
<svg version="1.1" id="topsvg"
xmlns="http://www.w3.org/2000/svg" xmlns:xlink="http://www.w3.org/1999/xlink"
xmlns:cml="http://www.xml-cml.org/schema" x="0" y="0" width="1024px" height="1024px" viewBox="0 0 100 100">
<title>7948 - Open Babel Depiction</title>
<rect x="0" y="0" width="100" height="100" fill="white"/>
<defs>
<radialGradient id='radialffffff666666' cx='50%' cy='50%' r='50%' fx='30%' fy='30%'>
  <stop offset=' 0%' stop-color="rgb(255,255,255)"  stop-opacity='1.0'/>
  <stop offset='100%' stop-color="rgb(102,102,102)"  stop-opacity ='1.0'/>
</radialGradient>
<radialGradient id='radialffffffbfbfbf' cx='50%' cy='50%' r='50%' fx='30%' fy='30%'>
  <stop offset=' 0%' stop-color="rgb(255,255,255)"  stop-opacity='1.0'/>
  <stop offset='100%' stop-color="rgb(191,191,191)"  stop-opacity ='1.0'/>
</radialGradient>
<radialGradient id='radialffffffffcc' cx='50%' cy='50%' r='50%' fx='30%' fy='30%'>
  <stop offset=' 0%' stop-color="rgb(255,255,255)"  stop-opacity='1.0'/>
  <stop offset='100%' stop-color="rgb(255,12,12)"  stop-opacity ='1.0'/>
</radialGradient>
</defs>
<g transform="translate(0,0)">
<svg width="100" height="100" x="0" y="0" viewBox="0 0 292.401 259.446"
font-family="sans-serif" stroke="rgb(0,0,0)" stroke-width="2"  stroke-linecap="round">
<line x1="146.0" y1="50.2" x2="146.0" y2="94.2" opacity="1.0" stroke="rgb(0,0,0)"  stroke-width="1.0"/>
<line x1="146.0" y1="50.2" x2="116.2" y2="40.0" opacity="0.3" stroke="rgb(0,0,0)"  stroke-width="1.0"/>
<line x1="107.1" y1="161.8" x2="65.3" y2="185.9" opacity="0.3" stroke="rgb(0,0,0)"  stroke-width="1.0"/>
<line x1="185.1" y1="161.7" x2="226.9" y2="185.8" opacity="0.3" stroke="rgb(0,0,0)"  stroke-width="1.0"/>
<line x1="146.1" y1="184.3" x2="146.1" y2="219.4" opacity="0.3" stroke="rgb(0,0,0)"  stroke-width="1.0"/>
<line x1="107.0" y1="116.7" x2="76.5" y2="99.2" opacity="0.3" stroke="rgb(0,0,0)"  stroke-width="1.0"/>
<line x1="185.1" y1="116.7" x2="215.4" y2="98.9" opacity="0.3" stroke="rgb(0,0,0)"  stroke-width="1.0"/>
<line x1="65.3" y1="185.9" x2="54.9" y2="192.1" opacity="0.3" stroke="rgb(0,0,0)"  stroke-width="2.0"/>
<line x1="65.3" y1="185.9" x2="40.0" y2="167.7" opacity="0.7" stroke="rgb(0,0,0)"  stroke-width="0.5"/>
<line x1="65.3" y1="185.9" x2="68.5" y2="216.9" opacity="0.2" stroke="rgb(0,0,0)"  stroke-width="0.5"/>
<line x1="226.9" y1="185.8" x2="252.4" y2="167.2" opacity="0.2" stroke="rgb(0,0,0)"  stroke-width="0.6"/>
<line x1="226.9" y1="185.8" x2="236.9" y2="192.7" opacity="0.2" stroke="rgb(0,0,0)"  stroke-width="2.0"/>
<line x1="226.9" y1="185.8" x2="223.9" y2="216.4" opacity="0.7" stroke="rgb(0,0,0)"  stroke-width="0.5"/>
<line x1="147.6" y1="186.9" x2="186.6" y2="164.3" opacity="0.3" stroke="rgb(0,0,0)"  stroke-width="1.0"/>
<line x1="144.6" y1="181.7" x2="183.6" y2="159.1" opacity="0.3" stroke="rgb(0,0,0)"  stroke-width="1.0" stroke-dasharray="5.0,5.0"/>
<line x1="188.1" y1="161.7" x2="188.1" y2="116.6" opacity="0.3" stroke="rgb(0,0,0)"  stroke-width="1.0"/>
<line x1="182.1" y1="161.7" x2="182.1" y2="116.7" opacity="0.3" stroke="rgb(0,0,0)"  stroke-width="1.0" stroke-dasharray="5.0,5.0"/>
<line x1="186.6" y1="114.1" x2="147.5" y2="91.6" opacity="0.3" stroke="rgb(0,0,0)"  stroke-width="1.0"/>
<line x1="183.6" y1="119.3" x2="144.5" y2="96.7" opacity="0.3" stroke="rgb(0,0,0)"  stroke-width="1.0" stroke-dasharray="5.0,5.0"/>
<line x1="144.5" y1="91.6" x2="105.5" y2="114.1" opacity="0.3" stroke="rgb(0,0,0)"  stroke-width="1.0"/>
<line x1="147.5" y1="96.7" x2="108.5" y2="119.3" opacity="0.3" stroke="rgb(0,0,0)"  stroke-width="1.0" stroke-dasharray="5.0,5.0"/>
<line x1="104.0" y1="116.7" x2="104.1" y2="161.8" opacity="0.3" stroke="rgb(0,0,0)"  stroke-width="1.0"/>
<line x1="110.0" y1="116.7" x2="110.1" y2="161.8" opacity="0.3" stroke="rgb(0,0,0)"  stroke-width="1.0" stroke-dasharray="5.0,5.0"/>
<line x1="105.6" y1="164.4" x2="144.6" y2="186.9" opacity="0.3" stroke="rgb(0,0,0)"  stroke-width="1.0"/>
<line x1="108.5" y1="159.2" x2="147.6" y2="181.7" opacity="0.3" stroke="rgb(0,0,0)"  stroke-width="1.0" stroke-dasharray="5.0,5.0"/>
<circle cx="223.934494" cy="216.408300" r="5.636364" opacity="0.200000" style="stroke:black;stroke-width:0.5;fill:url(#radialffffffbfbfbf)"/>
<circle cx="68.514872" cy="216.912416" r="5.636364" opacity="0.200000" style="stroke:black;stroke-width:0.5;fill:url(#radialffffffbfbfbf)"/>
<circle cx="40.000000" cy="167.680314" r="5.636364" opacity="0.200000" style="stroke:black;stroke-width:0.5;fill:url(#radialffffffbfbfbf)"/>
<circle cx="252.400893" cy="167.169735" r="5.636364" opacity="0.200000" style="stroke:black;stroke-width:0.5;fill:url(#radialffffffbfbfbf)"/>
<circle cx="185.117559" cy="161.727867" r="13.818182" opacity="0.587428" style="stroke:black;stroke-width:0.5;fill:url(#radialffffff666666)"/>
<circle cx="185.075549" cy="116.651491" r="13.818182" opacity="0.587428" style="stroke:black;stroke-width:0.5;fill:url(#radialffffff666666)"/>
<circle cx="146.019482" cy="94.150465" r="13.818182" opacity="0.587428" style="stroke:black;stroke-width:0.5;fill:url(#radialffffff666666)"/>
<circle cx="146.103501" cy="184.303218" r="13.818182" opacity="0.587536" style="stroke:black;stroke-width:0.5;fill:url(#radialffffff666666)"/>
<circle cx="65.344757" cy="185.948058" r="13.818182" opacity="0.587590" style="stroke:black;stroke-width:0.5;fill:url(#radialffffff666666)"/>
<circle cx="107.050665" cy="161.798960" r="13.818182" opacity="0.587644" style="stroke:black;stroke-width:0.5;fill:url(#radialffffff666666)"/>
<circle cx="107.005424" cy="116.722584" r="13.818182" opacity="0.587644" style="stroke:black;stroke-width:0.5;fill:url(#radialffffff666666)"/>
<circle cx="145.971009" cy="50.156646" r="12.000000" opacity="0.587753" style="stroke:black;stroke-width:0.5;fill:url(#radialffffffffcc)"/>
<circle cx="116.224931" cy="40.000000" r="5.636364" opacity="0.587753" style="stroke:black;stroke-width:0.5;fill:url(#radialffffffbfbfbf)"/>
<circle cx="226.865477" cy="185.796177" r="13.818182" opacity="0.587807" style="stroke:black;stroke-width:0.5;fill:url(#radialffffff666666)"/>
<circle cx="215.377448" cy="98.862011" r="5.636364" opacity="0.588457" style="stroke:black;stroke-width:0.5;fill:url(#radialffffffbfbfbf)"/>
<circle cx="76.545182" cy="99.201320" r="5.636364" opacity="0.588781" style="stroke:black;stroke-width:0.5;fill:url(#radialffffffbfbfbf)"/>
<circle cx="146.145511" cy="219.445923" r="5.636364" opacity="0.589592" style="stroke:black;stroke-width:0.5;fill:url(#radialffffffbfbfbf)"/>
<circle cx="54.900507" cy="192.139637" r="11.271292" opacity="0.999936" style="stroke:black;stroke-width:0.5;fill:url(#radialffffffbfbfbf)"/>
<circle cx="236.905788" cy="192.650216" r="11.272727" opacity="1.000000" style="stroke:black;stroke-width:0.5;fill:url(#radialffffffbfbfbf)"/>
</svg>
</g>
</svg>
