<?xml version="1.0"?>
<svg version="1.1" id="topsvg"
xmlns="http://www.w3.org/2000/svg" xmlns:xlink="http://www.w3.org/1999/xlink"
xmlns:cml="http://www.xml-cml.org/schema" x="0" y="0" width="1024px" height="1024px" viewBox="0 0 100 100">
<title>79985 - Open Babel Depiction</title>
<rect x="0" y="0" width="100" height="100" fill="white"/>
<defs>
<radialGradient id='radialffffff666666' cx='50%' cy='50%' r='50%' fx='30%' fy='30%'>
  <stop offset=' 0%' stop-color="rgb(255,255,255)"  stop-opacity='1.0'/>
  <stop offset='100%' stop-color="rgb(102,102,102)"  stop-opacity ='1.0'/>
</radialGradient>
<radialGradient id='radialffffffbfbfbf' cx='50%' cy='50%' r='50%' fx='30%' fy='30%'>
  <stop offset=' 0%' stop-color="rgb(255,255,255)"  stop-opacity='1.0'/>
  <stop offset='100%' stop-color="rgb(191,191,191)"  stop-opacity ='1.0'/>
</radialGradient>
</defs>
<g transform="translate(0,0)">
<svg width="100" height="100" x="0" y="0" viewBox="0 0 422.816 248.685"
font-family="sans-serif" stroke="rgb(0,0,0)" stroke-width="2"  stroke-linecap="round">
<line x1="277.4" y1="151.7" x2="232.8" y2="161.6" opacity="1.0" stroke="rgb(0,0,0)"  stroke-width="1.6"/>
<line x1="277.4" y1="151.7" x2="285.2" y2="102.5" opacity="0.5" stroke="rgb(0,0,0)"  stroke-width="2.0"/>
<line x1="277.4" y1="151.7" x2="314.0" y2="173.7" opacity="0.7" stroke="rgb(0,0,0)"  stroke-width="1.5"/>
<line x1="277.4" y1="151.7" x2="277.0" y2="167.6" opacity="0.5" stroke="rgb(0,0,0)"  stroke-width="2.4"/>
<line x1="232.8" y1="161.6" x2="192.0" y2="145.8" opacity="0.8" stroke="rgb(0,0,0)"  stroke-width="1.6"/>
<line x1="232.8" y1="161.6" x2="229.9" y2="197.2" opacity="0.5" stroke="rgb(0,0,0)"  stroke-width="1.1"/>
<line x1="232.8" y1="161.6" x2="232.6" y2="147.8" opacity="0.4" stroke="rgb(0,0,0)"  stroke-width="0.7"/>
<line x1="192.0" y1="145.8" x2="149.3" y2="155.0" opacity="0.2" stroke="rgb(0,0,0)"  stroke-width="1.6"/>
<line x1="192.0" y1="145.8" x2="191.0" y2="161.2" opacity="0.5" stroke="rgb(0,0,0)"  stroke-width="2.5"/>
<line x1="192.0" y1="145.8" x2="194.3" y2="110.4" opacity="0.8" stroke="rgb(0,0,0)"  stroke-width="2.1"/>
<line x1="285.2" y1="102.5" x2="286.3" y2="74.1" opacity="0.7" stroke="rgb(0,0,0)"  stroke-width="1.5"/>
<line x1="285.2" y1="102.5" x2="260.0" y2="89.9" opacity="0.5" stroke="rgb(0,0,0)"  stroke-width="2.5"/>
<line x1="285.2" y1="102.5" x2="316.1" y2="98.1" opacity="0.8" stroke="rgb(0,0,0)"  stroke-width="2.4"/>
<line x1="314.0" y1="173.7" x2="359.4" y2="169.3" opacity="0.8" stroke="rgb(0,0,0)"  stroke-width="1.4"/>
<line x1="314.0" y1="173.7" x2="314.5" y2="160.6" opacity="0.5" stroke="rgb(0,0,0)"  stroke-width="0.5"/>
<line x1="314.0" y1="173.7" x2="306.7" y2="208.7" opacity="0.2" stroke="rgb(0,0,0)"  stroke-width="1.0"/>
<line x1="149.3" y1="155.0" x2="110.1" y2="135.6" opacity="0.3" stroke="rgb(0,0,0)"  stroke-width="1.6"/>
<line x1="149.3" y1="155.0" x2="145.0" y2="190.4" opacity="0.5" stroke="rgb(0,0,0)"  stroke-width="1.2"/>
<line x1="149.3" y1="155.0" x2="151.0" y2="140.9" opacity="0.4" stroke="rgb(0,0,0)"  stroke-width="0.7"/>
<line x1="110.1" y1="135.6" x2="67.6" y2="143.6" opacity="0.2" stroke="rgb(0,0,0)"  stroke-width="1.6"/>
<line x1="110.1" y1="135.6" x2="114.6" y2="100.3" opacity="0.5" stroke="rgb(0,0,0)"  stroke-width="2.0"/>
<line x1="110.1" y1="135.6" x2="107.6" y2="150.2" opacity="0.7" stroke="rgb(0,0,0)"  stroke-width="2.5"/>
<line x1="286.3" y1="74.1" x2="255.2" y2="75.2" opacity="0.8" stroke="rgb(0,0,0)"  stroke-width="0.6"/>
<line x1="286.3" y1="74.1" x2="312.5" y2="84.1" opacity="0.2" stroke="rgb(0,0,0)"  stroke-width="0.5"/>
<line x1="286.3" y1="74.1" x2="292.4" y2="40.0" opacity="0.2" stroke="rgb(0,0,0)"  stroke-width="1.0"/>
<line x1="359.4" y1="169.3" x2="359.6" y2="180.6" opacity="0.3" stroke="rgb(0,0,0)"  stroke-width="2.2"/>
<line x1="359.4" y1="169.3" x2="371.0" y2="135.5" opacity="0.7" stroke="rgb(0,0,0)"  stroke-width="1.7"/>
<line x1="359.4" y1="169.3" x2="382.8" y2="189.2" opacity="0.6" stroke="rgb(0,0,0)"  stroke-width="1.4"/>
<line x1="67.6" y1="143.6" x2="40.0" y2="129.5" opacity="0.5" stroke="rgb(0,0,0)"  stroke-width="1.5"/>
<line x1="67.6" y1="143.6" x2="68.6" y2="128.4" opacity="0.5" stroke="rgb(0,0,0)"  stroke-width="0.7"/>
<line x1="67.6" y1="143.6" x2="61.5" y2="178.6" opacity="0.2" stroke="rgb(0,0,0)"  stroke-width="1.1"/>
<circle cx="314.472247" cy="160.575418" r="5.636364" opacity="0.200000" style="stroke:black;stroke-width:0.5;fill:url(#radialffffffbfbfbf)"/>
<circle cx="232.560791" cy="147.848831" r="5.636364" opacity="0.238207" style="stroke:black;stroke-width:0.5;fill:url(#radialffffffbfbfbf)"/>
<circle cx="312.483105" cy="84.117745" r="5.636364" opacity="0.240705" style="stroke:black;stroke-width:0.5;fill:url(#radialffffffbfbfbf)"/>
<circle cx="151.035385" cy="140.899918" r="5.636364" opacity="0.245207" style="stroke:black;stroke-width:0.5;fill:url(#radialffffffbfbfbf)"/>
<circle cx="68.577568" cy="128.405615" r="5.636364" opacity="0.248599" style="stroke:black;stroke-width:0.5;fill:url(#radialffffffbfbfbf)"/>
<circle cx="255.236363" cy="75.228764" r="5.636364" opacity="0.326309" style="stroke:black;stroke-width:0.5;fill:url(#radialffffffbfbfbf)"/>
<circle cx="286.342891" cy="74.132773" r="13.818182" opacity="0.539311" style="stroke:black;stroke-width:0.5;fill:url(#radialffffff666666)"/>
<circle cx="306.653085" cy="208.684535" r="5.636364" opacity="0.563033" style="stroke:black;stroke-width:0.5;fill:url(#radialffffffbfbfbf)"/>
<circle cx="313.978233" cy="173.661883" r="13.818182" opacity="0.590618" style="stroke:black;stroke-width:0.5;fill:url(#radialffffff666666)"/>
<circle cx="61.504334" cy="178.605295" r="5.636364" opacity="0.597951" style="stroke:black;stroke-width:0.5;fill:url(#radialffffffbfbfbf)"/>
<circle cx="229.858436" cy="197.165174" r="5.636364" opacity="0.599293" style="stroke:black;stroke-width:0.5;fill:url(#radialffffffbfbfbf)"/>
<circle cx="144.999253" cy="190.402743" r="5.636364" opacity="0.603527" style="stroke:black;stroke-width:0.5;fill:url(#radialffffffbfbfbf)"/>
<circle cx="382.816311" cy="189.169344" r="5.636364" opacity="0.604235" style="stroke:black;stroke-width:0.5;fill:url(#radialffffffbfbfbf)"/>
<circle cx="292.362665" cy="40.000000" r="5.636364" opacity="0.621057" style="stroke:black;stroke-width:0.5;fill:url(#radialffffffbfbfbf)"/>
<circle cx="67.596083" cy="143.556470" r="13.818182" opacity="0.633023" style="stroke:black;stroke-width:0.5;fill:url(#radialffffff666666)"/>
<circle cx="232.825792" cy="161.602705" r="13.818182" opacity="0.634964" style="stroke:black;stroke-width:0.5;fill:url(#radialffffff666666)"/>
<circle cx="149.265440" cy="154.994040" r="13.818182" opacity="0.635932" style="stroke:black;stroke-width:0.5;fill:url(#radialffffff666666)"/>
<circle cx="370.999233" cy="135.469035" r="6.176013" opacity="0.740184" style="stroke:black;stroke-width:0.5;fill:url(#radialffffffbfbfbf)"/>
<circle cx="359.384996" cy="169.304090" r="15.409481" opacity="0.746713" style="stroke:black;stroke-width:0.5;fill:url(#radialffffff666666)"/>
<circle cx="40.000000" cy="129.524508" r="6.636093" opacity="0.767259" style="stroke:black;stroke-width:0.5;fill:url(#radialffffffbfbfbf)"/>
<circle cx="277.359032" cy="151.719153" r="17.473588" opacity="0.795153" style="stroke:black;stroke-width:0.5;fill:url(#radialffffff666666)"/>
<circle cx="110.055119" cy="135.645702" r="18.198151" opacity="0.811471" style="stroke:black;stroke-width:0.5;fill:url(#radialffffff666666)"/>
<circle cx="192.002564" cy="145.794255" r="18.214210" opacity="0.811829" style="stroke:black;stroke-width:0.5;fill:url(#radialffffff666666)"/>
<circle cx="114.599394" cy="100.344962" r="7.941194" opacity="0.839322" style="stroke:black;stroke-width:0.5;fill:url(#radialffffffbfbfbf)"/>
<circle cx="194.315596" cy="110.437898" r="8.064113" opacity="0.845792" style="stroke:black;stroke-width:0.5;fill:url(#radialffffffbfbfbf)"/>
<circle cx="285.240356" cy="102.514044" r="19.851326" opacity="0.847529" style="stroke:black;stroke-width:0.5;fill:url(#radialffffff666666)"/>
<circle cx="316.058981" cy="98.126806" r="10.194198" opacity="0.950960" style="stroke:black;stroke-width:0.5;fill:url(#radialffffffbfbfbf)"/>
<circle cx="359.643453" cy="180.571537" r="10.288218" opacity="0.955335" style="stroke:black;stroke-width:0.5;fill:url(#radialffffffbfbfbf)"/>
<circle cx="259.963849" cy="89.852889" r="10.695123" opacity="0.974044" style="stroke:black;stroke-width:0.5;fill:url(#radialffffffbfbfbf)"/>
<circle cx="276.989340" cy="167.642109" r="10.924007" opacity="0.984411" style="stroke:black;stroke-width:0.5;fill:url(#radialffffffbfbfbf)"/>
<circle cx="190.962190" cy="161.229741" r="11.242286" opacity="0.998649" style="stroke:black;stroke-width:0.5;fill:url(#radialffffffbfbfbf)"/>
<circle cx="107.627580" cy="150.201123" r="11.272727" opacity="1.000000" style="stroke:black;stroke-width:0.5;fill:url(#radialffffffbfbfbf)"/>
</svg>
</g>
</svg>
