<?xml version="1.0"?>
<svg version="1.1" id="topsvg"
xmlns="http://www.w3.org/2000/svg" xmlns:xlink="http://www.w3.org/1999/xlink"
xmlns:cml="http://www.xml-cml.org/schema" x="0" y="0" width="200px" height="200px" viewBox="0 0 100 100">
<title>80517 - Open Babel Depiction</title>
<rect x="0" y="0" width="100" height="100" fill="white"/>
<defs>
<radialGradient id='radialffffff666666' cx='50%' cy='50%' r='50%' fx='30%' fy='30%'>
  <stop offset=' 0%' stop-color="rgb(255,255,255)"  stop-opacity='1.0'/>
  <stop offset='100%' stop-color="rgb(102,102,102)"  stop-opacity ='1.0'/>
</radialGradient>
<radialGradient id='radialffffffb2b20' cx='50%' cy='50%' r='50%' fx='30%' fy='30%'>
  <stop offset=' 0%' stop-color="rgb(255,255,255)"  stop-opacity='1.0'/>
  <stop offset='100%' stop-color="rgb(178,178,0)"  stop-opacity ='1.0'/>
</radialGradient>
<radialGradient id='radialffffffbfbfbf' cx='50%' cy='50%' r='50%' fx='30%' fy='30%'>
  <stop offset=' 0%' stop-color="rgb(255,255,255)"  stop-opacity='1.0'/>
  <stop offset='100%' stop-color="rgb(191,191,191)"  stop-opacity ='1.0'/>
</radialGradient>
</defs>
<g transform="translate(0,0)">
<svg width="100" height="100" x="0" y="0" viewBox="0 0 559.61 268.437"
font-family="sans-serif" stroke="rgb(0,0,0)" stroke-width="4"  stroke-linecap="round">
<line x1="277.9" y1="58.5" x2="227.4" y2="69.6" opacity="1.0" stroke="rgb(0,0,0)"  stroke-width="1.5"/>
<line x1="277.9" y1="58.5" x2="308.7" y2="102.6" opacity="0.5" stroke="rgb(0,0,0)"  stroke-width="1.6"/>
<line x1="160.2" y1="114.4" x2="203.0" y2="105.0" opacity="0.5" stroke="rgb(0,0,0)"  stroke-width="1.5"/>
<line x1="160.2" y1="114.4" x2="136.0" y2="150.7" opacity="0.5" stroke="rgb(0,0,0)"  stroke-width="1.5"/>
<line x1="160.2" y1="114.4" x2="166.1" y2="123.3" opacity="0.5" stroke="rgb(0,0,0)"  stroke-width="0.6"/>
<line x1="160.2" y1="114.4" x2="140.3" y2="85.4" opacity="0.2" stroke="rgb(0,0,0)"  stroke-width="1.1"/>
<line x1="380.7" y1="139.3" x2="354.5" y2="101.8" opacity="0.4" stroke="rgb(0,0,0)"  stroke-width="1.6"/>
<line x1="380.7" y1="139.3" x2="427.0" y2="138.1" opacity="0.5" stroke="rgb(0,0,0)"  stroke-width="1.5"/>
<line x1="380.7" y1="139.3" x2="380.7" y2="138.0" opacity="0.5" stroke="rgb(0,0,0)"  stroke-width="0.7"/>
<line x1="380.7" y1="139.3" x2="365.7" y2="169.8" opacity="0.2" stroke="rgb(0,0,0)"  stroke-width="1.4"/>
<line x1="203.0" y1="105.0" x2="227.4" y2="69.6" opacity="0.5" stroke="rgb(0,0,0)"  stroke-width="1.5"/>
<line x1="203.0" y1="105.0" x2="196.7" y2="95.5" opacity="0.5" stroke="rgb(0,0,0)"  stroke-width="2.4"/>
<line x1="203.0" y1="105.0" x2="221.9" y2="134.6" opacity="0.8" stroke="rgb(0,0,0)"  stroke-width="1.9"/>
<line x1="354.5" y1="101.8" x2="308.7" y2="102.6" opacity="0.6" stroke="rgb(0,0,0)"  stroke-width="1.6"/>
<line x1="354.5" y1="101.8" x2="354.2" y2="103.8" opacity="0.5" stroke="rgb(0,0,0)"  stroke-width="2.4"/>
<line x1="354.5" y1="101.8" x2="370.2" y2="71.6" opacity="0.8" stroke="rgb(0,0,0)"  stroke-width="1.7"/>
<line x1="136.0" y1="150.7" x2="93.3" y2="161.9" opacity="0.6" stroke="rgb(0,0,0)"  stroke-width="1.5"/>
<line x1="136.0" y1="150.7" x2="130.0" y2="141.7" opacity="0.5" stroke="rgb(0,0,0)"  stroke-width="2.4"/>
<line x1="136.0" y1="150.7" x2="156.3" y2="179.4" opacity="0.8" stroke="rgb(0,0,0)"  stroke-width="1.9"/>
<line x1="427.0" y1="138.1" x2="454.8" y2="174.5" opacity="0.6" stroke="rgb(0,0,0)"  stroke-width="1.5"/>
<line x1="427.0" y1="138.1" x2="427.0" y2="139.6" opacity="0.5" stroke="rgb(0,0,0)"  stroke-width="2.4"/>
<line x1="427.0" y1="138.1" x2="441.5" y2="107.3" opacity="0.8" stroke="rgb(0,0,0)"  stroke-width="1.6"/>
<line x1="227.4" y1="69.6" x2="208.5" y2="40.0" opacity="0.5" stroke="rgb(0,0,0)"  stroke-width="1.1"/>
<line x1="227.4" y1="69.6" x2="233.2" y2="77.9" opacity="0.4" stroke="rgb(0,0,0)"  stroke-width="0.6"/>
<line x1="308.7" y1="102.6" x2="293.5" y2="133.0" opacity="0.2" stroke="rgb(0,0,0)"  stroke-width="1.4"/>
<line x1="308.7" y1="102.6" x2="309.2" y2="100.3" opacity="0.5" stroke="rgb(0,0,0)"  stroke-width="0.7"/>
<line x1="93.3" y1="161.9" x2="70.2" y2="199.4" opacity="0.2" stroke="rgb(0,0,0)"  stroke-width="1.5"/>
<line x1="93.3" y1="161.9" x2="99.0" y2="169.6" opacity="0.5" stroke="rgb(0,0,0)"  stroke-width="0.6"/>
<line x1="93.3" y1="161.9" x2="72.3" y2="133.7" opacity="0.2" stroke="rgb(0,0,0)"  stroke-width="1.2"/>
<line x1="454.8" y1="174.5" x2="501.3" y2="172.2" opacity="0.4" stroke="rgb(0,0,0)"  stroke-width="1.5"/>
<line x1="454.8" y1="174.5" x2="453.8" y2="174.0" opacity="0.5" stroke="rgb(0,0,0)"  stroke-width="0.6"/>
<line x1="454.8" y1="174.5" x2="441.3" y2="205.4" opacity="0.2" stroke="rgb(0,0,0)"  stroke-width="1.4"/>
<line x1="70.2" y1="199.4" x2="63.0" y2="192.4" opacity="0.5" stroke="rgb(0,0,0)"  stroke-width="2.4"/>
<line x1="70.2" y1="199.4" x2="89.9" y2="228.4" opacity="0.8" stroke="rgb(0,0,0)"  stroke-width="1.8"/>
<line x1="70.2" y1="199.4" x2="40.0" y2="205.9" opacity="0.6" stroke="rgb(0,0,0)"  stroke-width="1.6"/>
<line x1="501.3" y1="172.2" x2="503.7" y2="173.7" opacity="0.5" stroke="rgb(0,0,0)"  stroke-width="2.3"/>
<line x1="501.3" y1="172.2" x2="516.2" y2="142.2" opacity="0.8" stroke="rgb(0,0,0)"  stroke-width="1.5"/>
<line x1="501.3" y1="172.2" x2="519.6" y2="198.9" opacity="0.5" stroke="rgb(0,0,0)"  stroke-width="1.5"/>
<circle cx="233.237608" cy="77.902240" r="5.636364" opacity="0.200000" style="stroke:black;stroke-width:0.5;fill:url(#radialffffffbfbfbf)"/>
<circle cx="166.078905" cy="123.327846" r="5.636364" opacity="0.200000" style="stroke:black;stroke-width:0.5;fill:url(#radialffffffbfbfbf)"/>
<circle cx="99.019615" cy="169.590450" r="5.636364" opacity="0.200000" style="stroke:black;stroke-width:0.5;fill:url(#radialffffffbfbfbf)"/>
<circle cx="453.788304" cy="173.990304" r="5.636364" opacity="0.200000" style="stroke:black;stroke-width:0.5;fill:url(#radialffffffbfbfbf)"/>
<circle cx="380.684026" cy="138.044267" r="5.636364" opacity="0.200000" style="stroke:black;stroke-width:0.5;fill:url(#radialffffffbfbfbf)"/>
<circle cx="309.247330" cy="100.267096" r="5.636364" opacity="0.205978" style="stroke:black;stroke-width:0.5;fill:url(#radialffffffbfbfbf)"/>
<circle cx="227.429929" cy="69.602807" r="13.818182" opacity="0.606586" style="stroke:black;stroke-width:0.5;fill:url(#radialffffff666666)"/>
<circle cx="208.525309" cy="40.000000" r="5.636364" opacity="0.609414" style="stroke:black;stroke-width:0.5;fill:url(#radialffffffbfbfbf)"/>
<circle cx="140.333987" cy="85.390330" r="5.636364" opacity="0.613060" style="stroke:black;stroke-width:0.5;fill:url(#radialffffffbfbfbf)"/>
<circle cx="160.203881" cy="114.403069" r="13.818182" opacity="0.615687" style="stroke:black;stroke-width:0.5;fill:url(#radialffffff666666)"/>
<circle cx="93.330591" cy="161.852223" r="13.818182" opacity="0.624825" style="stroke:black;stroke-width:0.5;fill:url(#radialffffff666666)"/>
<circle cx="72.274147" cy="133.698930" r="5.636364" opacity="0.630026" style="stroke:black;stroke-width:0.5;fill:url(#radialffffffbfbfbf)"/>
<circle cx="454.766406" cy="174.529062" r="13.818182" opacity="0.637198" style="stroke:black;stroke-width:0.5;fill:url(#radialffffff666666)"/>
<circle cx="519.609734" cy="198.930292" r="5.636364" opacity="0.644808" style="stroke:black;stroke-width:0.5;fill:url(#radialffffffbfbfbf)"/>
<circle cx="380.700060" cy="139.346265" r="13.818182" opacity="0.647686" style="stroke:black;stroke-width:0.5;fill:url(#radialffffff666666)"/>
<circle cx="308.731021" cy="102.640195" r="13.818182" opacity="0.652517" style="stroke:black;stroke-width:0.5;fill:url(#radialffffff666666)"/>
<circle cx="40.000000" cy="205.882831" r="5.636364" opacity="0.661385" style="stroke:black;stroke-width:0.5;fill:url(#radialffffffbfbfbf)"/>
<circle cx="516.216844" cy="142.245294" r="5.636364" opacity="0.667459" style="stroke:black;stroke-width:0.5;fill:url(#radialffffffbfbfbf)"/>
<circle cx="441.502706" cy="107.338289" r="5.651000" opacity="0.708024" style="stroke:black;stroke-width:0.5;fill:url(#radialffffffbfbfbf)"/>
<circle cx="441.258983" cy="205.388970" r="5.821104" opacity="0.718602" style="stroke:black;stroke-width:0.5;fill:url(#radialffffffbfbfbf)"/>
<circle cx="370.159011" cy="71.575045" r="5.857498" opacity="0.720844" style="stroke:black;stroke-width:0.5;fill:url(#radialffffffbfbfbf)"/>
<circle cx="365.749536" cy="169.795691" r="5.874113" opacity="0.721866" style="stroke:black;stroke-width:0.5;fill:url(#radialffffffbfbfbf)"/>
<circle cx="293.520738" cy="133.006242" r="5.883607" opacity="0.722449" style="stroke:black;stroke-width:0.5;fill:url(#radialffffffbfbfbf)"/>
<circle cx="501.320837" cy="172.162376" r="15.557093" opacity="0.750281" style="stroke:black;stroke-width:0.5;fill:url(#radialffffff666666)"/>
<circle cx="426.959457" cy="138.121232" r="16.538564" opacity="0.773586" style="stroke:black;stroke-width:0.5;fill:url(#radialffffff666666)"/>
<circle cx="89.873563" cy="228.436893" r="6.825902" opacity="0.778154" style="stroke:black;stroke-width:0.5;fill:url(#radialffffffbfbfbf)"/>
<circle cx="354.493350" cy="101.848093" r="17.009903" opacity="0.784532" style="stroke:black;stroke-width:0.5;fill:url(#radialffffff666666)"/>
<circle cx="70.224944" cy="199.376050" r="17.110765" opacity="0.786854" style="stroke:black;stroke-width:0.5;fill:url(#radialffffff666666)"/>
<circle cx="202.961354" cy="105.006880" r="17.218417" opacity="0.789326" style="stroke:black;stroke-width:0.5;fill:url(#radialffffff666666)"/>
<circle cx="135.998271" cy="150.663382" r="17.290184" opacity="0.790969" style="stroke:black;stroke-width:0.5;fill:url(#radialffffff666666)"/>
<circle cx="156.304302" cy="179.390708" r="7.138418" opacity="0.795768" style="stroke:black;stroke-width:0.5;fill:url(#radialffffffbfbfbf)"/>
<circle cx="221.853147" cy="134.622515" r="7.140001" opacity="0.795856" style="stroke:black;stroke-width:0.5;fill:url(#radialffffffbfbfbf)"/>
<circle cx="277.944871" cy="58.465276" r="25.220956" opacity="0.812742" style="stroke:black;stroke-width:0.5;fill:url(#radialffffffb2b20)"/>
<circle cx="503.719591" cy="173.733753" r="10.661541" opacity="0.972513" style="stroke:black;stroke-width:0.5;fill:url(#radialffffffbfbfbf)"/>
<circle cx="426.975492" cy="139.580368" r="11.082053" opacity="0.991507" style="stroke:black;stroke-width:0.5;fill:url(#radialffffffbfbfbf)"/>
<circle cx="62.967751" cy="192.413891" r="11.127941" opacity="0.993557" style="stroke:black;stroke-width:0.5;fill:url(#radialffffffbfbfbf)"/>
<circle cx="196.739986" cy="95.501656" r="11.132293" opacity="0.993752" style="stroke:black;stroke-width:0.5;fill:url(#radialffffffbfbfbf)"/>
<circle cx="130.004592" cy="141.674467" r="11.182533" opacity="0.995991" style="stroke:black;stroke-width:0.5;fill:url(#radialffffffbfbfbf)"/>
<circle cx="354.195109" cy="103.759399" r="11.272727" opacity="1.000000" style="stroke:black;stroke-width:0.5;fill:url(#radialffffffbfbfbf)"/>
</svg>
</g>
</svg>
