<?xml version="1.0"?>
<svg version="1.1" id="topsvg"
xmlns="http://www.w3.org/2000/svg" xmlns:xlink="http://www.w3.org/1999/xlink"
xmlns:cml="http://www.xml-cml.org/schema" x="0" y="0" width="1024px" height="1024px" viewBox="0 0 100 100">
<title>8079 - Open Babel Depiction</title>
<rect x="0" y="0" width="100" height="100" fill="white"/>
<defs>
<radialGradient id='radialffffff666666' cx='50%' cy='50%' r='50%' fx='30%' fy='30%'>
  <stop offset=' 0%' stop-color="rgb(255,255,255)"  stop-opacity='1.0'/>
  <stop offset='100%' stop-color="rgb(102,102,102)"  stop-opacity ='1.0'/>
</radialGradient>
<radialGradient id='radialffffffbfbfbf' cx='50%' cy='50%' r='50%' fx='30%' fy='30%'>
  <stop offset=' 0%' stop-color="rgb(255,255,255)"  stop-opacity='1.0'/>
  <stop offset='100%' stop-color="rgb(191,191,191)"  stop-opacity ='1.0'/>
</radialGradient>
</defs>
<g transform="translate(0,0)">
<svg width="100" height="100" x="0" y="0" viewBox="0 0 231.986 220.376"
font-family="sans-serif" stroke="rgb(0,0,0)" stroke-width="2"  stroke-linecap="round">
<line x1="138.4" y1="151.4" x2="136.0" y2="152.6" opacity="1.0" stroke="rgb(0,0,0)"  stroke-width="0.6"/>
<line x1="138.4" y1="151.4" x2="155.8" y2="180.4" opacity="0.2" stroke="rgb(0,0,0)"  stroke-width="1.3"/>
<line x1="93.3" y1="151.2" x2="95.7" y2="152.4" opacity="0.4" stroke="rgb(0,0,0)"  stroke-width="2.4"/>
<line x1="93.3" y1="151.2" x2="75.6" y2="180.1" opacity="0.8" stroke="rgb(0,0,0)"  stroke-width="1.7"/>
<line x1="163.8" y1="111.3" x2="192.0" y2="108.0" opacity="0.6" stroke="rgb(0,0,0)"  stroke-width="1.3"/>
<line x1="163.8" y1="111.3" x2="175.9" y2="115.3" opacity="0.4" stroke="rgb(0,0,0)"  stroke-width="2.2"/>
<line x1="68.2" y1="110.9" x2="40.0" y2="107.4" opacity="0.7" stroke="rgb(0,0,0)"  stroke-width="1.7"/>
<line x1="68.2" y1="110.9" x2="56.1" y2="114.8" opacity="0.6" stroke="rgb(0,0,0)"  stroke-width="0.8"/>
<line x1="137.6" y1="70.7" x2="154.8" y2="40.3" opacity="0.3" stroke="rgb(0,0,0)"  stroke-width="1.6"/>
<line x1="94.6" y1="70.6" x2="77.7" y2="40.0" opacity="0.5" stroke="rgb(0,0,0)"  stroke-width="1.4"/>
<line x1="93.3" y1="151.2" x2="138.4" y2="151.4" opacity="0.5" stroke="rgb(0,0,0)"  stroke-width="1.5"/>
<line x1="138.4" y1="151.4" x2="163.8" y2="111.3" opacity="0.5" stroke="rgb(0,0,0)"  stroke-width="1.4"/>
<line x1="163.8" y1="111.3" x2="137.6" y2="70.7" opacity="0.5" stroke="rgb(0,0,0)"  stroke-width="1.6"/>
<line x1="137.6" y1="70.7" x2="94.6" y2="70.6" opacity="0.5" stroke="rgb(0,0,0)"  stroke-width="1.6"/>
<line x1="131.6" y1="77.9" x2="100.6" y2="77.8" opacity="0.5" stroke="rgb(0,0,0)"  stroke-width="1.6"/>
<line x1="94.6" y1="70.6" x2="68.2" y2="110.9" opacity="0.5" stroke="rgb(0,0,0)"  stroke-width="1.4"/>
<line x1="68.2" y1="110.9" x2="93.3" y2="151.2" opacity="0.5" stroke="rgb(0,0,0)"  stroke-width="1.6"/>
<circle cx="135.971314" cy="152.564515" r="5.636364" opacity="0.200000" style="stroke:black;stroke-width:0.5;fill:url(#radialffffffbfbfbf)"/>
<circle cx="56.068222" cy="114.843325" r="5.636364" opacity="0.303181" style="stroke:black;stroke-width:0.5;fill:url(#radialffffffbfbfbf)"/>
<circle cx="191.986251" cy="107.999274" r="5.636364" opacity="0.554340" style="stroke:black;stroke-width:0.5;fill:url(#radialffffffbfbfbf)"/>
<circle cx="138.415848" cy="151.363183" r="13.818182" opacity="0.626249" style="stroke:black;stroke-width:0.5;fill:url(#radialffffff666666)"/>
<circle cx="68.155622" cy="110.926917" r="13.818182" opacity="0.677167" style="stroke:black;stroke-width:0.5;fill:url(#radialffffff666666)"/>
<circle cx="77.746956" cy="40.000000" r="5.636364" opacity="0.677194" style="stroke:black;stroke-width:0.5;fill:url(#radialffffffbfbfbf)"/>
<circle cx="94.639685" cy="70.577611" r="13.818182" opacity="0.691826" style="stroke:black;stroke-width:0.5;fill:url(#radialffffff666666)"/>
<circle cx="75.614833" cy="180.072771" r="5.636364" opacity="0.704505" style="stroke:black;stroke-width:0.5;fill:url(#radialffffffbfbfbf)"/>
<circle cx="155.836777" cy="180.375519" r="5.678982" opacity="0.709775" style="stroke:black;stroke-width:0.5;fill:url(#radialffffffbfbfbf)"/>
<circle cx="137.633211" cy="70.738648" r="14.407949" opacity="0.722039" style="stroke:black;stroke-width:0.5;fill:url(#radialffffff666666)"/>
<circle cx="163.824188" cy="111.287639" r="14.955625" opacity="0.735634" style="stroke:black;stroke-width:0.5;fill:url(#radialffffff666666)"/>
<circle cx="154.757832" cy="40.289866" r="6.104765" opacity="0.735902" style="stroke:black;stroke-width:0.5;fill:url(#radialffffffbfbfbf)"/>
<circle cx="93.251551" cy="151.192484" r="16.797720" opacity="0.779623" style="stroke:black;stroke-width:0.5;fill:url(#radialffffff666666)"/>
<circle cx="40.000000" cy="107.432425" r="7.802642" opacity="0.831967" style="stroke:black;stroke-width:0.5;fill:url(#radialffffffbfbfbf)"/>
<circle cx="175.908367" cy="115.291006" r="10.232106" opacity="0.952726" style="stroke:black;stroke-width:0.5;fill:url(#radialffffffbfbfbf)"/>
<circle cx="95.686423" cy="152.390596" r="11.272727" opacity="1.000000" style="stroke:black;stroke-width:0.5;fill:url(#radialffffffbfbfbf)"/>
</svg>
</g>
</svg>
