<?xml version="1.0"?>
<svg version="1.1" id="topsvg"
xmlns="http://www.w3.org/2000/svg" xmlns:xlink="http://www.w3.org/1999/xlink"
xmlns:cml="http://www.xml-cml.org/schema" x="0" y="0" width="1024px" height="1024px" viewBox="0 0 100 100">
<title>8086 - Open Babel Depiction</title>
<rect x="0" y="0" width="100" height="100" fill="white"/>
<defs>
<radialGradient id='radialffffff0ccff' cx='50%' cy='50%' r='50%' fx='30%' fy='30%'>
  <stop offset=' 0%' stop-color="rgb(255,255,255)"  stop-opacity='1.0'/>
  <stop offset='100%' stop-color="rgb(12,12,255)"  stop-opacity ='1.0'/>
</radialGradient>
<radialGradient id='radialffffff666666' cx='50%' cy='50%' r='50%' fx='30%' fy='30%'>
  <stop offset=' 0%' stop-color="rgb(255,255,255)"  stop-opacity='1.0'/>
  <stop offset='100%' stop-color="rgb(102,102,102)"  stop-opacity ='1.0'/>
</radialGradient>
<radialGradient id='radialffffffbfbfbf' cx='50%' cy='50%' r='50%' fx='30%' fy='30%'>
  <stop offset=' 0%' stop-color="rgb(255,255,255)"  stop-opacity='1.0'/>
  <stop offset='100%' stop-color="rgb(191,191,191)"  stop-opacity ='1.0'/>
</radialGradient>
<radialGradient id='radialffffffffcc' cx='50%' cy='50%' r='50%' fx='30%' fy='30%'>
  <stop offset=' 0%' stop-color="rgb(255,255,255)"  stop-opacity='1.0'/>
  <stop offset='100%' stop-color="rgb(255,12,12)"  stop-opacity ='1.0'/>
</radialGradient>
</defs>
<g transform="translate(0,0)">
<svg width="100" height="100" x="0" y="0" viewBox="0 0 345.428 185.652"
font-family="sans-serif" stroke="rgb(0,0,0)" stroke-width="2"  stroke-linecap="round">
<line x1="301.0" y1="124.6" x2="264.3" y2="95.7" opacity="1.0" stroke="rgb(0,0,0)"  stroke-width="1.2"/>
<line x1="301.0" y1="124.6" x2="295.8" y2="142.9" opacity="0.4" stroke="rgb(0,0,0)"  stroke-width="0.8"/>
<line x1="65.9" y1="124.6" x2="102.6" y2="95.7" opacity="0.3" stroke="rgb(0,0,0)"  stroke-width="1.8"/>
<line x1="65.9" y1="124.6" x2="40.0" y2="106.6" opacity="0.6" stroke="rgb(0,0,0)"  stroke-width="1.9"/>
<line x1="183.4" y1="96.3" x2="222.7" y2="123.4" opacity="0.6" stroke="rgb(0,0,0)"  stroke-width="1.4"/>
<line x1="183.4" y1="96.3" x2="144.2" y2="123.4" opacity="0.5" stroke="rgb(0,0,0)"  stroke-width="1.5"/>
<line x1="183.4" y1="96.3" x2="185.9" y2="76.4" opacity="0.5" stroke="rgb(0,0,0)"  stroke-width="1.8"/>
<line x1="222.7" y1="123.4" x2="264.3" y2="95.7" opacity="0.6" stroke="rgb(0,0,0)"  stroke-width="1.3"/>
<line x1="222.7" y1="123.4" x2="226.4" y2="144.7" opacity="0.4" stroke="rgb(0,0,0)"  stroke-width="1.8"/>
<line x1="222.7" y1="123.4" x2="219.6" y2="145.4" opacity="0.6" stroke="rgb(0,0,0)"  stroke-width="1.0"/>
<line x1="144.2" y1="123.4" x2="102.6" y2="95.7" opacity="0.3" stroke="rgb(0,0,0)"  stroke-width="1.7"/>
<line x1="144.2" y1="123.4" x2="140.4" y2="144.4" opacity="0.6" stroke="rgb(0,0,0)"  stroke-width="1.2"/>
<line x1="144.2" y1="123.4" x2="147.1" y2="145.7" opacity="0.4" stroke="rgb(0,0,0)"  stroke-width="2.0"/>
<line x1="264.3" y1="95.7" x2="273.4" y2="65.6" opacity="0.7" stroke="rgb(0,0,0)"  stroke-width="1.7"/>
<line x1="263.1" y1="91.9" x2="264.7" y2="91.7" opacity="0.6" stroke="rgb(0,0,0)"  stroke-width="1.0"/>
<line x1="262.1" y1="88.8" x2="265.0" y2="88.5" opacity="0.6" stroke="rgb(0,0,0)"  stroke-width="1.0"/>
<line x1="261.2" y1="85.7" x2="265.3" y2="85.2" opacity="0.6" stroke="rgb(0,0,0)"  stroke-width="1.0"/>
<line x1="260.2" y1="82.6" x2="265.6" y2="82.0" opacity="0.6" stroke="rgb(0,0,0)"  stroke-width="1.0"/>
<line x1="259.3" y1="79.5" x2="265.9" y2="78.8" opacity="0.6" stroke="rgb(0,0,0)"  stroke-width="1.0"/>
<line x1="258.3" y1="76.4" x2="266.3" y2="75.6" opacity="0.6" stroke="rgb(0,0,0)"  stroke-width="1.0"/>
<line x1="102.6" y1="95.7" x2="93.5" y2="65.6" opacity="0.6" stroke="rgb(0,0,0)"  stroke-width="1.3"/>
<polygon points="102.576886 95.734542 100.888119 75.770778 108.833789 76.701545 " stroke-width="1.252132" fill="rgb(0,0,0)"  stroke="rgb(0,0,0)" />
<line x1="273.4" y1="65.6" x2="305.4" y2="49.6" opacity="0.4" stroke="rgb(0,0,0)"  stroke-width="2.2"/>
<line x1="273.4" y1="65.6" x2="275.0" y2="84.4" opacity="0.7" stroke="rgb(0,0,0)"  stroke-width="2.6"/>
<line x1="273.4" y1="65.6" x2="248.5" y2="40.0" opacity="0.9" stroke="rgb(0,0,0)"  stroke-width="2.3"/>
<line x1="93.5" y1="65.6" x2="62.4" y2="48.0" opacity="0.8" stroke="rgb(0,0,0)"  stroke-width="0.8"/>
<line x1="93.5" y1="65.6" x2="89.9" y2="84.7" opacity="0.3" stroke="rgb(0,0,0)"  stroke-width="0.4"/>
<line x1="93.5" y1="65.6" x2="119.6" y2="41.4" opacity="0.1" stroke="rgb(0,0,0)"  stroke-width="0.7"/>
<circle cx="89.943855" cy="84.652705" r="5.636364" opacity="0.200000" style="stroke:black;stroke-width:0.5;fill:url(#radialffffffbfbfbf)"/>
<circle cx="295.795882" cy="142.861928" r="5.636364" opacity="0.404944" style="stroke:black;stroke-width:0.5;fill:url(#radialffffffbfbfbf)"/>
<circle cx="262.277597" cy="75.963388" r="5.636364" opacity="0.406774" style="stroke:black;stroke-width:0.5;fill:url(#radialffffffbfbfbf)"/>
<circle cx="119.577581" cy="41.357295" r="5.636364" opacity="0.464943" style="stroke:black;stroke-width:0.5;fill:url(#radialffffffbfbfbf)"/>
<circle cx="219.642759" cy="145.395764" r="5.636364" opacity="0.476487" style="stroke:black;stroke-width:0.5;fill:url(#radialffffffbfbfbf)"/>
<circle cx="93.460334" cy="65.637429" r="13.818182" opacity="0.504287" style="stroke:black;stroke-width:0.5;fill:url(#radialffffff666666)"/>
<circle cx="140.429971" cy="144.429554" r="5.636364" opacity="0.537818" style="stroke:black;stroke-width:0.5;fill:url(#radialffffffbfbfbf)"/>
<circle cx="62.439734" cy="47.966303" r="5.636364" opacity="0.541971" style="stroke:black;stroke-width:0.5;fill:url(#radialffffffbfbfbf)"/>
<circle cx="301.008157" cy="124.592671" r="12.000000" opacity="0.615716" style="stroke:black;stroke-width:0.5;fill:url(#radialffffffffcc)"/>
<circle cx="264.308609" cy="95.734542" r="13.818182" opacity="0.645792" style="stroke:black;stroke-width:0.5;fill:url(#radialffffff666666)"/>
<circle cx="222.676132" cy="123.376693" r="13.818182" opacity="0.681871" style="stroke:black;stroke-width:0.5;fill:url(#radialffffff666666)"/>
<circle cx="183.446034" cy="96.250511" r="12.909091" opacity="0.706211" style="stroke:black;stroke-width:0.5;fill:url(#radialffffff0ccff)"/>
<circle cx="144.209364" cy="123.379979" r="14.716938" opacity="0.729740" style="stroke:black;stroke-width:0.5;fill:url(#radialffffff666666)"/>
<circle cx="102.576886" cy="95.734542" r="16.041500" opacity="0.761872" style="stroke:black;stroke-width:0.5;fill:url(#radialffffff666666)"/>
<circle cx="65.874052" cy="124.592671" r="14.840037" opacity="0.786343" style="stroke:black;stroke-width:0.5;fill:url(#radialffffffffcc)"/>
<circle cx="40.000000" cy="106.592902" r="7.469042" opacity="0.813988" style="stroke:black;stroke-width:0.5;fill:url(#radialffffffbfbfbf)"/>
<circle cx="226.445666" cy="144.702328" r="7.965283" opacity="0.840594" style="stroke:black;stroke-width:0.5;fill:url(#radialffffffbfbfbf)"/>
<circle cx="305.428404" cy="49.583226" r="8.010875" opacity="0.842996" style="stroke:black;stroke-width:0.5;fill:url(#radialffffffbfbfbf)"/>
<circle cx="185.924001" cy="76.393910" r="8.156026" opacity="0.850599" style="stroke:black;stroke-width:0.5;fill:url(#radialffffffbfbfbf)"/>
<circle cx="273.425162" cy="65.640716" r="20.538321" opacity="0.862069" style="stroke:black;stroke-width:0.5;fill:url(#radialffffff666666)"/>
<circle cx="147.081702" cy="145.652106" r="8.668084" opacity="0.876894" style="stroke:black;stroke-width:0.5;fill:url(#radialffffffbfbfbf)"/>
<circle cx="248.474596" cy="40.000000" r="8.701270" opacity="0.878571" style="stroke:black;stroke-width:0.5;fill:url(#radialffffffbfbfbf)"/>
<circle cx="104.860954" cy="76.236161" r="9.394146" opacity="0.912881" style="stroke:black;stroke-width:0.5;fill:url(#radialffffffbfbfbf)"/>
<circle cx="275.048658" cy="84.422655" r="11.272727" opacity="1.000000" style="stroke:black;stroke-width:0.5;fill:url(#radialffffffbfbfbf)"/>
</svg>
</g>
</svg>
