<?xml version="1.0"?>
<svg version="1.1" id="topsvg"
xmlns="http://www.w3.org/2000/svg" xmlns:xlink="http://www.w3.org/1999/xlink"
xmlns:cml="http://www.xml-cml.org/schema" x="0" y="0" width="200px" height="200px" viewBox="0 0 100 100">
<title>8175 - Open Babel Depiction</title>
<rect x="0" y="0" width="100" height="100" fill="white"/>
<defs>
<radialGradient id='radialffffff666666' cx='50%' cy='50%' r='50%' fx='30%' fy='30%'>
  <stop offset=' 0%' stop-color="rgb(255,255,255)"  stop-opacity='1.0'/>
  <stop offset='100%' stop-color="rgb(102,102,102)"  stop-opacity ='1.0'/>
</radialGradient>
<radialGradient id='radialffffffbfbfbf' cx='50%' cy='50%' r='50%' fx='30%' fy='30%'>
  <stop offset=' 0%' stop-color="rgb(255,255,255)"  stop-opacity='1.0'/>
  <stop offset='100%' stop-color="rgb(191,191,191)"  stop-opacity ='1.0'/>
</radialGradient>
<radialGradient id='radialffffffffcc' cx='50%' cy='50%' r='50%' fx='30%' fy='30%'>
  <stop offset=' 0%' stop-color="rgb(255,255,255)"  stop-opacity='1.0'/>
  <stop offset='100%' stop-color="rgb(255,12,12)"  stop-opacity ='1.0'/>
</radialGradient>
</defs>
<g transform="translate(0,0)">
<svg width="100" height="100" x="0" y="0" viewBox="0 0 509.058 171.212"
font-family="sans-serif" stroke="rgb(0,0,0)" stroke-width="4"  stroke-linecap="round">
<line x1="446.6" y1="46.0" x2="442.9" y2="85.6" opacity="1.0" stroke="rgb(0,0,0)"  stroke-width="1.5"/>
<line x1="440.6" y1="45.4" x2="436.9" y2="85.1" opacity="1.0" stroke="rgb(0,0,0)"  stroke-width="1.5"/>
<line x1="232.4" y1="98.3" x2="275.1" y2="72.7" opacity="0.5" stroke="rgb(0,0,0)"  stroke-width="1.5"/>
<line x1="232.4" y1="98.3" x2="193.1" y2="67.9" opacity="0.5" stroke="rgb(0,0,0)"  stroke-width="1.5"/>
<line x1="232.4" y1="98.3" x2="230.6" y2="118.4" opacity="0.5" stroke="rgb(0,0,0)"  stroke-width="2.3"/>
<line x1="232.4" y1="98.3" x2="231.5" y2="120.5" opacity="0.8" stroke="rgb(0,0,0)"  stroke-width="0.9"/>
<line x1="275.1" y1="72.7" x2="314.4" y2="103.2" opacity="0.3" stroke="rgb(0,0,0)"  stroke-width="1.6"/>
<line x1="275.1" y1="72.7" x2="276.3" y2="51.0" opacity="0.5" stroke="rgb(0,0,0)"  stroke-width="2.2"/>
<line x1="275.1" y1="72.7" x2="276.5" y2="52.2" opacity="0.7" stroke="rgb(0,0,0)"  stroke-width="0.8"/>
<line x1="193.1" y1="67.9" x2="149.5" y2="91.9" opacity="0.3" stroke="rgb(0,0,0)"  stroke-width="1.4"/>
<line x1="193.1" y1="67.9" x2="195.4" y2="47.2" opacity="0.5" stroke="rgb(0,0,0)"  stroke-width="0.8"/>
<line x1="193.1" y1="67.9" x2="193.9" y2="46.1" opacity="0.3" stroke="rgb(0,0,0)"  stroke-width="2.2"/>
<line x1="314.4" y1="103.2" x2="358.0" y2="79.2" opacity="0.7" stroke="rgb(0,0,0)"  stroke-width="1.5"/>
<line x1="314.4" y1="103.2" x2="313.0" y2="123.6" opacity="0.5" stroke="rgb(0,0,0)"  stroke-width="2.3"/>
<line x1="314.4" y1="103.2" x2="312.6" y2="125.2" opacity="0.8" stroke="rgb(0,0,0)"  stroke-width="0.9"/>
<line x1="149.5" y1="91.9" x2="110.1" y2="61.5" opacity="0.3" stroke="rgb(0,0,0)"  stroke-width="1.4"/>
<line x1="149.5" y1="91.9" x2="148.0" y2="112.6" opacity="0.5" stroke="rgb(0,0,0)"  stroke-width="0.7"/>
<line x1="149.5" y1="91.9" x2="147.8" y2="113.7" opacity="0.2" stroke="rgb(0,0,0)"  stroke-width="2.1"/>
<line x1="358.0" y1="79.2" x2="397.2" y2="109.6" opacity="0.7" stroke="rgb(0,0,0)"  stroke-width="1.5"/>
<line x1="358.0" y1="79.2" x2="358.8" y2="57.5" opacity="0.5" stroke="rgb(0,0,0)"  stroke-width="0.8"/>
<line x1="358.0" y1="79.2" x2="360.4" y2="58.2" opacity="0.3" stroke="rgb(0,0,0)"  stroke-width="2.2"/>
<line x1="110.1" y1="61.5" x2="67.7" y2="86.9" opacity="0.7" stroke="rgb(0,0,0)"  stroke-width="1.5"/>
<line x1="110.1" y1="61.5" x2="110.5" y2="40.7" opacity="0.5" stroke="rgb(0,0,0)"  stroke-width="0.7"/>
<line x1="110.1" y1="61.5" x2="111.9" y2="40.0" opacity="0.2" stroke="rgb(0,0,0)"  stroke-width="2.1"/>
<line x1="397.2" y1="109.6" x2="439.9" y2="85.3" opacity="0.7" stroke="rgb(0,0,0)"  stroke-width="1.4"/>
<line x1="397.2" y1="109.6" x2="397.4" y2="131.2" opacity="0.5" stroke="rgb(0,0,0)"  stroke-width="2.1"/>
<line x1="397.2" y1="109.6" x2="396.0" y2="129.7" opacity="0.7" stroke="rgb(0,0,0)"  stroke-width="0.7"/>
<line x1="67.7" y1="86.9" x2="40.0" y2="64.6" opacity="0.2" stroke="rgb(0,0,0)"  stroke-width="1.5"/>
<line x1="67.7" y1="86.9" x2="64.5" y2="108.1" opacity="0.5" stroke="rgb(0,0,0)"  stroke-width="0.8"/>
<line x1="67.7" y1="86.9" x2="66.0" y2="107.1" opacity="0.3" stroke="rgb(0,0,0)"  stroke-width="2.2"/>
<line x1="439.9" y1="85.3" x2="469.1" y2="106.2" opacity="0.7" stroke="rgb(0,0,0)"  stroke-width="1.4"/>
<circle cx="147.987979" cy="112.552391" r="5.636364" opacity="0.200000" style="stroke:black;stroke-width:0.5;fill:url(#radialffffffbfbfbf)"/>
<circle cx="395.991570" cy="129.748261" r="5.636364" opacity="0.200000" style="stroke:black;stroke-width:0.5;fill:url(#radialffffffbfbfbf)"/>
<circle cx="110.471197" cy="40.718662" r="5.636364" opacity="0.200000" style="stroke:black;stroke-width:0.5;fill:url(#radialffffffbfbfbf)"/>
<circle cx="195.403443" cy="47.183373" r="5.636364" opacity="0.200000" style="stroke:black;stroke-width:0.5;fill:url(#radialffffffbfbfbf)"/>
<circle cx="276.540761" cy="52.158728" r="5.636364" opacity="0.200000" style="stroke:black;stroke-width:0.5;fill:url(#radialffffffbfbfbf)"/>
<circle cx="358.842248" cy="57.524308" r="5.636364" opacity="0.208747" style="stroke:black;stroke-width:0.5;fill:url(#radialffffffbfbfbf)"/>
<circle cx="64.499561" cy="108.061564" r="5.636364" opacity="0.213771" style="stroke:black;stroke-width:0.5;fill:url(#radialffffffbfbfbf)"/>
<circle cx="231.512168" cy="120.451175" r="5.636364" opacity="0.244139" style="stroke:black;stroke-width:0.5;fill:url(#radialffffffbfbfbf)"/>
<circle cx="312.646234" cy="125.179388" r="5.636364" opacity="0.256128" style="stroke:black;stroke-width:0.5;fill:url(#radialffffffbfbfbf)"/>
<circle cx="469.057756" cy="106.152718" r="5.636364" opacity="0.661922" style="stroke:black;stroke-width:0.5;fill:url(#radialffffffbfbfbf)"/>
<circle cx="439.895018" cy="85.337521" r="13.818182" opacity="0.687835" style="stroke:black;stroke-width:0.5;fill:url(#radialffffff666666)"/>
<circle cx="149.464327" cy="91.880276" r="13.818182" opacity="0.688414" style="stroke:black;stroke-width:0.5;fill:url(#radialffffff666666)"/>
<circle cx="397.201264" cy="109.612704" r="13.818182" opacity="0.692641" style="stroke:black;stroke-width:0.5;fill:url(#radialffffff666666)"/>
<circle cx="110.133003" cy="61.468822" r="13.818182" opacity="0.695928" style="stroke:black;stroke-width:0.5;fill:url(#radialffffff666666)"/>
<circle cx="193.081610" cy="67.865243" r="13.818182" opacity="0.697528" style="stroke:black;stroke-width:0.5;fill:url(#radialffffff666666)"/>
<circle cx="358.029281" cy="79.191494" r="13.993467" opacity="0.711578" style="stroke:black;stroke-width:0.5;fill:url(#radialffffff666666)"/>
<circle cx="443.569627" cy="45.684262" r="12.184067" opacity="0.712509" style="stroke:black;stroke-width:0.5;fill:url(#radialffffffffcc)"/>
<circle cx="67.718909" cy="86.878906" r="14.084410" opacity="0.713886" style="stroke:black;stroke-width:0.5;fill:url(#radialffffff666666)"/>
<circle cx="275.087177" cy="72.674754" r="14.121080" opacity="0.714815" style="stroke:black;stroke-width:0.5;fill:url(#radialffffff666666)"/>
<circle cx="40.000000" cy="64.554843" r="5.807779" opacity="0.717779" style="stroke:black;stroke-width:0.5;fill:url(#radialffffffbfbfbf)"/>
<circle cx="232.403179" cy="98.318972" r="14.254561" opacity="0.718185" style="stroke:black;stroke-width:0.5;fill:url(#radialffffff666666)"/>
<circle cx="314.411997" cy="103.167505" r="14.455515" opacity="0.723230" style="stroke:black;stroke-width:0.5;fill:url(#radialffffff666666)"/>
<circle cx="147.825386" cy="113.667781" r="10.532620" opacity="0.966615" style="stroke:black;stroke-width:0.5;fill:url(#radialffffffbfbfbf)"/>
<circle cx="397.360605" cy="131.211600" r="10.616981" opacity="0.970479" style="stroke:black;stroke-width:0.5;fill:url(#radialffffffbfbfbf)"/>
<circle cx="193.917340" cy="46.103753" r="10.684590" opacity="0.973564" style="stroke:black;stroke-width:0.5;fill:url(#radialffffffbfbfbf)"/>
<circle cx="111.918277" cy="40.000000" r="10.684590" opacity="0.973564" style="stroke:black;stroke-width:0.5;fill:url(#radialffffffbfbfbf)"/>
<circle cx="276.287116" cy="50.962042" r="10.959214" opacity="0.985996" style="stroke:black;stroke-width:0.5;fill:url(#radialffffffbfbfbf)"/>
<circle cx="360.445418" cy="58.164926" r="10.994514" opacity="0.987583" style="stroke:black;stroke-width:0.5;fill:url(#radialffffffbfbfbf)"/>
<circle cx="65.992168" cy="107.076248" r="11.129133" opacity="0.993610" style="stroke:black;stroke-width:0.5;fill:url(#radialffffffbfbfbf)"/>
<circle cx="230.630912" cy="118.405751" r="11.226059" opacity="0.997928" style="stroke:black;stroke-width:0.5;fill:url(#radialffffffbfbfbf)"/>
<circle cx="313.020199" cy="123.582722" r="11.272727" opacity="1.000000" style="stroke:black;stroke-width:0.5;fill:url(#radialffffffbfbfbf)"/>
</svg>
</g>
</svg>
