<?xml version="1.0"?>
<svg version="1.1" id="topsvg"
xmlns="http://www.w3.org/2000/svg" xmlns:xlink="http://www.w3.org/1999/xlink"
xmlns:cml="http://www.xml-cml.org/schema" x="0" y="0" width="200px" height="200px" viewBox="0 0 100 100">
<title>8195 - Open Babel Depiction</title>
<rect x="0" y="0" width="100" height="100" fill="white"/>
<defs>
<radialGradient id='radialffffff666666' cx='50%' cy='50%' r='50%' fx='30%' fy='30%'>
  <stop offset=' 0%' stop-color="rgb(255,255,255)"  stop-opacity='1.0'/>
  <stop offset='100%' stop-color="rgb(102,102,102)"  stop-opacity ='1.0'/>
</radialGradient>
<radialGradient id='radialffffffb2b20' cx='50%' cy='50%' r='50%' fx='30%' fy='30%'>
  <stop offset=' 0%' stop-color="rgb(255,255,255)"  stop-opacity='1.0'/>
  <stop offset='100%' stop-color="rgb(178,178,0)"  stop-opacity ='1.0'/>
</radialGradient>
<radialGradient id='radialffffffbfbfbf' cx='50%' cy='50%' r='50%' fx='30%' fy='30%'>
  <stop offset=' 0%' stop-color="rgb(255,255,255)"  stop-opacity='1.0'/>
  <stop offset='100%' stop-color="rgb(191,191,191)"  stop-opacity ='1.0'/>
</radialGradient>
</defs>
<g transform="translate(0,0)">
<svg width="100" height="100" x="0" y="0" viewBox="0 0 634.199 154.858"
font-family="sans-serif" stroke="rgb(0,0,0)" stroke-width="4"  stroke-linecap="round">
<line x1="68.0" y1="95.6" x2="116.2" y2="63.0" opacity="1.0" stroke="rgb(0,0,0)"  stroke-width="1.6"/>
<line x1="68.0" y1="95.6" x2="40.0" y2="63.0" opacity="0.5" stroke="rgb(0,0,0)"  stroke-width="1.6"/>
<line x1="321.4" y1="89.8" x2="362.4" y2="62.8" opacity="0.5" stroke="rgb(0,0,0)"  stroke-width="1.5"/>
<line x1="321.4" y1="89.8" x2="280.3" y2="62.9" opacity="0.5" stroke="rgb(0,0,0)"  stroke-width="1.5"/>
<line x1="321.4" y1="89.8" x2="321.5" y2="109.2" opacity="0.5" stroke="rgb(0,0,0)"  stroke-width="0.8"/>
<line x1="321.4" y1="89.8" x2="321.3" y2="112.4" opacity="0.3" stroke="rgb(0,0,0)"  stroke-width="2.1"/>
<line x1="362.4" y1="62.8" x2="403.5" y2="89.8" opacity="0.7" stroke="rgb(0,0,0)"  stroke-width="1.6"/>
<line x1="362.4" y1="62.8" x2="363.1" y2="41.4" opacity="0.5" stroke="rgb(0,0,0)"  stroke-width="0.9"/>
<line x1="362.4" y1="62.8" x2="361.7" y2="42.3" opacity="0.3" stroke="rgb(0,0,0)"  stroke-width="2.2"/>
<line x1="280.3" y1="62.9" x2="239.3" y2="89.8" opacity="0.7" stroke="rgb(0,0,0)"  stroke-width="1.5"/>
<line x1="280.3" y1="62.9" x2="280.1" y2="44.0" opacity="0.5" stroke="rgb(0,0,0)"  stroke-width="2.2"/>
<line x1="280.3" y1="62.9" x2="280.6" y2="40.0" opacity="0.7" stroke="rgb(0,0,0)"  stroke-width="0.9"/>
<line x1="403.5" y1="89.8" x2="444.5" y2="63.0" opacity="0.3" stroke="rgb(0,0,0)"  stroke-width="1.6"/>
<line x1="403.5" y1="89.8" x2="403.4" y2="111.5" opacity="0.5" stroke="rgb(0,0,0)"  stroke-width="0.9"/>
<line x1="403.5" y1="89.8" x2="403.3" y2="110.1" opacity="0.3" stroke="rgb(0,0,0)"  stroke-width="2.3"/>
<line x1="239.3" y1="89.8" x2="198.3" y2="62.7" opacity="0.8" stroke="rgb(0,0,0)"  stroke-width="1.4"/>
<line x1="239.3" y1="89.8" x2="239.0" y2="112.5" opacity="0.5" stroke="rgb(0,0,0)"  stroke-width="2.1"/>
<line x1="239.3" y1="89.8" x2="239.6" y2="109.0" opacity="0.7" stroke="rgb(0,0,0)"  stroke-width="0.7"/>
<line x1="444.5" y1="63.0" x2="484.4" y2="91.6" opacity="0.2" stroke="rgb(0,0,0)"  stroke-width="1.6"/>
<line x1="444.5" y1="63.0" x2="445.0" y2="43.2" opacity="0.5" stroke="rgb(0,0,0)"  stroke-width="0.8"/>
<line x1="444.5" y1="63.0" x2="444.9" y2="41.1" opacity="0.3" stroke="rgb(0,0,0)"  stroke-width="2.2"/>
<line x1="198.3" y1="62.7" x2="157.3" y2="89.7" opacity="0.7" stroke="rgb(0,0,0)"  stroke-width="1.5"/>
<line x1="198.3" y1="62.7" x2="197.8" y2="41.2" opacity="0.5" stroke="rgb(0,0,0)"  stroke-width="0.8"/>
<line x1="198.3" y1="62.7" x2="198.8" y2="42.3" opacity="0.3" stroke="rgb(0,0,0)"  stroke-width="2.2"/>
<line x1="484.4" y1="91.6" x2="525.5" y2="64.9" opacity="0.7" stroke="rgb(0,0,0)"  stroke-width="1.5"/>
<line x1="484.4" y1="91.6" x2="484.3" y2="110.9" opacity="0.5" stroke="rgb(0,0,0)"  stroke-width="2.3"/>
<line x1="484.4" y1="91.6" x2="483.6" y2="114.0" opacity="0.8" stroke="rgb(0,0,0)"  stroke-width="0.9"/>
<line x1="157.3" y1="89.7" x2="116.2" y2="63.0" opacity="0.3" stroke="rgb(0,0,0)"  stroke-width="1.5"/>
<line x1="157.3" y1="89.7" x2="157.0" y2="110.2" opacity="0.5" stroke="rgb(0,0,0)"  stroke-width="0.8"/>
<line x1="157.3" y1="89.7" x2="158.1" y2="111.2" opacity="0.3" stroke="rgb(0,0,0)"  stroke-width="2.2"/>
<line x1="525.5" y1="64.9" x2="565.2" y2="93.3" opacity="0.7" stroke="rgb(0,0,0)"  stroke-width="1.5"/>
<line x1="525.5" y1="64.9" x2="525.5" y2="45.2" opacity="0.5" stroke="rgb(0,0,0)"  stroke-width="0.8"/>
<line x1="525.5" y1="64.9" x2="526.9" y2="43.0" opacity="0.3" stroke="rgb(0,0,0)"  stroke-width="2.1"/>
<line x1="116.2" y1="63.0" x2="114.7" y2="41.9" opacity="0.7" stroke="rgb(0,0,0)"  stroke-width="0.9"/>
<line x1="116.2" y1="63.0" x2="116.0" y2="42.6" opacity="0.3" stroke="rgb(0,0,0)"  stroke-width="2.2"/>
<line x1="565.2" y1="93.3" x2="566.7" y2="112.8" opacity="0.7" stroke="rgb(0,0,0)"  stroke-width="2.2"/>
<line x1="565.2" y1="93.3" x2="594.2" y2="73.6" opacity="0.7" stroke="rgb(0,0,0)"  stroke-width="1.5"/>
<line x1="565.2" y1="93.3" x2="565.3" y2="114.9" opacity="0.5" stroke="rgb(0,0,0)"  stroke-width="0.8"/>
<circle cx="239.622261" cy="108.976684" r="5.636364" opacity="0.200000" style="stroke:black;stroke-width:0.5;fill:url(#radialffffffbfbfbf)"/>
<circle cx="321.515038" cy="109.201144" r="5.636364" opacity="0.200000" style="stroke:black;stroke-width:0.5;fill:url(#radialffffffbfbfbf)"/>
<circle cx="525.549549" cy="45.213895" r="5.636364" opacity="0.200000" style="stroke:black;stroke-width:0.5;fill:url(#radialffffffbfbfbf)"/>
<circle cx="157.017624" cy="110.224042" r="5.636364" opacity="0.200000" style="stroke:black;stroke-width:0.5;fill:url(#radialffffffbfbfbf)"/>
<circle cx="197.843766" cy="41.218499" r="5.636364" opacity="0.212119" style="stroke:black;stroke-width:0.5;fill:url(#radialffffffbfbfbf)"/>
<circle cx="444.987502" cy="43.152065" r="5.636364" opacity="0.213327" style="stroke:black;stroke-width:0.5;fill:url(#radialffffffbfbfbf)"/>
<circle cx="565.275835" cy="114.857546" r="5.636364" opacity="0.231235" style="stroke:black;stroke-width:0.5;fill:url(#radialffffffbfbfbf)"/>
<circle cx="363.101138" cy="41.436547" r="5.636364" opacity="0.253285" style="stroke:black;stroke-width:0.5;fill:url(#radialffffffbfbfbf)"/>
<circle cx="114.710044" cy="41.869435" r="5.636364" opacity="0.261664" style="stroke:black;stroke-width:0.5;fill:url(#radialffffffbfbfbf)"/>
<circle cx="403.385369" cy="111.535532" r="5.636364" opacity="0.282886" style="stroke:black;stroke-width:0.5;fill:url(#radialffffffbfbfbf)"/>
<circle cx="280.592699" cy="40.000000" r="5.636364" opacity="0.286495" style="stroke:black;stroke-width:0.5;fill:url(#radialffffffbfbfbf)"/>
<circle cx="483.594692" cy="113.969324" r="5.636364" opacity="0.308091" style="stroke:black;stroke-width:0.5;fill:url(#radialffffffbfbfbf)"/>
<circle cx="239.317636" cy="89.794938" r="13.818182" opacity="0.687196" style="stroke:black;stroke-width:0.5;fill:url(#radialffffff666666)"/>
<circle cx="594.199162" cy="73.598517" r="5.636364" opacity="0.688577" style="stroke:black;stroke-width:0.5;fill:url(#radialffffffbfbfbf)"/>
<circle cx="321.418840" cy="89.843037" r="13.818182" opacity="0.696587" style="stroke:black;stroke-width:0.5;fill:url(#radialffffff666666)"/>
<circle cx="198.305513" cy="62.702567" r="13.818182" opacity="0.700704" style="stroke:black;stroke-width:0.5;fill:url(#radialffffff666666)"/>
<circle cx="525.523897" cy="64.940758" r="13.818182" opacity="0.704432" style="stroke:black;stroke-width:0.5;fill:url(#radialffffff666666)"/>
<circle cx="157.254911" cy="89.746840" r="13.818182" opacity="0.704797" style="stroke:black;stroke-width:0.5;fill:url(#radialffffff666666)"/>
<circle cx="565.182844" cy="93.290108" r="13.818182" opacity="0.705052" style="stroke:black;stroke-width:0.5;fill:url(#radialffffff666666)"/>
<circle cx="280.323346" cy="62.901375" r="14.087178" opacity="0.713956" style="stroke:black;stroke-width:0.5;fill:url(#radialffffff666666)"/>
<circle cx="444.544994" cy="62.978333" r="14.111310" opacity="0.714567" style="stroke:black;stroke-width:0.5;fill:url(#radialffffff666666)"/>
<circle cx="362.395691" cy="62.846863" r="14.122666" opacity="0.714855" style="stroke:black;stroke-width:0.5;fill:url(#radialffffff666666)"/>
<circle cx="116.204309" cy="62.971920" r="14.294426" opacity="0.719189" style="stroke:black;stroke-width:0.5;fill:url(#radialffffff666666)"/>
<circle cx="403.465533" cy="89.810971" r="14.463347" opacity="0.723426" style="stroke:black;stroke-width:0.5;fill:url(#radialffffff666666)"/>
<circle cx="67.961354" cy="95.621289" r="20.143071" opacity="0.726331" style="stroke:black;stroke-width:0.5;fill:url(#radialffffffb2b20)"/>
<circle cx="484.421989" cy="91.561762" r="14.620912" opacity="0.727356" style="stroke:black;stroke-width:0.5;fill:url(#radialffffff666666)"/>
<circle cx="40.000000" cy="62.968713" r="6.140391" opacity="0.738046" style="stroke:black;stroke-width:0.5;fill:url(#radialffffffbfbfbf)"/>
<circle cx="238.958500" cy="112.468646" r="10.178979" opacity="0.950249" style="stroke:black;stroke-width:0.5;fill:url(#radialffffffbfbfbf)"/>
<circle cx="321.338676" cy="112.359623" r="10.349787" opacity="0.958189" style="stroke:black;stroke-width:0.5;fill:url(#radialffffffbfbfbf)"/>
<circle cx="526.918758" cy="43.017389" r="10.548387" opacity="0.967339" style="stroke:black;stroke-width:0.5;fill:url(#radialffffffbfbfbf)"/>
<circle cx="158.130306" cy="111.173189" r="10.639291" opacity="0.971498" style="stroke:black;stroke-width:0.5;fill:url(#radialffffffbfbfbf)"/>
<circle cx="198.776880" cy="42.273463" r="10.704719" opacity="0.974480" style="stroke:black;stroke-width:0.5;fill:url(#radialffffffbfbfbf)"/>
<circle cx="444.856032" cy="41.106269" r="10.727301" opacity="0.975508" style="stroke:black;stroke-width:0.5;fill:url(#radialffffffbfbfbf)"/>
<circle cx="566.670696" cy="112.776478" r="10.868579" opacity="0.981910" style="stroke:black;stroke-width:0.5;fill:url(#radialffffffbfbfbf)"/>
<circle cx="361.677418" cy="42.308736" r="10.915479" opacity="0.984027" style="stroke:black;stroke-width:0.5;fill:url(#radialffffffbfbfbf)"/>
<circle cx="115.967022" cy="42.645426" r="10.999435" opacity="0.987804" style="stroke:black;stroke-width:0.5;fill:url(#radialffffffbfbfbf)"/>
<circle cx="403.311617" cy="110.057300" r="11.094971" opacity="0.992084" style="stroke:black;stroke-width:0.5;fill:url(#radialffffffbfbfbf)"/>
<circle cx="280.057200" cy="43.960123" r="11.097288" opacity="0.992188" style="stroke:black;stroke-width:0.5;fill:url(#radialffffffbfbfbf)"/>
<circle cx="484.290519" cy="110.862151" r="11.272727" opacity="1.000000" style="stroke:black;stroke-width:0.5;fill:url(#radialffffffbfbfbf)"/>
</svg>
</g>
</svg>
