<?xml version="1.0"?>
<svg version="1.1" id="topsvg"
xmlns="http://www.w3.org/2000/svg" xmlns:xlink="http://www.w3.org/1999/xlink"
xmlns:cml="http://www.xml-cml.org/schema" x="0" y="0" width="1024px" height="1024px" viewBox="0 0 100 100">
<title>8373 - Open Babel Depiction</title>
<rect x="0" y="0" width="100" height="100" fill="white"/>
<defs>
<radialGradient id='radialffffff666666' cx='50%' cy='50%' r='50%' fx='30%' fy='30%'>
  <stop offset=' 0%' stop-color="rgb(255,255,255)"  stop-opacity='1.0'/>
  <stop offset='100%' stop-color="rgb(102,102,102)"  stop-opacity ='1.0'/>
</radialGradient>
<radialGradient id='radialffffffbfbfbf' cx='50%' cy='50%' r='50%' fx='30%' fy='30%'>
  <stop offset=' 0%' stop-color="rgb(255,255,255)"  stop-opacity='1.0'/>
  <stop offset='100%' stop-color="rgb(191,191,191)"  stop-opacity ='1.0'/>
</radialGradient>
<radialGradient id='radialffffffffcc' cx='50%' cy='50%' r='50%' fx='30%' fy='30%'>
  <stop offset=' 0%' stop-color="rgb(255,255,255)"  stop-opacity='1.0'/>
  <stop offset='100%' stop-color="rgb(255,12,12)"  stop-opacity ='1.0'/>
</radialGradient>
</defs>
<g transform="translate(0,0)">
<svg width="100" height="100" x="0" y="0" viewBox="0 0 297.121 255.357"
font-family="sans-serif" stroke="rgb(0,0,0)" stroke-width="2"  stroke-linecap="round">
<line x1="225.8" y1="70.2" x2="210.4" y2="107.2" opacity="1.0" stroke="rgb(0,0,0)"  stroke-width="1.3"/>
<line x1="225.8" y1="70.2" x2="257.1" y2="69.3" opacity="0.4" stroke="rgb(0,0,0)"  stroke-width="0.9"/>
<line x1="231.8" y1="137.4" x2="208.1" y2="109.1" opacity="0.3" stroke="rgb(0,0,0)"  stroke-width="2.1"/>
<line x1="236.4" y1="133.6" x2="212.7" y2="105.2" opacity="0.3" stroke="rgb(0,0,0)"  stroke-width="2.1"/>
<line x1="142.2" y1="147.6" x2="166.0" y2="188.9" opacity="0.7" stroke="rgb(0,0,0)"  stroke-width="1.5"/>
<line x1="163.9" y1="108.8" x2="210.4" y2="107.2" opacity="0.5" stroke="rgb(0,0,0)"  stroke-width="1.8"/>
<line x1="97.6" y1="148.3" x2="80.2" y2="178.3" opacity="0.6" stroke="rgb(0,0,0)"  stroke-width="1.5"/>
<line x1="140.9" y1="70.7" x2="156.8" y2="40.0" opacity="0.5" stroke="rgb(0,0,0)"  stroke-width="2.0"/>
<line x1="166.0" y1="188.9" x2="181.4" y2="196.9" opacity="0.7" stroke="rgb(0,0,0)"  stroke-width="2.2"/>
<line x1="166.0" y1="188.9" x2="144.4" y2="215.4" opacity="0.7" stroke="rgb(0,0,0)"  stroke-width="1.2"/>
<line x1="166.0" y1="188.9" x2="189.7" y2="187.7" opacity="0.4" stroke="rgb(0,0,0)"  stroke-width="0.7"/>
<line x1="74.7" y1="110.2" x2="40.0" y2="110.8" opacity="0.2" stroke="rgb(0,0,0)"  stroke-width="1.7"/>
<line x1="96.4" y1="71.4" x2="78.5" y2="41.8" opacity="0.6" stroke="rgb(0,0,0)"  stroke-width="2.0"/>
<line x1="166.4" y1="107.3" x2="143.5" y2="69.2" opacity="0.6" stroke="rgb(0,0,0)"  stroke-width="1.8"/>
<line x1="161.3" y1="110.4" x2="138.4" y2="72.3" opacity="0.6" stroke="rgb(0,0,0)"  stroke-width="1.8" stroke-dasharray="5.0,5.0"/>
<line x1="140.9" y1="67.7" x2="96.3" y2="68.4" opacity="0.6" stroke="rgb(0,0,0)"  stroke-width="1.9"/>
<line x1="141.0" y1="73.7" x2="96.4" y2="74.4" opacity="0.6" stroke="rgb(0,0,0)"  stroke-width="1.9" stroke-dasharray="5.0,5.0"/>
<line x1="93.7" y1="69.9" x2="72.1" y2="108.8" opacity="0.6" stroke="rgb(0,0,0)"  stroke-width="1.8"/>
<line x1="99.0" y1="72.9" x2="77.3" y2="111.7" opacity="0.6" stroke="rgb(0,0,0)"  stroke-width="1.8" stroke-dasharray="5.0,5.0"/>
<line x1="72.1" y1="111.8" x2="95.1" y2="149.9" opacity="0.5" stroke="rgb(0,0,0)"  stroke-width="1.6"/>
<line x1="77.3" y1="108.7" x2="100.2" y2="146.8" opacity="0.5" stroke="rgb(0,0,0)"  stroke-width="1.6" stroke-dasharray="5.0,5.0"/>
<line x1="97.7" y1="151.3" x2="142.3" y2="150.6" opacity="0.5" stroke="rgb(0,0,0)"  stroke-width="1.6"/>
<line x1="97.6" y1="145.3" x2="142.2" y2="144.6" opacity="0.5" stroke="rgb(0,0,0)"  stroke-width="1.6" stroke-dasharray="5.0,5.0"/>
<line x1="144.8" y1="149.1" x2="166.5" y2="110.3" opacity="0.6" stroke="rgb(0,0,0)"  stroke-width="1.7"/>
<line x1="139.6" y1="146.2" x2="161.2" y2="107.4" opacity="0.6" stroke="rgb(0,0,0)"  stroke-width="1.7" stroke-dasharray="5.0,5.0"/>
<circle cx="189.669364" cy="187.690947" r="5.636364" opacity="0.200000" style="stroke:black;stroke-width:0.5;fill:url(#radialffffffbfbfbf)"/>
<circle cx="225.779479" cy="70.168470" r="12.000000" opacity="0.539560" style="stroke:black;stroke-width:0.5;fill:url(#radialffffffffcc)"/>
<circle cx="257.120937" cy="69.327883" r="5.636364" opacity="0.545709" style="stroke:black;stroke-width:0.5;fill:url(#radialffffffbfbfbf)"/>
<circle cx="144.363922" cy="215.356831" r="5.636364" opacity="0.565118" style="stroke:black;stroke-width:0.5;fill:url(#radialffffffbfbfbf)"/>
<circle cx="165.957119" cy="188.895896" r="13.818182" opacity="0.677361" style="stroke:black;stroke-width:0.5;fill:url(#radialffffff666666)"/>
<circle cx="80.242739" cy="178.278282" r="5.636364" opacity="0.684398" style="stroke:black;stroke-width:0.5;fill:url(#radialffffffbfbfbf)"/>
<circle cx="97.626605" cy="148.327150" r="14.276896" opacity="0.718748" style="stroke:black;stroke-width:0.5;fill:url(#radialffffff666666)"/>
<circle cx="142.203324" cy="147.620800" r="14.434530" opacity="0.722705" style="stroke:black;stroke-width:0.5;fill:url(#radialffffff666666)"/>
<circle cx="40.000000" cy="110.769178" r="6.431087" opacity="0.755314" style="stroke:black;stroke-width:0.5;fill:url(#radialffffffbfbfbf)"/>
<circle cx="74.707005" cy="110.222636" r="15.870574" opacity="0.757802" style="stroke:black;stroke-width:0.5;fill:url(#radialffffff666666)"/>
<circle cx="163.857248" cy="108.813133" r="16.184266" opacity="0.765255" style="stroke:black;stroke-width:0.5;fill:url(#radialffffff666666)"/>
<circle cx="210.383620" cy="107.160723" r="16.373426" opacity="0.769714" style="stroke:black;stroke-width:0.5;fill:url(#radialffffff666666)"/>
<circle cx="96.364125" cy="71.411773" r="17.621886" opacity="0.798520" style="stroke:black;stroke-width:0.5;fill:url(#radialffffff666666)"/>
<circle cx="140.937648" cy="70.711816" r="17.777944" opacity="0.802048" style="stroke:black;stroke-width:0.5;fill:url(#radialffffff666666)"/>
<circle cx="78.504032" cy="41.761079" r="7.714475" opacity="0.827254" style="stroke:black;stroke-width:0.5;fill:url(#radialffffffbfbfbf)"/>
<circle cx="156.848088" cy="40.000000" r="7.900940" opacity="0.837192" style="stroke:black;stroke-width:0.5;fill:url(#radialffffffbfbfbf)"/>
<circle cx="234.105453" cy="135.497799" r="20.121834" opacity="0.915647" style="stroke:black;stroke-width:0.5;fill:url(#radialffffffffcc)"/>
<circle cx="181.432883" cy="196.940608" r="11.272727" opacity="1.000000" style="stroke:black;stroke-width:0.5;fill:url(#radialffffffbfbfbf)"/>
</svg>
</g>
</svg>
