<?xml version="1.0"?>
<svg version="1.1" id="topsvg"
xmlns="http://www.w3.org/2000/svg" xmlns:xlink="http://www.w3.org/1999/xlink"
xmlns:cml="http://www.xml-cml.org/schema" x="0" y="0" width="200px" height="200px" viewBox="0 0 100 100">
<title>85151 - Open Babel Depiction</title>
<rect x="0" y="0" width="100" height="100" fill="white"/>
<defs>
<radialGradient id='radialffffff666666' cx='50%' cy='50%' r='50%' fx='30%' fy='30%'>
  <stop offset=' 0%' stop-color="rgb(255,255,255)"  stop-opacity='1.0'/>
  <stop offset='100%' stop-color="rgb(102,102,102)"  stop-opacity ='1.0'/>
</radialGradient>
<radialGradient id='radialffffffbfbfbf' cx='50%' cy='50%' r='50%' fx='30%' fy='30%'>
  <stop offset=' 0%' stop-color="rgb(255,255,255)"  stop-opacity='1.0'/>
  <stop offset='100%' stop-color="rgb(191,191,191)"  stop-opacity ='1.0'/>
</radialGradient>
</defs>
<g transform="translate(0,0)">
<svg width="100" height="100" x="0" y="0" viewBox="0 0 395.136 245.491"
font-family="sans-serif" stroke="rgb(0,0,0)" stroke-width="4"  stroke-linecap="round">
<line x1="223.9" y1="105.9" x2="187.9" y2="140.4" opacity="1.0" stroke="rgb(0,0,0)"  stroke-width="1.3"/>
<line x1="223.9" y1="105.9" x2="269.5" y2="123.8" opacity="0.4" stroke="rgb(0,0,0)"  stroke-width="1.2"/>
<line x1="223.9" y1="105.9" x2="224.4" y2="94.3" opacity="0.4" stroke="rgb(0,0,0)"  stroke-width="2.0"/>
<line x1="223.9" y1="105.9" x2="215.7" y2="63.6" opacity="0.7" stroke="rgb(0,0,0)"  stroke-width="1.1"/>
<line x1="187.9" y1="140.4" x2="141.1" y2="127.4" opacity="0.4" stroke="rgb(0,0,0)"  stroke-width="1.3"/>
<line x1="187.9" y1="140.4" x2="188.6" y2="148.3" opacity="0.4" stroke="rgb(0,0,0)"  stroke-width="0.8"/>
<line x1="187.9" y1="140.4" x2="195.6" y2="170.8" opacity="0.3" stroke="rgb(0,0,0)"  stroke-width="1.4"/>
<line x1="269.5" y1="123.8" x2="286.2" y2="163.9" opacity="0.5" stroke="rgb(0,0,0)"  stroke-width="1.4"/>
<line x1="269.5" y1="123.8" x2="268.5" y2="131.7" opacity="0.5" stroke="rgb(0,0,0)"  stroke-width="0.7"/>
<line x1="269.5" y1="123.8" x2="293.8" y2="97.6" opacity="0.2" stroke="rgb(0,0,0)"  stroke-width="1.1"/>
<line x1="141.1" y1="127.4" x2="109.0" y2="164.6" opacity="0.4" stroke="rgb(0,0,0)"  stroke-width="1.4"/>
<line x1="141.1" y1="127.4" x2="139.4" y2="119.2" opacity="0.5" stroke="rgb(0,0,0)"  stroke-width="1.9"/>
<line x1="141.1" y1="127.4" x2="131.0" y2="98.4" opacity="0.6" stroke="rgb(0,0,0)"  stroke-width="1.3"/>
<line x1="224.4" y1="94.3" x2="224.8" y2="123.6" opacity="0.4" stroke="rgb(0,0,0)"  stroke-width="2.8"/>
<line x1="224.4" y1="94.3" x2="253.2" y2="74.7" opacity="0.9" stroke="rgb(0,0,0)"  stroke-width="2.6"/>
<line x1="224.4" y1="94.3" x2="195.7" y2="75.1" opacity="0.9" stroke="rgb(0,0,0)"  stroke-width="2.6"/>
<line x1="215.7" y1="63.6" x2="213.6" y2="70.5" opacity="0.9" stroke="rgb(0,0,0)"  stroke-width="0.4"/>
<line x1="215.7" y1="63.6" x2="242.1" y2="40.0" opacity="0.1" stroke="rgb(0,0,0)"  stroke-width="0.9"/>
<line x1="215.7" y1="63.6" x2="185.3" y2="47.6" opacity="0.3" stroke="rgb(0,0,0)"  stroke-width="0.9"/>
<line x1="286.2" y1="163.9" x2="331.8" y2="176.8" opacity="0.3" stroke="rgb(0,0,0)"  stroke-width="1.5"/>
<line x1="286.2" y1="163.9" x2="287.6" y2="157.1" opacity="0.5" stroke="rgb(0,0,0)"  stroke-width="2.1"/>
<line x1="286.2" y1="163.9" x2="264.3" y2="191.7" opacity="0.7" stroke="rgb(0,0,0)"  stroke-width="1.6"/>
<line x1="109.0" y1="164.6" x2="62.4" y2="151.6" opacity="0.5" stroke="rgb(0,0,0)"  stroke-width="1.4"/>
<line x1="109.0" y1="164.6" x2="118.1" y2="193.6" opacity="0.5" stroke="rgb(0,0,0)"  stroke-width="1.5"/>
<line x1="109.0" y1="164.6" x2="110.6" y2="173.7" opacity="0.5" stroke="rgb(0,0,0)"  stroke-width="0.9"/>
<line x1="331.8" y1="176.8" x2="343.2" y2="205.5" opacity="0.3" stroke="rgb(0,0,0)"  stroke-width="1.5"/>
<line x1="331.8" y1="176.8" x2="331.8" y2="184.9" opacity="0.5" stroke="rgb(0,0,0)"  stroke-width="0.9"/>
<line x1="331.8" y1="176.8" x2="355.1" y2="150.3" opacity="0.3" stroke="rgb(0,0,0)"  stroke-width="1.4"/>
<line x1="62.4" y1="151.6" x2="51.9" y2="123.4" opacity="0.5" stroke="rgb(0,0,0)"  stroke-width="1.3"/>
<line x1="62.4" y1="151.6" x2="40.0" y2="178.7" opacity="0.4" stroke="rgb(0,0,0)"  stroke-width="1.4"/>
<line x1="62.4" y1="151.6" x2="59.4" y2="143.3" opacity="0.5" stroke="rgb(0,0,0)"  stroke-width="1.9"/>
<circle cx="213.614673" cy="70.466225" r="5.636364" opacity="0.200000" style="stroke:black;stroke-width:0.5;fill:url(#radialffffffbfbfbf)"/>
<circle cx="268.524463" cy="131.656835" r="5.636364" opacity="0.303841" style="stroke:black;stroke-width:0.5;fill:url(#radialffffffbfbfbf)"/>
<circle cx="188.553482" cy="148.296760" r="5.636364" opacity="0.354422" style="stroke:black;stroke-width:0.5;fill:url(#radialffffffbfbfbf)"/>
<circle cx="110.592233" cy="173.694539" r="5.636364" opacity="0.393084" style="stroke:black;stroke-width:0.5;fill:url(#radialffffffbfbfbf)"/>
<circle cx="331.832644" cy="184.864072" r="5.636364" opacity="0.410430" style="stroke:black;stroke-width:0.5;fill:url(#radialffffffbfbfbf)"/>
<circle cx="215.679958" cy="63.646209" r="13.818182" opacity="0.517871" style="stroke:black;stroke-width:0.5;fill:url(#radialffffff666666)"/>
<circle cx="242.123452" cy="40.000000" r="5.636364" opacity="0.553382" style="stroke:black;stroke-width:0.5;fill:url(#radialffffffbfbfbf)"/>
<circle cx="185.272555" cy="47.571623" r="5.636364" opacity="0.586110" style="stroke:black;stroke-width:0.5;fill:url(#radialffffffbfbfbf)"/>
<circle cx="131.029407" cy="98.376986" r="5.636364" opacity="0.591392" style="stroke:black;stroke-width:0.5;fill:url(#radialffffffbfbfbf)"/>
<circle cx="51.891729" cy="123.415301" r="5.636364" opacity="0.597881" style="stroke:black;stroke-width:0.5;fill:url(#radialffffffbfbfbf)"/>
<circle cx="269.478677" cy="123.787837" r="13.818182" opacity="0.599946" style="stroke:black;stroke-width:0.5;fill:url(#radialffffff666666)"/>
<circle cx="293.752314" cy="97.569826" r="5.636364" opacity="0.622243" style="stroke:black;stroke-width:0.5;fill:url(#radialffffffbfbfbf)"/>
<circle cx="187.877036" cy="140.378744" r="13.818182" opacity="0.626962" style="stroke:black;stroke-width:0.5;fill:url(#radialffffff666666)"/>
<circle cx="109.000787" cy="164.606631" r="13.818182" opacity="0.647386" style="stroke:black;stroke-width:0.5;fill:url(#radialffffff666666)"/>
<circle cx="331.767287" cy="176.792467" r="13.818182" opacity="0.659427" style="stroke:black;stroke-width:0.5;fill:url(#radialffffff666666)"/>
<circle cx="40.000000" cy="178.704163" r="5.636364" opacity="0.672777" style="stroke:black;stroke-width:0.5;fill:url(#radialffffffbfbfbf)"/>
<circle cx="223.914956" cy="105.938806" r="13.818182" opacity="0.684609" style="stroke:black;stroke-width:0.5;fill:url(#radialffffff666666)"/>
<circle cx="355.135728" cy="150.267277" r="5.636364" opacity="0.690350" style="stroke:black;stroke-width:0.5;fill:url(#radialffffffbfbfbf)"/>
<circle cx="141.117279" cy="127.392283" r="13.818182" opacity="0.700104" style="stroke:black;stroke-width:0.5;fill:url(#radialffffff666666)"/>
<circle cx="62.368477" cy="151.649580" r="13.957969" opacity="0.710674" style="stroke:black;stroke-width:0.5;fill:url(#radialffffff666666)"/>
<circle cx="264.302393" cy="191.720035" r="5.797282" opacity="0.717130" style="stroke:black;stroke-width:0.5;fill:url(#radialffffffbfbfbf)"/>
<circle cx="195.585909" cy="170.795951" r="5.922581" opacity="0.724838" style="stroke:black;stroke-width:0.5;fill:url(#radialffffffbfbfbf)"/>
<circle cx="286.193762" cy="163.851756" r="15.230891" opacity="0.742373" style="stroke:black;stroke-width:0.5;fill:url(#radialffffff666666)"/>
<circle cx="118.082160" cy="193.572910" r="6.362960" opacity="0.751303" style="stroke:black;stroke-width:0.5;fill:url(#radialffffffbfbfbf)"/>
<circle cx="343.152499" cy="205.490782" r="6.458413" opacity="0.756917" style="stroke:black;stroke-width:0.5;fill:url(#radialffffffbfbfbf)"/>
<circle cx="139.437601" cy="119.219374" r="8.523742" opacity="0.869562" style="stroke:black;stroke-width:0.5;fill:url(#radialffffffbfbfbf)"/>
<circle cx="59.388192" cy="143.290404" r="8.679169" opacity="0.877454" style="stroke:black;stroke-width:0.5;fill:url(#radialffffffbfbfbf)"/>
<circle cx="287.566262" cy="157.142847" r="9.237526" opacity="0.905239" style="stroke:black;stroke-width:0.5;fill:url(#radialffffffbfbfbf)"/>
<circle cx="224.408402" cy="94.305237" r="23.295725" opacity="0.918116" style="stroke:black;stroke-width:0.5;fill:url(#radialffffff666666)"/>
<circle cx="253.221092" cy="74.694831" r="10.212891" opacity="0.951831" style="stroke:black;stroke-width:0.5;fill:url(#radialffffffbfbfbf)"/>
<circle cx="195.693748" cy="75.060831" r="10.304120" opacity="0.956073" style="stroke:black;stroke-width:0.5;fill:url(#radialffffffbfbfbf)"/>
<circle cx="224.771134" cy="123.598301" r="11.272727" opacity="1.000000" style="stroke:black;stroke-width:0.5;fill:url(#radialffffffbfbfbf)"/>
</svg>
</g>
</svg>
