<?xml version="1.0"?>
<svg version="1.1" id="topsvg"
xmlns="http://www.w3.org/2000/svg" xmlns:xlink="http://www.w3.org/1999/xlink"
xmlns:cml="http://www.xml-cml.org/schema" x="0" y="0" width="200px" height="200px" viewBox="0 0 100 100">
<title>85927 - Open Babel Depiction</title>
<rect x="0" y="0" width="100" height="100" fill="white"/>
<defs>
<radialGradient id='radialffffff666666' cx='50%' cy='50%' r='50%' fx='30%' fy='30%'>
  <stop offset=' 0%' stop-color="rgb(255,255,255)"  stop-opacity='1.0'/>
  <stop offset='100%' stop-color="rgb(102,102,102)"  stop-opacity ='1.0'/>
</radialGradient>
<radialGradient id='radialffffffbfbfbf' cx='50%' cy='50%' r='50%' fx='30%' fy='30%'>
  <stop offset=' 0%' stop-color="rgb(255,255,255)"  stop-opacity='1.0'/>
  <stop offset='100%' stop-color="rgb(191,191,191)"  stop-opacity ='1.0'/>
</radialGradient>
</defs>
<g transform="translate(0,0)">
<svg width="100" height="100" x="0" y="0" viewBox="0 0 374.339 248.325"
font-family="sans-serif" stroke="rgb(0,0,0)" stroke-width="4"  stroke-linecap="round">
<line x1="189.4" y1="120.3" x2="152.0" y2="94.0" opacity="1.0" stroke="rgb(0,0,0)"  stroke-width="1.4"/>
<line x1="189.4" y1="120.3" x2="234.1" y2="112.9" opacity="0.5" stroke="rgb(0,0,0)"  stroke-width="1.5"/>
<line x1="189.4" y1="120.3" x2="191.7" y2="112.0" opacity="0.5" stroke="rgb(0,0,0)"  stroke-width="0.6"/>
<line x1="189.4" y1="120.3" x2="182.0" y2="155.3" opacity="0.2" stroke="rgb(0,0,0)"  stroke-width="1.1"/>
<line x1="152.0" y1="94.0" x2="107.3" y2="101.9" opacity="0.4" stroke="rgb(0,0,0)"  stroke-width="1.4"/>
<line x1="152.0" y1="94.0" x2="159.1" y2="59.0" opacity="0.5" stroke="rgb(0,0,0)"  stroke-width="1.7"/>
<line x1="152.0" y1="94.0" x2="150.0" y2="101.9" opacity="0.6" stroke="rgb(0,0,0)"  stroke-width="2.3"/>
<line x1="234.1" y1="112.9" x2="268.1" y2="143.6" opacity="0.8" stroke="rgb(0,0,0)"  stroke-width="1.5"/>
<line x1="234.1" y1="112.9" x2="248.4" y2="65.0" opacity="0.5" stroke="rgb(0,0,0)"  stroke-width="1.8"/>
<polygon points="234.126342 112.893846 234.882330 123.029299 227.314125 120.436566 " stroke-width="1.782048" fill="rgb(0,0,0)"  stroke="rgb(0,0,0)" />
<line x1="107.3" y1="101.9" x2="94.0" y2="150.4" opacity="0.6" stroke="rgb(0,0,0)"  stroke-width="1.0"/>
<line x1="107.3" y1="101.9" x2="72.0" y2="75.0" opacity="0.3" stroke="rgb(0,0,0)"  stroke-width="1.4"/>
<line x1="107.0" y1="99.3" x2="108.6" y2="99.6" opacity="0.5" stroke="rgb(0,0,0)"  stroke-width="1.0"/>
<line x1="106.7" y1="97.2" x2="109.6" y2="97.7" opacity="0.5" stroke="rgb(0,0,0)"  stroke-width="1.0"/>
<line x1="106.5" y1="95.1" x2="110.6" y2="95.9" opacity="0.5" stroke="rgb(0,0,0)"  stroke-width="1.0"/>
<line x1="106.2" y1="93.0" x2="111.6" y2="94.0" opacity="0.5" stroke="rgb(0,0,0)"  stroke-width="1.0"/>
<line x1="106.0" y1="90.9" x2="112.6" y2="92.1" opacity="0.5" stroke="rgb(0,0,0)"  stroke-width="1.0"/>
<line x1="105.7" y1="88.8" x2="113.6" y2="90.3" opacity="0.5" stroke="rgb(0,0,0)"  stroke-width="1.0"/>
<line x1="268.1" y1="143.6" x2="313.4" y2="140.8" opacity="0.5" stroke="rgb(0,0,0)"  stroke-width="1.5"/>
<line x1="268.1" y1="143.6" x2="270.9" y2="136.5" opacity="0.5" stroke="rgb(0,0,0)"  stroke-width="0.6"/>
<line x1="268.1" y1="143.6" x2="256.6" y2="177.5" opacity="0.2" stroke="rgb(0,0,0)"  stroke-width="1.2"/>
<line x1="94.0" y1="150.4" x2="89.2" y2="174.3" opacity="0.4" stroke="rgb(0,0,0)"  stroke-width="1.7"/>
<line x1="94.0" y1="150.4" x2="117.3" y2="168.2" opacity="0.6" stroke="rgb(0,0,0)"  stroke-width="0.6"/>
<line x1="94.0" y1="150.4" x2="62.6" y2="152.4" opacity="0.2" stroke="rgb(0,0,0)"  stroke-width="0.7"/>
<line x1="248.4" y1="65.0" x2="251.2" y2="54.1" opacity="0.2" stroke="rgb(0,0,0)"  stroke-width="1.2"/>
<line x1="248.4" y1="65.0" x2="280.0" y2="59.8" opacity="0.4" stroke="rgb(0,0,0)"  stroke-width="2.0"/>
<line x1="248.4" y1="65.0" x2="225.3" y2="43.4" opacity="0.7" stroke="rgb(0,0,0)"  stroke-width="2.0"/>
<line x1="72.0" y1="75.0" x2="40.0" y2="80.1" opacity="0.7" stroke="rgb(0,0,0)"  stroke-width="1.6"/>
<line x1="72.0" y1="75.0" x2="69.5" y2="83.4" opacity="0.5" stroke="rgb(0,0,0)"  stroke-width="2.4"/>
<line x1="72.0" y1="75.0" x2="79.6" y2="40.0" opacity="0.8" stroke="rgb(0,0,0)"  stroke-width="1.8"/>
<line x1="313.4" y1="140.8" x2="329.3" y2="109.6" opacity="0.6" stroke="rgb(0,0,0)"  stroke-width="1.7"/>
<line x1="313.4" y1="140.8" x2="311.7" y2="145.1" opacity="0.6" stroke="rgb(0,0,0)"  stroke-width="2.4"/>
<line x1="313.4" y1="140.8" x2="334.3" y2="166.7" opacity="0.8" stroke="rgb(0,0,0)"  stroke-width="1.6"/>
<line x1="89.2" y1="174.3" x2="119.8" y2="174.4" opacity="0.5" stroke="rgb(0,0,0)"  stroke-width="2.6"/>
<line x1="89.2" y1="174.3" x2="79.8" y2="208.3" opacity="0.9" stroke="rgb(0,0,0)"  stroke-width="2.3"/>
<line x1="89.2" y1="174.3" x2="63.8" y2="159.5" opacity="0.8" stroke="rgb(0,0,0)"  stroke-width="2.7"/>
<circle cx="109.627014" cy="89.542047" r="5.636364" opacity="0.200000" style="stroke:black;stroke-width:0.5;fill:url(#radialffffffbfbfbf)"/>
<circle cx="191.660796" cy="112.004378" r="5.636364" opacity="0.200000" style="stroke:black;stroke-width:0.5;fill:url(#radialffffffbfbfbf)"/>
<circle cx="270.869209" cy="136.523604" r="5.636364" opacity="0.200000" style="stroke:black;stroke-width:0.5;fill:url(#radialffffffbfbfbf)"/>
<circle cx="117.292134" cy="168.214164" r="5.636364" opacity="0.319796" style="stroke:black;stroke-width:0.5;fill:url(#radialffffffbfbfbf)"/>
<circle cx="62.619296" cy="152.426111" r="5.636364" opacity="0.371473" style="stroke:black;stroke-width:0.5;fill:url(#radialffffffbfbfbf)"/>
<circle cx="251.157034" cy="54.120301" r="5.636364" opacity="0.467560" style="stroke:black;stroke-width:0.5;fill:url(#radialffffffbfbfbf)"/>
<circle cx="94.025357" cy="150.437889" r="13.818182" opacity="0.567169" style="stroke:black;stroke-width:0.5;fill:url(#radialffffff666666)"/>
<circle cx="107.331402" cy="101.929194" r="13.818182" opacity="0.597978" style="stroke:black;stroke-width:0.5;fill:url(#radialffffff666666)"/>
<circle cx="189.365184" cy="120.264656" r="13.818182" opacity="0.609233" style="stroke:black;stroke-width:0.5;fill:url(#radialffffff666666)"/>
<circle cx="268.112513" cy="143.587025" r="13.818182" opacity="0.618404" style="stroke:black;stroke-width:0.5;fill:url(#radialffffff666666)"/>
<circle cx="181.981294" cy="155.258019" r="5.636364" opacity="0.626277" style="stroke:black;stroke-width:0.5;fill:url(#radialffffffbfbfbf)"/>
<circle cx="256.601754" cy="177.452202" r="5.636364" opacity="0.642140" style="stroke:black;stroke-width:0.5;fill:url(#radialffffffbfbfbf)"/>
<circle cx="40.000000" cy="80.084912" r="5.636364" opacity="0.665734" style="stroke:black;stroke-width:0.5;fill:url(#radialffffffbfbfbf)"/>
<circle cx="334.338621" cy="166.680486" r="5.636364" opacity="0.678734" style="stroke:black;stroke-width:0.5;fill:url(#radialffffffbfbfbf)"/>
<circle cx="329.260152" cy="109.610664" r="5.927221" opacity="0.725122" style="stroke:black;stroke-width:0.5;fill:url(#radialffffffbfbfbf)"/>
<circle cx="159.057878" cy="58.969862" r="6.409829" opacity="0.754065" style="stroke:black;stroke-width:0.5;fill:url(#radialffffffbfbfbf)"/>
<circle cx="248.400338" cy="64.954149" r="16.033259" opacity="0.761676" style="stroke:black;stroke-width:0.5;fill:url(#radialffffff666666)"/>
<circle cx="79.555155" cy="40.000000" r="6.556334" opacity="0.762634" style="stroke:black;stroke-width:0.5;fill:url(#radialffffffbfbfbf)"/>
<circle cx="152.010808" cy="94.025357" r="16.361703" opacity="0.769438" style="stroke:black;stroke-width:0.5;fill:url(#radialffffff666666)"/>
<circle cx="313.360916" cy="140.849949" r="16.613318" opacity="0.775332" style="stroke:black;stroke-width:0.5;fill:url(#radialffffff666666)"/>
<circle cx="72.037190" cy="74.960662" r="16.698790" opacity="0.777324" style="stroke:black;stroke-width:0.5;fill:url(#radialffffff666666)"/>
<circle cx="234.126342" cy="112.893846" r="16.799628" opacity="0.779667" style="stroke:black;stroke-width:0.5;fill:url(#radialffffff666666)"/>
<circle cx="79.820033" cy="208.325236" r="8.135386" opacity="0.849522" style="stroke:black;stroke-width:0.5;fill:url(#radialffffffbfbfbf)"/>
<circle cx="280.025495" cy="59.790658" r="8.446025" opacity="0.865589" style="stroke:black;stroke-width:0.5;fill:url(#radialffffffbfbfbf)"/>
<circle cx="225.336307" cy="43.378015" r="8.549833" opacity="0.870892" style="stroke:black;stroke-width:0.5;fill:url(#radialffffffbfbfbf)"/>
<circle cx="89.175796" cy="174.250772" r="21.651382" opacity="0.885120" style="stroke:black;stroke-width:0.5;fill:url(#radialffffff666666)"/>
<circle cx="150.042206" cy="101.903033" r="10.859064" opacity="0.981481" style="stroke:black;stroke-width:0.5;fill:url(#radialffffffbfbfbf)"/>
<circle cx="69.515942" cy="83.368094" r="10.968355" opacity="0.986407" style="stroke:black;stroke-width:0.5;fill:url(#radialffffffbfbfbf)"/>
<circle cx="231.098227" cy="121.732932" r="11.005178" opacity="0.988062" style="stroke:black;stroke-width:0.5;fill:url(#radialffffffbfbfbf)"/>
<circle cx="311.660463" cy="145.081461" r="11.028681" opacity="0.989116" style="stroke:black;stroke-width:0.5;fill:url(#radialffffffbfbfbf)"/>
<circle cx="119.842813" cy="174.440438" r="11.035341" opacity="0.989415" style="stroke:black;stroke-width:0.5;fill:url(#radialffffffbfbfbf)"/>
<circle cx="63.780183" cy="159.460100" r="11.272727" opacity="1.000000" style="stroke:black;stroke-width:0.5;fill:url(#radialffffffbfbfbf)"/>
</svg>
</g>
</svg>
