<?xml version="1.0"?>
<svg version="1.1" id="topsvg"
xmlns="http://www.w3.org/2000/svg" xmlns:xlink="http://www.w3.org/1999/xlink"
xmlns:cml="http://www.xml-cml.org/schema" x="0" y="0" width="200px" height="200px" viewBox="0 0 100 100">
<title>8663 - Open Babel Depiction</title>
<rect x="0" y="0" width="100" height="100" fill="white"/>
<defs>
<radialGradient id='radialffffff666666' cx='50%' cy='50%' r='50%' fx='30%' fy='30%'>
  <stop offset=' 0%' stop-color="rgb(255,255,255)"  stop-opacity='1.0'/>
  <stop offset='100%' stop-color="rgb(102,102,102)"  stop-opacity ='1.0'/>
</radialGradient>
<radialGradient id='radialffffffbfbfbf' cx='50%' cy='50%' r='50%' fx='30%' fy='30%'>
  <stop offset=' 0%' stop-color="rgb(255,255,255)"  stop-opacity='1.0'/>
  <stop offset='100%' stop-color="rgb(191,191,191)"  stop-opacity ='1.0'/>
</radialGradient>
<radialGradient id='radialffffffffcc' cx='50%' cy='50%' r='50%' fx='30%' fy='30%'>
  <stop offset=' 0%' stop-color="rgb(255,255,255)"  stop-opacity='1.0'/>
  <stop offset='100%' stop-color="rgb(255,12,12)"  stop-opacity ='1.0'/>
</radialGradient>
</defs>
<g transform="translate(0,0)">
<svg width="100" height="100" x="0" y="0" viewBox="0 0 330.234 246.766"
font-family="sans-serif" stroke="rgb(0,0,0)" stroke-width="4"  stroke-linecap="round">
<line x1="59.9" y1="149.2" x2="99.9" y2="133.6" opacity="1.0" stroke="rgb(0,0,0)"  stroke-width="3.0"/>
<line x1="59.9" y1="149.2" x2="40.0" y2="125.8" opacity="1.0" stroke="rgb(0,0,0)"  stroke-width="3.0"/>
<line x1="134.2" y1="161.1" x2="128.6" y2="195.0" opacity="1.0" stroke="rgb(0,0,0)"  stroke-width="3.0"/>
<line x1="147.5" y1="74.1" x2="151.9" y2="40.0" opacity="1.0" stroke="rgb(0,0,0)"  stroke-width="3.0"/>
<line x1="210.7" y1="172.7" x2="206.3" y2="206.8" opacity="1.0" stroke="rgb(0,0,0)"  stroke-width="3.0"/>
<line x1="223.9" y1="85.7" x2="229.8" y2="51.8" opacity="1.0" stroke="rgb(0,0,0)"  stroke-width="3.0"/>
<line x1="106.5" y1="90.1" x2="79.9" y2="68.4" opacity="1.0" stroke="rgb(0,0,0)"  stroke-width="3.0"/>
<line x1="251.7" y1="156.6" x2="278.5" y2="178.0" opacity="1.0" stroke="rgb(0,0,0)"  stroke-width="3.0"/>
<line x1="258.3" y1="113.2" x2="290.2" y2="100.7" opacity="1.0" stroke="rgb(0,0,0)"  stroke-width="3.0"/>
<line x1="173.9" y1="147.8" x2="208.9" y2="175.1" opacity="1.0" stroke="rgb(0,0,0)"  stroke-width="3.0"/>
<line x1="177.6" y1="143.1" x2="212.6" y2="170.3" opacity="1.0" stroke="rgb(0,0,0)"  stroke-width="3.0" stroke-dasharray="5.0,5.0"/>
<line x1="211.8" y1="175.5" x2="252.8" y2="159.4" opacity="1.0" stroke="rgb(0,0,0)"  stroke-width="3.0"/>
<line x1="209.6" y1="169.9" x2="250.6" y2="153.8" opacity="1.0" stroke="rgb(0,0,0)"  stroke-width="3.0" stroke-dasharray="5.0,5.0"/>
<line x1="254.7" y1="157.1" x2="261.3" y2="113.6" opacity="1.0" stroke="rgb(0,0,0)"  stroke-width="3.0"/>
<line x1="248.8" y1="156.2" x2="255.3" y2="112.7" opacity="1.0" stroke="rgb(0,0,0)"  stroke-width="3.0" stroke-dasharray="5.0,5.0"/>
<line x1="260.2" y1="110.8" x2="225.8" y2="83.3" opacity="1.0" stroke="rgb(0,0,0)"  stroke-width="3.0"/>
<line x1="256.4" y1="115.5" x2="222.0" y2="88.0" opacity="1.0" stroke="rgb(0,0,0)"  stroke-width="3.0" stroke-dasharray="5.0,5.0"/>
<line x1="222.9" y1="82.9" x2="181.4" y2="98.5" opacity="1.0" stroke="rgb(0,0,0)"  stroke-width="3.0"/>
<line x1="225.0" y1="88.5" x2="183.5" y2="104.1" opacity="1.0" stroke="rgb(0,0,0)"  stroke-width="3.0" stroke-dasharray="5.0,5.0"/>
<line x1="179.5" y1="100.8" x2="172.8" y2="145.0" opacity="1.0" stroke="rgb(0,0,0)"  stroke-width="3.0"/>
<line x1="185.4" y1="101.7" x2="178.7" y2="145.9" opacity="1.0" stroke="rgb(0,0,0)"  stroke-width="3.0" stroke-dasharray="5.0,5.0"/>
<line x1="178.7" y1="145.9" x2="185.4" y2="101.7" opacity="1.0" stroke="rgb(0,0,0)"  stroke-width="3.0"/>
<line x1="172.8" y1="145.0" x2="179.5" y2="100.8" opacity="1.0" stroke="rgb(0,0,0)"  stroke-width="3.0" stroke-dasharray="5.0,5.0"/>
<line x1="184.3" y1="98.9" x2="149.3" y2="71.7" opacity="1.0" stroke="rgb(0,0,0)"  stroke-width="3.0"/>
<line x1="180.6" y1="103.7" x2="145.6" y2="76.4" opacity="1.0" stroke="rgb(0,0,0)"  stroke-width="3.0" stroke-dasharray="5.0,5.0"/>
<line x1="146.4" y1="71.3" x2="105.4" y2="87.4" opacity="1.0" stroke="rgb(0,0,0)"  stroke-width="3.0"/>
<line x1="148.6" y1="76.9" x2="107.5" y2="92.9" opacity="1.0" stroke="rgb(0,0,0)"  stroke-width="3.0" stroke-dasharray="5.0,5.0"/>
<line x1="103.5" y1="89.7" x2="96.9" y2="133.1" opacity="1.0" stroke="rgb(0,0,0)"  stroke-width="3.0"/>
<line x1="109.4" y1="90.6" x2="102.8" y2="134.0" opacity="1.0" stroke="rgb(0,0,0)"  stroke-width="3.0" stroke-dasharray="5.0,5.0"/>
<line x1="98.0" y1="135.9" x2="132.4" y2="163.4" opacity="1.0" stroke="rgb(0,0,0)"  stroke-width="3.0"/>
<line x1="101.7" y1="131.2" x2="136.1" y2="158.8" opacity="1.0" stroke="rgb(0,0,0)"  stroke-width="3.0" stroke-dasharray="5.0,5.0"/>
<line x1="135.3" y1="163.9" x2="176.8" y2="148.3" opacity="1.0" stroke="rgb(0,0,0)"  stroke-width="3.0"/>
<line x1="133.2" y1="158.3" x2="174.7" y2="142.7" opacity="1.0" stroke="rgb(0,0,0)"  stroke-width="3.0" stroke-dasharray="5.0,5.0"/>
<circle cx="99.864874" cy="133.582271" r="27.636364" opacity="1.000000" style="stroke:black;stroke-width:0.5;fill:url(#radialffffff666666)"/>
<circle cx="106.453041" cy="90.145197" r="27.636364" opacity="1.000000" style="stroke:black;stroke-width:0.5;fill:url(#radialffffff666666)"/>
<circle cx="79.929909" cy="68.385623" r="11.272727" opacity="1.000000" style="stroke:black;stroke-width:0.5;fill:url(#radialffffffbfbfbf)"/>
<circle cx="278.499840" cy="178.026353" r="11.272727" opacity="1.000000" style="stroke:black;stroke-width:0.5;fill:url(#radialffffffbfbfbf)"/>
<circle cx="290.233532" cy="100.685633" r="11.272727" opacity="1.000000" style="stroke:black;stroke-width:0.5;fill:url(#radialffffffbfbfbf)"/>
<circle cx="134.248348" cy="161.099784" r="27.636364" opacity="1.000000" style="stroke:black;stroke-width:0.5;fill:url(#radialffffff666666)"/>
<circle cx="251.717853" cy="156.620336" r="27.636364" opacity="1.000000" style="stroke:black;stroke-width:0.5;fill:url(#radialffffff666666)"/>
<circle cx="258.306020" cy="113.183262" r="27.636364" opacity="1.000000" style="stroke:black;stroke-width:0.5;fill:url(#radialffffff666666)"/>
<circle cx="128.556703" cy="194.990803" r="11.272727" opacity="1.000000" style="stroke:black;stroke-width:0.5;fill:url(#radialffffffbfbfbf)"/>
<circle cx="206.317272" cy="206.765533" r="11.272727" opacity="1.000000" style="stroke:black;stroke-width:0.5;fill:url(#radialffffffbfbfbf)"/>
<circle cx="175.734542" cy="145.467488" r="27.636364" opacity="1.000000" style="stroke:black;stroke-width:0.5;fill:url(#radialffffff666666)"/>
<circle cx="147.456249" cy="74.061484" r="27.636364" opacity="1.000000" style="stroke:black;stroke-width:0.5;fill:url(#radialffffff666666)"/>
<circle cx="210.717802" cy="172.700892" r="27.636364" opacity="1.000000" style="stroke:black;stroke-width:0.5;fill:url(#radialffffff666666)"/>
<circle cx="223.922546" cy="85.659436" r="27.636364" opacity="1.000000" style="stroke:black;stroke-width:0.5;fill:url(#radialffffff666666)"/>
<circle cx="229.822538" cy="51.822081" r="11.272727" opacity="1.000000" style="stroke:black;stroke-width:0.5;fill:url(#radialffffffbfbfbf)"/>
<circle cx="182.436352" cy="101.294888" r="27.636364" opacity="1.000000" style="stroke:black;stroke-width:0.5;fill:url(#radialffffff666666)"/>
<circle cx="151.863092" cy="40.000000" r="11.272727" opacity="1.000000" style="stroke:black;stroke-width:0.5;fill:url(#radialffffffbfbfbf)"/>
<circle cx="59.852889" cy="149.230351" r="24.000000" opacity="1.000000" style="stroke:black;stroke-width:0.5;fill:url(#radialffffffffcc)"/>
<circle cx="40.000000" cy="125.807161" r="11.272727" opacity="1.000000" style="stroke:black;stroke-width:0.5;fill:url(#radialffffffbfbfbf)"/>
</svg>
</g>
</svg>
