<?xml version="1.0"?>
<svg version="1.1" id="topsvg"
xmlns="http://www.w3.org/2000/svg" xmlns:xlink="http://www.w3.org/1999/xlink"
xmlns:cml="http://www.xml-cml.org/schema" x="0" y="0" width="200px" height="200px" viewBox="0 0 100 100">
<title>87568 - Open Babel Depiction</title>
<rect x="0" y="0" width="100" height="100" fill="white"/>
<defs>
<radialGradient id='radialffffff0ccff' cx='50%' cy='50%' r='50%' fx='30%' fy='30%'>
  <stop offset=' 0%' stop-color="rgb(255,255,255)"  stop-opacity='1.0'/>
  <stop offset='100%' stop-color="rgb(12,12,255)"  stop-opacity ='1.0'/>
</radialGradient>
<radialGradient id='radialffffff666666' cx='50%' cy='50%' r='50%' fx='30%' fy='30%'>
  <stop offset=' 0%' stop-color="rgb(255,255,255)"  stop-opacity='1.0'/>
  <stop offset='100%' stop-color="rgb(102,102,102)"  stop-opacity ='1.0'/>
</radialGradient>
<radialGradient id='radialffffffbfbfbf' cx='50%' cy='50%' r='50%' fx='30%' fy='30%'>
  <stop offset=' 0%' stop-color="rgb(255,255,255)"  stop-opacity='1.0'/>
  <stop offset='100%' stop-color="rgb(191,191,191)"  stop-opacity ='1.0'/>
</radialGradient>
</defs>
<g transform="translate(0,0)">
<svg width="100" height="100" x="0" y="0" viewBox="0 0 715.07 163.001"
font-family="sans-serif" stroke="rgb(0,0,0)" stroke-width="4"  stroke-linecap="round">
<line x1="40.0" y1="53.6" x2="71.2" y2="74.5" opacity="1.0" stroke="rgb(0,0,0)"  stroke-width="1.3"/>
<line x1="42.3" y1="50.1" x2="73.5" y2="71.0" opacity="1.0" stroke="rgb(0,0,0)"  stroke-width="1.3"/>
<line x1="37.7" y1="57.1" x2="68.8" y2="78.0" opacity="1.0" stroke="rgb(0,0,0)"  stroke-width="1.3"/>
<line x1="359.3" y1="96.0" x2="399.7" y2="67.3" opacity="0.4" stroke="rgb(0,0,0)"  stroke-width="1.7"/>
<line x1="359.3" y1="96.0" x2="316.8" y2="70.5" opacity="0.6" stroke="rgb(0,0,0)"  stroke-width="1.7"/>
<line x1="359.3" y1="96.0" x2="360.2" y2="119.5" opacity="0.6" stroke="rgb(0,0,0)"  stroke-width="2.2"/>
<line x1="359.3" y1="96.0" x2="359.7" y2="114.8" opacity="0.7" stroke="rgb(0,0,0)"  stroke-width="1.0"/>
<line x1="399.7" y1="67.3" x2="441.1" y2="94.2" opacity="0.3" stroke="rgb(0,0,0)"  stroke-width="1.6"/>
<line x1="399.7" y1="67.3" x2="398.1" y2="42.8" opacity="0.5" stroke="rgb(0,0,0)"  stroke-width="1.2"/>
<line x1="399.7" y1="67.3" x2="400.5" y2="50.0" opacity="0.4" stroke="rgb(0,0,0)"  stroke-width="2.4"/>
<line x1="316.8" y1="70.5" x2="275.3" y2="97.2" opacity="0.8" stroke="rgb(0,0,0)"  stroke-width="1.6"/>
<line x1="316.8" y1="70.5" x2="315.8" y2="52.8" opacity="0.5" stroke="rgb(0,0,0)"  stroke-width="2.4"/>
<line x1="316.8" y1="70.5" x2="317.1" y2="45.9" opacity="0.8" stroke="rgb(0,0,0)"  stroke-width="1.2"/>
<line x1="441.1" y1="94.2" x2="481.6" y2="65.7" opacity="0.4" stroke="rgb(0,0,0)"  stroke-width="1.6"/>
<line x1="441.1" y1="94.2" x2="442.4" y2="119.3" opacity="0.5" stroke="rgb(0,0,0)"  stroke-width="2.0"/>
<line x1="441.1" y1="94.2" x2="440.4" y2="110.9" opacity="0.7" stroke="rgb(0,0,0)"  stroke-width="0.9"/>
<line x1="275.3" y1="97.2" x2="234.0" y2="69.8" opacity="0.3" stroke="rgb(0,0,0)"  stroke-width="1.6"/>
<line x1="275.3" y1="97.2" x2="276.6" y2="115.8" opacity="0.5" stroke="rgb(0,0,0)"  stroke-width="0.9"/>
<line x1="275.3" y1="97.2" x2="274.1" y2="120.9" opacity="0.3" stroke="rgb(0,0,0)"  stroke-width="2.1"/>
<line x1="481.6" y1="65.7" x2="522.8" y2="92.5" opacity="0.7" stroke="rgb(0,0,0)"  stroke-width="1.5"/>
<line x1="481.6" y1="65.7" x2="480.1" y2="40.2" opacity="0.5" stroke="rgb(0,0,0)"  stroke-width="1.1"/>
<line x1="481.6" y1="65.7" x2="482.6" y2="49.7" opacity="0.4" stroke="rgb(0,0,0)"  stroke-width="2.3"/>
<line x1="234.0" y1="69.8" x2="193.5" y2="98.4" opacity="0.8" stroke="rgb(0,0,0)"  stroke-width="1.5"/>
<line x1="234.0" y1="69.8" x2="233.2" y2="49.9" opacity="0.5" stroke="rgb(0,0,0)"  stroke-width="2.2"/>
<line x1="234.0" y1="69.8" x2="234.1" y2="47.5" opacity="0.7" stroke="rgb(0,0,0)"  stroke-width="1.0"/>
<line x1="522.8" y1="92.5" x2="564.4" y2="65.7" opacity="0.3" stroke="rgb(0,0,0)"  stroke-width="1.4"/>
<line x1="522.8" y1="92.5" x2="521.8" y2="108.1" opacity="0.5" stroke="rgb(0,0,0)"  stroke-width="0.7"/>
<line x1="522.8" y1="92.5" x2="523.7" y2="118.5" opacity="0.2" stroke="rgb(0,0,0)"  stroke-width="1.9"/>
<line x1="193.5" y1="98.4" x2="151.1" y2="72.5" opacity="0.6" stroke="rgb(0,0,0)"  stroke-width="1.5"/>
<line x1="193.5" y1="98.4" x2="194.7" y2="118.8" opacity="0.5" stroke="rgb(0,0,0)"  stroke-width="0.9"/>
<line x1="193.5" y1="98.4" x2="193.5" y2="120.3" opacity="0.3" stroke="rgb(0,0,0)"  stroke-width="2.1"/>
<line x1="564.4" y1="65.7" x2="605.7" y2="92.5" opacity="0.7" stroke="rgb(0,0,0)"  stroke-width="1.4"/>
<line x1="564.4" y1="65.7" x2="565.2" y2="49.5" opacity="0.5" stroke="rgb(0,0,0)"  stroke-width="2.2"/>
<line x1="564.4" y1="65.7" x2="563.7" y2="40.0" opacity="0.7" stroke="rgb(0,0,0)"  stroke-width="1.0"/>
<line x1="151.1" y1="72.5" x2="110.6" y2="101.0" opacity="0.3" stroke="rgb(0,0,0)"  stroke-width="1.5"/>
<line x1="151.1" y1="72.5" x2="150.1" y2="51.4" opacity="0.5" stroke="rgb(0,0,0)"  stroke-width="2.1"/>
<line x1="151.1" y1="72.5" x2="151.0" y2="50.9" opacity="0.7" stroke="rgb(0,0,0)"  stroke-width="0.9"/>
<line x1="605.7" y1="92.5" x2="645.9" y2="64.2" opacity="0.3" stroke="rgb(0,0,0)"  stroke-width="1.3"/>
<line x1="605.7" y1="92.5" x2="607.6" y2="117.1" opacity="0.4" stroke="rgb(0,0,0)"  stroke-width="1.8"/>
<line x1="605.7" y1="92.5" x2="604.7" y2="109.7" opacity="0.6" stroke="rgb(0,0,0)"  stroke-width="0.6"/>
<line x1="110.6" y1="101.0" x2="71.2" y2="74.5" opacity="0.2" stroke="rgb(0,0,0)"  stroke-width="1.4"/>
<line x1="110.6" y1="101.0" x2="112.0" y2="123.0" opacity="0.5" stroke="rgb(0,0,0)"  stroke-width="0.9"/>
<line x1="110.6" y1="101.0" x2="109.5" y2="121.3" opacity="0.3" stroke="rgb(0,0,0)"  stroke-width="2.1"/>
<line x1="645.9" y1="64.2" x2="648.4" y2="47.2" opacity="0.7" stroke="rgb(0,0,0)"  stroke-width="2.0"/>
<line x1="645.9" y1="64.2" x2="675.1" y2="84.0" opacity="0.7" stroke="rgb(0,0,0)"  stroke-width="1.3"/>
<line x1="645.9" y1="64.2" x2="645.4" y2="40.0" opacity="0.4" stroke="rgb(0,0,0)"  stroke-width="0.8"/>
<circle cx="604.688417" cy="109.733539" r="5.636364" opacity="0.200000" style="stroke:black;stroke-width:0.5;fill:url(#radialffffffbfbfbf)"/>
<circle cx="521.800663" cy="108.149201" r="5.636364" opacity="0.200000" style="stroke:black;stroke-width:0.5;fill:url(#radialffffffbfbfbf)"/>
<circle cx="440.432448" cy="110.867523" r="5.636364" opacity="0.267113" style="stroke:black;stroke-width:0.5;fill:url(#radialffffffbfbfbf)"/>
<circle cx="645.430844" cy="40.000000" r="5.636364" opacity="0.299973" style="stroke:black;stroke-width:0.5;fill:url(#radialffffffbfbfbf)"/>
<circle cx="276.597672" cy="115.772814" r="5.636364" opacity="0.322513" style="stroke:black;stroke-width:0.5;fill:url(#radialffffffbfbfbf)"/>
<circle cx="194.746703" cy="118.818371" r="5.636364" opacity="0.324360" style="stroke:black;stroke-width:0.5;fill:url(#radialffffffbfbfbf)"/>
<circle cx="111.975588" cy="123.001153" r="5.636364" opacity="0.324565" style="stroke:black;stroke-width:0.5;fill:url(#radialffffffbfbfbf)"/>
<circle cx="151.033238" cy="50.944566" r="5.636364" opacity="0.333709" style="stroke:black;stroke-width:0.5;fill:url(#radialffffffbfbfbf)"/>
<circle cx="359.734903" cy="114.778148" r="5.636364" opacity="0.367842" style="stroke:black;stroke-width:0.5;fill:url(#radialffffffbfbfbf)"/>
<circle cx="234.131589" cy="47.526414" r="5.636364" opacity="0.382008" style="stroke:black;stroke-width:0.5;fill:url(#radialffffffbfbfbf)"/>
<circle cx="563.686794" cy="40.003240" r="5.636364" opacity="0.406700" style="stroke:black;stroke-width:0.5;fill:url(#radialffffffbfbfbf)"/>
<circle cx="480.086250" cy="40.194397" r="5.636364" opacity="0.449947" style="stroke:black;stroke-width:0.5;fill:url(#radialffffffbfbfbf)"/>
<circle cx="398.131603" cy="42.838200" r="5.636364" opacity="0.471279" style="stroke:black;stroke-width:0.5;fill:url(#radialffffffbfbfbf)"/>
<circle cx="317.116542" cy="45.861078" r="5.636364" opacity="0.478132" style="stroke:black;stroke-width:0.5;fill:url(#radialffffffbfbfbf)"/>
<circle cx="675.069947" cy="83.988861" r="5.636364" opacity="0.624526" style="stroke:black;stroke-width:0.5;fill:url(#radialffffffbfbfbf)"/>
<circle cx="40.000000" cy="53.591609" r="12.909091" opacity="0.649164" style="stroke:black;stroke-width:0.5;fill:url(#radialffffff0ccff)"/>
<circle cx="605.670124" cy="92.548821" r="13.818182" opacity="0.651410" style="stroke:black;stroke-width:0.5;fill:url(#radialffffff666666)"/>
<circle cx="645.936277" cy="64.166820" r="13.818182" opacity="0.666755" style="stroke:black;stroke-width:0.5;fill:url(#radialffffff666666)"/>
<circle cx="71.171602" cy="74.508755" r="13.818182" opacity="0.670726" style="stroke:black;stroke-width:0.5;fill:url(#radialffffff666666)"/>
<circle cx="522.811529" cy="92.467822" r="13.818182" opacity="0.672308" style="stroke:black;stroke-width:0.5;fill:url(#radialffffff666666)"/>
<circle cx="110.621287" cy="101.047221" r="13.818182" opacity="0.697321" style="stroke:black;stroke-width:0.5;fill:url(#radialffffff666666)"/>
<circle cx="151.117477" cy="72.525903" r="13.818182" opacity="0.705493" style="stroke:black;stroke-width:0.5;fill:url(#radialffffff666666)"/>
<circle cx="441.073959" cy="94.197958" r="13.818793" opacity="0.707122" style="stroke:black;stroke-width:0.5;fill:url(#radialffffff666666)"/>
<circle cx="564.425504" cy="65.686359" r="13.846928" opacity="0.707842" style="stroke:black;stroke-width:0.5;fill:url(#radialffffff666666)"/>
<circle cx="193.479881" cy="98.354819" r="13.871392" opacity="0.708467" style="stroke:black;stroke-width:0.5;fill:url(#radialffffff666666)"/>
<circle cx="275.269291" cy="97.220835" r="14.309307" opacity="0.719563" style="stroke:black;stroke-width:0.5;fill:url(#radialffffff666666)"/>
<circle cx="233.976072" cy="69.755741" r="14.492791" opacity="0.724162" style="stroke:black;stroke-width:0.5;fill:url(#radialffffff666666)"/>
<circle cx="481.563669" cy="65.718758" r="14.911135" opacity="0.734539" style="stroke:black;stroke-width:0.5;fill:url(#radialffffff666666)"/>
<circle cx="359.346108" cy="96.018812" r="15.138655" opacity="0.740122" style="stroke:black;stroke-width:0.5;fill:url(#radialffffff666666)"/>
<circle cx="399.735380" cy="67.341975" r="15.835894" opacity="0.756974" style="stroke:black;stroke-width:0.5;fill:url(#radialffffff666666)"/>
<circle cx="316.847626" cy="70.497691" r="15.999807" opacity="0.760881" style="stroke:black;stroke-width:0.5;fill:url(#radialffffff666666)"/>
<circle cx="607.588177" cy="117.107675" r="8.721607" opacity="0.879597" style="stroke:black;stroke-width:0.5;fill:url(#radialffffffbfbfbf)"/>
<circle cx="523.741396" cy="118.494376" r="8.821896" opacity="0.884640" style="stroke:black;stroke-width:0.5;fill:url(#radialffffffbfbfbf)"/>
<circle cx="442.360221" cy="119.252525" r="9.512439" opacity="0.918611" style="stroke:black;stroke-width:0.5;fill:url(#radialffffffbfbfbf)"/>
<circle cx="648.356523" cy="47.157059" r="9.790353" opacity="0.931933" style="stroke:black;stroke-width:0.5;fill:url(#radialffffffbfbfbf)"/>
<circle cx="274.073748" cy="120.908142" r="9.913594" opacity="0.937780" style="stroke:black;stroke-width:0.5;fill:url(#radialffffffbfbfbf)"/>
<circle cx="193.473401" cy="120.253671" r="9.969476" opacity="0.940420" style="stroke:black;stroke-width:0.5;fill:url(#radialffffffbfbfbf)"/>
<circle cx="109.548862" cy="121.251577" r="9.974964" opacity="0.940678" style="stroke:black;stroke-width:0.5;fill:url(#radialffffffbfbfbf)"/>
<circle cx="150.093651" cy="51.443519" r="10.019869" opacity="0.942793" style="stroke:black;stroke-width:0.5;fill:url(#radialffffffbfbfbf)"/>
<circle cx="360.237096" cy="119.508482" r="10.279322" opacity="0.954922" style="stroke:black;stroke-width:0.5;fill:url(#radialffffffbfbfbf)"/>
<circle cx="233.208202" cy="49.868901" r="10.443975" opacity="0.962539" style="stroke:black;stroke-width:0.5;fill:url(#radialffffffbfbfbf)"/>
<circle cx="565.222532" cy="49.541666" r="10.523807" opacity="0.966211" style="stroke:black;stroke-width:0.5;fill:url(#radialffffffbfbfbf)"/>
<circle cx="482.606934" cy="49.651824" r="10.959887" opacity="0.986026" style="stroke:black;stroke-width:0.5;fill:url(#radialffffffbfbfbf)"/>
<circle cx="400.506489" cy="50.008219" r="11.233809" opacity="0.998272" style="stroke:black;stroke-width:0.5;fill:url(#radialffffffbfbfbf)"/>
<circle cx="315.830280" cy="52.801060" r="11.272727" opacity="1.000000" style="stroke:black;stroke-width:0.5;fill:url(#radialffffffbfbfbf)"/>
</svg>
</g>
</svg>
