<?xml version="1.0"?>
<svg version="1.1" id="topsvg"
xmlns="http://www.w3.org/2000/svg" xmlns:xlink="http://www.w3.org/1999/xlink"
xmlns:cml="http://www.xml-cml.org/schema" x="0" y="0" width="1024px" height="1024px" viewBox="0 0 100 100">
<title>88038 - Open Babel Depiction</title>
<rect x="0" y="0" width="100" height="100" fill="white"/>
<defs>
<radialGradient id='radialffffff666666' cx='50%' cy='50%' r='50%' fx='30%' fy='30%'>
  <stop offset=' 0%' stop-color="rgb(255,255,255)"  stop-opacity='1.0'/>
  <stop offset='100%' stop-color="rgb(102,102,102)"  stop-opacity ='1.0'/>
</radialGradient>
<radialGradient id='radialffffffbfbfbf' cx='50%' cy='50%' r='50%' fx='30%' fy='30%'>
  <stop offset=' 0%' stop-color="rgb(255,255,255)"  stop-opacity='1.0'/>
  <stop offset='100%' stop-color="rgb(191,191,191)"  stop-opacity ='1.0'/>
</radialGradient>
</defs>
<g transform="translate(0,0)">
<svg width="100" height="100" x="0" y="0" viewBox="0 0 300.922 283.924"
font-family="sans-serif" stroke="rgb(0,0,0)" stroke-width="2"  stroke-linecap="round">
<line x1="124.9" y1="140.6" x2="176.1" y2="143.3" opacity="1.0" stroke="rgb(0,0,0)"  stroke-width="1.5"/>
<line x1="124.9" y1="140.6" x2="103.3" y2="186.4" opacity="0.5" stroke="rgb(0,0,0)"  stroke-width="1.5"/>
<line x1="124.9" y1="140.6" x2="106.0" y2="112.9" opacity="0.5" stroke="rgb(0,0,0)"  stroke-width="1.1"/>
<line x1="124.9" y1="140.6" x2="115.0" y2="124.4" opacity="0.4" stroke="rgb(0,0,0)"  stroke-width="1.8"/>
<line x1="176.1" y1="143.3" x2="194.9" y2="171.0" opacity="0.6" stroke="rgb(0,0,0)"  stroke-width="1.1"/>
<line x1="176.1" y1="143.3" x2="197.6" y2="97.6" opacity="0.4" stroke="rgb(0,0,0)"  stroke-width="1.5"/>
<line x1="176.1" y1="143.3" x2="185.9" y2="159.5" opacity="0.5" stroke="rgb(0,0,0)"  stroke-width="1.8"/>
<line x1="103.3" y1="186.4" x2="116.8" y2="214.3" opacity="0.6" stroke="rgb(0,0,0)"  stroke-width="1.9"/>
<line x1="103.3" y1="186.4" x2="109.3" y2="204.1" opacity="0.6" stroke="rgb(0,0,0)"  stroke-width="1.2"/>
<line x1="103.3" y1="186.4" x2="67.8" y2="182.6" opacity="0.4" stroke="rgb(0,0,0)"  stroke-width="1.5"/>
<line x1="106.0" y1="112.9" x2="56.5" y2="107.9" opacity="0.5" stroke="rgb(0,0,0)"  stroke-width="0.7"/>
<line x1="106.0" y1="112.9" x2="115.6" y2="127.1" opacity="0.2" stroke="rgb(0,0,0)"  stroke-width="0.4"/>
<line x1="106.0" y1="112.9" x2="119.9" y2="80.0" opacity="0.1" stroke="rgb(0,0,0)"  stroke-width="0.7"/>
<line x1="194.9" y1="171.0" x2="244.4" y2="176.0" opacity="0.2" stroke="rgb(0,0,0)"  stroke-width="0.7"/>
<line x1="194.9" y1="171.0" x2="185.3" y2="156.9" opacity="0.2" stroke="rgb(0,0,0)"  stroke-width="0.4"/>
<line x1="194.9" y1="171.0" x2="181.1" y2="204.0" opacity="0.1" stroke="rgb(0,0,0)"  stroke-width="0.7"/>
<line x1="197.6" y1="97.6" x2="184.1" y2="69.7" opacity="0.2" stroke="rgb(0,0,0)"  stroke-width="1.9"/>
<line x1="197.6" y1="97.6" x2="191.6" y2="79.8" opacity="0.6" stroke="rgb(0,0,0)"  stroke-width="1.2"/>
<line x1="197.6" y1="97.6" x2="233.1" y2="101.3" opacity="0.4" stroke="rgb(0,0,0)"  stroke-width="1.5"/>
<line x1="116.8" y1="214.3" x2="96.9" y2="243.9" opacity="0.5" stroke="rgb(0,0,0)"  stroke-width="2.4"/>
<line x1="116.8" y1="214.3" x2="112.3" y2="196.5" opacity="0.8" stroke="rgb(0,0,0)"  stroke-width="2.7"/>
<line x1="116.8" y1="214.3" x2="151.0" y2="224.5" opacity="0.9" stroke="rgb(0,0,0)"  stroke-width="2.3"/>
<line x1="56.5" y1="107.9" x2="46.4" y2="83.5" opacity="0.8" stroke="rgb(0,0,0)"  stroke-width="0.4"/>
<line x1="56.5" y1="107.9" x2="45.1" y2="97.1" opacity="0.1" stroke="rgb(0,0,0)"  stroke-width="1.0"/>
<line x1="56.5" y1="107.9" x2="40.0" y2="138.5" opacity="0.3" stroke="rgb(0,0,0)"  stroke-width="0.6"/>
<line x1="244.4" y1="176.0" x2="255.9" y2="186.8" opacity="0.2" stroke="rgb(0,0,0)"  stroke-width="1.0"/>
<line x1="244.4" y1="176.0" x2="254.5" y2="200.4" opacity="0.3" stroke="rgb(0,0,0)"  stroke-width="0.4"/>
<line x1="244.4" y1="176.0" x2="260.9" y2="145.5" opacity="0.1" stroke="rgb(0,0,0)"  stroke-width="0.6"/>
<line x1="184.1" y1="69.7" x2="204.0" y2="40.0" opacity="0.2" stroke="rgb(0,0,0)"  stroke-width="2.4"/>
<line x1="184.1" y1="69.7" x2="188.6" y2="87.4" opacity="0.8" stroke="rgb(0,0,0)"  stroke-width="2.7"/>
<line x1="184.1" y1="69.7" x2="149.9" y2="59.4" opacity="0.9" stroke="rgb(0,0,0)"  stroke-width="2.3"/>
<circle cx="115.577977" cy="127.061361" r="5.636364" opacity="0.200000" style="stroke:black;stroke-width:0.5;fill:url(#radialffffffbfbfbf)"/>
<circle cx="185.347290" cy="156.869153" r="5.636364" opacity="0.200000" style="stroke:black;stroke-width:0.5;fill:url(#radialffffffbfbfbf)"/>
<circle cx="46.432655" cy="83.512712" r="5.636364" opacity="0.238679" style="stroke:black;stroke-width:0.5;fill:url(#radialffffffbfbfbf)"/>
<circle cx="254.499146" cy="200.408001" r="5.636364" opacity="0.238874" style="stroke:black;stroke-width:0.5;fill:url(#radialffffffbfbfbf)"/>
<circle cx="40.000000" cy="138.459803" r="5.636364" opacity="0.411000" style="stroke:black;stroke-width:0.5;fill:url(#radialffffffbfbfbf)"/>
<circle cx="260.922000" cy="145.460910" r="5.636364" opacity="0.411085" style="stroke:black;stroke-width:0.5;fill:url(#radialffffffbfbfbf)"/>
<circle cx="106.009036" cy="112.908867" r="13.818182" opacity="0.473877" style="stroke:black;stroke-width:0.5;fill:url(#radialffffff666666)"/>
<circle cx="194.916232" cy="171.018380" r="13.818182" opacity="0.473877" style="stroke:black;stroke-width:0.5;fill:url(#radialffffff666666)"/>
<circle cx="56.514510" cy="107.923477" r="13.818182" opacity="0.478821" style="stroke:black;stroke-width:0.5;fill:url(#radialffffff666666)"/>
<circle cx="244.410757" cy="176.000502" r="13.818182" opacity="0.478894" style="stroke:black;stroke-width:0.5;fill:url(#radialffffff666666)"/>
<circle cx="119.857702" cy="79.954987" r="5.636364" opacity="0.482363" style="stroke:black;stroke-width:0.5;fill:url(#radialffffffbfbfbf)"/>
<circle cx="181.064298" cy="203.972260" r="5.636364" opacity="0.482387" style="stroke:black;stroke-width:0.5;fill:url(#radialffffffbfbfbf)"/>
<circle cx="109.318472" cy="204.125807" r="5.636364" opacity="0.533877" style="stroke:black;stroke-width:0.5;fill:url(#radialffffffbfbfbf)"/>
<circle cx="191.596995" cy="79.801439" r="5.636364" opacity="0.533877" style="stroke:black;stroke-width:0.5;fill:url(#radialffffffbfbfbf)"/>
<circle cx="45.050728" cy="97.073885" r="5.636364" opacity="0.676949" style="stroke:black;stroke-width:0.5;fill:url(#radialffffffbfbfbf)"/>
<circle cx="255.868005" cy="186.843560" r="5.636364" opacity="0.677000" style="stroke:black;stroke-width:0.5;fill:url(#radialffffffbfbfbf)"/>
<circle cx="124.862693" cy="140.602932" r="13.818182" opacity="0.704166" style="stroke:black;stroke-width:0.5;fill:url(#radialffffff666666)"/>
<circle cx="176.062574" cy="143.324314" r="13.818182" opacity="0.704182" style="stroke:black;stroke-width:0.5;fill:url(#radialffffff666666)"/>
<circle cx="103.290920" cy="186.373117" r="13.889715" opacity="0.708935" style="stroke:black;stroke-width:0.5;fill:url(#radialffffff666666)"/>
<circle cx="197.624546" cy="97.550862" r="13.889715" opacity="0.708935" style="stroke:black;stroke-width:0.5;fill:url(#radialffffff666666)"/>
<circle cx="67.772473" cy="182.645510" r="5.861114" opacity="0.721067" style="stroke:black;stroke-width:0.5;fill:url(#radialffffffbfbfbf)"/>
<circle cx="233.146261" cy="101.268669" r="5.861377" opacity="0.721083" style="stroke:black;stroke-width:0.5;fill:url(#radialffffffbfbfbf)"/>
<circle cx="115.035661" cy="124.441254" r="8.042898" opacity="0.844679" style="stroke:black;stroke-width:0.5;fill:url(#radialffffffbfbfbf)"/>
<circle cx="185.886339" cy="159.482725" r="8.043424" opacity="0.844707" style="stroke:black;stroke-width:0.5;fill:url(#radialffffffbfbfbf)"/>
<circle cx="149.913783" cy="59.402507" r="8.616996" opacity="0.874306" style="stroke:black;stroke-width:0.5;fill:url(#radialffffffbfbfbf)"/>
<circle cx="150.991882" cy="224.514938" r="8.617259" opacity="0.874319" style="stroke:black;stroke-width:0.5;fill:url(#radialffffffbfbfbf)"/>
<circle cx="116.848827" cy="214.256667" r="21.575362" opacity="0.883565" style="stroke:black;stroke-width:0.5;fill:url(#radialffffff666666)"/>
<circle cx="184.056839" cy="69.660779" r="21.575362" opacity="0.883565" style="stroke:black;stroke-width:0.5;fill:url(#radialffffff666666)"/>
<circle cx="96.897469" cy="243.923979" r="8.904308" opacity="0.888762" style="stroke:black;stroke-width:0.5;fill:url(#radialffffffbfbfbf)"/>
<circle cx="204.011463" cy="40.000000" r="8.904308" opacity="0.888762" style="stroke:black;stroke-width:0.5;fill:url(#radialffffffbfbfbf)"/>
<circle cx="112.262007" cy="196.546447" r="11.272464" opacity="0.999988" style="stroke:black;stroke-width:0.5;fill:url(#radialffffffbfbfbf)"/>
<circle cx="188.640391" cy="87.370998" r="11.272727" opacity="1.000000" style="stroke:black;stroke-width:0.5;fill:url(#radialffffffbfbfbf)"/>
</svg>
</g>
</svg>
