<?xml version="1.0"?>
<svg version="1.1" id="topsvg"
xmlns="http://www.w3.org/2000/svg" xmlns:xlink="http://www.w3.org/1999/xlink"
xmlns:cml="http://www.xml-cml.org/schema" x="0" y="0" width="200px" height="200px" viewBox="0 0 100 100">
<title>92239 - Open Babel Depiction</title>
<rect x="0" y="0" width="100" height="100" fill="white"/>
<defs>
<radialGradient id='radialffffff666666' cx='50%' cy='50%' r='50%' fx='30%' fy='30%'>
  <stop offset=' 0%' stop-color="rgb(255,255,255)"  stop-opacity='1.0'/>
  <stop offset='100%' stop-color="rgb(102,102,102)"  stop-opacity ='1.0'/>
</radialGradient>
<radialGradient id='radialffffffbfbfbf' cx='50%' cy='50%' r='50%' fx='30%' fy='30%'>
  <stop offset=' 0%' stop-color="rgb(255,255,255)"  stop-opacity='1.0'/>
  <stop offset='100%' stop-color="rgb(191,191,191)"  stop-opacity ='1.0'/>
</radialGradient>
</defs>
<g transform="translate(0,0)">
<svg width="100" height="100" x="0" y="0" viewBox="0 0 479.773 242.671"
font-family="sans-serif" stroke="rgb(0,0,0)" stroke-width="4"  stroke-linecap="round">
<line x1="358.5" y1="106.3" x2="313.0" y2="88.8" opacity="1.0" stroke="rgb(0,0,0)"  stroke-width="1.6"/>
<line x1="358.5" y1="106.3" x2="368.6" y2="150.6" opacity="0.5" stroke="rgb(0,0,0)"  stroke-width="1.5"/>
<line x1="358.5" y1="106.3" x2="393.0" y2="71.8" opacity="0.5" stroke="rgb(0,0,0)"  stroke-width="1.7"/>
<polygon points="358.470474 106.278716 362.634354 110.609816 354.639883 110.907203 " stroke-width="1.668443" fill="rgb(0,0,0)"  stroke="rgb(0,0,0)" />
<line x1="313.0" y1="88.8" x2="275.3" y2="119.6" opacity="0.6" stroke="rgb(0,0,0)"  stroke-width="1.6"/>
<line x1="313.0" y1="88.8" x2="312.5" y2="82.6" opacity="0.5" stroke="rgb(0,0,0)"  stroke-width="0.8"/>
<line x1="313.0" y1="88.8" x2="307.6" y2="57.2" opacity="0.3" stroke="rgb(0,0,0)"  stroke-width="1.7"/>
<line x1="275.3" y1="119.6" x2="231.1" y2="99.2" opacity="0.6" stroke="rgb(0,0,0)"  stroke-width="1.6"/>
<line x1="275.3" y1="119.6" x2="276.2" y2="126.9" opacity="0.5" stroke="rgb(0,0,0)"  stroke-width="2.4"/>
<line x1="275.3" y1="119.6" x2="278.4" y2="150.5" opacity="0.8" stroke="rgb(0,0,0)"  stroke-width="1.5"/>
<line x1="231.1" y1="99.2" x2="192.1" y2="128.8" opacity="0.5" stroke="rgb(0,0,0)"  stroke-width="1.6"/>
<line x1="231.1" y1="99.2" x2="230.7" y2="91.3" opacity="0.5" stroke="rgb(0,0,0)"  stroke-width="0.9"/>
<line x1="231.1" y1="99.2" x2="227.3" y2="68.2" opacity="0.3" stroke="rgb(0,0,0)"  stroke-width="1.7"/>
<line x1="192.1" y1="128.8" x2="148.0" y2="108.1" opacity="0.6" stroke="rgb(0,0,0)"  stroke-width="1.6"/>
<line x1="192.1" y1="128.8" x2="192.8" y2="137.2" opacity="0.5" stroke="rgb(0,0,0)"  stroke-width="2.3"/>
<line x1="192.1" y1="128.8" x2="195.7" y2="159.5" opacity="0.8" stroke="rgb(0,0,0)"  stroke-width="1.5"/>
<line x1="368.6" y1="150.6" x2="412.9" y2="169.6" opacity="0.5" stroke="rgb(0,0,0)"  stroke-width="1.4"/>
<line x1="368.6" y1="150.6" x2="343.9" y2="174.7" opacity="0.5" stroke="rgb(0,0,0)"  stroke-width="1.3"/>
<line x1="368.6" y1="150.6" x2="366.9" y2="147.6" opacity="0.4" stroke="rgb(0,0,0)"  stroke-width="0.6"/>
<line x1="148.0" y1="108.1" x2="110.4" y2="139.9" opacity="0.2" stroke="rgb(0,0,0)"  stroke-width="1.5"/>
<line x1="148.0" y1="108.1" x2="147.6" y2="98.4" opacity="0.5" stroke="rgb(0,0,0)"  stroke-width="0.8"/>
<line x1="148.0" y1="108.1" x2="143.5" y2="78.4" opacity="0.3" stroke="rgb(0,0,0)"  stroke-width="1.7"/>
<line x1="393.0" y1="71.8" x2="384.3" y2="40.0" opacity="0.6" stroke="rgb(0,0,0)"  stroke-width="1.7"/>
<line x1="393.0" y1="71.8" x2="425.0" y2="80.6" opacity="0.6" stroke="rgb(0,0,0)"  stroke-width="1.7"/>
<line x1="393.0" y1="71.8" x2="396.3" y2="67.8" opacity="0.6" stroke="rgb(0,0,0)"  stroke-width="0.9"/>
<line x1="110.4" y1="139.9" x2="66.4" y2="119.2" opacity="0.3" stroke="rgb(0,0,0)"  stroke-width="1.5"/>
<line x1="110.4" y1="139.9" x2="111.0" y2="150.2" opacity="0.5" stroke="rgb(0,0,0)"  stroke-width="2.2"/>
<line x1="110.4" y1="139.9" x2="114.4" y2="169.3" opacity="0.7" stroke="rgb(0,0,0)"  stroke-width="1.4"/>
<line x1="412.9" y1="169.6" x2="439.8" y2="150.1" opacity="0.5" stroke="rgb(0,0,0)"  stroke-width="1.3"/>
<line x1="412.9" y1="169.6" x2="416.4" y2="171.3" opacity="0.4" stroke="rgb(0,0,0)"  stroke-width="2.1"/>
<line x1="412.9" y1="169.6" x2="416.2" y2="202.7" opacity="0.7" stroke="rgb(0,0,0)"  stroke-width="1.3"/>
<line x1="66.4" y1="119.2" x2="64.3" y2="109.4" opacity="0.4" stroke="rgb(0,0,0)"  stroke-width="0.8"/>
<line x1="66.4" y1="119.2" x2="40.0" y2="142.5" opacity="0.3" stroke="rgb(0,0,0)"  stroke-width="1.5"/>
<line x1="66.4" y1="119.2" x2="60.9" y2="90.3" opacity="0.5" stroke="rgb(0,0,0)"  stroke-width="1.7"/>
<circle cx="366.910522" cy="147.557509" r="5.636364" opacity="0.200000" style="stroke:black;stroke-width:0.5;fill:url(#radialffffffbfbfbf)"/>
<circle cx="64.274531" cy="109.399214" r="5.636364" opacity="0.290285" style="stroke:black;stroke-width:0.5;fill:url(#radialffffffbfbfbf)"/>
<circle cx="312.519104" cy="82.621750" r="5.636364" opacity="0.305111" style="stroke:black;stroke-width:0.5;fill:url(#radialffffffbfbfbf)"/>
<circle cx="147.586917" cy="98.413755" r="5.636364" opacity="0.307522" style="stroke:black;stroke-width:0.5;fill:url(#radialffffffbfbfbf)"/>
<circle cx="230.729391" cy="91.293793" r="5.636364" opacity="0.310821" style="stroke:black;stroke-width:0.5;fill:url(#radialffffffbfbfbf)"/>
<circle cx="396.298748" cy="67.832878" r="5.636364" opacity="0.337978" style="stroke:black;stroke-width:0.5;fill:url(#radialffffffbfbfbf)"/>
<circle cx="114.411616" cy="169.332374" r="5.636364" opacity="0.587644" style="stroke:black;stroke-width:0.5;fill:url(#radialffffffbfbfbf)"/>
<circle cx="439.773325" cy="150.076780" r="5.636364" opacity="0.614472" style="stroke:black;stroke-width:0.5;fill:url(#radialffffffbfbfbf)"/>
<circle cx="416.204582" cy="202.671052" r="5.636364" opacity="0.615130" style="stroke:black;stroke-width:0.5;fill:url(#radialffffffbfbfbf)"/>
<circle cx="368.619444" cy="150.619191" r="13.818182" opacity="0.619545" style="stroke:black;stroke-width:0.5;fill:url(#radialffffff666666)"/>
<circle cx="195.727536" cy="159.503623" r="5.636364" opacity="0.624324" style="stroke:black;stroke-width:0.5;fill:url(#radialffffffbfbfbf)"/>
<circle cx="278.353740" cy="150.540770" r="5.636364" opacity="0.640808" style="stroke:black;stroke-width:0.5;fill:url(#radialffffffbfbfbf)"/>
<circle cx="66.359219" cy="119.224697" r="13.818182" opacity="0.673638" style="stroke:black;stroke-width:0.5;fill:url(#radialffffff666666)"/>
<circle cx="147.969219" cy="108.131410" r="13.818182" opacity="0.682507" style="stroke:black;stroke-width:0.5;fill:url(#radialffffff666666)"/>
<circle cx="231.121495" cy="99.207767" r="13.818182" opacity="0.687692" style="stroke:black;stroke-width:0.5;fill:url(#radialffffff666666)"/>
<circle cx="313.025573" cy="88.830070" r="13.818182" opacity="0.687973" style="stroke:black;stroke-width:0.5;fill:url(#radialffffff666666)"/>
<circle cx="343.949541" cy="174.691134" r="5.636364" opacity="0.697820" style="stroke:black;stroke-width:0.5;fill:url(#radialffffffbfbfbf)"/>
<circle cx="393.034479" cy="71.799668" r="13.818182" opacity="0.703866" style="stroke:black;stroke-width:0.5;fill:url(#radialffffff666666)"/>
<circle cx="412.878230" cy="169.554567" r="14.363445" opacity="0.720923" style="stroke:black;stroke-width:0.5;fill:url(#radialffffff666666)"/>
<circle cx="40.000000" cy="142.505897" r="5.904762" opacity="0.723747" style="stroke:black;stroke-width:0.5;fill:url(#radialffffffbfbfbf)"/>
<circle cx="110.425221" cy="139.904938" r="15.498680" opacity="0.748871" style="stroke:black;stroke-width:0.5;fill:url(#radialffffff666666)"/>
<circle cx="192.133246" cy="128.795313" r="16.170295" opacity="0.764924" style="stroke:black;stroke-width:0.5;fill:url(#radialffffff666666)"/>
<circle cx="275.275720" cy="119.567789" r="16.593093" opacity="0.774860" style="stroke:black;stroke-width:0.5;fill:url(#radialffffff666666)"/>
<circle cx="358.470474" cy="106.278716" r="17.047964" opacity="0.785409" style="stroke:black;stroke-width:0.5;fill:url(#radialffffff666666)"/>
<circle cx="425.040002" cy="80.576272" r="7.198783" opacity="0.799126" style="stroke:black;stroke-width:0.5;fill:url(#radialffffffbfbfbf)"/>
<circle cx="384.300353" cy="40.000000" r="7.274108" opacity="0.803296" style="stroke:black;stroke-width:0.5;fill:url(#radialffffffbfbfbf)"/>
<circle cx="307.578589" cy="57.219919" r="7.282830" opacity="0.803777" style="stroke:black;stroke-width:0.5;fill:url(#radialffffffbfbfbf)"/>
<circle cx="227.301745" cy="68.241321" r="7.473128" opacity="0.814210" style="stroke:black;stroke-width:0.5;fill:url(#radialffffffbfbfbf)"/>
<circle cx="60.892630" cy="90.300462" r="7.580566" opacity="0.820042" style="stroke:black;stroke-width:0.5;fill:url(#radialffffffbfbfbf)"/>
<circle cx="143.531904" cy="78.351079" r="7.607921" opacity="0.821521" style="stroke:black;stroke-width:0.5;fill:url(#radialffffffbfbfbf)"/>
<circle cx="416.433310" cy="171.341909" r="10.170986" opacity="0.949876" style="stroke:black;stroke-width:0.5;fill:url(#radialffffffbfbfbf)"/>
<circle cx="111.039518" cy="150.240157" r="10.482598" opacity="0.964317" style="stroke:black;stroke-width:0.5;fill:url(#radialffffffbfbfbf)"/>
<circle cx="192.780218" cy="137.245163" r="10.821961" opacity="0.979802" style="stroke:black;stroke-width:0.5;fill:url(#radialffffffbfbfbf)"/>
<circle cx="276.154687" cy="126.942619" r="11.019791" opacity="0.988717" style="stroke:black;stroke-width:0.5;fill:url(#radialffffffbfbfbf)"/>
<circle cx="358.637119" cy="110.758509" r="11.272727" opacity="1.000000" style="stroke:black;stroke-width:0.5;fill:url(#radialffffffbfbfbf)"/>
</svg>
</g>
</svg>
