<?xml version="1.0"?>
<svg version="1.1" id="topsvg"
xmlns="http://www.w3.org/2000/svg" xmlns:xlink="http://www.w3.org/1999/xlink"
xmlns:cml="http://www.xml-cml.org/schema" x="0" y="0" width="1024px" height="1024px" viewBox="0 0 100 100">
<title>9265 - Open Babel Depiction</title>
<rect x="0" y="0" width="100" height="100" fill="white"/>
<defs>
<radialGradient id='radialffffff666666' cx='50%' cy='50%' r='50%' fx='30%' fy='30%'>
  <stop offset=' 0%' stop-color="rgb(255,255,255)"  stop-opacity='1.0'/>
  <stop offset='100%' stop-color="rgb(102,102,102)"  stop-opacity ='1.0'/>
</radialGradient>
<radialGradient id='radialffffffbfbfbf' cx='50%' cy='50%' r='50%' fx='30%' fy='30%'>
  <stop offset=' 0%' stop-color="rgb(255,255,255)"  stop-opacity='1.0'/>
  <stop offset='100%' stop-color="rgb(191,191,191)"  stop-opacity ='1.0'/>
</radialGradient>
</defs>
<g transform="translate(0,0)">
<svg width="100" height="100" x="0" y="0" viewBox="0 0 235.946 246.093"
font-family="sans-serif" stroke="rgb(0,0,0)" stroke-width="2"  stroke-linecap="round">
<line x1="127.7" y1="74.6" x2="134.8" y2="40.0" opacity="1.0" stroke="rgb(0,0,0)"  stroke-width="1.1"/>
<line x1="127.7" y1="74.6" x2="122.4" y2="81.5" opacity="0.4" stroke="rgb(0,0,0)"  stroke-width="0.6"/>
<line x1="87.1" y1="83.2" x2="95.3" y2="85.4" opacity="0.2" stroke="rgb(0,0,0)"  stroke-width="2.5"/>
<line x1="87.1" y1="83.2" x2="65.5" y2="55.3" opacity="0.8" stroke="rgb(0,0,0)"  stroke-width="1.9"/>
<line x1="167.0" y1="98.8" x2="170.5" y2="92.8" opacity="0.6" stroke="rgb(0,0,0)"  stroke-width="2.2"/>
<line x1="167.0" y1="98.8" x2="195.9" y2="85.2" opacity="0.7" stroke="rgb(0,0,0)"  stroke-width="1.4"/>
<line x1="61.4" y1="123.1" x2="40.0" y2="131.7" opacity="0.5" stroke="rgb(0,0,0)"  stroke-width="1.9"/>
<line x1="61.4" y1="123.1" x2="40.0" y2="114.5" opacity="0.6" stroke="rgb(0,0,0)"  stroke-width="1.1"/>
<line x1="167.0" y1="147.3" x2="170.5" y2="153.3" opacity="0.4" stroke="rgb(0,0,0)"  stroke-width="0.8"/>
<line x1="167.0" y1="147.3" x2="195.9" y2="160.9" opacity="0.3" stroke="rgb(0,0,0)"  stroke-width="1.6"/>
<line x1="87.1" y1="162.9" x2="95.3" y2="160.7" opacity="0.5" stroke="rgb(0,0,0)"  stroke-width="0.5"/>
<line x1="87.1" y1="162.9" x2="65.5" y2="190.9" opacity="0.2" stroke="rgb(0,0,0)"  stroke-width="1.1"/>
<line x1="127.7" y1="171.5" x2="134.9" y2="206.1" opacity="0.4" stroke="rgb(0,0,0)"  stroke-width="1.9"/>
<line x1="127.7" y1="171.5" x2="122.4" y2="164.6" opacity="0.6" stroke="rgb(0,0,0)"  stroke-width="2.4"/>
<line x1="87.1" y1="83.2" x2="127.7" y2="74.6" opacity="0.8" stroke="rgb(0,0,0)"  stroke-width="1.5"/>
<line x1="127.7" y1="74.6" x2="167.0" y2="98.8" opacity="0.5" stroke="rgb(0,0,0)"  stroke-width="1.4"/>
<line x1="167.0" y1="98.8" x2="167.0" y2="147.3" opacity="0.5" stroke="rgb(0,0,0)"  stroke-width="1.5"/>
<line x1="167.0" y1="147.3" x2="127.7" y2="171.5" opacity="0.5" stroke="rgb(0,0,0)"  stroke-width="1.6"/>
<line x1="127.7" y1="171.5" x2="87.1" y2="162.9" opacity="0.5" stroke="rgb(0,0,0)"  stroke-width="1.5"/>
<line x1="87.1" y1="162.9" x2="61.4" y2="123.1" opacity="0.5" stroke="rgb(0,0,0)"  stroke-width="1.3"/>
<line x1="61.4" y1="123.1" x2="87.1" y2="83.2" opacity="0.4" stroke="rgb(0,0,0)"  stroke-width="1.7"/>
<circle cx="95.276179" cy="160.673531" r="5.636364" opacity="0.200000" style="stroke:black;stroke-width:0.5;fill:url(#radialffffffbfbfbf)"/>
<circle cx="122.417564" cy="81.526480" r="5.636364" opacity="0.200000" style="stroke:black;stroke-width:0.5;fill:url(#radialffffffbfbfbf)"/>
<circle cx="170.526998" cy="153.306814" r="5.636364" opacity="0.305622" style="stroke:black;stroke-width:0.5;fill:url(#radialffffffbfbfbf)"/>
<circle cx="40.000000" cy="114.460606" r="5.636364" opacity="0.467893" style="stroke:black;stroke-width:0.5;fill:url(#radialffffffbfbfbf)"/>
<circle cx="87.064419" cy="162.899027" r="13.818182" opacity="0.600024" style="stroke:black;stroke-width:0.5;fill:url(#radialffffff666666)"/>
<circle cx="127.671671" cy="74.591961" r="13.818182" opacity="0.602806" style="stroke:black;stroke-width:0.5;fill:url(#radialffffff666666)"/>
<circle cx="195.933140" cy="85.203387" r="5.636364" opacity="0.619156" style="stroke:black;stroke-width:0.5;fill:url(#radialffffffbfbfbf)"/>
<circle cx="134.844867" cy="40.000000" r="5.636364" opacity="0.622097" style="stroke:black;stroke-width:0.5;fill:url(#radialffffffbfbfbf)"/>
<circle cx="65.541607" cy="190.859653" r="5.636364" opacity="0.624348" style="stroke:black;stroke-width:0.5;fill:url(#radialffffffbfbfbf)"/>
<circle cx="167.030710" cy="147.291522" r="13.818182" opacity="0.676055" style="stroke:black;stroke-width:0.5;fill:url(#radialffffff666666)"/>
<circle cx="61.445403" cy="123.059410" r="13.820517" opacity="0.707167" style="stroke:black;stroke-width:0.5;fill:url(#radialffffff666666)"/>
<circle cx="167.024260" cy="98.795044" r="15.007028" opacity="0.736897" style="stroke:black;stroke-width:0.5;fill:url(#radialffffff666666)"/>
<circle cx="65.515804" cy="55.252716" r="6.876970" opacity="0.781059" style="stroke:black;stroke-width:0.5;fill:url(#radialffffffbfbfbf)"/>
<circle cx="134.867444" cy="206.093017" r="6.908980" opacity="0.782875" style="stroke:black;stroke-width:0.5;fill:url(#radialffffffbfbfbf)"/>
<circle cx="195.946042" cy="160.876728" r="6.952804" opacity="0.785354" style="stroke:black;stroke-width:0.5;fill:url(#radialffffffbfbfbf)"/>
<circle cx="127.687798" cy="171.504281" r="17.593062" opacity="0.797867" style="stroke:black;stroke-width:0.5;fill:url(#radialffffff666666)"/>
<circle cx="87.054743" cy="83.206891" r="17.685554" opacity="0.799961" style="stroke:black;stroke-width:0.5;fill:url(#radialffffff666666)"/>
<circle cx="40.025803" cy="131.674340" r="8.809045" opacity="0.883995" style="stroke:black;stroke-width:0.5;fill:url(#radialffffffbfbfbf)"/>
<circle cx="170.510871" cy="92.773302" r="10.220565" opacity="0.952189" style="stroke:black;stroke-width:0.5;fill:url(#radialffffffbfbfbf)"/>
<circle cx="122.427240" cy="164.582664" r="11.223949" opacity="0.997834" style="stroke:black;stroke-width:0.5;fill:url(#radialffffffbfbfbf)"/>
<circle cx="95.269728" cy="85.413035" r="11.272727" opacity="1.000000" style="stroke:black;stroke-width:0.5;fill:url(#radialffffffbfbfbf)"/>
</svg>
</g>
</svg>
