<?xml version="1.0"?>
<svg version="1.1" id="topsvg"
xmlns="http://www.w3.org/2000/svg" xmlns:xlink="http://www.w3.org/1999/xlink"
xmlns:cml="http://www.xml-cml.org/schema" x="0" y="0" width="200px" height="200px" viewBox="0 0 100 100">
<title>92723 - Open Babel Depiction</title>
<rect x="0" y="0" width="100" height="100" fill="white"/>
<defs>
<radialGradient id='radialffffff666666' cx='50%' cy='50%' r='50%' fx='30%' fy='30%'>
  <stop offset=' 0%' stop-color="rgb(255,255,255)"  stop-opacity='1.0'/>
  <stop offset='100%' stop-color="rgb(102,102,102)"  stop-opacity ='1.0'/>
</radialGradient>
<radialGradient id='radialffffffbfbfbf' cx='50%' cy='50%' r='50%' fx='30%' fy='30%'>
  <stop offset=' 0%' stop-color="rgb(255,255,255)"  stop-opacity='1.0'/>
  <stop offset='100%' stop-color="rgb(191,191,191)"  stop-opacity ='1.0'/>
</radialGradient>
</defs>
<g transform="translate(0,0)">
<svg width="100" height="100" x="0" y="0" viewBox="0 0 295.672 215.558"
font-family="sans-serif" stroke="rgb(0,0,0)" stroke-width="4"  stroke-linecap="round">
<line x1="156.2" y1="117.2" x2="106.3" y2="100.8" opacity="1.0" stroke="rgb(0,0,0)"  stroke-width="1.5"/>
<line x1="156.2" y1="117.2" x2="188.3" y2="77.4" opacity="0.5" stroke="rgb(0,0,0)"  stroke-width="1.5"/>
<line x1="156.2" y1="117.2" x2="165.2" y2="147.5" opacity="0.5" stroke="rgb(0,0,0)"  stroke-width="1.1"/>
<line x1="156.2" y1="117.2" x2="166.4" y2="144.0" opacity="0.4" stroke="rgb(0,0,0)"  stroke-width="1.9"/>
<line x1="106.3" y1="100.8" x2="73.7" y2="139.3" opacity="0.6" stroke="rgb(0,0,0)"  stroke-width="1.5"/>
<line x1="106.3" y1="100.8" x2="94.5" y2="75.0" opacity="0.5" stroke="rgb(0,0,0)"  stroke-width="1.1"/>
<line x1="106.3" y1="100.8" x2="96.5" y2="70.3" opacity="0.4" stroke="rgb(0,0,0)"  stroke-width="1.9"/>
<line x1="188.3" y1="77.4" x2="237.0" y2="87.8" opacity="0.6" stroke="rgb(0,0,0)"  stroke-width="1.5"/>
<line x1="188.3" y1="77.4" x2="181.8" y2="55.3" opacity="0.5" stroke="rgb(0,0,0)"  stroke-width="1.7"/>
<line x1="188.3" y1="77.4" x2="182.5" y2="58.8" opacity="0.6" stroke="rgb(0,0,0)"  stroke-width="1.1"/>
<line x1="165.2" y1="147.5" x2="198.2" y2="161.1" opacity="0.4" stroke="rgb(0,0,0)"  stroke-width="0.7"/>
<line x1="165.2" y1="147.5" x2="143.2" y2="175.6" opacity="0.2" stroke="rgb(0,0,0)"  stroke-width="0.7"/>
<line x1="165.2" y1="147.5" x2="162.2" y2="130.1" opacity="0.2" stroke="rgb(0,0,0)"  stroke-width="0.4"/>
<line x1="166.4" y1="144.0" x2="164.6" y2="123.9" opacity="0.1" stroke="rgb(0,0,0)"  stroke-width="2.7"/>
<line x1="166.4" y1="144.0" x2="199.2" y2="158.0" opacity="0.9" stroke="rgb(0,0,0)"  stroke-width="2.4"/>
<line x1="166.4" y1="144.0" x2="144.3" y2="171.7" opacity="0.8" stroke="rgb(0,0,0)"  stroke-width="2.4"/>
<line x1="73.7" y1="139.3" x2="40.0" y2="127.4" opacity="0.8" stroke="rgb(0,0,0)"  stroke-width="1.6"/>
<line x1="73.7" y1="139.3" x2="76.8" y2="161.7" opacity="0.5" stroke="rgb(0,0,0)"  stroke-width="1.3"/>
<line x1="73.7" y1="139.3" x2="77.4" y2="158.0" opacity="0.4" stroke="rgb(0,0,0)"  stroke-width="1.9"/>
<line x1="94.5" y1="75.0" x2="114.2" y2="45.4" opacity="0.6" stroke="rgb(0,0,0)"  stroke-width="0.6"/>
<line x1="94.5" y1="75.0" x2="60.3" y2="64.5" opacity="0.2" stroke="rgb(0,0,0)"  stroke-width="0.6"/>
<line x1="94.5" y1="75.0" x2="98.6" y2="94.7" opacity="0.2" stroke="rgb(0,0,0)"  stroke-width="0.4"/>
<line x1="96.5" y1="70.3" x2="115.1" y2="40.0" opacity="0.1" stroke="rgb(0,0,0)"  stroke-width="2.3"/>
<line x1="96.5" y1="70.3" x2="103.0" y2="86.1" opacity="0.8" stroke="rgb(0,0,0)"  stroke-width="2.7"/>
<line x1="96.5" y1="70.3" x2="61.9" y2="60.9" opacity="0.9" stroke="rgb(0,0,0)"  stroke-width="2.3"/>
<line x1="237.0" y1="87.8" x2="247.1" y2="108.5" opacity="0.8" stroke="rgb(0,0,0)"  stroke-width="1.2"/>
<line x1="237.0" y1="87.8" x2="246.3" y2="103.5" opacity="0.4" stroke="rgb(0,0,0)"  stroke-width="1.8"/>
<line x1="237.0" y1="87.8" x2="255.7" y2="57.4" opacity="0.6" stroke="rgb(0,0,0)"  stroke-width="1.5"/>
<circle cx="98.619943" cy="94.739123" r="5.636364" opacity="0.200000" style="stroke:black;stroke-width:0.5;fill:url(#radialffffffbfbfbf)"/>
<circle cx="162.242555" cy="130.103499" r="5.636364" opacity="0.200000" style="stroke:black;stroke-width:0.5;fill:url(#radialffffffbfbfbf)"/>
<circle cx="114.198661" cy="45.449453" r="5.636364" opacity="0.426926" style="stroke:black;stroke-width:0.5;fill:url(#radialffffffbfbfbf)"/>
<circle cx="94.514101" cy="74.992600" r="13.818182" opacity="0.454733" style="stroke:black;stroke-width:0.5;fill:url(#radialffffff666666)"/>
<circle cx="60.320493" cy="64.491559" r="5.636364" opacity="0.460117" style="stroke:black;stroke-width:0.5;fill:url(#radialffffffbfbfbf)"/>
<circle cx="143.184144" cy="175.558006" r="5.636364" opacity="0.467160" style="stroke:black;stroke-width:0.5;fill:url(#radialffffffbfbfbf)"/>
<circle cx="165.190673" cy="147.511747" r="13.818182" opacity="0.472815" style="stroke:black;stroke-width:0.5;fill:url(#radialffffff666666)"/>
<circle cx="198.210252" cy="161.097876" r="5.636364" opacity="0.481767" style="stroke:black;stroke-width:0.5;fill:url(#radialffffffbfbfbf)"/>
<circle cx="182.517391" cy="58.830128" r="5.636364" opacity="0.526206" style="stroke:black;stroke-width:0.5;fill:url(#radialffffffbfbfbf)"/>
<circle cx="247.079227" cy="108.507879" r="5.636364" opacity="0.554262" style="stroke:black;stroke-width:0.5;fill:url(#radialffffffbfbfbf)"/>
<circle cx="76.769950" cy="161.691413" r="5.636364" opacity="0.571079" style="stroke:black;stroke-width:0.5;fill:url(#radialffffffbfbfbf)"/>
<circle cx="255.672471" cy="57.444121" r="5.636364" opacity="0.694248" style="stroke:black;stroke-width:0.5;fill:url(#radialffffffbfbfbf)"/>
<circle cx="188.257091" cy="77.448278" r="13.818182" opacity="0.698049" style="stroke:black;stroke-width:0.5;fill:url(#radialffffff666666)"/>
<circle cx="236.963007" cy="87.796043" r="13.818182" opacity="0.705850" style="stroke:black;stroke-width:0.5;fill:url(#radialffffff666666)"/>
<circle cx="156.166953" cy="117.202220" r="13.827997" opacity="0.707358" style="stroke:black;stroke-width:0.5;fill:url(#radialffffff666666)"/>
<circle cx="106.303313" cy="100.827770" r="13.830529" opacity="0.707423" style="stroke:black;stroke-width:0.5;fill:url(#radialffffff666666)"/>
<circle cx="40.000000" cy="127.370619" r="5.831496" opacity="0.719243" style="stroke:black;stroke-width:0.5;fill:url(#radialffffffbfbfbf)"/>
<circle cx="73.733779" cy="139.319630" r="14.371922" opacity="0.721136" style="stroke:black;stroke-width:0.5;fill:url(#radialffffff666666)"/>
<circle cx="181.780362" cy="55.304778" r="7.651352" opacity="0.823862" style="stroke:black;stroke-width:0.5;fill:url(#radialffffffbfbfbf)"/>
<circle cx="246.270452" cy="103.524777" r="8.040584" opacity="0.844558" style="stroke:black;stroke-width:0.5;fill:url(#radialffffffbfbfbf)"/>
<circle cx="77.370010" cy="157.967131" r="8.252117" opacity="0.855595" style="stroke:black;stroke-width:0.5;fill:url(#radialffffffbfbfbf)"/>
<circle cx="115.144407" cy="40.000000" r="8.617844" opacity="0.874349" style="stroke:black;stroke-width:0.5;fill:url(#radialffffffbfbfbf)"/>
<circle cx="96.457772" cy="70.345400" r="21.414462" opacity="0.880264" style="stroke:black;stroke-width:0.5;fill:url(#radialffffff666666)"/>
<circle cx="61.941306" cy="60.920553" r="8.761708" opacity="0.881617" style="stroke:black;stroke-width:0.5;fill:url(#radialffffffbfbfbf)"/>
<circle cx="199.221221" cy="157.980176" r="8.849524" opacity="0.886024" style="stroke:black;stroke-width:0.5;fill:url(#radialffffffbfbfbf)"/>
<circle cx="166.377748" cy="143.953785" r="21.917862" opacity="0.890551" style="stroke:black;stroke-width:0.5;fill:url(#radialffffff666666)"/>
<circle cx="144.270121" cy="171.651097" r="9.254768" opacity="0.906084" style="stroke:black;stroke-width:0.5;fill:url(#radialffffffbfbfbf)"/>
<circle cx="103.042120" cy="86.145880" r="11.213322" opacity="0.997362" style="stroke:black;stroke-width:0.5;fill:url(#radialffffffbfbfbf)"/>
<circle cx="164.593875" cy="123.884404" r="11.272727" opacity="1.000000" style="stroke:black;stroke-width:0.5;fill:url(#radialffffffbfbfbf)"/>
</svg>
</g>
</svg>
