<?xml version="1.0"?>
<svg version="1.1" id="topsvg"
xmlns="http://www.w3.org/2000/svg" xmlns:xlink="http://www.w3.org/1999/xlink"
xmlns:cml="http://www.xml-cml.org/schema" x="0" y="0" width="1024px" height="1024px" viewBox="0 0 100 100">
<title>92978 - Open Babel Depiction</title>
<rect x="0" y="0" width="100" height="100" fill="white"/>
<defs>
<radialGradient id='radialffffff666666' cx='50%' cy='50%' r='50%' fx='30%' fy='30%'>
  <stop offset=' 0%' stop-color="rgb(255,255,255)"  stop-opacity='1.0'/>
  <stop offset='100%' stop-color="rgb(102,102,102)"  stop-opacity ='1.0'/>
</radialGradient>
<radialGradient id='radialffffffbfbfbf' cx='50%' cy='50%' r='50%' fx='30%' fy='30%'>
  <stop offset=' 0%' stop-color="rgb(255,255,255)"  stop-opacity='1.0'/>
  <stop offset='100%' stop-color="rgb(191,191,191)"  stop-opacity ='1.0'/>
</radialGradient>
</defs>
<g transform="translate(0,0)">
<svg width="100" height="100" x="0" y="0" viewBox="0 0 399.981 215.599"
font-family="sans-serif" stroke="rgb(0,0,0)" stroke-width="2"  stroke-linecap="round">
<line x1="168.5" y1="110.5" x2="148.6" y2="119.2" opacity="1.0" stroke="rgb(0,0,0)"  stroke-width="1.5"/>
<line x1="168.5" y1="110.5" x2="216.9" y2="124.1" opacity="0.5" stroke="rgb(0,0,0)"  stroke-width="2.1"/>
<line x1="168.5" y1="110.5" x2="161.9" y2="62.3" opacity="0.7" stroke="rgb(0,0,0)"  stroke-width="2.2"/>
<polygon points="168.473996 110.468677 154.168973 132.929960 148.143313 127.667696 " stroke-width="2.218128" fill="rgb(0,0,0)"  stroke="rgb(0,0,0)" />
<line x1="148.6" y1="119.2" x2="98.7" y2="112.7" opacity="0.7" stroke="rgb(0,0,0)"  stroke-width="0.9"/>
<line x1="148.6" y1="119.2" x2="164.6" y2="98.5" opacity="0.3" stroke="rgb(0,0,0)"  stroke-width="0.7"/>
<line x1="148.6" y1="119.2" x2="156.1" y2="153.1" opacity="0.2" stroke="rgb(0,0,0)"  stroke-width="0.9"/>
<line x1="216.9" y1="124.1" x2="248.7" y2="100.2" opacity="0.3" stroke="rgb(0,0,0)"  stroke-width="1.8"/>
<line x1="216.9" y1="124.1" x2="227.3" y2="119.2" opacity="0.6" stroke="rgb(0,0,0)"  stroke-width="2.6"/>
<line x1="216.9" y1="124.1" x2="219.2" y2="159.4" opacity="0.9" stroke="rgb(0,0,0)"  stroke-width="2.1"/>
<line x1="98.7" y1="112.7" x2="75.3" y2="141.6" opacity="0.7" stroke="rgb(0,0,0)"  stroke-width="1.3"/>
<line x1="98.7" y1="112.7" x2="85.1" y2="65.0" opacity="0.4" stroke="rgb(0,0,0)"  stroke-width="1.0"/>
<line x1="98.7" y1="112.7" x2="89.0" y2="122.9" opacity="0.3" stroke="rgb(0,0,0)"  stroke-width="0.5"/>
<line x1="248.7" y1="100.2" x2="295.3" y2="117.8" opacity="0.2" stroke="rgb(0,0,0)"  stroke-width="1.5"/>
<line x1="248.7" y1="100.2" x2="248.4" y2="65.0" opacity="0.5" stroke="rgb(0,0,0)"  stroke-width="1.5"/>
<line x1="248.7" y1="100.2" x2="238.5" y2="104.3" opacity="0.5" stroke="rgb(0,0,0)"  stroke-width="1.0"/>
<line x1="161.9" y1="62.3" x2="166.6" y2="40.0" opacity="0.3" stroke="rgb(0,0,0)"  stroke-width="2.0"/>
<line x1="161.9" y1="62.3" x2="130.4" y2="56.7" opacity="0.7" stroke="rgb(0,0,0)"  stroke-width="2.6"/>
<line x1="161.9" y1="62.3" x2="185.9" y2="52.7" opacity="0.9" stroke="rgb(0,0,0)"  stroke-width="2.7"/>
<line x1="295.3" y1="117.8" x2="326.9" y2="95.1" opacity="0.9" stroke="rgb(0,0,0)"  stroke-width="1.2"/>
<line x1="295.3" y1="117.8" x2="295.8" y2="153.1" opacity="0.4" stroke="rgb(0,0,0)"  stroke-width="1.5"/>
<line x1="295.3" y1="117.8" x2="306.3" y2="113.1" opacity="0.5" stroke="rgb(0,0,0)"  stroke-width="2.0"/>
<line x1="75.3" y1="141.6" x2="79.8" y2="130.3" opacity="0.7" stroke="rgb(0,0,0)"  stroke-width="2.1"/>
<line x1="75.3" y1="141.6" x2="86.5" y2="175.6" opacity="0.7" stroke="rgb(0,0,0)"  stroke-width="1.7"/>
<line x1="75.3" y1="141.6" x2="40.0" y2="141.6" opacity="0.6" stroke="rgb(0,0,0)"  stroke-width="1.6"/>
<line x1="85.1" y1="65.0" x2="53.8" y2="60.0" opacity="0.5" stroke="rgb(0,0,0)"  stroke-width="0.8"/>
<line x1="85.1" y1="65.0" x2="78.4" y2="56.1" opacity="0.3" stroke="rgb(0,0,0)"  stroke-width="1.4"/>
<line x1="85.1" y1="65.0" x2="108.0" y2="42.0" opacity="0.5" stroke="rgb(0,0,0)"  stroke-width="0.9"/>
<line x1="326.9" y1="95.1" x2="317.4" y2="100.2" opacity="0.3" stroke="rgb(0,0,0)"  stroke-width="0.4"/>
<line x1="326.9" y1="95.1" x2="328.0" y2="59.9" opacity="0.1" stroke="rgb(0,0,0)"  stroke-width="0.9"/>
<line x1="326.9" y1="95.1" x2="360.0" y2="108.2" opacity="0.3" stroke="rgb(0,0,0)"  stroke-width="0.9"/>
<circle cx="317.363692" cy="100.223208" r="5.636364" opacity="0.200000" style="stroke:black;stroke-width:0.5;fill:url(#radialffffffbfbfbf)"/>
<circle cx="89.012728" cy="122.915679" r="5.636364" opacity="0.200000" style="stroke:black;stroke-width:0.5;fill:url(#radialffffffbfbfbf)"/>
<circle cx="164.627038" cy="98.482917" r="5.636364" opacity="0.354765" style="stroke:black;stroke-width:0.5;fill:url(#radialffffffbfbfbf)"/>
<circle cx="238.537041" cy="104.335135" r="5.636364" opacity="0.455099" style="stroke:black;stroke-width:0.5;fill:url(#radialffffffbfbfbf)"/>
<circle cx="53.755491" cy="59.964271" r="5.636364" opacity="0.457492" style="stroke:black;stroke-width:0.5;fill:url(#radialffffffbfbfbf)"/>
<circle cx="107.998904" cy="42.021616" r="5.636364" opacity="0.472684" style="stroke:black;stroke-width:0.5;fill:url(#radialffffffbfbfbf)"/>
<circle cx="156.144758" cy="153.059995" r="5.636364" opacity="0.498927" style="stroke:black;stroke-width:0.5;fill:url(#radialffffffbfbfbf)"/>
<circle cx="326.922204" cy="95.139728" r="13.818182" opacity="0.523982" style="stroke:black;stroke-width:0.5;fill:url(#radialffffff666666)"/>
<circle cx="98.705361" cy="112.689837" r="13.818182" opacity="0.540325" style="stroke:black;stroke-width:0.5;fill:url(#radialffffff666666)"/>
<circle cx="359.981180" cy="108.182092" r="5.636364" opacity="0.556282" style="stroke:black;stroke-width:0.5;fill:url(#radialffffffbfbfbf)"/>
<circle cx="148.575149" cy="119.176671" r="13.818182" opacity="0.568540" style="stroke:black;stroke-width:0.5;fill:url(#radialffffff666666)"/>
<circle cx="327.965724" cy="59.898847" r="5.636364" opacity="0.570019" style="stroke:black;stroke-width:0.5;fill:url(#radialffffffbfbfbf)"/>
<circle cx="85.100346" cy="65.005225" r="13.818182" opacity="0.587008" style="stroke:black;stroke-width:0.5;fill:url(#radialffffff666666)"/>
<circle cx="295.773623" cy="153.059995" r="5.636364" opacity="0.686421" style="stroke:black;stroke-width:0.5;fill:url(#radialffffffbfbfbf)"/>
<circle cx="248.710543" cy="100.164326" r="13.818182" opacity="0.693875" style="stroke:black;stroke-width:0.5;fill:url(#radialffffff666666)"/>
<circle cx="40.000000" cy="141.561648" r="5.750120" opacity="0.714207" style="stroke:black;stroke-width:0.5;fill:url(#radialffffffbfbfbf)"/>
<circle cx="295.263312" cy="117.799487" r="14.469403" opacity="0.723577" style="stroke:black;stroke-width:0.5;fill:url(#radialffffff666666)"/>
<circle cx="248.373607" cy="65.005225" r="6.061282" opacity="0.733276" style="stroke:black;stroke-width:0.5;fill:url(#radialffffffbfbfbf)"/>
<circle cx="86.500429" cy="175.598719" r="6.130396" opacity="0.737445" style="stroke:black;stroke-width:0.5;fill:url(#radialffffffbfbfbf)"/>
<circle cx="75.276864" cy="141.646699" r="15.518048" opacity="0.749339" style="stroke:black;stroke-width:0.5;fill:url(#radialffffff666666)"/>
<circle cx="166.599585" cy="40.000000" r="6.391428" opacity="0.752982" style="stroke:black;stroke-width:0.5;fill:url(#radialffffffbfbfbf)"/>
<circle cx="78.410696" cy="56.136941" r="6.958283" opacity="0.785663" style="stroke:black;stroke-width:0.5;fill:url(#radialffffffbfbfbf)"/>
<circle cx="219.181217" cy="159.376726" r="7.624508" opacity="0.822416" style="stroke:black;stroke-width:0.5;fill:url(#radialffffffbfbfbf)"/>
<circle cx="168.473996" cy="110.468677" r="19.068313" opacity="0.830645" style="stroke:black;stroke-width:0.5;fill:url(#radialffffff666666)"/>
<circle cx="216.865191" cy="124.080234" r="20.072597" opacity="0.852239" style="stroke:black;stroke-width:0.5;fill:url(#radialffffff666666)"/>
<circle cx="161.866126" cy="62.280297" r="21.799006" opacity="0.888133" style="stroke:black;stroke-width:0.5;fill:url(#radialffffff666666)"/>
<circle cx="306.339672" cy="113.062756" r="8.964670" opacity="0.891770" style="stroke:black;stroke-width:0.5;fill:url(#radialffffffbfbfbf)"/>
<circle cx="79.800965" cy="130.328269" r="9.381432" opacity="0.912263" style="stroke:black;stroke-width:0.5;fill:url(#radialffffffbfbfbf)"/>
<circle cx="151.156143" cy="130.298828" r="9.986255" opacity="0.941211" style="stroke:black;stroke-width:0.5;fill:url(#radialffffffbfbfbf)"/>
<circle cx="130.449304" cy="56.712676" r="10.334198" opacity="0.957467" style="stroke:black;stroke-width:0.5;fill:url(#radialffffffbfbfbf)"/>
<circle cx="185.942324" cy="52.659631" r="11.143991" opacity="0.994274" style="stroke:black;stroke-width:0.5;fill:url(#radialffffffbfbfbf)"/>
<circle cx="227.280764" cy="119.225740" r="11.272727" opacity="1.000000" style="stroke:black;stroke-width:0.5;fill:url(#radialffffffbfbfbf)"/>
</svg>
</g>
</svg>
