<?xml version="1.0"?>
<svg version="1.1" id="topsvg"
xmlns="http://www.w3.org/2000/svg" xmlns:xlink="http://www.w3.org/1999/xlink"
xmlns:cml="http://www.xml-cml.org/schema" x="0" y="0" width="1024px" height="1024px" viewBox="0 0 100 100">
<title>93280 - Open Babel Depiction</title>
<rect x="0" y="0" width="100" height="100" fill="white"/>
<defs>
<radialGradient id='radialffffff666666' cx='50%' cy='50%' r='50%' fx='30%' fy='30%'>
  <stop offset=' 0%' stop-color="rgb(255,255,255)"  stop-opacity='1.0'/>
  <stop offset='100%' stop-color="rgb(102,102,102)"  stop-opacity ='1.0'/>
</radialGradient>
<radialGradient id='radialffffffbfbfbf' cx='50%' cy='50%' r='50%' fx='30%' fy='30%'>
  <stop offset=' 0%' stop-color="rgb(255,255,255)"  stop-opacity='1.0'/>
  <stop offset='100%' stop-color="rgb(191,191,191)"  stop-opacity ='1.0'/>
</radialGradient>
</defs>
<g transform="translate(0,0)">
<svg width="100" height="100" x="0" y="0" viewBox="0 0 355.747 245.041"
font-family="sans-serif" stroke="rgb(0,0,0)" stroke-width="2"  stroke-linecap="round">
<line x1="208.5" y1="105.8" x2="176.9" y2="142.0" opacity="1.0" stroke="rgb(0,0,0)"  stroke-width="1.3"/>
<line x1="208.5" y1="105.8" x2="256.3" y2="122.2" opacity="0.4" stroke="rgb(0,0,0)"  stroke-width="1.6"/>
<line x1="208.5" y1="105.8" x2="206.9" y2="64.9" opacity="0.5" stroke="rgb(0,0,0)"  stroke-width="1.2"/>
<polygon points="208.479572 105.770746 193.859392 98.970790 198.927207 92.780697 " stroke-width="1.194380" fill="rgb(0,0,0)"  stroke="rgb(0,0,0)" />
<line x1="176.9" y1="142.0" x2="129.8" y2="125.8" opacity="0.4" stroke="rgb(0,0,0)"  stroke-width="1.0"/>
<line x1="176.9" y1="142.0" x2="175.4" y2="182.2" opacity="0.3" stroke="rgb(0,0,0)"  stroke-width="1.5"/>
<line x1="180.0" y1="143.5" x2="178.9" y2="144.7" opacity="0.5" stroke="rgb(0,0,0)"  stroke-width="1.0"/>
<line x1="182.4" y1="144.8" x2="180.5" y2="147.0" opacity="0.5" stroke="rgb(0,0,0)"  stroke-width="1.0"/>
<line x1="184.8" y1="146.1" x2="182.0" y2="149.2" opacity="0.5" stroke="rgb(0,0,0)"  stroke-width="1.0"/>
<line x1="187.2" y1="147.4" x2="183.6" y2="151.4" opacity="0.5" stroke="rgb(0,0,0)"  stroke-width="1.0"/>
<line x1="189.6" y1="148.6" x2="185.2" y2="153.7" opacity="0.5" stroke="rgb(0,0,0)"  stroke-width="1.0"/>
<line x1="192.0" y1="149.9" x2="186.8" y2="155.9" opacity="0.5" stroke="rgb(0,0,0)"  stroke-width="1.0"/>
<line x1="256.3" y1="122.2" x2="278.9" y2="137.6" opacity="0.5" stroke="rgb(0,0,0)"  stroke-width="1.2"/>
<line x1="256.3" y1="122.2" x2="284.9" y2="88.0" opacity="0.4" stroke="rgb(0,0,0)"  stroke-width="2.0"/>
<line x1="256.3" y1="122.2" x2="255.0" y2="150.2" opacity="0.7" stroke="rgb(0,0,0)"  stroke-width="2.0"/>
<line x1="129.8" y1="125.8" x2="104.2" y2="111.0" opacity="0.7" stroke="rgb(0,0,0)"  stroke-width="1.4"/>
<line x1="129.8" y1="125.8" x2="111.7" y2="152.6" opacity="0.5" stroke="rgb(0,0,0)"  stroke-width="0.7"/>
<line x1="129.8" y1="125.8" x2="130.3" y2="99.7" opacity="0.2" stroke="rgb(0,0,0)"  stroke-width="0.6"/>
<line x1="206.9" y1="64.9" x2="213.8" y2="72.9" opacity="0.2" stroke="rgb(0,0,0)"  stroke-width="0.4"/>
<line x1="206.9" y1="64.9" x2="174.8" y2="49.2" opacity="0.1" stroke="rgb(0,0,0)"  stroke-width="0.9"/>
<line x1="206.9" y1="64.9" x2="230.2" y2="40.0" opacity="0.3" stroke="rgb(0,0,0)"  stroke-width="1.0"/>
<line x1="175.4" y1="182.2" x2="169.2" y2="173.2" opacity="0.3" stroke="rgb(0,0,0)"  stroke-width="2.3"/>
<line x1="175.4" y1="182.2" x2="149.9" y2="205.0" opacity="0.8" stroke="rgb(0,0,0)"  stroke-width="1.7"/>
<line x1="175.4" y1="182.2" x2="206.3" y2="200.2" opacity="0.6" stroke="rgb(0,0,0)"  stroke-width="1.8"/>
<line x1="104.2" y1="111.0" x2="59.0" y2="94.5" opacity="0.6" stroke="rgb(0,0,0)"  stroke-width="1.7"/>
<line x1="104.2" y1="111.0" x2="100.6" y2="138.1" opacity="0.6" stroke="rgb(0,0,0)"  stroke-width="2.2"/>
<line x1="104.2" y1="111.0" x2="121.7" y2="84.8" opacity="0.7" stroke="rgb(0,0,0)"  stroke-width="2.1"/>
<line x1="278.9" y1="137.6" x2="311.9" y2="149.2" opacity="0.7" stroke="rgb(0,0,0)"  stroke-width="0.8"/>
<line x1="278.9" y1="137.6" x2="261.3" y2="164.7" opacity="0.3" stroke="rgb(0,0,0)"  stroke-width="0.5"/>
<line x1="278.9" y1="137.6" x2="281.7" y2="111.2" opacity="0.2" stroke="rgb(0,0,0)"  stroke-width="0.4"/>
<line x1="284.9" y1="88.0" x2="315.7" y2="102.8" opacity="0.1" stroke="rgb(0,0,0)"  stroke-width="2.4"/>
<line x1="284.9" y1="88.0" x2="293.1" y2="60.7" opacity="0.8" stroke="rgb(0,0,0)"  stroke-width="2.0"/>
<line x1="284.9" y1="88.0" x2="268.6" y2="75.1" opacity="0.7" stroke="rgb(0,0,0)"  stroke-width="2.6"/>
<line x1="59.0" y1="94.5" x2="41.2" y2="84.1" opacity="0.9" stroke="rgb(0,0,0)"  stroke-width="1.9"/>
<line x1="59.0" y1="94.5" x2="40.0" y2="120.1" opacity="0.6" stroke="rgb(0,0,0)"  stroke-width="1.4"/>
<line x1="59.0" y1="94.5" x2="61.3" y2="66.5" opacity="0.5" stroke="rgb(0,0,0)"  stroke-width="1.3"/>
<circle cx="213.818955" cy="72.875576" r="5.636364" opacity="0.200000" style="stroke:black;stroke-width:0.5;fill:url(#radialffffffbfbfbf)"/>
<circle cx="281.741783" cy="111.159115" r="5.636364" opacity="0.200000" style="stroke:black;stroke-width:0.5;fill:url(#radialffffffbfbfbf)"/>
<circle cx="130.250266" cy="99.709649" r="5.636364" opacity="0.314523" style="stroke:black;stroke-width:0.5;fill:url(#radialffffffbfbfbf)"/>
<circle cx="261.347626" cy="164.680304" r="5.636364" opacity="0.329401" style="stroke:black;stroke-width:0.5;fill:url(#radialffffffbfbfbf)"/>
<circle cx="189.408015" cy="152.904271" r="5.636364" opacity="0.336177" style="stroke:black;stroke-width:0.5;fill:url(#radialffffffbfbfbf)"/>
<circle cx="111.658763" cy="152.646283" r="5.636364" opacity="0.414460" style="stroke:black;stroke-width:0.5;fill:url(#radialffffffbfbfbf)"/>
<circle cx="278.871252" cy="137.558852" r="13.818182" opacity="0.482806" style="stroke:black;stroke-width:0.5;fill:url(#radialffffff666666)"/>
<circle cx="206.908781" cy="64.871400" r="13.818182" opacity="0.528231" style="stroke:black;stroke-width:0.5;fill:url(#radialffffff666666)"/>
<circle cx="174.820233" cy="49.202679" r="5.636364" opacity="0.539008" style="stroke:black;stroke-width:0.5;fill:url(#radialffffffbfbfbf)"/>
<circle cx="311.942769" cy="149.194461" r="5.636364" opacity="0.540195" style="stroke:black;stroke-width:0.5;fill:url(#radialffffffbfbfbf)"/>
<circle cx="129.789805" cy="125.848132" r="13.818182" opacity="0.546408" style="stroke:black;stroke-width:0.5;fill:url(#radialffffff666666)"/>
<circle cx="61.279155" cy="66.491177" r="5.636364" opacity="0.588089" style="stroke:black;stroke-width:0.5;fill:url(#radialffffffbfbfbf)"/>
<circle cx="230.245313" cy="40.000000" r="5.636364" opacity="0.604204" style="stroke:black;stroke-width:0.5;fill:url(#radialffffffbfbfbf)"/>
<circle cx="176.926595" cy="141.954454" r="13.818182" opacity="0.610422" style="stroke:black;stroke-width:0.5;fill:url(#radialffffff666666)"/>
<circle cx="40.000000" cy="120.077680" r="5.636364" opacity="0.628473" style="stroke:black;stroke-width:0.5;fill:url(#radialffffffbfbfbf)"/>
<circle cx="208.479572" cy="105.770746" r="14.294239" opacity="0.719184" style="stroke:black;stroke-width:0.5;fill:url(#radialffffff666666)"/>
<circle cx="59.038900" cy="94.474768" r="14.556789" opacity="0.725759" style="stroke:black;stroke-width:0.5;fill:url(#radialffffff666666)"/>
<circle cx="149.925973" cy="205.040814" r="5.995395" opacity="0.729280" style="stroke:black;stroke-width:0.5;fill:url(#radialffffffbfbfbf)"/>
<circle cx="256.285826" cy="122.246090" r="15.903465" opacity="0.758587" style="stroke:black;stroke-width:0.5;fill:url(#radialffffff666666)"/>
<circle cx="293.148795" cy="60.743584" r="6.612082" opacity="0.765869" style="stroke:black;stroke-width:0.5;fill:url(#radialffffffbfbfbf)"/>
<circle cx="206.314428" cy="200.204345" r="6.852439" opacity="0.779665" style="stroke:black;stroke-width:0.5;fill:url(#radialffffffbfbfbf)"/>
<circle cx="175.447243" cy="182.226790" r="17.045116" opacity="0.785343" style="stroke:black;stroke-width:0.5;fill:url(#radialffffff666666)"/>
<circle cx="104.229347" cy="111.028487" r="17.362241" opacity="0.792615" style="stroke:black;stroke-width:0.5;fill:url(#radialffffff666666)"/>
<circle cx="255.048134" cy="150.197024" r="8.546071" opacity="0.870700" style="stroke:black;stroke-width:0.5;fill:url(#radialffffffbfbfbf)"/>
<circle cx="284.909490" cy="88.047914" r="21.070395" opacity="0.873164" style="stroke:black;stroke-width:0.5;fill:url(#radialffffff666666)"/>
<circle cx="41.214832" cy="84.106241" r="8.626992" opacity="0.874813" style="stroke:black;stroke-width:0.5;fill:url(#radialffffffbfbfbf)"/>
<circle cx="121.703987" cy="84.814893" r="8.638724" opacity="0.875408" style="stroke:black;stroke-width:0.5;fill:url(#radialffffffbfbfbf)"/>
<circle cx="196.393299" cy="95.875743" r="8.805681" opacity="0.883826" style="stroke:black;stroke-width:0.5;fill:url(#radialffffffbfbfbf)"/>
<circle cx="100.558725" cy="138.071563" r="9.210588" opacity="0.903918" style="stroke:black;stroke-width:0.5;fill:url(#radialffffffbfbfbf)"/>
<circle cx="315.747284" cy="102.808777" r="9.569469" opacity="0.921360" style="stroke:black;stroke-width:0.5;fill:url(#radialffffffbfbfbf)"/>
<circle cx="169.167345" cy="173.151472" r="10.084779" opacity="0.945842" style="stroke:black;stroke-width:0.5;fill:url(#radialffffffbfbfbf)"/>
<circle cx="268.630087" cy="75.092971" r="11.272727" opacity="1.000000" style="stroke:black;stroke-width:0.5;fill:url(#radialffffffbfbfbf)"/>
</svg>
</g>
</svg>
